<?xml version="1.0" encoding="UTF-8" standalone="no"?>
<!DOCTYPE svg PUBLIC "-//W3C//DTD SVG 1.1//EN"
 "http://www.w3.org/Graphics/SVG/1.1/DTD/svg11.dtd">
<!-- Generated by graphviz version 2.43.0 (0)
 -->
<!-- Title: ematch_src/utils/sequence/align/AminoScoreIdentity.hh Pages: 1 -->
<!--zoomable 434 -->

<svg id="main" version="1.1" xmlns="http://www.w3.org/2000/svg" xmlns:xlink="http://www.w3.org/1999/xlink" xml:space="preserve" onload="init(evt)">
<style type="text/css"><![CDATA[
.node, .edge {opacity: 0.7;}
.node.selected, .edge.selected {opacity: 1;}
.edge:hover path { stroke: red; }
.edge:hover polygon { stroke: red; fill: red; }
]]></style>

<defs>
  <circle id="rim" cx="0" cy="0" r="7"/>
  <circle id="rim2" cx="0" cy="0" r="3.5"/>
  <g id="zoomPlus">
    <use xlink:href="#rim" fill="#404040"><set attributeName="fill" to="#808080" begin="zoomplus.mouseover" end="zoomplus.mouseout"/></use>
    <path d="M-4,0h8M0,-4v8" fill="none" stroke="white" stroke-width="1.5" pointer-events="none"/>
  </g>
  <g id="zoomMin">
    <use xlink:href="#rim" fill="#404040"><set attributeName="fill" to="#808080" begin="zoomminus.mouseover" end="zoomminus.mouseout"/></use>
    <path d="M-4,0h8" fill="none" stroke="white" stroke-width="1.5" pointer-events="none"/>
  </g>
  <g id="arrowUp" transform="translate(30 24)">
    <use xlink:href="#rim"/>
    <path pointer-events="none" fill="none" stroke="white" stroke-width="1.5" d="M0,-3.0v7 M-2.5,-0.5L0,-3.0L2.5,-0.5"/>
  </g>
  <g id="arrowRight" transform="rotate(90) translate(36 -43)">
    <use xlink:href="#rim"/>
    <path pointer-events="none" fill="none" stroke="white" stroke-width="1.5" d="M0,-3.0v7 M-2.5,-0.5L0,-3.0L2.5,-0.5"/>
  </g>
  <g id="arrowDown" transform="rotate(180) translate(-30 -48)">
    <use xlink:href="#rim"/>
    <path pointer-events="none" fill="none" stroke="white" stroke-width="1.5" d="M0,-3.0v7 M-2.5,-0.5L0,-3.0L2.5,-0.5"/>
  </g>
  <g id="arrowLeft" transform="rotate(270) translate(-36 17)">
    <use xlink:href="#rim"/>
    <path pointer-events="none" fill="none" stroke="white" stroke-width="1.5" d="M0,-3.0v7 M-2.5,-0.5L0,-3.0L2.5,-0.5"/>
  </g>
  <g id="resetDef">
    <use xlink:href="#rim2" fill="#404040"><set attributeName="fill" to="#808080" begin="reset.mouseover" end="reset.mouseout"/></use>
  </g>
</defs>
<script type="application/ecmascript">
var viewWidth = 1254;
var viewHeight = 434;
var sectionId = 'dynsection-0';
</script>
<script type="application/ecmascript" xlink:href="svg.min.js"/>
<svg id="graph" class="graph">
<g id="viewport">
<title>ematch_src/utils/sequence/align/AminoScoreIdentity.hh</title>
<!-- Node1 -->
<g id="Node000001" class="node">
<title>Node1</title>
<g id="a_Node000001"><a xlink:title=" ">
<polygon fill="#999999" stroke="#666666" points="1032.98,-426 876.98,-426 876.98,-396 1032.98,-396 1032.98,-426"/>
<text text-anchor="start" x="884.98" y="-414" font-family="Helvetica,sans-Serif" font-size="10.00">ematch_src/utils/sequence</text>
<text text-anchor="middle" x="954.98" y="-403" font-family="Helvetica,sans-Serif" font-size="10.00">/align/AminoScoreIdentity.hh</text>
</a>
</g>
</g>
<!-- Node2 -->
<g id="Node000002" class="node">
<title>Node2</title>
<g id="a_Node000002"><a xlink:href="AminoScore_8hh.html" target="_top" xlink:title=" ">
<polygon fill="white" stroke="#666666" points="999.98,-360 909.98,-360 909.98,-341 999.98,-341 999.98,-360"/>
<text text-anchor="middle" x="954.98" y="-348" font-family="Helvetica,sans-Serif" font-size="10.00">AminoScore.hh</text>
</a>
</g>
</g>
<!-- Node1&#45;&gt;Node2 -->
<g id="edge1_Node000001_Node000002" class="edge">
<title>Node1&#45;&gt;Node2</title>
<g id="a_edge1_Node000001_Node000002"><a xlink:title=" ">
<path fill="none" stroke="#63b8ff" d="M954.98,-395.84C954.98,-388.21 954.98,-378.7 954.98,-370.45"/>
<polygon fill="#63b8ff" stroke="#63b8ff" points="958.48,-370.27 954.98,-360.27 951.48,-370.27 958.48,-370.27"/>
</a>
</g>
</g>
<!-- Node3 -->
<g id="Node000003" class="node">
<title>Node3</title>
<g id="a_Node000003"><a xlink:title=" ">
<polygon fill="#e0e0e0" stroke="#999999" points="941.98,-19 881.98,-19 881.98,0 941.98,0 941.98,-19"/>
<text text-anchor="middle" x="911.98" y="-7" font-family="Helvetica,sans-Serif" font-size="10.00">iostream</text>
</a>
</g>
</g>
<!-- Node2&#45;&gt;Node3 -->
<g id="edge2_Node000002_Node000003" class="edge">
<title>Node2&#45;&gt;Node3</title>
<g id="a_edge2_Node000002_Node000003"><a xlink:title=" ">
<path fill="none" stroke="#63b8ff" d="M966.45,-340.87C976.5,-332.71 990.75,-319.56 998.98,-305 1015.8,-275.26 1017.98,-264.67 1017.98,-230.5 1017.98,-230.5 1017.98,-230.5 1017.98,-173.5 1017.98,-110.25 961.19,-52.26 930.75,-25.72"/>
<polygon fill="#63b8ff" stroke="#63b8ff" points="932.82,-22.89 922.93,-19.09 928.29,-28.23 932.82,-22.89"/>
</a>
</g>
</g>
<!-- Node4 -->
<g id="Node000004" class="node">
<title>Node4</title>
<g id="a_Node000004"><a xlink:href="ResidueIndexMapPredefined_8hh.html" target="_top" xlink:title=" ">
<polygon fill="white" stroke="#666666" points="989.98,-305 795.98,-305 795.98,-275 989.98,-275 989.98,-305"/>
<text text-anchor="start" x="803.98" y="-293" font-family="Helvetica,sans-Serif" font-size="10.00">utils/sequence/ResidueIndex</text>
<text text-anchor="middle" x="892.98" y="-282" font-family="Helvetica,sans-Serif" font-size="10.00">Map/ResidueIndexMapPredefined.hh</text>
</a>
</g>
</g>
<!-- Node2&#45;&gt;Node4 -->
<g id="edge3_Node000002_Node000004" class="edge">
<title>Node2&#45;&gt;Node4</title>
<g id="a_edge3_Node000002_Node000004"><a xlink:title=" ">
<path fill="none" stroke="#63b8ff" d="M945.83,-340.87C937.81,-333.3 925.81,-321.98 915.28,-312.04"/>
<polygon fill="#63b8ff" stroke="#63b8ff" points="917.62,-309.43 907.94,-305.11 912.81,-314.52 917.62,-309.43"/>
</a>
</g>
</g>
<!-- Node4&#45;&gt;Node3 -->
<g id="edge37_Node000004_Node000003" class="edge">
<title>Node4&#45;&gt;Node3</title>
<g id="a_edge37_Node000004_Node000003"><a xlink:title=" ">
<path fill="none" stroke="#63b8ff" d="M903.61,-274.8C918.03,-254.1 941.98,-213.92 941.98,-175.5 941.98,-175.5 941.98,-175.5 941.98,-118.5 941.98,-85.87 929.11,-49.65 920.23,-28.55"/>
<polygon fill="#63b8ff" stroke="#63b8ff" points="923.37,-26.99 916.15,-19.23 916.96,-29.8 923.37,-26.99"/>
</a>
</g>
</g>
<!-- Node5 -->
<g id="Node000005" class="node">
<title>Node5</title>
<g id="a_Node000005"><a xlink:href="ResidueIndexMap_8hh.html" target="_top" xlink:title=" ">
<polygon fill="white" stroke="#666666" points="187.48,-239 68.48,-239 68.48,-220 187.48,-220 187.48,-239"/>
<text text-anchor="middle" x="127.98" y="-227" font-family="Helvetica,sans-Serif" font-size="10.00">ResidueIndexMap.hh</text>
</a>
</g>
</g>
<!-- Node4&#45;&gt;Node5 -->
<g id="edge4_Node000004_Node000005" class="edge">
<title>Node4&#45;&gt;Node5</title>
<g id="a_edge4_Node000004_Node000005"><a xlink:title=" ">
<path fill="none" stroke="#63b8ff" d="M795.71,-281.56C639.21,-269.59 335.26,-246.35 198.11,-235.86"/>
<polygon fill="#63b8ff" stroke="#63b8ff" points="197.97,-232.34 187.74,-235.07 197.44,-239.32 197.97,-232.34"/>
</a>
</g>
</g>
<!-- Node6 -->
<g id="Node000006" class="node">
<title>Node6</title>
<g id="a_Node000006"><a xlink:title=" ">
<polygon fill="#e0e0e0" stroke="#999999" points="231.98,-19 187.98,-19 187.98,0 231.98,0 231.98,-19"/>
<text text-anchor="middle" x="209.98" y="-7" font-family="Helvetica,sans-Serif" font-size="10.00">string</text>
</a>
</g>
</g>
<!-- Node5&#45;&gt;Node6 -->
<g id="edge5_Node000005_Node000006" class="edge">
<title>Node5&#45;&gt;Node6</title>
<g id="a_edge5_Node000005_Node000006"><a xlink:title=" ">
<path fill="none" stroke="#63b8ff" d="M68.25,-221.46C30.55,-213.77 -9.12,-197.84 1.98,-165 21.69,-106.73 36.34,-91.32 85.98,-55 113.52,-34.85 151.08,-23.07 177.62,-16.75"/>
<polygon fill="#63b8ff" stroke="#63b8ff" points="178.57,-20.13 187.56,-14.52 177.04,-13.3 178.57,-20.13"/>
</a>
</g>
</g>
<!-- Node7 -->
<g id="Node000007" class="node">
<title>Node7</title>
<g id="a_Node000007"><a xlink:title=" ">
<polygon fill="#e0e0e0" stroke="#999999" points="351.48,-19 304.48,-19 304.48,0 351.48,0 351.48,-19"/>
<text text-anchor="middle" x="327.98" y="-7" font-family="Helvetica,sans-Serif" font-size="10.00">vector</text>
</a>
</g>
</g>
<!-- Node5&#45;&gt;Node7 -->
<g id="edge6_Node000005_Node000007" class="edge">
<title>Node5&#45;&gt;Node7</title>
<g id="a_edge6_Node000005_Node000007"><a xlink:title=" ">
<path fill="none" stroke="#63b8ff" d="M123.88,-219.69C111.63,-191.88 78.56,-104.93 118.98,-55 129.97,-41.42 237.94,-23.73 294.22,-15.33"/>
<polygon fill="#63b8ff" stroke="#63b8ff" points="295.04,-18.75 304.42,-13.83 294.02,-11.83 295.04,-18.75"/>
</a>
</g>
</g>
<!-- Node8 -->
<g id="Node000008" class="node">
<title>Node8</title>
<g id="a_Node000008"><a xlink:title=" ">
<polygon fill="#e0e0e0" stroke="#999999" points="181.48,-74 128.48,-74 128.48,-55 181.48,-55 181.48,-74"/>
<text text-anchor="middle" x="154.98" y="-62" font-family="Helvetica,sans-Serif" font-size="10.00">ctype.h</text>
</a>
</g>
</g>
<!-- Node5&#45;&gt;Node8 -->
<g id="edge7_Node000005_Node000008" class="edge">
<title>Node5&#45;&gt;Node8</title>
<g id="a_edge7_Node000005_Node000008"><a xlink:title=" ">
<path fill="none" stroke="#63b8ff" d="M129.43,-219.74C133.66,-194.2 146.05,-119.43 151.88,-84.23"/>
<polygon fill="#63b8ff" stroke="#63b8ff" points="155.34,-84.74 153.52,-74.31 148.44,-83.6 155.34,-84.74"/>
</a>
</g>
</g>
<!-- Node9 -->
<g id="Node000009" class="node">
<title>Node9</title>
<g id="a_Node000009"><a xlink:title=" ">
<polygon fill="#e0e0e0" stroke="#999999" points="76.48,-184 11.48,-184 11.48,-165 76.48,-165 76.48,-184"/>
<text text-anchor="middle" x="43.98" y="-172" font-family="Helvetica,sans-Serif" font-size="10.00">stdexcept</text>
</a>
</g>
</g>
<!-- Node5&#45;&gt;Node9 -->
<g id="edge8_Node000005_Node000009" class="edge">
<title>Node5&#45;&gt;Node9</title>
<g id="a_edge8_Node000005_Node000009"><a xlink:title=" ">
<path fill="none" stroke="#63b8ff" d="M114.49,-219.98C101.58,-211.84 81.88,-199.41 66.58,-189.76"/>
<polygon fill="#63b8ff" stroke="#63b8ff" points="68.05,-186.55 57.72,-184.17 64.31,-192.47 68.05,-186.55"/>
</a>
</g>
</g>
<!-- Node10 -->
<g id="Node000010" class="node">
<title>Node10</title>
<g id="a_Node000010"><a xlink:href="ematch__src_2utils_2FLArray_2FLEArray_8hh.html" target="_top" xlink:title=" ">
<polygon fill="white" stroke="#666666" points="761.48,-184 622.48,-184 622.48,-165 761.48,-165 761.48,-184"/>
<text text-anchor="middle" x="691.98" y="-172" font-family="Helvetica,sans-Serif" font-size="10.00">utils/FLArray/FLEArray.hh</text>
</a>
</g>
</g>
<!-- Node5&#45;&gt;Node10 -->
<g id="edge9_Node000005_Node000010" class="edge">
<title>Node5&#45;&gt;Node10</title>
<g id="a_edge9_Node000005_Node000010"><a xlink:title=" ">
<path fill="none" stroke="#63b8ff" d="M187.54,-222.9C289.52,-213.32 497.61,-193.77 612.08,-183.01"/>
<polygon fill="#63b8ff" stroke="#63b8ff" points="612.56,-186.48 622.18,-182.06 611.9,-179.51 612.56,-186.48"/>
</a>
</g>
</g>
<!-- Node10&#45;&gt;Node3 -->
<g id="edge12_Node000010_Node000003" class="edge">
<title>Node10&#45;&gt;Node3</title>
<g id="a_edge12_Node000010_Node000003"><a xlink:title=" ">
<path fill="none" stroke="#63b8ff" d="M701.9,-164.82C717.55,-151.49 749.36,-125.85 779.98,-110 823.79,-87.32 848.87,-107.61 884.98,-74 897.71,-62.15 904.69,-43.32 908.34,-29.23"/>
<polygon fill="#63b8ff" stroke="#63b8ff" points="911.82,-29.7 910.61,-19.18 904.99,-28.17 911.82,-29.7"/>
</a>
</g>
</g>
<!-- Node10&#45;&gt;Node7 -->
<g id="edge11_Node000010_Node000007" class="edge">
<title>Node10&#45;&gt;Node7</title>
<g id="a_edge11_Node000010_Node000007"><a xlink:title=" ">
<path fill="none" stroke="#63b8ff" d="M622.23,-167.55C578.57,-161.82 522.07,-150.65 475.98,-129 420.87,-103.11 368.13,-52.76 343.11,-26.82"/>
<polygon fill="#63b8ff" stroke="#63b8ff" points="345.41,-24.17 335.99,-19.32 340.33,-28.98 345.41,-24.17"/>
</a>
</g>
</g>
<!-- Node11 -->
<g id="Node000011" class="node">
<title>Node11</title>
<g id="a_Node000011"><a xlink:title=" ">
<polygon fill="#e0e0e0" stroke="#999999" points="875.98,-74 819.98,-74 819.98,-55 875.98,-55 875.98,-74"/>
<text text-anchor="middle" x="847.98" y="-62" font-family="Helvetica,sans-Serif" font-size="10.00">assert.h</text>
</a>
</g>
</g>
<!-- Node10&#45;&gt;Node11 -->
<g id="edge10_Node000010_Node000011" class="edge">
<title>Node10&#45;&gt;Node11</title>
<g id="a_edge10_Node000010_Node000011"><a xlink:title=" ">
<path fill="none" stroke="#63b8ff" d="M697.61,-164.59C706.46,-151.17 724.84,-125.7 745.98,-110 765.31,-95.65 789.99,-84.72 810.23,-77.29"/>
<polygon fill="#63b8ff" stroke="#63b8ff" points="811.5,-80.55 819.77,-73.92 809.17,-73.95 811.5,-80.55"/>
</a>
</g>
</g>
<!-- Node12 -->
<g id="Node000012" class="node">
<title>Node12</title>
<g id="a_Node000012"><a xlink:title=" ">
<polygon fill="#e0e0e0" stroke="#999999" points="693.98,-129 629.98,-129 629.98,-110 693.98,-110 693.98,-129"/>
<text text-anchor="middle" x="661.98" y="-117" font-family="Helvetica,sans-Serif" font-size="10.00">algorithm</text>
</a>
</g>
</g>
<!-- Node10&#45;&gt;Node12 -->
<g id="edge13_Node000010_Node000012" class="edge">
<title>Node10&#45;&gt;Node12</title>
<g id="a_edge13_Node000010_Node000012"><a xlink:title=" ">
<path fill="none" stroke="#63b8ff" d="M687.03,-164.75C682.92,-157.49 676.96,-146.95 671.88,-137.98"/>
<polygon fill="#63b8ff" stroke="#63b8ff" points="674.82,-136.07 666.84,-129.09 668.72,-139.52 674.82,-136.07"/>
</a>
</g>
</g>
<!-- Node13 -->
<g id="Node000013" class="node">
<title>Node13</title>
<g id="a_Node000013"><a xlink:title=" ">
<polygon fill="#e0e0e0" stroke="#999999" points="913.48,-129 788.48,-129 788.48,-110 913.48,-110 913.48,-129"/>
<text text-anchor="middle" x="850.98" y="-117" font-family="Helvetica,sans-Serif" font-size="10.00">boost/lexical_cast.hpp</text>
</a>
</g>
</g>
<!-- Node10&#45;&gt;Node13 -->
<g id="edge14_Node000010_Node000013" class="edge">
<title>Node10&#45;&gt;Node13</title>
<g id="a_edge14_Node000010_Node000013"><a xlink:title=" ">
<path fill="none" stroke="#63b8ff" d="M717.53,-164.98C744.11,-156.13 785.92,-142.19 815.65,-132.28"/>
<polygon fill="#63b8ff" stroke="#63b8ff" points="816.86,-135.56 825.24,-129.08 814.64,-128.92 816.86,-135.56"/>
</a>
</g>
</g>
<!-- Node14 -->
<g id="Node000014" class="node">
<title>Node14</title>
<g id="a_Node000014"><a xlink:href="ematch__src_2utils_2gdb_2gdbUtils_8hh.html" target="_top" xlink:title=" ">
<polygon fill="white" stroke="#666666" points="1148.48,-74 1031.48,-74 1031.48,-55 1148.48,-55 1148.48,-74"/>
<text text-anchor="middle" x="1089.98" y="-62" font-family="Helvetica,sans-Serif" font-size="10.00">utils/gdb/gdbUtils.hh</text>
</a>
</g>
</g>
<!-- Node10&#45;&gt;Node14 -->
<g id="edge15_Node000010_Node000014" class="edge">
<title>Node10&#45;&gt;Node14</title>
<g id="a_edge15_Node000010_Node000014"><a xlink:title=" ">
<path fill="none" stroke="#63b8ff" d="M751.51,-164.94C798.56,-157.48 865.62,-145.3 922.98,-129 972.74,-114.86 1028.53,-92.2 1061.38,-78.12"/>
<polygon fill="#63b8ff" stroke="#63b8ff" points="1063.02,-81.22 1070.81,-74.04 1060.24,-74.8 1063.02,-81.22"/>
</a>
</g>
</g>
<!-- Node19 -->
<g id="Node000019" class="node">
<title>Node19</title>
<g id="a_Node000019"><a xlink:href="ematch__src_2utils_2perlish_2perlish_8hh.html" target="_top" xlink:title=" ">
<polygon fill="white" stroke="#666666" points="610.48,-129 485.48,-129 485.48,-110 610.48,-110 610.48,-129"/>
<text text-anchor="middle" x="547.98" y="-117" font-family="Helvetica,sans-Serif" font-size="10.00">utils/perlish/perlish.hh</text>
</a>
</g>
</g>
<!-- Node10&#45;&gt;Node19 -->
<g id="edge21_Node000010_Node000019" class="edge">
<title>Node10&#45;&gt;Node19</title>
<g id="a_edge21_Node000010_Node000019"><a xlink:title=" ">
<path fill="none" stroke="#63b8ff" d="M668.85,-164.98C645.16,-156.27 608.11,-142.63 581.28,-132.75"/>
<polygon fill="#63b8ff" stroke="#63b8ff" points="582.13,-129.34 571.54,-129.17 579.72,-135.91 582.13,-129.34"/>
</a>
</g>
</g>
<!-- Node14&#45;&gt;Node3 -->
<g id="edge17_Node000014_Node000003" class="edge">
<title>Node14&#45;&gt;Node3</title>
<g id="a_edge17_Node000014_Node000003"><a xlink:title=" ">
<path fill="none" stroke="#63b8ff" d="M1061.38,-54.98C1031.37,-46.05 984,-31.94 950.67,-22.02"/>
<polygon fill="#63b8ff" stroke="#63b8ff" points="951.39,-18.58 940.81,-19.08 949.39,-25.29 951.39,-18.58"/>
</a>
</g>
</g>
<!-- Node15 -->
<g id="Node000015" class="node">
<title>Node15</title>
<g id="a_Node000015"><a xlink:title=" ">
<polygon fill="#e0e0e0" stroke="#999999" points="1246.48,-19 1193.48,-19 1193.48,0 1246.48,0 1246.48,-19"/>
<text text-anchor="middle" x="1219.98" y="-7" font-family="Helvetica,sans-Serif" font-size="10.00">cstdarg</text>
</a>
</g>
</g>
<!-- Node14&#45;&gt;Node15 -->
<g id="edge16_Node000014_Node000015" class="edge">
<title>Node14&#45;&gt;Node15</title>
<g id="a_edge16_Node000014_Node000015"><a xlink:title=" ">
<path fill="none" stroke="#63b8ff" d="M1110.87,-54.98C1132.06,-46.34 1165.11,-32.87 1189.28,-23.02"/>
<polygon fill="#63b8ff" stroke="#63b8ff" points="1190.78,-26.19 1198.72,-19.17 1188.13,-19.7 1190.78,-26.19"/>
</a>
</g>
</g>
<!-- Node16 -->
<g id="Node000016" class="node">
<title>Node16</title>
<g id="a_Node000016"><a xlink:title=" ">
<polygon fill="#e0e0e0" stroke="#999999" points="1040.48,-19 991.48,-19 991.48,0 1040.48,0 1040.48,-19"/>
<text text-anchor="middle" x="1015.98" y="-7" font-family="Helvetica,sans-Serif" font-size="10.00">cstdlib</text>
</a>
</g>
</g>
<!-- Node14&#45;&gt;Node16 -->
<g id="edge18_Node000014_Node000016" class="edge">
<title>Node14&#45;&gt;Node16</title>
<g id="a_edge18_Node000014_Node000016"><a xlink:title=" ">
<path fill="none" stroke="#63b8ff" d="M1078.09,-54.98C1066.83,-46.92 1049.7,-34.65 1036.27,-25.03"/>
<polygon fill="#63b8ff" stroke="#63b8ff" points="1038.26,-22.15 1028.09,-19.17 1034.18,-27.84 1038.26,-22.15"/>
</a>
</g>
</g>
<!-- Node17 -->
<g id="Node000017" class="node">
<title>Node17</title>
<g id="a_Node000017"><a xlink:title=" ">
<polygon fill="#e0e0e0" stroke="#999999" points="1104.98,-19 1058.98,-19 1058.98,0 1104.98,0 1104.98,-19"/>
<text text-anchor="middle" x="1081.98" y="-7" font-family="Helvetica,sans-Serif" font-size="10.00">cstdio</text>
</a>
</g>
</g>
<!-- Node14&#45;&gt;Node17 -->
<g id="edge19_Node000014_Node000017" class="edge">
<title>Node14&#45;&gt;Node17</title>
<g id="a_edge19_Node000014_Node000017"><a xlink:title=" ">
<path fill="none" stroke="#63b8ff" d="M1088.66,-54.75C1087.61,-47.8 1086.11,-37.85 1084.8,-29.13"/>
<polygon fill="#63b8ff" stroke="#63b8ff" points="1088.23,-28.45 1083.28,-19.09 1081.31,-29.5 1088.23,-28.45"/>
</a>
</g>
</g>
<!-- Node18 -->
<g id="Node000018" class="node">
<title>Node18</title>
<g id="a_Node000018"><a xlink:title=" ">
<polygon fill="#e0e0e0" stroke="#999999" points="1174.98,-19 1122.98,-19 1122.98,0 1174.98,0 1174.98,-19"/>
<text text-anchor="middle" x="1148.98" y="-7" font-family="Helvetica,sans-Serif" font-size="10.00">cassert</text>
</a>
</g>
</g>
<!-- Node14&#45;&gt;Node18 -->
<g id="edge20_Node000014_Node000018" class="edge">
<title>Node14&#45;&gt;Node18</title>
<g id="a_edge20_Node000014_Node000018"><a xlink:title=" ">
<path fill="none" stroke="#63b8ff" d="M1099.46,-54.98C1108.18,-47.15 1121.33,-35.34 1131.88,-25.86"/>
<polygon fill="#63b8ff" stroke="#63b8ff" points="1134.23,-28.46 1139.33,-19.17 1129.55,-23.25 1134.23,-28.46"/>
</a>
</g>
</g>
<!-- Node19&#45;&gt;Node3 -->
<g id="edge23_Node000019_Node000003" class="edge">
<title>Node19&#45;&gt;Node3</title>
<g id="a_edge23_Node000019_Node000003"><a xlink:title=" ">
<path fill="none" stroke="#63b8ff" d="M563.25,-109.78C592.28,-93.26 653.48,-58.71 663.98,-55 734.65,-30.07 821.8,-18.57 871.72,-13.7"/>
<polygon fill="#63b8ff" stroke="#63b8ff" points="872.16,-17.18 881.79,-12.76 871.51,-10.21 872.16,-17.18"/>
</a>
</g>
</g>
<!-- Node19&#45;&gt;Node6 -->
<g id="edge26_Node000019_Node000006" class="edge">
<title>Node19&#45;&gt;Node6</title>
<g id="a_edge26_Node000019_Node000006"><a xlink:title=" ">
<path fill="none" stroke="#63b8ff" d="M485.28,-117.58C403.49,-115.09 266.37,-106.1 228.98,-74 216.17,-63 211.8,-43.74 210.41,-29.31"/>
<polygon fill="#63b8ff" stroke="#63b8ff" points="213.89,-28.81 209.82,-19.02 206.9,-29.2 213.89,-28.81"/>
</a>
</g>
</g>
<!-- Node19&#45;&gt;Node7 -->
<g id="edge27_Node000019_Node000007" class="edge">
<title>Node19&#45;&gt;Node7</title>
<g id="a_edge27_Node000019_Node000007"><a xlink:title=" ">
<path fill="none" stroke="#63b8ff" d="M530.35,-109.84C491.88,-90.96 400.21,-45.96 354.64,-23.59"/>
<polygon fill="#63b8ff" stroke="#63b8ff" points="355.91,-20.31 345.39,-19.05 352.83,-26.6 355.91,-20.31"/>
</a>
</g>
</g>
<!-- Node19&#45;&gt;Node8 -->
<g id="edge22_Node000019_Node000008" class="edge">
<title>Node19&#45;&gt;Node8</title>
<g id="a_edge22_Node000019_Node000008"><a xlink:title=" ">
<path fill="none" stroke="#63b8ff" d="M485.45,-112.1C414.91,-104.53 296.84,-90.8 195.98,-74 194.69,-73.78 193.38,-73.56 192.06,-73.32"/>
<polygon fill="#63b8ff" stroke="#63b8ff" points="192.31,-69.81 181.83,-71.38 191,-76.69 192.31,-69.81"/>
</a>
</g>
</g>
<!-- Node19&#45;&gt;Node11 -->
<g id="edge28_Node000019_Node000011" class="edge">
<title>Node19&#45;&gt;Node11</title>
<g id="a_edge28_Node000019_Node000011"><a xlink:title=" ">
<path fill="none" stroke="#63b8ff" d="M604.08,-109.98C655.25,-101.98 733.19,-89.26 809.9,-74.12"/>
<polygon fill="#63b8ff" stroke="#63b8ff" points="810.61,-77.55 819.74,-72.17 809.25,-70.68 810.61,-77.55"/>
</a>
</g>
</g>
<!-- Node19&#45;&gt;Node14 -->
<g id="edge30_Node000019_Node000014" class="edge">
<title>Node19&#45;&gt;Node14</title>
<g id="a_edge30_Node000019_Node000014"><a xlink:title=" ">
<path fill="none" stroke="#63b8ff" d="M610.49,-111.13C614.04,-110.74 617.56,-110.36 620.98,-110 763.13,-94.98 929.77,-79.73 1021.22,-71.56"/>
<polygon fill="#63b8ff" stroke="#63b8ff" points="1021.8,-75.02 1031.45,-70.65 1021.18,-68.05 1021.8,-75.02"/>
</a>
</g>
</g>
<!-- Node20 -->
<g id="Node000020" class="node">
<title>Node20</title>
<g id="a_Node000020"><a xlink:title=" ">
<polygon fill="#e0e0e0" stroke="#999999" points="727.48,-74 672.48,-74 672.48,-55 727.48,-55 727.48,-74"/>
<text text-anchor="middle" x="699.98" y="-62" font-family="Helvetica,sans-Serif" font-size="10.00">fstream</text>
</a>
</g>
</g>
<!-- Node19&#45;&gt;Node20 -->
<g id="edge24_Node000019_Node000020" class="edge">
<title>Node19&#45;&gt;Node20</title>
<g id="a_edge24_Node000019_Node000020"><a xlink:title=" ">
<path fill="none" stroke="#63b8ff" d="M572.4,-109.98C597.7,-101.16 637.44,-87.31 665.84,-77.41"/>
<polygon fill="#63b8ff" stroke="#63b8ff" points="667.08,-80.68 675.37,-74.08 664.77,-74.07 667.08,-80.68"/>
</a>
</g>
</g>
<!-- Node21 -->
<g id="Node000021" class="node">
<title>Node21</title>
<g id="a_Node000021"><a xlink:title=" ">
<polygon fill="#e0e0e0" stroke="#999999" points="801.98,-74 745.98,-74 745.98,-55 801.98,-55 801.98,-74"/>
<text text-anchor="middle" x="773.98" y="-62" font-family="Helvetica,sans-Serif" font-size="10.00">sstream</text>
</a>
</g>
</g>
<!-- Node19&#45;&gt;Node21 -->
<g id="edge25_Node000019_Node000021" class="edge">
<title>Node19&#45;&gt;Node21</title>
<g id="a_edge25_Node000019_Node000021"><a xlink:title=" ">
<path fill="none" stroke="#63b8ff" d="M584.29,-109.98C625.91,-100.23 693.79,-84.31 736.07,-74.39"/>
<polygon fill="#63b8ff" stroke="#63b8ff" points="737.03,-77.76 745.97,-72.07 735.44,-70.94 737.03,-77.76"/>
</a>
</g>
</g>
<!-- Node22 -->
<g id="Node000022" class="node">
<title>Node22</title>
<g id="a_Node000022"><a xlink:title=" ">
<polygon fill="#e0e0e0" stroke="#999999" points="547.48,-19 452.48,-19 452.48,0 547.48,0 547.48,-19"/>
<text text-anchor="middle" x="499.98" y="-7" font-family="Helvetica,sans-Serif" font-size="10.00">boost/regex.hpp</text>
</a>
</g>
</g>
<!-- Node19&#45;&gt;Node22 -->
<g id="edge29_Node000019_Node000022" class="edge">
<title>Node19&#45;&gt;Node22</title>
<g id="a_edge29_Node000019_Node000022"><a xlink:title=" ">
<path fill="none" stroke="#63b8ff" d="M518.85,-109.87C501.63,-103.1 481.25,-91.79 470.98,-74 462.14,-58.67 472.82,-40.17 483.63,-27.1"/>
<polygon fill="#63b8ff" stroke="#63b8ff" points="486.47,-29.17 490.54,-19.39 481.26,-24.5 486.47,-29.17"/>
</a>
</g>
</g>
<!-- Node23 -->
<g id="Node000023" class="node">
<title>Node23</title>
<g id="a_Node000023"><a xlink:href="ematch__src_2utils_2stl_2stlTypes_8hh.html" target="_top" xlink:title=" ">
<polygon fill="white" stroke="#666666" points="347.98,-74 237.98,-74 237.98,-55 347.98,-55 347.98,-74"/>
<text text-anchor="middle" x="292.98" y="-62" font-family="Helvetica,sans-Serif" font-size="10.00">utils/stl/stlTypes.hh</text>
</a>
</g>
</g>
<!-- Node19&#45;&gt;Node23 -->
<g id="edge31_Node000019_Node000023" class="edge">
<title>Node19&#45;&gt;Node23</title>
<g id="a_edge31_Node000019_Node000023"><a xlink:title=" ">
<path fill="none" stroke="#63b8ff" d="M507.01,-109.98C462.72,-100.78 392.04,-86.09 344.13,-76.13"/>
<polygon fill="#63b8ff" stroke="#63b8ff" points="344.78,-72.69 334.27,-74.08 343.35,-79.54 344.78,-72.69"/>
</a>
</g>
</g>
<!-- Node24 -->
<g id="Node000024" class="node">
<title>Node24</title>
<g id="a_Node000024"><a xlink:href="ematch__src_2utils_2boost_2boostUtils_8hh.html" target="_top" xlink:title=" ">
<polygon fill="white" stroke="#666666" points="615.48,-74 480.48,-74 480.48,-55 615.48,-55 615.48,-74"/>
<text text-anchor="middle" x="547.98" y="-62" font-family="Helvetica,sans-Serif" font-size="10.00">utils/boost/boostUtils.hh</text>
</a>
</g>
</g>
<!-- Node19&#45;&gt;Node24 -->
<g id="edge34_Node000019_Node000024" class="edge">
<title>Node19&#45;&gt;Node24</title>
<g id="a_edge34_Node000019_Node000024"><a xlink:title=" ">
<path fill="none" stroke="#63b8ff" d="M547.98,-109.75C547.98,-102.8 547.98,-92.85 547.98,-84.13"/>
<polygon fill="#63b8ff" stroke="#63b8ff" points="551.48,-84.09 547.98,-74.09 544.48,-84.09 551.48,-84.09"/>
</a>
</g>
</g>
<!-- Node23&#45;&gt;Node6 -->
<g id="edge32_Node000023_Node000006" class="edge">
<title>Node23&#45;&gt;Node6</title>
<g id="a_edge32_Node000023_Node000006"><a xlink:title=" ">
<path fill="none" stroke="#63b8ff" d="M279.65,-54.98C266.9,-46.84 247.43,-34.41 232.31,-24.76"/>
<polygon fill="#63b8ff" stroke="#63b8ff" points="233.87,-21.6 223.56,-19.17 230.11,-27.5 233.87,-21.6"/>
</a>
</g>
</g>
<!-- Node23&#45;&gt;Node7 -->
<g id="edge33_Node000023_Node000007" class="edge">
<title>Node23&#45;&gt;Node7</title>
<g id="a_edge33_Node000023_Node000007"><a xlink:title=" ">
<path fill="none" stroke="#63b8ff" d="M298.76,-54.75C303.6,-47.42 310.66,-36.73 316.63,-27.7"/>
<polygon fill="#63b8ff" stroke="#63b8ff" points="319.72,-29.36 322.31,-19.09 313.88,-25.5 319.72,-29.36"/>
</a>
</g>
</g>
<!-- Node24&#45;&gt;Node3 -->
<g id="edge35_Node000024_Node000003" class="edge">
<title>Node24&#45;&gt;Node3</title>
<g id="a_edge35_Node000024_Node000003"><a xlink:title=" ">
<path fill="none" stroke="#63b8ff" d="M606.47,-54.98C680.71,-44.17 806.87,-25.8 871.38,-16.41"/>
<polygon fill="#63b8ff" stroke="#63b8ff" points="872.17,-19.83 881.56,-14.93 871.16,-12.91 872.17,-19.83"/>
</a>
</g>
</g>
<!-- Node24&#45;&gt;Node22 -->
<g id="edge36_Node000024_Node000022" class="edge">
<title>Node24&#45;&gt;Node22</title>
<g id="a_edge36_Node000024_Node000022"><a xlink:title=" ">
<path fill="none" stroke="#63b8ff" d="M540.06,-54.75C533.14,-47.11 522.92,-35.82 514.53,-26.56"/>
<polygon fill="#63b8ff" stroke="#63b8ff" points="517.07,-24.15 507.76,-19.09 511.88,-28.85 517.07,-24.15"/>
</a>
</g>
</g>
</g>
</svg>

<g id="navigator" transform="translate(0 0)" fill="#404254">
  <rect fill="#f2f5e9" fill-opacity="0.5" stroke="#606060" stroke-width=".5" x="0" y="0" width="60" height="60"/>
  <use id="zoomplus" xlink:href="#zoomPlus" x="17" y="9" onmousedown="handleZoom(evt,'in')"/>
  <use id="zoomminus" xlink:href="#zoomMin" x="42" y="9" onmousedown="handleZoom(evt,'out')"/>
  <use id="reset" xlink:href="#resetDef" x="30" y="36" onmousedown="handleReset()"/>
   <use id="arrowup" xlink:href="#arrowUp" x="0" y="0" onmousedown="handlePan(0,-1)"/>
  <use id="arrowright" xlink:href="#arrowRight" x="0" y="0" onmousedown="handlePan(1,0)"/>
  <use id="arrowdown" xlink:href="#arrowDown" x="0" y="0" onmousedown="handlePan(0,1)"/>
  <use id="arrowleft" xlink:href="#arrowLeft" x="0" y="0" onmousedown="handlePan(-1,0)"/>
</g>
<svg viewBox="0 0 15 15" width="100%" height="30px" preserveAspectRatio="xMaxYMin meet">
 <g id="arrow_out" transform="scale(0.3 0.3)">
  <a xlink:href="AminoScoreIdentity_8hh__incl_org.svg" target="_base">
   <rect id="button" ry="5" rx="5" y="6" x="6" height="38" width="38"
        fill="#f2f5e9" fill-opacity="0.5" stroke="#606060" stroke-width="1.0"/>
   <path id="arrow"
     d="M 11.500037,31.436501 C 11.940474,20.09759 22.043105,11.32322 32.158766,21.979434 L 37.068811,17.246167 C 37.068811,17.246167 37.088388,32 37.088388,32 L 22.160133,31.978069 C 22.160133,31.978069 26.997745,27.140456 26.997745,27.140456 C 18.528582,18.264221 13.291696,25.230495 11.500037,31.436501 z"
     style="fill:#404040;"/>
  </a>
 </g>
</svg>

<style type='text/css'>
<![CDATA[
[data-mouse-over-selected='false'] { opacity: 0.7; }
[data-mouse-over-selected='true']  { opacity: 1.0; }
]]>
</style>
<script type="application/ecmascript"><![CDATA[
document.addEventListener('DOMContentLoaded', (event) => {
  highlightEdges();
  highlightAdjacentNodes();
});
]]></script>
</svg>
