<?xml version="1.0" encoding="UTF-8" standalone="no"?>
<!DOCTYPE svg PUBLIC "-//W3C//DTD SVG 1.1//EN"
 "http://www.w3.org/Graphics/SVG/1.1/DTD/svg11.dtd">
<!-- Generated by graphviz version 2.43.0 (0)
 -->
<!-- Title: ematch_src/utils/stl/binaryIO.hh Pages: 1 -->
<svg width="748pt" height="104pt"
 viewBox="0.00 0.00 748.00 104.00" xmlns="http://www.w3.org/2000/svg" xmlns:xlink="http://www.w3.org/1999/xlink">
<g id="graph0" class="graph" transform="scale(1 1) rotate(0) translate(4 100)">
<title>ematch_src/utils/stl/binaryIO.hh</title>
<!-- Node1 -->
<g id="Node000001" class="node">
<title>Node1</title>
<g id="a_Node000001"><a xlink:title=" ">
<polygon fill="#999999" stroke="#666666" points="422,-96 310,-96 310,-66 422,-66 422,-96"/>
<text text-anchor="start" x="318" y="-84" font-family="Helvetica,sans-Serif" font-size="10.00">ematch_src/utils/stl</text>
<text text-anchor="middle" x="366" y="-73" font-family="Helvetica,sans-Serif" font-size="10.00">/binaryIO.hh</text>
</a>
</g>
</g>
<!-- Node2 -->
<g id="Node000002" class="node">
<title>Node2</title>
<g id="a_Node000002"><a xlink:href="RecountNeighborProbGraphOnDisk_8cc.html" target="_top" xlink:title=" ">
<polygon fill="white" stroke="#666666" points="160,-30 0,-30 0,0 160,0 160,-30"/>
<text text-anchor="start" x="8" y="-18" font-family="Helvetica,sans-Serif" font-size="10.00">ematch_src/RecountNeighbor</text>
<text text-anchor="middle" x="80" y="-7" font-family="Helvetica,sans-Serif" font-size="10.00">ProbGraphOnDisk.cc</text>
</a>
</g>
</g>
<!-- Node1&#45;&gt;Node2 -->
<g id="edge1_Node000001_Node000002" class="edge">
<title>Node1&#45;&gt;Node2</title>
<g id="a_edge1_Node000001_Node000002"><a xlink:title=" ">
<path fill="none" stroke="#63b8ff" d="M299.99,-65.23C252.67,-54.64 189.31,-40.46 142.75,-30.04"/>
<polygon fill="#63b8ff" stroke="#63b8ff" points="299.31,-68.66 309.84,-67.43 300.84,-61.83 299.31,-68.66"/>
</a>
</g>
</g>
<!-- Node3 -->
<g id="Node000003" class="node">
<title>Node3</title>
<g id="a_Node000003"><a xlink:href="RecountNeighborProbGraphOnDisk__SortedTagSet_8cc.html" target="_top" xlink:title=" ">
<polygon fill="white" stroke="#666666" points="363.5,-30 178.5,-30 178.5,0 363.5,0 363.5,-30"/>
<text text-anchor="start" x="186.5" y="-18" font-family="Helvetica,sans-Serif" font-size="10.00">ematch_src/RecountNeighbor</text>
<text text-anchor="middle" x="271" y="-7" font-family="Helvetica,sans-Serif" font-size="10.00">ProbGraphOnDisk_SortedTagSet.cc</text>
</a>
</g>
</g>
<!-- Node1&#45;&gt;Node3 -->
<g id="edge2_Node000001_Node000003" class="edge">
<title>Node1&#45;&gt;Node3</title>
<g id="a_edge2_Node000001_Node000003"><a xlink:title=" ">
<path fill="none" stroke="#63b8ff" d="M336.35,-60.03C321.98,-50.34 305.05,-38.94 292.02,-30.16"/>
<polygon fill="#63b8ff" stroke="#63b8ff" points="334.67,-63.11 344.92,-65.8 338.58,-57.31 334.67,-63.11"/>
</a>
</g>
</g>
<!-- Node4 -->
<g id="Node000004" class="node">
<title>Node4</title>
<g id="a_Node000004"><a xlink:href="RecountNeighborProbGraphWriter_8cc.html" target="_top" xlink:title=" ">
<polygon fill="white" stroke="#666666" points="542,-30 382,-30 382,0 542,0 542,-30"/>
<text text-anchor="start" x="390" y="-18" font-family="Helvetica,sans-Serif" font-size="10.00">ematch_src/RecountNeighbor</text>
<text text-anchor="middle" x="462" y="-7" font-family="Helvetica,sans-Serif" font-size="10.00">ProbGraphWriter.cc</text>
</a>
</g>
</g>
<!-- Node1&#45;&gt;Node4 -->
<g id="edge3_Node000001_Node000004" class="edge">
<title>Node1&#45;&gt;Node4</title>
<g id="a_edge3_Node000001_Node000004"><a xlink:title=" ">
<path fill="none" stroke="#63b8ff" d="M395.96,-60.03C410.49,-50.34 427.59,-38.94 440.75,-30.16"/>
<polygon fill="#63b8ff" stroke="#63b8ff" points="393.68,-57.34 387.31,-65.8 397.57,-63.16 393.68,-57.34"/>
</a>
</g>
</g>
<!-- Node5 -->
<g id="Node000005" class="node">
<title>Node5</title>
<g id="a_Node000005"><a xlink:href="RecountNeighborProbGraphWriter__SortedTagSet_8cc.html" target="_top" xlink:title=" ">
<polygon fill="white" stroke="#666666" points="740,-30 560,-30 560,0 740,0 740,-30"/>
<text text-anchor="start" x="568" y="-18" font-family="Helvetica,sans-Serif" font-size="10.00">ematch_src/RecountNeighbor</text>
<text text-anchor="middle" x="650" y="-7" font-family="Helvetica,sans-Serif" font-size="10.00">ProbGraphWriter_SortedTagSet.cc</text>
</a>
</g>
</g>
<!-- Node1&#45;&gt;Node5 -->
<g id="edge4_Node000001_Node000005" class="edge">
<title>Node1&#45;&gt;Node5</title>
<g id="a_edge4_Node000001_Node000005"><a xlink:title=" ">
<path fill="none" stroke="#63b8ff" d="M431.89,-65.15C478.9,-54.56 541.7,-40.41 587.84,-30.01"/>
<polygon fill="#63b8ff" stroke="#63b8ff" points="431.1,-61.74 422.11,-67.36 432.63,-68.57 431.1,-61.74"/>
</a>
</g>
</g>
</g>
</svg>
