<?xml version="1.0" encoding="UTF-8" standalone="no"?>
<!DOCTYPE svg PUBLIC "-//W3C//DTD SVG 1.1//EN"
 "http://www.w3.org/Graphics/SVG/1.1/DTD/svg11.dtd">
<!-- Generated by graphviz version 2.43.0 (0)
 -->
<!-- Title: ematch_src/utils/sequence/readers/Blast8ResultReader.hh Pages: 1 -->
<!--zoomable 192 -->

<svg id="main" version="1.1" xmlns="http://www.w3.org/2000/svg" xmlns:xlink="http://www.w3.org/1999/xlink" xml:space="preserve" onload="init(evt)">
<style type="text/css"><![CDATA[
.node, .edge {opacity: 0.7;}
.node.selected, .edge.selected {opacity: 1;}
.edge:hover path { stroke: red; }
.edge:hover polygon { stroke: red; fill: red; }
]]></style>

<defs>
  <circle id="rim" cx="0" cy="0" r="7"/>
  <circle id="rim2" cx="0" cy="0" r="3.5"/>
  <g id="zoomPlus">
    <use xlink:href="#rim" fill="#404040"><set attributeName="fill" to="#808080" begin="zoomplus.mouseover" end="zoomplus.mouseout"/></use>
    <path d="M-4,0h8M0,-4v8" fill="none" stroke="white" stroke-width="1.5" pointer-events="none"/>
  </g>
  <g id="zoomMin">
    <use xlink:href="#rim" fill="#404040"><set attributeName="fill" to="#808080" begin="zoomminus.mouseover" end="zoomminus.mouseout"/></use>
    <path d="M-4,0h8" fill="none" stroke="white" stroke-width="1.5" pointer-events="none"/>
  </g>
  <g id="arrowUp" transform="translate(30 24)">
    <use xlink:href="#rim"/>
    <path pointer-events="none" fill="none" stroke="white" stroke-width="1.5" d="M0,-3.0v7 M-2.5,-0.5L0,-3.0L2.5,-0.5"/>
  </g>
  <g id="arrowRight" transform="rotate(90) translate(36 -43)">
    <use xlink:href="#rim"/>
    <path pointer-events="none" fill="none" stroke="white" stroke-width="1.5" d="M0,-3.0v7 M-2.5,-0.5L0,-3.0L2.5,-0.5"/>
  </g>
  <g id="arrowDown" transform="rotate(180) translate(-30 -48)">
    <use xlink:href="#rim"/>
    <path pointer-events="none" fill="none" stroke="white" stroke-width="1.5" d="M0,-3.0v7 M-2.5,-0.5L0,-3.0L2.5,-0.5"/>
  </g>
  <g id="arrowLeft" transform="rotate(270) translate(-36 17)">
    <use xlink:href="#rim"/>
    <path pointer-events="none" fill="none" stroke="white" stroke-width="1.5" d="M0,-3.0v7 M-2.5,-0.5L0,-3.0L2.5,-0.5"/>
  </g>
  <g id="resetDef">
    <use xlink:href="#rim2" fill="#404040"><set attributeName="fill" to="#808080" begin="reset.mouseover" end="reset.mouseout"/></use>
  </g>
</defs>
<script type="application/ecmascript">
var viewWidth = 1202;
var viewHeight = 192;
var sectionId = 'dynsection-1';
</script>
<script type="application/ecmascript" xlink:href="svg.min.js"/>
<svg id="graph" class="graph">
<g id="viewport">
<title>ematch_src/utils/sequence/readers/Blast8ResultReader.hh</title>
<!-- Node1 -->
<g id="Node000001" class="node">
<title>Node1</title>
<g id="a_Node000001"><a xlink:title=" ">
<polygon fill="#999999" stroke="#666666" points="567,-184 397,-184 397,-154 567,-154 567,-184"/>
<text text-anchor="start" x="405" y="-172" font-family="Helvetica,sans-Serif" font-size="10.00">ematch_src/utils/sequence</text>
<text text-anchor="middle" x="482" y="-161" font-family="Helvetica,sans-Serif" font-size="10.00">/readers/Blast8ResultReader.hh</text>
</a>
</g>
</g>
<!-- Node2 -->
<g id="Node000002" class="node">
<title>Node2</title>
<g id="a_Node000002"><a xlink:href="Blast8ResultReader_8cc.html" target="_top" xlink:title=" ">
<polygon fill="white" stroke="#666666" points="168,-112.5 0,-112.5 0,-82.5 168,-82.5 168,-112.5"/>
<text text-anchor="start" x="8" y="-100.5" font-family="Helvetica,sans-Serif" font-size="10.00">ematch_src/utils/sequence</text>
<text text-anchor="middle" x="84" y="-89.5" font-family="Helvetica,sans-Serif" font-size="10.00">/readers/Blast8ResultReader.cc</text>
</a>
</g>
</g>
<!-- Node1&#45;&gt;Node2 -->
<g id="edge1_Node000001_Node000002" class="edge">
<title>Node1&#45;&gt;Node2</title>
<g id="a_edge1_Node000001_Node000002"><a xlink:title=" ">
<path fill="none" stroke="#63b8ff" d="M386.8,-152.91C327.75,-143.36 250.37,-130.5 182,-118 172.61,-116.28 162.74,-114.41 153.02,-112.51"/>
<polygon fill="#63b8ff" stroke="#63b8ff" points="386.42,-156.4 396.85,-154.54 387.54,-149.49 386.42,-156.4"/>
</a>
</g>
</g>
<!-- Node3 -->
<g id="Node000003" class="node">
<title>Node3</title>
<g id="a_Node000003"><a xlink:href="BlastEValuesByClass_8hh.html" target="_top" xlink:title=" ">
<polygon fill="white" stroke="#666666" points="400,-112.5 224,-112.5 224,-82.5 400,-82.5 400,-112.5"/>
<text text-anchor="start" x="232" y="-100.5" font-family="Helvetica,sans-Serif" font-size="10.00">ematch_src/utils/sequence</text>
<text text-anchor="middle" x="312" y="-89.5" font-family="Helvetica,sans-Serif" font-size="10.00">/readers/BlastEValuesByClass.hh</text>
</a>
</g>
</g>
<!-- Node1&#45;&gt;Node3 -->
<g id="edge2_Node000001_Node000003" class="edge">
<title>Node1&#45;&gt;Node3</title>
<g id="a_edge2_Node000001_Node000003"><a xlink:title=" ">
<path fill="none" stroke="#63b8ff" d="M438.24,-150.11C409.65,-138.42 372.84,-123.37 346.35,-112.54"/>
<polygon fill="#63b8ff" stroke="#63b8ff" points="437.02,-153.39 447.6,-153.94 439.67,-146.91 437.02,-153.39"/>
</a>
</g>
</g>
<!-- Node5 -->
<g id="Node000005" class="node">
<title>Node5</title>
<g id="a_Node000005"><a xlink:href="labeledBlastToOddsRatio_8cc.html" target="_top" xlink:title=" ">
<polygon fill="white" stroke="#666666" points="206,-41 32,-41 32,0 206,0 206,-41"/>
<text text-anchor="start" x="40" y="-29" font-family="Helvetica,sans-Serif" font-size="10.00">ematch_src/utils/sequence</text>
<text text-anchor="start" x="40" y="-18" font-family="Helvetica,sans-Serif" font-size="10.00">/readers/run/labeledBlastToOdds</text>
<text text-anchor="middle" x="119" y="-7" font-family="Helvetica,sans-Serif" font-size="10.00">Ratio.cc</text>
</a>
</g>
</g>
<!-- Node1&#45;&gt;Node5 -->
<g id="edge8_Node000001_Node000005" class="edge">
<title>Node1&#45;&gt;Node5</title>
<g id="a_edge8_Node000001_Node000005"><a xlink:title=" ">
<path fill="none" stroke="#63b8ff" d="M386.66,-164.73C333.38,-159.43 267.37,-146.9 215,-118 193.25,-106 194.43,-94.71 177,-77 165.07,-64.88 151.34,-51.71 140.23,-41.24"/>
<polygon fill="#63b8ff" stroke="#63b8ff" points="386.52,-168.23 396.8,-165.66 387.16,-161.26 386.52,-168.23"/>
</a>
</g>
</g>
<!-- Node6 -->
<g id="Node000006" class="node">
<title>Node6</title>
<g id="a_Node000006"><a xlink:href="runDumpBlastNNUtility_8cc.html" target="_top" xlink:title=" ">
<polygon fill="white" stroke="#666666" points="622.5,-35.5 417.5,-35.5 417.5,-5.5 622.5,-5.5 622.5,-35.5"/>
<text text-anchor="start" x="425.5" y="-23.5" font-family="Helvetica,sans-Serif" font-size="10.00">ematch_src/utils/sequence</text>
<text text-anchor="middle" x="520" y="-12.5" font-family="Helvetica,sans-Serif" font-size="10.00">/readers/run/runDumpBlastNNUtility.cc</text>
</a>
</g>
</g>
<!-- Node1&#45;&gt;Node6 -->
<g id="edge11_Node000001_Node000006" class="edge">
<title>Node1&#45;&gt;Node6</title>
<g id="a_edge11_Node000001_Node000006"><a xlink:title=" ">
<path fill="none" stroke="#63b8ff" d="M462.3,-146.05C456.16,-137.84 450.17,-128.05 447,-118 441.52,-100.62 438.9,-93.33 447,-77 456.05,-58.74 474.3,-44.87 490.29,-35.56"/>
<polygon fill="#63b8ff" stroke="#63b8ff" points="459.66,-148.36 468.64,-153.98 465.13,-143.99 459.66,-148.36"/>
</a>
</g>
</g>
<!-- Node7 -->
<g id="Node000007" class="node">
<title>Node7</title>
<g id="a_Node000007"><a xlink:href="filterBlast8ResultEValueThreshold_8cc.html" target="_top" xlink:title=" ">
<polygon fill="white" stroke="#666666" points="618,-118 456,-118 456,-77 618,-77 618,-118"/>
<text text-anchor="start" x="464" y="-106" font-family="Helvetica,sans-Serif" font-size="10.00">ematch_src/utils/sequence</text>
<text text-anchor="start" x="464" y="-95" font-family="Helvetica,sans-Serif" font-size="10.00">/readers/run/filterBlast8Result</text>
<text text-anchor="middle" x="537" y="-84" font-family="Helvetica,sans-Serif" font-size="10.00">EValueThreshold.cc</text>
</a>
</g>
</g>
<!-- Node1&#45;&gt;Node7 -->
<g id="edge6_Node000001_Node000007" class="edge">
<title>Node1&#45;&gt;Node7</title>
<g id="a_edge6_Node000001_Node000007"><a xlink:title=" ">
<path fill="none" stroke="#63b8ff" d="M499.52,-145.86C506.58,-136.94 514.66,-126.72 521.51,-118.07"/>
<polygon fill="#63b8ff" stroke="#63b8ff" points="496.59,-143.92 493.13,-153.94 502.08,-148.27 496.59,-143.92"/>
</a>
</g>
</g>
<!-- Node8 -->
<g id="Node000008" class="node">
<title>Node8</title>
<g id="a_Node000008"><a xlink:href="filterSameClassHighBlast_8cc.html" target="_top" xlink:title=" ">
<polygon fill="white" stroke="#666666" points="813.5,-118 636.5,-118 636.5,-77 813.5,-77 813.5,-118"/>
<text text-anchor="start" x="644.5" y="-106" font-family="Helvetica,sans-Serif" font-size="10.00">ematch_src/utils/sequence</text>
<text text-anchor="start" x="644.5" y="-95" font-family="Helvetica,sans-Serif" font-size="10.00">/readers/run/filterSameClassHigh</text>
<text text-anchor="middle" x="725" y="-84" font-family="Helvetica,sans-Serif" font-size="10.00">Blast.cc</text>
</a>
</g>
</g>
<!-- Node1&#45;&gt;Node8 -->
<g id="edge7_Node000001_Node000008" class="edge">
<title>Node1&#45;&gt;Node8</title>
<g id="a_edge7_Node000001_Node000008"><a xlink:title=" ">
<path fill="none" stroke="#63b8ff" d="M541.2,-151.07C576.04,-141.11 620.24,-128.46 656.56,-118.07"/>
<polygon fill="#63b8ff" stroke="#63b8ff" points="539.83,-147.82 531.17,-153.94 541.75,-154.55 539.83,-147.82"/>
</a>
</g>
</g>
<!-- Node9 -->
<g id="Node000009" class="node">
<title>Node9</title>
<g id="a_Node000009"><a xlink:href="printBlast8ResultNegLgEValues_8cc.html" target="_top" xlink:title=" ">
<polygon fill="white" stroke="#666666" points="994,-118 832,-118 832,-77 994,-77 994,-118"/>
<text text-anchor="start" x="840" y="-106" font-family="Helvetica,sans-Serif" font-size="10.00">ematch_src/utils/sequence</text>
<text text-anchor="start" x="840" y="-95" font-family="Helvetica,sans-Serif" font-size="10.00">/readers/run/printBlast8Result</text>
<text text-anchor="middle" x="913" y="-84" font-family="Helvetica,sans-Serif" font-size="10.00">NegLgEValues.cc</text>
</a>
</g>
</g>
<!-- Node1&#45;&gt;Node9 -->
<g id="edge9_Node000001_Node000009" class="edge">
<title>Node1&#45;&gt;Node9</title>
<g id="a_edge9_Node000001_Node000009"><a xlink:title=" ">
<path fill="none" stroke="#63b8ff" d="M576.97,-155.83C645.53,-146.62 740.23,-133.02 823,-118 825.83,-117.49 828.71,-116.95 831.61,-116.39"/>
<polygon fill="#63b8ff" stroke="#63b8ff" points="576.49,-152.36 567.04,-157.16 577.42,-159.3 576.49,-152.36"/>
</a>
</g>
</g>
<!-- Node10 -->
<g id="Node000010" class="node">
<title>Node10</title>
<g id="a_Node000010"><a xlink:href="printNormalizedBlastSimilarity_8cc.html" target="_top" xlink:title=" ">
<polygon fill="white" stroke="#666666" points="1194,-118 1012,-118 1012,-77 1194,-77 1194,-118"/>
<text text-anchor="start" x="1020" y="-106" font-family="Helvetica,sans-Serif" font-size="10.00">ematch_src/utils/sequence</text>
<text text-anchor="start" x="1020" y="-95" font-family="Helvetica,sans-Serif" font-size="10.00">/readers/run/printNormalizedBlast</text>
<text text-anchor="middle" x="1103" y="-84" font-family="Helvetica,sans-Serif" font-size="10.00">Similarity.cc</text>
</a>
</g>
</g>
<!-- Node1&#45;&gt;Node10 -->
<g id="edge10_Node000001_Node000010" class="edge">
<title>Node1&#45;&gt;Node10</title>
<g id="a_edge10_Node000001_Node000010"><a xlink:title=" ">
<path fill="none" stroke="#63b8ff" d="M577.36,-161.63C682.09,-154 855.05,-139.47 1003,-118 1005.89,-117.58 1008.82,-117.13 1011.78,-116.67"/>
<polygon fill="#63b8ff" stroke="#63b8ff" points="576.85,-158.16 567.13,-162.37 577.36,-165.14 576.85,-158.16"/>
</a>
</g>
</g>
<!-- Node4 -->
<g id="Node000004" class="node">
<title>Node4</title>
<g id="a_Node000004"><a xlink:href="BlastEValuesByClass_8cc.html" target="_top" xlink:title=" ">
<polygon fill="white" stroke="#666666" points="399.5,-35.5 224.5,-35.5 224.5,-5.5 399.5,-5.5 399.5,-35.5"/>
<text text-anchor="start" x="232.5" y="-23.5" font-family="Helvetica,sans-Serif" font-size="10.00">ematch_src/utils/sequence</text>
<text text-anchor="middle" x="312" y="-12.5" font-family="Helvetica,sans-Serif" font-size="10.00">/readers/BlastEValuesByClass.cc</text>
</a>
</g>
</g>
<!-- Node3&#45;&gt;Node4 -->
<g id="edge3_Node000003_Node000004" class="edge">
<title>Node3&#45;&gt;Node4</title>
<g id="a_edge3_Node000003_Node000004"><a xlink:title=" ">
<path fill="none" stroke="#63b8ff" d="M312,-72.04C312,-59.95 312,-45.79 312,-35.54"/>
<polygon fill="#63b8ff" stroke="#63b8ff" points="308.5,-72.39 312,-82.39 315.5,-72.39 308.5,-72.39"/>
</a>
</g>
</g>
<!-- Node3&#45;&gt;Node5 -->
<g id="edge4_Node000003_Node000005" class="edge">
<title>Node3&#45;&gt;Node5</title>
<g id="a_edge4_Node000003_Node000005"><a xlink:title=" ">
<path fill="none" stroke="#63b8ff" d="M266.17,-78.69C237.04,-67.37 199.31,-52.71 169.34,-41.06"/>
<polygon fill="#63b8ff" stroke="#63b8ff" points="265.11,-82.03 275.7,-82.39 267.64,-75.51 265.11,-82.03"/>
</a>
</g>
</g>
<!-- Node3&#45;&gt;Node6 -->
<g id="edge5_Node000003_Node000006" class="edge">
<title>Node3&#45;&gt;Node6</title>
<g id="a_edge5_Node000003_Node000006"><a xlink:title=" ">
<path fill="none" stroke="#63b8ff" d="M360.63,-78.97C397.31,-65.74 446.97,-47.83 481.05,-35.54"/>
<polygon fill="#63b8ff" stroke="#63b8ff" points="359.34,-75.71 351.12,-82.39 361.72,-82.29 359.34,-75.71"/>
</a>
</g>
</g>
</g>
</svg>

<g id="navigator" transform="translate(0 0)" fill="#404254">
  <rect fill="#f2f5e9" fill-opacity="0.5" stroke="#606060" stroke-width=".5" x="0" y="0" width="60" height="60"/>
  <use id="zoomplus" xlink:href="#zoomPlus" x="17" y="9" onmousedown="handleZoom(evt,'in')"/>
  <use id="zoomminus" xlink:href="#zoomMin" x="42" y="9" onmousedown="handleZoom(evt,'out')"/>
  <use id="reset" xlink:href="#resetDef" x="30" y="36" onmousedown="handleReset()"/>
   <use id="arrowup" xlink:href="#arrowUp" x="0" y="0" onmousedown="handlePan(0,-1)"/>
  <use id="arrowright" xlink:href="#arrowRight" x="0" y="0" onmousedown="handlePan(1,0)"/>
  <use id="arrowdown" xlink:href="#arrowDown" x="0" y="0" onmousedown="handlePan(0,1)"/>
  <use id="arrowleft" xlink:href="#arrowLeft" x="0" y="0" onmousedown="handlePan(-1,0)"/>
</g>
<svg viewBox="0 0 15 15" width="100%" height="30px" preserveAspectRatio="xMaxYMin meet">
 <g id="arrow_out" transform="scale(0.3 0.3)">
  <a xlink:href="Blast8ResultReader_8hh__dep__incl_org.svg" target="_base">
   <rect id="button" ry="5" rx="5" y="6" x="6" height="38" width="38"
        fill="#f2f5e9" fill-opacity="0.5" stroke="#606060" stroke-width="1.0"/>
   <path id="arrow"
     d="M 11.500037,31.436501 C 11.940474,20.09759 22.043105,11.32322 32.158766,21.979434 L 37.068811,17.246167 C 37.068811,17.246167 37.088388,32 37.088388,32 L 22.160133,31.978069 C 22.160133,31.978069 26.997745,27.140456 26.997745,27.140456 C 18.528582,18.264221 13.291696,25.230495 11.500037,31.436501 z"
     style="fill:#404040;"/>
  </a>
 </g>
</svg>

<style type='text/css'>
<![CDATA[
[data-mouse-over-selected='false'] { opacity: 0.7; }
[data-mouse-over-selected='true']  { opacity: 1.0; }
]]>
</style>
<script type="application/ecmascript"><![CDATA[
document.addEventListener('DOMContentLoaded', (event) => {
  highlightEdges();
  highlightAdjacentNodes();
});
]]></script>
</svg>
