<?xml version="1.0" encoding="UTF-8" standalone="no"?>
<!DOCTYPE svg PUBLIC "-//W3C//DTD SVG 1.1//EN"
 "http://www.w3.org/Graphics/SVG/1.1/DTD/svg11.dtd">
<!-- Generated by graphviz version 2.43.0 (0)
 -->
<!-- Title: ematch_src/utils/sequence/readers/BlastEValuesByClass.hh Pages: 1 -->
<!--zoomable 280 -->

<svg id="main" version="1.1" xmlns="http://www.w3.org/2000/svg" xmlns:xlink="http://www.w3.org/1999/xlink" xml:space="preserve" onload="init(evt)">
<style type="text/css"><![CDATA[
.node, .edge {opacity: 0.7;}
.node.selected, .edge.selected {opacity: 1;}
.edge:hover path { stroke: red; }
.edge:hover polygon { stroke: red; fill: red; }
]]></style>

<defs>
  <circle id="rim" cx="0" cy="0" r="7"/>
  <circle id="rim2" cx="0" cy="0" r="3.5"/>
  <g id="zoomPlus">
    <use xlink:href="#rim" fill="#404040"><set attributeName="fill" to="#808080" begin="zoomplus.mouseover" end="zoomplus.mouseout"/></use>
    <path d="M-4,0h8M0,-4v8" fill="none" stroke="white" stroke-width="1.5" pointer-events="none"/>
  </g>
  <g id="zoomMin">
    <use xlink:href="#rim" fill="#404040"><set attributeName="fill" to="#808080" begin="zoomminus.mouseover" end="zoomminus.mouseout"/></use>
    <path d="M-4,0h8" fill="none" stroke="white" stroke-width="1.5" pointer-events="none"/>
  </g>
  <g id="arrowUp" transform="translate(30 24)">
    <use xlink:href="#rim"/>
    <path pointer-events="none" fill="none" stroke="white" stroke-width="1.5" d="M0,-3.0v7 M-2.5,-0.5L0,-3.0L2.5,-0.5"/>
  </g>
  <g id="arrowRight" transform="rotate(90) translate(36 -43)">
    <use xlink:href="#rim"/>
    <path pointer-events="none" fill="none" stroke="white" stroke-width="1.5" d="M0,-3.0v7 M-2.5,-0.5L0,-3.0L2.5,-0.5"/>
  </g>
  <g id="arrowDown" transform="rotate(180) translate(-30 -48)">
    <use xlink:href="#rim"/>
    <path pointer-events="none" fill="none" stroke="white" stroke-width="1.5" d="M0,-3.0v7 M-2.5,-0.5L0,-3.0L2.5,-0.5"/>
  </g>
  <g id="arrowLeft" transform="rotate(270) translate(-36 17)">
    <use xlink:href="#rim"/>
    <path pointer-events="none" fill="none" stroke="white" stroke-width="1.5" d="M0,-3.0v7 M-2.5,-0.5L0,-3.0L2.5,-0.5"/>
  </g>
  <g id="resetDef">
    <use xlink:href="#rim2" fill="#404040"><set attributeName="fill" to="#808080" begin="reset.mouseover" end="reset.mouseout"/></use>
  </g>
</defs>
<script type="application/ecmascript">
var viewWidth = 1480;
var viewHeight = 280;
var sectionId = 'dynsection-0';
</script>
<script type="application/ecmascript" xlink:href="svg.min.js"/>
<svg id="graph" class="graph">
<g id="viewport">
<title>ematch_src/utils/sequence/readers/BlastEValuesByClass.hh</title>
<!-- Node1 -->
<g id="Node000001" class="node">
<title>Node1</title>
<g id="a_Node000001"><a xlink:title=" ">
<polygon fill="#999999" stroke="#666666" points="1094,-272 918,-272 918,-242 1094,-242 1094,-272"/>
<text text-anchor="start" x="926" y="-260" font-family="Helvetica,sans-Serif" font-size="10.00">ematch_src/utils/sequence</text>
<text text-anchor="middle" x="1006" y="-249" font-family="Helvetica,sans-Serif" font-size="10.00">/readers/BlastEValuesByClass.hh</text>
</a>
</g>
</g>
<!-- Node2 -->
<g id="Node000002" class="node">
<title>Node2</title>
<g id="a_Node000002"><a xlink:title=" ">
<polygon fill="#e0e0e0" stroke="#999999" points="924,-206 756,-206 756,-187 924,-187 924,-206"/>
<text text-anchor="middle" x="840" y="-194" font-family="Helvetica,sans-Serif" font-size="10.00">classifiers/LabeledInstances.hh</text>
</a>
</g>
</g>
<!-- Node1&#45;&gt;Node2 -->
<g id="edge1_Node000001_Node000002" class="edge">
<title>Node1&#45;&gt;Node2</title>
<g id="a_edge1_Node000001_Node000002"><a xlink:title=" ">
<path fill="none" stroke="#63b8ff" d="M966.24,-241.99C938.17,-232.1 900.95,-218.98 874.21,-209.56"/>
<polygon fill="#63b8ff" stroke="#63b8ff" points="875.11,-206.16 864.51,-206.14 872.78,-212.76 875.11,-206.16"/>
</a>
</g>
</g>
<!-- Node3 -->
<g id="Node000003" class="node">
<title>Node3</title>
<g id="a_Node000003"><a xlink:href="Blast8ResultReader_8hh.html" target="_top" xlink:title=" ">
<polygon fill="white" stroke="#666666" points="1069.5,-206 942.5,-206 942.5,-187 1069.5,-187 1069.5,-206"/>
<text text-anchor="middle" x="1006" y="-194" font-family="Helvetica,sans-Serif" font-size="10.00">Blast8ResultReader.hh</text>
</a>
</g>
</g>
<!-- Node1&#45;&gt;Node3 -->
<g id="edge2_Node000001_Node000003" class="edge">
<title>Node1&#45;&gt;Node3</title>
<g id="a_edge2_Node000001_Node000003"><a xlink:title=" ">
<path fill="none" stroke="#63b8ff" d="M1006,-241.84C1006,-234.21 1006,-224.7 1006,-216.45"/>
<polygon fill="#63b8ff" stroke="#63b8ff" points="1009.5,-216.27 1006,-206.27 1002.5,-216.27 1009.5,-216.27"/>
</a>
</g>
</g>
<!-- Node24 -->
<g id="Node000024" class="node">
<title>Node24</title>
<g id="a_Node000024"><a xlink:href="stlUtils_8hh.html" target="_top" xlink:title=" ">
<polygon fill="white" stroke="#666666" points="1471.5,-79.5 1366.5,-79.5 1366.5,-60.5 1471.5,-60.5 1471.5,-79.5"/>
<text text-anchor="middle" x="1419" y="-67.5" font-family="Helvetica,sans-Serif" font-size="10.00">utils/stl/stlUtils.hh</text>
</a>
</g>
</g>
<!-- Node1&#45;&gt;Node24 -->
<g id="edge34_Node000001_Node000024" class="edge">
<title>Node1&#45;&gt;Node24</title>
<g id="a_edge34_Node000001_Node000024"><a xlink:title=" ">
<path fill="none" stroke="#63b8ff" d="M1037.38,-241.94C1115.21,-207.08 1316.18,-117.06 1390.67,-83.69"/>
<polygon fill="#63b8ff" stroke="#63b8ff" points="1392.22,-86.83 1399.92,-79.55 1389.36,-80.44 1392.22,-86.83"/>
</a>
</g>
</g>
<!-- Node4 -->
<g id="Node000004" class="node">
<title>Node4</title>
<g id="a_Node000004"><a xlink:href="ematch__src_2utils_2perlish_2perlish_8hh.html" target="_top" xlink:title=" ">
<polygon fill="white" stroke="#666666" points="1068.5,-145.5 943.5,-145.5 943.5,-126.5 1068.5,-126.5 1068.5,-145.5"/>
<text text-anchor="middle" x="1006" y="-133.5" font-family="Helvetica,sans-Serif" font-size="10.00">utils/perlish/perlish.hh</text>
</a>
</g>
</g>
<!-- Node3&#45;&gt;Node4 -->
<g id="edge3_Node000003_Node000004" class="edge">
<title>Node3&#45;&gt;Node4</title>
<g id="a_edge3_Node000003_Node000004"><a xlink:title=" ">
<path fill="none" stroke="#63b8ff" d="M1006,-186.87C1006,-178.75 1006,-166.31 1006,-155.89"/>
<polygon fill="#63b8ff" stroke="#63b8ff" points="1009.5,-155.67 1006,-145.67 1002.5,-155.67 1009.5,-155.67"/>
</a>
</g>
</g>
<!-- Node20 -->
<g id="Node000020" class="node">
<title>Node20</title>
<g id="a_Node000020"><a xlink:href="StringKeyHashtable_8hh.html" target="_top" xlink:title=" ">
<polygon fill="white" stroke="#666666" points="509.5,-151 378.5,-151 378.5,-121 509.5,-121 509.5,-151"/>
<text text-anchor="start" x="386.5" y="-139" font-family="Helvetica,sans-Serif" font-size="10.00">utils/ChainHashtable</text>
<text text-anchor="middle" x="444" y="-128" font-family="Helvetica,sans-Serif" font-size="10.00">/StringKeyHashtable.hh</text>
</a>
</g>
</g>
<!-- Node3&#45;&gt;Node20 -->
<g id="edge24_Node000003_Node000020" class="edge">
<title>Node3&#45;&gt;Node20</title>
<g id="a_edge24_Node000003_Node000020"><a xlink:title=" ">
<path fill="none" stroke="#63b8ff" d="M942.3,-188.03C939.16,-187.68 936.04,-187.33 933,-187 786.9,-171.03 616.06,-153.91 519.89,-144.43"/>
<polygon fill="#63b8ff" stroke="#63b8ff" points="519.97,-140.92 509.68,-143.42 519.29,-147.88 519.97,-140.92"/>
</a>
</g>
</g>
<!-- Node5 -->
<g id="Node000005" class="node">
<title>Node5</title>
<g id="a_Node000005"><a xlink:title=" ">
<polygon fill="#e0e0e0" stroke="#999999" points="1143.5,-79.5 1090.5,-79.5 1090.5,-60.5 1143.5,-60.5 1143.5,-79.5"/>
<text text-anchor="middle" x="1117" y="-67.5" font-family="Helvetica,sans-Serif" font-size="10.00">ctype.h</text>
</a>
</g>
</g>
<!-- Node4&#45;&gt;Node5 -->
<g id="edge4_Node000004_Node000005" class="edge">
<title>Node4&#45;&gt;Node5</title>
<g id="a_edge4_Node000004_Node000005"><a xlink:title=" ">
<path fill="none" stroke="#63b8ff" d="M1020.97,-126.37C1039.51,-115.68 1071.31,-97.35 1093.2,-84.72"/>
<polygon fill="#63b8ff" stroke="#63b8ff" points="1095,-87.73 1101.91,-79.7 1091.5,-81.66 1095,-87.73"/>
</a>
</g>
</g>
<!-- Node6 -->
<g id="Node000006" class="node">
<title>Node6</title>
<g id="a_Node000006"><a xlink:title=" ">
<polygon fill="#e0e0e0" stroke="#999999" points="533,-19 473,-19 473,0 533,0 533,-19"/>
<text text-anchor="middle" x="503" y="-7" font-family="Helvetica,sans-Serif" font-size="10.00">iostream</text>
</a>
</g>
</g>
<!-- Node4&#45;&gt;Node6 -->
<g id="edge5_Node000004_Node000006" class="edge">
<title>Node4&#45;&gt;Node6</title>
<g id="a_edge5_Node000004_Node000006"><a xlink:title=" ">
<path fill="none" stroke="#63b8ff" d="M943.36,-131.86C843.39,-126.11 652.78,-111.94 591,-85 582.83,-81.44 543.42,-46.76 520.21,-26"/>
<polygon fill="#63b8ff" stroke="#63b8ff" points="522.25,-23.13 512.47,-19.06 517.58,-28.34 522.25,-23.13"/>
</a>
</g>
</g>
<!-- Node7 -->
<g id="Node000007" class="node">
<title>Node7</title>
<g id="a_Node000007"><a xlink:title=" ">
<polygon fill="#e0e0e0" stroke="#999999" points="885.5,-79.5 830.5,-79.5 830.5,-60.5 885.5,-60.5 885.5,-79.5"/>
<text text-anchor="middle" x="858" y="-67.5" font-family="Helvetica,sans-Serif" font-size="10.00">fstream</text>
</a>
</g>
</g>
<!-- Node4&#45;&gt;Node7 -->
<g id="edge6_Node000004_Node000007" class="edge">
<title>Node4&#45;&gt;Node7</title>
<g id="a_edge6_Node000004_Node000007"><a xlink:title=" ">
<path fill="none" stroke="#63b8ff" d="M986.04,-126.37C960.66,-115.39 916.64,-96.36 887.41,-83.72"/>
<polygon fill="#63b8ff" stroke="#63b8ff" points="888.68,-80.46 878.12,-79.7 885.91,-86.88 888.68,-80.46"/>
</a>
</g>
</g>
<!-- Node8 -->
<g id="Node000008" class="node">
<title>Node8</title>
<g id="a_Node000008"><a xlink:title=" ">
<polygon fill="#e0e0e0" stroke="#999999" points="960,-79.5 904,-79.5 904,-60.5 960,-60.5 960,-79.5"/>
<text text-anchor="middle" x="932" y="-67.5" font-family="Helvetica,sans-Serif" font-size="10.00">sstream</text>
</a>
</g>
</g>
<!-- Node4&#45;&gt;Node8 -->
<g id="edge7_Node000004_Node000008" class="edge">
<title>Node4&#45;&gt;Node8</title>
<g id="a_edge7_Node000004_Node000008"><a xlink:title=" ">
<path fill="none" stroke="#63b8ff" d="M996.02,-126.37C984.28,-116.21 964.56,-99.16 950.1,-86.65"/>
<polygon fill="#63b8ff" stroke="#63b8ff" points="952.15,-83.8 942.3,-79.91 947.57,-89.09 952.15,-83.8"/>
</a>
</g>
</g>
<!-- Node9 -->
<g id="Node000009" class="node">
<title>Node9</title>
<g id="a_Node000009"><a xlink:title=" ">
<polygon fill="#e0e0e0" stroke="#999999" points="1084,-19 1040,-19 1040,0 1084,0 1084,-19"/>
<text text-anchor="middle" x="1062" y="-7" font-family="Helvetica,sans-Serif" font-size="10.00">string</text>
</a>
</g>
</g>
<!-- Node4&#45;&gt;Node9 -->
<g id="edge8_Node000004_Node000009" class="edge">
<title>Node4&#45;&gt;Node9</title>
<g id="a_edge8_Node000004_Node000009"><a xlink:title=" ">
<path fill="none" stroke="#63b8ff" d="M1013.96,-126.47C1022.35,-117.02 1035.4,-101 1043,-85 1051.57,-66.95 1056.61,-44.54 1059.33,-29.04"/>
<polygon fill="#63b8ff" stroke="#63b8ff" points="1062.79,-29.56 1060.9,-19.13 1055.87,-28.46 1062.79,-29.56"/>
</a>
</g>
</g>
<!-- Node10 -->
<g id="Node000010" class="node">
<title>Node10</title>
<g id="a_Node000010"><a xlink:title=" ">
<polygon fill="#e0e0e0" stroke="#999999" points="1319.5,-19 1272.5,-19 1272.5,0 1319.5,0 1319.5,-19"/>
<text text-anchor="middle" x="1296" y="-7" font-family="Helvetica,sans-Serif" font-size="10.00">vector</text>
</a>
</g>
</g>
<!-- Node4&#45;&gt;Node10 -->
<g id="edge9_Node000004_Node000010" class="edge">
<title>Node4&#45;&gt;Node10</title>
<g id="a_edge9_Node000004_Node000010"><a xlink:title=" ">
<path fill="none" stroke="#63b8ff" d="M1068.69,-134.22C1150.64,-131.72 1287.49,-121.95 1319,-85 1332.93,-68.66 1320.77,-43.97 1309.5,-27.55"/>
<polygon fill="#63b8ff" stroke="#63b8ff" points="1312.24,-25.37 1303.5,-19.38 1306.6,-29.51 1312.24,-25.37"/>
</a>
</g>
</g>
<!-- Node11 -->
<g id="Node000011" class="node">
<title>Node11</title>
<g id="a_Node000011"><a xlink:title=" ">
<polygon fill="#e0e0e0" stroke="#999999" points="1034,-79.5 978,-79.5 978,-60.5 1034,-60.5 1034,-79.5"/>
<text text-anchor="middle" x="1006" y="-67.5" font-family="Helvetica,sans-Serif" font-size="10.00">assert.h</text>
</a>
</g>
</g>
<!-- Node4&#45;&gt;Node11 -->
<g id="edge10_Node000004_Node000011" class="edge">
<title>Node4&#45;&gt;Node11</title>
<g id="a_edge10_Node000004_Node000011"><a xlink:title=" ">
<path fill="none" stroke="#63b8ff" d="M1006,-126.37C1006,-117.16 1006,-102.29 1006,-90.27"/>
<polygon fill="#63b8ff" stroke="#63b8ff" points="1009.5,-89.91 1006,-79.91 1002.5,-89.91 1009.5,-89.91"/>
</a>
</g>
</g>
<!-- Node12 -->
<g id="Node000012" class="node">
<title>Node12</title>
<g id="a_Node000012"><a xlink:title=" ">
<polygon fill="#e0e0e0" stroke="#999999" points="868.5,-19 773.5,-19 773.5,0 868.5,0 868.5,-19"/>
<text text-anchor="middle" x="821" y="-7" font-family="Helvetica,sans-Serif" font-size="10.00">boost/regex.hpp</text>
</a>
</g>
</g>
<!-- Node4&#45;&gt;Node12 -->
<g id="edge11_Node000004_Node000012" class="edge">
<title>Node4&#45;&gt;Node12</title>
<g id="a_edge11_Node000004_Node000012"><a xlink:title=" ">
<path fill="none" stroke="#63b8ff" d="M1056.11,-126.47C1110.47,-115.12 1185.43,-92.07 1153,-55 1135.26,-34.72 969.16,-20.48 878.84,-14.16"/>
<polygon fill="#63b8ff" stroke="#63b8ff" points="878.96,-10.66 868.75,-13.47 878.48,-17.65 878.96,-10.66"/>
</a>
</g>
</g>
<!-- Node13 -->
<g id="Node000013" class="node">
<title>Node13</title>
<g id="a_Node000013"><a xlink:href="ematch__src_2utils_2gdb_2gdbUtils_8hh.html" target="_top" xlink:title=" ">
<polygon fill="white" stroke="#666666" points="269.5,-79.5 152.5,-79.5 152.5,-60.5 269.5,-60.5 269.5,-79.5"/>
<text text-anchor="middle" x="211" y="-67.5" font-family="Helvetica,sans-Serif" font-size="10.00">utils/gdb/gdbUtils.hh</text>
</a>
</g>
</g>
<!-- Node4&#45;&gt;Node13 -->
<g id="edge12_Node000004_Node000013" class="edge">
<title>Node4&#45;&gt;Node13</title>
<g id="a_edge12_Node000004_Node000013"><a xlink:title=" ">
<path fill="none" stroke="#63b8ff" d="M943.19,-131.68C821.95,-125.01 547.27,-108.54 317,-85 304.95,-83.77 292.16,-82.26 279.79,-80.68"/>
<polygon fill="#63b8ff" stroke="#63b8ff" points="279.89,-77.17 269.52,-79.36 278.99,-84.11 279.89,-77.17"/>
</a>
</g>
</g>
<!-- Node18 -->
<g id="Node000018" class="node">
<title>Node18</title>
<g id="a_Node000018"><a xlink:href="ematch__src_2utils_2stl_2stlTypes_8hh.html" target="_top" xlink:title=" ">
<polygon fill="white" stroke="#666666" points="1310,-79.5 1200,-79.5 1200,-60.5 1310,-60.5 1310,-79.5"/>
<text text-anchor="middle" x="1255" y="-67.5" font-family="Helvetica,sans-Serif" font-size="10.00">utils/stl/stlTypes.hh</text>
</a>
</g>
</g>
<!-- Node4&#45;&gt;Node18 -->
<g id="edge18_Node000004_Node000018" class="edge">
<title>Node4&#45;&gt;Node18</title>
<g id="a_edge18_Node000004_Node000018"><a xlink:title=" ">
<path fill="none" stroke="#63b8ff" d="M1039.32,-126.44C1083.86,-114.99 1162.86,-94.68 1211.89,-82.08"/>
<polygon fill="#63b8ff" stroke="#63b8ff" points="1213.06,-85.39 1221.87,-79.51 1211.32,-78.61 1213.06,-85.39"/>
</a>
</g>
</g>
<!-- Node19 -->
<g id="Node000019" class="node">
<title>Node19</title>
<g id="a_Node000019"><a xlink:href="ematch__src_2utils_2boost_2boostUtils_8hh.html" target="_top" xlink:title=" ">
<polygon fill="white" stroke="#666666" points="735.5,-79.5 600.5,-79.5 600.5,-60.5 735.5,-60.5 735.5,-79.5"/>
<text text-anchor="middle" x="668" y="-67.5" font-family="Helvetica,sans-Serif" font-size="10.00">utils/boost/boostUtils.hh</text>
</a>
</g>
</g>
<!-- Node4&#45;&gt;Node19 -->
<g id="edge21_Node000004_Node000019" class="edge">
<title>Node4&#45;&gt;Node19</title>
<g id="a_edge21_Node000004_Node000019"><a xlink:title=" ">
<path fill="none" stroke="#63b8ff" d="M960.77,-126.44C899.17,-114.77 789.01,-93.91 722.8,-81.38"/>
<polygon fill="#63b8ff" stroke="#63b8ff" points="723.44,-77.94 712.97,-79.51 722.14,-84.81 723.44,-77.94"/>
</a>
</g>
</g>
<!-- Node13&#45;&gt;Node6 -->
<g id="edge14_Node000013_Node000006" class="edge">
<title>Node13&#45;&gt;Node6</title>
<g id="a_edge14_Node000013_Node000006"><a xlink:title=" ">
<path fill="none" stroke="#63b8ff" d="M253.46,-60.49C309.63,-49.24 407.93,-29.55 462.89,-18.54"/>
<polygon fill="#63b8ff" stroke="#63b8ff" points="463.84,-21.92 472.96,-16.52 462.46,-15.05 463.84,-21.92"/>
</a>
</g>
</g>
<!-- Node14 -->
<g id="Node000014" class="node">
<title>Node14</title>
<g id="a_Node000014"><a xlink:title=" ">
<polygon fill="#e0e0e0" stroke="#999999" points="135.5,-19 82.5,-19 82.5,0 135.5,0 135.5,-19"/>
<text text-anchor="middle" x="109" y="-7" font-family="Helvetica,sans-Serif" font-size="10.00">cstdarg</text>
</a>
</g>
</g>
<!-- Node13&#45;&gt;Node14 -->
<g id="edge13_Node000013_Node000014" class="edge">
<title>Node13&#45;&gt;Node14</title>
<g id="a_edge13_Node000013_Node000014"><a xlink:title=" ">
<path fill="none" stroke="#63b8ff" d="M195.95,-60.37C179.38,-50.86 152.5,-35.45 133.01,-24.27"/>
<polygon fill="#63b8ff" stroke="#63b8ff" points="134.53,-21.11 124.11,-19.17 131.05,-27.18 134.53,-21.11"/>
</a>
</g>
</g>
<!-- Node15 -->
<g id="Node000015" class="node">
<title>Node15</title>
<g id="a_Node000015"><a xlink:title=" ">
<polygon fill="#e0e0e0" stroke="#999999" points="202.5,-19 153.5,-19 153.5,0 202.5,0 202.5,-19"/>
<text text-anchor="middle" x="178" y="-7" font-family="Helvetica,sans-Serif" font-size="10.00">cstdlib</text>
</a>
</g>
</g>
<!-- Node13&#45;&gt;Node15 -->
<g id="edge15_Node000013_Node000015" class="edge">
<title>Node13&#45;&gt;Node15</title>
<g id="a_edge15_Node000013_Node000015"><a xlink:title=" ">
<path fill="none" stroke="#63b8ff" d="M206.13,-60.37C201.35,-51.9 193.93,-38.74 187.91,-28.07"/>
<polygon fill="#63b8ff" stroke="#63b8ff" points="190.85,-26.16 182.89,-19.17 184.75,-29.6 190.85,-26.16"/>
</a>
</g>
</g>
<!-- Node16 -->
<g id="Node000016" class="node">
<title>Node16</title>
<g id="a_Node000016"><a xlink:title=" ">
<polygon fill="#e0e0e0" stroke="#999999" points="267,-19 221,-19 221,0 267,0 267,-19"/>
<text text-anchor="middle" x="244" y="-7" font-family="Helvetica,sans-Serif" font-size="10.00">cstdio</text>
</a>
</g>
</g>
<!-- Node13&#45;&gt;Node16 -->
<g id="edge16_Node000013_Node000016" class="edge">
<title>Node13&#45;&gt;Node16</title>
<g id="a_edge16_Node000013_Node000016"><a xlink:title=" ">
<path fill="none" stroke="#63b8ff" d="M215.87,-60.37C220.65,-51.9 228.07,-38.74 234.09,-28.07"/>
<polygon fill="#63b8ff" stroke="#63b8ff" points="237.25,-29.6 239.11,-19.17 231.15,-26.16 237.25,-29.6"/>
</a>
</g>
</g>
<!-- Node17 -->
<g id="Node000017" class="node">
<title>Node17</title>
<g id="a_Node000017"><a xlink:title=" ">
<polygon fill="#e0e0e0" stroke="#999999" points="337,-19 285,-19 285,0 337,0 337,-19"/>
<text text-anchor="middle" x="311" y="-7" font-family="Helvetica,sans-Serif" font-size="10.00">cassert</text>
</a>
</g>
</g>
<!-- Node13&#45;&gt;Node17 -->
<g id="edge17_Node000013_Node000017" class="edge">
<title>Node13&#45;&gt;Node17</title>
<g id="a_edge17_Node000013_Node000017"><a xlink:title=" ">
<path fill="none" stroke="#63b8ff" d="M225.76,-60.37C242,-50.86 268.35,-35.45 287.46,-24.27"/>
<polygon fill="#63b8ff" stroke="#63b8ff" points="289.32,-27.24 296.18,-19.17 285.79,-21.2 289.32,-27.24"/>
</a>
</g>
</g>
<!-- Node18&#45;&gt;Node9 -->
<g id="edge19_Node000018_Node000009" class="edge">
<title>Node18&#45;&gt;Node9</title>
<g id="a_edge19_Node000018_Node000009"><a xlink:title=" ">
<path fill="none" stroke="#63b8ff" d="M1226.94,-60.49C1191.58,-49.78 1130.97,-31.4 1093.89,-20.17"/>
<polygon fill="#63b8ff" stroke="#63b8ff" points="1094.68,-16.75 1084.1,-17.2 1092.65,-23.45 1094.68,-16.75"/>
</a>
</g>
</g>
<!-- Node18&#45;&gt;Node10 -->
<g id="edge20_Node000018_Node000010" class="edge">
<title>Node18&#45;&gt;Node10</title>
<g id="a_edge20_Node000018_Node000010"><a xlink:title=" ">
<path fill="none" stroke="#63b8ff" d="M1261.05,-60.37C1267.11,-51.73 1276.59,-38.2 1284.14,-27.42"/>
<polygon fill="#63b8ff" stroke="#63b8ff" points="1287.05,-29.37 1289.93,-19.17 1281.32,-25.35 1287.05,-29.37"/>
</a>
</g>
</g>
<!-- Node19&#45;&gt;Node6 -->
<g id="edge22_Node000019_Node000006" class="edge">
<title>Node19&#45;&gt;Node6</title>
<g id="a_edge22_Node000019_Node000006"><a xlink:title=" ">
<path fill="none" stroke="#63b8ff" d="M644.01,-60.49C615.78,-50.49 568.72,-33.8 536.81,-22.49"/>
<polygon fill="#63b8ff" stroke="#63b8ff" points="537.62,-19.06 527.02,-19.02 535.28,-25.66 537.62,-19.06"/>
</a>
</g>
</g>
<!-- Node19&#45;&gt;Node12 -->
<g id="edge23_Node000019_Node000012" class="edge">
<title>Node19&#45;&gt;Node12</title>
<g id="a_edge23_Node000019_Node000012"><a xlink:title=" ">
<path fill="none" stroke="#63b8ff" d="M690.25,-60.49C716.31,-50.53 759.68,-33.95 789.27,-22.63"/>
<polygon fill="#63b8ff" stroke="#63b8ff" points="790.64,-25.86 798.73,-19.02 788.14,-19.32 790.64,-25.86"/>
</a>
</g>
</g>
<!-- Node20&#45;&gt;Node6 -->
<g id="edge27_Node000020_Node000006" class="edge">
<title>Node20&#45;&gt;Node6</title>
<g id="a_edge27_Node000020_Node000006"><a xlink:title=" ">
<path fill="none" stroke="#63b8ff" d="M384.26,-120.99C340.55,-107.88 292.79,-85.69 317,-55 334.81,-32.43 413.64,-20.03 462.79,-14.37"/>
<polygon fill="#63b8ff" stroke="#63b8ff" points="463.24,-17.84 472.79,-13.27 462.47,-10.89 463.24,-17.84"/>
</a>
</g>
</g>
<!-- Node20&#45;&gt;Node9 -->
<g id="edge25_Node000020_Node000009" class="edge">
<title>Node20&#45;&gt;Node9</title>
<g id="a_edge25_Node000020_Node000009"><a xlink:title=" ">
<path fill="none" stroke="#63b8ff" d="M509.68,-132.19C571.97,-127.66 667.19,-115.84 744,-85 765.96,-76.18 766.02,-63.77 788,-55 870.91,-21.91 977.3,-13.41 1029.77,-11.24"/>
<polygon fill="#63b8ff" stroke="#63b8ff" points="1029.96,-14.73 1039.83,-10.87 1029.71,-7.74 1029.96,-14.73"/>
</a>
</g>
</g>
<!-- Node20&#45;&gt;Node10 -->
<g id="edge26_Node000020_Node000010" class="edge">
<title>Node20&#45;&gt;Node10</title>
<g id="a_edge26_Node000020_Node000010"><a xlink:title=" ">
<path fill="none" stroke="#63b8ff" d="M509.52,-134.26C579.02,-131.44 690.87,-121.01 780,-85 801.27,-76.41 800.51,-63.02 822,-55 903,-24.79 1168.12,-14.24 1262.37,-11.39"/>
<polygon fill="#63b8ff" stroke="#63b8ff" points="1262.6,-14.88 1272.49,-11.09 1262.39,-7.89 1262.6,-14.88"/>
</a>
</g>
</g>
<!-- Node20&#45;&gt;Node13 -->
<g id="edge28_Node000020_Node000013" class="edge">
<title>Node20&#45;&gt;Node13</title>
<g id="a_edge28_Node000020_Node000013"><a xlink:title=" ">
<path fill="none" stroke="#63b8ff" d="M392.87,-120.95C350.48,-109.31 291.01,-92.98 251.77,-82.2"/>
<polygon fill="#63b8ff" stroke="#63b8ff" points="252.58,-78.79 242.01,-79.52 250.72,-85.54 252.58,-78.79"/>
</a>
</g>
</g>
<!-- Node21 -->
<g id="Node000021" class="node">
<title>Node21</title>
<g id="a_Node000021"><a xlink:href="bitLeftRotate_8hh.html" target="_top" xlink:title=" ">
<polygon fill="white" stroke="#666666" points="444,-85 326,-85 326,-55 444,-55 444,-85"/>
<text text-anchor="start" x="334" y="-73" font-family="Helvetica,sans-Serif" font-size="10.00">utils/ChainHashtable</text>
<text text-anchor="middle" x="385" y="-62" font-family="Helvetica,sans-Serif" font-size="10.00">/bitLeftRotate.hh</text>
</a>
</g>
</g>
<!-- Node20&#45;&gt;Node21 -->
<g id="edge29_Node000020_Node000021" class="edge">
<title>Node20&#45;&gt;Node21</title>
<g id="a_edge29_Node000020_Node000021"><a xlink:title=" ">
<path fill="none" stroke="#63b8ff" d="M430.91,-120.8C423.27,-112.51 413.48,-101.89 404.9,-92.59"/>
<polygon fill="#63b8ff" stroke="#63b8ff" points="407.41,-90.14 398.06,-85.16 402.26,-94.89 407.41,-90.14"/>
</a>
</g>
</g>
<!-- Node22 -->
<g id="Node000022" class="node">
<title>Node22</title>
<g id="a_Node000022"><a xlink:href="nextPrime_8hh.html" target="_top" xlink:title=" ">
<polygon fill="white" stroke="#666666" points="544,-79.5 462,-79.5 462,-60.5 544,-60.5 544,-79.5"/>
<text text-anchor="middle" x="503" y="-67.5" font-family="Helvetica,sans-Serif" font-size="10.00">nextPrime.hh</text>
</a>
</g>
</g>
<!-- Node20&#45;&gt;Node22 -->
<g id="edge31_Node000020_Node000022" class="edge">
<title>Node20&#45;&gt;Node22</title>
<g id="a_edge31_Node000020_Node000022"><a xlink:title=" ">
<path fill="none" stroke="#63b8ff" d="M457.09,-120.8C466.2,-110.92 478.37,-97.72 487.89,-87.39"/>
<polygon fill="#63b8ff" stroke="#63b8ff" points="490.64,-89.57 494.85,-79.84 485.5,-84.82 490.64,-89.57"/>
</a>
</g>
</g>
<!-- Node23 -->
<g id="Node000023" class="node">
<title>Node23</title>
<g id="a_Node000023"><a xlink:href="genericHashFunction_8hh.html" target="_top" xlink:title=" ">
<polygon fill="white" stroke="#666666" points="134,-79.5 0,-79.5 0,-60.5 134,-60.5 134,-79.5"/>
<text text-anchor="middle" x="67" y="-67.5" font-family="Helvetica,sans-Serif" font-size="10.00">genericHashFunction.hh</text>
</a>
</g>
</g>
<!-- Node20&#45;&gt;Node23 -->
<g id="edge33_Node000020_Node000023" class="edge">
<title>Node20&#45;&gt;Node23</title>
<g id="a_edge33_Node000020_Node000023"><a xlink:title=" ">
<path fill="none" stroke="#63b8ff" d="M378.47,-124.46C317.46,-114.56 224.01,-99.19 143,-85 136.43,-83.85 129.54,-82.62 122.72,-81.38"/>
<polygon fill="#63b8ff" stroke="#63b8ff" points="123.26,-77.92 112.79,-79.57 122,-84.81 123.26,-77.92"/>
</a>
</g>
</g>
<!-- Node21&#45;&gt;Node6 -->
<g id="edge30_Node000021_Node000006" class="edge">
<title>Node21&#45;&gt;Node6</title>
<g id="a_edge30_Node000021_Node000006"><a xlink:title=" ">
<path fill="none" stroke="#63b8ff" d="M413.26,-54.99C432.42,-45.49 457.58,-33.02 476.39,-23.69"/>
<polygon fill="#63b8ff" stroke="#63b8ff" points="478.17,-26.72 485.57,-19.14 475.06,-20.45 478.17,-26.72"/>
</a>
</g>
</g>
<!-- Node22&#45;&gt;Node6 -->
<g id="edge32_Node000022_Node000006" class="edge">
<title>Node22&#45;&gt;Node6</title>
<g id="a_edge32_Node000022_Node000006"><a xlink:title=" ">
<path fill="none" stroke="#63b8ff" d="M503,-60.37C503,-52.25 503,-39.81 503,-29.39"/>
<polygon fill="#63b8ff" stroke="#63b8ff" points="506.5,-29.17 503,-19.17 499.5,-29.17 506.5,-29.17"/>
</a>
</g>
</g>
<!-- Node24&#45;&gt;Node6 -->
<g id="edge36_Node000024_Node000006" class="edge">
<title>Node24&#45;&gt;Node6</title>
<g id="a_edge36_Node000024_Node000006"><a xlink:title=" ">
<path fill="none" stroke="#63b8ff" d="M1366.42,-60.79C1351.16,-58.64 1334.44,-56.5 1319,-55 1021.89,-26.15 661.96,-14.66 543.17,-11.49"/>
<polygon fill="#63b8ff" stroke="#63b8ff" points="543.17,-7.99 533.08,-11.22 542.98,-14.98 543.17,-7.99"/>
</a>
</g>
</g>
<!-- Node24&#45;&gt;Node10 -->
<g id="edge37_Node000024_Node000010" class="edge">
<title>Node24&#45;&gt;Node10</title>
<g id="a_edge37_Node000024_Node000010"><a xlink:title=" ">
<path fill="none" stroke="#63b8ff" d="M1401.11,-60.49C1380.62,-50.75 1346.81,-34.66 1323.08,-23.38"/>
<polygon fill="#63b8ff" stroke="#63b8ff" points="1324.44,-20.15 1313.91,-19.02 1321.43,-26.47 1324.44,-20.15"/>
</a>
</g>
</g>
<!-- Node25 -->
<g id="Node000025" class="node">
<title>Node25</title>
<g id="a_Node000025"><a xlink:title=" ">
<polygon fill="#e0e0e0" stroke="#999999" points="1451,-19 1387,-19 1387,0 1451,0 1451,-19"/>
<text text-anchor="middle" x="1419" y="-7" font-family="Helvetica,sans-Serif" font-size="10.00">algorithm</text>
</a>
</g>
</g>
<!-- Node24&#45;&gt;Node25 -->
<g id="edge35_Node000024_Node000025" class="edge">
<title>Node24&#45;&gt;Node25</title>
<g id="a_edge35_Node000024_Node000025"><a xlink:title=" ">
<path fill="none" stroke="#63b8ff" d="M1419,-60.37C1419,-52.25 1419,-39.81 1419,-29.39"/>
<polygon fill="#63b8ff" stroke="#63b8ff" points="1422.5,-29.17 1419,-19.17 1415.5,-29.17 1422.5,-29.17"/>
</a>
</g>
</g>
</g>
</svg>

<g id="navigator" transform="translate(0 0)" fill="#404254">
  <rect fill="#f2f5e9" fill-opacity="0.5" stroke="#606060" stroke-width=".5" x="0" y="0" width="60" height="60"/>
  <use id="zoomplus" xlink:href="#zoomPlus" x="17" y="9" onmousedown="handleZoom(evt,'in')"/>
  <use id="zoomminus" xlink:href="#zoomMin" x="42" y="9" onmousedown="handleZoom(evt,'out')"/>
  <use id="reset" xlink:href="#resetDef" x="30" y="36" onmousedown="handleReset()"/>
   <use id="arrowup" xlink:href="#arrowUp" x="0" y="0" onmousedown="handlePan(0,-1)"/>
  <use id="arrowright" xlink:href="#arrowRight" x="0" y="0" onmousedown="handlePan(1,0)"/>
  <use id="arrowdown" xlink:href="#arrowDown" x="0" y="0" onmousedown="handlePan(0,1)"/>
  <use id="arrowleft" xlink:href="#arrowLeft" x="0" y="0" onmousedown="handlePan(-1,0)"/>
</g>
<svg viewBox="0 0 15 15" width="100%" height="30px" preserveAspectRatio="xMaxYMin meet">
 <g id="arrow_out" transform="scale(0.3 0.3)">
  <a xlink:href="BlastEValuesByClass_8hh__incl_org.svg" target="_base">
   <rect id="button" ry="5" rx="5" y="6" x="6" height="38" width="38"
        fill="#f2f5e9" fill-opacity="0.5" stroke="#606060" stroke-width="1.0"/>
   <path id="arrow"
     d="M 11.500037,31.436501 C 11.940474,20.09759 22.043105,11.32322 32.158766,21.979434 L 37.068811,17.246167 C 37.068811,17.246167 37.088388,32 37.088388,32 L 22.160133,31.978069 C 22.160133,31.978069 26.997745,27.140456 26.997745,27.140456 C 18.528582,18.264221 13.291696,25.230495 11.500037,31.436501 z"
     style="fill:#404040;"/>
  </a>
 </g>
</svg>

<style type='text/css'>
<![CDATA[
[data-mouse-over-selected='false'] { opacity: 0.7; }
[data-mouse-over-selected='true']  { opacity: 1.0; }
]]>
</style>
<script type="application/ecmascript"><![CDATA[
document.addEventListener('DOMContentLoaded', (event) => {
  highlightEdges();
  highlightAdjacentNodes();
});
]]></script>
</svg>
