<?xml version="1.0" encoding="UTF-8" standalone="no"?>
<!DOCTYPE svg PUBLIC "-//W3C//DTD SVG 1.1//EN"
 "http://www.w3.org/Graphics/SVG/1.1/DTD/svg11.dtd">
<!-- Generated by graphviz version 2.43.0 (0)
 -->
<!-- Title: ematch_src/utils/sequence/readers/BlastEValuesByClass.hh Pages: 1 -->
<svg width="599pt" height="115pt"
 viewBox="0.00 0.00 599.00 115.00" xmlns="http://www.w3.org/2000/svg" xmlns:xlink="http://www.w3.org/1999/xlink">
<g id="graph0" class="graph" transform="scale(1 1) rotate(0) translate(4 111)">
<title>ematch_src/utils/sequence/readers/BlastEValuesByClass.hh</title>
<!-- Node1 -->
<g id="Node000001" class="node">
<title>Node1</title>
<g id="a_Node000001"><a xlink:title=" ">
<polygon fill="#999999" stroke="#666666" points="368.5,-107 192.5,-107 192.5,-77 368.5,-77 368.5,-107"/>
<text text-anchor="start" x="200.5" y="-95" font-family="Helvetica,sans-Serif" font-size="10.00">ematch_src/utils/sequence</text>
<text text-anchor="middle" x="280.5" y="-84" font-family="Helvetica,sans-Serif" font-size="10.00">/readers/BlastEValuesByClass.hh</text>
</a>
</g>
</g>
<!-- Node2 -->
<g id="Node000002" class="node">
<title>Node2</title>
<g id="a_Node000002"><a xlink:href="BlastEValuesByClass_8cc.html" target="_top" xlink:title=" ">
<polygon fill="white" stroke="#666666" points="175,-35.5 0,-35.5 0,-5.5 175,-5.5 175,-35.5"/>
<text text-anchor="start" x="8" y="-23.5" font-family="Helvetica,sans-Serif" font-size="10.00">ematch_src/utils/sequence</text>
<text text-anchor="middle" x="87.5" y="-12.5" font-family="Helvetica,sans-Serif" font-size="10.00">/readers/BlastEValuesByClass.cc</text>
</a>
</g>
</g>
<!-- Node1&#45;&gt;Node2 -->
<g id="edge1_Node000001_Node000002" class="edge">
<title>Node1&#45;&gt;Node2</title>
<g id="a_edge1_Node000001_Node000002"><a xlink:title=" ">
<path fill="none" stroke="#63b8ff" d="M231.67,-73.42C199.09,-61.68 156.83,-46.47 126.5,-35.54"/>
<polygon fill="#63b8ff" stroke="#63b8ff" points="230.85,-76.84 241.44,-76.94 233.22,-70.25 230.85,-76.84"/>
</a>
</g>
</g>
<!-- Node3 -->
<g id="Node000003" class="node">
<title>Node3</title>
<g id="a_Node000003"><a xlink:href="labeledBlastToOddsRatio_8cc.html" target="_top" xlink:title=" ">
<polygon fill="white" stroke="#666666" points="367.5,-41 193.5,-41 193.5,0 367.5,0 367.5,-41"/>
<text text-anchor="start" x="201.5" y="-29" font-family="Helvetica,sans-Serif" font-size="10.00">ematch_src/utils/sequence</text>
<text text-anchor="start" x="201.5" y="-18" font-family="Helvetica,sans-Serif" font-size="10.00">/readers/run/labeledBlastToOdds</text>
<text text-anchor="middle" x="280.5" y="-7" font-family="Helvetica,sans-Serif" font-size="10.00">Ratio.cc</text>
</a>
</g>
</g>
<!-- Node1&#45;&gt;Node3 -->
<g id="edge2_Node000001_Node000003" class="edge">
<title>Node1&#45;&gt;Node3</title>
<g id="a_edge2_Node000001_Node000003"><a xlink:title=" ">
<path fill="none" stroke="#63b8ff" d="M280.5,-66.91C280.5,-58.47 280.5,-49.1 280.5,-41.07"/>
<polygon fill="#63b8ff" stroke="#63b8ff" points="277,-66.94 280.5,-76.94 284,-66.94 277,-66.94"/>
</a>
</g>
</g>
<!-- Node4 -->
<g id="Node000004" class="node">
<title>Node4</title>
<g id="a_Node000004"><a xlink:href="runDumpBlastNNUtility_8cc.html" target="_top" xlink:title=" ">
<polygon fill="white" stroke="#666666" points="591,-35.5 386,-35.5 386,-5.5 591,-5.5 591,-35.5"/>
<text text-anchor="start" x="394" y="-23.5" font-family="Helvetica,sans-Serif" font-size="10.00">ematch_src/utils/sequence</text>
<text text-anchor="middle" x="488.5" y="-12.5" font-family="Helvetica,sans-Serif" font-size="10.00">/readers/run/runDumpBlastNNUtility.cc</text>
</a>
</g>
</g>
<!-- Node1&#45;&gt;Node4 -->
<g id="edge3_Node000001_Node000004" class="edge">
<title>Node1&#45;&gt;Node4</title>
<g id="a_edge3_Node000001_Node000004"><a xlink:title=" ">
<path fill="none" stroke="#63b8ff" d="M332.22,-73.72C367.45,-61.95 413.5,-46.56 446.47,-35.54"/>
<polygon fill="#63b8ff" stroke="#63b8ff" points="330.97,-70.45 322.59,-76.94 333.19,-77.09 330.97,-70.45"/>
</a>
</g>
</g>
</g>
</svg>
