<?xml version="1.0" encoding="UTF-8" standalone="no"?>
<!DOCTYPE svg PUBLIC "-//W3C//DTD SVG 1.1//EN"
 "http://www.w3.org/Graphics/SVG/1.1/DTD/svg11.dtd">
<!-- Generated by graphviz version 2.43.0 (0)
 -->
<!-- Title: ematch_src/utils/sequence/readers/BlastEValuesByClass.cc Pages: 1 -->
<svg width="1480pt" height="335pt"
 viewBox="0.00 0.00 1479.50 335.00" xmlns="http://www.w3.org/2000/svg" xmlns:xlink="http://www.w3.org/1999/xlink">
<g id="graph0" class="graph" transform="scale(1 1) rotate(0) translate(4 331)">
<title>ematch_src/utils/sequence/readers/BlastEValuesByClass.cc</title>
<!-- Node1 -->
<g id="Node000001" class="node">
<title>Node1</title>
<g id="a_Node000001"><a xlink:title=" ">
<polygon fill="#999999" stroke="#666666" points="1206.5,-327 1031.5,-327 1031.5,-297 1206.5,-297 1206.5,-327"/>
<text text-anchor="start" x="1039.5" y="-315" font-family="Helvetica,sans-Serif" font-size="10.00">ematch_src/utils/sequence</text>
<text text-anchor="middle" x="1119" y="-304" font-family="Helvetica,sans-Serif" font-size="10.00">/readers/BlastEValuesByClass.cc</text>
</a>
</g>
</g>
<!-- Node2 -->
<g id="Node000002" class="node">
<title>Node2</title>
<g id="a_Node000002"><a xlink:href="BlastEValuesByClass_8hh.html" target="_top" xlink:title=" ">
<polygon fill="white" stroke="#666666" points="1110,-261 976,-261 976,-242 1110,-242 1110,-261"/>
<text text-anchor="middle" x="1043" y="-249" font-family="Helvetica,sans-Serif" font-size="10.00">BlastEValuesByClass.hh</text>
</a>
</g>
</g>
<!-- Node1&#45;&gt;Node2 -->
<g id="edge1_Node000001_Node000002" class="edge">
<title>Node1&#45;&gt;Node2</title>
<g id="a_edge1_Node000001_Node000002"><a xlink:title=" ">
<path fill="none" stroke="#63b8ff" d="M1100.6,-296.84C1089.12,-288 1074.35,-276.63 1062.64,-267.62"/>
<polygon fill="#63b8ff" stroke="#63b8ff" points="1064.45,-264.59 1054.39,-261.27 1060.18,-270.14 1064.45,-264.59"/>
</a>
</g>
</g>
<!-- Node27 -->
<g id="Node000027" class="node">
<title>Node27</title>
<g id="a_Node000027"><a xlink:href="pairPredicate_8hh.html" target="_top" xlink:title=" ">
<polygon fill="white" stroke="#666666" points="1263.5,-261 1128.5,-261 1128.5,-242 1263.5,-242 1263.5,-261"/>
<text text-anchor="middle" x="1196" y="-249" font-family="Helvetica,sans-Serif" font-size="10.00">utils/stl/pairPredicate.hh</text>
</a>
</g>
</g>
<!-- Node1&#45;&gt;Node27 -->
<g id="edge39_Node000001_Node000027" class="edge">
<title>Node1&#45;&gt;Node27</title>
<g id="a_edge39_Node000001_Node000027"><a xlink:title=" ">
<path fill="none" stroke="#63b8ff" d="M1137.64,-296.84C1149.39,-287.91 1164.53,-276.41 1176.45,-267.35"/>
<polygon fill="#63b8ff" stroke="#63b8ff" points="1178.62,-270.1 1184.46,-261.27 1174.38,-264.53 1178.62,-270.1"/>
</a>
</g>
</g>
<!-- Node3 -->
<g id="Node000003" class="node">
<title>Node3</title>
<g id="a_Node000003"><a xlink:title=" ">
<polygon fill="#e0e0e0" stroke="#999999" points="924,-206 756,-206 756,-187 924,-187 924,-206"/>
<text text-anchor="middle" x="840" y="-194" font-family="Helvetica,sans-Serif" font-size="10.00">classifiers/LabeledInstances.hh</text>
</a>
</g>
</g>
<!-- Node2&#45;&gt;Node3 -->
<g id="edge2_Node000002_Node000003" class="edge">
<title>Node2&#45;&gt;Node3</title>
<g id="a_edge2_Node000002_Node000003"><a xlink:title=" ">
<path fill="none" stroke="#63b8ff" d="M1010.38,-241.98C975.71,-232.93 920.74,-218.58 882.65,-208.64"/>
<polygon fill="#63b8ff" stroke="#63b8ff" points="883.43,-205.22 872.87,-206.08 881.66,-211.99 883.43,-205.22"/>
</a>
</g>
</g>
<!-- Node4 -->
<g id="Node000004" class="node">
<title>Node4</title>
<g id="a_Node000004"><a xlink:href="Blast8ResultReader_8hh.html" target="_top" xlink:title=" ">
<polygon fill="white" stroke="#666666" points="1069.5,-206 942.5,-206 942.5,-187 1069.5,-187 1069.5,-206"/>
<text text-anchor="middle" x="1006" y="-194" font-family="Helvetica,sans-Serif" font-size="10.00">Blast8ResultReader.hh</text>
</a>
</g>
</g>
<!-- Node2&#45;&gt;Node4 -->
<g id="edge3_Node000002_Node000004" class="edge">
<title>Node2&#45;&gt;Node4</title>
<g id="a_edge3_Node000002_Node000004"><a xlink:title=" ">
<path fill="none" stroke="#63b8ff" d="M1036.89,-241.75C1031.72,-234.34 1024.15,-223.5 1017.81,-214.41"/>
<polygon fill="#63b8ff" stroke="#63b8ff" points="1020.59,-212.29 1012,-206.09 1014.85,-216.29 1020.59,-212.29"/>
</a>
</g>
</g>
<!-- Node25 -->
<g id="Node000025" class="node">
<title>Node25</title>
<g id="a_Node000025"><a xlink:href="stlUtils_8hh.html" target="_top" xlink:title=" ">
<polygon fill="white" stroke="#666666" points="1471.5,-79.5 1366.5,-79.5 1366.5,-60.5 1471.5,-60.5 1471.5,-79.5"/>
<text text-anchor="middle" x="1419" y="-67.5" font-family="Helvetica,sans-Serif" font-size="10.00">utils/stl/stlUtils.hh</text>
</a>
</g>
</g>
<!-- Node2&#45;&gt;Node25 -->
<g id="edge35_Node000002_Node000025" class="edge">
<title>Node2&#45;&gt;Node25</title>
<g id="a_edge35_Node000002_Node000025"><a xlink:title=" ">
<path fill="none" stroke="#63b8ff" d="M1051.34,-241.61C1064.3,-228.22 1090.54,-202.79 1117,-187 1203.17,-135.58 1316.16,-99.43 1376.56,-82.29"/>
<polygon fill="#63b8ff" stroke="#63b8ff" points="1377.82,-85.57 1386.5,-79.5 1375.93,-78.83 1377.82,-85.57"/>
</a>
</g>
</g>
<!-- Node5 -->
<g id="Node000005" class="node">
<title>Node5</title>
<g id="a_Node000005"><a xlink:href="ematch__src_2utils_2perlish_2perlish_8hh.html" target="_top" xlink:title=" ">
<polygon fill="white" stroke="#666666" points="1068.5,-145.5 943.5,-145.5 943.5,-126.5 1068.5,-126.5 1068.5,-145.5"/>
<text text-anchor="middle" x="1006" y="-133.5" font-family="Helvetica,sans-Serif" font-size="10.00">utils/perlish/perlish.hh</text>
</a>
</g>
</g>
<!-- Node4&#45;&gt;Node5 -->
<g id="edge4_Node000004_Node000005" class="edge">
<title>Node4&#45;&gt;Node5</title>
<g id="a_edge4_Node000004_Node000005"><a xlink:title=" ">
<path fill="none" stroke="#63b8ff" d="M1006,-186.87C1006,-178.75 1006,-166.31 1006,-155.89"/>
<polygon fill="#63b8ff" stroke="#63b8ff" points="1009.5,-155.67 1006,-145.67 1002.5,-155.67 1009.5,-155.67"/>
</a>
</g>
</g>
<!-- Node21 -->
<g id="Node000021" class="node">
<title>Node21</title>
<g id="a_Node000021"><a xlink:href="StringKeyHashtable_8hh.html" target="_top" xlink:title=" ">
<polygon fill="white" stroke="#666666" points="509.5,-151 378.5,-151 378.5,-121 509.5,-121 509.5,-151"/>
<text text-anchor="start" x="386.5" y="-139" font-family="Helvetica,sans-Serif" font-size="10.00">utils/ChainHashtable</text>
<text text-anchor="middle" x="444" y="-128" font-family="Helvetica,sans-Serif" font-size="10.00">/StringKeyHashtable.hh</text>
</a>
</g>
</g>
<!-- Node4&#45;&gt;Node21 -->
<g id="edge25_Node000004_Node000021" class="edge">
<title>Node4&#45;&gt;Node21</title>
<g id="a_edge25_Node000004_Node000021"><a xlink:title=" ">
<path fill="none" stroke="#63b8ff" d="M942.3,-188.03C939.16,-187.68 936.04,-187.33 933,-187 786.9,-171.03 616.06,-153.91 519.89,-144.43"/>
<polygon fill="#63b8ff" stroke="#63b8ff" points="519.97,-140.92 509.68,-143.42 519.29,-147.88 519.97,-140.92"/>
</a>
</g>
</g>
<!-- Node6 -->
<g id="Node000006" class="node">
<title>Node6</title>
<g id="a_Node000006"><a xlink:title=" ">
<polygon fill="#e0e0e0" stroke="#999999" points="1143.5,-79.5 1090.5,-79.5 1090.5,-60.5 1143.5,-60.5 1143.5,-79.5"/>
<text text-anchor="middle" x="1117" y="-67.5" font-family="Helvetica,sans-Serif" font-size="10.00">ctype.h</text>
</a>
</g>
</g>
<!-- Node5&#45;&gt;Node6 -->
<g id="edge5_Node000005_Node000006" class="edge">
<title>Node5&#45;&gt;Node6</title>
<g id="a_edge5_Node000005_Node000006"><a xlink:title=" ">
<path fill="none" stroke="#63b8ff" d="M1020.97,-126.37C1039.51,-115.68 1071.31,-97.35 1093.2,-84.72"/>
<polygon fill="#63b8ff" stroke="#63b8ff" points="1095,-87.73 1101.91,-79.7 1091.5,-81.66 1095,-87.73"/>
</a>
</g>
</g>
<!-- Node7 -->
<g id="Node000007" class="node">
<title>Node7</title>
<g id="a_Node000007"><a xlink:title=" ">
<polygon fill="#e0e0e0" stroke="#999999" points="533,-19 473,-19 473,0 533,0 533,-19"/>
<text text-anchor="middle" x="503" y="-7" font-family="Helvetica,sans-Serif" font-size="10.00">iostream</text>
</a>
</g>
</g>
<!-- Node5&#45;&gt;Node7 -->
<g id="edge6_Node000005_Node000007" class="edge">
<title>Node5&#45;&gt;Node7</title>
<g id="a_edge6_Node000005_Node000007"><a xlink:title=" ">
<path fill="none" stroke="#63b8ff" d="M943.36,-131.86C843.39,-126.11 652.78,-111.94 591,-85 582.83,-81.44 543.42,-46.76 520.21,-26"/>
<polygon fill="#63b8ff" stroke="#63b8ff" points="522.25,-23.13 512.47,-19.06 517.58,-28.34 522.25,-23.13"/>
</a>
</g>
</g>
<!-- Node8 -->
<g id="Node000008" class="node">
<title>Node8</title>
<g id="a_Node000008"><a xlink:title=" ">
<polygon fill="#e0e0e0" stroke="#999999" points="885.5,-79.5 830.5,-79.5 830.5,-60.5 885.5,-60.5 885.5,-79.5"/>
<text text-anchor="middle" x="858" y="-67.5" font-family="Helvetica,sans-Serif" font-size="10.00">fstream</text>
</a>
</g>
</g>
<!-- Node5&#45;&gt;Node8 -->
<g id="edge7_Node000005_Node000008" class="edge">
<title>Node5&#45;&gt;Node8</title>
<g id="a_edge7_Node000005_Node000008"><a xlink:title=" ">
<path fill="none" stroke="#63b8ff" d="M986.04,-126.37C960.66,-115.39 916.64,-96.36 887.41,-83.72"/>
<polygon fill="#63b8ff" stroke="#63b8ff" points="888.68,-80.46 878.12,-79.7 885.91,-86.88 888.68,-80.46"/>
</a>
</g>
</g>
<!-- Node9 -->
<g id="Node000009" class="node">
<title>Node9</title>
<g id="a_Node000009"><a xlink:title=" ">
<polygon fill="#e0e0e0" stroke="#999999" points="960,-79.5 904,-79.5 904,-60.5 960,-60.5 960,-79.5"/>
<text text-anchor="middle" x="932" y="-67.5" font-family="Helvetica,sans-Serif" font-size="10.00">sstream</text>
</a>
</g>
</g>
<!-- Node5&#45;&gt;Node9 -->
<g id="edge8_Node000005_Node000009" class="edge">
<title>Node5&#45;&gt;Node9</title>
<g id="a_edge8_Node000005_Node000009"><a xlink:title=" ">
<path fill="none" stroke="#63b8ff" d="M996.02,-126.37C984.28,-116.21 964.56,-99.16 950.1,-86.65"/>
<polygon fill="#63b8ff" stroke="#63b8ff" points="952.15,-83.8 942.3,-79.91 947.57,-89.09 952.15,-83.8"/>
</a>
</g>
</g>
<!-- Node10 -->
<g id="Node000010" class="node">
<title>Node10</title>
<g id="a_Node000010"><a xlink:title=" ">
<polygon fill="#e0e0e0" stroke="#999999" points="1084,-19 1040,-19 1040,0 1084,0 1084,-19"/>
<text text-anchor="middle" x="1062" y="-7" font-family="Helvetica,sans-Serif" font-size="10.00">string</text>
</a>
</g>
</g>
<!-- Node5&#45;&gt;Node10 -->
<g id="edge9_Node000005_Node000010" class="edge">
<title>Node5&#45;&gt;Node10</title>
<g id="a_edge9_Node000005_Node000010"><a xlink:title=" ">
<path fill="none" stroke="#63b8ff" d="M1013.96,-126.47C1022.35,-117.02 1035.4,-101 1043,-85 1051.57,-66.95 1056.61,-44.54 1059.33,-29.04"/>
<polygon fill="#63b8ff" stroke="#63b8ff" points="1062.79,-29.56 1060.9,-19.13 1055.87,-28.46 1062.79,-29.56"/>
</a>
</g>
</g>
<!-- Node11 -->
<g id="Node000011" class="node">
<title>Node11</title>
<g id="a_Node000011"><a xlink:title=" ">
<polygon fill="#e0e0e0" stroke="#999999" points="1319.5,-19 1272.5,-19 1272.5,0 1319.5,0 1319.5,-19"/>
<text text-anchor="middle" x="1296" y="-7" font-family="Helvetica,sans-Serif" font-size="10.00">vector</text>
</a>
</g>
</g>
<!-- Node5&#45;&gt;Node11 -->
<g id="edge10_Node000005_Node000011" class="edge">
<title>Node5&#45;&gt;Node11</title>
<g id="a_edge10_Node000005_Node000011"><a xlink:title=" ">
<path fill="none" stroke="#63b8ff" d="M1052.57,-126.44C1062.91,-124.6 1073.82,-122.69 1084,-121 1136.12,-112.33 1284.59,-125.09 1319,-85 1332.99,-68.71 1320.81,-44 1309.52,-27.57"/>
<polygon fill="#63b8ff" stroke="#63b8ff" points="1312.26,-25.38 1303.52,-19.39 1306.62,-29.52 1312.26,-25.38"/>
</a>
</g>
</g>
<!-- Node12 -->
<g id="Node000012" class="node">
<title>Node12</title>
<g id="a_Node000012"><a xlink:title=" ">
<polygon fill="#e0e0e0" stroke="#999999" points="1034,-79.5 978,-79.5 978,-60.5 1034,-60.5 1034,-79.5"/>
<text text-anchor="middle" x="1006" y="-67.5" font-family="Helvetica,sans-Serif" font-size="10.00">assert.h</text>
</a>
</g>
</g>
<!-- Node5&#45;&gt;Node12 -->
<g id="edge11_Node000005_Node000012" class="edge">
<title>Node5&#45;&gt;Node12</title>
<g id="a_edge11_Node000005_Node000012"><a xlink:title=" ">
<path fill="none" stroke="#63b8ff" d="M1006,-126.37C1006,-117.16 1006,-102.29 1006,-90.27"/>
<polygon fill="#63b8ff" stroke="#63b8ff" points="1009.5,-89.91 1006,-79.91 1002.5,-89.91 1009.5,-89.91"/>
</a>
</g>
</g>
<!-- Node13 -->
<g id="Node000013" class="node">
<title>Node13</title>
<g id="a_Node000013"><a xlink:title=" ">
<polygon fill="#e0e0e0" stroke="#999999" points="868.5,-19 773.5,-19 773.5,0 868.5,0 868.5,-19"/>
<text text-anchor="middle" x="821" y="-7" font-family="Helvetica,sans-Serif" font-size="10.00">boost/regex.hpp</text>
</a>
</g>
</g>
<!-- Node5&#45;&gt;Node13 -->
<g id="edge12_Node000005_Node000013" class="edge">
<title>Node5&#45;&gt;Node13</title>
<g id="a_edge12_Node000005_Node000013"><a xlink:title=" ">
<path fill="none" stroke="#63b8ff" d="M1055.79,-126.4C1109.79,-114.99 1184.25,-91.88 1152,-55 1134.31,-34.77 968.71,-20.51 878.66,-14.18"/>
<polygon fill="#63b8ff" stroke="#63b8ff" points="878.82,-10.68 868.6,-13.48 878.34,-17.66 878.82,-10.68"/>
</a>
</g>
</g>
<!-- Node14 -->
<g id="Node000014" class="node">
<title>Node14</title>
<g id="a_Node000014"><a xlink:href="ematch__src_2utils_2gdb_2gdbUtils_8hh.html" target="_top" xlink:title=" ">
<polygon fill="white" stroke="#666666" points="269.5,-79.5 152.5,-79.5 152.5,-60.5 269.5,-60.5 269.5,-79.5"/>
<text text-anchor="middle" x="211" y="-67.5" font-family="Helvetica,sans-Serif" font-size="10.00">utils/gdb/gdbUtils.hh</text>
</a>
</g>
</g>
<!-- Node5&#45;&gt;Node14 -->
<g id="edge13_Node000005_Node000014" class="edge">
<title>Node5&#45;&gt;Node14</title>
<g id="a_edge13_Node000005_Node000014"><a xlink:title=" ">
<path fill="none" stroke="#63b8ff" d="M943.19,-131.68C821.95,-125.01 547.27,-108.54 317,-85 304.95,-83.77 292.16,-82.26 279.79,-80.68"/>
<polygon fill="#63b8ff" stroke="#63b8ff" points="279.89,-77.17 269.52,-79.36 278.99,-84.11 279.89,-77.17"/>
</a>
</g>
</g>
<!-- Node19 -->
<g id="Node000019" class="node">
<title>Node19</title>
<g id="a_Node000019"><a xlink:href="ematch__src_2utils_2stl_2stlTypes_8hh.html" target="_top" xlink:title=" ">
<polygon fill="white" stroke="#666666" points="1310,-79.5 1200,-79.5 1200,-60.5 1310,-60.5 1310,-79.5"/>
<text text-anchor="middle" x="1255" y="-67.5" font-family="Helvetica,sans-Serif" font-size="10.00">utils/stl/stlTypes.hh</text>
</a>
</g>
</g>
<!-- Node5&#45;&gt;Node19 -->
<g id="edge19_Node000005_Node000019" class="edge">
<title>Node5&#45;&gt;Node19</title>
<g id="a_edge19_Node000005_Node000019"><a xlink:title=" ">
<path fill="none" stroke="#63b8ff" d="M1039.32,-126.44C1083.86,-114.99 1162.86,-94.68 1211.89,-82.08"/>
<polygon fill="#63b8ff" stroke="#63b8ff" points="1213.06,-85.39 1221.87,-79.51 1211.32,-78.61 1213.06,-85.39"/>
</a>
</g>
</g>
<!-- Node20 -->
<g id="Node000020" class="node">
<title>Node20</title>
<g id="a_Node000020"><a xlink:href="ematch__src_2utils_2boost_2boostUtils_8hh.html" target="_top" xlink:title=" ">
<polygon fill="white" stroke="#666666" points="735.5,-79.5 600.5,-79.5 600.5,-60.5 735.5,-60.5 735.5,-79.5"/>
<text text-anchor="middle" x="668" y="-67.5" font-family="Helvetica,sans-Serif" font-size="10.00">utils/boost/boostUtils.hh</text>
</a>
</g>
</g>
<!-- Node5&#45;&gt;Node20 -->
<g id="edge22_Node000005_Node000020" class="edge">
<title>Node5&#45;&gt;Node20</title>
<g id="a_edge22_Node000005_Node000020"><a xlink:title=" ">
<path fill="none" stroke="#63b8ff" d="M960.77,-126.44C899.17,-114.77 789.01,-93.91 722.8,-81.38"/>
<polygon fill="#63b8ff" stroke="#63b8ff" points="723.44,-77.94 712.97,-79.51 722.14,-84.81 723.44,-77.94"/>
</a>
</g>
</g>
<!-- Node14&#45;&gt;Node7 -->
<g id="edge15_Node000014_Node000007" class="edge">
<title>Node14&#45;&gt;Node7</title>
<g id="a_edge15_Node000014_Node000007"><a xlink:title=" ">
<path fill="none" stroke="#63b8ff" d="M253.46,-60.49C309.63,-49.24 407.93,-29.55 462.89,-18.54"/>
<polygon fill="#63b8ff" stroke="#63b8ff" points="463.84,-21.92 472.96,-16.52 462.46,-15.05 463.84,-21.92"/>
</a>
</g>
</g>
<!-- Node15 -->
<g id="Node000015" class="node">
<title>Node15</title>
<g id="a_Node000015"><a xlink:title=" ">
<polygon fill="#e0e0e0" stroke="#999999" points="135.5,-19 82.5,-19 82.5,0 135.5,0 135.5,-19"/>
<text text-anchor="middle" x="109" y="-7" font-family="Helvetica,sans-Serif" font-size="10.00">cstdarg</text>
</a>
</g>
</g>
<!-- Node14&#45;&gt;Node15 -->
<g id="edge14_Node000014_Node000015" class="edge">
<title>Node14&#45;&gt;Node15</title>
<g id="a_edge14_Node000014_Node000015"><a xlink:title=" ">
<path fill="none" stroke="#63b8ff" d="M195.95,-60.37C179.38,-50.86 152.5,-35.45 133.01,-24.27"/>
<polygon fill="#63b8ff" stroke="#63b8ff" points="134.53,-21.11 124.11,-19.17 131.05,-27.18 134.53,-21.11"/>
</a>
</g>
</g>
<!-- Node16 -->
<g id="Node000016" class="node">
<title>Node16</title>
<g id="a_Node000016"><a xlink:title=" ">
<polygon fill="#e0e0e0" stroke="#999999" points="202.5,-19 153.5,-19 153.5,0 202.5,0 202.5,-19"/>
<text text-anchor="middle" x="178" y="-7" font-family="Helvetica,sans-Serif" font-size="10.00">cstdlib</text>
</a>
</g>
</g>
<!-- Node14&#45;&gt;Node16 -->
<g id="edge16_Node000014_Node000016" class="edge">
<title>Node14&#45;&gt;Node16</title>
<g id="a_edge16_Node000014_Node000016"><a xlink:title=" ">
<path fill="none" stroke="#63b8ff" d="M206.13,-60.37C201.35,-51.9 193.93,-38.74 187.91,-28.07"/>
<polygon fill="#63b8ff" stroke="#63b8ff" points="190.85,-26.16 182.89,-19.17 184.75,-29.6 190.85,-26.16"/>
</a>
</g>
</g>
<!-- Node17 -->
<g id="Node000017" class="node">
<title>Node17</title>
<g id="a_Node000017"><a xlink:title=" ">
<polygon fill="#e0e0e0" stroke="#999999" points="267,-19 221,-19 221,0 267,0 267,-19"/>
<text text-anchor="middle" x="244" y="-7" font-family="Helvetica,sans-Serif" font-size="10.00">cstdio</text>
</a>
</g>
</g>
<!-- Node14&#45;&gt;Node17 -->
<g id="edge17_Node000014_Node000017" class="edge">
<title>Node14&#45;&gt;Node17</title>
<g id="a_edge17_Node000014_Node000017"><a xlink:title=" ">
<path fill="none" stroke="#63b8ff" d="M215.87,-60.37C220.65,-51.9 228.07,-38.74 234.09,-28.07"/>
<polygon fill="#63b8ff" stroke="#63b8ff" points="237.25,-29.6 239.11,-19.17 231.15,-26.16 237.25,-29.6"/>
</a>
</g>
</g>
<!-- Node18 -->
<g id="Node000018" class="node">
<title>Node18</title>
<g id="a_Node000018"><a xlink:title=" ">
<polygon fill="#e0e0e0" stroke="#999999" points="337,-19 285,-19 285,0 337,0 337,-19"/>
<text text-anchor="middle" x="311" y="-7" font-family="Helvetica,sans-Serif" font-size="10.00">cassert</text>
</a>
</g>
</g>
<!-- Node14&#45;&gt;Node18 -->
<g id="edge18_Node000014_Node000018" class="edge">
<title>Node14&#45;&gt;Node18</title>
<g id="a_edge18_Node000014_Node000018"><a xlink:title=" ">
<path fill="none" stroke="#63b8ff" d="M225.76,-60.37C242,-50.86 268.35,-35.45 287.46,-24.27"/>
<polygon fill="#63b8ff" stroke="#63b8ff" points="289.32,-27.24 296.18,-19.17 285.79,-21.2 289.32,-27.24"/>
</a>
</g>
</g>
<!-- Node19&#45;&gt;Node10 -->
<g id="edge20_Node000019_Node000010" class="edge">
<title>Node19&#45;&gt;Node10</title>
<g id="a_edge20_Node000019_Node000010"><a xlink:title=" ">
<path fill="none" stroke="#63b8ff" d="M1226.94,-60.49C1191.58,-49.78 1130.97,-31.4 1093.89,-20.17"/>
<polygon fill="#63b8ff" stroke="#63b8ff" points="1094.68,-16.75 1084.1,-17.2 1092.65,-23.45 1094.68,-16.75"/>
</a>
</g>
</g>
<!-- Node19&#45;&gt;Node11 -->
<g id="edge21_Node000019_Node000011" class="edge">
<title>Node19&#45;&gt;Node11</title>
<g id="a_edge21_Node000019_Node000011"><a xlink:title=" ">
<path fill="none" stroke="#63b8ff" d="M1261.05,-60.37C1267.11,-51.73 1276.59,-38.2 1284.14,-27.42"/>
<polygon fill="#63b8ff" stroke="#63b8ff" points="1287.05,-29.37 1289.93,-19.17 1281.32,-25.35 1287.05,-29.37"/>
</a>
</g>
</g>
<!-- Node20&#45;&gt;Node7 -->
<g id="edge23_Node000020_Node000007" class="edge">
<title>Node20&#45;&gt;Node7</title>
<g id="a_edge23_Node000020_Node000007"><a xlink:title=" ">
<path fill="none" stroke="#63b8ff" d="M644.01,-60.49C615.78,-50.49 568.72,-33.8 536.81,-22.49"/>
<polygon fill="#63b8ff" stroke="#63b8ff" points="537.62,-19.06 527.02,-19.02 535.28,-25.66 537.62,-19.06"/>
</a>
</g>
</g>
<!-- Node20&#45;&gt;Node13 -->
<g id="edge24_Node000020_Node000013" class="edge">
<title>Node20&#45;&gt;Node13</title>
<g id="a_edge24_Node000020_Node000013"><a xlink:title=" ">
<path fill="none" stroke="#63b8ff" d="M690.25,-60.49C716.31,-50.53 759.68,-33.95 789.27,-22.63"/>
<polygon fill="#63b8ff" stroke="#63b8ff" points="790.64,-25.86 798.73,-19.02 788.14,-19.32 790.64,-25.86"/>
</a>
</g>
</g>
<!-- Node21&#45;&gt;Node7 -->
<g id="edge28_Node000021_Node000007" class="edge">
<title>Node21&#45;&gt;Node7</title>
<g id="a_edge28_Node000021_Node000007"><a xlink:title=" ">
<path fill="none" stroke="#63b8ff" d="M384.26,-120.99C340.55,-107.88 292.79,-85.69 317,-55 334.81,-32.43 413.64,-20.03 462.79,-14.37"/>
<polygon fill="#63b8ff" stroke="#63b8ff" points="463.24,-17.84 472.79,-13.27 462.47,-10.89 463.24,-17.84"/>
</a>
</g>
</g>
<!-- Node21&#45;&gt;Node10 -->
<g id="edge26_Node000021_Node000010" class="edge">
<title>Node21&#45;&gt;Node10</title>
<g id="a_edge26_Node000021_Node000010"><a xlink:title=" ">
<path fill="none" stroke="#63b8ff" d="M509.68,-132.19C571.97,-127.66 667.19,-115.84 744,-85 765.96,-76.18 766.02,-63.77 788,-55 870.91,-21.91 977.3,-13.41 1029.77,-11.24"/>
<polygon fill="#63b8ff" stroke="#63b8ff" points="1029.96,-14.73 1039.83,-10.87 1029.71,-7.74 1029.96,-14.73"/>
</a>
</g>
</g>
<!-- Node21&#45;&gt;Node11 -->
<g id="edge27_Node000021_Node000011" class="edge">
<title>Node21&#45;&gt;Node11</title>
<g id="a_edge27_Node000021_Node000011"><a xlink:title=" ">
<path fill="none" stroke="#63b8ff" d="M509.6,-134.46C579.17,-131.81 691.08,-121.52 780,-85 800.89,-76.42 799.89,-63.01 821,-55 862.04,-39.43 1160.85,-19.13 1262.36,-12.61"/>
<polygon fill="#63b8ff" stroke="#63b8ff" points="1262.62,-16.1 1272.38,-11.97 1262.17,-9.12 1262.62,-16.1"/>
</a>
</g>
</g>
<!-- Node21&#45;&gt;Node14 -->
<g id="edge29_Node000021_Node000014" class="edge">
<title>Node21&#45;&gt;Node14</title>
<g id="a_edge29_Node000021_Node000014"><a xlink:title=" ">
<path fill="none" stroke="#63b8ff" d="M392.87,-120.95C350.48,-109.31 291.01,-92.98 251.77,-82.2"/>
<polygon fill="#63b8ff" stroke="#63b8ff" points="252.58,-78.79 242.01,-79.52 250.72,-85.54 252.58,-78.79"/>
</a>
</g>
</g>
<!-- Node22 -->
<g id="Node000022" class="node">
<title>Node22</title>
<g id="a_Node000022"><a xlink:href="bitLeftRotate_8hh.html" target="_top" xlink:title=" ">
<polygon fill="white" stroke="#666666" points="444,-85 326,-85 326,-55 444,-55 444,-85"/>
<text text-anchor="start" x="334" y="-73" font-family="Helvetica,sans-Serif" font-size="10.00">utils/ChainHashtable</text>
<text text-anchor="middle" x="385" y="-62" font-family="Helvetica,sans-Serif" font-size="10.00">/bitLeftRotate.hh</text>
</a>
</g>
</g>
<!-- Node21&#45;&gt;Node22 -->
<g id="edge30_Node000021_Node000022" class="edge">
<title>Node21&#45;&gt;Node22</title>
<g id="a_edge30_Node000021_Node000022"><a xlink:title=" ">
<path fill="none" stroke="#63b8ff" d="M430.91,-120.8C423.27,-112.51 413.48,-101.89 404.9,-92.59"/>
<polygon fill="#63b8ff" stroke="#63b8ff" points="407.41,-90.14 398.06,-85.16 402.26,-94.89 407.41,-90.14"/>
</a>
</g>
</g>
<!-- Node23 -->
<g id="Node000023" class="node">
<title>Node23</title>
<g id="a_Node000023"><a xlink:href="nextPrime_8hh.html" target="_top" xlink:title=" ">
<polygon fill="white" stroke="#666666" points="544,-79.5 462,-79.5 462,-60.5 544,-60.5 544,-79.5"/>
<text text-anchor="middle" x="503" y="-67.5" font-family="Helvetica,sans-Serif" font-size="10.00">nextPrime.hh</text>
</a>
</g>
</g>
<!-- Node21&#45;&gt;Node23 -->
<g id="edge32_Node000021_Node000023" class="edge">
<title>Node21&#45;&gt;Node23</title>
<g id="a_edge32_Node000021_Node000023"><a xlink:title=" ">
<path fill="none" stroke="#63b8ff" d="M457.09,-120.8C466.2,-110.92 478.37,-97.72 487.89,-87.39"/>
<polygon fill="#63b8ff" stroke="#63b8ff" points="490.64,-89.57 494.85,-79.84 485.5,-84.82 490.64,-89.57"/>
</a>
</g>
</g>
<!-- Node24 -->
<g id="Node000024" class="node">
<title>Node24</title>
<g id="a_Node000024"><a xlink:href="genericHashFunction_8hh.html" target="_top" xlink:title=" ">
<polygon fill="white" stroke="#666666" points="134,-79.5 0,-79.5 0,-60.5 134,-60.5 134,-79.5"/>
<text text-anchor="middle" x="67" y="-67.5" font-family="Helvetica,sans-Serif" font-size="10.00">genericHashFunction.hh</text>
</a>
</g>
</g>
<!-- Node21&#45;&gt;Node24 -->
<g id="edge34_Node000021_Node000024" class="edge">
<title>Node21&#45;&gt;Node24</title>
<g id="a_edge34_Node000021_Node000024"><a xlink:title=" ">
<path fill="none" stroke="#63b8ff" d="M378.47,-124.46C317.46,-114.56 224.01,-99.19 143,-85 136.43,-83.85 129.54,-82.62 122.72,-81.38"/>
<polygon fill="#63b8ff" stroke="#63b8ff" points="123.26,-77.92 112.79,-79.57 122,-84.81 123.26,-77.92"/>
</a>
</g>
</g>
<!-- Node22&#45;&gt;Node7 -->
<g id="edge31_Node000022_Node000007" class="edge">
<title>Node22&#45;&gt;Node7</title>
<g id="a_edge31_Node000022_Node000007"><a xlink:title=" ">
<path fill="none" stroke="#63b8ff" d="M413.26,-54.99C432.42,-45.49 457.58,-33.02 476.39,-23.69"/>
<polygon fill="#63b8ff" stroke="#63b8ff" points="478.17,-26.72 485.57,-19.14 475.06,-20.45 478.17,-26.72"/>
</a>
</g>
</g>
<!-- Node23&#45;&gt;Node7 -->
<g id="edge33_Node000023_Node000007" class="edge">
<title>Node23&#45;&gt;Node7</title>
<g id="a_edge33_Node000023_Node000007"><a xlink:title=" ">
<path fill="none" stroke="#63b8ff" d="M503,-60.37C503,-52.25 503,-39.81 503,-29.39"/>
<polygon fill="#63b8ff" stroke="#63b8ff" points="506.5,-29.17 503,-19.17 499.5,-29.17 506.5,-29.17"/>
</a>
</g>
</g>
<!-- Node25&#45;&gt;Node7 -->
<g id="edge37_Node000025_Node000007" class="edge">
<title>Node25&#45;&gt;Node7</title>
<g id="a_edge37_Node000025_Node000007"><a xlink:title=" ">
<path fill="none" stroke="#63b8ff" d="M1366.42,-60.79C1351.16,-58.64 1334.44,-56.5 1319,-55 1021.89,-26.15 661.96,-14.66 543.17,-11.49"/>
<polygon fill="#63b8ff" stroke="#63b8ff" points="543.17,-7.99 533.08,-11.22 542.98,-14.98 543.17,-7.99"/>
</a>
</g>
</g>
<!-- Node25&#45;&gt;Node11 -->
<g id="edge38_Node000025_Node000011" class="edge">
<title>Node25&#45;&gt;Node11</title>
<g id="a_edge38_Node000025_Node000011"><a xlink:title=" ">
<path fill="none" stroke="#63b8ff" d="M1401.11,-60.49C1380.62,-50.75 1346.81,-34.66 1323.08,-23.38"/>
<polygon fill="#63b8ff" stroke="#63b8ff" points="1324.44,-20.15 1313.91,-19.02 1321.43,-26.47 1324.44,-20.15"/>
</a>
</g>
</g>
<!-- Node26 -->
<g id="Node000026" class="node">
<title>Node26</title>
<g id="a_Node000026"><a xlink:title=" ">
<polygon fill="#e0e0e0" stroke="#999999" points="1451,-19 1387,-19 1387,0 1451,0 1451,-19"/>
<text text-anchor="middle" x="1419" y="-7" font-family="Helvetica,sans-Serif" font-size="10.00">algorithm</text>
</a>
</g>
</g>
<!-- Node25&#45;&gt;Node26 -->
<g id="edge36_Node000025_Node000026" class="edge">
<title>Node25&#45;&gt;Node26</title>
<g id="a_edge36_Node000025_Node000026"><a xlink:title=" ">
<path fill="none" stroke="#63b8ff" d="M1419,-60.37C1419,-52.25 1419,-39.81 1419,-29.39"/>
<polygon fill="#63b8ff" stroke="#63b8ff" points="1422.5,-29.17 1419,-19.17 1415.5,-29.17 1422.5,-29.17"/>
</a>
</g>
</g>
<!-- Node28 -->
<g id="Node000028" class="node">
<title>Node28</title>
<g id="a_Node000028"><a xlink:title=" ">
<polygon fill="#e0e0e0" stroke="#999999" points="1191.5,-206 1126.5,-206 1126.5,-187 1191.5,-187 1191.5,-206"/>
<text text-anchor="middle" x="1159" y="-194" font-family="Helvetica,sans-Serif" font-size="10.00">functional</text>
</a>
</g>
</g>
<!-- Node27&#45;&gt;Node28 -->
<g id="edge40_Node000027_Node000028" class="edge">
<title>Node27&#45;&gt;Node28</title>
<g id="a_edge40_Node000027_Node000028"><a xlink:title=" ">
<path fill="none" stroke="#63b8ff" d="M1189.89,-241.75C1184.72,-234.34 1177.15,-223.5 1170.81,-214.41"/>
<polygon fill="#63b8ff" stroke="#63b8ff" points="1173.59,-212.29 1165,-206.09 1167.85,-216.29 1173.59,-212.29"/>
</a>
</g>
</g>
<!-- Node29 -->
<g id="Node000029" class="node">
<title>Node29</title>
<g id="a_Node000029"><a xlink:title=" ">
<polygon fill="#e0e0e0" stroke="#999999" points="1256.5,-206 1209.5,-206 1209.5,-187 1256.5,-187 1256.5,-206"/>
<text text-anchor="middle" x="1233" y="-194" font-family="Helvetica,sans-Serif" font-size="10.00">cmath</text>
</a>
</g>
</g>
<!-- Node27&#45;&gt;Node29 -->
<g id="edge41_Node000027_Node000029" class="edge">
<title>Node27&#45;&gt;Node29</title>
<g id="a_edge41_Node000027_Node000029"><a xlink:title=" ">
<path fill="none" stroke="#63b8ff" d="M1202.11,-241.75C1207.28,-234.34 1214.85,-223.5 1221.19,-214.41"/>
<polygon fill="#63b8ff" stroke="#63b8ff" points="1224.15,-216.29 1227,-206.09 1218.41,-212.29 1224.15,-216.29"/>
</a>
</g>
</g>
<!-- Node30 -->
<g id="Node000030" class="node">
<title>Node30</title>
<g id="a_Node000030"><a xlink:title=" ">
<polygon fill="#e0e0e0" stroke="#999999" points="1319.5,-206 1274.5,-206 1274.5,-187 1319.5,-187 1319.5,-206"/>
<text text-anchor="middle" x="1297" y="-194" font-family="Helvetica,sans-Serif" font-size="10.00">utility</text>
</a>
</g>
</g>
<!-- Node27&#45;&gt;Node30 -->
<g id="edge42_Node000027_Node000030" class="edge">
<title>Node27&#45;&gt;Node30</title>
<g id="a_edge42_Node000027_Node000030"><a xlink:title=" ">
<path fill="none" stroke="#63b8ff" d="M1212.23,-241.98C1228.18,-233.61 1252.78,-220.7 1271.38,-210.95"/>
<polygon fill="#63b8ff" stroke="#63b8ff" points="1273.25,-213.92 1280.48,-206.17 1270,-207.72 1273.25,-213.92"/>
</a>
</g>
</g>
</g>
</svg>
