<?xml version="1.0" encoding="UTF-8" standalone="no"?>
<!DOCTYPE svg PUBLIC "-//W3C//DTD SVG 1.1//EN"
 "http://www.w3.org/Graphics/SVG/1.1/DTD/svg11.dtd">
<!-- Generated by graphviz version 2.43.0 (0)
 -->
<!-- Title: ematch_src/utils/sequence/readers/Blast8ResultReader.hh Pages: 1 -->
<svg width="1355pt" height="225pt"
 viewBox="0.00 0.00 1355.00 225.00" xmlns="http://www.w3.org/2000/svg" xmlns:xlink="http://www.w3.org/1999/xlink">
<g id="graph0" class="graph" transform="scale(1 1) rotate(0) translate(4 221)">
<title>ematch_src/utils/sequence/readers/Blast8ResultReader.hh</title>
<!-- Node1 -->
<g id="Node000001" class="node">
<title>Node1</title>
<g id="a_Node000001"><a xlink:title=" ">
<polygon fill="#999999" stroke="#666666" points="720,-217 550,-217 550,-187 720,-187 720,-217"/>
<text text-anchor="start" x="558" y="-205" font-family="Helvetica,sans-Serif" font-size="10.00">ematch_src/utils/sequence</text>
<text text-anchor="middle" x="635" y="-194" font-family="Helvetica,sans-Serif" font-size="10.00">/readers/Blast8ResultReader.hh</text>
</a>
</g>
</g>
<!-- Node2 -->
<g id="Node000002" class="node">
<title>Node2</title>
<g id="a_Node000002"><a xlink:href="ematch__src_2utils_2perlish_2perlish_8hh.html" target="_top" xlink:title=" ">
<polygon fill="white" stroke="#666666" points="1019.5,-145.5 894.5,-145.5 894.5,-126.5 1019.5,-126.5 1019.5,-145.5"/>
<text text-anchor="middle" x="957" y="-133.5" font-family="Helvetica,sans-Serif" font-size="10.00">utils/perlish/perlish.hh</text>
</a>
</g>
</g>
<!-- Node1&#45;&gt;Node2 -->
<g id="edge1_Node000001_Node000002" class="edge">
<title>Node1&#45;&gt;Node2</title>
<g id="a_edge1_Node000001_Node000002"><a xlink:title=" ">
<path fill="none" stroke="#63b8ff" d="M705.66,-186.95C765.49,-175.06 849.93,-158.28 904.07,-147.52"/>
<polygon fill="#63b8ff" stroke="#63b8ff" points="905.02,-150.9 914.15,-145.52 903.66,-144.03 905.02,-150.9"/>
</a>
</g>
</g>
<!-- Node18 -->
<g id="Node000018" class="node">
<title>Node18</title>
<g id="a_Node000018"><a xlink:href="StringKeyHashtable_8hh.html" target="_top" xlink:title=" ">
<polygon fill="white" stroke="#666666" points="497.5,-151 366.5,-151 366.5,-121 497.5,-121 497.5,-151"/>
<text text-anchor="start" x="374.5" y="-139" font-family="Helvetica,sans-Serif" font-size="10.00">utils/ChainHashtable</text>
<text text-anchor="middle" x="432" y="-128" font-family="Helvetica,sans-Serif" font-size="10.00">/StringKeyHashtable.hh</text>
</a>
</g>
</g>
<!-- Node1&#45;&gt;Node18 -->
<g id="edge22_Node000001_Node000018" class="edge">
<title>Node1&#45;&gt;Node18</title>
<g id="a_edge22_Node000001_Node000018"><a xlink:title=" ">
<path fill="none" stroke="#63b8ff" d="M590.45,-186.95C559.78,-177.28 518.84,-164.38 486.27,-154.11"/>
<polygon fill="#63b8ff" stroke="#63b8ff" points="487.03,-150.68 476.45,-151.01 484.93,-157.36 487.03,-150.68"/>
</a>
</g>
</g>
<!-- Node3 -->
<g id="Node000003" class="node">
<title>Node3</title>
<g id="a_Node000003"><a xlink:title=" ">
<polygon fill="#e0e0e0" stroke="#999999" points="956.5,-79.5 903.5,-79.5 903.5,-60.5 956.5,-60.5 956.5,-79.5"/>
<text text-anchor="middle" x="930" y="-67.5" font-family="Helvetica,sans-Serif" font-size="10.00">ctype.h</text>
</a>
</g>
</g>
<!-- Node2&#45;&gt;Node3 -->
<g id="edge2_Node000002_Node000003" class="edge">
<title>Node2&#45;&gt;Node3</title>
<g id="a_edge2_Node000002_Node000003"><a xlink:title=" ">
<path fill="none" stroke="#63b8ff" d="M953.36,-126.37C949.36,-116.88 942.81,-101.36 937.66,-89.16"/>
<polygon fill="#63b8ff" stroke="#63b8ff" points="940.87,-87.76 933.76,-79.91 934.42,-90.48 940.87,-87.76"/>
</a>
</g>
</g>
<!-- Node4 -->
<g id="Node000004" class="node">
<title>Node4</title>
<g id="a_Node000004"><a xlink:title=" ">
<polygon fill="#e0e0e0" stroke="#999999" points="343,-19 283,-19 283,0 343,0 343,-19"/>
<text text-anchor="middle" x="313" y="-7" font-family="Helvetica,sans-Serif" font-size="10.00">iostream</text>
</a>
</g>
</g>
<!-- Node2&#45;&gt;Node4 -->
<g id="edge3_Node000002_Node000004" class="edge">
<title>Node2&#45;&gt;Node4</title>
<g id="a_edge3_Node000002_Node000004"><a xlink:title=" ">
<path fill="none" stroke="#63b8ff" d="M894.09,-133.12C777.63,-128.93 533.17,-116.56 455,-85 435.05,-76.94 435.5,-65.99 417,-55 394.85,-41.83 368.08,-30.47 347.25,-22.53"/>
<polygon fill="#63b8ff" stroke="#63b8ff" points="348.43,-19.23 337.84,-19.01 345.99,-25.79 348.43,-19.23"/>
</a>
</g>
</g>
<!-- Node5 -->
<g id="Node000005" class="node">
<title>Node5</title>
<g id="a_Node000005"><a xlink:title=" ">
<polygon fill="#e0e0e0" stroke="#999999" points="1272.5,-79.5 1217.5,-79.5 1217.5,-60.5 1272.5,-60.5 1272.5,-79.5"/>
<text text-anchor="middle" x="1245" y="-67.5" font-family="Helvetica,sans-Serif" font-size="10.00">fstream</text>
</a>
</g>
</g>
<!-- Node2&#45;&gt;Node5 -->
<g id="edge4_Node000002_Node000005" class="edge">
<title>Node2&#45;&gt;Node5</title>
<g id="a_edge4_Node000002_Node000005"><a xlink:title=" ">
<path fill="none" stroke="#63b8ff" d="M1008.3,-126.44C1058.36,-117.66 1136.48,-102.78 1203,-85 1205.78,-84.26 1208.65,-83.43 1211.53,-82.56"/>
<polygon fill="#63b8ff" stroke="#63b8ff" points="1212.69,-85.86 1221.16,-79.5 1210.57,-79.19 1212.69,-85.86"/>
</a>
</g>
</g>
<!-- Node6 -->
<g id="Node000006" class="node">
<title>Node6</title>
<g id="a_Node000006"><a xlink:title=" ">
<polygon fill="#e0e0e0" stroke="#999999" points="1347,-79.5 1291,-79.5 1291,-60.5 1347,-60.5 1347,-79.5"/>
<text text-anchor="middle" x="1319" y="-67.5" font-family="Helvetica,sans-Serif" font-size="10.00">sstream</text>
</a>
</g>
</g>
<!-- Node2&#45;&gt;Node6 -->
<g id="edge5_Node000002_Node000006" class="edge">
<title>Node2&#45;&gt;Node6</title>
<g id="a_edge5_Node000002_Node000006"><a xlink:title=" ">
<path fill="none" stroke="#63b8ff" d="M1019.79,-129.27C1085.84,-122.34 1192.42,-108.56 1282,-85 1284.3,-84.4 1286.65,-83.7 1289,-82.95"/>
<polygon fill="#63b8ff" stroke="#63b8ff" points="1290.22,-86.23 1298.51,-79.63 1287.91,-79.62 1290.22,-86.23"/>
</a>
</g>
</g>
<!-- Node7 -->
<g id="Node000007" class="node">
<title>Node7</title>
<g id="a_Node000007"><a xlink:title=" ">
<polygon fill="#e0e0e0" stroke="#999999" points="1045,-19 1001,-19 1001,0 1045,0 1045,-19"/>
<text text-anchor="middle" x="1023" y="-7" font-family="Helvetica,sans-Serif" font-size="10.00">string</text>
</a>
</g>
</g>
<!-- Node2&#45;&gt;Node7 -->
<g id="edge6_Node000002_Node000007" class="edge">
<title>Node2&#45;&gt;Node7</title>
<g id="a_edge6_Node000002_Node000007"><a xlink:title=" ">
<path fill="none" stroke="#63b8ff" d="M966.23,-126.23C975.65,-116.83 990.11,-101.07 999,-85 1008.84,-67.2 1015.38,-44.75 1019.11,-29.17"/>
<polygon fill="#63b8ff" stroke="#63b8ff" points="1022.57,-29.73 1021.34,-19.2 1015.74,-28.2 1022.57,-29.73"/>
</a>
</g>
</g>
<!-- Node8 -->
<g id="Node000008" class="node">
<title>Node8</title>
<g id="a_Node000008"><a xlink:title=" ">
<polygon fill="#e0e0e0" stroke="#999999" points="1129.5,-19 1082.5,-19 1082.5,0 1129.5,0 1129.5,-19"/>
<text text-anchor="middle" x="1106" y="-7" font-family="Helvetica,sans-Serif" font-size="10.00">vector</text>
</a>
</g>
</g>
<!-- Node2&#45;&gt;Node8 -->
<g id="edge7_Node000002_Node000008" class="edge">
<title>Node2&#45;&gt;Node8</title>
<g id="a_edge7_Node000002_Node000008"><a xlink:title=" ">
<path fill="none" stroke="#63b8ff" d="M1019.62,-128.84C1075.56,-121.88 1151.48,-108.37 1170,-85 1178.28,-74.55 1176.18,-66.82 1170,-55 1162.89,-41.39 1149.51,-31.1 1136.81,-23.87"/>
<polygon fill="#63b8ff" stroke="#63b8ff" points="1138.27,-20.68 1127.79,-19.13 1135.02,-26.88 1138.27,-20.68"/>
</a>
</g>
</g>
<!-- Node9 -->
<g id="Node000009" class="node">
<title>Node9</title>
<g id="a_Node000009"><a xlink:title=" ">
<polygon fill="#e0e0e0" stroke="#999999" points="885,-79.5 829,-79.5 829,-60.5 885,-60.5 885,-79.5"/>
<text text-anchor="middle" x="857" y="-67.5" font-family="Helvetica,sans-Serif" font-size="10.00">assert.h</text>
</a>
</g>
</g>
<!-- Node2&#45;&gt;Node9 -->
<g id="edge8_Node000002_Node000009" class="edge">
<title>Node2&#45;&gt;Node9</title>
<g id="a_edge8_Node000002_Node000009"><a xlink:title=" ">
<path fill="none" stroke="#63b8ff" d="M943.51,-126.37C927.04,-115.82 898.93,-97.84 879.24,-85.23"/>
<polygon fill="#63b8ff" stroke="#63b8ff" points="880.9,-82.14 870.59,-79.7 877.13,-88.04 880.9,-82.14"/>
</a>
</g>
</g>
<!-- Node10 -->
<g id="Node000010" class="node">
<title>Node10</title>
<g id="a_Node000010"><a xlink:title=" ">
<polygon fill="#e0e0e0" stroke="#999999" points="856.5,-19 761.5,-19 761.5,0 856.5,0 856.5,-19"/>
<text text-anchor="middle" x="809" y="-7" font-family="Helvetica,sans-Serif" font-size="10.00">boost/regex.hpp</text>
</a>
</g>
</g>
<!-- Node2&#45;&gt;Node10 -->
<g id="edge9_Node000002_Node000010" class="edge">
<title>Node2&#45;&gt;Node10</title>
<g id="a_edge9_Node000002_Node000010"><a xlink:title=" ">
<path fill="none" stroke="#63b8ff" d="M961.56,-126.27C969.16,-110.35 982.1,-76.3 966,-55 953.79,-38.85 906.3,-26.87 866.72,-19.43"/>
<polygon fill="#63b8ff" stroke="#63b8ff" points="867.31,-15.98 856.85,-17.64 866.06,-22.87 867.31,-15.98"/>
</a>
</g>
</g>
<!-- Node11 -->
<g id="Node000011" class="node">
<title>Node11</title>
<g id="a_Node000011"><a xlink:href="ematch__src_2utils_2gdb_2gdbUtils_8hh.html" target="_top" xlink:title=" ">
<polygon fill="white" stroke="#666666" points="581.5,-79.5 464.5,-79.5 464.5,-60.5 581.5,-60.5 581.5,-79.5"/>
<text text-anchor="middle" x="523" y="-67.5" font-family="Helvetica,sans-Serif" font-size="10.00">utils/gdb/gdbUtils.hh</text>
</a>
</g>
</g>
<!-- Node2&#45;&gt;Node11 -->
<g id="edge10_Node000002_Node000011" class="edge">
<title>Node2&#45;&gt;Node11</title>
<g id="a_edge10_Node000002_Node000011"><a xlink:title=" ">
<path fill="none" stroke="#63b8ff" d="M894.46,-127.84C821.25,-119.15 696.46,-103.35 590,-85 584.07,-83.98 577.87,-82.81 571.73,-81.6"/>
<polygon fill="#63b8ff" stroke="#63b8ff" points="572.02,-78.09 561.53,-79.54 570.64,-84.95 572.02,-78.09"/>
</a>
</g>
</g>
<!-- Node16 -->
<g id="Node000016" class="node">
<title>Node16</title>
<g id="a_Node000016"><a xlink:href="ematch__src_2utils_2stl_2stlTypes_8hh.html" target="_top" xlink:title=" ">
<polygon fill="white" stroke="#666666" points="1161,-79.5 1051,-79.5 1051,-60.5 1161,-60.5 1161,-79.5"/>
<text text-anchor="middle" x="1106" y="-67.5" font-family="Helvetica,sans-Serif" font-size="10.00">utils/stl/stlTypes.hh</text>
</a>
</g>
</g>
<!-- Node2&#45;&gt;Node16 -->
<g id="edge16_Node000002_Node000016" class="edge">
<title>Node2&#45;&gt;Node16</title>
<g id="a_edge16_Node000002_Node000016"><a xlink:title=" ">
<path fill="none" stroke="#63b8ff" d="M977.09,-126.37C1002.64,-115.39 1046.96,-96.36 1076.39,-83.72"/>
<polygon fill="#63b8ff" stroke="#63b8ff" points="1077.94,-86.86 1085.75,-79.7 1075.18,-80.43 1077.94,-86.86"/>
</a>
</g>
</g>
<!-- Node17 -->
<g id="Node000017" class="node">
<title>Node17</title>
<g id="a_Node000017"><a xlink:href="ematch__src_2utils_2boost_2boostUtils_8hh.html" target="_top" xlink:title=" ">
<polygon fill="white" stroke="#666666" points="734.5,-79.5 599.5,-79.5 599.5,-60.5 734.5,-60.5 734.5,-79.5"/>
<text text-anchor="middle" x="667" y="-67.5" font-family="Helvetica,sans-Serif" font-size="10.00">utils/boost/boostUtils.hh</text>
</a>
</g>
</g>
<!-- Node2&#45;&gt;Node17 -->
<g id="edge19_Node000002_Node000017" class="edge">
<title>Node2&#45;&gt;Node17</title>
<g id="a_edge19_Node000002_Node000017"><a xlink:title=" ">
<path fill="none" stroke="#63b8ff" d="M918.19,-126.44C865.77,-114.87 772.38,-94.26 715.43,-81.69"/>
<polygon fill="#63b8ff" stroke="#63b8ff" points="716.1,-78.25 705.58,-79.51 714.59,-85.09 716.1,-78.25"/>
</a>
</g>
</g>
<!-- Node11&#45;&gt;Node4 -->
<g id="edge12_Node000011_Node000004" class="edge">
<title>Node11&#45;&gt;Node4</title>
<g id="a_edge12_Node000011_Node000004"><a xlink:title=" ">
<path fill="none" stroke="#63b8ff" d="M492.46,-60.49C455.66,-50.24 393.69,-32.98 353.07,-21.66"/>
<polygon fill="#63b8ff" stroke="#63b8ff" points="353.8,-18.23 343.23,-18.92 351.93,-24.98 353.8,-18.23"/>
</a>
</g>
</g>
<!-- Node12 -->
<g id="Node000012" class="node">
<title>Node12</title>
<g id="a_Node000012"><a xlink:title=" ">
<polygon fill="#e0e0e0" stroke="#999999" points="447.5,-19 394.5,-19 394.5,0 447.5,0 447.5,-19"/>
<text text-anchor="middle" x="421" y="-7" font-family="Helvetica,sans-Serif" font-size="10.00">cstdarg</text>
</a>
</g>
</g>
<!-- Node11&#45;&gt;Node12 -->
<g id="edge11_Node000011_Node000012" class="edge">
<title>Node11&#45;&gt;Node12</title>
<g id="a_edge11_Node000011_Node000012"><a xlink:title=" ">
<path fill="none" stroke="#63b8ff" d="M507.95,-60.37C491.38,-50.86 464.5,-35.45 445.01,-24.27"/>
<polygon fill="#63b8ff" stroke="#63b8ff" points="446.53,-21.11 436.11,-19.17 443.05,-27.18 446.53,-21.11"/>
</a>
</g>
</g>
<!-- Node13 -->
<g id="Node000013" class="node">
<title>Node13</title>
<g id="a_Node000013"><a xlink:title=" ">
<polygon fill="#e0e0e0" stroke="#999999" points="514.5,-19 465.5,-19 465.5,0 514.5,0 514.5,-19"/>
<text text-anchor="middle" x="490" y="-7" font-family="Helvetica,sans-Serif" font-size="10.00">cstdlib</text>
</a>
</g>
</g>
<!-- Node11&#45;&gt;Node13 -->
<g id="edge13_Node000011_Node000013" class="edge">
<title>Node11&#45;&gt;Node13</title>
<g id="a_edge13_Node000011_Node000013"><a xlink:title=" ">
<path fill="none" stroke="#63b8ff" d="M518.13,-60.37C513.35,-51.9 505.93,-38.74 499.91,-28.07"/>
<polygon fill="#63b8ff" stroke="#63b8ff" points="502.85,-26.16 494.89,-19.17 496.75,-29.6 502.85,-26.16"/>
</a>
</g>
</g>
<!-- Node14 -->
<g id="Node000014" class="node">
<title>Node14</title>
<g id="a_Node000014"><a xlink:title=" ">
<polygon fill="#e0e0e0" stroke="#999999" points="579,-19 533,-19 533,0 579,0 579,-19"/>
<text text-anchor="middle" x="556" y="-7" font-family="Helvetica,sans-Serif" font-size="10.00">cstdio</text>
</a>
</g>
</g>
<!-- Node11&#45;&gt;Node14 -->
<g id="edge14_Node000011_Node000014" class="edge">
<title>Node11&#45;&gt;Node14</title>
<g id="a_edge14_Node000011_Node000014"><a xlink:title=" ">
<path fill="none" stroke="#63b8ff" d="M527.87,-60.37C532.65,-51.9 540.07,-38.74 546.09,-28.07"/>
<polygon fill="#63b8ff" stroke="#63b8ff" points="549.25,-29.6 551.11,-19.17 543.15,-26.16 549.25,-29.6"/>
</a>
</g>
</g>
<!-- Node15 -->
<g id="Node000015" class="node">
<title>Node15</title>
<g id="a_Node000015"><a xlink:title=" ">
<polygon fill="#e0e0e0" stroke="#999999" points="649,-19 597,-19 597,0 649,0 649,-19"/>
<text text-anchor="middle" x="623" y="-7" font-family="Helvetica,sans-Serif" font-size="10.00">cassert</text>
</a>
</g>
</g>
<!-- Node11&#45;&gt;Node15 -->
<g id="edge15_Node000011_Node000015" class="edge">
<title>Node11&#45;&gt;Node15</title>
<g id="a_edge15_Node000011_Node000015"><a xlink:title=" ">
<path fill="none" stroke="#63b8ff" d="M537.76,-60.37C554,-50.86 580.35,-35.45 599.46,-24.27"/>
<polygon fill="#63b8ff" stroke="#63b8ff" points="601.32,-27.24 608.18,-19.17 597.79,-21.2 601.32,-27.24"/>
</a>
</g>
</g>
<!-- Node16&#45;&gt;Node7 -->
<g id="edge17_Node000016_Node000007" class="edge">
<title>Node16&#45;&gt;Node7</title>
<g id="a_edge17_Node000016_Node000007"><a xlink:title=" ">
<path fill="none" stroke="#63b8ff" d="M1093.75,-60.37C1080.64,-51.12 1059.58,-36.28 1043.85,-25.19"/>
<polygon fill="#63b8ff" stroke="#63b8ff" points="1045.49,-22.07 1035.3,-19.17 1041.45,-27.79 1045.49,-22.07"/>
</a>
</g>
</g>
<!-- Node16&#45;&gt;Node8 -->
<g id="edge18_Node000016_Node000008" class="edge">
<title>Node16&#45;&gt;Node8</title>
<g id="a_edge18_Node000016_Node000008"><a xlink:title=" ">
<path fill="none" stroke="#63b8ff" d="M1106,-60.37C1106,-52.25 1106,-39.81 1106,-29.39"/>
<polygon fill="#63b8ff" stroke="#63b8ff" points="1109.5,-29.17 1106,-19.17 1102.5,-29.17 1109.5,-29.17"/>
</a>
</g>
</g>
<!-- Node17&#45;&gt;Node4 -->
<g id="edge20_Node000017_Node000004" class="edge">
<title>Node17&#45;&gt;Node4</title>
<g id="a_edge20_Node000017_Node000004"><a xlink:title=" ">
<path fill="none" stroke="#63b8ff" d="M621.02,-60.48C610.81,-58.63 600.04,-56.72 590,-55 506.06,-40.63 407.57,-25.13 353.56,-16.75"/>
<polygon fill="#63b8ff" stroke="#63b8ff" points="353.78,-13.24 343.37,-15.17 352.71,-20.16 353.78,-13.24"/>
</a>
</g>
</g>
<!-- Node17&#45;&gt;Node10 -->
<g id="edge21_Node000017_Node000010" class="edge">
<title>Node17&#45;&gt;Node10</title>
<g id="a_edge21_Node000017_Node000010"><a xlink:title=" ">
<path fill="none" stroke="#63b8ff" d="M687.65,-60.49C711.63,-50.62 751.39,-34.23 778.83,-22.93"/>
<polygon fill="#63b8ff" stroke="#63b8ff" points="780.41,-26.06 788.33,-19.02 777.75,-19.59 780.41,-26.06"/>
</a>
</g>
</g>
<!-- Node18&#45;&gt;Node4 -->
<g id="edge25_Node000018_Node000004" class="edge">
<title>Node18&#45;&gt;Node4</title>
<g id="a_edge25_Node000018_Node000004"><a xlink:title=" ">
<path fill="none" stroke="#63b8ff" d="M366.27,-133.36C330.21,-128.67 288.22,-116.19 265,-85 250.11,-65 273.3,-40.48 292.33,-25.16"/>
<polygon fill="#63b8ff" stroke="#63b8ff" points="294.55,-27.87 300.36,-19.02 290.29,-22.31 294.55,-27.87"/>
</a>
</g>
</g>
<!-- Node18&#45;&gt;Node7 -->
<g id="edge23_Node000018_Node000007" class="edge">
<title>Node18&#45;&gt;Node7</title>
<g id="a_edge23_Node000018_Node000007"><a xlink:title=" ">
<path fill="none" stroke="#63b8ff" d="M497.62,-132.74C562.13,-128.63 662.34,-117.11 743,-85 764.99,-76.24 765.13,-64.05 787,-55 856.16,-26.38 944.37,-16.02 990.91,-12.38"/>
<polygon fill="#63b8ff" stroke="#63b8ff" points="991.28,-15.86 1001,-11.65 990.77,-8.88 991.28,-15.86"/>
</a>
</g>
</g>
<!-- Node18&#45;&gt;Node8 -->
<g id="edge24_Node000018_Node000008" class="edge">
<title>Node18&#45;&gt;Node8</title>
<g id="a_edge24_Node000018_Node000008"><a xlink:title=" ">
<path fill="none" stroke="#63b8ff" d="M497.77,-134.9C569.45,-132.68 686.3,-122.82 779,-85 799.91,-76.47 799.13,-63.63 820,-55 917.24,-14.78 950.08,-35.49 1054,-19 1059.96,-18.05 1066.3,-17.03 1072.44,-16.03"/>
<polygon fill="#63b8ff" stroke="#63b8ff" points="1073.15,-19.46 1082.45,-14.4 1072.02,-12.56 1073.15,-19.46"/>
</a>
</g>
</g>
<!-- Node18&#45;&gt;Node11 -->
<g id="edge26_Node000018_Node000011" class="edge">
<title>Node18&#45;&gt;Node11</title>
<g id="a_edge26_Node000018_Node000011"><a xlink:title=" ">
<path fill="none" stroke="#63b8ff" d="M452.2,-120.8C467.03,-110.37 487.11,-96.24 502.11,-85.69"/>
<polygon fill="#63b8ff" stroke="#63b8ff" points="504.52,-88.27 510.69,-79.66 500.5,-82.55 504.52,-88.27"/>
</a>
</g>
</g>
<!-- Node19 -->
<g id="Node000019" class="node">
<title>Node19</title>
<g id="a_Node000019"><a xlink:href="bitLeftRotate_8hh.html" target="_top" xlink:title=" ">
<polygon fill="white" stroke="#666666" points="118,-85 0,-85 0,-55 118,-55 118,-85"/>
<text text-anchor="start" x="8" y="-73" font-family="Helvetica,sans-Serif" font-size="10.00">utils/ChainHashtable</text>
<text text-anchor="middle" x="59" y="-62" font-family="Helvetica,sans-Serif" font-size="10.00">/bitLeftRotate.hh</text>
</a>
</g>
</g>
<!-- Node18&#45;&gt;Node19 -->
<g id="edge27_Node000018_Node000019" class="edge">
<title>Node18&#45;&gt;Node19</title>
<g id="a_edge27_Node000018_Node000019"><a xlink:title=" ">
<path fill="none" stroke="#63b8ff" d="M366.42,-125.04C306.8,-115.8 216.15,-101.31 128.19,-85.18"/>
<polygon fill="#63b8ff" stroke="#63b8ff" points="128.78,-81.73 118.31,-83.36 127.51,-88.61 128.78,-81.73"/>
</a>
</g>
</g>
<!-- Node20 -->
<g id="Node000020" class="node">
<title>Node20</title>
<g id="a_Node000020"><a xlink:href="nextPrime_8hh.html" target="_top" xlink:title=" ">
<polygon fill="white" stroke="#666666" points="218,-79.5 136,-79.5 136,-60.5 218,-60.5 218,-79.5"/>
<text text-anchor="middle" x="177" y="-67.5" font-family="Helvetica,sans-Serif" font-size="10.00">nextPrime.hh</text>
</a>
</g>
</g>
<!-- Node18&#45;&gt;Node20 -->
<g id="edge29_Node000018_Node000020" class="edge">
<title>Node18&#45;&gt;Node20</title>
<g id="a_edge29_Node000018_Node000020"><a xlink:title=" ">
<path fill="none" stroke="#63b8ff" d="M375.52,-120.95C335.45,-110.96 280.41,-97.21 232,-85 228.19,-84.04 224.22,-83.04 220.25,-82.03"/>
<polygon fill="#63b8ff" stroke="#63b8ff" points="221,-78.61 210.44,-79.54 219.27,-85.39 221,-78.61"/>
</a>
</g>
</g>
<!-- Node21 -->
<g id="Node000021" class="node">
<title>Node21</title>
<g id="a_Node000021"><a xlink:href="genericHashFunction_8hh.html" target="_top" xlink:title=" ">
<polygon fill="white" stroke="#666666" points="408,-79.5 274,-79.5 274,-60.5 408,-60.5 408,-79.5"/>
<text text-anchor="middle" x="341" y="-67.5" font-family="Helvetica,sans-Serif" font-size="10.00">genericHashFunction.hh</text>
</a>
</g>
</g>
<!-- Node18&#45;&gt;Node21 -->
<g id="edge31_Node000018_Node000021" class="edge">
<title>Node18&#45;&gt;Node21</title>
<g id="a_edge31_Node000018_Node000021"><a xlink:title=" ">
<path fill="none" stroke="#63b8ff" d="M411.8,-120.8C396.97,-110.37 376.89,-96.24 361.89,-85.69"/>
<polygon fill="#63b8ff" stroke="#63b8ff" points="363.5,-82.55 353.31,-79.66 359.48,-88.27 363.5,-82.55"/>
</a>
</g>
</g>
<!-- Node19&#45;&gt;Node4 -->
<g id="edge28_Node000019_Node000004" class="edge">
<title>Node19&#45;&gt;Node4</title>
<g id="a_edge28_Node000019_Node000004"><a xlink:title=" ">
<path fill="none" stroke="#63b8ff" d="M118.23,-55.36C165.9,-44.38 231.59,-29.25 273.17,-19.67"/>
<polygon fill="#63b8ff" stroke="#63b8ff" points="273.98,-23.08 282.94,-17.42 272.41,-16.26 273.98,-23.08"/>
</a>
</g>
</g>
<!-- Node20&#45;&gt;Node4 -->
<g id="edge30_Node000020_Node000004" class="edge">
<title>Node20&#45;&gt;Node4</title>
<g id="a_edge30_Node000020_Node000004"><a xlink:title=" ">
<path fill="none" stroke="#63b8ff" d="M196.78,-60.49C219.64,-50.66 257.49,-34.38 283.76,-23.08"/>
<polygon fill="#63b8ff" stroke="#63b8ff" points="285.4,-26.18 293.2,-19.02 282.63,-19.75 285.4,-26.18"/>
</a>
</g>
</g>
</g>
</svg>
