<?xml version="1.0" encoding="UTF-8" standalone="no"?>
<!DOCTYPE svg PUBLIC "-//W3C//DTD SVG 1.1//EN"
 "http://www.w3.org/Graphics/SVG/1.1/DTD/svg11.dtd">
<!-- Generated by graphviz version 2.43.0 (0)
 -->
<!-- Title: ematch_src/utils/math/combinatorics/permutations/run/calculateRankCorrelationSignificance.cc Pages: 1 -->
<svg width="1306pt" height="379pt"
 viewBox="0.00 0.00 1306.00 379.00" xmlns="http://www.w3.org/2000/svg" xmlns:xlink="http://www.w3.org/1999/xlink">
<g id="graph0" class="graph" transform="scale(1 1) rotate(0) translate(4 375)">
<title>ematch_src/utils/math/combinatorics/permutations/run/calculateRankCorrelationSignificance.cc</title>
<!-- Node1 -->
<g id="Node000001" class="node">
<title>Node1</title>
<g id="a_Node000001"><a xlink:title=" ">
<polygon fill="#999999" stroke="#666666" points="895.5,-371 662.5,-371 662.5,-330 895.5,-330 895.5,-371"/>
<text text-anchor="start" x="670.5" y="-359" font-family="Helvetica,sans-Serif" font-size="10.00">ematch_src/utils/math</text>
<text text-anchor="start" x="670.5" y="-348" font-family="Helvetica,sans-Serif" font-size="10.00">/combinatorics/permutations</text>
<text text-anchor="middle" x="779" y="-337" font-family="Helvetica,sans-Serif" font-size="10.00">/run/calculateRankCorrelationSignificance.cc</text>
</a>
</g>
</g>
<!-- Node2 -->
<g id="Node000002" class="node">
<title>Node2</title>
<g id="a_Node000002"><a xlink:title=" ">
<polygon fill="#e0e0e0" stroke="#999999" points="979,-19 919,-19 919,0 979,0 979,-19"/>
<text text-anchor="middle" x="949" y="-7" font-family="Helvetica,sans-Serif" font-size="10.00">iostream</text>
</a>
</g>
</g>
<!-- Node1&#45;&gt;Node2 -->
<g id="edge1_Node000001_Node000002" class="edge">
<title>Node1&#45;&gt;Node2</title>
<g id="a_edge1_Node000001_Node000002"><a xlink:title=" ">
<path fill="none" stroke="#63b8ff" d="M882.75,-329.93C972.52,-309.94 1088,-275.48 1088,-230.5 1088,-230.5 1088,-230.5 1088,-118.5 1088,-89.04 1089.15,-76.49 1069,-55 1048.13,-32.75 1015.14,-21.57 989.02,-15.98"/>
<polygon fill="#63b8ff" stroke="#63b8ff" points="989.52,-12.51 979.03,-14.04 988.18,-19.38 989.52,-12.51"/>
</a>
</g>
</g>
<!-- Node3 -->
<g id="Node000003" class="node">
<title>Node3</title>
<g id="a_Node000003"><a xlink:href="ematch__src_2utils_2argvParsing_2ArgvParser_8hh.html" target="_top" xlink:title=" ">
<polygon fill="white" stroke="#666666" points="455.5,-129 288.5,-129 288.5,-110 455.5,-110 455.5,-129"/>
<text text-anchor="middle" x="372" y="-117" font-family="Helvetica,sans-Serif" font-size="10.00">utils/argvParsing/ArgvParser.hh</text>
</a>
</g>
</g>
<!-- Node1&#45;&gt;Node3 -->
<g id="edge2_Node000001_Node000003" class="edge">
<title>Node1&#45;&gt;Node3</title>
<g id="a_edge2_Node000001_Node000003"><a xlink:title=" ">
<path fill="none" stroke="#63b8ff" d="M744.3,-329.98C663.7,-284.63 465.44,-173.07 396.27,-134.16"/>
<polygon fill="#63b8ff" stroke="#63b8ff" points="397.83,-131.02 387.4,-129.16 394.4,-137.12 397.83,-131.02"/>
</a>
</g>
</g>
<!-- Node17 -->
<g id="Node000017" class="node">
<title>Node17</title>
<g id="a_Node000017"><a xlink:href="TrivialHistogram_8hh.html" target="_top" xlink:title=" ">
<polygon fill="white" stroke="#666666" points="802,-239 614,-239 614,-220 802,-220 802,-239"/>
<text text-anchor="middle" x="708" y="-227" font-family="Helvetica,sans-Serif" font-size="10.00">utils/histogram/TrivialHistogram.hh</text>
</a>
</g>
</g>
<!-- Node1&#45;&gt;Node17 -->
<g id="edge19_Node000001_Node000017" class="edge">
<title>Node1&#45;&gt;Node17</title>
<g id="a_edge19_Node000001_Node000017"><a xlink:title=" ">
<path fill="none" stroke="#63b8ff" d="M767.27,-329.85C753.68,-307.07 731.48,-269.85 718.45,-248.02"/>
<polygon fill="#63b8ff" stroke="#63b8ff" points="721.3,-245.97 713.17,-239.18 715.29,-249.56 721.3,-245.97"/>
</a>
</g>
</g>
<!-- Node25 -->
<g id="Node000025" class="node">
<title>Node25</title>
<g id="a_Node000025"><a xlink:href="PermutationGenerator_8hh.html" target="_top" xlink:title=" ">
<polygon fill="white" stroke="#666666" points="904.5,-294 755.5,-294 755.5,-275 904.5,-275 904.5,-294"/>
<text text-anchor="middle" x="830" y="-282" font-family="Helvetica,sans-Serif" font-size="10.00">../PermutationGenerator.hh</text>
</a>
</g>
</g>
<!-- Node1&#45;&gt;Node25 -->
<g id="edge41_Node000001_Node000025" class="edge">
<title>Node1&#45;&gt;Node25</title>
<g id="a_edge41_Node000001_Node000025"><a xlink:title=" ">
<path fill="none" stroke="#63b8ff" d="M794.58,-329.95C801.62,-321.11 809.86,-310.77 816.62,-302.29"/>
<polygon fill="#63b8ff" stroke="#63b8ff" points="819.52,-304.26 823.02,-294.26 814.05,-299.9 819.52,-304.26"/>
</a>
</g>
</g>
<!-- Node3&#45;&gt;Node2 -->
<g id="edge3_Node000003_Node000002" class="edge">
<title>Node3&#45;&gt;Node2</title>
<g id="a_edge3_Node000003_Node000002"><a xlink:title=" ">
<path fill="none" stroke="#63b8ff" d="M377.3,-109.6C386.43,-95.23 406.59,-67.27 432,-55 474.53,-34.47 794.29,-17.71 908.56,-12.32"/>
<polygon fill="#63b8ff" stroke="#63b8ff" points="908.82,-15.82 918.65,-11.85 908.49,-8.82 908.82,-15.82"/>
</a>
</g>
</g>
<!-- Node4 -->
<g id="Node000004" class="node">
<title>Node4</title>
<g id="a_Node000004"><a xlink:title=" ">
<polygon fill="#e0e0e0" stroke="#999999" points="257,-74 201,-74 201,-55 257,-55 257,-74"/>
<text text-anchor="middle" x="229" y="-62" font-family="Helvetica,sans-Serif" font-size="10.00">unistd.h</text>
</a>
</g>
</g>
<!-- Node3&#45;&gt;Node4 -->
<g id="edge4_Node000003_Node000004" class="edge">
<title>Node3&#45;&gt;Node4</title>
<g id="a_edge4_Node000003_Node000004"><a xlink:title=" ">
<path fill="none" stroke="#63b8ff" d="M349.02,-109.98C325.5,-101.27 288.71,-87.63 262.06,-77.75"/>
<polygon fill="#63b8ff" stroke="#63b8ff" points="262.98,-74.36 252.39,-74.17 260.55,-80.93 262.98,-74.36"/>
</a>
</g>
</g>
<!-- Node5 -->
<g id="Node000005" class="node">
<title>Node5</title>
<g id="a_Node000005"><a xlink:title=" ">
<polygon fill="#e0e0e0" stroke="#999999" points="145,-74 95,-74 95,-55 145,-55 145,-74"/>
<text text-anchor="middle" x="120" y="-62" font-family="Helvetica,sans-Serif" font-size="10.00">cstring</text>
</a>
</g>
</g>
<!-- Node3&#45;&gt;Node5 -->
<g id="edge5_Node000003_Node000005" class="edge">
<title>Node3&#45;&gt;Node5</title>
<g id="a_edge5_Node000003_Node000005"><a xlink:title=" ">
<path fill="none" stroke="#63b8ff" d="M330.74,-109.99C287.82,-101.11 218.66,-86.73 159,-74 157.74,-73.73 156.46,-73.46 155.17,-73.18"/>
<polygon fill="#63b8ff" stroke="#63b8ff" points="155.68,-69.71 145.17,-71.02 154.2,-76.55 155.68,-69.71"/>
</a>
</g>
</g>
<!-- Node6 -->
<g id="Node000006" class="node">
<title>Node6</title>
<g id="a_Node000006"><a xlink:title=" ">
<polygon fill="#e0e0e0" stroke="#999999" points="496.5,-74 441.5,-74 441.5,-55 496.5,-55 496.5,-74"/>
<text text-anchor="middle" x="469" y="-62" font-family="Helvetica,sans-Serif" font-size="10.00">fstream</text>
</a>
</g>
</g>
<!-- Node3&#45;&gt;Node6 -->
<g id="edge6_Node000003_Node000006" class="edge">
<title>Node3&#45;&gt;Node6</title>
<g id="a_edge6_Node000003_Node000006"><a xlink:title=" ">
<path fill="none" stroke="#63b8ff" d="M387.58,-109.98C402.77,-101.69 426.1,-88.94 443.9,-79.22"/>
<polygon fill="#63b8ff" stroke="#63b8ff" points="446.03,-82.04 453.13,-74.17 442.68,-75.89 446.03,-82.04"/>
</a>
</g>
</g>
<!-- Node7 -->
<g id="Node000007" class="node">
<title>Node7</title>
<g id="a_Node000007"><a xlink:title=" ">
<polygon fill="#e0e0e0" stroke="#999999" points="571,-74 515,-74 515,-55 571,-55 571,-74"/>
<text text-anchor="middle" x="543" y="-62" font-family="Helvetica,sans-Serif" font-size="10.00">sstream</text>
</a>
</g>
</g>
<!-- Node3&#45;&gt;Node7 -->
<g id="edge7_Node000003_Node000007" class="edge">
<title>Node3&#45;&gt;Node7</title>
<g id="a_edge7_Node000003_Node000007"><a xlink:title=" ">
<path fill="none" stroke="#63b8ff" d="M399.47,-109.98C428.18,-101.09 473.42,-87.07 505.42,-77.15"/>
<polygon fill="#63b8ff" stroke="#63b8ff" points="506.79,-80.39 515.31,-74.08 504.72,-73.7 506.79,-80.39"/>
</a>
</g>
</g>
<!-- Node8 -->
<g id="Node000008" class="node">
<title>Node8</title>
<g id="a_Node000008"><a xlink:title=" ">
<polygon fill="#e0e0e0" stroke="#999999" points="298.5,-19 251.5,-19 251.5,0 298.5,0 298.5,-19"/>
<text text-anchor="middle" x="275" y="-7" font-family="Helvetica,sans-Serif" font-size="10.00">vector</text>
</a>
</g>
</g>
<!-- Node3&#45;&gt;Node8 -->
<g id="edge8_Node000003_Node000008" class="edge">
<title>Node3&#45;&gt;Node8</title>
<g id="a_edge8_Node000003_Node000008"><a xlink:title=" ">
<path fill="none" stroke="#63b8ff" d="M301.25,-110C256.93,-103.05 205.69,-91.49 192,-74 173.98,-50.99 211.49,-31.8 241.79,-20.73"/>
<polygon fill="#63b8ff" stroke="#63b8ff" points="243,-24.01 251.29,-17.42 240.7,-17.4 243,-24.01"/>
</a>
</g>
</g>
<!-- Node9 -->
<g id="Node000009" class="node">
<title>Node9</title>
<g id="a_Node000009"><a xlink:title=" ">
<polygon fill="#e0e0e0" stroke="#999999" points="77,-74 13,-74 13,-55 77,-55 77,-74"/>
<text text-anchor="middle" x="45" y="-62" font-family="Helvetica,sans-Serif" font-size="10.00">algorithm</text>
</a>
</g>
</g>
<!-- Node3&#45;&gt;Node9 -->
<g id="edge9_Node000003_Node000009" class="edge">
<title>Node3&#45;&gt;Node9</title>
<g id="a_edge9_Node000003_Node000009"><a xlink:title=" ">
<path fill="none" stroke="#63b8ff" d="M311.59,-110C255.81,-101.94 170.43,-89.1 87.09,-74.12"/>
<polygon fill="#63b8ff" stroke="#63b8ff" points="87.66,-70.67 77.2,-72.33 86.41,-77.56 87.66,-70.67"/>
</a>
</g>
</g>
<!-- Node10 -->
<g id="Node000010" class="node">
<title>Node10</title>
<g id="a_Node000010"><a xlink:href="ematch__src_2utils_2gdb_2gdbUtils_8hh.html" target="_top" xlink:title=" ">
<polygon fill="white" stroke="#666666" points="1233.5,-74 1116.5,-74 1116.5,-55 1233.5,-55 1233.5,-74"/>
<text text-anchor="middle" x="1175" y="-62" font-family="Helvetica,sans-Serif" font-size="10.00">utils/gdb/gdbUtils.hh</text>
</a>
</g>
</g>
<!-- Node3&#45;&gt;Node10 -->
<g id="edge10_Node000003_Node000010" class="edge">
<title>Node3&#45;&gt;Node10</title>
<g id="a_edge10_Node000003_Node000010"><a xlink:title=" ">
<path fill="none" stroke="#63b8ff" d="M455.71,-113.6C586.61,-105.83 847.68,-89.94 1069,-74 1081.01,-73.13 1093.78,-72.16 1106.15,-71.18"/>
<polygon fill="#63b8ff" stroke="#63b8ff" points="1106.73,-74.65 1116.42,-70.37 1106.17,-67.67 1106.73,-74.65"/>
</a>
</g>
</g>
<!-- Node15 -->
<g id="Node000015" class="node">
<title>Node15</title>
<g id="a_Node000015"><a xlink:href="ematch__src_2utils_2stl_2stlTypes_8hh.html" target="_top" xlink:title=" ">
<polygon fill="white" stroke="#666666" points="385,-74 275,-74 275,-55 385,-55 385,-74"/>
<text text-anchor="middle" x="330" y="-62" font-family="Helvetica,sans-Serif" font-size="10.00">utils/stl/stlTypes.hh</text>
</a>
</g>
</g>
<!-- Node3&#45;&gt;Node15 -->
<g id="edge16_Node000003_Node000015" class="edge">
<title>Node3&#45;&gt;Node15</title>
<g id="a_edge16_Node000003_Node000015"><a xlink:title=" ">
<path fill="none" stroke="#63b8ff" d="M365.06,-109.75C359.13,-102.26 350.43,-91.28 343.17,-82.13"/>
<polygon fill="#63b8ff" stroke="#63b8ff" points="345.76,-79.75 336.8,-74.09 340.27,-84.1 345.76,-79.75"/>
</a>
</g>
</g>
<!-- Node10&#45;&gt;Node2 -->
<g id="edge12_Node000010_Node000002" class="edge">
<title>Node10&#45;&gt;Node2</title>
<g id="a_edge12_Node000010_Node000002"><a xlink:title=" ">
<path fill="none" stroke="#63b8ff" d="M1138.69,-54.98C1097.77,-45.39 1031.44,-29.83 989.04,-19.89"/>
<polygon fill="#63b8ff" stroke="#63b8ff" points="989.61,-16.43 979.07,-17.55 988.01,-23.24 989.61,-16.43"/>
</a>
</g>
</g>
<!-- Node11 -->
<g id="Node000011" class="node">
<title>Node11</title>
<g id="a_Node000011"><a xlink:title=" ">
<polygon fill="#e0e0e0" stroke="#999999" points="1166.5,-19 1113.5,-19 1113.5,0 1166.5,0 1166.5,-19"/>
<text text-anchor="middle" x="1140" y="-7" font-family="Helvetica,sans-Serif" font-size="10.00">cstdarg</text>
</a>
</g>
</g>
<!-- Node10&#45;&gt;Node11 -->
<g id="edge11_Node000010_Node000011" class="edge">
<title>Node10&#45;&gt;Node11</title>
<g id="a_edge11_Node000010_Node000011"><a xlink:title=" ">
<path fill="none" stroke="#63b8ff" d="M1169.22,-54.75C1164.38,-47.42 1157.32,-36.73 1151.35,-27.7"/>
<polygon fill="#63b8ff" stroke="#63b8ff" points="1154.1,-25.5 1145.67,-19.09 1148.26,-29.36 1154.1,-25.5"/>
</a>
</g>
</g>
<!-- Node12 -->
<g id="Node000012" class="node">
<title>Node12</title>
<g id="a_Node000012"><a xlink:title=" ">
<polygon fill="#e0e0e0" stroke="#999999" points="1233.5,-19 1184.5,-19 1184.5,0 1233.5,0 1233.5,-19"/>
<text text-anchor="middle" x="1209" y="-7" font-family="Helvetica,sans-Serif" font-size="10.00">cstdlib</text>
</a>
</g>
</g>
<!-- Node10&#45;&gt;Node12 -->
<g id="edge13_Node000010_Node000012" class="edge">
<title>Node10&#45;&gt;Node12</title>
<g id="a_edge13_Node000010_Node000012"><a xlink:title=" ">
<path fill="none" stroke="#63b8ff" d="M1180.61,-54.75C1185.32,-47.42 1192.17,-36.73 1197.97,-27.7"/>
<polygon fill="#63b8ff" stroke="#63b8ff" points="1201.03,-29.4 1203.49,-19.09 1195.14,-25.62 1201.03,-29.4"/>
</a>
</g>
</g>
<!-- Node13 -->
<g id="Node000013" class="node">
<title>Node13</title>
<g id="a_Node000013"><a xlink:title=" ">
<polygon fill="#e0e0e0" stroke="#999999" points="1298,-19 1252,-19 1252,0 1298,0 1298,-19"/>
<text text-anchor="middle" x="1275" y="-7" font-family="Helvetica,sans-Serif" font-size="10.00">cstdio</text>
</a>
</g>
</g>
<!-- Node10&#45;&gt;Node13 -->
<g id="edge14_Node000010_Node000013" class="edge">
<title>Node10&#45;&gt;Node13</title>
<g id="a_edge14_Node000010_Node000013"><a xlink:title=" ">
<path fill="none" stroke="#63b8ff" d="M1191.06,-54.98C1206.86,-46.61 1231.21,-33.7 1249.63,-23.95"/>
<polygon fill="#63b8ff" stroke="#63b8ff" points="1251.44,-26.95 1258.64,-19.17 1248.16,-20.76 1251.44,-26.95"/>
</a>
</g>
</g>
<!-- Node14 -->
<g id="Node000014" class="node">
<title>Node14</title>
<g id="a_Node000014"><a xlink:title=" ">
<polygon fill="#e0e0e0" stroke="#999999" points="1095,-19 1043,-19 1043,0 1095,0 1095,-19"/>
<text text-anchor="middle" x="1069" y="-7" font-family="Helvetica,sans-Serif" font-size="10.00">cassert</text>
</a>
</g>
</g>
<!-- Node10&#45;&gt;Node14 -->
<g id="edge15_Node000010_Node000014" class="edge">
<title>Node10&#45;&gt;Node14</title>
<g id="a_edge15_Node000010_Node000014"><a xlink:title=" ">
<path fill="none" stroke="#63b8ff" d="M1157.97,-54.98C1141.07,-46.54 1114.93,-33.47 1095.35,-23.68"/>
<polygon fill="#63b8ff" stroke="#63b8ff" points="1096.85,-20.51 1086.34,-19.17 1093.72,-26.77 1096.85,-20.51"/>
</a>
</g>
</g>
<!-- Node15&#45;&gt;Node8 -->
<g id="edge18_Node000015_Node000008" class="edge">
<title>Node15&#45;&gt;Node8</title>
<g id="a_edge18_Node000015_Node000008"><a xlink:title=" ">
<path fill="none" stroke="#63b8ff" d="M320.92,-54.75C312.91,-47.03 301.04,-35.6 291.38,-26.28"/>
<polygon fill="#63b8ff" stroke="#63b8ff" points="293.54,-23.51 283.91,-19.09 288.68,-28.55 293.54,-23.51"/>
</a>
</g>
</g>
<!-- Node16 -->
<g id="Node000016" class="node">
<title>Node16</title>
<g id="a_Node000016"><a xlink:title=" ">
<polygon fill="#e0e0e0" stroke="#999999" points="407,-19 363,-19 363,0 407,0 407,-19"/>
<text text-anchor="middle" x="385" y="-7" font-family="Helvetica,sans-Serif" font-size="10.00">string</text>
</a>
</g>
</g>
<!-- Node15&#45;&gt;Node16 -->
<g id="edge17_Node000015_Node000016" class="edge">
<title>Node15&#45;&gt;Node16</title>
<g id="a_edge17_Node000015_Node000016"><a xlink:title=" ">
<path fill="none" stroke="#63b8ff" d="M339.08,-54.75C347.09,-47.03 358.96,-35.6 368.62,-26.28"/>
<polygon fill="#63b8ff" stroke="#63b8ff" points="371.31,-28.55 376.08,-19.09 366.46,-23.51 371.31,-28.55"/>
</a>
</g>
</g>
<!-- Node18 -->
<g id="Node000018" class="node">
<title>Node18</title>
<g id="a_Node000018"><a xlink:href="ematch__src_2utils_2FLArray_2FLEArray_8hh.html" target="_top" xlink:title=" ">
<polygon fill="white" stroke="#666666" points="899.5,-184 760.5,-184 760.5,-165 899.5,-165 899.5,-184"/>
<text text-anchor="middle" x="830" y="-172" font-family="Helvetica,sans-Serif" font-size="10.00">utils/FLArray/FLEArray.hh</text>
</a>
</g>
</g>
<!-- Node17&#45;&gt;Node18 -->
<g id="edge20_Node000017_Node000018" class="edge">
<title>Node17&#45;&gt;Node18</title>
<g id="a_edge20_Node000017_Node000018"><a xlink:title=" ">
<path fill="none" stroke="#63b8ff" d="M727.6,-219.98C747.31,-211.42 777.95,-198.11 800.58,-188.28"/>
<polygon fill="#63b8ff" stroke="#63b8ff" points="802.26,-191.37 810.04,-184.17 799.47,-184.94 802.26,-191.37"/>
</a>
</g>
</g>
<!-- Node18&#45;&gt;Node2 -->
<g id="edge23_Node000018_Node000002" class="edge">
<title>Node18&#45;&gt;Node2</title>
<g id="a_edge23_Node000018_Node000002"><a xlink:title=" ">
<path fill="none" stroke="#63b8ff" d="M830.42,-164.96C831.53,-151.58 835.54,-125.59 850,-110 879.29,-78.41 913.4,-107.89 940,-74 949.77,-61.55 951.47,-43.34 951.04,-29.61"/>
<polygon fill="#63b8ff" stroke="#63b8ff" points="954.51,-29.08 950.31,-19.35 947.53,-29.58 954.51,-29.08"/>
</a>
</g>
</g>
<!-- Node18&#45;&gt;Node8 -->
<g id="edge22_Node000018_Node000008" class="edge">
<title>Node18&#45;&gt;Node8</title>
<g id="a_edge22_Node000018_Node000008"><a xlink:title=" ">
<path fill="none" stroke="#63b8ff" d="M760.37,-173.56C642.29,-172.57 395.68,-165.78 191,-129 105.73,-113.68 55.9,-143.36 4,-74 -1.06,-67.24 -1.47,-61.44 4,-55 34.04,-19.63 175.09,-12.32 240.95,-10.85"/>
<polygon fill="#63b8ff" stroke="#63b8ff" points="241.29,-14.34 251.22,-10.65 241.16,-7.34 241.29,-14.34"/>
</a>
</g>
</g>
<!-- Node18&#45;&gt;Node9 -->
<g id="edge24_Node000018_Node000009" class="edge">
<title>Node18&#45;&gt;Node9</title>
<g id="a_edge24_Node000018_Node000009"><a xlink:title=" ">
<path fill="none" stroke="#63b8ff" d="M760.33,-171.98C655.27,-168.77 450.36,-158.91 279,-129 207.1,-116.45 125.25,-91.77 79.91,-77.15"/>
<polygon fill="#63b8ff" stroke="#63b8ff" points="80.87,-73.78 70.27,-74.01 78.7,-80.44 80.87,-73.78"/>
</a>
</g>
</g>
<!-- Node18&#45;&gt;Node10 -->
<g id="edge26_Node000018_Node000010" class="edge">
<title>Node18&#45;&gt;Node10</title>
<g id="a_edge26_Node000018_Node000010"><a xlink:title=" ">
<path fill="none" stroke="#63b8ff" d="M873.09,-164.95C910.89,-157.01 967.13,-144.17 1015,-129 1062.04,-114.09 1114.97,-91.99 1146.61,-78.19"/>
<polygon fill="#63b8ff" stroke="#63b8ff" points="1148.36,-81.24 1156.1,-74.01 1145.54,-74.83 1148.36,-81.24"/>
</a>
</g>
</g>
<!-- Node19 -->
<g id="Node000019" class="node">
<title>Node19</title>
<g id="a_Node000019"><a xlink:title=" ">
<polygon fill="#e0e0e0" stroke="#999999" points="1060,-74 1004,-74 1004,-55 1060,-55 1060,-74"/>
<text text-anchor="middle" x="1032" y="-62" font-family="Helvetica,sans-Serif" font-size="10.00">assert.h</text>
</a>
</g>
</g>
<!-- Node18&#45;&gt;Node19 -->
<g id="edge21_Node000018_Node000019" class="edge">
<title>Node18&#45;&gt;Node19</title>
<g id="a_edge21_Node000018_Node000019"><a xlink:title=" ">
<path fill="none" stroke="#63b8ff" d="M899.71,-166.21C930.68,-160.17 966.12,-149.15 993,-129 1008.32,-117.51 1018.97,-98.07 1025.22,-83.72"/>
<polygon fill="#63b8ff" stroke="#63b8ff" points="1028.5,-84.94 1029,-74.36 1022.01,-82.32 1028.5,-84.94"/>
</a>
</g>
</g>
<!-- Node20 -->
<g id="Node000020" class="node">
<title>Node20</title>
<g id="a_Node000020"><a xlink:title=" ">
<polygon fill="#e0e0e0" stroke="#999999" points="983.5,-129 858.5,-129 858.5,-110 983.5,-110 983.5,-129"/>
<text text-anchor="middle" x="921" y="-117" font-family="Helvetica,sans-Serif" font-size="10.00">boost/lexical_cast.hpp</text>
</a>
</g>
</g>
<!-- Node18&#45;&gt;Node20 -->
<g id="edge25_Node000018_Node000020" class="edge">
<title>Node18&#45;&gt;Node20</title>
<g id="a_edge25_Node000018_Node000020"><a xlink:title=" ">
<path fill="none" stroke="#63b8ff" d="M844.62,-164.98C858.86,-156.69 880.75,-143.94 897.45,-134.22"/>
<polygon fill="#63b8ff" stroke="#63b8ff" points="899.23,-137.23 906.11,-129.17 895.71,-131.18 899.23,-137.23"/>
</a>
</g>
</g>
<!-- Node21 -->
<g id="Node000021" class="node">
<title>Node21</title>
<g id="a_Node000021"><a xlink:href="ematch__src_2utils_2perlish_2perlish_8hh.html" target="_top" xlink:title=" ">
<polygon fill="white" stroke="#666666" points="769.5,-129 644.5,-129 644.5,-110 769.5,-110 769.5,-129"/>
<text text-anchor="middle" x="707" y="-117" font-family="Helvetica,sans-Serif" font-size="10.00">utils/perlish/perlish.hh</text>
</a>
</g>
</g>
<!-- Node18&#45;&gt;Node21 -->
<g id="edge27_Node000018_Node000021" class="edge">
<title>Node18&#45;&gt;Node21</title>
<g id="a_edge27_Node000018_Node000021"><a xlink:title=" ">
<path fill="none" stroke="#63b8ff" d="M810.24,-164.98C790.27,-156.38 759.19,-142.99 736.35,-133.15"/>
<polygon fill="#63b8ff" stroke="#63b8ff" points="737.69,-129.91 727.12,-129.17 734.92,-136.34 737.69,-129.91"/>
</a>
</g>
</g>
<!-- Node21&#45;&gt;Node2 -->
<g id="edge29_Node000021_Node000002" class="edge">
<title>Node21&#45;&gt;Node2</title>
<g id="a_edge29_Node000021_Node000002"><a xlink:title=" ">
<path fill="none" stroke="#63b8ff" d="M769.53,-111.58C823.46,-104.52 896.16,-92.03 919,-74 933.03,-62.92 940.83,-43.7 944.93,-29.3"/>
<polygon fill="#63b8ff" stroke="#63b8ff" points="948.37,-29.99 947.39,-19.45 941.58,-28.3 948.37,-29.99"/>
</a>
</g>
</g>
<!-- Node21&#45;&gt;Node6 -->
<g id="edge30_Node000021_Node000006" class="edge">
<title>Node21&#45;&gt;Node6</title>
<g id="a_edge30_Node000021_Node000006"><a xlink:title=" ">
<path fill="none" stroke="#63b8ff" d="M668.07,-109.98C629.62,-101.54 568.87,-88.15 506.84,-74.18"/>
<polygon fill="#63b8ff" stroke="#63b8ff" points="507.4,-70.71 496.87,-71.93 505.86,-77.54 507.4,-70.71"/>
</a>
</g>
</g>
<!-- Node21&#45;&gt;Node7 -->
<g id="edge31_Node000021_Node000007" class="edge">
<title>Node21&#45;&gt;Node7</title>
<g id="a_edge31_Node000021_Node000007"><a xlink:title=" ">
<path fill="none" stroke="#63b8ff" d="M680.65,-109.98C653.23,-101.13 610.11,-87.19 579.44,-77.28"/>
<polygon fill="#63b8ff" stroke="#63b8ff" points="580.15,-73.83 569.55,-74.08 577.99,-80.49 580.15,-73.83"/>
</a>
</g>
</g>
<!-- Node21&#45;&gt;Node8 -->
<g id="edge33_Node000021_Node000008" class="edge">
<title>Node21&#45;&gt;Node8</title>
<g id="a_edge33_Node000021_Node000008"><a xlink:title=" ">
<path fill="none" stroke="#63b8ff" d="M687.69,-109.91C668.53,-101.26 638.43,-87.31 613,-74 598,-66.15 595.99,-60.54 580,-55 554.76,-46.25 383.33,-24.08 309.12,-14.74"/>
<polygon fill="#63b8ff" stroke="#63b8ff" points="309.27,-11.23 298.91,-13.46 308.4,-18.18 309.27,-11.23"/>
</a>
</g>
</g>
<!-- Node21&#45;&gt;Node10 -->
<g id="edge36_Node000021_Node000010" class="edge">
<title>Node21&#45;&gt;Node10</title>
<g id="a_edge36_Node000021_Node000010"><a xlink:title=" ">
<path fill="none" stroke="#63b8ff" d="M769.63,-111.41C857.17,-101.49 1015.53,-83.56 1106.24,-73.29"/>
<polygon fill="#63b8ff" stroke="#63b8ff" points="1106.88,-76.74 1116.42,-72.13 1106.09,-69.78 1106.88,-76.74"/>
</a>
</g>
</g>
<!-- Node21&#45;&gt;Node15 -->
<g id="edge37_Node000021_Node000015" class="edge">
<title>Node21&#45;&gt;Node15</title>
<g id="a_edge37_Node000021_Node000015"><a xlink:title=" ">
<path fill="none" stroke="#63b8ff" d="M646.43,-109.98C577.69,-100.32 465.97,-84.62 395.32,-74.68"/>
<polygon fill="#63b8ff" stroke="#63b8ff" points="395.59,-71.19 385.2,-73.26 394.62,-78.12 395.59,-71.19"/>
</a>
</g>
</g>
<!-- Node21&#45;&gt;Node16 -->
<g id="edge32_Node000021_Node000016" class="edge">
<title>Node21&#45;&gt;Node16</title>
<g id="a_edge32_Node000021_Node000016"><a xlink:title=" ">
<path fill="none" stroke="#63b8ff" d="M697.08,-109.78C680.75,-95.91 646.65,-68.97 613,-55 546.79,-27.52 462.6,-16.75 417.32,-12.73"/>
<polygon fill="#63b8ff" stroke="#63b8ff" points="417.47,-9.23 407.21,-11.89 416.89,-16.2 417.47,-9.23"/>
</a>
</g>
</g>
<!-- Node21&#45;&gt;Node19 -->
<g id="edge34_Node000021_Node000019" class="edge">
<title>Node21&#45;&gt;Node19</title>
<g id="a_edge34_Node000021_Node000019"><a xlink:title=" ">
<path fill="none" stroke="#63b8ff" d="M759.21,-109.98C824.72,-99.3 935.5,-81.24 993.69,-71.75"/>
<polygon fill="#63b8ff" stroke="#63b8ff" points="994.27,-75.2 1003.58,-70.13 993.14,-68.29 994.27,-75.2"/>
</a>
</g>
</g>
<!-- Node22 -->
<g id="Node000022" class="node">
<title>Node22</title>
<g id="a_Node000022"><a xlink:title=" ">
<polygon fill="#e0e0e0" stroke="#999999" points="909.5,-74 856.5,-74 856.5,-55 909.5,-55 909.5,-74"/>
<text text-anchor="middle" x="883" y="-62" font-family="Helvetica,sans-Serif" font-size="10.00">ctype.h</text>
</a>
</g>
</g>
<!-- Node21&#45;&gt;Node22 -->
<g id="edge28_Node000021_Node000022" class="edge">
<title>Node21&#45;&gt;Node22</title>
<g id="a_edge28_Node000021_Node000022"><a xlink:title=" ">
<path fill="none" stroke="#63b8ff" d="M735.28,-109.98C765.48,-100.89 813.46,-86.44 846.5,-76.49"/>
<polygon fill="#63b8ff" stroke="#63b8ff" points="847.67,-79.79 856.23,-73.56 845.65,-73.09 847.67,-79.79"/>
</a>
</g>
</g>
<!-- Node23 -->
<g id="Node000023" class="node">
<title>Node23</title>
<g id="a_Node000023"><a xlink:title=" ">
<polygon fill="#e0e0e0" stroke="#999999" points="770.5,-19 675.5,-19 675.5,0 770.5,0 770.5,-19"/>
<text text-anchor="middle" x="723" y="-7" font-family="Helvetica,sans-Serif" font-size="10.00">boost/regex.hpp</text>
</a>
</g>
</g>
<!-- Node21&#45;&gt;Node23 -->
<g id="edge35_Node000021_Node000023" class="edge">
<title>Node21&#45;&gt;Node23</title>
<g id="a_edge35_Node000021_Node000023"><a xlink:title=" ">
<path fill="none" stroke="#63b8ff" d="M702.52,-109.75C696.81,-97.4 688.29,-74.2 694,-55 696.97,-44.98 703,-35.11 708.79,-27.22"/>
<polygon fill="#63b8ff" stroke="#63b8ff" points="711.63,-29.28 715.06,-19.25 706.12,-24.95 711.63,-29.28"/>
</a>
</g>
</g>
<!-- Node24 -->
<g id="Node000024" class="node">
<title>Node24</title>
<g id="a_Node000024"><a xlink:href="ematch__src_2utils_2boost_2boostUtils_8hh.html" target="_top" xlink:title=" ">
<polygon fill="white" stroke="#666666" points="838.5,-74 703.5,-74 703.5,-55 838.5,-55 838.5,-74"/>
<text text-anchor="middle" x="771" y="-62" font-family="Helvetica,sans-Serif" font-size="10.00">utils/boost/boostUtils.hh</text>
</a>
</g>
</g>
<!-- Node21&#45;&gt;Node24 -->
<g id="edge38_Node000021_Node000024" class="edge">
<title>Node21&#45;&gt;Node24</title>
<g id="a_edge38_Node000021_Node000024"><a xlink:title=" ">
<path fill="none" stroke="#63b8ff" d="M717.28,-109.98C726.83,-102.07 741.28,-90.11 752.78,-80.58"/>
<polygon fill="#63b8ff" stroke="#63b8ff" points="755.06,-83.24 760.53,-74.17 750.59,-77.85 755.06,-83.24"/>
</a>
</g>
</g>
<!-- Node24&#45;&gt;Node2 -->
<g id="edge39_Node000024_Node000002" class="edge">
<title>Node24&#45;&gt;Node2</title>
<g id="a_edge39_Node000024_Node000002"><a xlink:title=" ">
<path fill="none" stroke="#63b8ff" d="M799.6,-54.98C829.61,-46.05 876.98,-31.94 910.31,-22.02"/>
<polygon fill="#63b8ff" stroke="#63b8ff" points="911.59,-25.29 920.17,-19.08 909.59,-18.58 911.59,-25.29"/>
</a>
</g>
</g>
<!-- Node24&#45;&gt;Node23 -->
<g id="edge40_Node000024_Node000023" class="edge">
<title>Node24&#45;&gt;Node23</title>
<g id="a_edge40_Node000024_Node000023"><a xlink:title=" ">
<path fill="none" stroke="#63b8ff" d="M763.07,-54.75C756.15,-47.11 745.93,-35.82 737.55,-26.56"/>
<polygon fill="#63b8ff" stroke="#63b8ff" points="740.08,-24.15 730.78,-19.09 734.9,-28.85 740.08,-24.15"/>
</a>
</g>
</g>
<!-- Node25&#45;&gt;Node18 -->
<g id="edge42_Node000025_Node000018" class="edge">
<title>Node25&#45;&gt;Node18</title>
<g id="a_edge42_Node000025_Node000018"><a xlink:title=" ">
<path fill="none" stroke="#63b8ff" d="M830,-274.66C830,-257.17 830,-217.8 830,-194.27"/>
<polygon fill="#63b8ff" stroke="#63b8ff" points="833.5,-194.16 830,-184.16 826.5,-194.16 833.5,-194.16"/>
</a>
</g>
</g>
<!-- Node26 -->
<g id="Node000026" class="node">
<title>Node26</title>
<g id="a_Node000026"><a xlink:href="RecursivePermutationGenerator_8hh.html" target="_top" xlink:title=" ">
<polygon fill="white" stroke="#666666" points="1046,-239 858,-239 858,-220 1046,-220 1046,-239"/>
<text text-anchor="middle" x="952" y="-227" font-family="Helvetica,sans-Serif" font-size="10.00">RecursivePermutationGenerator.hh</text>
</a>
</g>
</g>
<!-- Node25&#45;&gt;Node26 -->
<g id="edge43_Node000025_Node000026" class="edge">
<title>Node25&#45;&gt;Node26</title>
<g id="a_edge43_Node000025_Node000026"><a xlink:title=" ">
<path fill="none" stroke="#63b8ff" d="M849.6,-274.98C869.31,-266.42 899.95,-253.11 922.58,-243.28"/>
<polygon fill="#63b8ff" stroke="#63b8ff" points="924.26,-246.37 932.04,-239.17 921.47,-239.94 924.26,-246.37"/>
</a>
</g>
</g>
<!-- Node26&#45;&gt;Node18 -->
<g id="edge44_Node000026_Node000018" class="edge">
<title>Node26&#45;&gt;Node18</title>
<g id="a_edge44_Node000026_Node000018"><a xlink:title=" ">
<path fill="none" stroke="#63b8ff" d="M932.4,-219.98C912.68,-211.42 882.04,-198.11 859.41,-188.28"/>
<polygon fill="#63b8ff" stroke="#63b8ff" points="860.52,-184.94 849.96,-184.17 857.73,-191.37 860.52,-184.94"/>
</a>
</g>
</g>
</g>
</svg>
