<?xml version="1.0" encoding="UTF-8" standalone="no"?>
<!DOCTYPE svg PUBLIC "-//W3C//DTD SVG 1.1//EN"
 "http://www.w3.org/Graphics/SVG/1.1/DTD/svg11.dtd">
<!-- Generated by graphviz version 2.43.0 (0)
 -->
<!-- Title: cbrc::FLEArray::fill Pages: 1 -->
<svg width="859pt" height="576pt"
 viewBox="0.00 0.00 859.00 576.00" xmlns="http://www.w3.org/2000/svg" xmlns:xlink="http://www.w3.org/1999/xlink">
<g id="graph0" class="graph" transform="scale(1 1) rotate(0) translate(4 572)">
<title>cbrc::FLEArray::fill</title>
<!-- Node1 -->
<g id="Node000001" class="node">
<title>Node1</title>
<g id="a_Node000001"><a xlink:title=" ">
<polygon fill="#999999" stroke="#666666" points="851,-461.5 747,-461.5 747,-442.5 851,-442.5 851,-461.5"/>
<text text-anchor="middle" x="799" y="-449.5" font-family="Helvetica,sans-Serif" font-size="10.00">cbrc::FLEArray::fill</text>
</a>
</g>
</g>
<!-- Node1&#45;&gt;Node1 -->
<g id="edge2_Node000001_Node000001" class="edge">
<title>Node1&#45;&gt;Node1</title>
<g id="a_edge2_Node000001_Node000001"><a xlink:title=" ">
<path fill="none" stroke="#63b8ff" d="M834.98,-469.57C834.45,-475.12 822.46,-479.5 799,-479.5 764.88,-479.5 755.01,-470.23 769.41,-461.58"/>
<polygon fill="#63b8ff" stroke="#63b8ff" points="837.57,-467.21 828.59,-461.58 832.11,-471.58 837.57,-467.21"/>
</a>
</g>
</g>
<!-- Node2 -->
<g id="Node000002" class="node">
<title>Node2</title>
<g id="a_Node000002"><a xlink:href="classcbrc_1_1ConnectedComponentOnlineComputer.html#ab9ba76ab7d61dbecc9eaaba75a719610" target="_top" xlink:title=" ">
<polygon fill="white" stroke="#666666" points="711,-563.5 501,-563.5 501,-522.5 711,-522.5 711,-563.5"/>
<text text-anchor="start" x="509" y="-551.5" font-family="Helvetica,sans-Serif" font-size="10.00">cbrc::ConnectedComponent</text>
<text text-anchor="start" x="509" y="-540.5" font-family="Helvetica,sans-Serif" font-size="10.00">OnlineComputer::ConnectedComponent</text>
<text text-anchor="middle" x="606" y="-529.5" font-family="Helvetica,sans-Serif" font-size="10.00">OnlineComputer</text>
</a>
</g>
</g>
<!-- Node1&#45;&gt;Node2 -->
<g id="edge1_Node000001_Node000002" class="edge">
<title>Node1&#45;&gt;Node2</title>
<g id="a_edge1_Node000001_Node000002"><a xlink:title=" ">
<path fill="none" stroke="#63b8ff" d="M779.33,-468.25C762.49,-482.16 736.51,-501.82 711,-514 704.57,-517.07 697.76,-519.87 690.82,-522.41"/>
<polygon fill="#63b8ff" stroke="#63b8ff" points="781.86,-470.69 787.25,-461.57 777.35,-465.34 781.86,-470.69"/>
</a>
</g>
</g>
<!-- Node3 -->
<g id="Node000003" class="node">
<title>Node3</title>
<g id="a_Node000003"><a xlink:href="classcbrc_1_1FLEArray.html#a4306fbd7aa71d55483694ac072f18e92" target="_top" xlink:title=" ">
<polygon fill="white" stroke="#666666" points="673.5,-504.5 538.5,-504.5 538.5,-485.5 673.5,-485.5 673.5,-504.5"/>
<text text-anchor="middle" x="606" y="-492.5" font-family="Helvetica,sans-Serif" font-size="10.00">cbrc::FLEArray::FLEArray</text>
</a>
</g>
</g>
<!-- Node1&#45;&gt;Node3 -->
<g id="edge3_Node000001_Node000003" class="edge">
<title>Node1&#45;&gt;Node3</title>
<g id="a_edge3_Node000001_Node000003"><a xlink:title=" ">
<path fill="none" stroke="#63b8ff" d="M755.96,-464.41C741.75,-468.38 725.75,-472.63 711,-476 695.97,-479.44 679.61,-482.67 664.4,-485.45"/>
<polygon fill="#63b8ff" stroke="#63b8ff" points="757.28,-467.67 765.95,-461.57 755.37,-460.93 757.28,-467.67"/>
</a>
</g>
</g>
<!-- Node4 -->
<g id="Node000004" class="node">
<title>Node4</title>
<g id="a_Node000004"><a xlink:href="classcbrc_1_1ResidueIndexMapTransformer.html#a22950a6dfcb67c8a6c0af6099aeb80c9" target="_top" xlink:title=" ">
<polygon fill="white" stroke="#666666" points="700,-467 512,-467 512,-437 700,-437 700,-467"/>
<text text-anchor="start" x="520" y="-455" font-family="Helvetica,sans-Serif" font-size="10.00">cbrc::ResidueIndexMapTransformer</text>
<text text-anchor="middle" x="606" y="-444" font-family="Helvetica,sans-Serif" font-size="10.00">::ResidueIndexMapTransformer</text>
</a>
</g>
</g>
<!-- Node1&#45;&gt;Node4 -->
<g id="edge4_Node000001_Node000004" class="edge">
<title>Node1&#45;&gt;Node4</title>
<g id="a_edge4_Node000001_Node000004"><a xlink:title=" ">
<path fill="none" stroke="#63b8ff" d="M736.81,-452C725.17,-452 712.74,-452 700.36,-452"/>
<polygon fill="#63b8ff" stroke="#63b8ff" points="736.82,-455.5 746.82,-452 736.82,-448.5 736.82,-455.5"/>
</a>
</g>
</g>
<!-- Node5 -->
<g id="Node000005" class="node">
<title>Node5</title>
<g id="a_Node000005"><a xlink:href="classcbrc_1_1ResidueIndexMapTranslator.html#a2bea84adee8809d0a48007c7df3368af" target="_top" xlink:title=" ">
<polygon fill="white" stroke="#666666" points="695,-419 517,-419 517,-389 695,-389 695,-419"/>
<text text-anchor="start" x="525" y="-407" font-family="Helvetica,sans-Serif" font-size="10.00">cbrc::ResidueIndexMapTranslator</text>
<text text-anchor="middle" x="606" y="-396" font-family="Helvetica,sans-Serif" font-size="10.00">::ResidueIndexMapTranslator</text>
</a>
</g>
</g>
<!-- Node1&#45;&gt;Node5 -->
<g id="edge5_Node000001_Node000005" class="edge">
<title>Node1&#45;&gt;Node5</title>
<g id="a_edge5_Node000001_Node000005"><a xlink:title=" ">
<path fill="none" stroke="#63b8ff" d="M754.79,-439.69C740.85,-435.82 725.3,-431.62 711,-428 699.05,-424.98 686.3,-421.9 673.96,-419.01"/>
<polygon fill="#63b8ff" stroke="#63b8ff" points="754.05,-443.12 764.62,-442.44 755.93,-436.38 754.05,-443.12"/>
</a>
</g>
</g>
<!-- Node6 -->
<g id="Node000006" class="node">
<title>Node6</title>
<g id="a_Node000006"><a xlink:href="classcbrc_1_1FLEArray.html#a31b7db1817b5eec4d9cbb10bfe07d58a" target="_top" xlink:title=" ">
<polygon fill="white" stroke="#666666" points="662.5,-370.5 549.5,-370.5 549.5,-351.5 662.5,-351.5 662.5,-370.5"/>
<text text-anchor="middle" x="606" y="-358.5" font-family="Helvetica,sans-Serif" font-size="10.00">cbrc::FLEArray::zero</text>
</a>
</g>
</g>
<!-- Node1&#45;&gt;Node6 -->
<g id="edge6_Node000001_Node000006" class="edge">
<title>Node1&#45;&gt;Node6</title>
<g id="a_edge6_Node000001_Node000006"><a xlink:title=" ">
<path fill="none" stroke="#63b8ff" d="M782.42,-434.76C766.26,-418.01 739.41,-393.24 711,-380 696.03,-373.02 678.73,-368.6 662.59,-365.81"/>
<polygon fill="#63b8ff" stroke="#63b8ff" points="780.06,-437.36 789.46,-442.25 785.16,-432.56 780.06,-437.36"/>
</a>
</g>
</g>
<!-- Node7 -->
<g id="Node000007" class="node">
<title>Node7</title>
<g id="a_Node000007"><a xlink:href="namespacecbrc.html#aa0d487302501185b392491248fa51641" target="_top" xlink:title=" ">
<polygon fill="white" stroke="#666666" points="462,-568 260,-568 260,-538 462,-538 462,-568"/>
<text text-anchor="start" x="268" y="-556" font-family="Helvetica,sans-Serif" font-size="10.00">cbrc::calculatePermutation</text>
<text text-anchor="middle" x="361" y="-545" font-family="Helvetica,sans-Serif" font-size="10.00">SumOfSquaredDifferencesDistribution</text>
</a>
</g>
</g>
<!-- Node6&#45;&gt;Node7 -->
<g id="edge7_Node000006_Node000007" class="edge">
<title>Node6&#45;&gt;Node7</title>
<g id="a_edge7_Node000006_Node000007"><a xlink:title=" ">
<path fill="none" stroke="#63b8ff" d="M539.2,-361.51C525.14,-364.55 511.41,-370.16 501,-380 451.49,-426.8 513.37,-481.02 465,-529 461.61,-532.36 457.85,-535.29 453.82,-537.83"/>
<polygon fill="#63b8ff" stroke="#63b8ff" points="540.2,-364.89 549.45,-359.73 539,-358 540.2,-364.89"/>
</a>
</g>
</g>
<!-- Node9 -->
<g id="Node000009" class="node">
<title>Node9</title>
<g id="a_Node000009"><a xlink:href="classcbrc_1_1RecountTagCounts.html#ad11bd14698ea4628067edf0059a25c68" target="_top" xlink:title=" ">
<polygon fill="white" stroke="#666666" points="427.5,-520 294.5,-520 294.5,-490 427.5,-490 427.5,-520"/>
<text text-anchor="start" x="302.5" y="-508" font-family="Helvetica,sans-Serif" font-size="10.00">cbrc::RecountTagCounts</text>
<text text-anchor="middle" x="361" y="-497" font-family="Helvetica,sans-Serif" font-size="10.00">::RecountTagCounts</text>
</a>
</g>
</g>
<!-- Node6&#45;&gt;Node9 -->
<g id="edge9_Node000006_Node000009" class="edge">
<title>Node6&#45;&gt;Node9</title>
<g id="a_edge9_Node000006_Node000009"><a xlink:title=" ">
<path fill="none" stroke="#63b8ff" d="M539.28,-362.47C525.41,-365.5 511.75,-370.86 501,-380 464.69,-410.87 500.55,-449.27 465,-481 454.59,-490.29 441.28,-496.18 427.72,-499.87"/>
<polygon fill="#63b8ff" stroke="#63b8ff" points="540.15,-365.87 549.37,-360.65 538.91,-358.98 540.15,-365.87"/>
</a>
</g>
</g>
<!-- Node10 -->
<g id="Node000010" class="node">
<title>Node10</title>
<g id="a_Node000010"><a xlink:href="classcbrc_1_1RecountTagCounts.html#a5e025f710ef06a603501aeead7a98924" target="_top" xlink:title=" ">
<polygon fill="white" stroke="#666666" points="427.5,-472 294.5,-472 294.5,-442 427.5,-442 427.5,-472"/>
<text text-anchor="start" x="302.5" y="-460" font-family="Helvetica,sans-Serif" font-size="10.00">cbrc::RecountTagCounts</text>
<text text-anchor="middle" x="361" y="-449" font-family="Helvetica,sans-Serif" font-size="10.00">::RecountTagCounts</text>
</a>
</g>
</g>
<!-- Node6&#45;&gt;Node10 -->
<g id="edge10_Node000006_Node000010" class="edge">
<title>Node6&#45;&gt;Node10</title>
<g id="a_edge10_Node000006_Node000010"><a xlink:title=" ">
<path fill="none" stroke="#63b8ff" d="M539.14,-364.95C525.77,-367.91 512.34,-372.61 501,-380 477.14,-395.54 488.48,-416.89 465,-433 453.95,-440.59 440.83,-445.8 427.71,-449.37"/>
<polygon fill="#63b8ff" stroke="#63b8ff" points="540.16,-368.32 549.33,-363.01 538.85,-361.44 540.16,-368.32"/>
</a>
</g>
</g>
<!-- Node11 -->
<g id="Node000011" class="node">
<title>Node11</title>
<g id="a_Node000011"><a xlink:href="namespacecbrc.html#a59b02daff29890d24f755b27508743f0" target="_top" xlink:title=" ">
<polygon fill="white" stroke="#666666" points="429,-424 293,-424 293,-394 429,-394 429,-424"/>
<text text-anchor="start" x="301" y="-412" font-family="Helvetica,sans-Serif" font-size="10.00">cbrc::runAllShortestEdge</text>
<text text-anchor="middle" x="361" y="-401" font-family="Helvetica,sans-Serif" font-size="10.00">LengthPaths</text>
</a>
</g>
</g>
<!-- Node6&#45;&gt;Node11 -->
<g id="edge11_Node000006_Node000011" class="edge">
<title>Node6&#45;&gt;Node11</title>
<g id="a_edge11_Node000006_Node000011"><a xlink:title=" ">
<path fill="none" stroke="#63b8ff" d="M541.44,-372.35C528.07,-374.81 514.06,-377.44 501,-380 477.53,-384.59 451.89,-389.87 429.1,-394.65"/>
<polygon fill="#63b8ff" stroke="#63b8ff" points="542.3,-375.75 551.51,-370.51 541.04,-368.87 542.3,-375.75"/>
</a>
</g>
</g>
<!-- Node13 -->
<g id="Node000013" class="node">
<title>Node13</title>
<g id="a_Node000013"><a xlink:href="classcbrc_1_1NeighborListGraph.html#a93029ea791bc9ed1be8bd8e4c299de2b" target="_top" xlink:title=" ">
<polygon fill="white" stroke="#666666" points="437.5,-376 284.5,-376 284.5,-346 437.5,-346 437.5,-376"/>
<text text-anchor="start" x="292.5" y="-364" font-family="Helvetica,sans-Serif" font-size="10.00">cbrc::NeighborListGraph</text>
<text text-anchor="middle" x="361" y="-353" font-family="Helvetica,sans-Serif" font-size="10.00">::shortestPathByEdgeLength</text>
</a>
</g>
</g>
<!-- Node6&#45;&gt;Node13 -->
<g id="edge13_Node000006_Node000013" class="edge">
<title>Node6&#45;&gt;Node13</title>
<g id="a_edge13_Node000006_Node000013"><a xlink:title=" ">
<path fill="none" stroke="#63b8ff" d="M538.9,-361C507.64,-361 470.15,-361 437.75,-361"/>
<polygon fill="#63b8ff" stroke="#63b8ff" points="539.25,-364.5 549.25,-361 539.25,-357.5 539.25,-364.5"/>
</a>
</g>
</g>
<!-- Node14 -->
<g id="Node000014" class="node">
<title>Node14</title>
<g id="a_Node000014"><a xlink:href="testFLDiagonalMatrix_8cc.html#a5583a1f4974d10e32ac63dc9cbd3dd48" target="_top" xlink:title=" ">
<polygon fill="white" stroke="#666666" points="422,-327.5 300,-327.5 300,-308.5 422,-308.5 422,-327.5"/>
<text text-anchor="middle" x="361" y="-315.5" font-family="Helvetica,sans-Serif" font-size="10.00">testFLDiagonalMatrix</text>
</a>
</g>
</g>
<!-- Node6&#45;&gt;Node14 -->
<g id="edge14_Node000006_Node000014" class="edge">
<title>Node6&#45;&gt;Node14</title>
<g id="a_edge14_Node000006_Node000014"><a xlink:title=" ">
<path fill="none" stroke="#63b8ff" d="M540.88,-349.65C501.91,-342.76 452.71,-334.05 415.78,-327.52"/>
<polygon fill="#63b8ff" stroke="#63b8ff" points="540.61,-353.16 551.07,-351.46 541.83,-346.27 540.61,-353.16"/>
</a>
</g>
</g>
<!-- Node16 -->
<g id="Node000016" class="node">
<title>Node16</title>
<g id="a_Node000016"><a xlink:href="classcbrc_1_1RecountComputerForGraphOnDisk.html#a9ec4f1d1273a0cda2bb005bcedc056f6" target="_top" xlink:title=" ">
<polygon fill="white" stroke="#666666" points="465,-290 257,-290 257,-260 465,-260 465,-290"/>
<text text-anchor="start" x="265" y="-278" font-family="Helvetica,sans-Serif" font-size="10.00">cbrc::RecountComputerFor</text>
<text text-anchor="middle" x="361" y="-267" font-family="Helvetica,sans-Serif" font-size="10.00">GraphOnDisk::varianceCountsFromTrue</text>
</a>
</g>
</g>
<!-- Node6&#45;&gt;Node16 -->
<g id="edge16_Node000006_Node000016" class="edge">
<title>Node6&#45;&gt;Node16</title>
<g id="a_edge16_Node000006_Node000016"><a xlink:title=" ">
<path fill="none" stroke="#63b8ff" d="M576.79,-346.98C548.91,-333.55 504.79,-313.38 465,-300 454.19,-296.36 442.57,-293.02 431.17,-290.04"/>
<polygon fill="#63b8ff" stroke="#63b8ff" points="575.42,-350.21 585.94,-351.43 578.48,-343.91 575.42,-350.21"/>
</a>
</g>
</g>
<!-- Node17 -->
<g id="Node000017" class="node">
<title>Node17</title>
<g id="a_Node000017"><a xlink:href="classcbrc_1_1RecountComputerForGraphOnDisk.html#a5d0f07fd22c5c6f153a4d4a659ac585d" target="_top" xlink:title=" ">
<polygon fill="white" stroke="#666666" points="465,-242 257,-242 257,-212 465,-212 465,-242"/>
<text text-anchor="start" x="265" y="-230" font-family="Helvetica,sans-Serif" font-size="10.00">cbrc::RecountComputerFor</text>
<text text-anchor="middle" x="361" y="-219" font-family="Helvetica,sans-Serif" font-size="10.00">GraphOnDisk::varianceCountsFromTrue</text>
</a>
</g>
</g>
<!-- Node6&#45;&gt;Node17 -->
<g id="edge17_Node000006_Node000017" class="edge">
<title>Node6&#45;&gt;Node17</title>
<g id="a_edge17_Node000006_Node000017"><a xlink:title=" ">
<path fill="none" stroke="#63b8ff" d="M588.76,-344.23C564.25,-319.91 515.29,-275.14 465,-251 457.8,-247.54 450.07,-244.57 442.2,-242.01"/>
<polygon fill="#63b8ff" stroke="#63b8ff" points="586.31,-346.72 595.83,-351.35 591.27,-341.79 586.31,-346.72"/>
</a>
</g>
</g>
<!-- Node18 -->
<g id="Node000018" class="node">
<title>Node18</title>
<g id="a_Node000018"><a xlink:href="classcbrc_1_1RecountTagCounts.html#af7bdcf73a683bb55b5d4fc01125d7608" target="_top" xlink:title=" ">
<polygon fill="white" stroke="#666666" points="427.5,-191 294.5,-191 294.5,-161 427.5,-161 427.5,-191"/>
<text text-anchor="start" x="302.5" y="-179" font-family="Helvetica,sans-Serif" font-size="10.00">cbrc::RecountTagCounts</text>
<text text-anchor="middle" x="361" y="-168" font-family="Helvetica,sans-Serif" font-size="10.00">::zero</text>
</a>
</g>
</g>
<!-- Node6&#45;&gt;Node18 -->
<g id="edge18_Node000006_Node000018" class="edge">
<title>Node6&#45;&gt;Node18</title>
<g id="a_edge18_Node000006_Node000018"><a xlink:title=" ">
<path fill="none" stroke="#63b8ff" d="M594.08,-342.77C573.28,-309.66 524.68,-239.68 465,-203 453.66,-196.03 440.55,-190.85 427.57,-186.99"/>
<polygon fill="#63b8ff" stroke="#63b8ff" points="591.19,-344.75 599.42,-351.43 597.15,-341.08 591.19,-344.75"/>
</a>
</g>
</g>
<!-- Node8 -->
<g id="Node000008" class="node">
<title>Node8</title>
<g id="a_Node000008"><a xlink:href="calculateRankCorrelationSignificance_8cc.html#ac0f2228420376f4db7e1274f2b41667c" target="_top" xlink:title=" ">
<polygon fill="white" stroke="#666666" points="131,-562.5 90,-562.5 90,-543.5 131,-543.5 131,-562.5"/>
<text text-anchor="middle" x="110.5" y="-550.5" font-family="Helvetica,sans-Serif" font-size="10.00">main</text>
</a>
</g>
</g>
<!-- Node7&#45;&gt;Node8 -->
<g id="edge8_Node000007_Node000008" class="edge">
<title>Node7&#45;&gt;Node8</title>
<g id="a_edge8_Node000007_Node000008"><a xlink:title=" ">
<path fill="none" stroke="#63b8ff" d="M249.81,-553C204.65,-553 156.99,-553 131.09,-553"/>
<polygon fill="#63b8ff" stroke="#63b8ff" points="250,-556.5 260,-553 250,-549.5 250,-556.5"/>
</a>
</g>
</g>
<!-- Node12 -->
<g id="Node000012" class="node">
<title>Node12</title>
<g id="a_Node000012"><a xlink:href="graph_2run_2runAllShortestEdgeLengthPaths_8cc.html#a3c04138a5bfe5d72780bb7e82a18e627" target="_top" xlink:title=" ">
<polygon fill="white" stroke="#666666" points="131,-418.5 90,-418.5 90,-399.5 131,-399.5 131,-418.5"/>
<text text-anchor="middle" x="110.5" y="-406.5" font-family="Helvetica,sans-Serif" font-size="10.00">main</text>
</a>
</g>
</g>
<!-- Node11&#45;&gt;Node12 -->
<g id="edge12_Node000011_Node000012" class="edge">
<title>Node11&#45;&gt;Node12</title>
<g id="a_edge12_Node000011_Node000012"><a xlink:title=" ">
<path fill="none" stroke="#63b8ff" d="M282.69,-409C229.73,-409 163.43,-409 131.08,-409"/>
<polygon fill="#63b8ff" stroke="#63b8ff" points="282.75,-412.5 292.75,-409 282.75,-405.5 282.75,-412.5"/>
</a>
</g>
</g>
<!-- Node15 -->
<g id="Node000015" class="node">
<title>Node15</title>
<g id="a_Node000015"><a xlink:href="testFLDiagonalMatrix_8cc.html#ae66f6b31b5ad750f1fe042a706a4e3d4" target="_top" xlink:title=" ">
<polygon fill="white" stroke="#666666" points="131,-330.5 90,-330.5 90,-311.5 131,-311.5 131,-330.5"/>
<text text-anchor="middle" x="110.5" y="-318.5" font-family="Helvetica,sans-Serif" font-size="10.00">main</text>
</a>
</g>
</g>
<!-- Node14&#45;&gt;Node15 -->
<g id="edge15_Node000014_Node000015" class="edge">
<title>Node14&#45;&gt;Node15</title>
<g id="a_edge15_Node000014_Node000015"><a xlink:title=" ">
<path fill="none" stroke="#63b8ff" d="M289.64,-318.85C235.7,-319.5 164.96,-320.35 131.15,-320.76"/>
<polygon fill="#63b8ff" stroke="#63b8ff" points="289.89,-322.35 299.85,-318.73 289.8,-315.35 289.89,-322.35"/>
</a>
</g>
</g>
<!-- Node19 -->
<g id="Node000019" class="node">
<title>Node19</title>
<g id="a_Node000019"><a xlink:href="classcbrc_1_1RecountComputerForGraphOnDisk.html#aee9119b27415ef994a51e9fd079b8439" target="_top" xlink:title=" ">
<polygon fill="white" stroke="#666666" points="207.5,-293 13.5,-293 13.5,-263 207.5,-263 207.5,-293"/>
<text text-anchor="start" x="21.5" y="-281" font-family="Helvetica,sans-Serif" font-size="10.00">cbrc::RecountComputerFor</text>
<text text-anchor="middle" x="110.5" y="-270" font-family="Helvetica,sans-Serif" font-size="10.00">GraphOnDisk::meanCountsFromTrue</text>
</a>
</g>
</g>
<!-- Node18&#45;&gt;Node19 -->
<g id="edge19_Node000018_Node000019" class="edge">
<title>Node18&#45;&gt;Node19</title>
<g id="a_edge19_Node000018_Node000019"><a xlink:title=" ">
<path fill="none" stroke="#63b8ff" d="M284.84,-189.02C274.99,-192.6 265.4,-197.17 257,-203 234.2,-218.81 244.12,-238.66 221,-254 215.81,-257.44 210.21,-260.4 204.38,-262.94"/>
<polygon fill="#63b8ff" stroke="#63b8ff" points="285.95,-192.34 294.35,-185.88 283.76,-185.69 285.95,-192.34"/>
</a>
</g>
</g>
<!-- Node20 -->
<g id="Node000020" class="node">
<title>Node20</title>
<g id="a_Node000020"><a xlink:href="classcbrc_1_1RecountComputerForGraphOnDisk.html#a88d2ea948f615339b406e08768f41029" target="_top" xlink:title=" ">
<polygon fill="white" stroke="#666666" points="207.5,-245 13.5,-245 13.5,-215 207.5,-215 207.5,-245"/>
<text text-anchor="start" x="21.5" y="-233" font-family="Helvetica,sans-Serif" font-size="10.00">cbrc::RecountComputerFor</text>
<text text-anchor="middle" x="110.5" y="-222" font-family="Helvetica,sans-Serif" font-size="10.00">GraphOnDisk::meanCountsFromTrue</text>
</a>
</g>
</g>
<!-- Node18&#45;&gt;Node20 -->
<g id="edge20_Node000018_Node000020" class="edge">
<title>Node18&#45;&gt;Node20</title>
<g id="a_edge20_Node000018_Node000020"><a xlink:title=" ">
<path fill="none" stroke="#63b8ff" d="M284.36,-192.44C251.45,-199.59 213.14,-207.91 180.97,-214.9"/>
<polygon fill="#63b8ff" stroke="#63b8ff" points="285.36,-195.8 294.38,-190.26 283.87,-188.96 285.36,-195.8"/>
</a>
</g>
</g>
<!-- Node21 -->
<g id="Node000021" class="node">
<title>Node21</title>
<g id="a_Node000021"><a xlink:href="classcbrc_1_1RecountExpectationMatchingTagCorrector.html#ac6064bce0de0dae057ca18e8eba8a53d" target="_top" xlink:title=" ">
<polygon fill="white" stroke="#666666" points="221,-196.5 0,-196.5 0,-155.5 221,-155.5 221,-196.5"/>
<text text-anchor="start" x="8" y="-184.5" font-family="Helvetica,sans-Serif" font-size="10.00">cbrc::RecountExpectation</text>
<text text-anchor="start" x="8" y="-173.5" font-family="Helvetica,sans-Serif" font-size="10.00">MatchingTagCorrector::</text>
<text text-anchor="middle" x="110.5" y="-162.5" font-family="Helvetica,sans-Serif" font-size="10.00">RecountExpectationMatchingTagCorrector</text>
</a>
</g>
</g>
<!-- Node18&#45;&gt;Node21 -->
<g id="edge21_Node000018_Node000021" class="edge">
<title>Node18&#45;&gt;Node21</title>
<g id="a_edge21_Node000018_Node000021"><a xlink:title=" ">
<path fill="none" stroke="#63b8ff" d="M284.19,-176C264.33,-176 242.51,-176 221.26,-176"/>
<polygon fill="#63b8ff" stroke="#63b8ff" points="284.38,-179.5 294.38,-176 284.38,-172.5 284.38,-179.5"/>
</a>
</g>
</g>
<!-- Node22 -->
<g id="Node000022" class="node">
<title>Node22</title>
<g id="a_Node000022"><a xlink:href="classcbrc_1_1RecountExpectationMatchingTagCorrector.html#aea1163ebbfd0654659858d7dc5271b85" target="_top" xlink:title=" ">
<polygon fill="white" stroke="#666666" points="221,-137.5 0,-137.5 0,-96.5 221,-96.5 221,-137.5"/>
<text text-anchor="start" x="8" y="-125.5" font-family="Helvetica,sans-Serif" font-size="10.00">cbrc::RecountExpectation</text>
<text text-anchor="start" x="8" y="-114.5" font-family="Helvetica,sans-Serif" font-size="10.00">MatchingTagCorrector::</text>
<text text-anchor="middle" x="110.5" y="-103.5" font-family="Helvetica,sans-Serif" font-size="10.00">RecountExpectationMatchingTagCorrector</text>
</a>
</g>
</g>
<!-- Node18&#45;&gt;Node22 -->
<g id="edge22_Node000018_Node000022" class="edge">
<title>Node18&#45;&gt;Node22</title>
<g id="a_edge22_Node000018_Node000022"><a xlink:title=" ">
<path fill="none" stroke="#63b8ff" d="M286.62,-158.58C258.87,-151.99 227.03,-144.43 198.17,-137.58"/>
<polygon fill="#63b8ff" stroke="#63b8ff" points="286.11,-162.05 296.65,-160.96 287.73,-155.24 286.11,-162.05"/>
</a>
</g>
</g>
<!-- Node23 -->
<g id="Node000023" class="node">
<title>Node23</title>
<g id="a_Node000023"><a xlink:href="classcbrc_1_1RecountTagCounts.html#a1c6886197666587c048ae6bb0bc543e9" target="_top" xlink:title=" ">
<polygon fill="white" stroke="#666666" points="177,-78 44,-78 44,-48 177,-48 177,-78"/>
<text text-anchor="start" x="52" y="-66" font-family="Helvetica,sans-Serif" font-size="10.00">cbrc::RecountTagCounts</text>
<text text-anchor="middle" x="110.5" y="-55" font-family="Helvetica,sans-Serif" font-size="10.00">::RecountTagCounts</text>
</a>
</g>
</g>
<!-- Node18&#45;&gt;Node23 -->
<g id="edge23_Node000018_Node000023" class="edge">
<title>Node18&#45;&gt;Node23</title>
<g id="a_edge23_Node000018_Node000023"><a xlink:title=" ">
<path fill="none" stroke="#63b8ff" d="M332.83,-154.44C305.92,-134.13 262.81,-104.31 221,-87 207.24,-81.3 191.93,-76.87 177.22,-73.45"/>
<polygon fill="#63b8ff" stroke="#63b8ff" points="330.9,-157.37 340.97,-160.67 335.16,-151.81 330.9,-157.37"/>
</a>
</g>
</g>
<!-- Node24 -->
<g id="Node000024" class="node">
<title>Node24</title>
<g id="a_Node000024"><a xlink:href="classcbrc_1_1RecountTagCounts.html#afd181bd3aaaca369cff15ed120874122" target="_top" xlink:title=" ">
<polygon fill="white" stroke="#666666" points="177,-30 44,-30 44,0 177,0 177,-30"/>
<text text-anchor="start" x="52" y="-18" font-family="Helvetica,sans-Serif" font-size="10.00">cbrc::RecountTagCounts</text>
<text text-anchor="middle" x="110.5" y="-7" font-family="Helvetica,sans-Serif" font-size="10.00">::RecountTagCounts</text>
</a>
</g>
</g>
<!-- Node18&#45;&gt;Node24 -->
<g id="edge24_Node000018_Node000024" class="edge">
<title>Node18&#45;&gt;Node24</title>
<g id="a_edge24_Node000018_Node000024"><a xlink:title=" ">
<path fill="none" stroke="#63b8ff" d="M343.29,-152.77C319.68,-121.78 273.54,-67.5 221,-39 207.57,-31.72 192.08,-26.64 177.06,-23.11"/>
<polygon fill="#63b8ff" stroke="#63b8ff" points="340.54,-154.95 349.33,-160.86 346.15,-150.75 340.54,-154.95"/>
</a>
</g>
</g>
</g>
</svg>
