<?xml version="1.0" encoding="UTF-8" standalone="no"?>
<!DOCTYPE svg PUBLIC "-//W3C//DTD SVG 1.1//EN"
 "http://www.w3.org/Graphics/SVG/1.1/DTD/svg11.dtd">
<!-- Generated by graphviz version 2.43.0 (0)
 -->
<!-- Title: cbrc::StringSpecEnum::possibleValues Pages: 1 -->
<svg width="446pt" height="134pt"
 viewBox="0.00 0.00 446.00 134.00" xmlns="http://www.w3.org/2000/svg" xmlns:xlink="http://www.w3.org/1999/xlink">
<g id="graph0" class="graph" transform="scale(1 1) rotate(0) translate(4 130)">
<title>cbrc::StringSpecEnum::possibleValues</title>
<!-- Node1 -->
<g id="Node000001" class="node">
<title>Node1</title>
<g id="a_Node000001"><a xlink:title=" ">
<polygon fill="#999999" stroke="#666666" points="438,-78 316,-78 316,-48 438,-48 438,-78"/>
<text text-anchor="start" x="324" y="-66" font-family="Helvetica,sans-Serif" font-size="10.00">cbrc::StringSpecEnum</text>
<text text-anchor="middle" x="377" y="-55" font-family="Helvetica,sans-Serif" font-size="10.00">::possibleValues</text>
</a>
</g>
</g>
<!-- Node2 -->
<g id="Node000002" class="node">
<title>Node2</title>
<g id="a_Node000002"><a xlink:href="classcbrc_1_1StringSpecEnum.html#a83e64e6f5bcc7c2f0c238b1d3c194ea1" target="_top" xlink:title=" ">
<polygon fill="white" stroke="#666666" points="280,-126 158,-126 158,-96 280,-96 280,-126"/>
<text text-anchor="start" x="166" y="-114" font-family="Helvetica,sans-Serif" font-size="10.00">cbrc::StringSpecEnum</text>
<text text-anchor="middle" x="219" y="-103" font-family="Helvetica,sans-Serif" font-size="10.00">::index</text>
</a>
</g>
</g>
<!-- Node1&#45;&gt;Node2 -->
<g id="edge1_Node000001_Node000002" class="edge">
<title>Node1&#45;&gt;Node2</title>
<g id="a_edge1_Node000001_Node000002"><a xlink:title=" ">
<path fill="none" stroke="#63b8ff" d="M317.28,-81.07C301.29,-85.99 284.14,-91.27 268.76,-96"/>
<polygon fill="#63b8ff" stroke="#63b8ff" points="318.54,-84.34 327.07,-78.06 316.48,-77.65 318.54,-84.34"/>
</a>
</g>
</g>
<!-- Node4 -->
<g id="Node000004" class="node">
<title>Node4</title>
<g id="a_Node000004"><a xlink:href="classcbrc_1_1StringSpecEnum.html#a9c65f6ddc8c3268add10484871c604ac" target="_top" xlink:title=" ">
<polygon fill="white" stroke="#666666" points="280,-78 158,-78 158,-48 280,-48 280,-78"/>
<text text-anchor="start" x="166" y="-66" font-family="Helvetica,sans-Serif" font-size="10.00">cbrc::StringSpecEnum</text>
<text text-anchor="middle" x="219" y="-55" font-family="Helvetica,sans-Serif" font-size="10.00">::size</text>
</a>
</g>
</g>
<!-- Node1&#45;&gt;Node4 -->
<g id="edge3_Node000001_Node000004" class="edge">
<title>Node1&#45;&gt;Node4</title>
<g id="a_edge3_Node000001_Node000004"><a xlink:title=" ">
<path fill="none" stroke="#63b8ff" d="M305.46,-63C297.01,-63 288.44,-63 280.15,-63"/>
<polygon fill="#63b8ff" stroke="#63b8ff" points="305.69,-66.5 315.69,-63 305.69,-59.5 305.69,-66.5"/>
</a>
</g>
</g>
<!-- Node6 -->
<g id="Node000006" class="node">
<title>Node6</title>
<g id="a_Node000006"><a xlink:href="classcbrc_1_1StringSpecEnum.html#a61daa033771b8ef9b2cc8c476b920d34" target="_top" xlink:title=" ">
<polygon fill="white" stroke="#666666" points="280,-30 158,-30 158,0 280,0 280,-30"/>
<text text-anchor="start" x="166" y="-18" font-family="Helvetica,sans-Serif" font-size="10.00">cbrc::StringSpecEnum</text>
<text text-anchor="middle" x="219" y="-7" font-family="Helvetica,sans-Serif" font-size="10.00">::StringSpecEnum</text>
</a>
</g>
</g>
<!-- Node1&#45;&gt;Node6 -->
<g id="edge6_Node000001_Node000006" class="edge">
<title>Node1&#45;&gt;Node6</title>
<g id="a_edge6_Node000001_Node000006"><a xlink:title=" ">
<path fill="none" stroke="#63b8ff" d="M317.28,-44.93C301.29,-40.01 284.14,-34.73 268.76,-30"/>
<polygon fill="#63b8ff" stroke="#63b8ff" points="316.48,-48.35 327.07,-47.94 318.54,-41.66 316.48,-48.35"/>
</a>
</g>
</g>
<!-- Node3 -->
<g id="Node000003" class="node">
<title>Node3</title>
<g id="a_Node000003"><a xlink:href="classcbrc_1_1StringSpecEnum.html#af4e66ead389c59cae50e4c2bdc045bcb" target="_top" xlink:title=" ">
<polygon fill="white" stroke="#666666" points="122,-126 0,-126 0,-96 122,-96 122,-126"/>
<text text-anchor="start" x="8" y="-114" font-family="Helvetica,sans-Serif" font-size="10.00">cbrc::StringSpecEnum</text>
<text text-anchor="middle" x="61" y="-103" font-family="Helvetica,sans-Serif" font-size="10.00">::operator==</text>
</a>
</g>
</g>
<!-- Node2&#45;&gt;Node3 -->
<g id="edge2_Node000002_Node000003" class="edge">
<title>Node2&#45;&gt;Node3</title>
<g id="a_edge2_Node000002_Node000003"><a xlink:title=" ">
<path fill="none" stroke="#63b8ff" d="M147.46,-111C139.01,-111 130.44,-111 122.15,-111"/>
<polygon fill="#63b8ff" stroke="#63b8ff" points="147.69,-114.5 157.69,-111 147.69,-107.5 147.69,-114.5"/>
</a>
</g>
</g>
<!-- Node4&#45;&gt;Node3 -->
<g id="edge5_Node000004_Node000003" class="edge">
<title>Node4&#45;&gt;Node3</title>
<g id="a_edge5_Node000004_Node000003"><a xlink:title=" ">
<path fill="none" stroke="#63b8ff" d="M159.28,-81.07C143.29,-85.99 126.14,-91.27 110.76,-96"/>
<polygon fill="#63b8ff" stroke="#63b8ff" points="160.54,-84.34 169.07,-78.06 158.48,-77.65 160.54,-84.34"/>
</a>
</g>
</g>
<!-- Node5 -->
<g id="Node000005" class="node">
<title>Node5</title>
<g id="a_Node000005"><a xlink:href="classcbrc_1_1StringSpecEnum.html#ae6423551e296a66381df1a580c9aefa6" target="_top" xlink:title=" ">
<polygon fill="white" stroke="#666666" points="122,-78 0,-78 0,-48 122,-48 122,-78"/>
<text text-anchor="start" x="8" y="-66" font-family="Helvetica,sans-Serif" font-size="10.00">cbrc::StringSpecEnum</text>
<text text-anchor="middle" x="61" y="-55" font-family="Helvetica,sans-Serif" font-size="10.00">::isInitialized</text>
</a>
</g>
</g>
<!-- Node4&#45;&gt;Node5 -->
<g id="edge4_Node000004_Node000005" class="edge">
<title>Node4&#45;&gt;Node5</title>
<g id="a_edge4_Node000004_Node000005"><a xlink:title=" ">
<path fill="none" stroke="#63b8ff" d="M147.46,-63C139.01,-63 130.44,-63 122.15,-63"/>
<polygon fill="#63b8ff" stroke="#63b8ff" points="147.69,-66.5 157.69,-63 147.69,-59.5 147.69,-66.5"/>
</a>
</g>
</g>
</g>
</svg>
