<?xml version="1.0" encoding="UTF-8" standalone="no"?>
<!DOCTYPE svg PUBLIC "-//W3C//DTD SVG 1.1//EN"
 "http://www.w3.org/Graphics/SVG/1.1/DTD/svg11.dtd">
<!-- Generated by graphviz version 2.43.0 (0)
 -->
<!-- Title: cbrc::FLEArray::_validRange Pages: 1 -->
<svg width="344pt" height="82pt"
 viewBox="0.00 0.00 344.00 82.00" xmlns="http://www.w3.org/2000/svg" xmlns:xlink="http://www.w3.org/1999/xlink">
<g id="graph0" class="graph" transform="scale(1 1) rotate(0) translate(4 78)">
<title>cbrc::FLEArray::_validRange</title>
<!-- Node1 -->
<g id="Node000001" class="node">
<title>Node1</title>
<g id="a_Node000001"><a xlink:title=" ">
<polygon fill="#999999" stroke="#666666" points="152,-46 0,-46 0,-27 152,-27 152,-46"/>
<text text-anchor="middle" x="76" y="-34" font-family="Helvetica,sans-Serif" font-size="10.00">cbrc::FLEArray::_validRange</text>
</a>
</g>
</g>
<!-- Node2 -->
<g id="Node000002" class="node">
<title>Node2</title>
<g id="a_Node000002"><a xlink:href="classcbrc_1_1FLEArray.html#a0a06120b85cf875ccff4081918fe0f33" target="_top" xlink:title=" ">
<polygon fill="white" stroke="#666666" points="336,-74 188,-74 188,-55 336,-55 336,-74"/>
<text text-anchor="middle" x="262" y="-62" font-family="Helvetica,sans-Serif" font-size="10.00">cbrc::FLEArray::_validIndex</text>
</a>
</g>
</g>
<!-- Node1&#45;&gt;Node2 -->
<g id="edge1_Node000001_Node000002" class="edge">
<title>Node1&#45;&gt;Node2</title>
<g id="a_edge1_Node000001_Node000002"><a xlink:title=" ">
<path fill="none" stroke="#63b8ff" d="M139.55,-46.02C155.25,-48.41 172.24,-50.99 188.38,-53.45"/>
<polygon fill="#63b8ff" stroke="#63b8ff" points="187.9,-56.92 198.31,-54.96 188.95,-50 187.9,-56.92"/>
</a>
</g>
</g>
<!-- Node3 -->
<g id="Node000003" class="node">
<title>Node3</title>
<g id="a_Node000003"><a xlink:href="classcbrc_1_1FLEArray.html#a5368c7c0434bd5c119d2cbb39f4b399e" target="_top" xlink:title=" ">
<polygon fill="white" stroke="#666666" points="329.5,-19 194.5,-19 194.5,0 329.5,0 329.5,-19"/>
<text text-anchor="middle" x="262" y="-7" font-family="Helvetica,sans-Serif" font-size="10.00">cbrc::FLEArray::FLEArray</text>
</a>
</g>
</g>
<!-- Node1&#45;&gt;Node3 -->
<g id="edge2_Node000001_Node000003" class="edge">
<title>Node1&#45;&gt;Node3</title>
<g id="a_edge2_Node000001_Node000003"><a xlink:title=" ">
<path fill="none" stroke="#63b8ff" d="M141.87,-26.98C156.16,-24.88 171.41,-22.65 186.07,-20.5"/>
<polygon fill="#63b8ff" stroke="#63b8ff" points="186.71,-23.94 196.09,-19.02 185.69,-17.01 186.71,-23.94"/>
</a>
</g>
</g>
<!-- Node3&#45;&gt;Node3 -->
<g id="edge3_Node000003_Node000003" class="edge">
<title>Node3&#45;&gt;Node3</title>
<g id="a_edge3_Node000003_Node000003"><a xlink:title=" ">
<path fill="none" stroke="#63b8ff" d="M233.33,-19.08C219.39,-27.73 228.94,-37 262,-37 284.73,-37 296.35,-32.62 296.86,-27.07"/>
<polygon fill="#63b8ff" stroke="#63b8ff" points="299.56,-24.84 290.67,-19.08 294.03,-29.13 299.56,-24.84"/>
</a>
</g>
</g>
</g>
</svg>
