<?xml version="1.0" encoding="UTF-8" standalone="no"?>
<!DOCTYPE svg PUBLIC "-//W3C//DTD SVG 1.1//EN"
 "http://www.w3.org/Graphics/SVG/1.1/DTD/svg11.dtd">
<!-- Generated by graphviz version 2.43.0 (0)
 -->
<!-- Title: cbrc::ResidueIndexMap::toResidues Pages: 1 -->
<svg width="629pt" height="88pt"
 viewBox="0.00 0.00 629.00 87.50" xmlns="http://www.w3.org/2000/svg" xmlns:xlink="http://www.w3.org/1999/xlink">
<g id="graph0" class="graph" transform="scale(1 1) rotate(0) translate(4 83.5)">
<title>cbrc::ResidueIndexMap::toResidues</title>
<!-- Node1 -->
<g id="Node000001" class="node">
<title>Node1</title>
<g id="a_Node000001"><a xlink:title=" ">
<polygon fill="#999999" stroke="#666666" points="130,-30 0,-30 0,0 130,0 130,-30"/>
<text text-anchor="start" x="8" y="-18" font-family="Helvetica,sans-Serif" font-size="10.00">cbrc::ResidueIndexMap</text>
<text text-anchor="middle" x="65" y="-7" font-family="Helvetica,sans-Serif" font-size="10.00">::toResidues</text>
</a>
</g>
</g>
<!-- Node2 -->
<g id="Node000002" class="node">
<title>Node2</title>
<g id="a_Node000002"><a xlink:href="classcbrc_1_1FLEArray.html#ad003950bdededca7ee3b3dd6cd6ea644" target="_top" xlink:title=" ">
<polygon fill="white" stroke="#666666" points="287,-43.5 166,-43.5 166,-24.5 287,-24.5 287,-43.5"/>
<text text-anchor="middle" x="226.5" y="-31.5" font-family="Helvetica,sans-Serif" font-size="10.00">cbrc::FLEArray::resize</text>
</a>
</g>
</g>
<!-- Node1&#45;&gt;Node2 -->
<g id="edge1_Node000001_Node000002" class="edge">
<title>Node1&#45;&gt;Node2</title>
<g id="a_edge1_Node000001_Node000002"><a xlink:title=" ">
<path fill="none" stroke="#63b8ff" d="M130.42,-22.67C138.71,-23.66 147.24,-24.68 155.62,-25.68"/>
<polygon fill="#63b8ff" stroke="#63b8ff" points="155.4,-29.17 165.75,-26.88 156.23,-22.22 155.4,-29.17"/>
</a>
</g>
</g>
<!-- Node5 -->
<g id="Node000005" class="node">
<title>Node5</title>
<g id="a_Node000005"><a xlink:href="classcbrc_1_1FLEArray.html#ad71311380d762114c9e0f3b0dda38b7c" target="_top" xlink:title=" ">
<polygon fill="white" stroke="#666666" points="609,-24.5 498,-24.5 498,-5.5 609,-5.5 609,-24.5"/>
<text text-anchor="middle" x="553.5" y="-12.5" font-family="Helvetica,sans-Serif" font-size="10.00">cbrc::FLEArray::size</text>
</a>
</g>
</g>
<!-- Node1&#45;&gt;Node5 -->
<g id="edge7_Node000001_Node000005" class="edge">
<title>Node1&#45;&gt;Node5</title>
<g id="a_edge7_Node000001_Node000005"><a xlink:title=" ">
<path fill="none" stroke="#63b8ff" d="M130.1,-15C222.99,-15 394.08,-15 487.48,-15"/>
<polygon fill="#63b8ff" stroke="#63b8ff" points="487.65,-18.5 497.65,-15 487.65,-11.5 487.65,-18.5"/>
</a>
</g>
</g>
<!-- Node3 -->
<g id="Node000003" class="node">
<title>Node3</title>
<g id="a_Node000003"><a xlink:href="classcbrc_1_1FLEArray.html#a5368c7c0434bd5c119d2cbb39f4b399e" target="_top" xlink:title=" ">
<polygon fill="white" stroke="#666666" points="621,-61.5 486,-61.5 486,-42.5 621,-42.5 621,-61.5"/>
<text text-anchor="middle" x="553.5" y="-49.5" font-family="Helvetica,sans-Serif" font-size="10.00">cbrc::FLEArray::FLEArray</text>
</a>
</g>
</g>
<!-- Node2&#45;&gt;Node3 -->
<g id="edge2_Node000002_Node000003" class="edge">
<title>Node2&#45;&gt;Node3</title>
<g id="a_edge2_Node000002_Node000003"><a xlink:title=" ">
<path fill="none" stroke="#63b8ff" d="M266.27,-43.51C283.52,-47.28 304.16,-51.14 323,-53 373.67,-57.99 430.95,-57.75 475.6,-56.26"/>
<polygon fill="#63b8ff" stroke="#63b8ff" points="475.93,-59.75 485.8,-55.89 475.68,-52.75 475.93,-59.75"/>
</a>
</g>
</g>
<!-- Node4 -->
<g id="Node000004" class="node">
<title>Node4</title>
<g id="a_Node000004"><a xlink:href="classcbrc_1_1FLEArray.html#a5f10f892188c41f2821ef33ee9bcc743" target="_top" xlink:title=" ">
<polygon fill="white" stroke="#666666" points="450,-43.5 323,-43.5 323,-24.5 450,-24.5 450,-43.5"/>
<text text-anchor="middle" x="386.5" y="-31.5" font-family="Helvetica,sans-Serif" font-size="10.00">cbrc::FLEArray::setSize</text>
</a>
</g>
</g>
<!-- Node2&#45;&gt;Node4 -->
<g id="edge4_Node000002_Node000004" class="edge">
<title>Node2&#45;&gt;Node4</title>
<g id="a_edge4_Node000002_Node000004"><a xlink:title=" ">
<path fill="none" stroke="#63b8ff" d="M287.23,-34C295.5,-34 304.06,-34 312.53,-34"/>
<polygon fill="#63b8ff" stroke="#63b8ff" points="312.79,-37.5 322.79,-34 312.79,-30.5 312.79,-37.5"/>
</a>
</g>
</g>
<!-- Node3&#45;&gt;Node3 -->
<g id="edge3_Node000003_Node000003" class="edge">
<title>Node3&#45;&gt;Node3</title>
<g id="a_edge3_Node000003_Node000003"><a xlink:title=" ">
<path fill="none" stroke="#63b8ff" d="M527.91,-61.58C515.47,-70.23 524,-79.5 553.5,-79.5 572.86,-79.5 583.19,-75.51 584.49,-70.32"/>
<polygon fill="#63b8ff" stroke="#63b8ff" points="587.32,-68.25 579.09,-61.58 581.37,-71.93 587.32,-68.25"/>
</a>
</g>
</g>
<!-- Node4&#45;&gt;Node3 -->
<g id="edge5_Node000004_Node000003" class="edge">
<title>Node4&#45;&gt;Node3</title>
<g id="a_edge5_Node000004_Node000003"><a xlink:title=" ">
<path fill="none" stroke="#63b8ff" d="M450.35,-40.86C458.73,-41.77 467.39,-42.72 475.97,-43.65"/>
<polygon fill="#63b8ff" stroke="#63b8ff" points="475.66,-47.14 485.98,-44.74 476.42,-40.18 475.66,-47.14"/>
</a>
</g>
</g>
<!-- Node4&#45;&gt;Node5 -->
<g id="edge6_Node000004_Node000005" class="edge">
<title>Node4&#45;&gt;Node5</title>
<g id="a_edge6_Node000004_Node000005"><a xlink:title=" ">
<path fill="none" stroke="#63b8ff" d="M450.35,-26.76C462.59,-25.35 475.44,-23.87 487.74,-22.46"/>
<polygon fill="#63b8ff" stroke="#63b8ff" points="488.38,-25.91 497.91,-21.29 487.58,-18.95 488.38,-25.91"/>
</a>
</g>
</g>
</g>
</svg>
