<?xml version="1.0" encoding="UTF-8" standalone="no"?>
<!DOCTYPE svg PUBLIC "-//W3C//DTD SVG 1.1//EN"
 "http://www.w3.org/Graphics/SVG/1.1/DTD/svg11.dtd">
<!-- Generated by graphviz version 2.43.0 (0)
 -->
<!-- Title: cbrc::FLEArray::FLEArray Pages: 1 -->
<svg width="793pt" height="141pt"
 viewBox="0.00 0.00 793.00 141.00" xmlns="http://www.w3.org/2000/svg" xmlns:xlink="http://www.w3.org/1999/xlink">
<g id="graph0" class="graph" transform="scale(1 1) rotate(0) translate(4 137)">
<title>cbrc::FLEArray::FLEArray</title>
<!-- Node1 -->
<g id="Node000001" class="node">
<title>Node1</title>
<g id="a_Node000001"><a xlink:title=" ">
<polygon fill="#999999" stroke="#666666" points="135,-85 0,-85 0,-66 135,-66 135,-85"/>
<text text-anchor="middle" x="67.5" y="-73" font-family="Helvetica,sans-Serif" font-size="10.00">cbrc::FLEArray::FLEArray</text>
</a>
</g>
</g>
<!-- Node2 -->
<g id="Node000002" class="node">
<title>Node2</title>
<g id="a_Node000002"><a xlink:href="classcbrc_1_1FLEArray.html#ae694e1e61ed6cb9dcc8962f3027ecfbf" target="_top" xlink:title=" ">
<polygon fill="white" stroke="#666666" points="294,-85 171,-85 171,-66 294,-66 294,-85"/>
<text text-anchor="middle" x="232.5" y="-73" font-family="Helvetica,sans-Serif" font-size="10.00">cbrc::FLEArray::assign</text>
</a>
</g>
</g>
<!-- Node1&#45;&gt;Node2 -->
<g id="edge1_Node000001_Node000002" class="edge">
<title>Node1&#45;&gt;Node2</title>
<g id="a_edge1_Node000001_Node000002"><a xlink:title=" ">
<path fill="none" stroke="#63b8ff" d="M135.27,-75.5C143.64,-75.5 152.23,-75.5 160.67,-75.5"/>
<polygon fill="#63b8ff" stroke="#63b8ff" points="160.86,-79 170.86,-75.5 160.86,-72 160.86,-79"/>
</a>
</g>
</g>
<!-- Node3 -->
<g id="Node000003" class="node">
<title>Node3</title>
<g id="a_Node000003"><a xlink:href="classcbrc_1_1FLEArray.html#a7e5d0d3bc5c41546620ccff95b55b3fa" target="_top" xlink:title=" ">
<polygon fill="white" stroke="#666666" points="450,-133 331,-133 331,-114 450,-114 450,-133"/>
<text text-anchor="middle" x="390.5" y="-121" font-family="Helvetica,sans-Serif" font-size="10.00">cbrc::FLEArray::begin</text>
</a>
</g>
</g>
<!-- Node1&#45;&gt;Node3 -->
<g id="edge11_Node000001_Node000003" class="edge">
<title>Node1&#45;&gt;Node3</title>
<g id="a_edge11_Node000001_Node000003"><a xlink:title=" ">
<path fill="none" stroke="#63b8ff" d="M117.16,-85.05C134.16,-88.24 153.39,-91.7 171,-94.5 221.03,-102.45 277.75,-109.93 320.86,-115.31"/>
<polygon fill="#63b8ff" stroke="#63b8ff" points="320.6,-118.8 330.96,-116.56 321.46,-111.85 320.6,-118.8"/>
</a>
</g>
</g>
<!-- Node4 -->
<g id="Node000004" class="node">
<title>Node4</title>
<g id="a_Node000004"><a xlink:href="classcbrc_1_1FLEArray.html#a8c53878dc57e8f666976e041d146a523" target="_top" xlink:title=" ">
<polygon fill="white" stroke="#666666" points="445.5,-20 335.5,-20 335.5,-1 445.5,-1 445.5,-20"/>
<text text-anchor="middle" x="390.5" y="-8" font-family="Helvetica,sans-Serif" font-size="10.00">cbrc::FLEArray::end</text>
</a>
</g>
</g>
<!-- Node1&#45;&gt;Node4 -->
<g id="edge12_Node000001_Node000004" class="edge">
<title>Node1&#45;&gt;Node4</title>
<g id="a_edge12_Node000001_Node000004"><a xlink:title=" ">
<path fill="none" stroke="#63b8ff" d="M115.52,-65.98C173.09,-54.32 270.54,-34.59 332.37,-22.07"/>
<polygon fill="#63b8ff" stroke="#63b8ff" points="333.25,-25.46 342.35,-20.05 331.86,-18.6 333.25,-25.46"/>
</a>
</g>
</g>
<!-- Node2&#45;&gt;Node3 -->
<g id="edge2_Node000002_Node000003" class="edge">
<title>Node2&#45;&gt;Node3</title>
<g id="a_edge2_Node000002_Node000003"><a xlink:title=" ">
<path fill="none" stroke="#63b8ff" d="M264.69,-85.1C288.82,-92.52 322.43,-102.86 348.69,-110.94"/>
<polygon fill="#63b8ff" stroke="#63b8ff" points="347.77,-114.32 358.36,-113.92 349.83,-107.63 347.77,-114.32"/>
</a>
</g>
</g>
<!-- Node2&#45;&gt;Node4 -->
<g id="edge3_Node000002_Node000004" class="edge">
<title>Node2&#45;&gt;Node4</title>
<g id="a_edge3_Node000002_Node000004"><a xlink:title=" ">
<path fill="none" stroke="#63b8ff" d="M251.67,-65.93C270.83,-56.05 302.04,-40.57 330,-29.5 335.49,-27.33 341.34,-25.22 347.14,-23.25"/>
<polygon fill="#63b8ff" stroke="#63b8ff" points="348.39,-26.52 356.79,-20.07 346.2,-19.87 348.39,-26.52"/>
</a>
</g>
</g>
<!-- Node5 -->
<g id="Node000005" class="node">
<title>Node5</title>
<g id="a_Node000005"><a xlink:href="classcbrc_1_1FLEArray.html#a5368c7c0434bd5c119d2cbb39f4b399e" target="_top" xlink:title=" ">
<polygon fill="white" stroke="#666666" points="785,-57 650,-57 650,-38 785,-38 785,-57"/>
<text text-anchor="middle" x="717.5" y="-45" font-family="Helvetica,sans-Serif" font-size="10.00">cbrc::FLEArray::FLEArray</text>
</a>
</g>
</g>
<!-- Node2&#45;&gt;Node5 -->
<g id="edge4_Node000002_Node000005" class="edge">
<title>Node2&#45;&gt;Node5</title>
<g id="a_edge4_Node000002_Node000005"><a xlink:title=" ">
<path fill="none" stroke="#63b8ff" d="M294.24,-75.12C369.44,-74.21 501.38,-71.24 614,-61.5 623.8,-60.65 634.09,-59.53 644.22,-58.28"/>
<polygon fill="#63b8ff" stroke="#63b8ff" points="644.8,-61.74 654.28,-57 643.91,-54.79 644.8,-61.74"/>
</a>
</g>
</g>
<!-- Node6 -->
<g id="Node000006" class="node">
<title>Node6</title>
<g id="a_Node000006"><a xlink:href="classcbrc_1_1FLEArray.html#ad003950bdededca7ee3b3dd6cd6ea644" target="_top" xlink:title=" ">
<polygon fill="white" stroke="#666666" points="451,-57 330,-57 330,-38 451,-38 451,-57"/>
<text text-anchor="middle" x="390.5" y="-45" font-family="Helvetica,sans-Serif" font-size="10.00">cbrc::FLEArray::resize</text>
</a>
</g>
</g>
<!-- Node2&#45;&gt;Node6 -->
<g id="edge6_Node000002_Node000006" class="edge">
<title>Node2&#45;&gt;Node6</title>
<g id="a_edge6_Node000002_Node000006"><a xlink:title=" ">
<path fill="none" stroke="#63b8ff" d="M286.75,-65.94C299.55,-63.64 313.34,-61.17 326.54,-58.8"/>
<polygon fill="#63b8ff" stroke="#63b8ff" points="327.27,-62.23 336.49,-57.01 326.03,-55.34 327.27,-62.23"/>
</a>
</g>
</g>
<!-- Node5&#45;&gt;Node5 -->
<g id="edge5_Node000005_Node000005" class="edge">
<title>Node5&#45;&gt;Node5</title>
<g id="a_edge5_Node000005_Node000005"><a xlink:title=" ">
<path fill="none" stroke="#63b8ff" d="M691.91,-57.08C679.47,-65.73 688,-75 717.5,-75 736.86,-75 747.19,-71.01 748.49,-65.82"/>
<polygon fill="#63b8ff" stroke="#63b8ff" points="751.32,-63.75 743.09,-57.08 745.37,-67.43 751.32,-63.75"/>
</a>
</g>
</g>
<!-- Node6&#45;&gt;Node5 -->
<g id="edge7_Node000006_Node000005" class="edge">
<title>Node6&#45;&gt;Node5</title>
<g id="a_edge7_Node000006_Node000005"><a xlink:title=" ">
<path fill="none" stroke="#63b8ff" d="M451.11,-47.5C504.18,-47.5 582.13,-47.5 639.83,-47.5"/>
<polygon fill="#63b8ff" stroke="#63b8ff" points="639.99,-51 649.99,-47.5 639.99,-44 639.99,-51"/>
</a>
</g>
</g>
<!-- Node7 -->
<g id="Node000007" class="node">
<title>Node7</title>
<g id="a_Node000007"><a xlink:href="classcbrc_1_1FLEArray.html#a5f10f892188c41f2821ef33ee9bcc743" target="_top" xlink:title=" ">
<polygon fill="white" stroke="#666666" points="614,-19 487,-19 487,0 614,0 614,-19"/>
<text text-anchor="middle" x="550.5" y="-7" font-family="Helvetica,sans-Serif" font-size="10.00">cbrc::FLEArray::setSize</text>
</a>
</g>
</g>
<!-- Node6&#45;&gt;Node7 -->
<g id="edge8_Node000006_Node000007" class="edge">
<title>Node6&#45;&gt;Node7</title>
<g id="a_edge8_Node000006_Node000007"><a xlink:title=" ">
<path fill="none" stroke="#63b8ff" d="M431.37,-37.91C452.22,-32.9 477.93,-26.71 500.04,-21.39"/>
<polygon fill="#63b8ff" stroke="#63b8ff" points="501.01,-24.76 509.92,-19.02 499.38,-17.96 501.01,-24.76"/>
</a>
</g>
</g>
<!-- Node7&#45;&gt;Node5 -->
<g id="edge9_Node000007_Node000005" class="edge">
<title>Node7&#45;&gt;Node5</title>
<g id="a_edge9_Node000007_Node000005"><a xlink:title=" ">
<path fill="none" stroke="#63b8ff" d="M593.14,-19.09C615.01,-24.13 642.01,-30.34 665.16,-35.68"/>
<polygon fill="#63b8ff" stroke="#63b8ff" points="664.63,-39.15 675.16,-37.98 666.2,-32.32 664.63,-39.15"/>
</a>
</g>
</g>
<!-- Node8 -->
<g id="Node000008" class="node">
<title>Node8</title>
<g id="a_Node000008"><a xlink:href="classcbrc_1_1FLEArray.html#ad71311380d762114c9e0f3b0dda38b7c" target="_top" xlink:title=" ">
<polygon fill="white" stroke="#666666" points="773,-19 662,-19 662,0 773,0 773,-19"/>
<text text-anchor="middle" x="717.5" y="-7" font-family="Helvetica,sans-Serif" font-size="10.00">cbrc::FLEArray::size</text>
</a>
</g>
</g>
<!-- Node7&#45;&gt;Node8 -->
<g id="edge10_Node000007_Node000008" class="edge">
<title>Node7&#45;&gt;Node8</title>
<g id="a_edge10_Node000007_Node000008"><a xlink:title=" ">
<path fill="none" stroke="#63b8ff" d="M614.35,-9.5C626.59,-9.5 639.44,-9.5 651.74,-9.5"/>
<polygon fill="#63b8ff" stroke="#63b8ff" points="651.91,-13 661.91,-9.5 651.91,-6 651.91,-13"/>
</a>
</g>
</g>
</g>
</svg>
