<?xml version="1.0" encoding="UTF-8" standalone="no"?>
<!DOCTYPE svg PUBLIC "-//W3C//DTD SVG 1.1//EN"
 "http://www.w3.org/Graphics/SVG/1.1/DTD/svg11.dtd">
<!-- Generated by graphviz version 2.43.0 (0)
 -->
<!-- Title: cbrc::TagSet::toUnpackedSeq Pages: 1 -->
<svg width="700pt" height="98pt"
 viewBox="0.00 0.00 700.00 97.50" xmlns="http://www.w3.org/2000/svg" xmlns:xlink="http://www.w3.org/1999/xlink">
<g id="graph0" class="graph" transform="scale(1 1) rotate(0) translate(4 93.5)">
<title>cbrc::TagSet::toUnpackedSeq</title>
<!-- Node1 -->
<g id="Node000001" class="node">
<title>Node1</title>
<g id="a_Node000001"><a xlink:title=" ">
<polygon fill="#999999" stroke="#666666" points="692,-56 535,-56 535,-37 692,-37 692,-56"/>
<text text-anchor="middle" x="613.5" y="-44" font-family="Helvetica,sans-Serif" font-size="10.00">cbrc::TagSet::toUnpackedSeq</text>
</a>
</g>
</g>
<!-- Node2 -->
<g id="Node000002" class="node">
<title>Node2</title>
<g id="a_Node000002"><a xlink:href="classcbrc_1_1TagSet.html#a508d31c0fb9cfe0e9004be2434d99ce7" target="_top" xlink:title=" ">
<polygon fill="white" stroke="#666666" points="333,-89.5 169,-89.5 169,-59.5 333,-59.5 333,-89.5"/>
<text text-anchor="start" x="177" y="-77.5" font-family="Helvetica,sans-Serif" font-size="10.00">cbrc::TagSet::getSerialNumber</text>
<text text-anchor="middle" x="251" y="-66.5" font-family="Helvetica,sans-Serif" font-size="10.00">OrDie</text>
</a>
</g>
</g>
<!-- Node1&#45;&gt;Node2 -->
<g id="edge1_Node000001_Node000002" class="edge">
<title>Node1&#45;&gt;Node2</title>
<g id="a_edge1_Node000001_Node000002"><a xlink:title=" ">
<path fill="none" stroke="#63b8ff" d="M581.06,-59.72C558.64,-68.4 527.53,-78.97 499,-83.5 444.12,-92.22 381.56,-89.81 333.13,-85.31"/>
<polygon fill="#63b8ff" stroke="#63b8ff" points="582.4,-62.95 590.4,-56.01 579.82,-56.44 582.4,-62.95"/>
</a>
</g>
</g>
<!-- Node4 -->
<g id="Node000004" class="node">
<title>Node4</title>
<g id="a_Node000004"><a xlink:href="classcbrc_1_1TagSet.html#a62b898d6f4e817ece03e74ca3cddd166" target="_top" xlink:title=" ">
<polygon fill="white" stroke="#666666" points="483,-56 385,-56 385,-37 483,-37 483,-56"/>
<text text-anchor="middle" x="434" y="-44" font-family="Helvetica,sans-Serif" font-size="10.00">cbrc::TagSet::has</text>
</a>
</g>
</g>
<!-- Node1&#45;&gt;Node4 -->
<g id="edge3_Node000001_Node000004" class="edge">
<title>Node1&#45;&gt;Node4</title>
<g id="a_edge3_Node000001_Node000004"><a xlink:title=" ">
<path fill="none" stroke="#63b8ff" d="M524.53,-46.5C510.24,-46.5 495.92,-46.5 483.06,-46.5"/>
<polygon fill="#63b8ff" stroke="#63b8ff" points="524.9,-50 534.9,-46.5 524.9,-43 524.9,-50"/>
</a>
</g>
</g>
<!-- Node5 -->
<g id="Node000005" class="node">
<title>Node5</title>
<g id="a_Node000005"><a xlink:href="classcbrc_1_1TagSet.html#a6d7f20d75ae8b9d5a4a74f1476bddcb6" target="_top" xlink:title=" ">
<polygon fill="white" stroke="#666666" points="499,-19 369,-19 369,0 499,0 499,-19"/>
<text text-anchor="middle" x="434" y="-7" font-family="Helvetica,sans-Serif" font-size="10.00">cbrc::TagSet::operator()</text>
</a>
</g>
</g>
<!-- Node1&#45;&gt;Node5 -->
<g id="edge6_Node000001_Node000005" class="edge">
<title>Node1&#45;&gt;Node5</title>
<g id="a_edge6_Node000001_Node000005"><a xlink:title=" ">
<path fill="none" stroke="#63b8ff" d="M556.93,-34.92C532.47,-29.82 504.09,-23.9 480.86,-19.06"/>
<polygon fill="#63b8ff" stroke="#63b8ff" points="556.29,-38.36 566.79,-36.97 557.71,-31.5 556.29,-38.36"/>
</a>
</g>
</g>
<!-- Node3 -->
<g id="Node000003" class="node">
<title>Node3</title>
<g id="a_Node000003"><a xlink:href="classcbrc_1_1RecountTagCounts.html#a5e025f710ef06a603501aeead7a98924" target="_top" xlink:title=" ">
<polygon fill="white" stroke="#666666" points="133,-89.5 0,-89.5 0,-59.5 133,-59.5 133,-89.5"/>
<text text-anchor="start" x="8" y="-77.5" font-family="Helvetica,sans-Serif" font-size="10.00">cbrc::RecountTagCounts</text>
<text text-anchor="middle" x="66.5" y="-66.5" font-family="Helvetica,sans-Serif" font-size="10.00">::RecountTagCounts</text>
</a>
</g>
</g>
<!-- Node2&#45;&gt;Node3 -->
<g id="edge2_Node000002_Node000003" class="edge">
<title>Node2&#45;&gt;Node3</title>
<g id="a_edge2_Node000002_Node000003"><a xlink:title=" ">
<path fill="none" stroke="#63b8ff" d="M158.73,-74.5C150.06,-74.5 141.39,-74.5 133.04,-74.5"/>
<polygon fill="#63b8ff" stroke="#63b8ff" points="158.89,-78 168.89,-74.5 158.89,-71 158.89,-78"/>
</a>
</g>
</g>
<!-- Node4&#45;&gt;Node2 -->
<g id="edge4_Node000004_Node000002" class="edge">
<title>Node4&#45;&gt;Node2</title>
<g id="a_edge4_Node000004_Node000002"><a xlink:title=" ">
<path fill="none" stroke="#63b8ff" d="M375.01,-55.47C361.68,-57.53 347.27,-59.76 333.16,-61.94"/>
<polygon fill="#63b8ff" stroke="#63b8ff" points="375.62,-58.92 384.97,-53.93 374.55,-52 375.62,-58.92"/>
</a>
</g>
</g>
<!-- Node4&#45;&gt;Node4 -->
<g id="edge5_Node000004_Node000004" class="edge">
<title>Node4&#45;&gt;Node4</title>
<g id="a_edge5_Node000004_Node000004"><a xlink:title=" ">
<path fill="none" stroke="#63b8ff" d="M467.31,-64.45C466.36,-69.82 455.26,-74 434,-74 402.36,-74 393.22,-64.73 406.57,-56.08"/>
<polygon fill="#63b8ff" stroke="#63b8ff" points="470.05,-62.26 461.43,-56.08 464.32,-66.28 470.05,-62.26"/>
</a>
</g>
</g>
</g>
</svg>
