<?xml version="1.0" encoding="UTF-8" standalone="no"?>
<!DOCTYPE svg PUBLIC "-//W3C//DTD SVG 1.1//EN"
 "http://www.w3.org/Graphics/SVG/1.1/DTD/svg11.dtd">
<!-- Generated by graphviz version 2.43.0 (0)
 -->
<!-- Title: cbrc::BitMatrix::writeAsPbm Pages: 1 -->
<svg width="646pt" height="156pt"
 viewBox="0.00 0.00 646.00 156.00" xmlns="http://www.w3.org/2000/svg" xmlns:xlink="http://www.w3.org/1999/xlink">
<g id="graph0" class="graph" transform="scale(1 1) rotate(0) translate(4 152)">
<title>cbrc::BitMatrix::writeAsPbm</title>
<!-- Node1 -->
<g id="Node000001" class="node">
<title>Node1</title>
<g id="a_Node000001"><a xlink:title=" ">
<polygon fill="#999999" stroke="#666666" points="152,-92 0,-92 0,-73 152,-73 152,-92"/>
<text text-anchor="middle" x="76" y="-80" font-family="Helvetica,sans-Serif" font-size="10.00">cbrc::BitMatrix::writeAsPbm</text>
</a>
</g>
</g>
<!-- Node2 -->
<g id="Node000002" class="node">
<title>Node2</title>
<g id="a_Node000002"><a xlink:href="classcbrc_1_1BitMatrix.html#a99dc4fe5e1aecf096d0af34f2d128552" target="_top" xlink:title=" ">
<polygon fill="white" stroke="#666666" points="322.5,-148 203.5,-148 203.5,-129 322.5,-129 322.5,-148"/>
<text text-anchor="middle" x="263" y="-136" font-family="Helvetica,sans-Serif" font-size="10.00">cbrc::BitMatrix::size0</text>
</a>
</g>
</g>
<!-- Node1&#45;&gt;Node2 -->
<g id="edge1_Node000001_Node000002" class="edge">
<title>Node1&#45;&gt;Node2</title>
<g id="a_edge1_Node000001_Node000002"><a xlink:title=" ">
<path fill="none" stroke="#63b8ff" d="M102.8,-92.08C125.16,-100.2 158.48,-111.88 188,-120.5 195.15,-122.59 202.73,-124.63 210.22,-126.54"/>
<polygon fill="#63b8ff" stroke="#63b8ff" points="209.4,-129.94 219.95,-128.98 211.1,-123.15 209.4,-129.94"/>
</a>
</g>
</g>
<!-- Node3 -->
<g id="Node000003" class="node">
<title>Node3</title>
<g id="a_Node000003"><a xlink:href="classcbrc_1_1BitMatrix.html#a83ec74211d9b66d2ababbe5d66692767" target="_top" xlink:title=" ">
<polygon fill="white" stroke="#666666" points="322.5,-111 203.5,-111 203.5,-92 322.5,-92 322.5,-111"/>
<text text-anchor="middle" x="263" y="-99" font-family="Helvetica,sans-Serif" font-size="10.00">cbrc::BitMatrix::size1</text>
</a>
</g>
</g>
<!-- Node1&#45;&gt;Node3 -->
<g id="edge2_Node000001_Node000003" class="edge">
<title>Node1&#45;&gt;Node3</title>
<g id="a_edge2_Node000001_Node000003"><a xlink:title=" ">
<path fill="none" stroke="#63b8ff" d="M152.25,-90.23C165.8,-91.62 179.86,-93.06 193.22,-94.44"/>
<polygon fill="#63b8ff" stroke="#63b8ff" points="192.97,-97.93 203.27,-95.47 193.68,-90.97 192.97,-97.93"/>
</a>
</g>
</g>
<!-- Node4 -->
<g id="Node000004" class="node">
<title>Node4</title>
<g id="a_Node000004"><a xlink:href="classcbrc_1_1BitMatrix.html#a0d367fab4a0e24051180d6f07d3723b1" target="_top" xlink:title=" ">
<polygon fill="white" stroke="#666666" points="338,-74 188,-74 188,-55 338,-55 338,-74"/>
<text text-anchor="middle" x="263" y="-62" font-family="Helvetica,sans-Serif" font-size="10.00">cbrc::BitMatrix::sizeInBytes</text>
</a>
</g>
</g>
<!-- Node1&#45;&gt;Node4 -->
<g id="edge3_Node000001_Node000004" class="edge">
<title>Node1&#45;&gt;Node4</title>
<g id="a_edge3_Node000001_Node000004"><a xlink:title=" ">
<path fill="none" stroke="#63b8ff" d="M152.25,-75.18C160.57,-74.37 169.08,-73.54 177.51,-72.72"/>
<polygon fill="#63b8ff" stroke="#63b8ff" points="178.11,-76.18 187.72,-71.73 177.43,-69.21 178.11,-76.18"/>
</a>
</g>
</g>
<!-- Node5 -->
<g id="Node000005" class="node">
<title>Node5</title>
<g id="a_Node000005"><a xlink:href="classcbrc_1_1FLEArray.html#a67f88b1303a55d4e8039da5a9a739203" target="_top" xlink:title=" ">
<polygon fill="white" stroke="#666666" points="321,-19 205,-19 205,0 321,0 321,-19"/>
<text text-anchor="middle" x="263" y="-7" font-family="Helvetica,sans-Serif" font-size="10.00">cbrc::FLEArray::write</text>
</a>
</g>
</g>
<!-- Node1&#45;&gt;Node5 -->
<g id="edge4_Node000001_Node000005" class="edge">
<title>Node1&#45;&gt;Node5</title>
<g id="a_edge4_Node000001_Node000005"><a xlink:title=" ">
<path fill="none" stroke="#63b8ff" d="M101.19,-72.96C133.73,-60.11 191.77,-37.21 228.51,-22.72"/>
<polygon fill="#63b8ff" stroke="#63b8ff" points="229.79,-25.97 237.81,-19.05 227.22,-19.46 229.79,-25.97"/>
</a>
</g>
</g>
<!-- Node5&#45;&gt;Node5 -->
<g id="edge7_Node000005_Node000005" class="edge">
<title>Node5&#45;&gt;Node5</title>
<g id="a_edge7_Node000005_Node000005"><a xlink:title=" ">
<path fill="none" stroke="#63b8ff" d="M237.11,-19.08C224.51,-27.73 233.14,-37 263,-37 283.06,-37 293.54,-32.82 294.44,-27.45"/>
<polygon fill="#63b8ff" stroke="#63b8ff" points="297.34,-25.49 288.89,-19.08 291.5,-29.35 297.34,-25.49"/>
</a>
</g>
</g>
<!-- Node6 -->
<g id="Node000006" class="node">
<title>Node6</title>
<g id="a_Node000006"><a xlink:href="classcbrc_1_1FLEArray.html#a8255bcefe055e10a4fccd3331b450fee" target="_top" xlink:title=" ">
<polygon fill="white" stroke="#666666" points="491,-19 374,-19 374,0 491,0 491,-19"/>
<text text-anchor="middle" x="432.5" y="-7" font-family="Helvetica,sans-Serif" font-size="10.00">cbrc::FLEArray::bsize</text>
</a>
</g>
</g>
<!-- Node5&#45;&gt;Node6 -->
<g id="edge5_Node000005_Node000006" class="edge">
<title>Node5&#45;&gt;Node6</title>
<g id="a_edge5_Node000005_Node000006"><a xlink:title=" ">
<path fill="none" stroke="#63b8ff" d="M321.18,-9.5C334.83,-9.5 349.53,-9.5 363.61,-9.5"/>
<polygon fill="#63b8ff" stroke="#63b8ff" points="363.73,-13 373.73,-9.5 363.73,-6 363.73,-13"/>
</a>
</g>
</g>
<!-- Node7 -->
<g id="Node000007" class="node">
<title>Node7</title>
<g id="a_Node000007"><a xlink:href="classcbrc_1_1FLEArray.html#ad71311380d762114c9e0f3b0dda38b7c" target="_top" xlink:title=" ">
<polygon fill="white" stroke="#666666" points="638,-19 527,-19 527,0 638,0 638,-19"/>
<text text-anchor="middle" x="582.5" y="-7" font-family="Helvetica,sans-Serif" font-size="10.00">cbrc::FLEArray::size</text>
</a>
</g>
</g>
<!-- Node6&#45;&gt;Node7 -->
<g id="edge6_Node000006_Node000007" class="edge">
<title>Node6&#45;&gt;Node7</title>
<g id="a_edge6_Node000006_Node000007"><a xlink:title=" ">
<path fill="none" stroke="#63b8ff" d="M491.14,-9.5C499.45,-9.5 508.05,-9.5 516.49,-9.5"/>
<polygon fill="#63b8ff" stroke="#63b8ff" points="516.68,-13 526.68,-9.5 516.68,-6 516.68,-13"/>
</a>
</g>
</g>
</g>
</svg>
