<?xml version="1.0" encoding="UTF-8" standalone="no"?>
<!DOCTYPE svg PUBLIC "-//W3C//DTD SVG 1.1//EN"
 "http://www.w3.org/Graphics/SVG/1.1/DTD/svg11.dtd">
<!-- Generated by graphviz version 2.43.0 (0)
 -->
<!-- Title: cbrc::ConstResidueIndexSequenceBoundaries::size Pages: 1 -->
<svg width="780pt" height="290pt"
 viewBox="0.00 0.00 780.00 290.00" xmlns="http://www.w3.org/2000/svg" xmlns:xlink="http://www.w3.org/1999/xlink">
<g id="graph0" class="graph" transform="scale(1 1) rotate(0) translate(4 286)">
<title>cbrc::ConstResidueIndexSequenceBoundaries::size</title>
<!-- Node1 -->
<g id="Node000001" class="node">
<title>Node1</title>
<g id="a_Node000001"><a xlink:title=" ">
<polygon fill="#999999" stroke="#666666" points="772,-234 588,-234 588,-204 772,-204 772,-234"/>
<text text-anchor="start" x="596" y="-222" font-family="Helvetica,sans-Serif" font-size="10.00">cbrc::ConstResidueIndexSequence</text>
<text text-anchor="middle" x="680" y="-211" font-family="Helvetica,sans-Serif" font-size="10.00">Boundaries::size</text>
</a>
</g>
</g>
<!-- Node2 -->
<g id="Node000002" class="node">
<title>Node2</title>
<g id="a_Node000002"><a xlink:href="classcbrc_1_1ConstResidueIndexSequenceBoundaries.html#aaab66834ea6b30213568b389550a7373" target="_top" xlink:title=" ">
<polygon fill="white" stroke="#666666" points="552,-282 368,-282 368,-252 552,-252 552,-282"/>
<text text-anchor="start" x="376" y="-270" font-family="Helvetica,sans-Serif" font-size="10.00">cbrc::ConstResidueIndexSequence</text>
<text text-anchor="middle" x="460" y="-259" font-family="Helvetica,sans-Serif" font-size="10.00">Boundaries::endPtr</text>
</a>
</g>
</g>
<!-- Node1&#45;&gt;Node2 -->
<g id="edge1_Node000001_Node000002" class="edge">
<title>Node1&#45;&gt;Node2</title>
<g id="a_edge1_Node000001_Node000002"><a xlink:title=" ">
<path fill="none" stroke="#63b8ff" d="M600.73,-236.23C577.31,-241.39 551.84,-247 529.14,-252"/>
<polygon fill="#63b8ff" stroke="#63b8ff" points="601.61,-239.62 610.62,-234.06 600.1,-232.79 601.61,-239.62"/>
</a>
</g>
</g>
<!-- Node3 -->
<g id="Node000003" class="node">
<title>Node3</title>
<g id="a_Node000003"><a xlink:href="classcbrc_1_1ResidueIndexWindow.html#af2eb32757eaa7984922f204a8da9327a" target="_top" xlink:title=" ">
<polygon fill="white" stroke="#666666" points="534,-234 386,-234 386,-204 534,-204 534,-234"/>
<text text-anchor="start" x="394" y="-222" font-family="Helvetica,sans-Serif" font-size="10.00">cbrc::ResidueIndexWindow</text>
<text text-anchor="middle" x="460" y="-211" font-family="Helvetica,sans-Serif" font-size="10.00">::ResidueIndexWindow</text>
</a>
</g>
</g>
<!-- Node1&#45;&gt;Node3 -->
<g id="edge2_Node000001_Node000003" class="edge">
<title>Node1&#45;&gt;Node3</title>
<g id="a_edge2_Node000001_Node000003"><a xlink:title=" ">
<path fill="none" stroke="#63b8ff" d="M577.71,-219C563.07,-219 548.23,-219 534.28,-219"/>
<polygon fill="#63b8ff" stroke="#63b8ff" points="577.81,-222.5 587.81,-219 577.81,-215.5 577.81,-222.5"/>
</a>
</g>
</g>
<!-- Node4 -->
<g id="Node000004" class="node">
<title>Node4</title>
<g id="a_Node000004"><a xlink:href="classcbrc_1_1ResidueIndexWindow.html#a1110cf175ab6a733b8b2ce21dc67ce40" target="_top" xlink:title=" ">
<polygon fill="white" stroke="#666666" points="534,-186 386,-186 386,-156 534,-156 534,-186"/>
<text text-anchor="start" x="394" y="-174" font-family="Helvetica,sans-Serif" font-size="10.00">cbrc::ResidueIndexWindow</text>
<text text-anchor="middle" x="460" y="-163" font-family="Helvetica,sans-Serif" font-size="10.00">::seqEndIdx</text>
</a>
</g>
</g>
<!-- Node1&#45;&gt;Node4 -->
<g id="edge3_Node000001_Node000004" class="edge">
<title>Node1&#45;&gt;Node4</title>
<g id="a_edge3_Node000001_Node000004"><a xlink:title=" ">
<path fill="none" stroke="#63b8ff" d="M600.73,-201.77C577.31,-196.61 551.84,-191 529.14,-186"/>
<polygon fill="#63b8ff" stroke="#63b8ff" points="600.1,-205.21 610.62,-203.94 601.61,-198.38 600.1,-205.21"/>
</a>
</g>
</g>
<!-- Node5 -->
<g id="Node000005" class="node">
<title>Node5</title>
<g id="a_Node000005"><a xlink:href="classcbrc_1_1ResidueIndexWindow.html#ad49a43b2121cc824b915110a388add10" target="_top" xlink:title=" ">
<polygon fill="white" stroke="#666666" points="332,-258 184,-258 184,-228 332,-228 332,-258"/>
<text text-anchor="start" x="192" y="-246" font-family="Helvetica,sans-Serif" font-size="10.00">cbrc::ResidueIndexWindow</text>
<text text-anchor="middle" x="258" y="-235" font-family="Helvetica,sans-Serif" font-size="10.00">::ResidueIndexWindow</text>
</a>
</g>
</g>
<!-- Node4&#45;&gt;Node5 -->
<g id="edge4_Node000004_Node000005" class="edge">
<title>Node4&#45;&gt;Node5</title>
<g id="a_edge4_Node000004_Node000005"><a xlink:title=" ">
<path fill="none" stroke="#63b8ff" d="M381.76,-189.44C377.04,-191.16 372.42,-193.01 368,-195 350.46,-202.89 349.29,-210.59 332,-219 325.28,-222.27 318.01,-225.26 310.75,-227.93"/>
<polygon fill="#63b8ff" stroke="#63b8ff" points="383.2,-192.64 391.53,-186.1 380.93,-186.02 383.2,-192.64"/>
</a>
</g>
</g>
<!-- Node6 -->
<g id="Node000006" class="node">
<title>Node6</title>
<g id="a_Node000006"><a xlink:href="classcbrc_1_1ResidueIndexWindow.html#a3a5c7e4c6d40951b4b7326e75f6c58b6" target="_top" xlink:title=" ">
<polygon fill="white" stroke="#666666" points="332,-210 184,-210 184,-180 332,-180 332,-210"/>
<text text-anchor="start" x="192" y="-198" font-family="Helvetica,sans-Serif" font-size="10.00">cbrc::ResidueIndexWindow</text>
<text text-anchor="middle" x="258" y="-187" font-family="Helvetica,sans-Serif" font-size="10.00">::rightContextSize</text>
</a>
</g>
</g>
<!-- Node4&#45;&gt;Node6 -->
<g id="edge5_Node000004_Node000006" class="edge">
<title>Node4&#45;&gt;Node6</title>
<g id="a_edge5_Node000004_Node000006"><a xlink:title=" ">
<path fill="none" stroke="#63b8ff" d="M375.98,-180.96C361.45,-182.71 346.43,-184.51 332.19,-186.22"/>
<polygon fill="#63b8ff" stroke="#63b8ff" points="376.43,-184.43 385.95,-179.77 375.6,-177.48 376.43,-184.43"/>
</a>
</g>
</g>
<!-- Node7 -->
<g id="Node000007" class="node">
<title>Node7</title>
<g id="a_Node000007"><a xlink:href="classcbrc_1_1ResidueIndexWindow.html#a270fb96012b5ae1b902d097427799c29" target="_top" xlink:title=" ">
<polygon fill="white" stroke="#666666" points="332,-162 184,-162 184,-132 332,-132 332,-162"/>
<text text-anchor="start" x="192" y="-150" font-family="Helvetica,sans-Serif" font-size="10.00">cbrc::ResidueIndexWindow</text>
<text text-anchor="middle" x="258" y="-139" font-family="Helvetica,sans-Serif" font-size="10.00">::seqSize</text>
</a>
</g>
</g>
<!-- Node4&#45;&gt;Node7 -->
<g id="edge6_Node000004_Node000007" class="edge">
<title>Node4&#45;&gt;Node7</title>
<g id="a_edge6_Node000004_Node000007"><a xlink:title=" ">
<path fill="none" stroke="#63b8ff" d="M375.98,-161.04C361.45,-159.29 346.43,-157.49 332.19,-155.78"/>
<polygon fill="#63b8ff" stroke="#63b8ff" points="375.6,-164.52 385.95,-162.23 376.43,-157.57 375.6,-164.52"/>
</a>
</g>
</g>
<!-- Node9 -->
<g id="Node000009" class="node">
<title>Node9</title>
<g id="a_Node000009"><a xlink:href="classcbrc_1_1ResidueIndexWindow.html#ac7418c0fac246e0772de5afca6358c41" target="_top" xlink:title=" ">
<polygon fill="white" stroke="#666666" points="332,-102 184,-102 184,-72 332,-72 332,-102"/>
<text text-anchor="start" x="192" y="-90" font-family="Helvetica,sans-Serif" font-size="10.00">cbrc::ResidueIndexWindow</text>
<text text-anchor="middle" x="258" y="-79" font-family="Helvetica,sans-Serif" font-size="10.00">::validRelativeIdx</text>
</a>
</g>
</g>
<!-- Node4&#45;&gt;Node9 -->
<g id="edge8_Node000004_Node000009" class="edge">
<title>Node4&#45;&gt;Node9</title>
<g id="a_edge8_Node000004_Node000009"><a xlink:title=" ">
<path fill="none" stroke="#63b8ff" d="M413.94,-152.07C377.92,-136.95 328.11,-116.02 294.78,-102.03"/>
<polygon fill="#63b8ff" stroke="#63b8ff" points="412.67,-155.34 423.24,-155.98 415.38,-148.88 412.67,-155.34"/>
</a>
</g>
</g>
<!-- Node8 -->
<g id="Node000008" class="node">
<title>Node8</title>
<g id="a_Node000008"><a xlink:href="classcbrc_1_1ResidueIndexWindow.html#a6ea351493f7348c3bddc257f97bbbe05" target="_top" xlink:title=" ">
<polygon fill="white" stroke="#666666" points="148,-174 0,-174 0,-144 148,-144 148,-174"/>
<text text-anchor="start" x="8" y="-162" font-family="Helvetica,sans-Serif" font-size="10.00">cbrc::ResidueIndexWindow</text>
<text text-anchor="middle" x="74" y="-151" font-family="Helvetica,sans-Serif" font-size="10.00">::increment</text>
</a>
</g>
</g>
<!-- Node7&#45;&gt;Node8 -->
<g id="edge7_Node000007_Node000008" class="edge">
<title>Node7&#45;&gt;Node8</title>
<g id="a_edge7_Node000007_Node000008"><a xlink:title=" ">
<path fill="none" stroke="#63b8ff" d="M173.76,-152.49C165.2,-153.05 156.54,-153.62 148.09,-154.18"/>
<polygon fill="#63b8ff" stroke="#63b8ff" points="174.01,-155.98 183.76,-151.83 173.55,-148.99 174.01,-155.98"/>
</a>
</g>
</g>
<!-- Node10 -->
<g id="Node000010" class="node">
<title>Node10</title>
<g id="a_Node000010"><a xlink:href="classcbrc_1_1ResidueIndexWindow.html#a79e14260664da6b43d3b242e62cd68dc" target="_top" xlink:title=" ">
<polygon fill="white" stroke="#666666" points="148,-126 0,-126 0,-96 148,-96 148,-126"/>
<text text-anchor="start" x="8" y="-114" font-family="Helvetica,sans-Serif" font-size="10.00">cbrc::ResidueIndexWindow</text>
<text text-anchor="middle" x="74" y="-103" font-family="Helvetica,sans-Serif" font-size="10.00">::operator()</text>
</a>
</g>
</g>
<!-- Node9&#45;&gt;Node10 -->
<g id="edge9_Node000009_Node000010" class="edge">
<title>Node9&#45;&gt;Node10</title>
<g id="a_edge9_Node000009_Node000010"><a xlink:title=" ">
<path fill="none" stroke="#63b8ff" d="M173.76,-97.98C165.2,-99.11 156.54,-100.25 148.09,-101.36"/>
<polygon fill="#63b8ff" stroke="#63b8ff" points="174.3,-101.44 183.76,-96.66 173.39,-94.5 174.3,-101.44"/>
</a>
</g>
</g>
<!-- Node11 -->
<g id="Node000011" class="node">
<title>Node11</title>
<g id="a_Node000011"><a xlink:href="classcbrc_1_1ResidueIndexWindow.html#a310623ed9e7a4bdeca026e65b58d9553" target="_top" xlink:title=" ">
<polygon fill="white" stroke="#666666" points="148,-78 0,-78 0,-48 148,-48 148,-78"/>
<text text-anchor="start" x="8" y="-66" font-family="Helvetica,sans-Serif" font-size="10.00">cbrc::ResidueIndexWindow</text>
<text text-anchor="middle" x="74" y="-55" font-family="Helvetica,sans-Serif" font-size="10.00">::relativeIdxToSeqIdx</text>
</a>
</g>
</g>
<!-- Node9&#45;&gt;Node11 -->
<g id="edge10_Node000009_Node000011" class="edge">
<title>Node9&#45;&gt;Node11</title>
<g id="a_edge10_Node000009_Node000011"><a xlink:title=" ">
<path fill="none" stroke="#63b8ff" d="M173.76,-76.02C165.2,-74.89 156.54,-73.75 148.09,-72.64"/>
<polygon fill="#63b8ff" stroke="#63b8ff" points="173.39,-79.5 183.76,-77.34 174.3,-72.56 173.39,-79.5"/>
</a>
</g>
</g>
<!-- Node12 -->
<g id="Node000012" class="node">
<title>Node12</title>
<g id="a_Node000012"><a xlink:href="classcbrc_1_1ResidueIndexWindow.html#ad09060963b3e97a62a28dc6d3174ddb2" target="_top" xlink:title=" ">
<polygon fill="white" stroke="#666666" points="148,-30 0,-30 0,0 148,0 148,-30"/>
<text text-anchor="start" x="8" y="-18" font-family="Helvetica,sans-Serif" font-size="10.00">cbrc::ResidueIndexWindow</text>
<text text-anchor="middle" x="74" y="-7" font-family="Helvetica,sans-Serif" font-size="10.00">::validBoundaries</text>
</a>
</g>
</g>
<!-- Node9&#45;&gt;Node12 -->
<g id="edge11_Node000009_Node000012" class="edge">
<title>Node9&#45;&gt;Node12</title>
<g id="a_edge11_Node000009_Node000012"><a xlink:title=" ">
<path fill="none" stroke="#63b8ff" d="M215.68,-67.67C195.47,-58.51 170.67,-47.69 148,-39 140.03,-35.94 131.48,-32.91 123.14,-30.09"/>
<polygon fill="#63b8ff" stroke="#63b8ff" points="214.36,-70.92 224.91,-71.88 217.27,-64.55 214.36,-70.92"/>
</a>
</g>
</g>
</g>
</svg>
