<?xml version="1.0" encoding="UTF-8" standalone="no"?>
<!DOCTYPE svg PUBLIC "-//W3C//DTD SVG 1.1//EN"
 "http://www.w3.org/Graphics/SVG/1.1/DTD/svg11.dtd">
<!-- Generated by graphviz version 2.43.0 (0)
 -->
<!-- Title: cbrc::LabeledSequence::labels Pages: 1 -->
<svg width="644pt" height="158pt"
 viewBox="0.00 0.00 644.00 158.00" xmlns="http://www.w3.org/2000/svg" xmlns:xlink="http://www.w3.org/1999/xlink">
<g id="graph0" class="graph" transform="scale(1 1) rotate(0) translate(4 154)">
<title>cbrc::LabeledSequence::labels</title>
<!-- Node1 -->
<g id="Node000001" class="node">
<title>Node1</title>
<g id="a_Node000001"><a xlink:title=" ">
<polygon fill="#999999" stroke="#666666" points="636,-78 508,-78 508,-48 636,-48 636,-78"/>
<text text-anchor="start" x="516" y="-66" font-family="Helvetica,sans-Serif" font-size="10.00">cbrc::LabeledSequence</text>
<text text-anchor="middle" x="572" y="-55" font-family="Helvetica,sans-Serif" font-size="10.00">::labels</text>
</a>
</g>
</g>
<!-- Node2 -->
<g id="Node000002" class="node">
<title>Node2</title>
<g id="a_Node000002"><a xlink:href="classcbrc_1_1LabeledSequence.html#afb7eb56e162e3486ab2cb1fe41968390" target="_top" xlink:title=" ">
<polygon fill="white" stroke="#666666" points="472,-126 344,-126 344,-96 472,-96 472,-126"/>
<text text-anchor="start" x="352" y="-114" font-family="Helvetica,sans-Serif" font-size="10.00">cbrc::LabeledSequence</text>
<text text-anchor="middle" x="408" y="-103" font-family="Helvetica,sans-Serif" font-size="10.00">::label</text>
</a>
</g>
</g>
<!-- Node1&#45;&gt;Node2 -->
<g id="edge1_Node000001_Node000002" class="edge">
<title>Node1&#45;&gt;Node2</title>
<g id="a_edge1_Node000001_Node000002"><a xlink:title=" ">
<path fill="none" stroke="#63b8ff" d="M510.5,-80.93C493.75,-85.89 475.75,-91.22 459.63,-96"/>
<polygon fill="#63b8ff" stroke="#63b8ff" points="511.59,-84.25 520.19,-78.06 509.6,-77.54 511.59,-84.25"/>
</a>
</g>
</g>
<!-- Node6 -->
<g id="Node000006" class="node">
<title>Node6</title>
<g id="a_Node000006"><a xlink:href="classcbrc_1_1LabeledSequence.html#a88f0fff1a3148a1360714d78f5a1bee4" target="_top" xlink:title=" ">
<polygon fill="white" stroke="#666666" points="472,-78 344,-78 344,-48 472,-48 472,-78"/>
<text text-anchor="start" x="352" y="-66" font-family="Helvetica,sans-Serif" font-size="10.00">cbrc::LabeledSequence</text>
<text text-anchor="middle" x="408" y="-55" font-family="Helvetica,sans-Serif" font-size="10.00">::LabeledSequence</text>
</a>
</g>
</g>
<!-- Node1&#45;&gt;Node6 -->
<g id="edge5_Node000001_Node000006" class="edge">
<title>Node1&#45;&gt;Node6</title>
<g id="a_edge5_Node000001_Node000006"><a xlink:title=" ">
<path fill="none" stroke="#63b8ff" d="M497.63,-63C489.14,-63 480.53,-63 472.19,-63"/>
<polygon fill="#63b8ff" stroke="#63b8ff" points="497.9,-66.5 507.9,-63 497.9,-59.5 497.9,-66.5"/>
</a>
</g>
</g>
<!-- Node7 -->
<g id="Node000007" class="node">
<title>Node7</title>
<g id="a_Node000007"><a xlink:href="classcbrc_1_1LabeledSequence.html#ad28834efdb6c19bd89cb8d6639adcef0" target="_top" xlink:title=" ">
<polygon fill="white" stroke="#666666" points="472,-30 344,-30 344,0 472,0 472,-30"/>
<text text-anchor="start" x="352" y="-18" font-family="Helvetica,sans-Serif" font-size="10.00">cbrc::LabeledSequence</text>
<text text-anchor="middle" x="408" y="-7" font-family="Helvetica,sans-Serif" font-size="10.00">::LabeledSequence</text>
</a>
</g>
</g>
<!-- Node1&#45;&gt;Node7 -->
<g id="edge6_Node000001_Node000007" class="edge">
<title>Node1&#45;&gt;Node7</title>
<g id="a_edge6_Node000001_Node000007"><a xlink:title=" ">
<path fill="none" stroke="#63b8ff" d="M510.5,-45.07C493.75,-40.11 475.75,-34.78 459.63,-30"/>
<polygon fill="#63b8ff" stroke="#63b8ff" points="509.6,-48.46 520.19,-47.94 511.59,-41.75 509.6,-48.46"/>
</a>
</g>
</g>
<!-- Node3 -->
<g id="Node000003" class="node">
<title>Node3</title>
<g id="a_Node000003"><a xlink:href="classcbrc_1_1LabeledSequence.html#a437225e63f7d3cfcc04459778ae9c75f" target="_top" xlink:title=" ">
<polygon fill="white" stroke="#666666" points="308,-150 180,-150 180,-120 308,-120 308,-150"/>
<text text-anchor="start" x="188" y="-138" font-family="Helvetica,sans-Serif" font-size="10.00">cbrc::LabeledSequence</text>
<text text-anchor="middle" x="244" y="-127" font-family="Helvetica,sans-Serif" font-size="10.00">::className</text>
</a>
</g>
</g>
<!-- Node2&#45;&gt;Node3 -->
<g id="edge2_Node000002_Node000003" class="edge">
<title>Node2&#45;&gt;Node3</title>
<g id="a_edge2_Node000002_Node000003"><a xlink:title=" ">
<path fill="none" stroke="#63b8ff" d="M333.91,-121.83C325.32,-123.1 316.62,-124.39 308.19,-125.64"/>
<polygon fill="#63b8ff" stroke="#63b8ff" points="334.52,-125.28 343.9,-120.35 333.5,-118.35 334.52,-125.28"/>
</a>
</g>
</g>
<!-- Node4 -->
<g id="Node000004" class="node">
<title>Node4</title>
<g id="a_Node000004"><a xlink:href="classcbrc_1_1LabeledSequence.html#a14086b67123c48d696a9a9556c19d21b" target="_top" xlink:title=" ">
<polygon fill="white" stroke="#666666" points="308,-102 180,-102 180,-72 308,-72 308,-102"/>
<text text-anchor="start" x="188" y="-90" font-family="Helvetica,sans-Serif" font-size="10.00">cbrc::LabeledSequence</text>
<text text-anchor="middle" x="244" y="-79" font-family="Helvetica,sans-Serif" font-size="10.00">::name</text>
</a>
</g>
</g>
<!-- Node2&#45;&gt;Node4 -->
<g id="edge3_Node000002_Node000004" class="edge">
<title>Node2&#45;&gt;Node4</title>
<g id="a_edge3_Node000002_Node000004"><a xlink:title=" ">
<path fill="none" stroke="#63b8ff" d="M333.91,-100.17C325.32,-98.9 316.62,-97.61 308.19,-96.36"/>
<polygon fill="#63b8ff" stroke="#63b8ff" points="333.5,-103.65 343.9,-101.65 334.52,-96.72 333.5,-103.65"/>
</a>
</g>
</g>
<!-- Node5 -->
<g id="Node000005" class="node">
<title>Node5</title>
<g id="a_Node000005"><a xlink:href="classcbrc_1_1SimilaritySearchableSequences.html#ab3046f18f90ac2e6783e72b5cc2a4870" target="_top" xlink:title=" ">
<polygon fill="white" stroke="#666666" points="144,-102 0,-102 0,-72 144,-72 144,-102"/>
<text text-anchor="start" x="8" y="-90" font-family="Helvetica,sans-Serif" font-size="10.00">cbrc::SimilaritySearchable</text>
<text text-anchor="middle" x="72" y="-79" font-family="Helvetica,sans-Serif" font-size="10.00">Sequences::bestMatch</text>
</a>
</g>
</g>
<!-- Node4&#45;&gt;Node5 -->
<g id="edge4_Node000004_Node000005" class="edge">
<title>Node4&#45;&gt;Node5</title>
<g id="a_edge4_Node000004_Node000005"><a xlink:title=" ">
<path fill="none" stroke="#63b8ff" d="M169.51,-87C161.07,-87 152.48,-87 144.08,-87"/>
<polygon fill="#63b8ff" stroke="#63b8ff" points="169.7,-90.5 179.7,-87 169.7,-83.5 169.7,-90.5"/>
</a>
</g>
</g>
</g>
</svg>
