<?xml version="1.0" encoding="UTF-8" standalone="no"?>
<!DOCTYPE svg PUBLIC "-//W3C//DTD SVG 1.1//EN"
 "http://www.w3.org/Graphics/SVG/1.1/DTD/svg11.dtd">
<!-- Generated by graphviz version 2.43.0 (0)
 -->
<!-- Title: cbrc::SeqGlobalAffineAligner::feasibleBound Pages: 1 -->
<svg width="354pt" height="76pt"
 viewBox="0.00 0.00 354.00 75.50" xmlns="http://www.w3.org/2000/svg" xmlns:xlink="http://www.w3.org/1999/xlink">
<g id="graph0" class="graph" transform="scale(1 1) rotate(0) translate(4 71.5)">
<title>cbrc::SeqGlobalAffineAligner::feasibleBound</title>
<!-- Node1 -->
<g id="Node000001" class="node">
<title>Node1</title>
<g id="a_Node000001"><a xlink:title=" ">
<polygon fill="#999999" stroke="#666666" points="155,-45.5 0,-45.5 0,-15.5 155,-15.5 155,-45.5"/>
<text text-anchor="start" x="8" y="-33.5" font-family="Helvetica,sans-Serif" font-size="10.00">cbrc::SeqGlobalAffineAligner</text>
<text text-anchor="middle" x="77.5" y="-22.5" font-family="Helvetica,sans-Serif" font-size="10.00">::feasibleBound</text>
</a>
</g>
</g>
<!-- Node2 -->
<g id="Node000002" class="node">
<title>Node2</title>
<g id="a_Node000002"><a xlink:href="classcbrc_1_1SeqGlobalAffineAligner.html#abfd1556484b4c230c84fe4d1af47003e" target="_top" xlink:title=" ">
<polygon fill="white" stroke="#666666" points="346,-67.5 191,-67.5 191,-37.5 346,-37.5 346,-67.5"/>
<text text-anchor="start" x="199" y="-55.5" font-family="Helvetica,sans-Serif" font-size="10.00">cbrc::SeqGlobalAffineAligner</text>
<text text-anchor="middle" x="268.5" y="-44.5" font-family="Helvetica,sans-Serif" font-size="10.00">::resSubScore</text>
</a>
</g>
</g>
<!-- Node1&#45;&gt;Node2 -->
<g id="edge1_Node000001_Node000002" class="edge">
<title>Node1&#45;&gt;Node2</title>
<g id="a_edge1_Node000001_Node000002"><a xlink:title=" ">
<path fill="none" stroke="#63b8ff" d="M155.1,-39.42C163.56,-40.4 172.22,-41.41 180.79,-42.41"/>
<polygon fill="#63b8ff" stroke="#63b8ff" points="180.45,-45.89 190.79,-43.57 181.26,-38.94 180.45,-45.89"/>
</a>
</g>
</g>
<!-- Node3 -->
<g id="Node000003" class="node">
<title>Node3</title>
<g id="a_Node000003"><a xlink:href="classcbrc_1_1FLEArray.html#ad71311380d762114c9e0f3b0dda38b7c" target="_top" xlink:title=" ">
<polygon fill="white" stroke="#666666" points="324,-19 213,-19 213,0 324,0 324,-19"/>
<text text-anchor="middle" x="268.5" y="-7" font-family="Helvetica,sans-Serif" font-size="10.00">cbrc::FLEArray::size</text>
</a>
</g>
</g>
<!-- Node1&#45;&gt;Node3 -->
<g id="edge2_Node000001_Node000003" class="edge">
<title>Node1&#45;&gt;Node3</title>
<g id="a_edge2_Node000001_Node000003"><a xlink:title=" ">
<path fill="none" stroke="#63b8ff" d="M155.1,-21.99C170.81,-20.24 187.21,-18.42 202.47,-16.73"/>
<polygon fill="#63b8ff" stroke="#63b8ff" points="203.28,-20.16 212.83,-15.57 202.51,-13.2 203.28,-20.16"/>
</a>
</g>
</g>
</g>
</svg>
