<?xml version="1.0" encoding="UTF-8" standalone="no"?>
<!DOCTYPE svg PUBLIC "-//W3C//DTD SVG 1.1//EN"
 "http://www.w3.org/Graphics/SVG/1.1/DTD/svg11.dtd">
<!-- Generated by graphviz version 2.43.0 (0)
 -->
<!-- Title: cbrc::BitMatrix::zero Pages: 1 -->
<svg width="298pt" height="64pt"
 viewBox="0.00 0.00 298.00 64.00" xmlns="http://www.w3.org/2000/svg" xmlns:xlink="http://www.w3.org/1999/xlink">
<g id="graph0" class="graph" transform="scale(1 1) rotate(0) translate(4 60)">
<title>cbrc::BitMatrix::zero</title>
<!-- Node1 -->
<g id="Node000001" class="node">
<title>Node1</title>
<g id="a_Node000001"><a xlink:title=" ">
<polygon fill="#999999" stroke="#666666" points="290,-37 175,-37 175,-18 290,-18 290,-37"/>
<text text-anchor="middle" x="232.5" y="-25" font-family="Helvetica,sans-Serif" font-size="10.00">cbrc::BitMatrix::zero</text>
</a>
</g>
</g>
<!-- Node2 -->
<g id="Node000002" class="node">
<title>Node2</title>
<g id="a_Node000002"><a xlink:href="classcbrc_1_1BitMatrix.html#afebfa45ee4d7ba7d3d5a3e87dad00b2d" target="_top" xlink:title=" ">
<polygon fill="white" stroke="#666666" points="139,-56 0,-56 0,-37 139,-37 139,-56"/>
<text text-anchor="middle" x="69.5" y="-44" font-family="Helvetica,sans-Serif" font-size="10.00">cbrc::BitMatrix::BitMatrix</text>
</a>
</g>
</g>
<!-- Node1&#45;&gt;Node2 -->
<g id="edge1_Node000001_Node000002" class="edge">
<title>Node1&#45;&gt;Node2</title>
<g id="a_edge1_Node000001_Node000002"><a xlink:title=" ">
<path fill="none" stroke="#63b8ff" d="M164.61,-35.39C156.21,-36.38 147.61,-37.4 139.18,-38.4"/>
<polygon fill="#63b8ff" stroke="#63b8ff" points="165.22,-38.85 174.74,-34.2 164.4,-31.89 165.22,-38.85"/>
</a>
</g>
</g>
<!-- Node3 -->
<g id="Node000003" class="node">
<title>Node3</title>
<g id="a_Node000003"><a xlink:href="classcbrc_1_1BitMatrix.html#a503451755ca613a658e0f71d9eb46a12" target="_top" xlink:title=" ">
<polygon fill="white" stroke="#666666" points="134,-19 5,-19 5,0 134,0 134,-19"/>
<text text-anchor="middle" x="69.5" y="-7" font-family="Helvetica,sans-Serif" font-size="10.00">cbrc::BitMatrix::setSize</text>
</a>
</g>
</g>
<!-- Node1&#45;&gt;Node3 -->
<g id="edge2_Node000001_Node000003" class="edge">
<title>Node1&#45;&gt;Node3</title>
<g id="a_edge2_Node000001_Node000003"><a xlink:title=" ">
<path fill="none" stroke="#63b8ff" d="M164.74,-20.04C154.62,-18.91 144.21,-17.74 134.16,-16.62"/>
<polygon fill="#63b8ff" stroke="#63b8ff" points="164.41,-23.52 174.74,-21.15 165.19,-16.56 164.41,-23.52"/>
</a>
</g>
</g>
</g>
</svg>
