<?xml version="1.0" encoding="UTF-8" standalone="no"?>
<!DOCTYPE svg PUBLIC "-//W3C//DTD SVG 1.1//EN"
 "http://www.w3.org/Graphics/SVG/1.1/DTD/svg11.dtd">
<!-- Generated by graphviz version 2.43.0 (0)
 -->
<!-- Title: cbrc::FLEArray::_validIndex Pages: 1 -->
<svg width="1023pt" height="617pt"
 viewBox="0.00 0.00 1023.00 616.50" xmlns="http://www.w3.org/2000/svg" xmlns:xlink="http://www.w3.org/1999/xlink">
<g id="graph0" class="graph" transform="scale(1 1) rotate(0) translate(4 612.5)">
<title>cbrc::FLEArray::_validIndex</title>
<!-- Node1 -->
<g id="Node000001" class="node">
<title>Node1</title>
<g id="a_Node000001"><a xlink:title=" ">
<polygon fill="#999999" stroke="#666666" points="1015,-239 867,-239 867,-220 1015,-220 1015,-239"/>
<text text-anchor="middle" x="941" y="-227" font-family="Helvetica,sans-Serif" font-size="10.00">cbrc::FLEArray::_validIndex</text>
</a>
</g>
</g>
<!-- Node2 -->
<g id="Node000002" class="node">
<title>Node2</title>
<g id="a_Node000002"><a xlink:href="classcbrc_1_1FLEArray.html#a985e9e85d6fc6adf9d3c52a0306361a4" target="_top" xlink:title=" ">
<polygon fill="white" stroke="#666666" points="831,-313 679,-313 679,-294 831,-294 831,-313"/>
<text text-anchor="middle" x="755" y="-301" font-family="Helvetica,sans-Serif" font-size="10.00">cbrc::FLEArray::_validRange</text>
</a>
</g>
</g>
<!-- Node1&#45;&gt;Node2 -->
<g id="edge1_Node000001_Node000002" class="edge">
<title>Node1&#45;&gt;Node2</title>
<g id="a_edge1_Node000001_Node000002"><a xlink:title=" ">
<path fill="none" stroke="#63b8ff" d="M915.48,-244.26C893.88,-256.72 861.24,-274.29 831,-285.5 822.21,-288.76 812.62,-291.58 803.33,-293.96"/>
<polygon fill="#63b8ff" stroke="#63b8ff" points="917.43,-247.17 924.3,-239.09 913.9,-241.13 917.43,-247.17"/>
</a>
</g>
</g>
<!-- Node29 -->
<g id="Node000029" class="node">
<title>Node29</title>
<g id="a_Node000029"><a xlink:href="classcbrc_1_1FLENumArray.html#a89292d1176dd0d20351061deaa3ba8ec" target="_top" xlink:title=" ">
<polygon fill="white" stroke="#666666" points="823.5,-276 686.5,-276 686.5,-257 823.5,-257 823.5,-276"/>
<text text-anchor="middle" x="755" y="-264" font-family="Helvetica,sans-Serif" font-size="10.00">cbrc::FLENumArray::max</text>
</a>
</g>
</g>
<!-- Node1&#45;&gt;Node29 -->
<g id="edge32_Node000001_Node000029" class="edge">
<title>Node1&#45;&gt;Node29</title>
<g id="a_edge32_Node000001_Node000029"><a xlink:title=" ">
<path fill="none" stroke="#63b8ff" d="M882.73,-241.02C857.3,-246.13 827.73,-252.08 803.54,-256.94"/>
<polygon fill="#63b8ff" stroke="#63b8ff" points="883.5,-244.43 892.62,-239.03 882.12,-237.57 883.5,-244.43"/>
</a>
</g>
</g>
<!-- Node30 -->
<g id="Node000030" class="node">
<title>Node30</title>
<g id="a_Node000030"><a xlink:href="classcbrc_1_1FLENumArray.html#a90c496d767980ba6a28209cd8d719fb5" target="_top" xlink:title=" ">
<polygon fill="white" stroke="#666666" points="822,-239 688,-239 688,-220 822,-220 822,-239"/>
<text text-anchor="middle" x="755" y="-227" font-family="Helvetica,sans-Serif" font-size="10.00">cbrc::FLENumArray::min</text>
</a>
</g>
</g>
<!-- Node1&#45;&gt;Node30 -->
<g id="edge33_Node000001_Node000030" class="edge">
<title>Node1&#45;&gt;Node30</title>
<g id="a_edge33_Node000001_Node000030"><a xlink:title=" ">
<path fill="none" stroke="#63b8ff" d="M856.65,-229.5C845.09,-229.5 833.34,-229.5 822.14,-229.5"/>
<polygon fill="#63b8ff" stroke="#63b8ff" points="856.75,-233 866.75,-229.5 856.75,-226 856.75,-233"/>
</a>
</g>
</g>
<!-- Node31 -->
<g id="Node000031" class="node">
<title>Node31</title>
<g id="a_Node000031"><a xlink:href="classcbrc_1_1FLEArray.html#a52b937324c25b84a2ec1aa381fbf8aa1" target="_top" xlink:title=" ">
<polygon fill="white" stroke="#666666" points="825,-202 685,-202 685,-183 825,-183 825,-202"/>
<text text-anchor="middle" x="755" y="-190" font-family="Helvetica,sans-Serif" font-size="10.00">cbrc::FLEArray::operator()</text>
</a>
</g>
</g>
<!-- Node1&#45;&gt;Node31 -->
<g id="edge34_Node000001_Node000031" class="edge">
<title>Node1&#45;&gt;Node31</title>
<g id="a_edge34_Node000001_Node000031"><a xlink:title=" ">
<path fill="none" stroke="#63b8ff" d="M882.73,-217.98C857.3,-212.87 827.73,-206.92 803.54,-202.06"/>
<polygon fill="#63b8ff" stroke="#63b8ff" points="882.12,-221.43 892.62,-219.97 883.5,-214.57 882.12,-221.43"/>
</a>
</g>
</g>
<!-- Node32 -->
<g id="Node000032" class="node">
<title>Node32</title>
<g id="a_Node000032"><a xlink:href="classcbrc_1_1FLEArray.html#acb39578ae6f4d80af7b8a874dfd4c52f" target="_top" xlink:title=" ">
<polygon fill="white" stroke="#666666" points="825,-165 685,-165 685,-146 825,-146 825,-165"/>
<text text-anchor="middle" x="755" y="-153" font-family="Helvetica,sans-Serif" font-size="10.00">cbrc::FLEArray::operator[]</text>
</a>
</g>
</g>
<!-- Node1&#45;&gt;Node32 -->
<g id="edge35_Node000001_Node000032" class="edge">
<title>Node1&#45;&gt;Node32</title>
<g id="a_edge35_Node000001_Node000032"><a xlink:title=" ">
<path fill="none" stroke="#63b8ff" d="M915.03,-214.92C893.39,-202.76 860.92,-185.68 831,-174.5 821.31,-170.88 810.67,-167.72 800.52,-165.07"/>
<polygon fill="#63b8ff" stroke="#63b8ff" points="913.47,-218.05 923.89,-219.95 916.93,-211.97 913.47,-218.05"/>
</a>
</g>
</g>
<!-- Node3 -->
<g id="Node000003" class="node">
<title>Node3</title>
<g id="a_Node000003"><a xlink:href="classcbrc_1_1FLEArray.html#a342be41f01552840883b2c14d647642e" target="_top" xlink:title=" ">
<polygon fill="white" stroke="#666666" points="638.5,-350 534.5,-350 534.5,-331 638.5,-331 638.5,-350"/>
<text text-anchor="middle" x="586.5" y="-338" font-family="Helvetica,sans-Serif" font-size="10.00">cbrc::FLEArray::fill</text>
</a>
</g>
</g>
<!-- Node2&#45;&gt;Node3 -->
<g id="edge2_Node000002_Node000003" class="edge">
<title>Node2&#45;&gt;Node3</title>
<g id="a_edge2_Node000002_Node000003"><a xlink:title=" ">
<path fill="none" stroke="#63b8ff" d="M701.26,-315.22C678.46,-320.29 652.11,-326.14 630.52,-330.94"/>
<polygon fill="#63b8ff" stroke="#63b8ff" points="702.12,-318.61 711.12,-313.03 700.6,-311.78 702.12,-318.61"/>
</a>
</g>
</g>
<!-- Node4 -->
<g id="Node000004" class="node">
<title>Node4</title>
<g id="a_Node000004"><a xlink:href="classcbrc_1_1FLEArray.html#a3eba8d1c247ebc9ed3219dd2a3614252" target="_top" xlink:title=" ">
<polygon fill="white" stroke="#666666" points="641.5,-313 531.5,-313 531.5,-294 641.5,-294 641.5,-313"/>
<text text-anchor="middle" x="586.5" y="-301" font-family="Helvetica,sans-Serif" font-size="10.00">cbrc::FLEArray::find</text>
</a>
</g>
</g>
<!-- Node2&#45;&gt;Node4 -->
<g id="edge3_Node000002_Node000004" class="edge">
<title>Node2&#45;&gt;Node4</title>
<g id="a_edge3_Node000002_Node000004"><a xlink:title=" ">
<path fill="none" stroke="#63b8ff" d="M668.35,-303.5C659.32,-303.5 650.32,-303.5 641.79,-303.5"/>
<polygon fill="#63b8ff" stroke="#63b8ff" points="668.54,-307 678.54,-303.5 668.54,-300 668.54,-307"/>
</a>
</g>
</g>
<!-- Node27 -->
<g id="Node000027" class="node">
<title>Node27</title>
<g id="a_Node000027"><a xlink:href="classcbrc_1_1FLEArray.html#af72fafeb8919fdcbf2a90635c209e03a" target="_top" xlink:title=" ">
<polygon fill="white" stroke="#666666" points="643,-148 530,-148 530,-129 643,-129 643,-148"/>
<text text-anchor="middle" x="586.5" y="-136" font-family="Helvetica,sans-Serif" font-size="10.00">cbrc::FLEArray::rfind</text>
</a>
</g>
</g>
<!-- Node2&#45;&gt;Node27 -->
<g id="edge30_Node000002_Node000027" class="edge">
<title>Node2&#45;&gt;Node27</title>
<g id="a_edge30_Node000002_Node000027"><a xlink:title=" ">
<path fill="none" stroke="#63b8ff" d="M684.94,-289.3C682.88,-288.13 680.9,-286.87 679,-285.5 628.29,-248.93 599.58,-174.74 590.6,-148.21"/>
<polygon fill="#63b8ff" stroke="#63b8ff" points="683.81,-292.64 694.34,-293.85 686.86,-286.34 683.81,-292.64"/>
</a>
</g>
</g>
<!-- Node5 -->
<g id="Node000005" class="node">
<title>Node5</title>
<g id="a_Node000005"><a xlink:href="namespacecbrc_1_1perlish.html#a16301d22b0d0ce6e7de8ca433e7a26d4" target="_top" xlink:title=" ">
<polygon fill="white" stroke="#666666" points="267.5,-442 159.5,-442 159.5,-423 267.5,-423 267.5,-442"/>
<text text-anchor="middle" x="213.5" y="-430" font-family="Helvetica,sans-Serif" font-size="10.00">cbrc::perlish::_split</text>
</a>
</g>
</g>
<!-- Node4&#45;&gt;Node5 -->
<g id="edge4_Node000004_Node000005" class="edge">
<title>Node4&#45;&gt;Node5</title>
<g id="a_edge4_Node000004_Node000005"><a xlink:title=" ">
<path fill="none" stroke="#63b8ff" d="M534.39,-318.47C532.83,-319.71 531.36,-321.05 530,-322.5 487.89,-367.55 542.94,-418.98 494,-456.5 414.58,-517.4 282.56,-465.06 233.57,-442.04"/>
<polygon fill="#63b8ff" stroke="#63b8ff" points="536.27,-321.42 542.83,-313.1 532.51,-315.52 536.27,-321.42"/>
</a>
</g>
</g>
<!-- Node7 -->
<g id="Node000007" class="node">
<title>Node7</title>
<g id="a_Node000007"><a xlink:href="namespacecbrc.html#a8de67037ccb41738f4923492db4368d5" target="_top" xlink:title=" ">
<polygon fill="white" stroke="#666666" points="486.5,-313 331.5,-313 331.5,-294 486.5,-294 486.5,-313"/>
<text text-anchor="middle" x="409" y="-301" font-family="Helvetica,sans-Serif" font-size="10.00">cbrc::assertStringLooksOkay</text>
</a>
</g>
</g>
<!-- Node4&#45;&gt;Node7 -->
<g id="edge6_Node000004_Node000007" class="edge">
<title>Node4&#45;&gt;Node7</title>
<g id="a_edge6_Node000004_Node000007"><a xlink:title=" ">
<path fill="none" stroke="#63b8ff" d="M521.3,-303.5C510.09,-303.5 498.32,-303.5 486.81,-303.5"/>
<polygon fill="#63b8ff" stroke="#63b8ff" points="521.41,-307 531.41,-303.5 521.41,-300 521.41,-307"/>
</a>
</g>
</g>
<!-- Node8 -->
<g id="Node000008" class="node">
<title>Node8</title>
<g id="a_Node000008"><a xlink:href="classcbrc_1_1FLEArray.html#ab8d915967d97927fac903d9f44661ba1" target="_top" xlink:title=" ">
<polygon fill="white" stroke="#666666" points="464,-276 354,-276 354,-257 464,-257 464,-276"/>
<text text-anchor="middle" x="409" y="-264" font-family="Helvetica,sans-Serif" font-size="10.00">cbrc::FLEArray::find</text>
</a>
</g>
</g>
<!-- Node4&#45;&gt;Node8 -->
<g id="edge7_Node000004_Node000008" class="edge">
<title>Node4&#45;&gt;Node8</title>
<g id="a_edge7_Node000004_Node000008"><a xlink:title=" ">
<path fill="none" stroke="#63b8ff" d="M530.23,-291.85C506.12,-286.77 478.21,-280.88 455.35,-276.06"/>
<polygon fill="#63b8ff" stroke="#63b8ff" points="529.8,-295.33 540.3,-293.97 531.24,-288.48 529.8,-295.33"/>
</a>
</g>
</g>
<!-- Node9 -->
<g id="Node000009" class="node">
<title>Node9</title>
<g id="a_Node000009"><a xlink:href="classcbrc_1_1Blast8ResultReader.html#a482769c3edf7a8b778a953192710583f" target="_top" xlink:title=" ">
<polygon fill="white" stroke="#666666" points="478.5,-238.5 339.5,-238.5 339.5,-208.5 478.5,-208.5 478.5,-238.5"/>
<text text-anchor="start" x="347.5" y="-226.5" font-family="Helvetica,sans-Serif" font-size="10.00">cbrc::Blast8ResultReader</text>
<text text-anchor="middle" x="409" y="-215.5" font-family="Helvetica,sans-Serif" font-size="10.00">::isBlastCommentLine</text>
</a>
</g>
</g>
<!-- Node4&#45;&gt;Node9 -->
<g id="edge8_Node000004_Node000009" class="edge">
<title>Node4&#45;&gt;Node9</title>
<g id="a_edge8_Node000004_Node000009"><a xlink:title=" ">
<path fill="none" stroke="#63b8ff" d="M563.54,-288.13C545.51,-276.07 518.98,-259.52 494,-248.5 485.65,-244.82 476.59,-241.49 467.63,-238.55"/>
<polygon fill="#63b8ff" stroke="#63b8ff" points="561.9,-291.25 572.13,-293.98 565.84,-285.46 561.9,-291.25"/>
</a>
</g>
</g>
<!-- Node14 -->
<g id="Node000014" class="node">
<title>Node14</title>
<g id="a_Node000014"><a xlink:href="classcbrc_1_1UnsignedDoubleMap.html#a4b61386f9ad0a811d0bdc27bcdfede6a" target="_top" xlink:title=" ">
<polygon fill="white" stroke="#666666" points="481,-190.5 337,-190.5 337,-160.5 481,-160.5 481,-190.5"/>
<text text-anchor="start" x="345" y="-178.5" font-family="Helvetica,sans-Serif" font-size="10.00">cbrc::UnsignedDoubleMap</text>
<text text-anchor="middle" x="409" y="-167.5" font-family="Helvetica,sans-Serif" font-size="10.00">::operator()</text>
</a>
</g>
</g>
<!-- Node4&#45;&gt;Node14 -->
<g id="edge13_Node000004_Node000014" class="edge">
<title>Node4&#45;&gt;Node14</title>
<g id="a_edge13_Node000004_Node000014"><a xlink:title=" ">
<path fill="none" stroke="#63b8ff" d="M574.24,-285.22C558.94,-261.88 529.37,-221.86 494,-199.5 488.62,-196.1 482.74,-193.16 476.67,-190.64"/>
<polygon fill="#63b8ff" stroke="#63b8ff" points="571.41,-287.28 579.74,-293.82 577.31,-283.51 571.41,-287.28"/>
</a>
</g>
</g>
<!-- Node15 -->
<g id="Node000015" class="node">
<title>Node15</title>
<g id="a_Node000015"><a xlink:href="classcbrc_1_1TransfacBindingFactor.html#a2a33d1135d2e6595aeccb3b8f99a7c33" target="_top" xlink:title=" ">
<polygon fill="white" stroke="#666666" points="494,-142 324,-142 324,-123 494,-123 494,-142"/>
<text text-anchor="middle" x="409" y="-130" font-family="Helvetica,sans-Serif" font-size="10.00">cbrc::TransfacBindingFactor::set</text>
</a>
</g>
</g>
<!-- Node4&#45;&gt;Node15 -->
<g id="edge14_Node000004_Node000015" class="edge">
<title>Node4&#45;&gt;Node15</title>
<g id="a_edge14_Node000004_Node000015"><a xlink:title=" ">
<path fill="none" stroke="#63b8ff" d="M579.46,-284.08C568.22,-251.33 540.88,-185.37 494,-151.5 488.67,-147.65 482.69,-144.56 476.44,-142.08"/>
<polygon fill="#63b8ff" stroke="#63b8ff" points="576.21,-285.42 582.66,-293.82 582.86,-283.23 576.21,-285.42"/>
</a>
</g>
</g>
<!-- Node18 -->
<g id="Node000018" class="node">
<title>Node18</title>
<g id="a_Node000018"><a xlink:href="namespacecbrc_1_1perlish.html#aa8224a10fd2772dc264f5fc4664624c3" target="_top" xlink:title=" ">
<polygon fill="white" stroke="#666666" points="265,-394 162,-394 162,-375 265,-375 265,-394"/>
<text text-anchor="middle" x="213.5" y="-382" font-family="Helvetica,sans-Serif" font-size="10.00">cbrc::perlish::split</text>
</a>
</g>
</g>
<!-- Node4&#45;&gt;Node18 -->
<g id="edge17_Node000004_Node000018" class="edge">
<title>Node4&#45;&gt;Node18</title>
<g id="a_edge17_Node000004_Node000018"><a xlink:title=" ">
<path fill="none" stroke="#63b8ff" d="M531.71,-315.21C478.83,-326.72 395.86,-344.79 324,-360.5 302.23,-365.26 278.03,-370.56 257.93,-374.97"/>
<polygon fill="#63b8ff" stroke="#63b8ff" points="532.51,-318.61 541.54,-313.07 531.03,-311.77 532.51,-318.61"/>
</a>
</g>
</g>
<!-- Node19 -->
<g id="Node000019" class="node">
<title>Node19</title>
<g id="a_Node000019"><a xlink:href="namespacecbrc_1_1perlish.html#a45e3793df08adee15403fd121c0e8b97" target="_top" xlink:title=" ">
<polygon fill="white" stroke="#666666" points="477,-399.5 341,-399.5 341,-369.5 477,-369.5 477,-399.5"/>
<text text-anchor="start" x="349" y="-387.5" font-family="Helvetica,sans-Serif" font-size="10.00">cbrc::perlish::splitOnOne</text>
<text text-anchor="middle" x="409" y="-376.5" font-family="Helvetica,sans-Serif" font-size="10.00">Match</text>
</a>
</g>
</g>
<!-- Node4&#45;&gt;Node19 -->
<g id="edge18_Node000004_Node000019" class="edge">
<title>Node4&#45;&gt;Node19</title>
<g id="a_edge18_Node000004_Node000019"><a xlink:title=" ">
<path fill="none" stroke="#63b8ff" d="M540.94,-316.89C537.15,-318.59 533.45,-320.45 530,-322.5 511.34,-333.58 512.65,-344.39 494,-355.5 484.85,-360.95 474.54,-365.57 464.34,-369.4"/>
<polygon fill="#63b8ff" stroke="#63b8ff" points="542.52,-320.03 550.47,-313.03 539.89,-313.54 542.52,-320.03"/>
</a>
</g>
</g>
<!-- Node20 -->
<g id="Node000020" class="node">
<title>Node20</title>
<g id="a_Node000020"><a xlink:href="namespacecbrc_1_1perlish.html#ace193148eb37542381568f674e8ca7c9" target="_top" xlink:title=" ">
<polygon fill="white" stroke="#666666" points="477,-447.5 341,-447.5 341,-417.5 477,-417.5 477,-447.5"/>
<text text-anchor="start" x="349" y="-435.5" font-family="Helvetica,sans-Serif" font-size="10.00">cbrc::perlish::splitOnOne</text>
<text text-anchor="middle" x="409" y="-424.5" font-family="Helvetica,sans-Serif" font-size="10.00">OrMoreCharsInCharSet</text>
</a>
</g>
</g>
<!-- Node4&#45;&gt;Node20 -->
<g id="edge21_Node000004_Node000020" class="edge">
<title>Node4&#45;&gt;Node20</title>
<g id="a_edge21_Node000004_Node000020"><a xlink:title=" ">
<path fill="none" stroke="#63b8ff" d="M535.45,-318.13C533.52,-319.47 531.69,-320.92 530,-322.5 499.74,-350.81 524.98,-380.98 494,-408.5 489.01,-412.93 483.26,-416.55 477.14,-419.5"/>
<polygon fill="#63b8ff" stroke="#63b8ff" points="537.46,-321.02 544.43,-313.04 534.01,-314.93 537.46,-321.02"/>
</a>
</g>
</g>
<!-- Node21 -->
<g id="Node000021" class="node">
<title>Node21</title>
<g id="a_Node000021"><a xlink:href="namespacecbrc_1_1perlish.html#a66f5d52e6ad22413fdbb349dc27aa6ec" target="_top" xlink:title=" ">
<polygon fill="white" stroke="#666666" points="477,-104.5 341,-104.5 341,-74.5 477,-74.5 477,-104.5"/>
<text text-anchor="start" x="349" y="-92.5" font-family="Helvetica,sans-Serif" font-size="10.00">cbrc::perlish::splitOnOne</text>
<text text-anchor="middle" x="409" y="-81.5" font-family="Helvetica,sans-Serif" font-size="10.00">OrMoreCharsInCharSet</text>
</a>
</g>
</g>
<!-- Node4&#45;&gt;Node21 -->
<g id="edge24_Node000004_Node000021" class="edge">
<title>Node4&#45;&gt;Node21</title>
<g id="a_edge24_Node000004_Node000021"><a xlink:title=" ">
<path fill="none" stroke="#63b8ff" d="M578.5,-284.34C562.39,-241.18 521.91,-138.23 494,-114.5 489.02,-110.26 483.34,-106.74 477.33,-103.82"/>
<polygon fill="#63b8ff" stroke="#63b8ff" points="575.3,-285.78 582.05,-293.94 581.87,-283.35 575.3,-285.78"/>
</a>
</g>
</g>
<!-- Node22 -->
<g id="Node000022" class="node">
<title>Node22</title>
<g id="a_Node000022"><a xlink:href="namespacecbrc.html#a0973b25ce7d45f61f0d241da952d8102" target="_top" xlink:title=" ">
<polygon fill="white" stroke="#666666" points="461.5,-56 356.5,-56 356.5,-37 461.5,-37 461.5,-56"/>
<text text-anchor="middle" x="409" y="-44" font-family="Helvetica,sans-Serif" font-size="10.00">cbrc::sprotGrepOC</text>
</a>
</g>
</g>
<!-- Node4&#45;&gt;Node22 -->
<g id="edge25_Node000004_Node000022" class="edge">
<title>Node4&#45;&gt;Node22</title>
<g id="a_edge25_Node000004_Node000022"><a xlink:title=" ">
<path fill="none" stroke="#63b8ff" d="M578.23,-284.41C556.77,-228.09 495.11,-66.46 494,-65.5 484.95,-57.68 473.36,-52.89 461.69,-50"/>
<polygon fill="#63b8ff" stroke="#63b8ff" points="575.02,-285.82 581.85,-293.92 581.56,-283.33 575.02,-285.82"/>
</a>
</g>
</g>
<!-- Node24 -->
<g id="Node000024" class="node">
<title>Node24</title>
<g id="a_Node000024"><a xlink:href="namespacecbrc_1_1stringUtils.html#ac32e3e3f36b890e6f2b227d097393bd5" target="_top" xlink:title=" ">
<polygon fill="white" stroke="#666666" points="458.5,-608.5 359.5,-608.5 359.5,-578.5 458.5,-578.5 458.5,-608.5"/>
<text text-anchor="start" x="367.5" y="-596.5" font-family="Helvetica,sans-Serif" font-size="10.00">cbrc::stringUtils::</text>
<text text-anchor="middle" x="409" y="-585.5" font-family="Helvetica,sans-Serif" font-size="10.00">stringReplaceAll</text>
</a>
</g>
</g>
<!-- Node4&#45;&gt;Node24 -->
<g id="edge27_Node000004_Node000024" class="edge">
<title>Node4&#45;&gt;Node24</title>
<g id="a_edge27_Node000004_Node000024"><a xlink:title=" ">
<path fill="none" stroke="#63b8ff" d="M533.21,-319.12C532.07,-320.18 531,-321.3 530,-322.5 459.14,-407.86 567.03,-486 494,-569.5 485.01,-579.77 471.96,-585.79 458.82,-589.27"/>
<polygon fill="#63b8ff" stroke="#63b8ff" points="535.47,-321.81 541.57,-313.15 531.4,-316.11 535.47,-321.81"/>
</a>
</g>
</g>
<!-- Node25 -->
<g id="Node000025" class="node">
<title>Node25</title>
<g id="a_Node000025"><a xlink:href="namespacecbrc_1_1perlish.html#ab3b4c608712b9299b75ccb510b6975b5" target="_top" xlink:title=" ">
<polygon fill="white" stroke="#666666" points="475,-560 343,-560 343,-541 475,-541 475,-560"/>
<text text-anchor="middle" x="409" y="-548" font-family="Helvetica,sans-Serif" font-size="10.00">cbrc::perlish::toSeconds</text>
</a>
</g>
</g>
<!-- Node4&#45;&gt;Node25 -->
<g id="edge28_Node000004_Node000025" class="edge">
<title>Node4&#45;&gt;Node25</title>
<g id="a_edge28_Node000004_Node000025"><a xlink:title=" ">
<path fill="none" stroke="#63b8ff" d="M533.68,-318.78C532.37,-319.93 531.13,-321.17 530,-322.5 468.61,-394.6 559.56,-464.17 494,-532.5 488.73,-537.99 482.23,-542 475.2,-544.92"/>
<polygon fill="#63b8ff" stroke="#63b8ff" points="535.69,-321.64 541.94,-313.08 531.72,-315.88 535.69,-321.64"/>
</a>
</g>
</g>
<!-- Node26 -->
<g id="Node000026" class="node">
<title>Node26</title>
<g id="a_Node000026"><a xlink:href="namespacecbrc_1_1meminfo.html#aafede38599a54b64aebbb926ca8025ad" target="_top" xlink:title=" ">
<polygon fill="white" stroke="#666666" points="467,-523 351,-523 351,-504 467,-504 467,-523"/>
<text text-anchor="middle" x="409" y="-511" font-family="Helvetica,sans-Serif" font-size="10.00">cbrc::meminfo::total</text>
</a>
</g>
</g>
<!-- Node4&#45;&gt;Node26 -->
<g id="edge29_Node000004_Node000026" class="edge">
<title>Node4&#45;&gt;Node26</title>
<g id="a_edge29_Node000004_Node000026"><a xlink:title=" ">
<path fill="none" stroke="#63b8ff" d="M533.83,-318.77C532.47,-319.92 531.19,-321.17 530,-322.5 479.56,-379.25 545.89,-434.07 494,-489.5 486.74,-497.25 477.18,-502.56 467.1,-506.18"/>
<polygon fill="#63b8ff" stroke="#63b8ff" points="536,-321.53 542.37,-313.07 532.11,-315.71 536,-321.53"/>
</a>
</g>
</g>
<!-- Node6 -->
<g id="Node000006" class="node">
<title>Node6</title>
<g id="a_Node000006"><a xlink:href="namespacecbrc_1_1perlish.html#a0239063f56550ecc3e66fea8fa39f795" target="_top" xlink:title=" ">
<polygon fill="white" stroke="#666666" points="103,-442 0,-442 0,-423 103,-423 103,-442"/>
<text text-anchor="middle" x="51.5" y="-430" font-family="Helvetica,sans-Serif" font-size="10.00">cbrc::perlish::split</text>
</a>
</g>
</g>
<!-- Node5&#45;&gt;Node6 -->
<g id="edge5_Node000005_Node000006" class="edge">
<title>Node5&#45;&gt;Node6</title>
<g id="a_edge5_Node000005_Node000006"><a xlink:title=" ">
<path fill="none" stroke="#63b8ff" d="M148.86,-432.5C133.66,-432.5 117.63,-432.5 103.11,-432.5"/>
<polygon fill="#63b8ff" stroke="#63b8ff" points="149.22,-436 159.22,-432.5 149.22,-429 149.22,-436"/>
</a>
</g>
</g>
<!-- Node10 -->
<g id="Node000010" class="node">
<title>Node10</title>
<g id="a_Node000010"><a xlink:href="classcbrc_1_1Blast8ResultReader.html#a125816b6bd71c354d8607ca6634bc6e3" target="_top" xlink:title=" ">
<polygon fill="white" stroke="#666666" points="283,-294.5 144,-294.5 144,-264.5 283,-264.5 283,-294.5"/>
<text text-anchor="start" x="152" y="-282.5" font-family="Helvetica,sans-Serif" font-size="10.00">cbrc::Blast8ResultReader</text>
<text text-anchor="middle" x="213.5" y="-271.5" font-family="Helvetica,sans-Serif" font-size="10.00">::Blast8ResultReader</text>
</a>
</g>
</g>
<!-- Node9&#45;&gt;Node10 -->
<g id="edge9_Node000009_Node000010" class="edge">
<title>Node9&#45;&gt;Node10</title>
<g id="a_edge9_Node000009_Node000010"><a xlink:title=" ">
<path fill="none" stroke="#63b8ff" d="M346.48,-241.3C320.74,-248.75 291.13,-257.32 266.5,-264.45"/>
<polygon fill="#63b8ff" stroke="#63b8ff" points="347.51,-244.65 356.15,-238.51 345.57,-237.92 347.51,-244.65"/>
</a>
</g>
</g>
<!-- Node11 -->
<g id="Node000011" class="node">
<title>Node11</title>
<g id="a_Node000011"><a xlink:href="namespacecbrc.html#a63da722ab9af7fef0a7ff9efef851f89" target="_top" xlink:title=" ">
<polygon fill="white" stroke="#666666" points="277,-246.5 150,-246.5 150,-216.5 277,-216.5 277,-246.5"/>
<text text-anchor="start" x="158" y="-234.5" font-family="Helvetica,sans-Serif" font-size="10.00">cbrc::filterBlast8Result</text>
<text text-anchor="middle" x="213.5" y="-223.5" font-family="Helvetica,sans-Serif" font-size="10.00">EValueThreshold</text>
</a>
</g>
</g>
<!-- Node9&#45;&gt;Node11 -->
<g id="edge10_Node000009_Node000011" class="edge">
<title>Node9&#45;&gt;Node11</title>
<g id="a_edge10_Node000009_Node000011"><a xlink:title=" ">
<path fill="none" stroke="#63b8ff" d="M329.16,-226.76C311.87,-227.47 293.79,-228.22 277.24,-228.91"/>
<polygon fill="#63b8ff" stroke="#63b8ff" points="329.39,-230.25 339.23,-226.34 329.1,-223.26 329.39,-230.25"/>
</a>
</g>
</g>
<!-- Node13 -->
<g id="Node000013" class="node">
<title>Node13</title>
<g id="a_Node000013"><a xlink:href="classcbrc_1_1Blast8Result.html#af12163e9dc07186966f7957a418d2149" target="_top" xlink:title=" ">
<polygon fill="white" stroke="#666666" points="265.5,-198.5 161.5,-198.5 161.5,-168.5 265.5,-168.5 265.5,-198.5"/>
<text text-anchor="start" x="169.5" y="-186.5" font-family="Helvetica,sans-Serif" font-size="10.00">cbrc::Blast8Result</text>
<text text-anchor="middle" x="213.5" y="-175.5" font-family="Helvetica,sans-Serif" font-size="10.00">::setFromStream</text>
</a>
</g>
</g>
<!-- Node9&#45;&gt;Node13 -->
<g id="edge12_Node000009_Node000013" class="edge">
<title>Node9&#45;&gt;Node13</title>
<g id="a_edge12_Node000009_Node000013"><a xlink:title=" ">
<path fill="none" stroke="#63b8ff" d="M329.17,-207.2C307.77,-202.78 285.15,-198.1 265.71,-194.09"/>
<polygon fill="#63b8ff" stroke="#63b8ff" points="328.73,-210.69 339.23,-209.28 330.15,-203.83 328.73,-210.69"/>
</a>
</g>
</g>
<!-- Node12 -->
<g id="Node000012" class="node">
<title>Node12</title>
<g id="a_Node000012"><a xlink:href="filterBlast8ResultEValueThreshold_8cc.html#a217dbf8b442f20279ea00b898af96f52" target="_top" xlink:title=" ">
<polygon fill="white" stroke="#666666" points="72,-241 31,-241 31,-222 72,-222 72,-241"/>
<text text-anchor="middle" x="51.5" y="-229" font-family="Helvetica,sans-Serif" font-size="10.00">main</text>
</a>
</g>
</g>
<!-- Node11&#45;&gt;Node12 -->
<g id="edge11_Node000011_Node000012" class="edge">
<title>Node11&#45;&gt;Node12</title>
<g id="a_edge11_Node000011_Node000012"><a xlink:title=" ">
<path fill="none" stroke="#63b8ff" d="M139.57,-231.5C114.82,-231.5 89.17,-231.5 72.17,-231.5"/>
<polygon fill="#63b8ff" stroke="#63b8ff" points="139.72,-235 149.72,-231.5 139.72,-228 139.72,-235"/>
</a>
</g>
</g>
<!-- Node16 -->
<g id="Node000016" class="node">
<title>Node16</title>
<g id="a_Node000016"><a xlink:href="classcbrc_1_1TransfacReader.html#a0b57f4fd735dffc81814974f7e398600" target="_top" xlink:title=" ">
<polygon fill="white" stroke="#666666" points="272.5,-150.5 154.5,-150.5 154.5,-120.5 272.5,-120.5 272.5,-150.5"/>
<text text-anchor="start" x="162.5" y="-138.5" font-family="Helvetica,sans-Serif" font-size="10.00">cbrc::TransfacReader</text>
<text text-anchor="middle" x="213.5" y="-127.5" font-family="Helvetica,sans-Serif" font-size="10.00">::readRecord</text>
</a>
</g>
</g>
<!-- Node15&#45;&gt;Node16 -->
<g id="edge15_Node000015_Node000016" class="edge">
<title>Node15&#45;&gt;Node16</title>
<g id="a_edge15_Node000015_Node000016"><a xlink:title=" ">
<path fill="none" stroke="#63b8ff" d="M313.77,-133.96C299.71,-134.18 285.58,-134.4 272.57,-134.6"/>
<polygon fill="#63b8ff" stroke="#63b8ff" points="314.03,-137.46 323.97,-133.8 313.92,-130.46 314.03,-137.46"/>
</a>
</g>
</g>
<!-- Node17 -->
<g id="Node000017" class="node">
<title>Node17</title>
<g id="a_Node000017"><a xlink:href="classcbrc_1_1TransfacBindingFactor.html#af75f2ee58b5333d2fe3db7b5ef54b1a6" target="_top" xlink:title=" ">
<polygon fill="white" stroke="#666666" points="288,-102.5 139,-102.5 139,-72.5 288,-72.5 288,-102.5"/>
<text text-anchor="start" x="147" y="-90.5" font-family="Helvetica,sans-Serif" font-size="10.00">cbrc::TransfacBindingFactor</text>
<text text-anchor="middle" x="213.5" y="-79.5" font-family="Helvetica,sans-Serif" font-size="10.00">::TransfacBindingFactor</text>
</a>
</g>
</g>
<!-- Node15&#45;&gt;Node17 -->
<g id="edge16_Node000015_Node000017" class="edge">
<title>Node15&#45;&gt;Node17</title>
<g id="a_edge16_Node000015_Node000017"><a xlink:title=" ">
<path fill="none" stroke="#63b8ff" d="M355.43,-120.7C345.01,-118.34 334.15,-115.85 324,-113.5 308.87,-109.99 292.57,-106.16 277.3,-102.53"/>
<polygon fill="#63b8ff" stroke="#63b8ff" points="354.72,-124.13 365.25,-122.92 356.27,-117.3 354.72,-124.13"/>
</a>
</g>
</g>
<!-- Node19&#45;&gt;Node5 -->
<g id="edge19_Node000019_Node000005" class="edge">
<title>Node19&#45;&gt;Node5</title>
<g id="a_edge19_Node000019_Node000005"><a xlink:title=" ">
<path fill="none" stroke="#63b8ff" d="M337.39,-402.02C308.9,-409.08 277.15,-416.96 253.06,-422.94"/>
<polygon fill="#63b8ff" stroke="#63b8ff" points="338.44,-405.36 347.31,-399.56 336.76,-398.57 338.44,-405.36"/>
</a>
</g>
</g>
<!-- Node19&#45;&gt;Node18 -->
<g id="edge20_Node000019_Node000018" class="edge">
<title>Node19&#45;&gt;Node18</title>
<g id="a_edge20_Node000019_Node000018"><a xlink:title=" ">
<path fill="none" stroke="#63b8ff" d="M330.81,-384.5C308.68,-384.5 285.12,-384.5 265.04,-384.5"/>
<polygon fill="#63b8ff" stroke="#63b8ff" points="330.87,-388 340.87,-384.5 330.87,-381 330.87,-388"/>
</a>
</g>
</g>
<!-- Node20&#45;&gt;Node5 -->
<g id="edge22_Node000020_Node000005" class="edge">
<title>Node20&#45;&gt;Node5</title>
<g id="a_edge22_Node000020_Node000005"><a xlink:title=" ">
<path fill="none" stroke="#63b8ff" d="M330.64,-432.5C309.57,-432.5 287.21,-432.5 267.8,-432.5"/>
<polygon fill="#63b8ff" stroke="#63b8ff" points="330.87,-436 340.87,-432.5 330.87,-429 330.87,-436"/>
</a>
</g>
</g>
<!-- Node20&#45;&gt;Node18 -->
<g id="edge23_Node000020_Node000018" class="edge">
<title>Node20&#45;&gt;Node18</title>
<g id="a_edge23_Node000020_Node000018"><a xlink:title=" ">
<path fill="none" stroke="#63b8ff" d="M337.39,-414.98C308.9,-407.92 277.15,-400.04 253.06,-394.06"/>
<polygon fill="#63b8ff" stroke="#63b8ff" points="336.76,-418.43 347.31,-417.44 338.44,-411.64 336.76,-418.43"/>
</a>
</g>
</g>
<!-- Node23 -->
<g id="Node000023" class="node">
<title>Node23</title>
<g id="a_Node000023"><a xlink:href="sprotGrepOC_8cc.html#ac0f2228420376f4db7e1274f2b41667c" target="_top" xlink:title=" ">
<polygon fill="white" stroke="#666666" points="234,-54 193,-54 193,-35 234,-35 234,-54"/>
<text text-anchor="middle" x="213.5" y="-42" font-family="Helvetica,sans-Serif" font-size="10.00">main</text>
</a>
</g>
</g>
<!-- Node22&#45;&gt;Node23 -->
<g id="edge26_Node000022_Node000023" class="edge">
<title>Node22&#45;&gt;Node23</title>
<g id="a_edge26_Node000022_Node000023"><a xlink:title=" ">
<path fill="none" stroke="#63b8ff" d="M346.29,-45.86C307.73,-45.46 260.58,-44.98 234.41,-44.71"/>
<polygon fill="#63b8ff" stroke="#63b8ff" points="346.36,-49.36 356.4,-45.97 346.44,-42.36 346.36,-49.36"/>
</a>
</g>
</g>
<!-- Node28 -->
<g id="Node000028" class="node">
<title>Node28</title>
<g id="a_Node000028"><a xlink:href="classcbrc_1_1FLEArray.html#a30c0a58e24cb5141ebdf5c2e9a953ddf" target="_top" xlink:title=" ">
<polygon fill="white" stroke="#666666" points="465.5,-19 352.5,-19 352.5,0 465.5,0 465.5,-19"/>
<text text-anchor="middle" x="409" y="-7" font-family="Helvetica,sans-Serif" font-size="10.00">cbrc::FLEArray::rfind</text>
</a>
</g>
</g>
<!-- Node27&#45;&gt;Node28 -->
<g id="edge31_Node000027_Node000028" class="edge">
<title>Node27&#45;&gt;Node28</title>
<g id="a_edge31_Node000027_Node000028"><a xlink:title=" ">
<path fill="none" stroke="#63b8ff" d="M575.34,-119.92C560.73,-95.05 531.4,-51.41 494,-28.5 485.46,-23.27 475.63,-19.47 465.78,-16.72"/>
<polygon fill="#63b8ff" stroke="#63b8ff" points="572.37,-121.78 580.36,-128.74 578.46,-118.32 572.37,-121.78"/>
</a>
</g>
</g>
</g>
</svg>
