<?xml version="1.0" encoding="UTF-8" standalone="no"?>
<!DOCTYPE svg PUBLIC "-//W3C//DTD SVG 1.1//EN"
 "http://www.w3.org/Graphics/SVG/1.1/DTD/svg11.dtd">
<!-- Generated by graphviz version 2.43.0 (0)
 -->
<!-- Title: cbrc::Sigma4FLArray::byteSize Pages: 1 -->
<svg width="434pt" height="374pt"
 viewBox="0.00 0.00 434.00 374.00" xmlns="http://www.w3.org/2000/svg" xmlns:xlink="http://www.w3.org/1999/xlink">

<svg id="main" version="1.1" xmlns="http://www.w3.org/2000/svg" xmlns:xlink="http://www.w3.org/1999/xlink" xml:space="preserve" onload="init(evt)">
<style type="text/css"><![CDATA[
.node, .edge {opacity: 0.7;}
.node.selected, .edge.selected {opacity: 1;}
.edge:hover path { stroke: red; }
.edge:hover polygon { stroke: red; fill: red; }
]]></style>
<script type="application/ecmascript" xlink:href="svg.min.js"/>
<svg id="graph" class="graph">
<g id="graph0" class="graph" transform="scale(1 1) rotate(0) translate(4 370)">
<title>cbrc::Sigma4FLArray::byteSize</title>
<!-- Node1 -->
<g id="Node000001" class="node">
<title>Node1</title>
<g id="a_Node000001"><a xlink:title=" ">
<polygon fill="#999999" stroke="#666666" points="426,-198 308,-198 308,-168 426,-168 426,-198"/>
<text text-anchor="start" x="316" y="-186" font-family="Helvetica,sans-Serif" font-size="10.00">cbrc::Sigma4FLArray</text>
<text text-anchor="middle" x="367" y="-175" font-family="Helvetica,sans-Serif" font-size="10.00">::byteSize</text>
</a>
</g>
</g>
<!-- Node2 -->
<g id="Node000002" class="node">
<title>Node2</title>
<g id="a_Node000002"><a xlink:href="classcbrc_1_1Sigma4FLArray.html#aeb3ca3e54fbd2b206567785d34adbc09" target="_top" xlink:title=" ">
<polygon fill="white" stroke="#666666" points="272,-366 154,-366 154,-336 272,-336 272,-366"/>
<text text-anchor="start" x="162" y="-354" font-family="Helvetica,sans-Serif" font-size="10.00">cbrc::Sigma4FLArray</text>
<text text-anchor="middle" x="213" y="-343" font-family="Helvetica,sans-Serif" font-size="10.00">::hexDump</text>
</a>
</g>
</g>
<!-- Node1&#45;&gt;Node2 -->
<g id="edge1_Node000001_Node000002" class="edge">
<title>Node1&#45;&gt;Node2</title>
<g id="a_edge1_Node000001_Node000002"><a xlink:title=" ">
<path fill="none" stroke="#63b8ff" d="M355.59,-207.57C341.09,-239.13 312.02,-293.81 272,-327 267.89,-330.41 263.23,-333.39 258.38,-335.99"/>
<polygon fill="#63b8ff" stroke="#63b8ff" points="358.9,-208.75 359.78,-198.19 352.51,-205.89 358.9,-208.75"/>
</a>
</g>
</g>
<!-- Node3 -->
<g id="Node000003" class="node">
<title>Node3</title>
<g id="a_Node000003"><a xlink:href="classcbrc_1_1Sigma4FLArray.html#ae17dae7693135ed86baee63b1ca0041e" target="_top" xlink:title=" ">
<polygon fill="white" stroke="#666666" points="272,-318 154,-318 154,-288 272,-288 272,-318"/>
<text text-anchor="start" x="162" y="-306" font-family="Helvetica,sans-Serif" font-size="10.00">cbrc::Sigma4FLArray</text>
<text text-anchor="middle" x="213" y="-295" font-family="Helvetica,sans-Serif" font-size="10.00">::operator!=</text>
</a>
</g>
</g>
<!-- Node1&#45;&gt;Node3 -->
<g id="edge2_Node000001_Node000003" class="edge">
<title>Node1&#45;&gt;Node3</title>
<g id="a_edge2_Node000001_Node000003"><a xlink:title=" ">
<path fill="none" stroke="#63b8ff" d="M348.07,-206.07C330.56,-227.33 302.2,-258.6 272,-279 267.12,-282.29 261.72,-285.27 256.24,-287.91"/>
<polygon fill="#63b8ff" stroke="#63b8ff" points="350.88,-208.16 354.44,-198.18 345.44,-203.76 350.88,-208.16"/>
</a>
</g>
</g>
<!-- Node4 -->
<g id="Node000004" class="node">
<title>Node4</title>
<g id="a_Node000004"><a xlink:href="classcbrc_1_1Sigma4FLArray.html#a5ce7cfd99f65bd0745f819200a4ecd64" target="_top" xlink:title=" ">
<polygon fill="white" stroke="#666666" points="272,-270 154,-270 154,-240 272,-240 272,-270"/>
<text text-anchor="start" x="162" y="-258" font-family="Helvetica,sans-Serif" font-size="10.00">cbrc::Sigma4FLArray</text>
<text text-anchor="middle" x="213" y="-247" font-family="Helvetica,sans-Serif" font-size="10.00">::operator&lt;</text>
</a>
</g>
</g>
<!-- Node1&#45;&gt;Node4 -->
<g id="edge3_Node000001_Node000004" class="edge">
<title>Node1&#45;&gt;Node4</title>
<g id="a_edge3_Node000001_Node000004"><a xlink:title=" ">
<path fill="none" stroke="#63b8ff" d="M328.79,-202.87C311.65,-211.79 290.95,-222.26 272,-231 265.47,-234.01 258.45,-237.07 251.63,-239.94"/>
<polygon fill="#63b8ff" stroke="#63b8ff" points="330.67,-205.83 337.91,-198.09 327.42,-199.63 330.67,-205.83"/>
</a>
</g>
</g>
<!-- Node5 -->
<g id="Node000005" class="node">
<title>Node5</title>
<g id="a_Node000005"><a xlink:href="classcbrc_1_1Sigma4FLArray.html#aa7b8a1acc000ecfa1c44f75c354b8f69" target="_top" xlink:title=" ">
<polygon fill="white" stroke="#666666" points="272,-222 154,-222 154,-192 272,-192 272,-222"/>
<text text-anchor="start" x="162" y="-210" font-family="Helvetica,sans-Serif" font-size="10.00">cbrc::Sigma4FLArray</text>
<text text-anchor="middle" x="213" y="-199" font-family="Helvetica,sans-Serif" font-size="10.00">::operator=</text>
</a>
</g>
</g>
<!-- Node1&#45;&gt;Node5 -->
<g id="edge4_Node000001_Node000005" class="edge">
<title>Node1&#45;&gt;Node5</title>
<g id="a_edge4_Node000001_Node000005"><a xlink:title=" ">
<path fill="none" stroke="#63b8ff" d="M297.74,-193.78C289.2,-195.13 280.54,-196.49 272.18,-197.81"/>
<polygon fill="#63b8ff" stroke="#63b8ff" points="298.34,-197.23 307.67,-192.21 297.24,-190.31 298.34,-197.23"/>
</a>
</g>
</g>
<!-- Node6 -->
<g id="Node000006" class="node">
<title>Node6</title>
<g id="a_Node000006"><a xlink:href="classcbrc_1_1Sigma4FLArray.html#a38482099a35fdfa8757dd6eca3f499fb" target="_top" xlink:title=" ">
<polygon fill="white" stroke="#666666" points="272,-174 154,-174 154,-144 272,-144 272,-174"/>
<text text-anchor="start" x="162" y="-162" font-family="Helvetica,sans-Serif" font-size="10.00">cbrc::Sigma4FLArray</text>
<text text-anchor="middle" x="213" y="-151" font-family="Helvetica,sans-Serif" font-size="10.00">::operator==</text>
</a>
</g>
</g>
<!-- Node1&#45;&gt;Node6 -->
<g id="edge5_Node000001_Node000006" class="edge">
<title>Node1&#45;&gt;Node6</title>
<g id="a_edge5_Node000001_Node000006"><a xlink:title=" ">
<path fill="none" stroke="#63b8ff" d="M297.74,-172.22C289.2,-170.87 280.54,-169.51 272.18,-168.19"/>
<polygon fill="#63b8ff" stroke="#63b8ff" points="297.24,-175.69 307.67,-173.79 298.34,-168.77 297.24,-175.69"/>
</a>
</g>
</g>
<!-- Node7 -->
<g id="Node000007" class="node">
<title>Node7</title>
<g id="a_Node000007"><a xlink:href="classcbrc_1_1Sigma4FLArray.html#a5e39b1484abcc17ab8ec03d2d5cf2b22" target="_top" xlink:title=" ">
<polygon fill="white" stroke="#666666" points="272,-126 154,-126 154,-96 272,-96 272,-126"/>
<text text-anchor="start" x="162" y="-114" font-family="Helvetica,sans-Serif" font-size="10.00">cbrc::Sigma4FLArray</text>
<text text-anchor="middle" x="213" y="-103" font-family="Helvetica,sans-Serif" font-size="10.00">::read</text>
</a>
</g>
</g>
<!-- Node1&#45;&gt;Node7 -->
<g id="edge6_Node000001_Node000007" class="edge">
<title>Node1&#45;&gt;Node7</title>
<g id="a_edge6_Node000001_Node000007"><a xlink:title=" ">
<path fill="none" stroke="#63b8ff" d="M328.79,-163.13C311.65,-154.21 290.95,-143.74 272,-135 265.47,-131.99 258.45,-128.93 251.63,-126.06"/>
<polygon fill="#63b8ff" stroke="#63b8ff" points="327.42,-166.37 337.91,-167.91 330.67,-160.17 327.42,-166.37"/>
</a>
</g>
</g>
<!-- Node9 -->
<g id="Node000009" class="node">
<title>Node9</title>
<g id="a_Node000009"><a xlink:href="classcbrc_1_1Sigma4FLArray.html#a8ebbd3b0cc48af9ef44d33ebacdda702" target="_top" xlink:title=" ">
<polygon fill="white" stroke="#666666" points="272,-78 154,-78 154,-48 272,-48 272,-78"/>
<text text-anchor="start" x="162" y="-66" font-family="Helvetica,sans-Serif" font-size="10.00">cbrc::Sigma4FLArray</text>
<text text-anchor="middle" x="213" y="-55" font-family="Helvetica,sans-Serif" font-size="10.00">::Sigma4FLArray</text>
</a>
</g>
</g>
<!-- Node1&#45;&gt;Node9 -->
<g id="edge8_Node000001_Node000009" class="edge">
<title>Node1&#45;&gt;Node9</title>
<g id="a_edge8_Node000001_Node000009"><a xlink:title=" ">
<path fill="none" stroke="#63b8ff" d="M348.07,-159.93C330.56,-138.67 302.2,-107.4 272,-87 267.12,-83.71 261.72,-80.73 256.24,-78.09"/>
<polygon fill="#63b8ff" stroke="#63b8ff" points="345.44,-162.24 354.44,-167.82 350.88,-157.84 345.44,-162.24"/>
</a>
</g>
</g>
<!-- Node10 -->
<g id="Node000010" class="node">
<title>Node10</title>
<g id="a_Node000010"><a xlink:href="classcbrc_1_1Sigma4FLArray.html#a766ae133656d06b16da11c81b2cbcbfa" target="_top" xlink:title=" ">
<polygon fill="white" stroke="#666666" points="272,-30 154,-30 154,0 272,0 272,-30"/>
<text text-anchor="start" x="162" y="-18" font-family="Helvetica,sans-Serif" font-size="10.00">cbrc::Sigma4FLArray</text>
<text text-anchor="middle" x="213" y="-7" font-family="Helvetica,sans-Serif" font-size="10.00">::write</text>
</a>
</g>
</g>
<!-- Node1&#45;&gt;Node10 -->
<g id="edge9_Node000001_Node000010" class="edge">
<title>Node1&#45;&gt;Node10</title>
<g id="a_edge9_Node000001_Node000010"><a xlink:title=" ">
<path fill="none" stroke="#63b8ff" d="M355.59,-158.43C341.09,-126.87 312.02,-72.19 272,-39 267.89,-35.59 263.23,-32.61 258.38,-30.01"/>
<polygon fill="#63b8ff" stroke="#63b8ff" points="352.51,-160.11 359.78,-167.81 358.9,-157.25 352.51,-160.11"/>
</a>
</g>
</g>
<!-- Node8 -->
<g id="Node000008" class="node">
<title>Node8</title>
<g id="a_Node000008"><a xlink:href="classcbrc_1_1Sigma4FLArray.html#aad29ef74aca295b0030fa1832c807bf1" target="_top" xlink:title=" ">
<polygon fill="white" stroke="#666666" points="118,-126 0,-126 0,-96 118,-96 118,-126"/>
<text text-anchor="start" x="8" y="-114" font-family="Helvetica,sans-Serif" font-size="10.00">cbrc::Sigma4FLArray</text>
<text text-anchor="middle" x="59" y="-103" font-family="Helvetica,sans-Serif" font-size="10.00">::Sigma4FLArray</text>
</a>
</g>
</g>
<!-- Node7&#45;&gt;Node8 -->
<g id="edge7_Node000007_Node000008" class="edge">
<title>Node7&#45;&gt;Node8</title>
<g id="a_edge7_Node000007_Node000008"><a xlink:title=" ">
<path fill="none" stroke="#63b8ff" d="M143.46,-111C135.01,-111 126.45,-111 118.18,-111"/>
<polygon fill="#63b8ff" stroke="#63b8ff" points="143.67,-114.5 153.67,-111 143.67,-107.5 143.67,-114.5"/>
</a>
</g>
</g>
</g>
</svg>
</svg>

<style type='text/css'>
<![CDATA[
[data-mouse-over-selected='false'] { opacity: 0.7; }
[data-mouse-over-selected='true']  { opacity: 1.0; }
]]>
</style>
<script type="application/ecmascript"><![CDATA[
document.addEventListener('DOMContentLoaded', (event) => {
  highlightEdges();
  highlightAdjacentNodes();
});
]]></script>
</svg>
