<?xml version="1.0" encoding="UTF-8" standalone="no"?>
<!DOCTYPE svg PUBLIC "-//W3C//DTD SVG 1.1//EN"
 "http://www.w3.org/Graphics/SVG/1.1/DTD/svg11.dtd">
<!-- Generated by graphviz version 2.43.0 (0)
 -->
<!-- Title: cbrc::ArgvParser::size Pages: 1 -->
<svg width="521pt" height="85pt"
 viewBox="0.00 0.00 521.00 85.00" xmlns="http://www.w3.org/2000/svg" xmlns:xlink="http://www.w3.org/1999/xlink">
<g id="graph0" class="graph" transform="scale(1 1) rotate(0) translate(4 81)">
<title>cbrc::ArgvParser::size</title>
<!-- Node1 -->
<g id="Node000001" class="node">
<title>Node1</title>
<g id="a_Node000001"><a xlink:title=" ">
<polygon fill="#999999" stroke="#666666" points="513,-58 392,-58 392,-39 513,-39 513,-58"/>
<text text-anchor="middle" x="452.5" y="-46" font-family="Helvetica,sans-Serif" font-size="10.00">cbrc::ArgvParser::size</text>
</a>
</g>
</g>
<!-- Node2 -->
<g id="Node000002" class="node">
<title>Node2</title>
<g id="a_Node000002"><a xlink:href="classcbrc_1_1ArgvParser.html#ac1919daa54ce2e7bea4081b1ae4d1431" target="_top" xlink:title=" ">
<polygon fill="white" stroke="#666666" points="356,-77 186,-77 186,-58 356,-58 356,-77"/>
<text text-anchor="middle" x="271" y="-65" font-family="Helvetica,sans-Serif" font-size="10.00">cbrc::ArgvParser::dumpArgvInfo</text>
</a>
</g>
</g>
<!-- Node1&#45;&gt;Node2 -->
<g id="edge1_Node000001_Node000002" class="edge">
<title>Node1&#45;&gt;Node2</title>
<g id="a_edge1_Node000001_Node000002"><a xlink:title=" ">
<path fill="none" stroke="#63b8ff" d="M381.66,-55.89C373.29,-56.78 364.68,-57.69 356.13,-58.59"/>
<polygon fill="#63b8ff" stroke="#63b8ff" points="382.15,-59.36 391.73,-54.83 381.42,-52.4 382.15,-59.36"/>
</a>
</g>
</g>
<!-- Node3 -->
<g id="Node000003" class="node">
<title>Node3</title>
<g id="a_Node000003"><a xlink:href="classcbrc_1_1ArgvParser.html#ade70c644ab6bb5f3e8703a11b03f0dee" target="_top" xlink:title=" ">
<polygon fill="white" stroke="#666666" points="332,-40 210,-40 210,-21 332,-21 332,-40"/>
<text text-anchor="middle" x="271" y="-28" font-family="Helvetica,sans-Serif" font-size="10.00">cbrc::ArgvParser::shift</text>
</a>
</g>
</g>
<!-- Node1&#45;&gt;Node3 -->
<g id="edge2_Node000001_Node000003" class="edge">
<title>Node1&#45;&gt;Node3</title>
<g id="a_edge2_Node000001_Node000003"><a xlink:title=" ">
<path fill="none" stroke="#63b8ff" d="M381.68,-41.5C365.32,-39.86 348.02,-38.12 332.12,-36.53"/>
<polygon fill="#63b8ff" stroke="#63b8ff" points="381.43,-44.99 391.73,-42.51 382.13,-38.03 381.43,-44.99"/>
</a>
</g>
</g>
<!-- Node4 -->
<g id="Node000004" class="node">
<title>Node4</title>
<g id="a_Node000004"><a xlink:href="classcbrc_1_1ArgvParser.html#a75ceb75c4a549f8be75d047857daae07" target="_top" xlink:title=" ">
<polygon fill="white" stroke="#666666" points="145.5,-67.5 4.5,-67.5 4.5,-37.5 145.5,-37.5 145.5,-67.5"/>
<text text-anchor="start" x="12.5" y="-55.5" font-family="Helvetica,sans-Serif" font-size="10.00">cbrc::ArgvParser::setFrom</text>
<text text-anchor="middle" x="75" y="-44.5" font-family="Helvetica,sans-Serif" font-size="10.00">NextUnused</text>
</a>
</g>
</g>
<!-- Node3&#45;&gt;Node4 -->
<g id="edge3_Node000003_Node000004" class="edge">
<title>Node3&#45;&gt;Node4</title>
<g id="a_edge3_Node000003_Node000004"><a xlink:title=" ">
<path fill="none" stroke="#63b8ff" d="M199.74,-38.47C182.11,-40.47 163.21,-42.61 145.62,-44.61"/>
<polygon fill="#63b8ff" stroke="#63b8ff" points="200.4,-41.91 209.95,-37.31 199.62,-34.96 200.4,-41.91"/>
</a>
</g>
</g>
<!-- Node5 -->
<g id="Node000005" class="node">
<title>Node5</title>
<g id="a_Node000005"><a xlink:href="classcbrc_1_1ArgvParser.html#ac08868804310747143776022ecde994b" target="_top" xlink:title=" ">
<polygon fill="white" stroke="#666666" points="150,-19 0,-19 0,0 150,0 150,-19"/>
<text text-anchor="middle" x="75" y="-7" font-family="Helvetica,sans-Serif" font-size="10.00">cbrc::ArgvParser::shiftOrDie</text>
</a>
</g>
</g>
<!-- Node3&#45;&gt;Node5 -->
<g id="edge4_Node000003_Node000005" class="edge">
<title>Node3&#45;&gt;Node5</title>
<g id="a_edge4_Node000003_Node000005"><a xlink:title=" ">
<path fill="none" stroke="#63b8ff" d="M199.55,-22.87C183.48,-21.13 166.35,-19.28 150.13,-17.52"/>
<polygon fill="#63b8ff" stroke="#63b8ff" points="199.63,-26.4 209.95,-24 200.38,-19.44 199.63,-26.4"/>
</a>
</g>
</g>
</g>
</svg>
