<?xml version="1.0" encoding="UTF-8" standalone="no"?>
<!DOCTYPE svg PUBLIC "-//W3C//DTD SVG 1.1//EN"
 "http://www.w3.org/Graphics/SVG/1.1/DTD/svg11.dtd">
<!-- Generated by graphviz version 2.43.0 (0)
 -->
<!-- Title: cbrc::ResiduesIndexMap::toResidues Pages: 1 -->
<svg width="487pt" height="86pt"
 viewBox="0.00 0.00 487.00 86.00" xmlns="http://www.w3.org/2000/svg" xmlns:xlink="http://www.w3.org/1999/xlink">

<svg id="main" version="1.1" xmlns="http://www.w3.org/2000/svg" xmlns:xlink="http://www.w3.org/1999/xlink" xml:space="preserve" onload="init(evt)">
<style type="text/css"><![CDATA[
.node, .edge {opacity: 0.7;}
.node.selected, .edge.selected {opacity: 1;}
.edge:hover path { stroke: red; }
.edge:hover polygon { stroke: red; fill: red; }
]]></style>
<script type="application/ecmascript" xlink:href="svg.min.js"/>
<svg id="graph" class="graph">
<g id="graph0" class="graph" transform="scale(1 1) rotate(0) translate(4 82)">
<title>cbrc::ResiduesIndexMap::toResidues</title>
<!-- Node1 -->
<g id="Node000001" class="node">
<title>Node1</title>
<g id="a_Node000001"><a xlink:title=" ">
<polygon fill="#999999" stroke="#666666" points="135,-56 0,-56 0,-26 135,-26 135,-56"/>
<text text-anchor="start" x="8" y="-44" font-family="Helvetica,sans-Serif" font-size="10.00">cbrc::ResiduesIndexMap</text>
<text text-anchor="middle" x="67.5" y="-33" font-family="Helvetica,sans-Serif" font-size="10.00">::toResidues</text>
</a>
</g>
</g>
<!-- Node2 -->
<g id="Node000002" class="node">
<title>Node2</title>
<g id="a_Node000002"><a xlink:href="classcbrc_1_1ResiduesIndexMap.html#a88a553af656b506cb1ab4506f9f0b351" target="_top" xlink:title=" ">
<polygon fill="white" stroke="#666666" points="479,-78 344,-78 344,-48 479,-48 479,-78"/>
<text text-anchor="start" x="352" y="-66" font-family="Helvetica,sans-Serif" font-size="10.00">cbrc::ResiduesIndexMap</text>
<text text-anchor="middle" x="411.5" y="-55" font-family="Helvetica,sans-Serif" font-size="10.00">::maxStringLen</text>
</a>
</g>
</g>
<!-- Node1&#45;&gt;Node2 -->
<g id="edge1_Node000001_Node000002" class="edge">
<title>Node1&#45;&gt;Node2</title>
<g id="a_edge1_Node000001_Node000002"><a xlink:title=" ">
<path fill="none" stroke="#63b8ff" d="M135.25,-45.29C192.22,-48.96 274.14,-54.23 333.8,-58.07"/>
<polygon fill="#63b8ff" stroke="#63b8ff" points="333.71,-61.57 343.92,-58.72 334.16,-54.58 333.71,-61.57"/>
</a>
</g>
</g>
<!-- Node3 -->
<g id="Node000003" class="node">
<title>Node3</title>
<g id="a_Node000003"><a xlink:href="classcbrc_1_1ResiduesIndexMap.html#a26942bbc3bd18c081cfd90685cf38db5" target="_top" xlink:title=" ">
<polygon fill="white" stroke="#666666" points="308,-35 171,-35 171,-5 308,-5 308,-35"/>
<text text-anchor="start" x="179" y="-23" font-family="Helvetica,sans-Serif" font-size="10.00">cbrc::ResiduesIndexMap</text>
<text text-anchor="middle" x="239.5" y="-12" font-family="Helvetica,sans-Serif" font-size="10.00">::toResidueIndicesVector</text>
</a>
</g>
</g>
<!-- Node1&#45;&gt;Node3 -->
<g id="edge2_Node000001_Node000003" class="edge">
<title>Node1&#45;&gt;Node3</title>
<g id="a_edge2_Node000001_Node000003"><a xlink:title=" ">
<path fill="none" stroke="#63b8ff" d="M135.2,-32.76C143.62,-31.72 152.3,-30.65 160.88,-29.59"/>
<polygon fill="#63b8ff" stroke="#63b8ff" points="161.38,-33.05 170.87,-28.35 160.52,-26.11 161.38,-33.05"/>
</a>
</g>
</g>
<!-- Node3&#45;&gt;Node2 -->
<g id="edge3_Node000003_Node000002" class="edge">
<title>Node3&#45;&gt;Node2</title>
<g id="a_edge3_Node000003_Node000002"><a xlink:title=" ">
<path fill="none" stroke="#63b8ff" d="M299.96,-35.04C313.29,-38.41 327.54,-42.02 341.23,-45.48"/>
<polygon fill="#63b8ff" stroke="#63b8ff" points="340.52,-48.91 351.08,-47.97 342.24,-42.12 340.52,-48.91"/>
</a>
</g>
</g>
<!-- Node4 -->
<g id="Node000004" class="node">
<title>Node4</title>
<g id="a_Node000004"><a xlink:href="classcbrc_1_1ResiduesIndexMap.html#a175a4d198c85cb7d17d13ddc62eeca3e" target="_top" xlink:title=" ">
<polygon fill="white" stroke="#666666" points="479,-30 344,-30 344,0 479,0 479,-30"/>
<text text-anchor="start" x="352" y="-18" font-family="Helvetica,sans-Serif" font-size="10.00">cbrc::ResiduesIndexMap</text>
<text text-anchor="middle" x="411.5" y="-7" font-family="Helvetica,sans-Serif" font-size="10.00">::sigma</text>
</a>
</g>
</g>
<!-- Node3&#45;&gt;Node4 -->
<g id="edge4_Node000003_Node000004" class="edge">
<title>Node3&#45;&gt;Node4</title>
<g id="a_edge4_Node000003_Node000004"><a xlink:title=" ">
<path fill="none" stroke="#63b8ff" d="M308.18,-18.01C316.54,-17.76 325.13,-17.51 333.62,-17.26"/>
<polygon fill="#63b8ff" stroke="#63b8ff" points="334,-20.75 343.89,-16.96 333.79,-13.75 334,-20.75"/>
</a>
</g>
</g>
</g>
</svg>
</svg>

<style type='text/css'>
<![CDATA[
[data-mouse-over-selected='false'] { opacity: 0.7; }
[data-mouse-over-selected='true']  { opacity: 1.0; }
]]>
</style>
<script type="application/ecmascript"><![CDATA[
document.addEventListener('DOMContentLoaded', (event) => {
  highlightEdges();
  highlightAdjacentNodes();
});
]]></script>
</svg>
