<?xml version="1.0" encoding="UTF-8" standalone="no"?>
<!DOCTYPE svg PUBLIC "-//W3C//DTD SVG 1.1//EN"
 "http://www.w3.org/Graphics/SVG/1.1/DTD/svg11.dtd">
<!-- Generated by graphviz version 2.43.0 (0)
 -->
<!-- Title: cbrc::TextWindow::operator() Pages: 1 -->
<svg width="570pt" height="76pt"
 viewBox="0.00 0.00 570.00 75.50" xmlns="http://www.w3.org/2000/svg" xmlns:xlink="http://www.w3.org/1999/xlink">
<g id="graph0" class="graph" transform="scale(1 1) rotate(0) translate(4 71.5)">
<title>cbrc::TextWindow::operator()</title>
<!-- Node1 -->
<g id="Node000001" class="node">
<title>Node1</title>
<g id="a_Node000001"><a xlink:title=" ">
<polygon fill="#999999" stroke="#666666" points="156,-45.5 0,-45.5 0,-26.5 156,-26.5 156,-45.5"/>
<text text-anchor="middle" x="78" y="-33.5" font-family="Helvetica,sans-Serif" font-size="10.00">cbrc::TextWindow::operator()</text>
</a>
</g>
</g>
<!-- Node2 -->
<g id="Node000002" class="node">
<title>Node2</title>
<g id="a_Node000002"><a xlink:href="classcbrc_1_1TextWindow.html#a3cc4892b2f3cd9ef3367f83b5a06aea0" target="_top" xlink:title=" ">
<polygon fill="white" stroke="#666666" points="379,-45.5 192,-45.5 192,-26.5 379,-26.5 379,-45.5"/>
<text text-anchor="middle" x="285.5" y="-33.5" font-family="Helvetica,sans-Serif" font-size="10.00">cbrc::TextWindow::validRelativeIdx</text>
</a>
</g>
</g>
<!-- Node1&#45;&gt;Node2 -->
<g id="edge1_Node000001_Node000002" class="edge">
<title>Node1&#45;&gt;Node2</title>
<g id="a_edge1_Node000001_Node000002"><a xlink:title=" ">
<path fill="none" stroke="#63b8ff" d="M156.11,-36C164.45,-36 173.05,-36 181.64,-36"/>
<polygon fill="#63b8ff" stroke="#63b8ff" points="181.71,-39.5 191.71,-36 181.71,-32.5 181.71,-39.5"/>
</a>
</g>
</g>
<!-- Node3 -->
<g id="Node000003" class="node">
<title>Node3</title>
<g id="a_Node000003"><a xlink:href="classcbrc_1_1TextWindow.html#a7eb700d47ef382fcb4bfaa2a686174f2" target="_top" xlink:title=" ">
<polygon fill="white" stroke="#666666" points="562,-67.5 415,-67.5 415,-48.5 562,-48.5 562,-67.5"/>
<text text-anchor="middle" x="488.5" y="-55.5" font-family="Helvetica,sans-Serif" font-size="10.00">cbrc::TextWindow::textSize</text>
</a>
</g>
</g>
<!-- Node2&#45;&gt;Node3 -->
<g id="edge2_Node000002_Node000003" class="edge">
<title>Node2&#45;&gt;Node3</title>
<g id="a_edge2_Node000002_Node000003"><a xlink:title=" ">
<path fill="none" stroke="#63b8ff" d="M373.49,-45.52C383.84,-46.65 394.38,-47.81 404.66,-48.93"/>
<polygon fill="#63b8ff" stroke="#63b8ff" points="404.52,-52.44 414.84,-50.05 405.28,-45.48 404.52,-52.44"/>
</a>
</g>
</g>
<!-- Node4 -->
<g id="Node000004" class="node">
<title>Node4</title>
<g id="a_Node000004"><a xlink:href="classcbrc_1_1TextWindow.html#a37d6d349be3b4ee732ad29f05d774c3a" target="_top" xlink:title=" ">
<polygon fill="white" stroke="#666666" points="561,-30 416,-30 416,0 561,0 561,-30"/>
<text text-anchor="start" x="424" y="-18" font-family="Helvetica,sans-Serif" font-size="10.00">cbrc::TextWindow::window</text>
<text text-anchor="middle" x="488.5" y="-7" font-family="Helvetica,sans-Serif" font-size="10.00">StartIdx</text>
</a>
</g>
</g>
<!-- Node2&#45;&gt;Node4 -->
<g id="edge3_Node000002_Node000004" class="edge">
<title>Node2&#45;&gt;Node4</title>
<g id="a_edge3_Node000002_Node000004"><a xlink:title=" ">
<path fill="none" stroke="#63b8ff" d="M377.59,-26.48C387.05,-25.49 396.62,-24.49 405.96,-23.52"/>
<polygon fill="#63b8ff" stroke="#63b8ff" points="406.42,-26.99 416,-22.47 405.69,-20.03 406.42,-26.99"/>
</a>
</g>
</g>
</g>
</svg>
