<?xml version="1.0" encoding="UTF-8" standalone="no"?>
<!DOCTYPE svg PUBLIC "-//W3C//DTD SVG 1.1//EN"
 "http://www.w3.org/Graphics/SVG/1.1/DTD/svg11.dtd">
<!-- Generated by graphviz version 2.43.0 (0)
 -->
<!-- Title: cbrc::ConstantLabeledSquareDoubleFLENumMatrix::labels Pages: 1 -->
<svg width="653pt" height="169pt"
 viewBox="0.00 0.00 653.00 168.50" xmlns="http://www.w3.org/2000/svg" xmlns:xlink="http://www.w3.org/1999/xlink">
<g id="graph0" class="graph" transform="scale(1 1) rotate(0) translate(4 164.5)">
<title>cbrc::ConstantLabeledSquareDoubleFLENumMatrix::labels</title>
<!-- Node1 -->
<g id="Node000001" class="node">
<title>Node1</title>
<g id="a_Node000001"><a xlink:title=" ">
<polygon fill="#999999" stroke="#666666" points="645,-112.5 487,-112.5 487,-82.5 645,-82.5 645,-112.5"/>
<text text-anchor="start" x="495" y="-100.5" font-family="Helvetica,sans-Serif" font-size="10.00">cbrc::ConstantLabeledSquare</text>
<text text-anchor="middle" x="566" y="-89.5" font-family="Helvetica,sans-Serif" font-size="10.00">DoubleFLENumMatrix::labels</text>
</a>
</g>
</g>
<!-- Node2 -->
<g id="Node000002" class="node">
<title>Node2</title>
<g id="a_Node000002"><a xlink:href="classcbrc_1_1ConstantLabeledSquareDoubleFLENumMatrix.html#abedf9bbd3b5dce0d6955e6db36e07d17" target="_top" xlink:title=" ">
<polygon fill="white" stroke="#666666" points="445.5,-160.5 252.5,-160.5 252.5,-130.5 445.5,-130.5 445.5,-160.5"/>
<text text-anchor="start" x="260.5" y="-148.5" font-family="Helvetica,sans-Serif" font-size="10.00">cbrc::ConstantLabeledSquare</text>
<text text-anchor="middle" x="349" y="-137.5" font-family="Helvetica,sans-Serif" font-size="10.00">DoubleFLENumMatrix::indexToLabel</text>
</a>
</g>
</g>
<!-- Node1&#45;&gt;Node2 -->
<g id="edge1_Node000001_Node000002" class="edge">
<title>Node1&#45;&gt;Node2</title>
<g id="a_edge1_Node000001_Node000002"><a xlink:title=" ">
<path fill="none" stroke="#63b8ff" d="M487.5,-114.8C464.49,-119.94 439.49,-125.52 417.2,-130.5"/>
<polygon fill="#63b8ff" stroke="#63b8ff" points="488.57,-118.15 497.56,-112.56 487.04,-111.32 488.57,-118.15"/>
</a>
</g>
</g>
<!-- Node3 -->
<g id="Node000003" class="node">
<title>Node3</title>
<g id="a_Node000003"><a xlink:href="classcbrc_1_1ConstantLabeledSquareDoubleFLENumMatrix.html#ab64bdbe4c4ec3633adee850bcfb6a16f" target="_top" xlink:title=" ">
<polygon fill="white" stroke="#666666" points="438,-112.5 260,-112.5 260,-82.5 438,-82.5 438,-112.5"/>
<text text-anchor="start" x="268" y="-100.5" font-family="Helvetica,sans-Serif" font-size="10.00">cbrc::ConstantLabeledSquare</text>
<text text-anchor="middle" x="349" y="-89.5" font-family="Helvetica,sans-Serif" font-size="10.00">DoubleFLENumMatrix::operator()</text>
</a>
</g>
</g>
<!-- Node1&#45;&gt;Node3 -->
<g id="edge2_Node000001_Node000003" class="edge">
<title>Node1&#45;&gt;Node3</title>
<g id="a_edge2_Node000001_Node000003"><a xlink:title=" ">
<path fill="none" stroke="#63b8ff" d="M476.71,-97.5C464.05,-97.5 451.02,-97.5 438.36,-97.5"/>
<polygon fill="#63b8ff" stroke="#63b8ff" points="476.77,-101 486.77,-97.5 476.77,-94 476.77,-101"/>
</a>
</g>
</g>
<!-- Node4 -->
<g id="Node000004" class="node">
<title>Node4</title>
<g id="a_Node000004"><a xlink:href="classcbrc_1_1ConstantLabeledSquareDoubleFLENumMatrix.html#ad7db3f1395829b77b3c9ad8b5edb7d21" target="_top" xlink:title=" ">
<polygon fill="white" stroke="#666666" points="451,-64.5 247,-64.5 247,-34.5 451,-34.5 451,-64.5"/>
<text text-anchor="start" x="255" y="-52.5" font-family="Helvetica,sans-Serif" font-size="10.00">cbrc::ConstantLabeledSquare</text>
<text text-anchor="middle" x="349" y="-41.5" font-family="Helvetica,sans-Serif" font-size="10.00">DoubleFLENumMatrix::setFromStream</text>
</a>
</g>
</g>
<!-- Node1&#45;&gt;Node4 -->
<g id="edge3_Node000001_Node000004" class="edge">
<title>Node1&#45;&gt;Node4</title>
<g id="a_edge3_Node000001_Node000004"><a xlink:title=" ">
<path fill="none" stroke="#63b8ff" d="M487.5,-80.2C464.49,-75.06 439.49,-69.48 417.2,-64.5"/>
<polygon fill="#63b8ff" stroke="#63b8ff" points="487.04,-83.68 497.56,-82.44 488.57,-76.85 487.04,-83.68"/>
</a>
</g>
</g>
<!-- Node5 -->
<g id="Node000005" class="node">
<title>Node5</title>
<g id="a_Node000005"><a xlink:href="classcbrc_1_1ConstantLabeledSquareDoubleFLENumMatrix.html#ab4382a4662ed8b6685ed8609586590ea" target="_top" xlink:title=" ">
<polygon fill="white" stroke="#666666" points="211,-100 0,-100 0,-59 211,-59 211,-100"/>
<text text-anchor="start" x="8" y="-88" font-family="Helvetica,sans-Serif" font-size="10.00">cbrc::ConstantLabeledSquare</text>
<text text-anchor="start" x="8" y="-77" font-family="Helvetica,sans-Serif" font-size="10.00">DoubleFLENumMatrix::ConstantLabeled</text>
<text text-anchor="middle" x="105.5" y="-66" font-family="Helvetica,sans-Serif" font-size="10.00">SquareDoubleFLENumMatrix</text>
</a>
</g>
</g>
<!-- Node4&#45;&gt;Node5 -->
<g id="edge4_Node000004_Node000005" class="edge">
<title>Node4&#45;&gt;Node5</title>
<g id="a_edge4_Node000004_Node000005"><a xlink:title=" ">
<path fill="none" stroke="#63b8ff" d="M237.01,-63.29C228.48,-64.35 219.88,-65.42 211.39,-66.47"/>
<polygon fill="#63b8ff" stroke="#63b8ff" points="237.49,-66.76 246.98,-62.05 236.63,-59.81 237.49,-66.76"/>
</a>
</g>
</g>
<!-- Node6 -->
<g id="Node000006" class="node">
<title>Node6</title>
<g id="a_Node000006"><a xlink:href="classcbrc_1_1ConstantLabeledSquareDoubleFLENumMatrix.html#ae744cd721a1c3ec56ecf854092e90543" target="_top" xlink:title=" ">
<polygon fill="white" stroke="#666666" points="211,-41 0,-41 0,0 211,0 211,-41"/>
<text text-anchor="start" x="8" y="-29" font-family="Helvetica,sans-Serif" font-size="10.00">cbrc::ConstantLabeledSquare</text>
<text text-anchor="start" x="8" y="-18" font-family="Helvetica,sans-Serif" font-size="10.00">DoubleFLENumMatrix::ConstantLabeled</text>
<text text-anchor="middle" x="105.5" y="-7" font-family="Helvetica,sans-Serif" font-size="10.00">SquareDoubleFLENumMatrix</text>
</a>
</g>
</g>
<!-- Node4&#45;&gt;Node6 -->
<g id="edge5_Node000004_Node000006" class="edge">
<title>Node4&#45;&gt;Node6</title>
<g id="a_edge5_Node000004_Node000006"><a xlink:title=" ">
<path fill="none" stroke="#63b8ff" d="M237.01,-36.17C228.48,-35.15 219.88,-34.11 211.39,-33.1"/>
<polygon fill="#63b8ff" stroke="#63b8ff" points="236.64,-39.65 246.98,-37.37 237.47,-32.7 236.64,-39.65"/>
</a>
</g>
</g>
</g>
</svg>
