<?xml version="1.0" encoding="UTF-8" standalone="no"?>
<!DOCTYPE svg PUBLIC "-//W3C//DTD SVG 1.1//EN"
 "http://www.w3.org/Graphics/SVG/1.1/DTD/svg11.dtd">
<!-- Generated by graphviz version 2.43.0 (0)
 -->
<!-- Title: cbrc::Blast8ResultReader::has Pages: 1 -->
<svg width="640pt" height="27pt"
 viewBox="0.00 0.00 640.00 27.00" xmlns="http://www.w3.org/2000/svg" xmlns:xlink="http://www.w3.org/1999/xlink">
<g id="graph0" class="graph" transform="scale(1 1) rotate(0) translate(4 23)">
<title>cbrc::Blast8ResultReader::has</title>
<!-- Node1 -->
<g id="Node000001" class="node">
<title>Node1</title>
<g id="a_Node000001"><a xlink:title=" ">
<polygon fill="#999999" stroke="#666666" points="162,-19 0,-19 0,0 162,0 162,-19"/>
<text text-anchor="middle" x="81" y="-7" font-family="Helvetica,sans-Serif" font-size="10.00">cbrc::Blast8ResultReader::has</text>
</a>
</g>
</g>
<!-- Node2 -->
<g id="Node000002" class="node">
<title>Node2</title>
<g id="a_Node000002"><a xlink:href="classcbrc_1_1StringKeyHashtable.html#a5bc49e2ccc392c77b418d9b4b24b7e33" target="_top" xlink:title=" ">
<polygon fill="white" stroke="#666666" points="360,-19 198,-19 198,0 360,0 360,-19"/>
<text text-anchor="middle" x="279" y="-7" font-family="Helvetica,sans-Serif" font-size="10.00">cbrc::StringKeyHashtable::has</text>
</a>
</g>
</g>
<!-- Node1&#45;&gt;Node2 -->
<g id="edge1_Node000001_Node000002" class="edge">
<title>Node1&#45;&gt;Node2</title>
<g id="a_edge1_Node000001_Node000002"><a xlink:title=" ">
<path fill="none" stroke="#63b8ff" d="M162,-9.5C170.52,-9.5 179.23,-9.5 187.86,-9.5"/>
<polygon fill="#63b8ff" stroke="#63b8ff" points="187.93,-13 197.93,-9.5 187.93,-6 187.93,-13"/>
</a>
</g>
</g>
<!-- Node3 -->
<g id="Node000003" class="node">
<title>Node3</title>
<g id="a_Node000003"><a xlink:href="genericHashFunction_8hh.html#a85bd86848a5fd402056c2880030a73de" target="_top" xlink:title=" ">
<polygon fill="white" stroke="#666666" points="492,-19 396,-19 396,0 492,0 492,-19"/>
<text text-anchor="middle" x="444" y="-7" font-family="Helvetica,sans-Serif" font-size="10.00">stringHashValue</text>
</a>
</g>
</g>
<!-- Node2&#45;&gt;Node3 -->
<g id="edge2_Node000002_Node000003" class="edge">
<title>Node2&#45;&gt;Node3</title>
<g id="a_edge2_Node000002_Node000003"><a xlink:title=" ">
<path fill="none" stroke="#63b8ff" d="M360.07,-9.5C368.67,-9.5 377.3,-9.5 385.56,-9.5"/>
<polygon fill="#63b8ff" stroke="#63b8ff" points="385.81,-13 395.81,-9.5 385.81,-6 385.81,-13"/>
</a>
</g>
</g>
<!-- Node4 -->
<g id="Node000004" class="node">
<title>Node4</title>
<g id="a_Node000004"><a xlink:href="genericHashFunction_8hh.html#a3ff129a3cf74905c3ce7d762a3d90239" target="_top" xlink:title=" ">
<polygon fill="white" stroke="#666666" points="632,-19 528,-19 528,0 632,0 632,-19"/>
<text text-anchor="middle" x="580" y="-7" font-family="Helvetica,sans-Serif" font-size="10.00">genericHashValue</text>
</a>
</g>
</g>
<!-- Node3&#45;&gt;Node4 -->
<g id="edge3_Node000003_Node000004" class="edge">
<title>Node3&#45;&gt;Node4</title>
<g id="a_edge3_Node000003_Node000004"><a xlink:title=" ">
<path fill="none" stroke="#63b8ff" d="M492.24,-9.5C500.39,-9.5 508.96,-9.5 517.41,-9.5"/>
<polygon fill="#63b8ff" stroke="#63b8ff" points="517.63,-13 527.63,-9.5 517.63,-6 517.63,-13"/>
</a>
</g>
</g>
</g>
</svg>
