<?xml version="1.0" encoding="UTF-8" standalone="no"?>
<!DOCTYPE svg PUBLIC "-//W3C//DTD SVG 1.1//EN"
 "http://www.w3.org/Graphics/SVG/1.1/DTD/svg11.dtd">
<!-- Generated by graphviz version 2.43.0 (0)
 -->
<!-- Title: cbrc::StringHashtableLink::elem Pages: 1 -->
<!--zoomable 283 -->

<svg id="main" version="1.1" xmlns="http://www.w3.org/2000/svg" xmlns:xlink="http://www.w3.org/1999/xlink" xml:space="preserve" onload="init(evt)">
<style type="text/css"><![CDATA[
.node, .edge {opacity: 0.7;}
.node.selected, .edge.selected {opacity: 1;}
.edge:hover path { stroke: red; }
.edge:hover polygon { stroke: red; fill: red; }
]]></style>

<defs>
  <circle id="rim" cx="0" cy="0" r="7"/>
  <circle id="rim2" cx="0" cy="0" r="3.5"/>
  <g id="zoomPlus">
    <use xlink:href="#rim" fill="#404040"><set attributeName="fill" to="#808080" begin="zoomplus.mouseover" end="zoomplus.mouseout"/></use>
    <path d="M-4,0h8M0,-4v8" fill="none" stroke="white" stroke-width="1.5" pointer-events="none"/>
  </g>
  <g id="zoomMin">
    <use xlink:href="#rim" fill="#404040"><set attributeName="fill" to="#808080" begin="zoomminus.mouseover" end="zoomminus.mouseout"/></use>
    <path d="M-4,0h8" fill="none" stroke="white" stroke-width="1.5" pointer-events="none"/>
  </g>
  <g id="arrowUp" transform="translate(30 24)">
    <use xlink:href="#rim"/>
    <path pointer-events="none" fill="none" stroke="white" stroke-width="1.5" d="M0,-3.0v7 M-2.5,-0.5L0,-3.0L2.5,-0.5"/>
  </g>
  <g id="arrowRight" transform="rotate(90) translate(36 -43)">
    <use xlink:href="#rim"/>
    <path pointer-events="none" fill="none" stroke="white" stroke-width="1.5" d="M0,-3.0v7 M-2.5,-0.5L0,-3.0L2.5,-0.5"/>
  </g>
  <g id="arrowDown" transform="rotate(180) translate(-30 -48)">
    <use xlink:href="#rim"/>
    <path pointer-events="none" fill="none" stroke="white" stroke-width="1.5" d="M0,-3.0v7 M-2.5,-0.5L0,-3.0L2.5,-0.5"/>
  </g>
  <g id="arrowLeft" transform="rotate(270) translate(-36 17)">
    <use xlink:href="#rim"/>
    <path pointer-events="none" fill="none" stroke="white" stroke-width="1.5" d="M0,-3.0v7 M-2.5,-0.5L0,-3.0L2.5,-0.5"/>
  </g>
  <g id="resetDef">
    <use xlink:href="#rim2" fill="#404040"><set attributeName="fill" to="#808080" begin="reset.mouseover" end="reset.mouseout"/></use>
  </g>
</defs>
<script type="application/ecmascript">
var viewWidth = 506;
var viewHeight = 283;
var sectionId = 'dynsection-1';
</script>
<script type="application/ecmascript" xlink:href="svg.min.js"/>
<svg id="graph" class="graph">
<g id="viewport">
<title>cbrc::StringHashtableLink::elem</title>
<!-- Node1 -->
<g id="Node000001" class="node">
<title>Node1</title>
<g id="a_Node000001"><a xlink:title=" ">
<polygon fill="#999999" stroke="#666666" points="498,-142 357,-142 357,-112 498,-112 498,-142"/>
<text text-anchor="start" x="365" y="-130" font-family="Helvetica,sans-Serif" font-size="10.00">cbrc::StringHashtableLink</text>
<text text-anchor="middle" x="427.5" y="-119" font-family="Helvetica,sans-Serif" font-size="10.00">::elem</text>
</a>
</g>
</g>
<!-- Node2 -->
<g id="Node000002" class="node">
<title>Node2</title>
<g id="a_Node000002"><a xlink:href="classcbrc_1_1StringHashtable.html#a680147a0e74d302f3fc53d2b1be24d5b" target="_top" xlink:title=" ">
<polygon fill="white" stroke="#666666" points="311.5,-256.5 166.5,-256.5 166.5,-237.5 311.5,-237.5 311.5,-256.5"/>
<text text-anchor="middle" x="239" y="-244.5" font-family="Helvetica,sans-Serif" font-size="10.00">cbrc::StringHashtable::add</text>
</a>
</g>
</g>
<!-- Node1&#45;&gt;Node2 -->
<g id="edge1_Node000001_Node000002" class="edge">
<title>Node1&#45;&gt;Node2</title>
<g id="a_edge1_Node000001_Node000002"><a xlink:title=" ">
<path fill="none" stroke="#63b8ff" d="M409.01,-150.21C389.98,-173.75 357.37,-209.43 321,-229 314.66,-232.41 307.7,-235.18 300.62,-237.42"/>
<polygon fill="#63b8ff" stroke="#63b8ff" points="411.93,-152.15 415.39,-142.13 406.44,-147.81 411.93,-152.15"/>
</a>
</g>
</g>
<!-- Node3 -->
<g id="Node000003" class="node">
<title>Node3</title>
<g id="a_Node000003"><a xlink:href="classcbrc_1_1StringHashtable.html#a73ee5615d07adc97f8b0d44ff8b5682f" target="_top" xlink:title=" ">
<polygon fill="white" stroke="#666666" points="311,-219.5 167,-219.5 167,-200.5 311,-200.5 311,-219.5"/>
<text text-anchor="middle" x="239" y="-207.5" font-family="Helvetica,sans-Serif" font-size="10.00">cbrc::StringHashtable::has</text>
</a>
</g>
</g>
<!-- Node1&#45;&gt;Node3 -->
<g id="edge3_Node000001_Node000003" class="edge">
<title>Node1&#45;&gt;Node3</title>
<g id="a_edge3_Node000001_Node000003"><a xlink:title=" ">
<path fill="none" stroke="#63b8ff" d="M397.86,-147.79C377.35,-161.81 348.59,-179.73 321,-191 311.77,-194.77 301.64,-197.89 291.75,-200.43"/>
<polygon fill="#63b8ff" stroke="#63b8ff" points="399.9,-150.63 406.12,-142.05 395.91,-144.88 399.9,-150.63"/>
</a>
</g>
</g>
<!-- Node4 -->
<g id="Node000004" class="node">
<title>Node4</title>
<g id="a_Node000004"><a xlink:href="classcbrc_1_1StringHashtable.html#ae1513708f28f5d57b5e3b33e77b6392b" target="_top" xlink:title=" ">
<polygon fill="white" stroke="#666666" points="318,-164 160,-164 160,-134 318,-134 318,-164"/>
<text text-anchor="start" x="168" y="-152" font-family="Helvetica,sans-Serif" font-size="10.00">cbrc::StringHashtable</text>
<text text-anchor="middle" x="239" y="-141" font-family="Helvetica,sans-Serif" font-size="10.00">::insertKeyIfNew_returnValue</text>
</a>
</g>
</g>
<!-- Node1&#45;&gt;Node4 -->
<g id="edge4_Node000001_Node000004" class="edge">
<title>Node1&#45;&gt;Node4</title>
<g id="a_edge4_Node000001_Node000004"><a xlink:title=" ">
<path fill="none" stroke="#63b8ff" d="M346.62,-136.42C337.16,-137.54 327.52,-138.68 318.08,-139.79"/>
<polygon fill="#63b8ff" stroke="#63b8ff" points="347.27,-139.87 356.79,-135.22 346.45,-132.92 347.27,-139.87"/>
</a>
</g>
</g>
<!-- Node6 -->
<g id="Node000006" class="node">
<title>Node6</title>
<g id="a_Node000006"><a xlink:href="classcbrc_1_1StringHashtableLink.html#a4bf38e3d901c2486d8b6ce56d30ed4cd" target="_top" xlink:title=" ">
<polygon fill="white" stroke="#666666" points="321,-115.5 157,-115.5 157,-96.5 321,-96.5 321,-115.5"/>
<text text-anchor="middle" x="239" y="-103.5" font-family="Helvetica,sans-Serif" font-size="10.00">cbrc::StringHashtableLink::key</text>
</a>
</g>
</g>
<!-- Node1&#45;&gt;Node6 -->
<g id="edge7_Node000001_Node000006" class="edge">
<title>Node1&#45;&gt;Node6</title>
<g id="a_edge7_Node000001_Node000006"><a xlink:title=" ">
<path fill="none" stroke="#63b8ff" d="M346.63,-118.01C338.22,-117.06 329.67,-116.1 321.25,-115.15"/>
<polygon fill="#63b8ff" stroke="#63b8ff" points="346.46,-121.51 356.79,-119.15 347.24,-114.55 346.46,-121.51"/>
</a>
</g>
</g>
<!-- Node8 -->
<g id="Node000008" class="node">
<title>Node8</title>
<g id="a_Node000008"><a xlink:href="classcbrc_1_1StringHashtable.html#a6782aad6d8ce5283048963c83fbfc64c" target="_top" xlink:title=" ">
<polygon fill="white" stroke="#666666" points="299.5,-78 178.5,-78 178.5,-48 299.5,-48 299.5,-78"/>
<text text-anchor="start" x="186.5" y="-66" font-family="Helvetica,sans-Serif" font-size="10.00">cbrc::StringHashtable</text>
<text text-anchor="middle" x="239" y="-55" font-family="Helvetica,sans-Serif" font-size="10.00">::operator()</text>
</a>
</g>
</g>
<!-- Node1&#45;&gt;Node8 -->
<g id="edge9_Node000001_Node000008" class="edge">
<title>Node1&#45;&gt;Node8</title>
<g id="a_edge9_Node000001_Node000008"><a xlink:title=" ">
<path fill="none" stroke="#63b8ff" d="M377.54,-108.27C359.8,-101.65 339.57,-94.29 321,-88 311.1,-84.65 300.47,-81.23 290.26,-78.04"/>
<polygon fill="#63b8ff" stroke="#63b8ff" points="376.51,-111.62 387.1,-111.85 378.97,-105.07 376.51,-111.62"/>
</a>
</g>
</g>
<!-- Node9 -->
<g id="Node000009" class="node">
<title>Node9</title>
<g id="a_Node000009"><a xlink:href="classcbrc_1_1StringHashtableLink.html#a2836c1585e69191f910019c348684e1e" target="_top" xlink:title=" ">
<polygon fill="white" stroke="#666666" points="309.5,-30 168.5,-30 168.5,0 309.5,0 309.5,-30"/>
<text text-anchor="start" x="176.5" y="-18" font-family="Helvetica,sans-Serif" font-size="10.00">cbrc::StringHashtableLink</text>
<text text-anchor="middle" x="239" y="-7" font-family="Helvetica,sans-Serif" font-size="10.00">::value</text>
</a>
</g>
</g>
<!-- Node1&#45;&gt;Node9 -->
<g id="edge10_Node000001_Node000009" class="edge">
<title>Node1&#45;&gt;Node9</title>
<g id="a_edge10_Node000001_Node000009"><a xlink:title=" ">
<path fill="none" stroke="#63b8ff" d="M405.14,-104.59C385.1,-84.77 353.44,-56.37 321,-39 314.66,-35.61 307.79,-32.63 300.81,-30.04"/>
<polygon fill="#63b8ff" stroke="#63b8ff" points="402.69,-107.1 412.22,-111.73 407.66,-102.17 402.69,-107.1"/>
</a>
</g>
</g>
<!-- Node2&#45;&gt;Node2 -->
<g id="edge2_Node000002_Node000002" class="edge">
<title>Node2&#45;&gt;Node2</title>
<g id="a_edge2_Node000002_Node000002"><a xlink:title=" ">
<path fill="none" stroke="#63b8ff" d="M272.31,-264.95C271.36,-270.32 260.26,-274.5 239,-274.5 207.36,-274.5 198.22,-265.23 211.57,-256.58"/>
<polygon fill="#63b8ff" stroke="#63b8ff" points="275.05,-262.76 266.43,-256.58 269.32,-266.78 275.05,-262.76"/>
</a>
</g>
</g>
<!-- Node4&#45;&gt;Node4 -->
<g id="edge5_Node000004_Node000004" class="edge">
<title>Node4&#45;&gt;Node4</title>
<g id="a_edge5_Node000004_Node000004"><a xlink:title=" ">
<path fill="none" stroke="#63b8ff" d="M270.16,-174.6C265.9,-178.97 255.51,-182 239,-182 211.19,-182 200.76,-173.41 207.71,-164.28"/>
<polygon fill="#63b8ff" stroke="#63b8ff" points="273.66,-174.32 270.29,-164.28 266.66,-174.23 273.66,-174.32"/>
</a>
</g>
</g>
<!-- Node5 -->
<g id="Node000005" class="node">
<title>Node5</title>
<g id="a_Node000005"><a xlink:href="classcbrc_1_1StringHashtable.html#a6cdf8ba1023bcd6726c5175cb5148baf" target="_top" xlink:title=" ">
<polygon fill="white" stroke="#666666" points="121,-164 0,-164 0,-134 121,-134 121,-164"/>
<text text-anchor="start" x="8" y="-152" font-family="Helvetica,sans-Serif" font-size="10.00">cbrc::StringHashtable</text>
<text text-anchor="middle" x="60.5" y="-141" font-family="Helvetica,sans-Serif" font-size="10.00">::operator[]</text>
</a>
</g>
</g>
<!-- Node4&#45;&gt;Node5 -->
<g id="edge6_Node000004_Node000005" class="edge">
<title>Node4&#45;&gt;Node5</title>
<g id="a_edge6_Node000004_Node000005"><a xlink:title=" ">
<path fill="none" stroke="#63b8ff" d="M149.72,-149C140.01,-149 130.31,-149 121.07,-149"/>
<polygon fill="#63b8ff" stroke="#63b8ff" points="149.81,-152.5 159.81,-149 149.81,-145.5 149.81,-152.5"/>
</a>
</g>
</g>
<!-- Node7 -->
<g id="Node000007" class="node">
<title>Node7</title>
<g id="a_Node000007"><a xlink:href="classcbrc_1_1StringHashtable.html#a732c2c6c9756c5f9b454e8668549d767" target="_top" xlink:title=" ">
<polygon fill="white" stroke="#666666" points="121,-73 0,-73 0,-43 121,-43 121,-73"/>
<text text-anchor="start" x="8" y="-61" font-family="Helvetica,sans-Serif" font-size="10.00">cbrc::StringHashtable</text>
<text text-anchor="middle" x="60.5" y="-50" font-family="Helvetica,sans-Serif" font-size="10.00">::printTableState</text>
</a>
</g>
</g>
<!-- Node6&#45;&gt;Node7 -->
<g id="edge8_Node000006_Node000007" class="edge">
<title>Node6&#45;&gt;Node7</title>
<g id="a_edge8_Node000006_Node000007"><a xlink:title=" ">
<path fill="none" stroke="#63b8ff" d="M184.99,-94.08C175.64,-91.83 166.01,-89.42 157,-87 141.27,-82.77 124.22,-77.74 108.93,-73.06"/>
<polygon fill="#63b8ff" stroke="#63b8ff" points="184.46,-97.55 194.99,-96.46 186.07,-90.74 184.46,-97.55"/>
</a>
</g>
</g>
<!-- Node9&#45;&gt;Node7 -->
<g id="edge11_Node000009_Node000007" class="edge">
<title>Node9&#45;&gt;Node7</title>
<g id="a_edge11_Node000009_Node000007"><a xlink:title=" ">
<path fill="none" stroke="#63b8ff" d="M166.49,-32.42C151.42,-36.09 135.69,-39.93 121.12,-43.48"/>
<polygon fill="#63b8ff" stroke="#63b8ff" points="167.38,-35.81 176.27,-30.04 165.72,-29.01 167.38,-35.81"/>
</a>
</g>
</g>
</g>
</svg>

<g id="navigator" transform="translate(0 0)" fill="#404254">
  <rect fill="#f2f5e9" fill-opacity="0.5" stroke="#606060" stroke-width=".5" x="0" y="0" width="60" height="60"/>
  <use id="zoomplus" xlink:href="#zoomPlus" x="17" y="9" onmousedown="handleZoom(evt,'in')"/>
  <use id="zoomminus" xlink:href="#zoomMin" x="42" y="9" onmousedown="handleZoom(evt,'out')"/>
  <use id="reset" xlink:href="#resetDef" x="30" y="36" onmousedown="handleReset()"/>
   <use id="arrowup" xlink:href="#arrowUp" x="0" y="0" onmousedown="handlePan(0,-1)"/>
  <use id="arrowright" xlink:href="#arrowRight" x="0" y="0" onmousedown="handlePan(1,0)"/>
  <use id="arrowdown" xlink:href="#arrowDown" x="0" y="0" onmousedown="handlePan(0,1)"/>
  <use id="arrowleft" xlink:href="#arrowLeft" x="0" y="0" onmousedown="handlePan(-1,0)"/>
</g>
<svg viewBox="0 0 15 15" width="100%" height="30px" preserveAspectRatio="xMaxYMin meet">
 <g id="arrow_out" transform="scale(0.3 0.3)">
  <a xlink:href="classcbrc_1_1StringHashtableLink_acd25ea300a6a91d8802f2c4dfaee4630_icgraph_org.svg" target="_base">
   <rect id="button" ry="5" rx="5" y="6" x="6" height="38" width="38"
        fill="#f2f5e9" fill-opacity="0.5" stroke="#606060" stroke-width="1.0"/>
   <path id="arrow"
     d="M 11.500037,31.436501 C 11.940474,20.09759 22.043105,11.32322 32.158766,21.979434 L 37.068811,17.246167 C 37.068811,17.246167 37.088388,32 37.088388,32 L 22.160133,31.978069 C 22.160133,31.978069 26.997745,27.140456 26.997745,27.140456 C 18.528582,18.264221 13.291696,25.230495 11.500037,31.436501 z"
     style="fill:#404040;"/>
  </a>
 </g>
</svg>

<style type='text/css'>
<![CDATA[
[data-mouse-over-selected='false'] { opacity: 0.7; }
[data-mouse-over-selected='true']  { opacity: 1.0; }
]]>
</style>
<script type="application/ecmascript"><![CDATA[
document.addEventListener('DOMContentLoaded', (event) => {
  highlightEdges();
  highlightAdjacentNodes();
});
]]></script>
</svg>
