<?xml version="1.0" encoding="UTF-8" standalone="no"?>
<!DOCTYPE svg PUBLIC "-//W3C//DTD SVG 1.1//EN"
 "http://www.w3.org/Graphics/SVG/1.1/DTD/svg11.dtd">
<!-- Generated by graphviz version 2.43.0 (0)
 -->
<!-- Title: cbrc::FLEArray::skip Pages: 1 -->
<svg width="587pt" height="110pt"
 viewBox="0.00 0.00 587.00 110.00" xmlns="http://www.w3.org/2000/svg" xmlns:xlink="http://www.w3.org/1999/xlink">
<g id="graph0" class="graph" transform="scale(1 1) rotate(0) translate(4 106)">
<title>cbrc::FLEArray::skip</title>
<!-- Node1 -->
<g id="Node000001" class="node">
<title>Node1</title>
<g id="a_Node000001"><a xlink:title=" ">
<polygon fill="#999999" stroke="#666666" points="112,-61 0,-61 0,-42 112,-42 112,-61"/>
<text text-anchor="middle" x="56" y="-49" font-family="Helvetica,sans-Serif" font-size="10.00">cbrc::FLEArray::skip</text>
</a>
</g>
</g>
<!-- Node2 -->
<g id="Node000002" class="node">
<title>Node2</title>
<g id="a_Node000002"><a xlink:href="classcbrc_1_1FLEArray.html#a5368c7c0434bd5c119d2cbb39f4b399e" target="_top" xlink:title=" ">
<polygon fill="white" stroke="#666666" points="432,-84 297,-84 297,-65 432,-65 432,-84"/>
<text text-anchor="middle" x="364.5" y="-72" font-family="Helvetica,sans-Serif" font-size="10.00">cbrc::FLEArray::FLEArray</text>
</a>
</g>
</g>
<!-- Node1&#45;&gt;Node2 -->
<g id="edge1_Node000001_Node000002" class="edge">
<title>Node1&#45;&gt;Node2</title>
<g id="a_edge1_Node000001_Node000002"><a xlink:title=" ">
<path fill="none" stroke="#63b8ff" d="M112.31,-57.27C124.09,-58.42 136.45,-59.55 148,-60.5 193.99,-64.27 245.56,-67.65 286.73,-70.14"/>
<polygon fill="#63b8ff" stroke="#63b8ff" points="286.77,-73.65 296.96,-70.76 287.19,-66.66 286.77,-73.65"/>
</a>
</g>
</g>
<!-- Node3 -->
<g id="Node000003" class="node">
<title>Node3</title>
<g id="a_Node000003"><a xlink:href="classcbrc_1_1FLEArray.html#ab4f853671d71b67a4771b5199af8d8f8" target="_top" xlink:title=" ">
<polygon fill="white" stroke="#666666" points="261,-33 148,-33 148,-14 261,-14 261,-33"/>
<text text-anchor="middle" x="204.5" y="-21" font-family="Helvetica,sans-Serif" font-size="10.00">cbrc::FLEArray::read</text>
</a>
</g>
</g>
<!-- Node1&#45;&gt;Node3 -->
<g id="edge3_Node000001_Node000003" class="edge">
<title>Node1&#45;&gt;Node3</title>
<g id="a_edge3_Node000001_Node000003"><a xlink:title=" ">
<path fill="none" stroke="#63b8ff" d="M107.01,-41.94C118.79,-39.69 131.47,-37.27 143.65,-34.94"/>
<polygon fill="#63b8ff" stroke="#63b8ff" points="144.55,-38.33 153.72,-33.01 143.24,-31.45 144.55,-38.33"/>
</a>
</g>
</g>
<!-- Node2&#45;&gt;Node2 -->
<g id="edge2_Node000002_Node000002" class="edge">
<title>Node2&#45;&gt;Node2</title>
<g id="a_edge2_Node000002_Node000002"><a xlink:title=" ">
<path fill="none" stroke="#63b8ff" d="M340.15,-84.08C328.3,-92.73 336.42,-102 364.5,-102 382.93,-102 392.76,-98.01 393.99,-92.82"/>
<polygon fill="#63b8ff" stroke="#63b8ff" points="396.94,-90.93 388.85,-84.08 390.91,-94.48 396.94,-90.93"/>
</a>
</g>
</g>
<!-- Node3&#45;&gt;Node2 -->
<g id="edge6_Node000003_Node000002" class="edge">
<title>Node3&#45;&gt;Node2</title>
<g id="a_edge6_Node000003_Node000002"><a xlink:title=" ">
<path fill="none" stroke="#63b8ff" d="M235.22,-33.09C260.38,-41.21 296.64,-52.92 324.19,-61.81"/>
<polygon fill="#63b8ff" stroke="#63b8ff" points="323.32,-65.21 333.91,-64.95 325.47,-58.55 323.32,-65.21"/>
</a>
</g>
</g>
<!-- Node3&#45;&gt;Node3 -->
<g id="edge7_Node000003_Node000003" class="edge">
<title>Node3&#45;&gt;Node3</title>
<g id="a_edge7_Node000003_Node000003"><a xlink:title=" ">
<path fill="none" stroke="#63b8ff" d="M181.69,-33.08C170.59,-41.73 178.2,-51 204.5,-51 221.35,-51 230.53,-47.2 232.03,-42.19"/>
<polygon fill="#63b8ff" stroke="#63b8ff" points="235.02,-40.35 227.31,-33.08 228.8,-43.57 235.02,-40.35"/>
</a>
</g>
</g>
<!-- Node4 -->
<g id="Node000004" class="node">
<title>Node4</title>
<g id="a_Node000004"><a xlink:href="classcbrc_1_1FLEArray.html#a8255bcefe055e10a4fccd3331b450fee" target="_top" xlink:title=" ">
<polygon fill="white" stroke="#666666" points="423,-38 306,-38 306,-19 423,-19 423,-38"/>
<text text-anchor="middle" x="364.5" y="-26" font-family="Helvetica,sans-Serif" font-size="10.00">cbrc::FLEArray::bsize</text>
</a>
</g>
</g>
<!-- Node3&#45;&gt;Node4 -->
<g id="edge4_Node000003_Node000004" class="edge">
<title>Node3&#45;&gt;Node4</title>
<g id="a_edge4_Node000003_Node000004"><a xlink:title=" ">
<path fill="none" stroke="#63b8ff" d="M261.2,-25.26C272.41,-25.62 284.29,-25.99 295.85,-26.36"/>
<polygon fill="#63b8ff" stroke="#63b8ff" points="295.79,-29.86 305.89,-26.68 296.01,-22.86 295.79,-29.86"/>
</a>
</g>
</g>
<!-- Node5 -->
<g id="Node000005" class="node">
<title>Node5</title>
<g id="a_Node000005"><a xlink:href="classcbrc_1_1FLEArray.html#ad71311380d762114c9e0f3b0dda38b7c" target="_top" xlink:title=" ">
<polygon fill="white" stroke="#666666" points="579,-19 468,-19 468,0 579,0 579,-19"/>
<text text-anchor="middle" x="523.5" y="-7" font-family="Helvetica,sans-Serif" font-size="10.00">cbrc::FLEArray::size</text>
</a>
</g>
</g>
<!-- Node3&#45;&gt;Node5 -->
<g id="edge8_Node000003_Node000005" class="edge">
<title>Node3&#45;&gt;Node5</title>
<g id="a_edge8_Node000003_Node000005"><a xlink:title=" ">
<path fill="none" stroke="#63b8ff" d="M258.57,-13.99C271.12,-12.12 284.5,-10.45 297,-9.5 350.96,-5.4 412.4,-5.72 457.5,-6.89"/>
<polygon fill="#63b8ff" stroke="#63b8ff" points="457.64,-10.4 467.73,-7.18 457.83,-3.4 457.64,-10.4"/>
</a>
</g>
</g>
<!-- Node4&#45;&gt;Node5 -->
<g id="edge5_Node000004_Node000005" class="edge">
<title>Node4&#45;&gt;Node5</title>
<g id="a_edge5_Node000004_Node000005"><a xlink:title=" ">
<path fill="none" stroke="#63b8ff" d="M423.07,-21.53C434.37,-20.17 446.3,-18.72 457.82,-17.33"/>
<polygon fill="#63b8ff" stroke="#63b8ff" points="458.3,-20.79 467.81,-16.12 457.46,-13.85 458.3,-20.79"/>
</a>
</g>
</g>
</g>
</svg>
