<?xml version="1.0" encoding="UTF-8" standalone="no"?>
<!DOCTYPE svg PUBLIC "-//W3C//DTD SVG 1.1//EN"
 "http://www.w3.org/Graphics/SVG/1.1/DTD/svg11.dtd">
<!-- Generated by graphviz version 2.43.0 (0)
 -->
<!-- Title: cbrc::NeighborListGraph::readOneEdgePerLineFormat Pages: 1 -->
<svg width="537pt" height="247pt"
 viewBox="0.00 0.00 537.00 247.00" xmlns="http://www.w3.org/2000/svg" xmlns:xlink="http://www.w3.org/1999/xlink">
<g id="graph0" class="graph" transform="scale(1 1) rotate(0) translate(4 243)">
<title>cbrc::NeighborListGraph::readOneEdgePerLineFormat</title>
<!-- Node1 -->
<g id="Node000001" class="node">
<title>Node1</title>
<g id="a_Node000001"><a xlink:title=" ">
<polygon fill="#999999" stroke="#666666" points="158,-140.5 0,-140.5 0,-110.5 158,-110.5 158,-140.5"/>
<text text-anchor="start" x="8" y="-128.5" font-family="Helvetica,sans-Serif" font-size="10.00">cbrc::NeighborListGraph</text>
<text text-anchor="middle" x="79" y="-117.5" font-family="Helvetica,sans-Serif" font-size="10.00">::readOneEdgePerLineFormat</text>
</a>
</g>
</g>
<!-- Node2 -->
<g id="Node000002" class="node">
<title>Node2</title>
<g id="a_Node000002"><a xlink:href="classcbrc_1_1SerialNumbersForStrings.html#a1c1d7fe14c11a118be9e163d99427c71" target="_top" xlink:title=" ">
<polygon fill="white" stroke="#666666" points="358,-226.5 194,-226.5 194,-196.5 358,-196.5 358,-226.5"/>
<text text-anchor="start" x="202" y="-214.5" font-family="Helvetica,sans-Serif" font-size="10.00">cbrc::SerialNumbersForStrings</text>
<text text-anchor="middle" x="276" y="-203.5" font-family="Helvetica,sans-Serif" font-size="10.00">::getSerialNumber</text>
</a>
</g>
</g>
<!-- Node1&#45;&gt;Node2 -->
<g id="edge1_Node000001_Node000002" class="edge">
<title>Node1&#45;&gt;Node2</title>
<g id="a_edge1_Node000001_Node000002"><a xlink:title=" ">
<path fill="none" stroke="#63b8ff" d="M107.67,-140.51C130.49,-152.59 163.88,-169.63 194,-182.5 202.47,-186.12 211.57,-189.68 220.49,-193"/>
<polygon fill="#63b8ff" stroke="#63b8ff" points="219.47,-196.35 230.07,-196.49 221.87,-189.78 219.47,-196.35"/>
</a>
</g>
</g>
<!-- Node4 -->
<g id="Node000004" class="node">
<title>Node4</title>
<g id="a_Node000004"><a xlink:href="classcbrc_1_1FLEArray.html#ad71311380d762114c9e0f3b0dda38b7c" target="_top" xlink:title=" ">
<polygon fill="white" stroke="#666666" points="517,-181 406,-181 406,-162 517,-162 517,-181"/>
<text text-anchor="middle" x="461.5" y="-169" font-family="Helvetica,sans-Serif" font-size="10.00">cbrc::FLEArray::size</text>
</a>
</g>
</g>
<!-- Node1&#45;&gt;Node4 -->
<g id="edge6_Node000001_Node000004" class="edge">
<title>Node1&#45;&gt;Node4</title>
<g id="a_edge6_Node000001_Node000004"><a xlink:title=" ">
<path fill="none" stroke="#63b8ff" d="M144.56,-140.56C160.64,-143.9 177.89,-147.15 194,-149.5 262.51,-159.5 341.64,-165.31 395.77,-168.43"/>
<polygon fill="#63b8ff" stroke="#63b8ff" points="395.74,-171.93 405.92,-169 396.13,-164.94 395.74,-171.93"/>
</a>
</g>
</g>
<!-- Node5 -->
<g id="Node000005" class="node">
<title>Node5</title>
<g id="a_Node000005"><a xlink:href="classcbrc_1_1OneEdgePerLineFormat.html#a793d5e37c7e76c38b6f0cdc55f17ebbc" target="_top" xlink:title=" ">
<polygon fill="white" stroke="#666666" points="354.5,-140.5 197.5,-140.5 197.5,-110.5 354.5,-110.5 354.5,-140.5"/>
<text text-anchor="start" x="205.5" y="-128.5" font-family="Helvetica,sans-Serif" font-size="10.00">cbrc::OneEdgePerLineFormat</text>
<text text-anchor="middle" x="276" y="-117.5" font-family="Helvetica,sans-Serif" font-size="10.00">::inputDelimiter</text>
</a>
</g>
</g>
<!-- Node1&#45;&gt;Node5 -->
<g id="edge5_Node000001_Node000005" class="edge">
<title>Node1&#45;&gt;Node5</title>
<g id="a_edge5_Node000001_Node000005"><a xlink:title=" ">
<path fill="none" stroke="#63b8ff" d="M158.19,-125.5C167.78,-125.5 177.64,-125.5 187.36,-125.5"/>
<polygon fill="#63b8ff" stroke="#63b8ff" points="187.43,-129 197.43,-125.5 187.43,-122 187.43,-129"/>
</a>
</g>
</g>
<!-- Node6 -->
<g id="Node000006" class="node">
<title>Node6</title>
<g id="a_Node000006"><a xlink:href="namespacecbrc_1_1perlish.html#a2a0db2c27f3a19dfdcd7ef17ea5a0bcd" target="_top" xlink:title=" ">
<polygon fill="white" stroke="#666666" points="339,-92 213,-92 213,-73 339,-73 339,-92"/>
<text text-anchor="middle" x="276" y="-80" font-family="Helvetica,sans-Serif" font-size="10.00">cbrc::perlish::slurpLine</text>
</a>
</g>
</g>
<!-- Node1&#45;&gt;Node6 -->
<g id="edge7_Node000001_Node000006" class="edge">
<title>Node1&#45;&gt;Node6</title>
<g id="a_edge7_Node000001_Node000006"><a xlink:title=" ">
<path fill="none" stroke="#63b8ff" d="M148.2,-110.46C172.41,-105.12 199.27,-99.2 222.01,-94.18"/>
<polygon fill="#63b8ff" stroke="#63b8ff" points="222.81,-97.59 231.82,-92.02 221.3,-90.76 222.81,-97.59"/>
</a>
</g>
</g>
<!-- Node7 -->
<g id="Node000007" class="node">
<title>Node7</title>
<g id="a_Node000007"><a xlink:href="namespacecbrc_1_1perlish.html#a101a4746d50e52a00273c6fe533970ec" target="_top" xlink:title=" ">
<polygon fill="white" stroke="#666666" points="327.5,-37 224.5,-37 224.5,-18 327.5,-18 327.5,-37"/>
<text text-anchor="middle" x="276" y="-25" font-family="Helvetica,sans-Serif" font-size="10.00">cbrc::perlish::split</text>
</a>
</g>
</g>
<!-- Node1&#45;&gt;Node7 -->
<g id="edge8_Node000001_Node000007" class="edge">
<title>Node1&#45;&gt;Node7</title>
<g id="a_edge8_Node000001_Node000007"><a xlink:title=" ">
<path fill="none" stroke="#63b8ff" d="M106.4,-110.36C129.31,-97.41 163.49,-78.55 194,-63.5 209.85,-55.68 227.78,-47.63 242.74,-41.14"/>
<polygon fill="#63b8ff" stroke="#63b8ff" points="244.28,-44.28 252.08,-37.11 241.51,-37.85 244.28,-44.28"/>
</a>
</g>
</g>
<!-- Node3 -->
<g id="Node000003" class="node">
<title>Node3</title>
<g id="a_Node000003"><a xlink:href="classcbrc_1_1FLEArray.html#a5368c7c0434bd5c119d2cbb39f4b399e" target="_top" xlink:title=" ">
<polygon fill="white" stroke="#666666" points="529,-221 394,-221 394,-202 529,-202 529,-221"/>
<text text-anchor="middle" x="461.5" y="-209" font-family="Helvetica,sans-Serif" font-size="10.00">cbrc::FLEArray::FLEArray</text>
</a>
</g>
</g>
<!-- Node2&#45;&gt;Node3 -->
<g id="edge2_Node000002_Node000003" class="edge">
<title>Node2&#45;&gt;Node3</title>
<g id="a_edge2_Node000002_Node000003"><a xlink:title=" ">
<path fill="none" stroke="#63b8ff" d="M358.02,-211.5C366.55,-211.5 375.21,-211.5 383.69,-211.5"/>
<polygon fill="#63b8ff" stroke="#63b8ff" points="383.93,-215 393.93,-211.5 383.93,-208 383.93,-215"/>
</a>
</g>
</g>
<!-- Node2&#45;&gt;Node4 -->
<g id="edge4_Node000002_Node000004" class="edge">
<title>Node2&#45;&gt;Node4</title>
<g id="a_edge4_Node000002_Node000004"><a xlink:title=" ">
<path fill="none" stroke="#63b8ff" d="M345.85,-196.49C366.02,-192.09 387.77,-187.35 406.85,-183.2"/>
<polygon fill="#63b8ff" stroke="#63b8ff" points="407.83,-186.56 416.85,-181.01 406.34,-179.72 407.83,-186.56"/>
</a>
</g>
</g>
<!-- Node3&#45;&gt;Node3 -->
<g id="edge3_Node000003_Node000003" class="edge">
<title>Node3&#45;&gt;Node3</title>
<g id="a_edge3_Node000003_Node000003"><a xlink:title=" ">
<path fill="none" stroke="#63b8ff" d="M433.14,-221.08C419.34,-229.73 428.8,-239 461.5,-239 483.98,-239 495.48,-234.62 495.98,-229.07"/>
<polygon fill="#63b8ff" stroke="#63b8ff" points="498.72,-226.89 489.86,-221.08 493.16,-231.15 498.72,-226.89"/>
</a>
</g>
</g>
<!-- Node7&#45;&gt;Node7 -->
<g id="edge11_Node000007_Node000007" class="edge">
<title>Node7&#45;&gt;Node7</title>
<g id="a_edge11_Node000007_Node000007"><a xlink:title=" ">
<path fill="none" stroke="#63b8ff" d="M247.64,-37.08C233.84,-45.73 243.3,-55 276,-55 298.48,-55 309.98,-50.62 310.48,-45.07"/>
<polygon fill="#63b8ff" stroke="#63b8ff" points="313.22,-42.89 304.36,-37.08 307.66,-47.15 313.22,-42.89"/>
</a>
</g>
</g>
<!-- Node8 -->
<g id="Node000008" class="node">
<title>Node8</title>
<g id="a_Node000008"><a xlink:href="classcbrc_1_1FLEArray.html#a7e5d0d3bc5c41546620ccff95b55b3fa" target="_top" xlink:title=" ">
<polygon fill="white" stroke="#666666" points="521,-56 402,-56 402,-37 521,-37 521,-56"/>
<text text-anchor="middle" x="461.5" y="-44" font-family="Helvetica,sans-Serif" font-size="10.00">cbrc::FLEArray::begin</text>
</a>
</g>
</g>
<!-- Node7&#45;&gt;Node8 -->
<g id="edge9_Node000007_Node000008" class="edge">
<title>Node7&#45;&gt;Node8</title>
<g id="a_edge9_Node000007_Node000008"><a xlink:title=" ">
<path fill="none" stroke="#63b8ff" d="M327.63,-32.74C347.5,-34.8 370.62,-37.19 391.95,-39.4"/>
<polygon fill="#63b8ff" stroke="#63b8ff" points="391.62,-42.89 401.93,-40.44 392.34,-35.92 391.62,-42.89"/>
</a>
</g>
</g>
<!-- Node9 -->
<g id="Node000009" class="node">
<title>Node9</title>
<g id="a_Node000009"><a xlink:href="classcbrc_1_1FLEArray.html#a8c53878dc57e8f666976e041d146a523" target="_top" xlink:title=" ">
<polygon fill="white" stroke="#666666" points="516.5,-19 406.5,-19 406.5,0 516.5,0 516.5,-19"/>
<text text-anchor="middle" x="461.5" y="-7" font-family="Helvetica,sans-Serif" font-size="10.00">cbrc::FLEArray::end</text>
</a>
</g>
</g>
<!-- Node7&#45;&gt;Node9 -->
<g id="edge10_Node000007_Node000009" class="edge">
<title>Node7&#45;&gt;Node9</title>
<g id="a_edge10_Node000007_Node000009"><a xlink:title=" ">
<path fill="none" stroke="#63b8ff" d="M327.63,-22.53C348.79,-20.46 373.62,-18.02 396.06,-15.82"/>
<polygon fill="#63b8ff" stroke="#63b8ff" points="396.57,-19.29 406.18,-14.83 395.89,-12.32 396.57,-19.29"/>
</a>
</g>
</g>
</g>
</svg>
