<?xml version="1.0" encoding="UTF-8" standalone="no"?>
<!DOCTYPE svg PUBLIC "-//W3C//DTD SVG 1.1//EN"
 "http://www.w3.org/Graphics/SVG/1.1/DTD/svg11.dtd">
<!-- Generated by graphviz version 2.43.0 (0)
 -->
<!-- Title: cbrc::ResidueIndexWindow::ResidueIndexWindow Pages: 1 -->
<svg width="596pt" height="86pt"
 viewBox="0.00 0.00 596.00 86.00" xmlns="http://www.w3.org/2000/svg" xmlns:xlink="http://www.w3.org/1999/xlink">
<g id="graph0" class="graph" transform="scale(1 1) rotate(0) translate(4 82)">
<title>cbrc::ResidueIndexWindow::ResidueIndexWindow</title>
<!-- Node1 -->
<g id="Node000001" class="node">
<title>Node1</title>
<g id="a_Node000001"><a xlink:title=" ">
<polygon fill="#999999" stroke="#666666" points="148,-54 0,-54 0,-24 148,-24 148,-54"/>
<text text-anchor="start" x="8" y="-42" font-family="Helvetica,sans-Serif" font-size="10.00">cbrc::ResidueIndexWindow</text>
<text text-anchor="middle" x="74" y="-31" font-family="Helvetica,sans-Serif" font-size="10.00">::ResidueIndexWindow</text>
</a>
</g>
</g>
<!-- Node2 -->
<g id="Node000002" class="node">
<title>Node2</title>
<g id="a_Node000002"><a xlink:href="classcbrc_1_1ConstResidueIndexSequenceBoundaries.html#a43409c65bd354ce1efd45d24f5632733" target="_top" xlink:title=" ">
<polygon fill="white" stroke="#666666" points="368,-78 184,-78 184,-48 368,-48 368,-78"/>
<text text-anchor="start" x="192" y="-66" font-family="Helvetica,sans-Serif" font-size="10.00">cbrc::ConstResidueIndexSequence</text>
<text text-anchor="middle" x="276" y="-55" font-family="Helvetica,sans-Serif" font-size="10.00">Boundaries::size</text>
</a>
</g>
</g>
<!-- Node1&#45;&gt;Node2 -->
<g id="edge1_Node000001_Node000002" class="edge">
<title>Node1&#45;&gt;Node2</title>
<g id="a_edge1_Node000001_Node000002"><a xlink:title=" ">
<path fill="none" stroke="#63b8ff" d="M148.05,-47.77C156.39,-48.77 165.01,-49.8 173.63,-50.84"/>
<polygon fill="#63b8ff" stroke="#63b8ff" points="173.4,-54.33 183.75,-52.05 174.24,-47.38 173.4,-54.33"/>
</a>
</g>
</g>
<!-- Node3 -->
<g id="Node000003" class="node">
<title>Node3</title>
<g id="a_Node000003"><a xlink:href="classcbrc_1_1ResidueIndexWindow.html#acdb47eb64d338324b95167df2360f6c1" target="_top" xlink:title=" ">
<polygon fill="white" stroke="#666666" points="350,-30 202,-30 202,0 350,0 350,-30"/>
<text text-anchor="start" x="210" y="-18" font-family="Helvetica,sans-Serif" font-size="10.00">cbrc::ResidueIndexWindow</text>
<text text-anchor="middle" x="276" y="-7" font-family="Helvetica,sans-Serif" font-size="10.00">::windowStartIdx</text>
</a>
</g>
</g>
<!-- Node1&#45;&gt;Node3 -->
<g id="edge2_Node000001_Node000003" class="edge">
<title>Node1&#45;&gt;Node3</title>
<g id="a_edge2_Node000001_Node000003"><a xlink:title=" ">
<path fill="none" stroke="#63b8ff" d="M148.05,-30.23C162.29,-28.53 177.31,-26.72 191.84,-24.98"/>
<polygon fill="#63b8ff" stroke="#63b8ff" points="192.3,-28.45 201.81,-23.78 191.46,-21.5 192.3,-28.45"/>
</a>
</g>
</g>
<!-- Node4 -->
<g id="Node000004" class="node">
<title>Node4</title>
<g id="a_Node000004"><a xlink:href="classcbrc_1_1ConstResidueIndexSequenceBoundaries.html#a120d70335d55ed79bffc06b0408c27d0" target="_top" xlink:title=" ">
<polygon fill="white" stroke="#666666" points="588,-30 404,-30 404,0 588,0 588,-30"/>
<text text-anchor="start" x="412" y="-18" font-family="Helvetica,sans-Serif" font-size="10.00">cbrc::ConstResidueIndexSequence</text>
<text text-anchor="middle" x="496" y="-7" font-family="Helvetica,sans-Serif" font-size="10.00">Boundaries::startPtr</text>
</a>
</g>
</g>
<!-- Node3&#45;&gt;Node4 -->
<g id="edge3_Node000003_Node000004" class="edge">
<title>Node3&#45;&gt;Node4</title>
<g id="a_edge3_Node000003_Node000004"><a xlink:title=" ">
<path fill="none" stroke="#63b8ff" d="M350.2,-15C364.17,-15 379.02,-15 393.69,-15"/>
<polygon fill="#63b8ff" stroke="#63b8ff" points="393.8,-18.5 403.8,-15 393.8,-11.5 393.8,-18.5"/>
</a>
</g>
</g>
</g>
</svg>
