<?xml version="1.0" encoding="UTF-8" standalone="no"?>
<!DOCTYPE svg PUBLIC "-//W3C//DTD SVG 1.1//EN"
 "http://www.w3.org/Graphics/SVG/1.1/DTD/svg11.dtd">
<!-- Generated by graphviz version 2.43.0 (0)
 -->
<!-- Title: cbrc::MallocArray::read Pages: 1 -->
<svg width="603pt" height="188pt"
 viewBox="0.00 0.00 603.00 187.50" xmlns="http://www.w3.org/2000/svg" xmlns:xlink="http://www.w3.org/1999/xlink">
<g id="graph0" class="graph" transform="scale(1 1) rotate(0) translate(4 183.5)">
<title>cbrc::MallocArray::read</title>
<!-- Node1 -->
<g id="Node000001" class="node">
<title>Node1</title>
<g id="a_Node000001"><a xlink:title=" ">
<polygon fill="#999999" stroke="#666666" points="128,-131 0,-131 0,-112 128,-112 128,-131"/>
<text text-anchor="middle" x="64" y="-119" font-family="Helvetica,sans-Serif" font-size="10.00">cbrc::MallocArray::read</text>
</a>
</g>
</g>
<!-- Node2 -->
<g id="Node000002" class="node">
<title>Node2</title>
<g id="a_Node000002"><a xlink:href="classcbrc_1_1MallocArray.html#a8c3d8cc0cbf3469079fa869afea85d96" target="_top" xlink:title=" ">
<polygon fill="white" stroke="#666666" points="274,-179.5 167,-179.5 167,-149.5 274,-149.5 274,-179.5"/>
<text text-anchor="start" x="175" y="-167.5" font-family="Helvetica,sans-Serif" font-size="10.00">cbrc::MallocArray::</text>
<text text-anchor="middle" x="220.5" y="-156.5" font-family="Helvetica,sans-Serif" font-size="10.00">bsize</text>
</a>
</g>
</g>
<!-- Node1&#45;&gt;Node2 -->
<g id="edge1_Node000001_Node000002" class="edge">
<title>Node1&#45;&gt;Node2</title>
<g id="a_edge1_Node000001_Node000002"><a xlink:title=" ">
<path fill="none" stroke="#63b8ff" d="M99.29,-131.04C116.25,-135.76 137.26,-141.61 156.95,-147.09"/>
<polygon fill="#63b8ff" stroke="#63b8ff" points="156.21,-150.52 166.79,-149.83 158.09,-143.78 156.21,-150.52"/>
</a>
</g>
</g>
<!-- Node3 -->
<g id="Node000003" class="node">
<title>Node3</title>
<g id="a_Node000003"><a xlink:href="classcbrc_1_1MallocArray.html#ad3c146d3c45554ebcba4be8dd4f53327" target="_top" xlink:title=" ">
<polygon fill="white" stroke="#666666" points="443.5,-162 317.5,-162 317.5,-143 443.5,-143 443.5,-162"/>
<text text-anchor="middle" x="380.5" y="-150" font-family="Helvetica,sans-Serif" font-size="10.00">cbrc::MallocArray::size</text>
</a>
</g>
</g>
<!-- Node1&#45;&gt;Node3 -->
<g id="edge10_Node000001_Node000003" class="edge">
<title>Node1&#45;&gt;Node3</title>
<g id="a_edge10_Node000001_Node000003"><a xlink:title=" ">
<path fill="none" stroke="#63b8ff" d="M128.12,-126.71C170.3,-130.3 227.01,-135.33 277,-140.5 286.82,-141.52 297.17,-142.65 307.36,-143.8"/>
<polygon fill="#63b8ff" stroke="#63b8ff" points="307.13,-147.3 317.47,-144.96 307.93,-140.35 307.13,-147.3"/>
</a>
</g>
</g>
<!-- Node4 -->
<g id="Node000004" class="node">
<title>Node4</title>
<g id="a_Node000004"><a xlink:href="classcbrc_1_1FLEArray.html#ab4f853671d71b67a4771b5199af8d8f8" target="_top" xlink:title=" ">
<polygon fill="white" stroke="#666666" points="277,-75 164,-75 164,-56 277,-56 277,-75"/>
<text text-anchor="middle" x="220.5" y="-63" font-family="Helvetica,sans-Serif" font-size="10.00">cbrc::FLEArray::read</text>
</a>
</g>
</g>
<!-- Node1&#45;&gt;Node4 -->
<g id="edge3_Node000001_Node000004" class="edge">
<title>Node1&#45;&gt;Node4</title>
<g id="a_edge3_Node000001_Node000004"><a xlink:title=" ">
<path fill="none" stroke="#63b8ff" d="M91.56,-111.87C117.03,-102.64 155.66,-88.64 183.81,-78.44"/>
<polygon fill="#63b8ff" stroke="#63b8ff" points="185.08,-81.7 193.29,-75 182.69,-75.12 185.08,-81.7"/>
</a>
</g>
</g>
<!-- Node2&#45;&gt;Node3 -->
<g id="edge2_Node000002_Node000003" class="edge">
<title>Node2&#45;&gt;Node3</title>
<g id="a_edge2_Node000002_Node000003"><a xlink:title=" ">
<path fill="none" stroke="#63b8ff" d="M274.11,-160.5C284.7,-159.7 295.99,-158.84 307.12,-158"/>
<polygon fill="#63b8ff" stroke="#63b8ff" points="307.55,-161.47 317.26,-157.23 307.02,-154.49 307.55,-161.47"/>
</a>
</g>
</g>
<!-- Node4&#45;&gt;Node4 -->
<g id="edge8_Node000004_Node000004" class="edge">
<title>Node4&#45;&gt;Node4</title>
<g id="a_edge8_Node000004_Node000004"><a xlink:title=" ">
<path fill="none" stroke="#63b8ff" d="M196.46,-75.08C184.76,-83.73 192.77,-93 220.5,-93 238.7,-93 248.4,-89.01 249.62,-83.82"/>
<polygon fill="#63b8ff" stroke="#63b8ff" points="252.59,-81.97 244.54,-75.08 246.54,-85.49 252.59,-81.97"/>
</a>
</g>
</g>
<!-- Node5 -->
<g id="Node000005" class="node">
<title>Node5</title>
<g id="a_Node000005"><a xlink:href="classcbrc_1_1FLEArray.html#a8255bcefe055e10a4fccd3331b450fee" target="_top" xlink:title=" ">
<polygon fill="white" stroke="#666666" points="439,-113 322,-113 322,-94 439,-94 439,-113"/>
<text text-anchor="middle" x="380.5" y="-101" font-family="Helvetica,sans-Serif" font-size="10.00">cbrc::FLEArray::bsize</text>
</a>
</g>
</g>
<!-- Node4&#45;&gt;Node5 -->
<g id="edge4_Node000004_Node000005" class="edge">
<title>Node4&#45;&gt;Node5</title>
<g id="a_edge4_Node000004_Node000005"><a xlink:title=" ">
<path fill="none" stroke="#63b8ff" d="M261.37,-75.09C282.22,-80.1 307.93,-86.29 330.04,-91.61"/>
<polygon fill="#63b8ff" stroke="#63b8ff" points="329.38,-95.04 339.92,-93.98 331.01,-88.24 329.38,-95.04"/>
</a>
</g>
</g>
<!-- Node6 -->
<g id="Node000006" class="node">
<title>Node6</title>
<g id="a_Node000006"><a xlink:href="classcbrc_1_1FLEArray.html#ad71311380d762114c9e0f3b0dda38b7c" target="_top" xlink:title=" ">
<polygon fill="white" stroke="#666666" points="595,-94 484,-94 484,-75 595,-75 595,-94"/>
<text text-anchor="middle" x="539.5" y="-82" font-family="Helvetica,sans-Serif" font-size="10.00">cbrc::FLEArray::size</text>
</a>
</g>
</g>
<!-- Node4&#45;&gt;Node6 -->
<g id="edge9_Node000004_Node000006" class="edge">
<title>Node4&#45;&gt;Node6</title>
<g id="a_edge9_Node000004_Node000006"><a xlink:title=" ">
<path fill="none" stroke="#63b8ff" d="M277.08,-68.83C331.94,-72.12 415.78,-77.14 473.65,-80.61"/>
<polygon fill="#63b8ff" stroke="#63b8ff" points="473.59,-84.12 483.78,-81.22 474.01,-77.13 473.59,-84.12"/>
</a>
</g>
</g>
<!-- Node7 -->
<g id="Node000007" class="node">
<title>Node7</title>
<g id="a_Node000007"><a xlink:href="classcbrc_1_1FLEArray.html#a5368c7c0434bd5c119d2cbb39f4b399e" target="_top" xlink:title=" ">
<polygon fill="white" stroke="#666666" points="448,-19 313,-19 313,0 448,0 448,-19"/>
<text text-anchor="middle" x="380.5" y="-7" font-family="Helvetica,sans-Serif" font-size="10.00">cbrc::FLEArray::FLEArray</text>
</a>
</g>
</g>
<!-- Node4&#45;&gt;Node7 -->
<g id="edge6_Node000004_Node000007" class="edge">
<title>Node4&#45;&gt;Node7</title>
<g id="a_edge6_Node000004_Node000007"><a xlink:title=" ">
<path fill="none" stroke="#63b8ff" d="M248.66,-55.87C274.71,-46.64 314.21,-32.64 343,-22.44"/>
<polygon fill="#63b8ff" stroke="#63b8ff" points="344.44,-25.64 352.69,-19 342.1,-19.04 344.44,-25.64"/>
</a>
</g>
</g>
<!-- Node5&#45;&gt;Node6 -->
<g id="edge5_Node000005_Node000006" class="edge">
<title>Node5&#45;&gt;Node6</title>
<g id="a_edge5_Node000005_Node000006"><a xlink:title=" ">
<path fill="none" stroke="#63b8ff" d="M439.07,-96.53C450.37,-95.17 462.3,-93.72 473.82,-92.33"/>
<polygon fill="#63b8ff" stroke="#63b8ff" points="474.3,-95.79 483.81,-91.12 473.46,-88.85 474.3,-95.79"/>
</a>
</g>
</g>
<!-- Node7&#45;&gt;Node7 -->
<g id="edge7_Node000007_Node000007" class="edge">
<title>Node7&#45;&gt;Node7</title>
<g id="a_edge7_Node000007_Node000007"><a xlink:title=" ">
<path fill="none" stroke="#63b8ff" d="M356.15,-19.08C344.3,-27.73 352.42,-37 380.5,-37 398.93,-37 408.76,-33.01 409.99,-27.82"/>
<polygon fill="#63b8ff" stroke="#63b8ff" points="412.94,-25.93 404.85,-19.08 406.91,-29.48 412.94,-25.93"/>
</a>
</g>
</g>
</g>
</svg>
