<?xml version="1.0" encoding="UTF-8" standalone="no"?>
<!DOCTYPE svg PUBLIC "-//W3C//DTD SVG 1.1//EN"
 "http://www.w3.org/Graphics/SVG/1.1/DTD/svg11.dtd">
<!-- Generated by graphviz version 2.43.0 (0)
 -->
<!-- Title: cbrc::MallocArray::setSize Pages: 1 -->
<svg width="544pt" height="134pt"
 viewBox="0.00 0.00 544.00 134.00" xmlns="http://www.w3.org/2000/svg" xmlns:xlink="http://www.w3.org/1999/xlink">
<g id="graph0" class="graph" transform="scale(1 1) rotate(0) translate(4 130)">
<title>cbrc::MallocArray::setSize</title>
<!-- Node1 -->
<g id="Node000001" class="node">
<title>Node1</title>
<g id="a_Node000001"><a xlink:title=" ">
<polygon fill="#999999" stroke="#666666" points="536,-54 429,-54 429,-24 536,-24 536,-54"/>
<text text-anchor="start" x="437" y="-42" font-family="Helvetica,sans-Serif" font-size="10.00">cbrc::MallocArray::</text>
<text text-anchor="middle" x="482.5" y="-31" font-family="Helvetica,sans-Serif" font-size="10.00">setSize</text>
</a>
</g>
</g>
<!-- Node2 -->
<g id="Node000002" class="node">
<title>Node2</title>
<g id="a_Node000002"><a xlink:href="classcbrc_1_1MallocArray.html#ac875afed2203db19d710c99c5d39b525" target="_top" xlink:title=" ">
<polygon fill="white" stroke="#666666" points="393,-54 286,-54 286,-24 393,-24 393,-54"/>
<text text-anchor="start" x="294" y="-42" font-family="Helvetica,sans-Serif" font-size="10.00">cbrc::MallocArray::</text>
<text text-anchor="middle" x="339.5" y="-31" font-family="Helvetica,sans-Serif" font-size="10.00">resize</text>
</a>
</g>
</g>
<!-- Node1&#45;&gt;Node2 -->
<g id="edge1_Node000001_Node000002" class="edge">
<title>Node1&#45;&gt;Node2</title>
<g id="a_edge1_Node000001_Node000002"><a xlink:title=" ">
<path fill="none" stroke="#63b8ff" d="M418.95,-39C410.3,-39 401.49,-39 393.05,-39"/>
<polygon fill="#63b8ff" stroke="#63b8ff" points="419,-42.5 429,-39 419,-35.5 419,-42.5"/>
</a>
</g>
</g>
<!-- Node3 -->
<g id="Node000003" class="node">
<title>Node3</title>
<g id="a_Node000003"><a xlink:href="classcbrc_1_1MallocArray.html#a56ce5040f0bc94ff8bb5f47c9f1de090" target="_top" xlink:title=" ">
<polygon fill="white" stroke="#666666" points="250,-78 143,-78 143,-48 250,-48 250,-78"/>
<text text-anchor="start" x="151" y="-66" font-family="Helvetica,sans-Serif" font-size="10.00">cbrc::MallocArray::</text>
<text text-anchor="middle" x="196.5" y="-55" font-family="Helvetica,sans-Serif" font-size="10.00">assign</text>
</a>
</g>
</g>
<!-- Node2&#45;&gt;Node3 -->
<g id="edge2_Node000002_Node000003" class="edge">
<title>Node2&#45;&gt;Node3</title>
<g id="a_edge2_Node000002_Node000003"><a xlink:title=" ">
<path fill="none" stroke="#63b8ff" d="M275.95,-49.65C267.3,-51.12 258.49,-52.62 250.05,-54.06"/>
<polygon fill="#63b8ff" stroke="#63b8ff" points="276.73,-53.07 286,-47.94 275.55,-46.16 276.73,-53.07"/>
</a>
</g>
</g>
<!-- Node7 -->
<g id="Node000007" class="node">
<title>Node7</title>
<g id="a_Node000007"><a xlink:href="classcbrc_1_1MallocArray.html#a84ca3c0e5d6aa7cae1d0e3d83bfc8716" target="_top" xlink:title=" ">
<polygon fill="white" stroke="#666666" points="250,-30 143,-30 143,0 250,0 250,-30"/>
<text text-anchor="start" x="151" y="-18" font-family="Helvetica,sans-Serif" font-size="10.00">cbrc::MallocArray::</text>
<text text-anchor="middle" x="196.5" y="-7" font-family="Helvetica,sans-Serif" font-size="10.00">assign</text>
</a>
</g>
</g>
<!-- Node2&#45;&gt;Node7 -->
<g id="edge6_Node000002_Node000007" class="edge">
<title>Node2&#45;&gt;Node7</title>
<g id="a_edge6_Node000002_Node000007"><a xlink:title=" ">
<path fill="none" stroke="#63b8ff" d="M275.95,-28.35C267.3,-26.88 258.49,-25.38 250.05,-23.94"/>
<polygon fill="#63b8ff" stroke="#63b8ff" points="275.55,-31.84 286,-30.06 276.73,-24.93 275.55,-31.84"/>
</a>
</g>
</g>
<!-- Node4 -->
<g id="Node000004" class="node">
<title>Node4</title>
<g id="a_Node000004"><a xlink:href="classcbrc_1_1MallocArray.html#af7f20539a0142d079453eecc9574e3ba" target="_top" xlink:title=" ">
<polygon fill="white" stroke="#666666" points="107,-126 0,-126 0,-96 107,-96 107,-126"/>
<text text-anchor="start" x="8" y="-114" font-family="Helvetica,sans-Serif" font-size="10.00">cbrc::MallocArray::</text>
<text text-anchor="middle" x="53.5" y="-103" font-family="Helvetica,sans-Serif" font-size="10.00">MallocArray</text>
</a>
</g>
</g>
<!-- Node3&#45;&gt;Node4 -->
<g id="edge3_Node000003_Node000004" class="edge">
<title>Node3&#45;&gt;Node4</title>
<g id="a_edge3_Node000003_Node000004"><a xlink:title=" ">
<path fill="none" stroke="#63b8ff" d="M141.61,-81.35C127.39,-86.19 112.21,-91.36 98.57,-96"/>
<polygon fill="#63b8ff" stroke="#63b8ff" points="142.94,-84.59 151.27,-78.06 140.68,-77.97 142.94,-84.59"/>
</a>
</g>
</g>
<!-- Node5 -->
<g id="Node000005" class="node">
<title>Node5</title>
<g id="a_Node000005"><a xlink:href="classcbrc_1_1MallocArray.html#a639becbe0b340d7557bd1d1a967fb3eb" target="_top" xlink:title=" ">
<polygon fill="white" stroke="#666666" points="107,-78 0,-78 0,-48 107,-48 107,-78"/>
<text text-anchor="start" x="8" y="-66" font-family="Helvetica,sans-Serif" font-size="10.00">cbrc::MallocArray::</text>
<text text-anchor="middle" x="53.5" y="-55" font-family="Helvetica,sans-Serif" font-size="10.00">operator=</text>
</a>
</g>
</g>
<!-- Node3&#45;&gt;Node5 -->
<g id="edge4_Node000003_Node000005" class="edge">
<title>Node3&#45;&gt;Node5</title>
<g id="a_edge4_Node000003_Node000005"><a xlink:title=" ">
<path fill="none" stroke="#63b8ff" d="M132.95,-63C124.3,-63 115.49,-63 107.05,-63"/>
<polygon fill="#63b8ff" stroke="#63b8ff" points="133,-66.5 143,-63 133,-59.5 133,-66.5"/>
</a>
</g>
</g>
<!-- Node6 -->
<g id="Node000006" class="node">
<title>Node6</title>
<g id="a_Node000006"><a xlink:href="classcbrc_1_1MallocArray.html#a124a0650e816cdf84a3dbf3bc5e562e3" target="_top" xlink:title=" ">
<polygon fill="white" stroke="#666666" points="107,-30 0,-30 0,0 107,0 107,-30"/>
<text text-anchor="start" x="8" y="-18" font-family="Helvetica,sans-Serif" font-size="10.00">cbrc::MallocArray::</text>
<text text-anchor="middle" x="53.5" y="-7" font-family="Helvetica,sans-Serif" font-size="10.00">operator=</text>
</a>
</g>
</g>
<!-- Node3&#45;&gt;Node6 -->
<g id="edge5_Node000003_Node000006" class="edge">
<title>Node3&#45;&gt;Node6</title>
<g id="a_edge5_Node000003_Node000006"><a xlink:title=" ">
<path fill="none" stroke="#63b8ff" d="M141.61,-44.65C127.39,-39.81 112.21,-34.64 98.57,-30"/>
<polygon fill="#63b8ff" stroke="#63b8ff" points="140.68,-48.03 151.27,-47.94 142.94,-41.41 140.68,-48.03"/>
</a>
</g>
</g>
</g>
</svg>
