<?xml version="1.0" encoding="UTF-8" standalone="no"?>
<!DOCTYPE svg PUBLIC "-//W3C//DTD SVG 1.1//EN"
 "http://www.w3.org/Graphics/SVG/1.1/DTD/svg11.dtd">
<!-- Generated by graphviz version 2.43.0 (0)
 -->
<!-- Title: cbrc::FLENumArray::min Pages: 1 -->
<svg width="537pt" height="156pt"
 viewBox="0.00 0.00 537.00 156.00" xmlns="http://www.w3.org/2000/svg" xmlns:xlink="http://www.w3.org/1999/xlink">
<g id="graph0" class="graph" transform="scale(1 1) rotate(0) translate(4 152)">
<title>cbrc::FLENumArray::min</title>
<!-- Node1 -->
<g id="Node000001" class="node">
<title>Node1</title>
<g id="a_Node000001"><a xlink:title=" ">
<polygon fill="#999999" stroke="#666666" points="134,-74 0,-74 0,-55 134,-55 134,-74"/>
<text text-anchor="middle" x="67" y="-62" font-family="Helvetica,sans-Serif" font-size="10.00">cbrc::FLENumArray::min</text>
</a>
</g>
</g>
<!-- Node2 -->
<g id="Node000002" class="node">
<title>Node2</title>
<g id="a_Node000002"><a xlink:href="classcbrc_1_1FLEArray.html#a7012f227d53b30dad4d9fe03d17cc32e" target="_top" xlink:title=" ">
<polygon fill="white" stroke="#666666" points="358,-93 170,-93 170,-74 358,-74 358,-93"/>
<text text-anchor="middle" x="264" y="-81" font-family="Helvetica,sans-Serif" font-size="10.00">cbrc::FLEArray::_assertNonzeroSize</text>
</a>
</g>
</g>
<!-- Node1&#45;&gt;Node2 -->
<g id="edge1_Node000001_Node000002" class="edge">
<title>Node1&#45;&gt;Node2</title>
<g id="a_edge1_Node000001_Node000002"><a xlink:title=" ">
<path fill="none" stroke="#63b8ff" d="M134.02,-70.93C142.28,-71.74 150.87,-72.57 159.53,-73.42"/>
<polygon fill="#63b8ff" stroke="#63b8ff" points="159.42,-76.92 169.71,-74.41 160.1,-69.96 159.42,-76.92"/>
</a>
</g>
</g>
<!-- Node3 -->
<g id="Node000003" class="node">
<title>Node3</title>
<g id="a_Node000003"><a xlink:href="classcbrc_1_1FLEArray.html#a5368c7c0434bd5c119d2cbb39f4b399e" target="_top" xlink:title=" ">
<polygon fill="white" stroke="#666666" points="529,-130 394,-130 394,-111 529,-111 529,-130"/>
<text text-anchor="middle" x="461.5" y="-118" font-family="Helvetica,sans-Serif" font-size="10.00">cbrc::FLEArray::FLEArray</text>
</a>
</g>
</g>
<!-- Node1&#45;&gt;Node3 -->
<g id="edge7_Node000001_Node000003" class="edge">
<title>Node1&#45;&gt;Node3</title>
<g id="a_edge7_Node000001_Node000003"><a xlink:title=" ">
<path fill="none" stroke="#63b8ff" d="M88.18,-74.04C108.38,-83.11 140.61,-96.26 170,-102.5 241.34,-117.65 324.58,-121.44 383.62,-121.86"/>
<polygon fill="#63b8ff" stroke="#63b8ff" points="383.98,-125.36 393.99,-121.9 384,-118.36 383.98,-125.36"/>
</a>
</g>
</g>
<!-- Node5 -->
<g id="Node000005" class="node">
<title>Node5</title>
<g id="a_Node000005"><a xlink:href="classcbrc_1_1FLEArray.html#a0a06120b85cf875ccff4081918fe0f33" target="_top" xlink:title=" ">
<polygon fill="white" stroke="#666666" points="338,-56 190,-56 190,-37 338,-37 338,-56"/>
<text text-anchor="middle" x="264" y="-44" font-family="Helvetica,sans-Serif" font-size="10.00">cbrc::FLEArray::_validIndex</text>
</a>
</g>
</g>
<!-- Node1&#45;&gt;Node5 -->
<g id="edge5_Node000001_Node000005" class="edge">
<title>Node1&#45;&gt;Node5</title>
<g id="a_edge5_Node000001_Node000005"><a xlink:title=" ">
<path fill="none" stroke="#63b8ff" d="M134.02,-58.41C148.56,-57.06 164.15,-55.62 179.29,-54.23"/>
<polygon fill="#63b8ff" stroke="#63b8ff" points="180.04,-57.67 189.68,-53.27 179.4,-50.7 180.04,-57.67"/>
</a>
</g>
</g>
<!-- Node6 -->
<g id="Node000006" class="node">
<title>Node6</title>
<g id="a_Node000006"><a xlink:href="classcbrc_1_1FLEArray.html#a7e5d0d3bc5c41546620ccff95b55b3fa" target="_top" xlink:title=" ">
<polygon fill="white" stroke="#666666" points="323.5,-19 204.5,-19 204.5,0 323.5,0 323.5,-19"/>
<text text-anchor="middle" x="264" y="-7" font-family="Helvetica,sans-Serif" font-size="10.00">cbrc::FLEArray::begin</text>
</a>
</g>
</g>
<!-- Node1&#45;&gt;Node6 -->
<g id="edge6_Node000001_Node000006" class="edge">
<title>Node1&#45;&gt;Node6</title>
<g id="a_edge6_Node000001_Node000006"><a xlink:title=" ">
<path fill="none" stroke="#63b8ff" d="M91.16,-54.92C111.62,-46.74 142.4,-35.13 170,-27.5 178.41,-25.18 187.32,-23.04 196.18,-21.12"/>
<polygon fill="#63b8ff" stroke="#63b8ff" points="197.04,-24.52 206.11,-19.04 195.61,-17.66 197.04,-24.52"/>
</a>
</g>
</g>
<!-- Node2&#45;&gt;Node3 -->
<g id="edge2_Node000002_Node000003" class="edge">
<title>Node2&#45;&gt;Node3</title>
<g id="a_edge2_Node000002_Node000003"><a xlink:title=" ">
<path fill="none" stroke="#63b8ff" d="M315.35,-93.03C341.13,-97.91 372.72,-103.89 399.83,-109.02"/>
<polygon fill="#63b8ff" stroke="#63b8ff" points="399.51,-112.52 409.99,-110.94 400.81,-105.64 399.51,-112.52"/>
</a>
</g>
</g>
<!-- Node4 -->
<g id="Node000004" class="node">
<title>Node4</title>
<g id="a_Node000004"><a xlink:href="classcbrc_1_1FLEArray.html#ad71311380d762114c9e0f3b0dda38b7c" target="_top" xlink:title=" ">
<polygon fill="white" stroke="#666666" points="517,-93 406,-93 406,-74 517,-74 517,-93"/>
<text text-anchor="middle" x="461.5" y="-81" font-family="Helvetica,sans-Serif" font-size="10.00">cbrc::FLEArray::size</text>
</a>
</g>
</g>
<!-- Node2&#45;&gt;Node4 -->
<g id="edge4_Node000002_Node000004" class="edge">
<title>Node2&#45;&gt;Node4</title>
<g id="a_edge4_Node000002_Node000004"><a xlink:title=" ">
<path fill="none" stroke="#63b8ff" d="M358.17,-83.5C370.8,-83.5 383.52,-83.5 395.51,-83.5"/>
<polygon fill="#63b8ff" stroke="#63b8ff" points="395.83,-87 405.83,-83.5 395.83,-80 395.83,-87"/>
</a>
</g>
</g>
<!-- Node3&#45;&gt;Node3 -->
<g id="edge3_Node000003_Node000003" class="edge">
<title>Node3&#45;&gt;Node3</title>
<g id="a_edge3_Node000003_Node000003"><a xlink:title=" ">
<path fill="none" stroke="#63b8ff" d="M431.29,-130.08C416.59,-138.73 426.66,-148 461.5,-148 485.99,-148 498.24,-143.42 498.25,-137.69"/>
<polygon fill="#63b8ff" stroke="#63b8ff" points="500.88,-135.38 491.71,-130.08 495.57,-139.95 500.88,-135.38"/>
</a>
</g>
</g>
</g>
</svg>
