<?xml version="1.0" encoding="UTF-8" standalone="no"?>
<!DOCTYPE svg PUBLIC "-//W3C//DTD SVG 1.1//EN"
 "http://www.w3.org/Graphics/SVG/1.1/DTD/svg11.dtd">
<!-- Generated by graphviz version 2.43.0 (0)
 -->
<!-- Title: cbrc::ResidueIndexMapTransformer::ResidueIndexMapTransformer Pages: 1 -->
<svg width="533pt" height="170pt"
 viewBox="0.00 0.00 533.00 169.50" xmlns="http://www.w3.org/2000/svg" xmlns:xlink="http://www.w3.org/1999/xlink">
<g id="graph0" class="graph" transform="scale(1 1) rotate(0) translate(4 165.5)">
<title>cbrc::ResidueIndexMapTransformer::ResidueIndexMapTransformer</title>
<!-- Node1 -->
<g id="Node000001" class="node">
<title>Node1</title>
<g id="a_Node000001"><a xlink:title=" ">
<polygon fill="#999999" stroke="#666666" points="188,-92 0,-92 0,-62 188,-62 188,-92"/>
<text text-anchor="start" x="8" y="-80" font-family="Helvetica,sans-Serif" font-size="10.00">cbrc::ResidueIndexMapTransformer</text>
<text text-anchor="middle" x="94" y="-69" font-family="Helvetica,sans-Serif" font-size="10.00">::ResidueIndexMapTransformer</text>
</a>
</g>
</g>
<!-- Node2 -->
<g id="Node000002" class="node">
<title>Node2</title>
<g id="a_Node000002"><a xlink:href="classcbrc_1_1FLEArray.html#ab3482d140dd947c2d956fa5620da84ab" target="_top" xlink:title=" ">
<polygon fill="white" stroke="#666666" points="341,-143.5 237,-143.5 237,-124.5 341,-124.5 341,-143.5"/>
<text text-anchor="middle" x="289" y="-131.5" font-family="Helvetica,sans-Serif" font-size="10.00">cbrc::FLEArray::fill</text>
</a>
</g>
</g>
<!-- Node1&#45;&gt;Node2 -->
<g id="edge1_Node000001_Node000002" class="edge">
<title>Node1&#45;&gt;Node2</title>
<g id="a_edge1_Node000001_Node000002"><a xlink:title=" ">
<path fill="none" stroke="#63b8ff" d="M145.96,-92.05C177.03,-101.23 216.27,-112.82 245.63,-121.49"/>
<polygon fill="#63b8ff" stroke="#63b8ff" points="244.99,-124.95 255.57,-124.42 246.98,-118.23 244.99,-124.95"/>
</a>
</g>
</g>
<!-- Node3 -->
<g id="Node000003" class="node">
<title>Node3</title>
<g id="a_Node000003"><a xlink:href="classcbrc_1_1FLEArray.html#ad71311380d762114c9e0f3b0dda38b7c" target="_top" xlink:title=" ">
<polygon fill="white" stroke="#666666" points="513,-114.5 402,-114.5 402,-95.5 513,-95.5 513,-114.5"/>
<text text-anchor="middle" x="457.5" y="-102.5" font-family="Helvetica,sans-Serif" font-size="10.00">cbrc::FLEArray::size</text>
</a>
</g>
</g>
<!-- Node1&#45;&gt;Node3 -->
<g id="edge8_Node000001_Node000003" class="edge">
<title>Node1&#45;&gt;Node3</title>
<g id="a_edge8_Node000001_Node000003"><a xlink:title=" ">
<path fill="none" stroke="#63b8ff" d="M188.1,-84.21C251.9,-89.15 334.94,-95.58 391.65,-99.98"/>
<polygon fill="#63b8ff" stroke="#63b8ff" points="391.69,-103.49 401.93,-100.77 392.23,-96.51 391.69,-103.49"/>
</a>
</g>
</g>
<!-- Node4 -->
<g id="Node000004" class="node">
<title>Node4</title>
<g id="a_Node000004"><a xlink:href="classcbrc_1_1FLEArray.html#a5f10f892188c41f2821ef33ee9bcc743" target="_top" xlink:title=" ">
<polygon fill="white" stroke="#666666" points="352.5,-67.5 225.5,-67.5 225.5,-48.5 352.5,-48.5 352.5,-67.5"/>
<text text-anchor="middle" x="289" y="-55.5" font-family="Helvetica,sans-Serif" font-size="10.00">cbrc::FLEArray::setSize</text>
</a>
</g>
</g>
<!-- Node1&#45;&gt;Node4 -->
<g id="edge4_Node000001_Node000004" class="edge">
<title>Node1&#45;&gt;Node4</title>
<g id="a_edge4_Node000001_Node000004"><a xlink:title=" ">
<path fill="none" stroke="#63b8ff" d="M188.11,-67.83C197.18,-66.94 206.3,-66.04 215.13,-65.17"/>
<polygon fill="#63b8ff" stroke="#63b8ff" points="215.75,-68.63 225.36,-64.17 215.06,-61.66 215.75,-68.63"/>
</a>
</g>
</g>
<!-- Node6 -->
<g id="Node000006" class="node">
<title>Node6</title>
<g id="a_Node000006"><a xlink:href="classcbrc_1_1ResidueIndexMap.html#a7df71b4dc789fdb3af6955248ad3af2d" target="_top" xlink:title=" ">
<polygon fill="white" stroke="#666666" points="354,-30 224,-30 224,0 354,0 354,-30"/>
<text text-anchor="start" x="232" y="-18" font-family="Helvetica,sans-Serif" font-size="10.00">cbrc::ResidueIndexMap</text>
<text text-anchor="middle" x="289" y="-7" font-family="Helvetica,sans-Serif" font-size="10.00">::toResidueIndices</text>
</a>
</g>
</g>
<!-- Node1&#45;&gt;Node6 -->
<g id="edge9_Node000001_Node000006" class="edge">
<title>Node1&#45;&gt;Node6</title>
<g id="a_edge9_Node000001_Node000006"><a xlink:title=" ">
<path fill="none" stroke="#63b8ff" d="M141.72,-61.99C168.66,-53.34 202.74,-42.39 231.22,-33.24"/>
<polygon fill="#63b8ff" stroke="#63b8ff" points="232.59,-36.48 241.04,-30.09 230.45,-29.81 232.59,-36.48"/>
</a>
</g>
</g>
<!-- Node2&#45;&gt;Node2 -->
<g id="edge2_Node000002_Node000002" class="edge">
<title>Node2&#45;&gt;Node2</title>
<g id="a_edge2_Node000002_Node000002"><a xlink:title=" ">
<path fill="none" stroke="#63b8ff" d="M263.11,-143.58C250.51,-152.23 259.14,-161.5 289,-161.5 309.06,-161.5 319.54,-157.32 320.44,-151.95"/>
<polygon fill="#63b8ff" stroke="#63b8ff" points="323.34,-149.99 314.89,-143.58 317.5,-153.85 323.34,-149.99"/>
</a>
</g>
</g>
<!-- Node2&#45;&gt;Node3 -->
<g id="edge3_Node000002_Node000003" class="edge">
<title>Node2&#45;&gt;Node3</title>
<g id="a_edge3_Node000002_Node000003"><a xlink:title=" ">
<path fill="none" stroke="#63b8ff" d="M341.31,-125.06C357.22,-122.29 374.96,-119.2 391.65,-116.29"/>
<polygon fill="#63b8ff" stroke="#63b8ff" points="392.64,-119.68 401.89,-114.51 391.44,-112.78 392.64,-119.68"/>
</a>
</g>
</g>
<!-- Node4&#45;&gt;Node3 -->
<g id="edge7_Node000004_Node000003" class="edge">
<title>Node4&#45;&gt;Node3</title>
<g id="a_edge7_Node000004_Node000003"><a xlink:title=" ">
<path fill="none" stroke="#63b8ff" d="M322.38,-67.55C341.94,-73.28 367.37,-80.66 390,-87 396.73,-88.89 403.86,-90.85 410.84,-92.76"/>
<polygon fill="#63b8ff" stroke="#63b8ff" points="410.35,-96.25 420.92,-95.5 412.19,-89.5 410.35,-96.25"/>
</a>
</g>
</g>
<!-- Node5 -->
<g id="Node000005" class="node">
<title>Node5</title>
<g id="a_Node000005"><a xlink:href="classcbrc_1_1FLEArray.html#a5368c7c0434bd5c119d2cbb39f4b399e" target="_top" xlink:title=" ">
<polygon fill="white" stroke="#666666" points="525,-59.5 390,-59.5 390,-40.5 525,-40.5 525,-59.5"/>
<text text-anchor="middle" x="457.5" y="-47.5" font-family="Helvetica,sans-Serif" font-size="10.00">cbrc::FLEArray::FLEArray</text>
</a>
</g>
</g>
<!-- Node4&#45;&gt;Node5 -->
<g id="edge5_Node000004_Node000005" class="edge">
<title>Node4&#45;&gt;Node5</title>
<g id="a_edge5_Node000004_Node000005"><a xlink:title=" ">
<path fill="none" stroke="#63b8ff" d="M352.95,-54.98C361.71,-54.55 370.8,-54.12 379.78,-53.69"/>
<polygon fill="#63b8ff" stroke="#63b8ff" points="380.03,-57.18 389.86,-53.2 379.7,-50.19 380.03,-57.18"/>
</a>
</g>
</g>
<!-- Node5&#45;&gt;Node5 -->
<g id="edge6_Node000005_Node000005" class="edge">
<title>Node5&#45;&gt;Node5</title>
<g id="a_edge6_Node000005_Node000005"><a xlink:title=" ">
<path fill="none" stroke="#63b8ff" d="M431.61,-59.58C419.01,-68.23 427.64,-77.5 457.5,-77.5 477.56,-77.5 488.04,-73.32 488.94,-67.95"/>
<polygon fill="#63b8ff" stroke="#63b8ff" points="491.84,-65.99 483.39,-59.58 486,-69.85 491.84,-65.99"/>
</a>
</g>
</g>
</g>
</svg>
