<?xml version="1.0" encoding="UTF-8" standalone="no"?>
<!DOCTYPE svg PUBLIC "-//W3C//DTD SVG 1.1//EN"
 "http://www.w3.org/Graphics/SVG/1.1/DTD/svg11.dtd">
<!-- Generated by graphviz version 2.43.0 (0)
 -->
<!-- Title: cbrc::GlobalAffineDist::alignment Pages: 1 -->
<svg width="459pt" height="132pt"
 viewBox="0.00 0.00 459.00 131.50" xmlns="http://www.w3.org/2000/svg" xmlns:xlink="http://www.w3.org/1999/xlink">
<g id="graph0" class="graph" transform="scale(1 1) rotate(0) translate(4 127.5)">
<title>cbrc::GlobalAffineDist::alignment</title>
<!-- Node1 -->
<g id="Node000001" class="node">
<title>Node1</title>
<g id="a_Node000001"><a xlink:title=" ">
<polygon fill="#999999" stroke="#666666" points="122,-62.5 0,-62.5 0,-32.5 122,-32.5 122,-62.5"/>
<text text-anchor="start" x="8" y="-50.5" font-family="Helvetica,sans-Serif" font-size="10.00">cbrc::GlobalAffineDist</text>
<text text-anchor="middle" x="61" y="-39.5" font-family="Helvetica,sans-Serif" font-size="10.00">::alignment</text>
</a>
</g>
</g>
<!-- Node2 -->
<g id="Node000002" class="node">
<title>Node2</title>
<g id="a_Node000002"><a xlink:href="classcbrc_1_1GlobalAffineDist.html#a1af85861050e6d0162c5e7f7df1a3c86" target="_top" xlink:title=" ">
<polygon fill="white" stroke="#666666" points="292,-105.5 170,-105.5 170,-75.5 292,-75.5 292,-105.5"/>
<text text-anchor="start" x="178" y="-93.5" font-family="Helvetica,sans-Serif" font-size="10.00">cbrc::GlobalAffineDist</text>
<text text-anchor="middle" x="231" y="-82.5" font-family="Helvetica,sans-Serif" font-size="10.00">::dist</text>
</a>
</g>
</g>
<!-- Node1&#45;&gt;Node2 -->
<g id="edge1_Node000001_Node000002" class="edge">
<title>Node1&#45;&gt;Node2</title>
<g id="a_edge1_Node000001_Node000002"><a xlink:title=" ">
<path fill="none" stroke="#63b8ff" d="M120.76,-62.54C133.93,-65.91 148.02,-69.52 161.54,-72.98"/>
<polygon fill="#63b8ff" stroke="#63b8ff" points="160.72,-76.38 171.27,-75.47 162.46,-69.6 160.72,-76.38"/>
</a>
</g>
</g>
<!-- Node3 -->
<g id="Node000003" class="node">
<title>Node3</title>
<g id="a_Node000003"><a xlink:href="classcbrc_1_1FLEArray.html#ad71311380d762114c9e0f3b0dda38b7c" target="_top" xlink:title=" ">
<polygon fill="white" stroke="#666666" points="451,-78 340,-78 340,-59 451,-59 451,-78"/>
<text text-anchor="middle" x="395.5" y="-66" font-family="Helvetica,sans-Serif" font-size="10.00">cbrc::FLEArray::size</text>
</a>
</g>
</g>
<!-- Node1&#45;&gt;Node3 -->
<g id="edge5_Node000001_Node000003" class="edge">
<title>Node1&#45;&gt;Node3</title>
<g id="a_edge5_Node000001_Node000003"><a xlink:title=" ">
<path fill="none" stroke="#63b8ff" d="M122.21,-51.3C180.86,-55.01 269.72,-60.62 329.84,-64.42"/>
<polygon fill="#63b8ff" stroke="#63b8ff" points="329.77,-67.92 339.97,-65.06 330.21,-60.93 329.77,-67.92"/>
</a>
</g>
</g>
<!-- Node4 -->
<g id="Node000004" class="node">
<title>Node4</title>
<g id="a_Node000004"><a xlink:href="classcbrc_1_1Alignment.html#af7cebeea2029c06cdab2e7fecacf1f52" target="_top" xlink:title=" ">
<polygon fill="white" stroke="#666666" points="304,-19 158,-19 158,0 304,0 304,-19"/>
<text text-anchor="middle" x="231" y="-7" font-family="Helvetica,sans-Serif" font-size="10.00">cbrc::Alignment::indelChar</text>
</a>
</g>
</g>
<!-- Node1&#45;&gt;Node4 -->
<g id="edge4_Node000001_Node000004" class="edge">
<title>Node1&#45;&gt;Node4</title>
<g id="a_edge4_Node000001_Node000004"><a xlink:title=" ">
<path fill="none" stroke="#63b8ff" d="M122.18,-33.89C140.36,-29.78 160.16,-25.3 177.78,-21.31"/>
<polygon fill="#63b8ff" stroke="#63b8ff" points="178.89,-24.65 187.87,-19.03 177.34,-17.82 178.89,-24.65"/>
</a>
</g>
</g>
<!-- Node2&#45;&gt;Node2 -->
<g id="edge2_Node000002_Node000002" class="edge">
<title>Node2&#45;&gt;Node2</title>
<g id="a_edge2_Node000002_Node000002"><a xlink:title=" ">
<path fill="none" stroke="#63b8ff" d="M202.17,-105.78C195.77,-114.91 205.38,-123.5 231,-123.5 246.21,-123.5 255.78,-120.47 259.71,-116.1"/>
<polygon fill="#63b8ff" stroke="#63b8ff" points="263.21,-115.82 259.83,-105.78 256.21,-115.73 263.21,-115.82"/>
</a>
</g>
</g>
<!-- Node2&#45;&gt;Node3 -->
<g id="edge3_Node000002_Node000003" class="edge">
<title>Node2&#45;&gt;Node3</title>
<g id="a_edge3_Node000002_Node000003"><a xlink:title=" ">
<path fill="none" stroke="#63b8ff" d="M292.05,-82.37C304.27,-80.72 317.17,-78.97 329.56,-77.29"/>
<polygon fill="#63b8ff" stroke="#63b8ff" points="330.36,-80.72 339.8,-75.9 329.43,-73.78 330.36,-80.72"/>
</a>
</g>
</g>
</g>
</svg>
