<?xml version="1.0" encoding="UTF-8" standalone="no"?>
<!DOCTYPE svg PUBLIC "-//W3C//DTD SVG 1.1//EN"
 "http://www.w3.org/Graphics/SVG/1.1/DTD/svg11.dtd">
<!-- Generated by graphviz version 2.43.0 (0)
 -->
<!-- Title: cbrc::SymmetricBitMatrix::width Pages: 1 -->
<!--zoomable 302 -->

<svg id="main" version="1.1" xmlns="http://www.w3.org/2000/svg" xmlns:xlink="http://www.w3.org/1999/xlink" xml:space="preserve" onload="init(evt)">
<style type="text/css"><![CDATA[
.node, .edge {opacity: 0.7;}
.node.selected, .edge.selected {opacity: 1;}
.edge:hover path { stroke: red; }
.edge:hover polygon { stroke: red; fill: red; }
]]></style>

<defs>
  <circle id="rim" cx="0" cy="0" r="7"/>
  <circle id="rim2" cx="0" cy="0" r="3.5"/>
  <g id="zoomPlus">
    <use xlink:href="#rim" fill="#404040"><set attributeName="fill" to="#808080" begin="zoomplus.mouseover" end="zoomplus.mouseout"/></use>
    <path d="M-4,0h8M0,-4v8" fill="none" stroke="white" stroke-width="1.5" pointer-events="none"/>
  </g>
  <g id="zoomMin">
    <use xlink:href="#rim" fill="#404040"><set attributeName="fill" to="#808080" begin="zoomminus.mouseover" end="zoomminus.mouseout"/></use>
    <path d="M-4,0h8" fill="none" stroke="white" stroke-width="1.5" pointer-events="none"/>
  </g>
  <g id="arrowUp" transform="translate(30 24)">
    <use xlink:href="#rim"/>
    <path pointer-events="none" fill="none" stroke="white" stroke-width="1.5" d="M0,-3.0v7 M-2.5,-0.5L0,-3.0L2.5,-0.5"/>
  </g>
  <g id="arrowRight" transform="rotate(90) translate(36 -43)">
    <use xlink:href="#rim"/>
    <path pointer-events="none" fill="none" stroke="white" stroke-width="1.5" d="M0,-3.0v7 M-2.5,-0.5L0,-3.0L2.5,-0.5"/>
  </g>
  <g id="arrowDown" transform="rotate(180) translate(-30 -48)">
    <use xlink:href="#rim"/>
    <path pointer-events="none" fill="none" stroke="white" stroke-width="1.5" d="M0,-3.0v7 M-2.5,-0.5L0,-3.0L2.5,-0.5"/>
  </g>
  <g id="arrowLeft" transform="rotate(270) translate(-36 17)">
    <use xlink:href="#rim"/>
    <path pointer-events="none" fill="none" stroke="white" stroke-width="1.5" d="M0,-3.0v7 M-2.5,-0.5L0,-3.0L2.5,-0.5"/>
  </g>
  <g id="resetDef">
    <use xlink:href="#rim2" fill="#404040"><set attributeName="fill" to="#808080" begin="reset.mouseover" end="reset.mouseout"/></use>
  </g>
</defs>
<script type="application/ecmascript">
var viewWidth = 1034;
var viewHeight = 302;
var sectionId = 'dynsection-22';
</script>
<script type="application/ecmascript" xlink:href="svg.min.js"/>
<svg id="graph" class="graph">
<g id="viewport">
<title>cbrc::SymmetricBitMatrix::width</title>
<!-- Node1 -->
<g id="Node000001" class="node">
<title>Node1</title>
<g id="a_Node000001"><a xlink:title=" ">
<polygon fill="#999999" stroke="#666666" points="1026,-197.5 885,-197.5 885,-167.5 1026,-167.5 1026,-197.5"/>
<text text-anchor="start" x="893" y="-185.5" font-family="Helvetica,sans-Serif" font-size="10.00">cbrc::SymmetricBitMatrix</text>
<text text-anchor="middle" x="955.5" y="-174.5" font-family="Helvetica,sans-Serif" font-size="10.00">::width</text>
</a>
</g>
</g>
<!-- Node2 -->
<g id="Node000002" class="node">
<title>Node2</title>
<g id="a_Node000002"><a xlink:href="classcbrc_1_1SymmetricBitMatrix.html#a5b649d8f78fffb54e35438a15c0bc694" target="_top" xlink:title=" ">
<polygon fill="white" stroke="#666666" points="849,-293.5 708,-293.5 708,-263.5 849,-263.5 849,-293.5"/>
<text text-anchor="start" x="716" y="-281.5" font-family="Helvetica,sans-Serif" font-size="10.00">cbrc::SymmetricBitMatrix</text>
<text text-anchor="middle" x="778.5" y="-270.5" font-family="Helvetica,sans-Serif" font-size="10.00">::operator=</text>
</a>
</g>
</g>
<!-- Node1&#45;&gt;Node2 -->
<g id="edge1_Node000001_Node000002" class="edge">
<title>Node1&#45;&gt;Node2</title>
<g id="a_edge1_Node000001_Node000002"><a xlink:title=" ">
<path fill="none" stroke="#63b8ff" d="M927.65,-203.79C907.04,-219.39 877.39,-240.24 849,-254.5 842.5,-257.77 835.45,-260.77 828.41,-263.46"/>
<polygon fill="#63b8ff" stroke="#63b8ff" points="929.83,-206.54 935.63,-197.68 925.57,-200.98 929.83,-206.54"/>
</a>
</g>
</g>
<!-- Node3 -->
<g id="Node000003" class="node">
<title>Node3</title>
<g id="a_Node000003"><a xlink:href="classcbrc_1_1SymmetricBitMatrix.html#a5398458dd315b028aa070328cff9a7d7" target="_top" xlink:title=" ">
<polygon fill="white" stroke="#666666" points="849,-245.5 708,-245.5 708,-215.5 849,-215.5 849,-245.5"/>
<text text-anchor="start" x="716" y="-233.5" font-family="Helvetica,sans-Serif" font-size="10.00">cbrc::SymmetricBitMatrix</text>
<text text-anchor="middle" x="778.5" y="-222.5" font-family="Helvetica,sans-Serif" font-size="10.00">::operator==</text>
</a>
</g>
</g>
<!-- Node1&#45;&gt;Node3 -->
<g id="edge2_Node000001_Node000003" class="edge">
<title>Node1&#45;&gt;Node3</title>
<g id="a_edge2_Node000001_Node000003"><a xlink:title=" ">
<path fill="none" stroke="#63b8ff" d="M889.9,-200.22C871.6,-205.24 851.85,-210.65 834.2,-215.5"/>
<polygon fill="#63b8ff" stroke="#63b8ff" points="890.89,-203.58 899.61,-197.56 889.04,-196.83 890.89,-203.58"/>
</a>
</g>
</g>
<!-- Node4 -->
<g id="Node000004" class="node">
<title>Node4</title>
<g id="a_Node000004"><a xlink:href="classcbrc_1_1SymmetricBitMatrix.html#a5e4661b705ed4463b792f06e81b4c0a2" target="_top" xlink:title=" ">
<polygon fill="white" stroke="#666666" points="849,-197.5 708,-197.5 708,-167.5 849,-167.5 849,-197.5"/>
<text text-anchor="start" x="716" y="-185.5" font-family="Helvetica,sans-Serif" font-size="10.00">cbrc::SymmetricBitMatrix</text>
<text text-anchor="middle" x="778.5" y="-174.5" font-family="Helvetica,sans-Serif" font-size="10.00">::setSize</text>
</a>
</g>
</g>
<!-- Node1&#45;&gt;Node4 -->
<g id="edge3_Node000001_Node000004" class="edge">
<title>Node1&#45;&gt;Node4</title>
<g id="a_edge3_Node000001_Node000004"><a xlink:title=" ">
<path fill="none" stroke="#63b8ff" d="M874.58,-182.5C866.11,-182.5 857.55,-182.5 849.21,-182.5"/>
<polygon fill="#63b8ff" stroke="#63b8ff" points="874.83,-186 884.83,-182.5 874.83,-179 874.83,-186"/>
</a>
</g>
</g>
<!-- Node8 -->
<g id="Node000008" class="node">
<title>Node8</title>
<g id="a_Node000008"><a xlink:href="classcbrc_1_1SymmetricBitMatrix.html#a4f41467859ba427226eefe2e59fe1f38" target="_top" xlink:title=" ">
<polygon fill="white" stroke="#666666" points="849,-149.5 708,-149.5 708,-119.5 849,-119.5 849,-149.5"/>
<text text-anchor="start" x="716" y="-137.5" font-family="Helvetica,sans-Serif" font-size="10.00">cbrc::SymmetricBitMatrix</text>
<text text-anchor="middle" x="778.5" y="-126.5" font-family="Helvetica,sans-Serif" font-size="10.00">::SymmetricBitMatrix</text>
</a>
</g>
</g>
<!-- Node1&#45;&gt;Node8 -->
<g id="edge7_Node000001_Node000008" class="edge">
<title>Node1&#45;&gt;Node8</title>
<g id="a_edge7_Node000001_Node000008"><a xlink:title=" ">
<path fill="none" stroke="#63b8ff" d="M889.9,-164.78C871.6,-159.76 851.85,-154.35 834.2,-149.5"/>
<polygon fill="#63b8ff" stroke="#63b8ff" points="889.04,-168.17 899.61,-167.44 890.89,-161.42 889.04,-168.17"/>
</a>
</g>
</g>
<!-- Node9 -->
<g id="Node000009" class="node">
<title>Node9</title>
<g id="a_Node000009"><a xlink:href="classcbrc_1_1SymmetricBitMatrix.html#a73f92543c9b40015ad4c1a0380942ed0" target="_top" xlink:title=" ">
<polygon fill="white" stroke="#666666" points="849,-101.5 708,-101.5 708,-71.5 849,-71.5 849,-101.5"/>
<text text-anchor="start" x="716" y="-89.5" font-family="Helvetica,sans-Serif" font-size="10.00">cbrc::SymmetricBitMatrix</text>
<text text-anchor="middle" x="778.5" y="-78.5" font-family="Helvetica,sans-Serif" font-size="10.00">::validIndex</text>
</a>
</g>
</g>
<!-- Node1&#45;&gt;Node9 -->
<g id="edge8_Node000001_Node000009" class="edge">
<title>Node1&#45;&gt;Node9</title>
<g id="a_edge8_Node000001_Node000009"><a xlink:title=" ">
<path fill="none" stroke="#63b8ff" d="M927.65,-161.21C907.04,-145.61 877.39,-124.76 849,-110.5 842.5,-107.23 835.45,-104.23 828.41,-101.54"/>
<polygon fill="#63b8ff" stroke="#63b8ff" points="925.57,-164.02 935.63,-167.32 929.83,-158.46 925.57,-164.02"/>
</a>
</g>
</g>
<!-- Node5 -->
<g id="Node000005" class="node">
<title>Node5</title>
<g id="a_Node000005"><a xlink:href="classcbrc_1_1MatrixGraph.html#a29c27bfb0528f36101f0d0b2b79b6a0d" target="_top" xlink:title=" ">
<polygon fill="white" stroke="#666666" points="646,-238.5 536,-238.5 536,-208.5 646,-208.5 646,-238.5"/>
<text text-anchor="start" x="544" y="-226.5" font-family="Helvetica,sans-Serif" font-size="10.00">cbrc::MatrixGraph::</text>
<text text-anchor="middle" x="591" y="-215.5" font-family="Helvetica,sans-Serif" font-size="10.00">MatrixGraph</text>
</a>
</g>
</g>
<!-- Node4&#45;&gt;Node5 -->
<g id="edge4_Node000004_Node000005" class="edge">
<title>Node4&#45;&gt;Node5</title>
<g id="a_edge4_Node000004_Node000005"><a xlink:title=" ">
<path fill="none" stroke="#63b8ff" d="M699.57,-199.72C681.57,-203.7 662.8,-207.85 646.08,-211.55"/>
<polygon fill="#63b8ff" stroke="#63b8ff" points="700.47,-203.11 709.48,-197.53 698.96,-196.27 700.47,-203.11"/>
</a>
</g>
</g>
<!-- Node6 -->
<g id="Node000006" class="node">
<title>Node6</title>
<g id="a_Node000006"><a xlink:href="classcbrc_1_1MatrixGraph.html#a32a503187de195192db021525be8ac1b" target="_top" xlink:title=" ">
<polygon fill="white" stroke="#666666" points="316,-172 158,-172 158,-131 316,-131 316,-172"/>
<text text-anchor="start" x="166" y="-160" font-family="Helvetica,sans-Serif" font-size="10.00">cbrc::MatrixGraph::</text>
<text text-anchor="start" x="166" y="-149" font-family="Helvetica,sans-Serif" font-size="10.00">readContinuousIntegerNodes</text>
<text text-anchor="middle" x="237" y="-138" font-family="Helvetica,sans-Serif" font-size="10.00">Format</text>
</a>
</g>
</g>
<!-- Node4&#45;&gt;Node6 -->
<g id="edge5_Node000004_Node000006" class="edge">
<title>Node4&#45;&gt;Node6</title>
<g id="a_edge5_Node000004_Node000006"><a xlink:title=" ">
<path fill="none" stroke="#63b8ff" d="M697.8,-177.92C595.23,-172.03 418.11,-161.85 316.24,-156"/>
<polygon fill="#63b8ff" stroke="#63b8ff" points="697.61,-181.42 707.8,-178.49 698.02,-174.43 697.61,-181.42"/>
</a>
</g>
</g>
<!-- Node7 -->
<g id="Node000007" class="node">
<title>Node7</title>
<g id="a_Node000007"><a xlink:href="classcbrc_1_1MatrixGraph.html#a253063eb36f1bfdb9739f177e768cab5" target="_top" xlink:title=" ">
<polygon fill="white" stroke="#666666" points="110,-166.5 0,-166.5 0,-136.5 110,-136.5 110,-166.5"/>
<text text-anchor="start" x="8" y="-154.5" font-family="Helvetica,sans-Serif" font-size="10.00">cbrc::MatrixGraph::</text>
<text text-anchor="middle" x="55" y="-143.5" font-family="Helvetica,sans-Serif" font-size="10.00">MatrixGraph</text>
</a>
</g>
</g>
<!-- Node6&#45;&gt;Node7 -->
<g id="edge6_Node000006_Node000007" class="edge">
<title>Node6&#45;&gt;Node7</title>
<g id="a_edge6_Node000006_Node000007"><a xlink:title=" ">
<path fill="none" stroke="#63b8ff" d="M147.58,-151.5C134.75,-151.5 121.89,-151.5 110.02,-151.5"/>
<polygon fill="#63b8ff" stroke="#63b8ff" points="147.83,-155 157.83,-151.5 147.83,-148 147.83,-155"/>
</a>
</g>
</g>
<!-- Node10 -->
<g id="Node000010" class="node">
<title>Node10</title>
<g id="a_Node000010"><a xlink:href="classcbrc_1_1SymmetricBitMatrix.html#a15da9b657169023fdce9f44c9ab4f5f7" target="_top" xlink:title=" ">
<polygon fill="white" stroke="#666666" points="661.5,-152.5 520.5,-152.5 520.5,-122.5 661.5,-122.5 661.5,-152.5"/>
<text text-anchor="start" x="528.5" y="-140.5" font-family="Helvetica,sans-Serif" font-size="10.00">cbrc::SymmetricBitMatrix</text>
<text text-anchor="middle" x="591" y="-129.5" font-family="Helvetica,sans-Serif" font-size="10.00">::clear</text>
</a>
</g>
</g>
<!-- Node9&#45;&gt;Node10 -->
<g id="edge9_Node000009_Node000010" class="edge">
<title>Node9&#45;&gt;Node10</title>
<g id="a_edge9_Node000009_Node000010"><a xlink:title=" ">
<path fill="none" stroke="#63b8ff" d="M713.07,-104.21C691.39,-110.17 667.43,-116.76 646.58,-122.49"/>
<polygon fill="#63b8ff" stroke="#63b8ff" points="714.13,-107.55 722.85,-101.53 712.28,-100.8 714.13,-107.55"/>
</a>
</g>
</g>
<!-- Node11 -->
<g id="Node000011" class="node">
<title>Node11</title>
<g id="a_Node000011"><a xlink:href="classcbrc_1_1SymmetricBitMatrix.html#adf5719bc0907aaa206743d423cfb22c1" target="_top" xlink:title=" ">
<polygon fill="white" stroke="#666666" points="661.5,-104.5 520.5,-104.5 520.5,-74.5 661.5,-74.5 661.5,-104.5"/>
<text text-anchor="start" x="528.5" y="-92.5" font-family="Helvetica,sans-Serif" font-size="10.00">cbrc::SymmetricBitMatrix</text>
<text text-anchor="middle" x="591" y="-81.5" font-family="Helvetica,sans-Serif" font-size="10.00">::operator()</text>
</a>
</g>
</g>
<!-- Node9&#45;&gt;Node11 -->
<g id="edge10_Node000009_Node000011" class="edge">
<title>Node9&#45;&gt;Node11</title>
<g id="a_edge10_Node000009_Node000011"><a xlink:title=" ">
<path fill="none" stroke="#63b8ff" d="M697.87,-87.79C685.83,-87.98 673.49,-88.18 661.68,-88.37"/>
<polygon fill="#63b8ff" stroke="#63b8ff" points="697.96,-91.29 707.9,-87.63 697.84,-84.29 697.96,-91.29"/>
</a>
</g>
</g>
<!-- Node12 -->
<g id="Node000012" class="node">
<title>Node12</title>
<g id="a_Node000012"><a xlink:href="classcbrc_1_1SymmetricBitMatrix.html#ad810c70f159b127efb60ce7626eb1c21" target="_top" xlink:title=" ">
<polygon fill="white" stroke="#666666" points="672,-56 510,-56 510,-37 672,-37 672,-56"/>
<text text-anchor="middle" x="591" y="-44" font-family="Helvetica,sans-Serif" font-size="10.00">cbrc::SymmetricBitMatrix::set</text>
</a>
</g>
</g>
<!-- Node9&#45;&gt;Node12 -->
<g id="edge11_Node000009_Node000012" class="edge">
<title>Node9&#45;&gt;Node12</title>
<g id="a_edge11_Node000009_Node000012"><a xlink:title=" ">
<path fill="none" stroke="#63b8ff" d="M697.93,-69.34C676.75,-64.77 654.63,-60.01 636.12,-56.01"/>
<polygon fill="#63b8ff" stroke="#63b8ff" points="697.39,-72.81 707.9,-71.49 698.86,-65.96 697.39,-72.81"/>
</a>
</g>
</g>
<!-- Node13 -->
<g id="Node000013" class="node">
<title>Node13</title>
<g id="a_Node000013"><a xlink:href="classcbrc_1_1SymmetricBitMatrix.html#aab7167b0a5535b4d63c17476ddbf81b2" target="_top" xlink:title=" ">
<polygon fill="white" stroke="#666666" points="672,-19 510,-19 510,0 672,0 672,-19"/>
<text text-anchor="middle" x="591" y="-7" font-family="Helvetica,sans-Serif" font-size="10.00">cbrc::SymmetricBitMatrix::set</text>
</a>
</g>
</g>
<!-- Node9&#45;&gt;Node13 -->
<g id="edge12_Node000009_Node000013" class="edge">
<title>Node9&#45;&gt;Node13</title>
<g id="a_edge12_Node000009_Node000013"><a xlink:title=" ">
<path fill="none" stroke="#63b8ff" d="M746.42,-65.96C726,-53.28 698.29,-37.56 672,-27.5 663.36,-24.19 653.95,-21.4 644.71,-19.08"/>
<polygon fill="#63b8ff" stroke="#63b8ff" points="744.65,-68.99 754.98,-71.37 748.39,-63.07 744.65,-68.99"/>
</a>
</g>
</g>
<!-- Node14 -->
<g id="Node000014" class="node">
<title>Node14</title>
<g id="a_Node000014"><a xlink:href="classcbrc_1_1MatrixGraph.html#a296643c875239846cc7a3d07043bcad6" target="_top" xlink:title=" ">
<polygon fill="white" stroke="#666666" points="474,-54.5 364,-54.5 364,-24.5 474,-24.5 474,-54.5"/>
<text text-anchor="start" x="372" y="-42.5" font-family="Helvetica,sans-Serif" font-size="10.00">cbrc::MatrixGraph::</text>
<text text-anchor="middle" x="419" y="-31.5" font-family="Helvetica,sans-Serif" font-size="10.00">setEdge</text>
</a>
</g>
</g>
<!-- Node13&#45;&gt;Node14 -->
<g id="edge13_Node000013_Node000014" class="edge">
<title>Node13&#45;&gt;Node14</title>
<g id="a_edge13_Node000013_Node000014"><a xlink:title=" ">
<path fill="none" stroke="#63b8ff" d="M525.85,-20.82C508.78,-23.83 490.51,-27.06 474.03,-29.96"/>
<polygon fill="#63b8ff" stroke="#63b8ff" points="526.5,-24.26 535.74,-19.07 525.29,-17.37 526.5,-24.26"/>
</a>
</g>
</g>
<!-- Node14&#45;&gt;Node6 -->
<g id="edge14_Node000014_Node000006" class="edge">
<title>Node14&#45;&gt;Node6</title>
<g id="a_edge14_Node000014_Node000006"><a xlink:title=" ">
<path fill="none" stroke="#63b8ff" d="M385.06,-60C352.66,-80.16 303.47,-110.76 271.04,-130.94"/>
<polygon fill="#63b8ff" stroke="#63b8ff" points="387.08,-62.86 393.72,-54.6 383.38,-56.92 387.08,-62.86"/>
</a>
</g>
</g>
<!-- Node15 -->
<g id="Node000015" class="node">
<title>Node15</title>
<g id="a_Node000015"><a xlink:href="classcbrc_1_1MatrixGraph.html#ade9e70ed22be1e11a6675ace517c701d" target="_top" xlink:title=" ">
<polygon fill="white" stroke="#666666" points="328,-54.5 146,-54.5 146,-24.5 328,-24.5 328,-54.5"/>
<text text-anchor="start" x="154" y="-42.5" font-family="Helvetica,sans-Serif" font-size="10.00">cbrc::MatrixGraph::</text>
<text text-anchor="middle" x="237" y="-31.5" font-family="Helvetica,sans-Serif" font-size="10.00">readEdgesOneEdgePerLineFormat</text>
</a>
</g>
</g>
<!-- Node14&#45;&gt;Node15 -->
<g id="edge15_Node000014_Node000015" class="edge">
<title>Node14&#45;&gt;Node15</title>
<g id="a_edge15_Node000014_Node000015"><a xlink:title=" ">
<path fill="none" stroke="#63b8ff" d="M353.73,-39.5C345.47,-39.5 336.89,-39.5 328.32,-39.5"/>
<polygon fill="#63b8ff" stroke="#63b8ff" points="353.99,-43 363.99,-39.5 353.99,-36 353.99,-43"/>
</a>
</g>
</g>
</g>
</svg>

<g id="navigator" transform="translate(0 0)" fill="#404254">
  <rect fill="#f2f5e9" fill-opacity="0.5" stroke="#606060" stroke-width=".5" x="0" y="0" width="60" height="60"/>
  <use id="zoomplus" xlink:href="#zoomPlus" x="17" y="9" onmousedown="handleZoom(evt,'in')"/>
  <use id="zoomminus" xlink:href="#zoomMin" x="42" y="9" onmousedown="handleZoom(evt,'out')"/>
  <use id="reset" xlink:href="#resetDef" x="30" y="36" onmousedown="handleReset()"/>
   <use id="arrowup" xlink:href="#arrowUp" x="0" y="0" onmousedown="handlePan(0,-1)"/>
  <use id="arrowright" xlink:href="#arrowRight" x="0" y="0" onmousedown="handlePan(1,0)"/>
  <use id="arrowdown" xlink:href="#arrowDown" x="0" y="0" onmousedown="handlePan(0,1)"/>
  <use id="arrowleft" xlink:href="#arrowLeft" x="0" y="0" onmousedown="handlePan(-1,0)"/>
</g>
<svg viewBox="0 0 15 15" width="100%" height="30px" preserveAspectRatio="xMaxYMin meet">
 <g id="arrow_out" transform="scale(0.3 0.3)">
  <a xlink:href="classcbrc_1_1SymmetricBitMatrix_aae7e1dc6dd5421c0e42c50fcfc9ba44a_icgraph_org.svg" target="_base">
   <rect id="button" ry="5" rx="5" y="6" x="6" height="38" width="38"
        fill="#f2f5e9" fill-opacity="0.5" stroke="#606060" stroke-width="1.0"/>
   <path id="arrow"
     d="M 11.500037,31.436501 C 11.940474,20.09759 22.043105,11.32322 32.158766,21.979434 L 37.068811,17.246167 C 37.068811,17.246167 37.088388,32 37.088388,32 L 22.160133,31.978069 C 22.160133,31.978069 26.997745,27.140456 26.997745,27.140456 C 18.528582,18.264221 13.291696,25.230495 11.500037,31.436501 z"
     style="fill:#404040;"/>
  </a>
 </g>
</svg>

<style type='text/css'>
<![CDATA[
[data-mouse-over-selected='false'] { opacity: 0.7; }
[data-mouse-over-selected='true']  { opacity: 1.0; }
]]>
</style>
<script type="application/ecmascript"><![CDATA[
document.addEventListener('DOMContentLoaded', (event) => {
  highlightEdges();
  highlightAdjacentNodes();
});
]]></script>
</svg>
