<?xml version="1.0" encoding="UTF-8" standalone="no"?>
<!DOCTYPE svg PUBLIC "-//W3C//DTD SVG 1.1//EN"
 "http://www.w3.org/Graphics/SVG/1.1/DTD/svg11.dtd">
<!-- Generated by graphviz version 2.43.0 (0)
 -->
<!-- Title: cbrc::TextWindow::windowStartIdx Pages: 1 -->
<!--zoomable 218 -->

<svg id="main" version="1.1" xmlns="http://www.w3.org/2000/svg" xmlns:xlink="http://www.w3.org/1999/xlink" xml:space="preserve" onload="init(evt)">
<style type="text/css"><![CDATA[
.node, .edge {opacity: 0.7;}
.node.selected, .edge.selected {opacity: 1;}
.edge:hover path { stroke: red; }
.edge:hover polygon { stroke: red; fill: red; }
]]></style>

<defs>
  <circle id="rim" cx="0" cy="0" r="7"/>
  <circle id="rim2" cx="0" cy="0" r="3.5"/>
  <g id="zoomPlus">
    <use xlink:href="#rim" fill="#404040"><set attributeName="fill" to="#808080" begin="zoomplus.mouseover" end="zoomplus.mouseout"/></use>
    <path d="M-4,0h8M0,-4v8" fill="none" stroke="white" stroke-width="1.5" pointer-events="none"/>
  </g>
  <g id="zoomMin">
    <use xlink:href="#rim" fill="#404040"><set attributeName="fill" to="#808080" begin="zoomminus.mouseover" end="zoomminus.mouseout"/></use>
    <path d="M-4,0h8" fill="none" stroke="white" stroke-width="1.5" pointer-events="none"/>
  </g>
  <g id="arrowUp" transform="translate(30 24)">
    <use xlink:href="#rim"/>
    <path pointer-events="none" fill="none" stroke="white" stroke-width="1.5" d="M0,-3.0v7 M-2.5,-0.5L0,-3.0L2.5,-0.5"/>
  </g>
  <g id="arrowRight" transform="rotate(90) translate(36 -43)">
    <use xlink:href="#rim"/>
    <path pointer-events="none" fill="none" stroke="white" stroke-width="1.5" d="M0,-3.0v7 M-2.5,-0.5L0,-3.0L2.5,-0.5"/>
  </g>
  <g id="arrowDown" transform="rotate(180) translate(-30 -48)">
    <use xlink:href="#rim"/>
    <path pointer-events="none" fill="none" stroke="white" stroke-width="1.5" d="M0,-3.0v7 M-2.5,-0.5L0,-3.0L2.5,-0.5"/>
  </g>
  <g id="arrowLeft" transform="rotate(270) translate(-36 17)">
    <use xlink:href="#rim"/>
    <path pointer-events="none" fill="none" stroke="white" stroke-width="1.5" d="M0,-3.0v7 M-2.5,-0.5L0,-3.0L2.5,-0.5"/>
  </g>
  <g id="resetDef">
    <use xlink:href="#rim2" fill="#404040"><set attributeName="fill" to="#808080" begin="reset.mouseover" end="reset.mouseout"/></use>
  </g>
</defs>
<script type="application/ecmascript">
var viewWidth = 579;
var viewHeight = 218;
var sectionId = 'dynsection-16';
</script>
<script type="application/ecmascript" xlink:href="svg.min.js"/>
<svg id="graph" class="graph">
<g id="viewport">
<title>cbrc::TextWindow::windowStartIdx</title>
<!-- Node1 -->
<g id="Node000001" class="node">
<title>Node1</title>
<g id="a_Node000001"><a xlink:title=" ">
<polygon fill="#999999" stroke="#666666" points="571,-122.5 426,-122.5 426,-92.5 571,-92.5 571,-122.5"/>
<text text-anchor="start" x="434" y="-110.5" font-family="Helvetica,sans-Serif" font-size="10.00">cbrc::TextWindow::window</text>
<text text-anchor="middle" x="498.5" y="-99.5" font-family="Helvetica,sans-Serif" font-size="10.00">StartIdx</text>
</a>
</g>
</g>
<!-- Node2 -->
<g id="Node000002" class="node">
<title>Node2</title>
<g id="a_Node000002"><a xlink:href="classcbrc_1_1TextWindow.html#aca2cb2cfb06a1bd73d20f5a0301906ea" target="_top" xlink:title=" ">
<polygon fill="white" stroke="#666666" points="387.5,-210 205.5,-210 205.5,-191 387.5,-191 387.5,-210"/>
<text text-anchor="middle" x="296.5" y="-198" font-family="Helvetica,sans-Serif" font-size="10.00">cbrc::TextWindow::leftContextSize</text>
</a>
</g>
</g>
<!-- Node1&#45;&gt;Node2 -->
<g id="edge1_Node000001_Node000002" class="edge">
<title>Node1&#45;&gt;Node2</title>
<g id="a_edge1_Node000001_Node000002"><a xlink:title=" ">
<path fill="none" stroke="#63b8ff" d="M472.93,-129.16C452.23,-146.25 421.08,-169.34 390,-182.5 382.02,-185.88 373.37,-188.64 364.69,-190.87"/>
<polygon fill="#63b8ff" stroke="#63b8ff" points="475.21,-131.82 480.6,-122.71 470.7,-126.47 475.21,-131.82"/>
</a>
</g>
</g>
<!-- Node3 -->
<g id="Node000003" class="node">
<title>Node3</title>
<g id="a_Node000003"><a xlink:href="classcbrc_1_1TextWindow.html#af2e6df1b351ade67d8cd37227a52ec61" target="_top" xlink:title=" ">
<polygon fill="white" stroke="#666666" points="374.5,-173 218.5,-173 218.5,-154 374.5,-154 374.5,-173"/>
<text text-anchor="middle" x="296.5" y="-161" font-family="Helvetica,sans-Serif" font-size="10.00">cbrc::TextWindow::operator&#45;&#45;</text>
</a>
</g>
</g>
<!-- Node1&#45;&gt;Node3 -->
<g id="edge2_Node000001_Node000003" class="edge">
<title>Node1&#45;&gt;Node3</title>
<g id="a_edge2_Node000001_Node000003"><a xlink:title=" ">
<path fill="none" stroke="#63b8ff" d="M449.5,-126.17C431.09,-132.88 409.75,-140.12 390,-145.5 378.32,-148.68 365.66,-151.53 353.57,-153.97"/>
<polygon fill="#63b8ff" stroke="#63b8ff" points="450.96,-129.37 459.13,-122.62 448.53,-122.8 450.96,-129.37"/>
</a>
</g>
</g>
<!-- Node4 -->
<g id="Node000004" class="node">
<title>Node4</title>
<g id="a_Node000004"><a xlink:href="classcbrc_1_1TextWindow.html#a64a027f5b9996de4281351dc346fb3ea" target="_top" xlink:title=" ">
<polygon fill="white" stroke="#666666" points="360,-136 233,-136 233,-117 360,-117 360,-136"/>
<text text-anchor="middle" x="296.5" y="-124" font-family="Helvetica,sans-Serif" font-size="10.00">cbrc::TextWindow::size</text>
</a>
</g>
</g>
<!-- Node1&#45;&gt;Node4 -->
<g id="edge3_Node000001_Node000004" class="edge">
<title>Node1&#45;&gt;Node4</title>
<g id="a_edge3_Node000001_Node000004"><a xlink:title=" ">
<path fill="none" stroke="#63b8ff" d="M415.65,-115.28C397.08,-117.04 377.65,-118.89 360.03,-120.56"/>
<polygon fill="#63b8ff" stroke="#63b8ff" points="416.24,-118.74 425.86,-114.31 415.57,-111.77 416.24,-118.74"/>
</a>
</g>
</g>
<!-- Node9 -->
<g id="Node000009" class="node">
<title>Node9</title>
<g id="a_Node000009"><a xlink:href="classcbrc_1_1TextWindow.html#a536109f2cafe38bf9aed3d8bce43c493" target="_top" xlink:title=" ">
<polygon fill="white" stroke="#666666" points="380,-99 213,-99 213,-80 380,-80 380,-99"/>
<text text-anchor="middle" x="296.5" y="-87" font-family="Helvetica,sans-Serif" font-size="10.00">cbrc::TextWindow::TextWindow</text>
</a>
</g>
</g>
<!-- Node1&#45;&gt;Node9 -->
<g id="edge8_Node000001_Node000009" class="edge">
<title>Node1&#45;&gt;Node9</title>
<g id="a_edge8_Node000001_Node000009"><a xlink:title=" ">
<path fill="none" stroke="#63b8ff" d="M415.68,-100.14C403.98,-99.08 391.93,-98 380.21,-96.94"/>
<polygon fill="#63b8ff" stroke="#63b8ff" points="415.59,-103.64 425.86,-101.05 416.21,-96.67 415.59,-103.64"/>
</a>
</g>
</g>
<!-- Node10 -->
<g id="Node000010" class="node">
<title>Node10</title>
<g id="a_Node000010"><a xlink:href="classcbrc_1_1TextWindow.html#afc7b9f03414a4db1083cdda385c05676" target="_top" xlink:title=" ">
<polygon fill="white" stroke="#666666" points="380,-62 213,-62 213,-43 380,-43 380,-62"/>
<text text-anchor="middle" x="296.5" y="-50" font-family="Helvetica,sans-Serif" font-size="10.00">cbrc::TextWindow::TextWindow</text>
</a>
</g>
</g>
<!-- Node1&#45;&gt;Node10 -->
<g id="edge9_Node000001_Node000010" class="edge">
<title>Node1&#45;&gt;Node10</title>
<g id="a_edge9_Node000001_Node000010"><a xlink:title=" ">
<path fill="none" stroke="#63b8ff" d="M448.56,-89.05C430.35,-82.61 409.39,-75.7 390,-70.5 378.15,-67.32 365.3,-64.46 353.06,-62.01"/>
<polygon fill="#63b8ff" stroke="#63b8ff" points="447.49,-92.38 458.09,-92.46 449.85,-85.79 447.49,-92.38"/>
</a>
</g>
</g>
<!-- Node11 -->
<g id="Node000011" class="node">
<title>Node11</title>
<g id="a_Node000011"><a xlink:href="classcbrc_1_1TextWindow.html#a3cc4892b2f3cd9ef3367f83b5a06aea0" target="_top" xlink:title=" ">
<polygon fill="white" stroke="#666666" points="390,-25 203,-25 203,-6 390,-6 390,-25"/>
<text text-anchor="middle" x="296.5" y="-13" font-family="Helvetica,sans-Serif" font-size="10.00">cbrc::TextWindow::validRelativeIdx</text>
</a>
</g>
</g>
<!-- Node1&#45;&gt;Node11 -->
<g id="edge10_Node000001_Node000011" class="edge">
<title>Node1&#45;&gt;Node11</title>
<g id="a_edge10_Node000001_Node000011"><a xlink:title=" ">
<path fill="none" stroke="#63b8ff" d="M472.24,-85.61C451.5,-68.81 420.66,-46.38 390,-33.5 381.85,-30.08 373.03,-27.3 364.17,-25.05"/>
<polygon fill="#63b8ff" stroke="#63b8ff" points="470.27,-88.53 480.21,-92.2 474.73,-83.13 470.27,-88.53"/>
</a>
</g>
</g>
<!-- Node5 -->
<g id="Node000005" class="node">
<title>Node5</title>
<g id="a_Node000005"><a xlink:href="classcbrc_1_1TextWindow.html#aefb32f6bead1f6698713793071e4d57c" target="_top" xlink:title=" ">
<polygon fill="white" stroke="#666666" points="164,-179 3,-179 3,-160 164,-160 164,-179"/>
<text text-anchor="middle" x="83.5" y="-167" font-family="Helvetica,sans-Serif" font-size="10.00">cbrc::TextWindow::getFLArray</text>
</a>
</g>
</g>
<!-- Node4&#45;&gt;Node5 -->
<g id="edge4_Node000004_Node000005" class="edge">
<title>Node4&#45;&gt;Node5</title>
<g id="a_edge4_Node000004_Node000005"><a xlink:title=" ">
<path fill="none" stroke="#63b8ff" d="M238.53,-138.11C204.9,-144.96 162.86,-153.53 131.2,-159.98"/>
<polygon fill="#63b8ff" stroke="#63b8ff" points="239.57,-141.47 248.67,-136.04 238.17,-134.61 239.57,-141.47"/>
</a>
</g>
</g>
<!-- Node6 -->
<g id="Node000006" class="node">
<title>Node6</title>
<g id="a_Node000006"><a xlink:href="classcbrc_1_1TextWindow.html#a84dc0e8d6995ceea4eed9e087116a0ea" target="_top" xlink:title=" ">
<polygon fill="white" stroke="#666666" points="167,-142 0,-142 0,-123 167,-123 167,-142"/>
<text text-anchor="middle" x="83.5" y="-130" font-family="Helvetica,sans-Serif" font-size="10.00">cbrc::TextWindow::getFLEArray</text>
</a>
</g>
</g>
<!-- Node4&#45;&gt;Node6 -->
<g id="edge5_Node000004_Node000006" class="edge">
<title>Node4&#45;&gt;Node6</title>
<g id="a_edge5_Node000004_Node000006"><a xlink:title=" ">
<path fill="none" stroke="#63b8ff" d="M222.47,-128.58C204.68,-129.08 185.53,-129.63 167.33,-130.14"/>
<polygon fill="#63b8ff" stroke="#63b8ff" points="222.87,-132.07 232.76,-128.28 222.67,-125.07 222.87,-132.07"/>
</a>
</g>
</g>
<!-- Node7 -->
<g id="Node000007" class="node">
<title>Node7</title>
<g id="a_Node000007"><a xlink:href="classcbrc_1_1TextWindow.html#ab36351b587b2cce96429876f25a9c439" target="_top" xlink:title=" ">
<polygon fill="white" stroke="#666666" points="167,-56 0,-56 0,-37 167,-37 167,-56"/>
<text text-anchor="middle" x="83.5" y="-44" font-family="Helvetica,sans-Serif" font-size="10.00">cbrc::TextWindow::TextWindow</text>
</a>
</g>
</g>
<!-- Node4&#45;&gt;Node7 -->
<g id="edge6_Node000004_Node000007" class="edge">
<title>Node4&#45;&gt;Node7</title>
<g id="a_edge6_Node000004_Node000007"><a xlink:title=" ">
<path fill="none" stroke="#63b8ff" d="M223.01,-117.44C216,-115.09 209.2,-112.16 203,-108.5 181.53,-95.84 188.25,-78.53 167,-65.5 160.61,-61.58 153.49,-58.47 146.19,-56"/>
<polygon fill="#63b8ff" stroke="#63b8ff" points="222.09,-120.81 232.67,-120.29 224.07,-114.1 222.09,-120.81"/>
</a>
</g>
</g>
<!-- Node8 -->
<g id="Node000008" class="node">
<title>Node8</title>
<g id="a_Node000008"><a xlink:href="classcbrc_1_1TextWindow.html#a7b958e5e99605af91709f04b357fd4f3" target="_top" xlink:title=" ">
<polygon fill="white" stroke="#666666" points="156,-104.5 11,-104.5 11,-74.5 156,-74.5 156,-104.5"/>
<text text-anchor="start" x="19" y="-92.5" font-family="Helvetica,sans-Serif" font-size="10.00">cbrc::TextWindow::window</text>
<text text-anchor="middle" x="83.5" y="-81.5" font-family="Helvetica,sans-Serif" font-size="10.00">LastPtr</text>
</a>
</g>
</g>
<!-- Node4&#45;&gt;Node8 -->
<g id="edge7_Node000004_Node000008" class="edge">
<title>Node4&#45;&gt;Node8</title>
<g id="a_edge7_Node000004_Node000008"><a xlink:title=" ">
<path fill="none" stroke="#63b8ff" d="M231.22,-115.23C207.5,-111.07 180.49,-106.33 156.16,-102.07"/>
<polygon fill="#63b8ff" stroke="#63b8ff" points="230.71,-118.69 241.16,-116.97 231.92,-111.8 230.71,-118.69"/>
</a>
</g>
</g>
<!-- Node11&#45;&gt;Node7 -->
<g id="edge12_Node000011_Node000007" class="edge">
<title>Node11&#45;&gt;Node7</title>
<g id="a_edge12_Node000011_Node000007"><a xlink:title=" ">
<path fill="none" stroke="#63b8ff" d="M220.61,-26.5C197.38,-29.92 171.98,-33.65 149.48,-36.95"/>
<polygon fill="#63b8ff" stroke="#63b8ff" points="221.37,-29.93 230.76,-25.01 220.36,-23 221.37,-29.93"/>
</a>
</g>
</g>
<!-- Node12 -->
<g id="Node000012" class="node">
<title>Node12</title>
<g id="a_Node000012"><a xlink:href="classcbrc_1_1TextWindow.html#a47e5da0f211388d1298ca7a3b903de51" target="_top" xlink:title=" ">
<polygon fill="white" stroke="#666666" points="161.5,-19 5.5,-19 5.5,0 161.5,0 161.5,-19"/>
<text text-anchor="middle" x="83.5" y="-7" font-family="Helvetica,sans-Serif" font-size="10.00">cbrc::TextWindow::operator()</text>
</a>
</g>
</g>
<!-- Node11&#45;&gt;Node12 -->
<g id="edge11_Node000011_Node000012" class="edge">
<title>Node11&#45;&gt;Node12</title>
<g id="a_edge11_Node000011_Node000012"><a xlink:title=" ">
<path fill="none" stroke="#63b8ff" d="M192.94,-12.58C182.47,-12.29 171.96,-11.99 161.82,-11.7"/>
<polygon fill="#63b8ff" stroke="#63b8ff" points="192.86,-16.08 202.95,-12.87 193.06,-9.09 192.86,-16.08"/>
</a>
</g>
</g>
</g>
</svg>

<g id="navigator" transform="translate(0 0)" fill="#404254">
  <rect fill="#f2f5e9" fill-opacity="0.5" stroke="#606060" stroke-width=".5" x="0" y="0" width="60" height="60"/>
  <use id="zoomplus" xlink:href="#zoomPlus" x="17" y="9" onmousedown="handleZoom(evt,'in')"/>
  <use id="zoomminus" xlink:href="#zoomMin" x="42" y="9" onmousedown="handleZoom(evt,'out')"/>
  <use id="reset" xlink:href="#resetDef" x="30" y="36" onmousedown="handleReset()"/>
   <use id="arrowup" xlink:href="#arrowUp" x="0" y="0" onmousedown="handlePan(0,-1)"/>
  <use id="arrowright" xlink:href="#arrowRight" x="0" y="0" onmousedown="handlePan(1,0)"/>
  <use id="arrowdown" xlink:href="#arrowDown" x="0" y="0" onmousedown="handlePan(0,1)"/>
  <use id="arrowleft" xlink:href="#arrowLeft" x="0" y="0" onmousedown="handlePan(-1,0)"/>
</g>
<svg viewBox="0 0 15 15" width="100%" height="30px" preserveAspectRatio="xMaxYMin meet">
 <g id="arrow_out" transform="scale(0.3 0.3)">
  <a xlink:href="classcbrc_1_1TextWindow_a37d6d349be3b4ee732ad29f05d774c3a_icgraph_org.svg" target="_base">
   <rect id="button" ry="5" rx="5" y="6" x="6" height="38" width="38"
        fill="#f2f5e9" fill-opacity="0.5" stroke="#606060" stroke-width="1.0"/>
   <path id="arrow"
     d="M 11.500037,31.436501 C 11.940474,20.09759 22.043105,11.32322 32.158766,21.979434 L 37.068811,17.246167 C 37.068811,17.246167 37.088388,32 37.088388,32 L 22.160133,31.978069 C 22.160133,31.978069 26.997745,27.140456 26.997745,27.140456 C 18.528582,18.264221 13.291696,25.230495 11.500037,31.436501 z"
     style="fill:#404040;"/>
  </a>
 </g>
</svg>

<style type='text/css'>
<![CDATA[
[data-mouse-over-selected='false'] { opacity: 0.7; }
[data-mouse-over-selected='true']  { opacity: 1.0; }
]]>
</style>
<script type="application/ecmascript"><![CDATA[
document.addEventListener('DOMContentLoaded', (event) => {
  highlightEdges();
  highlightAdjacentNodes();
});
]]></script>
</svg>
