<?xml version="1.0" encoding="UTF-8" standalone="no"?>
<!DOCTYPE svg PUBLIC "-//W3C//DTD SVG 1.1//EN"
 "http://www.w3.org/Graphics/SVG/1.1/DTD/svg11.dtd">
<!-- Generated by graphviz version 2.43.0 (0)
 -->
<!-- Title: cbrc::ArgvParser::getArg Pages: 1 -->
<!--zoomable 494 -->

<svg id="main" version="1.1" xmlns="http://www.w3.org/2000/svg" xmlns:xlink="http://www.w3.org/1999/xlink" xml:space="preserve" onload="init(evt)">
<style type="text/css"><![CDATA[
.node, .edge {opacity: 0.7;}
.node.selected, .edge.selected {opacity: 1;}
.edge:hover path { stroke: red; }
.edge:hover polygon { stroke: red; fill: red; }
]]></style>

<defs>
  <circle id="rim" cx="0" cy="0" r="7"/>
  <circle id="rim2" cx="0" cy="0" r="3.5"/>
  <g id="zoomPlus">
    <use xlink:href="#rim" fill="#404040"><set attributeName="fill" to="#808080" begin="zoomplus.mouseover" end="zoomplus.mouseout"/></use>
    <path d="M-4,0h8M0,-4v8" fill="none" stroke="white" stroke-width="1.5" pointer-events="none"/>
  </g>
  <g id="zoomMin">
    <use xlink:href="#rim" fill="#404040"><set attributeName="fill" to="#808080" begin="zoomminus.mouseover" end="zoomminus.mouseout"/></use>
    <path d="M-4,0h8" fill="none" stroke="white" stroke-width="1.5" pointer-events="none"/>
  </g>
  <g id="arrowUp" transform="translate(30 24)">
    <use xlink:href="#rim"/>
    <path pointer-events="none" fill="none" stroke="white" stroke-width="1.5" d="M0,-3.0v7 M-2.5,-0.5L0,-3.0L2.5,-0.5"/>
  </g>
  <g id="arrowRight" transform="rotate(90) translate(36 -43)">
    <use xlink:href="#rim"/>
    <path pointer-events="none" fill="none" stroke="white" stroke-width="1.5" d="M0,-3.0v7 M-2.5,-0.5L0,-3.0L2.5,-0.5"/>
  </g>
  <g id="arrowDown" transform="rotate(180) translate(-30 -48)">
    <use xlink:href="#rim"/>
    <path pointer-events="none" fill="none" stroke="white" stroke-width="1.5" d="M0,-3.0v7 M-2.5,-0.5L0,-3.0L2.5,-0.5"/>
  </g>
  <g id="arrowLeft" transform="rotate(270) translate(-36 17)">
    <use xlink:href="#rim"/>
    <path pointer-events="none" fill="none" stroke="white" stroke-width="1.5" d="M0,-3.0v7 M-2.5,-0.5L0,-3.0L2.5,-0.5"/>
  </g>
  <g id="resetDef">
    <use xlink:href="#rim2" fill="#404040"><set attributeName="fill" to="#808080" begin="reset.mouseover" end="reset.mouseout"/></use>
  </g>
</defs>
<script type="application/ecmascript">
var viewWidth = 550;
var viewHeight = 494;
var sectionId = 'dynsection-16';
</script>
<script type="application/ecmascript" xlink:href="svg.min.js"/>
<svg id="graph" class="graph">
<g id="viewport">
<title>cbrc::ArgvParser::getArg</title>
<!-- Node1 -->
<g id="Node000001" class="node">
<title>Node1</title>
<g id="a_Node000001"><a xlink:title=" ">
<polygon fill="#999999" stroke="#666666" points="542,-319 408,-319 408,-300 542,-300 542,-319"/>
<text text-anchor="middle" x="475" y="-307" font-family="Helvetica,sans-Serif" font-size="10.00">cbrc::ArgvParser::getArg</text>
</a>
</g>
</g>
<!-- Node2 -->
<g id="Node000002" class="node">
<title>Node2</title>
<g id="a_Node000002"><a xlink:href="classcbrc_1_1ArgvParser.html#af13a60f32a0cf727ac0cf3fb3ae9de34" target="_top" xlink:title=" ">
<polygon fill="white" stroke="#666666" points="355,-452.5 221,-452.5 221,-422.5 355,-422.5 355,-452.5"/>
<text text-anchor="start" x="229" y="-440.5" font-family="Helvetica,sans-Serif" font-size="10.00">cbrc::ArgvParser::getArg</text>
<text text-anchor="middle" x="288" y="-429.5" font-family="Helvetica,sans-Serif" font-size="10.00">OrDie</text>
</a>
</g>
</g>
<!-- Node1&#45;&gt;Node2 -->
<g id="edge1_Node000001_Node000002" class="edge">
<title>Node1&#45;&gt;Node2</title>
<g id="a_edge1_Node000001_Node000002"><a xlink:title=" ">
<path fill="none" stroke="#63b8ff" d="M461.18,-327.41C443.63,-350.64 409.95,-390.84 372,-413.5 366.33,-416.88 360.16,-419.81 353.83,-422.34"/>
<polygon fill="#63b8ff" stroke="#63b8ff" points="464.16,-329.27 467.29,-319.14 458.53,-325.11 464.16,-329.27"/>
</a>
</g>
</g>
<!-- Node3 -->
<g id="Node000003" class="node">
<title>Node3</title>
<g id="a_Node000003"><a xlink:href="classcbrc_1_1ArgvParser.html#ace4e4a625d1c1114763fb25b41ab54e7" target="_top" xlink:title=" ">
<polygon fill="white" stroke="#666666" points="360.5,-404.5 215.5,-404.5 215.5,-374.5 360.5,-374.5 360.5,-404.5"/>
<text text-anchor="start" x="223.5" y="-392.5" font-family="Helvetica,sans-Serif" font-size="10.00">cbrc::ArgvParser::getEnum</text>
<text text-anchor="middle" x="288" y="-381.5" font-family="Helvetica,sans-Serif" font-size="10.00">OrDie</text>
</a>
</g>
</g>
<!-- Node1&#45;&gt;Node3 -->
<g id="edge2_Node000001_Node000003" class="edge">
<title>Node1&#45;&gt;Node3</title>
<g id="a_edge2_Node000001_Node000003"><a xlink:title=" ">
<path fill="none" stroke="#63b8ff" d="M450.43,-324.4C430.22,-336.69 400.01,-353.93 372,-365.5 364.1,-368.76 355.6,-371.77 347.16,-374.46"/>
<polygon fill="#63b8ff" stroke="#63b8ff" points="452.29,-327.36 458.97,-319.13 448.62,-321.4 452.29,-327.36"/>
</a>
</g>
</g>
<!-- Node4 -->
<g id="Node000004" class="node">
<title>Node4</title>
<g id="a_Node000004"><a xlink:href="classcbrc_1_1ArgvParser.html#af2a832f8094ea123b64c182612023d7f" target="_top" xlink:title=" ">
<polygon fill="white" stroke="#666666" points="346,-356 230,-356 230,-337 346,-337 346,-356"/>
<text text-anchor="middle" x="288" y="-344" font-family="Helvetica,sans-Serif" font-size="10.00">cbrc::ArgvParser::set</text>
</a>
</g>
</g>
<!-- Node1&#45;&gt;Node4 -->
<g id="edge3_Node000001_Node000004" class="edge">
<title>Node1&#45;&gt;Node4</title>
<g id="a_edge3_Node000001_Node000004"><a xlink:title=" ">
<path fill="none" stroke="#63b8ff" d="M416.42,-321.02C390.85,-326.13 361.12,-332.08 336.8,-336.94"/>
<polygon fill="#63b8ff" stroke="#63b8ff" points="417.24,-324.42 426.36,-319.03 415.87,-317.56 417.24,-324.42"/>
</a>
</g>
</g>
<!-- Node10 -->
<g id="Node000010" class="node">
<title>Node10</title>
<g id="a_Node000010"><a xlink:href="classcbrc_1_1ArgvParser.html#a20c3a4a1e0613097369fede57b736b61" target="_top" xlink:title=" ">
<polygon fill="white" stroke="#666666" points="372,-301 204,-301 204,-282 372,-282 372,-301"/>
<text text-anchor="middle" x="288" y="-289" font-family="Helvetica,sans-Serif" font-size="10.00">cbrc::ArgvParser::setCautiously</text>
</a>
</g>
</g>
<!-- Node1&#45;&gt;Node10 -->
<g id="edge9_Node000001_Node000010" class="edge">
<title>Node1&#45;&gt;Node10</title>
<g id="a_edge9_Node000001_Node000010"><a xlink:title=" ">
<path fill="none" stroke="#63b8ff" d="M397.78,-302.08C389.32,-301.26 380.67,-300.42 372.12,-299.59"/>
<polygon fill="#63b8ff" stroke="#63b8ff" points="397.7,-305.59 407.99,-303.08 398.38,-298.63 397.7,-305.59"/>
</a>
</g>
</g>
<!-- Node13 -->
<g id="Node000013" class="node">
<title>Node13</title>
<g id="a_Node000013"><a xlink:href="classcbrc_1_1ArgvParser.html#a429485e0298628a2f8f61364e9cc2df1" target="_top" xlink:title=" ">
<polygon fill="white" stroke="#666666" points="372,-210.5 204,-210.5 204,-180.5 372,-180.5 372,-210.5"/>
<text text-anchor="start" x="212" y="-198.5" font-family="Helvetica,sans-Serif" font-size="10.00">cbrc::ArgvParser::setCautiously</text>
<text text-anchor="middle" x="288" y="-187.5" font-family="Helvetica,sans-Serif" font-size="10.00">OrDie</text>
</a>
</g>
</g>
<!-- Node1&#45;&gt;Node13 -->
<g id="edge12_Node000001_Node000013" class="edge">
<title>Node1&#45;&gt;Node13</title>
<g id="a_edge12_Node000001_Node000013"><a xlink:title=" ">
<path fill="none" stroke="#63b8ff" d="M449.83,-294.61C414.47,-272.82 349.01,-232.48 313.48,-210.58"/>
<polygon fill="#63b8ff" stroke="#63b8ff" points="448.2,-297.71 458.55,-299.98 451.87,-291.75 448.2,-297.71"/>
</a>
</g>
</g>
<!-- Node17 -->
<g id="Node000017" class="node">
<title>Node17</title>
<g id="a_Node000017"><a xlink:href="classcbrc_1_1ArgvParser.html#a4c8336b8cd01c009285d5f0ba688254c" target="_top" xlink:title=" ">
<polygon fill="white" stroke="#666666" points="360,-75 216,-75 216,-56 360,-56 360,-75"/>
<text text-anchor="middle" x="288" y="-63" font-family="Helvetica,sans-Serif" font-size="10.00">cbrc::ArgvParser::setOrDie</text>
</a>
</g>
</g>
<!-- Node1&#45;&gt;Node17 -->
<g id="edge16_Node000001_Node000017" class="edge">
<title>Node1&#45;&gt;Node17</title>
<g id="a_edge16_Node000001_Node000017"><a xlink:title=" ">
<path fill="none" stroke="#63b8ff" d="M460.89,-291.43C441.62,-264.95 404.44,-214.13 372,-171.5 344.69,-135.6 311.38,-93.58 296.64,-75.08"/>
<polygon fill="#63b8ff" stroke="#63b8ff" points="458.21,-293.7 466.92,-299.73 463.87,-289.58 458.21,-293.7"/>
</a>
</g>
</g>
<!-- Node5 -->
<g id="Node000005" class="node">
<title>Node5</title>
<g id="a_Node000005"><a xlink:href="fasta__dumpAminoAcidContentWPformat_8cc.html#ad53223b8779f25caeddb70a3b9172967" target="_top" xlink:title=" ">
<polygon fill="white" stroke="#666666" points="104.5,-486 63.5,-486 63.5,-467 104.5,-467 104.5,-486"/>
<text text-anchor="middle" x="84" y="-474" font-family="Helvetica,sans-Serif" font-size="10.00">main</text>
</a>
</g>
</g>
<!-- Node4&#45;&gt;Node5 -->
<g id="edge4_Node000004_Node000005" class="edge">
<title>Node4&#45;&gt;Node5</title>
<g id="a_edge4_Node000004_Node000005"><a xlink:title=" ">
<path fill="none" stroke="#63b8ff" d="M220.35,-355.38C214.42,-358 208.84,-361.31 204,-365.5 170.48,-394.5 201.68,-429.69 168,-458.5 150.41,-473.55 123.18,-476.91 104.74,-477.26"/>
<polygon fill="#63b8ff" stroke="#63b8ff" points="221.75,-358.59 229.9,-351.81 219.31,-352.03 221.75,-358.59"/>
</a>
</g>
</g>
<!-- Node6 -->
<g id="Node000006" class="node">
<title>Node6</title>
<g id="a_Node000006"><a xlink:href="runRecountExpectationMatchingTagCorrector_8cc.html#ac0f2228420376f4db7e1274f2b41667c" target="_top" xlink:title=" ">
<polygon fill="white" stroke="#666666" points="104.5,-449 63.5,-449 63.5,-430 104.5,-430 104.5,-449"/>
<text text-anchor="middle" x="84" y="-437" font-family="Helvetica,sans-Serif" font-size="10.00">main</text>
</a>
</g>
</g>
<!-- Node4&#45;&gt;Node6 -->
<g id="edge5_Node000004_Node000006" class="edge">
<title>Node4&#45;&gt;Node6</title>
<g id="a_edge5_Node000004_Node000006"><a xlink:title=" ">
<path fill="none" stroke="#63b8ff" d="M219.93,-356.93C214.29,-359.25 208.88,-362.07 204,-365.5 179.79,-382.5 192.31,-404.63 168,-421.5 149.22,-434.53 122.76,-438.38 104.8,-439.39"/>
<polygon fill="#63b8ff" stroke="#63b8ff" points="221.36,-360.14 229.6,-353.49 219.01,-353.55 221.36,-360.14"/>
</a>
</g>
</g>
<!-- Node7 -->
<g id="Node000007" class="node">
<title>Node7</title>
<g id="a_Node000007"><a xlink:href="classcbrc_1_1ArgvParser.html#ad5b37896c52dd2eed30ed9e5062a0224" target="_top" xlink:title=" ">
<polygon fill="white" stroke="#666666" points="142,-412 26,-412 26,-393 142,-393 142,-412"/>
<text text-anchor="middle" x="84" y="-400" font-family="Helvetica,sans-Serif" font-size="10.00">cbrc::ArgvParser::set</text>
</a>
</g>
</g>
<!-- Node4&#45;&gt;Node7 -->
<g id="edge6_Node000004_Node000007" class="edge">
<title>Node4&#45;&gt;Node7</title>
<g id="a_edge6_Node000004_Node000007"><a xlink:title=" ">
<path fill="none" stroke="#63b8ff" d="M225.5,-358.67C218.17,-360.68 210.86,-362.95 204,-365.5 187.04,-371.79 185,-378.3 168,-384.5 158.86,-387.83 148.91,-390.64 139.19,-392.98"/>
<polygon fill="#63b8ff" stroke="#63b8ff" points="226.66,-361.99 235.47,-356.1 224.91,-355.21 226.66,-361.99"/>
</a>
</g>
</g>
<!-- Node8 -->
<g id="Node000008" class="node">
<title>Node8</title>
<g id="a_Node000008"><a xlink:href="classcbrc_1_1ArgvParser.html#a916de2fed5134dbf8110a11b1d99effd" target="_top" xlink:title=" ">
<polygon fill="white" stroke="#666666" points="142,-375 26,-375 26,-356 142,-356 142,-375"/>
<text text-anchor="middle" x="84" y="-363" font-family="Helvetica,sans-Serif" font-size="10.00">cbrc::ArgvParser::set</text>
</a>
</g>
</g>
<!-- Node4&#45;&gt;Node8 -->
<g id="edge7_Node000004_Node000008" class="edge">
<title>Node4&#45;&gt;Node8</title>
<g id="a_edge7_Node000004_Node000008"><a xlink:title=" ">
<path fill="none" stroke="#63b8ff" d="M219.75,-352.83C194.65,-355.19 166.4,-357.84 142.28,-360.11"/>
<polygon fill="#63b8ff" stroke="#63b8ff" points="220.3,-356.29 229.92,-351.87 219.64,-349.32 220.3,-356.29"/>
</a>
</g>
</g>
<!-- Node9 -->
<g id="Node000009" class="node">
<title>Node9</title>
<g id="a_Node000009"><a xlink:href="classcbrc_1_1ArgvParser.html#af22321bfcb9e0d843a7e163bf0feb4fb" target="_top" xlink:title=" ">
<polygon fill="white" stroke="#666666" points="142,-338 26,-338 26,-319 142,-319 142,-338"/>
<text text-anchor="middle" x="84" y="-326" font-family="Helvetica,sans-Serif" font-size="10.00">cbrc::ArgvParser::set</text>
</a>
</g>
</g>
<!-- Node4&#45;&gt;Node9 -->
<g id="edge8_Node000004_Node000009" class="edge">
<title>Node4&#45;&gt;Node9</title>
<g id="a_edge8_Node000004_Node000009"><a xlink:title=" ">
<path fill="none" stroke="#63b8ff" d="M219.75,-340.51C194.65,-338.27 166.4,-335.75 142.28,-333.6"/>
<polygon fill="#63b8ff" stroke="#63b8ff" points="219.65,-344.01 229.92,-341.41 220.28,-337.04 219.65,-344.01"/>
</a>
</g>
</g>
<!-- Node11 -->
<g id="Node000011" class="node">
<title>Node11</title>
<g id="a_Node000011"><a xlink:href="classcbrc_1_1ArgvParser.html#aa391c52eee10155693f8b67c73c7ff30" target="_top" xlink:title=" ">
<polygon fill="white" stroke="#666666" points="168,-301 0,-301 0,-282 168,-282 168,-301"/>
<text text-anchor="middle" x="84" y="-289" font-family="Helvetica,sans-Serif" font-size="10.00">cbrc::ArgvParser::setCautiously</text>
</a>
</g>
</g>
<!-- Node10&#45;&gt;Node11 -->
<g id="edge10_Node000010_Node000011" class="edge">
<title>Node10&#45;&gt;Node11</title>
<g id="a_edge10_Node000010_Node000011"><a xlink:title=" ">
<path fill="none" stroke="#63b8ff" d="M193.89,-291.5C185.27,-291.5 176.56,-291.5 168.04,-291.5"/>
<polygon fill="#63b8ff" stroke="#63b8ff" points="193.96,-295 203.96,-291.5 193.96,-288 193.96,-295"/>
</a>
</g>
</g>
<!-- Node12 -->
<g id="Node000012" class="node">
<title>Node12</title>
<g id="a_Node000012"><a xlink:href="classcbrc_1_1ArgvParser.html#add9d44a80412304ba4d0cb025b740050" target="_top" xlink:title=" ">
<polygon fill="white" stroke="#666666" points="168,-264 0,-264 0,-245 168,-245 168,-264"/>
<text text-anchor="middle" x="84" y="-252" font-family="Helvetica,sans-Serif" font-size="10.00">cbrc::ArgvParser::setCautiously</text>
</a>
</g>
</g>
<!-- Node10&#45;&gt;Node12 -->
<g id="edge11_Node000010_Node000012" class="edge">
<title>Node10&#45;&gt;Node12</title>
<g id="a_edge11_Node000010_Node000012"><a xlink:title=" ">
<path fill="none" stroke="#63b8ff" d="M224.87,-280.12C196.79,-274.98 163.98,-268.97 137.19,-264.06"/>
<polygon fill="#63b8ff" stroke="#63b8ff" points="224.51,-283.61 234.98,-281.97 225.77,-276.73 224.51,-283.61"/>
</a>
</g>
</g>
<!-- Node14 -->
<g id="Node000014" class="node">
<title>Node14</title>
<g id="a_Node000014"><a xlink:href="writeRecountNeighborProbGraph_8cc.html#ac0f2228420376f4db7e1274f2b41667c" target="_top" xlink:title=" ">
<polygon fill="white" stroke="#666666" points="104.5,-227 63.5,-227 63.5,-208 104.5,-208 104.5,-227"/>
<text text-anchor="middle" x="84" y="-215" font-family="Helvetica,sans-Serif" font-size="10.00">main</text>
</a>
</g>
</g>
<!-- Node13&#45;&gt;Node14 -->
<g id="edge13_Node000013_Node000014" class="edge">
<title>Node13&#45;&gt;Node14</title>
<g id="a_edge13_Node000013_Node000014"><a xlink:title=" ">
<path fill="none" stroke="#63b8ff" d="M193.61,-205.67C160.09,-209.32 125.43,-213.1 104.55,-215.37"/>
<polygon fill="#63b8ff" stroke="#63b8ff" points="194.4,-209.11 203.96,-204.54 193.64,-202.15 194.4,-209.11"/>
</a>
</g>
</g>
<!-- Node15 -->
<g id="Node000015" class="node">
<title>Node15</title>
<g id="a_Node000015"><a xlink:href="classcbrc_1_1ArgvParser.html#ac6a5995c8c638a900fb3502fc0aea82d" target="_top" xlink:title=" ">
<polygon fill="white" stroke="#666666" points="168,-189.5 0,-189.5 0,-159.5 168,-159.5 168,-189.5"/>
<text text-anchor="start" x="8" y="-177.5" font-family="Helvetica,sans-Serif" font-size="10.00">cbrc::ArgvParser::setCautiously</text>
<text text-anchor="middle" x="84" y="-166.5" font-family="Helvetica,sans-Serif" font-size="10.00">OrDie</text>
</a>
</g>
</g>
<!-- Node13&#45;&gt;Node15 -->
<g id="edge14_Node000013_Node000015" class="edge">
<title>Node13&#45;&gt;Node15</title>
<g id="a_edge14_Node000013_Node000015"><a xlink:title=" ">
<path fill="none" stroke="#63b8ff" d="M193.89,-185.82C185.27,-184.92 176.56,-184.02 168.04,-183.13"/>
<polygon fill="#63b8ff" stroke="#63b8ff" points="193.66,-189.31 203.96,-186.87 194.38,-182.35 193.66,-189.31"/>
</a>
</g>
</g>
<!-- Node16 -->
<g id="Node000016" class="node">
<title>Node16</title>
<g id="a_Node000016"><a xlink:href="classcbrc_1_1ArgvParser.html#aa11fcbd0a683bb75d7e4e9283e7ecc64" target="_top" xlink:title=" ">
<polygon fill="white" stroke="#666666" points="168,-141.5 0,-141.5 0,-111.5 168,-111.5 168,-141.5"/>
<text text-anchor="start" x="8" y="-129.5" font-family="Helvetica,sans-Serif" font-size="10.00">cbrc::ArgvParser::setCautiously</text>
<text text-anchor="middle" x="84" y="-118.5" font-family="Helvetica,sans-Serif" font-size="10.00">OrDie</text>
</a>
</g>
</g>
<!-- Node13&#45;&gt;Node16 -->
<g id="edge15_Node000013_Node000016" class="edge">
<title>Node13&#45;&gt;Node16</title>
<g id="a_edge15_Node000013_Node000016"><a xlink:title=" ">
<path fill="none" stroke="#63b8ff" d="M240.14,-176.79C218.35,-168.34 192,-158.49 168,-150.5 158.89,-147.47 149.15,-144.45 139.66,-141.63"/>
<polygon fill="#63b8ff" stroke="#63b8ff" points="238.9,-180.06 249.49,-180.43 241.45,-173.54 238.9,-180.06"/>
</a>
</g>
</g>
<!-- Node18 -->
<g id="Node000018" class="node">
<title>Node18</title>
<g id="a_Node000018"><a xlink:href="dumpRecountNeighborProbGraphOnDisk_8cc.html#ac0f2228420376f4db7e1274f2b41667c" target="_top" xlink:title=" ">
<polygon fill="white" stroke="#666666" points="104.5,-93 63.5,-93 63.5,-74 104.5,-74 104.5,-93"/>
<text text-anchor="middle" x="84" y="-81" font-family="Helvetica,sans-Serif" font-size="10.00">main</text>
</a>
</g>
</g>
<!-- Node17&#45;&gt;Node18 -->
<g id="edge17_Node000017_Node000018" class="edge">
<title>Node17&#45;&gt;Node18</title>
<g id="a_edge17_Node000017_Node000018"><a xlink:title=" ">
<path fill="none" stroke="#63b8ff" d="M205.52,-72.76C168.74,-76.04 128.37,-79.64 104.93,-81.72"/>
<polygon fill="#63b8ff" stroke="#63b8ff" points="206.13,-76.22 215.78,-71.85 205.51,-69.25 206.13,-76.22"/>
</a>
</g>
</g>
<!-- Node19 -->
<g id="Node000019" class="node">
<title>Node19</title>
<g id="a_Node000019"><a xlink:href="classcbrc_1_1ArgvParser.html#ad074f0b31ebb7a573a85079e44e4c5ce" target="_top" xlink:title=" ">
<polygon fill="white" stroke="#666666" points="156,-56 12,-56 12,-37 156,-37 156,-56"/>
<text text-anchor="middle" x="84" y="-44" font-family="Helvetica,sans-Serif" font-size="10.00">cbrc::ArgvParser::setOrDie</text>
</a>
</g>
</g>
<!-- Node17&#45;&gt;Node19 -->
<g id="edge18_Node000017_Node000019" class="edge">
<title>Node17&#45;&gt;Node19</title>
<g id="a_edge18_Node000017_Node000019"><a xlink:title=" ">
<path fill="none" stroke="#63b8ff" d="M205.7,-57.85C189.33,-56.31 172.25,-54.71 156.26,-53.2"/>
<polygon fill="#63b8ff" stroke="#63b8ff" points="205.5,-61.35 215.78,-58.8 206.15,-54.38 205.5,-61.35"/>
</a>
</g>
</g>
<!-- Node20 -->
<g id="Node000020" class="node">
<title>Node20</title>
<g id="a_Node000020"><a xlink:href="classcbrc_1_1ArgvParser.html#a0f934fcf5d08db542021c77ede327390" target="_top" xlink:title=" ">
<polygon fill="white" stroke="#666666" points="156,-19 12,-19 12,0 156,0 156,-19"/>
<text text-anchor="middle" x="84" y="-7" font-family="Helvetica,sans-Serif" font-size="10.00">cbrc::ArgvParser::setOrDie</text>
</a>
</g>
</g>
<!-- Node17&#45;&gt;Node20 -->
<g id="edge19_Node000017_Node000020" class="edge">
<title>Node17&#45;&gt;Node20</title>
<g id="a_edge19_Node000017_Node000020"><a xlink:title=" ">
<path fill="none" stroke="#63b8ff" d="M250.28,-52.77C226.9,-44.92 195.87,-34.95 168,-27.5 156.6,-24.45 144.23,-21.55 132.59,-19"/>
<polygon fill="#63b8ff" stroke="#63b8ff" points="249.21,-56.11 259.81,-56 251.46,-49.48 249.21,-56.11"/>
</a>
</g>
</g>
</g>
</svg>

<g id="navigator" transform="translate(0 0)" fill="#404254">
  <rect fill="#f2f5e9" fill-opacity="0.5" stroke="#606060" stroke-width=".5" x="0" y="0" width="60" height="60"/>
  <use id="zoomplus" xlink:href="#zoomPlus" x="17" y="9" onmousedown="handleZoom(evt,'in')"/>
  <use id="zoomminus" xlink:href="#zoomMin" x="42" y="9" onmousedown="handleZoom(evt,'out')"/>
  <use id="reset" xlink:href="#resetDef" x="30" y="36" onmousedown="handleReset()"/>
   <use id="arrowup" xlink:href="#arrowUp" x="0" y="0" onmousedown="handlePan(0,-1)"/>
  <use id="arrowright" xlink:href="#arrowRight" x="0" y="0" onmousedown="handlePan(1,0)"/>
  <use id="arrowdown" xlink:href="#arrowDown" x="0" y="0" onmousedown="handlePan(0,1)"/>
  <use id="arrowleft" xlink:href="#arrowLeft" x="0" y="0" onmousedown="handlePan(-1,0)"/>
</g>
<svg viewBox="0 0 15 15" width="100%" height="30px" preserveAspectRatio="xMaxYMin meet">
 <g id="arrow_out" transform="scale(0.3 0.3)">
  <a xlink:href="classcbrc_1_1ArgvParser_a273ad44f1f402d2a9c31d5cb04c2a63f_icgraph_org.svg" target="_base">
   <rect id="button" ry="5" rx="5" y="6" x="6" height="38" width="38"
        fill="#f2f5e9" fill-opacity="0.5" stroke="#606060" stroke-width="1.0"/>
   <path id="arrow"
     d="M 11.500037,31.436501 C 11.940474,20.09759 22.043105,11.32322 32.158766,21.979434 L 37.068811,17.246167 C 37.068811,17.246167 37.088388,32 37.088388,32 L 22.160133,31.978069 C 22.160133,31.978069 26.997745,27.140456 26.997745,27.140456 C 18.528582,18.264221 13.291696,25.230495 11.500037,31.436501 z"
     style="fill:#404040;"/>
  </a>
 </g>
</svg>

<style type='text/css'>
<![CDATA[
[data-mouse-over-selected='false'] { opacity: 0.7; }
[data-mouse-over-selected='true']  { opacity: 1.0; }
]]>
</style>
<script type="application/ecmascript"><![CDATA[
document.addEventListener('DOMContentLoaded', (event) => {
  highlightEdges();
  highlightAdjacentNodes();
});
]]></script>
</svg>
