<?xml version="1.0" encoding="UTF-8" standalone="no"?>
<!DOCTYPE svg PUBLIC "-//W3C//DTD SVG 1.1//EN"
 "http://www.w3.org/Graphics/SVG/1.1/DTD/svg11.dtd">
<!-- Generated by graphviz version 2.43.0 (0)
 -->
<!-- Title: cbrc::String2KeyHashtable::add2 Pages: 1 -->
<svg width="451pt" height="56pt"
 viewBox="0.00 0.00 451.00 56.00" xmlns="http://www.w3.org/2000/svg" xmlns:xlink="http://www.w3.org/1999/xlink">
<g id="graph0" class="graph" transform="scale(1 1) rotate(0) translate(4 52)">
<title>cbrc::String2KeyHashtable::add2</title>
<!-- Node1 -->
<g id="Node000001" class="node">
<title>Node1</title>
<g id="a_Node000001"><a xlink:title=" ">
<polygon fill="#999999" stroke="#666666" points="145,-30 0,-30 0,0 145,0 145,-30"/>
<text text-anchor="start" x="8" y="-18" font-family="Helvetica,sans-Serif" font-size="10.00">cbrc::String2KeyHashtable</text>
<text text-anchor="middle" x="72.5" y="-7" font-family="Helvetica,sans-Serif" font-size="10.00">::add2</text>
</a>
</g>
</g>
<!-- Node1&#45;&gt;Node1 -->
<g id="edge1_Node000001_Node000001" class="edge">
<title>Node1&#45;&gt;Node1</title>
<g id="a_edge1_Node000001_Node000001"><a xlink:title=" ">
<path fill="none" stroke="#63b8ff" d="M43.32,-30.28C36.84,-39.41 46.56,-48 72.5,-48 87.9,-48 97.59,-44.97 101.56,-40.6"/>
<polygon fill="#63b8ff" stroke="#63b8ff" points="105.06,-40.32 101.68,-30.28 98.06,-40.23 105.06,-40.32"/>
</a>
</g>
</g>
<!-- Node2 -->
<g id="Node000002" class="node">
<title>Node2</title>
<g id="a_Node000002"><a xlink:href="namespacecbrc.html#a7017865be3a27c28d57d32cd21eca51b" target="_top" xlink:title=" ">
<polygon fill="white" stroke="#666666" points="297,-24.5 181,-24.5 181,-5.5 297,-5.5 297,-24.5"/>
<text text-anchor="middle" x="239" y="-12.5" font-family="Helvetica,sans-Serif" font-size="10.00">cbrc::string2HashVal</text>
</a>
</g>
</g>
<!-- Node1&#45;&gt;Node2 -->
<g id="edge2_Node000001_Node000002" class="edge">
<title>Node1&#45;&gt;Node2</title>
<g id="a_edge2_Node000001_Node000002"><a xlink:title=" ">
<path fill="none" stroke="#63b8ff" d="M145.17,-15C153.67,-15 162.32,-15 170.75,-15"/>
<polygon fill="#63b8ff" stroke="#63b8ff" points="170.9,-18.5 180.9,-15 170.9,-11.5 170.9,-18.5"/>
</a>
</g>
</g>
<!-- Node3 -->
<g id="Node000003" class="node">
<title>Node3</title>
<g id="a_Node000003"><a xlink:href="namespacecbrc.html#a2c7e3dcaffdbbc81ae7c8e950fe96898" target="_top" xlink:title=" ">
<polygon fill="white" stroke="#666666" points="443,-24.5 333,-24.5 333,-5.5 443,-5.5 443,-24.5"/>
<text text-anchor="middle" x="388" y="-12.5" font-family="Helvetica,sans-Serif" font-size="10.00">cbrc::bytesHashVal</text>
</a>
</g>
</g>
<!-- Node2&#45;&gt;Node3 -->
<g id="edge3_Node000002_Node000003" class="edge">
<title>Node2&#45;&gt;Node3</title>
<g id="a_edge3_Node000002_Node000003"><a xlink:title=" ">
<path fill="none" stroke="#63b8ff" d="M297.25,-15C305.51,-15 314.05,-15 322.43,-15"/>
<polygon fill="#63b8ff" stroke="#63b8ff" points="322.55,-18.5 332.55,-15 322.55,-11.5 322.55,-18.5"/>
</a>
</g>
</g>
</g>
</svg>
