<?xml version="1.0" encoding="UTF-8" standalone="no"?>
<!DOCTYPE svg PUBLIC "-//W3C//DTD SVG 1.1//EN"
 "http://www.w3.org/Graphics/SVG/1.1/DTD/svg11.dtd">
<!-- Generated by graphviz version 2.43.0 (0)
 -->
<!-- Title: cbrc::RecountTagCounts::counts Pages: 1 -->
<!--zoomable 644 -->

<svg id="main" version="1.1" xmlns="http://www.w3.org/2000/svg" xmlns:xlink="http://www.w3.org/1999/xlink" xml:space="preserve" onload="init(evt)">
<style type="text/css"><![CDATA[
.node, .edge {opacity: 0.7;}
.node.selected, .edge.selected {opacity: 1;}
.edge:hover path { stroke: red; }
.edge:hover polygon { stroke: red; fill: red; }
]]></style>

<defs>
  <circle id="rim" cx="0" cy="0" r="7"/>
  <circle id="rim2" cx="0" cy="0" r="3.5"/>
  <g id="zoomPlus">
    <use xlink:href="#rim" fill="#404040"><set attributeName="fill" to="#808080" begin="zoomplus.mouseover" end="zoomplus.mouseout"/></use>
    <path d="M-4,0h8M0,-4v8" fill="none" stroke="white" stroke-width="1.5" pointer-events="none"/>
  </g>
  <g id="zoomMin">
    <use xlink:href="#rim" fill="#404040"><set attributeName="fill" to="#808080" begin="zoomminus.mouseover" end="zoomminus.mouseout"/></use>
    <path d="M-4,0h8" fill="none" stroke="white" stroke-width="1.5" pointer-events="none"/>
  </g>
  <g id="arrowUp" transform="translate(30 24)">
    <use xlink:href="#rim"/>
    <path pointer-events="none" fill="none" stroke="white" stroke-width="1.5" d="M0,-3.0v7 M-2.5,-0.5L0,-3.0L2.5,-0.5"/>
  </g>
  <g id="arrowRight" transform="rotate(90) translate(36 -43)">
    <use xlink:href="#rim"/>
    <path pointer-events="none" fill="none" stroke="white" stroke-width="1.5" d="M0,-3.0v7 M-2.5,-0.5L0,-3.0L2.5,-0.5"/>
  </g>
  <g id="arrowDown" transform="rotate(180) translate(-30 -48)">
    <use xlink:href="#rim"/>
    <path pointer-events="none" fill="none" stroke="white" stroke-width="1.5" d="M0,-3.0v7 M-2.5,-0.5L0,-3.0L2.5,-0.5"/>
  </g>
  <g id="arrowLeft" transform="rotate(270) translate(-36 17)">
    <use xlink:href="#rim"/>
    <path pointer-events="none" fill="none" stroke="white" stroke-width="1.5" d="M0,-3.0v7 M-2.5,-0.5L0,-3.0L2.5,-0.5"/>
  </g>
  <g id="resetDef">
    <use xlink:href="#rim2" fill="#404040"><set attributeName="fill" to="#808080" begin="reset.mouseover" end="reset.mouseout"/></use>
  </g>
</defs>
<script type="application/ecmascript">
var viewWidth = 770;
var viewHeight = 644;
var sectionId = 'dynsection-15';
</script>
<script type="application/ecmascript" xlink:href="svg.min.js"/>
<svg id="graph" class="graph">
<g id="viewport">
<title>cbrc::RecountTagCounts::counts</title>
<!-- Node1 -->
<g id="Node000001" class="node">
<title>Node1</title>
<g id="a_Node000001"><a xlink:title=" ">
<polygon fill="#999999" stroke="#666666" points="762,-444 629,-444 629,-414 762,-414 762,-444"/>
<text text-anchor="start" x="637" y="-432" font-family="Helvetica,sans-Serif" font-size="10.00">cbrc::RecountTagCounts</text>
<text text-anchor="middle" x="695.5" y="-421" font-family="Helvetica,sans-Serif" font-size="10.00">::counts</text>
</a>
</g>
</g>
<!-- Node2 -->
<g id="Node000002" class="node">
<title>Node2</title>
<g id="a_Node000002"><a xlink:href="classcbrc_1_1RecountTagCounts.html#a20dbcb05d1817a6683105e77cb74bdce" target="_top" xlink:title=" ">
<polygon fill="white" stroke="#666666" points="579.5,-618 446.5,-618 446.5,-588 579.5,-588 579.5,-618"/>
<text text-anchor="start" x="454.5" y="-606" font-family="Helvetica,sans-Serif" font-size="10.00">cbrc::RecountTagCounts</text>
<text text-anchor="middle" x="513" y="-595" font-family="Helvetica,sans-Serif" font-size="10.00">::begin</text>
</a>
</g>
</g>
<!-- Node1&#45;&gt;Node2 -->
<g id="edge1_Node000001_Node000002" class="edge">
<title>Node1&#45;&gt;Node2</title>
<g id="a_edge1_Node000001_Node000002"><a xlink:title=" ">
<path fill="none" stroke="#63b8ff" d="M684.19,-453.76C669.07,-487.09 637.72,-546.02 593,-579 588.39,-582.4 583.28,-585.33 577.96,-587.84"/>
<polygon fill="#63b8ff" stroke="#63b8ff" points="687.53,-454.86 688.36,-444.29 681.13,-452.03 687.53,-454.86"/>
</a>
</g>
</g>
<!-- Node3 -->
<g id="Node000003" class="node">
<title>Node3</title>
<g id="a_Node000003"><a xlink:href="classcbrc_1_1RecountTagCounts.html#a2a3bd7afd658a30793f69987841b12f5" target="_top" xlink:title=" ">
<polygon fill="white" stroke="#666666" points="579.5,-514 446.5,-514 446.5,-484 579.5,-484 579.5,-514"/>
<text text-anchor="start" x="454.5" y="-502" font-family="Helvetica,sans-Serif" font-size="10.00">cbrc::RecountTagCounts</text>
<text text-anchor="middle" x="513" y="-491" font-family="Helvetica,sans-Serif" font-size="10.00">::constBegin</text>
</a>
</g>
</g>
<!-- Node1&#45;&gt;Node3 -->
<g id="edge3_Node000001_Node000003" class="edge">
<title>Node1&#45;&gt;Node3</title>
<g id="a_edge3_Node000001_Node000003"><a xlink:title=" ">
<path fill="none" stroke="#63b8ff" d="M654.56,-448.56C636.07,-457.23 613.66,-467.22 593,-475 584.68,-478.13 575.76,-481.16 567.01,-483.94"/>
<polygon fill="#63b8ff" stroke="#63b8ff" points="656.31,-451.6 663.85,-444.16 653.31,-445.28 656.31,-451.6"/>
</a>
</g>
</g>
<!-- Node8 -->
<g id="Node000008" class="node">
<title>Node8</title>
<g id="a_Node000008"><a xlink:href="classcbrc_1_1RecountTagCounts.html#a9a58e2bb48e19e36e003251390a40ca9" target="_top" xlink:title=" ">
<polygon fill="white" stroke="#666666" points="579.5,-466 446.5,-466 446.5,-436 579.5,-436 579.5,-466"/>
<text text-anchor="start" x="454.5" y="-454" font-family="Helvetica,sans-Serif" font-size="10.00">cbrc::RecountTagCounts</text>
<text text-anchor="middle" x="513" y="-443" font-family="Helvetica,sans-Serif" font-size="10.00">::constEnd</text>
</a>
</g>
</g>
<!-- Node1&#45;&gt;Node8 -->
<g id="edge8_Node000001_Node000008" class="edge">
<title>Node1&#45;&gt;Node8</title>
<g id="a_edge8_Node000001_Node000008"><a xlink:title=" ">
<path fill="none" stroke="#63b8ff" d="M618.55,-438.26C605.61,-439.83 592.27,-441.46 579.63,-443"/>
<polygon fill="#63b8ff" stroke="#63b8ff" points="619.32,-441.69 628.82,-437 618.47,-434.74 619.32,-441.69"/>
</a>
</g>
</g>
<!-- Node9 -->
<g id="Node000009" class="node">
<title>Node9</title>
<g id="a_Node000009"><a xlink:href="classcbrc_1_1RecountTagCounts.html#ad5bd7595c36db40b44a48a0154c837de" target="_top" xlink:title=" ">
<polygon fill="white" stroke="#666666" points="591.5,-551.5 434.5,-551.5 434.5,-532.5 591.5,-532.5 591.5,-551.5"/>
<text text-anchor="middle" x="513" y="-539.5" font-family="Helvetica,sans-Serif" font-size="10.00">cbrc::RecountTagCounts::end</text>
</a>
</g>
</g>
<!-- Node1&#45;&gt;Node9 -->
<g id="edge9_Node000001_Node000009" class="edge">
<title>Node1&#45;&gt;Node9</title>
<g id="a_edge9_Node000001_Node000009"><a xlink:title=" ">
<path fill="none" stroke="#63b8ff" d="M675.91,-451.97C657.21,-473.55 626.42,-505.11 593,-523 585.79,-526.86 577.79,-529.95 569.73,-532.41"/>
<polygon fill="#63b8ff" stroke="#63b8ff" points="678.67,-454.13 682.47,-444.24 673.33,-449.6 678.67,-454.13"/>
</a>
</g>
</g>
<!-- Node10 -->
<g id="Node000010" class="node">
<title>Node10</title>
<g id="a_Node000010"><a xlink:href="classcbrc_1_1RecountTagCounts.html#a329a3e18e37f3a43fdb7fdf110565bcf" target="_top" xlink:title=" ">
<polygon fill="white" stroke="#666666" points="592,-417.5 434,-417.5 434,-398.5 592,-398.5 592,-417.5"/>
<text text-anchor="middle" x="513" y="-405.5" font-family="Helvetica,sans-Serif" font-size="10.00">cbrc::RecountTagCounts::min</text>
</a>
</g>
</g>
<!-- Node1&#45;&gt;Node10 -->
<g id="edge13_Node000001_Node000010" class="edge">
<title>Node1&#45;&gt;Node10</title>
<g id="a_edge13_Node000001_Node000010"><a xlink:title=" ">
<path fill="none" stroke="#63b8ff" d="M618.66,-420.18C609.92,-419.16 600.99,-418.12 592.21,-417.1"/>
<polygon fill="#63b8ff" stroke="#63b8ff" points="618.49,-423.68 628.82,-421.36 619.3,-416.73 618.49,-423.68"/>
</a>
</g>
</g>
<!-- Node14 -->
<g id="Node000014" class="node">
<title>Node14</title>
<g id="a_Node000014"><a xlink:href="classcbrc_1_1RecountTagCounts.html#a831f907987bd708dd435195bda7b1d42" target="_top" xlink:title=" ">
<polygon fill="white" stroke="#666666" points="579.5,-380 446.5,-380 446.5,-350 579.5,-350 579.5,-380"/>
<text text-anchor="start" x="454.5" y="-368" font-family="Helvetica,sans-Serif" font-size="10.00">cbrc::RecountTagCounts</text>
<text text-anchor="middle" x="513" y="-357" font-family="Helvetica,sans-Serif" font-size="10.00">::operator()</text>
</a>
</g>
</g>
<!-- Node1&#45;&gt;Node14 -->
<g id="edge17_Node000001_Node000014" class="edge">
<title>Node1&#45;&gt;Node14</title>
<g id="a_edge17_Node000001_Node000014"><a xlink:title=" ">
<path fill="none" stroke="#63b8ff" d="M646.95,-410.05C630,-403.47 610.72,-396.2 593,-390 583.36,-386.63 572.99,-383.2 563.04,-380.01"/>
<polygon fill="#63b8ff" stroke="#63b8ff" points="646.04,-413.45 656.62,-413.82 648.58,-406.93 646.04,-413.45"/>
</a>
</g>
</g>
<!-- Node15 -->
<g id="Node000015" class="node">
<title>Node15</title>
<g id="a_Node000015"><a xlink:href="classcbrc_1_1RecountTagCounts.html#a2685edc0c2014ba4c0096d855ca8de75" target="_top" xlink:title=" ">
<polygon fill="white" stroke="#666666" points="579.5,-258 446.5,-258 446.5,-228 579.5,-228 579.5,-258"/>
<text text-anchor="start" x="454.5" y="-246" font-family="Helvetica,sans-Serif" font-size="10.00">cbrc::RecountTagCounts</text>
<text text-anchor="middle" x="513" y="-235" font-family="Helvetica,sans-Serif" font-size="10.00">::size</text>
</a>
</g>
</g>
<!-- Node1&#45;&gt;Node15 -->
<g id="edge18_Node000001_Node000015" class="edge">
<title>Node1&#45;&gt;Node15</title>
<g id="a_edge18_Node000001_Node000015"><a xlink:title=" ">
<path fill="none" stroke="#63b8ff" d="M672.35,-406.17C634.97,-367.65 560.36,-290.77 528.72,-258.17"/>
<polygon fill="#63b8ff" stroke="#63b8ff" points="670.25,-409.04 679.73,-413.78 675.28,-404.16 670.25,-409.04"/>
</a>
</g>
</g>
<!-- Node21 -->
<g id="Node000021" class="node">
<title>Node21</title>
<g id="a_Node000021"><a xlink:href="classcbrc_1_1RecountTagCounts.html#aa60f9e495a5d5f341a7beedcc95a4755" target="_top" xlink:title=" ">
<polygon fill="white" stroke="#666666" points="593,-72.5 433,-72.5 433,-53.5 593,-53.5 593,-72.5"/>
<text text-anchor="middle" x="513" y="-60.5" font-family="Helvetica,sans-Serif" font-size="10.00">cbrc::RecountTagCounts::sum</text>
</a>
</g>
</g>
<!-- Node1&#45;&gt;Node21 -->
<g id="edge24_Node000001_Node000021" class="edge">
<title>Node1&#45;&gt;Node21</title>
<g id="a_edge24_Node000001_Node000021"><a xlink:title=" ">
<path fill="none" stroke="#63b8ff" d="M683.03,-404.89C664.37,-365.77 626.19,-286.08 593,-219 565.53,-163.49 531.68,-97.39 519.05,-72.82"/>
<polygon fill="#63b8ff" stroke="#63b8ff" points="679.87,-406.41 687.33,-413.93 686.19,-403.4 679.87,-406.41"/>
</a>
</g>
</g>
<!-- Node2&#45;&gt;Node2 -->
<g id="edge2_Node000002_Node000002" class="edge">
<title>Node2&#45;&gt;Node2</title>
<g id="a_edge2_Node000002_Node000002"><a xlink:title=" ">
<path fill="none" stroke="#63b8ff" d="M544.86,-628.6C540.5,-632.97 529.88,-636 513,-636 484.56,-636 473.9,-627.41 481.01,-618.28"/>
<polygon fill="#63b8ff" stroke="#63b8ff" points="548.36,-628.32 544.99,-618.28 541.36,-628.23 548.36,-628.32"/>
</a>
</g>
</g>
<!-- Node4 -->
<g id="Node000004" class="node">
<title>Node4</title>
<g id="a_Node000004"><a xlink:href="classcbrc_1_1RecountExpectationMatchingTagCorrector.html#a1d6c86c37c56879cfce9ce356f12e5cc" target="_top" xlink:title=" ">
<polygon fill="white" stroke="#666666" points="358,-627.5 215,-627.5 215,-586.5 358,-586.5 358,-627.5"/>
<text text-anchor="start" x="223" y="-615.5" font-family="Helvetica,sans-Serif" font-size="10.00">cbrc::RecountExpectation</text>
<text text-anchor="start" x="223" y="-604.5" font-family="Helvetica,sans-Serif" font-size="10.00">MatchingTagCorrector::</text>
<text text-anchor="middle" x="286.5" y="-593.5" font-family="Helvetica,sans-Serif" font-size="10.00">computeCountCorrections</text>
</a>
</g>
</g>
<!-- Node3&#45;&gt;Node4 -->
<g id="edge4_Node000003_Node000004" class="edge">
<title>Node3&#45;&gt;Node4</title>
<g id="a_edge4_Node000003_Node000004"><a xlink:title=" ">
<path fill="none" stroke="#63b8ff" d="M440.93,-518.78C438.17,-520.39 435.51,-522.13 433,-524 410.17,-541.01 420.16,-560.44 397,-577 385.54,-585.2 371.93,-591.16 358.28,-595.49"/>
<polygon fill="#63b8ff" stroke="#63b8ff" points="442.77,-521.77 450.04,-514.07 439.55,-515.56 442.77,-521.77"/>
</a>
</g>
</g>
<!-- Node6 -->
<g id="Node000006" class="node">
<title>Node6</title>
<g id="a_Node000006"><a xlink:href="classcbrc_1_1RecountExpectationMatchingTagCorrector.html#a82078c238488868f5d17038d66ec4ef2" target="_top" xlink:title=" ">
<polygon fill="white" stroke="#666666" points="358,-568 215,-568 215,-516 358,-516 358,-568"/>
<text text-anchor="start" x="223" y="-556" font-family="Helvetica,sans-Serif" font-size="10.00">cbrc::RecountExpectation</text>
<text text-anchor="start" x="223" y="-545" font-family="Helvetica,sans-Serif" font-size="10.00">MatchingTagCorrector::</text>
<text text-anchor="start" x="223" y="-534" font-family="Helvetica,sans-Serif" font-size="10.00">computeCountCorrections</text>
<text text-anchor="middle" x="286.5" y="-523" font-family="Helvetica,sans-Serif" font-size="10.00">_by1stDerivative</text>
</a>
</g>
</g>
<!-- Node3&#45;&gt;Node6 -->
<g id="edge6_Node000003_Node000006" class="edge">
<title>Node3&#45;&gt;Node6</title>
<g id="a_edge6_Node000003_Node000006"><a xlink:title=" ">
<path fill="none" stroke="#63b8ff" d="M436.55,-513.45C411.25,-518.3 383.14,-523.68 358.22,-528.45"/>
<polygon fill="#63b8ff" stroke="#63b8ff" points="437.3,-516.87 446.46,-511.55 435.98,-510 437.3,-516.87"/>
</a>
</g>
</g>
<!-- Node7 -->
<g id="Node000007" class="node">
<title>Node7</title>
<g id="a_Node000007"><a xlink:href="classcbrc_1_1RecountExpectationMatchingTagCorrector.html#abf31d0629031b04ac0244514c4743d11" target="_top" xlink:title=" ">
<polygon fill="white" stroke="#666666" points="356.5,-497.5 216.5,-497.5 216.5,-456.5 356.5,-456.5 356.5,-497.5"/>
<text text-anchor="start" x="224.5" y="-485.5" font-family="Helvetica,sans-Serif" font-size="10.00">cbrc::RecountExpectation</text>
<text text-anchor="start" x="224.5" y="-474.5" font-family="Helvetica,sans-Serif" font-size="10.00">MatchingTagCorrector::</text>
<text text-anchor="middle" x="286.5" y="-463.5" font-family="Helvetica,sans-Serif" font-size="10.00">totalFoldChangeError</text>
</a>
</g>
</g>
<!-- Node3&#45;&gt;Node7 -->
<g id="edge7_Node000003_Node000007" class="edge">
<title>Node3&#45;&gt;Node7</title>
<g id="a_edge7_Node000003_Node000007"><a xlink:title=" ">
<path fill="none" stroke="#63b8ff" d="M436.36,-491.59C410.57,-489.06 381.89,-486.25 356.64,-483.78"/>
<polygon fill="#63b8ff" stroke="#63b8ff" points="436.17,-495.09 446.46,-492.58 436.85,-488.12 436.17,-495.09"/>
</a>
</g>
</g>
<!-- Node5 -->
<g id="Node000005" class="node">
<title>Node5</title>
<g id="a_Node000005"><a xlink:href="classcbrc_1_1RecountExpectationMatchingTagCorrector.html#aef78c91ab7f6f6ece7dd996d1b562074" target="_top" xlink:title=" ">
<polygon fill="white" stroke="#666666" points="140,-627.5 0,-627.5 0,-586.5 140,-586.5 140,-627.5"/>
<text text-anchor="start" x="8" y="-615.5" font-family="Helvetica,sans-Serif" font-size="10.00">cbrc::RecountExpectation</text>
<text text-anchor="start" x="8" y="-604.5" font-family="Helvetica,sans-Serif" font-size="10.00">MatchingTagCorrector::</text>
<text text-anchor="middle" x="70" y="-593.5" font-family="Helvetica,sans-Serif" font-size="10.00">inferTrueTagCounts</text>
</a>
</g>
</g>
<!-- Node4&#45;&gt;Node5 -->
<g id="edge5_Node000004_Node000005" class="edge">
<title>Node4&#45;&gt;Node5</title>
<g id="a_edge5_Node000004_Node000005"><a xlink:title=" ">
<path fill="none" stroke="#63b8ff" d="M204.96,-607C183.62,-607 160.78,-607 140.11,-607"/>
<polygon fill="#63b8ff" stroke="#63b8ff" points="204.97,-610.5 214.97,-607 204.97,-603.5 204.97,-610.5"/>
</a>
</g>
</g>
<!-- Node9&#45;&gt;Node4 -->
<g id="edge10_Node000009_Node000004" class="edge">
<title>Node9&#45;&gt;Node4</title>
<g id="a_edge10_Node000009_Node000004"><a xlink:title=" ">
<path fill="none" stroke="#63b8ff" d="M471.64,-554.59C449.62,-561.38 421.86,-569.81 397,-577 384.5,-580.61 371.17,-584.36 358.27,-587.92"/>
<polygon fill="#63b8ff" stroke="#63b8ff" points="472.8,-557.89 481.32,-551.59 470.73,-551.2 472.8,-557.89"/>
</a>
</g>
</g>
<!-- Node9&#45;&gt;Node6 -->
<g id="edge11_Node000009_Node000006" class="edge">
<title>Node9&#45;&gt;Node6</title>
<g id="a_edge11_Node000009_Node000006"><a xlink:title=" ">
<path fill="none" stroke="#63b8ff" d="M424.16,-542C402.33,-542 379.2,-542 358.3,-542"/>
<polygon fill="#63b8ff" stroke="#63b8ff" points="424.43,-545.5 434.43,-542 424.43,-538.5 424.43,-545.5"/>
</a>
</g>
</g>
<!-- Node9&#45;&gt;Node9 -->
<g id="edge12_Node000009_Node000009" class="edge">
<title>Node9&#45;&gt;Node9</title>
<g id="a_edge12_Node000009_Node000009"><a xlink:title=" ">
<path fill="none" stroke="#63b8ff" d="M547.11,-559.57C546.61,-565.12 535.24,-569.5 513,-569.5 480.65,-569.5 471.3,-560.23 484.95,-551.58"/>
<polygon fill="#63b8ff" stroke="#63b8ff" points="549.88,-557.44 541.05,-551.58 544.3,-561.67 549.88,-557.44"/>
</a>
</g>
</g>
<!-- Node11 -->
<g id="Node000011" class="node">
<title>Node11</title>
<g id="a_Node000011"><a xlink:href="classcbrc_1_1RecountTagCounts.html#ab15f291b590118e4f57277ffff749164" target="_top" xlink:title=" ">
<polygon fill="white" stroke="#666666" points="353,-438 220,-438 220,-408 353,-408 353,-438"/>
<text text-anchor="start" x="228" y="-426" font-family="Helvetica,sans-Serif" font-size="10.00">cbrc::RecountTagCounts</text>
<text text-anchor="middle" x="286.5" y="-415" font-family="Helvetica,sans-Serif" font-size="10.00">::assignDifference</text>
</a>
</g>
</g>
<!-- Node10&#45;&gt;Node11 -->
<g id="edge14_Node000010_Node000011" class="edge">
<title>Node10&#45;&gt;Node11</title>
<g id="a_edge14_Node000010_Node000011"><a xlink:title=" ">
<path fill="none" stroke="#63b8ff" d="M423.81,-413.89C400.26,-415.47 375.24,-417.14 353.14,-418.61"/>
<polygon fill="#63b8ff" stroke="#63b8ff" points="424.05,-417.38 433.8,-413.23 423.58,-410.4 424.05,-417.38"/>
</a>
</g>
</g>
<!-- Node12 -->
<g id="Node000012" class="node">
<title>Node12</title>
<g id="a_Node000012"><a xlink:href="namespacecbrc.html#a437e8e878a94bd2e14d5c5aedb994bea" target="_top" xlink:title=" ">
<polygon fill="white" stroke="#666666" points="364.5,-390 208.5,-390 208.5,-360 364.5,-360 364.5,-390"/>
<text text-anchor="start" x="216.5" y="-378" font-family="Helvetica,sans-Serif" font-size="10.00">cbrc::runRecountExpectation</text>
<text text-anchor="middle" x="286.5" y="-367" font-family="Helvetica,sans-Serif" font-size="10.00">MatchingTagCorrector</text>
</a>
</g>
</g>
<!-- Node10&#45;&gt;Node12 -->
<g id="edge15_Node000010_Node000012" class="edge">
<title>Node10&#45;&gt;Node12</title>
<g id="a_edge15_Node000010_Node000012"><a xlink:title=" ">
<path fill="none" stroke="#63b8ff" d="M437.21,-397.01C413.93,-393.58 388.23,-389.81 364.79,-386.36"/>
<polygon fill="#63b8ff" stroke="#63b8ff" points="436.96,-400.51 447.37,-398.5 437.98,-393.58 436.96,-400.51"/>
</a>
</g>
</g>
<!-- Node13 -->
<g id="Node000013" class="node">
<title>Node13</title>
<g id="a_Node000013"><a xlink:href="runRecountExpectationMatchingTagCorrector_8cc.html#ac0f2228420376f4db7e1274f2b41667c" target="_top" xlink:title=" ">
<polygon fill="white" stroke="#666666" points="90.5,-384.5 49.5,-384.5 49.5,-365.5 90.5,-365.5 90.5,-384.5"/>
<text text-anchor="middle" x="70" y="-372.5" font-family="Helvetica,sans-Serif" font-size="10.00">main</text>
</a>
</g>
</g>
<!-- Node12&#45;&gt;Node13 -->
<g id="edge16_Node000012_Node000013" class="edge">
<title>Node12&#45;&gt;Node13</title>
<g id="a_edge16_Node000012_Node000013"><a xlink:title=" ">
<path fill="none" stroke="#63b8ff" d="M198.15,-375C158.66,-375 115.44,-375 90.93,-375"/>
<polygon fill="#63b8ff" stroke="#63b8ff" points="198.36,-378.5 208.36,-375 198.36,-371.5 198.36,-378.5"/>
</a>
</g>
</g>
<!-- Node16 -->
<g id="Node000016" class="node">
<title>Node16</title>
<g id="a_Node000016"><a xlink:href="classcbrc_1_1RecountComputerForGraphOnDisk.html#aee9119b27415ef994a51e9fd079b8439" target="_top" xlink:title=" ">
<polygon fill="white" stroke="#666666" points="383.5,-282 189.5,-282 189.5,-252 383.5,-252 383.5,-282"/>
<text text-anchor="start" x="197.5" y="-270" font-family="Helvetica,sans-Serif" font-size="10.00">cbrc::RecountComputerFor</text>
<text text-anchor="middle" x="286.5" y="-259" font-family="Helvetica,sans-Serif" font-size="10.00">GraphOnDisk::meanCountsFromTrue</text>
</a>
</g>
</g>
<!-- Node15&#45;&gt;Node16 -->
<g id="edge19_Node000015_Node000016" class="edge">
<title>Node15&#45;&gt;Node16</title>
<g id="a_edge19_Node000015_Node000016"><a xlink:title=" ">
<path fill="none" stroke="#63b8ff" d="M436.13,-251.11C419.25,-252.92 401.14,-254.85 383.57,-256.73"/>
<polygon fill="#63b8ff" stroke="#63b8ff" points="436.89,-254.55 446.46,-250.01 436.15,-247.59 436.89,-254.55"/>
</a>
</g>
</g>
<!-- Node17 -->
<g id="Node000017" class="node">
<title>Node17</title>
<g id="a_Node000017"><a xlink:href="classcbrc_1_1RecountComputerForGraphOnDisk.html#a88d2ea948f615339b406e08768f41029" target="_top" xlink:title=" ">
<polygon fill="white" stroke="#666666" points="383.5,-234 189.5,-234 189.5,-204 383.5,-204 383.5,-234"/>
<text text-anchor="start" x="197.5" y="-222" font-family="Helvetica,sans-Serif" font-size="10.00">cbrc::RecountComputerFor</text>
<text text-anchor="middle" x="286.5" y="-211" font-family="Helvetica,sans-Serif" font-size="10.00">GraphOnDisk::meanCountsFromTrue</text>
</a>
</g>
</g>
<!-- Node15&#45;&gt;Node17 -->
<g id="edge20_Node000015_Node000017" class="edge">
<title>Node15&#45;&gt;Node17</title>
<g id="a_edge20_Node000015_Node000017"><a xlink:title=" ">
<path fill="none" stroke="#63b8ff" d="M436.13,-234.89C419.25,-233.08 401.14,-231.15 383.57,-229.27"/>
<polygon fill="#63b8ff" stroke="#63b8ff" points="436.15,-238.41 446.46,-235.99 436.89,-231.45 436.15,-238.41"/>
</a>
</g>
</g>
<!-- Node18 -->
<g id="Node000018" class="node">
<title>Node18</title>
<g id="a_Node000018"><a xlink:href="classcbrc_1_1RecountTagCounts.html#acd1777fe0146b66edf2e93a42f3be23f" target="_top" xlink:title=" ">
<polygon fill="white" stroke="#666666" points="353,-186 220,-186 220,-156 353,-156 353,-186"/>
<text text-anchor="start" x="228" y="-174" font-family="Helvetica,sans-Serif" font-size="10.00">cbrc::RecountTagCounts</text>
<text text-anchor="middle" x="286.5" y="-163" font-family="Helvetica,sans-Serif" font-size="10.00">::print</text>
</a>
</g>
</g>
<!-- Node15&#45;&gt;Node18 -->
<g id="edge21_Node000015_Node000018" class="edge">
<title>Node15&#45;&gt;Node18</title>
<g id="a_edge21_Node000015_Node000018"><a xlink:title=" ">
<path fill="none" stroke="#63b8ff" d="M471.12,-223.83C449.45,-214.21 422.16,-202.94 397,-195 382.99,-190.58 367.72,-186.68 353.15,-183.38"/>
<polygon fill="#63b8ff" stroke="#63b8ff" points="469.8,-227.07 480.35,-227.98 472.67,-220.69 469.8,-227.07"/>
</a>
</g>
</g>
<!-- Node19 -->
<g id="Node000019" class="node">
<title>Node19</title>
<g id="a_Node000019"><a xlink:href="classcbrc_1_1RecountExpectationMatchingTagCorrector.html#ac6064bce0de0dae057ca18e8eba8a53d" target="_top" xlink:title=" ">
<polygon fill="white" stroke="#666666" points="397,-137.5 176,-137.5 176,-96.5 397,-96.5 397,-137.5"/>
<text text-anchor="start" x="184" y="-125.5" font-family="Helvetica,sans-Serif" font-size="10.00">cbrc::RecountExpectation</text>
<text text-anchor="start" x="184" y="-114.5" font-family="Helvetica,sans-Serif" font-size="10.00">MatchingTagCorrector::</text>
<text text-anchor="middle" x="286.5" y="-103.5" font-family="Helvetica,sans-Serif" font-size="10.00">RecountExpectationMatchingTagCorrector</text>
</a>
</g>
</g>
<!-- Node15&#45;&gt;Node19 -->
<g id="edge22_Node000015_Node000019" class="edge">
<title>Node15&#45;&gt;Node19</title>
<g id="a_edge22_Node000015_Node000019"><a xlink:title=" ">
<path fill="none" stroke="#63b8ff" d="M490.86,-220.44C469.24,-198.64 433.7,-166.18 397,-147 390.27,-143.49 383.09,-140.35 375.75,-137.56"/>
<polygon fill="#63b8ff" stroke="#63b8ff" points="488.42,-222.95 497.9,-227.67 493.43,-218.06 488.42,-222.95"/>
</a>
</g>
</g>
<!-- Node20 -->
<g id="Node000020" class="node">
<title>Node20</title>
<g id="a_Node000020"><a xlink:href="classcbrc_1_1RecountExpectationMatchingTagCorrector.html#aea1163ebbfd0654659858d7dc5271b85" target="_top" xlink:title=" ">
<polygon fill="white" stroke="#666666" points="397,-341.5 176,-341.5 176,-300.5 397,-300.5 397,-341.5"/>
<text text-anchor="start" x="184" y="-329.5" font-family="Helvetica,sans-Serif" font-size="10.00">cbrc::RecountExpectation</text>
<text text-anchor="start" x="184" y="-318.5" font-family="Helvetica,sans-Serif" font-size="10.00">MatchingTagCorrector::</text>
<text text-anchor="middle" x="286.5" y="-307.5" font-family="Helvetica,sans-Serif" font-size="10.00">RecountExpectationMatchingTagCorrector</text>
</a>
</g>
</g>
<!-- Node15&#45;&gt;Node20 -->
<g id="edge23_Node000015_Node000020" class="edge">
<title>Node15&#45;&gt;Node20</title>
<g id="a_edge23_Node000015_Node000020"><a xlink:title=" ">
<path fill="none" stroke="#63b8ff" d="M470.01,-262.05C448.45,-271.44 421.59,-282.54 397,-291 387.4,-294.3 377.23,-297.49 367.11,-300.48"/>
<polygon fill="#63b8ff" stroke="#63b8ff" points="471.47,-265.23 479.22,-258 468.66,-258.82 471.47,-265.23"/>
</a>
</g>
</g>
<!-- Node22 -->
<g id="Node000022" class="node">
<title>Node22</title>
<g id="a_Node000022"><a xlink:href="classcbrc_1_1RecountTagCounts.html#aa8d44ec021a1eed94cc71c577df9bd1e" target="_top" xlink:title=" ">
<polygon fill="white" stroke="#666666" points="353,-78 220,-78 220,-48 353,-48 353,-78"/>
<text text-anchor="start" x="228" y="-66" font-family="Helvetica,sans-Serif" font-size="10.00">cbrc::RecountTagCounts</text>
<text text-anchor="middle" x="286.5" y="-55" font-family="Helvetica,sans-Serif" font-size="10.00">::assignSum</text>
</a>
</g>
</g>
<!-- Node21&#45;&gt;Node22 -->
<g id="edge25_Node000021_Node000022" class="edge">
<title>Node21&#45;&gt;Node22</title>
<g id="a_edge25_Node000021_Node000022"><a xlink:title=" ">
<path fill="none" stroke="#63b8ff" d="M422.68,-63C399.53,-63 375.03,-63 353.33,-63"/>
<polygon fill="#63b8ff" stroke="#63b8ff" points="422.85,-66.5 432.85,-63 422.85,-59.5 422.85,-66.5"/>
</a>
</g>
</g>
<!-- Node23 -->
<g id="Node000023" class="node">
<title>Node23</title>
<g id="a_Node000023"><a xlink:href="namespacecbrc.html#aa3b9b929137a6f28e0e85c38c585b1de" target="_top" xlink:title=" ">
<polygon fill="white" stroke="#666666" points="358,-30 215,-30 215,0 358,0 358,-30"/>
<text text-anchor="start" x="223" y="-18" font-family="Helvetica,sans-Serif" font-size="10.00">cbrc::observedMeanStdev</text>
<text text-anchor="middle" x="286.5" y="-7" font-family="Helvetica,sans-Serif" font-size="10.00">_fromTrueCounts</text>
</a>
</g>
</g>
<!-- Node21&#45;&gt;Node23 -->
<g id="edge26_Node000021_Node000023" class="edge">
<title>Node21&#45;&gt;Node23</title>
<g id="a_edge26_Node000021_Node000023"><a xlink:title=" ">
<path fill="none" stroke="#63b8ff" d="M457.5,-51.35C427.48,-44.93 389.87,-36.89 357.67,-30"/>
<polygon fill="#63b8ff" stroke="#63b8ff" points="456.87,-54.79 467.38,-53.46 458.33,-47.95 456.87,-54.79"/>
</a>
</g>
</g>
<!-- Node24 -->
<g id="Node000024" class="node">
<title>Node24</title>
<g id="a_Node000024"><a xlink:href="observedMeanStdev__fromTrueCounts_8cc.html#ac0f2228420376f4db7e1274f2b41667c" target="_top" xlink:title=" ">
<polygon fill="white" stroke="#666666" points="90.5,-24.5 49.5,-24.5 49.5,-5.5 90.5,-5.5 90.5,-24.5"/>
<text text-anchor="middle" x="70" y="-12.5" font-family="Helvetica,sans-Serif" font-size="10.00">main</text>
</a>
</g>
</g>
<!-- Node23&#45;&gt;Node24 -->
<g id="edge27_Node000023_Node000024" class="edge">
<title>Node23&#45;&gt;Node24</title>
<g id="a_edge27_Node000023_Node000024"><a xlink:title=" ">
<path fill="none" stroke="#63b8ff" d="M204.89,-15C163.62,-15 116.74,-15 90.84,-15"/>
<polygon fill="#63b8ff" stroke="#63b8ff" points="204.97,-18.5 214.97,-15 204.97,-11.5 204.97,-18.5"/>
</a>
</g>
</g>
</g>
</svg>

<g id="navigator" transform="translate(0 0)" fill="#404254">
  <rect fill="#f2f5e9" fill-opacity="0.5" stroke="#606060" stroke-width=".5" x="0" y="0" width="60" height="60"/>
  <use id="zoomplus" xlink:href="#zoomPlus" x="17" y="9" onmousedown="handleZoom(evt,'in')"/>
  <use id="zoomminus" xlink:href="#zoomMin" x="42" y="9" onmousedown="handleZoom(evt,'out')"/>
  <use id="reset" xlink:href="#resetDef" x="30" y="36" onmousedown="handleReset()"/>
   <use id="arrowup" xlink:href="#arrowUp" x="0" y="0" onmousedown="handlePan(0,-1)"/>
  <use id="arrowright" xlink:href="#arrowRight" x="0" y="0" onmousedown="handlePan(1,0)"/>
  <use id="arrowdown" xlink:href="#arrowDown" x="0" y="0" onmousedown="handlePan(0,1)"/>
  <use id="arrowleft" xlink:href="#arrowLeft" x="0" y="0" onmousedown="handlePan(-1,0)"/>
</g>
<svg viewBox="0 0 15 15" width="100%" height="30px" preserveAspectRatio="xMaxYMin meet">
 <g id="arrow_out" transform="scale(0.3 0.3)">
  <a xlink:href="classcbrc_1_1RecountTagCounts_ae05c5de97d80fdb60f1ff6a004ffc6ff_icgraph_org.svg" target="_base">
   <rect id="button" ry="5" rx="5" y="6" x="6" height="38" width="38"
        fill="#f2f5e9" fill-opacity="0.5" stroke="#606060" stroke-width="1.0"/>
   <path id="arrow"
     d="M 11.500037,31.436501 C 11.940474,20.09759 22.043105,11.32322 32.158766,21.979434 L 37.068811,17.246167 C 37.068811,17.246167 37.088388,32 37.088388,32 L 22.160133,31.978069 C 22.160133,31.978069 26.997745,27.140456 26.997745,27.140456 C 18.528582,18.264221 13.291696,25.230495 11.500037,31.436501 z"
     style="fill:#404040;"/>
  </a>
 </g>
</svg>

<style type='text/css'>
<![CDATA[
[data-mouse-over-selected='false'] { opacity: 0.7; }
[data-mouse-over-selected='true']  { opacity: 1.0; }
]]>
</style>
<script type="application/ecmascript"><![CDATA[
document.addEventListener('DOMContentLoaded', (event) => {
  highlightEdges();
  highlightAdjacentNodes();
});
]]></script>
</svg>
