<?xml version="1.0" encoding="UTF-8" standalone="no"?>
<!DOCTYPE svg PUBLIC "-//W3C//DTD SVG 1.1//EN"
 "http://www.w3.org/Graphics/SVG/1.1/DTD/svg11.dtd">
<!-- Generated by graphviz version 2.43.0 (0)
 -->
<!-- Title: cbrc::ResidueIndexMap::validResidues Pages: 1 -->
<!--zoomable 124 -->

<svg id="main" version="1.1" xmlns="http://www.w3.org/2000/svg" xmlns:xlink="http://www.w3.org/1999/xlink" xml:space="preserve" onload="init(evt)">
<style type="text/css"><![CDATA[
.node, .edge {opacity: 0.7;}
.node.selected, .edge.selected {opacity: 1;}
.edge:hover path { stroke: red; }
.edge:hover polygon { stroke: red; fill: red; }
]]></style>

<defs>
  <circle id="rim" cx="0" cy="0" r="7"/>
  <circle id="rim2" cx="0" cy="0" r="3.5"/>
  <g id="zoomPlus">
    <use xlink:href="#rim" fill="#404040"><set attributeName="fill" to="#808080" begin="zoomplus.mouseover" end="zoomplus.mouseout"/></use>
    <path d="M-4,0h8M0,-4v8" fill="none" stroke="white" stroke-width="1.5" pointer-events="none"/>
  </g>
  <g id="zoomMin">
    <use xlink:href="#rim" fill="#404040"><set attributeName="fill" to="#808080" begin="zoomminus.mouseover" end="zoomminus.mouseout"/></use>
    <path d="M-4,0h8" fill="none" stroke="white" stroke-width="1.5" pointer-events="none"/>
  </g>
  <g id="arrowUp" transform="translate(30 24)">
    <use xlink:href="#rim"/>
    <path pointer-events="none" fill="none" stroke="white" stroke-width="1.5" d="M0,-3.0v7 M-2.5,-0.5L0,-3.0L2.5,-0.5"/>
  </g>
  <g id="arrowRight" transform="rotate(90) translate(36 -43)">
    <use xlink:href="#rim"/>
    <path pointer-events="none" fill="none" stroke="white" stroke-width="1.5" d="M0,-3.0v7 M-2.5,-0.5L0,-3.0L2.5,-0.5"/>
  </g>
  <g id="arrowDown" transform="rotate(180) translate(-30 -48)">
    <use xlink:href="#rim"/>
    <path pointer-events="none" fill="none" stroke="white" stroke-width="1.5" d="M0,-3.0v7 M-2.5,-0.5L0,-3.0L2.5,-0.5"/>
  </g>
  <g id="arrowLeft" transform="rotate(270) translate(-36 17)">
    <use xlink:href="#rim"/>
    <path pointer-events="none" fill="none" stroke="white" stroke-width="1.5" d="M0,-3.0v7 M-2.5,-0.5L0,-3.0L2.5,-0.5"/>
  </g>
  <g id="resetDef">
    <use xlink:href="#rim2" fill="#404040"><set attributeName="fill" to="#808080" begin="reset.mouseover" end="reset.mouseout"/></use>
  </g>
</defs>
<script type="application/ecmascript">
var viewWidth = 638;
var viewHeight = 124;
var sectionId = 'dynsection-37';
</script>
<script type="application/ecmascript" xlink:href="svg.min.js"/>
<svg id="graph" class="graph">
<g id="viewport">
<title>cbrc::ResidueIndexMap::validResidues</title>
<!-- Node1 -->
<g id="Node000001" class="node">
<title>Node1</title>
<g id="a_Node000001"><a xlink:title=" ">
<polygon fill="#999999" stroke="#666666" points="130,-99 0,-99 0,-69 130,-69 130,-99"/>
<text text-anchor="start" x="8" y="-87" font-family="Helvetica,sans-Serif" font-size="10.00">cbrc::ResidueIndexMap</text>
<text text-anchor="middle" x="65" y="-76" font-family="Helvetica,sans-Serif" font-size="10.00">::validResidues</text>
</a>
</g>
</g>
<!-- Node2 -->
<g id="Node000002" class="node">
<title>Node2</title>
<g id="a_Node000002"><a xlink:href="classcbrc_1_1FLEArray.html#ad71311380d762114c9e0f3b0dda38b7c" target="_top" xlink:title=" ">
<polygon fill="white" stroke="#666666" points="453.5,-115.5 342.5,-115.5 342.5,-96.5 453.5,-96.5 453.5,-115.5"/>
<text text-anchor="middle" x="398" y="-103.5" font-family="Helvetica,sans-Serif" font-size="10.00">cbrc::FLEArray::size</text>
</a>
</g>
</g>
<!-- Node1&#45;&gt;Node2 -->
<g id="edge1_Node000001_Node000002" class="edge">
<title>Node1&#45;&gt;Node2</title>
<g id="a_edge1_Node000001_Node000002"><a xlink:title=" ">
<path fill="none" stroke="#63b8ff" d="M130.21,-88.27C188.38,-92.13 273.68,-97.8 332.07,-101.68"/>
<polygon fill="#63b8ff" stroke="#63b8ff" points="332.08,-105.19 342.29,-102.36 332.54,-98.21 332.08,-105.19"/>
</a>
</g>
</g>
<!-- Node3 -->
<g id="Node000003" class="node">
<title>Node3</title>
<g id="a_Node000003"><a xlink:href="classcbrc_1_1ResidueIndexMap.html#acaa12c04f1a067f6a1fac14c17b2e5dd" target="_top" xlink:title=" ">
<polygon fill="white" stroke="#666666" points="296,-78 166,-78 166,-48 296,-48 296,-78"/>
<text text-anchor="start" x="174" y="-66" font-family="Helvetica,sans-Serif" font-size="10.00">cbrc::ResidueIndexMap</text>
<text text-anchor="middle" x="231" y="-55" font-family="Helvetica,sans-Serif" font-size="10.00">::validResidue</text>
</a>
</g>
</g>
<!-- Node1&#45;&gt;Node3 -->
<g id="edge2_Node000001_Node000003" class="edge">
<title>Node1&#45;&gt;Node3</title>
<g id="a_edge2_Node000001_Node000003"><a xlink:title=" ">
<path fill="none" stroke="#63b8ff" d="M130.35,-75.76C138.73,-74.69 147.37,-73.58 155.9,-72.49"/>
<polygon fill="#63b8ff" stroke="#63b8ff" points="156.36,-75.96 165.84,-71.22 155.48,-69.01 156.36,-75.96"/>
</a>
</g>
</g>
<!-- Node3&#45;&gt;Node2 -->
<g id="edge6_Node000003_Node000002" class="edge">
<title>Node3&#45;&gt;Node2</title>
<g id="a_edge6_Node000003_Node000002"><a xlink:title=" ">
<path fill="none" stroke="#63b8ff" d="M289.71,-78.04C309.56,-83.21 331.52,-88.94 350.38,-93.85"/>
<polygon fill="#63b8ff" stroke="#63b8ff" points="349.66,-97.28 360.21,-96.41 351.42,-90.5 349.66,-97.28"/>
</a>
</g>
</g>
<!-- Node4 -->
<g id="Node000004" class="node">
<title>Node4</title>
<g id="a_Node000004"><a xlink:href="classcbrc_1_1ResidueIndexMap.html#ac79e934d66dd96493f86de84fea09a39" target="_top" xlink:title=" ">
<polygon fill="white" stroke="#666666" points="463,-78 333,-78 333,-48 463,-48 463,-78"/>
<text text-anchor="start" x="341" y="-66" font-family="Helvetica,sans-Serif" font-size="10.00">cbrc::ResidueIndexMap</text>
<text text-anchor="middle" x="398" y="-55" font-family="Helvetica,sans-Serif" font-size="10.00">::alphabet</text>
</a>
</g>
</g>
<!-- Node3&#45;&gt;Node4 -->
<g id="edge3_Node000003_Node000004" class="edge">
<title>Node3&#45;&gt;Node4</title>
<g id="a_edge3_Node000003_Node000004"><a xlink:title=" ">
<path fill="none" stroke="#63b8ff" d="M296.27,-63C304.92,-63 313.85,-63 322.65,-63"/>
<polygon fill="#63b8ff" stroke="#63b8ff" points="322.91,-66.5 332.91,-63 322.91,-59.5 322.91,-66.5"/>
</a>
</g>
</g>
<!-- Node5 -->
<g id="Node000005" class="node">
<title>Node5</title>
<g id="a_Node000005"><a xlink:href="classcbrc_1_1ResidueIndexMap.html#a341b3a9909f09eb2ea121637b6da492a" target="_top" xlink:title=" ">
<polygon fill="white" stroke="#666666" points="464,-30 332,-30 332,0 464,0 464,-30"/>
<text text-anchor="start" x="340" y="-18" font-family="Helvetica,sans-Serif" font-size="10.00">cbrc::ResidueIndexMap</text>
<text text-anchor="middle" x="398" y="-7" font-family="Helvetica,sans-Serif" font-size="10.00">::residuesAreEquivalent</text>
</a>
</g>
</g>
<!-- Node3&#45;&gt;Node5 -->
<g id="edge4_Node000003_Node000005" class="edge">
<title>Node3&#45;&gt;Node5</title>
<g id="a_edge4_Node000003_Node000005"><a xlink:title=" ">
<path fill="none" stroke="#63b8ff" d="M283.75,-47.94C300.19,-43.16 318.52,-37.83 335.57,-32.87"/>
<polygon fill="#63b8ff" stroke="#63b8ff" points="336.81,-36.16 345.43,-30 334.85,-29.44 336.81,-36.16"/>
</a>
</g>
</g>
<!-- Node6 -->
<g id="Node000006" class="node">
<title>Node6</title>
<g id="a_Node000006"><a xlink:href="classcbrc_1_1ResidueIndexMap.html#aeb29db6a1f1f4e43e3fb704bfd35e217" target="_top" xlink:title=" ">
<polygon fill="white" stroke="#666666" points="630,-30 500,-30 500,0 630,0 630,-30"/>
<text text-anchor="start" x="508" y="-18" font-family="Helvetica,sans-Serif" font-size="10.00">cbrc::ResidueIndexMap</text>
<text text-anchor="middle" x="565" y="-7" font-family="Helvetica,sans-Serif" font-size="10.00">::caseSensitive</text>
</a>
</g>
</g>
<!-- Node5&#45;&gt;Node6 -->
<g id="edge5_Node000005_Node000006" class="edge">
<title>Node5&#45;&gt;Node6</title>
<g id="a_edge5_Node000005_Node000006"><a xlink:title=" ">
<path fill="none" stroke="#63b8ff" d="M464.21,-15C472.54,-15 481.11,-15 489.57,-15"/>
<polygon fill="#63b8ff" stroke="#63b8ff" points="489.8,-18.5 499.8,-15 489.8,-11.5 489.8,-18.5"/>
</a>
</g>
</g>
</g>
</svg>

<g id="navigator" transform="translate(0 0)" fill="#404254">
  <rect fill="#f2f5e9" fill-opacity="0.5" stroke="#606060" stroke-width=".5" x="0" y="0" width="60" height="60"/>
  <use id="zoomplus" xlink:href="#zoomPlus" x="17" y="9" onmousedown="handleZoom(evt,'in')"/>
  <use id="zoomminus" xlink:href="#zoomMin" x="42" y="9" onmousedown="handleZoom(evt,'out')"/>
  <use id="reset" xlink:href="#resetDef" x="30" y="36" onmousedown="handleReset()"/>
   <use id="arrowup" xlink:href="#arrowUp" x="0" y="0" onmousedown="handlePan(0,-1)"/>
  <use id="arrowright" xlink:href="#arrowRight" x="0" y="0" onmousedown="handlePan(1,0)"/>
  <use id="arrowdown" xlink:href="#arrowDown" x="0" y="0" onmousedown="handlePan(0,1)"/>
  <use id="arrowleft" xlink:href="#arrowLeft" x="0" y="0" onmousedown="handlePan(-1,0)"/>
</g>
<svg viewBox="0 0 15 15" width="100%" height="30px" preserveAspectRatio="xMaxYMin meet">
 <g id="arrow_out" transform="scale(0.3 0.3)">
  <a xlink:href="classcbrc_1_1ResidueIndexMap_a4c4e6d7ebc5817131d35f22b77809999_cgraph_org.svg" target="_base">
   <rect id="button" ry="5" rx="5" y="6" x="6" height="38" width="38"
        fill="#f2f5e9" fill-opacity="0.5" stroke="#606060" stroke-width="1.0"/>
   <path id="arrow"
     d="M 11.500037,31.436501 C 11.940474,20.09759 22.043105,11.32322 32.158766,21.979434 L 37.068811,17.246167 C 37.068811,17.246167 37.088388,32 37.088388,32 L 22.160133,31.978069 C 22.160133,31.978069 26.997745,27.140456 26.997745,27.140456 C 18.528582,18.264221 13.291696,25.230495 11.500037,31.436501 z"
     style="fill:#404040;"/>
  </a>
 </g>
</svg>

<style type='text/css'>
<![CDATA[
[data-mouse-over-selected='false'] { opacity: 0.7; }
[data-mouse-over-selected='true']  { opacity: 1.0; }
]]>
</style>
<script type="application/ecmascript"><![CDATA[
document.addEventListener('DOMContentLoaded', (event) => {
  highlightEdges();
  highlightAdjacentNodes();
});
]]></script>
</svg>
