<?xml version="1.0" encoding="UTF-8" standalone="no"?>
<!DOCTYPE svg PUBLIC "-//W3C//DTD SVG 1.1//EN"
 "http://www.w3.org/Graphics/SVG/1.1/DTD/svg11.dtd">
<!-- Generated by graphviz version 2.43.0 (0)
 -->
<!-- Title: cbrc::TagSet::sizeInBytes Pages: 1 -->
<svg width="333pt" height="76pt"
 viewBox="0.00 0.00 333.00 75.50" xmlns="http://www.w3.org/2000/svg" xmlns:xlink="http://www.w3.org/1999/xlink">
<g id="graph0" class="graph" transform="scale(1 1) rotate(0) translate(4 71.5)">
<title>cbrc::TagSet::sizeInBytes</title>
<!-- Node1 -->
<g id="Node000001" class="node">
<title>Node1</title>
<g id="a_Node000001"><a xlink:title=" ">
<polygon fill="#999999" stroke="#666666" points="137,-40 0,-40 0,-21 137,-21 137,-40"/>
<text text-anchor="middle" x="68.5" y="-28" font-family="Helvetica,sans-Serif" font-size="10.00">cbrc::TagSet::sizeInBytes</text>
</a>
</g>
</g>
<!-- Node2 -->
<g id="Node000002" class="node">
<title>Node2</title>
<g id="a_Node000002"><a xlink:href="namespacecbrc_1_1sigma4bitPackingUtils.html#a1e8dcd001cca18cd5fdf93587bb2864d" target="_top" xlink:title=" ">
<polygon fill="white" stroke="#666666" points="325,-67.5 173,-67.5 173,-37.5 325,-37.5 325,-67.5"/>
<text text-anchor="start" x="181" y="-55.5" font-family="Helvetica,sans-Serif" font-size="10.00">cbrc::sigma4bitPackingUtils</text>
<text text-anchor="middle" x="249" y="-44.5" font-family="Helvetica,sans-Serif" font-size="10.00">::numBytesNeededToStore</text>
</a>
</g>
</g>
<!-- Node1&#45;&gt;Node2 -->
<g id="edge1_Node000001_Node000002" class="edge">
<title>Node1&#45;&gt;Node2</title>
<g id="a_edge1_Node000001_Node000002"><a xlink:title=" ">
<path fill="none" stroke="#63b8ff" d="M137.24,-38.85C145.6,-39.88 154.24,-40.94 162.82,-42"/>
<polygon fill="#63b8ff" stroke="#63b8ff" points="162.5,-45.49 172.85,-43.24 163.35,-38.54 162.5,-45.49"/>
</a>
</g>
</g>
<!-- Node3 -->
<g id="Node000003" class="node">
<title>Node3</title>
<g id="a_Node000003"><a xlink:href="classcbrc_1_1TagSet.html#aefba617c77efd2a537a2ebba52e06678" target="_top" xlink:title=" ">
<polygon fill="white" stroke="#666666" points="299.5,-19 198.5,-19 198.5,0 299.5,0 299.5,-19"/>
<text text-anchor="middle" x="249" y="-7" font-family="Helvetica,sans-Serif" font-size="10.00">cbrc::TagSet::size</text>
</a>
</g>
</g>
<!-- Node1&#45;&gt;Node3 -->
<g id="edge2_Node000001_Node000003" class="edge">
<title>Node1&#45;&gt;Node3</title>
<g id="a_edge2_Node000001_Node000003"><a xlink:title=" ">
<path fill="none" stroke="#63b8ff" d="M137.24,-22.53C154.06,-20.55 171.97,-18.44 188.38,-16.51"/>
<polygon fill="#63b8ff" stroke="#63b8ff" points="188.85,-19.98 198.37,-15.34 188.03,-13.03 188.85,-19.98"/>
</a>
</g>
</g>
</g>
</svg>
