<?xml version="1.0" encoding="UTF-8" standalone="no"?>
<!DOCTYPE svg PUBLIC "-//W3C//DTD SVG 1.1//EN"
 "http://www.w3.org/Graphics/SVG/1.1/DTD/svg11.dtd">
<!-- Generated by graphviz version 2.43.0 (0)
 -->
<!-- Title: cbrc::BitArray::clear Pages: 1 -->
<svg width="438pt" height="27pt"
 viewBox="0.00 0.00 438.00 27.00" xmlns="http://www.w3.org/2000/svg" xmlns:xlink="http://www.w3.org/1999/xlink">
<g id="graph0" class="graph" transform="scale(1 1) rotate(0) translate(4 23)">
<title>cbrc::BitArray::clear</title>
<!-- Node1 -->
<g id="Node000001" class="node">
<title>Node1</title>
<g id="a_Node000001"><a xlink:title=" ">
<polygon fill="#999999" stroke="#666666" points="112,-19 0,-19 0,0 112,0 112,-19"/>
<text text-anchor="middle" x="56" y="-7" font-family="Helvetica,sans-Serif" font-size="10.00">cbrc::BitArray::clear</text>
</a>
</g>
</g>
<!-- Node2 -->
<g id="Node000002" class="node">
<title>Node2</title>
<g id="a_Node000002"><a xlink:href="classcbrc_1_1BitArray.html#a41d24d9ab7f7c8fffe95f1bd6c7ae7b4" target="_top" xlink:title=" ">
<polygon fill="white" stroke="#666666" points="287,-19 148,-19 148,0 287,0 287,-19"/>
<text text-anchor="middle" x="217.5" y="-7" font-family="Helvetica,sans-Serif" font-size="10.00">cbrc::BitArray::validIndex</text>
</a>
</g>
</g>
<!-- Node1&#45;&gt;Node2 -->
<g id="edge1_Node000001_Node000002" class="edge">
<title>Node1&#45;&gt;Node2</title>
<g id="a_edge1_Node000001_Node000002"><a xlink:title=" ">
<path fill="none" stroke="#63b8ff" d="M112.34,-9.5C120.55,-9.5 129.15,-9.5 137.73,-9.5"/>
<polygon fill="#63b8ff" stroke="#63b8ff" points="137.77,-13 147.77,-9.5 137.77,-6 137.77,-13"/>
</a>
</g>
</g>
<!-- Node3 -->
<g id="Node000003" class="node">
<title>Node3</title>
<g id="a_Node000003"><a xlink:href="classcbrc_1_1BitArray.html#a9207c8247af291288df6e353edc05d33" target="_top" xlink:title=" ">
<polygon fill="white" stroke="#666666" points="430,-19 323,-19 323,0 430,0 430,-19"/>
<text text-anchor="middle" x="376.5" y="-7" font-family="Helvetica,sans-Serif" font-size="10.00">cbrc::BitArray::size</text>
</a>
</g>
</g>
<!-- Node2&#45;&gt;Node3 -->
<g id="edge2_Node000002_Node000003" class="edge">
<title>Node2&#45;&gt;Node3</title>
<g id="a_edge2_Node000002_Node000003"><a xlink:title=" ">
<path fill="none" stroke="#63b8ff" d="M287.36,-9.5C295.8,-9.5 304.38,-9.5 312.72,-9.5"/>
<polygon fill="#63b8ff" stroke="#63b8ff" points="312.74,-13 322.74,-9.5 312.74,-6 312.74,-13"/>
</a>
</g>
</g>
</g>
</svg>
