<?xml version="1.0" encoding="UTF-8" standalone="no"?>
<!DOCTYPE svg PUBLIC "-//W3C//DTD SVG 1.1//EN"
 "http://www.w3.org/Graphics/SVG/1.1/DTD/svg11.dtd">
<!-- Generated by graphviz version 2.43.0 (0)
 -->
<!-- Title: cbrc::StringHashtable::contentsAsVector Pages: 1 -->
<svg width="889pt" height="119pt"
 viewBox="0.00 0.00 889.00 118.50" xmlns="http://www.w3.org/2000/svg" xmlns:xlink="http://www.w3.org/1999/xlink">
<g id="graph0" class="graph" transform="scale(1 1) rotate(0) translate(4 114.5)">
<title>cbrc::StringHashtable::contentsAsVector</title>
<!-- Node1 -->
<g id="Node000001" class="node">
<title>Node1</title>
<g id="a_Node000001"><a xlink:title=" ">
<polygon fill="#999999" stroke="#666666" points="121,-62.5 0,-62.5 0,-32.5 121,-32.5 121,-62.5"/>
<text text-anchor="start" x="8" y="-50.5" font-family="Helvetica,sans-Serif" font-size="10.00">cbrc::StringHashtable</text>
<text text-anchor="middle" x="60.5" y="-39.5" font-family="Helvetica,sans-Serif" font-size="10.00">::contentsAsVector</text>
</a>
</g>
</g>
<!-- Node2 -->
<g id="Node000002" class="node">
<title>Node2</title>
<g id="a_Node000002"><a xlink:href="classcbrc_1_1StringHashtable.html#a4e0d747a69c5b97c586e5fc2bf9479c6" target="_top" xlink:title=" ">
<polygon fill="white" stroke="#666666" points="290,-105.5 169,-105.5 169,-75.5 290,-75.5 290,-105.5"/>
<text text-anchor="start" x="177" y="-93.5" font-family="Helvetica,sans-Serif" font-size="10.00">cbrc::StringHashtable</text>
<text text-anchor="middle" x="229.5" y="-82.5" font-family="Helvetica,sans-Serif" font-size="10.00">::begin</text>
</a>
</g>
</g>
<!-- Node1&#45;&gt;Node2 -->
<g id="edge1_Node000001_Node000002" class="edge">
<title>Node1&#45;&gt;Node2</title>
<g id="a_edge1_Node000001_Node000002"><a xlink:title=" ">
<path fill="none" stroke="#63b8ff" d="M119.91,-62.54C132.88,-65.88 146.73,-69.45 160.06,-72.88"/>
<polygon fill="#63b8ff" stroke="#63b8ff" points="159.57,-76.37 170.12,-75.47 161.31,-69.59 159.57,-76.37"/>
</a>
</g>
</g>
<!-- Node6 -->
<g id="Node000006" class="node">
<title>Node6</title>
<g id="a_Node000006"><a xlink:href="classcbrc_1_1StringHashtable.html#a5e89bfeebbdf2a017e5870cc73196e42" target="_top" xlink:title=" ">
<polygon fill="white" stroke="#666666" points="477,-62.5 356,-62.5 356,-32.5 477,-32.5 477,-62.5"/>
<text text-anchor="start" x="364" y="-50.5" font-family="Helvetica,sans-Serif" font-size="10.00">cbrc::StringHashtable</text>
<text text-anchor="middle" x="416.5" y="-39.5" font-family="Helvetica,sans-Serif" font-size="10.00">::size</text>
</a>
</g>
</g>
<!-- Node1&#45;&gt;Node6 -->
<g id="edge7_Node000001_Node000006" class="edge">
<title>Node1&#45;&gt;Node6</title>
<g id="a_edge7_Node000001_Node000006"><a xlink:title=" ">
<path fill="none" stroke="#63b8ff" d="M121.15,-47.5C183.15,-47.5 280.12,-47.5 345.66,-47.5"/>
<polygon fill="#63b8ff" stroke="#63b8ff" points="345.9,-51 355.9,-47.5 345.9,-44 345.9,-51"/>
</a>
</g>
</g>
<!-- Node7 -->
<g id="Node000007" class="node">
<title>Node7</title>
<g id="a_Node000007"><a xlink:href="classcbrc_1_1StringHashtable.html#ae0d04401bf7815c7372994c399d2c831" target="_top" xlink:title=" ">
<polygon fill="white" stroke="#666666" points="302,-19 157,-19 157,0 302,0 302,-19"/>
<text text-anchor="middle" x="229.5" y="-7" font-family="Helvetica,sans-Serif" font-size="10.00">cbrc::StringHashtable::end</text>
</a>
</g>
</g>
<!-- Node1&#45;&gt;Node7 -->
<g id="edge6_Node000001_Node000007" class="edge">
<title>Node1&#45;&gt;Node7</title>
<g id="a_edge6_Node000001_Node000007"><a xlink:title=" ">
<path fill="none" stroke="#63b8ff" d="M121.32,-33.89C139.39,-29.78 159.08,-25.3 176.59,-21.31"/>
<polygon fill="#63b8ff" stroke="#63b8ff" points="177.65,-24.66 186.62,-19.03 176.09,-17.84 177.65,-24.66"/>
</a>
</g>
</g>
<!-- Node3 -->
<g id="Node000003" class="node">
<title>Node3</title>
<g id="a_Node000003"><a xlink:href="classcbrc_1_1StringHashtableIterator.html#ae5d7545576f431cac36e0b6c42e1affc" target="_top" xlink:title=" ">
<polygon fill="white" stroke="#666666" points="495,-110.5 338,-110.5 338,-80.5 495,-80.5 495,-110.5"/>
<text text-anchor="start" x="346" y="-98.5" font-family="Helvetica,sans-Serif" font-size="10.00">cbrc::StringHashtableIterator</text>
<text text-anchor="middle" x="416.5" y="-87.5" font-family="Helvetica,sans-Serif" font-size="10.00">::makeInvalidIterator</text>
</a>
</g>
</g>
<!-- Node2&#45;&gt;Node3 -->
<g id="edge2_Node000002_Node000003" class="edge">
<title>Node2&#45;&gt;Node3</title>
<g id="a_edge2_Node000002_Node000003"><a xlink:title=" ">
<path fill="none" stroke="#63b8ff" d="M290.05,-92.11C302.06,-92.43 314.91,-92.78 327.64,-93.13"/>
<polygon fill="#63b8ff" stroke="#63b8ff" points="327.72,-96.63 337.81,-93.4 327.91,-89.63 327.72,-96.63"/>
</a>
</g>
</g>
<!-- Node2&#45;&gt;Node6 -->
<g id="edge5_Node000002_Node000006" class="edge">
<title>Node2&#45;&gt;Node6</title>
<g id="a_edge5_Node000002_Node000006"><a xlink:title=" ">
<path fill="none" stroke="#63b8ff" d="M290.05,-76.66C307.87,-72.52 327.56,-67.94 345.96,-63.66"/>
<polygon fill="#63b8ff" stroke="#63b8ff" points="346.79,-67.06 355.74,-61.39 345.21,-60.24 346.79,-67.06"/>
</a>
</g>
</g>
<!-- Node4 -->
<g id="Node000004" class="node">
<title>Node4</title>
<g id="a_Node000004"><a xlink:href="classcbrc_1_1StringHashtableIterator.html#a8602057c5e2f32695c4dd2b8d2a87040" target="_top" xlink:title=" ">
<polygon fill="white" stroke="#666666" points="688,-110.5 531,-110.5 531,-80.5 688,-80.5 688,-110.5"/>
<text text-anchor="start" x="539" y="-98.5" font-family="Helvetica,sans-Serif" font-size="10.00">cbrc::StringHashtableIterator</text>
<text text-anchor="middle" x="609.5" y="-87.5" font-family="Helvetica,sans-Serif" font-size="10.00">::StringHashtableIterator</text>
</a>
</g>
</g>
<!-- Node3&#45;&gt;Node4 -->
<g id="edge3_Node000003_Node000004" class="edge">
<title>Node3&#45;&gt;Node4</title>
<g id="a_edge3_Node000003_Node000004"><a xlink:title=" ">
<path fill="none" stroke="#63b8ff" d="M495.19,-95.5C503.65,-95.5 512.31,-95.5 520.88,-95.5"/>
<polygon fill="#63b8ff" stroke="#63b8ff" points="520.88,-99 530.88,-95.5 520.88,-92 520.88,-99"/>
</a>
</g>
</g>
<!-- Node5 -->
<g id="Node000005" class="node">
<title>Node5</title>
<g id="a_Node000005"><a xlink:href="classcbrc_1_1StringHashtableIterator.html#a2d97f2233db8257da2d70dc13aba9653" target="_top" xlink:title=" ">
<polygon fill="white" stroke="#666666" points="881,-110.5 724,-110.5 724,-80.5 881,-80.5 881,-110.5"/>
<text text-anchor="start" x="732" y="-98.5" font-family="Helvetica,sans-Serif" font-size="10.00">cbrc::StringHashtableIterator</text>
<text text-anchor="middle" x="802.5" y="-87.5" font-family="Helvetica,sans-Serif" font-size="10.00">::invalidate</text>
</a>
</g>
</g>
<!-- Node4&#45;&gt;Node5 -->
<g id="edge4_Node000004_Node000005" class="edge">
<title>Node4&#45;&gt;Node5</title>
<g id="a_edge4_Node000004_Node000005"><a xlink:title=" ">
<path fill="none" stroke="#63b8ff" d="M688.19,-95.5C696.65,-95.5 705.31,-95.5 713.88,-95.5"/>
<polygon fill="#63b8ff" stroke="#63b8ff" points="713.88,-99 723.88,-95.5 713.88,-92 713.88,-99"/>
</a>
</g>
</g>
</g>
</svg>
