<?xml version="1.0" encoding="UTF-8" standalone="no"?>
<!DOCTYPE svg PUBLIC "-//W3C//DTD SVG 1.1//EN"
 "http://www.w3.org/Graphics/SVG/1.1/DTD/svg11.dtd">
<!-- Generated by graphviz version 2.43.0 (0)
 -->
<!-- Title: cbrc::KnapsackObjectVector::end Pages: 1 -->
<svg width="367pt" height="51pt"
 viewBox="0.00 0.00 367.00 50.50" xmlns="http://www.w3.org/2000/svg" xmlns:xlink="http://www.w3.org/1999/xlink">
<g id="graph0" class="graph" transform="scale(1 1) rotate(0) translate(4 46.5)">
<title>cbrc::KnapsackObjectVector::end</title>
<!-- Node1 -->
<g id="Node000001" class="node">
<title>Node1</title>
<g id="a_Node000001"><a xlink:title=" ">
<polygon fill="#999999" stroke="#666666" points="359,-24.5 183,-24.5 183,-5.5 359,-5.5 359,-24.5"/>
<text text-anchor="middle" x="271" y="-12.5" font-family="Helvetica,sans-Serif" font-size="10.00">cbrc::KnapsackObjectVector::end</text>
</a>
</g>
</g>
<!-- Node1&#45;&gt;Node1 -->
<g id="edge2_Node000001_Node000001" class="edge">
<title>Node1&#45;&gt;Node1</title>
<g id="a_edge2_Node000001_Node000001"><a xlink:title=" ">
<path fill="none" stroke="#63b8ff" d="M307.75,-32.19C307.74,-37.92 295.49,-42.5 271,-42.5 236.16,-42.5 226.09,-33.23 240.79,-24.58"/>
<polygon fill="#63b8ff" stroke="#63b8ff" points="310.38,-29.88 301.21,-24.58 305.07,-34.45 310.38,-29.88"/>
</a>
</g>
</g>
<!-- Node2 -->
<g id="Node000002" class="node">
<title>Node2</title>
<g id="a_Node000002"><a xlink:href="classcbrc_1_1KnapsackEnumerator.html#aa06cdf51472f2ff606338c21612a5960" target="_top" xlink:title=" ">
<polygon fill="white" stroke="#666666" points="147,-30 0,-30 0,0 147,0 147,-30"/>
<text text-anchor="start" x="8" y="-18" font-family="Helvetica,sans-Serif" font-size="10.00">cbrc::KnapsackEnumerator</text>
<text text-anchor="middle" x="73.5" y="-7" font-family="Helvetica,sans-Serif" font-size="10.00">::computeCombinations</text>
</a>
</g>
</g>
<!-- Node1&#45;&gt;Node2 -->
<g id="edge1_Node000001_Node000002" class="edge">
<title>Node1&#45;&gt;Node2</title>
<g id="a_edge1_Node000001_Node000002"><a xlink:title=" ">
<path fill="none" stroke="#63b8ff" d="M172.74,-15C164.13,-15 155.52,-15 147.17,-15"/>
<polygon fill="#63b8ff" stroke="#63b8ff" points="172.83,-18.5 182.83,-15 172.83,-11.5 172.83,-18.5"/>
</a>
</g>
</g>
</g>
</svg>
