<?xml version="1.0" encoding="UTF-8" standalone="no"?>
<!DOCTYPE svg PUBLIC "-//W3C//DTD SVG 1.1//EN"
 "http://www.w3.org/Graphics/SVG/1.1/DTD/svg11.dtd">
<!-- Generated by graphviz version 2.43.0 (0)
 -->
<!-- Title: cbrc::StringHashtable::size Pages: 1 -->
<svg width="443pt" height="124pt"
 viewBox="0.00 0.00 443.00 124.00" xmlns="http://www.w3.org/2000/svg" xmlns:xlink="http://www.w3.org/1999/xlink">
<g id="graph0" class="graph" transform="scale(1 1) rotate(0) translate(4 120)">
<title>cbrc::StringHashtable::size</title>
<!-- Node1 -->
<g id="Node000001" class="node">
<title>Node1</title>
<g id="a_Node000001"><a xlink:title=" ">
<polygon fill="#999999" stroke="#666666" points="435,-73 314,-73 314,-43 435,-43 435,-73"/>
<text text-anchor="start" x="322" y="-61" font-family="Helvetica,sans-Serif" font-size="10.00">cbrc::StringHashtable</text>
<text text-anchor="middle" x="374.5" y="-50" font-family="Helvetica,sans-Serif" font-size="10.00">::size</text>
</a>
</g>
</g>
<!-- Node2 -->
<g id="Node000002" class="node">
<title>Node2</title>
<g id="a_Node000002"><a xlink:href="classcbrc_1_1StringHashtable.html#a4e0d747a69c5b97c586e5fc2bf9479c6" target="_top" xlink:title=" ">
<polygon fill="white" stroke="#666666" points="278,-116 157,-116 157,-86 278,-86 278,-116"/>
<text text-anchor="start" x="165" y="-104" font-family="Helvetica,sans-Serif" font-size="10.00">cbrc::StringHashtable</text>
<text text-anchor="middle" x="217.5" y="-93" font-family="Helvetica,sans-Serif" font-size="10.00">::begin</text>
</a>
</g>
</g>
<!-- Node1&#45;&gt;Node2 -->
<g id="edge1_Node000001_Node000002" class="edge">
<title>Node1&#45;&gt;Node2</title>
<g id="a_edge1_Node000001_Node000002"><a xlink:title=" ">
<path fill="none" stroke="#63b8ff" d="M309.58,-75.73C297.32,-79.13 284.6,-82.66 272.68,-85.97"/>
<polygon fill="#63b8ff" stroke="#63b8ff" points="310.59,-79.09 319.29,-73.04 308.72,-72.34 310.59,-79.09"/>
</a>
</g>
</g>
<!-- Node3 -->
<g id="Node000003" class="node">
<title>Node3</title>
<g id="a_Node000003"><a xlink:href="classcbrc_1_1StringHashtable.html#a27ada8c3bccfbaa8e5d51aed449c6817" target="_top" xlink:title=" ">
<polygon fill="white" stroke="#666666" points="121,-94 0,-94 0,-64 121,-64 121,-94"/>
<text text-anchor="start" x="8" y="-82" font-family="Helvetica,sans-Serif" font-size="10.00">cbrc::StringHashtable</text>
<text text-anchor="middle" x="60.5" y="-71" font-family="Helvetica,sans-Serif" font-size="10.00">::contentsAsVector</text>
</a>
</g>
</g>
<!-- Node1&#45;&gt;Node3 -->
<g id="edge3_Node000001_Node000003" class="edge">
<title>Node1&#45;&gt;Node3</title>
<g id="a_edge3_Node000001_Node000003"><a xlink:title=" ">
<path fill="none" stroke="#63b8ff" d="M303.71,-62.7C248.82,-66.39 173.16,-71.48 121.09,-74.99"/>
<polygon fill="#63b8ff" stroke="#63b8ff" points="303.97,-66.19 313.71,-62.02 303.5,-59.2 303.97,-66.19"/>
</a>
</g>
</g>
<!-- Node4 -->
<g id="Node000004" class="node">
<title>Node4</title>
<g id="a_Node000004"><a xlink:href="classcbrc_1_1StringHashtable.html#a84a8b4fbc6bf6bcf3d9996cc893aaefa" target="_top" xlink:title=" ">
<polygon fill="white" stroke="#666666" points="278,-30 157,-30 157,0 278,0 278,-30"/>
<text text-anchor="start" x="165" y="-18" font-family="Helvetica,sans-Serif" font-size="10.00">cbrc::StringHashtable</text>
<text text-anchor="middle" x="217.5" y="-7" font-family="Helvetica,sans-Serif" font-size="10.00">::StringHashtable</text>
</a>
</g>
</g>
<!-- Node1&#45;&gt;Node4 -->
<g id="edge4_Node000001_Node000004" class="edge">
<title>Node1&#45;&gt;Node4</title>
<g id="a_edge4_Node000001_Node000004"><a xlink:title=" ">
<path fill="none" stroke="#63b8ff" d="M309.58,-40.27C297.32,-36.87 284.6,-33.34 272.68,-30.03"/>
<polygon fill="#63b8ff" stroke="#63b8ff" points="308.72,-43.66 319.29,-42.96 310.59,-36.91 308.72,-43.66"/>
</a>
</g>
</g>
<!-- Node2&#45;&gt;Node3 -->
<g id="edge2_Node000002_Node000003" class="edge">
<title>Node2&#45;&gt;Node3</title>
<g id="a_edge2_Node000002_Node000003"><a xlink:title=" ">
<path fill="none" stroke="#63b8ff" d="M146.62,-91.08C138.07,-89.87 129.39,-88.64 121.01,-87.45"/>
<polygon fill="#63b8ff" stroke="#63b8ff" points="146.18,-94.55 156.57,-92.49 147.16,-87.62 146.18,-94.55"/>
</a>
</g>
</g>
</g>
</svg>
