<?xml version="1.0" encoding="UTF-8" standalone="no"?>
<!DOCTYPE svg PUBLIC "-//W3C//DTD SVG 1.1//EN"
 "http://www.w3.org/Graphics/SVG/1.1/DTD/svg11.dtd">
<!-- Generated by graphviz version 2.43.0 (0)
 -->
<!-- Title: cbrc::FLMatrix::size Pages: 1 -->
<svg width="491pt" height="151pt"
 viewBox="0.00 0.00 491.00 151.00" xmlns="http://www.w3.org/2000/svg" xmlns:xlink="http://www.w3.org/1999/xlink">
<g id="graph0" class="graph" transform="scale(1 1) rotate(0) translate(4 147)">
<title>cbrc::FLMatrix::size</title>
<!-- Node1 -->
<g id="Node000001" class="node">
<title>Node1</title>
<g id="a_Node000001"><a xlink:title=" ">
<polygon fill="#999999" stroke="#666666" points="483,-83 372,-83 372,-64 483,-64 483,-83"/>
<text text-anchor="middle" x="427.5" y="-71" font-family="Helvetica,sans-Serif" font-size="10.00">cbrc::FLMatrix::size</text>
</a>
</g>
</g>
<!-- Node2 -->
<g id="Node000002" class="node">
<title>Node2</title>
<g id="a_Node000002"><a xlink:href="classcbrc_1_1FLMatrix.html#a97107738e9c2502aa5ee32ba1f9b888c" target="_top" xlink:title=" ">
<polygon fill="white" stroke="#666666" points="327,-143 186,-143 186,-124 327,-124 327,-143"/>
<text text-anchor="middle" x="256.5" y="-131" font-family="Helvetica,sans-Serif" font-size="10.00">cbrc::FLMatrix::operator=</text>
</a>
</g>
</g>
<!-- Node1&#45;&gt;Node2 -->
<g id="edge1_Node000001_Node000002" class="edge">
<title>Node1&#45;&gt;Node2</title>
<g id="a_edge1_Node000001_Node000002"><a xlink:title=" ">
<path fill="none" stroke="#63b8ff" d="M394.44,-87C377.24,-94.05 355.61,-102.62 336,-109.5 321.34,-114.65 304.94,-119.76 290.93,-123.94"/>
<polygon fill="#63b8ff" stroke="#63b8ff" points="396.1,-90.1 404.01,-83.04 393.43,-83.63 396.1,-90.1"/>
</a>
</g>
</g>
<!-- Node3 -->
<g id="Node000003" class="node">
<title>Node3</title>
<g id="a_Node000003"><a xlink:href="classcbrc_1_1FLMatrix.html#a0edd8b261aa1271a243f0f13713d098c" target="_top" xlink:title=" ">
<polygon fill="white" stroke="#666666" points="141,-80 0,-80 0,-61 141,-61 141,-80"/>
<text text-anchor="middle" x="70.5" y="-68" font-family="Helvetica,sans-Serif" font-size="10.00">cbrc::FLMatrix::operator=</text>
</a>
</g>
</g>
<!-- Node1&#45;&gt;Node3 -->
<g id="edge2_Node000001_Node000003" class="edge">
<title>Node1&#45;&gt;Node3</title>
<g id="a_edge2_Node000001_Node000003"><a xlink:title=" ">
<path fill="none" stroke="#63b8ff" d="M361.84,-75.9C353.15,-76.15 344.36,-76.36 336,-76.5 265.34,-77.67 247.64,-78.51 177,-76.5 165.45,-76.17 153.19,-75.64 141.28,-75.03"/>
<polygon fill="#63b8ff" stroke="#63b8ff" points="362.06,-79.4 371.95,-75.6 361.85,-72.4 362.06,-79.4"/>
</a>
</g>
</g>
<!-- Node4 -->
<g id="Node000004" class="node">
<title>Node4</title>
<g id="a_Node000004"><a xlink:href="classcbrc_1_1FLMatrix.html#a5c1df67070541c2f1093d25f63c74432" target="_top" xlink:title=" ">
<polygon fill="white" stroke="#666666" points="332.5,-67.5 180.5,-67.5 180.5,-37.5 332.5,-37.5 332.5,-67.5"/>
<text text-anchor="start" x="188.5" y="-55.5" font-family="Helvetica,sans-Serif" font-size="10.00">cbrc::FLMatrix::printColumn</text>
<text text-anchor="middle" x="256.5" y="-44.5" font-family="Helvetica,sans-Serif" font-size="10.00">Major</text>
</a>
</g>
</g>
<!-- Node1&#45;&gt;Node4 -->
<g id="edge3_Node000001_Node000004" class="edge">
<title>Node1&#45;&gt;Node4</title>
<g id="a_edge3_Node000001_Node000004"><a xlink:title=" ">
<path fill="none" stroke="#63b8ff" d="M361.54,-65.43C352.09,-64.25 342.3,-63.04 332.67,-61.84"/>
<polygon fill="#63b8ff" stroke="#63b8ff" points="361.28,-68.92 371.63,-66.68 362.14,-61.98 361.28,-68.92"/>
</a>
</g>
</g>
<!-- Node5 -->
<g id="Node000005" class="node">
<title>Node5</title>
<g id="a_Node000005"><a xlink:href="classcbrc_1_1FLMatrix.html#ae330170347ef19312f4ed0081d3107d3" target="_top" xlink:title=" ">
<polygon fill="white" stroke="#666666" points="336,-19 177,-19 177,0 336,0 336,-19"/>
<text text-anchor="middle" x="256.5" y="-7" font-family="Helvetica,sans-Serif" font-size="10.00">cbrc::FLMatrix::validAsMatrix</text>
</a>
</g>
</g>
<!-- Node1&#45;&gt;Node5 -->
<g id="edge4_Node000001_Node000005" class="edge">
<title>Node1&#45;&gt;Node5</title>
<g id="a_edge4_Node000001_Node000005"><a xlink:title=" ">
<path fill="none" stroke="#63b8ff" d="M400.86,-58.82C383.11,-49.14 358.67,-36.76 336,-28.5 325.99,-24.85 315,-21.69 304.5,-19.06"/>
<polygon fill="#63b8ff" stroke="#63b8ff" points="399.54,-62.09 409.99,-63.88 402.94,-55.97 399.54,-62.09"/>
</a>
</g>
</g>
<!-- Node5&#45;&gt;Node3 -->
<g id="edge6_Node000005_Node000003" class="edge">
<title>Node5&#45;&gt;Node3</title>
<g id="a_edge6_Node000005_Node000003"><a xlink:title=" ">
<path fill="none" stroke="#63b8ff" d="M201.3,-21.56C193.1,-23.69 184.79,-26.02 177,-28.5 147.32,-37.95 114.09,-51.73 93,-60.9"/>
<polygon fill="#63b8ff" stroke="#63b8ff" points="202.34,-24.9 211.19,-19.07 200.64,-18.11 202.34,-24.9"/>
</a>
</g>
</g>
<!-- Node6 -->
<g id="Node000006" class="node">
<title>Node6</title>
<g id="a_Node000006"><a xlink:href="classcbrc_1_1FLMatrix.html#af0044ac64f2479155aae8a4520dc7e47" target="_top" xlink:title=" ">
<polygon fill="white" stroke="#666666" points="137.5,-19 3.5,-19 3.5,0 137.5,0 137.5,-19"/>
<text text-anchor="middle" x="70.5" y="-7" font-family="Helvetica,sans-Serif" font-size="10.00">cbrc::FLMatrix::FLMatrix</text>
</a>
</g>
</g>
<!-- Node5&#45;&gt;Node6 -->
<g id="edge5_Node000005_Node000006" class="edge">
<title>Node5&#45;&gt;Node6</title>
<g id="a_edge5_Node000005_Node000006"><a xlink:title=" ">
<path fill="none" stroke="#63b8ff" d="M166.76,-9.5C156.95,-9.5 147.1,-9.5 137.65,-9.5"/>
<polygon fill="#63b8ff" stroke="#63b8ff" points="166.93,-13 176.93,-9.5 166.93,-6 166.93,-13"/>
</a>
</g>
</g>
</g>
</svg>
