<?xml version="1.0" encoding="UTF-8" standalone="no"?>
<!DOCTYPE svg PUBLIC "-//W3C//DTD SVG 1.1//EN"
 "http://www.w3.org/Graphics/SVG/1.1/DTD/svg11.dtd">
<!-- Generated by graphviz version 2.43.0 (0)
 -->
<!-- Title: cbrc::FLEArray::FLEArray Pages: 1 -->
<!--zoomable 160 -->

<svg id="main" version="1.1" xmlns="http://www.w3.org/2000/svg" xmlns:xlink="http://www.w3.org/1999/xlink" xml:space="preserve" onload="init(evt)">
<style type="text/css"><![CDATA[
.node, .edge {opacity: 0.7;}
.node.selected, .edge.selected {opacity: 1;}
.edge:hover path { stroke: red; }
.edge:hover polygon { stroke: red; fill: red; }
]]></style>

<defs>
  <circle id="rim" cx="0" cy="0" r="7"/>
  <circle id="rim2" cx="0" cy="0" r="3.5"/>
  <g id="zoomPlus">
    <use xlink:href="#rim" fill="#404040"><set attributeName="fill" to="#808080" begin="zoomplus.mouseover" end="zoomplus.mouseout"/></use>
    <path d="M-4,0h8M0,-4v8" fill="none" stroke="white" stroke-width="1.5" pointer-events="none"/>
  </g>
  <g id="zoomMin">
    <use xlink:href="#rim" fill="#404040"><set attributeName="fill" to="#808080" begin="zoomminus.mouseover" end="zoomminus.mouseout"/></use>
    <path d="M-4,0h8" fill="none" stroke="white" stroke-width="1.5" pointer-events="none"/>
  </g>
  <g id="arrowUp" transform="translate(30 24)">
    <use xlink:href="#rim"/>
    <path pointer-events="none" fill="none" stroke="white" stroke-width="1.5" d="M0,-3.0v7 M-2.5,-0.5L0,-3.0L2.5,-0.5"/>
  </g>
  <g id="arrowRight" transform="rotate(90) translate(36 -43)">
    <use xlink:href="#rim"/>
    <path pointer-events="none" fill="none" stroke="white" stroke-width="1.5" d="M0,-3.0v7 M-2.5,-0.5L0,-3.0L2.5,-0.5"/>
  </g>
  <g id="arrowDown" transform="rotate(180) translate(-30 -48)">
    <use xlink:href="#rim"/>
    <path pointer-events="none" fill="none" stroke="white" stroke-width="1.5" d="M0,-3.0v7 M-2.5,-0.5L0,-3.0L2.5,-0.5"/>
  </g>
  <g id="arrowLeft" transform="rotate(270) translate(-36 17)">
    <use xlink:href="#rim"/>
    <path pointer-events="none" fill="none" stroke="white" stroke-width="1.5" d="M0,-3.0v7 M-2.5,-0.5L0,-3.0L2.5,-0.5"/>
  </g>
  <g id="resetDef">
    <use xlink:href="#rim2" fill="#404040"><set attributeName="fill" to="#808080" begin="reset.mouseover" end="reset.mouseout"/></use>
  </g>
</defs>
<script type="application/ecmascript">
var viewWidth = 793;
var viewHeight = 160;
var sectionId = 'dynsection-8';
</script>
<script type="application/ecmascript" xlink:href="svg.min.js"/>
<svg id="graph" class="graph">
<g id="viewport">
<title>cbrc::FLEArray::FLEArray</title>
<!-- Node1 -->
<g id="Node000001" class="node">
<title>Node1</title>
<g id="a_Node000001"><a xlink:title=" ">
<polygon fill="#999999" stroke="#666666" points="135,-58 0,-58 0,-39 135,-39 135,-58"/>
<text text-anchor="middle" x="67.5" y="-46" font-family="Helvetica,sans-Serif" font-size="10.00">cbrc::FLEArray::FLEArray</text>
</a>
</g>
</g>
<!-- Node2 -->
<g id="Node000002" class="node">
<title>Node2</title>
<g id="a_Node000002"><a xlink:href="classcbrc_1_1FLEArray.html#ae694e1e61ed6cb9dcc8962f3027ecfbf" target="_top" xlink:title=" ">
<polygon fill="white" stroke="#666666" points="294,-77 171,-77 171,-58 294,-58 294,-77"/>
<text text-anchor="middle" x="232.5" y="-65" font-family="Helvetica,sans-Serif" font-size="10.00">cbrc::FLEArray::assign</text>
</a>
</g>
</g>
<!-- Node1&#45;&gt;Node2 -->
<g id="edge1_Node000001_Node000002" class="edge">
<title>Node1&#45;&gt;Node2</title>
<g id="a_edge1_Node000001_Node000002"><a xlink:title=" ">
<path fill="none" stroke="#63b8ff" d="M135.27,-56.28C143.64,-57.26 152.23,-58.26 160.67,-59.24"/>
<polygon fill="#63b8ff" stroke="#63b8ff" points="160.52,-62.75 170.86,-60.43 161.33,-55.8 160.52,-62.75"/>
</a>
</g>
</g>
<!-- Node3 -->
<g id="Node000003" class="node">
<title>Node3</title>
<g id="a_Node000003"><a xlink:href="classcbrc_1_1FLEArray.html#a7e5d0d3bc5c41546620ccff95b55b3fa" target="_top" xlink:title=" ">
<polygon fill="white" stroke="#666666" points="450,-152 331,-152 331,-133 450,-133 450,-152"/>
<text text-anchor="middle" x="390.5" y="-140" font-family="Helvetica,sans-Serif" font-size="10.00">cbrc::FLEArray::begin</text>
</a>
</g>
</g>
<!-- Node1&#45;&gt;Node3 -->
<g id="edge11_Node000001_Node000003" class="edge">
<title>Node1&#45;&gt;Node3</title>
<g id="a_edge11_Node000001_Node000003"><a xlink:title=" ">
<path fill="none" stroke="#63b8ff" d="M92.28,-58.12C112.9,-66.27 143.65,-77.95 171,-86.5 227,-104 292.3,-120.2 336.82,-130.63"/>
<polygon fill="#63b8ff" stroke="#63b8ff" points="336.3,-134.1 346.84,-132.95 337.89,-127.28 336.3,-134.1"/>
</a>
</g>
</g>
<!-- Node4 -->
<g id="Node000004" class="node">
<title>Node4</title>
<g id="a_Node000004"><a xlink:href="classcbrc_1_1FLEArray.html#a8c53878dc57e8f666976e041d146a523" target="_top" xlink:title=" ">
<polygon fill="white" stroke="#666666" points="445.5,-39 335.5,-39 335.5,-20 445.5,-20 445.5,-39"/>
<text text-anchor="middle" x="390.5" y="-27" font-family="Helvetica,sans-Serif" font-size="10.00">cbrc::FLEArray::end</text>
</a>
</g>
</g>
<!-- Node1&#45;&gt;Node4 -->
<g id="edge12_Node000001_Node000004" class="edge">
<title>Node1&#45;&gt;Node4</title>
<g id="a_edge12_Node000001_Node000004"><a xlink:title=" ">
<path fill="none" stroke="#63b8ff" d="M135.01,-44.56C190.85,-41.26 270.13,-36.57 325.3,-33.3"/>
<polygon fill="#63b8ff" stroke="#63b8ff" points="325.54,-36.79 335.32,-32.71 325.13,-29.8 325.54,-36.79"/>
</a>
</g>
</g>
<!-- Node8 -->
<g id="Node000008" class="node">
<title>Node8</title>
<g id="a_Node000008"><a xlink:href="classcbrc_1_1FLEArray.html#ad71311380d762114c9e0f3b0dda38b7c" target="_top" xlink:title=" ">
<polygon fill="white" stroke="#666666" points="773,-19 662,-19 662,0 773,0 773,-19"/>
<text text-anchor="middle" x="717.5" y="-7" font-family="Helvetica,sans-Serif" font-size="10.00">cbrc::FLEArray::size</text>
</a>
</g>
</g>
<!-- Node1&#45;&gt;Node8 -->
<g id="edge13_Node000001_Node000008" class="edge">
<title>Node1&#45;&gt;Node8</title>
<g id="a_edge13_Node000001_Node000008"><a xlink:title=" ">
<path fill="none" stroke="#63b8ff" d="M123.77,-38.99C139.05,-36.45 155.66,-33.79 171,-31.5 241.5,-21 258.89,-15.4 330,-10.5 399.61,-5.7 417.22,-9.72 487,-9.5 542.56,-9.32 605.69,-9.34 651.66,-9.39"/>
<polygon fill="#63b8ff" stroke="#63b8ff" points="651.78,-12.89 661.78,-9.4 651.79,-5.89 651.78,-12.89"/>
</a>
</g>
</g>
<!-- Node2&#45;&gt;Node3 -->
<g id="edge2_Node000002_Node000003" class="edge">
<title>Node2&#45;&gt;Node3</title>
<g id="a_edge2_Node000002_Node000003"><a xlink:title=" ">
<path fill="none" stroke="#63b8ff" d="M250.32,-77.07C269.37,-87.74 301.47,-105.25 330,-118.5 337.91,-122.18 346.56,-125.85 354.74,-129.18"/>
<polygon fill="#63b8ff" stroke="#63b8ff" points="353.48,-132.44 364.07,-132.91 356.08,-125.94 353.48,-132.44"/>
</a>
</g>
</g>
<!-- Node2&#45;&gt;Node4 -->
<g id="edge3_Node000002_Node000004" class="edge">
<title>Node2&#45;&gt;Node4</title>
<g id="a_edge3_Node000002_Node000004"><a xlink:title=" ">
<path fill="none" stroke="#63b8ff" d="M272.87,-57.91C293.45,-52.9 318.84,-46.71 340.67,-41.39"/>
<polygon fill="#63b8ff" stroke="#63b8ff" points="341.53,-44.79 350.42,-39.02 339.87,-37.99 341.53,-44.79"/>
</a>
</g>
</g>
<!-- Node5 -->
<g id="Node000005" class="node">
<title>Node5</title>
<g id="a_Node000005"><a xlink:href="classcbrc_1_1FLEArray.html#a5368c7c0434bd5c119d2cbb39f4b399e" target="_top" xlink:title=" ">
<polygon fill="white" stroke="#666666" points="785,-76 650,-76 650,-57 785,-57 785,-76"/>
<text text-anchor="middle" x="717.5" y="-64" font-family="Helvetica,sans-Serif" font-size="10.00">cbrc::FLEArray::FLEArray</text>
</a>
</g>
</g>
<!-- Node2&#45;&gt;Node5 -->
<g id="edge4_Node000002_Node000005" class="edge">
<title>Node2&#45;&gt;Node5</title>
<g id="a_edge4_Node000002_Node000005"><a xlink:title=" ">
<path fill="none" stroke="#63b8ff" d="M275.54,-77.08C292.38,-80.46 312.01,-83.84 330,-85.5 455.71,-97.12 488.19,-90.99 614,-80.5 623.87,-79.68 634.24,-78.56 644.44,-77.31"/>
<polygon fill="#63b8ff" stroke="#63b8ff" points="645.07,-80.76 654.55,-76.03 644.19,-73.82 645.07,-80.76"/>
</a>
</g>
</g>
<!-- Node6 -->
<g id="Node000006" class="node">
<title>Node6</title>
<g id="a_Node000006"><a xlink:href="classcbrc_1_1FLEArray.html#ad003950bdededca7ee3b3dd6cd6ea644" target="_top" xlink:title=" ">
<polygon fill="white" stroke="#666666" points="451,-76 330,-76 330,-57 451,-57 451,-76"/>
<text text-anchor="middle" x="390.5" y="-64" font-family="Helvetica,sans-Serif" font-size="10.00">cbrc::FLEArray::resize</text>
</a>
</g>
</g>
<!-- Node2&#45;&gt;Node6 -->
<g id="edge6_Node000002_Node000006" class="edge">
<title>Node2&#45;&gt;Node6</title>
<g id="a_edge6_Node000002_Node000006"><a xlink:title=" ">
<path fill="none" stroke="#63b8ff" d="M294.26,-67.11C302.59,-67.06 311.2,-67 319.68,-66.95"/>
<polygon fill="#63b8ff" stroke="#63b8ff" points="319.95,-70.45 329.93,-66.88 319.91,-63.45 319.95,-70.45"/>
</a>
</g>
</g>
<!-- Node5&#45;&gt;Node5 -->
<g id="edge5_Node000005_Node000005" class="edge">
<title>Node5&#45;&gt;Node5</title>
<g id="a_edge5_Node000005_Node000005"><a xlink:title=" ">
<path fill="none" stroke="#63b8ff" d="M691.91,-76.08C679.47,-84.73 688,-94 717.5,-94 736.86,-94 747.19,-90.01 748.49,-84.82"/>
<polygon fill="#63b8ff" stroke="#63b8ff" points="751.32,-82.75 743.09,-76.08 745.37,-86.43 751.32,-82.75"/>
</a>
</g>
</g>
<!-- Node6&#45;&gt;Node5 -->
<g id="edge7_Node000006_Node000005" class="edge">
<title>Node6&#45;&gt;Node5</title>
<g id="a_edge7_Node000006_Node000005"><a xlink:title=" ">
<path fill="none" stroke="#63b8ff" d="M451.11,-66.5C504.18,-66.5 582.13,-66.5 639.83,-66.5"/>
<polygon fill="#63b8ff" stroke="#63b8ff" points="639.99,-70 649.99,-66.5 639.99,-63 639.99,-70"/>
</a>
</g>
</g>
<!-- Node7 -->
<g id="Node000007" class="node">
<title>Node7</title>
<g id="a_Node000007"><a xlink:href="classcbrc_1_1FLEArray.html#a5f10f892188c41f2821ef33ee9bcc743" target="_top" xlink:title=" ">
<polygon fill="white" stroke="#666666" points="614,-38 487,-38 487,-19 614,-19 614,-38"/>
<text text-anchor="middle" x="550.5" y="-26" font-family="Helvetica,sans-Serif" font-size="10.00">cbrc::FLEArray::setSize</text>
</a>
</g>
</g>
<!-- Node6&#45;&gt;Node7 -->
<g id="edge8_Node000006_Node000007" class="edge">
<title>Node6&#45;&gt;Node7</title>
<g id="a_edge8_Node000006_Node000007"><a xlink:title=" ">
<path fill="none" stroke="#63b8ff" d="M431.37,-56.91C452.22,-51.9 477.93,-45.71 500.04,-40.39"/>
<polygon fill="#63b8ff" stroke="#63b8ff" points="501.01,-43.76 509.92,-38.02 499.38,-36.96 501.01,-43.76"/>
</a>
</g>
</g>
<!-- Node7&#45;&gt;Node5 -->
<g id="edge9_Node000007_Node000005" class="edge">
<title>Node7&#45;&gt;Node5</title>
<g id="a_edge9_Node000007_Node000005"><a xlink:title=" ">
<path fill="none" stroke="#63b8ff" d="M593.14,-38.09C615.01,-43.13 642.01,-49.34 665.16,-54.68"/>
<polygon fill="#63b8ff" stroke="#63b8ff" points="664.63,-58.15 675.16,-56.98 666.2,-51.32 664.63,-58.15"/>
</a>
</g>
</g>
<!-- Node7&#45;&gt;Node8 -->
<g id="edge10_Node000007_Node000008" class="edge">
<title>Node7&#45;&gt;Node8</title>
<g id="a_edge10_Node000007_Node000008"><a xlink:title=" ">
<path fill="none" stroke="#63b8ff" d="M614.35,-21.26C626.59,-19.85 639.44,-18.37 651.74,-16.96"/>
<polygon fill="#63b8ff" stroke="#63b8ff" points="652.38,-20.41 661.91,-15.79 651.58,-13.45 652.38,-20.41"/>
</a>
</g>
</g>
</g>
</svg>

<g id="navigator" transform="translate(0 0)" fill="#404254">
  <rect fill="#f2f5e9" fill-opacity="0.5" stroke="#606060" stroke-width=".5" x="0" y="0" width="60" height="60"/>
  <use id="zoomplus" xlink:href="#zoomPlus" x="17" y="9" onmousedown="handleZoom(evt,'in')"/>
  <use id="zoomminus" xlink:href="#zoomMin" x="42" y="9" onmousedown="handleZoom(evt,'out')"/>
  <use id="reset" xlink:href="#resetDef" x="30" y="36" onmousedown="handleReset()"/>
   <use id="arrowup" xlink:href="#arrowUp" x="0" y="0" onmousedown="handlePan(0,-1)"/>
  <use id="arrowright" xlink:href="#arrowRight" x="0" y="0" onmousedown="handlePan(1,0)"/>
  <use id="arrowdown" xlink:href="#arrowDown" x="0" y="0" onmousedown="handlePan(0,1)"/>
  <use id="arrowleft" xlink:href="#arrowLeft" x="0" y="0" onmousedown="handlePan(-1,0)"/>
</g>
<svg viewBox="0 0 15 15" width="100%" height="30px" preserveAspectRatio="xMaxYMin meet">
 <g id="arrow_out" transform="scale(0.3 0.3)">
  <a xlink:href="classcbrc_1_1FLEArray_ac4229241834a54f80f0f6c2a0a3e7e60_cgraph_org.svg" target="_base">
   <rect id="button" ry="5" rx="5" y="6" x="6" height="38" width="38"
        fill="#f2f5e9" fill-opacity="0.5" stroke="#606060" stroke-width="1.0"/>
   <path id="arrow"
     d="M 11.500037,31.436501 C 11.940474,20.09759 22.043105,11.32322 32.158766,21.979434 L 37.068811,17.246167 C 37.068811,17.246167 37.088388,32 37.088388,32 L 22.160133,31.978069 C 22.160133,31.978069 26.997745,27.140456 26.997745,27.140456 C 18.528582,18.264221 13.291696,25.230495 11.500037,31.436501 z"
     style="fill:#404040;"/>
  </a>
 </g>
</svg>

<style type='text/css'>
<![CDATA[
[data-mouse-over-selected='false'] { opacity: 0.7; }
[data-mouse-over-selected='true']  { opacity: 1.0; }
]]>
</style>
<script type="application/ecmascript"><![CDATA[
document.addEventListener('DOMContentLoaded', (event) => {
  highlightEdges();
  highlightAdjacentNodes();
});
]]></script>
</svg>
