<?xml version="1.0" encoding="UTF-8" standalone="no"?>
<!DOCTYPE svg PUBLIC "-//W3C//DTD SVG 1.1//EN"
 "http://www.w3.org/Graphics/SVG/1.1/DTD/svg11.dtd">
<!-- Generated by graphviz version 2.43.0 (0)
 -->
<!-- Title: cbrc::SymmetricBitMatrix::set Pages: 1 -->
<svg width="680pt" height="98pt"
 viewBox="0.00 0.00 680.00 97.50" xmlns="http://www.w3.org/2000/svg" xmlns:xlink="http://www.w3.org/1999/xlink">
<g id="graph0" class="graph" transform="scale(1 1) rotate(0) translate(4 93.5)">
<title>cbrc::SymmetricBitMatrix::set</title>
<!-- Node1 -->
<g id="Node000001" class="node">
<title>Node1</title>
<g id="a_Node000001"><a xlink:title=" ">
<polygon fill="#999999" stroke="#666666" points="672,-51.5 510,-51.5 510,-32.5 672,-32.5 672,-51.5"/>
<text text-anchor="middle" x="591" y="-39.5" font-family="Helvetica,sans-Serif" font-size="10.00">cbrc::SymmetricBitMatrix::set</text>
</a>
</g>
</g>
<!-- Node2 -->
<g id="Node000002" class="node">
<title>Node2</title>
<g id="a_Node000002"><a xlink:href="classcbrc_1_1MatrixGraph.html#a296643c875239846cc7a3d07043bcad6" target="_top" xlink:title=" ">
<polygon fill="white" stroke="#666666" points="474,-57 364,-57 364,-27 474,-27 474,-57"/>
<text text-anchor="start" x="372" y="-45" font-family="Helvetica,sans-Serif" font-size="10.00">cbrc::MatrixGraph::</text>
<text text-anchor="middle" x="419" y="-34" font-family="Helvetica,sans-Serif" font-size="10.00">setEdge</text>
</a>
</g>
</g>
<!-- Node1&#45;&gt;Node2 -->
<g id="edge1_Node000001_Node000002" class="edge">
<title>Node1&#45;&gt;Node2</title>
<g id="a_edge1_Node000001_Node000002"><a xlink:title=" ">
<path fill="none" stroke="#63b8ff" d="M499.8,-42C491.13,-42 482.54,-42 474.38,-42"/>
<polygon fill="#63b8ff" stroke="#63b8ff" points="499.98,-45.5 509.98,-42 499.98,-38.5 499.98,-45.5"/>
</a>
</g>
</g>
<!-- Node3 -->
<g id="Node000003" class="node">
<title>Node3</title>
<g id="a_Node000003"><a xlink:href="classcbrc_1_1MatrixGraph.html#a32a503187de195192db021525be8ac1b" target="_top" xlink:title=" ">
<polygon fill="white" stroke="#666666" points="316,-89.5 158,-89.5 158,-48.5 316,-48.5 316,-89.5"/>
<text text-anchor="start" x="166" y="-77.5" font-family="Helvetica,sans-Serif" font-size="10.00">cbrc::MatrixGraph::</text>
<text text-anchor="start" x="166" y="-66.5" font-family="Helvetica,sans-Serif" font-size="10.00">readContinuousIntegerNodes</text>
<text text-anchor="middle" x="237" y="-55.5" font-family="Helvetica,sans-Serif" font-size="10.00">Format</text>
</a>
</g>
</g>
<!-- Node2&#45;&gt;Node3 -->
<g id="edge2_Node000002_Node000003" class="edge">
<title>Node2&#45;&gt;Node3</title>
<g id="a_edge2_Node000002_Node000003"><a xlink:title=" ">
<path fill="none" stroke="#63b8ff" d="M353.93,-51.61C341.73,-53.44 328.84,-55.37 316.26,-57.26"/>
<polygon fill="#63b8ff" stroke="#63b8ff" points="354.62,-55.05 363.99,-50.1 353.59,-48.12 354.62,-55.05"/>
</a>
</g>
</g>
<!-- Node5 -->
<g id="Node000005" class="node">
<title>Node5</title>
<g id="a_Node000005"><a xlink:href="classcbrc_1_1MatrixGraph.html#ade9e70ed22be1e11a6675ace517c701d" target="_top" xlink:title=" ">
<polygon fill="white" stroke="#666666" points="328,-30 146,-30 146,0 328,0 328,-30"/>
<text text-anchor="start" x="154" y="-18" font-family="Helvetica,sans-Serif" font-size="10.00">cbrc::MatrixGraph::</text>
<text text-anchor="middle" x="237" y="-7" font-family="Helvetica,sans-Serif" font-size="10.00">readEdgesOneEdgePerLineFormat</text>
</a>
</g>
</g>
<!-- Node2&#45;&gt;Node5 -->
<g id="edge4_Node000002_Node000005" class="edge">
<title>Node2&#45;&gt;Node5</title>
<g id="a_edge4_Node000002_Node000005"><a xlink:title=" ">
<path fill="none" stroke="#63b8ff" d="M354,-32.4C345.66,-31.15 336.99,-29.85 328.32,-28.55"/>
<polygon fill="#63b8ff" stroke="#63b8ff" points="353.59,-35.88 363.99,-33.9 354.62,-28.95 353.59,-35.88"/>
</a>
</g>
</g>
<!-- Node4 -->
<g id="Node000004" class="node">
<title>Node4</title>
<g id="a_Node000004"><a xlink:href="classcbrc_1_1MatrixGraph.html#a253063eb36f1bfdb9739f177e768cab5" target="_top" xlink:title=" ">
<polygon fill="white" stroke="#666666" points="110,-84 0,-84 0,-54 110,-54 110,-84"/>
<text text-anchor="start" x="8" y="-72" font-family="Helvetica,sans-Serif" font-size="10.00">cbrc::MatrixGraph::</text>
<text text-anchor="middle" x="55" y="-61" font-family="Helvetica,sans-Serif" font-size="10.00">MatrixGraph</text>
</a>
</g>
</g>
<!-- Node3&#45;&gt;Node4 -->
<g id="edge3_Node000003_Node000004" class="edge">
<title>Node3&#45;&gt;Node4</title>
<g id="a_edge3_Node000003_Node000004"><a xlink:title=" ">
<path fill="none" stroke="#63b8ff" d="M147.58,-69C134.75,-69 121.89,-69 110.02,-69"/>
<polygon fill="#63b8ff" stroke="#63b8ff" points="147.83,-72.5 157.83,-69 147.83,-65.5 147.83,-72.5"/>
</a>
</g>
</g>
</g>
</svg>
