<?xml version="1.0" encoding="UTF-8" standalone="no"?>
<!DOCTYPE svg PUBLIC "-//W3C//DTD SVG 1.1//EN"
 "http://www.w3.org/Graphics/SVG/1.1/DTD/svg11.dtd">
<!-- Generated by graphviz version 2.43.0 (0)
 -->
<!-- Title: cbrc::ArgvParser::die Pages: 1 -->
<svg width="291pt" height="64pt"
 viewBox="0.00 0.00 291.00 64.00" xmlns="http://www.w3.org/2000/svg" xmlns:xlink="http://www.w3.org/1999/xlink">
<g id="graph0" class="graph" transform="scale(1 1) rotate(0) translate(4 60)">
<title>cbrc::ArgvParser::die</title>
<!-- Node1 -->
<g id="Node000001" class="node">
<title>Node1</title>
<g id="a_Node000001"><a xlink:title=" ">
<polygon fill="#999999" stroke="#666666" points="116,-37 0,-37 0,-18 116,-18 116,-37"/>
<text text-anchor="middle" x="58" y="-25" font-family="Helvetica,sans-Serif" font-size="10.00">cbrc::ArgvParser::die</text>
</a>
</g>
</g>
<!-- Node2 -->
<g id="Node000002" class="node">
<title>Node2</title>
<g id="a_Node000002"><a xlink:href="classcbrc_1_1FLEArray.html#ad71311380d762114c9e0f3b0dda38b7c" target="_top" xlink:title=" ">
<polygon fill="white" stroke="#666666" points="273,-56 162,-56 162,-37 273,-37 273,-56"/>
<text text-anchor="middle" x="217.5" y="-44" font-family="Helvetica,sans-Serif" font-size="10.00">cbrc::FLEArray::size</text>
</a>
</g>
</g>
<!-- Node1&#45;&gt;Node2 -->
<g id="edge1_Node000001_Node000002" class="edge">
<title>Node1&#45;&gt;Node2</title>
<g id="a_edge1_Node000001_Node000002"><a xlink:title=" ">
<path fill="none" stroke="#63b8ff" d="M116.31,-34.41C127.8,-35.8 139.96,-37.27 151.69,-38.68"/>
<polygon fill="#63b8ff" stroke="#63b8ff" points="151.51,-42.19 161.86,-39.91 152.35,-35.24 151.51,-42.19"/>
</a>
</g>
</g>
<!-- Node3 -->
<g id="Node000003" class="node">
<title>Node3</title>
<g id="a_Node000003"><a xlink:href="classcbrc_1_1ArgvParser.html#a1b7d257748fcfaa9a9a3cf46bc36a7e5" target="_top" xlink:title=" ">
<polygon fill="white" stroke="#666666" points="283,-19 152,-19 152,0 283,0 283,-19"/>
<text text-anchor="middle" x="217.5" y="-7" font-family="Helvetica,sans-Serif" font-size="10.00">cbrc::ArgvParser::usage</text>
</a>
</g>
</g>
<!-- Node1&#45;&gt;Node3 -->
<g id="edge2_Node000001_Node000003" class="edge">
<title>Node1&#45;&gt;Node3</title>
<g id="a_edge2_Node000001_Node000003"><a xlink:title=" ">
<path fill="none" stroke="#63b8ff" d="M116.31,-20.95C124.59,-20 133.21,-19.02 141.77,-18.04"/>
<polygon fill="#63b8ff" stroke="#63b8ff" points="142.23,-21.51 151.77,-16.9 141.44,-14.56 142.23,-21.51"/>
</a>
</g>
</g>
</g>
</svg>
