<?xml version="1.0" encoding="UTF-8" standalone="no"?>
<!DOCTYPE svg PUBLIC "-//W3C//DTD SVG 1.1//EN"
 "http://www.w3.org/Graphics/SVG/1.1/DTD/svg11.dtd">
<!-- Generated by graphviz version 2.43.0 (0)
 -->
<!-- Title: cbrc::FLEArray::_assertNonzeroSize Pages: 1 -->
<svg width="369pt" height="331pt"
 viewBox="0.00 0.00 369.00 330.50" xmlns="http://www.w3.org/2000/svg" xmlns:xlink="http://www.w3.org/1999/xlink">

<svg id="main" version="1.1" xmlns="http://www.w3.org/2000/svg" xmlns:xlink="http://www.w3.org/1999/xlink" xml:space="preserve" onload="init(evt)">
<style type="text/css"><![CDATA[
.node, .edge {opacity: 0.7;}
.node.selected, .edge.selected {opacity: 1;}
.edge:hover path { stroke: red; }
.edge:hover polygon { stroke: red; fill: red; }
]]></style>
<script type="application/ecmascript" xlink:href="svg.min.js"/>
<svg id="graph" class="graph">
<g id="graph0" class="graph" transform="scale(1 1) rotate(0) translate(4 326.5)">
<title>cbrc::FLEArray::_assertNonzeroSize</title>
<!-- Node1 -->
<g id="Node000001" class="node">
<title>Node1</title>
<g id="a_Node000001"><a xlink:title=" ">
<polygon fill="#999999" stroke="#666666" points="361,-151 173,-151 173,-132 361,-132 361,-151"/>
<text text-anchor="middle" x="267" y="-139" font-family="Helvetica,sans-Serif" font-size="10.00">cbrc::FLEArray::_assertNonzeroSize</text>
</a>
</g>
</g>
<!-- Node2 -->
<g id="Node000002" class="node">
<title>Node2</title>
<g id="a_Node000002"><a xlink:href="classcbrc_1_1FLENumArray.html#a5943dcc299da63175abf219635df206e" target="_top" xlink:title=" ">
<polygon fill="white" stroke="#666666" points="126,-322.5 11,-322.5 11,-292.5 126,-292.5 126,-322.5"/>
<text text-anchor="start" x="19" y="-310.5" font-family="Helvetica,sans-Serif" font-size="10.00">cbrc::FLENumArray::</text>
<text text-anchor="middle" x="68.5" y="-299.5" font-family="Helvetica,sans-Serif" font-size="10.00">finalMaxIndex</text>
</a>
</g>
</g>
<!-- Node1&#45;&gt;Node2 -->
<g id="edge1_Node000001_Node000002" class="edge">
<title>Node1&#45;&gt;Node2</title>
<g id="a_edge1_Node000001_Node000002"><a xlink:title=" ">
<path fill="none" stroke="#63b8ff" d="M253.87,-159.9C233.24,-189.84 188.53,-249.19 137,-283.5 131.93,-286.88 126.32,-289.84 120.58,-292.43"/>
<polygon fill="#63b8ff" stroke="#63b8ff" points="256.99,-161.53 259.69,-151.28 251.19,-157.6 256.99,-161.53"/>
</a>
</g>
</g>
<!-- Node3 -->
<g id="Node000003" class="node">
<title>Node3</title>
<g id="a_Node000003"><a xlink:href="classcbrc_1_1FLENumArray.html#ae9e409c4d9dabc6d6b7a5ab071e17c3c" target="_top" xlink:title=" ">
<polygon fill="white" stroke="#666666" points="126,-274.5 11,-274.5 11,-244.5 126,-244.5 126,-274.5"/>
<text text-anchor="start" x="19" y="-262.5" font-family="Helvetica,sans-Serif" font-size="10.00">cbrc::FLENumArray::</text>
<text text-anchor="middle" x="68.5" y="-251.5" font-family="Helvetica,sans-Serif" font-size="10.00">finalMinIndex</text>
</a>
</g>
</g>
<!-- Node1&#45;&gt;Node3 -->
<g id="edge2_Node000001_Node000003" class="edge">
<title>Node1&#45;&gt;Node3</title>
<g id="a_edge2_Node000001_Node000003"><a xlink:title=" ">
<path fill="none" stroke="#63b8ff" d="M247.33,-157.8C223.22,-178.21 179.31,-213.17 137,-235.5 130.84,-238.75 124.15,-241.73 117.44,-244.4"/>
<polygon fill="#63b8ff" stroke="#63b8ff" points="249.68,-160.4 255,-151.24 245.13,-155.09 249.68,-160.4"/>
</a>
</g>
</g>
<!-- Node4 -->
<g id="Node000004" class="node">
<title>Node4</title>
<g id="a_Node000004"><a xlink:href="classcbrc_1_1FLENumArray.html#a56d69583b5a5710aff5f1bd75b2a3b58" target="_top" xlink:title=" ">
<polygon fill="white" stroke="#666666" points="126,-226.5 11,-226.5 11,-196.5 126,-196.5 126,-226.5"/>
<text text-anchor="start" x="19" y="-214.5" font-family="Helvetica,sans-Serif" font-size="10.00">cbrc::FLENumArray::</text>
<text text-anchor="middle" x="68.5" y="-203.5" font-family="Helvetica,sans-Serif" font-size="10.00">firstMaxIndex</text>
</a>
</g>
</g>
<!-- Node1&#45;&gt;Node4 -->
<g id="edge3_Node000001_Node000004" class="edge">
<title>Node1&#45;&gt;Node4</title>
<g id="a_edge3_Node000001_Node000004"><a xlink:title=" ">
<path fill="none" stroke="#63b8ff" d="M229.57,-154.5C203.74,-163.72 168.24,-176.37 137,-187.5 128.92,-190.38 120.29,-193.45 111.99,-196.4"/>
<polygon fill="#63b8ff" stroke="#63b8ff" points="231.08,-157.68 239.32,-151.02 228.73,-151.09 231.08,-157.68"/>
</a>
</g>
</g>
<!-- Node5 -->
<g id="Node000005" class="node">
<title>Node5</title>
<g id="a_Node000005"><a xlink:href="classcbrc_1_1FLENumArray.html#a9cd7db942c4a050c815b9830cbb1e276" target="_top" xlink:title=" ">
<polygon fill="white" stroke="#666666" points="126,-178.5 11,-178.5 11,-148.5 126,-148.5 126,-178.5"/>
<text text-anchor="start" x="19" y="-166.5" font-family="Helvetica,sans-Serif" font-size="10.00">cbrc::FLENumArray::</text>
<text text-anchor="middle" x="68.5" y="-155.5" font-family="Helvetica,sans-Serif" font-size="10.00">firstMinIndex</text>
</a>
</g>
</g>
<!-- Node1&#45;&gt;Node5 -->
<g id="edge4_Node000001_Node000005" class="edge">
<title>Node1&#45;&gt;Node5</title>
<g id="a_edge4_Node000001_Node000005"><a xlink:title=" ">
<path fill="none" stroke="#63b8ff" d="M170.9,-152.15C155.55,-153.87 140.1,-155.6 126.05,-157.17"/>
<polygon fill="#63b8ff" stroke="#63b8ff" points="171.41,-155.61 180.96,-151.02 170.63,-148.66 171.41,-155.61"/>
</a>
</g>
</g>
<!-- Node6 -->
<g id="Node000006" class="node">
<title>Node6</title>
<g id="a_Node000006"><a xlink:href="classcbrc_1_1FLENumArray.html#a3a54a9293463ab5cd9c34685a6870395" target="_top" xlink:title=" ">
<polygon fill="white" stroke="#666666" points="137,-130 0,-130 0,-111 137,-111 137,-130"/>
<text text-anchor="middle" x="68.5" y="-118" font-family="Helvetica,sans-Serif" font-size="10.00">cbrc::FLENumArray::max</text>
</a>
</g>
</g>
<!-- Node1&#45;&gt;Node6 -->
<g id="edge5_Node000001_Node000006" class="edge">
<title>Node1&#45;&gt;Node6</title>
<g id="a_edge5_Node000001_Node000006"><a xlink:title=" ">
<path fill="none" stroke="#63b8ff" d="M166.87,-130.91C156.78,-129.83 146.7,-128.75 137.06,-127.72"/>
<polygon fill="#63b8ff" stroke="#63b8ff" points="166.63,-134.4 176.95,-131.98 167.38,-127.44 166.63,-134.4"/>
</a>
</g>
</g>
<!-- Node7 -->
<g id="Node000007" class="node">
<title>Node7</title>
<g id="a_Node000007"><a xlink:href="classcbrc_1_1FLENumArray.html#a89292d1176dd0d20351061deaa3ba8ec" target="_top" xlink:title=" ">
<polygon fill="white" stroke="#666666" points="137,-93 0,-93 0,-74 137,-74 137,-93"/>
<text text-anchor="middle" x="68.5" y="-81" font-family="Helvetica,sans-Serif" font-size="10.00">cbrc::FLENumArray::max</text>
</a>
</g>
</g>
<!-- Node1&#45;&gt;Node7 -->
<g id="edge6_Node000001_Node000007" class="edge">
<title>Node1&#45;&gt;Node7</title>
<g id="a_edge6_Node000001_Node000007"><a xlink:title=" ">
<path fill="none" stroke="#63b8ff" d="M225.38,-129C200.01,-121.25 166.64,-111.15 137,-102.5 126.25,-99.36 114.51,-96.03 103.88,-93.04"/>
<polygon fill="#63b8ff" stroke="#63b8ff" points="224.45,-132.38 235.03,-131.96 226.49,-125.68 224.45,-132.38"/>
</a>
</g>
</g>
<!-- Node8 -->
<g id="Node000008" class="node">
<title>Node8</title>
<g id="a_Node000008"><a xlink:href="classcbrc_1_1FLENumArray.html#a31b8c216a4ae16ef376b2f368cda26c8" target="_top" xlink:title=" ">
<polygon fill="white" stroke="#666666" points="135.5,-56 1.5,-56 1.5,-37 135.5,-37 135.5,-56"/>
<text text-anchor="middle" x="68.5" y="-44" font-family="Helvetica,sans-Serif" font-size="10.00">cbrc::FLENumArray::min</text>
</a>
</g>
</g>
<!-- Node1&#45;&gt;Node8 -->
<g id="edge7_Node000001_Node000008" class="edge">
<title>Node1&#45;&gt;Node8</title>
<g id="a_edge7_Node000001_Node000008"><a xlink:title=" ">
<path fill="none" stroke="#63b8ff" d="M243.94,-126.1C218.97,-109.25 176.6,-82.4 137,-65.5 128.49,-61.87 119.08,-58.72 110.06,-56.08"/>
<polygon fill="#63b8ff" stroke="#63b8ff" points="242.08,-129.07 252.31,-131.82 246.03,-123.29 242.08,-129.07"/>
</a>
</g>
</g>
<!-- Node9 -->
<g id="Node000009" class="node">
<title>Node9</title>
<g id="a_Node000009"><a xlink:href="classcbrc_1_1FLENumArray.html#a90c496d767980ba6a28209cd8d719fb5" target="_top" xlink:title=" ">
<polygon fill="white" stroke="#666666" points="135.5,-19 1.5,-19 1.5,0 135.5,0 135.5,-19"/>
<text text-anchor="middle" x="68.5" y="-7" font-family="Helvetica,sans-Serif" font-size="10.00">cbrc::FLENumArray::min</text>
</a>
</g>
</g>
<!-- Node1&#45;&gt;Node9 -->
<g id="edge8_Node000001_Node000009" class="edge">
<title>Node1&#45;&gt;Node9</title>
<g id="a_edge8_Node000001_Node000009"><a xlink:title=" ">
<path fill="none" stroke="#63b8ff" d="M250.98,-124.16C228.59,-99.38 184.03,-54 137,-28.5 129.94,-24.67 122.03,-21.55 114.18,-19.03"/>
<polygon fill="#63b8ff" stroke="#63b8ff" points="248.44,-126.57 257.7,-131.72 253.67,-121.92 248.44,-126.57"/>
</a>
</g>
</g>
</g>
</svg>
</svg>

<style type='text/css'>
<![CDATA[
[data-mouse-over-selected='false'] { opacity: 0.7; }
[data-mouse-over-selected='true']  { opacity: 1.0; }
]]>
</style>
<script type="application/ecmascript"><![CDATA[
document.addEventListener('DOMContentLoaded', (event) => {
  highlightEdges();
  highlightAdjacentNodes();
});
]]></script>
</svg>
