<?xml version="1.0" encoding="UTF-8" standalone="no"?>
<!DOCTYPE svg PUBLIC "-//W3C//DTD SVG 1.1//EN"
 "http://www.w3.org/Graphics/SVG/1.1/DTD/svg11.dtd">
<!-- Generated by graphviz version 2.43.0 (0)
 -->
<!-- Title: cbrc::FLArray::resize Pages: 1 -->
<svg width="424pt" height="27pt"
 viewBox="0.00 0.00 424.00 27.00" xmlns="http://www.w3.org/2000/svg" xmlns:xlink="http://www.w3.org/1999/xlink">
<g id="graph0" class="graph" transform="scale(1 1) rotate(0) translate(4 23)">
<title>cbrc::FLArray::resize</title>
<!-- Node1 -->
<g id="Node000001" class="node">
<title>Node1</title>
<g id="a_Node000001"><a xlink:title=" ">
<polygon fill="#999999" stroke="#666666" points="116,-19 0,-19 0,0 116,0 116,-19"/>
<text text-anchor="middle" x="58" y="-7" font-family="Helvetica,sans-Serif" font-size="10.00">cbrc::FLArray::resize</text>
</a>
</g>
</g>
<!-- Node2 -->
<g id="Node000002" class="node">
<title>Node2</title>
<g id="a_Node000002"><a xlink:href="classcbrc_1_1FLArray.html#a28287f9536d91563f172a8477e7f2e44" target="_top" xlink:title=" ">
<polygon fill="white" stroke="#666666" points="274,-19 152,-19 152,0 274,0 274,-19"/>
<text text-anchor="middle" x="213" y="-7" font-family="Helvetica,sans-Serif" font-size="10.00">cbrc::FLArray::setSize</text>
</a>
</g>
</g>
<!-- Node1&#45;&gt;Node2 -->
<g id="edge1_Node000001_Node000002" class="edge">
<title>Node1&#45;&gt;Node2</title>
<g id="a_edge1_Node000001_Node000002"><a xlink:title=" ">
<path fill="none" stroke="#63b8ff" d="M116.41,-9.5C124.67,-9.5 133.24,-9.5 141.72,-9.5"/>
<polygon fill="#63b8ff" stroke="#63b8ff" points="141.97,-13 151.97,-9.5 141.97,-6 141.97,-13"/>
</a>
</g>
</g>
<!-- Node3 -->
<g id="Node000003" class="node">
<title>Node3</title>
<g id="a_Node000003"><a xlink:href="classcbrc_1_1FLArray.html#a2a8588117e8e7e673c141df0e7c2165a" target="_top" xlink:title=" ">
<polygon fill="white" stroke="#666666" points="416,-19 310,-19 310,0 416,0 416,-19"/>
<text text-anchor="middle" x="363" y="-7" font-family="Helvetica,sans-Serif" font-size="10.00">cbrc::FLArray::size</text>
</a>
</g>
</g>
<!-- Node2&#45;&gt;Node3 -->
<g id="edge2_Node000002_Node000003" class="edge">
<title>Node2&#45;&gt;Node3</title>
<g id="a_edge2_Node000002_Node000003"><a xlink:title=" ">
<path fill="none" stroke="#63b8ff" d="M274.2,-9.5C282.62,-9.5 291.29,-9.5 299.74,-9.5"/>
<polygon fill="#63b8ff" stroke="#63b8ff" points="299.92,-13 309.92,-9.5 299.92,-6 299.92,-13"/>
</a>
</g>
</g>
</g>
</svg>
