<?xml version="1.0" encoding="UTF-8" standalone="no"?>
<!DOCTYPE svg PUBLIC "-//W3C//DTD SVG 1.1//EN"
 "http://www.w3.org/Graphics/SVG/1.1/DTD/svg11.dtd">
<!-- Generated by graphviz version 2.43.0 (0)
 -->
<!-- Title: cbrc::FLArray::setSize Pages: 1 -->
<!--zoomable 150 -->

<svg id="main" version="1.1" xmlns="http://www.w3.org/2000/svg" xmlns:xlink="http://www.w3.org/1999/xlink" xml:space="preserve" onload="init(evt)">
<style type="text/css"><![CDATA[
.node, .edge {opacity: 0.7;}
.node.selected, .edge.selected {opacity: 1;}
.edge:hover path { stroke: red; }
.edge:hover polygon { stroke: red; fill: red; }
]]></style>

<defs>
  <circle id="rim" cx="0" cy="0" r="7"/>
  <circle id="rim2" cx="0" cy="0" r="3.5"/>
  <g id="zoomPlus">
    <use xlink:href="#rim" fill="#404040"><set attributeName="fill" to="#808080" begin="zoomplus.mouseover" end="zoomplus.mouseout"/></use>
    <path d="M-4,0h8M0,-4v8" fill="none" stroke="white" stroke-width="1.5" pointer-events="none"/>
  </g>
  <g id="zoomMin">
    <use xlink:href="#rim" fill="#404040"><set attributeName="fill" to="#808080" begin="zoomminus.mouseover" end="zoomminus.mouseout"/></use>
    <path d="M-4,0h8" fill="none" stroke="white" stroke-width="1.5" pointer-events="none"/>
  </g>
  <g id="arrowUp" transform="translate(30 24)">
    <use xlink:href="#rim"/>
    <path pointer-events="none" fill="none" stroke="white" stroke-width="1.5" d="M0,-3.0v7 M-2.5,-0.5L0,-3.0L2.5,-0.5"/>
  </g>
  <g id="arrowRight" transform="rotate(90) translate(36 -43)">
    <use xlink:href="#rim"/>
    <path pointer-events="none" fill="none" stroke="white" stroke-width="1.5" d="M0,-3.0v7 M-2.5,-0.5L0,-3.0L2.5,-0.5"/>
  </g>
  <g id="arrowDown" transform="rotate(180) translate(-30 -48)">
    <use xlink:href="#rim"/>
    <path pointer-events="none" fill="none" stroke="white" stroke-width="1.5" d="M0,-3.0v7 M-2.5,-0.5L0,-3.0L2.5,-0.5"/>
  </g>
  <g id="arrowLeft" transform="rotate(270) translate(-36 17)">
    <use xlink:href="#rim"/>
    <path pointer-events="none" fill="none" stroke="white" stroke-width="1.5" d="M0,-3.0v7 M-2.5,-0.5L0,-3.0L2.5,-0.5"/>
  </g>
  <g id="resetDef">
    <use xlink:href="#rim2" fill="#404040"><set attributeName="fill" to="#808080" begin="reset.mouseover" end="reset.mouseout"/></use>
  </g>
</defs>
<script type="application/ecmascript">
var viewWidth = 659;
var viewHeight = 150;
var sectionId = 'dynsection-23';
</script>
<script type="application/ecmascript" xlink:href="svg.min.js"/>
<svg id="graph" class="graph">
<g id="viewport">
<title>cbrc::FLArray::setSize</title>
<!-- Node1 -->
<g id="Node000001" class="node">
<title>Node1</title>
<g id="a_Node000001"><a xlink:title=" ">
<polygon fill="#999999" stroke="#666666" points="651,-77 529,-77 529,-58 651,-58 651,-77"/>
<text text-anchor="middle" x="590" y="-65" font-family="Helvetica,sans-Serif" font-size="10.00">cbrc::FLArray::setSize</text>
</a>
</g>
</g>
<!-- Node2 -->
<g id="Node000002" class="node">
<title>Node2</title>
<g id="a_Node000002"><a xlink:href="classcbrc_1_1FLStack.html#af2dcaffed713d2f076ce6e53812ccfdf" target="_top" xlink:title=" ">
<polygon fill="white" stroke="#666666" points="483,-142 358,-142 358,-123 483,-123 483,-142"/>
<text text-anchor="middle" x="420.5" y="-130" font-family="Helvetica,sans-Serif" font-size="10.00">cbrc::FLStack::FLStack</text>
</a>
</g>
</g>
<!-- Node1&#45;&gt;Node2 -->
<g id="edge1_Node000001_Node000002" class="edge">
<title>Node1&#45;&gt;Node2</title>
<g id="a_edge1_Node000001_Node000002"><a xlink:title=" ">
<path fill="none" stroke="#63b8ff" d="M562.46,-81.88C543.5,-91.73 517.18,-104.58 493,-113.5 483.36,-117.06 472.76,-120.24 462.75,-122.95"/>
<polygon fill="#63b8ff" stroke="#63b8ff" points="564.17,-84.93 571.39,-77.18 560.91,-78.74 564.17,-84.93"/>
</a>
</g>
</g>
<!-- Node3 -->
<g id="Node000003" class="node">
<title>Node3</title>
<g id="a_Node000003"><a xlink:href="classcbrc_1_1LogFactorial.html#add67b938747afdfd9d828063b19ebbd4" target="_top" xlink:title=" ">
<polygon fill="white" stroke="#666666" points="471,-104.5 370,-104.5 370,-74.5 471,-74.5 471,-104.5"/>
<text text-anchor="start" x="378" y="-92.5" font-family="Helvetica,sans-Serif" font-size="10.00">cbrc::LogFactorial</text>
<text text-anchor="middle" x="420.5" y="-81.5" font-family="Helvetica,sans-Serif" font-size="10.00">::LogFactorial</text>
</a>
</g>
</g>
<!-- Node1&#45;&gt;Node3 -->
<g id="edge2_Node000001_Node000003" class="edge">
<title>Node1&#45;&gt;Node3</title>
<g id="a_edge2_Node000001_Node000003"><a xlink:title=" ">
<path fill="none" stroke="#63b8ff" d="M518.23,-76.79C502.39,-78.88 485.92,-81.04 471.15,-82.98"/>
<polygon fill="#63b8ff" stroke="#63b8ff" points="519.07,-80.22 528.53,-75.44 518.16,-73.27 519.07,-80.22"/>
</a>
</g>
</g>
<!-- Node4 -->
<g id="Node000004" class="node">
<title>Node4</title>
<g id="a_Node000004"><a xlink:href="classcbrc_1_1FLArray.html#a907d88227b98342325adce883c90e351" target="_top" xlink:title=" ">
<polygon fill="white" stroke="#666666" points="478.5,-56 362.5,-56 362.5,-37 478.5,-37 478.5,-56"/>
<text text-anchor="middle" x="420.5" y="-44" font-family="Helvetica,sans-Serif" font-size="10.00">cbrc::FLArray::resize</text>
</a>
</g>
</g>
<!-- Node1&#45;&gt;Node4 -->
<g id="edge3_Node000001_Node000004" class="edge">
<title>Node1&#45;&gt;Node4</title>
<g id="a_edge3_Node000001_Node000004"><a xlink:title=" ">
<path fill="none" stroke="#63b8ff" d="M518.46,-58.66C505.14,-56.99 491.37,-55.26 478.53,-53.65"/>
<polygon fill="#63b8ff" stroke="#63b8ff" points="518.17,-62.15 528.53,-59.92 519.04,-55.2 518.17,-62.15"/>
</a>
</g>
</g>
<!-- Node11 -->
<g id="Node000011" class="node">
<title>Node11</title>
<g id="a_Node000011"><a xlink:href="classcbrc_1_1FLStack.html#a44b2916f8b765cb0a2a5bd0e473f1ce4" target="_top" xlink:title=" ">
<polygon fill="white" stroke="#666666" points="493,-19 348,-19 348,0 493,0 493,-19"/>
<text text-anchor="middle" x="420.5" y="-7" font-family="Helvetica,sans-Serif" font-size="10.00">cbrc::FLStack::setCapacity</text>
</a>
</g>
</g>
<!-- Node1&#45;&gt;Node11 -->
<g id="edge10_Node000001_Node000011" class="edge">
<title>Node1&#45;&gt;Node11</title>
<g id="a_edge10_Node000001_Node000011"><a xlink:title=" ">
<path fill="none" stroke="#63b8ff" d="M558.37,-53.9C539.7,-45.9 515.23,-35.94 493,-28.5 482.77,-25.08 471.55,-21.86 461.1,-19.07"/>
<polygon fill="#63b8ff" stroke="#63b8ff" points="556.99,-57.12 567.56,-57.88 559.77,-50.7 556.99,-57.12"/>
</a>
</g>
</g>
<!-- Node5 -->
<g id="Node000005" class="node">
<title>Node5</title>
<g id="a_Node000005"><a xlink:href="classcbrc_1_1FLArray.html#a818d65bad9bda6eae641ec21c3a46fe6" target="_top" xlink:title=" ">
<polygon fill="white" stroke="#666666" points="312,-75 194,-75 194,-56 312,-56 312,-75"/>
<text text-anchor="middle" x="253" y="-63" font-family="Helvetica,sans-Serif" font-size="10.00">cbrc::FLArray::assign</text>
</a>
</g>
</g>
<!-- Node4&#45;&gt;Node5 -->
<g id="edge4_Node000004_Node000005" class="edge">
<title>Node4&#45;&gt;Node5</title>
<g id="a_edge4_Node000004_Node000005"><a xlink:title=" ">
<path fill="none" stroke="#63b8ff" d="M352.09,-54.24C338.85,-55.76 325.06,-57.34 312.16,-58.82"/>
<polygon fill="#63b8ff" stroke="#63b8ff" points="352.55,-57.71 362.08,-53.09 351.75,-50.76 352.55,-57.71"/>
</a>
</g>
</g>
<!-- Node10 -->
<g id="Node000010" class="node">
<title>Node10</title>
<g id="a_Node000010"><a xlink:href="classcbrc_1_1FLArray.html#a5bef212fd56d0671f1aaa5cf4610ee20" target="_top" xlink:title=" ">
<polygon fill="white" stroke="#666666" points="312,-38 194,-38 194,-19 312,-19 312,-38"/>
<text text-anchor="middle" x="253" y="-26" font-family="Helvetica,sans-Serif" font-size="10.00">cbrc::FLArray::assign</text>
</a>
</g>
</g>
<!-- Node4&#45;&gt;Node10 -->
<g id="edge9_Node000004_Node000010" class="edge">
<title>Node4&#45;&gt;Node10</title>
<g id="a_edge9_Node000004_Node000010"><a xlink:title=" ">
<path fill="none" stroke="#63b8ff" d="M352.09,-39.17C338.85,-37.73 325.06,-36.23 312.16,-34.83"/>
<polygon fill="#63b8ff" stroke="#63b8ff" points="351.76,-42.65 362.08,-40.25 352.52,-35.69 351.76,-42.65"/>
</a>
</g>
</g>
<!-- Node6 -->
<g id="Node000006" class="node">
<title>Node6</title>
<g id="a_Node000006"><a xlink:href="classcbrc_1_1FLArray.html#ab32639991e856c51b10618ca85dfc90e" target="_top" xlink:title=" ">
<polygon fill="white" stroke="#666666" points="141.5,-131 16.5,-131 16.5,-112 141.5,-112 141.5,-131"/>
<text text-anchor="middle" x="79" y="-119" font-family="Helvetica,sans-Serif" font-size="10.00">cbrc::FLArray::FLArray</text>
</a>
</g>
</g>
<!-- Node5&#45;&gt;Node6 -->
<g id="edge5_Node000005_Node000006" class="edge">
<title>Node5&#45;&gt;Node6</title>
<g id="a_edge5_Node000005_Node000006"><a xlink:title=" ">
<path fill="none" stroke="#63b8ff" d="M221.83,-79.11C203.61,-86.97 179.77,-96.63 158,-103.5 148.06,-106.63 137.25,-109.48 126.93,-111.93"/>
<polygon fill="#63b8ff" stroke="#63b8ff" points="223.31,-82.28 231.07,-75.07 220.5,-75.87 223.31,-82.28"/>
</a>
</g>
</g>
<!-- Node7 -->
<g id="Node000007" class="node">
<title>Node7</title>
<g id="a_Node000007"><a xlink:href="classcbrc_1_1FLArray.html#a4490652ea80d8fa9d5a733392154fbe5" target="_top" xlink:title=" ">
<polygon fill="white" stroke="#666666" points="147,-94 11,-94 11,-75 147,-75 147,-94"/>
<text text-anchor="middle" x="79" y="-82" font-family="Helvetica,sans-Serif" font-size="10.00">cbrc::FLArray::operator=</text>
</a>
</g>
</g>
<!-- Node5&#45;&gt;Node7 -->
<g id="edge6_Node000005_Node000007" class="edge">
<title>Node5&#45;&gt;Node7</title>
<g id="a_edge6_Node000005_Node000007"><a xlink:title=" ">
<path fill="none" stroke="#63b8ff" d="M183.76,-73.04C171.68,-74.37 159.11,-75.76 147.07,-77.09"/>
<polygon fill="#63b8ff" stroke="#63b8ff" points="184.21,-76.51 193.77,-71.93 183.44,-69.55 184.21,-76.51"/>
</a>
</g>
</g>
<!-- Node8 -->
<g id="Node000008" class="node">
<title>Node8</title>
<g id="a_Node000008"><a xlink:href="classcbrc_1_1FLNumArray.html#a5bb0ce0c387a8067b8e6cb0febf59ef0" target="_top" xlink:title=" ">
<polygon fill="white" stroke="#666666" points="158,-57 0,-57 0,-38 158,-38 158,-57"/>
<text text-anchor="middle" x="79" y="-45" font-family="Helvetica,sans-Serif" font-size="10.00">cbrc::FLNumArray::operator=</text>
</a>
</g>
</g>
<!-- Node5&#45;&gt;Node8 -->
<g id="edge7_Node000005_Node000008" class="edge">
<title>Node5&#45;&gt;Node8</title>
<g id="a_edge7_Node000005_Node000008"><a xlink:title=" ">
<path fill="none" stroke="#63b8ff" d="M183.72,-58.35C175.37,-57.48 166.78,-56.58 158.3,-55.69"/>
<polygon fill="#63b8ff" stroke="#63b8ff" points="183.46,-61.85 193.77,-59.41 184.19,-54.88 183.46,-61.85"/>
</a>
</g>
</g>
<!-- Node9 -->
<g id="Node000009" class="node">
<title>Node9</title>
<g id="a_Node000009"><a xlink:href="classcbrc_1_1FLArray.html#a792ef8185d5cf7042007103f2a75e46a" target="_top" xlink:title=" ">
<polygon fill="white" stroke="#666666" points="147,-20 11,-20 11,-1 147,-1 147,-20"/>
<text text-anchor="middle" x="79" y="-8" font-family="Helvetica,sans-Serif" font-size="10.00">cbrc::FLArray::operator=</text>
</a>
</g>
</g>
<!-- Node5&#45;&gt;Node9 -->
<g id="edge8_Node000005_Node000009" class="edge">
<title>Node5&#45;&gt;Node9</title>
<g id="a_edge8_Node000005_Node000009"><a xlink:title=" ">
<path fill="none" stroke="#63b8ff" d="M208.13,-52.72C203.32,-51.07 198.53,-49.32 194,-47.5 177.4,-40.83 174.8,-35.66 158,-29.5 148.05,-25.85 137.14,-22.7 126.71,-20.06"/>
<polygon fill="#63b8ff" stroke="#63b8ff" points="207.35,-56.15 217.94,-55.94 209.53,-49.5 207.35,-56.15"/>
</a>
</g>
</g>
</g>
</svg>

<g id="navigator" transform="translate(0 0)" fill="#404254">
  <rect fill="#f2f5e9" fill-opacity="0.5" stroke="#606060" stroke-width=".5" x="0" y="0" width="60" height="60"/>
  <use id="zoomplus" xlink:href="#zoomPlus" x="17" y="9" onmousedown="handleZoom(evt,'in')"/>
  <use id="zoomminus" xlink:href="#zoomMin" x="42" y="9" onmousedown="handleZoom(evt,'out')"/>
  <use id="reset" xlink:href="#resetDef" x="30" y="36" onmousedown="handleReset()"/>
   <use id="arrowup" xlink:href="#arrowUp" x="0" y="0" onmousedown="handlePan(0,-1)"/>
  <use id="arrowright" xlink:href="#arrowRight" x="0" y="0" onmousedown="handlePan(1,0)"/>
  <use id="arrowdown" xlink:href="#arrowDown" x="0" y="0" onmousedown="handlePan(0,1)"/>
  <use id="arrowleft" xlink:href="#arrowLeft" x="0" y="0" onmousedown="handlePan(-1,0)"/>
</g>
<svg viewBox="0 0 15 15" width="100%" height="30px" preserveAspectRatio="xMaxYMin meet">
 <g id="arrow_out" transform="scale(0.3 0.3)">
  <a xlink:href="classcbrc_1_1FLArray_a28287f9536d91563f172a8477e7f2e44_icgraph_org.svg" target="_base">
   <rect id="button" ry="5" rx="5" y="6" x="6" height="38" width="38"
        fill="#f2f5e9" fill-opacity="0.5" stroke="#606060" stroke-width="1.0"/>
   <path id="arrow"
     d="M 11.500037,31.436501 C 11.940474,20.09759 22.043105,11.32322 32.158766,21.979434 L 37.068811,17.246167 C 37.068811,17.246167 37.088388,32 37.088388,32 L 22.160133,31.978069 C 22.160133,31.978069 26.997745,27.140456 26.997745,27.140456 C 18.528582,18.264221 13.291696,25.230495 11.500037,31.436501 z"
     style="fill:#404040;"/>
  </a>
 </g>
</svg>

<style type='text/css'>
<![CDATA[
[data-mouse-over-selected='false'] { opacity: 0.7; }
[data-mouse-over-selected='true']  { opacity: 1.0; }
]]>
</style>
<script type="application/ecmascript"><![CDATA[
document.addEventListener('DOMContentLoaded', (event) => {
  highlightEdges();
  highlightAdjacentNodes();
});
]]></script>
</svg>
