<?xml version="1.0" encoding="UTF-8" standalone="no"?>
<!DOCTYPE svg PUBLIC "-//W3C//DTD SVG 1.1//EN"
 "http://www.w3.org/Graphics/SVG/1.1/DTD/svg11.dtd">
<!-- Generated by graphviz version 2.43.0 (0)
 -->
<!-- Title: cbrc::LabeledAsciiSeq::size Pages: 1 -->
<svg width="312pt" height="64pt"
 viewBox="0.00 0.00 312.00 64.00" xmlns="http://www.w3.org/2000/svg" xmlns:xlink="http://www.w3.org/1999/xlink">
<g id="graph0" class="graph" transform="scale(1 1) rotate(0) translate(4 60)">
<title>cbrc::LabeledAsciiSeq::size</title>
<!-- Node1 -->
<g id="Node000001" class="node">
<title>Node1</title>
<g id="a_Node000001"><a xlink:title=" ">
<polygon fill="#999999" stroke="#666666" points="122,-42.5 0,-42.5 0,-12.5 122,-12.5 122,-42.5"/>
<text text-anchor="start" x="8" y="-30.5" font-family="Helvetica,sans-Serif" font-size="10.00">cbrc::LabeledAsciiSeq</text>
<text text-anchor="middle" x="61" y="-19.5" font-family="Helvetica,sans-Serif" font-size="10.00">::size</text>
</a>
</g>
</g>
<!-- Node2 -->
<g id="Node000002" class="node">
<title>Node2</title>
<g id="a_Node000002"><a xlink:href="classcbrc_1_1LabeledAsciiSeq.html#af5b9cd7b4a9c88895c1e79fb2e04a10e" target="_top" xlink:title=" ">
<polygon fill="white" stroke="#666666" points="304,-56 158,-56 158,-37 304,-37 304,-56"/>
<text text-anchor="middle" x="231" y="-44" font-family="Helvetica,sans-Serif" font-size="10.00">cbrc::LabeledAsciiSeq::seq</text>
</a>
</g>
</g>
<!-- Node1&#45;&gt;Node2 -->
<g id="edge1_Node000001_Node000002" class="edge">
<title>Node1&#45;&gt;Node2</title>
<g id="a_edge1_Node000001_Node000002"><a xlink:title=" ">
<path fill="none" stroke="#63b8ff" d="M122.18,-34.31C130.5,-35.25 139.16,-36.23 147.8,-37.2"/>
<polygon fill="#63b8ff" stroke="#63b8ff" points="147.58,-40.7 157.91,-38.35 148.37,-33.75 147.58,-40.7"/>
</a>
</g>
</g>
<!-- Node3 -->
<g id="Node000003" class="node">
<title>Node3</title>
<g id="a_Node000003"><a xlink:href="classcbrc_1_1FLEArray.html#ad71311380d762114c9e0f3b0dda38b7c" target="_top" xlink:title=" ">
<polygon fill="white" stroke="#666666" points="286.5,-19 175.5,-19 175.5,0 286.5,0 286.5,-19"/>
<text text-anchor="middle" x="231" y="-7" font-family="Helvetica,sans-Serif" font-size="10.00">cbrc::FLEArray::size</text>
</a>
</g>
</g>
<!-- Node1&#45;&gt;Node3 -->
<g id="edge2_Node000001_Node000003" class="edge">
<title>Node1&#45;&gt;Node3</title>
<g id="a_edge2_Node000001_Node000003"><a xlink:title=" ">
<path fill="none" stroke="#63b8ff" d="M122.18,-21.05C136.12,-19.56 151.01,-17.96 165.14,-16.45"/>
<polygon fill="#63b8ff" stroke="#63b8ff" points="165.7,-19.91 175.27,-15.36 164.96,-12.95 165.7,-19.91"/>
</a>
</g>
</g>
</g>
</svg>
