<?xml version="1.0" encoding="UTF-8" standalone="no"?>
<!DOCTYPE svg PUBLIC "-//W3C//DTD SVG 1.1//EN"
 "http://www.w3.org/Graphics/SVG/1.1/DTD/svg11.dtd">
<!-- Generated by graphviz version 2.43.0 (0)
 -->
<!-- Title: cbrc::FLEArray::read Pages: 1 -->
<!--zoomable 681 -->

<svg id="main" version="1.1" xmlns="http://www.w3.org/2000/svg" xmlns:xlink="http://www.w3.org/1999/xlink" xml:space="preserve" onload="init(evt)">
<style type="text/css"><![CDATA[
.node, .edge {opacity: 0.7;}
.node.selected, .edge.selected {opacity: 1;}
.edge:hover path { stroke: red; }
.edge:hover polygon { stroke: red; fill: red; }
]]></style>

<defs>
  <circle id="rim" cx="0" cy="0" r="7"/>
  <circle id="rim2" cx="0" cy="0" r="3.5"/>
  <g id="zoomPlus">
    <use xlink:href="#rim" fill="#404040"><set attributeName="fill" to="#808080" begin="zoomplus.mouseover" end="zoomplus.mouseout"/></use>
    <path d="M-4,0h8M0,-4v8" fill="none" stroke="white" stroke-width="1.5" pointer-events="none"/>
  </g>
  <g id="zoomMin">
    <use xlink:href="#rim" fill="#404040"><set attributeName="fill" to="#808080" begin="zoomminus.mouseover" end="zoomminus.mouseout"/></use>
    <path d="M-4,0h8" fill="none" stroke="white" stroke-width="1.5" pointer-events="none"/>
  </g>
  <g id="arrowUp" transform="translate(30 24)">
    <use xlink:href="#rim"/>
    <path pointer-events="none" fill="none" stroke="white" stroke-width="1.5" d="M0,-3.0v7 M-2.5,-0.5L0,-3.0L2.5,-0.5"/>
  </g>
  <g id="arrowRight" transform="rotate(90) translate(36 -43)">
    <use xlink:href="#rim"/>
    <path pointer-events="none" fill="none" stroke="white" stroke-width="1.5" d="M0,-3.0v7 M-2.5,-0.5L0,-3.0L2.5,-0.5"/>
  </g>
  <g id="arrowDown" transform="rotate(180) translate(-30 -48)">
    <use xlink:href="#rim"/>
    <path pointer-events="none" fill="none" stroke="white" stroke-width="1.5" d="M0,-3.0v7 M-2.5,-0.5L0,-3.0L2.5,-0.5"/>
  </g>
  <g id="arrowLeft" transform="rotate(270) translate(-36 17)">
    <use xlink:href="#rim"/>
    <path pointer-events="none" fill="none" stroke="white" stroke-width="1.5" d="M0,-3.0v7 M-2.5,-0.5L0,-3.0L2.5,-0.5"/>
  </g>
  <g id="resetDef">
    <use xlink:href="#rim2" fill="#404040"><set attributeName="fill" to="#808080" begin="reset.mouseover" end="reset.mouseout"/></use>
  </g>
</defs>
<script type="application/ecmascript">
var viewWidth = 850;
var viewHeight = 681;
var sectionId = 'dynsection-65';
</script>
<script type="application/ecmascript" xlink:href="svg.min.js"/>
<svg id="graph" class="graph">
<g id="viewport">
<title>cbrc::FLEArray::read</title>
<!-- Node1 -->
<g id="Node000001" class="node">
<title>Node1</title>
<g id="a_Node000001"><a xlink:title=" ">
<polygon fill="#999999" stroke="#666666" points="842,-349.5 729,-349.5 729,-330.5 842,-330.5 842,-349.5"/>
<text text-anchor="middle" x="785.5" y="-337.5" font-family="Helvetica,sans-Serif" font-size="10.00">cbrc::FLEArray::read</text>
</a>
</g>
</g>
<!-- Node1&#45;&gt;Node1 -->
<g id="edge5_Node000001_Node000001" class="edge">
<title>Node1&#45;&gt;Node1</title>
<g id="a_edge5_Node000001_Node000001"><a xlink:title=" ">
<path fill="none" stroke="#63b8ff" d="M818.43,-357.95C817.5,-363.32 806.52,-367.5 785.5,-367.5 754.22,-367.5 745.18,-358.23 758.37,-349.58"/>
<polygon fill="#63b8ff" stroke="#63b8ff" points="821.2,-355.8 812.63,-349.58 815.45,-359.79 821.2,-355.8"/>
</a>
</g>
</g>
<!-- Node2 -->
<g id="Node000002" class="node">
<title>Node2</title>
<g id="a_Node000002"><a xlink:href="classcbrc_1_1FLEArray.html#a8ad720580aee561cf8e2fa6aed6ba52e" target="_top" xlink:title=" ">
<polygon fill="white" stroke="#666666" points="676,-672.5 541,-672.5 541,-653.5 676,-653.5 676,-672.5"/>
<text text-anchor="middle" x="608.5" y="-660.5" font-family="Helvetica,sans-Serif" font-size="10.00">cbrc::FLEArray::FLEArray</text>
</a>
</g>
</g>
<!-- Node1&#45;&gt;Node2 -->
<g id="edge1_Node000001_Node000002" class="edge">
<title>Node1&#45;&gt;Node2</title>
<g id="a_edge1_Node000001_Node000002"><a xlink:title=" ">
<path fill="none" stroke="#63b8ff" d="M784.96,-359.77C785.09,-414.11 777.54,-566.9 693,-645 688.1,-649.53 682.34,-653.02 676.18,-655.7"/>
<polygon fill="#63b8ff" stroke="#63b8ff" points="788.46,-359.69 784.84,-349.73 781.46,-359.77 788.46,-359.69"/>
</a>
</g>
</g>
<!-- Node3 -->
<g id="Node000003" class="node">
<title>Node3</title>
<g id="a_Node000003"><a xlink:href="classcbrc_1_1FLESorted.html#aa4a1370b647a6a1b34750af6bee2662b" target="_top" xlink:title=" ">
<polygon fill="white" stroke="#666666" points="681.5,-635.5 535.5,-635.5 535.5,-616.5 681.5,-616.5 681.5,-635.5"/>
<text text-anchor="middle" x="608.5" y="-623.5" font-family="Helvetica,sans-Serif" font-size="10.00">cbrc::FLESorted::FLESorted</text>
</a>
</g>
</g>
<!-- Node1&#45;&gt;Node3 -->
<g id="edge2_Node000001_Node000003" class="edge">
<title>Node1&#45;&gt;Node3</title>
<g id="a_edge2_Node000001_Node000003"><a xlink:title=" ">
<path fill="none" stroke="#63b8ff" d="M783.95,-359.55C781.44,-408.99 767.72,-539.84 693,-607 688.8,-610.78 684,-613.85 678.89,-616.35"/>
<polygon fill="#63b8ff" stroke="#63b8ff" points="787.45,-359.68 784.35,-349.55 780.45,-359.4 787.45,-359.68"/>
</a>
</g>
</g>
<!-- Node4 -->
<g id="Node000004" class="node">
<title>Node4</title>
<g id="a_Node000004"><a xlink:href="namespacecbrc_1_1FLSortedFunctions.html#a807aebc59fb82a52b18c557aa201e479" target="_top" xlink:title=" ">
<polygon fill="white" stroke="#666666" points="674.5,-598 542.5,-598 542.5,-568 674.5,-568 674.5,-598"/>
<text text-anchor="start" x="550.5" y="-586" font-family="Helvetica,sans-Serif" font-size="10.00">cbrc::FLSortedFunctions</text>
<text text-anchor="middle" x="608.5" y="-575" font-family="Helvetica,sans-Serif" font-size="10.00">::read</text>
</a>
</g>
</g>
<!-- Node1&#45;&gt;Node4 -->
<g id="edge3_Node000001_Node000004" class="edge">
<title>Node1&#45;&gt;Node4</title>
<g id="a_edge3_Node000001_Node000004"><a xlink:title=" ">
<path fill="none" stroke="#63b8ff" d="M782.04,-359.5C775.61,-402.18 754.3,-504.42 693,-559 687.59,-563.81 681.28,-567.67 674.59,-570.75"/>
<polygon fill="#63b8ff" stroke="#63b8ff" points="785.51,-359.95 783.43,-349.56 778.58,-358.98 785.51,-359.95"/>
</a>
</g>
</g>
<!-- Node5 -->
<g id="Node000005" class="node">
<title>Node5</title>
<g id="a_Node000005"><a xlink:href="namespacecbrc_1_1vectorMatrix.html#a693902d44177ee47c4d7d214f84b4387" target="_top" xlink:title=" ">
<polygon fill="white" stroke="#666666" points="661,-550 556,-550 556,-520 661,-520 661,-550"/>
<text text-anchor="start" x="564" y="-538" font-family="Helvetica,sans-Serif" font-size="10.00">cbrc::vectorMatrix</text>
<text text-anchor="middle" x="608.5" y="-527" font-family="Helvetica,sans-Serif" font-size="10.00">::read</text>
</a>
</g>
</g>
<!-- Node1&#45;&gt;Node5 -->
<g id="edge4_Node000001_Node000005" class="edge">
<title>Node1&#45;&gt;Node5</title>
<g id="a_edge4_Node000001_Node000005"><a xlink:title=" ">
<path fill="none" stroke="#63b8ff" d="M779.51,-359.53C769.39,-395.11 743.08,-470.53 693,-511 683.85,-518.39 672.52,-523.51 661.2,-527.05"/>
<polygon fill="#63b8ff" stroke="#63b8ff" points="782.89,-360.42 782.13,-349.85 776.14,-358.59 782.89,-360.42"/>
</a>
</g>
</g>
<!-- Node6 -->
<g id="Node000006" class="node">
<title>Node6</title>
<g id="a_Node000006"><a xlink:href="classcbrc_1_1FLESorted.html#a0d1ef8b3c67f32dee7151650038a6a5c" target="_top" xlink:title=" ">
<polygon fill="white" stroke="#666666" points="668,-501.5 549,-501.5 549,-482.5 668,-482.5 668,-501.5"/>
<text text-anchor="middle" x="608.5" y="-489.5" font-family="Helvetica,sans-Serif" font-size="10.00">cbrc::FLESorted::read</text>
</a>
</g>
</g>
<!-- Node1&#45;&gt;Node6 -->
<g id="edge6_Node000001_Node000006" class="edge">
<title>Node1&#45;&gt;Node6</title>
<g id="a_edge6_Node000001_Node000006"><a xlink:title=" ">
<path fill="none" stroke="#63b8ff" d="M776.96,-359.23C764.3,-388.83 735.89,-445.16 693,-474 685.62,-478.97 677.11,-482.59 668.41,-485.23"/>
<polygon fill="#63b8ff" stroke="#63b8ff" points="780.34,-360.21 780.9,-349.63 773.86,-357.55 780.34,-360.21"/>
</a>
</g>
</g>
<!-- Node7 -->
<g id="Node000007" class="node">
<title>Node7</title>
<g id="a_Node000007"><a xlink:href="classcbrc_1_1MallocArray.html#a38a966a319f9d565171f0a962421df02" target="_top" xlink:title=" ">
<polygon fill="white" stroke="#666666" points="672.5,-464.5 544.5,-464.5 544.5,-445.5 672.5,-445.5 672.5,-464.5"/>
<text text-anchor="middle" x="608.5" y="-452.5" font-family="Helvetica,sans-Serif" font-size="10.00">cbrc::MallocArray::read</text>
</a>
</g>
</g>
<!-- Node1&#45;&gt;Node7 -->
<g id="edge7_Node000001_Node000007" class="edge">
<title>Node1&#45;&gt;Node7</title>
<g id="a_edge7_Node000001_Node000007"><a xlink:title=" ">
<path fill="none" stroke="#63b8ff" d="M772.4,-358.1C756.73,-380.04 727.33,-416.5 693,-436 686.15,-439.89 678.56,-442.99 670.82,-445.45"/>
<polygon fill="#63b8ff" stroke="#63b8ff" points="775.42,-359.89 778.24,-349.68 769.67,-355.89 775.42,-359.89"/>
</a>
</g>
</g>
<!-- Node8 -->
<g id="Node000008" class="node">
<title>Node8</title>
<g id="a_Node000008"><a xlink:href="classcbrc_1_1ResidueIndexedSequence.html#ac11f3945771f1db002bb65c6aae55b95" target="_top" xlink:title=" ">
<polygon fill="white" stroke="#666666" points="692,-427 525,-427 525,-397 692,-397 692,-427"/>
<text text-anchor="start" x="533" y="-415" font-family="Helvetica,sans-Serif" font-size="10.00">cbrc::ResidueIndexedSequence</text>
<text text-anchor="middle" x="608.5" y="-404" font-family="Helvetica,sans-Serif" font-size="10.00">::read</text>
</a>
</g>
</g>
<!-- Node1&#45;&gt;Node8 -->
<g id="edge8_Node000001_Node000008" class="edge">
<title>Node1&#45;&gt;Node8</title>
<g id="a_edge8_Node000001_Node000008"><a xlink:title=" ">
<path fill="none" stroke="#63b8ff" d="M760.05,-354.58C741.98,-364.91 716.53,-378.56 693,-388 684.88,-391.26 676.15,-394.27 667.51,-396.98"/>
<polygon fill="#63b8ff" stroke="#63b8ff" points="761.88,-357.56 768.77,-349.52 758.37,-351.5 761.88,-357.56"/>
</a>
</g>
</g>
<!-- Node10 -->
<g id="Node000010" class="node">
<title>Node10</title>
<g id="a_Node000010"><a xlink:href="classcbrc_1_1RecountNeighborList.html#a30923b03733e82c439caab42bddc9137" target="_top" xlink:title=" ">
<polygon fill="white" stroke="#666666" points="680.5,-379 536.5,-379 536.5,-349 680.5,-349 680.5,-379"/>
<text text-anchor="start" x="544.5" y="-367" font-family="Helvetica,sans-Serif" font-size="10.00">cbrc::RecountNeighborList</text>
<text text-anchor="middle" x="608.5" y="-356" font-family="Helvetica,sans-Serif" font-size="10.00">::read</text>
</a>
</g>
</g>
<!-- Node1&#45;&gt;Node10 -->
<g id="edge10_Node000001_Node000010" class="edge">
<title>Node1&#45;&gt;Node10</title>
<g id="a_edge10_Node000001_Node000010"><a xlink:title=" ">
<path fill="none" stroke="#63b8ff" d="M718.41,-349.06C706.03,-350.76 693.04,-352.54 680.51,-354.26"/>
<polygon fill="#63b8ff" stroke="#63b8ff" points="719.22,-352.49 728.65,-347.66 718.26,-345.55 719.22,-352.49"/>
</a>
</g>
</g>
<!-- Node19 -->
<g id="Node000019" class="node">
<title>Node19</title>
<g id="a_Node000019"><a xlink:href="classcbrc_1_1Sigma4FLArray.html#a5e39b1484abcc17ab8ec03d2d5cf2b22" target="_top" xlink:title=" ">
<polygon fill="white" stroke="#666666" points="667.5,-331 549.5,-331 549.5,-301 667.5,-301 667.5,-331"/>
<text text-anchor="start" x="557.5" y="-319" font-family="Helvetica,sans-Serif" font-size="10.00">cbrc::Sigma4FLArray</text>
<text text-anchor="middle" x="608.5" y="-308" font-family="Helvetica,sans-Serif" font-size="10.00">::read</text>
</a>
</g>
</g>
<!-- Node1&#45;&gt;Node19 -->
<g id="edge24_Node000001_Node000019" class="edge">
<title>Node1&#45;&gt;Node19</title>
<g id="a_edge24_Node000001_Node000019"><a xlink:title=" ">
<path fill="none" stroke="#63b8ff" d="M718.4,-330.93C701.67,-328.64 683.83,-326.19 667.53,-323.96"/>
<polygon fill="#63b8ff" stroke="#63b8ff" points="718.26,-334.45 728.65,-332.34 719.22,-327.51 718.26,-334.45"/>
</a>
</g>
</g>
<!-- Node21 -->
<g id="Node000021" class="node">
<title>Node21</title>
<g id="a_Node000021"><a xlink:href="namespacecbrc_1_1binaryIO.html#a181fc6c1b04986051a53ee38649e886e" target="_top" xlink:title=" ">
<polygon fill="white" stroke="#666666" points="664.5,-226.5 552.5,-226.5 552.5,-207.5 664.5,-207.5 664.5,-226.5"/>
<text text-anchor="middle" x="608.5" y="-214.5" font-family="Helvetica,sans-Serif" font-size="10.00">cbrc::binaryIO::read</text>
</a>
</g>
</g>
<!-- Node1&#45;&gt;Node21 -->
<g id="edge26_Node000001_Node000021" class="edge">
<title>Node1&#45;&gt;Node21</title>
<g id="a_edge26_Node000001_Node000021"><a xlink:title=" ">
<path fill="none" stroke="#63b8ff" d="M768.11,-323.11C750.6,-305.65 721.49,-278.29 693,-259 673.65,-245.9 649.65,-234.25 632.35,-226.56"/>
<polygon fill="#63b8ff" stroke="#63b8ff" points="765.78,-325.72 775.3,-330.37 770.75,-320.8 765.78,-325.72"/>
</a>
</g>
</g>
<!-- Node22 -->
<g id="Node000022" class="node">
<title>Node22</title>
<g id="a_Node000022"><a xlink:href="namespacecbrc_1_1binaryIO.html#a897e800894b9d19a43d39bf1c2cd3572" target="_top" xlink:title=" ">
<polygon fill="white" stroke="#666666" points="460.5,-254.5 348.5,-254.5 348.5,-235.5 460.5,-235.5 460.5,-254.5"/>
<text text-anchor="middle" x="404.5" y="-242.5" font-family="Helvetica,sans-Serif" font-size="10.00">cbrc::binaryIO::read</text>
</a>
</g>
</g>
<!-- Node1&#45;&gt;Node22 -->
<g id="edge30_Node000001_Node000022" class="edge">
<title>Node1&#45;&gt;Node22</title>
<g id="a_edge30_Node000001_Node000022"><a xlink:title=" ">
<path fill="none" stroke="#63b8ff" d="M761.32,-325.16C743.36,-314.34 717.48,-300.18 693,-292 614.69,-265.83 519.35,-253.92 460.53,-248.73"/>
<polygon fill="#63b8ff" stroke="#63b8ff" points="759.59,-328.21 769.94,-330.47 763.26,-322.24 759.59,-328.21"/>
</a>
</g>
</g>
<!-- Node23 -->
<g id="Node000023" class="node">
<title>Node23</title>
<g id="a_Node000023"><a xlink:href="namespacecbrc_1_1binaryIO.html#a59b9722cb86f940afd4ecfc18b3c5f04" target="_top" xlink:title=" ">
<polygon fill="white" stroke="#666666" points="664.5,-189.5 552.5,-189.5 552.5,-170.5 664.5,-170.5 664.5,-189.5"/>
<text text-anchor="middle" x="608.5" y="-177.5" font-family="Helvetica,sans-Serif" font-size="10.00">cbrc::binaryIO::read</text>
</a>
</g>
</g>
<!-- Node1&#45;&gt;Node23 -->
<g id="edge29_Node000001_Node000023" class="edge">
<title>Node1&#45;&gt;Node23</title>
<g id="a_edge29_Node000001_Node000023"><a xlink:title=" ">
<path fill="none" stroke="#63b8ff" d="M777.62,-320.5C765.58,-289.39 737.66,-228.9 693,-198 684.59,-192.18 674.64,-188.19 664.6,-185.46"/>
<polygon fill="#63b8ff" stroke="#63b8ff" points="774.45,-322.03 781.21,-330.18 781.01,-319.59 774.45,-322.03"/>
</a>
</g>
</g>
<!-- Node24 -->
<g id="Node000024" class="node">
<title>Node24</title>
<g id="a_Node000024"><a xlink:href="classcbrc_1_1FLEArray.html#a1e3e51a41a274b2e896d921b8ee2be11" target="_top" xlink:title=" ">
<polygon fill="white" stroke="#666666" points="664.5,-152.5 552.5,-152.5 552.5,-133.5 664.5,-133.5 664.5,-152.5"/>
<text text-anchor="middle" x="608.5" y="-140.5" font-family="Helvetica,sans-Serif" font-size="10.00">cbrc::FLEArray::skip</text>
</a>
</g>
</g>
<!-- Node1&#45;&gt;Node24 -->
<g id="edge31_Node000001_Node000024" class="edge">
<title>Node1&#45;&gt;Node24</title>
<g id="a_edge31_Node000001_Node000024"><a xlink:title=" ">
<path fill="none" stroke="#63b8ff" d="M780.31,-320.29C771.3,-282.97 746.42,-202.05 693,-161 684.77,-154.67 674.8,-150.46 664.65,-147.68"/>
<polygon fill="#63b8ff" stroke="#63b8ff" points="776.98,-321.41 782.61,-330.38 783.8,-319.85 776.98,-321.41"/>
</a>
</g>
</g>
<!-- Node25 -->
<g id="Node000025" class="node">
<title>Node25</title>
<g id="a_Node000025"><a xlink:href="namespacecbrc_1_1binaryIO.html#af7788788e9ef1ed6c6bb8da8c05c8afc" target="_top" xlink:title=" ">
<polygon fill="white" stroke="#666666" points="680,-115.5 537,-115.5 537,-96.5 680,-96.5 680,-115.5"/>
<text text-anchor="middle" x="608.5" y="-103.5" font-family="Helvetica,sans-Serif" font-size="10.00">cbrc::binaryIO::traceOrDie</text>
</a>
</g>
</g>
<!-- Node1&#45;&gt;Node25 -->
<g id="edge32_Node000001_Node000025" class="edge">
<title>Node1&#45;&gt;Node25</title>
<g id="a_edge32_Node000001_Node000025"><a xlink:title=" ">
<path fill="none" stroke="#63b8ff" d="M782.22,-320.46C776.14,-277.73 755.51,-175.72 693,-124 689,-120.69 684.53,-117.95 679.8,-115.69"/>
<polygon fill="#63b8ff" stroke="#63b8ff" points="778.75,-320.95 783.52,-330.41 785.69,-320.04 778.75,-320.95"/>
</a>
</g>
</g>
<!-- Node26 -->
<g id="Node000026" class="node">
<title>Node26</title>
<g id="a_Node000026"><a xlink:href="classcbrc_1_1TrivialHistogram.html#a1bb09652921e890e613ba122480d777b" target="_top" xlink:title=" ">
<polygon fill="white" stroke="#666666" points="670,-78 547,-78 547,-48 670,-48 670,-78"/>
<text text-anchor="start" x="555" y="-66" font-family="Helvetica,sans-Serif" font-size="10.00">cbrc::TrivialHistogram</text>
<text text-anchor="middle" x="608.5" y="-55" font-family="Helvetica,sans-Serif" font-size="10.00">::TrivialHistogram</text>
</a>
</g>
</g>
<!-- Node1&#45;&gt;Node26 -->
<g id="edge33_Node000001_Node000026" class="edge">
<title>Node1&#45;&gt;Node26</title>
<g id="a_edge33_Node000001_Node000026"><a xlink:title=" ">
<path fill="none" stroke="#63b8ff" d="M783.25,-320.13C779.18,-272.64 762.18,-151.69 693,-87 686.5,-80.92 678.56,-76.37 670.19,-72.97"/>
<polygon fill="#63b8ff" stroke="#63b8ff" points="779.78,-320.6 784.02,-330.31 786.76,-320.07 779.78,-320.6"/>
</a>
</g>
</g>
<!-- Node27 -->
<g id="Node000027" class="node">
<title>Node27</title>
<g id="a_Node000027"><a xlink:href="classcbrc_1_1TrivialUnsignedHistogram.html#a26187ece19f500c6e90e805fd95b9e8a" target="_top" xlink:title=" ">
<polygon fill="white" stroke="#666666" points="693,-30 524,-30 524,0 693,0 693,-30"/>
<text text-anchor="start" x="532" y="-18" font-family="Helvetica,sans-Serif" font-size="10.00">cbrc::TrivialUnsignedHistogram</text>
<text text-anchor="middle" x="608.5" y="-7" font-family="Helvetica,sans-Serif" font-size="10.00">::TrivialUnsignedHistogram</text>
</a>
</g>
</g>
<!-- Node1&#45;&gt;Node27 -->
<g id="edge34_Node000001_Node000027" class="edge">
<title>Node1&#45;&gt;Node27</title>
<g id="a_edge34_Node000001_Node000027"><a xlink:title=" ">
<path fill="none" stroke="#63b8ff" d="M784.58,-320.08C783.69,-266.59 773.66,-118.45 693,-39 689.56,-35.61 685.68,-32.7 681.51,-30.19"/>
<polygon fill="#63b8ff" stroke="#63b8ff" points="781.09,-320.29 784.66,-330.27 788.08,-320.24 781.09,-320.29"/>
</a>
</g>
</g>
<!-- Node9 -->
<g id="Node000009" class="node">
<title>Node9</title>
<g id="a_Node000009"><a xlink:href="classcbrc_1_1ResidueIndexedSequence.html#ab9f7be97236171a4c6fac58754ee811e" target="_top" xlink:title=" ">
<polygon fill="white" stroke="#666666" points="488,-451 321,-451 321,-421 488,-421 488,-451"/>
<text text-anchor="start" x="329" y="-439" font-family="Helvetica,sans-Serif" font-size="10.00">cbrc::ResidueIndexedSequence</text>
<text text-anchor="middle" x="404.5" y="-428" font-family="Helvetica,sans-Serif" font-size="10.00">::ResidueIndexedSequence</text>
</a>
</g>
</g>
<!-- Node8&#45;&gt;Node9 -->
<g id="edge9_Node000008_Node000009" class="edge">
<title>Node8&#45;&gt;Node9</title>
<g id="a_edge9_Node000008_Node000009"><a xlink:title=" ">
<path fill="none" stroke="#63b8ff" d="M514.77,-423.02C505.88,-424.07 496.9,-425.14 488.12,-426.18"/>
<polygon fill="#63b8ff" stroke="#63b8ff" points="515.24,-426.49 524.76,-421.83 514.41,-419.54 515.24,-426.49"/>
</a>
</g>
</g>
<!-- Node11 -->
<g id="Node000011" class="node">
<title>Node11</title>
<g id="a_Node000011"><a xlink:href="classcbrc_1_1RecountNeighborProbGraphOnDisk.html#a0a8db15dcb82bd036d025ffd258003a0" target="_top" xlink:title=" ">
<polygon fill="white" stroke="#666666" points="482,-403 327,-403 327,-373 482,-373 482,-403"/>
<text text-anchor="start" x="335" y="-391" font-family="Helvetica,sans-Serif" font-size="10.00">cbrc::RecountNeighborProb</text>
<text text-anchor="middle" x="404.5" y="-380" font-family="Helvetica,sans-Serif" font-size="10.00">GraphOnDisk::readFirstNode</text>
</a>
</g>
</g>
<!-- Node10&#45;&gt;Node11 -->
<g id="edge11_Node000010_Node000011" class="edge">
<title>Node10&#45;&gt;Node11</title>
<g id="a_edge11_Node000010_Node000011"><a xlink:title=" ">
<path fill="none" stroke="#63b8ff" d="M526.32,-373.65C511.78,-375.37 496.66,-377.17 482.25,-378.88"/>
<polygon fill="#63b8ff" stroke="#63b8ff" points="526.77,-377.12 536.28,-372.46 525.94,-370.17 526.77,-377.12"/>
</a>
</g>
</g>
<!-- Node18 -->
<g id="Node000018" class="node">
<title>Node18</title>
<g id="a_Node000018"><a xlink:href="classcbrc_1_1RecountNeighborProbGraphOnDisk.html#aaa8a3a966c7d7b880fa23d0e7626ea23" target="_top" xlink:title=" ">
<polygon fill="white" stroke="#666666" points="483.5,-355 325.5,-355 325.5,-325 483.5,-325 483.5,-355"/>
<text text-anchor="start" x="333.5" y="-343" font-family="Helvetica,sans-Serif" font-size="10.00">cbrc::RecountNeighborProb</text>
<text text-anchor="middle" x="404.5" y="-332" font-family="Helvetica,sans-Serif" font-size="10.00">GraphOnDisk::readNextNode</text>
</a>
</g>
</g>
<!-- Node10&#45;&gt;Node18 -->
<g id="edge18_Node000010_Node000018" class="edge">
<title>Node10&#45;&gt;Node18</title>
<g id="a_edge18_Node000010_Node000018"><a xlink:title=" ">
<path fill="none" stroke="#63b8ff" d="M526.17,-354.34C512.14,-352.67 497.58,-350.94 483.63,-349.28"/>
<polygon fill="#63b8ff" stroke="#63b8ff" points="525.94,-357.83 536.28,-355.54 526.77,-350.88 525.94,-357.83"/>
</a>
</g>
</g>
<!-- Node12 -->
<g id="Node000012" class="node">
<title>Node12</title>
<g id="a_Node000012"><a xlink:href="namespacecbrc.html#a24f7f1e8980585e72ccf8b7892e66f36" target="_top" xlink:title=" ">
<polygon fill="white" stroke="#666666" points="258.5,-427 103.5,-427 103.5,-397 258.5,-397 258.5,-427"/>
<text text-anchor="start" x="111.5" y="-415" font-family="Helvetica,sans-Serif" font-size="10.00">cbrc::dumpRecountNeighbor</text>
<text text-anchor="middle" x="181" y="-404" font-family="Helvetica,sans-Serif" font-size="10.00">ProbGraphOnDisk</text>
</a>
</g>
</g>
<!-- Node11&#45;&gt;Node12 -->
<g id="edge12_Node000011_Node000012" class="edge">
<title>Node11&#45;&gt;Node12</title>
<g id="a_edge12_Node000011_Node000012"><a xlink:title=" ">
<path fill="none" stroke="#63b8ff" d="M316.99,-397.37C297.7,-399.46 277.39,-401.66 258.54,-403.71"/>
<polygon fill="#63b8ff" stroke="#63b8ff" points="317.4,-400.85 326.96,-396.29 316.64,-393.89 317.4,-400.85"/>
</a>
</g>
</g>
<!-- Node14 -->
<g id="Node000014" class="node">
<title>Node14</title>
<g id="a_Node000014"><a xlink:href="classcbrc_1_1RecountComputerForGraphOnDisk.html#aee9119b27415ef994a51e9fd079b8439" target="_top" xlink:title=" ">
<polygon fill="white" stroke="#666666" points="278,-379 84,-379 84,-349 278,-349 278,-379"/>
<text text-anchor="start" x="92" y="-367" font-family="Helvetica,sans-Serif" font-size="10.00">cbrc::RecountComputerFor</text>
<text text-anchor="middle" x="181" y="-356" font-family="Helvetica,sans-Serif" font-size="10.00">GraphOnDisk::meanCountsFromTrue</text>
</a>
</g>
</g>
<!-- Node11&#45;&gt;Node14 -->
<g id="edge14_Node000011_Node000014" class="edge">
<title>Node11&#45;&gt;Node14</title>
<g id="a_edge14_Node000011_Node000014"><a xlink:title=" ">
<path fill="none" stroke="#63b8ff" d="M316.87,-378.61C304.15,-377.23 290.98,-375.81 278.08,-374.41"/>
<polygon fill="#63b8ff" stroke="#63b8ff" points="316.64,-382.11 326.96,-379.71 317.4,-375.15 316.64,-382.11"/>
</a>
</g>
</g>
<!-- Node15 -->
<g id="Node000015" class="node">
<title>Node15</title>
<g id="a_Node000015"><a xlink:href="classcbrc_1_1RecountComputerForGraphOnDisk.html#a88d2ea948f615339b406e08768f41029" target="_top" xlink:title=" ">
<polygon fill="white" stroke="#666666" points="278,-331 84,-331 84,-301 278,-301 278,-331"/>
<text text-anchor="start" x="92" y="-319" font-family="Helvetica,sans-Serif" font-size="10.00">cbrc::RecountComputerFor</text>
<text text-anchor="middle" x="181" y="-308" font-family="Helvetica,sans-Serif" font-size="10.00">GraphOnDisk::meanCountsFromTrue</text>
</a>
</g>
</g>
<!-- Node11&#45;&gt;Node15 -->
<g id="edge15_Node000011_Node000015" class="edge">
<title>Node11&#45;&gt;Node15</title>
<g id="a_edge15_Node000011_Node000015"><a xlink:title=" ">
<path fill="none" stroke="#63b8ff" d="M334.25,-369.57C329.71,-367.84 325.26,-365.98 321,-364 303.57,-355.89 302.65,-347.64 285,-340 277.08,-336.57 268.6,-333.59 260.02,-331.02"/>
<polygon fill="#63b8ff" stroke="#63b8ff" points="333.07,-372.86 343.67,-372.95 335.44,-366.28 333.07,-372.86"/>
</a>
</g>
</g>
<!-- Node16 -->
<g id="Node000016" class="node">
<title>Node16</title>
<g id="a_Node000016"><a xlink:href="classcbrc_1_1RecountComputerForGraphOnDisk.html#a9ec4f1d1273a0cda2bb005bcedc056f6" target="_top" xlink:title=" ">
<polygon fill="white" stroke="#666666" points="285,-283 77,-283 77,-253 285,-253 285,-283"/>
<text text-anchor="start" x="85" y="-271" font-family="Helvetica,sans-Serif" font-size="10.00">cbrc::RecountComputerFor</text>
<text text-anchor="middle" x="181" y="-260" font-family="Helvetica,sans-Serif" font-size="10.00">GraphOnDisk::varianceCountsFromTrue</text>
</a>
</g>
</g>
<!-- Node11&#45;&gt;Node16 -->
<g id="edge16_Node000011_Node000016" class="edge">
<title>Node11&#45;&gt;Node16</title>
<g id="a_edge16_Node000011_Node000016"><a xlink:title=" ">
<path fill="none" stroke="#63b8ff" d="M325.83,-367.67C324.16,-366.51 322.55,-365.29 321,-364 293.52,-341.09 313.09,-314.16 285,-292 280.68,-288.59 275.95,-285.65 270.98,-283.11"/>
<polygon fill="#63b8ff" stroke="#63b8ff" points="324.2,-370.77 334.57,-372.91 327.8,-364.77 324.2,-370.77"/>
</a>
</g>
</g>
<!-- Node17 -->
<g id="Node000017" class="node">
<title>Node17</title>
<g id="a_Node000017"><a xlink:href="classcbrc_1_1RecountComputerForGraphOnDisk.html#a5d0f07fd22c5c6f153a4d4a659ac585d" target="_top" xlink:title=" ">
<polygon fill="white" stroke="#666666" points="285,-475 77,-475 77,-445 285,-445 285,-475"/>
<text text-anchor="start" x="85" y="-463" font-family="Helvetica,sans-Serif" font-size="10.00">cbrc::RecountComputerFor</text>
<text text-anchor="middle" x="181" y="-452" font-family="Helvetica,sans-Serif" font-size="10.00">GraphOnDisk::varianceCountsFromTrue</text>
</a>
</g>
</g>
<!-- Node11&#45;&gt;Node17 -->
<g id="edge17_Node000011_Node000017" class="edge">
<title>Node11&#45;&gt;Node17</title>
<g id="a_edge17_Node000011_Node000017"><a xlink:title=" ">
<path fill="none" stroke="#63b8ff" d="M334.25,-406.43C329.71,-408.16 325.26,-410.02 321,-412 303.57,-420.11 302.65,-428.36 285,-436 277.08,-439.43 268.6,-442.41 260.02,-444.98"/>
<polygon fill="#63b8ff" stroke="#63b8ff" points="335.44,-409.72 343.67,-403.05 333.07,-403.14 335.44,-409.72"/>
</a>
</g>
</g>
<!-- Node13 -->
<g id="Node000013" class="node">
<title>Node13</title>
<g id="a_Node000013"><a xlink:href="dumpRecountNeighborProbGraphOnDisk_8cc.html#ac0f2228420376f4db7e1274f2b41667c" target="_top" xlink:title=" ">
<polygon fill="white" stroke="#666666" points="41,-421.5 0,-421.5 0,-402.5 41,-402.5 41,-421.5"/>
<text text-anchor="middle" x="20.5" y="-409.5" font-family="Helvetica,sans-Serif" font-size="10.00">main</text>
</a>
</g>
</g>
<!-- Node12&#45;&gt;Node13 -->
<g id="edge13_Node000012_Node000013" class="edge">
<title>Node12&#45;&gt;Node13</title>
<g id="a_edge13_Node000012_Node000013"><a xlink:title=" ">
<path fill="none" stroke="#63b8ff" d="M92.89,-412C73.49,-412 54.73,-412 41.31,-412"/>
<polygon fill="#63b8ff" stroke="#63b8ff" points="93.07,-415.5 103.07,-412 93.07,-408.5 93.07,-415.5"/>
</a>
</g>
</g>
<!-- Node18&#45;&gt;Node12 -->
<g id="edge19_Node000018_Node000012" class="edge">
<title>Node18&#45;&gt;Node12</title>
<g id="a_edge19_Node000018_Node000012"><a xlink:title=" ">
<path fill="none" stroke="#63b8ff" d="M334.25,-358.43C329.71,-360.16 325.26,-362.02 321,-364 303.57,-372.11 302.65,-380.36 285,-388 276.66,-391.61 267.69,-394.72 258.65,-397.39"/>
<polygon fill="#63b8ff" stroke="#63b8ff" points="335.44,-361.72 343.67,-355.05 333.07,-355.14 335.44,-361.72"/>
</a>
</g>
</g>
<!-- Node18&#45;&gt;Node14 -->
<g id="edge20_Node000018_Node000014" class="edge">
<title>Node18&#45;&gt;Node14</title>
<g id="a_edge20_Node000018_Node000014"><a xlink:title=" ">
<path fill="none" stroke="#63b8ff" d="M315.24,-349.56C303,-350.89 290.39,-352.26 278.02,-353.6"/>
<polygon fill="#63b8ff" stroke="#63b8ff" points="315.84,-353.02 325.41,-348.46 315.09,-346.06 315.84,-353.02"/>
</a>
</g>
</g>
<!-- Node18&#45;&gt;Node15 -->
<g id="edge21_Node000018_Node000015" class="edge">
<title>Node18&#45;&gt;Node15</title>
<g id="a_edge21_Node000018_Node000015"><a xlink:title=" ">
<path fill="none" stroke="#63b8ff" d="M315.24,-330.44C303,-329.11 290.39,-327.74 278.02,-326.4"/>
<polygon fill="#63b8ff" stroke="#63b8ff" points="315.09,-333.94 325.41,-331.54 315.84,-326.98 315.09,-333.94"/>
</a>
</g>
</g>
<!-- Node18&#45;&gt;Node16 -->
<g id="edge22_Node000018_Node000016" class="edge">
<title>Node18&#45;&gt;Node16</title>
<g id="a_edge22_Node000018_Node000016"><a xlink:title=" ">
<path fill="none" stroke="#63b8ff" d="M334.25,-321.57C329.71,-319.84 325.26,-317.98 321,-316 303.57,-307.89 302.65,-299.64 285,-292 277.08,-288.57 268.6,-285.59 260.02,-283.02"/>
<polygon fill="#63b8ff" stroke="#63b8ff" points="333.07,-324.86 343.67,-324.95 335.44,-318.28 333.07,-324.86"/>
</a>
</g>
</g>
<!-- Node18&#45;&gt;Node17 -->
<g id="edge23_Node000018_Node000017" class="edge">
<title>Node18&#45;&gt;Node17</title>
<g id="a_edge23_Node000018_Node000017"><a xlink:title=" ">
<path fill="none" stroke="#63b8ff" d="M325.83,-360.33C324.16,-361.49 322.55,-362.71 321,-364 293.52,-386.91 313.09,-413.84 285,-436 280.68,-439.41 275.95,-442.35 270.98,-444.89"/>
<polygon fill="#63b8ff" stroke="#63b8ff" points="327.8,-363.23 334.57,-355.09 324.2,-357.23 327.8,-363.23"/>
</a>
</g>
</g>
<!-- Node20 -->
<g id="Node000020" class="node">
<title>Node20</title>
<g id="a_Node000020"><a xlink:href="classcbrc_1_1Sigma4FLArray.html#aad29ef74aca295b0030fa1832c807bf1" target="_top" xlink:title=" ">
<polygon fill="white" stroke="#666666" points="463.5,-307 345.5,-307 345.5,-277 463.5,-277 463.5,-307"/>
<text text-anchor="start" x="353.5" y="-295" font-family="Helvetica,sans-Serif" font-size="10.00">cbrc::Sigma4FLArray</text>
<text text-anchor="middle" x="404.5" y="-284" font-family="Helvetica,sans-Serif" font-size="10.00">::Sigma4FLArray</text>
</a>
</g>
</g>
<!-- Node19&#45;&gt;Node20 -->
<g id="edge25_Node000019_Node000020" class="edge">
<title>Node19&#45;&gt;Node20</title>
<g id="a_edge25_Node000019_Node000020"><a xlink:title=" ">
<path fill="none" stroke="#63b8ff" d="M539.36,-307.9C514.77,-304.98 487.25,-301.71 463.59,-298.9"/>
<polygon fill="#63b8ff" stroke="#63b8ff" points="539,-311.39 549.34,-309.09 539.83,-304.43 539,-311.39"/>
</a>
</g>
</g>
<!-- Node21&#45;&gt;Node21 -->
<g id="edge27_Node000021_Node000021" class="edge">
<title>Node21&#45;&gt;Node21</title>
<g id="a_edge27_Node000021_Node000021"><a xlink:title=" ">
<path fill="none" stroke="#63b8ff" d="M641.43,-234.95C640.5,-240.32 629.52,-244.5 608.5,-244.5 577.22,-244.5 568.18,-235.23 581.37,-226.58"/>
<polygon fill="#63b8ff" stroke="#63b8ff" points="644.2,-232.8 635.63,-226.58 638.45,-236.79 644.2,-232.8"/>
</a>
</g>
</g>
<!-- Node21&#45;&gt;Node22 -->
<g id="edge28_Node000021_Node000022" class="edge">
<title>Node21&#45;&gt;Node22</title>
<g id="a_edge28_Node000021_Node000022"><a xlink:title=" ">
<path fill="none" stroke="#63b8ff" d="M542.4,-226.02C516.02,-229.68 485.9,-233.86 460.63,-237.36"/>
<polygon fill="#63b8ff" stroke="#63b8ff" points="542.88,-229.49 552.3,-224.65 541.92,-222.56 542.88,-229.49"/>
</a>
</g>
</g>
</g>
</svg>

<g id="navigator" transform="translate(0 0)" fill="#404254">
  <rect fill="#f2f5e9" fill-opacity="0.5" stroke="#606060" stroke-width=".5" x="0" y="0" width="60" height="60"/>
  <use id="zoomplus" xlink:href="#zoomPlus" x="17" y="9" onmousedown="handleZoom(evt,'in')"/>
  <use id="zoomminus" xlink:href="#zoomMin" x="42" y="9" onmousedown="handleZoom(evt,'out')"/>
  <use id="reset" xlink:href="#resetDef" x="30" y="36" onmousedown="handleReset()"/>
   <use id="arrowup" xlink:href="#arrowUp" x="0" y="0" onmousedown="handlePan(0,-1)"/>
  <use id="arrowright" xlink:href="#arrowRight" x="0" y="0" onmousedown="handlePan(1,0)"/>
  <use id="arrowdown" xlink:href="#arrowDown" x="0" y="0" onmousedown="handlePan(0,1)"/>
  <use id="arrowleft" xlink:href="#arrowLeft" x="0" y="0" onmousedown="handlePan(-1,0)"/>
</g>
<svg viewBox="0 0 15 15" width="100%" height="30px" preserveAspectRatio="xMaxYMin meet">
 <g id="arrow_out" transform="scale(0.3 0.3)">
  <a xlink:href="classcbrc_1_1FLEArray_ab4f853671d71b67a4771b5199af8d8f8_icgraph_org.svg" target="_base">
   <rect id="button" ry="5" rx="5" y="6" x="6" height="38" width="38"
        fill="#f2f5e9" fill-opacity="0.5" stroke="#606060" stroke-width="1.0"/>
   <path id="arrow"
     d="M 11.500037,31.436501 C 11.940474,20.09759 22.043105,11.32322 32.158766,21.979434 L 37.068811,17.246167 C 37.068811,17.246167 37.088388,32 37.088388,32 L 22.160133,31.978069 C 22.160133,31.978069 26.997745,27.140456 26.997745,27.140456 C 18.528582,18.264221 13.291696,25.230495 11.500037,31.436501 z"
     style="fill:#404040;"/>
  </a>
 </g>
</svg>

<style type='text/css'>
<![CDATA[
[data-mouse-over-selected='false'] { opacity: 0.7; }
[data-mouse-over-selected='true']  { opacity: 1.0; }
]]>
</style>
<script type="application/ecmascript"><![CDATA[
document.addEventListener('DOMContentLoaded', (event) => {
  highlightEdges();
  highlightAdjacentNodes();
});
]]></script>
</svg>
