<?xml version="1.0" encoding="UTF-8" standalone="no"?>
<!DOCTYPE svg PUBLIC "-//W3C//DTD SVG 1.1//EN"
 "http://www.w3.org/Graphics/SVG/1.1/DTD/svg11.dtd">
<!-- Generated by graphviz version 2.43.0 (0)
 -->
<!-- Title: cbrc::FLArray&lt; T &gt; Pages: 1 -->
<!--zoomable 508 -->

<svg id="main" version="1.1" xmlns="http://www.w3.org/2000/svg" xmlns:xlink="http://www.w3.org/1999/xlink" xml:space="preserve" onload="init(evt)">
<style type="text/css"><![CDATA[
.node, .edge {opacity: 0.7;}
.node.selected, .edge.selected {opacity: 1;}
.edge:hover path { stroke: red; }
.edge:hover polygon { stroke: red; fill: red; }
]]></style>

<defs>
  <circle id="rim" cx="0" cy="0" r="7"/>
  <circle id="rim2" cx="0" cy="0" r="3.5"/>
  <g id="zoomPlus">
    <use xlink:href="#rim" fill="#404040"><set attributeName="fill" to="#808080" begin="zoomplus.mouseover" end="zoomplus.mouseout"/></use>
    <path d="M-4,0h8M0,-4v8" fill="none" stroke="white" stroke-width="1.5" pointer-events="none"/>
  </g>
  <g id="zoomMin">
    <use xlink:href="#rim" fill="#404040"><set attributeName="fill" to="#808080" begin="zoomminus.mouseover" end="zoomminus.mouseout"/></use>
    <path d="M-4,0h8" fill="none" stroke="white" stroke-width="1.5" pointer-events="none"/>
  </g>
  <g id="arrowUp" transform="translate(30 24)">
    <use xlink:href="#rim"/>
    <path pointer-events="none" fill="none" stroke="white" stroke-width="1.5" d="M0,-3.0v7 M-2.5,-0.5L0,-3.0L2.5,-0.5"/>
  </g>
  <g id="arrowRight" transform="rotate(90) translate(36 -43)">
    <use xlink:href="#rim"/>
    <path pointer-events="none" fill="none" stroke="white" stroke-width="1.5" d="M0,-3.0v7 M-2.5,-0.5L0,-3.0L2.5,-0.5"/>
  </g>
  <g id="arrowDown" transform="rotate(180) translate(-30 -48)">
    <use xlink:href="#rim"/>
    <path pointer-events="none" fill="none" stroke="white" stroke-width="1.5" d="M0,-3.0v7 M-2.5,-0.5L0,-3.0L2.5,-0.5"/>
  </g>
  <g id="arrowLeft" transform="rotate(270) translate(-36 17)">
    <use xlink:href="#rim"/>
    <path pointer-events="none" fill="none" stroke="white" stroke-width="1.5" d="M0,-3.0v7 M-2.5,-0.5L0,-3.0L2.5,-0.5"/>
  </g>
  <g id="resetDef">
    <use xlink:href="#rim2" fill="#404040"><set attributeName="fill" to="#808080" begin="reset.mouseover" end="reset.mouseout"/></use>
  </g>
</defs>
<script type="application/ecmascript">
var viewWidth = 735;
var viewHeight = 508;
var sectionId = 'dynsection-0';
</script>
<script type="application/ecmascript" xlink:href="svg.min.js"/>
<svg id="graph" class="graph">
<g id="viewport">
<title>cbrc::FLArray&lt; T &gt;</title>
<!-- Node1 -->
<g id="Node000001" class="node">
<title>Node1</title>
<g id="a_Node000001"><a xlink:title=" ">
<polygon fill="#999999" stroke="#666666" points="110,-250.85 0,-250.85 0,-231.85 110,-231.85 110,-250.85"/>
<text text-anchor="middle" x="55" y="-238.85" font-family="Helvetica,sans-Serif" font-size="10.00">cbrc::FLArray&lt; T &gt;</text>
</a>
</g>
</g>
<!-- Node2 -->
<g id="Node000002" class="node">
<title>Node2</title>
<g id="a_Node000002"><a xlink:href="classcbrc_1_1FLArrayFast.html" target="_top" xlink:title=" ">
<polygon fill="white" stroke="#666666" points="702,-477.35 593,-477.35 593,-447.35 702,-447.35 702,-477.35"/>
<text text-anchor="start" x="601" y="-465.35" font-family="Helvetica,sans-Serif" font-size="10.00">cbrc::FLArrayFast&lt;</text>
<text text-anchor="middle" x="647.5" y="-454.35" font-family="Helvetica,sans-Serif" font-size="10.00"> elemType &gt;</text>
</a>
</g>
</g>
<!-- Node1&#45;&gt;Node2 -->
<g id="edge1_Node000001_Node000002" class="edge">
<title>Node1&#45;&gt;Node2</title>
<g id="a_edge1_Node000001_Node000002"><a xlink:title=" ">
<path fill="none" stroke="#63b8ff" d="M57.18,-261.16C60.67,-300.12 74.38,-386.45 128,-427.35 266.45,-532.96 490.85,-499.22 592.91,-476.22"/>
<polygon fill="#63b8ff" stroke="#63b8ff" points="60.67,-260.81 56.42,-251.1 53.69,-261.34 60.67,-260.81"/>
</a>
</g>
</g>
<!-- Node3 -->
<g id="Node000003" class="node">
<title>Node3</title>
<g id="a_Node000003"><a xlink:href="classcbrc_1_1FLArrayFast.html" target="_top" xlink:title=" ">
<polygon fill="white" stroke="#666666" points="702,-403.35 593,-403.35 593,-373.35 702,-373.35 702,-403.35"/>
<text text-anchor="start" x="601" y="-391.35" font-family="Helvetica,sans-Serif" font-size="10.00">cbrc::FLArrayFast&lt;</text>
<text text-anchor="middle" x="647.5" y="-380.35" font-family="Helvetica,sans-Serif" font-size="10.00"> residueIndex &gt;</text>
</a>
</g>
</g>
<!-- Node1&#45;&gt;Node3 -->
<g id="edge2_Node000001_Node000003" class="edge">
<title>Node1&#45;&gt;Node3</title>
<g id="a_edge2_Node000001_Node000003"><a xlink:title=" ">
<path fill="none" stroke="#63b8ff" d="M65.88,-259.8C77.8,-280.18 99.82,-312.36 128,-329.35 205.3,-375.95 476.37,-385.76 592.75,-387.81"/>
<polygon fill="#63b8ff" stroke="#63b8ff" points="68.81,-257.86 60.85,-250.86 62.7,-261.29 68.81,-257.86"/>
</a>
</g>
</g>
<!-- Node4 -->
<g id="Node000004" class="node">
<title>Node4</title>
<g id="a_Node000004"><a xlink:href="classcbrc_1_1FLNumArray.html" target="_top" xlink:title=" ">
<polygon fill="white" stroke="#666666" points="727,-346.85 568,-346.85 568,-327.85 727,-327.85 727,-346.85"/>
<text text-anchor="middle" x="647.5" y="-334.85" font-family="Helvetica,sans-Serif" font-size="10.00">cbrc::FLNumArray&lt; double &gt;</text>
</a>
</g>
</g>
<!-- Node1&#45;&gt;Node4 -->
<g id="edge3_Node000001_Node000004" class="edge">
<title>Node1&#45;&gt;Node4</title>
<g id="a_edge3_Node000001_Node000004"><a xlink:title=" ">
<path fill="none" stroke="#63b8ff" d="M73.4,-258.36C87.12,-270.8 107.33,-287.05 128,-296.35 273.34,-361.76 464.73,-356.47 569.59,-346.87"/>
<polygon fill="#63b8ff" stroke="#63b8ff" points="75.44,-255.48 65.75,-251.21 70.66,-260.6 75.44,-255.48"/>
</a>
</g>
</g>
<!-- Node5 -->
<g id="Node000005" class="node">
<title>Node5</title>
<g id="a_Node000005"><a xlink:href="classcbrc_1_1FLArrayFast.html" target="_top" xlink:title=" ">
<polygon fill="white" stroke="#666666" points="424,-429.85 295,-429.85 295,-410.85 424,-410.85 424,-429.85"/>
<text text-anchor="middle" x="359.5" y="-417.85" font-family="Helvetica,sans-Serif" font-size="10.00">cbrc::FLArrayFast&lt; T &gt;</text>
</a>
</g>
</g>
<!-- Node1&#45;&gt;Node5 -->
<g id="edge4_Node000001_Node000005" class="edge">
<title>Node1&#45;&gt;Node5</title>
<g id="a_edge4_Node000001_Node000005"><a xlink:title=" ">
<path fill="none" stroke="#63b8ff" d="M58.87,-261.13C64.92,-295.06 82.43,-363.83 128,-396.35 176.14,-430.71 245,-433.52 294.91,-429.69"/>
<polygon fill="#63b8ff" stroke="#63b8ff" points="62.29,-260.37 57.23,-251.06 55.38,-261.5 62.29,-260.37"/>
</a>
</g>
</g>
<!-- Node6 -->
<g id="Node000006" class="node">
<title>Node6</title>
<g id="a_Node000006"><a xlink:href="classcbrc_1_1FLNumArray.html" target="_top" xlink:title=" ">
<polygon fill="white" stroke="#666666" points="425.5,-315.85 293.5,-315.85 293.5,-296.85 425.5,-296.85 425.5,-315.85"/>
<text text-anchor="middle" x="359.5" y="-303.85" font-family="Helvetica,sans-Serif" font-size="10.00">cbrc::FLNumArray&lt; T &gt;</text>
</a>
</g>
</g>
<!-- Node1&#45;&gt;Node6 -->
<g id="edge7_Node000001_Node000006" class="edge">
<title>Node1&#45;&gt;Node6</title>
<g id="a_edge7_Node000001_Node000006"><a xlink:title=" ">
<path fill="none" stroke="#63b8ff" d="M85.33,-254.93C98.19,-260.42 113.61,-266.39 128,-270.35 182.67,-285.42 246.48,-294.77 293.08,-300.16"/>
<polygon fill="#63b8ff" stroke="#63b8ff" points="86.62,-251.68 76.05,-250.87 83.81,-258.09 86.62,-251.68"/>
</a>
</g>
</g>
<!-- Node8 -->
<g id="Node000008" class="node">
<title>Node8</title>
<g id="a_Node000008"><a xlink:href="classcbrc_1_1FLArray.html" target="_top" xlink:title=" ">
<polygon fill="white" stroke="#666666" points="428,-278.35 291,-278.35 291,-248.35 428,-248.35 428,-278.35"/>
<text text-anchor="start" x="299" y="-266.35" font-family="Helvetica,sans-Serif" font-size="10.00">cbrc::FLArray&lt; unsigned</text>
<text text-anchor="middle" x="359.5" y="-255.35" font-family="Helvetica,sans-Serif" font-size="10.00"> char &gt;</text>
</a>
</g>
</g>
<!-- Node1&#45;&gt;Node8 -->
<g id="edge10_Node000001_Node000008" class="edge">
<title>Node1&#45;&gt;Node8</title>
<g id="a_edge10_Node000001_Node000008"><a xlink:title=" ">
<path fill="none" stroke="orange" stroke-dasharray="5,2" d="M120.16,-246.02C170.31,-249.67 239.83,-254.72 290.85,-258.43"/>
<polygon fill="orange" stroke="orange" points="120.31,-242.52 110.08,-245.29 119.8,-249.5 120.31,-242.52"/>
</a>
</g>
<text text-anchor="middle" x="193" y="-258.35" font-family="Helvetica,sans-Serif" font-size="10.00" fill="grey"> &lt; unsigned char &gt;</text>
</g>
<!-- Node9 -->
<g id="Node000009" class="node">
<title>Node9</title>
<g id="a_Node000009"><a xlink:href="classcbrc_1_1FLArray.html" target="_top" xlink:title=" ">
<polygon fill="white" stroke="#666666" points="417.5,-229.85 301.5,-229.85 301.5,-210.85 417.5,-210.85 417.5,-229.85"/>
<text text-anchor="middle" x="359.5" y="-217.85" font-family="Helvetica,sans-Serif" font-size="10.00">cbrc::FLArray&lt; T0 &gt;</text>
</a>
</g>
</g>
<!-- Node1&#45;&gt;Node9 -->
<g id="edge11_Node000001_Node000009" class="edge">
<title>Node1&#45;&gt;Node9</title>
<g id="a_edge11_Node000001_Node000009"><a xlink:title=" ">
<path fill="none" stroke="orange" stroke-dasharray="5,2" d="M120.28,-231.18C122.89,-230.88 125.47,-230.6 128,-230.35 186.8,-224.6 254.36,-222.16 301.07,-221.12"/>
<polygon fill="orange" stroke="orange" points="119.67,-227.73 110.17,-232.43 120.53,-234.67 119.67,-227.73"/>
</a>
</g>
<text text-anchor="middle" x="193" y="-233.35" font-family="Helvetica,sans-Serif" font-size="10.00" fill="grey"> &lt; T0 &gt;</text>
</g>
<!-- Node10 -->
<g id="Node000010" class="node">
<title>Node10</title>
<g id="a_Node000010"><a xlink:href="classcbrc_1_1FLArray.html" target="_top" xlink:title=" ">
<polygon fill="white" stroke="#666666" points="416,-192.35 303,-192.35 303,-162.35 416,-162.35 416,-192.35"/>
<text text-anchor="start" x="311" y="-180.35" font-family="Helvetica,sans-Serif" font-size="10.00">cbrc::FLArray&lt; cbrc</text>
<text text-anchor="middle" x="359.5" y="-169.35" font-family="Helvetica,sans-Serif" font-size="10.00">::FLSorted&lt; T1 &gt; &gt;</text>
</a>
</g>
</g>
<!-- Node1&#45;&gt;Node10 -->
<g id="edge12_Node000001_Node000010" class="edge">
<title>Node1&#45;&gt;Node10</title>
<g id="a_edge12_Node000001_Node000010"><a xlink:title=" ">
<path fill="none" stroke="orange" stroke-dasharray="5,2" d="M81.39,-226.98C94.84,-219.98 111.88,-212.08 128,-207.35 186.09,-190.32 255.24,-182.95 302.55,-179.76"/>
<polygon fill="orange" stroke="orange" points="79.45,-224.04 72.29,-231.85 82.76,-230.21 79.45,-224.04"/>
</a>
</g>
<text text-anchor="middle" x="193" y="-210.35" font-family="Helvetica,sans-Serif" font-size="10.00" fill="grey"> &lt; cbrc::FLSorted&lt; T1 &gt; &gt;</text>
</g>
<!-- Node11 -->
<g id="Node000011" class="node">
<title>Node11</title>
<g id="a_Node000011"><a xlink:href="classcbrc_1_1FLArray.html" target="_top" xlink:title=" ">
<polygon fill="white" stroke="#666666" points="417.5,-143.85 301.5,-143.85 301.5,-124.85 417.5,-124.85 417.5,-143.85"/>
<text text-anchor="middle" x="359.5" y="-131.85" font-family="Helvetica,sans-Serif" font-size="10.00">cbrc::FLArray&lt; T1 &gt;</text>
</a>
</g>
</g>
<!-- Node1&#45;&gt;Node11 -->
<g id="edge13_Node000001_Node000011" class="edge">
<title>Node1&#45;&gt;Node11</title>
<g id="a_edge13_Node000001_Node000011"><a xlink:title=" ">
<path fill="none" stroke="orange" stroke-dasharray="5,2" d="M68.4,-223.25C81.2,-206.1 102.82,-181.13 128,-168.35 182.47,-140.73 252.88,-133.86 301.47,-132.88"/>
<polygon fill="orange" stroke="orange" points="65.21,-221.68 62.22,-231.84 70.9,-225.76 65.21,-221.68"/>
</a>
</g>
<text text-anchor="middle" x="193" y="-171.35" font-family="Helvetica,sans-Serif" font-size="10.00" fill="grey"> &lt; T1 &gt;</text>
</g>
<!-- Node12 -->
<g id="Node000012" class="node">
<title>Node12</title>
<g id="a_Node000012"><a xlink:href="classcbrc_1_1FLArray.html" target="_top" xlink:title=" ">
<polygon fill="white" stroke="#666666" points="435,-106.85 284,-106.85 284,-87.85 435,-87.85 435,-106.85"/>
<text text-anchor="middle" x="359.5" y="-94.85" font-family="Helvetica,sans-Serif" font-size="10.00">cbrc::FLArray&lt; elemType &gt;</text>
</a>
</g>
</g>
<!-- Node1&#45;&gt;Node12 -->
<g id="edge14_Node000001_Node000012" class="edge">
<title>Node1&#45;&gt;Node12</title>
<g id="a_edge14_Node000001_Node000012"><a xlink:title=" ">
<path fill="none" stroke="orange" stroke-dasharray="5,2" d="M61.44,-221.98C70.34,-194.25 90.86,-143.99 128,-120.35 173.97,-91.1 235.86,-86.37 283.93,-88.4"/>
<polygon fill="orange" stroke="orange" points="58.04,-221.13 58.5,-231.72 64.74,-223.16 58.04,-221.13"/>
</a>
</g>
<text text-anchor="middle" x="193" y="-123.35" font-family="Helvetica,sans-Serif" font-size="10.00" fill="grey"> &lt; elemType &gt;</text>
</g>
<!-- Node13 -->
<g id="Node000013" class="node">
<title>Node13</title>
<g id="a_Node000013"><a xlink:href="classcbrc_1_1FLArray.html" target="_top" xlink:title=" ">
<polygon fill="white" stroke="#666666" points="443,-69.85 276,-69.85 276,-50.85 443,-50.85 443,-69.85"/>
<text text-anchor="middle" x="359.5" y="-57.85" font-family="Helvetica,sans-Serif" font-size="10.00">cbrc::FLArray&lt; residueIndex &gt;</text>
</a>
</g>
</g>
<!-- Node1&#45;&gt;Node13 -->
<g id="edge15_Node000001_Node000013" class="edge">
<title>Node1&#45;&gt;Node13</title>
<g id="a_edge15_Node000001_Node000013"><a xlink:title=" ">
<path fill="none" stroke="orange" stroke-dasharray="5,2" d="M57.89,-221.12C62.52,-184.39 78,-107.3 128,-72.35 184.82,-32.64 270.11,-41.12 319.44,-50.8"/>
<polygon fill="orange" stroke="orange" points="54.36,-221.2 56.74,-231.52 61.32,-221.97 54.36,-221.2"/>
</a>
</g>
<text text-anchor="middle" x="193" y="-75.35" font-family="Helvetica,sans-Serif" font-size="10.00" fill="grey"> &lt; residueIndex &gt;</text>
</g>
<!-- Node14 -->
<g id="Node000014" class="node">
<title>Node14</title>
<g id="a_Node000014"><a xlink:href="classcbrc_1_1FLArray.html" target="_top" xlink:title=" ">
<polygon fill="white" stroke="#666666" points="428,-32.85 291,-32.85 291,-13.85 428,-13.85 428,-32.85"/>
<text text-anchor="middle" x="359.5" y="-20.85" font-family="Helvetica,sans-Serif" font-size="10.00">cbrc::FLArray&lt; double &gt;</text>
</a>
</g>
</g>
<!-- Node1&#45;&gt;Node14 -->
<g id="edge16_Node000001_Node000014" class="edge">
<title>Node1&#45;&gt;Node14</title>
<g id="a_edge16_Node000001_Node000014"><a xlink:title=" ">
<path fill="none" stroke="orange" stroke-dasharray="5,2" d="M55.8,-221.34C56.59,-177.74 65.32,-74.37 128,-28.35 187.05,14.99 279.46,-1.08 327.36,-13.77"/>
<polygon fill="orange" stroke="orange" points="52.3,-221.5 55.75,-231.52 59.3,-221.54 52.3,-221.5"/>
</a>
</g>
<text text-anchor="middle" x="193" y="-31.35" font-family="Helvetica,sans-Serif" font-size="10.00" fill="grey"> &lt; double &gt;</text>
</g>
<!-- Node5&#45;&gt;Node2 -->
<g id="edge5_Node000005_Node000002" class="edge">
<title>Node5&#45;&gt;Node2</title>
<g id="a_edge5_Node000005_Node000002"><a xlink:title=" ">
<path fill="none" stroke="orange" stroke-dasharray="5,2" d="M434.36,-431.2C483.98,-438.49 548.22,-447.92 592.94,-454.49"/>
<polygon fill="orange" stroke="orange" points="434.73,-427.72 424.33,-429.73 433.71,-434.64 434.73,-427.72"/>
</a>
</g>
<text text-anchor="middle" x="505.5" y="-450.35" font-family="Helvetica,sans-Serif" font-size="10.00" fill="grey"> &lt; elemType &gt;</text>
</g>
<!-- Node5&#45;&gt;Node3 -->
<g id="edge6_Node000005_Node000003" class="edge">
<title>Node5&#45;&gt;Node3</title>
<g id="a_edge6_Node000005_Node000003"><a xlink:title=" ">
<path fill="none" stroke="orange" stroke-dasharray="5,2" d="M434.36,-412.09C483.98,-406.54 548.22,-399.35 592.94,-394.35"/>
<polygon fill="orange" stroke="orange" points="433.88,-408.62 424.33,-413.21 434.66,-415.58 433.88,-408.62"/>
</a>
</g>
<text text-anchor="middle" x="505.5" y="-411.35" font-family="Helvetica,sans-Serif" font-size="10.00" fill="grey"> &lt; residueIndex &gt;</text>
</g>
<!-- Node6&#45;&gt;Node4 -->
<g id="edge9_Node000006_Node000004" class="edge">
<title>Node6&#45;&gt;Node4</title>
<g id="a_edge9_Node000006_Node000004"><a xlink:title=" ">
<path fill="none" stroke="orange" stroke-dasharray="5,2" d="M435.69,-309.5C470.55,-311.48 512.48,-314.58 550,-319.35 566.91,-321.5 585.33,-324.72 601.5,-327.84"/>
<polygon fill="orange" stroke="orange" points="435.76,-306 425.58,-308.95 435.38,-312.99 435.76,-306"/>
</a>
</g>
<text text-anchor="middle" x="505.5" y="-322.35" font-family="Helvetica,sans-Serif" font-size="10.00" fill="grey"> &lt; double &gt;</text>
</g>
<!-- Node7 -->
<g id="Node000007" class="node">
<title>Node7</title>
<g id="a_Node000007"><a xlink:href="classcbrc_1_1FLNumArrayFast.html" target="_top" xlink:title=" ">
<polygon fill="white" stroke="#666666" points="723.5,-294.85 571.5,-294.85 571.5,-275.85 723.5,-275.85 723.5,-294.85"/>
<text text-anchor="middle" x="647.5" y="-282.85" font-family="Helvetica,sans-Serif" font-size="10.00">cbrc::FLNumArrayFast&lt; T &gt;</text>
</a>
</g>
</g>
<!-- Node6&#45;&gt;Node7 -->
<g id="edge8_Node000006_Node000007" class="edge">
<title>Node6&#45;&gt;Node7</title>
<g id="a_edge8_Node000006_Node000007"><a xlink:title=" ">
<path fill="none" stroke="#63b8ff" d="M435.89,-300.82C477.74,-297.74 529.62,-293.94 571.42,-290.87"/>
<polygon fill="#63b8ff" stroke="#63b8ff" points="435.47,-297.34 425.76,-301.56 435.99,-304.32 435.47,-297.34"/>
</a>
</g>
</g>
</g>
</svg>

<g id="navigator" transform="translate(0 0)" fill="#404254">
  <rect fill="#f2f5e9" fill-opacity="0.5" stroke="#606060" stroke-width=".5" x="0" y="0" width="60" height="60"/>
  <use id="zoomplus" xlink:href="#zoomPlus" x="17" y="9" onmousedown="handleZoom(evt,'in')"/>
  <use id="zoomminus" xlink:href="#zoomMin" x="42" y="9" onmousedown="handleZoom(evt,'out')"/>
  <use id="reset" xlink:href="#resetDef" x="30" y="36" onmousedown="handleReset()"/>
   <use id="arrowup" xlink:href="#arrowUp" x="0" y="0" onmousedown="handlePan(0,-1)"/>
  <use id="arrowright" xlink:href="#arrowRight" x="0" y="0" onmousedown="handlePan(1,0)"/>
  <use id="arrowdown" xlink:href="#arrowDown" x="0" y="0" onmousedown="handlePan(0,1)"/>
  <use id="arrowleft" xlink:href="#arrowLeft" x="0" y="0" onmousedown="handlePan(-1,0)"/>
</g>
<svg viewBox="0 0 15 15" width="100%" height="30px" preserveAspectRatio="xMaxYMin meet">
 <g id="arrow_out" transform="scale(0.3 0.3)">
  <a xlink:href="classcbrc_1_1FLArray__inherit__graph_org.svg" target="_base">
   <rect id="button" ry="5" rx="5" y="6" x="6" height="38" width="38"
        fill="#f2f5e9" fill-opacity="0.5" stroke="#606060" stroke-width="1.0"/>
   <path id="arrow"
     d="M 11.500037,31.436501 C 11.940474,20.09759 22.043105,11.32322 32.158766,21.979434 L 37.068811,17.246167 C 37.068811,17.246167 37.088388,32 37.088388,32 L 22.160133,31.978069 C 22.160133,31.978069 26.997745,27.140456 26.997745,27.140456 C 18.528582,18.264221 13.291696,25.230495 11.500037,31.436501 z"
     style="fill:#404040;"/>
  </a>
 </g>
</svg>

<style type='text/css'>
<![CDATA[
[data-mouse-over-selected='false'] { opacity: 0.7; }
[data-mouse-over-selected='true']  { opacity: 1.0; }
]]>
</style>
<script type="application/ecmascript"><![CDATA[
document.addEventListener('DOMContentLoaded', (event) => {
  highlightEdges();
  highlightAdjacentNodes();
});
]]></script>
</svg>
