<?xml version="1.0" encoding="UTF-8" standalone="no"?>
<!DOCTYPE svg PUBLIC "-//W3C//DTD SVG 1.1//EN"
 "http://www.w3.org/Graphics/SVG/1.1/DTD/svg11.dtd">
<!-- Generated by graphviz version 2.43.0 (0)
 -->
<!-- Title: cbrc::Alignment::outputMarkSame Pages: 1 -->
<!--zoomable 138 -->

<svg id="main" version="1.1" xmlns="http://www.w3.org/2000/svg" xmlns:xlink="http://www.w3.org/1999/xlink" xml:space="preserve" onload="init(evt)">
<style type="text/css"><![CDATA[
.node, .edge {opacity: 0.7;}
.node.selected, .edge.selected {opacity: 1;}
.edge:hover path { stroke: red; }
.edge:hover polygon { stroke: red; fill: red; }
]]></style>

<defs>
  <circle id="rim" cx="0" cy="0" r="7"/>
  <circle id="rim2" cx="0" cy="0" r="3.5"/>
  <g id="zoomPlus">
    <use xlink:href="#rim" fill="#404040"><set attributeName="fill" to="#808080" begin="zoomplus.mouseover" end="zoomplus.mouseout"/></use>
    <path d="M-4,0h8M0,-4v8" fill="none" stroke="white" stroke-width="1.5" pointer-events="none"/>
  </g>
  <g id="zoomMin">
    <use xlink:href="#rim" fill="#404040"><set attributeName="fill" to="#808080" begin="zoomminus.mouseover" end="zoomminus.mouseout"/></use>
    <path d="M-4,0h8" fill="none" stroke="white" stroke-width="1.5" pointer-events="none"/>
  </g>
  <g id="arrowUp" transform="translate(30 24)">
    <use xlink:href="#rim"/>
    <path pointer-events="none" fill="none" stroke="white" stroke-width="1.5" d="M0,-3.0v7 M-2.5,-0.5L0,-3.0L2.5,-0.5"/>
  </g>
  <g id="arrowRight" transform="rotate(90) translate(36 -43)">
    <use xlink:href="#rim"/>
    <path pointer-events="none" fill="none" stroke="white" stroke-width="1.5" d="M0,-3.0v7 M-2.5,-0.5L0,-3.0L2.5,-0.5"/>
  </g>
  <g id="arrowDown" transform="rotate(180) translate(-30 -48)">
    <use xlink:href="#rim"/>
    <path pointer-events="none" fill="none" stroke="white" stroke-width="1.5" d="M0,-3.0v7 M-2.5,-0.5L0,-3.0L2.5,-0.5"/>
  </g>
  <g id="arrowLeft" transform="rotate(270) translate(-36 17)">
    <use xlink:href="#rim"/>
    <path pointer-events="none" fill="none" stroke="white" stroke-width="1.5" d="M0,-3.0v7 M-2.5,-0.5L0,-3.0L2.5,-0.5"/>
  </g>
  <g id="resetDef">
    <use xlink:href="#rim2" fill="#404040"><set attributeName="fill" to="#808080" begin="reset.mouseover" end="reset.mouseout"/></use>
  </g>
</defs>
<script type="application/ecmascript">
var viewWidth = 564;
var viewHeight = 138;
var sectionId = 'dynsection-5';
</script>
<script type="application/ecmascript" xlink:href="svg.min.js"/>
<svg id="graph" class="graph">
<g id="viewport">
<title>cbrc::Alignment::outputMarkSame</title>
<!-- Node1 -->
<g id="Node000001" class="node">
<title>Node1</title>
<g id="a_Node000001"><a xlink:title=" ">
<polygon fill="#999999" stroke="#666666" points="183,-80 0,-80 0,-61 183,-61 183,-80"/>
<text text-anchor="middle" x="91.5" y="-68" font-family="Helvetica,sans-Serif" font-size="10.00">cbrc::Alignment::outputMarkSame</text>
</a>
</g>
</g>
<!-- Node2 -->
<g id="Node000002" class="node">
<title>Node2</title>
<g id="a_Node000002"><a xlink:href="classcbrc_1_1Alignment.html#a8a02d77813c9c9ded5550b235bb15fe3" target="_top" xlink:title=" ">
<polygon fill="white" stroke="#666666" points="374,-61.5 219,-61.5 219,-31.5 374,-31.5 374,-61.5"/>
<text text-anchor="start" x="227" y="-49.5" font-family="Helvetica,sans-Serif" font-size="10.00">cbrc::Alignment::outputHtml</text>
<text text-anchor="middle" x="296.5" y="-38.5" font-family="Helvetica,sans-Serif" font-size="10.00">MarkSame</text>
</a>
</g>
</g>
<!-- Node1&#45;&gt;Node2 -->
<g id="edge1_Node000001_Node000002" class="edge">
<title>Node1&#45;&gt;Node2</title>
<g id="a_edge1_Node000001_Node000002"><a xlink:title=" ">
<path fill="none" stroke="#63b8ff" d="M173.02,-60.98C184.67,-59.6 196.7,-58.18 208.46,-56.79"/>
<polygon fill="#63b8ff" stroke="#63b8ff" points="209.19,-60.23 218.71,-55.58 208.37,-53.28 209.19,-60.23"/>
</a>
</g>
</g>
<!-- Node7 -->
<g id="Node000007" class="node">
<title>Node7</title>
<g id="a_Node000007"><a xlink:href="classcbrc_1_1Alignment.html#a0a90df2f6b0988867cfdbb349bd04005" target="_top" xlink:title=" ">
<polygon fill="white" stroke="#666666" points="372,-109.5 221,-109.5 221,-79.5 372,-79.5 372,-109.5"/>
<text text-anchor="start" x="229" y="-97.5" font-family="Helvetica,sans-Serif" font-size="10.00">cbrc::Alignment::outputText</text>
<text text-anchor="middle" x="296.5" y="-86.5" font-family="Helvetica,sans-Serif" font-size="10.00">MarkSame</text>
</a>
</g>
</g>
<!-- Node1&#45;&gt;Node7 -->
<g id="edge6_Node000001_Node000007" class="edge">
<title>Node1&#45;&gt;Node7</title>
<g id="a_edge6_Node000001_Node000007"><a xlink:title=" ">
<path fill="none" stroke="#63b8ff" d="M173.02,-80.02C185.3,-81.47 198.01,-82.97 210.39,-84.44"/>
<polygon fill="#63b8ff" stroke="#63b8ff" points="210.34,-87.96 220.69,-85.66 211.17,-81.01 210.34,-87.96"/>
</a>
</g>
</g>
<!-- Node3 -->
<g id="Node000003" class="node">
<title>Node3</title>
<g id="a_Node000003"><a xlink:href="classcbrc_1_1Alignment.html#af7cebeea2029c06cdab2e7fecacf1f52" target="_top" xlink:title=" ">
<polygon fill="white" stroke="#666666" points="556,-130 410,-130 410,-111 556,-111 556,-130"/>
<text text-anchor="middle" x="483" y="-118" font-family="Helvetica,sans-Serif" font-size="10.00">cbrc::Alignment::indelChar</text>
</a>
</g>
</g>
<!-- Node2&#45;&gt;Node3 -->
<g id="edge2_Node000002_Node000003" class="edge">
<title>Node2&#45;&gt;Node3</title>
<g id="a_edge2_Node000002_Node000003"><a xlink:title=" ">
<path fill="none" stroke="#63b8ff" d="M355.02,-61.61C361.6,-64.18 368.07,-67.14 374,-70.5 392.63,-81.05 391.07,-92.5 410,-102.5 413.55,-104.38 417.31,-106.06 421.16,-107.58"/>
<polygon fill="#63b8ff" stroke="#63b8ff" points="420.3,-110.98 430.89,-111 422.62,-104.38 420.3,-110.98"/>
</a>
</g>
</g>
<!-- Node4 -->
<g id="Node000004" class="node">
<title>Node4</title>
<g id="a_Node000004"><a xlink:href="classcbrc_1_1FLEArray.html#ad71311380d762114c9e0f3b0dda38b7c" target="_top" xlink:title=" ">
<polygon fill="white" stroke="#666666" points="538.5,-19 427.5,-19 427.5,0 538.5,0 538.5,-19"/>
<text text-anchor="middle" x="483" y="-7" font-family="Helvetica,sans-Serif" font-size="10.00">cbrc::FLEArray::size</text>
</a>
</g>
</g>
<!-- Node2&#45;&gt;Node4 -->
<g id="edge3_Node000002_Node000004" class="edge">
<title>Node2&#45;&gt;Node4</title>
<g id="a_edge3_Node000002_Node000004"><a xlink:title=" ">
<path fill="none" stroke="#63b8ff" d="M372.54,-31.45C389.89,-27.97 408.08,-24.32 424.54,-21.02"/>
<polygon fill="#63b8ff" stroke="#63b8ff" points="425.43,-24.41 434.55,-19.02 424.05,-17.55 425.43,-24.41"/>
</a>
</g>
</g>
<!-- Node5 -->
<g id="Node000005" class="node">
<title>Node5</title>
<g id="a_Node000005"><a xlink:href="classcbrc_1_1Alignment.html#a847f4f76eefea4024da506102ca7c661" target="_top" xlink:title=" ">
<polygon fill="white" stroke="#666666" points="542.5,-93 423.5,-93 423.5,-74 542.5,-74 542.5,-93"/>
<text text-anchor="middle" x="483" y="-81" font-family="Helvetica,sans-Serif" font-size="10.00">cbrc::Alignment::size</text>
</a>
</g>
</g>
<!-- Node2&#45;&gt;Node5 -->
<g id="edge4_Node000002_Node000005" class="edge">
<title>Node2&#45;&gt;Node5</title>
<g id="a_edge4_Node000002_Node000005"><a xlink:title=" ">
<path fill="none" stroke="#63b8ff" d="M372.54,-61.55C389.89,-65.03 408.08,-68.68 424.54,-71.98"/>
<polygon fill="#63b8ff" stroke="#63b8ff" points="424.05,-75.45 434.55,-73.98 425.43,-68.59 424.05,-75.45"/>
</a>
</g>
</g>
<!-- Node6 -->
<g id="Node000006" class="node">
<title>Node6</title>
<g id="a_Node000006"><a xlink:href="namespacecbrc_1_1perlish.html#a93996e9d6b16ad1f0fa91309d4960afc" target="_top" xlink:title=" ">
<polygon fill="white" stroke="#666666" points="543,-56 423,-56 423,-37 543,-37 543,-56"/>
<text text-anchor="middle" x="483" y="-44" font-family="Helvetica,sans-Serif" font-size="10.00">cbrc::perlish::toString</text>
</a>
</g>
</g>
<!-- Node2&#45;&gt;Node6 -->
<g id="edge5_Node000002_Node000006" class="edge">
<title>Node2&#45;&gt;Node6</title>
<g id="a_edge5_Node000002_Node000006"><a xlink:title=" ">
<path fill="none" stroke="#63b8ff" d="M374.14,-46.5C386.83,-46.5 399.92,-46.5 412.42,-46.5"/>
<polygon fill="#63b8ff" stroke="#63b8ff" points="412.75,-50 422.75,-46.5 412.75,-43 412.75,-50"/>
</a>
</g>
</g>
<!-- Node7&#45;&gt;Node3 -->
<g id="edge7_Node000007_Node000003" class="edge">
<title>Node7&#45;&gt;Node3</title>
<g id="a_edge7_Node000007_Node000003"><a xlink:title=" ">
<path fill="none" stroke="#63b8ff" d="M372.01,-105C382.62,-106.5 393.56,-108.04 404.23,-109.54"/>
<polygon fill="#63b8ff" stroke="#63b8ff" points="403.97,-113.04 414.36,-110.97 404.95,-106.11 403.97,-113.04"/>
</a>
</g>
</g>
<!-- Node7&#45;&gt;Node5 -->
<g id="edge8_Node000007_Node000005" class="edge">
<title>Node7&#45;&gt;Node5</title>
<g id="a_edge8_Node000007_Node000005"><a xlink:title=" ">
<path fill="none" stroke="#63b8ff" d="M372.01,-90.06C385.64,-89.25 399.8,-88.4 413.25,-87.6"/>
<polygon fill="#63b8ff" stroke="#63b8ff" points="413.61,-91.08 423.38,-86.99 413.19,-84.1 413.61,-91.08"/>
</a>
</g>
</g>
<!-- Node7&#45;&gt;Node6 -->
<g id="edge9_Node000007_Node000006" class="edge">
<title>Node7&#45;&gt;Node6</title>
<g id="a_edge9_Node000007_Node000006"><a xlink:title=" ">
<path fill="none" stroke="#63b8ff" d="M355.37,-79.44C381.19,-72.73 411.21,-64.92 435.53,-58.59"/>
<polygon fill="#63b8ff" stroke="#63b8ff" points="436.44,-61.97 445.24,-56.06 434.68,-55.2 436.44,-61.97"/>
</a>
</g>
</g>
</g>
</svg>

<g id="navigator" transform="translate(0 0)" fill="#404254">
  <rect fill="#f2f5e9" fill-opacity="0.5" stroke="#606060" stroke-width=".5" x="0" y="0" width="60" height="60"/>
  <use id="zoomplus" xlink:href="#zoomPlus" x="17" y="9" onmousedown="handleZoom(evt,'in')"/>
  <use id="zoomminus" xlink:href="#zoomMin" x="42" y="9" onmousedown="handleZoom(evt,'out')"/>
  <use id="reset" xlink:href="#resetDef" x="30" y="36" onmousedown="handleReset()"/>
   <use id="arrowup" xlink:href="#arrowUp" x="0" y="0" onmousedown="handlePan(0,-1)"/>
  <use id="arrowright" xlink:href="#arrowRight" x="0" y="0" onmousedown="handlePan(1,0)"/>
  <use id="arrowdown" xlink:href="#arrowDown" x="0" y="0" onmousedown="handlePan(0,1)"/>
  <use id="arrowleft" xlink:href="#arrowLeft" x="0" y="0" onmousedown="handlePan(-1,0)"/>
</g>
<svg viewBox="0 0 15 15" width="100%" height="30px" preserveAspectRatio="xMaxYMin meet">
 <g id="arrow_out" transform="scale(0.3 0.3)">
  <a xlink:href="classcbrc_1_1Alignment_a194a680df661b5d98f8d7fea3d84289a_cgraph_org.svg" target="_base">
   <rect id="button" ry="5" rx="5" y="6" x="6" height="38" width="38"
        fill="#f2f5e9" fill-opacity="0.5" stroke="#606060" stroke-width="1.0"/>
   <path id="arrow"
     d="M 11.500037,31.436501 C 11.940474,20.09759 22.043105,11.32322 32.158766,21.979434 L 37.068811,17.246167 C 37.068811,17.246167 37.088388,32 37.088388,32 L 22.160133,31.978069 C 22.160133,31.978069 26.997745,27.140456 26.997745,27.140456 C 18.528582,18.264221 13.291696,25.230495 11.500037,31.436501 z"
     style="fill:#404040;"/>
  </a>
 </g>
</svg>

<style type='text/css'>
<![CDATA[
[data-mouse-over-selected='false'] { opacity: 0.7; }
[data-mouse-over-selected='true']  { opacity: 1.0; }
]]>
</style>
<script type="application/ecmascript"><![CDATA[
document.addEventListener('DOMContentLoaded', (event) => {
  highlightEdges();
  highlightAdjacentNodes();
});
]]></script>
</svg>
