<?xml version="1.0" encoding="UTF-8" standalone="no"?>
<!DOCTYPE svg PUBLIC "-//W3C//DTD SVG 1.1//EN"
 "http://www.w3.org/Graphics/SVG/1.1/DTD/svg11.dtd">
<!-- Generated by graphviz version 2.43.0 (0)
 -->
<!-- Title: cbrc::FLEArray::setFromLiteral Pages: 1 -->
<svg width="661pt" height="205pt"
 viewBox="0.00 0.00 661.00 205.00" xmlns="http://www.w3.org/2000/svg" xmlns:xlink="http://www.w3.org/1999/xlink">
<g id="graph0" class="graph" transform="scale(1 1) rotate(0) translate(4 201)">
<title>cbrc::FLEArray::setFromLiteral</title>
<!-- Node1 -->
<g id="Node000001" class="node">
<title>Node1</title>
<g id="a_Node000001"><a xlink:title=" ">
<polygon fill="#999999" stroke="#666666" points="162,-122 0,-122 0,-103 162,-103 162,-122"/>
<text text-anchor="middle" x="81" y="-110" font-family="Helvetica,sans-Serif" font-size="10.00">cbrc::FLEArray::setFromLiteral</text>
</a>
</g>
</g>
<!-- Node2 -->
<g id="Node000002" class="node">
<title>Node2</title>
<g id="a_Node000002"><a xlink:href="classcbrc_1_1FLEArray.html#a5368c7c0434bd5c119d2cbb39f4b399e" target="_top" xlink:title=" ">
<polygon fill="white" stroke="#666666" points="653,-179 518,-179 518,-160 653,-160 653,-179"/>
<text text-anchor="middle" x="585.5" y="-167" font-family="Helvetica,sans-Serif" font-size="10.00">cbrc::FLEArray::FLEArray</text>
</a>
</g>
</g>
<!-- Node1&#45;&gt;Node2 -->
<g id="edge1_Node000001_Node000002" class="edge">
<title>Node1&#45;&gt;Node2</title>
<g id="a_edge1_Node000001_Node000002"><a xlink:title=" ">
<path fill="none" stroke="#63b8ff" d="M106.51,-122.04C129.73,-130.71 165.75,-143.23 198,-150.5 303.37,-174.24 428.84,-175.66 507.6,-173.42"/>
<polygon fill="#63b8ff" stroke="#63b8ff" points="508.03,-176.91 517.92,-173.1 507.81,-169.92 508.03,-176.91"/>
</a>
</g>
</g>
<!-- Node3 -->
<g id="Node000003" class="node">
<title>Node3</title>
<g id="a_Node000003"><a xlink:href="classcbrc_1_1FLEArray.html#ad003950bdededca7ee3b3dd6cd6ea644" target="_top" xlink:title=" ">
<polygon fill="white" stroke="#666666" points="319,-141 198,-141 198,-122 319,-122 319,-141"/>
<text text-anchor="middle" x="258.5" y="-129" font-family="Helvetica,sans-Serif" font-size="10.00">cbrc::FLEArray::resize</text>
</a>
</g>
</g>
<!-- Node1&#45;&gt;Node3 -->
<g id="edge3_Node000001_Node000003" class="edge">
<title>Node1&#45;&gt;Node3</title>
<g id="a_edge3_Node000001_Node000003"><a xlink:title=" ">
<path fill="none" stroke="#63b8ff" d="M162.05,-121.17C170.59,-122.09 179.24,-123.03 187.66,-123.94"/>
<polygon fill="#63b8ff" stroke="#63b8ff" points="187.47,-127.44 197.79,-125.04 188.22,-120.48 187.47,-127.44"/>
</a>
</g>
</g>
<!-- Node5 -->
<g id="Node000005" class="node">
<title>Node5</title>
<g id="a_Node000005"><a xlink:href="classcbrc_1_1FLEArray.html#ad71311380d762114c9e0f3b0dda38b7c" target="_top" xlink:title=" ">
<polygon fill="white" stroke="#666666" points="641,-122 530,-122 530,-103 641,-103 641,-122"/>
<text text-anchor="middle" x="585.5" y="-110" font-family="Helvetica,sans-Serif" font-size="10.00">cbrc::FLEArray::size</text>
</a>
</g>
</g>
<!-- Node1&#45;&gt;Node5 -->
<g id="edge8_Node000001_Node000005" class="edge">
<title>Node1&#45;&gt;Node5</title>
<g id="a_edge8_Node000001_Node000005"><a xlink:title=" ">
<path fill="none" stroke="#63b8ff" d="M162.18,-112.5C261.3,-112.5 428.06,-112.5 519.57,-112.5"/>
<polygon fill="#63b8ff" stroke="#63b8ff" points="519.8,-116 529.8,-112.5 519.8,-109 519.8,-116"/>
</a>
</g>
</g>
<!-- Node6 -->
<g id="Node000006" class="node">
<title>Node6</title>
<g id="a_Node000006"><a xlink:href="namespacecbrc_1_1perlish.html#a101a4746d50e52a00273c6fe533970ec" target="_top" xlink:title=" ">
<polygon fill="white" stroke="#666666" points="310,-47 207,-47 207,-28 310,-28 310,-47"/>
<text text-anchor="middle" x="258.5" y="-35" font-family="Helvetica,sans-Serif" font-size="10.00">cbrc::perlish::split</text>
</a>
</g>
</g>
<!-- Node1&#45;&gt;Node6 -->
<g id="edge9_Node000001_Node000006" class="edge">
<title>Node1&#45;&gt;Node6</title>
<g id="a_edge9_Node000001_Node000006"><a xlink:title=" ">
<path fill="none" stroke="#63b8ff" d="M104.58,-102.85C135.39,-89.69 190.73,-66.03 225.71,-51.08"/>
<polygon fill="#63b8ff" stroke="#63b8ff" points="227.18,-54.26 235,-47.11 224.43,-47.83 227.18,-54.26"/>
</a>
</g>
</g>
<!-- Node2&#45;&gt;Node2 -->
<g id="edge2_Node000002_Node000002" class="edge">
<title>Node2&#45;&gt;Node2</title>
<g id="a_edge2_Node000002_Node000002"><a xlink:title=" ">
<path fill="none" stroke="#63b8ff" d="M559.91,-179.08C547.47,-187.73 556,-197 585.5,-197 604.86,-197 615.19,-193.01 616.49,-187.82"/>
<polygon fill="#63b8ff" stroke="#63b8ff" points="619.32,-185.75 611.09,-179.08 613.37,-189.43 619.32,-185.75"/>
</a>
</g>
</g>
<!-- Node3&#45;&gt;Node2 -->
<g id="edge4_Node000003_Node000002" class="edge">
<title>Node3&#45;&gt;Node2</title>
<g id="a_edge4_Node000003_Node000002"><a xlink:title=" ">
<path fill="none" stroke="#63b8ff" d="M302.11,-141.06C318.56,-144.46 337.59,-148.06 355,-150.5 405.69,-157.62 463.08,-162.37 507.79,-165.34"/>
<polygon fill="#63b8ff" stroke="#63b8ff" points="507.79,-168.85 517.99,-166 508.24,-161.86 507.79,-168.85"/>
</a>
</g>
</g>
<!-- Node4 -->
<g id="Node000004" class="node">
<title>Node4</title>
<g id="a_Node000004"><a xlink:href="classcbrc_1_1FLEArray.html#a5f10f892188c41f2821ef33ee9bcc743" target="_top" xlink:title=" ">
<polygon fill="white" stroke="#666666" points="482,-141 355,-141 355,-122 482,-122 482,-141"/>
<text text-anchor="middle" x="418.5" y="-129" font-family="Helvetica,sans-Serif" font-size="10.00">cbrc::FLEArray::setSize</text>
</a>
</g>
</g>
<!-- Node3&#45;&gt;Node4 -->
<g id="edge5_Node000003_Node000004" class="edge">
<title>Node3&#45;&gt;Node4</title>
<g id="a_edge5_Node000003_Node000004"><a xlink:title=" ">
<path fill="none" stroke="#63b8ff" d="M319.23,-131.5C327.5,-131.5 336.06,-131.5 344.53,-131.5"/>
<polygon fill="#63b8ff" stroke="#63b8ff" points="344.79,-135 354.79,-131.5 344.79,-128 344.79,-135"/>
</a>
</g>
</g>
<!-- Node4&#45;&gt;Node2 -->
<g id="edge6_Node000004_Node000002" class="edge">
<title>Node4&#45;&gt;Node2</title>
<g id="a_edge6_Node000004_Node000002"><a xlink:title=" ">
<path fill="none" stroke="#63b8ff" d="M461.14,-141.09C483.01,-146.13 510.01,-152.34 533.16,-157.68"/>
<polygon fill="#63b8ff" stroke="#63b8ff" points="532.63,-161.15 543.16,-159.98 534.2,-154.32 532.63,-161.15"/>
</a>
</g>
</g>
<!-- Node4&#45;&gt;Node5 -->
<g id="edge7_Node000004_Node000005" class="edge">
<title>Node4&#45;&gt;Node5</title>
<g id="a_edge7_Node000004_Node000005"><a xlink:title=" ">
<path fill="none" stroke="#63b8ff" d="M482.35,-124.26C494.59,-122.85 507.44,-121.37 519.74,-119.96"/>
<polygon fill="#63b8ff" stroke="#63b8ff" points="520.38,-123.41 529.91,-118.79 519.58,-116.45 520.38,-123.41"/>
</a>
</g>
</g>
<!-- Node6&#45;&gt;Node6 -->
<g id="edge12_Node000006_Node000006" class="edge">
<title>Node6&#45;&gt;Node6</title>
<g id="a_edge12_Node000006_Node000006"><a xlink:title=" ">
<path fill="none" stroke="#63b8ff" d="M233.84,-47.08C221.84,-55.73 230.06,-65 258.5,-65 277.16,-65 287.12,-61.01 288.37,-55.82"/>
<polygon fill="#63b8ff" stroke="#63b8ff" points="291.29,-53.88 283.16,-47.08 285.27,-57.47 291.29,-53.88"/>
</a>
</g>
</g>
<!-- Node7 -->
<g id="Node000007" class="node">
<title>Node7</title>
<g id="a_Node000007"><a xlink:href="classcbrc_1_1FLEArray.html#a7e5d0d3bc5c41546620ccff95b55b3fa" target="_top" xlink:title=" ">
<polygon fill="white" stroke="#666666" points="478,-56 359,-56 359,-37 478,-37 478,-56"/>
<text text-anchor="middle" x="418.5" y="-44" font-family="Helvetica,sans-Serif" font-size="10.00">cbrc::FLEArray::begin</text>
</a>
</g>
</g>
<!-- Node6&#45;&gt;Node7 -->
<g id="edge10_Node000006_Node000007" class="edge">
<title>Node6&#45;&gt;Node7</title>
<g id="a_edge10_Node000006_Node000007"><a xlink:title=" ">
<path fill="none" stroke="#63b8ff" d="M310.36,-40.4C322.53,-41.09 335.73,-41.84 348.57,-42.57"/>
<polygon fill="#63b8ff" stroke="#63b8ff" points="348.58,-46.08 358.76,-43.15 348.97,-39.09 348.58,-46.08"/>
</a>
</g>
</g>
<!-- Node8 -->
<g id="Node000008" class="node">
<title>Node8</title>
<g id="a_Node000008"><a xlink:href="classcbrc_1_1FLEArray.html#a8c53878dc57e8f666976e041d146a523" target="_top" xlink:title=" ">
<polygon fill="white" stroke="#666666" points="473.5,-19 363.5,-19 363.5,0 473.5,0 473.5,-19"/>
<text text-anchor="middle" x="418.5" y="-7" font-family="Helvetica,sans-Serif" font-size="10.00">cbrc::FLEArray::end</text>
</a>
</g>
</g>
<!-- Node6&#45;&gt;Node8 -->
<g id="edge11_Node000006_Node000008" class="edge">
<title>Node6&#45;&gt;Node8</title>
<g id="a_edge11_Node000006_Node000008"><a xlink:title=" ">
<path fill="none" stroke="#63b8ff" d="M310.36,-28.49C324.22,-26.03 339.4,-23.34 353.86,-20.78"/>
<polygon fill="#63b8ff" stroke="#63b8ff" points="354.5,-24.22 363.74,-19.03 353.28,-17.33 354.5,-24.22"/>
</a>
</g>
</g>
</g>
</svg>
