<?xml version="1.0" encoding="UTF-8" standalone="no"?>
<!DOCTYPE svg PUBLIC "-//W3C//DTD SVG 1.1//EN"
 "http://www.w3.org/Graphics/SVG/1.1/DTD/svg11.dtd">
<!-- Generated by graphviz version 2.43.0 (0)
 -->
<!-- Title: cbrc::KmerIndexer::toIndex Pages: 1 -->
<svg width="617pt" height="76pt"
 viewBox="0.00 0.00 617.00 75.50" xmlns="http://www.w3.org/2000/svg" xmlns:xlink="http://www.w3.org/1999/xlink">
<g id="graph0" class="graph" transform="scale(1 1) rotate(0) translate(4 71.5)">
<title>cbrc::KmerIndexer::toIndex</title>
<!-- Node1 -->
<g id="Node000001" class="node">
<title>Node1</title>
<g id="a_Node000001"><a xlink:title=" ">
<polygon fill="#999999" stroke="#666666" points="111,-45.5 0,-45.5 0,-15.5 111,-15.5 111,-45.5"/>
<text text-anchor="start" x="8" y="-33.5" font-family="Helvetica,sans-Serif" font-size="10.00">cbrc::KmerIndexer::</text>
<text text-anchor="middle" x="55.5" y="-22.5" font-family="Helvetica,sans-Serif" font-size="10.00">toIndex</text>
</a>
</g>
</g>
<!-- Node2 -->
<g id="Node000002" class="node">
<title>Node2</title>
<g id="a_Node000002"><a xlink:href="classcbrc_1_1ResidueIndexMap.html#a94865292c94cfb033ce5140c226d1263" target="_top" xlink:title=" ">
<polygon fill="white" stroke="#666666" points="277,-45.5 147,-45.5 147,-15.5 277,-15.5 277,-45.5"/>
<text text-anchor="start" x="155" y="-33.5" font-family="Helvetica,sans-Serif" font-size="10.00">cbrc::ResidueIndexMap</text>
<text text-anchor="middle" x="212" y="-22.5" font-family="Helvetica,sans-Serif" font-size="10.00">::validResidueIndex</text>
</a>
</g>
</g>
<!-- Node1&#45;&gt;Node2 -->
<g id="edge1_Node000001_Node000002" class="edge">
<title>Node1&#45;&gt;Node2</title>
<g id="a_edge1_Node000001_Node000002"><a xlink:title=" ">
<path fill="none" stroke="#63b8ff" d="M111.41,-30.5C119.55,-30.5 128.05,-30.5 136.5,-30.5"/>
<polygon fill="#63b8ff" stroke="#63b8ff" points="136.77,-34 146.77,-30.5 136.77,-27 136.77,-34"/>
</a>
</g>
</g>
<!-- Node3 -->
<g id="Node000003" class="node">
<title>Node3</title>
<g id="a_Node000003"><a xlink:href="classcbrc_1_1ResidueIndexMap.html#a44696820dc49f72df0b4dad8329099c1" target="_top" xlink:title=" ">
<polygon fill="white" stroke="#666666" points="443,-45.5 313,-45.5 313,-15.5 443,-15.5 443,-45.5"/>
<text text-anchor="start" x="321" y="-33.5" font-family="Helvetica,sans-Serif" font-size="10.00">cbrc::ResidueIndexMap</text>
<text text-anchor="middle" x="378" y="-22.5" font-family="Helvetica,sans-Serif" font-size="10.00">::sigma</text>
</a>
</g>
</g>
<!-- Node2&#45;&gt;Node3 -->
<g id="edge2_Node000002_Node000003" class="edge">
<title>Node2&#45;&gt;Node3</title>
<g id="a_edge2_Node000002_Node000003"><a xlink:title=" ">
<path fill="none" stroke="#63b8ff" d="M277.35,-30.5C285.64,-30.5 294.19,-30.5 302.62,-30.5"/>
<polygon fill="#63b8ff" stroke="#63b8ff" points="302.84,-34 312.84,-30.5 302.84,-27 302.84,-34"/>
</a>
</g>
</g>
<!-- Node4 -->
<g id="Node000004" class="node">
<title>Node4</title>
<g id="a_Node000004"><a xlink:href="classcbrc_1_1ResidueIndexMap.html#ac79e934d66dd96493f86de84fea09a39" target="_top" xlink:title=" ">
<polygon fill="white" stroke="#666666" points="609,-67.5 479,-67.5 479,-37.5 609,-37.5 609,-67.5"/>
<text text-anchor="start" x="487" y="-55.5" font-family="Helvetica,sans-Serif" font-size="10.00">cbrc::ResidueIndexMap</text>
<text text-anchor="middle" x="544" y="-44.5" font-family="Helvetica,sans-Serif" font-size="10.00">::alphabet</text>
</a>
</g>
</g>
<!-- Node3&#45;&gt;Node4 -->
<g id="edge3_Node000003_Node000004" class="edge">
<title>Node3&#45;&gt;Node4</title>
<g id="a_edge3_Node000003_Node000004"><a xlink:title=" ">
<path fill="none" stroke="#63b8ff" d="M443.35,-39.13C451.73,-40.26 460.37,-41.42 468.9,-42.56"/>
<polygon fill="#63b8ff" stroke="#63b8ff" points="468.46,-46.03 478.84,-43.89 469.39,-39.09 468.46,-46.03"/>
</a>
</g>
</g>
<!-- Node5 -->
<g id="Node000005" class="node">
<title>Node5</title>
<g id="a_Node000005"><a xlink:href="classcbrc_1_1FLEArray.html#ad71311380d762114c9e0f3b0dda38b7c" target="_top" xlink:title=" ">
<polygon fill="white" stroke="#666666" points="599.5,-19 488.5,-19 488.5,0 599.5,0 599.5,-19"/>
<text text-anchor="middle" x="544" y="-7" font-family="Helvetica,sans-Serif" font-size="10.00">cbrc::FLEArray::size</text>
</a>
</g>
</g>
<!-- Node3&#45;&gt;Node5 -->
<g id="edge4_Node000003_Node000005" class="edge">
<title>Node3&#45;&gt;Node5</title>
<g id="a_edge4_Node000003_Node000005"><a xlink:title=" ">
<path fill="none" stroke="#63b8ff" d="M443.35,-22.26C454.87,-20.79 466.88,-19.25 478.41,-17.77"/>
<polygon fill="#63b8ff" stroke="#63b8ff" points="478.91,-21.23 488.39,-16.49 478.03,-14.29 478.91,-21.23"/>
</a>
</g>
</g>
</g>
</svg>
