<?xml version="1.0" encoding="UTF-8" standalone="no"?>
<!DOCTYPE svg PUBLIC "-//W3C//DTD SVG 1.1//EN"
 "http://www.w3.org/Graphics/SVG/1.1/DTD/svg11.dtd">
<!-- Generated by graphviz version 2.43.0 (0)
 -->
<!-- Title: cbrc::FLMatrix::validAsMatrix Pages: 1 -->
<svg width="314pt" height="64pt"
 viewBox="0.00 0.00 314.00 64.00" xmlns="http://www.w3.org/2000/svg" xmlns:xlink="http://www.w3.org/1999/xlink">
<g id="graph0" class="graph" transform="scale(1 1) rotate(0) translate(4 60)">
<title>cbrc::FLMatrix::validAsMatrix</title>
<!-- Node1 -->
<g id="Node000001" class="node">
<title>Node1</title>
<g id="a_Node000001"><a xlink:title=" ">
<polygon fill="#999999" stroke="#666666" points="159,-37 0,-37 0,-18 159,-18 159,-37"/>
<text text-anchor="middle" x="79.5" y="-25" font-family="Helvetica,sans-Serif" font-size="10.00">cbrc::FLMatrix::validAsMatrix</text>
</a>
</g>
</g>
<!-- Node2 -->
<g id="Node000002" class="node">
<title>Node2</title>
<g id="a_Node000002"><a xlink:href="classcbrc_1_1FLEArray.html#ad71311380d762114c9e0f3b0dda38b7c" target="_top" xlink:title=" ">
<polygon fill="white" stroke="#666666" points="306,-56 195,-56 195,-37 306,-37 306,-56"/>
<text text-anchor="middle" x="250.5" y="-44" font-family="Helvetica,sans-Serif" font-size="10.00">cbrc::FLEArray::size</text>
</a>
</g>
</g>
<!-- Node1&#45;&gt;Node2 -->
<g id="edge1_Node000001_Node000002" class="edge">
<title>Node1&#45;&gt;Node2</title>
<g id="a_edge1_Node000001_Node000002"><a xlink:title=" ">
<path fill="none" stroke="#63b8ff" d="M159.06,-36.33C167.64,-37.3 176.3,-38.27 184.69,-39.21"/>
<polygon fill="#63b8ff" stroke="#63b8ff" points="184.43,-42.71 194.76,-40.35 185.22,-35.75 184.43,-42.71"/>
</a>
</g>
</g>
<!-- Node3 -->
<g id="Node000003" class="node">
<title>Node3</title>
<g id="a_Node000003"><a xlink:href="classcbrc_1_1FLMatrix.html#a09d0ea365bcf5c5912eb5d34f35bfbb2" target="_top" xlink:title=" ">
<polygon fill="white" stroke="#666666" points="306,-19 195,-19 195,0 306,0 306,-19"/>
<text text-anchor="middle" x="250.5" y="-7" font-family="Helvetica,sans-Serif" font-size="10.00">cbrc::FLMatrix::size</text>
</a>
</g>
</g>
<!-- Node1&#45;&gt;Node3 -->
<g id="edge2_Node000001_Node000003" class="edge">
<title>Node1&#45;&gt;Node3</title>
<g id="a_edge2_Node000001_Node000003"><a xlink:title=" ">
<path fill="none" stroke="#63b8ff" d="M159.06,-19.13C167.64,-18.22 176.3,-17.3 184.69,-16.4"/>
<polygon fill="#63b8ff" stroke="#63b8ff" points="185.19,-19.87 194.76,-15.33 184.45,-12.91 185.19,-19.87"/>
</a>
</g>
</g>
</g>
</svg>
