<?xml version="1.0" encoding="UTF-8" standalone="no"?>
<!DOCTYPE svg PUBLIC "-//W3C//DTD SVG 1.1//EN"
 "http://www.w3.org/Graphics/SVG/1.1/DTD/svg11.dtd">
<!-- Generated by graphviz version 2.43.0 (0)
 -->
<!-- Title: cbrc::ArgvParser::setFromNextUnused Pages: 1 -->
<svg width="491pt" height="101pt"
 viewBox="0.00 0.00 491.00 101.00" xmlns="http://www.w3.org/2000/svg" xmlns:xlink="http://www.w3.org/1999/xlink">

<svg id="main" version="1.1" xmlns="http://www.w3.org/2000/svg" xmlns:xlink="http://www.w3.org/1999/xlink" xml:space="preserve" onload="init(evt)">
<style type="text/css"><![CDATA[
.node, .edge {opacity: 0.7;}
.node.selected, .edge.selected {opacity: 1;}
.edge:hover path { stroke: red; }
.edge:hover polygon { stroke: red; fill: red; }
]]></style>
<script type="application/ecmascript" xlink:href="svg.min.js"/>
<svg id="graph" class="graph">
<g id="graph0" class="graph" transform="scale(1 1) rotate(0) translate(4 97)">
<title>cbrc::ArgvParser::setFromNextUnused</title>
<!-- Node1 -->
<g id="Node000001" class="node">
<title>Node1</title>
<g id="a_Node000001"><a xlink:title=" ">
<polygon fill="#999999" stroke="#666666" points="141,-42.5 0,-42.5 0,-12.5 141,-12.5 141,-42.5"/>
<text text-anchor="start" x="8" y="-30.5" font-family="Helvetica,sans-Serif" font-size="10.00">cbrc::ArgvParser::setFrom</text>
<text text-anchor="middle" x="70.5" y="-19.5" font-family="Helvetica,sans-Serif" font-size="10.00">NextUnused</text>
</a>
</g>
</g>
<!-- Node2 -->
<g id="Node000002" class="node">
<title>Node2</title>
<g id="a_Node000002"><a xlink:href="classcbrc_1_1ArgvParser.html#ade70c644ab6bb5f3e8703a11b03f0dee" target="_top" xlink:title=" ">
<polygon fill="white" stroke="#666666" points="299,-56 177,-56 177,-37 299,-37 299,-56"/>
<text text-anchor="middle" x="238" y="-44" font-family="Helvetica,sans-Serif" font-size="10.00">cbrc::ArgvParser::shift</text>
</a>
</g>
</g>
<!-- Node1&#45;&gt;Node2 -->
<g id="edge1_Node000001_Node000002" class="edge">
<title>Node1&#45;&gt;Node2</title>
<g id="a_edge1_Node000001_Node000002"><a xlink:title=" ">
<path fill="none" stroke="#63b8ff" d="M141.21,-35.5C149.62,-36.47 158.22,-37.46 166.65,-38.42"/>
<polygon fill="#63b8ff" stroke="#63b8ff" points="166.48,-41.93 176.81,-39.59 167.28,-34.97 166.48,-41.93"/>
</a>
</g>
</g>
<!-- Node6 -->
<g id="Node000006" class="node">
<title>Node6</title>
<g id="a_Node000006"><a xlink:href="classcbrc_1_1FLEArray.html#ad71311380d762114c9e0f3b0dda38b7c" target="_top" xlink:title=" ">
<polygon fill="white" stroke="#666666" points="293.5,-19 182.5,-19 182.5,0 293.5,0 293.5,-19"/>
<text text-anchor="middle" x="238" y="-7" font-family="Helvetica,sans-Serif" font-size="10.00">cbrc::FLEArray::size</text>
</a>
</g>
</g>
<!-- Node1&#45;&gt;Node6 -->
<g id="edge5_Node000001_Node000006" class="edge">
<title>Node1&#45;&gt;Node6</title>
<g id="a_edge5_Node000001_Node000006"><a xlink:title=" ">
<path fill="none" stroke="#63b8ff" d="M141.21,-19.92C151.54,-18.79 162.16,-17.64 172.38,-16.53"/>
<polygon fill="#63b8ff" stroke="#63b8ff" points="172.89,-19.99 182.45,-15.43 172.13,-13.03 172.89,-19.99"/>
</a>
</g>
</g>
<!-- Node3 -->
<g id="Node000003" class="node">
<title>Node3</title>
<g id="a_Node000003"><a xlink:href="namespacecbrc.html#a94ca1678e0481b17626977da7cfb798b" target="_top" xlink:title=" ">
<polygon fill="white" stroke="#666666" points="483,-93 335,-93 335,-74 483,-74 483,-93"/>
<text text-anchor="middle" x="409" y="-81" font-family="Helvetica,sans-Serif" font-size="10.00">cbrc::_argvParserNullString</text>
</a>
</g>
</g>
<!-- Node2&#45;&gt;Node3 -->
<g id="edge2_Node000002_Node000003" class="edge">
<title>Node2&#45;&gt;Node3</title>
<g id="a_edge2_Node000002_Node000003"><a xlink:title=" ">
<path fill="none" stroke="#63b8ff" d="M282.52,-56.03C304.42,-60.82 331.15,-66.68 354.31,-71.75"/>
<polygon fill="#63b8ff" stroke="#63b8ff" points="353.82,-75.22 364.33,-73.94 355.31,-68.38 353.82,-75.22"/>
</a>
</g>
</g>
<!-- Node4 -->
<g id="Node000004" class="node">
<title>Node4</title>
<g id="a_Node000004"><a xlink:href="classcbrc_1_1ArgvParser.html#ac1c953b6a160442d0c3e711a68561a28" target="_top" xlink:title=" ">
<polygon fill="white" stroke="#666666" points="470,-56 348,-56 348,-37 470,-37 470,-56"/>
<text text-anchor="middle" x="409" y="-44" font-family="Helvetica,sans-Serif" font-size="10.00">cbrc::ArgvParser::argc</text>
</a>
</g>
</g>
<!-- Node2&#45;&gt;Node4 -->
<g id="edge3_Node000002_Node000004" class="edge">
<title>Node2&#45;&gt;Node4</title>
<g id="a_edge3_Node000002_Node000004"><a xlink:title=" ">
<path fill="none" stroke="#63b8ff" d="M299.06,-46.5C311.56,-46.5 324.84,-46.5 337.68,-46.5"/>
<polygon fill="#63b8ff" stroke="#63b8ff" points="337.85,-50 347.85,-46.5 337.85,-43 337.85,-50"/>
</a>
</g>
</g>
<!-- Node5 -->
<g id="Node000005" class="node">
<title>Node5</title>
<g id="a_Node000005"><a xlink:href="classcbrc_1_1ArgvParser.html#a39a2b5cbfc3c189628d028e94a9407e3" target="_top" xlink:title=" ">
<polygon fill="white" stroke="#666666" points="469.5,-19 348.5,-19 348.5,0 469.5,0 469.5,-19"/>
<text text-anchor="middle" x="409" y="-7" font-family="Helvetica,sans-Serif" font-size="10.00">cbrc::ArgvParser::size</text>
</a>
</g>
</g>
<!-- Node2&#45;&gt;Node5 -->
<g id="edge4_Node000002_Node000005" class="edge">
<title>Node2&#45;&gt;Node5</title>
<g id="a_edge4_Node000002_Node000005"><a xlink:title=" ">
<path fill="none" stroke="#63b8ff" d="M282.52,-36.97C304.42,-32.18 331.15,-26.32 354.31,-21.25"/>
<polygon fill="#63b8ff" stroke="#63b8ff" points="355.31,-24.62 364.33,-19.06 353.82,-17.78 355.31,-24.62"/>
</a>
</g>
</g>
</g>
</svg>
</svg>

<style type='text/css'>
<![CDATA[
[data-mouse-over-selected='false'] { opacity: 0.7; }
[data-mouse-over-selected='true']  { opacity: 1.0; }
]]>
</style>
<script type="application/ecmascript"><![CDATA[
document.addEventListener('DOMContentLoaded', (event) => {
  highlightEdges();
  highlightAdjacentNodes();
});
]]></script>
</svg>
