<?xml version="1.0" encoding="UTF-8" standalone="no"?>
<!DOCTYPE svg PUBLIC "-//W3C//DTD SVG 1.1//EN"
 "http://www.w3.org/Graphics/SVG/1.1/DTD/svg11.dtd">
<!-- Generated by graphviz version 2.43.0 (0)
 -->
<!-- Title: cbrc::RecountComputerForGraphOnDisk::meanCountsFromTrue Pages: 1 -->
<svg width="1066pt" height="333pt"
 viewBox="0.00 0.00 1066.00 333.00" xmlns="http://www.w3.org/2000/svg" xmlns:xlink="http://www.w3.org/1999/xlink">
<g id="graph0" class="graph" transform="scale(1 1) rotate(0) translate(4 329)">
<title>cbrc::RecountComputerForGraphOnDisk::meanCountsFromTrue</title>
<!-- Node1 -->
<g id="Node000001" class="node">
<title>Node1</title>
<g id="a_Node000001"><a xlink:title=" ">
<polygon fill="#999999" stroke="#666666" points="194,-191.5 0,-191.5 0,-161.5 194,-161.5 194,-191.5"/>
<text text-anchor="start" x="8" y="-179.5" font-family="Helvetica,sans-Serif" font-size="10.00">cbrc::RecountComputerFor</text>
<text text-anchor="middle" x="97" y="-168.5" font-family="Helvetica,sans-Serif" font-size="10.00">GraphOnDisk::meanCountsFromTrue</text>
</a>
</g>
</g>
<!-- Node2 -->
<g id="Node000002" class="node">
<title>Node2</title>
<g id="a_Node000002"><a xlink:href="classcbrc_1_1RecountNeighborList.html#a8c7237c3fda7b0a00c74f0530d92609c" target="_top" xlink:title=" ">
<polygon fill="white" stroke="#666666" points="400,-325 241,-325 241,-306 400,-306 400,-325"/>
<text text-anchor="middle" x="320.5" y="-313" font-family="Helvetica,sans-Serif" font-size="10.00">cbrc::RecountNeighborList::id</text>
</a>
</g>
</g>
<!-- Node1&#45;&gt;Node2 -->
<g id="edge1_Node000001_Node000002" class="edge">
<title>Node1&#45;&gt;Node2</title>
<g id="a_edge1_Node000001_Node000002"><a xlink:title=" ">
<path fill="none" stroke="#63b8ff" d="M110.02,-191.78C131.28,-217.68 178.18,-269.95 230,-296.5 234.65,-298.88 239.59,-300.97 244.65,-302.79"/>
<polygon fill="#63b8ff" stroke="#63b8ff" points="243.93,-306.24 254.53,-305.99 246.09,-299.58 243.93,-306.24"/>
</a>
</g>
</g>
<!-- Node3 -->
<g id="Node000003" class="node">
<title>Node3</title>
<g id="a_Node000003"><a xlink:href="classcbrc_1_1RecountComputerForGraphOnDisk.html#a877ea8d9a07bdc993d676df12770aafe" target="_top" xlink:title=" ">
<polygon fill="white" stroke="#666666" points="411,-287.5 230,-287.5 230,-257.5 411,-257.5 411,-287.5"/>
<text text-anchor="start" x="238" y="-275.5" font-family="Helvetica,sans-Serif" font-size="10.00">cbrc::RecountComputerFor</text>
<text text-anchor="middle" x="320.5" y="-264.5" font-family="Helvetica,sans-Serif" font-size="10.00">GraphOnDisk::neighborProbGraph</text>
</a>
</g>
</g>
<!-- Node1&#45;&gt;Node3 -->
<g id="edge2_Node000001_Node000003" class="edge">
<title>Node1&#45;&gt;Node3</title>
<g id="a_edge2_Node000001_Node000003"><a xlink:title=" ">
<path fill="none" stroke="#63b8ff" d="M121.49,-191.55C147.26,-207.52 190.25,-232.59 230,-248.5 235.13,-250.55 240.5,-252.49 245.95,-254.3"/>
<polygon fill="#63b8ff" stroke="#63b8ff" points="245.22,-257.74 255.81,-257.43 247.34,-251.07 245.22,-257.74"/>
</a>
</g>
</g>
<!-- Node4 -->
<g id="Node000004" class="node">
<title>Node4</title>
<g id="a_Node000004"><a xlink:href="classcbrc_1_1RecountNeighborProbGraphOnDisk.html#a0a8db15dcb82bd036d025ffd258003a0" target="_top" xlink:title=" ">
<polygon fill="white" stroke="#666666" points="398,-239.5 243,-239.5 243,-209.5 398,-209.5 398,-239.5"/>
<text text-anchor="start" x="251" y="-227.5" font-family="Helvetica,sans-Serif" font-size="10.00">cbrc::RecountNeighborProb</text>
<text text-anchor="middle" x="320.5" y="-216.5" font-family="Helvetica,sans-Serif" font-size="10.00">GraphOnDisk::readFirstNode</text>
</a>
</g>
</g>
<!-- Node1&#45;&gt;Node4 -->
<g id="edge3_Node000001_Node000004" class="edge">
<title>Node1&#45;&gt;Node4</title>
<g id="a_edge3_Node000001_Node000004"><a xlink:title=" ">
<path fill="none" stroke="#63b8ff" d="M167.48,-191.56C190.57,-196.56 216.45,-202.17 240.22,-207.32"/>
<polygon fill="#63b8ff" stroke="#63b8ff" points="239.76,-210.8 250.27,-209.5 241.24,-203.96 239.76,-210.8"/>
</a>
</g>
</g>
<!-- Node8 -->
<g id="Node000008" class="node">
<title>Node8</title>
<g id="a_Node000008"><a xlink:href="classcbrc_1_1FLEArray.html#ad71311380d762114c9e0f3b0dda38b7c" target="_top" xlink:title=" ">
<polygon fill="white" stroke="#666666" points="1058,-143 947,-143 947,-124 1058,-124 1058,-143"/>
<text text-anchor="middle" x="1002.5" y="-131" font-family="Helvetica,sans-Serif" font-size="10.00">cbrc::FLEArray::size</text>
</a>
</g>
</g>
<!-- Node1&#45;&gt;Node8 -->
<g id="edge17_Node000001_Node000008" class="edge">
<title>Node1&#45;&gt;Node8</title>
<g id="a_edge17_Node000001_Node000008"><a xlink:title=" ">
<path fill="none" stroke="#63b8ff" d="M172.12,-161.49C190.94,-158.1 211.16,-154.83 230,-152.5 357.31,-136.78 389.72,-133.5 518,-133.5 518,-133.5 518,-133.5 684.5,-133.5 771.69,-133.5 872.37,-133.5 936.45,-133.5"/>
<polygon fill="#63b8ff" stroke="#63b8ff" points="936.81,-137 946.81,-133.5 936.81,-130 936.81,-137"/>
</a>
</g>
</g>
<!-- Node10 -->
<g id="Node000010" class="node">
<title>Node10</title>
<g id="a_Node000010"><a xlink:href="classcbrc_1_1RecountNeighborProbGraphOnDisk.html#aaa8a3a966c7d7b880fa23d0e7626ea23" target="_top" xlink:title=" ">
<polygon fill="white" stroke="#666666" points="399.5,-191.5 241.5,-191.5 241.5,-161.5 399.5,-161.5 399.5,-191.5"/>
<text text-anchor="start" x="249.5" y="-179.5" font-family="Helvetica,sans-Serif" font-size="10.00">cbrc::RecountNeighborProb</text>
<text text-anchor="middle" x="320.5" y="-168.5" font-family="Helvetica,sans-Serif" font-size="10.00">GraphOnDisk::readNextNode</text>
</a>
</g>
</g>
<!-- Node1&#45;&gt;Node10 -->
<g id="edge12_Node000001_Node000010" class="edge">
<title>Node1&#45;&gt;Node10</title>
<g id="a_edge12_Node000001_Node000010"><a xlink:title=" ">
<path fill="none" stroke="#63b8ff" d="M194.19,-176.5C206.5,-176.5 219.06,-176.5 231.24,-176.5"/>
<polygon fill="#63b8ff" stroke="#63b8ff" points="231.37,-180 241.37,-176.5 231.37,-173 231.37,-180"/>
</a>
</g>
</g>
<!-- Node11 -->
<g id="Node000011" class="node">
<title>Node11</title>
<g id="a_Node000011"><a xlink:href="classcbrc_1_1RecountTagCounts.html#a2685edc0c2014ba4c0096d855ca8de75" target="_top" xlink:title=" ">
<polygon fill="white" stroke="#666666" points="387,-105.5 254,-105.5 254,-75.5 387,-75.5 387,-105.5"/>
<text text-anchor="start" x="262" y="-93.5" font-family="Helvetica,sans-Serif" font-size="10.00">cbrc::RecountTagCounts</text>
<text text-anchor="middle" x="320.5" y="-82.5" font-family="Helvetica,sans-Serif" font-size="10.00">::size</text>
</a>
</g>
</g>
<!-- Node1&#45;&gt;Node11 -->
<g id="edge14_Node000001_Node000011" class="edge">
<title>Node1&#45;&gt;Node11</title>
<g id="a_edge14_Node000001_Node000011"><a xlink:title=" ">
<path fill="none" stroke="#63b8ff" d="M130.47,-161.46C156.98,-149.43 195.55,-132.49 230,-119.5 239.73,-115.83 250.15,-112.2 260.33,-108.8"/>
<polygon fill="#63b8ff" stroke="#63b8ff" points="261.57,-112.08 269.97,-105.63 259.38,-105.43 261.57,-112.08"/>
</a>
</g>
</g>
<!-- Node13 -->
<g id="Node000013" class="node">
<title>Node13</title>
<g id="a_Node000013"><a xlink:href="classcbrc_1_1RecountTagCounts.html#af7bdcf73a683bb55b5d4fc01125d7608" target="_top" xlink:title=" ">
<polygon fill="white" stroke="#666666" points="387,-41.5 254,-41.5 254,-11.5 387,-11.5 387,-41.5"/>
<text text-anchor="start" x="262" y="-29.5" font-family="Helvetica,sans-Serif" font-size="10.00">cbrc::RecountTagCounts</text>
<text text-anchor="middle" x="320.5" y="-18.5" font-family="Helvetica,sans-Serif" font-size="10.00">::zero</text>
</a>
</g>
</g>
<!-- Node1&#45;&gt;Node13 -->
<g id="edge18_Node000001_Node000013" class="edge">
<title>Node1&#45;&gt;Node13</title>
<g id="a_edge18_Node000001_Node000013"><a xlink:title=" ">
<path fill="none" stroke="#63b8ff" d="M113.16,-161.44C136.65,-138.7 183.93,-95.22 230,-66.5 242.43,-58.75 256.63,-51.68 269.99,-45.72"/>
<polygon fill="#63b8ff" stroke="#63b8ff" points="271.76,-48.77 279.54,-41.59 268.97,-42.35 271.76,-48.77"/>
</a>
</g>
</g>
<!-- Node5 -->
<g id="Node000005" class="node">
<title>Node5</title>
<g id="a_Node000005"><a xlink:href="classcbrc_1_1RecountNeighborList.html#a30923b03733e82c439caab42bddc9137" target="_top" xlink:title=" ">
<polygon fill="white" stroke="#666666" points="591,-239.5 447,-239.5 447,-209.5 591,-209.5 591,-239.5"/>
<text text-anchor="start" x="455" y="-227.5" font-family="Helvetica,sans-Serif" font-size="10.00">cbrc::RecountNeighborList</text>
<text text-anchor="middle" x="519" y="-216.5" font-family="Helvetica,sans-Serif" font-size="10.00">::read</text>
</a>
</g>
</g>
<!-- Node4&#45;&gt;Node5 -->
<g id="edge4_Node000004_Node000005" class="edge">
<title>Node4&#45;&gt;Node5</title>
<g id="a_edge4_Node000004_Node000005"><a xlink:title=" ">
<path fill="none" stroke="#63b8ff" d="M398.03,-224.5C410.7,-224.5 423.88,-224.5 436.66,-224.5"/>
<polygon fill="#63b8ff" stroke="#63b8ff" points="436.81,-228 446.81,-224.5 436.81,-221 436.81,-228"/>
</a>
</g>
</g>
<!-- Node6 -->
<g id="Node000006" class="node">
<title>Node6</title>
<g id="a_Node000006"><a xlink:href="classcbrc_1_1FLEArray.html#ab4f853671d71b67a4771b5199af8d8f8" target="_top" xlink:title=" ">
<polygon fill="white" stroke="#666666" points="740,-235 627,-235 627,-216 740,-216 740,-235"/>
<text text-anchor="middle" x="683.5" y="-223" font-family="Helvetica,sans-Serif" font-size="10.00">cbrc::FLEArray::read</text>
</a>
</g>
</g>
<!-- Node5&#45;&gt;Node6 -->
<g id="edge5_Node000005_Node000006" class="edge">
<title>Node5&#45;&gt;Node6</title>
<g id="a_edge5_Node000005_Node000006"><a xlink:title=" ">
<path fill="none" stroke="#63b8ff" d="M591.27,-224.94C599.76,-224.99 608.4,-225.04 616.8,-225.1"/>
<polygon fill="#63b8ff" stroke="#63b8ff" points="616.89,-228.6 626.91,-225.16 616.94,-221.6 616.89,-228.6"/>
</a>
</g>
</g>
<!-- Node6&#45;&gt;Node6 -->
<g id="edge10_Node000006_Node000006" class="edge">
<title>Node6&#45;&gt;Node6</title>
<g id="a_edge10_Node000006_Node000006"><a xlink:title=" ">
<path fill="none" stroke="#63b8ff" d="M658.84,-235.08C646.84,-243.73 655.06,-253 683.5,-253 702.16,-253 712.12,-249.01 713.37,-243.82"/>
<polygon fill="#63b8ff" stroke="#63b8ff" points="716.29,-241.88 708.16,-235.08 710.27,-245.47 716.29,-241.88"/>
</a>
</g>
</g>
<!-- Node7 -->
<g id="Node000007" class="node">
<title>Node7</title>
<g id="a_Node000007"><a xlink:href="classcbrc_1_1FLEArray.html#a8255bcefe055e10a4fccd3331b450fee" target="_top" xlink:title=" ">
<polygon fill="white" stroke="#666666" points="902,-275 785,-275 785,-256 902,-256 902,-275"/>
<text text-anchor="middle" x="843.5" y="-263" font-family="Helvetica,sans-Serif" font-size="10.00">cbrc::FLEArray::bsize</text>
</a>
</g>
</g>
<!-- Node6&#45;&gt;Node7 -->
<g id="edge6_Node000006_Node000007" class="edge">
<title>Node6&#45;&gt;Node7</title>
<g id="a_edge6_Node000006_Node000007"><a xlink:title=" ">
<path fill="none" stroke="#63b8ff" d="M722.34,-235.08C744.14,-240.6 771.72,-247.58 794.96,-253.47"/>
<polygon fill="#63b8ff" stroke="#63b8ff" points="794.41,-256.94 804.96,-256 796.13,-250.15 794.41,-256.94"/>
</a>
</g>
</g>
<!-- Node6&#45;&gt;Node8 -->
<g id="edge11_Node000006_Node000008" class="edge">
<title>Node6&#45;&gt;Node8</title>
<g id="a_edge11_Node000006_Node000008"><a xlink:title=" ">
<path fill="none" stroke="#63b8ff" d="M740.16,-230.53C787.36,-232.68 855.96,-230.7 911,-208.5 942.02,-195.99 970.41,-168.75 986.83,-150.78"/>
<polygon fill="#63b8ff" stroke="#63b8ff" points="989.48,-153.06 993.5,-143.26 984.25,-148.42 989.48,-153.06"/>
</a>
</g>
</g>
<!-- Node9 -->
<g id="Node000009" class="node">
<title>Node9</title>
<g id="a_Node000009"><a xlink:href="classcbrc_1_1FLEArray.html#a5368c7c0434bd5c119d2cbb39f4b399e" target="_top" xlink:title=" ">
<polygon fill="white" stroke="#666666" points="911,-181 776,-181 776,-162 911,-162 911,-181"/>
<text text-anchor="middle" x="843.5" y="-169" font-family="Helvetica,sans-Serif" font-size="10.00">cbrc::FLEArray::FLEArray</text>
</a>
</g>
</g>
<!-- Node6&#45;&gt;Node9 -->
<g id="edge8_Node000006_Node000009" class="edge">
<title>Node6&#45;&gt;Node9</title>
<g id="a_edge8_Node000006_Node000009"><a xlink:title=" ">
<path fill="none" stroke="#63b8ff" d="M712.38,-215.97C738.14,-207.17 776.6,-194.02 805.03,-184.31"/>
<polygon fill="#63b8ff" stroke="#63b8ff" points="806.3,-187.57 814.63,-181.03 804.04,-180.95 806.3,-187.57"/>
</a>
</g>
</g>
<!-- Node7&#45;&gt;Node8 -->
<g id="edge7_Node000007_Node000008" class="edge">
<title>Node7&#45;&gt;Node8</title>
<g id="a_edge7_Node000007_Node000008"><a xlink:title=" ">
<path fill="none" stroke="#63b8ff" d="M881.73,-255.93C891.76,-252.35 902.25,-247.62 911,-241.5 946.07,-216.99 975.46,-175.56 990.57,-151.77"/>
<polygon fill="#63b8ff" stroke="#63b8ff" points="993.69,-153.38 995.97,-143.03 987.74,-149.69 993.69,-153.38"/>
</a>
</g>
</g>
<!-- Node9&#45;&gt;Node9 -->
<g id="edge9_Node000009_Node000009" class="edge">
<title>Node9&#45;&gt;Node9</title>
<g id="a_edge9_Node000009_Node000009"><a xlink:title=" ">
<path fill="none" stroke="#63b8ff" d="M819.15,-181.08C807.3,-189.73 815.42,-199 843.5,-199 861.93,-199 871.76,-195.01 872.99,-189.82"/>
<polygon fill="#63b8ff" stroke="#63b8ff" points="875.94,-187.93 867.85,-181.08 869.91,-191.48 875.94,-187.93"/>
</a>
</g>
</g>
<!-- Node10&#45;&gt;Node5 -->
<g id="edge13_Node000010_Node000005" class="edge">
<title>Node10&#45;&gt;Node5</title>
<g id="a_edge13_Node000010_Node000005"><a xlink:title=" ">
<path fill="none" stroke="#63b8ff" d="M383.13,-191.56C403.34,-196.49 425.97,-202.02 446.82,-207.11"/>
<polygon fill="#63b8ff" stroke="#63b8ff" points="446.04,-210.52 456.58,-209.5 447.7,-203.72 446.04,-210.52"/>
</a>
</g>
</g>
<!-- Node11&#45;&gt;Node8 -->
<g id="edge16_Node000011_Node000008" class="edge">
<title>Node11&#45;&gt;Node8</title>
<g id="a_edge16_Node000011_Node000008"><a xlink:title=" ">
<path fill="none" stroke="#63b8ff" d="M387.09,-91.5C496.11,-93.65 721.39,-100.22 911,-119.5 919.3,-120.34 928,-121.43 936.58,-122.62"/>
<polygon fill="#63b8ff" stroke="#63b8ff" points="936.18,-126.1 946.58,-124.07 937.18,-119.17 936.18,-126.1"/>
</a>
</g>
</g>
<!-- Node12 -->
<g id="Node000012" class="node">
<title>Node12</title>
<g id="a_Node000012"><a xlink:href="classcbrc_1_1RecountTagCounts.html#ae05c5de97d80fdb60f1ff6a004ffc6ff" target="_top" xlink:title=" ">
<polygon fill="white" stroke="#666666" points="585.5,-67.5 452.5,-67.5 452.5,-37.5 585.5,-37.5 585.5,-67.5"/>
<text text-anchor="start" x="460.5" y="-55.5" font-family="Helvetica,sans-Serif" font-size="10.00">cbrc::RecountTagCounts</text>
<text text-anchor="middle" x="519" y="-44.5" font-family="Helvetica,sans-Serif" font-size="10.00">::counts</text>
</a>
</g>
</g>
<!-- Node11&#45;&gt;Node12 -->
<g id="edge15_Node000011_Node000012" class="edge">
<title>Node11&#45;&gt;Node12</title>
<g id="a_edge15_Node000011_Node000012"><a xlink:title=" ">
<path fill="none" stroke="#63b8ff" d="M387.2,-77.79C404.9,-74.37 424.19,-70.64 442.38,-67.12"/>
<polygon fill="#63b8ff" stroke="#63b8ff" points="443.2,-70.53 452.36,-65.19 441.87,-63.66 443.2,-70.53"/>
</a>
</g>
</g>
<!-- Node14 -->
<g id="Node000014" class="node">
<title>Node14</title>
<g id="a_Node000014"><a xlink:href="classcbrc_1_1FLEArray.html#a31b7db1817b5eec4d9cbb10bfe07d58a" target="_top" xlink:title=" ">
<polygon fill="white" stroke="#666666" points="575.5,-19 462.5,-19 462.5,0 575.5,0 575.5,-19"/>
<text text-anchor="middle" x="519" y="-7" font-family="Helvetica,sans-Serif" font-size="10.00">cbrc::FLEArray::zero</text>
</a>
</g>
</g>
<!-- Node13&#45;&gt;Node14 -->
<g id="edge19_Node000013_Node000014" class="edge">
<title>Node13&#45;&gt;Node14</title>
<g id="a_edge19_Node000013_Node000014"><a xlink:title=" ">
<path fill="none" stroke="#63b8ff" d="M387.2,-20.82C408.11,-19.01 431.22,-17.01 452.14,-15.2"/>
<polygon fill="#63b8ff" stroke="#63b8ff" points="452.55,-18.68 462.21,-14.33 451.94,-11.7 452.55,-18.68"/>
</a>
</g>
</g>
<!-- Node15 -->
<g id="Node000015" class="node">
<title>Node15</title>
<g id="a_Node000015"><a xlink:href="classcbrc_1_1FLEArray.html#ab3482d140dd947c2d956fa5620da84ab" target="_top" xlink:title=" ">
<polygon fill="white" stroke="#666666" points="735.5,-34 631.5,-34 631.5,-15 735.5,-15 735.5,-34"/>
<text text-anchor="middle" x="683.5" y="-22" font-family="Helvetica,sans-Serif" font-size="10.00">cbrc::FLEArray::fill</text>
</a>
</g>
</g>
<!-- Node14&#45;&gt;Node15 -->
<g id="edge20_Node000014_Node000015" class="edge">
<title>Node14&#45;&gt;Node15</title>
<g id="a_edge20_Node000014_Node000015"><a xlink:title=" ">
<path fill="none" stroke="#63b8ff" d="M575.92,-14.66C590.54,-16.01 606.38,-17.47 621.26,-18.85"/>
<polygon fill="#63b8ff" stroke="#63b8ff" points="621.1,-22.35 631.38,-19.78 621.75,-15.38 621.1,-22.35"/>
</a>
</g>
</g>
<!-- Node15&#45;&gt;Node8 -->
<g id="edge22_Node000015_Node000008" class="edge">
<title>Node15&#45;&gt;Node8</title>
<g id="a_edge22_Node000015_Node000008"><a xlink:title=" ">
<path fill="none" stroke="#63b8ff" d="M735.69,-33.21C782.44,-42.13 852.91,-58.03 911,-81.5 935.46,-91.39 961.38,-106.85 979.18,-118.35"/>
<polygon fill="#63b8ff" stroke="#63b8ff" points="977.42,-121.38 987.7,-123.95 981.26,-115.53 977.42,-121.38"/>
</a>
</g>
</g>
<!-- Node15&#45;&gt;Node15 -->
<g id="edge21_Node000015_Node000015" class="edge">
<title>Node15&#45;&gt;Node15</title>
<g id="a_edge21_Node000015_Node000015"><a xlink:title=" ">
<path fill="none" stroke="#63b8ff" d="M658.84,-34.08C646.84,-42.73 655.06,-52 683.5,-52 702.16,-52 712.12,-48.01 713.37,-42.82"/>
<polygon fill="#63b8ff" stroke="#63b8ff" points="716.29,-40.88 708.16,-34.08 710.27,-44.47 716.29,-40.88"/>
</a>
</g>
</g>
</g>
</svg>
