<?xml version="1.0" encoding="UTF-8" standalone="no"?>
<!DOCTYPE svg PUBLIC "-//W3C//DTD SVG 1.1//EN"
 "http://www.w3.org/Graphics/SVG/1.1/DTD/svg11.dtd">
<!-- Generated by graphviz version 2.43.0 (0)
 -->
<!-- Title: cbrc::Blast8Result::operator&lt; Pages: 1 -->
<svg width="578pt" height="38pt"
 viewBox="0.00 0.00 578.00 38.00" xmlns="http://www.w3.org/2000/svg" xmlns:xlink="http://www.w3.org/1999/xlink">
<g id="graph0" class="graph" transform="scale(1 1) rotate(0) translate(4 34)">
<title>cbrc::Blast8Result::operator&lt;</title>
<!-- Node1 -->
<g id="Node000001" class="node">
<title>Node1</title>
<g id="a_Node000001"><a xlink:title=" ">
<polygon fill="#999999" stroke="#666666" points="104,-30 0,-30 0,0 104,0 104,-30"/>
<text text-anchor="start" x="8" y="-18" font-family="Helvetica,sans-Serif" font-size="10.00">cbrc::Blast8Result</text>
<text text-anchor="middle" x="52" y="-7" font-family="Helvetica,sans-Serif" font-size="10.00">::operator&lt;</text>
</a>
</g>
</g>
<!-- Node2 -->
<g id="Node000002" class="node">
<title>Node2</title>
<g id="a_Node000002"><a xlink:href="classcbrc_1_1Blast8Result.html#a6d16264dd6292e54b1546146230b3d74" target="_top" xlink:title=" ">
<polygon fill="white" stroke="#666666" points="244,-30 140,-30 140,0 244,0 244,-30"/>
<text text-anchor="start" x="148" y="-18" font-family="Helvetica,sans-Serif" font-size="10.00">cbrc::Blast8Result</text>
<text text-anchor="middle" x="192" y="-7" font-family="Helvetica,sans-Serif" font-size="10.00">::eValue</text>
</a>
</g>
</g>
<!-- Node1&#45;&gt;Node2 -->
<g id="edge1_Node000001_Node000002" class="edge">
<title>Node1&#45;&gt;Node2</title>
<g id="a_edge1_Node000001_Node000002"><a xlink:title=" ">
<path fill="none" stroke="#63b8ff" d="M104.39,-15C112.56,-15 121.08,-15 129.46,-15"/>
<polygon fill="#63b8ff" stroke="#63b8ff" points="129.57,-18.5 139.57,-15 129.57,-11.5 129.57,-18.5"/>
</a>
</g>
</g>
<!-- Node3 -->
<g id="Node000003" class="node">
<title>Node3</title>
<g id="a_Node000003"><a xlink:href="namespacecbrc_1_1perlish.html#a0e108ed71261c0e210de8d812835028c" target="_top" xlink:title=" ">
<polygon fill="white" stroke="#666666" points="406,-24.5 280,-24.5 280,-5.5 406,-5.5 406,-24.5"/>
<text text-anchor="middle" x="343" y="-12.5" font-family="Helvetica,sans-Serif" font-size="10.00">cbrc::perlish::toDouble</text>
</a>
</g>
</g>
<!-- Node2&#45;&gt;Node3 -->
<g id="edge2_Node000002_Node000003" class="edge">
<title>Node2&#45;&gt;Node3</title>
<g id="a_edge2_Node000002_Node000003"><a xlink:title=" ">
<path fill="none" stroke="#63b8ff" d="M244.28,-15C252.51,-15 261.15,-15 269.76,-15"/>
<polygon fill="#63b8ff" stroke="#63b8ff" points="269.82,-18.5 279.82,-15 269.82,-11.5 269.82,-18.5"/>
</a>
</g>
</g>
<!-- Node4 -->
<g id="Node000004" class="node">
<title>Node4</title>
<g id="a_Node000004"><a xlink:href="namespacecbrc_1_1perlish.html#a2e0de63b4246722762d5e7c734dae391" target="_top" xlink:title=" ">
<polygon fill="white" stroke="#666666" points="570,-30 442,-30 442,0 570,0 570,-30"/>
<text text-anchor="start" x="450" y="-18" font-family="Helvetica,sans-Serif" font-size="10.00">cbrc::perlish::looksLike</text>
<text text-anchor="middle" x="506" y="-7" font-family="Helvetica,sans-Serif" font-size="10.00">RealCstring</text>
</a>
</g>
</g>
<!-- Node3&#45;&gt;Node4 -->
<g id="edge3_Node000003_Node000004" class="edge">
<title>Node3&#45;&gt;Node4</title>
<g id="a_edge3_Node000003_Node000004"><a xlink:title=" ">
<path fill="none" stroke="#63b8ff" d="M406.25,-15C414.55,-15 423.13,-15 431.6,-15"/>
<polygon fill="#63b8ff" stroke="#63b8ff" points="431.86,-18.5 441.86,-15 431.86,-11.5 431.86,-18.5"/>
</a>
</g>
</g>
</g>
</svg>
