<?xml version="1.0" encoding="UTF-8" standalone="no"?>
<!DOCTYPE svg PUBLIC "-//W3C//DTD SVG 1.1//EN"
 "http://www.w3.org/Graphics/SVG/1.1/DTD/svg11.dtd">
<!-- Generated by graphviz version 2.43.0 (0)
 -->
<!-- Title: cbrc::TransfacTextLine::TransfacTextLine Pages: 1 -->
<svg width="659pt" height="128pt"
 viewBox="0.00 0.00 659.00 128.00" xmlns="http://www.w3.org/2000/svg" xmlns:xlink="http://www.w3.org/1999/xlink">
<g id="graph0" class="graph" transform="scale(1 1) rotate(0) translate(4 124)">
<title>cbrc::TransfacTextLine::TransfacTextLine</title>
<!-- Node1 -->
<g id="Node000001" class="node">
<title>Node1</title>
<g id="a_Node000001"><a xlink:title=" ">
<polygon fill="#999999" stroke="#666666" points="124,-79.5 0,-79.5 0,-49.5 124,-49.5 124,-79.5"/>
<text text-anchor="start" x="8" y="-67.5" font-family="Helvetica,sans-Serif" font-size="10.00">cbrc::TransfacTextLine</text>
<text text-anchor="middle" x="62" y="-56.5" font-family="Helvetica,sans-Serif" font-size="10.00">::TransfacTextLine</text>
</a>
</g>
</g>
<!-- Node2 -->
<g id="Node000002" class="node">
<title>Node2</title>
<g id="a_Node000002"><a xlink:href="classcbrc_1_1TransfacTextLine.html#ad036f13e1217eeafc9b279035e48fd77" target="_top" xlink:title=" ">
<polygon fill="white" stroke="#666666" points="305,-74 160,-74 160,-55 305,-55 305,-74"/>
<text text-anchor="middle" x="232.5" y="-62" font-family="Helvetica,sans-Serif" font-size="10.00">cbrc::TransfacTextLine::set</text>
</a>
</g>
</g>
<!-- Node1&#45;&gt;Node2 -->
<g id="edge1_Node000001_Node000002" class="edge">
<title>Node1&#45;&gt;Node2</title>
<g id="a_edge1_Node000001_Node000002"><a xlink:title=" ">
<path fill="none" stroke="#63b8ff" d="M124.31,-64.5C132.63,-64.5 141.27,-64.5 149.88,-64.5"/>
<polygon fill="#63b8ff" stroke="#63b8ff" points="149.94,-68 159.94,-64.5 149.94,-61 149.94,-68"/>
</a>
</g>
</g>
<!-- Node3 -->
<g id="Node000003" class="node">
<title>Node3</title>
<g id="a_Node000003"><a xlink:href="namespacecbrc_1_1perlish.html#a5aee841bd38ed061ef3f226fb45273f1" target="_top" xlink:title=" ">
<polygon fill="white" stroke="#666666" points="496,-102 341,-102 341,-83 496,-83 496,-102"/>
<text text-anchor="middle" x="418.5" y="-90" font-family="Helvetica,sans-Serif" font-size="10.00">cbrc::perlish::spaceTabString</text>
</a>
</g>
</g>
<!-- Node2&#45;&gt;Node3 -->
<g id="edge2_Node000002_Node000003" class="edge">
<title>Node2&#45;&gt;Node3</title>
<g id="a_edge2_Node000002_Node000003"><a xlink:title=" ">
<path fill="none" stroke="#63b8ff" d="M296.05,-74.02C311.75,-76.41 328.74,-78.99 344.88,-81.45"/>
<polygon fill="#63b8ff" stroke="#63b8ff" points="344.4,-84.92 354.81,-82.96 345.45,-78 344.4,-84.92"/>
</a>
</g>
</g>
<!-- Node5 -->
<g id="Node000005" class="node">
<title>Node5</title>
<g id="a_Node000005"><a xlink:href="namespacecbrc_1_1perlish.html#a101a4746d50e52a00273c6fe533970ec" target="_top" xlink:title=" ">
<polygon fill="white" stroke="#666666" points="470,-47 367,-47 367,-28 470,-28 470,-47"/>
<text text-anchor="middle" x="418.5" y="-35" font-family="Helvetica,sans-Serif" font-size="10.00">cbrc::perlish::split</text>
</a>
</g>
</g>
<!-- Node2&#45;&gt;Node5 -->
<g id="edge5_Node000002_Node000005" class="edge">
<title>Node2&#45;&gt;Node5</title>
<g id="a_edge5_Node000002_Node000005"><a xlink:title=" ">
<path fill="none" stroke="#63b8ff" d="M298.37,-54.98C317.4,-52.19 338.14,-49.15 356.89,-46.39"/>
<polygon fill="#63b8ff" stroke="#63b8ff" points="357.4,-49.86 366.79,-44.94 356.39,-42.93 357.4,-49.86"/>
</a>
</g>
</g>
<!-- Node3&#45;&gt;Node3 -->
<g id="edge4_Node000003_Node000003" class="edge">
<title>Node3&#45;&gt;Node3</title>
<g id="a_edge4_Node000003_Node000003"><a xlink:title=" ">
<path fill="none" stroke="#63b8ff" d="M391.99,-102.08C379.09,-110.73 387.93,-120 418.5,-120 439.04,-120 449.77,-115.82 450.69,-110.45"/>
<polygon fill="#63b8ff" stroke="#63b8ff" points="453.52,-108.39 445.01,-102.08 447.73,-112.32 453.52,-108.39"/>
</a>
</g>
</g>
<!-- Node4 -->
<g id="Node000004" class="node">
<title>Node4</title>
<g id="a_Node000004"><a xlink:href="classcbrc_1_1FLEArray.html#ad71311380d762114c9e0f3b0dda38b7c" target="_top" xlink:title=" ">
<polygon fill="white" stroke="#666666" points="647,-102 536,-102 536,-83 647,-83 647,-102"/>
<text text-anchor="middle" x="591.5" y="-90" font-family="Helvetica,sans-Serif" font-size="10.00">cbrc::FLEArray::size</text>
</a>
</g>
</g>
<!-- Node3&#45;&gt;Node4 -->
<g id="edge3_Node000003_Node000004" class="edge">
<title>Node3&#45;&gt;Node4</title>
<g id="a_edge3_Node000003_Node000004"><a xlink:title=" ">
<path fill="none" stroke="#63b8ff" d="M496.5,-92.5C506.26,-92.5 516.18,-92.5 525.72,-92.5"/>
<polygon fill="#63b8ff" stroke="#63b8ff" points="525.92,-96 535.92,-92.5 525.92,-89 525.92,-96"/>
</a>
</g>
</g>
<!-- Node5&#45;&gt;Node5 -->
<g id="edge8_Node000005_Node000005" class="edge">
<title>Node5&#45;&gt;Node5</title>
<g id="a_edge8_Node000005_Node000005"><a xlink:title=" ">
<path fill="none" stroke="#63b8ff" d="M391.99,-47.08C379.09,-55.73 387.93,-65 418.5,-65 439.04,-65 449.77,-60.82 450.69,-55.45"/>
<polygon fill="#63b8ff" stroke="#63b8ff" points="453.52,-53.39 445.01,-47.08 447.73,-57.32 453.52,-53.39"/>
</a>
</g>
</g>
<!-- Node6 -->
<g id="Node000006" class="node">
<title>Node6</title>
<g id="a_Node000006"><a xlink:href="classcbrc_1_1FLEArray.html#a7e5d0d3bc5c41546620ccff95b55b3fa" target="_top" xlink:title=" ">
<polygon fill="white" stroke="#666666" points="651,-56 532,-56 532,-37 651,-37 651,-56"/>
<text text-anchor="middle" x="591.5" y="-44" font-family="Helvetica,sans-Serif" font-size="10.00">cbrc::FLEArray::begin</text>
</a>
</g>
</g>
<!-- Node5&#45;&gt;Node6 -->
<g id="edge6_Node000005_Node000006" class="edge">
<title>Node5&#45;&gt;Node6</title>
<g id="a_edge6_Node000005_Node000006"><a xlink:title=" ">
<path fill="none" stroke="#63b8ff" d="M470.34,-40.18C486.32,-41.02 504.25,-41.96 521.28,-42.86"/>
<polygon fill="#63b8ff" stroke="#63b8ff" points="521.57,-46.38 531.74,-43.41 521.94,-39.39 521.57,-46.38"/>
</a>
</g>
</g>
<!-- Node7 -->
<g id="Node000007" class="node">
<title>Node7</title>
<g id="a_Node000007"><a xlink:href="classcbrc_1_1FLEArray.html#a8c53878dc57e8f666976e041d146a523" target="_top" xlink:title=" ">
<polygon fill="white" stroke="#666666" points="646.5,-19 536.5,-19 536.5,0 646.5,0 646.5,-19"/>
<text text-anchor="middle" x="591.5" y="-7" font-family="Helvetica,sans-Serif" font-size="10.00">cbrc::FLEArray::end</text>
</a>
</g>
</g>
<!-- Node5&#45;&gt;Node7 -->
<g id="edge7_Node000005_Node000007" class="edge">
<title>Node5&#45;&gt;Node7</title>
<g id="a_edge7_Node000005_Node000007"><a xlink:title=" ">
<path fill="none" stroke="#63b8ff" d="M470.34,-29.17C487.87,-26.3 507.74,-23.05 526.2,-20.03"/>
<polygon fill="#63b8ff" stroke="#63b8ff" points="526.98,-23.45 536.28,-18.38 525.85,-16.54 526.98,-23.45"/>
</a>
</g>
</g>
</g>
</svg>
