<?xml version="1.0" encoding="UTF-8" standalone="no"?>
<!DOCTYPE svg PUBLIC "-//W3C//DTD SVG 1.1//EN"
 "http://www.w3.org/Graphics/SVG/1.1/DTD/svg11.dtd">
<!-- Generated by graphviz version 2.43.0 (0)
 -->
<!-- Title: cbrc::SerialNumbersForStrings::getSerialNumber Pages: 1 -->
<svg width="659pt" height="169pt"
 viewBox="0.00 0.00 659.00 168.50" xmlns="http://www.w3.org/2000/svg" xmlns:xlink="http://www.w3.org/1999/xlink">
<g id="graph0" class="graph" transform="scale(1 1) rotate(0) translate(4 164.5)">
<title>cbrc::SerialNumbersForStrings::getSerialNumber</title>
<!-- Node1 -->
<g id="Node000001" class="node">
<title>Node1</title>
<g id="a_Node000001"><a xlink:title=" ">
<polygon fill="#999999" stroke="#666666" points="651,-112.5 487,-112.5 487,-82.5 651,-82.5 651,-112.5"/>
<text text-anchor="start" x="495" y="-100.5" font-family="Helvetica,sans-Serif" font-size="10.00">cbrc::SerialNumbersForStrings</text>
<text text-anchor="middle" x="569" y="-89.5" font-family="Helvetica,sans-Serif" font-size="10.00">::getSerialNumber</text>
</a>
</g>
</g>
<!-- Node2 -->
<g id="Node000002" class="node">
<title>Node2</title>
<g id="a_Node000002"><a xlink:href="classcbrc_1_1MatrixGraph.html#ade9e70ed22be1e11a6675ace517c701d" target="_top" xlink:title=" ">
<polygon fill="white" stroke="#666666" points="440,-160.5 258,-160.5 258,-130.5 440,-130.5 440,-160.5"/>
<text text-anchor="start" x="266" y="-148.5" font-family="Helvetica,sans-Serif" font-size="10.00">cbrc::MatrixGraph::</text>
<text text-anchor="middle" x="349" y="-137.5" font-family="Helvetica,sans-Serif" font-size="10.00">readEdgesOneEdgePerLineFormat</text>
</a>
</g>
</g>
<!-- Node1&#45;&gt;Node2 -->
<g id="edge1_Node000001_Node000002" class="edge">
<title>Node1&#45;&gt;Node2</title>
<g id="a_edge1_Node000001_Node000002"><a xlink:title=" ">
<path fill="none" stroke="#63b8ff" d="M489.73,-114.73C466.31,-119.89 440.84,-125.5 418.14,-130.5"/>
<polygon fill="#63b8ff" stroke="#63b8ff" points="490.61,-118.12 499.62,-112.56 489.1,-111.29 490.61,-118.12"/>
</a>
</g>
</g>
<!-- Node3 -->
<g id="Node000003" class="node">
<title>Node3</title>
<g id="a_Node000003"><a xlink:href="classcbrc_1_1NeighborListGraph.html#abbd45bbda58cea747cb90e3a7feafdfd" target="_top" xlink:title=" ">
<polygon fill="white" stroke="#666666" points="428,-112.5 270,-112.5 270,-82.5 428,-82.5 428,-112.5"/>
<text text-anchor="start" x="278" y="-100.5" font-family="Helvetica,sans-Serif" font-size="10.00">cbrc::NeighborListGraph</text>
<text text-anchor="middle" x="349" y="-89.5" font-family="Helvetica,sans-Serif" font-size="10.00">::readOneEdgePerLineFormat</text>
</a>
</g>
</g>
<!-- Node1&#45;&gt;Node3 -->
<g id="edge2_Node000001_Node000003" class="edge">
<title>Node1&#45;&gt;Node3</title>
<g id="a_edge2_Node000001_Node000003"><a xlink:title=" ">
<path fill="none" stroke="#63b8ff" d="M476.41,-97.5C460.43,-97.5 443.93,-97.5 428.35,-97.5"/>
<polygon fill="#63b8ff" stroke="#63b8ff" points="476.82,-101 486.82,-97.5 476.82,-94 476.82,-101"/>
</a>
</g>
</g>
<!-- Node4 -->
<g id="Node000004" class="node">
<title>Node4</title>
<g id="a_Node000004"><a xlink:href="classcbrc_1_1ConstantLabeledSquareDoubleFLENumMatrix.html#ad7db3f1395829b77b3c9ad8b5edb7d21" target="_top" xlink:title=" ">
<polygon fill="white" stroke="#666666" points="451,-64.5 247,-64.5 247,-34.5 451,-34.5 451,-64.5"/>
<text text-anchor="start" x="255" y="-52.5" font-family="Helvetica,sans-Serif" font-size="10.00">cbrc::ConstantLabeledSquare</text>
<text text-anchor="middle" x="349" y="-41.5" font-family="Helvetica,sans-Serif" font-size="10.00">DoubleFLENumMatrix::setFromStream</text>
</a>
</g>
</g>
<!-- Node1&#45;&gt;Node4 -->
<g id="edge3_Node000001_Node000004" class="edge">
<title>Node1&#45;&gt;Node4</title>
<g id="a_edge3_Node000001_Node000004"><a xlink:title=" ">
<path fill="none" stroke="#63b8ff" d="M489.73,-80.27C466.31,-75.11 440.84,-69.5 418.14,-64.5"/>
<polygon fill="#63b8ff" stroke="#63b8ff" points="489.1,-83.71 499.62,-82.44 490.61,-76.88 489.1,-83.71"/>
</a>
</g>
</g>
<!-- Node5 -->
<g id="Node000005" class="node">
<title>Node5</title>
<g id="a_Node000005"><a xlink:href="classcbrc_1_1ConstantLabeledSquareDoubleFLENumMatrix.html#ab4382a4662ed8b6685ed8609586590ea" target="_top" xlink:title=" ">
<polygon fill="white" stroke="#666666" points="211,-100 0,-100 0,-59 211,-59 211,-100"/>
<text text-anchor="start" x="8" y="-88" font-family="Helvetica,sans-Serif" font-size="10.00">cbrc::ConstantLabeledSquare</text>
<text text-anchor="start" x="8" y="-77" font-family="Helvetica,sans-Serif" font-size="10.00">DoubleFLENumMatrix::ConstantLabeled</text>
<text text-anchor="middle" x="105.5" y="-66" font-family="Helvetica,sans-Serif" font-size="10.00">SquareDoubleFLENumMatrix</text>
</a>
</g>
</g>
<!-- Node4&#45;&gt;Node5 -->
<g id="edge4_Node000004_Node000005" class="edge">
<title>Node4&#45;&gt;Node5</title>
<g id="a_edge4_Node000004_Node000005"><a xlink:title=" ">
<path fill="none" stroke="#63b8ff" d="M237.01,-63.29C228.48,-64.35 219.88,-65.42 211.39,-66.47"/>
<polygon fill="#63b8ff" stroke="#63b8ff" points="237.49,-66.76 246.98,-62.05 236.63,-59.81 237.49,-66.76"/>
</a>
</g>
</g>
<!-- Node6 -->
<g id="Node000006" class="node">
<title>Node6</title>
<g id="a_Node000006"><a xlink:href="classcbrc_1_1ConstantLabeledSquareDoubleFLENumMatrix.html#ae744cd721a1c3ec56ecf854092e90543" target="_top" xlink:title=" ">
<polygon fill="white" stroke="#666666" points="211,-41 0,-41 0,0 211,0 211,-41"/>
<text text-anchor="start" x="8" y="-29" font-family="Helvetica,sans-Serif" font-size="10.00">cbrc::ConstantLabeledSquare</text>
<text text-anchor="start" x="8" y="-18" font-family="Helvetica,sans-Serif" font-size="10.00">DoubleFLENumMatrix::ConstantLabeled</text>
<text text-anchor="middle" x="105.5" y="-7" font-family="Helvetica,sans-Serif" font-size="10.00">SquareDoubleFLENumMatrix</text>
</a>
</g>
</g>
<!-- Node4&#45;&gt;Node6 -->
<g id="edge5_Node000004_Node000006" class="edge">
<title>Node4&#45;&gt;Node6</title>
<g id="a_edge5_Node000004_Node000006"><a xlink:title=" ">
<path fill="none" stroke="#63b8ff" d="M237.01,-36.17C228.48,-35.15 219.88,-34.11 211.39,-33.1"/>
<polygon fill="#63b8ff" stroke="#63b8ff" points="236.64,-39.65 246.98,-37.37 237.47,-32.7 236.64,-39.65"/>
</a>
</g>
</g>
</g>
</svg>
