<?xml version="1.0" encoding="UTF-8" standalone="no"?>
<!DOCTYPE svg PUBLIC "-//W3C//DTD SVG 1.1//EN"
 "http://www.w3.org/Graphics/SVG/1.1/DTD/svg11.dtd">
<!-- Generated by graphviz version 2.43.0 (0)
 -->
<!-- Title: cbrc::SeqGlobalAffineAligner::SeqGlobalAffineAligner Pages: 1 -->
<!--zoomable 140 -->

<svg id="main" version="1.1" xmlns="http://www.w3.org/2000/svg" xmlns:xlink="http://www.w3.org/1999/xlink" xml:space="preserve" onload="init(evt)">
<style type="text/css"><![CDATA[
.node, .edge {opacity: 0.7;}
.node.selected, .edge.selected {opacity: 1;}
.edge:hover path { stroke: red; }
.edge:hover polygon { stroke: red; fill: red; }
]]></style>

<defs>
  <circle id="rim" cx="0" cy="0" r="7"/>
  <circle id="rim2" cx="0" cy="0" r="3.5"/>
  <g id="zoomPlus">
    <use xlink:href="#rim" fill="#404040"><set attributeName="fill" to="#808080" begin="zoomplus.mouseover" end="zoomplus.mouseout"/></use>
    <path d="M-4,0h8M0,-4v8" fill="none" stroke="white" stroke-width="1.5" pointer-events="none"/>
  </g>
  <g id="zoomMin">
    <use xlink:href="#rim" fill="#404040"><set attributeName="fill" to="#808080" begin="zoomminus.mouseover" end="zoomminus.mouseout"/></use>
    <path d="M-4,0h8" fill="none" stroke="white" stroke-width="1.5" pointer-events="none"/>
  </g>
  <g id="arrowUp" transform="translate(30 24)">
    <use xlink:href="#rim"/>
    <path pointer-events="none" fill="none" stroke="white" stroke-width="1.5" d="M0,-3.0v7 M-2.5,-0.5L0,-3.0L2.5,-0.5"/>
  </g>
  <g id="arrowRight" transform="rotate(90) translate(36 -43)">
    <use xlink:href="#rim"/>
    <path pointer-events="none" fill="none" stroke="white" stroke-width="1.5" d="M0,-3.0v7 M-2.5,-0.5L0,-3.0L2.5,-0.5"/>
  </g>
  <g id="arrowDown" transform="rotate(180) translate(-30 -48)">
    <use xlink:href="#rim"/>
    <path pointer-events="none" fill="none" stroke="white" stroke-width="1.5" d="M0,-3.0v7 M-2.5,-0.5L0,-3.0L2.5,-0.5"/>
  </g>
  <g id="arrowLeft" transform="rotate(270) translate(-36 17)">
    <use xlink:href="#rim"/>
    <path pointer-events="none" fill="none" stroke="white" stroke-width="1.5" d="M0,-3.0v7 M-2.5,-0.5L0,-3.0L2.5,-0.5"/>
  </g>
  <g id="resetDef">
    <use xlink:href="#rim2" fill="#404040"><set attributeName="fill" to="#808080" begin="reset.mouseover" end="reset.mouseout"/></use>
  </g>
</defs>
<script type="application/ecmascript">
var viewWidth = 768;
var viewHeight = 140;
var sectionId = 'dynsection-0';
</script>
<script type="application/ecmascript" xlink:href="svg.min.js"/>
<svg id="graph" class="graph">
<g id="viewport">
<title>cbrc::SeqGlobalAffineAligner::SeqGlobalAffineAligner</title>
<!-- Node1 -->
<g id="Node000001" class="node">
<title>Node1</title>
<g id="a_Node000001"><a xlink:title=" ">
<polygon fill="#999999" stroke="#666666" points="155,-88.5 0,-88.5 0,-58.5 155,-58.5 155,-88.5"/>
<text text-anchor="start" x="8" y="-76.5" font-family="Helvetica,sans-Serif" font-size="10.00">cbrc::SeqGlobalAffineAligner</text>
<text text-anchor="middle" x="77.5" y="-65.5" font-family="Helvetica,sans-Serif" font-size="10.00">::SeqGlobalAffineAligner</text>
</a>
</g>
</g>
<!-- Node2 -->
<g id="Node000002" class="node">
<title>Node2</title>
<g id="a_Node000002"><a xlink:href="classcbrc_1_1SeqGlobalAffineAligner.html#abfd1556484b4c230c84fe4d1af47003e" target="_top" xlink:title=" ">
<polygon fill="white" stroke="#666666" points="760,-128.5 605,-128.5 605,-98.5 760,-98.5 760,-128.5"/>
<text text-anchor="start" x="613" y="-116.5" font-family="Helvetica,sans-Serif" font-size="10.00">cbrc::SeqGlobalAffineAligner</text>
<text text-anchor="middle" x="682.5" y="-105.5" font-family="Helvetica,sans-Serif" font-size="10.00">::resSubScore</text>
</a>
</g>
</g>
<!-- Node1&#45;&gt;Node2 -->
<g id="edge1_Node000001_Node000002" class="edge">
<title>Node1&#45;&gt;Node2</title>
<g id="a_edge1_Node000001_Node000002"><a xlink:title=" ">
<path fill="none" stroke="#63b8ff" d="M111.16,-88.68C133.19,-98.09 163.2,-109.34 191,-114.5 330.28,-140.38 495.68,-132.2 594.43,-123.3"/>
<polygon fill="#63b8ff" stroke="#63b8ff" points="595.03,-126.76 604.66,-122.36 594.38,-119.79 595.03,-126.76"/>
</a>
</g>
</g>
<!-- Node3 -->
<g id="Node000003" class="node">
<title>Node3</title>
<g id="a_Node000003"><a xlink:href="classcbrc_1_1FLEMatrix.html#aa24d123dd6d858576c79731bc397dfba" target="_top" xlink:title=" ">
<polygon fill="white" stroke="#666666" points="351,-105 218,-105 218,-86 351,-86 351,-105"/>
<text text-anchor="middle" x="284.5" y="-93" font-family="Helvetica,sans-Serif" font-size="10.00">cbrc::FLEMatrix::setSize</text>
</a>
</g>
</g>
<!-- Node1&#45;&gt;Node3 -->
<g id="edge2_Node000001_Node000003" class="edge">
<title>Node1&#45;&gt;Node3</title>
<g id="a_edge2_Node000001_Node000003"><a xlink:title=" ">
<path fill="none" stroke="#63b8ff" d="M155.13,-81.73C172.33,-83.57 190.58,-85.53 207.75,-87.37"/>
<polygon fill="#63b8ff" stroke="#63b8ff" points="207.41,-90.86 217.72,-88.44 208.15,-83.9 207.41,-90.86"/>
</a>
</g>
</g>
<!-- Node4 -->
<g id="Node000004" class="node">
<title>Node4</title>
<g id="a_Node000004"><a xlink:href="classcbrc_1_1SeqGlobalAffineAligner.html#ac23190ed7b67ffffd77ae8a7edec7a8a" target="_top" xlink:title=" ">
<polygon fill="white" stroke="#666666" points="378,-67.5 191,-67.5 191,-37.5 378,-37.5 378,-67.5"/>
<text text-anchor="start" x="199" y="-55.5" font-family="Helvetica,sans-Serif" font-size="10.00">cbrc::SeqGlobalAffineAligner</text>
<text text-anchor="middle" x="284.5" y="-44.5" font-family="Helvetica,sans-Serif" font-size="10.00">::singleSeqBasedScoreUpperBound</text>
</a>
</g>
</g>
<!-- Node1&#45;&gt;Node4 -->
<g id="edge3_Node000001_Node000004" class="edge">
<title>Node1&#45;&gt;Node4</title>
<g id="a_edge3_Node000001_Node000004"><a xlink:title=" ">
<path fill="none" stroke="#63b8ff" d="M155.13,-65.65C163.46,-64.8 172.05,-63.92 180.63,-63.04"/>
<polygon fill="#63b8ff" stroke="#63b8ff" points="181.1,-66.51 190.7,-62.01 180.39,-59.55 181.1,-66.51"/>
</a>
</g>
</g>
<!-- Node6 -->
<g id="Node000006" class="node">
<title>Node6</title>
<g id="a_Node000006"><a xlink:href="classcbrc_1_1FLEArray.html#ad71311380d762114c9e0f3b0dda38b7c" target="_top" xlink:title=" ">
<polygon fill="white" stroke="#666666" points="738,-19 627,-19 627,-0 738,-0 738,-19"/>
<text text-anchor="middle" x="682.5" y="-7" font-family="Helvetica,sans-Serif" font-size="10.00">cbrc::FLEArray::size</text>
</a>
</g>
</g>
<!-- Node1&#45;&gt;Node6 -->
<g id="edge10_Node000001_Node000006" class="edge">
<title>Node1&#45;&gt;Node6</title>
<g id="a_edge10_Node000001_Node000006"><a xlink:title=" ">
<path fill="none" stroke="#63b8ff" d="M108.72,-58.48C130.92,-48.19 162.11,-35.22 191,-28.5 340.37,6.2 522.1,1.51 616.89,-4.35"/>
<polygon fill="#63b8ff" stroke="#63b8ff" points="616.7,-7.84 626.9,-4.99 617.15,-0.86 616.7,-7.84"/>
</a>
</g>
</g>
<!-- Node4&#45;&gt;Node2 -->
<g id="edge4_Node000004_Node000002" class="edge">
<title>Node4&#45;&gt;Node2</title>
<g id="a_edge4_Node000004_Node000002"><a xlink:title=" ">
<path fill="none" stroke="#63b8ff" d="M347.18,-67.54C357.57,-70.53 368.16,-73.88 378,-77.5 394.61,-83.61 396.88,-90.02 414,-94.5 473.03,-109.96 541.72,-114.57 594.72,-115.39"/>
<polygon fill="#63b8ff" stroke="#63b8ff" points="594.72,-118.89 604.76,-115.5 594.8,-111.89 594.72,-118.89"/>
</a>
</g>
</g>
<!-- Node5 -->
<g id="Node000005" class="node">
<title>Node5</title>
<g id="a_Node000005"><a xlink:href="classcbrc_1_1SeqGlobalAffineAligner.html#adfd8b999555e636f3035fe57a4c9a815" target="_top" xlink:title=" ">
<polygon fill="white" stroke="#666666" points="569,-67.5 414,-67.5 414,-37.5 569,-37.5 569,-67.5"/>
<text text-anchor="start" x="422" y="-55.5" font-family="Helvetica,sans-Serif" font-size="10.00">cbrc::SeqGlobalAffineAligner</text>
<text text-anchor="middle" x="491.5" y="-44.5" font-family="Helvetica,sans-Serif" font-size="10.00">::score</text>
</a>
</g>
</g>
<!-- Node4&#45;&gt;Node5 -->
<g id="edge5_Node000004_Node000005" class="edge">
<title>Node4&#45;&gt;Node5</title>
<g id="a_edge5_Node000004_Node000005"><a xlink:title=" ">
<path fill="none" stroke="#63b8ff" d="M378.1,-52.5C386.63,-52.5 395.24,-52.5 403.71,-52.5"/>
<polygon fill="#63b8ff" stroke="#63b8ff" points="403.96,-56 413.96,-52.5 403.96,-49 403.96,-56"/>
</a>
</g>
</g>
<!-- Node4&#45;&gt;Node6 -->
<g id="edge9_Node000004_Node000006" class="edge">
<title>Node4&#45;&gt;Node6</title>
<g id="a_edge9_Node000004_Node000006"><a xlink:title=" ">
<path fill="none" stroke="#63b8ff" d="M357.99,-37.48C376.21,-34.11 395.77,-30.85 414,-28.5 482.87,-19.66 562.28,-14.67 616.58,-12.05"/>
<polygon fill="#63b8ff" stroke="#63b8ff" points="616.93,-15.53 626.76,-11.57 616.6,-8.54 616.93,-15.53"/>
</a>
</g>
</g>
<!-- Node5&#45;&gt;Node2 -->
<g id="edge6_Node000005_Node000002" class="edge">
<title>Node5&#45;&gt;Node2</title>
<g id="a_edge6_Node000005_Node000002"><a xlink:title=" ">
<path fill="none" stroke="#63b8ff" d="M539.22,-67.58C565.21,-75.97 597.75,-86.47 625.15,-95.32"/>
<polygon fill="#63b8ff" stroke="#63b8ff" points="624.4,-98.75 634.99,-98.49 626.55,-92.09 624.4,-98.75"/>
</a>
</g>
</g>
<!-- Node5&#45;&gt;Node5 -->
<g id="edge7_Node000005_Node000005" class="edge">
<title>Node5&#45;&gt;Node5</title>
<g id="a_edge7_Node000005_Node000005"><a xlink:title=" ">
<path fill="none" stroke="#63b8ff" d="M458.1,-67.78C450.68,-76.91 461.81,-85.5 491.5,-85.5 509.13,-85.5 520.21,-82.47 524.76,-78.1"/>
<polygon fill="#63b8ff" stroke="#63b8ff" points="528.26,-77.83 524.9,-67.78 521.26,-77.73 528.26,-77.83"/>
</a>
</g>
</g>
<!-- Node5&#45;&gt;Node6 -->
<g id="edge8_Node000005_Node000006" class="edge">
<title>Node5&#45;&gt;Node6</title>
<g id="a_edge8_Node000005_Node000006"><a xlink:title=" ">
<path fill="none" stroke="#63b8ff" d="M558.6,-37.46C581.96,-32.15 607.86,-26.26 629.85,-21.26"/>
<polygon fill="#63b8ff" stroke="#63b8ff" points="630.67,-24.66 639.65,-19.03 629.12,-17.83 630.67,-24.66"/>
</a>
</g>
</g>
</g>
</svg>

<g id="navigator" transform="translate(0 0)" fill="#404254">
  <rect fill="#f2f5e9" fill-opacity="0.5" stroke="#606060" stroke-width=".5" x="0" y="0" width="60" height="60"/>
  <use id="zoomplus" xlink:href="#zoomPlus" x="17" y="9" onmousedown="handleZoom(evt,'in')"/>
  <use id="zoomminus" xlink:href="#zoomMin" x="42" y="9" onmousedown="handleZoom(evt,'out')"/>
  <use id="reset" xlink:href="#resetDef" x="30" y="36" onmousedown="handleReset()"/>
   <use id="arrowup" xlink:href="#arrowUp" x="0" y="0" onmousedown="handlePan(0,-1)"/>
  <use id="arrowright" xlink:href="#arrowRight" x="0" y="0" onmousedown="handlePan(1,0)"/>
  <use id="arrowdown" xlink:href="#arrowDown" x="0" y="0" onmousedown="handlePan(0,1)"/>
  <use id="arrowleft" xlink:href="#arrowLeft" x="0" y="0" onmousedown="handlePan(-1,0)"/>
</g>
<svg viewBox="0 0 15 15" width="100%" height="30px" preserveAspectRatio="xMaxYMin meet">
 <g id="arrow_out" transform="scale(0.3 0.3)">
  <a xlink:href="classcbrc_1_1SeqGlobalAffineAligner_a44df088e82a4e00feccb43761986d334_cgraph_org.svg" target="_base">
   <rect id="button" ry="5" rx="5" y="6" x="6" height="38" width="38"
        fill="#f2f5e9" fill-opacity="0.5" stroke="#606060" stroke-width="1.0"/>
   <path id="arrow"
     d="M 11.500037,31.436501 C 11.940474,20.09759 22.043105,11.32322 32.158766,21.979434 L 37.068811,17.246167 C 37.068811,17.246167 37.088388,32 37.088388,32 L 22.160133,31.978069 C 22.160133,31.978069 26.997745,27.140456 26.997745,27.140456 C 18.528582,18.264221 13.291696,25.230495 11.500037,31.436501 z"
     style="fill:#404040;"/>
  </a>
 </g>
</svg>

<style type='text/css'>
<![CDATA[
[data-mouse-over-selected='false'] { opacity: 0.7; }
[data-mouse-over-selected='true']  { opacity: 1.0; }
]]>
</style>
<script type="application/ecmascript"><![CDATA[
document.addEventListener('DOMContentLoaded', (event) => {
  highlightEdges();
  highlightAdjacentNodes();
});
]]></script>
</svg>
