<?xml version="1.0" encoding="UTF-8" standalone="no"?>
<!DOCTYPE svg PUBLIC "-//W3C//DTD SVG 1.1//EN"
 "http://www.w3.org/Graphics/SVG/1.1/DTD/svg11.dtd">
<!-- Generated by graphviz version 2.43.0 (0)
 -->
<!-- Title: cbrc::StringKeyHashtable::begin Pages: 1 -->
<svg width="333pt" height="86pt"
 viewBox="0.00 0.00 333.00 86.00" xmlns="http://www.w3.org/2000/svg" xmlns:xlink="http://www.w3.org/1999/xlink">
<g id="graph0" class="graph" transform="scale(1 1) rotate(0) translate(4 82)">
<title>cbrc::StringKeyHashtable::begin</title>
<!-- Node1 -->
<g id="Node000001" class="node">
<title>Node1</title>
<g id="a_Node000001"><a xlink:title=" ">
<polygon fill="#999999" stroke="#666666" points="139,-54 0,-54 0,-24 139,-24 139,-54"/>
<text text-anchor="start" x="8" y="-42" font-family="Helvetica,sans-Serif" font-size="10.00">cbrc::StringKeyHashtable</text>
<text text-anchor="middle" x="69.5" y="-31" font-family="Helvetica,sans-Serif" font-size="10.00">::begin</text>
</a>
</g>
</g>
<!-- Node2 -->
<g id="Node000002" class="node">
<title>Node2</title>
<g id="a_Node000002"><a xlink:href="classcbrc_1_1StringKeyHashIterator.html#a400c9d4051f064cadcff378eabab8640" target="_top" xlink:title=" ">
<polygon fill="white" stroke="#666666" points="325,-78 175,-78 175,-48 325,-48 325,-78"/>
<text text-anchor="start" x="183" y="-66" font-family="Helvetica,sans-Serif" font-size="10.00">cbrc::StringKeyHashIterator</text>
<text text-anchor="middle" x="250" y="-55" font-family="Helvetica,sans-Serif" font-size="10.00">::makeInvalidIterator</text>
</a>
</g>
</g>
<!-- Node1&#45;&gt;Node2 -->
<g id="edge1_Node000001_Node000002" class="edge">
<title>Node1&#45;&gt;Node2</title>
<g id="a_edge1_Node000001_Node000002"><a xlink:title=" ">
<path fill="none" stroke="#63b8ff" d="M139,-48.21C147.41,-49.34 156.08,-50.51 164.69,-51.66"/>
<polygon fill="#63b8ff" stroke="#63b8ff" points="164.37,-55.15 174.75,-53.02 165.3,-48.21 164.37,-55.15"/>
</a>
</g>
</g>
<!-- Node3 -->
<g id="Node000003" class="node">
<title>Node3</title>
<g id="a_Node000003"><a xlink:href="classcbrc_1_1StringKeyHashtable.html#a047c1409951f63990245914966215c9f" target="_top" xlink:title=" ">
<polygon fill="white" stroke="#666666" points="319.5,-30 180.5,-30 180.5,0 319.5,0 319.5,-30"/>
<text text-anchor="start" x="188.5" y="-18" font-family="Helvetica,sans-Serif" font-size="10.00">cbrc::StringKeyHashtable</text>
<text text-anchor="middle" x="250" y="-7" font-family="Helvetica,sans-Serif" font-size="10.00">::size</text>
</a>
</g>
</g>
<!-- Node1&#45;&gt;Node3 -->
<g id="edge2_Node000001_Node000003" class="edge">
<title>Node1&#45;&gt;Node3</title>
<g id="a_edge2_Node000001_Node000003"><a xlink:title=" ">
<path fill="none" stroke="#63b8ff" d="M139,-29.79C149.28,-28.41 159.95,-26.97 170.43,-25.56"/>
<polygon fill="#63b8ff" stroke="#63b8ff" points="170.94,-29.03 180.39,-24.23 170.01,-22.09 170.94,-29.03"/>
</a>
</g>
</g>
</g>
</svg>
