<?xml version="1.0" encoding="UTF-8" standalone="no"?>
<!DOCTYPE svg PUBLIC "-//W3C//DTD SVG 1.1//EN"
 "http://www.w3.org/Graphics/SVG/1.1/DTD/svg11.dtd">
<!-- Generated by graphviz version 2.43.0 (0)
 -->
<!-- Title: cbrc::FLEMatrix::validIndex Pages: 1 -->
<svg width="533pt" height="140pt"
 viewBox="0.00 0.00 533.00 140.00" xmlns="http://www.w3.org/2000/svg" xmlns:xlink="http://www.w3.org/1999/xlink">
<g id="graph0" class="graph" transform="scale(1 1) rotate(0) translate(4 136)">
<title>cbrc::FLEMatrix::validIndex</title>
<!-- Node1 -->
<g id="Node000001" class="node">
<title>Node1</title>
<g id="a_Node000001"><a xlink:title=" ">
<polygon fill="#999999" stroke="#666666" points="525,-76 376,-76 376,-57 525,-57 525,-76"/>
<text text-anchor="middle" x="450.5" y="-64" font-family="Helvetica,sans-Serif" font-size="10.00">cbrc::FLEMatrix::validIndex</text>
</a>
</g>
</g>
<!-- Node2 -->
<g id="Node000002" class="node">
<title>Node2</title>
<g id="a_Node000002"><a xlink:href="classcbrc_1_1FLEMatrix.html#a0769459f904a9bb0db0e392db4e5cdd0" target="_top" xlink:title=" ">
<polygon fill="white" stroke="#666666" points="331,-132 203,-132 203,-113 331,-113 331,-132"/>
<text text-anchor="middle" x="267" y="-120" font-family="Helvetica,sans-Serif" font-size="10.00">cbrc::FLEMatrix::getVal</text>
</a>
</g>
</g>
<!-- Node1&#45;&gt;Node2 -->
<g id="edge1_Node000001_Node000002" class="edge">
<title>Node1&#45;&gt;Node2</title>
<g id="a_edge1_Node000001_Node000002"><a xlink:title=" ">
<path fill="none" stroke="#63b8ff" d="M414.43,-79.56C393.07,-87.3 365.14,-97.01 340,-104.5 330,-107.48 319.12,-110.38 308.91,-112.94"/>
<polygon fill="#63b8ff" stroke="#63b8ff" points="415.85,-82.77 424.04,-76.06 413.45,-76.2 415.85,-82.77"/>
</a>
</g>
</g>
<!-- Node3 -->
<g id="Node000003" class="node">
<title>Node3</title>
<g id="a_Node000003"><a xlink:href="classcbrc_1_1FLEMatrix.html#a5f5dd3e4586b1947283dff18505350ec" target="_top" xlink:title=" ">
<polygon fill="white" stroke="#666666" points="340,-95 194,-95 194,-76 340,-76 340,-95"/>
<text text-anchor="middle" x="267" y="-83" font-family="Helvetica,sans-Serif" font-size="10.00">cbrc::FLEMatrix::operator()</text>
</a>
</g>
</g>
<!-- Node1&#45;&gt;Node3 -->
<g id="edge2_Node000001_Node000003" class="edge">
<title>Node1&#45;&gt;Node3</title>
<g id="a_edge2_Node000001_Node000003"><a xlink:title=" ">
<path fill="none" stroke="#63b8ff" d="M365.91,-75.25C357.32,-76.15 348.65,-77.06 340.19,-77.94"/>
<polygon fill="#63b8ff" stroke="#63b8ff" points="366.36,-78.72 375.94,-74.2 365.63,-71.76 366.36,-78.72"/>
</a>
</g>
</g>
<!-- Node5 -->
<g id="Node000005" class="node">
<title>Node5</title>
<g id="a_Node000005"><a xlink:href="classcbrc_1_1FLEMatrix.html#a6418c9fd0f0b8501ca5a324b1b37f709" target="_top" xlink:title=" ">
<polygon fill="white" stroke="#666666" points="152.5,-57 5.5,-57 5.5,-38 152.5,-38 152.5,-57"/>
<text text-anchor="middle" x="79" y="-45" font-family="Helvetica,sans-Serif" font-size="10.00">cbrc::FLEMatrix::submatrix</text>
</a>
</g>
</g>
<!-- Node1&#45;&gt;Node5 -->
<g id="edge6_Node000001_Node000005" class="edge">
<title>Node1&#45;&gt;Node5</title>
<g id="a_edge6_Node000001_Node000005"><a xlink:title=" ">
<path fill="none" stroke="#63b8ff" d="M365.53,-62.18C301.42,-58.89 213.98,-54.39 152.81,-51.24"/>
<polygon fill="#63b8ff" stroke="#63b8ff" points="365.45,-65.68 375.61,-62.7 365.81,-58.69 365.45,-65.68"/>
</a>
</g>
</g>
<!-- Node6 -->
<g id="Node000006" class="node">
<title>Node6</title>
<g id="a_Node000006"><a xlink:href="classcbrc_1_1FLEMatrix.html#a435b54754ffa928844c7333dbe293659" target="_top" xlink:title=" ">
<polygon fill="white" stroke="#666666" points="340,-19 194,-19 194,0 340,0 340,-19"/>
<text text-anchor="middle" x="267" y="-7" font-family="Helvetica,sans-Serif" font-size="10.00">cbrc::FLEMatrix::operator[]</text>
</a>
</g>
</g>
<!-- Node1&#45;&gt;Node6 -->
<g id="edge5_Node000001_Node000006" class="edge">
<title>Node1&#45;&gt;Node6</title>
<g id="a_edge5_Node000001_Node000006"><a xlink:title=" ">
<path fill="none" stroke="#63b8ff" d="M409.2,-53.84C375.74,-43.34 328.88,-28.62 298.48,-19.07"/>
<polygon fill="#63b8ff" stroke="#63b8ff" points="408.53,-57.3 419.12,-56.96 410.63,-50.62 408.53,-57.3"/>
</a>
</g>
</g>
<!-- Node4 -->
<g id="Node000004" class="node">
<title>Node4</title>
<g id="a_Node000004"><a xlink:href="classcbrc_1_1FLEMatrix.html#a8ee8deac582cd6926176ce37defb7afb" target="_top" xlink:title=" ">
<polygon fill="white" stroke="#666666" points="158,-105.5 0,-105.5 0,-75.5 158,-75.5 158,-105.5"/>
<text text-anchor="start" x="8" y="-93.5" font-family="Helvetica,sans-Serif" font-size="10.00">cbrc::FLEMatrix::printColumn</text>
<text text-anchor="middle" x="79" y="-82.5" font-family="Helvetica,sans-Serif" font-size="10.00">Major</text>
</a>
</g>
</g>
<!-- Node3&#45;&gt;Node4 -->
<g id="edge3_Node000003_Node000004" class="edge">
<title>Node3&#45;&gt;Node4</title>
<g id="a_edge3_Node000003_Node000004"><a xlink:title=" ">
<path fill="none" stroke="#63b8ff" d="M183.63,-87.71C175.21,-87.94 166.68,-88.17 158.3,-88.4"/>
<polygon fill="#63b8ff" stroke="#63b8ff" points="183.92,-91.21 193.82,-87.44 183.73,-84.21 183.92,-91.21"/>
</a>
</g>
</g>
<!-- Node3&#45;&gt;Node5 -->
<g id="edge4_Node000003_Node000005" class="edge">
<title>Node3&#45;&gt;Node5</title>
<g id="a_edge4_Node000003_Node000005"><a xlink:title=" ">
<path fill="none" stroke="#63b8ff" d="M209.17,-73.89C182.72,-68.49 151.64,-62.14 126.6,-57.02"/>
<polygon fill="#63b8ff" stroke="#63b8ff" points="208.57,-77.34 219.06,-75.91 209.97,-70.48 208.57,-77.34"/>
</a>
</g>
</g>
</g>
</svg>
