<?xml version="1.0" encoding="UTF-8" standalone="no"?>
<!DOCTYPE svg PUBLIC "-//W3C//DTD SVG 1.1//EN"
 "http://www.w3.org/Graphics/SVG/1.1/DTD/svg11.dtd">
<!-- Generated by graphviz version 2.43.0 (0)
 -->
<!-- Title: cbrc::RecountExpectationMatchingTagCorrector::computeCountCorrections_by1stDerivative Pages: 1 -->
<!--zoomable 279 -->

<svg id="main" version="1.1" xmlns="http://www.w3.org/2000/svg" xmlns:xlink="http://www.w3.org/1999/xlink" xml:space="preserve" onload="init(evt)">
<style type="text/css"><![CDATA[
.node, .edge {opacity: 0.7;}
.node.selected, .edge.selected {opacity: 1;}
.edge:hover path { stroke: red; }
.edge:hover polygon { stroke: red; fill: red; }
]]></style>

<defs>
  <circle id="rim" cx="0" cy="0" r="7"/>
  <circle id="rim2" cx="0" cy="0" r="3.5"/>
  <g id="zoomPlus">
    <use xlink:href="#rim" fill="#404040"><set attributeName="fill" to="#808080" begin="zoomplus.mouseover" end="zoomplus.mouseout"/></use>
    <path d="M-4,0h8M0,-4v8" fill="none" stroke="white" stroke-width="1.5" pointer-events="none"/>
  </g>
  <g id="zoomMin">
    <use xlink:href="#rim" fill="#404040"><set attributeName="fill" to="#808080" begin="zoomminus.mouseover" end="zoomminus.mouseout"/></use>
    <path d="M-4,0h8" fill="none" stroke="white" stroke-width="1.5" pointer-events="none"/>
  </g>
  <g id="arrowUp" transform="translate(30 24)">
    <use xlink:href="#rim"/>
    <path pointer-events="none" fill="none" stroke="white" stroke-width="1.5" d="M0,-3.0v7 M-2.5,-0.5L0,-3.0L2.5,-0.5"/>
  </g>
  <g id="arrowRight" transform="rotate(90) translate(36 -43)">
    <use xlink:href="#rim"/>
    <path pointer-events="none" fill="none" stroke="white" stroke-width="1.5" d="M0,-3.0v7 M-2.5,-0.5L0,-3.0L2.5,-0.5"/>
  </g>
  <g id="arrowDown" transform="rotate(180) translate(-30 -48)">
    <use xlink:href="#rim"/>
    <path pointer-events="none" fill="none" stroke="white" stroke-width="1.5" d="M0,-3.0v7 M-2.5,-0.5L0,-3.0L2.5,-0.5"/>
  </g>
  <g id="arrowLeft" transform="rotate(270) translate(-36 17)">
    <use xlink:href="#rim"/>
    <path pointer-events="none" fill="none" stroke="white" stroke-width="1.5" d="M0,-3.0v7 M-2.5,-0.5L0,-3.0L2.5,-0.5"/>
  </g>
  <g id="resetDef">
    <use xlink:href="#rim2" fill="#404040"><set attributeName="fill" to="#808080" begin="reset.mouseover" end="reset.mouseout"/></use>
  </g>
</defs>
<script type="application/ecmascript">
var viewWidth = 526;
var viewHeight = 279;
var sectionId = 'dynsection-6';
</script>
<script type="application/ecmascript" xlink:href="svg.min.js"/>
<svg id="graph" class="graph">
<g id="viewport">
<title>cbrc::RecountExpectationMatchingTagCorrector::computeCountCorrections_by1stDerivative</title>
<!-- Node1 -->
<g id="Node000001" class="node">
<title>Node1</title>
<g id="a_Node000001"><a xlink:title=" ">
<polygon fill="#999999" stroke="#666666" points="143,-173.5 0,-173.5 0,-121.5 143,-121.5 143,-173.5"/>
<text text-anchor="start" x="8" y="-161.5" font-family="Helvetica,sans-Serif" font-size="10.00">cbrc::RecountExpectation</text>
<text text-anchor="start" x="8" y="-150.5" font-family="Helvetica,sans-Serif" font-size="10.00">MatchingTagCorrector::</text>
<text text-anchor="start" x="8" y="-139.5" font-family="Helvetica,sans-Serif" font-size="10.00">computeCountCorrections</text>
<text text-anchor="middle" x="71.5" y="-128.5" font-family="Helvetica,sans-Serif" font-size="10.00">_by1stDerivative</text>
</a>
</g>
</g>
<!-- Node2 -->
<g id="Node000002" class="node">
<title>Node2</title>
<g id="a_Node000002"><a xlink:href="classcbrc_1_1RecountTagCounts.html#a2a3bd7afd658a30793f69987841b12f5" target="_top" xlink:title=" ">
<polygon fill="white" stroke="#666666" points="324,-242.5 191,-242.5 191,-212.5 324,-212.5 324,-242.5"/>
<text text-anchor="start" x="199" y="-230.5" font-family="Helvetica,sans-Serif" font-size="10.00">cbrc::RecountTagCounts</text>
<text text-anchor="middle" x="257.5" y="-219.5" font-family="Helvetica,sans-Serif" font-size="10.00">::constBegin</text>
</a>
</g>
</g>
<!-- Node1&#45;&gt;Node2 -->
<g id="edge1_Node000001_Node000002" class="edge">
<title>Node1&#45;&gt;Node2</title>
<g id="a_edge1_Node000001_Node000002"><a xlink:title=" ">
<path fill="none" stroke="#63b8ff" d="M117.49,-173.5C136.15,-183.67 158.25,-194.92 179,-203.5 183.68,-205.44 188.57,-207.3 193.53,-209.08"/>
<polygon fill="#63b8ff" stroke="#63b8ff" points="192.5,-212.42 203.09,-212.38 194.78,-205.81 192.5,-212.42"/>
</a>
</g>
</g>
<!-- Node3 -->
<g id="Node000003" class="node">
<title>Node3</title>
<g id="a_Node000003"><a xlink:href="classcbrc_1_1FLEArray.html#a6b4512b0dfaf8e8274bee6b4782805ae" target="_top" xlink:title=" ">
<polygon fill="white" stroke="#666666" points="518,-258 372,-258 372,-239 518,-239 518,-258"/>
<text text-anchor="middle" x="445" y="-246" font-family="Helvetica,sans-Serif" font-size="10.00">cbrc::FLEArray::constBegin</text>
</a>
</g>
</g>
<!-- Node1&#45;&gt;Node3 -->
<g id="edge4_Node000001_Node000003" class="edge">
<title>Node1&#45;&gt;Node3</title>
<g id="a_edge4_Node000001_Node000003"><a xlink:title=" ">
<path fill="none" stroke="#63b8ff" d="M90.04,-173.83C108.68,-199.18 140.71,-235.9 179,-251.5 249.8,-280.34 340.33,-270.48 395.15,-260"/>
<polygon fill="#63b8ff" stroke="#63b8ff" points="395.84,-263.44 404.96,-258.05 394.47,-256.57 395.84,-263.44"/>
</a>
</g>
</g>
<!-- Node5 -->
<g id="Node000005" class="node">
<title>Node5</title>
<g id="a_Node000005"><a xlink:href="classcbrc_1_1RecountExpectationMatchingTagCorrector.html#a5a1ae053c28dda3d4eb7f585315b822d" target="_top" xlink:title=" ">
<polygon fill="white" stroke="#666666" points="515,-106 375,-106 375,-65 515,-65 515,-106"/>
<text text-anchor="start" x="383" y="-94" font-family="Helvetica,sans-Serif" font-size="10.00">cbrc::RecountExpectation</text>
<text text-anchor="start" x="383" y="-83" font-family="Helvetica,sans-Serif" font-size="10.00">MatchingTagCorrector::</text>
<text text-anchor="middle" x="445" y="-72" font-family="Helvetica,sans-Serif" font-size="10.00">curIdx</text>
</a>
</g>
</g>
<!-- Node1&#45;&gt;Node5 -->
<g id="edge5_Node000001_Node000005" class="edge">
<title>Node1&#45;&gt;Node5</title>
<g id="a_edge5_Node000001_Node000005"><a xlink:title=" ">
<path fill="none" stroke="#63b8ff" d="M143.19,-138.78C196.38,-131.86 270.98,-121.39 336,-109.5 345.33,-107.79 355.07,-105.85 364.72,-103.83"/>
<polygon fill="#63b8ff" stroke="#63b8ff" points="365.68,-107.21 374.73,-101.7 364.22,-100.36 365.68,-107.21"/>
</a>
</g>
</g>
<!-- Node6 -->
<g id="Node000006" class="node">
<title>Node6</title>
<g id="a_Node000006"><a xlink:href="classcbrc_1_1RecountTagCounts.html#ad5bd7595c36db40b44a48a0154c837de" target="_top" xlink:title=" ">
<polygon fill="white" stroke="#666666" points="336,-176 179,-176 179,-157 336,-157 336,-176"/>
<text text-anchor="middle" x="257.5" y="-164" font-family="Helvetica,sans-Serif" font-size="10.00">cbrc::RecountTagCounts::end</text>
</a>
</g>
</g>
<!-- Node1&#45;&gt;Node6 -->
<g id="edge6_Node000001_Node000006" class="edge">
<title>Node1&#45;&gt;Node6</title>
<g id="a_edge6_Node000001_Node000006"><a xlink:title=" ">
<path fill="none" stroke="#63b8ff" d="M143.11,-154.79C151.49,-155.66 160.12,-156.55 168.7,-157.43"/>
<polygon fill="#63b8ff" stroke="#63b8ff" points="168.42,-160.92 178.73,-158.47 169.14,-153.96 168.42,-160.92"/>
</a>
</g>
</g>
<!-- Node7 -->
<g id="Node000007" class="node">
<title>Node7</title>
<g id="a_Node000007"><a xlink:href="classcbrc_1_1RecountExpectationMatchingTagCorrector.html#a076143e65ca6b966d769b87948be1aa4" target="_top" xlink:title=" ">
<polygon fill="white" stroke="#666666" points="327.5,-100 187.5,-100 187.5,-59 327.5,-59 327.5,-100"/>
<text text-anchor="start" x="195.5" y="-88" font-family="Helvetica,sans-Serif" font-size="10.00">cbrc::RecountExpectation</text>
<text text-anchor="start" x="195.5" y="-77" font-family="Helvetica,sans-Serif" font-size="10.00">MatchingTagCorrector::</text>
<text text-anchor="middle" x="257.5" y="-66" font-family="Helvetica,sans-Serif" font-size="10.00">learningRate</text>
</a>
</g>
</g>
<!-- Node1&#45;&gt;Node7 -->
<g id="edge9_Node000001_Node000007" class="edge">
<title>Node1&#45;&gt;Node7</title>
<g id="a_edge9_Node000001_Node000007"><a xlink:title=" ">
<path fill="none" stroke="#63b8ff" d="M143.11,-121.4C158.98,-115.54 175.74,-109.35 191.36,-103.57"/>
<polygon fill="#63b8ff" stroke="#63b8ff" points="192.76,-106.79 200.93,-100.04 190.33,-100.22 192.76,-106.79"/>
</a>
</g>
</g>
<!-- Node8 -->
<g id="Node000008" class="node">
<title>Node8</title>
<g id="a_Node000008"><a xlink:href="classcbrc_1_1RecountExpectationMatchingTagCorrector.html#ace78a2caa776149f0fceb21a4d40c36e" target="_top" xlink:title=" ">
<polygon fill="white" stroke="#666666" points="327.5,-41 187.5,-41 187.5,0 327.5,0 327.5,-41"/>
<text text-anchor="start" x="195.5" y="-29" font-family="Helvetica,sans-Serif" font-size="10.00">cbrc::RecountExpectation</text>
<text text-anchor="start" x="195.5" y="-18" font-family="Helvetica,sans-Serif" font-size="10.00">MatchingTagCorrector::</text>
<text text-anchor="middle" x="257.5" y="-7" font-family="Helvetica,sans-Serif" font-size="10.00">prevIdx</text>
</a>
</g>
</g>
<!-- Node1&#45;&gt;Node8 -->
<g id="edge10_Node000001_Node000008" class="edge">
<title>Node1&#45;&gt;Node8</title>
<g id="a_edge10_Node000001_Node000008"><a xlink:title=" ">
<path fill="none" stroke="#63b8ff" d="M95.64,-121.16C115.84,-99.49 146.89,-69.23 179,-49.5 181.14,-48.18 183.35,-46.91 185.61,-45.68"/>
<polygon fill="#63b8ff" stroke="#63b8ff" points="187.2,-48.81 194.54,-41.17 184.04,-42.56 187.2,-48.81"/>
</a>
</g>
</g>
<!-- Node2&#45;&gt;Node3 -->
<g id="edge2_Node000002_Node000003" class="edge">
<title>Node2&#45;&gt;Node3</title>
<g id="a_edge2_Node000002_Node000003"><a xlink:title=" ">
<path fill="none" stroke="#63b8ff" d="M324.16,-234.93C336.33,-236.31 349.19,-237.77 361.78,-239.19"/>
<polygon fill="#63b8ff" stroke="#63b8ff" points="361.47,-242.68 371.8,-240.33 362.26,-235.72 361.47,-242.68"/>
</a>
</g>
</g>
<!-- Node4 -->
<g id="Node000004" class="node">
<title>Node4</title>
<g id="a_Node000004"><a xlink:href="classcbrc_1_1RecountTagCounts.html#ae05c5de97d80fdb60f1ff6a004ffc6ff" target="_top" xlink:title=" ">
<polygon fill="white" stroke="#666666" points="511.5,-200.5 378.5,-200.5 378.5,-170.5 511.5,-170.5 511.5,-200.5"/>
<text text-anchor="start" x="386.5" y="-188.5" font-family="Helvetica,sans-Serif" font-size="10.00">cbrc::RecountTagCounts</text>
<text text-anchor="middle" x="445" y="-177.5" font-family="Helvetica,sans-Serif" font-size="10.00">::counts</text>
</a>
</g>
</g>
<!-- Node2&#45;&gt;Node4 -->
<g id="edge3_Node000002_Node000004" class="edge">
<title>Node2&#45;&gt;Node4</title>
<g id="a_edge3_Node000002_Node000004"><a xlink:title=" ">
<path fill="none" stroke="#63b8ff" d="M324.16,-212.63C338.47,-209.39 353.73,-205.94 368.39,-202.62"/>
<polygon fill="#63b8ff" stroke="#63b8ff" points="369.45,-205.97 378.43,-200.35 367.9,-199.14 369.45,-205.97"/>
</a>
</g>
</g>
<!-- Node6&#45;&gt;Node4 -->
<g id="edge7_Node000006_Node000004" class="edge">
<title>Node6&#45;&gt;Node4</title>
<g id="a_edge7_Node000006_Node000004"><a xlink:title=" ">
<path fill="none" stroke="#63b8ff" d="M336.09,-174.45C346.78,-175.54 357.74,-176.66 368.38,-177.75"/>
<polygon fill="#63b8ff" stroke="#63b8ff" points="368.17,-181.25 378.48,-178.79 368.89,-174.29 368.17,-181.25"/>
</a>
</g>
</g>
<!-- Node6&#45;&gt;Node6 -->
<g id="edge8_Node000006_Node000006" class="edge">
<title>Node6&#45;&gt;Node6</title>
<g id="a_edge8_Node000006_Node000006"><a xlink:title=" ">
<path fill="none" stroke="#63b8ff" d="M228.83,-176.08C214.89,-184.73 224.44,-194 257.5,-194 280.23,-194 291.85,-189.62 292.36,-184.07"/>
<polygon fill="#63b8ff" stroke="#63b8ff" points="295.06,-181.84 286.17,-176.08 289.53,-186.13 295.06,-181.84"/>
</a>
</g>
</g>
<!-- Node8&#45;&gt;Node5 -->
<g id="edge11_Node000008_Node000005" class="edge">
<title>Node8&#45;&gt;Node5</title>
<g id="a_edge11_Node000008_Node000005"><a xlink:title=" ">
<path fill="none" stroke="#63b8ff" d="M317.19,-41.07C335.81,-47.59 356.55,-54.86 375.77,-61.59"/>
<polygon fill="#63b8ff" stroke="#63b8ff" points="374.78,-64.95 385.37,-64.96 377.09,-58.35 374.78,-64.95"/>
</a>
</g>
</g>
</g>
</svg>

<g id="navigator" transform="translate(0 0)" fill="#404254">
  <rect fill="#f2f5e9" fill-opacity="0.5" stroke="#606060" stroke-width=".5" x="0" y="0" width="60" height="60"/>
  <use id="zoomplus" xlink:href="#zoomPlus" x="17" y="9" onmousedown="handleZoom(evt,'in')"/>
  <use id="zoomminus" xlink:href="#zoomMin" x="42" y="9" onmousedown="handleZoom(evt,'out')"/>
  <use id="reset" xlink:href="#resetDef" x="30" y="36" onmousedown="handleReset()"/>
   <use id="arrowup" xlink:href="#arrowUp" x="0" y="0" onmousedown="handlePan(0,-1)"/>
  <use id="arrowright" xlink:href="#arrowRight" x="0" y="0" onmousedown="handlePan(1,0)"/>
  <use id="arrowdown" xlink:href="#arrowDown" x="0" y="0" onmousedown="handlePan(0,1)"/>
  <use id="arrowleft" xlink:href="#arrowLeft" x="0" y="0" onmousedown="handlePan(-1,0)"/>
</g>
<svg viewBox="0 0 15 15" width="100%" height="30px" preserveAspectRatio="xMaxYMin meet">
 <g id="arrow_out" transform="scale(0.3 0.3)">
  <a xlink:href="classcbrc_1_1RecountExpectationMatchingTagCorrector_a82078c238488868f5d17038d66ec4ef2_cgraph_org.svg" target="_base">
   <rect id="button" ry="5" rx="5" y="6" x="6" height="38" width="38"
        fill="#f2f5e9" fill-opacity="0.5" stroke="#606060" stroke-width="1.0"/>
   <path id="arrow"
     d="M 11.500037,31.436501 C 11.940474,20.09759 22.043105,11.32322 32.158766,21.979434 L 37.068811,17.246167 C 37.068811,17.246167 37.088388,32 37.088388,32 L 22.160133,31.978069 C 22.160133,31.978069 26.997745,27.140456 26.997745,27.140456 C 18.528582,18.264221 13.291696,25.230495 11.500037,31.436501 z"
     style="fill:#404040;"/>
  </a>
 </g>
</svg>

<style type='text/css'>
<![CDATA[
[data-mouse-over-selected='false'] { opacity: 0.7; }
[data-mouse-over-selected='true']  { opacity: 1.0; }
]]>
</style>
<script type="application/ecmascript"><![CDATA[
document.addEventListener('DOMContentLoaded', (event) => {
  highlightEdges();
  highlightAdjacentNodes();
});
]]></script>
</svg>
