<?xml version="1.0" encoding="UTF-8" standalone="no"?>
<!DOCTYPE svg PUBLIC "-//W3C//DTD SVG 1.1//EN"
 "http://www.w3.org/Graphics/SVG/1.1/DTD/svg11.dtd">
<!-- Generated by graphviz version 2.43.0 (0)
 -->
<!-- Title: cbrc::TransfacTextLine::label Pages: 1 -->
<!--zoomable 385 -->

<svg id="main" version="1.1" xmlns="http://www.w3.org/2000/svg" xmlns:xlink="http://www.w3.org/1999/xlink" xml:space="preserve" onload="init(evt)">
<style type="text/css"><![CDATA[
.node, .edge {opacity: 0.7;}
.node.selected, .edge.selected {opacity: 1;}
.edge:hover path { stroke: red; }
.edge:hover polygon { stroke: red; fill: red; }
]]></style>

<defs>
  <circle id="rim" cx="0" cy="0" r="7"/>
  <circle id="rim2" cx="0" cy="0" r="3.5"/>
  <g id="zoomPlus">
    <use xlink:href="#rim" fill="#404040"><set attributeName="fill" to="#808080" begin="zoomplus.mouseover" end="zoomplus.mouseout"/></use>
    <path d="M-4,0h8M0,-4v8" fill="none" stroke="white" stroke-width="1.5" pointer-events="none"/>
  </g>
  <g id="zoomMin">
    <use xlink:href="#rim" fill="#404040"><set attributeName="fill" to="#808080" begin="zoomminus.mouseover" end="zoomminus.mouseout"/></use>
    <path d="M-4,0h8" fill="none" stroke="white" stroke-width="1.5" pointer-events="none"/>
  </g>
  <g id="arrowUp" transform="translate(30 24)">
    <use xlink:href="#rim"/>
    <path pointer-events="none" fill="none" stroke="white" stroke-width="1.5" d="M0,-3.0v7 M-2.5,-0.5L0,-3.0L2.5,-0.5"/>
  </g>
  <g id="arrowRight" transform="rotate(90) translate(36 -43)">
    <use xlink:href="#rim"/>
    <path pointer-events="none" fill="none" stroke="white" stroke-width="1.5" d="M0,-3.0v7 M-2.5,-0.5L0,-3.0L2.5,-0.5"/>
  </g>
  <g id="arrowDown" transform="rotate(180) translate(-30 -48)">
    <use xlink:href="#rim"/>
    <path pointer-events="none" fill="none" stroke="white" stroke-width="1.5" d="M0,-3.0v7 M-2.5,-0.5L0,-3.0L2.5,-0.5"/>
  </g>
  <g id="arrowLeft" transform="rotate(270) translate(-36 17)">
    <use xlink:href="#rim"/>
    <path pointer-events="none" fill="none" stroke="white" stroke-width="1.5" d="M0,-3.0v7 M-2.5,-0.5L0,-3.0L2.5,-0.5"/>
  </g>
  <g id="resetDef">
    <use xlink:href="#rim2" fill="#404040"><set attributeName="fill" to="#808080" begin="reset.mouseover" end="reset.mouseout"/></use>
  </g>
</defs>
<script type="application/ecmascript">
var viewWidth = 656;
var viewHeight = 385;
var sectionId = 'dynsection-3';
</script>
<script type="application/ecmascript" xlink:href="svg.min.js"/>
<svg id="graph" class="graph">
<g id="viewport">
<title>cbrc::TransfacTextLine::label</title>
<!-- Node1 -->
<g id="Node000001" class="node">
<title>Node1</title>
<g id="a_Node000001"><a xlink:title=" ">
<polygon fill="#999999" stroke="#666666" points="648,-197 524,-197 524,-167 648,-167 648,-197"/>
<text text-anchor="start" x="532" y="-185" font-family="Helvetica,sans-Serif" font-size="10.00">cbrc::TransfacTextLine</text>
<text text-anchor="middle" x="586" y="-174" font-family="Helvetica,sans-Serif" font-size="10.00">::label</text>
</a>
</g>
</g>
<!-- Node2 -->
<g id="Node000002" class="node">
<title>Node2</title>
<g id="a_Node000002"><a xlink:href="classcbrc_1_1TransfacTextLabelInfo.html#a380f28ac0f7ef0e679d55be649f19e39" target="_top" xlink:title=" ">
<polygon fill="white" stroke="#666666" points="303,-209 154,-209 154,-179 303,-179 303,-209"/>
<text text-anchor="start" x="162" y="-197" font-family="Helvetica,sans-Serif" font-size="10.00">cbrc::TransfacTextLabelInfo</text>
<text text-anchor="middle" x="228.5" y="-186" font-family="Helvetica,sans-Serif" font-size="10.00">::isAccession</text>
</a>
</g>
</g>
<!-- Node1&#45;&gt;Node2 -->
<g id="edge1_Node000001_Node000002" class="edge">
<title>Node1&#45;&gt;Node2</title>
<g id="a_edge1_Node000001_Node000002"><a xlink:title=" ">
<path fill="none" stroke="#63b8ff" d="M513.55,-184.41C452.41,-186.48 364.75,-189.43 303.02,-191.52"/>
<polygon fill="#63b8ff" stroke="#63b8ff" points="514.01,-187.9 523.89,-184.06 513.77,-180.9 514.01,-187.9"/>
</a>
</g>
</g>
<!-- Node4 -->
<g id="Node000004" class="node">
<title>Node4</title>
<g id="a_Node000004"><a xlink:href="classcbrc_1_1TransfacTextLabelInfo.html#a759f847dd546331e237f11d9411ddc41" target="_top" xlink:title=" ">
<polygon fill="white" stroke="#666666" points="303,-377 154,-377 154,-347 303,-347 303,-377"/>
<text text-anchor="start" x="162" y="-365" font-family="Helvetica,sans-Serif" font-size="10.00">cbrc::TransfacTextLabelInfo</text>
<text text-anchor="middle" x="228.5" y="-354" font-family="Helvetica,sans-Serif" font-size="10.00">::isBindingFactor</text>
</a>
</g>
</g>
<!-- Node1&#45;&gt;Node4 -->
<g id="edge3_Node000001_Node000004" class="edge">
<title>Node1&#45;&gt;Node4</title>
<g id="a_edge3_Node000001_Node000004"><a xlink:title=" ">
<path fill="none" stroke="#63b8ff" d="M578.19,-207.12C566.58,-244.49 539.11,-313.68 488,-345 432.88,-378.78 358.15,-379.99 303.22,-374.55"/>
<polygon fill="#63b8ff" stroke="#63b8ff" points="581.68,-207.63 581.17,-197.05 574.97,-205.64 581.68,-207.63"/>
</a>
</g>
</g>
<!-- Node5 -->
<g id="Node000005" class="node">
<title>Node5</title>
<g id="a_Node000005"><a xlink:href="classcbrc_1_1TransfacTextLabelInfo.html#a1957a3d86791cc19247510ad77497ff9" target="_top" xlink:title=" ">
<polygon fill="white" stroke="#666666" points="488,-116 339,-116 339,-86 488,-86 488,-116"/>
<text text-anchor="start" x="347" y="-104" font-family="Helvetica,sans-Serif" font-size="10.00">cbrc::TransfacTextLabelInfo</text>
<text text-anchor="middle" x="413.5" y="-93" font-family="Helvetica,sans-Serif" font-size="10.00">::isBlankLine</text>
</a>
</g>
</g>
<!-- Node1&#45;&gt;Node5 -->
<g id="edge5_Node000001_Node000005" class="edge">
<title>Node1&#45;&gt;Node5</title>
<g id="a_edge5_Node000001_Node000005"><a xlink:title=" ">
<path fill="none" stroke="#63b8ff" d="M549.61,-161.75C531.44,-151.68 508.82,-139.65 488,-130 477.55,-125.16 466.04,-120.37 455.29,-116.12"/>
<polygon fill="#63b8ff" stroke="#63b8ff" points="548.22,-164.98 558.66,-166.81 551.64,-158.87 548.22,-164.98"/>
</a>
</g>
</g>
<!-- Node8 -->
<g id="Node000008" class="node">
<title>Node8</title>
<g id="a_Node000008"><a xlink:href="classcbrc_1_1TransfacTextLabelInfo.html#a4e7ee61b0bf9306b6a1f082376c66d9d" target="_top" xlink:title=" ">
<polygon fill="white" stroke="#666666" points="488,-336 339,-336 339,-306 488,-306 488,-336"/>
<text text-anchor="start" x="347" y="-324" font-family="Helvetica,sans-Serif" font-size="10.00">cbrc::TransfacTextLabelInfo</text>
<text text-anchor="middle" x="413.5" y="-313" font-family="Helvetica,sans-Serif" font-size="10.00">::isDescription</text>
</a>
</g>
</g>
<!-- Node1&#45;&gt;Node8 -->
<g id="edge9_Node000001_Node000008" class="edge">
<title>Node1&#45;&gt;Node8</title>
<g id="a_edge9_Node000001_Node000008"><a xlink:title=" ">
<path fill="none" stroke="#63b8ff" d="M570.91,-205.48C554.21,-231.42 524.04,-272.72 488,-297 482.99,-300.38 477.47,-303.31 471.78,-305.84"/>
<polygon fill="#63b8ff" stroke="#63b8ff" points="573.88,-207.33 576.25,-197 567.96,-203.61 573.88,-207.33"/>
</a>
</g>
</g>
<!-- Node9 -->
<g id="Node000009" class="node">
<title>Node9</title>
<g id="a_Node000009"><a xlink:href="classcbrc_1_1TransfacTextLabelInfo.html#a309a56490cefe89bca854bc6858d442d" target="_top" xlink:title=" ">
<polygon fill="white" stroke="#666666" points="488,-288 339,-288 339,-258 488,-258 488,-288"/>
<text text-anchor="start" x="347" y="-276" font-family="Helvetica,sans-Serif" font-size="10.00">cbrc::TransfacTextLabelInfo</text>
<text text-anchor="middle" x="413.5" y="-265" font-family="Helvetica,sans-Serif" font-size="10.00">::isFreqMatrix</text>
</a>
</g>
</g>
<!-- Node1&#45;&gt;Node9 -->
<g id="edge11_Node000001_Node000009" class="edge">
<title>Node1&#45;&gt;Node9</title>
<g id="a_edge11_Node000001_Node000009"><a xlink:title=" ">
<path fill="none" stroke="#63b8ff" d="M558.61,-203.36C539.8,-217.77 513.45,-236.39 488,-249 481.38,-252.28 474.22,-255.26 467.05,-257.91"/>
<polygon fill="#63b8ff" stroke="#63b8ff" points="560.95,-205.97 566.69,-197.07 556.65,-200.45 560.95,-205.97"/>
</a>
</g>
</g>
<!-- Node10 -->
<g id="Node000010" class="node">
<title>Node10</title>
<g id="a_Node000010"><a xlink:href="classcbrc_1_1TransfacTextLabelInfo.html#ac92d364a66d83b774e437725803da200" target="_top" xlink:title=" ">
<polygon fill="white" stroke="#666666" points="488,-30 339,-30 339,0 488,0 488,-30"/>
<text text-anchor="start" x="347" y="-18" font-family="Helvetica,sans-Serif" font-size="10.00">cbrc::TransfacTextLabelInfo</text>
<text text-anchor="middle" x="413.5" y="-7" font-family="Helvetica,sans-Serif" font-size="10.00">::isFreqMatrixBody</text>
</a>
</g>
</g>
<!-- Node1&#45;&gt;Node10 -->
<g id="edge13_Node000001_Node000010" class="edge">
<title>Node1&#45;&gt;Node10</title>
<g id="a_edge13_Node000001_Node000010"><a xlink:title=" ">
<path fill="none" stroke="#63b8ff" d="M573.64,-157.9C558.2,-127.49 527.86,-75.39 488,-44 480.99,-38.48 472.81,-33.9 464.49,-30.13"/>
<polygon fill="#63b8ff" stroke="#63b8ff" points="570.55,-159.55 578.13,-166.96 576.83,-156.44 570.55,-159.55"/>
</a>
</g>
</g>
<!-- Node11 -->
<g id="Node000011" class="node">
<title>Node11</title>
<g id="a_Node000011"><a xlink:href="classcbrc_1_1TransfacTextLabelInfo.html#a934a802872252c794a4c4eb8770b20b5" target="_top" xlink:title=" ">
<polygon fill="white" stroke="#666666" points="488,-240 339,-240 339,-210 488,-210 488,-240"/>
<text text-anchor="start" x="347" y="-228" font-family="Helvetica,sans-Serif" font-size="10.00">cbrc::TransfacTextLabelInfo</text>
<text text-anchor="middle" x="413.5" y="-217" font-family="Helvetica,sans-Serif" font-size="10.00">::isName</text>
</a>
</g>
</g>
<!-- Node1&#45;&gt;Node11 -->
<g id="edge14_Node000001_Node000011" class="edge">
<title>Node1&#45;&gt;Node11</title>
<g id="a_edge14_Node000001_Node000011"><a xlink:title=" ">
<path fill="none" stroke="#63b8ff" d="M515.49,-199.53C501.76,-202.99 487.47,-206.6 474.1,-209.97"/>
<polygon fill="#63b8ff" stroke="#63b8ff" points="516.53,-202.88 525.37,-197.04 514.82,-196.09 516.53,-202.88"/>
</a>
</g>
</g>
<!-- Node12 -->
<g id="Node000012" class="node">
<title>Node12</title>
<g id="a_Node000012"><a xlink:href="classcbrc_1_1TransfacTextLabelInfo.html#a90f9e3d5672dbf346b343376948dcd10" target="_top" xlink:title=" ">
<polygon fill="white" stroke="#666666" points="303,-161 154,-161 154,-131 303,-131 303,-161"/>
<text text-anchor="start" x="162" y="-149" font-family="Helvetica,sans-Serif" font-size="10.00">cbrc::TransfacTextLabelInfo</text>
<text text-anchor="middle" x="228.5" y="-138" font-family="Helvetica,sans-Serif" font-size="10.00">::isRecordSeparator</text>
</a>
</g>
</g>
<!-- Node1&#45;&gt;Node12 -->
<g id="edge16_Node000001_Node000012" class="edge">
<title>Node1&#45;&gt;Node12</title>
<g id="a_edge16_Node000001_Node000012"><a xlink:title=" ">
<path fill="none" stroke="#63b8ff" d="M513.93,-174.8C452.78,-168.61 364.88,-159.71 303.02,-153.45"/>
<polygon fill="#63b8ff" stroke="#63b8ff" points="513.59,-178.29 523.89,-175.81 514.29,-171.32 513.59,-178.29"/>
</a>
</g>
</g>
<!-- Node13 -->
<g id="Node000013" class="node">
<title>Node13</title>
<g id="a_Node000013"><a xlink:href="classcbrc_1_1TransfacTextLabelInfo.html#a42fd69a6d4212aecfbb9ebd168278eb8" target="_top" xlink:title=" ">
<polygon fill="white" stroke="#666666" points="303,-65 154,-65 154,-35 303,-35 303,-65"/>
<text text-anchor="start" x="162" y="-53" font-family="Helvetica,sans-Serif" font-size="10.00">cbrc::TransfacTextLabelInfo</text>
<text text-anchor="middle" x="228.5" y="-42" font-family="Helvetica,sans-Serif" font-size="10.00">::isVersion</text>
</a>
</g>
</g>
<!-- Node1&#45;&gt;Node13 -->
<g id="edge19_Node000001_Node000013" class="edge">
<title>Node1&#45;&gt;Node13</title>
<g id="a_edge19_Node000001_Node000013"><a xlink:title=" ">
<path fill="none" stroke="#63b8ff" d="M570.75,-158.48C554.24,-133.55 524.56,-95.32 488,-77 430.61,-48.24 357.19,-43.11 303.27,-44.22"/>
<polygon fill="#63b8ff" stroke="#63b8ff" points="567.88,-160.48 576.23,-167 573.76,-156.69 567.88,-160.48"/>
</a>
</g>
</g>
<!-- Node3 -->
<g id="Node000003" class="node">
<title>Node3</title>
<g id="a_Node000003"><a xlink:href="classcbrc_1_1TransfacReader.html#a0b57f4fd735dffc81814974f7e398600" target="_top" xlink:title=" ">
<polygon fill="white" stroke="#666666" points="118,-252 0,-252 0,-222 118,-222 118,-252"/>
<text text-anchor="start" x="8" y="-240" font-family="Helvetica,sans-Serif" font-size="10.00">cbrc::TransfacReader</text>
<text text-anchor="middle" x="59" y="-229" font-family="Helvetica,sans-Serif" font-size="10.00">::readRecord</text>
</a>
</g>
</g>
<!-- Node2&#45;&gt;Node3 -->
<g id="edge2_Node000002_Node000003" class="edge">
<title>Node2&#45;&gt;Node3</title>
<g id="a_edge2_Node000002_Node000003"><a xlink:title=" ">
<path fill="none" stroke="#63b8ff" d="M159.16,-211.54C145.59,-215.03 131.46,-218.65 118.27,-222.04"/>
<polygon fill="#63b8ff" stroke="#63b8ff" points="160.1,-214.92 168.92,-209.04 158.36,-208.14 160.1,-214.92"/>
</a>
</g>
</g>
<!-- Node4&#45;&gt;Node3 -->
<g id="edge4_Node000004_Node000003" class="edge">
<title>Node4&#45;&gt;Node3</title>
<g id="a_edge4_Node000004_Node000003"><a xlink:title=" ">
<path fill="none" stroke="#63b8ff" d="M174.89,-342.78C167.63,-339.28 160.46,-335.35 154,-331 120.3,-308.32 88.51,-272.4 71.93,-252.16"/>
<polygon fill="#63b8ff" stroke="#63b8ff" points="173.53,-346 184.08,-346.96 176.43,-339.63 173.53,-346"/>
</a>
</g>
</g>
<!-- Node6 -->
<g id="Node000006" class="node">
<title>Node6</title>
<g id="a_Node000006"><a xlink:href="classcbrc_1_1TransfacReader.html#a3098435fd650f3842c6f9c315fcd92a3" target="_top" xlink:title=" ">
<polygon fill="white" stroke="#666666" points="287.5,-113 169.5,-113 169.5,-83 287.5,-83 287.5,-113"/>
<text text-anchor="start" x="177.5" y="-101" font-family="Helvetica,sans-Serif" font-size="10.00">cbrc::TransfacReader</text>
<text text-anchor="middle" x="228.5" y="-90" font-family="Helvetica,sans-Serif" font-size="10.00">::nextNonBlankLine</text>
</a>
</g>
</g>
<!-- Node5&#45;&gt;Node6 -->
<g id="edge6_Node000005_Node000006" class="edge">
<title>Node5&#45;&gt;Node6</title>
<g id="a_edge6_Node000005_Node000006"><a xlink:title=" ">
<path fill="none" stroke="#63b8ff" d="M328.77,-99.63C314.83,-99.4 300.64,-99.17 287.53,-98.95"/>
<polygon fill="#63b8ff" stroke="#63b8ff" points="328.8,-103.13 338.86,-99.79 328.92,-96.13 328.8,-103.13"/>
</a>
</g>
</g>
<!-- Node6&#45;&gt;Node3 -->
<g id="edge7_Node000006_Node000003" class="edge">
<title>Node6&#45;&gt;Node3</title>
<g id="a_edge7_Node000006_Node000003"><a xlink:title=" ">
<path fill="none" stroke="#63b8ff" d="M161.06,-117.64C158.62,-119 156.26,-120.45 154,-122 114.43,-149.1 82.74,-197.53 68.37,-221.99"/>
<polygon fill="#63b8ff" stroke="#63b8ff" points="162.79,-120.68 170.17,-113.08 159.66,-114.42 162.79,-120.68"/>
</a>
</g>
</g>
<!-- Node7 -->
<g id="Node000007" class="node">
<title>Node7</title>
<g id="a_Node000007"><a xlink:href="classcbrc_1_1TransfacReader.html#a3ed093ad4430cbb06ab8f58473f88ca3" target="_top" xlink:title=" ">
<polygon fill="white" stroke="#666666" points="118,-113 0,-113 0,-83 118,-83 118,-113"/>
<text text-anchor="start" x="8" y="-101" font-family="Helvetica,sans-Serif" font-size="10.00">cbrc::TransfacReader</text>
<text text-anchor="middle" x="59" y="-90" font-family="Helvetica,sans-Serif" font-size="10.00">::TransfacReader</text>
</a>
</g>
</g>
<!-- Node6&#45;&gt;Node7 -->
<g id="edge8_Node000006_Node000007" class="edge">
<title>Node6&#45;&gt;Node7</title>
<g id="a_edge8_Node000006_Node000007"><a xlink:title=" ">
<path fill="none" stroke="#63b8ff" d="M159.09,-98C145.46,-98 131.26,-98 118.01,-98"/>
<polygon fill="#63b8ff" stroke="#63b8ff" points="159.39,-101.5 169.39,-98 159.39,-94.5 159.39,-101.5"/>
</a>
</g>
</g>
<!-- Node8&#45;&gt;Node3 -->
<g id="edge10_Node000008_Node000003" class="edge">
<title>Node8&#45;&gt;Node3</title>
<g id="a_edge10_Node000008_Node000003"><a xlink:title=" ">
<path fill="none" stroke="#63b8ff" d="M329.02,-306.44C278.1,-296.92 211.89,-283.43 154,-268 136.9,-263.44 118.34,-257.53 102.27,-252.1"/>
<polygon fill="#63b8ff" stroke="#63b8ff" points="328.52,-309.9 338.99,-308.28 329.79,-303.02 328.52,-309.9"/>
</a>
</g>
</g>
<!-- Node9&#45;&gt;Node3 -->
<g id="edge12_Node000009_Node000003" class="edge">
<title>Node9&#45;&gt;Node3</title>
<g id="a_edge12_Node000009_Node000003"><a xlink:title=" ">
<path fill="none" stroke="#63b8ff" d="M328.39,-264.41C263.48,-257.78 175.36,-248.78 118.09,-242.93"/>
<polygon fill="#63b8ff" stroke="#63b8ff" points="328.3,-267.92 338.6,-265.45 329.01,-260.96 328.3,-267.92"/>
</a>
</g>
</g>
<!-- Node11&#45;&gt;Node3 -->
<g id="edge15_Node000011_Node000003" class="edge">
<title>Node11&#45;&gt;Node3</title>
<g id="a_edge15_Node000011_Node000003"><a xlink:title=" ">
<path fill="none" stroke="#63b8ff" d="M328.39,-227.86C263.48,-230.07 175.36,-233.07 118.09,-235.02"/>
<polygon fill="#63b8ff" stroke="#63b8ff" points="328.73,-231.35 338.6,-227.52 328.49,-224.36 328.73,-231.35"/>
</a>
</g>
</g>
<!-- Node12&#45;&gt;Node3 -->
<g id="edge17_Node000012_Node000003" class="edge">
<title>Node12&#45;&gt;Node3</title>
<g id="a_edge17_Node000012_Node000003"><a xlink:title=" ">
<path fill="none" stroke="#63b8ff" d="M165.56,-164.69C161.59,-166.36 157.71,-168.13 154,-170 125.37,-184.45 95.81,-207.01 77.67,-221.9"/>
<polygon fill="#63b8ff" stroke="#63b8ff" points="166.89,-167.93 174.91,-161 164.32,-161.42 166.89,-167.93"/>
</a>
</g>
</g>
<!-- Node12&#45;&gt;Node7 -->
<g id="edge18_Node000012_Node000007" class="edge">
<title>Node12&#45;&gt;Node7</title>
<g id="a_edge18_Node000012_Node000007"><a xlink:title=" ">
<path fill="none" stroke="#63b8ff" d="M164.94,-128.07C147.63,-123.11 129.02,-117.78 112.35,-113"/>
<polygon fill="#63b8ff" stroke="#63b8ff" points="164.38,-131.55 174.96,-130.94 166.31,-124.82 164.38,-131.55"/>
</a>
</g>
</g>
<!-- Node13&#45;&gt;Node7 -->
<g id="edge20_Node000013_Node000007" class="edge">
<title>Node13&#45;&gt;Node7</title>
<g id="a_edge20_Node000013_Node000007"><a xlink:title=" ">
<path fill="none" stroke="#63b8ff" d="M164.94,-67.93C147.63,-72.89 129.02,-78.22 112.35,-83"/>
<polygon fill="#63b8ff" stroke="#63b8ff" points="166.31,-71.18 174.96,-65.06 164.38,-64.45 166.31,-71.18"/>
</a>
</g>
</g>
</g>
</svg>

<g id="navigator" transform="translate(0 0)" fill="#404254">
  <rect fill="#f2f5e9" fill-opacity="0.5" stroke="#606060" stroke-width=".5" x="0" y="0" width="60" height="60"/>
  <use id="zoomplus" xlink:href="#zoomPlus" x="17" y="9" onmousedown="handleZoom(evt,'in')"/>
  <use id="zoomminus" xlink:href="#zoomMin" x="42" y="9" onmousedown="handleZoom(evt,'out')"/>
  <use id="reset" xlink:href="#resetDef" x="30" y="36" onmousedown="handleReset()"/>
   <use id="arrowup" xlink:href="#arrowUp" x="0" y="0" onmousedown="handlePan(0,-1)"/>
  <use id="arrowright" xlink:href="#arrowRight" x="0" y="0" onmousedown="handlePan(1,0)"/>
  <use id="arrowdown" xlink:href="#arrowDown" x="0" y="0" onmousedown="handlePan(0,1)"/>
  <use id="arrowleft" xlink:href="#arrowLeft" x="0" y="0" onmousedown="handlePan(-1,0)"/>
</g>
<svg viewBox="0 0 15 15" width="100%" height="30px" preserveAspectRatio="xMaxYMin meet">
 <g id="arrow_out" transform="scale(0.3 0.3)">
  <a xlink:href="classcbrc_1_1TransfacTextLine_ad2e943deedfa2453dd9d2d3016c862d9_icgraph_org.svg" target="_base">
   <rect id="button" ry="5" rx="5" y="6" x="6" height="38" width="38"
        fill="#f2f5e9" fill-opacity="0.5" stroke="#606060" stroke-width="1.0"/>
   <path id="arrow"
     d="M 11.500037,31.436501 C 11.940474,20.09759 22.043105,11.32322 32.158766,21.979434 L 37.068811,17.246167 C 37.068811,17.246167 37.088388,32 37.088388,32 L 22.160133,31.978069 C 22.160133,31.978069 26.997745,27.140456 26.997745,27.140456 C 18.528582,18.264221 13.291696,25.230495 11.500037,31.436501 z"
     style="fill:#404040;"/>
  </a>
 </g>
</svg>

<style type='text/css'>
<![CDATA[
[data-mouse-over-selected='false'] { opacity: 0.7; }
[data-mouse-over-selected='true']  { opacity: 1.0; }
]]>
</style>
<script type="application/ecmascript"><![CDATA[
document.addEventListener('DOMContentLoaded', (event) => {
  highlightEdges();
  highlightAdjacentNodes();
});
]]></script>
</svg>
