<?xml version="1.0" encoding="UTF-8" standalone="no"?>
<!DOCTYPE svg PUBLIC "-//W3C//DTD SVG 1.1//EN"
 "http://www.w3.org/Graphics/SVG/1.1/DTD/svg11.dtd">
<!-- Generated by graphviz version 2.43.0 (0)
 -->
<!-- Title: cbrc::FLEMatrix::size0 Pages: 1 -->
<svg width="543pt" height="182pt"
 viewBox="0.00 0.00 543.00 182.00" xmlns="http://www.w3.org/2000/svg" xmlns:xlink="http://www.w3.org/1999/xlink">
<g id="graph0" class="graph" transform="scale(1 1) rotate(0) translate(4 178)">
<title>cbrc::FLEMatrix::size0</title>
<!-- Node1 -->
<g id="Node000001" class="node">
<title>Node1</title>
<g id="a_Node000001"><a xlink:title=" ">
<polygon fill="#999999" stroke="#666666" points="535,-96.5 412,-96.5 412,-77.5 535,-77.5 535,-96.5"/>
<text text-anchor="middle" x="473.5" y="-84.5" font-family="Helvetica,sans-Serif" font-size="10.00">cbrc::FLEMatrix::size0</text>
</a>
</g>
</g>
<!-- Node2 -->
<g id="Node000002" class="node">
<title>Node2</title>
<g id="a_Node000002"><a xlink:href="classcbrc_1_1FLENumMatrix.html#a809633e952c0657076604f7b909b03e4" target="_top" xlink:title=" ">
<polygon fill="white" stroke="#666666" points="354.5,-174 239.5,-174 239.5,-144 354.5,-144 354.5,-174"/>
<text text-anchor="start" x="247.5" y="-162" font-family="Helvetica,sans-Serif" font-size="10.00">cbrc::FLENumMatrix</text>
<text text-anchor="middle" x="297" y="-151" font-family="Helvetica,sans-Serif" font-size="10.00">::normalize</text>
</a>
</g>
</g>
<!-- Node1&#45;&gt;Node2 -->
<g id="edge1_Node000001_Node000002" class="edge">
<title>Node1&#45;&gt;Node2</title>
<g id="a_edge1_Node000001_Node000002"><a xlink:title=" ">
<path fill="none" stroke="#63b8ff" d="M446.47,-101.4C427.34,-111.62 400.53,-125.2 376,-135 368.11,-138.15 359.63,-141.15 351.27,-143.88"/>
<polygon fill="#63b8ff" stroke="#63b8ff" points="448.32,-104.38 455.46,-96.54 445,-98.22 448.32,-104.38"/>
</a>
</g>
</g>
<!-- Node3 -->
<g id="Node000003" class="node">
<title>Node3</title>
<g id="a_Node000003"><a xlink:href="classcbrc_1_1FLEMatrix.html#a8ee8deac582cd6926176ce37defb7afb" target="_top" xlink:title=" ">
<polygon fill="white" stroke="#666666" points="376,-126 218,-126 218,-96 376,-96 376,-126"/>
<text text-anchor="start" x="226" y="-114" font-family="Helvetica,sans-Serif" font-size="10.00">cbrc::FLEMatrix::printColumn</text>
<text text-anchor="middle" x="297" y="-103" font-family="Helvetica,sans-Serif" font-size="10.00">Major</text>
</a>
</g>
</g>
<!-- Node1&#45;&gt;Node3 -->
<g id="edge2_Node000001_Node000003" class="edge">
<title>Node1&#45;&gt;Node3</title>
<g id="a_edge2_Node000001_Node000003"><a xlink:title=" ">
<path fill="none" stroke="#63b8ff" d="M401.82,-96.72C393.4,-97.88 384.77,-99.07 376.26,-100.24"/>
<polygon fill="#63b8ff" stroke="#63b8ff" points="402.53,-100.16 411.96,-95.33 401.57,-93.22 402.53,-100.16"/>
</a>
</g>
</g>
<!-- Node4 -->
<g id="Node000004" class="node">
<title>Node4</title>
<g id="a_Node000004"><a xlink:href="classcbrc_1_1LabeledSquareFLENumMatrix.html#adc5bed2f84f22816fc110ddf28c6f626" target="_top" xlink:title=" ">
<polygon fill="white" stroke="#666666" points="374.5,-78 219.5,-78 219.5,-48 374.5,-48 374.5,-78"/>
<text text-anchor="start" x="227.5" y="-66" font-family="Helvetica,sans-Serif" font-size="10.00">cbrc::LabeledSquareFLENum</text>
<text text-anchor="middle" x="297" y="-55" font-family="Helvetica,sans-Serif" font-size="10.00">Matrix::size</text>
</a>
</g>
</g>
<!-- Node1&#45;&gt;Node4 -->
<g id="edge3_Node000001_Node000004" class="edge">
<title>Node1&#45;&gt;Node4</title>
<g id="a_edge3_Node000001_Node000004"><a xlink:title=" ">
<path fill="none" stroke="#63b8ff" d="M401.96,-77.3C392.99,-76.07 383.78,-74.8 374.73,-73.55"/>
<polygon fill="#63b8ff" stroke="#63b8ff" points="401.57,-80.78 411.96,-78.67 402.53,-73.84 401.57,-80.78"/>
</a>
</g>
</g>
<!-- Node5 -->
<g id="Node000005" class="node">
<title>Node5</title>
<g id="a_Node000005"><a xlink:href="classcbrc_1_1ConstantLabeledSquareDoubleFLENumMatrix.html#a6899dd65f32f4d1ee033ab2c38df5c71" target="_top" xlink:title=" ">
<polygon fill="white" stroke="#666666" points="376,-30 218,-30 218,0 376,0 376,-30"/>
<text text-anchor="start" x="226" y="-18" font-family="Helvetica,sans-Serif" font-size="10.00">cbrc::ConstantLabeledSquare</text>
<text text-anchor="middle" x="297" y="-7" font-family="Helvetica,sans-Serif" font-size="10.00">DoubleFLENumMatrix::size0</text>
</a>
</g>
</g>
<!-- Node1&#45;&gt;Node5 -->
<g id="edge4_Node000001_Node000005" class="edge">
<title>Node1&#45;&gt;Node5</title>
<g id="a_edge4_Node000001_Node000005"><a xlink:title=" ">
<path fill="none" stroke="#63b8ff" d="M446.47,-72.6C427.34,-62.38 400.53,-48.8 376,-39 368.11,-35.85 359.63,-32.85 351.27,-30.12"/>
<polygon fill="#63b8ff" stroke="#63b8ff" points="445,-75.78 455.46,-77.46 448.32,-69.62 445,-75.78"/>
</a>
</g>
</g>
<!-- Node6 -->
<g id="Node000006" class="node">
<title>Node6</title>
<g id="a_Node000006"><a xlink:href="classcbrc_1_1ConstantLabeledSquareDoubleFLENumMatrix.html#a52955fe73052cbd12524fdf12db56270" target="_top" xlink:title=" ">
<polygon fill="white" stroke="#666666" points="182,-30 0,-30 0,0 182,0 182,-30"/>
<text text-anchor="start" x="8" y="-18" font-family="Helvetica,sans-Serif" font-size="10.00">cbrc::ConstantLabeledSquare</text>
<text text-anchor="middle" x="91" y="-7" font-family="Helvetica,sans-Serif" font-size="10.00">DoubleFLENumMatrix::symmetric</text>
</a>
</g>
</g>
<!-- Node5&#45;&gt;Node6 -->
<g id="edge5_Node000005_Node000006" class="edge">
<title>Node5&#45;&gt;Node6</title>
<g id="a_edge5_Node000005_Node000006"><a xlink:title=" ">
<path fill="none" stroke="#63b8ff" d="M207.58,-15C199.22,-15 190.72,-15 182.34,-15"/>
<polygon fill="#63b8ff" stroke="#63b8ff" points="207.71,-18.5 217.71,-15 207.71,-11.5 207.71,-18.5"/>
</a>
</g>
</g>
</g>
</svg>
