<?xml version="1.0" encoding="UTF-8" standalone="no"?>
<!DOCTYPE svg PUBLIC "-//W3C//DTD SVG 1.1//EN"
 "http://www.w3.org/Graphics/SVG/1.1/DTD/svg11.dtd">
<!-- Generated by graphviz version 2.43.0 (0)
 -->
<!-- Title: cbrc::ArgvParser::setCautiously Pages: 1 -->
<!--zoomable 261 -->

<svg id="main" version="1.1" xmlns="http://www.w3.org/2000/svg" xmlns:xlink="http://www.w3.org/1999/xlink" xml:space="preserve" onload="init(evt)">
<style type="text/css"><![CDATA[
.node, .edge {opacity: 0.7;}
.node.selected, .edge.selected {opacity: 1;}
.edge:hover path { stroke: red; }
.edge:hover polygon { stroke: red; fill: red; }
]]></style>

<defs>
  <circle id="rim" cx="0" cy="0" r="7"/>
  <circle id="rim2" cx="0" cy="0" r="3.5"/>
  <g id="zoomPlus">
    <use xlink:href="#rim" fill="#404040"><set attributeName="fill" to="#808080" begin="zoomplus.mouseover" end="zoomplus.mouseout"/></use>
    <path d="M-4,0h8M0,-4v8" fill="none" stroke="white" stroke-width="1.5" pointer-events="none"/>
  </g>
  <g id="zoomMin">
    <use xlink:href="#rim" fill="#404040"><set attributeName="fill" to="#808080" begin="zoomminus.mouseover" end="zoomminus.mouseout"/></use>
    <path d="M-4,0h8" fill="none" stroke="white" stroke-width="1.5" pointer-events="none"/>
  </g>
  <g id="arrowUp" transform="translate(30 24)">
    <use xlink:href="#rim"/>
    <path pointer-events="none" fill="none" stroke="white" stroke-width="1.5" d="M0,-3.0v7 M-2.5,-0.5L0,-3.0L2.5,-0.5"/>
  </g>
  <g id="arrowRight" transform="rotate(90) translate(36 -43)">
    <use xlink:href="#rim"/>
    <path pointer-events="none" fill="none" stroke="white" stroke-width="1.5" d="M0,-3.0v7 M-2.5,-0.5L0,-3.0L2.5,-0.5"/>
  </g>
  <g id="arrowDown" transform="rotate(180) translate(-30 -48)">
    <use xlink:href="#rim"/>
    <path pointer-events="none" fill="none" stroke="white" stroke-width="1.5" d="M0,-3.0v7 M-2.5,-0.5L0,-3.0L2.5,-0.5"/>
  </g>
  <g id="arrowLeft" transform="rotate(270) translate(-36 17)">
    <use xlink:href="#rim"/>
    <path pointer-events="none" fill="none" stroke="white" stroke-width="1.5" d="M0,-3.0v7 M-2.5,-0.5L0,-3.0L2.5,-0.5"/>
  </g>
  <g id="resetDef">
    <use xlink:href="#rim2" fill="#404040"><set attributeName="fill" to="#808080" begin="reset.mouseover" end="reset.mouseout"/></use>
  </g>
</defs>
<script type="application/ecmascript">
var viewWidth = 743;
var viewHeight = 261;
var sectionId = 'dynsection-109';
</script>
<script type="application/ecmascript" xlink:href="svg.min.js"/>
<svg id="graph" class="graph">
<g id="viewport">
<title>cbrc::ArgvParser::setCautiously</title>
<!-- Node1 -->
<g id="Node000001" class="node">
<title>Node1</title>
<g id="a_Node000001"><a xlink:title=" ">
<polygon fill="#999999" stroke="#666666" points="168,-121.22 0,-121.22 0,-102.22 168,-102.22 168,-121.22"/>
<text text-anchor="middle" x="84" y="-109.22" font-family="Helvetica,sans-Serif" font-size="10.00">cbrc::ArgvParser::setCautiously</text>
</a>
</g>
</g>
<!-- Node2 -->
<g id="Node000002" class="node">
<title>Node2</title>
<g id="a_Node000002"><a xlink:href="namespacecbrc.html#a94ca1678e0481b17626977da7cfb798b" target="_top" xlink:title=" ">
<polygon fill="white" stroke="#666666" points="366.5,-253.22 218.5,-253.22 218.5,-234.22 366.5,-234.22 366.5,-253.22"/>
<text text-anchor="middle" x="292.5" y="-241.22" font-family="Helvetica,sans-Serif" font-size="10.00">cbrc::_argvParserNullString</text>
</a>
</g>
</g>
<!-- Node1&#45;&gt;Node2 -->
<g id="edge1_Node000001_Node000002" class="edge">
<title>Node1&#45;&gt;Node2</title>
<g id="a_edge1_Node000001_Node000002"><a xlink:title=" ">
<path fill="none" stroke="#63b8ff" d="M92.83,-121.42C110.42,-142.56 155.34,-192.99 204,-219.72 212.4,-224.34 221.75,-228.11 231.13,-231.19"/>
<polygon fill="#63b8ff" stroke="#63b8ff" points="230.29,-234.59 240.87,-234.15 232.32,-227.89 230.29,-234.59"/>
</a>
</g>
</g>
<!-- Node3 -->
<g id="Node000003" class="node">
<title>Node3</title>
<g id="a_Node000003"><a xlink:href="classcbrc_1_1ArgvParser.html#aad8dc9d595217cf4ad2a7f557371d3ab" target="_top" xlink:title=" ">
<polygon fill="white" stroke="#666666" points="550.5,-177.22 434.5,-177.22 434.5,-158.22 550.5,-158.22 550.5,-177.22"/>
<text text-anchor="middle" x="492.5" y="-165.22" font-family="Helvetica,sans-Serif" font-size="10.00">cbrc::ArgvParser::die</text>
</a>
</g>
</g>
<!-- Node1&#45;&gt;Node3 -->
<g id="edge2_Node000001_Node000003" class="edge">
<title>Node1&#45;&gt;Node3</title>
<g id="a_edge2_Node000001_Node000003"><a xlink:title=" ">
<path fill="none" stroke="#63b8ff" d="M109.64,-121.26C133.41,-130 170.6,-142.51 204,-148.72 278.46,-162.56 365.41,-166.67 424.03,-167.73"/>
<polygon fill="#63b8ff" stroke="#63b8ff" points="424.22,-171.23 434.28,-167.88 424.33,-164.23 424.22,-171.23"/>
</a>
</g>
</g>
<!-- Node4 -->
<g id="Node000004" class="node">
<title>Node4</title>
<g id="a_Node000004"><a xlink:href="classcbrc_1_1FLEArray.html#ad71311380d762114c9e0f3b0dda38b7c" target="_top" xlink:title=" ">
<polygon fill="white" stroke="#666666" points="725,-214.22 614,-214.22 614,-195.22 725,-195.22 725,-214.22"/>
<text text-anchor="middle" x="669.5" y="-202.22" font-family="Helvetica,sans-Serif" font-size="10.00">cbrc::FLEArray::size</text>
</a>
</g>
</g>
<!-- Node1&#45;&gt;Node4 -->
<g id="edge12_Node000001_Node000004" class="edge">
<title>Node1&#45;&gt;Node4</title>
<g id="a_edge12_Node000001_Node000004"><a xlink:title=" ">
<path fill="none" stroke="#63b8ff" d="M99.65,-121.33C121.4,-135.03 163.97,-159.74 204,-170.72 342.53,-208.71 512.49,-210.35 603.54,-207.79"/>
<polygon fill="#63b8ff" stroke="#63b8ff" points="603.82,-211.28 613.71,-207.48 603.6,-204.29 603.82,-211.28"/>
</a>
</g>
</g>
<!-- Node6 -->
<g id="Node000006" class="node">
<title>Node6</title>
<g id="a_Node000006"><a xlink:href="classcbrc_1_1ArgvParser.html#a966b6221fd0fe37385f7bdc8c569d30e" target="_top" xlink:title=" ">
<polygon fill="white" stroke="#666666" points="359.5,-121.22 225.5,-121.22 225.5,-102.22 359.5,-102.22 359.5,-121.22"/>
<text text-anchor="middle" x="292.5" y="-109.22" font-family="Helvetica,sans-Serif" font-size="10.00">cbrc::ArgvParser::getOpt</text>
</a>
</g>
</g>
<!-- Node1&#45;&gt;Node6 -->
<g id="edge5_Node000001_Node000006" class="edge">
<title>Node1&#45;&gt;Node6</title>
<g id="a_edge5_Node000001_Node000006"><a xlink:title=" ">
<path fill="none" stroke="#63b8ff" d="M168.1,-111.72C183.58,-111.72 199.69,-111.72 214.96,-111.72"/>
<polygon fill="#63b8ff" stroke="#63b8ff" points="215.38,-115.22 225.38,-111.72 215.38,-108.22 215.38,-115.22"/>
</a>
</g>
</g>
<!-- Node7 -->
<g id="Node000007" class="node">
<title>Node7</title>
<g id="a_Node000007"><a xlink:href="classcbrc_1_1ArgvParser.html#a46a57700d9fed0d752646411816ce279" target="_top" xlink:title=" ">
<polygon fill="white" stroke="#666666" points="360.5,-84.22 224.5,-84.22 224.5,-65.22 360.5,-65.22 360.5,-84.22"/>
<text text-anchor="middle" x="292.5" y="-72.22" font-family="Helvetica,sans-Serif" font-size="10.00">cbrc::ArgvParser::hasOpt</text>
</a>
</g>
</g>
<!-- Node1&#45;&gt;Node7 -->
<g id="edge7_Node000001_Node000007" class="edge">
<title>Node1&#45;&gt;Node7</title>
<g id="a_edge7_Node000001_Node000007"><a xlink:title=" ">
<path fill="none" stroke="#63b8ff" d="M138.18,-102.19C165.65,-97.27 199.36,-91.23 228.17,-86.07"/>
<polygon fill="#63b8ff" stroke="#63b8ff" points="228.92,-89.49 238.14,-84.28 227.68,-82.6 228.92,-89.49"/>
</a>
</g>
</g>
<!-- Node8 -->
<g id="Node000008" class="node">
<title>Node8</title>
<g id="a_Node000008"><a xlink:href="classcbrc_1_1ArgvParser.html#ae862060477d073e6a4dcbaa09a86189d" target="_top" xlink:title=" ">
<polygon fill="white" stroke="#666666" points="381,-47.22 204,-47.22 204,-28.22 381,-28.22 381,-47.22"/>
<text text-anchor="middle" x="292.5" y="-35.22" font-family="Helvetica,sans-Serif" font-size="10.00">cbrc::ArgvParser::openCautiously</text>
</a>
</g>
</g>
<!-- Node1&#45;&gt;Node8 -->
<g id="edge8_Node000001_Node000008" class="edge">
<title>Node1&#45;&gt;Node8</title>
<g id="a_edge8_Node000001_Node000008"><a xlink:title=" ">
<path fill="none" stroke="#63b8ff" d="M102.64,-102.07C125.45,-89.95 166.67,-69.23 204,-56.72 211.95,-54.06 220.42,-51.67 228.86,-49.57"/>
<polygon fill="#63b8ff" stroke="#63b8ff" points="229.79,-52.95 238.71,-47.23 228.17,-46.14 229.79,-52.95"/>
</a>
</g>
</g>
<!-- Node9 -->
<g id="Node000009" class="node">
<title>Node9</title>
<g id="a_Node000009"><a xlink:href="classcbrc_1_1ArgvParser.html#ae3c19f8214a3eed2fd50d1f62a8a41c0" target="_top" xlink:title=" ">
<polygon fill="white" stroke="#666666" points="568,-28.22 417,-28.22 417,-9.22 568,-9.22 568,-28.22"/>
<text text-anchor="middle" x="492.5" y="-16.22" font-family="Helvetica,sans-Serif" font-size="10.00">cbrc::ArgvParser::pathname</text>
</a>
</g>
</g>
<!-- Node1&#45;&gt;Node9 -->
<g id="edge11_Node000001_Node000009" class="edge">
<title>Node1&#45;&gt;Node9</title>
<g id="a_edge11_Node000001_Node000009"><a xlink:title=" ">
<path fill="none" stroke="#63b8ff" d="M93,-102.17C110.57,-82.01 154.91,-35.63 204,-18.72 279.39,7.25 372.65,0.8 432.12,-7.71"/>
<polygon fill="#63b8ff" stroke="#63b8ff" points="431.68,-11.18 442.09,-9.2 432.72,-4.26 431.68,-11.18"/>
</a>
</g>
</g>
<!-- Node3&#45;&gt;Node4 -->
<g id="edge3_Node000003_Node000004" class="edge">
<title>Node3&#45;&gt;Node4</title>
<g id="a_edge3_Node000003_Node000004"><a xlink:title=" ">
<path fill="none" stroke="#63b8ff" d="M538.57,-177.25C561.34,-182.06 589.17,-187.95 613.23,-193.03"/>
<polygon fill="#63b8ff" stroke="#63b8ff" points="612.77,-196.52 623.28,-195.16 614.22,-189.67 612.77,-196.52"/>
</a>
</g>
</g>
<!-- Node5 -->
<g id="Node000005" class="node">
<title>Node5</title>
<g id="a_Node000005"><a xlink:href="classcbrc_1_1ArgvParser.html#a1b7d257748fcfaa9a9a3cf46bc36a7e5" target="_top" xlink:title=" ">
<polygon fill="white" stroke="#666666" points="735,-177.22 604,-177.22 604,-158.22 735,-158.22 735,-177.22"/>
<text text-anchor="middle" x="669.5" y="-165.22" font-family="Helvetica,sans-Serif" font-size="10.00">cbrc::ArgvParser::usage</text>
</a>
</g>
</g>
<!-- Node3&#45;&gt;Node5 -->
<g id="edge4_Node000003_Node000005" class="edge">
<title>Node3&#45;&gt;Node5</title>
<g id="a_edge4_Node000003_Node000005"><a xlink:title=" ">
<path fill="none" stroke="#63b8ff" d="M550.8,-167.72C564.44,-167.72 579.19,-167.72 593.49,-167.72"/>
<polygon fill="#63b8ff" stroke="#63b8ff" points="593.79,-171.22 603.79,-167.72 593.79,-164.22 593.79,-171.22"/>
</a>
</g>
</g>
<!-- Node6&#45;&gt;Node6 -->
<g id="edge6_Node000006_Node000006" class="edge">
<title>Node6&#45;&gt;Node6</title>
<g id="a_edge6_Node000006_Node000006"><a xlink:title=" ">
<path fill="none" stroke="#63b8ff" d="M261.67,-121.3C246.68,-129.95 256.95,-139.22 292.5,-139.22 317.49,-139.22 329.99,-134.64 330,-128.91"/>
<polygon fill="#63b8ff" stroke="#63b8ff" points="332.55,-126.51 323.33,-121.3 327.29,-131.13 332.55,-126.51"/>
</a>
</g>
</g>
<!-- Node8&#45;&gt;Node3 -->
<g id="edge9_Node000008_Node000003" class="edge">
<title>Node8&#45;&gt;Node3</title>
<g id="a_edge9_Node000008_Node000003"><a xlink:title=" ">
<path fill="none" stroke="#63b8ff" d="M358.13,-47.29C366.09,-49.75 373.91,-52.84 381,-56.72 423.7,-80.09 460.72,-125.05 479.12,-149.98"/>
<polygon fill="#63b8ff" stroke="#63b8ff" points="476.34,-152.12 485.03,-158.18 482.02,-148.03 476.34,-152.12"/>
</a>
</g>
</g>
<!-- Node8&#45;&gt;Node9 -->
<g id="edge10_Node000008_Node000009" class="edge">
<title>Node8&#45;&gt;Node9</title>
<g id="a_edge10_Node000008_Node000009"><a xlink:title=" ">
<path fill="none" stroke="#63b8ff" d="M381.21,-29.3C389.67,-28.49 398.24,-27.67 406.66,-26.86"/>
<polygon fill="#63b8ff" stroke="#63b8ff" points="407.24,-30.32 416.86,-25.88 406.57,-23.35 407.24,-30.32"/>
</a>
</g>
</g>
</g>
</svg>

<g id="navigator" transform="translate(0 0)" fill="#404254">
  <rect fill="#f2f5e9" fill-opacity="0.5" stroke="#606060" stroke-width=".5" x="0" y="0" width="60" height="60"/>
  <use id="zoomplus" xlink:href="#zoomPlus" x="17" y="9" onmousedown="handleZoom(evt,'in')"/>
  <use id="zoomminus" xlink:href="#zoomMin" x="42" y="9" onmousedown="handleZoom(evt,'out')"/>
  <use id="reset" xlink:href="#resetDef" x="30" y="36" onmousedown="handleReset()"/>
   <use id="arrowup" xlink:href="#arrowUp" x="0" y="0" onmousedown="handlePan(0,-1)"/>
  <use id="arrowright" xlink:href="#arrowRight" x="0" y="0" onmousedown="handlePan(1,0)"/>
  <use id="arrowdown" xlink:href="#arrowDown" x="0" y="0" onmousedown="handlePan(0,1)"/>
  <use id="arrowleft" xlink:href="#arrowLeft" x="0" y="0" onmousedown="handlePan(-1,0)"/>
</g>
<svg viewBox="0 0 15 15" width="100%" height="30px" preserveAspectRatio="xMaxYMin meet">
 <g id="arrow_out" transform="scale(0.3 0.3)">
  <a xlink:href="classcbrc_1_1ArgvParser_a024c9c201f99c9fc4168509e24758886_cgraph_org.svg" target="_base">
   <rect id="button" ry="5" rx="5" y="6" x="6" height="38" width="38"
        fill="#f2f5e9" fill-opacity="0.5" stroke="#606060" stroke-width="1.0"/>
   <path id="arrow"
     d="M 11.500037,31.436501 C 11.940474,20.09759 22.043105,11.32322 32.158766,21.979434 L 37.068811,17.246167 C 37.068811,17.246167 37.088388,32 37.088388,32 L 22.160133,31.978069 C 22.160133,31.978069 26.997745,27.140456 26.997745,27.140456 C 18.528582,18.264221 13.291696,25.230495 11.500037,31.436501 z"
     style="fill:#404040;"/>
  </a>
 </g>
</svg>

<style type='text/css'>
<![CDATA[
[data-mouse-over-selected='false'] { opacity: 0.7; }
[data-mouse-over-selected='true']  { opacity: 1.0; }
]]>
</style>
<script type="application/ecmascript"><![CDATA[
document.addEventListener('DOMContentLoaded', (event) => {
  highlightEdges();
  highlightAdjacentNodes();
});
]]></script>
</svg>
