<?xml version="1.0" encoding="UTF-8" standalone="no"?>
<!DOCTYPE svg PUBLIC "-//W3C//DTD SVG 1.1//EN"
 "http://www.w3.org/Graphics/SVG/1.1/DTD/svg11.dtd">
<!-- Generated by graphviz version 2.43.0 (0)
 -->
<!-- Title: cbrc::TextWindow::TextWindow Pages: 1 -->
<svg width="581pt" height="76pt"
 viewBox="0.00 0.00 581.00 75.50" xmlns="http://www.w3.org/2000/svg" xmlns:xlink="http://www.w3.org/1999/xlink">
<g id="graph0" class="graph" transform="scale(1 1) rotate(0) translate(4 71.5)">
<title>cbrc::TextWindow::TextWindow</title>
<!-- Node1 -->
<g id="Node000001" class="node">
<title>Node1</title>
<g id="a_Node000001"><a xlink:title=" ">
<polygon fill="#999999" stroke="#666666" points="167,-43 0,-43 0,-24 167,-24 167,-43"/>
<text text-anchor="middle" x="83.5" y="-31" font-family="Helvetica,sans-Serif" font-size="10.00">cbrc::TextWindow::TextWindow</text>
</a>
</g>
</g>
<!-- Node2 -->
<g id="Node000002" class="node">
<title>Node2</title>
<g id="a_Node000002"><a xlink:href="classcbrc_1_1TextWindow.html#a64a027f5b9996de4281351dc346fb3ea" target="_top" xlink:title=" ">
<polygon fill="white" stroke="#666666" points="360,-62 233,-62 233,-43 360,-43 360,-62"/>
<text text-anchor="middle" x="296.5" y="-50" font-family="Helvetica,sans-Serif" font-size="10.00">cbrc::TextWindow::size</text>
</a>
</g>
</g>
<!-- Node1&#45;&gt;Node2 -->
<g id="edge1_Node000001_Node000002" class="edge">
<title>Node1&#45;&gt;Node2</title>
<g id="a_edge1_Node000001_Node000002"><a xlink:title=" ">
<path fill="none" stroke="#63b8ff" d="M167.29,-40.95C185.53,-42.6 204.72,-44.33 222.54,-45.93"/>
<polygon fill="#63b8ff" stroke="#63b8ff" points="222.58,-49.45 232.85,-46.86 223.21,-42.48 222.58,-49.45"/>
</a>
</g>
</g>
<!-- Node4 -->
<g id="Node000004" class="node">
<title>Node4</title>
<g id="a_Node000004"><a xlink:href="classcbrc_1_1TextWindow.html#a3cc4892b2f3cd9ef3367f83b5a06aea0" target="_top" xlink:title=" ">
<polygon fill="white" stroke="#666666" points="390,-25 203,-25 203,-6 390,-6 390,-25"/>
<text text-anchor="middle" x="296.5" y="-13" font-family="Helvetica,sans-Serif" font-size="10.00">cbrc::TextWindow::validRelativeIdx</text>
</a>
</g>
</g>
<!-- Node1&#45;&gt;Node4 -->
<g id="edge3_Node000001_Node000004" class="edge">
<title>Node1&#45;&gt;Node4</title>
<g id="a_edge3_Node000001_Node000004"><a xlink:title=" ">
<path fill="none" stroke="#63b8ff" d="M167.29,-26.44C175.67,-25.72 184.25,-24.99 192.81,-24.26"/>
<polygon fill="#63b8ff" stroke="#63b8ff" points="193.16,-27.74 202.83,-23.41 192.57,-20.77 193.16,-27.74"/>
</a>
</g>
</g>
<!-- Node3 -->
<g id="Node000003" class="node">
<title>Node3</title>
<g id="a_Node000003"><a xlink:href="classcbrc_1_1TextWindow.html#a37d6d349be3b4ee732ad29f05d774c3a" target="_top" xlink:title=" ">
<polygon fill="white" stroke="#666666" points="572,-67.5 427,-67.5 427,-37.5 572,-37.5 572,-67.5"/>
<text text-anchor="start" x="435" y="-55.5" font-family="Helvetica,sans-Serif" font-size="10.00">cbrc::TextWindow::window</text>
<text text-anchor="middle" x="499.5" y="-44.5" font-family="Helvetica,sans-Serif" font-size="10.00">StartIdx</text>
</a>
</g>
</g>
<!-- Node2&#45;&gt;Node3 -->
<g id="edge2_Node000002_Node000003" class="edge">
<title>Node2&#45;&gt;Node3</title>
<g id="a_edge2_Node000002_Node000003"><a xlink:title=" ">
<path fill="none" stroke="#63b8ff" d="M360.27,-52.5C378.14,-52.5 397.87,-52.5 416.69,-52.5"/>
<polygon fill="#63b8ff" stroke="#63b8ff" points="416.74,-56 426.74,-52.5 416.74,-49 416.74,-56"/>
</a>
</g>
</g>
<!-- Node4&#45;&gt;Node3 -->
<g id="edge5_Node000004_Node000003" class="edge">
<title>Node4&#45;&gt;Node3</title>
<g id="a_edge5_Node000004_Node000003"><a xlink:title=" ">
<path fill="none" stroke="#63b8ff" d="M349.26,-25.03C369.83,-28.81 393.99,-33.26 416.81,-37.46"/>
<polygon fill="#63b8ff" stroke="#63b8ff" points="416.37,-40.94 426.84,-39.31 417.64,-34.06 416.37,-40.94"/>
</a>
</g>
</g>
<!-- Node5 -->
<g id="Node000005" class="node">
<title>Node5</title>
<g id="a_Node000005"><a xlink:href="classcbrc_1_1TextWindow.html#a7eb700d47ef382fcb4bfaa2a686174f2" target="_top" xlink:title=" ">
<polygon fill="white" stroke="#666666" points="573,-19 426,-19 426,0 573,0 573,-19"/>
<text text-anchor="middle" x="499.5" y="-7" font-family="Helvetica,sans-Serif" font-size="10.00">cbrc::TextWindow::textSize</text>
</a>
</g>
</g>
<!-- Node4&#45;&gt;Node5 -->
<g id="edge4_Node000004_Node000005" class="edge">
<title>Node4&#45;&gt;Node5</title>
<g id="a_edge4_Node000004_Node000005"><a xlink:title=" ">
<path fill="none" stroke="#63b8ff" d="M390.06,-12.74C398.63,-12.48 407.28,-12.22 415.75,-11.97"/>
<polygon fill="#63b8ff" stroke="#63b8ff" points="416.09,-15.46 425.98,-11.66 415.88,-8.46 416.09,-15.46"/>
</a>
</g>
</g>
</g>
</svg>
