<?xml version="1.0" encoding="UTF-8" standalone="no"?>
<!DOCTYPE svg PUBLIC "-//W3C//DTD SVG 1.1//EN"
 "http://www.w3.org/Graphics/SVG/1.1/DTD/svg11.dtd">
<!-- Generated by graphviz version 2.43.0 (0)
 -->
<!-- Title: cbrc::FLEArray::resize Pages: 1 -->
<svg width="463pt" height="82pt"
 viewBox="0.00 0.00 463.00 82.00" xmlns="http://www.w3.org/2000/svg" xmlns:xlink="http://www.w3.org/1999/xlink">

<svg id="main" version="1.1" xmlns="http://www.w3.org/2000/svg" xmlns:xlink="http://www.w3.org/1999/xlink" xml:space="preserve" onload="init(evt)">
<style type="text/css"><![CDATA[
.node, .edge {opacity: 0.7;}
.node.selected, .edge.selected {opacity: 1;}
.edge:hover path { stroke: red; }
.edge:hover polygon { stroke: red; fill: red; }
]]></style>
<script type="application/ecmascript" xlink:href="svg.min.js"/>
<svg id="graph" class="graph">
<g id="graph0" class="graph" transform="scale(1 1) rotate(0) translate(4 78)">
<title>cbrc::FLEArray::resize</title>
<!-- Node1 -->
<g id="Node000001" class="node">
<title>Node1</title>
<g id="a_Node000001"><a xlink:title=" ">
<polygon fill="#999999" stroke="#666666" points="121,-38 0,-38 0,-19 121,-19 121,-38"/>
<text text-anchor="middle" x="60.5" y="-26" font-family="Helvetica,sans-Serif" font-size="10.00">cbrc::FLEArray::resize</text>
</a>
</g>
</g>
<!-- Node2 -->
<g id="Node000002" class="node">
<title>Node2</title>
<g id="a_Node000002"><a xlink:href="classcbrc_1_1FLEArray.html#a5368c7c0434bd5c119d2cbb39f4b399e" target="_top" xlink:title=" ">
<polygon fill="white" stroke="#666666" points="455,-56 320,-56 320,-37 455,-37 455,-56"/>
<text text-anchor="middle" x="387.5" y="-44" font-family="Helvetica,sans-Serif" font-size="10.00">cbrc::FLEArray::FLEArray</text>
</a>
</g>
</g>
<!-- Node1&#45;&gt;Node2 -->
<g id="edge1_Node000001_Node000002" class="edge">
<title>Node1&#45;&gt;Node2</title>
<g id="a_edge1_Node000001_Node000002"><a xlink:title=" ">
<path fill="none" stroke="#63b8ff" d="M121.11,-31.8C174.18,-34.74 252.13,-39.06 309.83,-42.25"/>
<polygon fill="#63b8ff" stroke="#63b8ff" points="309.81,-45.76 319.99,-42.82 310.2,-38.77 309.81,-45.76"/>
</a>
</g>
</g>
<!-- Node3 -->
<g id="Node000003" class="node">
<title>Node3</title>
<g id="a_Node000003"><a xlink:href="classcbrc_1_1FLEArray.html#a5f10f892188c41f2821ef33ee9bcc743" target="_top" xlink:title=" ">
<polygon fill="white" stroke="#666666" points="284,-19 157,-19 157,0 284,0 284,-19"/>
<text text-anchor="middle" x="220.5" y="-7" font-family="Helvetica,sans-Serif" font-size="10.00">cbrc::FLEArray::setSize</text>
</a>
</g>
</g>
<!-- Node1&#45;&gt;Node3 -->
<g id="edge3_Node000001_Node000003" class="edge">
<title>Node1&#45;&gt;Node3</title>
<g id="a_edge3_Node000001_Node000003"><a xlink:title=" ">
<path fill="none" stroke="#63b8ff" d="M121.23,-21.32C129.59,-20.31 138.25,-19.27 146.81,-18.24"/>
<polygon fill="#63b8ff" stroke="#63b8ff" points="147.28,-21.71 156.79,-17.04 146.44,-14.76 147.28,-21.71"/>
</a>
</g>
</g>
<!-- Node2&#45;&gt;Node2 -->
<g id="edge2_Node000002_Node000002" class="edge">
<title>Node2&#45;&gt;Node2</title>
<g id="a_edge2_Node000002_Node000002"><a xlink:title=" ">
<path fill="none" stroke="#63b8ff" d="M361.91,-56.08C349.47,-64.73 358,-74 387.5,-74 406.86,-74 417.19,-70.01 418.49,-64.82"/>
<polygon fill="#63b8ff" stroke="#63b8ff" points="421.32,-62.75 413.09,-56.08 415.37,-66.43 421.32,-62.75"/>
</a>
</g>
</g>
<!-- Node3&#45;&gt;Node2 -->
<g id="edge4_Node000003_Node000002" class="edge">
<title>Node3&#45;&gt;Node2</title>
<g id="a_edge4_Node000003_Node000002"><a xlink:title=" ">
<path fill="none" stroke="#63b8ff" d="M263.99,-19.03C285.37,-23.82 311.47,-29.68 334.08,-34.75"/>
<polygon fill="#63b8ff" stroke="#63b8ff" points="333.34,-38.17 343.87,-36.94 334.87,-31.34 333.34,-38.17"/>
</a>
</g>
</g>
<!-- Node4 -->
<g id="Node000004" class="node">
<title>Node4</title>
<g id="a_Node000004"><a xlink:href="classcbrc_1_1FLEArray.html#ad71311380d762114c9e0f3b0dda38b7c" target="_top" xlink:title=" ">
<polygon fill="white" stroke="#666666" points="443,-19 332,-19 332,0 443,0 443,-19"/>
<text text-anchor="middle" x="387.5" y="-7" font-family="Helvetica,sans-Serif" font-size="10.00">cbrc::FLEArray::size</text>
</a>
</g>
</g>
<!-- Node3&#45;&gt;Node4 -->
<g id="edge5_Node000003_Node000004" class="edge">
<title>Node3&#45;&gt;Node4</title>
<g id="a_edge5_Node000003_Node000004"><a xlink:title=" ">
<path fill="none" stroke="#63b8ff" d="M284.35,-9.5C296.59,-9.5 309.44,-9.5 321.74,-9.5"/>
<polygon fill="#63b8ff" stroke="#63b8ff" points="321.91,-13 331.91,-9.5 321.91,-6 321.91,-13"/>
</a>
</g>
</g>
</g>
</svg>
</svg>

<style type='text/css'>
<![CDATA[
[data-mouse-over-selected='false'] { opacity: 0.7; }
[data-mouse-over-selected='true']  { opacity: 1.0; }
]]>
</style>
<script type="application/ecmascript"><![CDATA[
document.addEventListener('DOMContentLoaded', (event) => {
  highlightEdges();
  highlightAdjacentNodes();
});
]]></script>
</svg>
