<?xml version="1.0" encoding="UTF-8" standalone="no"?>
<!DOCTYPE svg PUBLIC "-//W3C//DTD SVG 1.1//EN"
 "http://www.w3.org/Graphics/SVG/1.1/DTD/svg11.dtd">
<!-- Generated by graphviz version 2.43.0 (0)
 -->
<!-- Title: cbrc::GlobalAffineDist::oneSequenceBasedUpperBound Pages: 1 -->
<svg width="649pt" height="116pt"
 viewBox="0.00 0.00 649.00 116.00" xmlns="http://www.w3.org/2000/svg" xmlns:xlink="http://www.w3.org/1999/xlink">
<g id="graph0" class="graph" transform="scale(1 1) rotate(0) translate(4 112)">
<title>cbrc::GlobalAffineDist::oneSequenceBasedUpperBound</title>
<!-- Node1 -->
<g id="Node000001" class="node">
<title>Node1</title>
<g id="a_Node000001"><a xlink:title=" ">
<polygon fill="#999999" stroke="#666666" points="178,-30 0,-30 0,0 178,0 178,-30"/>
<text text-anchor="start" x="8" y="-18" font-family="Helvetica,sans-Serif" font-size="10.00">cbrc::GlobalAffineDist</text>
<text text-anchor="middle" x="89" y="-7" font-family="Helvetica,sans-Serif" font-size="10.00">::oneSequenceBasedUpperBound</text>
</a>
</g>
</g>
<!-- Node2 -->
<g id="Node000002" class="node">
<title>Node2</title>
<g id="a_Node000002"><a xlink:href="classcbrc_1_1GlobalAffineDist.html#ab23672914cfff53daa2e8d95f762840b" target="_top" xlink:title=" ">
<polygon fill="white" stroke="#666666" points="336,-52 214,-52 214,-22 336,-22 336,-52"/>
<text text-anchor="start" x="222" y="-40" font-family="Helvetica,sans-Serif" font-size="10.00">cbrc::GlobalAffineDist</text>
<text text-anchor="middle" x="275" y="-29" font-family="Helvetica,sans-Serif" font-size="10.00">::bestPossibleDist</text>
</a>
</g>
</g>
<!-- Node1&#45;&gt;Node2 -->
<g id="edge1_Node000001_Node000002" class="edge">
<title>Node1&#45;&gt;Node2</title>
<g id="a_edge1_Node000001_Node000002"><a xlink:title=" ">
<path fill="none" stroke="#63b8ff" d="M178.23,-25.55C186.82,-26.58 195.45,-27.61 203.83,-28.61"/>
<polygon fill="#63b8ff" stroke="#63b8ff" points="203.55,-32.1 213.9,-29.81 204.39,-25.15 203.55,-32.1"/>
</a>
</g>
</g>
<!-- Node4 -->
<g id="Node000004" class="node">
<title>Node4</title>
<g id="a_Node000004"><a xlink:href="classcbrc_1_1FLEArray.html#ad71311380d762114c9e0f3b0dda38b7c" target="_top" xlink:title=" ">
<polygon fill="white" stroke="#666666" points="641,-41.5 530,-41.5 530,-22.5 641,-22.5 641,-41.5"/>
<text text-anchor="middle" x="585.5" y="-29.5" font-family="Helvetica,sans-Serif" font-size="10.00">cbrc::FLEArray::size</text>
</a>
</g>
</g>
<!-- Node1&#45;&gt;Node4 -->
<g id="edge6_Node000001_Node000004" class="edge">
<title>Node1&#45;&gt;Node4</title>
<g id="a_edge6_Node000001_Node000004"><a xlink:title=" ">
<path fill="none" stroke="#63b8ff" d="M178.06,-13.4C190.14,-13.24 202.37,-13.09 214,-13 268.22,-12.56 281.82,-10.93 336,-13 398.5,-15.39 469.64,-21.13 519.74,-25.69"/>
<polygon fill="#63b8ff" stroke="#63b8ff" points="519.51,-29.18 529.79,-26.61 520.15,-22.21 519.51,-29.18"/>
</a>
</g>
</g>
<!-- Node3 -->
<g id="Node000003" class="node">
<title>Node3</title>
<g id="a_Node000003"><a xlink:href="classcbrc_1_1GlobalAffineDist.html#a1af85861050e6d0162c5e7f7df1a3c86" target="_top" xlink:title=" ">
<polygon fill="white" stroke="#666666" points="494,-90 372,-90 372,-60 494,-60 494,-90"/>
<text text-anchor="start" x="380" y="-78" font-family="Helvetica,sans-Serif" font-size="10.00">cbrc::GlobalAffineDist</text>
<text text-anchor="middle" x="433" y="-67" font-family="Helvetica,sans-Serif" font-size="10.00">::dist</text>
</a>
</g>
</g>
<!-- Node2&#45;&gt;Node3 -->
<g id="edge2_Node000002_Node000003" class="edge">
<title>Node2&#45;&gt;Node3</title>
<g id="a_edge2_Node000002_Node000003"><a xlink:title=" ">
<path fill="none" stroke="#63b8ff" d="M336.31,-51.69C344.69,-53.73 353.36,-55.84 361.9,-57.93"/>
<polygon fill="#63b8ff" stroke="#63b8ff" points="361.3,-61.38 371.85,-60.35 362.96,-54.58 361.3,-61.38"/>
</a>
</g>
</g>
<!-- Node2&#45;&gt;Node4 -->
<g id="edge5_Node000002_Node000004" class="edge">
<title>Node2&#45;&gt;Node4</title>
<g id="a_edge5_Node000002_Node000004"><a xlink:title=" ">
<path fill="none" stroke="#63b8ff" d="M336.21,-36.02C389.01,-35.17 465.58,-33.93 519.7,-33.05"/>
<polygon fill="#63b8ff" stroke="#63b8ff" points="519.93,-36.55 529.87,-32.89 519.81,-29.55 519.93,-36.55"/>
</a>
</g>
</g>
<!-- Node3&#45;&gt;Node3 -->
<g id="edge3_Node000003_Node000003" class="edge">
<title>Node3&#45;&gt;Node3</title>
<g id="a_edge3_Node000003_Node000003"><a xlink:title=" ">
<path fill="none" stroke="#63b8ff" d="M406.28,-90.28C400.34,-99.41 409.25,-108 433,-108 447.1,-108 455.97,-104.97 459.61,-100.6"/>
<polygon fill="#63b8ff" stroke="#63b8ff" points="463.11,-100.31 459.72,-90.28 456.11,-100.24 463.11,-100.31"/>
</a>
</g>
</g>
<!-- Node3&#45;&gt;Node4 -->
<g id="edge4_Node000003_Node000004" class="edge">
<title>Node3&#45;&gt;Node4</title>
<g id="a_edge4_Node000003_Node000004"><a xlink:title=" ">
<path fill="none" stroke="#63b8ff" d="M486.64,-59.96C504.49,-54.86 524.22,-49.22 541.26,-44.35"/>
<polygon fill="#63b8ff" stroke="#63b8ff" points="542.29,-47.7 550.95,-41.59 540.37,-40.97 542.29,-47.7"/>
</a>
</g>
</g>
</g>
</svg>
