<?xml version="1.0" encoding="UTF-8" standalone="no"?>
<!DOCTYPE svg PUBLIC "-//W3C//DTD SVG 1.1//EN"
 "http://www.w3.org/Graphics/SVG/1.1/DTD/svg11.dtd">
<!-- Generated by graphviz version 2.43.0 (0)
 -->
<!-- Title: cbrc::ResidueIndexedSequence::ResidueIndexedSequence Pages: 1 -->
<svg width="675pt" height="82pt"
 viewBox="0.00 0.00 675.00 82.00" xmlns="http://www.w3.org/2000/svg" xmlns:xlink="http://www.w3.org/1999/xlink">
<g id="graph0" class="graph" transform="scale(1 1) rotate(0) translate(4 78)">
<title>cbrc::ResidueIndexedSequence::ResidueIndexedSequence</title>
<!-- Node1 -->
<g id="Node000001" class="node">
<title>Node1</title>
<g id="a_Node000001"><a xlink:title=" ">
<polygon fill="#999999" stroke="#666666" points="167,-42.5 0,-42.5 0,-12.5 167,-12.5 167,-42.5"/>
<text text-anchor="start" x="8" y="-30.5" font-family="Helvetica,sans-Serif" font-size="10.00">cbrc::ResidueIndexedSequence</text>
<text text-anchor="middle" x="83.5" y="-19.5" font-family="Helvetica,sans-Serif" font-size="10.00">::ResidueIndexedSequence</text>
</a>
</g>
</g>
<!-- Node2 -->
<g id="Node000002" class="node">
<title>Node2</title>
<g id="a_Node000002"><a xlink:href="classcbrc_1_1ResidueIndexMap.html#af3f7374151260201865c49ef19f6b985" target="_top" xlink:title=" ">
<polygon fill="white" stroke="#666666" points="333,-42.5 203,-42.5 203,-12.5 333,-12.5 333,-42.5"/>
<text text-anchor="start" x="211" y="-30.5" font-family="Helvetica,sans-Serif" font-size="10.00">cbrc::ResidueIndexMap</text>
<text text-anchor="middle" x="268" y="-19.5" font-family="Helvetica,sans-Serif" font-size="10.00">::assignResidueIndices</text>
</a>
</g>
</g>
<!-- Node1&#45;&gt;Node2 -->
<g id="edge1_Node000001_Node000002" class="edge">
<title>Node1&#45;&gt;Node2</title>
<g id="a_edge1_Node000001_Node000002"><a xlink:title=" ">
<path fill="none" stroke="#63b8ff" d="M167.21,-27.5C175.72,-27.5 184.34,-27.5 192.75,-27.5"/>
<polygon fill="#63b8ff" stroke="#63b8ff" points="192.9,-31 202.9,-27.5 192.9,-24 192.9,-31"/>
</a>
</g>
</g>
<!-- Node3 -->
<g id="Node000003" class="node">
<title>Node3</title>
<g id="a_Node000003"><a xlink:href="classcbrc_1_1FLEArray.html#a5f10f892188c41f2821ef33ee9bcc743" target="_top" xlink:title=" ">
<polygon fill="white" stroke="#666666" points="496,-37 369,-37 369,-18 496,-18 496,-37"/>
<text text-anchor="middle" x="432.5" y="-25" font-family="Helvetica,sans-Serif" font-size="10.00">cbrc::FLEArray::setSize</text>
</a>
</g>
</g>
<!-- Node2&#45;&gt;Node3 -->
<g id="edge2_Node000002_Node000003" class="edge">
<title>Node2&#45;&gt;Node3</title>
<g id="a_edge2_Node000002_Node000003"><a xlink:title=" ">
<path fill="none" stroke="#63b8ff" d="M333.22,-27.5C341.55,-27.5 350.12,-27.5 358.58,-27.5"/>
<polygon fill="#63b8ff" stroke="#63b8ff" points="358.8,-31 368.8,-27.5 358.8,-24 358.8,-31"/>
</a>
</g>
</g>
<!-- Node4 -->
<g id="Node000004" class="node">
<title>Node4</title>
<g id="a_Node000004"><a xlink:href="classcbrc_1_1FLEArray.html#a5368c7c0434bd5c119d2cbb39f4b399e" target="_top" xlink:title=" ">
<polygon fill="white" stroke="#666666" points="667,-56 532,-56 532,-37 667,-37 667,-56"/>
<text text-anchor="middle" x="599.5" y="-44" font-family="Helvetica,sans-Serif" font-size="10.00">cbrc::FLEArray::FLEArray</text>
</a>
</g>
</g>
<!-- Node3&#45;&gt;Node4 -->
<g id="edge3_Node000003_Node000004" class="edge">
<title>Node3&#45;&gt;Node4</title>
<g id="a_edge3_Node000003_Node000004"><a xlink:title=" ">
<path fill="none" stroke="#63b8ff" d="M496.35,-34.74C504.73,-35.7 513.39,-36.7 521.97,-37.69"/>
<polygon fill="#63b8ff" stroke="#63b8ff" points="521.65,-41.17 531.98,-38.84 522.45,-34.22 521.65,-41.17"/>
</a>
</g>
</g>
<!-- Node5 -->
<g id="Node000005" class="node">
<title>Node5</title>
<g id="a_Node000005"><a xlink:href="classcbrc_1_1FLEArray.html#ad71311380d762114c9e0f3b0dda38b7c" target="_top" xlink:title=" ">
<polygon fill="white" stroke="#666666" points="655,-19 544,-19 544,0 655,0 655,-19"/>
<text text-anchor="middle" x="599.5" y="-7" font-family="Helvetica,sans-Serif" font-size="10.00">cbrc::FLEArray::size</text>
</a>
</g>
</g>
<!-- Node3&#45;&gt;Node5 -->
<g id="edge5_Node000003_Node000005" class="edge">
<title>Node3&#45;&gt;Node5</title>
<g id="a_edge5_Node000003_Node000005"><a xlink:title=" ">
<path fill="none" stroke="#63b8ff" d="M496.35,-20.64C508.59,-19.31 521.44,-17.91 533.74,-16.57"/>
<polygon fill="#63b8ff" stroke="#63b8ff" points="534.35,-20.02 543.91,-15.46 533.59,-13.06 534.35,-20.02"/>
</a>
</g>
</g>
<!-- Node4&#45;&gt;Node4 -->
<g id="edge4_Node000004_Node000004" class="edge">
<title>Node4&#45;&gt;Node4</title>
<g id="a_edge4_Node000004_Node000004"><a xlink:title=" ">
<path fill="none" stroke="#63b8ff" d="M573.91,-56.08C561.47,-64.73 570,-74 599.5,-74 618.86,-74 629.19,-70.01 630.49,-64.82"/>
<polygon fill="#63b8ff" stroke="#63b8ff" points="633.32,-62.75 625.09,-56.08 627.37,-66.43 633.32,-62.75"/>
</a>
</g>
</g>
</g>
</svg>
