<?xml version="1.0" encoding="UTF-8" standalone="no"?>
<!DOCTYPE svg PUBLIC "-//W3C//DTD SVG 1.1//EN"
 "http://www.w3.org/Graphics/SVG/1.1/DTD/svg11.dtd">
<!-- Generated by graphviz version 2.43.0 (0)
 -->
<!-- Title: cbrc::FLArray::end Pages: 1 -->
<svg width="470pt" height="191pt"
 viewBox="0.00 0.00 470.00 190.50" xmlns="http://www.w3.org/2000/svg" xmlns:xlink="http://www.w3.org/1999/xlink">
<g id="graph0" class="graph" transform="scale(1 1) rotate(0) translate(4 186.5)">
<title>cbrc::FLArray::end</title>
<!-- Node1 -->
<g id="Node000001" class="node">
<title>Node1</title>
<g id="a_Node000001"><a xlink:title=" ">
<polygon fill="#999999" stroke="#666666" points="462,-89.5 358,-89.5 358,-70.5 462,-70.5 462,-89.5"/>
<text text-anchor="middle" x="410" y="-77.5" font-family="Helvetica,sans-Serif" font-size="10.00">cbrc::FLArray::end</text>
</a>
</g>
</g>
<!-- Node2 -->
<g id="Node000002" class="node">
<title>Node2</title>
<g id="a_Node000002"><a xlink:href="classcbrc_1_1FLArray.html#a818d65bad9bda6eae641ec21c3a46fe6" target="_top" xlink:title=" ">
<polygon fill="white" stroke="#666666" points="317,-126.5 199,-126.5 199,-107.5 317,-107.5 317,-126.5"/>
<text text-anchor="middle" x="258" y="-114.5" font-family="Helvetica,sans-Serif" font-size="10.00">cbrc::FLArray::assign</text>
</a>
</g>
</g>
<!-- Node1&#45;&gt;Node2 -->
<g id="edge1_Node000001_Node000002" class="edge">
<title>Node1&#45;&gt;Node2</title>
<g id="a_edge1_Node000001_Node000002"><a xlink:title=" ">
<path fill="none" stroke="#63b8ff" d="M360.66,-91.93C340.31,-96.94 316.95,-102.71 297.76,-107.44"/>
<polygon fill="#63b8ff" stroke="#63b8ff" points="361.5,-95.32 370.37,-89.53 359.82,-88.53 361.5,-95.32"/>
</a>
</g>
</g>
<!-- Node7 -->
<g id="Node000007" class="node">
<title>Node7</title>
<g id="a_Node000007"><a xlink:href="classcbrc_1_1FLArray.html#a5bef212fd56d0671f1aaa5cf4610ee20" target="_top" xlink:title=" ">
<polygon fill="white" stroke="#666666" points="317,-89.5 199,-89.5 199,-70.5 317,-70.5 317,-89.5"/>
<text text-anchor="middle" x="258" y="-77.5" font-family="Helvetica,sans-Serif" font-size="10.00">cbrc::FLArray::assign</text>
</a>
</g>
</g>
<!-- Node1&#45;&gt;Node7 -->
<g id="edge6_Node000001_Node000007" class="edge">
<title>Node1&#45;&gt;Node7</title>
<g id="a_edge6_Node000001_Node000007"><a xlink:title=" ">
<path fill="none" stroke="#63b8ff" d="M347.51,-80C337.48,-80 327.13,-80 317.19,-80"/>
<polygon fill="#63b8ff" stroke="#63b8ff" points="347.8,-83.5 357.8,-80 347.8,-76.5 347.8,-83.5"/>
</a>
</g>
</g>
<!-- Node8 -->
<g id="Node000008" class="node">
<title>Node8</title>
<g id="a_Node000008"><a xlink:href="classcbrc_1_1FLArray.html#af6a323040a777c399450a69c5626265e" target="_top" xlink:title=" ">
<polygon fill="white" stroke="#666666" points="322,-52 194,-52 194,0 322,0 322,-52"/>
<text text-anchor="start" x="202" y="-40" font-family="Helvetica,sans-Serif" font-size="10.00">cbrc::FLArray&lt; cbrc</text>
<text text-anchor="start" x="202" y="-29" font-family="Helvetica,sans-Serif" font-size="10.00">::FLSorted&lt; T1 &gt; &gt;::</text>
<text text-anchor="start" x="202" y="-18" font-family="Helvetica,sans-Serif" font-size="10.00">vector&lt; cbrc::FLSorted</text>
<text text-anchor="middle" x="258" y="-7" font-family="Helvetica,sans-Serif" font-size="10.00">&lt; T1 &gt; &gt;</text>
</a>
</g>
</g>
<!-- Node1&#45;&gt;Node8 -->
<g id="edge7_Node000001_Node000008" class="edge">
<title>Node1&#45;&gt;Node8</title>
<g id="a_edge7_Node000001_Node000008"><a xlink:title=" ">
<path fill="none" stroke="#63b8ff" d="M373,-67.04C357.79,-61.56 339.61,-55.02 322.29,-48.78"/>
<polygon fill="#63b8ff" stroke="#63b8ff" points="371.93,-70.38 382.53,-70.47 374.3,-63.79 371.93,-70.38"/>
</a>
</g>
</g>
<!-- Node3 -->
<g id="Node000003" class="node">
<title>Node3</title>
<g id="a_Node000003"><a xlink:href="classcbrc_1_1FLArray.html#ab32639991e856c51b10618ca85dfc90e" target="_top" xlink:title=" ">
<polygon fill="white" stroke="#666666" points="141.5,-182.5 16.5,-182.5 16.5,-163.5 141.5,-163.5 141.5,-182.5"/>
<text text-anchor="middle" x="79" y="-170.5" font-family="Helvetica,sans-Serif" font-size="10.00">cbrc::FLArray::FLArray</text>
</a>
</g>
</g>
<!-- Node2&#45;&gt;Node3 -->
<g id="edge2_Node000002_Node000003" class="edge">
<title>Node2&#45;&gt;Node3</title>
<g id="a_edge2_Node000002_Node000003"><a xlink:title=" ">
<path fill="none" stroke="#63b8ff" d="M225.42,-130.42C206.17,-138.27 180.94,-147.99 158,-155 147.77,-158.13 136.63,-161 126.07,-163.49"/>
<polygon fill="#63b8ff" stroke="#63b8ff" points="226.99,-133.56 234.9,-126.51 224.32,-127.09 226.99,-133.56"/>
</a>
</g>
</g>
<!-- Node4 -->
<g id="Node000004" class="node">
<title>Node4</title>
<g id="a_Node000004"><a xlink:href="classcbrc_1_1FLArray.html#a4490652ea80d8fa9d5a733392154fbe5" target="_top" xlink:title=" ">
<polygon fill="white" stroke="#666666" points="147,-145.5 11,-145.5 11,-126.5 147,-126.5 147,-145.5"/>
<text text-anchor="middle" x="79" y="-133.5" font-family="Helvetica,sans-Serif" font-size="10.00">cbrc::FLArray::operator=</text>
</a>
</g>
</g>
<!-- Node2&#45;&gt;Node4 -->
<g id="edge3_Node000002_Node000004" class="edge">
<title>Node2&#45;&gt;Node4</title>
<g id="a_edge3_Node000002_Node000004"><a xlink:title=" ">
<path fill="none" stroke="#63b8ff" d="M188.38,-124.37C174.88,-125.82 160.73,-127.33 147.28,-128.78"/>
<polygon fill="#63b8ff" stroke="#63b8ff" points="188.98,-127.82 198.55,-123.27 188.24,-120.86 188.98,-127.82"/>
</a>
</g>
</g>
<!-- Node5 -->
<g id="Node000005" class="node">
<title>Node5</title>
<g id="a_Node000005"><a xlink:href="classcbrc_1_1FLNumArray.html#a5bb0ce0c387a8067b8e6cb0febf59ef0" target="_top" xlink:title=" ">
<polygon fill="white" stroke="#666666" points="158,-108.5 0,-108.5 0,-89.5 158,-89.5 158,-108.5"/>
<text text-anchor="middle" x="79" y="-96.5" font-family="Helvetica,sans-Serif" font-size="10.00">cbrc::FLNumArray::operator=</text>
</a>
</g>
</g>
<!-- Node2&#45;&gt;Node5 -->
<g id="edge4_Node000002_Node000005" class="edge">
<title>Node2&#45;&gt;Node5</title>
<g id="a_edge4_Node000002_Node000005"><a xlink:title=" ">
<path fill="none" stroke="#63b8ff" d="M188.41,-110.03C178.54,-109.02 168.32,-107.98 158.28,-106.96"/>
<polygon fill="#63b8ff" stroke="#63b8ff" points="188.25,-113.53 198.55,-111.06 188.96,-106.56 188.25,-113.53"/>
</a>
</g>
</g>
<!-- Node6 -->
<g id="Node000006" class="node">
<title>Node6</title>
<g id="a_Node000006"><a xlink:href="classcbrc_1_1FLArray.html#a792ef8185d5cf7042007103f2a75e46a" target="_top" xlink:title=" ">
<polygon fill="white" stroke="#666666" points="147,-71.5 11,-71.5 11,-52.5 147,-52.5 147,-71.5"/>
<text text-anchor="middle" x="79" y="-59.5" font-family="Helvetica,sans-Serif" font-size="10.00">cbrc::FLArray::operator=</text>
</a>
</g>
</g>
<!-- Node2&#45;&gt;Node6 -->
<g id="edge5_Node000002_Node000006" class="edge">
<title>Node2&#45;&gt;Node6</title>
<g id="a_edge5_Node000002_Node000006"><a xlink:title=" ">
<path fill="none" stroke="#63b8ff" d="M209.07,-104.44C203.93,-102.76 198.82,-100.94 194,-99 177.21,-92.26 174.96,-86.31 158,-80 149.14,-76.7 139.49,-73.89 130.08,-71.53"/>
<polygon fill="#63b8ff" stroke="#63b8ff" points="208.34,-107.88 218.93,-107.5 210.41,-101.19 208.34,-107.88"/>
</a>
</g>
</g>
</g>
</svg>
