<?xml version="1.0" encoding="UTF-8" standalone="no"?>
<!DOCTYPE svg PUBLIC "-//W3C//DTD SVG 1.1//EN"
 "http://www.w3.org/Graphics/SVG/1.1/DTD/svg11.dtd">
<!-- Generated by graphviz version 2.43.0 (0)
 -->
<!-- Title: cbrc::FLEMatrix::size Pages: 1 -->
<svg width="502pt" height="162pt"
 viewBox="0.00 0.00 502.00 161.50" xmlns="http://www.w3.org/2000/svg" xmlns:xlink="http://www.w3.org/1999/xlink">
<g id="graph0" class="graph" transform="scale(1 1) rotate(0) translate(4 157.5)">
<title>cbrc::FLEMatrix::size</title>
<!-- Node1 -->
<g id="Node000001" class="node">
<title>Node1</title>
<g id="a_Node000001"><a xlink:title=" ">
<polygon fill="#999999" stroke="#666666" points="494,-93.5 377,-93.5 377,-74.5 494,-74.5 494,-93.5"/>
<text text-anchor="middle" x="435.5" y="-81.5" font-family="Helvetica,sans-Serif" font-size="10.00">cbrc::FLEMatrix::size</text>
</a>
</g>
</g>
<!-- Node2 -->
<g id="Node000002" class="node">
<title>Node2</title>
<g id="a_Node000002"><a xlink:href="classcbrc_1_1FLEMatrix.html#a54714f87443bd2716359e5be5bab3c0d" target="_top" xlink:title=" ">
<polygon fill="white" stroke="#666666" points="335.5,-153.5 188.5,-153.5 188.5,-134.5 335.5,-134.5 335.5,-153.5"/>
<text text-anchor="middle" x="262" y="-141.5" font-family="Helvetica,sans-Serif" font-size="10.00">cbrc::FLEMatrix::operator=</text>
</a>
</g>
</g>
<!-- Node1&#45;&gt;Node2 -->
<g id="edge1_Node000001_Node000002" class="edge">
<title>Node1&#45;&gt;Node2</title>
<g id="a_edge1_Node000001_Node000002"><a xlink:title=" ">
<path fill="none" stroke="#63b8ff" d="M401.47,-97.36C383.66,-104.4 361.25,-113 341,-120 326.27,-125.09 309.8,-130.24 295.8,-134.46"/>
<polygon fill="#63b8ff" stroke="#63b8ff" points="402.84,-100.58 410.84,-93.63 400.25,-94.07 402.84,-100.58"/>
</a>
</g>
</g>
<!-- Node3 -->
<g id="Node000003" class="node">
<title>Node3</title>
<g id="a_Node000003"><a xlink:href="classcbrc_1_1FLEMatrix.html#a9eb89d253f6cc1333a998293d33a6382" target="_top" xlink:title=" ">
<polygon fill="white" stroke="#666666" points="147,-88.5 0,-88.5 0,-69.5 147,-69.5 147,-88.5"/>
<text text-anchor="middle" x="73.5" y="-76.5" font-family="Helvetica,sans-Serif" font-size="10.00">cbrc::FLEMatrix::operator=</text>
</a>
</g>
</g>
<!-- Node1&#45;&gt;Node3 -->
<g id="edge2_Node000001_Node000003" class="edge">
<title>Node1&#45;&gt;Node3</title>
<g id="a_edge2_Node000001_Node000003"><a xlink:title=" ">
<path fill="none" stroke="#63b8ff" d="M366.6,-86.43C357.99,-86.67 349.29,-86.87 341,-87 270.79,-88.13 253.17,-89.58 183,-87 171.39,-86.57 159.1,-85.89 147.12,-85.1"/>
<polygon fill="#63b8ff" stroke="#63b8ff" points="366.75,-89.93 376.65,-86.15 366.55,-82.93 366.75,-89.93"/>
</a>
</g>
</g>
<!-- Node4 -->
<g id="Node000004" class="node">
<title>Node4</title>
<g id="a_Node000004"><a xlink:href="classcbrc_1_1FLEMatrix.html#a8ee8deac582cd6926176ce37defb7afb" target="_top" xlink:title=" ">
<polygon fill="white" stroke="#666666" points="341,-78 183,-78 183,-48 341,-48 341,-78"/>
<text text-anchor="start" x="191" y="-66" font-family="Helvetica,sans-Serif" font-size="10.00">cbrc::FLEMatrix::printColumn</text>
<text text-anchor="middle" x="262" y="-55" font-family="Helvetica,sans-Serif" font-size="10.00">Major</text>
</a>
</g>
</g>
<!-- Node1&#45;&gt;Node4 -->
<g id="edge3_Node000001_Node000004" class="edge">
<title>Node1&#45;&gt;Node4</title>
<g id="a_edge3_Node000001_Node000004"><a xlink:title=" ">
<path fill="none" stroke="#63b8ff" d="M366.79,-75.71C358.37,-74.68 349.71,-73.62 341.15,-72.57"/>
<polygon fill="#63b8ff" stroke="#63b8ff" points="366.56,-79.21 376.92,-76.95 367.42,-72.26 366.56,-79.21"/>
</a>
</g>
</g>
<!-- Node5 -->
<g id="Node000005" class="node">
<title>Node5</title>
<g id="a_Node000005"><a xlink:href="classcbrc_1_1FLEMatrix.html#afb878e98664cc3ce0e91e21029967d5d" target="_top" xlink:title=" ">
<polygon fill="white" stroke="#666666" points="329,-30 195,-30 195,0 329,0 329,-30"/>
<text text-anchor="start" x="203" y="-18" font-family="Helvetica,sans-Serif" font-size="10.00">cbrc::FLEMatrix::validAs</text>
<text text-anchor="middle" x="262" y="-7" font-family="Helvetica,sans-Serif" font-size="10.00">Matrix</text>
</a>
</g>
</g>
<!-- Node1&#45;&gt;Node5 -->
<g id="edge4_Node000001_Node000005" class="edge">
<title>Node1&#45;&gt;Node5</title>
<g id="a_edge4_Node000001_Node000005"><a xlink:title=" ">
<path fill="none" stroke="#63b8ff" d="M407.61,-69.73C389.18,-60.28 364,-48.01 341,-39 332.95,-35.85 324.31,-32.83 315.82,-30.07"/>
<polygon fill="#63b8ff" stroke="#63b8ff" points="406.1,-72.89 416.58,-74.38 409.32,-66.67 406.1,-72.89"/>
</a>
</g>
</g>
<!-- Node5&#45;&gt;Node3 -->
<g id="edge6_Node000005_Node000003" class="edge">
<title>Node5&#45;&gt;Node3</title>
<g id="a_edge6_Node000005_Node000003"><a xlink:title=" ">
<path fill="none" stroke="#63b8ff" d="M200.98,-33.1C194.89,-35.05 188.81,-37.04 183,-39 154.09,-48.77 121.26,-61.04 99.36,-69.4"/>
<polygon fill="#63b8ff" stroke="#63b8ff" points="202.04,-36.44 210.52,-30.09 199.93,-29.77 202.04,-36.44"/>
</a>
</g>
</g>
<!-- Node6 -->
<g id="Node000006" class="node">
<title>Node6</title>
<g id="a_Node000006"><a xlink:href="classcbrc_1_1FLEMatrix.html#a0b533bda255f4fe4152badf49b0f8f03" target="_top" xlink:title=" ">
<polygon fill="white" stroke="#666666" points="146.5,-24.5 0.5,-24.5 0.5,-5.5 146.5,-5.5 146.5,-24.5"/>
<text text-anchor="middle" x="73.5" y="-12.5" font-family="Helvetica,sans-Serif" font-size="10.00">cbrc::FLEMatrix::FLEMatrix</text>
</a>
</g>
</g>
<!-- Node5&#45;&gt;Node6 -->
<g id="edge5_Node000005_Node000006" class="edge">
<title>Node5&#45;&gt;Node6</title>
<g id="a_edge5_Node000005_Node000006"><a xlink:title=" ">
<path fill="none" stroke="#63b8ff" d="M184.97,-15C172.35,-15 159.29,-15 146.77,-15"/>
<polygon fill="#63b8ff" stroke="#63b8ff" points="184.98,-18.5 194.98,-15 184.98,-11.5 184.98,-18.5"/>
</a>
</g>
</g>
</g>
</svg>
