<?xml version="1.0" encoding="UTF-8" standalone="no"?>
<!DOCTYPE svg PUBLIC "-//W3C//DTD SVG 1.1//EN"
 "http://www.w3.org/Graphics/SVG/1.1/DTD/svg11.dtd">
<!-- Generated by graphviz version 2.43.0 (0)
 -->
<!-- Title: cbrc::SymmetricBitMatrix::set Pages: 1 -->
<!--zoomable 182 -->

<svg id="main" version="1.1" xmlns="http://www.w3.org/2000/svg" xmlns:xlink="http://www.w3.org/1999/xlink" xml:space="preserve" onload="init(evt)">
<style type="text/css"><![CDATA[
.node, .edge {opacity: 0.7;}
.node.selected, .edge.selected {opacity: 1;}
.edge:hover path { stroke: red; }
.edge:hover polygon { stroke: red; fill: red; }
]]></style>

<defs>
  <circle id="rim" cx="0" cy="0" r="7"/>
  <circle id="rim2" cx="0" cy="0" r="3.5"/>
  <g id="zoomPlus">
    <use xlink:href="#rim" fill="#404040"><set attributeName="fill" to="#808080" begin="zoomplus.mouseover" end="zoomplus.mouseout"/></use>
    <path d="M-4,0h8M0,-4v8" fill="none" stroke="white" stroke-width="1.5" pointer-events="none"/>
  </g>
  <g id="zoomMin">
    <use xlink:href="#rim" fill="#404040"><set attributeName="fill" to="#808080" begin="zoomminus.mouseover" end="zoomminus.mouseout"/></use>
    <path d="M-4,0h8" fill="none" stroke="white" stroke-width="1.5" pointer-events="none"/>
  </g>
  <g id="arrowUp" transform="translate(30 24)">
    <use xlink:href="#rim"/>
    <path pointer-events="none" fill="none" stroke="white" stroke-width="1.5" d="M0,-3.0v7 M-2.5,-0.5L0,-3.0L2.5,-0.5"/>
  </g>
  <g id="arrowRight" transform="rotate(90) translate(36 -43)">
    <use xlink:href="#rim"/>
    <path pointer-events="none" fill="none" stroke="white" stroke-width="1.5" d="M0,-3.0v7 M-2.5,-0.5L0,-3.0L2.5,-0.5"/>
  </g>
  <g id="arrowDown" transform="rotate(180) translate(-30 -48)">
    <use xlink:href="#rim"/>
    <path pointer-events="none" fill="none" stroke="white" stroke-width="1.5" d="M0,-3.0v7 M-2.5,-0.5L0,-3.0L2.5,-0.5"/>
  </g>
  <g id="arrowLeft" transform="rotate(270) translate(-36 17)">
    <use xlink:href="#rim"/>
    <path pointer-events="none" fill="none" stroke="white" stroke-width="1.5" d="M0,-3.0v7 M-2.5,-0.5L0,-3.0L2.5,-0.5"/>
  </g>
  <g id="resetDef">
    <use xlink:href="#rim2" fill="#404040"><set attributeName="fill" to="#808080" begin="reset.mouseover" end="reset.mouseout"/></use>
  </g>
</defs>
<script type="application/ecmascript">
var viewWidth = 524;
var viewHeight = 182;
var sectionId = 'dynsection-12';
</script>
<script type="application/ecmascript" xlink:href="svg.min.js"/>
<svg id="graph" class="graph">
<g id="viewport">
<title>cbrc::SymmetricBitMatrix::set</title>
<!-- Node1 -->
<g id="Node000001" class="node">
<title>Node1</title>
<g id="a_Node000001"><a xlink:title=" ">
<polygon fill="#999999" stroke="#666666" points="162,-96.5 0,-96.5 0,-77.5 162,-77.5 162,-96.5"/>
<text text-anchor="middle" x="81" y="-84.5" font-family="Helvetica,sans-Serif" font-size="10.00">cbrc::SymmetricBitMatrix::set</text>
</a>
</g>
</g>
<!-- Node2 -->
<g id="Node000002" class="node">
<title>Node2</title>
<g id="a_Node000002"><a xlink:href="classcbrc_1_1SymmetricBitMatrix.html#a2b40739e23cf40967d7a9192ba7096b4" target="_top" xlink:title=" ">
<polygon fill="white" stroke="#666666" points="339,-174 198,-174 198,-144 339,-144 339,-174"/>
<text text-anchor="start" x="206" y="-162" font-family="Helvetica,sans-Serif" font-size="10.00">cbrc::SymmetricBitMatrix</text>
<text text-anchor="middle" x="268.5" y="-151" font-family="Helvetica,sans-Serif" font-size="10.00">::clearFast</text>
</a>
</g>
</g>
<!-- Node1&#45;&gt;Node2 -->
<g id="edge1_Node000001_Node000002" class="edge">
<title>Node1&#45;&gt;Node2</title>
<g id="a_edge1_Node000001_Node000002"><a xlink:title=" ">
<path fill="none" stroke="#63b8ff" d="M104.08,-96.6C127.3,-106.59 164.99,-122.48 198,-135 202.8,-136.82 207.81,-138.66 212.84,-140.47"/>
<polygon fill="#63b8ff" stroke="#63b8ff" points="211.9,-143.85 222.49,-143.9 214.24,-137.25 211.9,-143.85"/>
</a>
</g>
</g>
<!-- Node4 -->
<g id="Node000004" class="node">
<title>Node4</title>
<g id="a_Node000004"><a xlink:href="classcbrc_1_1SymmetricBitMatrix.html#aff3aa8dc9f39fcdb4a7c76dafebfd0f9" target="_top" xlink:title=" ">
<polygon fill="white" stroke="#666666" points="339,-126 198,-126 198,-96 339,-96 339,-126"/>
<text text-anchor="start" x="206" y="-114" font-family="Helvetica,sans-Serif" font-size="10.00">cbrc::SymmetricBitMatrix</text>
<text text-anchor="middle" x="268.5" y="-103" font-family="Helvetica,sans-Serif" font-size="10.00">::setFast</text>
</a>
</g>
</g>
<!-- Node1&#45;&gt;Node4 -->
<g id="edge3_Node000001_Node000004" class="edge">
<title>Node1&#45;&gt;Node4</title>
<g id="a_edge3_Node000001_Node000004"><a xlink:title=" ">
<path fill="none" stroke="#63b8ff" d="M155.58,-96.52C166.16,-97.89 177.09,-99.3 187.78,-100.69"/>
<polygon fill="#63b8ff" stroke="#63b8ff" points="187.57,-104.19 197.93,-102 188.47,-97.25 187.57,-104.19"/>
</a>
</g>
</g>
<!-- Node5 -->
<g id="Node000005" class="node">
<title>Node5</title>
<g id="a_Node000005"><a xlink:href="classcbrc_1_1SymmetricBitMatrix.html#a06d30e78ab7d75a4d2ddc7111cbb05d4" target="_top" xlink:title=" ">
<polygon fill="white" stroke="#666666" points="339,-78 198,-78 198,-48 339,-48 339,-78"/>
<text text-anchor="start" x="206" y="-66" font-family="Helvetica,sans-Serif" font-size="10.00">cbrc::SymmetricBitMatrix</text>
<text text-anchor="middle" x="268.5" y="-55" font-family="Helvetica,sans-Serif" font-size="10.00">::swapIfNecessary</text>
</a>
</g>
</g>
<!-- Node1&#45;&gt;Node5 -->
<g id="edge5_Node000001_Node000005" class="edge">
<title>Node1&#45;&gt;Node5</title>
<g id="a_edge5_Node000001_Node000005"><a xlink:title=" ">
<path fill="none" stroke="#63b8ff" d="M155.58,-77.48C166.16,-76.11 177.09,-74.7 187.78,-73.31"/>
<polygon fill="#63b8ff" stroke="#63b8ff" points="188.47,-76.75 197.93,-72 187.57,-69.81 188.47,-76.75"/>
</a>
</g>
</g>
<!-- Node6 -->
<g id="Node000006" class="node">
<title>Node6</title>
<g id="a_Node000006"><a xlink:href="classcbrc_1_1SymmetricBitMatrix.html#a73f92543c9b40015ad4c1a0380942ed0" target="_top" xlink:title=" ">
<polygon fill="white" stroke="#666666" points="339,-30 198,-30 198,0 339,0 339,-30"/>
<text text-anchor="start" x="206" y="-18" font-family="Helvetica,sans-Serif" font-size="10.00">cbrc::SymmetricBitMatrix</text>
<text text-anchor="middle" x="268.5" y="-7" font-family="Helvetica,sans-Serif" font-size="10.00">::validIndex</text>
</a>
</g>
</g>
<!-- Node1&#45;&gt;Node6 -->
<g id="edge6_Node000001_Node000006" class="edge">
<title>Node1&#45;&gt;Node6</title>
<g id="a_edge6_Node000001_Node000006"><a xlink:title=" ">
<path fill="none" stroke="#63b8ff" d="M104.08,-77.4C127.3,-67.41 164.99,-51.52 198,-39 202.8,-37.18 207.81,-35.34 212.84,-33.53"/>
<polygon fill="#63b8ff" stroke="#63b8ff" points="214.24,-36.75 222.49,-30.1 211.9,-30.15 214.24,-36.75"/>
</a>
</g>
</g>
<!-- Node3 -->
<g id="Node000003" class="node">
<title>Node3</title>
<g id="a_Node000003"><a xlink:href="classcbrc_1_1SymmetricBitMatrix.html#a8f761e7892edefc46e716ce805b586aa" target="_top" xlink:title=" ">
<polygon fill="white" stroke="#666666" points="516,-150 375,-150 375,-120 516,-120 516,-150"/>
<text text-anchor="start" x="383" y="-138" font-family="Helvetica,sans-Serif" font-size="10.00">cbrc::SymmetricBitMatrix</text>
<text text-anchor="middle" x="445.5" y="-127" font-family="Helvetica,sans-Serif" font-size="10.00">::rowStart</text>
</a>
</g>
</g>
<!-- Node2&#45;&gt;Node3 -->
<g id="edge2_Node000002_Node000003" class="edge">
<title>Node2&#45;&gt;Node3</title>
<g id="a_edge2_Node000002_Node000003"><a xlink:title=" ">
<path fill="none" stroke="#63b8ff" d="M339.17,-149.45C347.59,-148.29 356.25,-147.1 364.81,-145.93"/>
<polygon fill="#63b8ff" stroke="#63b8ff" points="365.35,-149.39 374.79,-144.56 364.4,-142.45 365.35,-149.39"/>
</a>
</g>
</g>
<!-- Node4&#45;&gt;Node3 -->
<g id="edge4_Node000004_Node000003" class="edge">
<title>Node4&#45;&gt;Node3</title>
<g id="a_edge4_Node000004_Node000003"><a xlink:title=" ">
<path fill="none" stroke="#63b8ff" d="M339.17,-120.55C347.59,-121.71 356.25,-122.9 364.81,-124.07"/>
<polygon fill="#63b8ff" stroke="#63b8ff" points="364.4,-127.55 374.79,-125.44 365.35,-120.61 364.4,-127.55"/>
</a>
</g>
</g>
<!-- Node7 -->
<g id="Node000007" class="node">
<title>Node7</title>
<g id="a_Node000007"><a xlink:href="classcbrc_1_1SymmetricBitMatrix.html#aae7e1dc6dd5421c0e42c50fcfc9ba44a" target="_top" xlink:title=" ">
<polygon fill="white" stroke="#666666" points="516,-30 375,-30 375,0 516,0 516,-30"/>
<text text-anchor="start" x="383" y="-18" font-family="Helvetica,sans-Serif" font-size="10.00">cbrc::SymmetricBitMatrix</text>
<text text-anchor="middle" x="445.5" y="-7" font-family="Helvetica,sans-Serif" font-size="10.00">::width</text>
</a>
</g>
</g>
<!-- Node6&#45;&gt;Node7 -->
<g id="edge7_Node000006_Node000007" class="edge">
<title>Node6&#45;&gt;Node7</title>
<g id="a_edge7_Node000006_Node000007"><a xlink:title=" ">
<path fill="none" stroke="#63b8ff" d="M339.17,-15C347.5,-15 356.06,-15 364.53,-15"/>
<polygon fill="#63b8ff" stroke="#63b8ff" points="364.79,-18.5 374.79,-15 364.79,-11.5 364.79,-18.5"/>
</a>
</g>
</g>
</g>
</svg>

<g id="navigator" transform="translate(0 0)" fill="#404254">
  <rect fill="#f2f5e9" fill-opacity="0.5" stroke="#606060" stroke-width=".5" x="0" y="0" width="60" height="60"/>
  <use id="zoomplus" xlink:href="#zoomPlus" x="17" y="9" onmousedown="handleZoom(evt,'in')"/>
  <use id="zoomminus" xlink:href="#zoomMin" x="42" y="9" onmousedown="handleZoom(evt,'out')"/>
  <use id="reset" xlink:href="#resetDef" x="30" y="36" onmousedown="handleReset()"/>
   <use id="arrowup" xlink:href="#arrowUp" x="0" y="0" onmousedown="handlePan(0,-1)"/>
  <use id="arrowright" xlink:href="#arrowRight" x="0" y="0" onmousedown="handlePan(1,0)"/>
  <use id="arrowdown" xlink:href="#arrowDown" x="0" y="0" onmousedown="handlePan(0,1)"/>
  <use id="arrowleft" xlink:href="#arrowLeft" x="0" y="0" onmousedown="handlePan(-1,0)"/>
</g>
<svg viewBox="0 0 15 15" width="100%" height="30px" preserveAspectRatio="xMaxYMin meet">
 <g id="arrow_out" transform="scale(0.3 0.3)">
  <a xlink:href="classcbrc_1_1SymmetricBitMatrix_aab7167b0a5535b4d63c17476ddbf81b2_cgraph_org.svg" target="_base">
   <rect id="button" ry="5" rx="5" y="6" x="6" height="38" width="38"
        fill="#f2f5e9" fill-opacity="0.5" stroke="#606060" stroke-width="1.0"/>
   <path id="arrow"
     d="M 11.500037,31.436501 C 11.940474,20.09759 22.043105,11.32322 32.158766,21.979434 L 37.068811,17.246167 C 37.068811,17.246167 37.088388,32 37.088388,32 L 22.160133,31.978069 C 22.160133,31.978069 26.997745,27.140456 26.997745,27.140456 C 18.528582,18.264221 13.291696,25.230495 11.500037,31.436501 z"
     style="fill:#404040;"/>
  </a>
 </g>
</svg>

<style type='text/css'>
<![CDATA[
[data-mouse-over-selected='false'] { opacity: 0.7; }
[data-mouse-over-selected='true']  { opacity: 1.0; }
]]>
</style>
<script type="application/ecmascript"><![CDATA[
document.addEventListener('DOMContentLoaded', (event) => {
  highlightEdges();
  highlightAdjacentNodes();
});
]]></script>
</svg>
