<?xml version="1.0" encoding="UTF-8" standalone="no"?>
<!DOCTYPE svg PUBLIC "-//W3C//DTD SVG 1.1//EN"
 "http://www.w3.org/Graphics/SVG/1.1/DTD/svg11.dtd">
<!-- Generated by graphviz version 2.43.0 (0)
 -->
<!-- Title: cbrc::RecountTagCounts::constBegin Pages: 1 -->
<svg width="496pt" height="179pt"
 viewBox="0.00 0.00 496.00 179.00" xmlns="http://www.w3.org/2000/svg" xmlns:xlink="http://www.w3.org/1999/xlink">
<g id="graph0" class="graph" transform="scale(1 1) rotate(0) translate(4 175)">
<title>cbrc::RecountTagCounts::constBegin</title>
<!-- Node1 -->
<g id="Node000001" class="node">
<title>Node1</title>
<g id="a_Node000001"><a xlink:title=" ">
<polygon fill="#999999" stroke="#666666" points="488,-100.5 355,-100.5 355,-70.5 488,-70.5 488,-100.5"/>
<text text-anchor="start" x="363" y="-88.5" font-family="Helvetica,sans-Serif" font-size="10.00">cbrc::RecountTagCounts</text>
<text text-anchor="middle" x="421.5" y="-77.5" font-family="Helvetica,sans-Serif" font-size="10.00">::constBegin</text>
</a>
</g>
</g>
<!-- Node2 -->
<g id="Node000002" class="node">
<title>Node2</title>
<g id="a_Node000002"><a xlink:href="classcbrc_1_1RecountExpectationMatchingTagCorrector.html#a1d6c86c37c56879cfce9ce356f12e5cc" target="_top" xlink:title=" ">
<polygon fill="white" stroke="#666666" points="319,-171 176,-171 176,-130 319,-130 319,-171"/>
<text text-anchor="start" x="184" y="-159" font-family="Helvetica,sans-Serif" font-size="10.00">cbrc::RecountExpectation</text>
<text text-anchor="start" x="184" y="-148" font-family="Helvetica,sans-Serif" font-size="10.00">MatchingTagCorrector::</text>
<text text-anchor="middle" x="247.5" y="-137" font-family="Helvetica,sans-Serif" font-size="10.00">computeCountCorrections</text>
</a>
</g>
</g>
<!-- Node1&#45;&gt;Node2 -->
<g id="edge1_Node000001_Node000002" class="edge">
<title>Node1&#45;&gt;Node2</title>
<g id="a_edge1_Node000001_Node000002"><a xlink:title=" ">
<path fill="none" stroke="#63b8ff" d="M371.09,-104.17C349.74,-112.24 324.7,-121.7 302.83,-129.97"/>
<polygon fill="#63b8ff" stroke="#63b8ff" points="372.49,-107.38 380.61,-100.58 370.02,-100.84 372.49,-107.38"/>
</a>
</g>
</g>
<!-- Node4 -->
<g id="Node000004" class="node">
<title>Node4</title>
<g id="a_Node000004"><a xlink:href="classcbrc_1_1RecountExpectationMatchingTagCorrector.html#a82078c238488868f5d17038d66ec4ef2" target="_top" xlink:title=" ">
<polygon fill="white" stroke="#666666" points="319,-111.5 176,-111.5 176,-59.5 319,-59.5 319,-111.5"/>
<text text-anchor="start" x="184" y="-99.5" font-family="Helvetica,sans-Serif" font-size="10.00">cbrc::RecountExpectation</text>
<text text-anchor="start" x="184" y="-88.5" font-family="Helvetica,sans-Serif" font-size="10.00">MatchingTagCorrector::</text>
<text text-anchor="start" x="184" y="-77.5" font-family="Helvetica,sans-Serif" font-size="10.00">computeCountCorrections</text>
<text text-anchor="middle" x="247.5" y="-66.5" font-family="Helvetica,sans-Serif" font-size="10.00">_by1stDerivative</text>
</a>
</g>
</g>
<!-- Node1&#45;&gt;Node4 -->
<g id="edge3_Node000001_Node000004" class="edge">
<title>Node1&#45;&gt;Node4</title>
<g id="a_edge3_Node000001_Node000004"><a xlink:title=" ">
<path fill="none" stroke="#63b8ff" d="M344.75,-85.5C336.28,-85.5 327.68,-85.5 319.28,-85.5"/>
<polygon fill="#63b8ff" stroke="#63b8ff" points="344.98,-89 354.98,-85.5 344.98,-82 344.98,-89"/>
</a>
</g>
</g>
<!-- Node5 -->
<g id="Node000005" class="node">
<title>Node5</title>
<g id="a_Node000005"><a xlink:href="classcbrc_1_1RecountExpectationMatchingTagCorrector.html#abf31d0629031b04ac0244514c4743d11" target="_top" xlink:title=" ">
<polygon fill="white" stroke="#666666" points="317.5,-41 177.5,-41 177.5,0 317.5,0 317.5,-41"/>
<text text-anchor="start" x="185.5" y="-29" font-family="Helvetica,sans-Serif" font-size="10.00">cbrc::RecountExpectation</text>
<text text-anchor="start" x="185.5" y="-18" font-family="Helvetica,sans-Serif" font-size="10.00">MatchingTagCorrector::</text>
<text text-anchor="middle" x="247.5" y="-7" font-family="Helvetica,sans-Serif" font-size="10.00">totalFoldChangeError</text>
</a>
</g>
</g>
<!-- Node1&#45;&gt;Node5 -->
<g id="edge4_Node000001_Node000005" class="edge">
<title>Node1&#45;&gt;Node5</title>
<g id="a_edge4_Node000001_Node000005"><a xlink:title=" ">
<path fill="none" stroke="#63b8ff" d="M371.09,-66.83C349.74,-58.76 324.7,-49.3 302.83,-41.03"/>
<polygon fill="#63b8ff" stroke="#63b8ff" points="370.02,-70.16 380.61,-70.42 372.49,-63.62 370.02,-70.16"/>
</a>
</g>
</g>
<!-- Node3 -->
<g id="Node000003" class="node">
<title>Node3</title>
<g id="a_Node000003"><a xlink:href="classcbrc_1_1RecountExpectationMatchingTagCorrector.html#aef78c91ab7f6f6ece7dd996d1b562074" target="_top" xlink:title=" ">
<polygon fill="white" stroke="#666666" points="140,-171 0,-171 0,-130 140,-130 140,-171"/>
<text text-anchor="start" x="8" y="-159" font-family="Helvetica,sans-Serif" font-size="10.00">cbrc::RecountExpectation</text>
<text text-anchor="start" x="8" y="-148" font-family="Helvetica,sans-Serif" font-size="10.00">MatchingTagCorrector::</text>
<text text-anchor="middle" x="70" y="-137" font-family="Helvetica,sans-Serif" font-size="10.00">inferTrueTagCounts</text>
</a>
</g>
</g>
<!-- Node2&#45;&gt;Node3 -->
<g id="edge2_Node000002_Node000003" class="edge">
<title>Node2&#45;&gt;Node3</title>
<g id="a_edge2_Node000002_Node000003"><a xlink:title=" ">
<path fill="none" stroke="#63b8ff" d="M165.83,-150.5C157.22,-150.5 148.51,-150.5 140.05,-150.5"/>
<polygon fill="#63b8ff" stroke="#63b8ff" points="165.88,-154 175.88,-150.5 165.88,-147 165.88,-154"/>
</a>
</g>
</g>
</g>
</svg>
