<?xml version="1.0" encoding="UTF-8" standalone="no"?>
<!DOCTYPE svg PUBLIC "-//W3C//DTD SVG 1.1//EN"
 "http://www.w3.org/Graphics/SVG/1.1/DTD/svg11.dtd">
<!-- Generated by graphviz version 2.43.0 (0)
 -->
<!-- Title: cbrc::FLMatrix::validAsMatrix Pages: 1 -->
<svg width="344pt" height="64pt"
 viewBox="0.00 0.00 344.00 64.00" xmlns="http://www.w3.org/2000/svg" xmlns:xlink="http://www.w3.org/1999/xlink">
<g id="graph0" class="graph" transform="scale(1 1) rotate(0) translate(4 60)">
<title>cbrc::FLMatrix::validAsMatrix</title>
<!-- Node1 -->
<g id="Node000001" class="node">
<title>Node1</title>
<g id="a_Node000001"><a xlink:title=" ">
<polygon fill="#999999" stroke="#666666" points="336,-37 177,-37 177,-18 336,-18 336,-37"/>
<text text-anchor="middle" x="256.5" y="-25" font-family="Helvetica,sans-Serif" font-size="10.00">cbrc::FLMatrix::validAsMatrix</text>
</a>
</g>
</g>
<!-- Node2 -->
<g id="Node000002" class="node">
<title>Node2</title>
<g id="a_Node000002"><a xlink:href="classcbrc_1_1FLMatrix.html#af0044ac64f2479155aae8a4520dc7e47" target="_top" xlink:title=" ">
<polygon fill="white" stroke="#666666" points="137.5,-56 3.5,-56 3.5,-37 137.5,-37 137.5,-56"/>
<text text-anchor="middle" x="70.5" y="-44" font-family="Helvetica,sans-Serif" font-size="10.00">cbrc::FLMatrix::FLMatrix</text>
</a>
</g>
</g>
<!-- Node1&#45;&gt;Node2 -->
<g id="edge1_Node000001_Node000002" class="edge">
<title>Node1&#45;&gt;Node2</title>
<g id="a_edge1_Node000001_Node000002"><a xlink:title=" ">
<path fill="none" stroke="#63b8ff" d="M166.76,-36.66C156.95,-37.68 147.1,-38.69 137.65,-39.67"/>
<polygon fill="#63b8ff" stroke="#63b8ff" points="167.35,-40.12 176.93,-35.61 166.63,-33.16 167.35,-40.12"/>
</a>
</g>
</g>
<!-- Node3 -->
<g id="Node000003" class="node">
<title>Node3</title>
<g id="a_Node000003"><a xlink:href="classcbrc_1_1FLMatrix.html#a0edd8b261aa1271a243f0f13713d098c" target="_top" xlink:title=" ">
<polygon fill="white" stroke="#666666" points="141,-19 0,-19 0,0 141,0 141,-19"/>
<text text-anchor="middle" x="70.5" y="-7" font-family="Helvetica,sans-Serif" font-size="10.00">cbrc::FLMatrix::operator=</text>
</a>
</g>
</g>
<!-- Node1&#45;&gt;Node3 -->
<g id="edge2_Node000001_Node000003" class="edge">
<title>Node1&#45;&gt;Node3</title>
<g id="a_edge2_Node000001_Node000003"><a xlink:title=" ">
<path fill="none" stroke="#63b8ff" d="M166.82,-18.83C158.18,-17.98 149.5,-17.13 141.09,-16.31"/>
<polygon fill="#63b8ff" stroke="#63b8ff" points="166.64,-22.32 176.93,-19.81 167.32,-15.36 166.64,-22.32"/>
</a>
</g>
</g>
</g>
</svg>
