<?xml version="1.0" encoding="UTF-8" standalone="no"?>
<!DOCTYPE svg PUBLIC "-//W3C//DTD SVG 1.1//EN"
 "http://www.w3.org/Graphics/SVG/1.1/DTD/svg11.dtd">
<!-- Generated by graphviz version 2.43.0 (0)
 -->
<!-- Title: cbrc::TextWindow::size Pages: 1 -->
<svg width="338pt" height="150pt"
 viewBox="0.00 0.00 338.00 149.50" xmlns="http://www.w3.org/2000/svg" xmlns:xlink="http://www.w3.org/1999/xlink">
<g id="graph0" class="graph" transform="scale(1 1) rotate(0) translate(4 145.5)">
<title>cbrc::TextWindow::size</title>
<!-- Node1 -->
<g id="Node000001" class="node">
<title>Node1</title>
<g id="a_Node000001"><a xlink:title=" ">
<polygon fill="#999999" stroke="#666666" points="330,-85.5 203,-85.5 203,-66.5 330,-66.5 330,-85.5"/>
<text text-anchor="middle" x="266.5" y="-73.5" font-family="Helvetica,sans-Serif" font-size="10.00">cbrc::TextWindow::size</text>
</a>
</g>
</g>
<!-- Node2 -->
<g id="Node000002" class="node">
<title>Node2</title>
<g id="a_Node000002"><a xlink:href="classcbrc_1_1TextWindow.html#aefb32f6bead1f6698713793071e4d57c" target="_top" xlink:title=" ">
<polygon fill="white" stroke="#666666" points="164,-141.5 3,-141.5 3,-122.5 164,-122.5 164,-141.5"/>
<text text-anchor="middle" x="83.5" y="-129.5" font-family="Helvetica,sans-Serif" font-size="10.00">cbrc::TextWindow::getFLArray</text>
</a>
</g>
</g>
<!-- Node1&#45;&gt;Node2 -->
<g id="edge1_Node000001_Node000002" class="edge">
<title>Node1&#45;&gt;Node2</title>
<g id="a_edge1_Node000001_Node000002"><a xlink:title=" ">
<path fill="none" stroke="#63b8ff" d="M234.12,-89.53C214.98,-97.42 189.87,-107.14 167,-114 156.47,-117.16 145.03,-120.01 134.11,-122.47"/>
<polygon fill="#63b8ff" stroke="#63b8ff" points="235.66,-92.67 243.54,-85.59 232.96,-86.21 235.66,-92.67"/>
</a>
</g>
</g>
<!-- Node3 -->
<g id="Node000003" class="node">
<title>Node3</title>
<g id="a_Node000003"><a xlink:href="classcbrc_1_1TextWindow.html#a84dc0e8d6995ceea4eed9e087116a0ea" target="_top" xlink:title=" ">
<polygon fill="white" stroke="#666666" points="167,-104.5 0,-104.5 0,-85.5 167,-85.5 167,-104.5"/>
<text text-anchor="middle" x="83.5" y="-92.5" font-family="Helvetica,sans-Serif" font-size="10.00">cbrc::TextWindow::getFLEArray</text>
</a>
</g>
</g>
<!-- Node1&#45;&gt;Node3 -->
<g id="edge2_Node000001_Node000003" class="edge">
<title>Node1&#45;&gt;Node3</title>
<g id="a_edge2_Node000001_Node000003"><a xlink:title=" ">
<path fill="none" stroke="#63b8ff" d="M192.8,-83.63C184.36,-84.52 175.71,-85.43 167.16,-86.32"/>
<polygon fill="#63b8ff" stroke="#63b8ff" points="193.38,-87.09 202.96,-82.57 192.65,-80.13 193.38,-87.09"/>
</a>
</g>
</g>
<!-- Node4 -->
<g id="Node000004" class="node">
<title>Node4</title>
<g id="a_Node000004"><a xlink:href="classcbrc_1_1TextWindow.html#ab36351b587b2cce96429876f25a9c439" target="_top" xlink:title=" ">
<polygon fill="white" stroke="#666666" points="167,-67.5 0,-67.5 0,-48.5 167,-48.5 167,-67.5"/>
<text text-anchor="middle" x="83.5" y="-55.5" font-family="Helvetica,sans-Serif" font-size="10.00">cbrc::TextWindow::TextWindow</text>
</a>
</g>
</g>
<!-- Node1&#45;&gt;Node4 -->
<g id="edge3_Node000001_Node000004" class="edge">
<title>Node1&#45;&gt;Node4</title>
<g id="a_edge3_Node000001_Node000004"><a xlink:title=" ">
<path fill="none" stroke="#63b8ff" d="M192.8,-68.77C184.36,-67.93 175.71,-67.07 167.16,-66.22"/>
<polygon fill="#63b8ff" stroke="#63b8ff" points="192.66,-72.27 202.96,-69.78 193.35,-65.31 192.66,-72.27"/>
</a>
</g>
</g>
<!-- Node5 -->
<g id="Node000005" class="node">
<title>Node5</title>
<g id="a_Node000005"><a xlink:href="classcbrc_1_1TextWindow.html#a7b958e5e99605af91709f04b357fd4f3" target="_top" xlink:title=" ">
<polygon fill="white" stroke="#666666" points="156,-30 11,-30 11,0 156,0 156,-30"/>
<text text-anchor="start" x="19" y="-18" font-family="Helvetica,sans-Serif" font-size="10.00">cbrc::TextWindow::window</text>
<text text-anchor="middle" x="83.5" y="-7" font-family="Helvetica,sans-Serif" font-size="10.00">LastPtr</text>
</a>
</g>
</g>
<!-- Node1&#45;&gt;Node5 -->
<g id="edge4_Node000001_Node000005" class="edge">
<title>Node1&#45;&gt;Node5</title>
<g id="a_edge4_Node000001_Node000005"><a xlink:title=" ">
<path fill="none" stroke="#63b8ff" d="M231.17,-62.92C212.32,-55.87 188.47,-47.17 167,-40 156.92,-36.63 146.09,-33.21 135.69,-30.02"/>
<polygon fill="#63b8ff" stroke="#63b8ff" points="229.94,-66.19 240.54,-66.44 232.41,-59.64 229.94,-66.19"/>
</a>
</g>
</g>
</g>
</svg>
