<?xml version="1.0" encoding="UTF-8" standalone="no"?>
<!DOCTYPE svg PUBLIC "-//W3C//DTD SVG 1.1//EN"
 "http://www.w3.org/Graphics/SVG/1.1/DTD/svg11.dtd">
<!-- Generated by graphviz version 2.43.0 (0)
 -->
<!-- Title: cbrc::RecountComputerForGraphOnDisk::varianceCountsFromTrue Pages: 1 -->
<svg width="1080pt" height="265pt"
 viewBox="0.00 0.00 1080.00 265.00" xmlns="http://www.w3.org/2000/svg" xmlns:xlink="http://www.w3.org/1999/xlink">
<g id="graph0" class="graph" transform="scale(1 1) rotate(0) translate(4 261)">
<title>cbrc::RecountComputerForGraphOnDisk::varianceCountsFromTrue</title>
<!-- Node1 -->
<g id="Node000001" class="node">
<title>Node1</title>
<g id="a_Node000001"><a xlink:title=" ">
<polygon fill="#999999" stroke="#666666" points="208,-147.5 0,-147.5 0,-117.5 208,-117.5 208,-147.5"/>
<text text-anchor="start" x="8" y="-135.5" font-family="Helvetica,sans-Serif" font-size="10.00">cbrc::RecountComputerFor</text>
<text text-anchor="middle" x="104" y="-124.5" font-family="Helvetica,sans-Serif" font-size="10.00">GraphOnDisk::varianceCountsFromTrue</text>
</a>
</g>
</g>
<!-- Node2 -->
<g id="Node000002" class="node">
<title>Node2</title>
<g id="a_Node000002"><a xlink:href="classcbrc_1_1RecountNeighborList.html#a8c7237c3fda7b0a00c74f0530d92609c" target="_top" xlink:title=" ">
<polygon fill="white" stroke="#666666" points="414,-257 255,-257 255,-238 414,-238 414,-257"/>
<text text-anchor="middle" x="334.5" y="-245" font-family="Helvetica,sans-Serif" font-size="10.00">cbrc::RecountNeighborList::id</text>
</a>
</g>
</g>
<!-- Node1&#45;&gt;Node2 -->
<g id="edge1_Node000001_Node000002" class="edge">
<title>Node1&#45;&gt;Node2</title>
<g id="a_edge1_Node000001_Node000002"><a xlink:title=" ">
<path fill="none" stroke="#63b8ff" d="M122.08,-147.69C147.04,-169.07 195.79,-207.73 244,-228.5 249.84,-231.02 256.04,-233.21 262.35,-235.12"/>
<polygon fill="#63b8ff" stroke="#63b8ff" points="261.74,-238.58 272.31,-237.9 263.62,-231.84 261.74,-238.58"/>
</a>
</g>
</g>
<!-- Node3 -->
<g id="Node000003" class="node">
<title>Node3</title>
<g id="a_Node000003"><a xlink:href="classcbrc_1_1RecountComputerForGraphOnDisk.html#a877ea8d9a07bdc993d676df12770aafe" target="_top" xlink:title=" ">
<polygon fill="white" stroke="#666666" points="425,-219.5 244,-219.5 244,-189.5 425,-189.5 425,-219.5"/>
<text text-anchor="start" x="252" y="-207.5" font-family="Helvetica,sans-Serif" font-size="10.00">cbrc::RecountComputerFor</text>
<text text-anchor="middle" x="334.5" y="-196.5" font-family="Helvetica,sans-Serif" font-size="10.00">GraphOnDisk::neighborProbGraph</text>
</a>
</g>
</g>
<!-- Node1&#45;&gt;Node3 -->
<g id="edge2_Node000001_Node000003" class="edge">
<title>Node1&#45;&gt;Node3</title>
<g id="a_edge2_Node000001_Node000003"><a xlink:title=" ">
<path fill="none" stroke="#63b8ff" d="M146.11,-147.55C173.65,-157.42 210.8,-170.33 244,-180.5 250.87,-182.61 258.07,-184.71 265.28,-186.74"/>
<polygon fill="#63b8ff" stroke="#63b8ff" points="264.5,-190.16 275.08,-189.47 266.38,-183.42 264.5,-190.16"/>
</a>
</g>
</g>
<!-- Node4 -->
<g id="Node000004" class="node">
<title>Node4</title>
<g id="a_Node000004"><a xlink:href="classcbrc_1_1RecountNeighborProbGraphOnDisk.html#a0a8db15dcb82bd036d025ffd258003a0" target="_top" xlink:title=" ">
<polygon fill="white" stroke="#666666" points="412,-171.5 257,-171.5 257,-141.5 412,-141.5 412,-171.5"/>
<text text-anchor="start" x="265" y="-159.5" font-family="Helvetica,sans-Serif" font-size="10.00">cbrc::RecountNeighborProb</text>
<text text-anchor="middle" x="334.5" y="-148.5" font-family="Helvetica,sans-Serif" font-size="10.00">GraphOnDisk::readFirstNode</text>
</a>
</g>
</g>
<!-- Node1&#45;&gt;Node4 -->
<g id="edge3_Node000001_Node000004" class="edge">
<title>Node1&#45;&gt;Node4</title>
<g id="a_edge3_Node000001_Node000004"><a xlink:title=" ">
<path fill="none" stroke="#63b8ff" d="M208.22,-143.34C221.1,-144.69 234.17,-146.07 246.76,-147.39"/>
<polygon fill="#63b8ff" stroke="#63b8ff" points="246.43,-150.87 256.74,-148.44 247.16,-143.91 246.43,-150.87"/>
</a>
</g>
</g>
<!-- Node8 -->
<g id="Node000008" class="node">
<title>Node8</title>
<g id="a_Node000008"><a xlink:href="classcbrc_1_1FLEArray.html#ad71311380d762114c9e0f3b0dda38b7c" target="_top" xlink:title=" ">
<polygon fill="white" stroke="#666666" points="1072,-122 961,-122 961,-103 1072,-103 1072,-122"/>
<text text-anchor="middle" x="1016.5" y="-110" font-family="Helvetica,sans-Serif" font-size="10.00">cbrc::FLEArray::size</text>
</a>
</g>
</g>
<!-- Node1&#45;&gt;Node8 -->
<g id="edge14_Node000001_Node000008" class="edge">
<title>Node1&#45;&gt;Node8</title>
<g id="a_edge14_Node000001_Node000008"><a xlink:title=" ">
<path fill="none" stroke="#63b8ff" d="M139.98,-117.5C167.66,-106.35 207.59,-91.85 244,-84.5 369.74,-59.12 403.72,-65.5 532,-65.5 532,-65.5 532,-65.5 698.5,-65.5 799.56,-65.5 825.74,-66.51 925,-85.5 943,-88.94 962.54,-94.53 978.84,-99.73"/>
<polygon fill="#63b8ff" stroke="#63b8ff" points="977.94,-103.11 988.53,-102.89 980.11,-96.46 977.94,-103.11"/>
</a>
</g>
</g>
<!-- Node10 -->
<g id="Node000010" class="node">
<title>Node10</title>
<g id="a_Node000010"><a xlink:href="classcbrc_1_1RecountNeighborProbGraphOnDisk.html#aaa8a3a966c7d7b880fa23d0e7626ea23" target="_top" xlink:title=" ">
<polygon fill="white" stroke="#666666" points="413.5,-123.5 255.5,-123.5 255.5,-93.5 413.5,-93.5 413.5,-123.5"/>
<text text-anchor="start" x="263.5" y="-111.5" font-family="Helvetica,sans-Serif" font-size="10.00">cbrc::RecountNeighborProb</text>
<text text-anchor="middle" x="334.5" y="-100.5" font-family="Helvetica,sans-Serif" font-size="10.00">GraphOnDisk::readNextNode</text>
</a>
</g>
</g>
<!-- Node1&#45;&gt;Node10 -->
<g id="edge12_Node000001_Node000010" class="edge">
<title>Node1&#45;&gt;Node10</title>
<g id="a_edge12_Node000001_Node000010"><a xlink:title=" ">
<path fill="none" stroke="#63b8ff" d="M208.22,-121.66C220.6,-120.36 233.16,-119.04 245.3,-117.76"/>
<polygon fill="#63b8ff" stroke="#63b8ff" points="245.81,-121.23 255.39,-116.7 245.08,-114.27 245.81,-121.23"/>
</a>
</g>
</g>
<!-- Node11 -->
<g id="Node000011" class="node">
<title>Node11</title>
<g id="a_Node000011"><a xlink:href="classcbrc_1_1FLEArray.html#a31b7db1817b5eec4d9cbb10bfe07d58a" target="_top" xlink:title=" ">
<polygon fill="white" stroke="#666666" points="391,-37 278,-37 278,-18 391,-18 391,-37"/>
<text text-anchor="middle" x="334.5" y="-25" font-family="Helvetica,sans-Serif" font-size="10.00">cbrc::FLEArray::zero</text>
</a>
</g>
</g>
<!-- Node1&#45;&gt;Node11 -->
<g id="edge15_Node000001_Node000011" class="edge">
<title>Node1&#45;&gt;Node11</title>
<g id="a_edge15_Node000001_Node000011"><a xlink:title=" ">
<path fill="none" stroke="#63b8ff" d="M126.68,-117.4C153.26,-99.49 200.17,-69.76 244,-51.5 255.02,-46.91 267.17,-42.96 278.88,-39.67"/>
<polygon fill="#63b8ff" stroke="#63b8ff" points="279.82,-43.04 288.57,-37.06 278,-36.28 279.82,-43.04"/>
</a>
</g>
</g>
<!-- Node5 -->
<g id="Node000005" class="node">
<title>Node5</title>
<g id="a_Node000005"><a xlink:href="classcbrc_1_1RecountNeighborList.html#a30923b03733e82c439caab42bddc9137" target="_top" xlink:title=" ">
<polygon fill="white" stroke="#666666" points="605,-171.5 461,-171.5 461,-141.5 605,-141.5 605,-171.5"/>
<text text-anchor="start" x="469" y="-159.5" font-family="Helvetica,sans-Serif" font-size="10.00">cbrc::RecountNeighborList</text>
<text text-anchor="middle" x="533" y="-148.5" font-family="Helvetica,sans-Serif" font-size="10.00">::read</text>
</a>
</g>
</g>
<!-- Node4&#45;&gt;Node5 -->
<g id="edge4_Node000004_Node000005" class="edge">
<title>Node4&#45;&gt;Node5</title>
<g id="a_edge4_Node000004_Node000005"><a xlink:title=" ">
<path fill="none" stroke="#63b8ff" d="M412.03,-156.5C424.7,-156.5 437.88,-156.5 450.66,-156.5"/>
<polygon fill="#63b8ff" stroke="#63b8ff" points="450.81,-160 460.81,-156.5 450.81,-153 450.81,-160"/>
</a>
</g>
</g>
<!-- Node6 -->
<g id="Node000006" class="node">
<title>Node6</title>
<g id="a_Node000006"><a xlink:href="classcbrc_1_1FLEArray.html#ab4f853671d71b67a4771b5199af8d8f8" target="_top" xlink:title=" ">
<polygon fill="white" stroke="#666666" points="754,-167 641,-167 641,-148 754,-148 754,-167"/>
<text text-anchor="middle" x="697.5" y="-155" font-family="Helvetica,sans-Serif" font-size="10.00">cbrc::FLEArray::read</text>
</a>
</g>
</g>
<!-- Node5&#45;&gt;Node6 -->
<g id="edge5_Node000005_Node000006" class="edge">
<title>Node5&#45;&gt;Node6</title>
<g id="a_edge5_Node000005_Node000006"><a xlink:title=" ">
<path fill="none" stroke="#63b8ff" d="M605.27,-156.94C613.76,-156.99 622.4,-157.04 630.8,-157.1"/>
<polygon fill="#63b8ff" stroke="#63b8ff" points="630.89,-160.6 640.91,-157.16 630.94,-153.6 630.89,-160.6"/>
</a>
</g>
</g>
<!-- Node6&#45;&gt;Node6 -->
<g id="edge10_Node000006_Node000006" class="edge">
<title>Node6&#45;&gt;Node6</title>
<g id="a_edge10_Node000006_Node000006"><a xlink:title=" ">
<path fill="none" stroke="#63b8ff" d="M672.84,-167.08C660.84,-175.73 669.06,-185 697.5,-185 716.16,-185 726.12,-181.01 727.37,-175.82"/>
<polygon fill="#63b8ff" stroke="#63b8ff" points="730.29,-173.88 722.16,-167.08 724.27,-177.47 730.29,-173.88"/>
</a>
</g>
</g>
<!-- Node7 -->
<g id="Node000007" class="node">
<title>Node7</title>
<g id="a_Node000007"><a xlink:href="classcbrc_1_1FLEArray.html#a8255bcefe055e10a4fccd3331b450fee" target="_top" xlink:title=" ">
<polygon fill="white" stroke="#666666" points="916,-207 799,-207 799,-188 916,-188 916,-207"/>
<text text-anchor="middle" x="857.5" y="-195" font-family="Helvetica,sans-Serif" font-size="10.00">cbrc::FLEArray::bsize</text>
</a>
</g>
</g>
<!-- Node6&#45;&gt;Node7 -->
<g id="edge6_Node000006_Node000007" class="edge">
<title>Node6&#45;&gt;Node7</title>
<g id="a_edge6_Node000006_Node000007"><a xlink:title=" ">
<path fill="none" stroke="#63b8ff" d="M736.34,-167.08C758.14,-172.6 785.72,-179.58 808.96,-185.47"/>
<polygon fill="#63b8ff" stroke="#63b8ff" points="808.41,-188.94 818.96,-188 810.13,-182.15 808.41,-188.94"/>
</a>
</g>
</g>
<!-- Node6&#45;&gt;Node8 -->
<g id="edge11_Node000006_Node000008" class="edge">
<title>Node6&#45;&gt;Node8</title>
<g id="a_edge11_Node000006_Node000008"><a xlink:title=" ">
<path fill="none" stroke="#63b8ff" d="M754.34,-156.8C800.47,-155.39 867.47,-151.41 925,-140.5 943.6,-136.97 963.77,-130.95 980.34,-125.4"/>
<polygon fill="#63b8ff" stroke="#63b8ff" points="981.82,-128.59 990.14,-122.03 979.55,-121.97 981.82,-128.59"/>
</a>
</g>
</g>
<!-- Node9 -->
<g id="Node000009" class="node">
<title>Node9</title>
<g id="a_Node000009"><a xlink:href="classcbrc_1_1FLEArray.html#a5368c7c0434bd5c119d2cbb39f4b399e" target="_top" xlink:title=" ">
<polygon fill="white" stroke="#666666" points="925,-113 790,-113 790,-94 925,-94 925,-113"/>
<text text-anchor="middle" x="857.5" y="-101" font-family="Helvetica,sans-Serif" font-size="10.00">cbrc::FLEArray::FLEArray</text>
</a>
</g>
</g>
<!-- Node6&#45;&gt;Node9 -->
<g id="edge8_Node000006_Node000009" class="edge">
<title>Node6&#45;&gt;Node9</title>
<g id="a_edge8_Node000006_Node000009"><a xlink:title=" ">
<path fill="none" stroke="#63b8ff" d="M726.38,-147.97C752.14,-139.17 790.6,-126.02 819.03,-116.31"/>
<polygon fill="#63b8ff" stroke="#63b8ff" points="820.3,-119.57 828.63,-113.03 818.04,-112.95 820.3,-119.57"/>
</a>
</g>
</g>
<!-- Node7&#45;&gt;Node8 -->
<g id="edge7_Node000007_Node000008" class="edge">
<title>Node7&#45;&gt;Node8</title>
<g id="a_edge7_Node000007_Node000008"><a xlink:title=" ">
<path fill="none" stroke="#63b8ff" d="M889.96,-187.93C901.26,-184.03 913.95,-179.11 925,-173.5 950.47,-160.57 977.32,-141.72 995.09,-128.4"/>
<polygon fill="#63b8ff" stroke="#63b8ff" points="997.67,-130.84 1003.51,-122 993.43,-125.27 997.67,-130.84"/>
</a>
</g>
</g>
<!-- Node9&#45;&gt;Node9 -->
<g id="edge9_Node000009_Node000009" class="edge">
<title>Node9&#45;&gt;Node9</title>
<g id="a_edge9_Node000009_Node000009"><a xlink:title=" ">
<path fill="none" stroke="#63b8ff" d="M833.15,-113.08C821.3,-121.73 829.42,-131 857.5,-131 875.93,-131 885.76,-127.01 886.99,-121.82"/>
<polygon fill="#63b8ff" stroke="#63b8ff" points="889.94,-119.93 881.85,-113.08 883.91,-123.48 889.94,-119.93"/>
</a>
</g>
</g>
<!-- Node10&#45;&gt;Node5 -->
<g id="edge13_Node000010_Node000005" class="edge">
<title>Node10&#45;&gt;Node5</title>
<g id="a_edge13_Node000010_Node000005"><a xlink:title=" ">
<path fill="none" stroke="#63b8ff" d="M397.13,-123.56C417.34,-128.49 439.97,-134.02 460.82,-139.11"/>
<polygon fill="#63b8ff" stroke="#63b8ff" points="460.04,-142.52 470.58,-141.5 461.7,-135.72 460.04,-142.52"/>
</a>
</g>
</g>
<!-- Node12 -->
<g id="Node000012" class="node">
<title>Node12</title>
<g id="a_Node000012"><a xlink:href="classcbrc_1_1FLEArray.html#ab3482d140dd947c2d956fa5620da84ab" target="_top" xlink:title=" ">
<polygon fill="white" stroke="#666666" points="749.5,-19 645.5,-19 645.5,0 749.5,0 749.5,-19"/>
<text text-anchor="middle" x="697.5" y="-7" font-family="Helvetica,sans-Serif" font-size="10.00">cbrc::FLEArray::fill</text>
</a>
</g>
</g>
<!-- Node11&#45;&gt;Node12 -->
<g id="edge16_Node000011_Node000012" class="edge">
<title>Node11&#45;&gt;Node12</title>
<g id="a_edge16_Node000011_Node000012"><a xlink:title=" ">
<path fill="none" stroke="#63b8ff" d="M391.12,-24.73C457.15,-21.43 566.91,-15.96 635.3,-12.55"/>
<polygon fill="#63b8ff" stroke="#63b8ff" points="635.68,-16.04 645.49,-12.04 635.33,-9.05 635.68,-16.04"/>
</a>
</g>
</g>
<!-- Node12&#45;&gt;Node8 -->
<g id="edge18_Node000012_Node000008" class="edge">
<title>Node12&#45;&gt;Node8</title>
<g id="a_edge18_Node000012_Node000008"><a xlink:title=" ">
<path fill="none" stroke="#63b8ff" d="M749.66,-13C796.69,-17.59 867.62,-28.03 925,-51.5 951.88,-62.49 979.02,-82.19 996.47,-96.23"/>
<polygon fill="#63b8ff" stroke="#63b8ff" points="994.71,-99.32 1004.65,-102.98 999.16,-93.92 994.71,-99.32"/>
</a>
</g>
</g>
<!-- Node12&#45;&gt;Node12 -->
<g id="edge17_Node000012_Node000012" class="edge">
<title>Node12&#45;&gt;Node12</title>
<g id="a_edge17_Node000012_Node000012"><a xlink:title=" ">
<path fill="none" stroke="#63b8ff" d="M672.84,-19.08C660.84,-27.73 669.06,-37 697.5,-37 716.16,-37 726.12,-33.01 727.37,-27.82"/>
<polygon fill="#63b8ff" stroke="#63b8ff" points="730.29,-25.88 722.16,-19.08 724.27,-29.47 730.29,-25.88"/>
</a>
</g>
</g>
</g>
</svg>
