<?xml version="1.0" encoding="UTF-8" standalone="no"?>
<!DOCTYPE svg PUBLIC "-//W3C//DTD SVG 1.1//EN"
 "http://www.w3.org/Graphics/SVG/1.1/DTD/svg11.dtd">
<!-- Generated by graphviz version 2.43.0 (0)
 -->
<!-- Title: cbrc::FLEArray::zero Pages: 1 -->
<!--zoomable 576 -->

<svg id="main" version="1.1" xmlns="http://www.w3.org/2000/svg" xmlns:xlink="http://www.w3.org/1999/xlink" xml:space="preserve" onload="init(evt)">
<style type="text/css"><![CDATA[
.node, .edge {opacity: 0.7;}
.node.selected, .edge.selected {opacity: 1;}
.edge:hover path { stroke: red; }
.edge:hover polygon { stroke: red; fill: red; }
]]></style>

<defs>
  <circle id="rim" cx="0" cy="0" r="7"/>
  <circle id="rim2" cx="0" cy="0" r="3.5"/>
  <g id="zoomPlus">
    <use xlink:href="#rim" fill="#404040"><set attributeName="fill" to="#808080" begin="zoomplus.mouseover" end="zoomplus.mouseout"/></use>
    <path d="M-4,0h8M0,-4v8" fill="none" stroke="white" stroke-width="1.5" pointer-events="none"/>
  </g>
  <g id="zoomMin">
    <use xlink:href="#rim" fill="#404040"><set attributeName="fill" to="#808080" begin="zoomminus.mouseover" end="zoomminus.mouseout"/></use>
    <path d="M-4,0h8" fill="none" stroke="white" stroke-width="1.5" pointer-events="none"/>
  </g>
  <g id="arrowUp" transform="translate(30 24)">
    <use xlink:href="#rim"/>
    <path pointer-events="none" fill="none" stroke="white" stroke-width="1.5" d="M0,-3.0v7 M-2.5,-0.5L0,-3.0L2.5,-0.5"/>
  </g>
  <g id="arrowRight" transform="rotate(90) translate(36 -43)">
    <use xlink:href="#rim"/>
    <path pointer-events="none" fill="none" stroke="white" stroke-width="1.5" d="M0,-3.0v7 M-2.5,-0.5L0,-3.0L2.5,-0.5"/>
  </g>
  <g id="arrowDown" transform="rotate(180) translate(-30 -48)">
    <use xlink:href="#rim"/>
    <path pointer-events="none" fill="none" stroke="white" stroke-width="1.5" d="M0,-3.0v7 M-2.5,-0.5L0,-3.0L2.5,-0.5"/>
  </g>
  <g id="arrowLeft" transform="rotate(270) translate(-36 17)">
    <use xlink:href="#rim"/>
    <path pointer-events="none" fill="none" stroke="white" stroke-width="1.5" d="M0,-3.0v7 M-2.5,-0.5L0,-3.0L2.5,-0.5"/>
  </g>
  <g id="resetDef">
    <use xlink:href="#rim2" fill="#404040"><set attributeName="fill" to="#808080" begin="reset.mouseover" end="reset.mouseout"/></use>
  </g>
</defs>
<script type="application/ecmascript">
var viewWidth = 622;
var viewHeight = 576;
var sectionId = 'dynsection-86';
</script>
<script type="application/ecmascript" xlink:href="svg.min.js"/>
<svg id="graph" class="graph">
<g id="viewport">
<title>cbrc::FLEArray::zero</title>
<!-- Node1 -->
<g id="Node000001" class="node">
<title>Node1</title>
<g id="a_Node000001"><a xlink:title=" ">
<polygon fill="#999999" stroke="#666666" points="614,-370.5 501,-370.5 501,-351.5 614,-351.5 614,-370.5"/>
<text text-anchor="middle" x="557.5" y="-358.5" font-family="Helvetica,sans-Serif" font-size="10.00">cbrc::FLEArray::zero</text>
</a>
</g>
</g>
<!-- Node2 -->
<g id="Node000002" class="node">
<title>Node2</title>
<g id="a_Node000002"><a xlink:href="namespacecbrc.html#aa0d487302501185b392491248fa51641" target="_top" xlink:title=" ">
<polygon fill="white" stroke="#666666" points="462,-568 260,-568 260,-538 462,-538 462,-568"/>
<text text-anchor="start" x="268" y="-556" font-family="Helvetica,sans-Serif" font-size="10.00">cbrc::calculatePermutation</text>
<text text-anchor="middle" x="361" y="-545" font-family="Helvetica,sans-Serif" font-size="10.00">SumOfSquaredDifferencesDistribution</text>
</a>
</g>
</g>
<!-- Node1&#45;&gt;Node2 -->
<g id="edge1_Node000001_Node000002" class="edge">
<title>Node1&#45;&gt;Node2</title>
<g id="a_edge1_Node000001_Node000002"><a xlink:title=" ">
<path fill="none" stroke="#63b8ff" d="M551.47,-380.9C541.4,-416.45 515.32,-490.71 465,-529 460.47,-532.45 455.53,-535.41 450.34,-537.96"/>
<polygon fill="#63b8ff" stroke="#63b8ff" points="554.96,-381.38 554.18,-370.81 548.2,-379.56 554.96,-381.38"/>
</a>
</g>
</g>
<!-- Node4 -->
<g id="Node000004" class="node">
<title>Node4</title>
<g id="a_Node000004"><a xlink:href="classcbrc_1_1RecountTagCounts.html#ad11bd14698ea4628067edf0059a25c68" target="_top" xlink:title=" ">
<polygon fill="white" stroke="#666666" points="427.5,-520 294.5,-520 294.5,-490 427.5,-490 427.5,-520"/>
<text text-anchor="start" x="302.5" y="-508" font-family="Helvetica,sans-Serif" font-size="10.00">cbrc::RecountTagCounts</text>
<text text-anchor="middle" x="361" y="-497" font-family="Helvetica,sans-Serif" font-size="10.00">::RecountTagCounts</text>
</a>
</g>
</g>
<!-- Node1&#45;&gt;Node4 -->
<g id="edge3_Node000001_Node000004" class="edge">
<title>Node1&#45;&gt;Node4</title>
<g id="a_edge3_Node000001_Node000004"><a xlink:title=" ">
<path fill="none" stroke="#63b8ff" d="M547.57,-379.68C533.75,-406.46 504.6,-455.39 465,-481 453.82,-488.23 440.72,-493.29 427.67,-496.83"/>
<polygon fill="#63b8ff" stroke="#63b8ff" points="550.77,-381.1 552.1,-370.59 544.5,-377.97 550.77,-381.1"/>
</a>
</g>
</g>
<!-- Node5 -->
<g id="Node000005" class="node">
<title>Node5</title>
<g id="a_Node000005"><a xlink:href="classcbrc_1_1RecountTagCounts.html#a5e025f710ef06a603501aeead7a98924" target="_top" xlink:title=" ">
<polygon fill="white" stroke="#666666" points="427.5,-472 294.5,-472 294.5,-442 427.5,-442 427.5,-472"/>
<text text-anchor="start" x="302.5" y="-460" font-family="Helvetica,sans-Serif" font-size="10.00">cbrc::RecountTagCounts</text>
<text text-anchor="middle" x="361" y="-449" font-family="Helvetica,sans-Serif" font-size="10.00">::RecountTagCounts</text>
</a>
</g>
</g>
<!-- Node1&#45;&gt;Node5 -->
<g id="edge4_Node000001_Node000005" class="edge">
<title>Node1&#45;&gt;Node5</title>
<g id="a_edge4_Node000001_Node000005"><a xlink:title=" ">
<path fill="none" stroke="#63b8ff" d="M539.8,-377.92C522.55,-394.42 494.12,-419.01 465,-433 453.41,-438.57 440.46,-442.88 427.76,-446.22"/>
<polygon fill="#63b8ff" stroke="#63b8ff" points="542.62,-380.05 547.32,-370.55 537.73,-375.05 542.62,-380.05"/>
</a>
</g>
</g>
<!-- Node6 -->
<g id="Node000006" class="node">
<title>Node6</title>
<g id="a_Node000006"><a xlink:href="namespacecbrc.html#a59b02daff29890d24f755b27508743f0" target="_top" xlink:title=" ">
<polygon fill="white" stroke="#666666" points="429,-424 293,-424 293,-394 429,-394 429,-424"/>
<text text-anchor="start" x="301" y="-412" font-family="Helvetica,sans-Serif" font-size="10.00">cbrc::runAllShortestEdge</text>
<text text-anchor="middle" x="361" y="-401" font-family="Helvetica,sans-Serif" font-size="10.00">LengthPaths</text>
</a>
</g>
</g>
<!-- Node1&#45;&gt;Node6 -->
<g id="edge5_Node000001_Node000006" class="edge">
<title>Node1&#45;&gt;Node6</title>
<g id="a_edge5_Node000001_Node000006"><a xlink:title=" ">
<path fill="none" stroke="#63b8ff" d="M511.07,-373.18C496.39,-377.05 480.02,-381.28 465,-385 452.97,-387.98 440.12,-391.06 427.73,-393.97"/>
<polygon fill="#63b8ff" stroke="#63b8ff" points="512.15,-376.51 520.93,-370.57 510.36,-369.75 512.15,-376.51"/>
</a>
</g>
</g>
<!-- Node8 -->
<g id="Node000008" class="node">
<title>Node8</title>
<g id="a_Node000008"><a xlink:href="classcbrc_1_1NeighborListGraph.html#a93029ea791bc9ed1be8bd8e4c299de2b" target="_top" xlink:title=" ">
<polygon fill="white" stroke="#666666" points="437.5,-376 284.5,-376 284.5,-346 437.5,-346 437.5,-376"/>
<text text-anchor="start" x="292.5" y="-364" font-family="Helvetica,sans-Serif" font-size="10.00">cbrc::NeighborListGraph</text>
<text text-anchor="middle" x="361" y="-353" font-family="Helvetica,sans-Serif" font-size="10.00">::shortestPathByEdgeLength</text>
</a>
</g>
</g>
<!-- Node1&#45;&gt;Node8 -->
<g id="edge7_Node000001_Node000008" class="edge">
<title>Node1&#45;&gt;Node8</title>
<g id="a_edge7_Node000001_Node000008"><a xlink:title=" ">
<path fill="none" stroke="#63b8ff" d="M490.41,-361C473.45,-361 455.08,-361 437.68,-361"/>
<polygon fill="#63b8ff" stroke="#63b8ff" points="490.76,-364.5 500.76,-361 490.76,-357.5 490.76,-364.5"/>
</a>
</g>
</g>
<!-- Node9 -->
<g id="Node000009" class="node">
<title>Node9</title>
<g id="a_Node000009"><a xlink:href="testFLDiagonalMatrix_8cc.html#a5583a1f4974d10e32ac63dc9cbd3dd48" target="_top" xlink:title=" ">
<polygon fill="white" stroke="#666666" points="422,-327.5 300,-327.5 300,-308.5 422,-308.5 422,-327.5"/>
<text text-anchor="middle" x="361" y="-315.5" font-family="Helvetica,sans-Serif" font-size="10.00">testFLDiagonalMatrix</text>
</a>
</g>
</g>
<!-- Node1&#45;&gt;Node9 -->
<g id="edge8_Node000001_Node000009" class="edge">
<title>Node1&#45;&gt;Node9</title>
<g id="a_edge8_Node000001_Node000009"><a xlink:title=" ">
<path fill="none" stroke="#63b8ff" d="M512.3,-348.7C497.34,-344.73 480.5,-340.46 465,-337 449.74,-333.6 433.11,-330.33 417.75,-327.5"/>
<polygon fill="#63b8ff" stroke="#63b8ff" points="511.76,-352.18 522.32,-351.39 513.57,-345.42 511.76,-352.18"/>
</a>
</g>
</g>
<!-- Node11 -->
<g id="Node000011" class="node">
<title>Node11</title>
<g id="a_Node000011"><a xlink:href="classcbrc_1_1RecountComputerForGraphOnDisk.html#a9ec4f1d1273a0cda2bb005bcedc056f6" target="_top" xlink:title=" ">
<polygon fill="white" stroke="#666666" points="465,-290 257,-290 257,-260 465,-260 465,-290"/>
<text text-anchor="start" x="265" y="-278" font-family="Helvetica,sans-Serif" font-size="10.00">cbrc::RecountComputerFor</text>
<text text-anchor="middle" x="361" y="-267" font-family="Helvetica,sans-Serif" font-size="10.00">GraphOnDisk::varianceCountsFromTrue</text>
</a>
</g>
</g>
<!-- Node1&#45;&gt;Node11 -->
<g id="edge10_Node000001_Node000011" class="edge">
<title>Node1&#45;&gt;Node11</title>
<g id="a_edge10_Node000001_Node000011"><a xlink:title=" ">
<path fill="none" stroke="#63b8ff" d="M537.26,-345.24C519.51,-331.44 491.9,-311.79 465,-300 456.24,-296.16 446.78,-292.85 437.28,-290.01"/>
<polygon fill="#63b8ff" stroke="#63b8ff" points="535.13,-348.02 545.14,-351.49 539.48,-342.53 535.13,-348.02"/>
</a>
</g>
</g>
<!-- Node12 -->
<g id="Node000012" class="node">
<title>Node12</title>
<g id="a_Node000012"><a xlink:href="classcbrc_1_1RecountComputerForGraphOnDisk.html#a5d0f07fd22c5c6f153a4d4a659ac585d" target="_top" xlink:title=" ">
<polygon fill="white" stroke="#666666" points="465,-242 257,-242 257,-212 465,-212 465,-242"/>
<text text-anchor="start" x="265" y="-230" font-family="Helvetica,sans-Serif" font-size="10.00">cbrc::RecountComputerFor</text>
<text text-anchor="middle" x="361" y="-219" font-family="Helvetica,sans-Serif" font-size="10.00">GraphOnDisk::varianceCountsFromTrue</text>
</a>
</g>
</g>
<!-- Node1&#45;&gt;Node12 -->
<g id="edge11_Node000001_Node000012" class="edge">
<title>Node1&#45;&gt;Node12</title>
<g id="a_edge11_Node000001_Node000012"><a xlink:title=" ">
<path fill="none" stroke="#63b8ff" d="M546.32,-342.45C531.69,-317.62 502.32,-274.03 465,-251 459.38,-247.53 453.3,-244.56 447,-242.02"/>
<polygon fill="#63b8ff" stroke="#63b8ff" points="543.35,-344.31 551.35,-351.26 549.43,-340.84 543.35,-344.31"/>
</a>
</g>
</g>
<!-- Node13 -->
<g id="Node000013" class="node">
<title>Node13</title>
<g id="a_Node000013"><a xlink:href="classcbrc_1_1RecountTagCounts.html#af7bdcf73a683bb55b5d4fc01125d7608" target="_top" xlink:title=" ">
<polygon fill="white" stroke="#666666" points="427.5,-191 294.5,-191 294.5,-161 427.5,-161 427.5,-191"/>
<text text-anchor="start" x="302.5" y="-179" font-family="Helvetica,sans-Serif" font-size="10.00">cbrc::RecountTagCounts</text>
<text text-anchor="middle" x="361" y="-168" font-family="Helvetica,sans-Serif" font-size="10.00">::zero</text>
</a>
</g>
</g>
<!-- Node1&#45;&gt;Node13 -->
<g id="edge12_Node000001_Node000013" class="edge">
<title>Node1&#45;&gt;Node13</title>
<g id="a_edge12_Node000001_Node000013"><a xlink:title=" ">
<path fill="none" stroke="#63b8ff" d="M550.71,-341.48C539.72,-307.89 512.57,-239.25 465,-203 454.12,-194.71 440.92,-188.96 427.66,-184.96"/>
<polygon fill="#63b8ff" stroke="#63b8ff" points="547.5,-342.94 553.83,-351.44 554.18,-340.85 547.5,-342.94"/>
</a>
</g>
</g>
<!-- Node3 -->
<g id="Node000003" class="node">
<title>Node3</title>
<g id="a_Node000003"><a xlink:href="calculateRankCorrelationSignificance_8cc.html#ac0f2228420376f4db7e1274f2b41667c" target="_top" xlink:title=" ">
<polygon fill="white" stroke="#666666" points="131,-562.5 90,-562.5 90,-543.5 131,-543.5 131,-562.5"/>
<text text-anchor="middle" x="110.5" y="-550.5" font-family="Helvetica,sans-Serif" font-size="10.00">main</text>
</a>
</g>
</g>
<!-- Node2&#45;&gt;Node3 -->
<g id="edge2_Node000002_Node000003" class="edge">
<title>Node2&#45;&gt;Node3</title>
<g id="a_edge2_Node000002_Node000003"><a xlink:title=" ">
<path fill="none" stroke="#63b8ff" d="M249.81,-553C204.65,-553 156.99,-553 131.09,-553"/>
<polygon fill="#63b8ff" stroke="#63b8ff" points="250,-556.5 260,-553 250,-549.5 250,-556.5"/>
</a>
</g>
</g>
<!-- Node7 -->
<g id="Node000007" class="node">
<title>Node7</title>
<g id="a_Node000007"><a xlink:href="graph_2run_2runAllShortestEdgeLengthPaths_8cc.html#a3c04138a5bfe5d72780bb7e82a18e627" target="_top" xlink:title=" ">
<polygon fill="white" stroke="#666666" points="131,-418.5 90,-418.5 90,-399.5 131,-399.5 131,-418.5"/>
<text text-anchor="middle" x="110.5" y="-406.5" font-family="Helvetica,sans-Serif" font-size="10.00">main</text>
</a>
</g>
</g>
<!-- Node6&#45;&gt;Node7 -->
<g id="edge6_Node000006_Node000007" class="edge">
<title>Node6&#45;&gt;Node7</title>
<g id="a_edge6_Node000006_Node000007"><a xlink:title=" ">
<path fill="none" stroke="#63b8ff" d="M282.69,-409C229.73,-409 163.43,-409 131.08,-409"/>
<polygon fill="#63b8ff" stroke="#63b8ff" points="282.75,-412.5 292.75,-409 282.75,-405.5 282.75,-412.5"/>
</a>
</g>
</g>
<!-- Node10 -->
<g id="Node000010" class="node">
<title>Node10</title>
<g id="a_Node000010"><a xlink:href="testFLDiagonalMatrix_8cc.html#ae66f6b31b5ad750f1fe042a706a4e3d4" target="_top" xlink:title=" ">
<polygon fill="white" stroke="#666666" points="131,-330.5 90,-330.5 90,-311.5 131,-311.5 131,-330.5"/>
<text text-anchor="middle" x="110.5" y="-318.5" font-family="Helvetica,sans-Serif" font-size="10.00">main</text>
</a>
</g>
</g>
<!-- Node9&#45;&gt;Node10 -->
<g id="edge9_Node000009_Node000010" class="edge">
<title>Node9&#45;&gt;Node10</title>
<g id="a_edge9_Node000009_Node000010"><a xlink:title=" ">
<path fill="none" stroke="#63b8ff" d="M289.64,-318.85C235.7,-319.5 164.96,-320.35 131.15,-320.76"/>
<polygon fill="#63b8ff" stroke="#63b8ff" points="289.89,-322.35 299.85,-318.73 289.8,-315.35 289.89,-322.35"/>
</a>
</g>
</g>
<!-- Node14 -->
<g id="Node000014" class="node">
<title>Node14</title>
<g id="a_Node000014"><a xlink:href="classcbrc_1_1RecountComputerForGraphOnDisk.html#aee9119b27415ef994a51e9fd079b8439" target="_top" xlink:title=" ">
<polygon fill="white" stroke="#666666" points="207.5,-293 13.5,-293 13.5,-263 207.5,-263 207.5,-293"/>
<text text-anchor="start" x="21.5" y="-281" font-family="Helvetica,sans-Serif" font-size="10.00">cbrc::RecountComputerFor</text>
<text text-anchor="middle" x="110.5" y="-270" font-family="Helvetica,sans-Serif" font-size="10.00">GraphOnDisk::meanCountsFromTrue</text>
</a>
</g>
</g>
<!-- Node13&#45;&gt;Node14 -->
<g id="edge13_Node000013_Node000014" class="edge">
<title>Node13&#45;&gt;Node14</title>
<g id="a_edge13_Node000013_Node000014"><a xlink:title=" ">
<path fill="none" stroke="#63b8ff" d="M284.84,-189.02C274.99,-192.6 265.4,-197.17 257,-203 234.2,-218.81 244.12,-238.66 221,-254 215.81,-257.44 210.21,-260.4 204.38,-262.94"/>
<polygon fill="#63b8ff" stroke="#63b8ff" points="285.95,-192.34 294.35,-185.88 283.76,-185.69 285.95,-192.34"/>
</a>
</g>
</g>
<!-- Node15 -->
<g id="Node000015" class="node">
<title>Node15</title>
<g id="a_Node000015"><a xlink:href="classcbrc_1_1RecountComputerForGraphOnDisk.html#a88d2ea948f615339b406e08768f41029" target="_top" xlink:title=" ">
<polygon fill="white" stroke="#666666" points="207.5,-245 13.5,-245 13.5,-215 207.5,-215 207.5,-245"/>
<text text-anchor="start" x="21.5" y="-233" font-family="Helvetica,sans-Serif" font-size="10.00">cbrc::RecountComputerFor</text>
<text text-anchor="middle" x="110.5" y="-222" font-family="Helvetica,sans-Serif" font-size="10.00">GraphOnDisk::meanCountsFromTrue</text>
</a>
</g>
</g>
<!-- Node13&#45;&gt;Node15 -->
<g id="edge14_Node000013_Node000015" class="edge">
<title>Node13&#45;&gt;Node15</title>
<g id="a_edge14_Node000013_Node000015"><a xlink:title=" ">
<path fill="none" stroke="#63b8ff" d="M284.36,-192.44C251.45,-199.59 213.14,-207.91 180.97,-214.9"/>
<polygon fill="#63b8ff" stroke="#63b8ff" points="285.36,-195.8 294.38,-190.26 283.87,-188.96 285.36,-195.8"/>
</a>
</g>
</g>
<!-- Node16 -->
<g id="Node000016" class="node">
<title>Node16</title>
<g id="a_Node000016"><a xlink:href="classcbrc_1_1RecountExpectationMatchingTagCorrector.html#ac6064bce0de0dae057ca18e8eba8a53d" target="_top" xlink:title=" ">
<polygon fill="white" stroke="#666666" points="221,-196.5 0,-196.5 0,-155.5 221,-155.5 221,-196.5"/>
<text text-anchor="start" x="8" y="-184.5" font-family="Helvetica,sans-Serif" font-size="10.00">cbrc::RecountExpectation</text>
<text text-anchor="start" x="8" y="-173.5" font-family="Helvetica,sans-Serif" font-size="10.00">MatchingTagCorrector::</text>
<text text-anchor="middle" x="110.5" y="-162.5" font-family="Helvetica,sans-Serif" font-size="10.00">RecountExpectationMatchingTagCorrector</text>
</a>
</g>
</g>
<!-- Node13&#45;&gt;Node16 -->
<g id="edge15_Node000013_Node000016" class="edge">
<title>Node13&#45;&gt;Node16</title>
<g id="a_edge15_Node000013_Node000016"><a xlink:title=" ">
<path fill="none" stroke="#63b8ff" d="M284.19,-176C264.33,-176 242.51,-176 221.26,-176"/>
<polygon fill="#63b8ff" stroke="#63b8ff" points="284.38,-179.5 294.38,-176 284.38,-172.5 284.38,-179.5"/>
</a>
</g>
</g>
<!-- Node17 -->
<g id="Node000017" class="node">
<title>Node17</title>
<g id="a_Node000017"><a xlink:href="classcbrc_1_1RecountExpectationMatchingTagCorrector.html#aea1163ebbfd0654659858d7dc5271b85" target="_top" xlink:title=" ">
<polygon fill="white" stroke="#666666" points="221,-137.5 0,-137.5 0,-96.5 221,-96.5 221,-137.5"/>
<text text-anchor="start" x="8" y="-125.5" font-family="Helvetica,sans-Serif" font-size="10.00">cbrc::RecountExpectation</text>
<text text-anchor="start" x="8" y="-114.5" font-family="Helvetica,sans-Serif" font-size="10.00">MatchingTagCorrector::</text>
<text text-anchor="middle" x="110.5" y="-103.5" font-family="Helvetica,sans-Serif" font-size="10.00">RecountExpectationMatchingTagCorrector</text>
</a>
</g>
</g>
<!-- Node13&#45;&gt;Node17 -->
<g id="edge16_Node000013_Node000017" class="edge">
<title>Node13&#45;&gt;Node17</title>
<g id="a_edge16_Node000013_Node000017"><a xlink:title=" ">
<path fill="none" stroke="#63b8ff" d="M286.62,-158.58C258.87,-151.99 227.03,-144.43 198.17,-137.58"/>
<polygon fill="#63b8ff" stroke="#63b8ff" points="286.11,-162.05 296.65,-160.96 287.73,-155.24 286.11,-162.05"/>
</a>
</g>
</g>
<!-- Node18 -->
<g id="Node000018" class="node">
<title>Node18</title>
<g id="a_Node000018"><a xlink:href="classcbrc_1_1RecountTagCounts.html#a1c6886197666587c048ae6bb0bc543e9" target="_top" xlink:title=" ">
<polygon fill="white" stroke="#666666" points="177,-78 44,-78 44,-48 177,-48 177,-78"/>
<text text-anchor="start" x="52" y="-66" font-family="Helvetica,sans-Serif" font-size="10.00">cbrc::RecountTagCounts</text>
<text text-anchor="middle" x="110.5" y="-55" font-family="Helvetica,sans-Serif" font-size="10.00">::RecountTagCounts</text>
</a>
</g>
</g>
<!-- Node13&#45;&gt;Node18 -->
<g id="edge17_Node000013_Node000018" class="edge">
<title>Node13&#45;&gt;Node18</title>
<g id="a_edge17_Node000013_Node000018"><a xlink:title=" ">
<path fill="none" stroke="#63b8ff" d="M332.83,-154.44C305.92,-134.13 262.81,-104.31 221,-87 207.24,-81.3 191.93,-76.87 177.22,-73.45"/>
<polygon fill="#63b8ff" stroke="#63b8ff" points="330.9,-157.37 340.97,-160.67 335.16,-151.81 330.9,-157.37"/>
</a>
</g>
</g>
<!-- Node19 -->
<g id="Node000019" class="node">
<title>Node19</title>
<g id="a_Node000019"><a xlink:href="classcbrc_1_1RecountTagCounts.html#afd181bd3aaaca369cff15ed120874122" target="_top" xlink:title=" ">
<polygon fill="white" stroke="#666666" points="177,-30 44,-30 44,0 177,0 177,-30"/>
<text text-anchor="start" x="52" y="-18" font-family="Helvetica,sans-Serif" font-size="10.00">cbrc::RecountTagCounts</text>
<text text-anchor="middle" x="110.5" y="-7" font-family="Helvetica,sans-Serif" font-size="10.00">::RecountTagCounts</text>
</a>
</g>
</g>
<!-- Node13&#45;&gt;Node19 -->
<g id="edge18_Node000013_Node000019" class="edge">
<title>Node13&#45;&gt;Node19</title>
<g id="a_edge18_Node000013_Node000019"><a xlink:title=" ">
<path fill="none" stroke="#63b8ff" d="M343.29,-152.77C319.68,-121.78 273.54,-67.5 221,-39 207.57,-31.72 192.08,-26.64 177.06,-23.11"/>
<polygon fill="#63b8ff" stroke="#63b8ff" points="340.54,-154.95 349.33,-160.86 346.15,-150.75 340.54,-154.95"/>
</a>
</g>
</g>
</g>
</svg>

<g id="navigator" transform="translate(0 0)" fill="#404254">
  <rect fill="#f2f5e9" fill-opacity="0.5" stroke="#606060" stroke-width=".5" x="0" y="0" width="60" height="60"/>
  <use id="zoomplus" xlink:href="#zoomPlus" x="17" y="9" onmousedown="handleZoom(evt,'in')"/>
  <use id="zoomminus" xlink:href="#zoomMin" x="42" y="9" onmousedown="handleZoom(evt,'out')"/>
  <use id="reset" xlink:href="#resetDef" x="30" y="36" onmousedown="handleReset()"/>
   <use id="arrowup" xlink:href="#arrowUp" x="0" y="0" onmousedown="handlePan(0,-1)"/>
  <use id="arrowright" xlink:href="#arrowRight" x="0" y="0" onmousedown="handlePan(1,0)"/>
  <use id="arrowdown" xlink:href="#arrowDown" x="0" y="0" onmousedown="handlePan(0,1)"/>
  <use id="arrowleft" xlink:href="#arrowLeft" x="0" y="0" onmousedown="handlePan(-1,0)"/>
</g>
<svg viewBox="0 0 15 15" width="100%" height="30px" preserveAspectRatio="xMaxYMin meet">
 <g id="arrow_out" transform="scale(0.3 0.3)">
  <a xlink:href="classcbrc_1_1FLEArray_a31b7db1817b5eec4d9cbb10bfe07d58a_icgraph_org.svg" target="_base">
   <rect id="button" ry="5" rx="5" y="6" x="6" height="38" width="38"
        fill="#f2f5e9" fill-opacity="0.5" stroke="#606060" stroke-width="1.0"/>
   <path id="arrow"
     d="M 11.500037,31.436501 C 11.940474,20.09759 22.043105,11.32322 32.158766,21.979434 L 37.068811,17.246167 C 37.068811,17.246167 37.088388,32 37.088388,32 L 22.160133,31.978069 C 22.160133,31.978069 26.997745,27.140456 26.997745,27.140456 C 18.528582,18.264221 13.291696,25.230495 11.500037,31.436501 z"
     style="fill:#404040;"/>
  </a>
 </g>
</svg>

<style type='text/css'>
<![CDATA[
[data-mouse-over-selected='false'] { opacity: 0.7; }
[data-mouse-over-selected='true']  { opacity: 1.0; }
]]>
</style>
<script type="application/ecmascript"><![CDATA[
document.addEventListener('DOMContentLoaded', (event) => {
  highlightEdges();
  highlightAdjacentNodes();
});
]]></script>
</svg>
