<?xml version="1.0" encoding="UTF-8" standalone="no"?>
<!DOCTYPE svg PUBLIC "-//W3C//DTD SVG 1.1//EN"
 "http://www.w3.org/Graphics/SVG/1.1/DTD/svg11.dtd">
<!-- Generated by graphviz version 2.43.0 (0)
 -->
<!-- Title: cbrc::ConstantLabeledSquareDoubleFLENumMatrix::ConstantLabeledSquareDoubleFLENumMatrix Pages: 1 -->
<svg width="832pt" height="332pt"
 viewBox="0.00 0.00 832.00 332.00" xmlns="http://www.w3.org/2000/svg" xmlns:xlink="http://www.w3.org/1999/xlink">
<g id="graph0" class="graph" transform="scale(1 1) rotate(0) translate(4 328)">
<title>cbrc::ConstantLabeledSquareDoubleFLENumMatrix::ConstantLabeledSquareDoubleFLENumMatrix</title>
<!-- Node1 -->
<g id="Node000001" class="node">
<title>Node1</title>
<g id="a_Node000001"><a xlink:title=" ">
<polygon fill="#999999" stroke="#666666" points="211,-183 0,-183 0,-142 211,-142 211,-183"/>
<text text-anchor="start" x="8" y="-171" font-family="Helvetica,sans-Serif" font-size="10.00">cbrc::ConstantLabeledSquare</text>
<text text-anchor="start" x="8" y="-160" font-family="Helvetica,sans-Serif" font-size="10.00">DoubleFLENumMatrix::ConstantLabeled</text>
<text text-anchor="middle" x="105.5" y="-149" font-family="Helvetica,sans-Serif" font-size="10.00">SquareDoubleFLENumMatrix</text>
</a>
</g>
</g>
<!-- Node2 -->
<g id="Node000002" class="node">
<title>Node2</title>
<g id="a_Node000002"><a xlink:href="classcbrc_1_1ConstantLabeledSquareDoubleFLENumMatrix.html#ad7db3f1395829b77b3c9ad8b5edb7d21" target="_top" xlink:title=" ">
<polygon fill="white" stroke="#666666" points="451,-177.5 247,-177.5 247,-147.5 451,-147.5 451,-177.5"/>
<text text-anchor="start" x="255" y="-165.5" font-family="Helvetica,sans-Serif" font-size="10.00">cbrc::ConstantLabeledSquare</text>
<text text-anchor="middle" x="349" y="-154.5" font-family="Helvetica,sans-Serif" font-size="10.00">DoubleFLENumMatrix::setFromStream</text>
</a>
</g>
</g>
<!-- Node1&#45;&gt;Node2 -->
<g id="edge1_Node000001_Node000002" class="edge">
<title>Node1&#45;&gt;Node2</title>
<g id="a_edge1_Node000001_Node000002"><a xlink:title=" ">
<path fill="none" stroke="#63b8ff" d="M211.02,-162.5C219.54,-162.5 228.17,-162.5 236.74,-162.5"/>
<polygon fill="#63b8ff" stroke="#63b8ff" points="236.76,-166 246.76,-162.5 236.76,-159 236.76,-166"/>
</a>
</g>
</g>
<!-- Node3 -->
<g id="Node000003" class="node">
<title>Node3</title>
<g id="a_Node000003"><a xlink:href="classcbrc_1_1SerialNumbersForStrings.html#a1c1d7fe14c11a118be9e163d99427c71" target="_top" xlink:title=" ">
<polygon fill="white" stroke="#666666" points="652,-311.5 488,-311.5 488,-281.5 652,-281.5 652,-311.5"/>
<text text-anchor="start" x="496" y="-299.5" font-family="Helvetica,sans-Serif" font-size="10.00">cbrc::SerialNumbersForStrings</text>
<text text-anchor="middle" x="570" y="-288.5" font-family="Helvetica,sans-Serif" font-size="10.00">::getSerialNumber</text>
</a>
</g>
</g>
<!-- Node2&#45;&gt;Node3 -->
<g id="edge2_Node000002_Node000003" class="edge">
<title>Node2&#45;&gt;Node3</title>
<g id="a_edge2_Node000002_Node000003"><a xlink:title=" ">
<path fill="none" stroke="#63b8ff" d="M366.11,-177.6C390.58,-199.86 439.32,-241.64 487,-267.5 493.91,-271.25 501.39,-274.67 508.94,-277.74"/>
<polygon fill="#63b8ff" stroke="#63b8ff" points="507.9,-281.09 518.49,-281.45 510.43,-274.57 507.9,-281.09"/>
</a>
</g>
</g>
<!-- Node5 -->
<g id="Node000005" class="node">
<title>Node5</title>
<g id="a_Node000005"><a xlink:href="classcbrc_1_1FLEArray.html#ad71311380d762114c9e0f3b0dda38b7c" target="_top" xlink:title=" ">
<polygon fill="white" stroke="#666666" points="812,-266 701,-266 701,-247 812,-247 812,-266"/>
<text text-anchor="middle" x="756.5" y="-254" font-family="Helvetica,sans-Serif" font-size="10.00">cbrc::FLEArray::size</text>
</a>
</g>
</g>
<!-- Node2&#45;&gt;Node5 -->
<g id="edge9_Node000002_Node000005" class="edge">
<title>Node2&#45;&gt;Node5</title>
<g id="a_edge9_Node000002_Node000005"><a xlink:title=" ">
<path fill="none" stroke="#63b8ff" d="M372.07,-177.71C398.2,-194.83 443.65,-221.9 487,-234.5 554.65,-254.16 635.64,-258.3 690.86,-258.38"/>
<polygon fill="#63b8ff" stroke="#63b8ff" points="690.87,-261.88 700.86,-258.35 690.85,-254.88 690.87,-261.88"/>
</a>
</g>
</g>
<!-- Node6 -->
<g id="Node000006" class="node">
<title>Node6</title>
<g id="a_Node000006"><a xlink:href="namespacecbrc_1_1perlish.html#aa6a16b880222ad8f15da3d0960bdf8be" target="_top" xlink:title=" ">
<polygon fill="white" stroke="#666666" points="653,-225.5 487,-225.5 487,-195.5 653,-195.5 653,-225.5"/>
<text text-anchor="start" x="495" y="-213.5" font-family="Helvetica,sans-Serif" font-size="10.00">cbrc::perlish::isSharpComment</text>
<text text-anchor="middle" x="570" y="-202.5" font-family="Helvetica,sans-Serif" font-size="10.00">OrEmpty</text>
</a>
</g>
</g>
<!-- Node2&#45;&gt;Node6 -->
<g id="edge6_Node000002_Node000006" class="edge">
<title>Node2&#45;&gt;Node6</title>
<g id="a_edge6_Node000002_Node000006"><a xlink:title=" ">
<path fill="none" stroke="#63b8ff" d="M418.69,-177.56C441.52,-182.56 467.11,-188.17 490.62,-193.32"/>
<polygon fill="#63b8ff" stroke="#63b8ff" points="490.03,-196.78 500.55,-195.5 491.53,-189.94 490.03,-196.78"/>
</a>
</g>
</g>
<!-- Node7 -->
<g id="Node000007" class="node">
<title>Node7</title>
<g id="a_Node000007"><a xlink:href="classcbrc_1_1ConstantLabeledSquareDoubleFLENumMatrix.html#a223090ab2939b93d4d494f43c676072b" target="_top" xlink:title=" ">
<polygon fill="white" stroke="#666666" points="649,-177.5 491,-177.5 491,-147.5 649,-147.5 649,-177.5"/>
<text text-anchor="start" x="499" y="-165.5" font-family="Helvetica,sans-Serif" font-size="10.00">cbrc::ConstantLabeledSquare</text>
<text text-anchor="middle" x="570" y="-154.5" font-family="Helvetica,sans-Serif" font-size="10.00">DoubleFLENumMatrix::labels</text>
</a>
</g>
</g>
<!-- Node2&#45;&gt;Node7 -->
<g id="edge7_Node000002_Node000007" class="edge">
<title>Node2&#45;&gt;Node7</title>
<g id="a_edge7_Node000002_Node000007"><a xlink:title=" ">
<path fill="none" stroke="#63b8ff" d="M451.17,-162.5C461.06,-162.5 471.05,-162.5 480.81,-162.5"/>
<polygon fill="#63b8ff" stroke="#63b8ff" points="480.88,-166 490.88,-162.5 480.88,-159 480.88,-166"/>
</a>
</g>
</g>
<!-- Node8 -->
<g id="Node000008" class="node">
<title>Node8</title>
<g id="a_Node000008"><a xlink:href="classcbrc_1_1FLEMatrix.html#aa24d123dd6d858576c79731bc397dfba" target="_top" xlink:title=" ">
<polygon fill="white" stroke="#666666" points="636.5,-129 503.5,-129 503.5,-110 636.5,-110 636.5,-129"/>
<text text-anchor="middle" x="570" y="-117" font-family="Helvetica,sans-Serif" font-size="10.00">cbrc::FLEMatrix::setSize</text>
</a>
</g>
</g>
<!-- Node2&#45;&gt;Node8 -->
<g id="edge8_Node000002_Node000008" class="edge">
<title>Node2&#45;&gt;Node8</title>
<g id="a_edge8_Node000002_Node000008"><a xlink:title=" ">
<path fill="none" stroke="#63b8ff" d="M426.6,-147.46C454.15,-142.05 484.76,-136.04 510.52,-130.98"/>
<polygon fill="#63b8ff" stroke="#63b8ff" points="511.36,-134.38 520.5,-129.02 510.02,-127.51 511.36,-134.38"/>
</a>
</g>
</g>
<!-- Node9 -->
<g id="Node000009" class="node">
<title>Node9</title>
<g id="a_Node000009"><a xlink:href="namespacecbrc_1_1perlish.html#a2a0db2c27f3a19dfdcd7ef17ea5a0bcd" target="_top" xlink:title=" ">
<polygon fill="white" stroke="#666666" points="633,-92 507,-92 507,-73 633,-73 633,-92"/>
<text text-anchor="middle" x="570" y="-80" font-family="Helvetica,sans-Serif" font-size="10.00">cbrc::perlish::slurpLine</text>
</a>
</g>
</g>
<!-- Node2&#45;&gt;Node9 -->
<g id="edge10_Node000002_Node000009" class="edge">
<title>Node2&#45;&gt;Node9</title>
<g id="a_edge10_Node000002_Node000009"><a xlink:title=" ">
<path fill="none" stroke="#63b8ff" d="M379.28,-147.49C406.58,-133.98 448.74,-114.32 487,-101.5 494.68,-98.93 502.89,-96.57 511.02,-94.47"/>
<polygon fill="#63b8ff" stroke="#63b8ff" points="512.01,-97.83 520.87,-92.03 510.33,-91.04 512.01,-97.83"/>
</a>
</g>
</g>
<!-- Node10 -->
<g id="Node000010" class="node">
<title>Node10</title>
<g id="a_Node000010"><a xlink:href="namespacecbrc_1_1perlish.html#a101a4746d50e52a00273c6fe533970ec" target="_top" xlink:title=" ">
<polygon fill="white" stroke="#666666" points="621.5,-37 518.5,-37 518.5,-18 621.5,-18 621.5,-37"/>
<text text-anchor="middle" x="570" y="-25" font-family="Helvetica,sans-Serif" font-size="10.00">cbrc::perlish::split</text>
</a>
</g>
</g>
<!-- Node2&#45;&gt;Node10 -->
<g id="edge11_Node000002_Node000010" class="edge">
<title>Node2&#45;&gt;Node10</title>
<g id="a_edge11_Node000002_Node000010"><a xlink:title=" ">
<path fill="none" stroke="#63b8ff" d="M368.21,-147.4C393.68,-126.75 441.92,-89.3 487,-63.5 501.94,-54.95 519.3,-47.06 534.19,-40.86"/>
<polygon fill="#63b8ff" stroke="#63b8ff" points="535.63,-44.05 543.57,-37.04 532.99,-37.57 535.63,-44.05"/>
</a>
</g>
</g>
<!-- Node4 -->
<g id="Node000004" class="node">
<title>Node4</title>
<g id="a_Node000004"><a xlink:href="classcbrc_1_1FLEArray.html#a5368c7c0434bd5c119d2cbb39f4b399e" target="_top" xlink:title=" ">
<polygon fill="white" stroke="#666666" points="824,-306 689,-306 689,-287 824,-287 824,-306"/>
<text text-anchor="middle" x="756.5" y="-294" font-family="Helvetica,sans-Serif" font-size="10.00">cbrc::FLEArray::FLEArray</text>
</a>
</g>
</g>
<!-- Node3&#45;&gt;Node4 -->
<g id="edge3_Node000003_Node000004" class="edge">
<title>Node3&#45;&gt;Node4</title>
<g id="a_edge3_Node000003_Node000004"><a xlink:title=" ">
<path fill="none" stroke="#63b8ff" d="M652.19,-296.5C661.02,-296.5 669.98,-296.5 678.75,-296.5"/>
<polygon fill="#63b8ff" stroke="#63b8ff" points="678.94,-300 688.94,-296.5 678.94,-293 678.94,-300"/>
</a>
</g>
</g>
<!-- Node3&#45;&gt;Node5 -->
<g id="edge5_Node000003_Node000005" class="edge">
<title>Node3&#45;&gt;Node5</title>
<g id="a_edge5_Node000003_Node000005"><a xlink:title=" ">
<path fill="none" stroke="#63b8ff" d="M640.23,-281.49C660.6,-277.07 682.58,-272.31 701.82,-268.14"/>
<polygon fill="#63b8ff" stroke="#63b8ff" points="702.58,-271.55 711.61,-266.01 701.1,-264.71 702.58,-271.55"/>
</a>
</g>
</g>
<!-- Node4&#45;&gt;Node4 -->
<g id="edge4_Node000004_Node000004" class="edge">
<title>Node4&#45;&gt;Node4</title>
<g id="a_edge4_Node000004_Node000004"><a xlink:title=" ">
<path fill="none" stroke="#63b8ff" d="M727.83,-306.08C713.89,-314.73 723.44,-324 756.5,-324 779.23,-324 790.85,-319.62 791.36,-314.07"/>
<polygon fill="#63b8ff" stroke="#63b8ff" points="794.06,-311.84 785.17,-306.08 788.53,-316.13 794.06,-311.84"/>
</a>
</g>
</g>
<!-- Node10&#45;&gt;Node10 -->
<g id="edge14_Node000010_Node000010" class="edge">
<title>Node10&#45;&gt;Node10</title>
<g id="a_edge14_Node000010_Node000010"><a xlink:title=" ">
<path fill="none" stroke="#63b8ff" d="M541.33,-37.08C527.39,-45.73 536.94,-55 570,-55 592.73,-55 604.35,-50.62 604.86,-45.07"/>
<polygon fill="#63b8ff" stroke="#63b8ff" points="607.56,-42.84 598.67,-37.08 602.03,-47.13 607.56,-42.84"/>
</a>
</g>
</g>
<!-- Node11 -->
<g id="Node000011" class="node">
<title>Node11</title>
<g id="a_Node000011"><a xlink:href="classcbrc_1_1FLEArray.html#a7e5d0d3bc5c41546620ccff95b55b3fa" target="_top" xlink:title=" ">
<polygon fill="white" stroke="#666666" points="816,-56 697,-56 697,-37 816,-37 816,-56"/>
<text text-anchor="middle" x="756.5" y="-44" font-family="Helvetica,sans-Serif" font-size="10.00">cbrc::FLEArray::begin</text>
</a>
</g>
</g>
<!-- Node10&#45;&gt;Node11 -->
<g id="edge12_Node000010_Node000011" class="edge">
<title>Node10&#45;&gt;Node11</title>
<g id="a_edge12_Node000010_Node000011"><a xlink:title=" ">
<path fill="none" stroke="#63b8ff" d="M621.9,-32.74C641.98,-34.81 665.34,-37.22 686.87,-39.43"/>
<polygon fill="#63b8ff" stroke="#63b8ff" points="686.63,-42.93 696.94,-40.47 687.35,-35.96 686.63,-42.93"/>
</a>
</g>
</g>
<!-- Node12 -->
<g id="Node000012" class="node">
<title>Node12</title>
<g id="a_Node000012"><a xlink:href="classcbrc_1_1FLEArray.html#a8c53878dc57e8f666976e041d146a523" target="_top" xlink:title=" ">
<polygon fill="white" stroke="#666666" points="811.5,-19 701.5,-19 701.5,0 811.5,0 811.5,-19"/>
<text text-anchor="middle" x="756.5" y="-7" font-family="Helvetica,sans-Serif" font-size="10.00">cbrc::FLEArray::end</text>
</a>
</g>
</g>
<!-- Node10&#45;&gt;Node12 -->
<g id="edge13_Node000010_Node000012" class="edge">
<title>Node10&#45;&gt;Node12</title>
<g id="a_edge13_Node000010_Node000012"><a xlink:title=" ">
<path fill="none" stroke="#63b8ff" d="M621.9,-22.53C643.27,-20.45 668.37,-18 691.01,-15.79"/>
<polygon fill="#63b8ff" stroke="#63b8ff" points="691.6,-19.25 701.21,-14.8 690.92,-12.28 691.6,-19.25"/>
</a>
</g>
</g>
</g>
</svg>
