<?xml version="1.0" encoding="UTF-8" standalone="no"?>
<!DOCTYPE svg PUBLIC "-//W3C//DTD SVG 1.1//EN"
 "http://www.w3.org/Graphics/SVG/1.1/DTD/svg11.dtd">
<!-- Generated by graphviz version 2.43.0 (0)
 -->
<!-- Title: cbrc::ResidueIndexWindow::windowEndIdx Pages: 1 -->
<svg width="340pt" height="182pt"
 viewBox="0.00 0.00 340.00 182.00" xmlns="http://www.w3.org/2000/svg" xmlns:xlink="http://www.w3.org/1999/xlink">
<g id="graph0" class="graph" transform="scale(1 1) rotate(0) translate(4 178)">
<title>cbrc::ResidueIndexWindow::windowEndIdx</title>
<!-- Node1 -->
<g id="Node000001" class="node">
<title>Node1</title>
<g id="a_Node000001"><a xlink:title=" ">
<polygon fill="#999999" stroke="#666666" points="332,-102 184,-102 184,-72 332,-72 332,-102"/>
<text text-anchor="start" x="192" y="-90" font-family="Helvetica,sans-Serif" font-size="10.00">cbrc::ResidueIndexWindow</text>
<text text-anchor="middle" x="258" y="-79" font-family="Helvetica,sans-Serif" font-size="10.00">::windowEndIdx</text>
</a>
</g>
</g>
<!-- Node2 -->
<g id="Node000002" class="node">
<title>Node2</title>
<g id="a_Node000002"><a xlink:href="classcbrc_1_1ResidueIndexWindow.html#abf405f63380ced4dd7904f1a979636b1" target="_top" xlink:title=" ">
<polygon fill="white" stroke="#666666" points="148,-174 0,-174 0,-144 148,-144 148,-174"/>
<text text-anchor="start" x="8" y="-162" font-family="Helvetica,sans-Serif" font-size="10.00">cbrc::ResidueIndexWindow</text>
<text text-anchor="middle" x="74" y="-151" font-family="Helvetica,sans-Serif" font-size="10.00">::decrement</text>
</a>
</g>
</g>
<!-- Node1&#45;&gt;Node2 -->
<g id="edge1_Node000001_Node000002" class="edge">
<title>Node1&#45;&gt;Node2</title>
<g id="a_edge1_Node000001_Node000002"><a xlink:title=" ">
<path fill="none" stroke="#63b8ff" d="M215.68,-106.33C195.47,-115.49 170.67,-126.31 148,-135 140.03,-138.06 131.48,-141.09 123.14,-143.91"/>
<polygon fill="#63b8ff" stroke="#63b8ff" points="217.27,-109.45 224.91,-102.12 214.36,-103.08 217.27,-109.45"/>
</a>
</g>
</g>
<!-- Node3 -->
<g id="Node000003" class="node">
<title>Node3</title>
<g id="a_Node000003"><a xlink:href="classcbrc_1_1ResidueIndexWindow.html#a6ea351493f7348c3bddc257f97bbbe05" target="_top" xlink:title=" ">
<polygon fill="white" stroke="#666666" points="148,-126 0,-126 0,-96 148,-96 148,-126"/>
<text text-anchor="start" x="8" y="-114" font-family="Helvetica,sans-Serif" font-size="10.00">cbrc::ResidueIndexWindow</text>
<text text-anchor="middle" x="74" y="-103" font-family="Helvetica,sans-Serif" font-size="10.00">::increment</text>
</a>
</g>
</g>
<!-- Node1&#45;&gt;Node3 -->
<g id="edge2_Node000001_Node000003" class="edge">
<title>Node1&#45;&gt;Node3</title>
<g id="a_edge2_Node000001_Node000003"><a xlink:title=" ">
<path fill="none" stroke="#63b8ff" d="M173.76,-97.98C165.2,-99.11 156.54,-100.25 148.09,-101.36"/>
<polygon fill="#63b8ff" stroke="#63b8ff" points="174.3,-101.44 183.76,-96.66 173.39,-94.5 174.3,-101.44"/>
</a>
</g>
</g>
<!-- Node4 -->
<g id="Node000004" class="node">
<title>Node4</title>
<g id="a_Node000004"><a xlink:href="classcbrc_1_1ResidueIndexWindow.html#ad09060963b3e97a62a28dc6d3174ddb2" target="_top" xlink:title=" ">
<polygon fill="white" stroke="#666666" points="148,-78 0,-78 0,-48 148,-48 148,-78"/>
<text text-anchor="start" x="8" y="-66" font-family="Helvetica,sans-Serif" font-size="10.00">cbrc::ResidueIndexWindow</text>
<text text-anchor="middle" x="74" y="-55" font-family="Helvetica,sans-Serif" font-size="10.00">::validBoundaries</text>
</a>
</g>
</g>
<!-- Node1&#45;&gt;Node4 -->
<g id="edge3_Node000001_Node000004" class="edge">
<title>Node1&#45;&gt;Node4</title>
<g id="a_edge3_Node000001_Node000004"><a xlink:title=" ">
<path fill="none" stroke="#63b8ff" d="M173.76,-76.02C165.2,-74.89 156.54,-73.75 148.09,-72.64"/>
<polygon fill="#63b8ff" stroke="#63b8ff" points="173.39,-79.5 183.76,-77.34 174.3,-72.56 173.39,-79.5"/>
</a>
</g>
</g>
<!-- Node5 -->
<g id="Node000005" class="node">
<title>Node5</title>
<g id="a_Node000005"><a xlink:href="classcbrc_1_1ResidueIndexWindow.html#a1b3a2391acb18b92c81cb79a1fd5fbd2" target="_top" xlink:title=" ">
<polygon fill="white" stroke="#666666" points="148,-30 0,-30 0,0 148,0 148,-30"/>
<text text-anchor="start" x="8" y="-18" font-family="Helvetica,sans-Serif" font-size="10.00">cbrc::ResidueIndexWindow</text>
<text text-anchor="middle" x="74" y="-7" font-family="Helvetica,sans-Serif" font-size="10.00">::windowLastPtr</text>
</a>
</g>
</g>
<!-- Node1&#45;&gt;Node5 -->
<g id="edge4_Node000001_Node000005" class="edge">
<title>Node1&#45;&gt;Node5</title>
<g id="a_edge4_Node000001_Node000005"><a xlink:title=" ">
<path fill="none" stroke="#63b8ff" d="M215.68,-67.67C195.47,-58.51 170.67,-47.69 148,-39 140.03,-35.94 131.48,-32.91 123.14,-30.09"/>
<polygon fill="#63b8ff" stroke="#63b8ff" points="214.36,-70.92 224.91,-71.88 217.27,-64.55 214.36,-70.92"/>
</a>
</g>
</g>
</g>
</svg>
