<?xml version="1.0" encoding="UTF-8" standalone="no"?>
<!DOCTYPE svg PUBLIC "-//W3C//DTD SVG 1.1//EN"
 "http://www.w3.org/Graphics/SVG/1.1/DTD/svg11.dtd">
<!-- Generated by graphviz version 2.43.0 (0)
 -->
<!-- Title: cbrc::RecountNeighborProbGraphOnDisk::readFirstNode Pages: 1 -->
<svg width="484pt" height="230pt"
 viewBox="0.00 0.00 484.00 230.00" xmlns="http://www.w3.org/2000/svg" xmlns:xlink="http://www.w3.org/1999/xlink">
<g id="graph0" class="graph" transform="scale(1 1) rotate(0) translate(4 226)">
<title>cbrc::RecountNeighborProbGraphOnDisk::readFirstNode</title>
<!-- Node1 -->
<g id="Node000001" class="node">
<title>Node1</title>
<g id="a_Node000001"><a xlink:title=" ">
<polygon fill="#999999" stroke="#666666" points="476,-126 321,-126 321,-96 476,-96 476,-126"/>
<text text-anchor="start" x="329" y="-114" font-family="Helvetica,sans-Serif" font-size="10.00">cbrc::RecountNeighborProb</text>
<text text-anchor="middle" x="398.5" y="-103" font-family="Helvetica,sans-Serif" font-size="10.00">GraphOnDisk::readFirstNode</text>
</a>
</g>
</g>
<!-- Node2 -->
<g id="Node000002" class="node">
<title>Node2</title>
<g id="a_Node000002"><a xlink:href="namespacecbrc.html#a24f7f1e8980585e72ccf8b7892e66f36" target="_top" xlink:title=" ">
<polygon fill="white" stroke="#666666" points="258.5,-222 103.5,-222 103.5,-192 258.5,-192 258.5,-222"/>
<text text-anchor="start" x="111.5" y="-210" font-family="Helvetica,sans-Serif" font-size="10.00">cbrc::dumpRecountNeighbor</text>
<text text-anchor="middle" x="181" y="-199" font-family="Helvetica,sans-Serif" font-size="10.00">ProbGraphOnDisk</text>
</a>
</g>
</g>
<!-- Node1&#45;&gt;Node2 -->
<g id="edge1_Node000001_Node000002" class="edge">
<title>Node1&#45;&gt;Node2</title>
<g id="a_edge1_Node000001_Node000002"><a xlink:title=" ">
<path fill="none" stroke="#63b8ff" d="M370.16,-132.28C348.25,-148.37 316.12,-169.87 285,-183 276.63,-186.53 267.64,-189.6 258.59,-192.24"/>
<polygon fill="#63b8ff" stroke="#63b8ff" points="372.4,-134.98 378.32,-126.19 368.22,-129.37 372.4,-134.98"/>
</a>
</g>
</g>
<!-- Node4 -->
<g id="Node000004" class="node">
<title>Node4</title>
<g id="a_Node000004"><a xlink:href="classcbrc_1_1RecountComputerForGraphOnDisk.html#aee9119b27415ef994a51e9fd079b8439" target="_top" xlink:title=" ">
<polygon fill="white" stroke="#666666" points="278,-174 84,-174 84,-144 278,-144 278,-174"/>
<text text-anchor="start" x="92" y="-162" font-family="Helvetica,sans-Serif" font-size="10.00">cbrc::RecountComputerFor</text>
<text text-anchor="middle" x="181" y="-151" font-family="Helvetica,sans-Serif" font-size="10.00">GraphOnDisk::meanCountsFromTrue</text>
</a>
</g>
</g>
<!-- Node1&#45;&gt;Node4 -->
<g id="edge3_Node000001_Node000004" class="edge">
<title>Node1&#45;&gt;Node4</title>
<g id="a_edge3_Node000001_Node000004"><a xlink:title=" ">
<path fill="none" stroke="#63b8ff" d="M320.13,-128.23C296.98,-133.39 271.8,-139 249.35,-144"/>
<polygon fill="#63b8ff" stroke="#63b8ff" points="320.91,-131.65 329.91,-126.06 319.38,-124.81 320.91,-131.65"/>
</a>
</g>
</g>
<!-- Node5 -->
<g id="Node000005" class="node">
<title>Node5</title>
<g id="a_Node000005"><a xlink:href="classcbrc_1_1RecountComputerForGraphOnDisk.html#a88d2ea948f615339b406e08768f41029" target="_top" xlink:title=" ">
<polygon fill="white" stroke="#666666" points="278,-126 84,-126 84,-96 278,-96 278,-126"/>
<text text-anchor="start" x="92" y="-114" font-family="Helvetica,sans-Serif" font-size="10.00">cbrc::RecountComputerFor</text>
<text text-anchor="middle" x="181" y="-103" font-family="Helvetica,sans-Serif" font-size="10.00">GraphOnDisk::meanCountsFromTrue</text>
</a>
</g>
</g>
<!-- Node1&#45;&gt;Node5 -->
<g id="edge4_Node000001_Node000005" class="edge">
<title>Node1&#45;&gt;Node5</title>
<g id="a_edge4_Node000001_Node000005"><a xlink:title=" ">
<path fill="none" stroke="#63b8ff" d="M310.78,-111C300.1,-111 289.13,-111 278.32,-111"/>
<polygon fill="#63b8ff" stroke="#63b8ff" points="310.92,-114.5 320.92,-111 310.92,-107.5 310.92,-114.5"/>
</a>
</g>
</g>
<!-- Node6 -->
<g id="Node000006" class="node">
<title>Node6</title>
<g id="a_Node000006"><a xlink:href="classcbrc_1_1RecountComputerForGraphOnDisk.html#a9ec4f1d1273a0cda2bb005bcedc056f6" target="_top" xlink:title=" ">
<polygon fill="white" stroke="#666666" points="285,-78 77,-78 77,-48 285,-48 285,-78"/>
<text text-anchor="start" x="85" y="-66" font-family="Helvetica,sans-Serif" font-size="10.00">cbrc::RecountComputerFor</text>
<text text-anchor="middle" x="181" y="-55" font-family="Helvetica,sans-Serif" font-size="10.00">GraphOnDisk::varianceCountsFromTrue</text>
</a>
</g>
</g>
<!-- Node1&#45;&gt;Node6 -->
<g id="edge5_Node000001_Node000006" class="edge">
<title>Node1&#45;&gt;Node6</title>
<g id="a_edge5_Node000001_Node000006"><a xlink:title=" ">
<path fill="none" stroke="#63b8ff" d="M320.13,-93.77C296.98,-88.61 271.8,-83 249.35,-78"/>
<polygon fill="#63b8ff" stroke="#63b8ff" points="319.38,-97.19 329.91,-95.94 320.91,-90.35 319.38,-97.19"/>
</a>
</g>
</g>
<!-- Node7 -->
<g id="Node000007" class="node">
<title>Node7</title>
<g id="a_Node000007"><a xlink:href="classcbrc_1_1RecountComputerForGraphOnDisk.html#a5d0f07fd22c5c6f153a4d4a659ac585d" target="_top" xlink:title=" ">
<polygon fill="white" stroke="#666666" points="285,-30 77,-30 77,0 285,0 285,-30"/>
<text text-anchor="start" x="85" y="-18" font-family="Helvetica,sans-Serif" font-size="10.00">cbrc::RecountComputerFor</text>
<text text-anchor="middle" x="181" y="-7" font-family="Helvetica,sans-Serif" font-size="10.00">GraphOnDisk::varianceCountsFromTrue</text>
</a>
</g>
</g>
<!-- Node1&#45;&gt;Node7 -->
<g id="edge6_Node000001_Node000007" class="edge">
<title>Node1&#45;&gt;Node7</title>
<g id="a_edge6_Node000001_Node000007"><a xlink:title=" ">
<path fill="none" stroke="#63b8ff" d="M370.16,-89.72C348.25,-73.63 316.12,-52.13 285,-39 276.88,-35.58 268.18,-32.59 259.41,-30"/>
<polygon fill="#63b8ff" stroke="#63b8ff" points="368.22,-92.63 378.32,-95.81 372.4,-87.02 368.22,-92.63"/>
</a>
</g>
</g>
<!-- Node3 -->
<g id="Node000003" class="node">
<title>Node3</title>
<g id="a_Node000003"><a xlink:href="dumpRecountNeighborProbGraphOnDisk_8cc.html#ac0f2228420376f4db7e1274f2b41667c" target="_top" xlink:title=" ">
<polygon fill="white" stroke="#666666" points="41,-216.5 0,-216.5 0,-197.5 41,-197.5 41,-216.5"/>
<text text-anchor="middle" x="20.5" y="-204.5" font-family="Helvetica,sans-Serif" font-size="10.00">main</text>
</a>
</g>
</g>
<!-- Node2&#45;&gt;Node3 -->
<g id="edge2_Node000002_Node000003" class="edge">
<title>Node2&#45;&gt;Node3</title>
<g id="a_edge2_Node000002_Node000003"><a xlink:title=" ">
<path fill="none" stroke="#63b8ff" d="M92.89,-207C73.49,-207 54.73,-207 41.31,-207"/>
<polygon fill="#63b8ff" stroke="#63b8ff" points="93.07,-210.5 103.07,-207 93.07,-203.5 93.07,-210.5"/>
</a>
</g>
</g>
</g>
</svg>
