<?xml version="1.0" encoding="UTF-8" standalone="no"?>
<!DOCTYPE svg PUBLIC "-//W3C//DTD SVG 1.1//EN"
 "http://www.w3.org/Graphics/SVG/1.1/DTD/svg11.dtd">
<!-- Generated by graphviz version 2.43.0 (0)
 -->
<!-- Title: cbrc::TagSet::toString Pages: 1 -->
<svg width="574pt" height="129pt"
 viewBox="0.00 0.00 574.00 129.00" xmlns="http://www.w3.org/2000/svg" xmlns:xlink="http://www.w3.org/1999/xlink">
<g id="graph0" class="graph" transform="scale(1 1) rotate(0) translate(4 125)">
<title>cbrc::TagSet::toString</title>
<!-- Node1 -->
<g id="Node000001" class="node">
<title>Node1</title>
<g id="a_Node000001"><a xlink:title=" ">
<polygon fill="#999999" stroke="#666666" points="566,-72.5 447,-72.5 447,-53.5 566,-53.5 566,-72.5"/>
<text text-anchor="middle" x="506.5" y="-60.5" font-family="Helvetica,sans-Serif" font-size="10.00">cbrc::TagSet::toString</text>
</a>
</g>
</g>
<!-- Node1&#45;&gt;Node1 -->
<g id="edge7_Node000001_Node000001" class="edge">
<title>Node1&#45;&gt;Node1</title>
<g id="a_edge7_Node000001_Node000001"><a xlink:title=" ">
<path fill="none" stroke="#63b8ff" d="M537.49,-81.32C536.19,-86.51 525.86,-90.5 506.5,-90.5 477,-90.5 468.47,-81.23 480.91,-72.58"/>
<polygon fill="#63b8ff" stroke="#63b8ff" points="540.32,-79.25 532.09,-72.58 534.37,-82.93 540.32,-79.25"/>
</a>
</g>
</g>
<!-- Node2 -->
<g id="Node000002" class="node">
<title>Node2</title>
<g id="a_Node000002"><a xlink:href="namespacecbrc.html#a84ee4f3b9c5b23c9af8b9ad89eb40229" target="_top" xlink:title=" ">
<polygon fill="white" stroke="#666666" points="405.5,-115.5 273.5,-115.5 273.5,-96.5 405.5,-96.5 405.5,-115.5"/>
<text text-anchor="middle" x="339.5" y="-103.5" font-family="Helvetica,sans-Serif" font-size="10.00">cbrc::dumpNeighborList</text>
</a>
</g>
</g>
<!-- Node1&#45;&gt;Node2 -->
<g id="edge1_Node000001_Node000002" class="edge">
<title>Node1&#45;&gt;Node2</title>
<g id="a_edge1_Node000001_Node000002"><a xlink:title=" ">
<path fill="none" stroke="#63b8ff" d="M458.89,-75.15C432.95,-81.91 401.13,-90.2 377.02,-96.48"/>
<polygon fill="#63b8ff" stroke="#63b8ff" points="460.09,-78.45 468.88,-72.54 458.32,-71.68 460.09,-78.45"/>
</a>
</g>
</g>
<!-- Node5 -->
<g id="Node000005" class="node">
<title>Node5</title>
<g id="a_Node000005"><a xlink:href="namespacecbrc.html#aa3b9b929137a6f28e0e85c38c585b1de" target="_top" xlink:title=" ">
<polygon fill="white" stroke="#666666" points="411,-78 268,-78 268,-48 411,-48 411,-78"/>
<text text-anchor="start" x="276" y="-66" font-family="Helvetica,sans-Serif" font-size="10.00">cbrc::observedMeanStdev</text>
<text text-anchor="middle" x="339.5" y="-55" font-family="Helvetica,sans-Serif" font-size="10.00">_fromTrueCounts</text>
</a>
</g>
</g>
<!-- Node1&#45;&gt;Node5 -->
<g id="edge4_Node000001_Node000005" class="edge">
<title>Node1&#45;&gt;Node5</title>
<g id="a_edge4_Node000001_Node000005"><a xlink:title=" ">
<path fill="none" stroke="#63b8ff" d="M436.67,-63C428.22,-63 419.57,-63 411.09,-63"/>
<polygon fill="#63b8ff" stroke="#63b8ff" points="436.86,-66.5 446.86,-63 436.86,-59.5 436.86,-66.5"/>
</a>
</g>
</g>
<!-- Node7 -->
<g id="Node000007" class="node">
<title>Node7</title>
<g id="a_Node000007"><a xlink:href="classcbrc_1_1RecountTagCounts.html#acd1777fe0146b66edf2e93a42f3be23f" target="_top" xlink:title=" ">
<polygon fill="white" stroke="#666666" points="406,-30 273,-30 273,0 406,0 406,-30"/>
<text text-anchor="start" x="281" y="-18" font-family="Helvetica,sans-Serif" font-size="10.00">cbrc::RecountTagCounts</text>
<text text-anchor="middle" x="339.5" y="-7" font-family="Helvetica,sans-Serif" font-size="10.00">::print</text>
</a>
</g>
</g>
<!-- Node1&#45;&gt;Node7 -->
<g id="edge6_Node000001_Node000007" class="edge">
<title>Node1&#45;&gt;Node7</title>
<g id="a_edge6_Node000001_Node000007"><a xlink:title=" ">
<path fill="none" stroke="#63b8ff" d="M462.67,-50.54C441.16,-44.28 414.92,-36.65 392.28,-30.06"/>
<polygon fill="#63b8ff" stroke="#63b8ff" points="461.93,-53.97 472.51,-53.4 463.88,-47.25 461.93,-53.97"/>
</a>
</g>
</g>
<!-- Node3 -->
<g id="Node000003" class="node">
<title>Node3</title>
<g id="a_Node000003"><a xlink:href="namespacecbrc.html#a24f7f1e8980585e72ccf8b7892e66f36" target="_top" xlink:title=" ">
<polygon fill="white" stroke="#666666" points="232,-121 77,-121 77,-91 232,-91 232,-121"/>
<text text-anchor="start" x="85" y="-109" font-family="Helvetica,sans-Serif" font-size="10.00">cbrc::dumpRecountNeighbor</text>
<text text-anchor="middle" x="154.5" y="-98" font-family="Helvetica,sans-Serif" font-size="10.00">ProbGraphOnDisk</text>
</a>
</g>
</g>
<!-- Node2&#45;&gt;Node3 -->
<g id="edge2_Node000002_Node000003" class="edge">
<title>Node2&#45;&gt;Node3</title>
<g id="a_edge2_Node000002_Node000003"><a xlink:title=" ">
<path fill="none" stroke="#63b8ff" d="M263.31,-106C253.05,-106 242.5,-106 232.21,-106"/>
<polygon fill="#63b8ff" stroke="#63b8ff" points="263.47,-109.5 273.47,-106 263.47,-102.5 263.47,-109.5"/>
</a>
</g>
</g>
<!-- Node4 -->
<g id="Node000004" class="node">
<title>Node4</title>
<g id="a_Node000004"><a xlink:href="dumpRecountNeighborProbGraphOnDisk_8cc.html#ac0f2228420376f4db7e1274f2b41667c" target="_top" xlink:title=" ">
<polygon fill="white" stroke="#666666" points="41,-115.5 0,-115.5 0,-96.5 41,-96.5 41,-115.5"/>
<text text-anchor="middle" x="20.5" y="-103.5" font-family="Helvetica,sans-Serif" font-size="10.00">main</text>
</a>
</g>
</g>
<!-- Node3&#45;&gt;Node4 -->
<g id="edge3_Node000003_Node000004" class="edge">
<title>Node3&#45;&gt;Node4</title>
<g id="a_edge3_Node000003_Node000004"><a xlink:title=" ">
<path fill="none" stroke="#63b8ff" d="M66.69,-106C57.26,-106 48.46,-106 41.17,-106"/>
<polygon fill="#63b8ff" stroke="#63b8ff" points="66.72,-109.5 76.72,-106 66.72,-102.5 66.72,-109.5"/>
</a>
</g>
</g>
<!-- Node6 -->
<g id="Node000006" class="node">
<title>Node6</title>
<g id="a_Node000006"><a xlink:href="observedMeanStdev__fromTrueCounts_8cc.html#ac0f2228420376f4db7e1274f2b41667c" target="_top" xlink:title=" ">
<polygon fill="white" stroke="#666666" points="175,-72.5 134,-72.5 134,-53.5 175,-53.5 175,-72.5"/>
<text text-anchor="middle" x="154.5" y="-60.5" font-family="Helvetica,sans-Serif" font-size="10.00">main</text>
</a>
</g>
</g>
<!-- Node5&#45;&gt;Node6 -->
<g id="edge5_Node000005_Node000006" class="edge">
<title>Node5&#45;&gt;Node6</title>
<g id="a_edge5_Node000005_Node000006"><a xlink:title=" ">
<path fill="none" stroke="#63b8ff" d="M257.54,-63C227.19,-63 195.27,-63 175.38,-63"/>
<polygon fill="#63b8ff" stroke="#63b8ff" points="257.75,-66.5 267.75,-63 257.75,-59.5 257.75,-66.5"/>
</a>
</g>
</g>
</g>
</svg>
