<?xml version="1.0" encoding="UTF-8" standalone="no"?>
<!DOCTYPE svg PUBLIC "-//W3C//DTD SVG 1.1//EN"
 "http://www.w3.org/Graphics/SVG/1.1/DTD/svg11.dtd">
<!-- Generated by graphviz version 2.43.0 (0)
 -->
<!-- Title: cbrc::Sigma4FLArray::size Pages: 1 -->
<svg width="588pt" height="374pt"
 viewBox="0.00 0.00 588.00 374.00" xmlns="http://www.w3.org/2000/svg" xmlns:xlink="http://www.w3.org/1999/xlink">
<g id="graph0" class="graph" transform="scale(1 1) rotate(0) translate(4 370)">
<title>cbrc::Sigma4FLArray::size</title>
<!-- Node1 -->
<g id="Node000001" class="node">
<title>Node1</title>
<g id="a_Node000001"><a xlink:title=" ">
<polygon fill="#999999" stroke="#666666" points="580,-179 462,-179 462,-149 580,-149 580,-179"/>
<text text-anchor="start" x="470" y="-167" font-family="Helvetica,sans-Serif" font-size="10.00">cbrc::Sigma4FLArray</text>
<text text-anchor="middle" x="521" y="-156" font-family="Helvetica,sans-Serif" font-size="10.00">::size</text>
</a>
</g>
</g>
<!-- Node2 -->
<g id="Node000002" class="node">
<title>Node2</title>
<g id="a_Node000002"><a xlink:href="classcbrc_1_1Sigma4FLArray.html#af1c9ea644bdaaf73010d2699d5fa388e" target="_top" xlink:title=" ">
<polygon fill="white" stroke="#666666" points="426,-222 308,-222 308,-192 426,-192 426,-222"/>
<text text-anchor="start" x="316" y="-210" font-family="Helvetica,sans-Serif" font-size="10.00">cbrc::Sigma4FLArray</text>
<text text-anchor="middle" x="367" y="-199" font-family="Helvetica,sans-Serif" font-size="10.00">::byteSize</text>
</a>
</g>
</g>
<!-- Node1&#45;&gt;Node2 -->
<g id="edge1_Node000001_Node000002" class="edge">
<title>Node1&#45;&gt;Node2</title>
<g id="a_edge1_Node000001_Node000002"><a xlink:title=" ">
<path fill="none" stroke="#63b8ff" d="M456.96,-181.83C445.05,-185.2 432.7,-188.7 421.13,-191.97"/>
<polygon fill="#63b8ff" stroke="#63b8ff" points="458.17,-185.13 466.84,-179.04 456.26,-178.39 458.17,-185.13"/>
</a>
</g>
</g>
<!-- Node4 -->
<g id="Node000004" class="node">
<title>Node4</title>
<g id="a_Node000004"><a xlink:href="classcbrc_1_1Sigma4FLArray.html#ae17dae7693135ed86baee63b1ca0041e" target="_top" xlink:title=" ">
<polygon fill="white" stroke="#666666" points="272,-366 154,-366 154,-336 272,-336 272,-366"/>
<text text-anchor="start" x="162" y="-354" font-family="Helvetica,sans-Serif" font-size="10.00">cbrc::Sigma4FLArray</text>
<text text-anchor="middle" x="213" y="-343" font-family="Helvetica,sans-Serif" font-size="10.00">::operator!=</text>
</a>
</g>
</g>
<!-- Node1&#45;&gt;Node4 -->
<g id="edge12_Node000001_Node000004" class="edge">
<title>Node1&#45;&gt;Node4</title>
<g id="a_edge12_Node000001_Node000004"><a xlink:title=" ">
<path fill="none" stroke="#63b8ff" d="M503.58,-187.48C486.49,-210.43 457.8,-245.05 426,-267 378.43,-299.83 316.17,-322.54 271.44,-335.99"/>
<polygon fill="#63b8ff" stroke="#63b8ff" points="506.48,-189.44 509.55,-179.3 500.83,-185.31 506.48,-189.44"/>
</a>
</g>
</g>
<!-- Node5 -->
<g id="Node000005" class="node">
<title>Node5</title>
<g id="a_Node000005"><a xlink:href="classcbrc_1_1Sigma4FLArray.html#a5ce7cfd99f65bd0745f819200a4ecd64" target="_top" xlink:title=" ">
<polygon fill="white" stroke="#666666" points="272,-318 154,-318 154,-288 272,-288 272,-318"/>
<text text-anchor="start" x="162" y="-306" font-family="Helvetica,sans-Serif" font-size="10.00">cbrc::Sigma4FLArray</text>
<text text-anchor="middle" x="213" y="-295" font-family="Helvetica,sans-Serif" font-size="10.00">::operator&lt;</text>
</a>
</g>
</g>
<!-- Node1&#45;&gt;Node5 -->
<g id="edge13_Node000001_Node000005" class="edge">
<title>Node1&#45;&gt;Node5</title>
<g id="a_edge13_Node000001_Node000005"><a xlink:title=" ">
<path fill="none" stroke="#63b8ff" d="M494.48,-185.31C476.28,-199.71 450.75,-218.32 426,-231 376.35,-256.43 315.75,-275.97 272.08,-288.24"/>
<polygon fill="#63b8ff" stroke="#63b8ff" points="496.69,-188.02 502.3,-179.03 492.31,-182.57 496.69,-188.02"/>
</a>
</g>
</g>
<!-- Node7 -->
<g id="Node000007" class="node">
<title>Node7</title>
<g id="a_Node000007"><a xlink:href="classcbrc_1_1Sigma4FLArray.html#a38482099a35fdfa8757dd6eca3f499fb" target="_top" xlink:title=" ">
<polygon fill="white" stroke="#666666" points="272,-30 154,-30 154,0 272,0 272,-30"/>
<text text-anchor="start" x="162" y="-18" font-family="Helvetica,sans-Serif" font-size="10.00">cbrc::Sigma4FLArray</text>
<text text-anchor="middle" x="213" y="-7" font-family="Helvetica,sans-Serif" font-size="10.00">::operator==</text>
</a>
</g>
</g>
<!-- Node1&#45;&gt;Node7 -->
<g id="edge15_Node000001_Node000007" class="edge">
<title>Node1&#45;&gt;Node7</title>
<g id="a_edge15_Node000001_Node000007"><a xlink:title=" ">
<path fill="none" stroke="#63b8ff" d="M451.55,-175.74C406.21,-179.56 347.97,-176.43 308,-145 268.89,-114.24 306.02,-75.3 272,-39 268.8,-35.58 265.03,-32.63 260.99,-30.09"/>
<polygon fill="#63b8ff" stroke="#63b8ff" points="451.98,-179.21 461.6,-174.76 451.3,-172.24 451.98,-179.21"/>
</a>
</g>
</g>
<!-- Node12 -->
<g id="Node000012" class="node">
<title>Node12</title>
<g id="a_Node000012"><a xlink:href="classcbrc_1_1Sigma4FLArray.html#a339333d90f5c7a0422b58bcad8d212c5" target="_top" xlink:title=" ">
<polygon fill="white" stroke="#666666" points="426,-136 308,-136 308,-106 426,-106 426,-136"/>
<text text-anchor="start" x="316" y="-124" font-family="Helvetica,sans-Serif" font-size="10.00">cbrc::Sigma4FLArray</text>
<text text-anchor="middle" x="367" y="-113" font-family="Helvetica,sans-Serif" font-size="10.00">::c_str</text>
</a>
</g>
</g>
<!-- Node1&#45;&gt;Node12 -->
<g id="edge11_Node000001_Node000012" class="edge">
<title>Node1&#45;&gt;Node12</title>
<g id="a_edge11_Node000001_Node000012"><a xlink:title=" ">
<path fill="none" stroke="#63b8ff" d="M456.96,-146.17C445.05,-142.8 432.7,-139.3 421.13,-136.03"/>
<polygon fill="#63b8ff" stroke="#63b8ff" points="456.26,-149.61 466.84,-148.96 458.17,-142.87 456.26,-149.61"/>
</a>
</g>
</g>
<!-- Node13 -->
<g id="Node000013" class="node">
<title>Node13</title>
<g id="a_Node000013"><a xlink:href="namespacecbrc.html#a192988794e249080995c331611199154" target="_top" xlink:title=" ">
<polygon fill="white" stroke="#666666" points="417.5,-87.5 316.5,-87.5 316.5,-68.5 417.5,-68.5 417.5,-87.5"/>
<text text-anchor="middle" x="367" y="-75.5" font-family="Helvetica,sans-Serif" font-size="10.00">cbrc::operator&lt;&lt;</text>
</a>
</g>
</g>
<!-- Node1&#45;&gt;Node13 -->
<g id="edge14_Node000001_Node000013" class="edge">
<title>Node1&#45;&gt;Node13</title>
<g id="a_edge14_Node000001_Node000013"><a xlink:title=" ">
<path fill="none" stroke="#63b8ff" d="M494.53,-142.6C476.35,-128.17 450.82,-109.54 426,-97 418.81,-93.37 410.78,-90.22 403.04,-87.58"/>
<polygon fill="#63b8ff" stroke="#63b8ff" points="492.35,-145.35 502.33,-148.9 496.75,-139.9 492.35,-145.35"/>
</a>
</g>
</g>
<!-- Node14 -->
<g id="Node000014" class="node">
<title>Node14</title>
<g id="a_Node000014"><a xlink:href="classcbrc_1_1Sigma4FLArray.html#af1588d0eff1fc8fa2108082a93d2fd50" target="_top" xlink:title=" ">
<polygon fill="white" stroke="#666666" points="426,-50 308,-50 308,-20 426,-20 426,-50"/>
<text text-anchor="start" x="316" y="-38" font-family="Helvetica,sans-Serif" font-size="10.00">cbrc::Sigma4FLArray</text>
<text text-anchor="middle" x="367" y="-27" font-family="Helvetica,sans-Serif" font-size="10.00">::toByteVector</text>
</a>
</g>
</g>
<!-- Node1&#45;&gt;Node14 -->
<g id="edge16_Node000001_Node000014" class="edge">
<title>Node1&#45;&gt;Node14</title>
<g id="a_edge16_Node000001_Node000014"><a xlink:title=" ">
<path fill="none" stroke="#63b8ff" d="M503.49,-140.49C486.32,-117.46 457.58,-82.62 426,-60 420.83,-56.3 415.02,-52.99 409.14,-50.09"/>
<polygon fill="#63b8ff" stroke="#63b8ff" points="500.76,-142.68 509.48,-148.69 506.41,-138.55 500.76,-142.68"/>
</a>
</g>
</g>
<!-- Node3 -->
<g id="Node000003" class="node">
<title>Node3</title>
<g id="a_Node000003"><a xlink:href="classcbrc_1_1Sigma4FLArray.html#aeb3ca3e54fbd2b206567785d34adbc09" target="_top" xlink:title=" ">
<polygon fill="white" stroke="#666666" points="272,-78 154,-78 154,-48 272,-48 272,-78"/>
<text text-anchor="start" x="162" y="-66" font-family="Helvetica,sans-Serif" font-size="10.00">cbrc::Sigma4FLArray</text>
<text text-anchor="middle" x="213" y="-55" font-family="Helvetica,sans-Serif" font-size="10.00">::hexDump</text>
</a>
</g>
</g>
<!-- Node2&#45;&gt;Node3 -->
<g id="edge2_Node000002_Node000003" class="edge">
<title>Node2&#45;&gt;Node3</title>
<g id="a_edge2_Node000002_Node000003"><a xlink:title=" ">
<path fill="none" stroke="#63b8ff" d="M317.21,-186.2C313.87,-183.72 310.75,-181 308,-178 278.61,-145.94 302.51,-117.99 272,-87 268.64,-83.58 264.72,-80.63 260.53,-78.09"/>
<polygon fill="#63b8ff" stroke="#63b8ff" points="315.58,-189.32 325.87,-191.84 319.41,-183.45 315.58,-189.32"/>
</a>
</g>
</g>
<!-- Node2&#45;&gt;Node4 -->
<g id="edge3_Node000002_Node000004" class="edge">
<title>Node2&#45;&gt;Node4</title>
<g id="a_edge3_Node000002_Node000004"><a xlink:title=" ">
<path fill="none" stroke="#63b8ff" d="M352.4,-231.03C336.26,-257.67 307.07,-300.38 272,-327 267.57,-330.36 262.61,-333.33 257.5,-335.94"/>
<polygon fill="#63b8ff" stroke="#63b8ff" points="355.47,-232.72 357.55,-222.33 349.45,-229.15 355.47,-232.72"/>
</a>
</g>
</g>
<!-- Node2&#45;&gt;Node5 -->
<g id="edge4_Node000002_Node000005" class="edge">
<title>Node2&#45;&gt;Node5</title>
<g id="a_edge4_Node000002_Node000005"><a xlink:title=" ">
<path fill="none" stroke="#63b8ff" d="M341.14,-228.94C322.89,-244.3 297.02,-264.58 272,-279 266.43,-282.21 260.35,-285.22 254.28,-287.94"/>
<polygon fill="#63b8ff" stroke="#63b8ff" points="343.62,-231.42 348.96,-222.27 339.08,-226.1 343.62,-231.42"/>
</a>
</g>
</g>
<!-- Node6 -->
<g id="Node000006" class="node">
<title>Node6</title>
<g id="a_Node000006"><a xlink:href="classcbrc_1_1Sigma4FLArray.html#aa7b8a1acc000ecfa1c44f75c354b8f69" target="_top" xlink:title=" ">
<polygon fill="white" stroke="#666666" points="272,-270 154,-270 154,-240 272,-240 272,-270"/>
<text text-anchor="start" x="162" y="-258" font-family="Helvetica,sans-Serif" font-size="10.00">cbrc::Sigma4FLArray</text>
<text text-anchor="middle" x="213" y="-247" font-family="Helvetica,sans-Serif" font-size="10.00">::operator=</text>
</a>
</g>
</g>
<!-- Node2&#45;&gt;Node6 -->
<g id="edge5_Node000002_Node000006" class="edge">
<title>Node2&#45;&gt;Node6</title>
<g id="a_edge5_Node000002_Node000006"><a xlink:title=" ">
<path fill="none" stroke="#63b8ff" d="M308.35,-225.21C292.89,-230.09 276.35,-235.31 261.51,-240"/>
<polygon fill="#63b8ff" stroke="#63b8ff" points="309.84,-228.4 318.32,-222.06 307.73,-221.73 309.84,-228.4"/>
</a>
</g>
</g>
<!-- Node2&#45;&gt;Node7 -->
<g id="edge6_Node000002_Node000007" class="edge">
<title>Node2&#45;&gt;Node7</title>
<g id="a_edge6_Node000002_Node000007"><a xlink:title=" ">
<path fill="none" stroke="#63b8ff" d="M316.23,-186.11C313.2,-183.67 310.41,-180.98 308,-178 267.86,-128.39 313.88,-87.15 272,-39 269,-35.55 265.42,-32.58 261.53,-30.03"/>
<polygon fill="#63b8ff" stroke="#63b8ff" points="314.5,-189.17 324.71,-191.98 318.48,-183.41 314.5,-189.17"/>
</a>
</g>
</g>
<!-- Node8 -->
<g id="Node000008" class="node">
<title>Node8</title>
<g id="a_Node000008"><a xlink:href="classcbrc_1_1Sigma4FLArray.html#a5e39b1484abcc17ab8ec03d2d5cf2b22" target="_top" xlink:title=" ">
<polygon fill="white" stroke="#666666" points="272,-222 154,-222 154,-192 272,-192 272,-222"/>
<text text-anchor="start" x="162" y="-210" font-family="Helvetica,sans-Serif" font-size="10.00">cbrc::Sigma4FLArray</text>
<text text-anchor="middle" x="213" y="-199" font-family="Helvetica,sans-Serif" font-size="10.00">::read</text>
</a>
</g>
</g>
<!-- Node2&#45;&gt;Node8 -->
<g id="edge7_Node000002_Node000008" class="edge">
<title>Node2&#45;&gt;Node8</title>
<g id="a_edge7_Node000002_Node000008"><a xlink:title=" ">
<path fill="none" stroke="#63b8ff" d="M297.46,-207C289.01,-207 280.45,-207 272.18,-207"/>
<polygon fill="#63b8ff" stroke="#63b8ff" points="297.67,-210.5 307.67,-207 297.67,-203.5 297.67,-210.5"/>
</a>
</g>
</g>
<!-- Node10 -->
<g id="Node000010" class="node">
<title>Node10</title>
<g id="a_Node000010"><a xlink:href="classcbrc_1_1Sigma4FLArray.html#a8ebbd3b0cc48af9ef44d33ebacdda702" target="_top" xlink:title=" ">
<polygon fill="white" stroke="#666666" points="272,-174 154,-174 154,-144 272,-144 272,-174"/>
<text text-anchor="start" x="162" y="-162" font-family="Helvetica,sans-Serif" font-size="10.00">cbrc::Sigma4FLArray</text>
<text text-anchor="middle" x="213" y="-151" font-family="Helvetica,sans-Serif" font-size="10.00">::Sigma4FLArray</text>
</a>
</g>
</g>
<!-- Node2&#45;&gt;Node10 -->
<g id="edge9_Node000002_Node000010" class="edge">
<title>Node2&#45;&gt;Node10</title>
<g id="a_edge9_Node000002_Node000010"><a xlink:title=" ">
<path fill="none" stroke="#63b8ff" d="M308.35,-188.79C292.89,-183.91 276.35,-178.69 261.51,-174"/>
<polygon fill="#63b8ff" stroke="#63b8ff" points="307.73,-192.27 318.32,-191.94 309.84,-185.6 307.73,-192.27"/>
</a>
</g>
</g>
<!-- Node11 -->
<g id="Node000011" class="node">
<title>Node11</title>
<g id="a_Node000011"><a xlink:href="classcbrc_1_1Sigma4FLArray.html#a766ae133656d06b16da11c81b2cbcbfa" target="_top" xlink:title=" ">
<polygon fill="white" stroke="#666666" points="272,-126 154,-126 154,-96 272,-96 272,-126"/>
<text text-anchor="start" x="162" y="-114" font-family="Helvetica,sans-Serif" font-size="10.00">cbrc::Sigma4FLArray</text>
<text text-anchor="middle" x="213" y="-103" font-family="Helvetica,sans-Serif" font-size="10.00">::write</text>
</a>
</g>
</g>
<!-- Node2&#45;&gt;Node11 -->
<g id="edge10_Node000002_Node000011" class="edge">
<title>Node2&#45;&gt;Node11</title>
<g id="a_edge10_Node000002_Node000011"><a xlink:title=" ">
<path fill="none" stroke="#63b8ff" d="M321.06,-186.9C316.48,-184.17 312.04,-181.19 308,-178 288.44,-162.55 292.09,-149.75 272,-135 267.43,-131.65 262.33,-128.67 257.09,-126.05"/>
<polygon fill="#63b8ff" stroke="#63b8ff" points="319.51,-190.05 329.95,-191.86 322.92,-183.93 319.51,-190.05"/>
</a>
</g>
</g>
<!-- Node9 -->
<g id="Node000009" class="node">
<title>Node9</title>
<g id="a_Node000009"><a xlink:href="classcbrc_1_1Sigma4FLArray.html#aad29ef74aca295b0030fa1832c807bf1" target="_top" xlink:title=" ">
<polygon fill="white" stroke="#666666" points="118,-222 0,-222 0,-192 118,-192 118,-222"/>
<text text-anchor="start" x="8" y="-210" font-family="Helvetica,sans-Serif" font-size="10.00">cbrc::Sigma4FLArray</text>
<text text-anchor="middle" x="59" y="-199" font-family="Helvetica,sans-Serif" font-size="10.00">::Sigma4FLArray</text>
</a>
</g>
</g>
<!-- Node8&#45;&gt;Node9 -->
<g id="edge8_Node000008_Node000009" class="edge">
<title>Node8&#45;&gt;Node9</title>
<g id="a_edge8_Node000008_Node000009"><a xlink:title=" ">
<path fill="none" stroke="#63b8ff" d="M143.46,-207C135.01,-207 126.45,-207 118.18,-207"/>
<polygon fill="#63b8ff" stroke="#63b8ff" points="143.67,-210.5 153.67,-207 143.67,-203.5 143.67,-210.5"/>
</a>
</g>
</g>
</g>
</svg>
