<?xml version="1.0" encoding="UTF-8" standalone="no"?>
<!DOCTYPE svg PUBLIC "-//W3C//DTD SVG 1.1//EN"
 "http://www.w3.org/Graphics/SVG/1.1/DTD/svg11.dtd">
<!-- Generated by graphviz version 2.43.0 (0)
 -->
<!-- Title: cbrc::FLSorted2TypePairSet&lt; T0, T1 &gt; Pages: 1 -->
<svg width="387pt" height="255pt"
 viewBox="0.00 0.00 387.00 255.00" xmlns="http://www.w3.org/2000/svg" xmlns:xlink="http://www.w3.org/1999/xlink">

<svg id="main" version="1.1" xmlns="http://www.w3.org/2000/svg" xmlns:xlink="http://www.w3.org/1999/xlink" xml:space="preserve" onload="init(evt)">
<style type="text/css"><![CDATA[
.node, .edge {opacity: 0.7;}
.node.selected, .edge.selected {opacity: 1;}
.edge:hover path { stroke: red; }
.edge:hover polygon { stroke: red; fill: red; }
]]></style>
<script type="application/ecmascript" xlink:href="svg.min.js"/>
<svg id="graph" class="graph">
<g id="graph0" class="graph" transform="scale(1 1) rotate(0) translate(4 251)">
<title>cbrc::FLSorted2TypePairSet&lt; T0, T1 &gt;</title>
<!-- Node1 -->
<g id="Node000001" class="node">
<title>Node1</title>
<g id="a_Node000001"><a xlink:title=" ">
<polygon fill="#999999" stroke="#666666" points="150,-30 2,-30 2,0 150,0 150,-30"/>
<text text-anchor="start" x="10" y="-18" font-family="Helvetica,sans-Serif" font-size="10.00">cbrc::FLSorted2TypePairSet</text>
<text text-anchor="middle" x="76" y="-7" font-family="Helvetica,sans-Serif" font-size="10.00">&lt; T0, T1 &gt;</text>
</a>
</g>
</g>
<!-- Node2 -->
<g id="Node000002" class="node">
<title>Node2</title>
<g id="a_Node000002"><a xlink:href="classcbrc_1_1FLSorted.html" target="_top" xlink:title=" ">
<polygon fill="white" stroke="#666666" points="120,-144 0,-144 0,-125 120,-125 120,-144"/>
<text text-anchor="middle" x="60" y="-132" font-family="Helvetica,sans-Serif" font-size="10.00">cbrc::FLSorted&lt; T0 &gt;</text>
</a>
</g>
</g>
<!-- Node2&#45;&gt;Node1 -->
<g id="edge1_Node000001_Node000002" class="edge">
<title>Node2&#45;&gt;Node1</title>
<g id="a_edge1_Node000001_Node000002"><a xlink:title=" ">
<path fill="none" stroke="#9a32cd" stroke-dasharray="5,2" d="M62.58,-114.56C65.78,-91.03 71.18,-51.42 74.05,-30.29"/>
<polygon fill="#9a32cd" stroke="#9a32cd" points="59.08,-114.29 61.2,-124.67 66.02,-115.23 59.08,-114.29"/>
</a>
</g>
<text text-anchor="middle" x="95.5" y="-89.5" font-family="Helvetica,sans-Serif" font-size="10.00" fill="grey"> lhsToIndex</text>
</g>
<!-- Node3 -->
<g id="Node000003" class="node">
<title>Node3</title>
<g id="a_Node000003"><a xlink:href="classcbrc_1_1FLSorted.html" target="_top" xlink:title=" ">
<polygon fill="white" stroke="#666666" points="147,-247 33,-247 33,-228 147,-228 147,-247"/>
<text text-anchor="middle" x="90" y="-235" font-family="Helvetica,sans-Serif" font-size="10.00">cbrc::FLSorted&lt; T &gt;</text>
</a>
</g>
</g>
<!-- Node3&#45;&gt;Node2 -->
<g id="edge2_Node000002_Node000003" class="edge">
<title>Node3&#45;&gt;Node2</title>
<g id="a_edge2_Node000002_Node000003"><a xlink:title=" ">
<path fill="none" stroke="orange" stroke-dasharray="5,2" d="M78.25,-218.99C76.64,-216.08 75.15,-213.02 74,-210 65.27,-187.13 61.84,-158.16 60.61,-144.03"/>
<polygon fill="orange" stroke="orange" points="75.31,-220.9 83.52,-227.6 81.28,-217.24 75.31,-220.9"/>
</a>
</g>
<text text-anchor="middle" x="93" y="-202" font-family="Helvetica,sans-Serif" font-size="10.00" fill="grey"> &lt; T0 &gt;</text>
</g>
<!-- Node5 -->
<g id="Node000005" class="node">
<title>Node5</title>
<g id="a_Node000005"><a xlink:href="classcbrc_1_1FLSorted.html" target="_top" xlink:title=" ">
<polygon fill="white" stroke="#666666" points="208,-181 88,-181 88,-162 208,-162 208,-181"/>
<text text-anchor="middle" x="148" y="-169" font-family="Helvetica,sans-Serif" font-size="10.00">cbrc::FLSorted&lt; T1 &gt;</text>
</a>
</g>
</g>
<!-- Node3&#45;&gt;Node5 -->
<g id="edge5_Node000005_Node000003" class="edge">
<title>Node3&#45;&gt;Node5</title>
<g id="a_edge5_Node000005_Node000003"><a xlink:title=" ">
<path fill="none" stroke="orange" stroke-dasharray="5,2" d="M104.84,-220.12C116,-207.81 130.88,-191.39 139.93,-181.41"/>
<polygon fill="orange" stroke="orange" points="101.94,-218.11 97.82,-227.87 107.13,-222.81 101.94,-218.11"/>
</a>
</g>
<text text-anchor="middle" x="142" y="-202" font-family="Helvetica,sans-Serif" font-size="10.00" fill="grey"> &lt; T1 &gt;</text>
</g>
<!-- Node4 -->
<g id="Node000004" class="node">
<title>Node4</title>
<g id="a_Node000004"><a xlink:href="classcbrc_1_1FLArray.html" target="_top" xlink:title=" ">
<polygon fill="white" stroke="#666666" points="246.5,-107 133.5,-107 133.5,-77 246.5,-77 246.5,-107"/>
<text text-anchor="start" x="141.5" y="-95" font-family="Helvetica,sans-Serif" font-size="10.00">cbrc::FLArray&lt; cbrc</text>
<text text-anchor="middle" x="190" y="-84" font-family="Helvetica,sans-Serif" font-size="10.00">::FLSorted&lt; T1 &gt; &gt;</text>
</a>
</g>
</g>
<!-- Node4&#45;&gt;Node1 -->
<g id="edge3_Node000001_Node000004" class="edge">
<title>Node4&#45;&gt;Node1</title>
<g id="a_edge3_Node000001_Node000004"><a xlink:title=" ">
<path fill="none" stroke="#9a32cd" stroke-dasharray="5,2" d="M159.95,-71.23C140.26,-58.28 114.99,-41.65 97.35,-30.04"/>
<polygon fill="#9a32cd" stroke="#9a32cd" points="158.28,-74.32 168.56,-76.89 162.13,-68.47 158.28,-74.32"/>
</a>
</g>
<text text-anchor="middle" x="192.5" y="-51" font-family="Helvetica,sans-Serif" font-size="10.00" fill="grey"> lhsIndexToRhsSorted</text>
</g>
<!-- Node5&#45;&gt;Node4 -->
<g id="edge4_Node000004_Node000005" class="edge">
<title>Node5&#45;&gt;Node4</title>
<g id="a_edge4_Node000004_Node000005"><a xlink:title=" ">
<path fill="none" stroke="#9a32cd" stroke-dasharray="5,2" d="M157.53,-152.91C165.04,-139.06 175.36,-120.01 182.34,-107.14"/>
<polygon fill="#9a32cd" stroke="#9a32cd" points="154.34,-151.45 152.66,-161.91 160.5,-154.79 154.34,-151.45"/>
</a>
</g>
<text text-anchor="middle" x="177" y="-132" font-family="Helvetica,sans-Serif" font-size="10.00" fill="grey"> a</text>
</g>
<!-- Node6 -->
<g id="Node000006" class="node">
<title>Node6</title>
<g id="a_Node000006"><a xlink:href="classcbrc_1_1FLArray.html" target="_top" xlink:title=" ">
<polygon fill="white" stroke="#666666" points="336,-181 226,-181 226,-162 336,-162 336,-181"/>
<text text-anchor="middle" x="281" y="-169" font-family="Helvetica,sans-Serif" font-size="10.00">cbrc::FLArray&lt; T &gt;</text>
</a>
</g>
</g>
<!-- Node6&#45;&gt;Node4 -->
<g id="edge6_Node000004_Node000006" class="edge">
<title>Node6&#45;&gt;Node4</title>
<g id="a_edge6_Node000004_Node000006"><a xlink:title=" ">
<path fill="none" stroke="orange" stroke-dasharray="5,2" d="M263.12,-155.27C246.71,-141.3 222.59,-120.76 206.6,-107.14"/>
<polygon fill="orange" stroke="orange" points="261.03,-158.09 270.91,-161.91 265.57,-152.76 261.03,-158.09"/>
</a>
</g>
<text text-anchor="middle" x="314" y="-132" font-family="Helvetica,sans-Serif" font-size="10.00" fill="grey"> &lt; cbrc::FLSorted&lt; T1 &gt; &gt;</text>
</g>
</g>
</svg>
</svg>

<style type='text/css'>
<![CDATA[
[data-mouse-over-selected='false'] { opacity: 0.7; }
[data-mouse-over-selected='true']  { opacity: 1.0; }
]]>
</style>
<script type="application/ecmascript"><![CDATA[
document.addEventListener('DOMContentLoaded', (event) => {
  highlightEdges();
  highlightAdjacentNodes();
});
]]></script>
</svg>
