<?xml version="1.0" encoding="UTF-8" standalone="no"?>
<!DOCTYPE svg PUBLIC "-//W3C//DTD SVG 1.1//EN"
 "http://www.w3.org/Graphics/SVG/1.1/DTD/svg11.dtd">
<!-- Generated by graphviz version 2.43.0 (0)
 -->
<!-- Title: cbrc::GlobalAffineDist::distBounded Pages: 1 -->
<svg width="593pt" height="111pt"
 viewBox="0.00 0.00 593.00 110.88" xmlns="http://www.w3.org/2000/svg" xmlns:xlink="http://www.w3.org/1999/xlink">
<g id="graph0" class="graph" transform="scale(1 1) rotate(0) translate(4 106.88)">
<title>cbrc::GlobalAffineDist::distBounded</title>
<!-- Node1 -->
<g id="Node000001" class="node">
<title>Node1</title>
<g id="a_Node000001"><a xlink:title=" ">
<polygon fill="#999999" stroke="#666666" points="122,-44.88 0,-44.88 0,-14.88 122,-14.88 122,-44.88"/>
<text text-anchor="start" x="8" y="-32.88" font-family="Helvetica,sans-Serif" font-size="10.00">cbrc::GlobalAffineDist</text>
<text text-anchor="middle" x="61" y="-21.88" font-family="Helvetica,sans-Serif" font-size="10.00">::distBounded</text>
</a>
</g>
</g>
<!-- Node2 -->
<g id="Node000002" class="node">
<title>Node2</title>
<g id="a_Node000002"><a xlink:href="classcbrc_1_1GlobalAffineDist.html#ab23672914cfff53daa2e8d95f762840b" target="_top" xlink:title=" ">
<polygon fill="white" stroke="#666666" points="280,-44.88 158,-44.88 158,-14.88 280,-14.88 280,-44.88"/>
<text text-anchor="start" x="166" y="-32.88" font-family="Helvetica,sans-Serif" font-size="10.00">cbrc::GlobalAffineDist</text>
<text text-anchor="middle" x="219" y="-21.88" font-family="Helvetica,sans-Serif" font-size="10.00">::bestPossibleDist</text>
</a>
</g>
</g>
<!-- Node1&#45;&gt;Node2 -->
<g id="edge1_Node000001_Node000002" class="edge">
<title>Node1&#45;&gt;Node2</title>
<g id="a_edge1_Node000001_Node000002"><a xlink:title=" ">
<path fill="none" stroke="#63b8ff" d="M122.31,-29.88C130.6,-29.88 139.17,-29.88 147.63,-29.88"/>
<polygon fill="#63b8ff" stroke="#63b8ff" points="147.85,-33.38 157.85,-29.88 147.85,-26.38 147.85,-33.38"/>
</a>
</g>
</g>
<!-- Node3 -->
<g id="Node000003" class="node">
<title>Node3</title>
<g id="a_Node000003"><a xlink:href="classcbrc_1_1GlobalAffineDist.html#a1af85861050e6d0162c5e7f7df1a3c86" target="_top" xlink:title=" ">
<polygon fill="white" stroke="#666666" points="438,-84.88 316,-84.88 316,-54.88 438,-54.88 438,-84.88"/>
<text text-anchor="start" x="324" y="-72.88" font-family="Helvetica,sans-Serif" font-size="10.00">cbrc::GlobalAffineDist</text>
<text text-anchor="middle" x="377" y="-61.88" font-family="Helvetica,sans-Serif" font-size="10.00">::dist</text>
</a>
</g>
</g>
<!-- Node1&#45;&gt;Node3 -->
<g id="edge6_Node000001_Node000003" class="edge">
<title>Node1&#45;&gt;Node3</title>
<g id="a_edge6_Node000001_Node000003"><a xlink:title=" ">
<path fill="none" stroke="#63b8ff" d="M115.23,-44.92C129.06,-48.35 144.01,-51.64 158,-53.88 207.08,-61.76 263.02,-65.76 305.94,-67.8"/>
<polygon fill="#63b8ff" stroke="#63b8ff" points="305.85,-71.3 316,-68.25 306.17,-64.3 305.85,-71.3"/>
</a>
</g>
</g>
<!-- Node4 -->
<g id="Node000004" class="node">
<title>Node4</title>
<g id="a_Node000004"><a xlink:href="classcbrc_1_1FLEArray.html#ad71311380d762114c9e0f3b0dda38b7c" target="_top" xlink:title=" ">
<polygon fill="white" stroke="#666666" points="585,-36.38 474,-36.38 474,-17.38 585,-17.38 585,-36.38"/>
<text text-anchor="middle" x="529.5" y="-24.38" font-family="Helvetica,sans-Serif" font-size="10.00">cbrc::FLEArray::size</text>
</a>
</g>
</g>
<!-- Node1&#45;&gt;Node4 -->
<g id="edge7_Node000001_Node000004" class="edge">
<title>Node1&#45;&gt;Node4</title>
<g id="a_edge7_Node000001_Node000004"><a xlink:title=" ">
<path fill="none" stroke="#63b8ff" d="M112.38,-14.83C126.96,-11.14 143,-7.73 158,-5.88 264.72,7.26 389.77,-5.66 463.88,-16.25"/>
<polygon fill="#63b8ff" stroke="#63b8ff" points="463.59,-19.74 473.99,-17.72 464.6,-12.82 463.59,-19.74"/>
</a>
</g>
</g>
<!-- Node2&#45;&gt;Node3 -->
<g id="edge2_Node000002_Node000003" class="edge">
<title>Node2&#45;&gt;Node3</title>
<g id="a_edge2_Node000002_Node000003"><a xlink:title=" ">
<path fill="none" stroke="#63b8ff" d="M278.53,-44.89C287.96,-47.31 297.8,-49.83 307.45,-52.3"/>
<polygon fill="#63b8ff" stroke="#63b8ff" points="306.84,-55.76 317.4,-54.86 308.58,-48.98 306.84,-55.76"/>
</a>
</g>
</g>
<!-- Node2&#45;&gt;Node4 -->
<g id="edge5_Node000002_Node000004" class="edge">
<title>Node2&#45;&gt;Node4</title>
<g id="a_edge5_Node000002_Node000004"><a xlink:title=" ">
<path fill="none" stroke="#63b8ff" d="M280.21,-29.3C333.01,-28.78 409.58,-28.04 463.7,-27.51"/>
<polygon fill="#63b8ff" stroke="#63b8ff" points="463.9,-31.01 473.87,-27.41 463.83,-24.01 463.9,-31.01"/>
</a>
</g>
</g>
<!-- Node3&#45;&gt;Node3 -->
<g id="edge3_Node000003_Node000003" class="edge">
<title>Node3&#45;&gt;Node3</title>
<g id="a_edge3_Node000003_Node000003"><a xlink:title=" ">
<path fill="none" stroke="#63b8ff" d="M350.28,-85.16C344.34,-94.29 353.25,-102.88 377,-102.88 391.1,-102.88 399.97,-99.85 403.61,-95.48"/>
<polygon fill="#63b8ff" stroke="#63b8ff" points="407.11,-95.2 403.72,-85.16 400.11,-95.12 407.11,-95.2"/>
</a>
</g>
</g>
<!-- Node3&#45;&gt;Node4 -->
<g id="edge4_Node000003_Node000004" class="edge">
<title>Node3&#45;&gt;Node4</title>
<g id="a_edge4_Node000003_Node000004"><a xlink:title=" ">
<path fill="none" stroke="#63b8ff" d="M430.64,-54.84C448.49,-49.74 468.22,-44.1 485.26,-39.24"/>
<polygon fill="#63b8ff" stroke="#63b8ff" points="486.29,-42.58 494.95,-36.47 484.37,-35.85 486.29,-42.58"/>
</a>
</g>
</g>
</g>
</svg>
