<?xml version="1.0" encoding="UTF-8" standalone="no"?>
<!DOCTYPE svg PUBLIC "-//W3C//DTD SVG 1.1//EN"
 "http://www.w3.org/Graphics/SVG/1.1/DTD/svg11.dtd">
<!-- Generated by graphviz version 2.43.0 (0)
 -->
<!-- Title: cbrc::ArgvParser::set Pages: 1 -->
<svg width="631pt" height="120pt"
 viewBox="0.00 0.00 631.00 120.29" xmlns="http://www.w3.org/2000/svg" xmlns:xlink="http://www.w3.org/1999/xlink">
<g id="graph0" class="graph" transform="scale(1 1) rotate(0) translate(4 116.29)">
<title>cbrc::ArgvParser::set</title>
<!-- Node1 -->
<g id="Node000001" class="node">
<title>Node1</title>
<g id="a_Node000001"><a xlink:title=" ">
<polygon fill="#999999" stroke="#666666" points="116,-74 0,-74 0,-55 116,-55 116,-74"/>
<text text-anchor="middle" x="58" y="-62" font-family="Helvetica,sans-Serif" font-size="10.00">cbrc::ArgvParser::set</text>
</a>
</g>
</g>
<!-- Node2 -->
<g id="Node000002" class="node">
<title>Node2</title>
<g id="a_Node000002"><a xlink:href="classcbrc_1_1ArgvParser.html#af2a832f8094ea123b64c182612023d7f" target="_top" xlink:title=" ">
<polygon fill="white" stroke="#666666" points="268,-74 152,-74 152,-55 268,-55 268,-74"/>
<text text-anchor="middle" x="210" y="-62" font-family="Helvetica,sans-Serif" font-size="10.00">cbrc::ArgvParser::set</text>
</a>
</g>
</g>
<!-- Node1&#45;&gt;Node2 -->
<g id="edge1_Node000001_Node000002" class="edge">
<title>Node1&#45;&gt;Node2</title>
<g id="a_edge1_Node000001_Node000002"><a xlink:title=" ">
<path fill="none" stroke="#63b8ff" d="M116.14,-64.5C124.38,-64.5 132.92,-64.5 141.34,-64.5"/>
<polygon fill="#63b8ff" stroke="#63b8ff" points="141.53,-68 151.53,-64.5 141.53,-61 141.53,-68"/>
</a>
</g>
</g>
<!-- Node3 -->
<g id="Node000003" class="node">
<title>Node3</title>
<g id="a_Node000003"><a xlink:href="namespacecbrc.html#a94ca1678e0481b17626977da7cfb798b" target="_top" xlink:title=" ">
<polygon fill="white" stroke="#666666" points="623,-112 475,-112 475,-93 623,-93 623,-112"/>
<text text-anchor="middle" x="549" y="-100" font-family="Helvetica,sans-Serif" font-size="10.00">cbrc::_argvParserNullString</text>
</a>
</g>
</g>
<!-- Node2&#45;&gt;Node3 -->
<g id="edge2_Node000002_Node000003" class="edge">
<title>Node2&#45;&gt;Node3</title>
<g id="a_edge2_Node000002_Node000003"><a xlink:title=" ">
<path fill="none" stroke="#63b8ff" d="M228.53,-74.08C246.77,-83.45 276.45,-97.09 304,-102.5 356.76,-112.86 417.19,-112.95 464.71,-110.4"/>
<polygon fill="#63b8ff" stroke="#63b8ff" points="465.18,-113.88 474.96,-109.8 464.77,-106.89 465.18,-113.88"/>
</a>
</g>
</g>
<!-- Node4 -->
<g id="Node000004" class="node">
<title>Node4</title>
<g id="a_Node000004"><a xlink:href="classcbrc_1_1ArgvParser.html#aad8dc9d595217cf4ad2a7f557371d3ab" target="_top" xlink:title=" ">
<polygon fill="white" stroke="#666666" points="429.5,-56 313.5,-56 313.5,-37 429.5,-37 429.5,-56"/>
<text text-anchor="middle" x="371.5" y="-44" font-family="Helvetica,sans-Serif" font-size="10.00">cbrc::ArgvParser::die</text>
</a>
</g>
</g>
<!-- Node2&#45;&gt;Node4 -->
<g id="edge3_Node000002_Node000004" class="edge">
<title>Node2&#45;&gt;Node4</title>
<g id="a_edge3_Node000002_Node000004"><a xlink:title=" ">
<path fill="none" stroke="#63b8ff" d="M268.13,-58.05C279.54,-56.77 291.62,-55.4 303.33,-54.08"/>
<polygon fill="#63b8ff" stroke="#63b8ff" points="303.95,-57.53 313.5,-52.93 303.17,-50.58 303.95,-57.53"/>
</a>
</g>
</g>
<!-- Node7 -->
<g id="Node000007" class="node">
<title>Node7</title>
<g id="a_Node000007"><a xlink:href="classcbrc_1_1ArgvParser.html#a273ad44f1f402d2a9c31d5cb04c2a63f" target="_top" xlink:title=" ">
<polygon fill="white" stroke="#666666" points="438.5,-93 304.5,-93 304.5,-74 438.5,-74 438.5,-93"/>
<text text-anchor="middle" x="371.5" y="-81" font-family="Helvetica,sans-Serif" font-size="10.00">cbrc::ArgvParser::getArg</text>
</a>
</g>
</g>
<!-- Node2&#45;&gt;Node7 -->
<g id="edge6_Node000002_Node000007" class="edge">
<title>Node2&#45;&gt;Node7</title>
<g id="a_edge6_Node000002_Node000007"><a xlink:title=" ">
<path fill="none" stroke="#63b8ff" d="M268.13,-71.31C276.55,-72.31 285.33,-73.35 294.06,-74.39"/>
<polygon fill="#63b8ff" stroke="#63b8ff" points="293.92,-77.9 304.26,-75.61 294.74,-70.95 293.92,-77.9"/>
</a>
</g>
</g>
<!-- Node8 -->
<g id="Node000008" class="node">
<title>Node8</title>
<g id="a_Node000008"><a xlink:href="classcbrc_1_1ArgvParser.html#acfc1ef9228adb3bfe47ba9c9e68e68cd" target="_top" xlink:title=" ">
<polygon fill="white" stroke="#666666" points="439,-19 304,-19 304,0 439,0 439,-19"/>
<text text-anchor="middle" x="371.5" y="-7" font-family="Helvetica,sans-Serif" font-size="10.00">cbrc::ArgvParser::hasArg</text>
</a>
</g>
</g>
<!-- Node2&#45;&gt;Node8 -->
<g id="edge8_Node000002_Node000008" class="edge">
<title>Node2&#45;&gt;Node8</title>
<g id="a_edge8_Node000002_Node000008"><a xlink:title=" ">
<path fill="none" stroke="#63b8ff" d="M234.1,-54.88C252.79,-47.27 279.87,-36.6 304,-28.5 310.65,-26.27 317.74,-24.06 324.7,-21.99"/>
<polygon fill="#63b8ff" stroke="#63b8ff" points="326.14,-25.22 334.77,-19.06 324.19,-18.5 326.14,-25.22"/>
</a>
</g>
</g>
<!-- Node5 -->
<g id="Node000005" class="node">
<title>Node5</title>
<g id="a_Node000005"><a xlink:href="classcbrc_1_1FLEArray.html#ad71311380d762114c9e0f3b0dda38b7c" target="_top" xlink:title=" ">
<polygon fill="white" stroke="#666666" points="604.5,-75 493.5,-75 493.5,-56 604.5,-56 604.5,-75"/>
<text text-anchor="middle" x="549" y="-63" font-family="Helvetica,sans-Serif" font-size="10.00">cbrc::FLEArray::size</text>
</a>
</g>
</g>
<!-- Node4&#45;&gt;Node5 -->
<g id="edge4_Node000004_Node000005" class="edge">
<title>Node4&#45;&gt;Node5</title>
<g id="a_edge4_Node000004_Node000005"><a xlink:title=" ">
<path fill="none" stroke="#63b8ff" d="M429.97,-52.72C447.01,-54.57 465.8,-56.6 483.27,-58.49"/>
<polygon fill="#63b8ff" stroke="#63b8ff" points="483.07,-61.99 493.39,-59.59 483.82,-55.03 483.07,-61.99"/>
</a>
</g>
</g>
<!-- Node6 -->
<g id="Node000006" class="node">
<title>Node6</title>
<g id="a_Node000006"><a xlink:href="classcbrc_1_1ArgvParser.html#a1b7d257748fcfaa9a9a3cf46bc36a7e5" target="_top" xlink:title=" ">
<polygon fill="white" stroke="#666666" points="614.5,-38 483.5,-38 483.5,-19 614.5,-19 614.5,-38"/>
<text text-anchor="middle" x="549" y="-26" font-family="Helvetica,sans-Serif" font-size="10.00">cbrc::ArgvParser::usage</text>
</a>
</g>
</g>
<!-- Node4&#45;&gt;Node6 -->
<g id="edge5_Node000004_Node000006" class="edge">
<title>Node4&#45;&gt;Node6</title>
<g id="a_edge5_Node000004_Node000006"><a xlink:title=" ">
<path fill="none" stroke="#63b8ff" d="M429.97,-40.61C443.85,-39.18 458.9,-37.64 473.45,-36.15"/>
<polygon fill="#63b8ff" stroke="#63b8ff" points="473.83,-39.63 483.42,-35.12 473.11,-32.66 473.83,-39.63"/>
</a>
</g>
</g>
<!-- Node7&#45;&gt;Node3 -->
<g id="edge7_Node000007_Node000003" class="edge">
<title>Node7&#45;&gt;Node3</title>
<g id="a_edge7_Node000007_Node000003"><a xlink:title=" ">
<path fill="none" stroke="#63b8ff" d="M438.85,-90.68C447.29,-91.6 456.01,-92.54 464.68,-93.48"/>
<polygon fill="#63b8ff" stroke="#63b8ff" points="464.49,-96.98 474.81,-94.58 465.24,-90.02 464.49,-96.98"/>
</a>
</g>
</g>
</g>
</svg>
