<?xml version="1.0" encoding="UTF-8" standalone="no"?>
<!DOCTYPE svg PUBLIC "-//W3C//DTD SVG 1.1//EN"
 "http://www.w3.org/Graphics/SVG/1.1/DTD/svg11.dtd">
<!-- Generated by graphviz version 2.43.0 (0)
 -->
<!-- Title: cbrc::SeqGlobalAffineAligner::singleSeqBasedScoreUpperBound Pages: 1 -->
<svg width="577pt" height="96pt"
 viewBox="0.00 0.00 577.00 95.50" xmlns="http://www.w3.org/2000/svg" xmlns:xlink="http://www.w3.org/1999/xlink">
<g id="graph0" class="graph" transform="scale(1 1) rotate(0) translate(4 91.5)">
<title>cbrc::SeqGlobalAffineAligner::singleSeqBasedScoreUpperBound</title>
<!-- Node1 -->
<g id="Node000001" class="node">
<title>Node1</title>
<g id="a_Node000001"><a xlink:title=" ">
<polygon fill="#999999" stroke="#666666" points="187,-46.5 0,-46.5 0,-16.5 187,-16.5 187,-46.5"/>
<text text-anchor="start" x="8" y="-34.5" font-family="Helvetica,sans-Serif" font-size="10.00">cbrc::SeqGlobalAffineAligner</text>
<text text-anchor="middle" x="93.5" y="-23.5" font-family="Helvetica,sans-Serif" font-size="10.00">::singleSeqBasedScoreUpperBound</text>
</a>
</g>
</g>
<!-- Node2 -->
<g id="Node000002" class="node">
<title>Node2</title>
<g id="a_Node000002"><a xlink:href="classcbrc_1_1SeqGlobalAffineAligner.html#abfd1556484b4c230c84fe4d1af47003e" target="_top" xlink:title=" ">
<polygon fill="white" stroke="#666666" points="569,-87.5 414,-87.5 414,-57.5 569,-57.5 569,-87.5"/>
<text text-anchor="start" x="422" y="-75.5" font-family="Helvetica,sans-Serif" font-size="10.00">cbrc::SeqGlobalAffineAligner</text>
<text text-anchor="middle" x="491.5" y="-64.5" font-family="Helvetica,sans-Serif" font-size="10.00">::resSubScore</text>
</a>
</g>
</g>
<!-- Node1&#45;&gt;Node2 -->
<g id="edge1_Node000001_Node000002" class="edge">
<title>Node1&#45;&gt;Node2</title>
<g id="a_edge1_Node000001_Node000002"><a xlink:title=" ">
<path fill="none" stroke="#63b8ff" d="M130.3,-46.58C155.67,-56.43 190.78,-68.37 223,-73.5 282.77,-83.02 351,-82.59 403.59,-79.87"/>
<polygon fill="#63b8ff" stroke="#63b8ff" points="404.11,-83.35 413.9,-79.3 403.72,-76.36 404.11,-83.35"/>
</a>
</g>
</g>
<!-- Node3 -->
<g id="Node000003" class="node">
<title>Node3</title>
<g id="a_Node000003"><a xlink:href="classcbrc_1_1SeqGlobalAffineAligner.html#adfd8b999555e636f3035fe57a4c9a815" target="_top" xlink:title=" ">
<polygon fill="white" stroke="#666666" points="378,-46.5 223,-46.5 223,-16.5 378,-16.5 378,-46.5"/>
<text text-anchor="start" x="231" y="-34.5" font-family="Helvetica,sans-Serif" font-size="10.00">cbrc::SeqGlobalAffineAligner</text>
<text text-anchor="middle" x="300.5" y="-23.5" font-family="Helvetica,sans-Serif" font-size="10.00">::score</text>
</a>
</g>
</g>
<!-- Node1&#45;&gt;Node3 -->
<g id="edge2_Node000001_Node000003" class="edge">
<title>Node1&#45;&gt;Node3</title>
<g id="a_edge2_Node000001_Node000003"><a xlink:title=" ">
<path fill="none" stroke="#63b8ff" d="M187.1,-31.5C195.63,-31.5 204.24,-31.5 212.71,-31.5"/>
<polygon fill="#63b8ff" stroke="#63b8ff" points="212.96,-35 222.96,-31.5 212.96,-28 212.96,-35"/>
</a>
</g>
</g>
<!-- Node4 -->
<g id="Node000004" class="node">
<title>Node4</title>
<g id="a_Node000004"><a xlink:href="classcbrc_1_1FLEArray.html#ad71311380d762114c9e0f3b0dda38b7c" target="_top" xlink:title=" ">
<polygon fill="white" stroke="#666666" points="547,-19 436,-19 436,0 547,0 547,-19"/>
<text text-anchor="middle" x="491.5" y="-7" font-family="Helvetica,sans-Serif" font-size="10.00">cbrc::FLEArray::size</text>
</a>
</g>
</g>
<!-- Node1&#45;&gt;Node4 -->
<g id="edge6_Node000001_Node000004" class="edge">
<title>Node1&#45;&gt;Node4</title>
<g id="a_edge6_Node000001_Node000004"><a xlink:title=" ">
<path fill="none" stroke="#63b8ff" d="M161.86,-16.5C181.47,-12.79 203,-9.35 223,-7.5 291.6,-1.15 309.11,-6.89 378,-7.5 393.46,-7.64 410.12,-7.88 425.75,-8.15"/>
<polygon fill="#63b8ff" stroke="#63b8ff" points="425.8,-11.65 435.86,-8.33 425.92,-4.65 425.8,-11.65"/>
</a>
</g>
</g>
<!-- Node3&#45;&gt;Node2 -->
<g id="edge3_Node000003_Node000002" class="edge">
<title>Node3&#45;&gt;Node2</title>
<g id="a_edge3_Node000003_Node000002"><a xlink:title=" ">
<path fill="none" stroke="#63b8ff" d="M370.8,-46.53C383.9,-49.38 397.69,-52.37 411.07,-55.27"/>
<polygon fill="#63b8ff" stroke="#63b8ff" points="410.69,-58.77 421.2,-57.47 412.17,-51.93 410.69,-58.77"/>
</a>
</g>
</g>
<!-- Node3&#45;&gt;Node3 -->
<g id="edge4_Node000003_Node000003" class="edge">
<title>Node3&#45;&gt;Node3</title>
<g id="a_edge4_Node000003_Node000003"><a xlink:title=" ">
<path fill="none" stroke="#63b8ff" d="M267.1,-46.78C259.68,-55.91 270.81,-64.5 300.5,-64.5 318.13,-64.5 329.21,-61.47 333.76,-57.1"/>
<polygon fill="#63b8ff" stroke="#63b8ff" points="337.26,-56.82 333.9,-46.78 330.26,-56.73 337.26,-56.82"/>
</a>
</g>
</g>
<!-- Node3&#45;&gt;Node4 -->
<g id="edge5_Node000003_Node000004" class="edge">
<title>Node3&#45;&gt;Node4</title>
<g id="a_edge5_Node000003_Node000004"><a xlink:title=" ">
<path fill="none" stroke="#63b8ff" d="M378.1,-22.58C393.81,-20.75 410.21,-18.85 425.47,-17.07"/>
<polygon fill="#63b8ff" stroke="#63b8ff" points="426.3,-20.5 435.83,-15.86 425.49,-13.54 426.3,-20.5"/>
</a>
</g>
</g>
</g>
</svg>
