<?xml version="1.0" encoding="UTF-8" standalone="no"?>
<!DOCTYPE svg PUBLIC "-//W3C//DTD SVG 1.1//EN"
 "http://www.w3.org/Graphics/SVG/1.1/DTD/svg11.dtd">
<!-- Generated by graphviz version 2.43.0 (0)
 -->
<!-- Title: cbrc::FLNumArray::operator= Pages: 1 -->
<svg width="773pt" height="138pt"
 viewBox="0.00 0.00 773.00 138.00" xmlns="http://www.w3.org/2000/svg" xmlns:xlink="http://www.w3.org/1999/xlink">
<g id="graph0" class="graph" transform="scale(1 1) rotate(0) translate(4 134)">
<title>cbrc::FLNumArray::operator=</title>
<!-- Node1 -->
<g id="Node000001" class="node">
<title>Node1</title>
<g id="a_Node000001"><a xlink:title=" ">
<polygon fill="#999999" stroke="#666666" points="158,-56 0,-56 0,-37 158,-37 158,-56"/>
<text text-anchor="middle" x="79" y="-44" font-family="Helvetica,sans-Serif" font-size="10.00">cbrc::FLNumArray::operator=</text>
</a>
</g>
</g>
<!-- Node2 -->
<g id="Node000002" class="node">
<title>Node2</title>
<g id="a_Node000002"><a xlink:href="classcbrc_1_1FLArray.html#a818d65bad9bda6eae641ec21c3a46fe6" target="_top" xlink:title=" ">
<polygon fill="white" stroke="#666666" points="312.5,-93 194.5,-93 194.5,-74 312.5,-74 312.5,-93"/>
<text text-anchor="middle" x="253.5" y="-81" font-family="Helvetica,sans-Serif" font-size="10.00">cbrc::FLArray::assign</text>
</a>
</g>
</g>
<!-- Node1&#45;&gt;Node2 -->
<g id="edge1_Node000001_Node000002" class="edge">
<title>Node1&#45;&gt;Node2</title>
<g id="a_edge1_Node000001_Node000002"><a xlink:title=" ">
<path fill="none" stroke="#63b8ff" d="M124.42,-56.03C146.87,-60.84 174.31,-66.73 198.02,-71.81"/>
<polygon fill="#63b8ff" stroke="#63b8ff" points="197.42,-75.26 207.93,-73.94 198.88,-68.42 197.42,-75.26"/>
</a>
</g>
</g>
<!-- Node8 -->
<g id="Node000008" class="node">
<title>Node8</title>
<g id="a_Node000008"><a xlink:href="classcbrc_1_1FLEArray.html#a7e5d0d3bc5c41546620ccff95b55b3fa" target="_top" xlink:title=" ">
<polygon fill="white" stroke="#666666" points="313,-56 194,-56 194,-37 313,-37 313,-56"/>
<text text-anchor="middle" x="253.5" y="-44" font-family="Helvetica,sans-Serif" font-size="10.00">cbrc::FLEArray::begin</text>
</a>
</g>
</g>
<!-- Node1&#45;&gt;Node8 -->
<g id="edge7_Node000001_Node000008" class="edge">
<title>Node1&#45;&gt;Node8</title>
<g id="a_edge7_Node000001_Node000008"><a xlink:title=" ">
<path fill="none" stroke="#63b8ff" d="M158.17,-46.5C166.73,-46.5 175.39,-46.5 183.82,-46.5"/>
<polygon fill="#63b8ff" stroke="#63b8ff" points="183.96,-50 193.96,-46.5 183.96,-43 183.96,-50"/>
</a>
</g>
</g>
<!-- Node9 -->
<g id="Node000009" class="node">
<title>Node9</title>
<g id="a_Node000009"><a xlink:href="classcbrc_1_1FLEArray.html#a8c53878dc57e8f666976e041d146a523" target="_top" xlink:title=" ">
<polygon fill="white" stroke="#666666" points="308.5,-19 198.5,-19 198.5,0 308.5,0 308.5,-19"/>
<text text-anchor="middle" x="253.5" y="-7" font-family="Helvetica,sans-Serif" font-size="10.00">cbrc::FLEArray::end</text>
</a>
</g>
</g>
<!-- Node1&#45;&gt;Node9 -->
<g id="edge8_Node000001_Node000009" class="edge">
<title>Node1&#45;&gt;Node9</title>
<g id="a_edge8_Node000001_Node000009"><a xlink:title=" ">
<path fill="none" stroke="#63b8ff" d="M124.42,-36.97C146.87,-32.16 174.31,-26.27 198.02,-21.19"/>
<polygon fill="#63b8ff" stroke="#63b8ff" points="198.88,-24.58 207.93,-19.06 197.42,-17.74 198.88,-24.58"/>
</a>
</g>
</g>
<!-- Node3 -->
<g id="Node000003" class="node">
<title>Node3</title>
<g id="a_Node000003"><a xlink:href="classcbrc_1_1FLArray.html#a85c424891630d9513cf3c8dbe1bd766a" target="_top" xlink:title=" ">
<polygon fill="white" stroke="#666666" points="463.5,-130 350.5,-130 350.5,-111 463.5,-111 463.5,-130"/>
<text text-anchor="middle" x="407" y="-118" font-family="Helvetica,sans-Serif" font-size="10.00">cbrc::FLArray::begin</text>
</a>
</g>
</g>
<!-- Node2&#45;&gt;Node3 -->
<g id="edge2_Node000002_Node000003" class="edge">
<title>Node2&#45;&gt;Node3</title>
<g id="a_edge2_Node000002_Node000003"><a xlink:title=" ">
<path fill="none" stroke="#63b8ff" d="M293.52,-93.03C312.88,-97.76 336.47,-103.52 357.03,-108.54"/>
<polygon fill="#63b8ff" stroke="#63b8ff" points="356.31,-111.97 366.85,-110.94 357.97,-105.17 356.31,-111.97"/>
</a>
</g>
</g>
<!-- Node4 -->
<g id="Node000004" class="node">
<title>Node4</title>
<g id="a_Node000004"><a xlink:href="classcbrc_1_1FLArray.html#aa9d3d9d959ff611d6e7e776d94a3f69f" target="_top" xlink:title=" ">
<polygon fill="white" stroke="#666666" points="459,-93 355,-93 355,-74 459,-74 459,-93"/>
<text text-anchor="middle" x="407" y="-81" font-family="Helvetica,sans-Serif" font-size="10.00">cbrc::FLArray::end</text>
</a>
</g>
</g>
<!-- Node2&#45;&gt;Node4 -->
<g id="edge3_Node000002_Node000004" class="edge">
<title>Node2&#45;&gt;Node4</title>
<g id="a_edge3_Node000002_Node000004"><a xlink:title=" ">
<path fill="none" stroke="#63b8ff" d="M312.64,-83.5C323.03,-83.5 333.89,-83.5 344.37,-83.5"/>
<polygon fill="#63b8ff" stroke="#63b8ff" points="344.7,-87 354.7,-83.5 344.7,-80 344.7,-87"/>
</a>
</g>
</g>
<!-- Node5 -->
<g id="Node000005" class="node">
<title>Node5</title>
<g id="a_Node000005"><a xlink:href="classcbrc_1_1FLArray.html#a907d88227b98342325adce883c90e351" target="_top" xlink:title=" ">
<polygon fill="white" stroke="#666666" points="465,-56 349,-56 349,-37 465,-37 465,-56"/>
<text text-anchor="middle" x="407" y="-44" font-family="Helvetica,sans-Serif" font-size="10.00">cbrc::FLArray::resize</text>
</a>
</g>
</g>
<!-- Node2&#45;&gt;Node5 -->
<g id="edge4_Node000002_Node000005" class="edge">
<title>Node2&#45;&gt;Node5</title>
<g id="a_edge4_Node000002_Node000005"><a xlink:title=" ">
<path fill="none" stroke="#63b8ff" d="M293.52,-73.97C312.88,-69.24 336.47,-63.48 357.03,-58.46"/>
<polygon fill="#63b8ff" stroke="#63b8ff" points="357.97,-61.83 366.85,-56.06 356.31,-55.03 357.97,-61.83"/>
</a>
</g>
</g>
<!-- Node6 -->
<g id="Node000006" class="node">
<title>Node6</title>
<g id="a_Node000006"><a xlink:href="classcbrc_1_1FLArray.html#a28287f9536d91563f172a8477e7f2e44" target="_top" xlink:title=" ">
<polygon fill="white" stroke="#666666" points="623,-56 501,-56 501,-37 623,-37 623,-56"/>
<text text-anchor="middle" x="562" y="-44" font-family="Helvetica,sans-Serif" font-size="10.00">cbrc::FLArray::setSize</text>
</a>
</g>
</g>
<!-- Node5&#45;&gt;Node6 -->
<g id="edge5_Node000005_Node000006" class="edge">
<title>Node5&#45;&gt;Node6</title>
<g id="a_edge5_Node000005_Node000006"><a xlink:title=" ">
<path fill="none" stroke="#63b8ff" d="M465.41,-46.5C473.67,-46.5 482.24,-46.5 490.72,-46.5"/>
<polygon fill="#63b8ff" stroke="#63b8ff" points="490.97,-50 500.97,-46.5 490.97,-43 490.97,-50"/>
</a>
</g>
</g>
<!-- Node7 -->
<g id="Node000007" class="node">
<title>Node7</title>
<g id="a_Node000007"><a xlink:href="classcbrc_1_1FLArray.html#a2a8588117e8e7e673c141df0e7c2165a" target="_top" xlink:title=" ">
<polygon fill="white" stroke="#666666" points="765,-56 659,-56 659,-37 765,-37 765,-56"/>
<text text-anchor="middle" x="712" y="-44" font-family="Helvetica,sans-Serif" font-size="10.00">cbrc::FLArray::size</text>
</a>
</g>
</g>
<!-- Node6&#45;&gt;Node7 -->
<g id="edge6_Node000006_Node000007" class="edge">
<title>Node6&#45;&gt;Node7</title>
<g id="a_edge6_Node000006_Node000007"><a xlink:title=" ">
<path fill="none" stroke="#63b8ff" d="M623.2,-46.5C631.62,-46.5 640.29,-46.5 648.74,-46.5"/>
<polygon fill="#63b8ff" stroke="#63b8ff" points="648.92,-50 658.92,-46.5 648.92,-43 648.92,-50"/>
</a>
</g>
</g>
</g>
</svg>
