<?xml version="1.0" encoding="UTF-8" standalone="no"?>
<!DOCTYPE svg PUBLIC "-//W3C//DTD SVG 1.1//EN"
 "http://www.w3.org/Graphics/SVG/1.1/DTD/svg11.dtd">
<!-- Generated by graphviz version 2.43.0 (0)
 -->
<!-- Title: cbrc::RecountTagCounts::RecountTagCounts Pages: 1 -->
<!--zoomable 223 -->

<svg id="main" version="1.1" xmlns="http://www.w3.org/2000/svg" xmlns:xlink="http://www.w3.org/1999/xlink" xml:space="preserve" onload="init(evt)">
<style type="text/css"><![CDATA[
.node, .edge {opacity: 0.7;}
.node.selected, .edge.selected {opacity: 1;}
.edge:hover path { stroke: red; }
.edge:hover polygon { stroke: red; fill: red; }
]]></style>

<defs>
  <circle id="rim" cx="0" cy="0" r="7"/>
  <circle id="rim2" cx="0" cy="0" r="3.5"/>
  <g id="zoomPlus">
    <use xlink:href="#rim" fill="#404040"><set attributeName="fill" to="#808080" begin="zoomplus.mouseover" end="zoomplus.mouseout"/></use>
    <path d="M-4,0h8M0,-4v8" fill="none" stroke="white" stroke-width="1.5" pointer-events="none"/>
  </g>
  <g id="zoomMin">
    <use xlink:href="#rim" fill="#404040"><set attributeName="fill" to="#808080" begin="zoomminus.mouseover" end="zoomminus.mouseout"/></use>
    <path d="M-4,0h8" fill="none" stroke="white" stroke-width="1.5" pointer-events="none"/>
  </g>
  <g id="arrowUp" transform="translate(30 24)">
    <use xlink:href="#rim"/>
    <path pointer-events="none" fill="none" stroke="white" stroke-width="1.5" d="M0,-3.0v7 M-2.5,-0.5L0,-3.0L2.5,-0.5"/>
  </g>
  <g id="arrowRight" transform="rotate(90) translate(36 -43)">
    <use xlink:href="#rim"/>
    <path pointer-events="none" fill="none" stroke="white" stroke-width="1.5" d="M0,-3.0v7 M-2.5,-0.5L0,-3.0L2.5,-0.5"/>
  </g>
  <g id="arrowDown" transform="rotate(180) translate(-30 -48)">
    <use xlink:href="#rim"/>
    <path pointer-events="none" fill="none" stroke="white" stroke-width="1.5" d="M0,-3.0v7 M-2.5,-0.5L0,-3.0L2.5,-0.5"/>
  </g>
  <g id="arrowLeft" transform="rotate(270) translate(-36 17)">
    <use xlink:href="#rim"/>
    <path pointer-events="none" fill="none" stroke="white" stroke-width="1.5" d="M0,-3.0v7 M-2.5,-0.5L0,-3.0L2.5,-0.5"/>
  </g>
  <g id="resetDef">
    <use xlink:href="#rim2" fill="#404040"><set attributeName="fill" to="#808080" begin="reset.mouseover" end="reset.mouseout"/></use>
  </g>
</defs>
<script type="application/ecmascript">
var viewWidth = 609;
var viewHeight = 223;
var sectionId = 'dynsection-3';
</script>
<script type="application/ecmascript" xlink:href="svg.min.js"/>
<svg id="graph" class="graph">
<g id="viewport">
<title>cbrc::RecountTagCounts::RecountTagCounts</title>
<!-- Node1 -->
<g id="Node000001" class="node">
<title>Node1</title>
<g id="a_Node000001"><a xlink:title=" ">
<polygon fill="#999999" stroke="#666666" points="133,-128.5 0,-128.5 0,-98.5 133,-98.5 133,-128.5"/>
<text text-anchor="start" x="8" y="-116.5" font-family="Helvetica,sans-Serif" font-size="10.00">cbrc::RecountTagCounts</text>
<text text-anchor="middle" x="66.5" y="-105.5" font-family="Helvetica,sans-Serif" font-size="10.00">::RecountTagCounts</text>
</a>
</g>
</g>
<!-- Node2 -->
<g id="Node000002" class="node">
<title>Node2</title>
<g id="a_Node000002"><a xlink:href="classcbrc_1_1SortedTagSet.html#a590d453de0700551e1be056a63139186" target="_top" xlink:title=" ">
<polygon fill="white" stroke="#666666" points="299,-215 169,-215 169,-196 299,-196 299,-215"/>
<text text-anchor="middle" x="234" y="-203" font-family="Helvetica,sans-Serif" font-size="10.00">cbrc::SortedTagSet::has</text>
</a>
</g>
</g>
<!-- Node1&#45;&gt;Node2 -->
<g id="edge1_Node000001_Node000002" class="edge">
<title>Node1&#45;&gt;Node2</title>
<g id="a_edge1_Node000001_Node000002"><a xlink:title=" ">
<path fill="none" stroke="#63b8ff" d="M84.24,-128.64C103.43,-145.27 136.44,-171.69 169,-187.5 172.85,-189.37 176.94,-191.08 181.1,-192.63"/>
<polygon fill="#63b8ff" stroke="#63b8ff" points="180.3,-196.05 190.89,-195.97 182.56,-189.43 180.3,-196.05"/>
</a>
</g>
</g>
<!-- Node3 -->
<g id="Node000003" class="node">
<title>Node3</title>
<g id="a_Node000003"><a xlink:href="namespacecbrc_1_1perlish.html#a2a0db2c27f3a19dfdcd7ef17ea5a0bcd" target="_top" xlink:title=" ">
<polygon fill="white" stroke="#666666" points="297,-178 171,-178 171,-159 297,-159 297,-178"/>
<text text-anchor="middle" x="234" y="-166" font-family="Helvetica,sans-Serif" font-size="10.00">cbrc::perlish::slurpLine</text>
</a>
</g>
</g>
<!-- Node1&#45;&gt;Node3 -->
<g id="edge2_Node000001_Node000003" class="edge">
<title>Node1&#45;&gt;Node3</title>
<g id="a_edge2_Node000001_Node000003"><a xlink:title=" ">
<path fill="none" stroke="#63b8ff" d="M106.79,-128.6C125.51,-135.6 148.29,-143.82 169,-150.5 174.98,-152.43 181.32,-154.35 187.58,-156.18"/>
<polygon fill="#63b8ff" stroke="#63b8ff" points="186.73,-159.58 197.31,-158.98 188.67,-152.85 186.73,-159.58"/>
</a>
</g>
</g>
<!-- Node4 -->
<g id="Node000004" class="node">
<title>Node4</title>
<g id="a_Node000004"><a xlink:href="namespacecbrc_1_1perlish.html#a101a4746d50e52a00273c6fe533970ec" target="_top" xlink:title=" ">
<polygon fill="white" stroke="#666666" points="285.5,-123 182.5,-123 182.5,-104 285.5,-104 285.5,-123"/>
<text text-anchor="middle" x="234" y="-111" font-family="Helvetica,sans-Serif" font-size="10.00">cbrc::perlish::split</text>
</a>
</g>
</g>
<!-- Node1&#45;&gt;Node4 -->
<g id="edge3_Node000001_Node000004" class="edge">
<title>Node1&#45;&gt;Node4</title>
<g id="a_edge3_Node000001_Node000004"><a xlink:title=" ">
<path fill="none" stroke="#63b8ff" d="M133.39,-113.5C146.13,-113.5 159.44,-113.5 172.02,-113.5"/>
<polygon fill="#63b8ff" stroke="#63b8ff" points="172.39,-117 182.39,-113.5 172.39,-110 172.39,-117"/>
</a>
</g>
</g>
<!-- Node7 -->
<g id="Node000007" class="node">
<title>Node7</title>
<g id="a_Node000007"><a xlink:href="classcbrc_1_1SortedTagSet.html#a86f00f8074ea7439f51d957408c393c1" target="_top" xlink:title=" ">
<polygon fill="white" stroke="#666666" points="287.5,-85.5 180.5,-85.5 180.5,-55.5 287.5,-55.5 287.5,-85.5"/>
<text text-anchor="start" x="188.5" y="-73.5" font-family="Helvetica,sans-Serif" font-size="10.00">cbrc::SortedTagSet</text>
<text text-anchor="middle" x="234" y="-62.5" font-family="Helvetica,sans-Serif" font-size="10.00">::toTagSeq</text>
</a>
</g>
</g>
<!-- Node1&#45;&gt;Node7 -->
<g id="edge7_Node000001_Node000007" class="edge">
<title>Node1&#45;&gt;Node7</title>
<g id="a_edge7_Node000001_Node000007"><a xlink:title=" ">
<path fill="none" stroke="#63b8ff" d="M125.38,-98.46C139.93,-94.68 155.6,-90.61 170.36,-86.78"/>
<polygon fill="#63b8ff" stroke="#63b8ff" points="171.61,-90.07 180.41,-84.16 169.85,-83.29 171.61,-90.07"/>
</a>
</g>
</g>
<!-- Node9 -->
<g id="Node000009" class="node">
<title>Node9</title>
<g id="a_Node000009"><a xlink:href="classcbrc_1_1FLEArray.html#a31b7db1817b5eec4d9cbb10bfe07d58a" target="_top" xlink:title=" ">
<polygon fill="white" stroke="#666666" points="290.5,-28 177.5,-28 177.5,-9 290.5,-9 290.5,-28"/>
<text text-anchor="middle" x="234" y="-16" font-family="Helvetica,sans-Serif" font-size="10.00">cbrc::FLEArray::zero</text>
</a>
</g>
</g>
<!-- Node1&#45;&gt;Node9 -->
<g id="edge9_Node000001_Node000009" class="edge">
<title>Node1&#45;&gt;Node9</title>
<g id="a_edge9_Node000001_Node000009"><a xlink:title=" ">
<path fill="none" stroke="#63b8ff" d="M88.23,-98.29C108.3,-83.95 139.88,-62.33 169,-46.5 178.51,-41.33 189.17,-36.36 199.02,-32.08"/>
<polygon fill="#63b8ff" stroke="#63b8ff" points="200.68,-35.18 208.52,-28.05 197.95,-28.73 200.68,-35.18"/>
</a>
</g>
</g>
<!-- Node4&#45;&gt;Node4 -->
<g id="edge6_Node000004_Node000004" class="edge">
<title>Node4&#45;&gt;Node4</title>
<g id="a_edge6_Node000004_Node000004"><a xlink:title=" ">
<path fill="none" stroke="#63b8ff" d="M209.34,-123.08C197.34,-131.73 205.56,-141 234,-141 252.66,-141 262.62,-137.01 263.87,-131.82"/>
<polygon fill="#63b8ff" stroke="#63b8ff" points="266.79,-129.88 258.66,-123.08 260.77,-133.47 266.79,-129.88"/>
</a>
</g>
</g>
<!-- Node5 -->
<g id="Node000005" class="node">
<title>Node5</title>
<g id="a_Node000005"><a xlink:href="classcbrc_1_1FLEArray.html#a7e5d0d3bc5c41546620ccff95b55b3fa" target="_top" xlink:title=" ">
<polygon fill="white" stroke="#666666" points="454,-160 335,-160 335,-141 454,-141 454,-160"/>
<text text-anchor="middle" x="394.5" y="-148" font-family="Helvetica,sans-Serif" font-size="10.00">cbrc::FLEArray::begin</text>
</a>
</g>
</g>
<!-- Node4&#45;&gt;Node5 -->
<g id="edge4_Node000004_Node000005" class="edge">
<title>Node4&#45;&gt;Node5</title>
<g id="a_edge4_Node000004_Node000005"><a xlink:title=" ">
<path fill="none" stroke="#63b8ff" d="M275.82,-123.03C296.17,-127.78 320.98,-133.57 342.56,-138.61"/>
<polygon fill="#63b8ff" stroke="#63b8ff" points="342.01,-142.07 352.55,-140.94 343.6,-135.26 342.01,-142.07"/>
</a>
</g>
</g>
<!-- Node6 -->
<g id="Node000006" class="node">
<title>Node6</title>
<g id="a_Node000006"><a xlink:href="classcbrc_1_1FLEArray.html#a8c53878dc57e8f666976e041d146a523" target="_top" xlink:title=" ">
<polygon fill="white" stroke="#666666" points="449.5,-123 339.5,-123 339.5,-104 449.5,-104 449.5,-123"/>
<text text-anchor="middle" x="394.5" y="-111" font-family="Helvetica,sans-Serif" font-size="10.00">cbrc::FLEArray::end</text>
</a>
</g>
</g>
<!-- Node4&#45;&gt;Node6 -->
<g id="edge5_Node000004_Node000006" class="edge">
<title>Node4&#45;&gt;Node6</title>
<g id="a_edge5_Node000004_Node000006"><a xlink:title=" ">
<path fill="none" stroke="#63b8ff" d="M285.59,-113.5C299.36,-113.5 314.48,-113.5 328.92,-113.5"/>
<polygon fill="#63b8ff" stroke="#63b8ff" points="329.29,-117 339.29,-113.5 329.29,-110 329.29,-117"/>
</a>
</g>
</g>
<!-- Node8 -->
<g id="Node000008" class="node">
<title>Node8</title>
<g id="a_Node000008"><a xlink:href="classcbrc_1_1SortedTagSet.html#a66bc42739411edd8a86a358bb9627805" target="_top" xlink:title=" ">
<polygon fill="white" stroke="#666666" points="448,-85.5 341,-85.5 341,-55.5 448,-55.5 448,-85.5"/>
<text text-anchor="start" x="349" y="-73.5" font-family="Helvetica,sans-Serif" font-size="10.00">cbrc::SortedTagSet</text>
<text text-anchor="middle" x="394.5" y="-62.5" font-family="Helvetica,sans-Serif" font-size="10.00">::residueIndexMap</text>
</a>
</g>
</g>
<!-- Node7&#45;&gt;Node8 -->
<g id="edge8_Node000007_Node000008" class="edge">
<title>Node7&#45;&gt;Node8</title>
<g id="a_edge8_Node000007_Node000008"><a xlink:title=" ">
<path fill="none" stroke="#63b8ff" d="M287.78,-70.5C301.55,-70.5 316.52,-70.5 330.75,-70.5"/>
<polygon fill="#63b8ff" stroke="#63b8ff" points="330.95,-74 340.95,-70.5 330.95,-67 330.95,-74"/>
</a>
</g>
</g>
<!-- Node10 -->
<g id="Node000010" class="node">
<title>Node10</title>
<g id="a_Node000010"><a xlink:href="classcbrc_1_1FLEArray.html#ab3482d140dd947c2d956fa5620da84ab" target="_top" xlink:title=" ">
<polygon fill="white" stroke="#666666" points="446.5,-19 342.5,-19 342.5,0 446.5,0 446.5,-19"/>
<text text-anchor="middle" x="394.5" y="-7" font-family="Helvetica,sans-Serif" font-size="10.00">cbrc::FLEArray::fill</text>
</a>
</g>
</g>
<!-- Node9&#45;&gt;Node10 -->
<g id="edge10_Node000009_Node000010" class="edge">
<title>Node9&#45;&gt;Node10</title>
<g id="a_edge10_Node000009_Node000010"><a xlink:title=" ">
<path fill="none" stroke="#63b8ff" d="M290.88,-15.33C304.23,-14.57 318.56,-13.76 332.14,-12.98"/>
<polygon fill="#63b8ff" stroke="#63b8ff" points="332.57,-16.47 342.36,-12.4 332.18,-9.48 332.57,-16.47"/>
</a>
</g>
</g>
<!-- Node10&#45;&gt;Node10 -->
<g id="edge11_Node000010_Node000010" class="edge">
<title>Node10&#45;&gt;Node10</title>
<g id="a_edge11_Node000010_Node000010"><a xlink:title=" ">
<path fill="none" stroke="#63b8ff" d="M371.38,-19.08C360.13,-27.73 367.84,-37 394.5,-37 412,-37 421.33,-33.01 422.5,-27.82"/>
<polygon fill="#63b8ff" stroke="#63b8ff" points="425.55,-26.11 417.62,-19.08 419.44,-29.52 425.55,-26.11"/>
</a>
</g>
</g>
<!-- Node11 -->
<g id="Node000011" class="node">
<title>Node11</title>
<g id="a_Node000011"><a xlink:href="classcbrc_1_1FLEArray.html#ad71311380d762114c9e0f3b0dda38b7c" target="_top" xlink:title=" ">
<polygon fill="white" stroke="#666666" points="601,-19 490,-19 490,0 601,0 601,-19"/>
<text text-anchor="middle" x="545.5" y="-7" font-family="Helvetica,sans-Serif" font-size="10.00">cbrc::FLEArray::size</text>
</a>
</g>
</g>
<!-- Node10&#45;&gt;Node11 -->
<g id="edge12_Node000010_Node000011" class="edge">
<title>Node10&#45;&gt;Node11</title>
<g id="a_edge12_Node000010_Node000011"><a xlink:title=" ">
<path fill="none" stroke="#63b8ff" d="M446.78,-9.5C457.41,-9.5 468.75,-9.5 479.79,-9.5"/>
<polygon fill="#63b8ff" stroke="#63b8ff" points="479.82,-13 489.82,-9.5 479.82,-6 479.82,-13"/>
</a>
</g>
</g>
</g>
</svg>

<g id="navigator" transform="translate(0 0)" fill="#404254">
  <rect fill="#f2f5e9" fill-opacity="0.5" stroke="#606060" stroke-width=".5" x="0" y="0" width="60" height="60"/>
  <use id="zoomplus" xlink:href="#zoomPlus" x="17" y="9" onmousedown="handleZoom(evt,'in')"/>
  <use id="zoomminus" xlink:href="#zoomMin" x="42" y="9" onmousedown="handleZoom(evt,'out')"/>
  <use id="reset" xlink:href="#resetDef" x="30" y="36" onmousedown="handleReset()"/>
   <use id="arrowup" xlink:href="#arrowUp" x="0" y="0" onmousedown="handlePan(0,-1)"/>
  <use id="arrowright" xlink:href="#arrowRight" x="0" y="0" onmousedown="handlePan(1,0)"/>
  <use id="arrowdown" xlink:href="#arrowDown" x="0" y="0" onmousedown="handlePan(0,1)"/>
  <use id="arrowleft" xlink:href="#arrowLeft" x="0" y="0" onmousedown="handlePan(-1,0)"/>
</g>
<svg viewBox="0 0 15 15" width="100%" height="30px" preserveAspectRatio="xMaxYMin meet">
 <g id="arrow_out" transform="scale(0.3 0.3)">
  <a xlink:href="classcbrc_1_1RecountTagCounts_ad11bd14698ea4628067edf0059a25c68_cgraph_org.svg" target="_base">
   <rect id="button" ry="5" rx="5" y="6" x="6" height="38" width="38"
        fill="#f2f5e9" fill-opacity="0.5" stroke="#606060" stroke-width="1.0"/>
   <path id="arrow"
     d="M 11.500037,31.436501 C 11.940474,20.09759 22.043105,11.32322 32.158766,21.979434 L 37.068811,17.246167 C 37.068811,17.246167 37.088388,32 37.088388,32 L 22.160133,31.978069 C 22.160133,31.978069 26.997745,27.140456 26.997745,27.140456 C 18.528582,18.264221 13.291696,25.230495 11.500037,31.436501 z"
     style="fill:#404040;"/>
  </a>
 </g>
</svg>

<style type='text/css'>
<![CDATA[
[data-mouse-over-selected='false'] { opacity: 0.7; }
[data-mouse-over-selected='true']  { opacity: 1.0; }
]]>
</style>
<script type="application/ecmascript"><![CDATA[
document.addEventListener('DOMContentLoaded', (event) => {
  highlightEdges();
  highlightAdjacentNodes();
});
]]></script>
</svg>
