<?xml version="1.0" encoding="UTF-8" standalone="no"?>
<!DOCTYPE svg PUBLIC "-//W3C//DTD SVG 1.1//EN"
 "http://www.w3.org/Graphics/SVG/1.1/DTD/svg11.dtd">
<!-- Generated by graphviz version 2.43.0 (0)
 -->
<!-- Title: cbrc::FLEMatrix::size1 Pages: 1 -->
<svg width="325pt" height="86pt"
 viewBox="0.00 0.00 325.00 86.00" xmlns="http://www.w3.org/2000/svg" xmlns:xlink="http://www.w3.org/1999/xlink">
<g id="graph0" class="graph" transform="scale(1 1) rotate(0) translate(4 82)">
<title>cbrc::FLEMatrix::size1</title>
<!-- Node1 -->
<g id="Node000001" class="node">
<title>Node1</title>
<g id="a_Node000001"><a xlink:title=" ">
<polygon fill="#999999" stroke="#666666" points="317,-48.5 194,-48.5 194,-29.5 317,-29.5 317,-48.5"/>
<text text-anchor="middle" x="255.5" y="-36.5" font-family="Helvetica,sans-Serif" font-size="10.00">cbrc::FLEMatrix::size1</text>
</a>
</g>
</g>
<!-- Node2 -->
<g id="Node000002" class="node">
<title>Node2</title>
<g id="a_Node000002"><a xlink:href="classcbrc_1_1FLENumMatrix.html#a809633e952c0657076604f7b909b03e4" target="_top" xlink:title=" ">
<polygon fill="white" stroke="#666666" points="136.5,-78 21.5,-78 21.5,-48 136.5,-48 136.5,-78"/>
<text text-anchor="start" x="29.5" y="-66" font-family="Helvetica,sans-Serif" font-size="10.00">cbrc::FLENumMatrix</text>
<text text-anchor="middle" x="79" y="-55" font-family="Helvetica,sans-Serif" font-size="10.00">::normalize</text>
</a>
</g>
</g>
<!-- Node1&#45;&gt;Node2 -->
<g id="edge1_Node000001_Node000002" class="edge">
<title>Node1&#45;&gt;Node2</title>
<g id="a_edge1_Node000001_Node000002"><a xlink:title=" ">
<path fill="none" stroke="#63b8ff" d="M183.78,-48.73C168.09,-50.88 151.66,-53.14 136.62,-55.21"/>
<polygon fill="#63b8ff" stroke="#63b8ff" points="184.53,-52.16 193.96,-47.33 183.57,-45.22 184.53,-52.16"/>
</a>
</g>
</g>
<!-- Node3 -->
<g id="Node000003" class="node">
<title>Node3</title>
<g id="a_Node000003"><a xlink:href="classcbrc_1_1FLEMatrix.html#a8ee8deac582cd6926176ce37defb7afb" target="_top" xlink:title=" ">
<polygon fill="white" stroke="#666666" points="158,-30 0,-30 0,0 158,0 158,-30"/>
<text text-anchor="start" x="8" y="-18" font-family="Helvetica,sans-Serif" font-size="10.00">cbrc::FLEMatrix::printColumn</text>
<text text-anchor="middle" x="79" y="-7" font-family="Helvetica,sans-Serif" font-size="10.00">Major</text>
</a>
</g>
</g>
<!-- Node1&#45;&gt;Node3 -->
<g id="edge2_Node000001_Node000003" class="edge">
<title>Node1&#45;&gt;Node3</title>
<g id="a_edge2_Node000001_Node000003"><a xlink:title=" ">
<path fill="none" stroke="#63b8ff" d="M183.82,-29.28C175.4,-28.12 166.77,-26.93 158.26,-25.76"/>
<polygon fill="#63b8ff" stroke="#63b8ff" points="183.57,-32.78 193.96,-30.67 184.53,-25.84 183.57,-32.78"/>
</a>
</g>
</g>
</g>
</svg>
