<?xml version="1.0" encoding="UTF-8" standalone="no"?>
<!DOCTYPE svg PUBLIC "-//W3C//DTD SVG 1.1//EN"
 "http://www.w3.org/Graphics/SVG/1.1/DTD/svg11.dtd">
<!-- Generated by graphviz version 2.43.0 (0)
 -->
<!-- Title: cbrc::ArgvParser::getArgOrDie Pages: 1 -->
<svg width="496pt" height="156pt"
 viewBox="0.00 0.00 496.00 156.39" xmlns="http://www.w3.org/2000/svg" xmlns:xlink="http://www.w3.org/1999/xlink">

<svg id="main" version="1.1" xmlns="http://www.w3.org/2000/svg" xmlns:xlink="http://www.w3.org/1999/xlink" xml:space="preserve" onload="init(evt)">
<style type="text/css"><![CDATA[
.node, .edge {opacity: 0.7;}
.node.selected, .edge.selected {opacity: 1;}
.edge:hover path { stroke: red; }
.edge:hover polygon { stroke: red; fill: red; }
]]></style>
<script type="application/ecmascript" xlink:href="svg.min.js"/>
<svg id="graph" class="graph">
<g id="graph0" class="graph" transform="scale(1 1) rotate(0) translate(4 152.39)">
<title>cbrc::ArgvParser::getArgOrDie</title>
<!-- Node1 -->
<g id="Node000001" class="node">
<title>Node1</title>
<g id="a_Node000001"><a xlink:title=" ">
<polygon fill="#999999" stroke="#666666" points="134,-98.5 0,-98.5 0,-68.5 134,-68.5 134,-98.5"/>
<text text-anchor="start" x="8" y="-86.5" font-family="Helvetica,sans-Serif" font-size="10.00">cbrc::ArgvParser::getArg</text>
<text text-anchor="middle" x="67" y="-75.5" font-family="Helvetica,sans-Serif" font-size="10.00">OrDie</text>
</a>
</g>
</g>
<!-- Node2 -->
<g id="Node000002" class="node">
<title>Node2</title>
<g id="a_Node000002"><a xlink:href="namespacecbrc.html#a94ca1678e0481b17626977da7cfb798b" target="_top" xlink:title=" ">
<polygon fill="white" stroke="#666666" points="488,-130 340,-130 340,-111 488,-111 488,-130"/>
<text text-anchor="middle" x="414" y="-118" font-family="Helvetica,sans-Serif" font-size="10.00">cbrc::_argvParserNullString</text>
</a>
</g>
</g>
<!-- Node1&#45;&gt;Node2 -->
<g id="edge1_Node000001_Node000002" class="edge">
<title>Node1&#45;&gt;Node2</title>
<g id="a_edge1_Node000001_Node000002"><a xlink:title=" ">
<path fill="none" stroke="#63b8ff" d="M88.18,-98.61C107.87,-112.34 139.28,-131.62 170,-139.5 237.93,-156.92 319.73,-143.83 368.99,-132.42"/>
<polygon fill="#63b8ff" stroke="#63b8ff" points="370.08,-135.76 378.99,-130.03 368.45,-128.95 370.08,-135.76"/>
</a>
</g>
</g>
<!-- Node3 -->
<g id="Node000003" class="node">
<title>Node3</title>
<g id="a_Node000003"><a xlink:href="classcbrc_1_1ArgvParser.html#ac1c953b6a160442d0c3e711a68561a28" target="_top" xlink:title=" ">
<polygon fill="white" stroke="#666666" points="298,-130 176,-130 176,-111 298,-111 298,-130"/>
<text text-anchor="middle" x="237" y="-118" font-family="Helvetica,sans-Serif" font-size="10.00">cbrc::ArgvParser::argc</text>
</a>
</g>
</g>
<!-- Node1&#45;&gt;Node3 -->
<g id="edge2_Node000001_Node000003" class="edge">
<title>Node1&#45;&gt;Node3</title>
<g id="a_edge2_Node000001_Node000003"><a xlink:title=" ">
<path fill="none" stroke="#63b8ff" d="M134.4,-98.12C150.5,-101.67 167.5,-105.41 182.9,-108.8"/>
<polygon fill="#63b8ff" stroke="#63b8ff" points="182.24,-112.24 192.76,-110.98 183.74,-105.41 182.24,-112.24"/>
</a>
</g>
</g>
<!-- Node4 -->
<g id="Node000004" class="node">
<title>Node4</title>
<g id="a_Node000004"><a xlink:href="classcbrc_1_1ArgvParser.html#aad8dc9d595217cf4ad2a7f557371d3ab" target="_top" xlink:title=" ">
<polygon fill="white" stroke="#666666" points="295,-56 179,-56 179,-37 295,-37 295,-56"/>
<text text-anchor="middle" x="237" y="-44" font-family="Helvetica,sans-Serif" font-size="10.00">cbrc::ArgvParser::die</text>
</a>
</g>
</g>
<!-- Node1&#45;&gt;Node4 -->
<g id="edge3_Node000001_Node000004" class="edge">
<title>Node1&#45;&gt;Node4</title>
<g id="a_edge3_Node000001_Node000004"><a xlink:title=" ">
<path fill="none" stroke="#63b8ff" d="M134.4,-68.88C150.5,-65.33 167.5,-61.59 182.9,-58.2"/>
<polygon fill="#63b8ff" stroke="#63b8ff" points="183.74,-61.59 192.76,-56.02 182.24,-54.76 183.74,-61.59"/>
</a>
</g>
</g>
<!-- Node5 -->
<g id="Node000005" class="node">
<title>Node5</title>
<g id="a_Node000005"><a xlink:href="classcbrc_1_1FLEArray.html#ad71311380d762114c9e0f3b0dda38b7c" target="_top" xlink:title=" ">
<polygon fill="white" stroke="#666666" points="469.5,-19 358.5,-19 358.5,0 469.5,0 469.5,-19"/>
<text text-anchor="middle" x="414" y="-7" font-family="Helvetica,sans-Serif" font-size="10.00">cbrc::FLEArray::size</text>
</a>
</g>
</g>
<!-- Node1&#45;&gt;Node5 -->
<g id="edge8_Node000001_Node000005" class="edge">
<title>Node1&#45;&gt;Node5</title>
<g id="a_edge8_Node000001_Node000005"><a xlink:title=" ">
<path fill="none" stroke="#63b8ff" d="M89.08,-68.38C108.92,-55.05 139.98,-36.39 170,-27.5 228.5,-10.17 298.23,-6.65 347.95,-6.89"/>
<polygon fill="#63b8ff" stroke="#63b8ff" points="348.21,-10.39 358.25,-6.99 348.28,-3.39 348.21,-10.39"/>
</a>
</g>
</g>
<!-- Node7 -->
<g id="Node000007" class="node">
<title>Node7</title>
<g id="a_Node000007"><a xlink:href="classcbrc_1_1ArgvParser.html#a273ad44f1f402d2a9c31d5cb04c2a63f" target="_top" xlink:title=" ">
<polygon fill="white" stroke="#666666" points="304,-93 170,-93 170,-74 304,-74 304,-93"/>
<text text-anchor="middle" x="237" y="-81" font-family="Helvetica,sans-Serif" font-size="10.00">cbrc::ArgvParser::getArg</text>
</a>
</g>
</g>
<!-- Node1&#45;&gt;Node7 -->
<g id="edge6_Node000001_Node000007" class="edge">
<title>Node1&#45;&gt;Node7</title>
<g id="a_edge6_Node000001_Node000007"><a xlink:title=" ">
<path fill="none" stroke="#63b8ff" d="M134.4,-83.5C142.68,-83.5 151.2,-83.5 159.62,-83.5"/>
<polygon fill="#63b8ff" stroke="#63b8ff" points="159.81,-87 169.81,-83.5 159.81,-80 159.81,-87"/>
</a>
</g>
</g>
<!-- Node4&#45;&gt;Node5 -->
<g id="edge4_Node000004_Node000005" class="edge">
<title>Node4&#45;&gt;Node5</title>
<g id="a_edge4_Node000004_Node000005"><a xlink:title=" ">
<path fill="none" stroke="#63b8ff" d="M283.07,-36.97C305.84,-32.16 333.67,-26.27 357.73,-21.19"/>
<polygon fill="#63b8ff" stroke="#63b8ff" points="358.72,-24.55 367.78,-19.06 357.27,-17.7 358.72,-24.55"/>
</a>
</g>
</g>
<!-- Node6 -->
<g id="Node000006" class="node">
<title>Node6</title>
<g id="a_Node000006"><a xlink:href="classcbrc_1_1ArgvParser.html#a1b7d257748fcfaa9a9a3cf46bc36a7e5" target="_top" xlink:title=" ">
<polygon fill="white" stroke="#666666" points="479.5,-56 348.5,-56 348.5,-37 479.5,-37 479.5,-56"/>
<text text-anchor="middle" x="414" y="-44" font-family="Helvetica,sans-Serif" font-size="10.00">cbrc::ArgvParser::usage</text>
</a>
</g>
</g>
<!-- Node4&#45;&gt;Node6 -->
<g id="edge5_Node000004_Node000006" class="edge">
<title>Node4&#45;&gt;Node6</title>
<g id="a_edge5_Node000004_Node000006"><a xlink:title=" ">
<path fill="none" stroke="#63b8ff" d="M295.3,-46.5C308.94,-46.5 323.69,-46.5 337.99,-46.5"/>
<polygon fill="#63b8ff" stroke="#63b8ff" points="338.29,-50 348.29,-46.5 338.29,-43 338.29,-50"/>
</a>
</g>
</g>
<!-- Node7&#45;&gt;Node2 -->
<g id="edge7_Node000007_Node000002" class="edge">
<title>Node7&#45;&gt;Node2</title>
<g id="a_edge7_Node000007_Node000002"><a xlink:title=" ">
<path fill="none" stroke="#63b8ff" d="M283.07,-93.03C305.84,-97.84 333.67,-103.73 357.73,-108.81"/>
<polygon fill="#63b8ff" stroke="#63b8ff" points="357.27,-112.3 367.78,-110.94 358.72,-105.45 357.27,-112.3"/>
</a>
</g>
</g>
</g>
</svg>
</svg>

<style type='text/css'>
<![CDATA[
[data-mouse-over-selected='false'] { opacity: 0.7; }
[data-mouse-over-selected='true']  { opacity: 1.0; }
]]>
</style>
<script type="application/ecmascript"><![CDATA[
document.addEventListener('DOMContentLoaded', (event) => {
  highlightEdges();
  highlightAdjacentNodes();
});
]]></script>
</svg>
