<?xml version="1.0" encoding="UTF-8" standalone="no"?>
<!DOCTYPE svg PUBLIC "-//W3C//DTD SVG 1.1//EN"
 "http://www.w3.org/Graphics/SVG/1.1/DTD/svg11.dtd">
<!-- Generated by graphviz version 2.43.0 (0)
 -->
<!-- Title: cbrc::FLArray::FLArray Pages: 1 -->
<svg width="275pt" height="64pt"
 viewBox="0.00 0.00 275.00 64.00" xmlns="http://www.w3.org/2000/svg" xmlns:xlink="http://www.w3.org/1999/xlink">
<g id="graph0" class="graph" transform="scale(1 1) rotate(0) translate(4 60)">
<title>cbrc::FLArray::FLArray</title>
<!-- Node1 -->
<g id="Node000001" class="node">
<title>Node1</title>
<g id="a_Node000001"><a xlink:title=" ">
<polygon fill="#999999" stroke="#666666" points="125,-37 0,-37 0,-18 125,-18 125,-37"/>
<text text-anchor="middle" x="62.5" y="-25" font-family="Helvetica,sans-Serif" font-size="10.00">cbrc::FLArray::FLArray</text>
</a>
</g>
</g>
<!-- Node2 -->
<g id="Node000002" class="node">
<title>Node2</title>
<g id="a_Node000002"><a xlink:href="classcbrc_1_1FLArray.html#a57dbf8de94004ecc63de6dae66c6f1eb" target="_top" xlink:title=" ">
<polygon fill="white" stroke="#666666" points="263,-56 165,-56 165,-37 263,-37 263,-56"/>
<text text-anchor="middle" x="214" y="-44" font-family="Helvetica,sans-Serif" font-size="10.00">cbrc::FLArray::fill</text>
</a>
</g>
</g>
<!-- Node1&#45;&gt;Node2 -->
<g id="edge1_Node000001_Node000002" class="edge">
<title>Node1&#45;&gt;Node2</title>
<g id="a_edge1_Node000001_Node000002"><a xlink:title=" ">
<path fill="none" stroke="#63b8ff" d="M125.17,-35.34C134.96,-36.58 145.06,-37.87 154.77,-39.1"/>
<polygon fill="#63b8ff" stroke="#63b8ff" points="154.35,-42.57 164.71,-40.36 155.23,-35.63 154.35,-42.57"/>
</a>
</g>
</g>
<!-- Node3 -->
<g id="Node000003" class="node">
<title>Node3</title>
<g id="a_Node000003"><a xlink:href="classcbrc_1_1FLArray.html#a2a8588117e8e7e673c141df0e7c2165a" target="_top" xlink:title=" ">
<polygon fill="white" stroke="#666666" points="267,-19 161,-19 161,0 267,0 267,-19"/>
<text text-anchor="middle" x="214" y="-7" font-family="Helvetica,sans-Serif" font-size="10.00">cbrc::FLArray::size</text>
</a>
</g>
</g>
<!-- Node1&#45;&gt;Node3 -->
<g id="edge2_Node000001_Node000003" class="edge">
<title>Node1&#45;&gt;Node3</title>
<g id="a_edge2_Node000001_Node000003"><a xlink:title=" ">
<path fill="none" stroke="#63b8ff" d="M125.17,-20.07C133.63,-19.06 142.33,-18.01 150.8,-16.99"/>
<polygon fill="#63b8ff" stroke="#63b8ff" points="151.48,-20.43 160.99,-15.76 150.65,-13.48 151.48,-20.43"/>
</a>
</g>
</g>
</g>
</svg>
