<?xml version="1.0" encoding="UTF-8" standalone="no"?>
<!DOCTYPE svg PUBLIC "-//W3C//DTD SVG 1.1//EN"
 "http://www.w3.org/Graphics/SVG/1.1/DTD/svg11.dtd">
<!-- Generated by graphviz version 2.43.0 (0)
 -->
<!-- Title: cbrc::StringHashtableLink::elemPtr Pages: 1 -->
<svg width="535pt" height="94pt"
 viewBox="0.00 0.00 535.00 93.50" xmlns="http://www.w3.org/2000/svg" xmlns:xlink="http://www.w3.org/1999/xlink">
<g id="graph0" class="graph" transform="scale(1 1) rotate(0) translate(4 89.5)">
<title>cbrc::StringHashtableLink::elemPtr</title>
<!-- Node1 -->
<g id="Node000001" class="node">
<title>Node1</title>
<g id="a_Node000001"><a xlink:title=" ">
<polygon fill="#999999" stroke="#666666" points="527,-51 386,-51 386,-21 527,-21 527,-51"/>
<text text-anchor="start" x="394" y="-39" font-family="Helvetica,sans-Serif" font-size="10.00">cbrc::StringHashtableLink</text>
<text text-anchor="middle" x="456.5" y="-28" font-family="Helvetica,sans-Serif" font-size="10.00">::elemPtr</text>
</a>
</g>
</g>
<!-- Node2 -->
<g id="Node000002" class="node">
<title>Node2</title>
<g id="a_Node000002"><a xlink:href="classcbrc_1_1StringHashtable.html#a680147a0e74d302f3fc53d2b1be24d5b" target="_top" xlink:title=" ">
<polygon fill="white" stroke="#666666" points="344,-67.5 199,-67.5 199,-48.5 344,-48.5 344,-67.5"/>
<text text-anchor="middle" x="271.5" y="-55.5" font-family="Helvetica,sans-Serif" font-size="10.00">cbrc::StringHashtable::add</text>
</a>
</g>
</g>
<!-- Node1&#45;&gt;Node2 -->
<g id="edge1_Node000001_Node000002" class="edge">
<title>Node1&#45;&gt;Node2</title>
<g id="a_edge1_Node000001_Node000002"><a xlink:title=" ">
<path fill="none" stroke="#63b8ff" d="M375.78,-45.58C365.26,-46.85 354.52,-48.14 344.14,-49.39"/>
<polygon fill="#63b8ff" stroke="#63b8ff" points="376.28,-49.05 385.79,-44.38 375.45,-42.1 376.28,-49.05"/>
</a>
</g>
</g>
<!-- Node3 -->
<g id="Node000003" class="node">
<title>Node3</title>
<g id="a_Node000003"><a xlink:href="classcbrc_1_1StringHashtableIterator.html#ae31fc9c97e71292a494ccd7e88205b45" target="_top" xlink:title=" ">
<polygon fill="white" stroke="#666666" points="350,-30 193,-30 193,0 350,0 350,-30"/>
<text text-anchor="start" x="201" y="-18" font-family="Helvetica,sans-Serif" font-size="10.00">cbrc::StringHashtableIterator</text>
<text text-anchor="middle" x="271.5" y="-7" font-family="Helvetica,sans-Serif" font-size="10.00">::elemPtr</text>
</a>
</g>
</g>
<!-- Node1&#45;&gt;Node3 -->
<g id="edge3_Node000001_Node000003" class="edge">
<title>Node1&#45;&gt;Node3</title>
<g id="a_edge3_Node000001_Node000003"><a xlink:title=" ">
<path fill="none" stroke="#63b8ff" d="M375.62,-26.83C367.2,-25.87 358.65,-24.89 350.26,-23.92"/>
<polygon fill="#63b8ff" stroke="#63b8ff" points="375.46,-30.34 385.79,-28 376.26,-23.38 375.46,-30.34"/>
</a>
</g>
</g>
<!-- Node2&#45;&gt;Node2 -->
<g id="edge2_Node000002_Node000002" class="edge">
<title>Node2&#45;&gt;Node2</title>
<g id="a_edge2_Node000002_Node000002"><a xlink:title=" ">
<path fill="none" stroke="#63b8ff" d="M305.98,-75.57C305.48,-81.12 293.98,-85.5 271.5,-85.5 238.8,-85.5 229.34,-76.23 243.14,-67.58"/>
<polygon fill="#63b8ff" stroke="#63b8ff" points="308.72,-73.39 299.86,-67.58 303.16,-77.65 308.72,-73.39"/>
</a>
</g>
</g>
<!-- Node4 -->
<g id="Node000004" class="node">
<title>Node4</title>
<g id="a_Node000004"><a xlink:href="classcbrc_1_1StringHashtableIterator.html#a44eccf6315bfc384c6de343066af92a9" target="_top" xlink:title=" ">
<polygon fill="white" stroke="#666666" points="157,-30 0,-30 0,0 157,0 157,-30"/>
<text text-anchor="start" x="8" y="-18" font-family="Helvetica,sans-Serif" font-size="10.00">cbrc::StringHashtableIterator</text>
<text text-anchor="middle" x="78.5" y="-7" font-family="Helvetica,sans-Serif" font-size="10.00">::operator*</text>
</a>
</g>
</g>
<!-- Node3&#45;&gt;Node4 -->
<g id="edge4_Node000003_Node000004" class="edge">
<title>Node3&#45;&gt;Node4</title>
<g id="a_edge4_Node000003_Node000004"><a xlink:title=" ">
<path fill="none" stroke="#63b8ff" d="M182.81,-15C174.24,-15 165.58,-15 157.12,-15"/>
<polygon fill="#63b8ff" stroke="#63b8ff" points="182.81,-18.5 192.81,-15 182.81,-11.5 182.81,-18.5"/>
</a>
</g>
</g>
</g>
</svg>
