<?xml version="1.0" encoding="UTF-8" standalone="no"?>
<!DOCTYPE svg PUBLIC "-//W3C//DTD SVG 1.1//EN"
 "http://www.w3.org/Graphics/SVG/1.1/DTD/svg11.dtd">
<!-- Generated by graphviz version 2.43.0 (0)
 -->
<!-- Title: cbrc::FLArray::assign Pages: 1 -->
<svg width="320pt" height="138pt"
 viewBox="0.00 0.00 320.00 138.00" xmlns="http://www.w3.org/2000/svg" xmlns:xlink="http://www.w3.org/1999/xlink">
<g id="graph0" class="graph" transform="scale(1 1) rotate(0) translate(4 134)">
<title>cbrc::FLArray::assign</title>
<!-- Node1 -->
<g id="Node000001" class="node">
<title>Node1</title>
<g id="a_Node000001"><a xlink:title=" ">
<polygon fill="#999999" stroke="#666666" points="312,-74 194,-74 194,-55 312,-55 312,-74"/>
<text text-anchor="middle" x="253" y="-62" font-family="Helvetica,sans-Serif" font-size="10.00">cbrc::FLArray::assign</text>
</a>
</g>
</g>
<!-- Node2 -->
<g id="Node000002" class="node">
<title>Node2</title>
<g id="a_Node000002"><a xlink:href="classcbrc_1_1FLArray.html#ab32639991e856c51b10618ca85dfc90e" target="_top" xlink:title=" ">
<polygon fill="white" stroke="#666666" points="141.5,-130 16.5,-130 16.5,-111 141.5,-111 141.5,-130"/>
<text text-anchor="middle" x="79" y="-118" font-family="Helvetica,sans-Serif" font-size="10.00">cbrc::FLArray::FLArray</text>
</a>
</g>
</g>
<!-- Node1&#45;&gt;Node2 -->
<g id="edge1_Node000001_Node000002" class="edge">
<title>Node1&#45;&gt;Node2</title>
<g id="a_edge1_Node000001_Node000002"><a xlink:title=" ">
<path fill="none" stroke="#63b8ff" d="M221.83,-78.11C203.61,-85.97 179.77,-95.63 158,-102.5 148.06,-105.63 137.25,-108.48 126.93,-110.93"/>
<polygon fill="#63b8ff" stroke="#63b8ff" points="223.31,-81.28 231.07,-74.07 220.5,-74.87 223.31,-81.28"/>
</a>
</g>
</g>
<!-- Node3 -->
<g id="Node000003" class="node">
<title>Node3</title>
<g id="a_Node000003"><a xlink:href="classcbrc_1_1FLArray.html#a4490652ea80d8fa9d5a733392154fbe5" target="_top" xlink:title=" ">
<polygon fill="white" stroke="#666666" points="147,-93 11,-93 11,-74 147,-74 147,-93"/>
<text text-anchor="middle" x="79" y="-81" font-family="Helvetica,sans-Serif" font-size="10.00">cbrc::FLArray::operator=</text>
</a>
</g>
</g>
<!-- Node1&#45;&gt;Node3 -->
<g id="edge2_Node000001_Node000003" class="edge">
<title>Node1&#45;&gt;Node3</title>
<g id="a_edge2_Node000001_Node000003"><a xlink:title=" ">
<path fill="none" stroke="#63b8ff" d="M183.76,-72.04C171.68,-73.37 159.11,-74.76 147.07,-76.09"/>
<polygon fill="#63b8ff" stroke="#63b8ff" points="184.21,-75.51 193.77,-70.93 183.44,-68.55 184.21,-75.51"/>
</a>
</g>
</g>
<!-- Node4 -->
<g id="Node000004" class="node">
<title>Node4</title>
<g id="a_Node000004"><a xlink:href="classcbrc_1_1FLNumArray.html#a5bb0ce0c387a8067b8e6cb0febf59ef0" target="_top" xlink:title=" ">
<polygon fill="white" stroke="#666666" points="158,-56 0,-56 0,-37 158,-37 158,-56"/>
<text text-anchor="middle" x="79" y="-44" font-family="Helvetica,sans-Serif" font-size="10.00">cbrc::FLNumArray::operator=</text>
</a>
</g>
</g>
<!-- Node1&#45;&gt;Node4 -->
<g id="edge3_Node000001_Node000004" class="edge">
<title>Node1&#45;&gt;Node4</title>
<g id="a_edge3_Node000001_Node000004"><a xlink:title=" ">
<path fill="none" stroke="#63b8ff" d="M183.72,-57.35C175.37,-56.48 166.78,-55.58 158.3,-54.69"/>
<polygon fill="#63b8ff" stroke="#63b8ff" points="183.46,-60.85 193.77,-58.41 184.19,-53.88 183.46,-60.85"/>
</a>
</g>
</g>
<!-- Node5 -->
<g id="Node000005" class="node">
<title>Node5</title>
<g id="a_Node000005"><a xlink:href="classcbrc_1_1FLArray.html#a792ef8185d5cf7042007103f2a75e46a" target="_top" xlink:title=" ">
<polygon fill="white" stroke="#666666" points="147,-19 11,-19 11,0 147,0 147,-19"/>
<text text-anchor="middle" x="79" y="-7" font-family="Helvetica,sans-Serif" font-size="10.00">cbrc::FLArray::operator=</text>
</a>
</g>
</g>
<!-- Node1&#45;&gt;Node5 -->
<g id="edge4_Node000001_Node000005" class="edge">
<title>Node1&#45;&gt;Node5</title>
<g id="a_edge4_Node000001_Node000005"><a xlink:title=" ">
<path fill="none" stroke="#63b8ff" d="M220.04,-51.1C202.02,-43.84 178.97,-35.04 158,-28.5 146.96,-25.06 134.87,-21.85 123.59,-19.08"/>
<polygon fill="#63b8ff" stroke="#63b8ff" points="218.91,-54.42 229.49,-54.95 221.55,-47.94 218.91,-54.42"/>
</a>
</g>
</g>
</g>
</svg>
