<?xml version="1.0" encoding="UTF-8" standalone="no"?>
<!DOCTYPE svg PUBLIC "-//W3C//DTD SVG 1.1//EN"
 "http://www.w3.org/Graphics/SVG/1.1/DTD/svg11.dtd">
<!-- Generated by graphviz version 2.43.0 (0)
 -->
<!-- Title: cbrc::BitMatrix::validIndex Pages: 1 -->
<svg width="496pt" height="311pt"
 viewBox="0.00 0.00 496.00 311.00" xmlns="http://www.w3.org/2000/svg" xmlns:xlink="http://www.w3.org/1999/xlink">

<svg id="main" version="1.1" xmlns="http://www.w3.org/2000/svg" xmlns:xlink="http://www.w3.org/1999/xlink" xml:space="preserve" onload="init(evt)">
<style type="text/css"><![CDATA[
.node, .edge {opacity: 0.7;}
.node.selected, .edge.selected {opacity: 1;}
.edge:hover path { stroke: red; }
.edge:hover polygon { stroke: red; fill: red; }
]]></style>
<script type="application/ecmascript" xlink:href="svg.min.js"/>
<svg id="graph" class="graph">
<g id="graph0" class="graph" transform="scale(1 1) rotate(0) translate(4 307)">
<title>cbrc::BitMatrix::validIndex</title>
<!-- Node1 -->
<g id="Node000001" class="node">
<title>Node1</title>
<g id="a_Node000001"><a xlink:title=" ">
<polygon fill="#999999" stroke="#666666" points="488,-157 343,-157 343,-138 488,-138 488,-157"/>
<text text-anchor="middle" x="415.5" y="-145" font-family="Helvetica,sans-Serif" font-size="10.00">cbrc::BitMatrix::validIndex</text>
</a>
</g>
</g>
<!-- Node2 -->
<g id="Node000002" class="node">
<title>Node2</title>
<g id="a_Node000002"><a xlink:href="classcbrc_1_1BitMatrix.html#ac291f6cba34b4506666de158097b341a" target="_top" xlink:title=" ">
<polygon fill="white" stroke="#666666" points="294.5,-303 176.5,-303 176.5,-284 294.5,-284 294.5,-303"/>
<text text-anchor="middle" x="235.5" y="-291" font-family="Helvetica,sans-Serif" font-size="10.00">cbrc::BitMatrix::clear</text>
</a>
</g>
</g>
<!-- Node1&#45;&gt;Node2 -->
<g id="edge1_Node000001_Node000002" class="edge">
<title>Node1&#45;&gt;Node2</title>
<g id="a_edge1_Node000001_Node000002"><a xlink:title=" ">
<path fill="none" stroke="#63b8ff" d="M404.01,-165.91C387.18,-193.74 351.5,-246.24 307,-274.5 300.9,-278.37 294.02,-281.46 287.01,-283.93"/>
<polygon fill="#63b8ff" stroke="#63b8ff" points="407.09,-167.57 409.15,-157.18 401.06,-164.02 407.09,-167.57"/>
</a>
</g>
</g>
<!-- Node3 -->
<g id="Node000003" class="node">
<title>Node3</title>
<g id="a_Node000003"><a xlink:href="classcbrc_1_1BitMatrixFast.html#a0e9052ae418747ec527f5e49ebb83f38" target="_top" xlink:title=" ">
<polygon fill="white" stroke="#666666" points="289,-265.5 182,-265.5 182,-235.5 289,-235.5 289,-265.5"/>
<text text-anchor="start" x="190" y="-253.5" font-family="Helvetica,sans-Serif" font-size="10.00">cbrc::BitMatrixFast</text>
<text text-anchor="middle" x="235.5" y="-242.5" font-family="Helvetica,sans-Serif" font-size="10.00">::clear</text>
</a>
</g>
</g>
<!-- Node1&#45;&gt;Node3 -->
<g id="edge2_Node000001_Node000003" class="edge">
<title>Node1&#45;&gt;Node3</title>
<g id="a_edge2_Node000001_Node000003"><a xlink:title=" ">
<path fill="none" stroke="#63b8ff" d="M394.33,-163.33C373.32,-179.33 339.07,-204.12 307,-221.5 297.69,-226.54 287.32,-231.27 277.45,-235.38"/>
<polygon fill="#63b8ff" stroke="#63b8ff" points="396.68,-165.93 402.47,-157.05 392.41,-160.38 396.68,-165.93"/>
</a>
</g>
</g>
<!-- Node4 -->
<g id="Node000004" class="node">
<title>Node4</title>
<g id="a_Node000004"><a xlink:href="classcbrc_1_1BitMatrixFast.html#a78b9a11c06a0bf4043d5d7b0fd810cd6" target="_top" xlink:title=" ">
<polygon fill="white" stroke="#666666" points="128,-238 0,-238 0,-219 128,-219 128,-238"/>
<text text-anchor="middle" x="64" y="-226" font-family="Helvetica,sans-Serif" font-size="10.00">cbrc::BitMatrixFast::set</text>
</a>
</g>
</g>
<!-- Node1&#45;&gt;Node4 -->
<g id="edge10_Node000001_Node000004" class="edge">
<title>Node1&#45;&gt;Node4</title>
<g id="a_edge10_Node000001_Node000004"><a xlink:title=" ">
<path fill="none" stroke="#63b8ff" d="M383.66,-161.16C362.46,-170.07 333.47,-181.34 307,-188.5 247.29,-204.65 177.43,-215.35 128.16,-221.58"/>
<polygon fill="#63b8ff" stroke="#63b8ff" points="385.28,-164.27 393.1,-157.13 382.53,-157.84 385.28,-164.27"/>
</a>
</g>
</g>
<!-- Node5 -->
<g id="Node000005" class="node">
<title>Node5</title>
<g id="a_Node000005"><a xlink:href="classcbrc_1_1BitMatrix.html#a7a36a7d83941d33761db426da334a307" target="_top" xlink:title=" ">
<polygon fill="white" stroke="#666666" points="307,-179 164,-179 164,-160 307,-160 307,-179"/>
<text text-anchor="middle" x="235.5" y="-167" font-family="Helvetica,sans-Serif" font-size="10.00">cbrc::BitMatrix::operator()</text>
</a>
</g>
</g>
<!-- Node1&#45;&gt;Node5 -->
<g id="edge5_Node000001_Node000005" class="edge">
<title>Node1&#45;&gt;Node5</title>
<g id="a_edge5_Node000001_Node000005"><a xlink:title=" ">
<path fill="none" stroke="#63b8ff" d="M332.84,-157.59C324.25,-158.65 315.57,-159.73 307.11,-160.77"/>
<polygon fill="#63b8ff" stroke="#63b8ff" points="333.37,-161.05 342.87,-156.35 332.52,-154.11 333.37,-161.05"/>
</a>
</g>
</g>
<!-- Node6 -->
<g id="Node000006" class="node">
<title>Node6</title>
<g id="a_Node000006"><a xlink:href="classcbrc_1_1BitMatrixFast.html#abff3bc37992f6cc78c978ba86287b79b" target="_top" xlink:title=" ">
<polygon fill="white" stroke="#666666" points="289,-141.5 182,-141.5 182,-111.5 289,-111.5 289,-141.5"/>
<text text-anchor="start" x="190" y="-129.5" font-family="Helvetica,sans-Serif" font-size="10.00">cbrc::BitMatrixFast</text>
<text text-anchor="middle" x="235.5" y="-118.5" font-family="Helvetica,sans-Serif" font-size="10.00">::operator()</text>
</a>
</g>
</g>
<!-- Node1&#45;&gt;Node6 -->
<g id="edge6_Node000001_Node000006" class="edge">
<title>Node1&#45;&gt;Node6</title>
<g id="a_edge6_Node000001_Node000006"><a xlink:title=" ">
<path fill="none" stroke="#63b8ff" d="M332.68,-137.85C317.87,-136.1 302.79,-134.32 289.1,-132.71"/>
<polygon fill="#63b8ff" stroke="#63b8ff" points="332.53,-141.35 342.87,-139.05 333.35,-134.4 332.53,-141.35"/>
</a>
</g>
</g>
<!-- Node7 -->
<g id="Node000007" class="node">
<title>Node7</title>
<g id="a_Node000007"><a xlink:href="classcbrc_1_1BitMatrix.html#ad89326138525160a23edbff14bc3d439" target="_top" xlink:title=" ">
<polygon fill="white" stroke="#666666" points="290,-93 181,-93 181,-74 290,-74 290,-93"/>
<text text-anchor="middle" x="235.5" y="-81" font-family="Helvetica,sans-Serif" font-size="10.00">cbrc::BitMatrix::set</text>
</a>
</g>
</g>
<!-- Node1&#45;&gt;Node7 -->
<g id="edge7_Node000001_Node000007" class="edge">
<title>Node1&#45;&gt;Node7</title>
<g id="a_edge7_Node000001_Node000007"><a xlink:title=" ">
<path fill="none" stroke="#63b8ff" d="M384.62,-133.73C363.27,-124.2 333.73,-111.65 307,-102.5 296.93,-99.05 285.87,-95.82 275.57,-93.03"/>
<polygon fill="#63b8ff" stroke="#63b8ff" points="383.25,-136.95 393.81,-137.87 386.13,-130.57 383.25,-136.95"/>
</a>
</g>
</g>
<!-- Node8 -->
<g id="Node000008" class="node">
<title>Node8</title>
<g id="a_Node000008"><a xlink:href="classcbrc_1_1BitMatrixFast.html#ac25860d722deccc8d95bdcf34092cdfb" target="_top" xlink:title=" ">
<polygon fill="white" stroke="#666666" points="299.5,-56 171.5,-56 171.5,-37 299.5,-37 299.5,-56"/>
<text text-anchor="middle" x="235.5" y="-44" font-family="Helvetica,sans-Serif" font-size="10.00">cbrc::BitMatrixFast::set</text>
</a>
</g>
</g>
<!-- Node1&#45;&gt;Node8 -->
<g id="edge8_Node000001_Node000008" class="edge">
<title>Node1&#45;&gt;Node8</title>
<g id="a_edge8_Node000001_Node000008"><a xlink:title=" ">
<path fill="none" stroke="#63b8ff" d="M397.3,-130.93C377.2,-112.43 342.17,-82.81 307,-65.5 299.27,-61.69 290.67,-58.57 282.21,-56.03"/>
<polygon fill="#63b8ff" stroke="#63b8ff" points="395.04,-133.6 404.73,-137.89 399.82,-128.5 395.04,-133.6"/>
</a>
</g>
</g>
<!-- Node9 -->
<g id="Node000009" class="node">
<title>Node9</title>
<g id="a_Node000009"><a xlink:href="classcbrc_1_1BitMatrix.html#a3877dd4f16f9cc3452ed6d2bb0187bab" target="_top" xlink:title=" ">
<polygon fill="white" stroke="#666666" points="290,-19 181,-19 181,0 290,0 290,-19"/>
<text text-anchor="middle" x="235.5" y="-7" font-family="Helvetica,sans-Serif" font-size="10.00">cbrc::BitMatrix::set</text>
</a>
</g>
</g>
<!-- Node1&#45;&gt;Node9 -->
<g id="edge9_Node000001_Node000009" class="edge">
<title>Node1&#45;&gt;Node9</title>
<g id="a_edge9_Node000001_Node000009"><a xlink:title=" ">
<path fill="none" stroke="#63b8ff" d="M402.97,-129.14C385.48,-102.83 349.71,-54.67 307,-28.5 300.73,-24.66 293.68,-21.58 286.53,-19.12"/>
<polygon fill="#63b8ff" stroke="#63b8ff" points="400.19,-131.29 408.57,-137.77 406.06,-127.48 400.19,-131.29"/>
</a>
</g>
</g>
<!-- Node3&#45;&gt;Node4 -->
<g id="edge3_Node000003_Node000004" class="edge">
<title>Node3&#45;&gt;Node4</title>
<g id="a_edge3_Node000003_Node000004"><a xlink:title=" ">
<path fill="none" stroke="#63b8ff" d="M171.63,-242.34C157.41,-240.49 142.31,-238.53 128.09,-236.69"/>
<polygon fill="#63b8ff" stroke="#63b8ff" points="171.43,-245.84 181.8,-243.66 172.33,-238.9 171.43,-245.84"/>
</a>
</g>
</g>
<!-- Node4&#45;&gt;Node4 -->
<g id="edge4_Node000004_Node000004" class="edge">
<title>Node4&#45;&gt;Node4</title>
<g id="a_edge4_Node000004_Node000004"><a xlink:title=" ">
<path fill="none" stroke="#63b8ff" d="M95.81,-246.45C94.9,-251.82 84.3,-256 64,-256 33.79,-256 25.05,-246.73 37.8,-238.08"/>
<polygon fill="#63b8ff" stroke="#63b8ff" points="98.68,-244.44 90.2,-238.08 92.86,-248.34 98.68,-244.44"/>
</a>
</g>
</g>
</g>
</svg>
</svg>

<style type='text/css'>
<![CDATA[
[data-mouse-over-selected='false'] { opacity: 0.7; }
[data-mouse-over-selected='true']  { opacity: 1.0; }
]]>
</style>
<script type="application/ecmascript"><![CDATA[
document.addEventListener('DOMContentLoaded', (event) => {
  highlightEdges();
  highlightAdjacentNodes();
});
]]></script>
</svg>
