<?xml version="1.0" encoding="UTF-8" standalone="no"?>
<!DOCTYPE svg PUBLIC "-//W3C//DTD SVG 1.1//EN"
 "http://www.w3.org/Graphics/SVG/1.1/DTD/svg11.dtd">
<!-- Generated by graphviz version 2.43.0 (0)
 -->
<!-- Title: cbrc::FLESorted::read Pages: 1 -->
<svg width="594pt" height="121pt"
 viewBox="0.00 0.00 594.00 121.00" xmlns="http://www.w3.org/2000/svg" xmlns:xlink="http://www.w3.org/1999/xlink">
<g id="graph0" class="graph" transform="scale(1 1) rotate(0) translate(4 117)">
<title>cbrc::FLESorted::read</title>
<!-- Node1 -->
<g id="Node000001" class="node">
<title>Node1</title>
<g id="a_Node000001"><a xlink:title=" ">
<polygon fill="#999999" stroke="#666666" points="119,-75 0,-75 0,-56 119,-56 119,-75"/>
<text text-anchor="middle" x="59.5" y="-63" font-family="Helvetica,sans-Serif" font-size="10.00">cbrc::FLESorted::read</text>
</a>
</g>
</g>
<!-- Node2 -->
<g id="Node000002" class="node">
<title>Node2</title>
<g id="a_Node000002"><a xlink:href="classcbrc_1_1FLEArray.html#ab4f853671d71b67a4771b5199af8d8f8" target="_top" xlink:title=" ">
<polygon fill="white" stroke="#666666" points="268,-75 155,-75 155,-56 268,-56 268,-75"/>
<text text-anchor="middle" x="211.5" y="-63" font-family="Helvetica,sans-Serif" font-size="10.00">cbrc::FLEArray::read</text>
</a>
</g>
</g>
<!-- Node1&#45;&gt;Node2 -->
<g id="edge1_Node000001_Node000002" class="edge">
<title>Node1&#45;&gt;Node2</title>
<g id="a_edge1_Node000001_Node000002"><a xlink:title=" ">
<path fill="none" stroke="#63b8ff" d="M119.35,-65.5C127.64,-65.5 136.2,-65.5 144.61,-65.5"/>
<polygon fill="#63b8ff" stroke="#63b8ff" points="144.76,-69 154.76,-65.5 144.76,-62 144.76,-69"/>
</a>
</g>
</g>
<!-- Node2&#45;&gt;Node2 -->
<g id="edge6_Node000002_Node000002" class="edge">
<title>Node2&#45;&gt;Node2</title>
<g id="a_edge6_Node000002_Node000002"><a xlink:title=" ">
<path fill="none" stroke="#63b8ff" d="M188.07,-75.08C176.68,-83.73 184.48,-93 211.5,-93 229.23,-93 238.69,-89.01 239.87,-83.82"/>
<polygon fill="#63b8ff" stroke="#63b8ff" points="242.9,-82.06 234.93,-75.08 236.81,-85.51 242.9,-82.06"/>
</a>
</g>
</g>
<!-- Node3 -->
<g id="Node000003" class="node">
<title>Node3</title>
<g id="a_Node000003"><a xlink:href="classcbrc_1_1FLEArray.html#a8255bcefe055e10a4fccd3331b450fee" target="_top" xlink:title=" ">
<polygon fill="white" stroke="#666666" points="430,-113 313,-113 313,-94 430,-94 430,-113"/>
<text text-anchor="middle" x="371.5" y="-101" font-family="Helvetica,sans-Serif" font-size="10.00">cbrc::FLEArray::bsize</text>
</a>
</g>
</g>
<!-- Node2&#45;&gt;Node3 -->
<g id="edge2_Node000002_Node000003" class="edge">
<title>Node2&#45;&gt;Node3</title>
<g id="a_edge2_Node000002_Node000003"><a xlink:title=" ">
<path fill="none" stroke="#63b8ff" d="M252.37,-75.09C273.22,-80.1 298.93,-86.29 321.04,-91.61"/>
<polygon fill="#63b8ff" stroke="#63b8ff" points="320.38,-95.04 330.92,-93.98 322.01,-88.24 320.38,-95.04"/>
</a>
</g>
</g>
<!-- Node4 -->
<g id="Node000004" class="node">
<title>Node4</title>
<g id="a_Node000004"><a xlink:href="classcbrc_1_1FLEArray.html#ad71311380d762114c9e0f3b0dda38b7c" target="_top" xlink:title=" ">
<polygon fill="white" stroke="#666666" points="586,-94 475,-94 475,-75 586,-75 586,-94"/>
<text text-anchor="middle" x="530.5" y="-82" font-family="Helvetica,sans-Serif" font-size="10.00">cbrc::FLEArray::size</text>
</a>
</g>
</g>
<!-- Node2&#45;&gt;Node4 -->
<g id="edge7_Node000002_Node000004" class="edge">
<title>Node2&#45;&gt;Node4</title>
<g id="a_edge7_Node000002_Node000004"><a xlink:title=" ">
<path fill="none" stroke="#63b8ff" d="M268.08,-68.83C322.94,-72.12 406.78,-77.14 464.65,-80.61"/>
<polygon fill="#63b8ff" stroke="#63b8ff" points="464.59,-84.12 474.78,-81.22 465.01,-77.13 464.59,-84.12"/>
</a>
</g>
</g>
<!-- Node5 -->
<g id="Node000005" class="node">
<title>Node5</title>
<g id="a_Node000005"><a xlink:href="classcbrc_1_1FLEArray.html#a5368c7c0434bd5c119d2cbb39f4b399e" target="_top" xlink:title=" ">
<polygon fill="white" stroke="#666666" points="439,-19 304,-19 304,0 439,0 439,-19"/>
<text text-anchor="middle" x="371.5" y="-7" font-family="Helvetica,sans-Serif" font-size="10.00">cbrc::FLEArray::FLEArray</text>
</a>
</g>
</g>
<!-- Node2&#45;&gt;Node5 -->
<g id="edge4_Node000002_Node000005" class="edge">
<title>Node2&#45;&gt;Node5</title>
<g id="a_edge4_Node000002_Node000005"><a xlink:title=" ">
<path fill="none" stroke="#63b8ff" d="M239.66,-55.87C265.71,-46.64 305.21,-32.64 334,-22.44"/>
<polygon fill="#63b8ff" stroke="#63b8ff" points="335.44,-25.64 343.69,-19 333.1,-19.04 335.44,-25.64"/>
</a>
</g>
</g>
<!-- Node3&#45;&gt;Node4 -->
<g id="edge3_Node000003_Node000004" class="edge">
<title>Node3&#45;&gt;Node4</title>
<g id="a_edge3_Node000003_Node000004"><a xlink:title=" ">
<path fill="none" stroke="#63b8ff" d="M430.07,-96.53C441.37,-95.17 453.3,-93.72 464.82,-92.33"/>
<polygon fill="#63b8ff" stroke="#63b8ff" points="465.3,-95.79 474.81,-91.12 464.46,-88.85 465.3,-95.79"/>
</a>
</g>
</g>
<!-- Node5&#45;&gt;Node5 -->
<g id="edge5_Node000005_Node000005" class="edge">
<title>Node5&#45;&gt;Node5</title>
<g id="a_edge5_Node000005_Node000005"><a xlink:title=" ">
<path fill="none" stroke="#63b8ff" d="M347.15,-19.08C335.3,-27.73 343.42,-37 371.5,-37 389.93,-37 399.76,-33.01 400.99,-27.82"/>
<polygon fill="#63b8ff" stroke="#63b8ff" points="403.94,-25.93 395.85,-19.08 397.91,-29.48 403.94,-25.93"/>
</a>
</g>
</g>
</g>
</svg>
