<?xml version="1.0" encoding="UTF-8" standalone="no"?>
<!DOCTYPE svg PUBLIC "-//W3C//DTD SVG 1.1//EN"
 "http://www.w3.org/Graphics/SVG/1.1/DTD/svg11.dtd">
<!-- Generated by graphviz version 2.43.0 (0)
 -->
<!-- Title: cbrc::ArgvParser::setCautiously Pages: 1 -->
<svg width="743pt" height="161pt"
 viewBox="0.00 0.00 743.00 160.57" xmlns="http://www.w3.org/2000/svg" xmlns:xlink="http://www.w3.org/1999/xlink">
<g id="graph0" class="graph" transform="scale(1 1) rotate(0) translate(4 156.57)">
<title>cbrc::ArgvParser::setCautiously</title>
<!-- Node1 -->
<g id="Node000001" class="node">
<title>Node1</title>
<g id="a_Node000001"><a xlink:title=" ">
<polygon fill="#999999" stroke="#666666" points="168,-93 0,-93 0,-74 168,-74 168,-93"/>
<text text-anchor="middle" x="84" y="-81" font-family="Helvetica,sans-Serif" font-size="10.00">cbrc::ArgvParser::setCautiously</text>
</a>
</g>
</g>
<!-- Node2 -->
<g id="Node000002" class="node">
<title>Node2</title>
<g id="a_Node000002"><a xlink:href="namespacecbrc.html#a94ca1678e0481b17626977da7cfb798b" target="_top" xlink:title=" ">
<polygon fill="white" stroke="#666666" points="566.5,-149 418.5,-149 418.5,-130 566.5,-130 566.5,-149"/>
<text text-anchor="middle" x="492.5" y="-137" font-family="Helvetica,sans-Serif" font-size="10.00">cbrc::_argvParserNullString</text>
</a>
</g>
</g>
<!-- Node1&#45;&gt;Node2 -->
<g id="edge1_Node000001_Node000002" class="edge">
<title>Node1&#45;&gt;Node2</title>
<g id="a_edge1_Node000001_Node000002"><a xlink:title=" ">
<path fill="none" stroke="#63b8ff" d="M99.63,-93.01C121.35,-106.49 163.89,-130.53 204,-139.5 271.55,-154.6 350.28,-153.34 408.25,-149.01"/>
<polygon fill="#63b8ff" stroke="#63b8ff" points="408.77,-152.48 418.47,-148.21 408.22,-145.51 408.77,-152.48"/>
</a>
</g>
</g>
<!-- Node3 -->
<g id="Node000003" class="node">
<title>Node3</title>
<g id="a_Node000003"><a xlink:href="classcbrc_1_1ArgvParser.html#a273ad44f1f402d2a9c31d5cb04c2a63f" target="_top" xlink:title=" ">
<polygon fill="white" stroke="#666666" points="359.5,-130 225.5,-130 225.5,-111 359.5,-111 359.5,-130"/>
<text text-anchor="middle" x="292.5" y="-118" font-family="Helvetica,sans-Serif" font-size="10.00">cbrc::ArgvParser::getArg</text>
</a>
</g>
</g>
<!-- Node1&#45;&gt;Node3 -->
<g id="edge2_Node000001_Node000003" class="edge">
<title>Node1&#45;&gt;Node3</title>
<g id="a_edge2_Node000001_Node000003"><a xlink:title=" ">
<path fill="none" stroke="#63b8ff" d="M138.18,-93.03C165.65,-97.95 199.36,-103.99 228.17,-109.15"/>
<polygon fill="#63b8ff" stroke="#63b8ff" points="227.68,-112.62 238.14,-110.94 228.92,-105.73 227.68,-112.62"/>
</a>
</g>
</g>
<!-- Node4 -->
<g id="Node000004" class="node">
<title>Node4</title>
<g id="a_Node000004"><a xlink:href="classcbrc_1_1ArgvParser.html#acfc1ef9228adb3bfe47ba9c9e68e68cd" target="_top" xlink:title=" ">
<polygon fill="white" stroke="#666666" points="360,-93 225,-93 225,-74 360,-74 360,-93"/>
<text text-anchor="middle" x="292.5" y="-81" font-family="Helvetica,sans-Serif" font-size="10.00">cbrc::ArgvParser::hasArg</text>
</a>
</g>
</g>
<!-- Node1&#45;&gt;Node4 -->
<g id="edge4_Node000001_Node000004" class="edge">
<title>Node1&#45;&gt;Node4</title>
<g id="a_edge4_Node000001_Node000004"><a xlink:title=" ">
<path fill="none" stroke="#63b8ff" d="M168.1,-83.5C183.4,-83.5 199.31,-83.5 214.42,-83.5"/>
<polygon fill="#63b8ff" stroke="#63b8ff" points="214.74,-87 224.74,-83.5 214.74,-80 214.74,-87"/>
</a>
</g>
</g>
<!-- Node5 -->
<g id="Node000005" class="node">
<title>Node5</title>
<g id="a_Node000005"><a xlink:href="classcbrc_1_1ArgvParser.html#ae862060477d073e6a4dcbaa09a86189d" target="_top" xlink:title=" ">
<polygon fill="white" stroke="#666666" points="381,-56 204,-56 204,-37 381,-37 381,-56"/>
<text text-anchor="middle" x="292.5" y="-44" font-family="Helvetica,sans-Serif" font-size="10.00">cbrc::ArgvParser::openCautiously</text>
</a>
</g>
</g>
<!-- Node1&#45;&gt;Node5 -->
<g id="edge5_Node000001_Node000005" class="edge">
<title>Node1&#45;&gt;Node5</title>
<g id="a_edge5_Node000001_Node000005"><a xlink:title=" ">
<path fill="none" stroke="#63b8ff" d="M138.18,-73.97C165.65,-69.05 199.36,-63.01 228.17,-57.85"/>
<polygon fill="#63b8ff" stroke="#63b8ff" points="228.92,-61.27 238.14,-56.06 227.68,-54.38 228.92,-61.27"/>
</a>
</g>
</g>
<!-- Node9 -->
<g id="Node000009" class="node">
<title>Node9</title>
<g id="a_Node000009"><a xlink:href="classcbrc_1_1ArgvParser.html#ae3c19f8214a3eed2fd50d1f62a8a41c0" target="_top" xlink:title=" ">
<polygon fill="white" stroke="#666666" points="568,-19 417,-19 417,0 568,0 568,-19"/>
<text text-anchor="middle" x="492.5" y="-7" font-family="Helvetica,sans-Serif" font-size="10.00">cbrc::ArgvParser::pathname</text>
</a>
</g>
</g>
<!-- Node1&#45;&gt;Node9 -->
<g id="edge10_Node000001_Node000009" class="edge">
<title>Node1&#45;&gt;Node9</title>
<g id="a_edge10_Node000001_Node000009"><a xlink:title=" ">
<path fill="none" stroke="#63b8ff" d="M100.85,-73.86C123.02,-60.93 164.96,-38.45 204,-28.5 270.65,-11.52 348.64,-7.3 406.56,-7.03"/>
<polygon fill="#63b8ff" stroke="#63b8ff" points="406.77,-10.53 416.77,-7.02 406.77,-3.53 406.77,-10.53"/>
</a>
</g>
</g>
<!-- Node3&#45;&gt;Node2 -->
<g id="edge3_Node000003_Node000002" class="edge">
<title>Node3&#45;&gt;Node2</title>
<g id="a_edge3_Node000003_Node000002"><a xlink:title=" ">
<path fill="none" stroke="#63b8ff" d="M359.71,-126.85C375.25,-128.35 392.02,-129.95 408.21,-131.51"/>
<polygon fill="#63b8ff" stroke="#63b8ff" points="407.91,-134.99 418.2,-132.47 408.58,-128.03 407.91,-134.99"/>
</a>
</g>
</g>
<!-- Node6 -->
<g id="Node000006" class="node">
<title>Node6</title>
<g id="a_Node000006"><a xlink:href="classcbrc_1_1ArgvParser.html#aad8dc9d595217cf4ad2a7f557371d3ab" target="_top" xlink:title=" ">
<polygon fill="white" stroke="#666666" points="550.5,-56 434.5,-56 434.5,-37 550.5,-37 550.5,-56"/>
<text text-anchor="middle" x="492.5" y="-44" font-family="Helvetica,sans-Serif" font-size="10.00">cbrc::ArgvParser::die</text>
</a>
</g>
</g>
<!-- Node5&#45;&gt;Node6 -->
<g id="edge6_Node000005_Node000006" class="edge">
<title>Node5&#45;&gt;Node6</title>
<g id="a_edge6_Node000005_Node000006"><a xlink:title=" ">
<path fill="none" stroke="#63b8ff" d="M381.21,-46.5C395.55,-46.5 410.22,-46.5 423.97,-46.5"/>
<polygon fill="#63b8ff" stroke="#63b8ff" points="424.3,-50 434.3,-46.5 424.3,-43 424.3,-50"/>
</a>
</g>
</g>
<!-- Node5&#45;&gt;Node9 -->
<g id="edge9_Node000005_Node000009" class="edge">
<title>Node5&#45;&gt;Node9</title>
<g id="a_edge9_Node000005_Node000009"><a xlink:title=" ">
<path fill="none" stroke="#63b8ff" d="M344.49,-36.97C370.72,-32.07 402.87,-26.06 430.42,-20.91"/>
<polygon fill="#63b8ff" stroke="#63b8ff" points="431.15,-24.34 440.34,-19.06 429.87,-17.46 431.15,-24.34"/>
</a>
</g>
</g>
<!-- Node7 -->
<g id="Node000007" class="node">
<title>Node7</title>
<g id="a_Node000007"><a xlink:href="classcbrc_1_1FLEArray.html#ad71311380d762114c9e0f3b0dda38b7c" target="_top" xlink:title=" ">
<polygon fill="white" stroke="#666666" points="725,-74 614,-74 614,-55 725,-55 725,-74"/>
<text text-anchor="middle" x="669.5" y="-62" font-family="Helvetica,sans-Serif" font-size="10.00">cbrc::FLEArray::size</text>
</a>
</g>
</g>
<!-- Node6&#45;&gt;Node7 -->
<g id="edge7_Node000006_Node000007" class="edge">
<title>Node6&#45;&gt;Node7</title>
<g id="a_edge7_Node000006_Node000007"><a xlink:title=" ">
<path fill="none" stroke="#63b8ff" d="M550.8,-52.39C567.72,-54.13 586.35,-56.05 603.7,-57.83"/>
<polygon fill="#63b8ff" stroke="#63b8ff" points="603.44,-61.33 613.75,-58.87 604.16,-54.36 603.44,-61.33"/>
</a>
</g>
</g>
<!-- Node8 -->
<g id="Node000008" class="node">
<title>Node8</title>
<g id="a_Node000008"><a xlink:href="classcbrc_1_1ArgvParser.html#a1b7d257748fcfaa9a9a3cf46bc36a7e5" target="_top" xlink:title=" ">
<polygon fill="white" stroke="#666666" points="735,-37 604,-37 604,-18 735,-18 735,-37"/>
<text text-anchor="middle" x="669.5" y="-25" font-family="Helvetica,sans-Serif" font-size="10.00">cbrc::ArgvParser::usage</text>
</a>
</g>
</g>
<!-- Node6&#45;&gt;Node8 -->
<g id="edge8_Node000006_Node000008" class="edge">
<title>Node6&#45;&gt;Node8</title>
<g id="a_edge8_Node000006_Node000008"><a xlink:title=" ">
<path fill="none" stroke="#63b8ff" d="M550.8,-40.28C564.44,-38.8 579.19,-37.2 593.49,-35.64"/>
<polygon fill="#63b8ff" stroke="#63b8ff" points="594.23,-39.08 603.79,-34.53 593.48,-32.13 594.23,-39.08"/>
</a>
</g>
</g>
</g>
</svg>
