<?xml version="1.0" encoding="UTF-8" standalone="no"?>
<!DOCTYPE svg PUBLIC "-//W3C//DTD SVG 1.1//EN"
 "http://www.w3.org/Graphics/SVG/1.1/DTD/svg11.dtd">
<!-- Generated by graphviz version 2.43.0 (0)
 -->
<!-- Title: cbrc::StringHashtable::printTableState Pages: 1 -->
<svg width="506pt" height="124pt"
 viewBox="0.00 0.00 506.00 123.50" xmlns="http://www.w3.org/2000/svg" xmlns:xlink="http://www.w3.org/1999/xlink">
<g id="graph0" class="graph" transform="scale(1 1) rotate(0) translate(4 119.5)">
<title>cbrc::StringHashtable::printTableState</title>
<!-- Node1 -->
<g id="Node000001" class="node">
<title>Node1</title>
<g id="a_Node000001"><a xlink:title=" ">
<polygon fill="#999999" stroke="#666666" points="121,-78 0,-78 0,-48 121,-48 121,-78"/>
<text text-anchor="start" x="8" y="-66" font-family="Helvetica,sans-Serif" font-size="10.00">cbrc::StringHashtable</text>
<text text-anchor="middle" x="60.5" y="-55" font-family="Helvetica,sans-Serif" font-size="10.00">::printTableState</text>
</a>
</g>
</g>
<!-- Node2 -->
<g id="Node000002" class="node">
<title>Node2</title>
<g id="a_Node000002"><a xlink:href="classcbrc_1_1StringHashtableLink.html#a4bf38e3d901c2486d8b6ce56d30ed4cd" target="_top" xlink:title=" ">
<polygon fill="white" stroke="#666666" points="321,-115.5 157,-115.5 157,-96.5 321,-96.5 321,-115.5"/>
<text text-anchor="middle" x="239" y="-103.5" font-family="Helvetica,sans-Serif" font-size="10.00">cbrc::StringHashtableLink::key</text>
</a>
</g>
</g>
<!-- Node1&#45;&gt;Node2 -->
<g id="edge1_Node000001_Node000002" class="edge">
<title>Node1&#45;&gt;Node2</title>
<g id="a_edge1_Node000001_Node000002"><a xlink:title=" ">
<path fill="none" stroke="#63b8ff" d="M120.81,-78.06C132.78,-81.06 145.29,-84.15 157,-87 166.68,-89.35 177.03,-91.82 186.98,-94.16"/>
<polygon fill="#63b8ff" stroke="#63b8ff" points="186.23,-97.58 196.76,-96.46 187.83,-90.77 186.23,-97.58"/>
</a>
</g>
</g>
<!-- Node4 -->
<g id="Node000004" class="node">
<title>Node4</title>
<g id="a_Node000004"><a xlink:href="classcbrc_1_1StringHashtableLink.html#a9a48f01ee02f3446caa0fb17783ab102" target="_top" xlink:title=" ">
<polygon fill="white" stroke="#666666" points="309.5,-78 168.5,-78 168.5,-48 309.5,-48 309.5,-78"/>
<text text-anchor="start" x="176.5" y="-66" font-family="Helvetica,sans-Serif" font-size="10.00">cbrc::StringHashtableLink</text>
<text text-anchor="middle" x="239" y="-55" font-family="Helvetica,sans-Serif" font-size="10.00">::next</text>
</a>
</g>
</g>
<!-- Node1&#45;&gt;Node4 -->
<g id="edge3_Node000001_Node000004" class="edge">
<title>Node1&#45;&gt;Node4</title>
<g id="a_edge3_Node000001_Node000004"><a xlink:title=" ">
<path fill="none" stroke="#63b8ff" d="M121.25,-63C133.05,-63 145.61,-63 157.95,-63"/>
<polygon fill="#63b8ff" stroke="#63b8ff" points="158.25,-66.5 168.25,-63 158.25,-59.5 158.25,-66.5"/>
</a>
</g>
</g>
<!-- Node5 -->
<g id="Node000005" class="node">
<title>Node5</title>
<g id="a_Node000005"><a xlink:href="classcbrc_1_1StringHashtableLink.html#a2836c1585e69191f910019c348684e1e" target="_top" xlink:title=" ">
<polygon fill="white" stroke="#666666" points="309.5,-30 168.5,-30 168.5,0 309.5,0 309.5,-30"/>
<text text-anchor="start" x="176.5" y="-18" font-family="Helvetica,sans-Serif" font-size="10.00">cbrc::StringHashtableLink</text>
<text text-anchor="middle" x="239" y="-7" font-family="Helvetica,sans-Serif" font-size="10.00">::value</text>
</a>
</g>
</g>
<!-- Node1&#45;&gt;Node5 -->
<g id="edge4_Node000001_Node000005" class="edge">
<title>Node1&#45;&gt;Node5</title>
<g id="a_edge4_Node000001_Node000005"><a xlink:title=" ">
<path fill="none" stroke="#63b8ff" d="M116.86,-47.94C134.69,-43.1 154.6,-37.68 173.05,-32.66"/>
<polygon fill="#63b8ff" stroke="#63b8ff" points="174.1,-36 182.84,-30 172.27,-29.25 174.1,-36"/>
</a>
</g>
</g>
<!-- Node3 -->
<g id="Node000003" class="node">
<title>Node3</title>
<g id="a_Node000003"><a xlink:href="classcbrc_1_1StringHashtableLink.html#acd25ea300a6a91d8802f2c4dfaee4630" target="_top" xlink:title=" ">
<polygon fill="white" stroke="#666666" points="498,-75 357,-75 357,-45 498,-45 498,-75"/>
<text text-anchor="start" x="365" y="-63" font-family="Helvetica,sans-Serif" font-size="10.00">cbrc::StringHashtableLink</text>
<text text-anchor="middle" x="427.5" y="-52" font-family="Helvetica,sans-Serif" font-size="10.00">::elem</text>
</a>
</g>
</g>
<!-- Node2&#45;&gt;Node3 -->
<g id="edge2_Node000002_Node000003" class="edge">
<title>Node2&#45;&gt;Node3</title>
<g id="a_edge2_Node000002_Node000003"><a xlink:title=" ">
<path fill="none" stroke="#63b8ff" d="M281.25,-96.49C294,-93.51 308.09,-90.16 321,-87 333.17,-84.02 346.11,-80.77 358.61,-77.59"/>
<polygon fill="#63b8ff" stroke="#63b8ff" points="359.69,-80.93 368.51,-75.06 357.96,-74.14 359.69,-80.93"/>
</a>
</g>
</g>
<!-- Node5&#45;&gt;Node3 -->
<g id="edge5_Node000005_Node000003" class="edge">
<title>Node5&#45;&gt;Node3</title>
<g id="a_edge5_Node000005_Node000003"><a xlink:title=" ">
<path fill="none" stroke="#63b8ff" d="M302.36,-30.05C319,-34.06 337.12,-38.43 354.25,-42.57"/>
<polygon fill="#63b8ff" stroke="#63b8ff" points="353.66,-46.02 364.2,-44.97 355.3,-39.22 353.66,-46.02"/>
</a>
</g>
</g>
</g>
</svg>
