<?xml version="1.0" encoding="UTF-8" standalone="no"?>
<!DOCTYPE svg PUBLIC "-//W3C//DTD SVG 1.1//EN"
 "http://www.w3.org/Graphics/SVG/1.1/DTD/svg11.dtd">
<!-- Generated by graphviz version 2.43.0 (0)
 -->
<!-- Title: cbrc::RecountNeighborProbGraphWriter::write Pages: 1 -->
<!--zoomable 440 -->

<svg id="main" version="1.1" xmlns="http://www.w3.org/2000/svg" xmlns:xlink="http://www.w3.org/1999/xlink" xml:space="preserve" onload="init(evt)">
<style type="text/css"><![CDATA[
.node, .edge {opacity: 0.7;}
.node.selected, .edge.selected {opacity: 1;}
.edge:hover path { stroke: red; }
.edge:hover polygon { stroke: red; fill: red; }
]]></style>

<defs>
  <circle id="rim" cx="0" cy="0" r="7"/>
  <circle id="rim2" cx="0" cy="0" r="3.5"/>
  <g id="zoomPlus">
    <use xlink:href="#rim" fill="#404040"><set attributeName="fill" to="#808080" begin="zoomplus.mouseover" end="zoomplus.mouseout"/></use>
    <path d="M-4,0h8M0,-4v8" fill="none" stroke="white" stroke-width="1.5" pointer-events="none"/>
  </g>
  <g id="zoomMin">
    <use xlink:href="#rim" fill="#404040"><set attributeName="fill" to="#808080" begin="zoomminus.mouseover" end="zoomminus.mouseout"/></use>
    <path d="M-4,0h8" fill="none" stroke="white" stroke-width="1.5" pointer-events="none"/>
  </g>
  <g id="arrowUp" transform="translate(30 24)">
    <use xlink:href="#rim"/>
    <path pointer-events="none" fill="none" stroke="white" stroke-width="1.5" d="M0,-3.0v7 M-2.5,-0.5L0,-3.0L2.5,-0.5"/>
  </g>
  <g id="arrowRight" transform="rotate(90) translate(36 -43)">
    <use xlink:href="#rim"/>
    <path pointer-events="none" fill="none" stroke="white" stroke-width="1.5" d="M0,-3.0v7 M-2.5,-0.5L0,-3.0L2.5,-0.5"/>
  </g>
  <g id="arrowDown" transform="rotate(180) translate(-30 -48)">
    <use xlink:href="#rim"/>
    <path pointer-events="none" fill="none" stroke="white" stroke-width="1.5" d="M0,-3.0v7 M-2.5,-0.5L0,-3.0L2.5,-0.5"/>
  </g>
  <g id="arrowLeft" transform="rotate(270) translate(-36 17)">
    <use xlink:href="#rim"/>
    <path pointer-events="none" fill="none" stroke="white" stroke-width="1.5" d="M0,-3.0v7 M-2.5,-0.5L0,-3.0L2.5,-0.5"/>
  </g>
  <g id="resetDef">
    <use xlink:href="#rim2" fill="#404040"><set attributeName="fill" to="#808080" begin="reset.mouseover" end="reset.mouseout"/></use>
  </g>
</defs>
<script type="application/ecmascript">
var viewWidth = 887;
var viewHeight = 440;
var sectionId = 'dynsection-0';
</script>
<script type="application/ecmascript" xlink:href="svg.min.js"/>
<svg id="graph" class="graph">
<g id="viewport">
<title>cbrc::RecountNeighborProbGraphWriter::write</title>
<!-- Node1 -->
<g id="Node000001" class="node">
<title>Node1</title>
<g id="a_Node000001"><a xlink:title=" ">
<polygon fill="#999999" stroke="#666666" points="149,-203.5 0,-203.5 0,-173.5 149,-173.5 149,-203.5"/>
<text text-anchor="start" x="8" y="-191.5" font-family="Helvetica,sans-Serif" font-size="10.00">cbrc::RecountNeighborProb</text>
<text text-anchor="middle" x="74.5" y="-180.5" font-family="Helvetica,sans-Serif" font-size="10.00">GraphWriter::write</text>
</a>
</g>
</g>
<!-- Node2 -->
<g id="Node000002" class="node">
<title>Node2</title>
<g id="a_Node000002"><a xlink:href="classcbrc_1_1FLEArray.html#ad003950bdededca7ee3b3dd6cd6ea644" target="_top" xlink:title=" ">
<polygon fill="white" stroke="#666666" points="336,-378 215,-378 215,-359 336,-359 336,-378"/>
<text text-anchor="middle" x="275.5" y="-366" font-family="Helvetica,sans-Serif" font-size="10.00">cbrc::FLEArray::resize</text>
</a>
</g>
</g>
<!-- Node1&#45;&gt;Node2 -->
<g id="edge1_Node000001_Node000002" class="edge">
<title>Node1&#45;&gt;Node2</title>
<g id="a_edge1_Node000001_Node000002"><a xlink:title=" ">
<path fill="none" stroke="#63b8ff" d="M81.76,-203.59C95.54,-234.9 131.58,-307.14 185,-344.5 191.4,-348.97 198.58,-352.61 206.03,-355.58"/>
<polygon fill="#63b8ff" stroke="#63b8ff" points="204.97,-358.91 215.56,-358.98 207.32,-352.32 204.97,-358.91"/>
</a>
</g>
</g>
<!-- Node5 -->
<g id="Node000005" class="node">
<title>Node5</title>
<g id="a_Node000005"><a xlink:href="classcbrc_1_1FLEArray.html#ad71311380d762114c9e0f3b0dda38b7c" target="_top" xlink:title=" ">
<polygon fill="white" stroke="#666666" points="879,-226 768,-226 768,-207 879,-207 879,-226"/>
<text text-anchor="middle" x="823.5" y="-214" font-family="Helvetica,sans-Serif" font-size="10.00">cbrc::FLEArray::size</text>
</a>
</g>
</g>
<!-- Node1&#45;&gt;Node5 -->
<g id="edge11_Node000001_Node000005" class="edge">
<title>Node1&#45;&gt;Node5</title>
<g id="a_edge11_Node000001_Node000005"><a xlink:title=" ">
<path fill="none" stroke="#63b8ff" d="M83.22,-203.51C98.36,-231.08 134.92,-289.03 185,-311.5 404.42,-409.94 704.74,-276.14 795.47,-230.66"/>
<polygon fill="#63b8ff" stroke="#63b8ff" points="797.21,-233.7 804.54,-226.05 794.04,-227.46 797.21,-233.7"/>
</a>
</g>
</g>
<!-- Node6 -->
<g id="Node000006" class="node">
<title>Node6</title>
<g id="a_Node000006"><a xlink:href="classcbrc_1_1RecountNeighborList.html#a40e0cdab8af1b3e7aee976e94eef998e" target="_top" xlink:title=" ">
<polygon fill="white" stroke="#666666" points="358,-284 193,-284 193,-265 358,-265 358,-284"/>
<text text-anchor="middle" x="275.5" y="-272" font-family="Helvetica,sans-Serif" font-size="10.00">cbrc::RecountNeighborList::set</text>
</a>
</g>
</g>
<!-- Node1&#45;&gt;Node6 -->
<g id="edge7_Node000001_Node000006" class="edge">
<title>Node1&#45;&gt;Node6</title>
<g id="a_edge7_Node000001_Node000006"><a xlink:title=" ">
<path fill="none" stroke="#63b8ff" d="M95.38,-203.56C116.52,-218.86 151.46,-242.14 185,-255.5 191.59,-258.13 198.61,-260.42 205.71,-262.41"/>
<polygon fill="#63b8ff" stroke="#63b8ff" points="204.84,-265.79 215.4,-264.93 206.61,-259.02 204.84,-265.79"/>
</a>
</g>
</g>
<!-- Node8 -->
<g id="Node000008" class="node">
<title>Node8</title>
<g id="a_Node000008"><a xlink:href="namespacecbrc_1_1RecountNeighborProbGraphFormat.html#a873db02fd17bb713fa54da967c9cc280" target="_top" xlink:title=" ">
<polygon fill="white" stroke="#666666" points="350,-246.5 201,-246.5 201,-216.5 350,-216.5 350,-246.5"/>
<text text-anchor="start" x="209" y="-234.5" font-family="Helvetica,sans-Serif" font-size="10.00">cbrc::RecountNeighborProb</text>
<text text-anchor="middle" x="275.5" y="-223.5" font-family="Helvetica,sans-Serif" font-size="10.00">GraphFormat::signature</text>
</a>
</g>
</g>
<!-- Node1&#45;&gt;Node8 -->
<g id="edge10_Node000001_Node000008" class="edge">
<title>Node1&#45;&gt;Node8</title>
<g id="a_edge10_Node000001_Node000008"><a xlink:title=" ">
<path fill="none" stroke="#63b8ff" d="M145.1,-203.54C161.16,-207.01 178.36,-210.73 194.81,-214.28"/>
<polygon fill="#63b8ff" stroke="#63b8ff" points="194.43,-217.78 204.94,-216.47 195.9,-210.94 194.43,-217.78"/>
</a>
</g>
</g>
<!-- Node9 -->
<g id="Node000009" class="node">
<title>Node9</title>
<g id="a_Node000009"><a xlink:href="namespacecbrc_1_1perlish.html#a2a0db2c27f3a19dfdcd7ef17ea5a0bcd" target="_top" xlink:title=" ">
<polygon fill="white" stroke="#666666" points="338.5,-198 212.5,-198 212.5,-179 338.5,-179 338.5,-198"/>
<text text-anchor="middle" x="275.5" y="-186" font-family="Helvetica,sans-Serif" font-size="10.00">cbrc::perlish::slurpLine</text>
</a>
</g>
</g>
<!-- Node1&#45;&gt;Node9 -->
<g id="edge12_Node000001_Node000009" class="edge">
<title>Node1&#45;&gt;Node9</title>
<g id="a_edge12_Node000001_Node000009"><a xlink:title=" ">
<path fill="none" stroke="#63b8ff" d="M149.03,-188.5C166.43,-188.5 184.97,-188.5 202.31,-188.5"/>
<polygon fill="#63b8ff" stroke="#63b8ff" points="202.37,-192 212.37,-188.5 202.37,-185 202.37,-192"/>
</a>
</g>
</g>
<!-- Node10 -->
<g id="Node000010" class="node">
<title>Node10</title>
<g id="a_Node000010"><a xlink:href="namespacecbrc_1_1perlish.html#a101a4746d50e52a00273c6fe533970ec" target="_top" xlink:title=" ">
<polygon fill="white" stroke="#666666" points="327,-143 224,-143 224,-124 327,-124 327,-143"/>
<text text-anchor="middle" x="275.5" y="-131" font-family="Helvetica,sans-Serif" font-size="10.00">cbrc::perlish::split</text>
</a>
</g>
</g>
<!-- Node1&#45;&gt;Node10 -->
<g id="edge13_Node000001_Node000010" class="edge">
<title>Node1&#45;&gt;Node10</title>
<g id="a_edge13_Node000001_Node000010"><a xlink:title=" ">
<path fill="none" stroke="#63b8ff" d="M129.88,-173.47C161.41,-164.76 200.62,-153.92 230.25,-145.73"/>
<polygon fill="#63b8ff" stroke="#63b8ff" points="231.2,-149.1 239.91,-143.06 229.34,-142.35 231.2,-149.1"/>
</a>
</g>
</g>
<!-- Node13 -->
<g id="Node000013" class="node">
<title>Node13</title>
<g id="a_Node000013"><a xlink:href="classcbrc_1_1FLEArray.html#a67f88b1303a55d4e8039da5a9a739203" target="_top" xlink:title=" ">
<polygon fill="white" stroke="#666666" points="539.5,-57 423.5,-57 423.5,-38 539.5,-38 539.5,-57"/>
<text text-anchor="middle" x="481.5" y="-45" font-family="Helvetica,sans-Serif" font-size="10.00">cbrc::FLEArray::write</text>
</a>
</g>
</g>
<!-- Node1&#45;&gt;Node13 -->
<g id="edge17_Node000001_Node000013" class="edge">
<title>Node1&#45;&gt;Node13</title>
<g id="a_edge17_Node000001_Node000013"><a xlink:title=" ">
<path fill="none" stroke="#63b8ff" d="M83.63,-173.49C99.21,-146.46 136.09,-90.23 185,-66.5 257.07,-31.53 350.89,-32.09 413.28,-37.89"/>
<polygon fill="#63b8ff" stroke="#63b8ff" points="413.09,-41.39 423.39,-38.9 413.79,-34.42 413.09,-41.39"/>
</a>
</g>
</g>
<!-- Node15 -->
<g id="Node000015" class="node">
<title>Node15</title>
<g id="a_Node000015"><a xlink:href="classcbrc_1_1RecountNeighborList.html#a2fae49f3f15e88e8552dcbd2ab469805" target="_top" xlink:title=" ">
<polygon fill="white" stroke="#666666" points="347.5,-105.5 203.5,-105.5 203.5,-75.5 347.5,-75.5 347.5,-105.5"/>
<text text-anchor="start" x="211.5" y="-93.5" font-family="Helvetica,sans-Serif" font-size="10.00">cbrc::RecountNeighborList</text>
<text text-anchor="middle" x="275.5" y="-82.5" font-family="Helvetica,sans-Serif" font-size="10.00">::write</text>
</a>
</g>
</g>
<!-- Node1&#45;&gt;Node15 -->
<g id="edge21_Node000001_Node000015" class="edge">
<title>Node1&#45;&gt;Node15</title>
<g id="a_edge21_Node000001_Node000015"><a xlink:title=" ">
<path fill="none" stroke="#63b8ff" d="M93.74,-173.36C114.6,-156.73 150.35,-130.31 185,-114.5 189.34,-112.52 193.89,-110.67 198.52,-108.96"/>
<polygon fill="#63b8ff" stroke="#63b8ff" points="199.82,-112.21 208.12,-105.62 197.53,-105.6 199.82,-112.21"/>
</a>
</g>
</g>
<!-- Node16 -->
<g id="Node000016" class="node">
<title>Node16</title>
<g id="a_Node000016"><a xlink:href="namespacecbrc_1_1binaryIO.html#afe8aa28482d86e6661288a70ba41858c" target="_top" xlink:title=" ">
<polygon fill="white" stroke="#666666" points="366,-19 185,-19 185,0 366,0 366,-19"/>
<text text-anchor="middle" x="275.5" y="-7" font-family="Helvetica,sans-Serif" font-size="10.00">cbrc::binaryIO::writeContentsOnly</text>
</a>
</g>
</g>
<!-- Node1&#45;&gt;Node16 -->
<g id="edge24_Node000001_Node000016" class="edge">
<title>Node1&#45;&gt;Node16</title>
<g id="a_edge24_Node000001_Node000016"><a xlink:title=" ">
<path fill="none" stroke="#63b8ff" d="M82,-173.03C95.98,-141.67 132.03,-70.43 185,-33.5 191.4,-29.04 198.59,-25.4 206.04,-22.44"/>
<polygon fill="#63b8ff" stroke="#63b8ff" points="207.33,-25.7 215.58,-19.05 204.98,-19.11 207.33,-25.7"/>
</a>
</g>
</g>
<!-- Node3 -->
<g id="Node000003" class="node">
<title>Node3</title>
<g id="a_Node000003"><a xlink:href="classcbrc_1_1FLEArray.html#a5368c7c0434bd5c119d2cbb39f4b399e" target="_top" xlink:title=" ">
<polygon fill="white" stroke="#666666" points="732,-378 597,-378 597,-359 732,-359 732,-378"/>
<text text-anchor="middle" x="664.5" y="-366" font-family="Helvetica,sans-Serif" font-size="10.00">cbrc::FLEArray::FLEArray</text>
</a>
</g>
</g>
<!-- Node2&#45;&gt;Node3 -->
<g id="edge2_Node000002_Node000003" class="edge">
<title>Node2&#45;&gt;Node3</title>
<g id="a_edge2_Node000002_Node000003"><a xlink:title=" ">
<path fill="none" stroke="#63b8ff" d="M336.12,-368.5C403.45,-368.5 513.2,-368.5 586.85,-368.5"/>
<polygon fill="#63b8ff" stroke="#63b8ff" points="586.99,-372 596.99,-368.5 586.99,-365 586.99,-372"/>
</a>
</g>
</g>
<!-- Node4 -->
<g id="Node000004" class="node">
<title>Node4</title>
<g id="a_Node000004"><a xlink:href="classcbrc_1_1FLEArray.html#a5f10f892188c41f2821ef33ee9bcc743" target="_top" xlink:title=" ">
<polygon fill="white" stroke="#666666" points="545,-416 418,-416 418,-397 545,-397 545,-416"/>
<text text-anchor="middle" x="481.5" y="-404" font-family="Helvetica,sans-Serif" font-size="10.00">cbrc::FLEArray::setSize</text>
</a>
</g>
</g>
<!-- Node2&#45;&gt;Node4 -->
<g id="edge4_Node000002_Node000004" class="edge">
<title>Node2&#45;&gt;Node4</title>
<g id="a_edge4_Node000002_Node000004"><a xlink:title=" ">
<path fill="none" stroke="#63b8ff" d="M327.71,-378.04C355.48,-383.21 389.99,-389.64 419.18,-395.08"/>
<polygon fill="#63b8ff" stroke="#63b8ff" points="418.79,-398.57 429.26,-396.96 420.07,-391.68 418.79,-398.57"/>
</a>
</g>
</g>
<!-- Node3&#45;&gt;Node3 -->
<g id="edge3_Node000003_Node000003" class="edge">
<title>Node3&#45;&gt;Node3</title>
<g id="a_edge3_Node000003_Node000003"><a xlink:title=" ">
<path fill="none" stroke="#63b8ff" d="M640.15,-378.08C628.3,-386.73 636.42,-396 664.5,-396 682.93,-396 692.76,-392.01 693.99,-386.82"/>
<polygon fill="#63b8ff" stroke="#63b8ff" points="696.94,-384.93 688.85,-378.08 690.91,-388.48 696.94,-384.93"/>
</a>
</g>
</g>
<!-- Node4&#45;&gt;Node3 -->
<g id="edge5_Node000004_Node000003" class="edge">
<title>Node4&#45;&gt;Node3</title>
<g id="a_edge5_Node000004_Node000003"><a xlink:title=" ">
<path fill="none" stroke="#63b8ff" d="M528.17,-396.91C552.49,-391.81 582.58,-385.49 608.21,-380.11"/>
<polygon fill="#63b8ff" stroke="#63b8ff" points="609.09,-383.5 618.15,-378.02 607.65,-376.65 609.09,-383.5"/>
</a>
</g>
</g>
<!-- Node4&#45;&gt;Node5 -->
<g id="edge6_Node000004_Node000005" class="edge">
<title>Node4&#45;&gt;Node5</title>
<g id="a_edge6_Node000004_Node000005"><a xlink:title=" ">
<path fill="none" stroke="#63b8ff" d="M513.4,-416.09C563.6,-429.69 664.1,-448.46 732,-405.5 792.42,-367.27 813.41,-276.36 819.9,-236.17"/>
<polygon fill="#63b8ff" stroke="#63b8ff" points="823.36,-236.68 821.37,-226.27 816.44,-235.65 823.36,-236.68"/>
</a>
</g>
</g>
<!-- Node6&#45;&gt;Node6 -->
<g id="edge9_Node000006_Node000006" class="edge">
<title>Node6&#45;&gt;Node6</title>
<g id="a_edge9_Node000006_Node000006"><a xlink:title=" ">
<path fill="none" stroke="#63b8ff" d="M244.67,-284.08C229.68,-292.73 239.95,-302 275.5,-302 300.49,-302 312.99,-297.42 313,-291.69"/>
<polygon fill="#63b8ff" stroke="#63b8ff" points="315.55,-289.29 306.33,-284.08 310.29,-293.91 315.55,-289.29"/>
</a>
</g>
</g>
<!-- Node7 -->
<g id="Node000007" class="node">
<title>Node7</title>
<g id="a_Node000007"><a xlink:href="classcbrc_1_1RecountNeighborList.html#a8c7237c3fda7b0a00c74f0530d92609c" target="_top" xlink:title=" ">
<polygon fill="white" stroke="#666666" points="561,-284 402,-284 402,-265 561,-265 561,-284"/>
<text text-anchor="middle" x="481.5" y="-272" font-family="Helvetica,sans-Serif" font-size="10.00">cbrc::RecountNeighborList::id</text>
</a>
</g>
</g>
<!-- Node6&#45;&gt;Node7 -->
<g id="edge8_Node000006_Node000007" class="edge">
<title>Node6&#45;&gt;Node7</title>
<g id="a_edge8_Node000006_Node000007"><a xlink:title=" ">
<path fill="none" stroke="#63b8ff" d="M358.01,-274.5C369.05,-274.5 380.43,-274.5 391.6,-274.5"/>
<polygon fill="#63b8ff" stroke="#63b8ff" points="391.78,-278 401.78,-274.5 391.78,-271 391.78,-278"/>
</a>
</g>
</g>
<!-- Node10&#45;&gt;Node10 -->
<g id="edge16_Node000010_Node000010" class="edge">
<title>Node10&#45;&gt;Node10</title>
<g id="a_edge16_Node000010_Node000010"><a xlink:title=" ">
<path fill="none" stroke="#63b8ff" d="M244.67,-143.08C229.68,-151.73 239.95,-161 275.5,-161 300.49,-161 312.99,-156.42 313,-150.69"/>
<polygon fill="#63b8ff" stroke="#63b8ff" points="315.55,-148.29 306.33,-143.08 310.29,-152.91 315.55,-148.29"/>
</a>
</g>
</g>
<!-- Node11 -->
<g id="Node000011" class="node">
<title>Node11</title>
<g id="a_Node000011"><a xlink:href="classcbrc_1_1FLEArray.html#a7e5d0d3bc5c41546620ccff95b55b3fa" target="_top" xlink:title=" ">
<polygon fill="white" stroke="#666666" points="541,-151 422,-151 422,-132 541,-132 541,-151"/>
<text text-anchor="middle" x="481.5" y="-139" font-family="Helvetica,sans-Serif" font-size="10.00">cbrc::FLEArray::begin</text>
</a>
</g>
</g>
<!-- Node10&#45;&gt;Node11 -->
<g id="edge14_Node000010_Node000011" class="edge">
<title>Node10&#45;&gt;Node11</title>
<g id="a_edge14_Node000010_Node000011"><a xlink:title=" ">
<path fill="none" stroke="#63b8ff" d="M327.19,-135.49C352.73,-136.49 384.07,-137.72 411.74,-138.8"/>
<polygon fill="#63b8ff" stroke="#63b8ff" points="411.63,-142.3 421.76,-139.2 411.9,-135.31 411.63,-142.3"/>
</a>
</g>
</g>
<!-- Node12 -->
<g id="Node000012" class="node">
<title>Node12</title>
<g id="a_Node000012"><a xlink:href="classcbrc_1_1FLEArray.html#a8c53878dc57e8f666976e041d146a523" target="_top" xlink:title=" ">
<polygon fill="white" stroke="#666666" points="536.5,-188 426.5,-188 426.5,-169 536.5,-169 536.5,-188"/>
<text text-anchor="middle" x="481.5" y="-176" font-family="Helvetica,sans-Serif" font-size="10.00">cbrc::FLEArray::end</text>
</a>
</g>
</g>
<!-- Node10&#45;&gt;Node12 -->
<g id="edge15_Node000010_Node000012" class="edge">
<title>Node10&#45;&gt;Node12</title>
<g id="a_edge15_Node000010_Node000012"><a xlink:title=" ">
<path fill="none" stroke="#63b8ff" d="M319.76,-143.04C351.14,-149.96 393.76,-159.37 427.23,-166.75"/>
<polygon fill="#63b8ff" stroke="#63b8ff" points="426.78,-170.23 437.3,-168.97 428.29,-163.4 426.78,-170.23"/>
</a>
</g>
</g>
<!-- Node13&#45;&gt;Node13 -->
<g id="edge20_Node000013_Node000013" class="edge">
<title>Node13&#45;&gt;Node13</title>
<g id="a_edge20_Node000013_Node000013"><a xlink:title=" ">
<path fill="none" stroke="#63b8ff" d="M453.45,-57.08C439.8,-65.73 449.15,-75 481.5,-75 503.74,-75 515.11,-70.62 515.61,-65.07"/>
<polygon fill="#63b8ff" stroke="#63b8ff" points="518.38,-62.94 509.55,-57.08 512.8,-67.17 518.38,-62.94"/>
</a>
</g>
</g>
<!-- Node14 -->
<g id="Node000014" class="node">
<title>Node14</title>
<g id="a_Node000014"><a xlink:href="classcbrc_1_1FLEArray.html#a8255bcefe055e10a4fccd3331b450fee" target="_top" xlink:title=" ">
<polygon fill="white" stroke="#666666" points="723,-66 606,-66 606,-47 723,-47 723,-66"/>
<text text-anchor="middle" x="664.5" y="-54" font-family="Helvetica,sans-Serif" font-size="10.00">cbrc::FLEArray::bsize</text>
</a>
</g>
</g>
<!-- Node13&#45;&gt;Node14 -->
<g id="edge18_Node000013_Node000014" class="edge">
<title>Node13&#45;&gt;Node14</title>
<g id="a_edge18_Node000013_Node000014"><a xlink:title=" ">
<path fill="none" stroke="#63b8ff" d="M539.77,-50.35C557.6,-51.23 577.42,-52.22 595.89,-53.14"/>
<polygon fill="#63b8ff" stroke="#63b8ff" points="595.82,-56.64 605.98,-53.64 596.17,-49.65 595.82,-56.64"/>
</a>
</g>
</g>
<!-- Node14&#45;&gt;Node5 -->
<g id="edge19_Node000014_Node000005" class="edge">
<title>Node14&#45;&gt;Node5</title>
<g id="a_edge19_Node000014_Node000005"><a xlink:title=" ">
<path fill="none" stroke="#63b8ff" d="M691.9,-66.05C704.88,-71.59 720.23,-79.46 732,-89.5 768.9,-120.97 798.47,-170.57 812.9,-197.53"/>
<polygon fill="#63b8ff" stroke="#63b8ff" points="809.94,-199.43 817.67,-206.67 816.14,-196.18 809.94,-199.43"/>
</a>
</g>
</g>
<!-- Node15&#45;&gt;Node5 -->
<g id="edge22_Node000015_Node000005" class="edge">
<title>Node15&#45;&gt;Node5</title>
<g id="a_edge22_Node000015_Node000005"><a xlink:title=" ">
<path fill="none" stroke="#63b8ff" d="M347.72,-93.9C405.74,-97.77 489.47,-105.86 561,-122.5 647.16,-142.54 744.06,-182.1 792.1,-202.93"/>
<polygon fill="#63b8ff" stroke="#63b8ff" points="790.75,-206.16 801.32,-206.96 793.55,-199.75 790.75,-206.16"/>
</a>
</g>
</g>
<!-- Node15&#45;&gt;Node13 -->
<g id="edge23_Node000015_Node000013" class="edge">
<title>Node15&#45;&gt;Node13</title>
<g id="a_edge23_Node000015_Node000013"><a xlink:title=" ">
<path fill="none" stroke="#63b8ff" d="M347.56,-75.52C373.02,-70.16 401.31,-64.19 425.23,-59.15"/>
<polygon fill="#63b8ff" stroke="#63b8ff" points="426.13,-62.54 435.2,-57.05 424.69,-55.69 426.13,-62.54"/>
</a>
</g>
</g>
<!-- Node16&#45;&gt;Node13 -->
<g id="edge27_Node000016_Node000013" class="edge">
<title>Node16&#45;&gt;Node13</title>
<g id="a_edge27_Node000016_Node000013"><a xlink:title=" ">
<path fill="none" stroke="#63b8ff" d="M327.71,-19.04C355.48,-24.21 389.99,-30.64 419.18,-36.08"/>
<polygon fill="#63b8ff" stroke="#63b8ff" points="418.79,-39.57 429.26,-37.96 420.07,-32.68 418.79,-39.57"/>
</a>
</g>
</g>
<!-- Node17 -->
<g id="Node000017" class="node">
<title>Node17</title>
<g id="a_Node000017"><a xlink:href="namespacecbrc_1_1perlish.html#a27da775d330fc85aeb67ad7bc5e054d6" target="_top" xlink:title=" ">
<polygon fill="white" stroke="#666666" points="530,-19 433,-19 433,0 530,0 530,-19"/>
<text text-anchor="middle" x="481.5" y="-7" font-family="Helvetica,sans-Serif" font-size="10.00">cbrc::perlish::die</text>
</a>
</g>
</g>
<!-- Node16&#45;&gt;Node17 -->
<g id="edge25_Node000016_Node000017" class="edge">
<title>Node16&#45;&gt;Node17</title>
<g id="a_edge25_Node000016_Node000017"><a xlink:title=" ">
<path fill="none" stroke="#63b8ff" d="M366.27,-9.5C385.49,-9.5 405.29,-9.5 422.89,-9.5"/>
<polygon fill="#63b8ff" stroke="#63b8ff" points="422.98,-13 432.98,-9.5 422.98,-6 422.98,-13"/>
</a>
</g>
</g>
<!-- Node18 -->
<g id="Node000018" class="node">
<title>Node18</title>
<g id="a_Node000018"><a xlink:href="namespacecbrc.html#a0d70f74afe25a87ac43272ff476dcb48" target="_top" xlink:title=" ">
<polygon fill="white" stroke="#666666" points="704.5,-19 624.5,-19 624.5,0 704.5,0 704.5,-19"/>
<text text-anchor="middle" x="664.5" y="-7" font-family="Helvetica,sans-Serif" font-size="10.00">cbrc::gdbExit</text>
</a>
</g>
</g>
<!-- Node17&#45;&gt;Node18 -->
<g id="edge26_Node000017_Node000018" class="edge">
<title>Node17&#45;&gt;Node18</title>
<g id="a_edge26_Node000017_Node000018"><a xlink:title=" ">
<path fill="none" stroke="#63b8ff" d="M530.06,-9.5C556.04,-9.5 588.17,-9.5 614.39,-9.5"/>
<polygon fill="#63b8ff" stroke="#63b8ff" points="614.49,-13 624.49,-9.5 614.49,-6 614.49,-13"/>
</a>
</g>
</g>
</g>
</svg>

<g id="navigator" transform="translate(0 0)" fill="#404254">
  <rect fill="#f2f5e9" fill-opacity="0.5" stroke="#606060" stroke-width=".5" x="0" y="0" width="60" height="60"/>
  <use id="zoomplus" xlink:href="#zoomPlus" x="17" y="9" onmousedown="handleZoom(evt,'in')"/>
  <use id="zoomminus" xlink:href="#zoomMin" x="42" y="9" onmousedown="handleZoom(evt,'out')"/>
  <use id="reset" xlink:href="#resetDef" x="30" y="36" onmousedown="handleReset()"/>
   <use id="arrowup" xlink:href="#arrowUp" x="0" y="0" onmousedown="handlePan(0,-1)"/>
  <use id="arrowright" xlink:href="#arrowRight" x="0" y="0" onmousedown="handlePan(1,0)"/>
  <use id="arrowdown" xlink:href="#arrowDown" x="0" y="0" onmousedown="handlePan(0,1)"/>
  <use id="arrowleft" xlink:href="#arrowLeft" x="0" y="0" onmousedown="handlePan(-1,0)"/>
</g>
<svg viewBox="0 0 15 15" width="100%" height="30px" preserveAspectRatio="xMaxYMin meet">
 <g id="arrow_out" transform="scale(0.3 0.3)">
  <a xlink:href="classcbrc_1_1RecountNeighborProbGraphWriter_a91446e90c2d07ea6575be9a8e8c987eb_cgraph_org.svg" target="_base">
   <rect id="button" ry="5" rx="5" y="6" x="6" height="38" width="38"
        fill="#f2f5e9" fill-opacity="0.5" stroke="#606060" stroke-width="1.0"/>
   <path id="arrow"
     d="M 11.500037,31.436501 C 11.940474,20.09759 22.043105,11.32322 32.158766,21.979434 L 37.068811,17.246167 C 37.068811,17.246167 37.088388,32 37.088388,32 L 22.160133,31.978069 C 22.160133,31.978069 26.997745,27.140456 26.997745,27.140456 C 18.528582,18.264221 13.291696,25.230495 11.500037,31.436501 z"
     style="fill:#404040;"/>
  </a>
 </g>
</svg>

<style type='text/css'>
<![CDATA[
[data-mouse-over-selected='false'] { opacity: 0.7; }
[data-mouse-over-selected='true']  { opacity: 1.0; }
]]>
</style>
<script type="application/ecmascript"><![CDATA[
document.addEventListener('DOMContentLoaded', (event) => {
  highlightEdges();
  highlightAdjacentNodes();
});
]]></script>
</svg>
