<?xml version="1.0" encoding="UTF-8" standalone="no"?>
<!DOCTYPE svg PUBLIC "-//W3C//DTD SVG 1.1//EN"
 "http://www.w3.org/Graphics/SVG/1.1/DTD/svg11.dtd">
<!-- Generated by graphviz version 2.43.0 (0)
 -->
<!-- Title: cbrc::RecountTagCounts::RecountTagCounts Pages: 1 -->
<svg width="890pt" height="224pt"
 viewBox="0.00 0.00 890.00 224.00" xmlns="http://www.w3.org/2000/svg" xmlns:xlink="http://www.w3.org/1999/xlink">
<g id="graph0" class="graph" transform="scale(1 1) rotate(0) translate(4 220)">
<title>cbrc::RecountTagCounts::RecountTagCounts</title>
<!-- Node1 -->
<g id="Node000001" class="node">
<title>Node1</title>
<g id="a_Node000001"><a xlink:title=" ">
<polygon fill="#999999" stroke="#666666" points="133,-106.5 0,-106.5 0,-76.5 133,-76.5 133,-106.5"/>
<text text-anchor="start" x="8" y="-94.5" font-family="Helvetica,sans-Serif" font-size="10.00">cbrc::RecountTagCounts</text>
<text text-anchor="middle" x="66.5" y="-83.5" font-family="Helvetica,sans-Serif" font-size="10.00">::RecountTagCounts</text>
</a>
</g>
</g>
<!-- Node2 -->
<g id="Node000002" class="node">
<title>Node2</title>
<g id="a_Node000002"><a xlink:href="classcbrc_1_1TagSet.html#a508d31c0fb9cfe0e9004be2434d99ce7" target="_top" xlink:title=" ">
<polygon fill="white" stroke="#666666" points="333,-177.5 169,-177.5 169,-147.5 333,-147.5 333,-177.5"/>
<text text-anchor="start" x="177" y="-165.5" font-family="Helvetica,sans-Serif" font-size="10.00">cbrc::TagSet::getSerialNumber</text>
<text text-anchor="middle" x="251" y="-154.5" font-family="Helvetica,sans-Serif" font-size="10.00">OrDie</text>
</a>
</g>
</g>
<!-- Node1&#45;&gt;Node2 -->
<g id="edge1_Node000001_Node000002" class="edge">
<title>Node1&#45;&gt;Node2</title>
<g id="a_edge1_Node000001_Node000002"><a xlink:title=" ">
<path fill="none" stroke="#63b8ff" d="M97.21,-106.65C117.19,-116.49 144.29,-129.18 169,-138.5 174.36,-140.52 179.98,-142.49 185.64,-144.37"/>
<polygon fill="#63b8ff" stroke="#63b8ff" points="184.58,-147.7 195.18,-147.44 186.73,-141.04 184.58,-147.7"/>
</a>
</g>
</g>
<!-- Node6 -->
<g id="Node000006" class="node">
<title>Node6</title>
<g id="a_Node000006"><a xlink:href="namespacecbrc_1_1perlish.html#a2a0db2c27f3a19dfdcd7ef17ea5a0bcd" target="_top" xlink:title=" ">
<polygon fill="white" stroke="#666666" points="314,-129 188,-129 188,-110 314,-110 314,-129"/>
<text text-anchor="middle" x="251" y="-117" font-family="Helvetica,sans-Serif" font-size="10.00">cbrc::perlish::slurpLine</text>
</a>
</g>
</g>
<!-- Node1&#45;&gt;Node6 -->
<g id="edge7_Node000001_Node000006" class="edge">
<title>Node1&#45;&gt;Node6</title>
<g id="a_edge7_Node000001_Node000006"><a xlink:title=" ">
<path fill="none" stroke="#63b8ff" d="M133.13,-101.57C147.66,-103.8 163.13,-106.17 177.9,-108.44"/>
<polygon fill="#63b8ff" stroke="#63b8ff" points="177.58,-111.93 188,-109.99 178.64,-105.01 177.58,-111.93"/>
</a>
</g>
</g>
<!-- Node7 -->
<g id="Node000007" class="node">
<title>Node7</title>
<g id="a_Node000007"><a xlink:href="namespacecbrc_1_1perlish.html#a101a4746d50e52a00273c6fe533970ec" target="_top" xlink:title=" ">
<polygon fill="white" stroke="#666666" points="302.5,-74 199.5,-74 199.5,-55 302.5,-55 302.5,-74"/>
<text text-anchor="middle" x="251" y="-62" font-family="Helvetica,sans-Serif" font-size="10.00">cbrc::perlish::split</text>
</a>
</g>
</g>
<!-- Node1&#45;&gt;Node7 -->
<g id="edge8_Node000001_Node000007" class="edge">
<title>Node1&#45;&gt;Node7</title>
<g id="a_edge8_Node000001_Node000007"><a xlink:title=" ">
<path fill="none" stroke="#63b8ff" d="M133.13,-81.79C151.41,-79.09 171.18,-76.16 189.17,-73.5"/>
<polygon fill="#63b8ff" stroke="#63b8ff" points="189.87,-76.93 199.25,-72.01 188.84,-70.01 189.87,-76.93"/>
</a>
</g>
</g>
<!-- Node10 -->
<g id="Node000010" class="node">
<title>Node10</title>
<g id="a_Node000010"><a xlink:href="classcbrc_1_1FLEArray.html#a31b7db1817b5eec4d9cbb10bfe07d58a" target="_top" xlink:title=" ">
<polygon fill="white" stroke="#666666" points="307.5,-28 194.5,-28 194.5,-9 307.5,-9 307.5,-28"/>
<text text-anchor="middle" x="251" y="-16" font-family="Helvetica,sans-Serif" font-size="10.00">cbrc::FLEArray::zero</text>
</a>
</g>
</g>
<!-- Node1&#45;&gt;Node10 -->
<g id="edge12_Node000001_Node000010" class="edge">
<title>Node1&#45;&gt;Node10</title>
<g id="a_edge12_Node000001_Node000010"><a xlink:title=" ">
<path fill="none" stroke="#63b8ff" d="M99.66,-76.41C119.48,-67.32 145.5,-55.75 169,-46.5 182.46,-41.2 197.38,-35.89 210.71,-31.34"/>
<polygon fill="#63b8ff" stroke="#63b8ff" points="212.18,-34.53 220.54,-28.02 209.94,-27.9 212.18,-34.53"/>
</a>
</g>
</g>
<!-- Node3 -->
<g id="Node000003" class="node">
<title>Node3</title>
<g id="a_Node000003"><a xlink:href="classcbrc_1_1TagSet.html#a62b898d6f4e817ece03e74ca3cddd166" target="_top" xlink:title=" ">
<polygon fill="white" stroke="#666666" points="477.5,-198 379.5,-198 379.5,-179 477.5,-179 477.5,-198"/>
<text text-anchor="middle" x="428.5" y="-186" font-family="Helvetica,sans-Serif" font-size="10.00">cbrc::TagSet::has</text>
</a>
</g>
</g>
<!-- Node2&#45;&gt;Node3 -->
<g id="edge2_Node000002_Node000003" class="edge">
<title>Node2&#45;&gt;Node3</title>
<g id="a_edge2_Node000002_Node000003"><a xlink:title=" ">
<path fill="none" stroke="#63b8ff" d="M333.07,-174.51C345.3,-176.32 357.7,-178.16 369.31,-179.88"/>
<polygon fill="#63b8ff" stroke="#63b8ff" points="368.89,-183.36 379.3,-181.36 369.92,-176.43 368.89,-183.36"/>
</a>
</g>
</g>
<!-- Node4 -->
<g id="Node000004" class="node">
<title>Node4</title>
<g id="a_Node000004"><a xlink:href="classcbrc_1_1TagSet.html#ac6a681543f91a5d29a34e29ca39fb918" target="_top" xlink:title=" ">
<polygon fill="white" stroke="#666666" points="681,-179 524,-179 524,-160 681,-160 681,-179"/>
<text text-anchor="middle" x="602.5" y="-167" font-family="Helvetica,sans-Serif" font-size="10.00">cbrc::TagSet::toUnpackedSeq</text>
</a>
</g>
</g>
<!-- Node2&#45;&gt;Node4 -->
<g id="edge6_Node000002_Node000004" class="edge">
<title>Node2&#45;&gt;Node4</title>
<g id="a_edge6_Node000002_Node000004"><a xlink:title=" ">
<path fill="none" stroke="#63b8ff" d="M333.06,-164.12C387.16,-165.21 458.28,-166.63 513.72,-167.74"/>
<polygon fill="#63b8ff" stroke="#63b8ff" points="513.81,-171.24 523.88,-167.95 513.95,-164.25 513.81,-171.24"/>
</a>
</g>
</g>
<!-- Node3&#45;&gt;Node3 -->
<g id="edge3_Node000003_Node000003" class="edge">
<title>Node3&#45;&gt;Node3</title>
<g id="a_edge3_Node000003_Node000003"><a xlink:title=" ">
<path fill="none" stroke="#63b8ff" d="M401.68,-198.08C388.63,-206.73 397.57,-216 428.5,-216 449.28,-216 460.13,-211.82 461.06,-206.45"/>
<polygon fill="#63b8ff" stroke="#63b8ff" points="463.86,-204.35 455.32,-198.08 458.09,-208.31 463.86,-204.35"/>
</a>
</g>
</g>
<!-- Node3&#45;&gt;Node4 -->
<g id="edge4_Node000003_Node000004" class="edge">
<title>Node3&#45;&gt;Node4</title>
<g id="a_edge4_Node000003_Node000004"><a xlink:title=" ">
<path fill="none" stroke="#63b8ff" d="M477.87,-183.16C489.16,-181.91 501.53,-180.54 513.94,-179.17"/>
<polygon fill="#63b8ff" stroke="#63b8ff" points="514.33,-182.65 523.88,-178.07 513.56,-175.69 514.33,-182.65"/>
</a>
</g>
</g>
<!-- Node5 -->
<g id="Node000005" class="node">
<title>Node5</title>
<g id="a_Node000005"><a xlink:href="classcbrc_1_1TagSet.html#a56d26e688b6ce2cc0b8b46aca4194b6f" target="_top" xlink:title=" ">
<polygon fill="white" stroke="#666666" points="882,-179 717,-179 717,-160 882,-160 882,-179"/>
<text text-anchor="middle" x="799.5" y="-167" font-family="Helvetica,sans-Serif" font-size="10.00">cbrc::TagSet::residueIndexMap</text>
</a>
</g>
</g>
<!-- Node4&#45;&gt;Node5 -->
<g id="edge5_Node000004_Node000005" class="edge">
<title>Node4&#45;&gt;Node5</title>
<g id="a_edge5_Node000004_Node000005"><a xlink:title=" ">
<path fill="none" stroke="#63b8ff" d="M681.13,-169.5C689.6,-169.5 698.29,-169.5 706.91,-169.5"/>
<polygon fill="#63b8ff" stroke="#63b8ff" points="706.98,-173 716.98,-169.5 706.98,-166 706.98,-173"/>
</a>
</g>
</g>
<!-- Node7&#45;&gt;Node7 -->
<g id="edge11_Node000007_Node000007" class="edge">
<title>Node7&#45;&gt;Node7</title>
<g id="a_edge11_Node000007_Node000007"><a xlink:title=" ">
<path fill="none" stroke="#63b8ff" d="M223.87,-74.08C210.68,-82.73 219.72,-92 251,-92 272.02,-92 283,-87.82 283.93,-82.45"/>
<polygon fill="#63b8ff" stroke="#63b8ff" points="286.7,-80.3 278.13,-74.08 280.95,-84.29 286.7,-80.3"/>
</a>
</g>
</g>
<!-- Node8 -->
<g id="Node000008" class="node">
<title>Node8</title>
<g id="a_Node000008"><a xlink:href="classcbrc_1_1FLEArray.html#a7e5d0d3bc5c41546620ccff95b55b3fa" target="_top" xlink:title=" ">
<polygon fill="white" stroke="#666666" points="488,-111 369,-111 369,-92 488,-92 488,-111"/>
<text text-anchor="middle" x="428.5" y="-99" font-family="Helvetica,sans-Serif" font-size="10.00">cbrc::FLEArray::begin</text>
</a>
</g>
</g>
<!-- Node7&#45;&gt;Node8 -->
<g id="edge9_Node000007_Node000008" class="edge">
<title>Node7&#45;&gt;Node8</title>
<g id="a_edge9_Node000007_Node000008"><a xlink:title=" ">
<path fill="none" stroke="#63b8ff" d="M297.2,-74.03C320.03,-78.84 347.95,-84.73 372.07,-89.81"/>
<polygon fill="#63b8ff" stroke="#63b8ff" points="371.65,-93.3 382.15,-91.94 373.09,-86.45 371.65,-93.3"/>
</a>
</g>
</g>
<!-- Node9 -->
<g id="Node000009" class="node">
<title>Node9</title>
<g id="a_Node000009"><a xlink:href="classcbrc_1_1FLEArray.html#a8c53878dc57e8f666976e041d146a523" target="_top" xlink:title=" ">
<polygon fill="white" stroke="#666666" points="483.5,-74 373.5,-74 373.5,-55 483.5,-55 483.5,-74"/>
<text text-anchor="middle" x="428.5" y="-62" font-family="Helvetica,sans-Serif" font-size="10.00">cbrc::FLEArray::end</text>
</a>
</g>
</g>
<!-- Node7&#45;&gt;Node9 -->
<g id="edge10_Node000007_Node000009" class="edge">
<title>Node7&#45;&gt;Node9</title>
<g id="a_edge10_Node000007_Node000009"><a xlink:title=" ">
<path fill="none" stroke="#63b8ff" d="M302.76,-64.5C321.64,-64.5 343.32,-64.5 363.25,-64.5"/>
<polygon fill="#63b8ff" stroke="#63b8ff" points="363.49,-68 373.49,-64.5 363.49,-61 363.49,-68"/>
</a>
</g>
</g>
<!-- Node11 -->
<g id="Node000011" class="node">
<title>Node11</title>
<g id="a_Node000011"><a xlink:href="classcbrc_1_1FLEArray.html#ab3482d140dd947c2d956fa5620da84ab" target="_top" xlink:title=" ">
<polygon fill="white" stroke="#666666" points="480.5,-19 376.5,-19 376.5,0 480.5,0 480.5,-19"/>
<text text-anchor="middle" x="428.5" y="-7" font-family="Helvetica,sans-Serif" font-size="10.00">cbrc::FLEArray::fill</text>
</a>
</g>
</g>
<!-- Node10&#45;&gt;Node11 -->
<g id="edge13_Node000010_Node000011" class="edge">
<title>Node10&#45;&gt;Node11</title>
<g id="a_edge13_Node000010_Node000011"><a xlink:title=" ">
<path fill="none" stroke="#63b8ff" d="M307.53,-15.65C326.17,-14.7 347.07,-13.62 366.13,-12.65"/>
<polygon fill="#63b8ff" stroke="#63b8ff" points="366.4,-16.14 376.21,-12.13 366.04,-9.15 366.4,-16.14"/>
</a>
</g>
</g>
<!-- Node11&#45;&gt;Node11 -->
<g id="edge14_Node000011_Node000011" class="edge">
<title>Node11&#45;&gt;Node11</title>
<g id="a_edge14_Node000011_Node000011"><a xlink:title=" ">
<path fill="none" stroke="#63b8ff" d="M401.68,-19.08C388.63,-27.73 397.57,-37 428.5,-37 449.28,-37 460.13,-32.82 461.06,-27.45"/>
<polygon fill="#63b8ff" stroke="#63b8ff" points="463.86,-25.35 455.32,-19.08 458.09,-29.31 463.86,-25.35"/>
</a>
</g>
</g>
<!-- Node12 -->
<g id="Node000012" class="node">
<title>Node12</title>
<g id="a_Node000012"><a xlink:href="classcbrc_1_1FLEArray.html#ad71311380d762114c9e0f3b0dda38b7c" target="_top" xlink:title=" ">
<polygon fill="white" stroke="#666666" points="658,-19 547,-19 547,0 658,0 658,-19"/>
<text text-anchor="middle" x="602.5" y="-7" font-family="Helvetica,sans-Serif" font-size="10.00">cbrc::FLEArray::size</text>
</a>
</g>
</g>
<!-- Node11&#45;&gt;Node12 -->
<g id="edge15_Node000011_Node000012" class="edge">
<title>Node11&#45;&gt;Node12</title>
<g id="a_edge15_Node000011_Node000012"><a xlink:title=" ">
<path fill="none" stroke="#63b8ff" d="M480.64,-9.5C498.27,-9.5 518.25,-9.5 536.82,-9.5"/>
<polygon fill="#63b8ff" stroke="#63b8ff" points="536.96,-13 546.96,-9.5 536.96,-6 536.96,-13"/>
</a>
</g>
</g>
</g>
</svg>
