<?xml version="1.0" encoding="UTF-8" standalone="no"?>
<!DOCTYPE svg PUBLIC "-//W3C//DTD SVG 1.1//EN"
 "http://www.w3.org/Graphics/SVG/1.1/DTD/svg11.dtd">
<!-- Generated by graphviz version 2.43.0 (0)
 -->
<!-- Title: cbrc::FLEMatrix::printColumnMajor Pages: 1 -->
<svg width="533pt" height="138pt"
 viewBox="0.00 0.00 533.00 138.00" xmlns="http://www.w3.org/2000/svg" xmlns:xlink="http://www.w3.org/1999/xlink">
<g id="graph0" class="graph" transform="scale(1 1) rotate(0) translate(4 134)">
<title>cbrc::FLEMatrix::printColumnMajor</title>
<!-- Node1 -->
<g id="Node000001" class="node">
<title>Node1</title>
<g id="a_Node000001"><a xlink:title=" ">
<polygon fill="#999999" stroke="#666666" points="158,-79.5 0,-79.5 0,-49.5 158,-49.5 158,-79.5"/>
<text text-anchor="start" x="8" y="-67.5" font-family="Helvetica,sans-Serif" font-size="10.00">cbrc::FLEMatrix::printColumn</text>
<text text-anchor="middle" x="79" y="-56.5" font-family="Helvetica,sans-Serif" font-size="10.00">Major</text>
</a>
</g>
</g>
<!-- Node2 -->
<g id="Node000002" class="node">
<title>Node2</title>
<g id="a_Node000002"><a xlink:href="classcbrc_1_1FLEMatrix.html#a5f5dd3e4586b1947283dff18505350ec" target="_top" xlink:title=" ">
<polygon fill="white" stroke="#666666" points="340,-130 194,-130 194,-111 340,-111 340,-130"/>
<text text-anchor="middle" x="267" y="-118" font-family="Helvetica,sans-Serif" font-size="10.00">cbrc::FLEMatrix::operator()</text>
</a>
</g>
</g>
<!-- Node1&#45;&gt;Node2 -->
<g id="edge1_Node000001_Node000002" class="edge">
<title>Node1&#45;&gt;Node2</title>
<g id="a_edge1_Node000001_Node000002"><a xlink:title=" ">
<path fill="none" stroke="#63b8ff" d="M122.52,-79.54C143.85,-86.86 170.16,-95.56 194,-102.5 200.97,-104.53 208.37,-106.54 215.66,-108.44"/>
<polygon fill="#63b8ff" stroke="#63b8ff" points="214.93,-111.87 225.49,-110.95 216.67,-105.08 214.93,-111.87"/>
</a>
</g>
</g>
<!-- Node4 -->
<g id="Node000004" class="node">
<title>Node4</title>
<g id="a_Node000004"><a xlink:href="classcbrc_1_1FLEMatrix.html#aa7cd992d2cafe53be93dfa9a09cbd134" target="_top" xlink:title=" ">
<polygon fill="white" stroke="#666666" points="325.5,-93 208.5,-93 208.5,-74 325.5,-74 325.5,-93"/>
<text text-anchor="middle" x="267" y="-81" font-family="Helvetica,sans-Serif" font-size="10.00">cbrc::FLEMatrix::size</text>
</a>
</g>
</g>
<!-- Node1&#45;&gt;Node4 -->
<g id="edge3_Node000001_Node000004" class="edge">
<title>Node1&#45;&gt;Node4</title>
<g id="a_edge3_Node000001_Node000004"><a xlink:title=" ">
<path fill="none" stroke="#63b8ff" d="M158.07,-72.48C171.41,-73.84 185.16,-75.24 198.21,-76.57"/>
<polygon fill="#63b8ff" stroke="#63b8ff" points="198.18,-80.09 208.49,-77.63 198.9,-73.13 198.18,-80.09"/>
</a>
</g>
</g>
<!-- Node5 -->
<g id="Node000005" class="node">
<title>Node5</title>
<g id="a_Node000005"><a xlink:href="classcbrc_1_1FLEMatrix.html#ab75f79de235f55582cd9d26836353cf2" target="_top" xlink:title=" ">
<polygon fill="white" stroke="#666666" points="328.5,-56 205.5,-56 205.5,-37 328.5,-37 328.5,-56"/>
<text text-anchor="middle" x="267" y="-44" font-family="Helvetica,sans-Serif" font-size="10.00">cbrc::FLEMatrix::size0</text>
</a>
</g>
</g>
<!-- Node1&#45;&gt;Node5 -->
<g id="edge4_Node000001_Node000005" class="edge">
<title>Node1&#45;&gt;Node5</title>
<g id="a_edge4_Node000001_Node000005"><a xlink:title=" ">
<path fill="none" stroke="#63b8ff" d="M158.07,-56.94C170.42,-55.75 183.13,-54.52 195.3,-53.34"/>
<polygon fill="#63b8ff" stroke="#63b8ff" points="195.76,-56.81 205.37,-52.37 195.08,-49.85 195.76,-56.81"/>
</a>
</g>
</g>
<!-- Node6 -->
<g id="Node000006" class="node">
<title>Node6</title>
<g id="a_Node000006"><a xlink:href="classcbrc_1_1FLEMatrix.html#ad40b224043dff162152ec5a603d0218a" target="_top" xlink:title=" ">
<polygon fill="white" stroke="#666666" points="328.5,-19 205.5,-19 205.5,0 328.5,0 328.5,-19"/>
<text text-anchor="middle" x="267" y="-7" font-family="Helvetica,sans-Serif" font-size="10.00">cbrc::FLEMatrix::size1</text>
</a>
</g>
</g>
<!-- Node1&#45;&gt;Node6 -->
<g id="edge5_Node000001_Node000006" class="edge">
<title>Node1&#45;&gt;Node6</title>
<g id="a_edge5_Node000001_Node000006"><a xlink:title=" ">
<path fill="none" stroke="#63b8ff" d="M125.89,-49.46C146.62,-42.8 171.47,-35.03 194,-28.5 201.95,-26.2 210.42,-23.86 218.65,-21.65"/>
<polygon fill="#63b8ff" stroke="#63b8ff" points="219.77,-24.97 228.54,-19.02 217.97,-18.21 219.77,-24.97"/>
</a>
</g>
</g>
<!-- Node3 -->
<g id="Node000003" class="node">
<title>Node3</title>
<g id="a_Node000003"><a xlink:href="classcbrc_1_1FLEMatrix.html#a16e779c90c052f622c55121da654814d" target="_top" xlink:title=" ">
<polygon fill="white" stroke="#666666" points="525,-130 376,-130 376,-111 525,-111 525,-130"/>
<text text-anchor="middle" x="450.5" y="-118" font-family="Helvetica,sans-Serif" font-size="10.00">cbrc::FLEMatrix::validIndex</text>
</a>
</g>
</g>
<!-- Node2&#45;&gt;Node3 -->
<g id="edge2_Node000002_Node000003" class="edge">
<title>Node2&#45;&gt;Node3</title>
<g id="a_edge2_Node000002_Node000003"><a xlink:title=" ">
<path fill="none" stroke="#63b8ff" d="M340.26,-120.5C348.55,-120.5 357.06,-120.5 365.49,-120.5"/>
<polygon fill="#63b8ff" stroke="#63b8ff" points="365.71,-124 375.71,-120.5 365.71,-117 365.71,-124"/>
</a>
</g>
</g>
</g>
</svg>
