<?xml version="1.0" encoding="UTF-8" standalone="no"?>
<!DOCTYPE svg PUBLIC "-//W3C//DTD SVG 1.1//EN"
 "http://www.w3.org/Graphics/SVG/1.1/DTD/svg11.dtd">
<!-- Generated by graphviz version 2.43.0 (0)
 -->
<!-- Title: cbrc::OneEdgePerLineFormat::inputDelimiter Pages: 1 -->
<!--zoomable 143 -->

<svg id="main" version="1.1" xmlns="http://www.w3.org/2000/svg" xmlns:xlink="http://www.w3.org/1999/xlink" xml:space="preserve" onload="init(evt)">
<style type="text/css"><![CDATA[
.node, .edge {opacity: 0.7;}
.node.selected, .edge.selected {opacity: 1;}
.edge:hover path { stroke: red; }
.edge:hover polygon { stroke: red; fill: red; }
]]></style>

<defs>
  <circle id="rim" cx="0" cy="0" r="7"/>
  <circle id="rim2" cx="0" cy="0" r="3.5"/>
  <g id="zoomPlus">
    <use xlink:href="#rim" fill="#404040"><set attributeName="fill" to="#808080" begin="zoomplus.mouseover" end="zoomplus.mouseout"/></use>
    <path d="M-4,0h8M0,-4v8" fill="none" stroke="white" stroke-width="1.5" pointer-events="none"/>
  </g>
  <g id="zoomMin">
    <use xlink:href="#rim" fill="#404040"><set attributeName="fill" to="#808080" begin="zoomminus.mouseover" end="zoomminus.mouseout"/></use>
    <path d="M-4,0h8" fill="none" stroke="white" stroke-width="1.5" pointer-events="none"/>
  </g>
  <g id="arrowUp" transform="translate(30 24)">
    <use xlink:href="#rim"/>
    <path pointer-events="none" fill="none" stroke="white" stroke-width="1.5" d="M0,-3.0v7 M-2.5,-0.5L0,-3.0L2.5,-0.5"/>
  </g>
  <g id="arrowRight" transform="rotate(90) translate(36 -43)">
    <use xlink:href="#rim"/>
    <path pointer-events="none" fill="none" stroke="white" stroke-width="1.5" d="M0,-3.0v7 M-2.5,-0.5L0,-3.0L2.5,-0.5"/>
  </g>
  <g id="arrowDown" transform="rotate(180) translate(-30 -48)">
    <use xlink:href="#rim"/>
    <path pointer-events="none" fill="none" stroke="white" stroke-width="1.5" d="M0,-3.0v7 M-2.5,-0.5L0,-3.0L2.5,-0.5"/>
  </g>
  <g id="arrowLeft" transform="rotate(270) translate(-36 17)">
    <use xlink:href="#rim"/>
    <path pointer-events="none" fill="none" stroke="white" stroke-width="1.5" d="M0,-3.0v7 M-2.5,-0.5L0,-3.0L2.5,-0.5"/>
  </g>
  <g id="resetDef">
    <use xlink:href="#rim2" fill="#404040"><set attributeName="fill" to="#808080" begin="reset.mouseover" end="reset.mouseout"/></use>
  </g>
</defs>
<script type="application/ecmascript">
var viewWidth = 652;
var viewHeight = 143;
var sectionId = 'dynsection-0';
</script>
<script type="application/ecmascript" xlink:href="svg.min.js"/>
<svg id="graph" class="graph">
<g id="viewport">
<title>cbrc::OneEdgePerLineFormat::inputDelimiter</title>
<!-- Node1 -->
<g id="Node000001" class="node">
<title>Node1</title>
<g id="a_Node000001"><a xlink:title=" ">
<polygon fill="#999999" stroke="#666666" points="644,-94 487,-94 487,-64 644,-64 644,-94"/>
<text text-anchor="start" x="495" y="-82" font-family="Helvetica,sans-Serif" font-size="10.00">cbrc::OneEdgePerLineFormat</text>
<text text-anchor="middle" x="565.5" y="-71" font-family="Helvetica,sans-Serif" font-size="10.00">::inputDelimiter</text>
</a>
</g>
</g>
<!-- Node2 -->
<g id="Node000002" class="node">
<title>Node2</title>
<g id="a_Node000002"><a xlink:href="namespacecbrc.html#a69d7192d0249221a368646d4fe103642" target="_top" xlink:title=" ">
<polygon fill="white" stroke="#666666" points="252.5,-131.5 81.5,-131.5 81.5,-112.5 252.5,-112.5 252.5,-131.5"/>
<text text-anchor="middle" x="167" y="-119.5" font-family="Helvetica,sans-Serif" font-size="10.00">cbrc::listConnectedComponents</text>
</a>
</g>
</g>
<!-- Node1&#45;&gt;Node2 -->
<g id="edge1_Node000001_Node000002" class="edge">
<title>Node1&#45;&gt;Node2</title>
<g id="a_edge1_Node000001_Node000002"><a xlink:title=" ">
<path fill="none" stroke="#63b8ff" d="M526.92,-98.5C505.34,-108.6 477.36,-119.86 451,-125 384.09,-138.04 306.57,-136.07 249.61,-131.52"/>
<polygon fill="#63b8ff" stroke="#63b8ff" points="528.55,-101.6 536.06,-94.12 525.53,-95.29 528.55,-101.6"/>
</a>
</g>
</g>
<!-- Node4 -->
<g id="Node000004" class="node">
<title>Node4</title>
<g id="a_Node000004"><a xlink:href="classcbrc_1_1OneEdgePerLineFormat.html#a1ba6e59128b65550ff5b7fd783a6b676" target="_top" xlink:title=" ">
<polygon fill="white" stroke="#666666" points="450.5,-116 293.5,-116 293.5,-86 450.5,-86 450.5,-116"/>
<text text-anchor="start" x="301.5" y="-104" font-family="Helvetica,sans-Serif" font-size="10.00">cbrc::OneEdgePerLineFormat</text>
<text text-anchor="middle" x="372" y="-93" font-family="Helvetica,sans-Serif" font-size="10.00">::numNodesInStream</text>
</a>
</g>
</g>
<!-- Node1&#45;&gt;Node4 -->
<g id="edge3_Node000001_Node000004" class="edge">
<title>Node1&#45;&gt;Node4</title>
<g id="a_edge3_Node000001_Node000004"><a xlink:title=" ">
<path fill="none" stroke="#63b8ff" d="M476.75,-89.08C468.07,-90.08 459.3,-91.09 450.72,-92.07"/>
<polygon fill="#63b8ff" stroke="#63b8ff" points="477.35,-92.54 486.89,-87.92 476.55,-85.58 477.35,-92.54"/>
</a>
</g>
</g>
<!-- Node5 -->
<g id="Node000005" class="node">
<title>Node5</title>
<g id="a_Node000005"><a xlink:href="namespacecbrc.html#a86fc3ad7bc4b49f407604ce1d0c71e7e" target="_top" xlink:title=" ">
<polygon fill="white" stroke="#666666" points="257,-94 77,-94 77,-64 257,-64 257,-94"/>
<text text-anchor="start" x="85" y="-82" font-family="Helvetica,sans-Serif" font-size="10.00">cbrc::printRandomRepresentative</text>
<text text-anchor="middle" x="167" y="-71" font-family="Helvetica,sans-Serif" font-size="10.00">FromEachConnectedComponent</text>
</a>
</g>
</g>
<!-- Node1&#45;&gt;Node5 -->
<g id="edge7_Node000001_Node000005" class="edge">
<title>Node1&#45;&gt;Node5</title>
<g id="a_edge7_Node000001_Node000005"><a xlink:title=" ">
<path fill="none" stroke="#63b8ff" d="M476.76,-77.3C468.06,-77.18 459.36,-77.07 451,-77 380.78,-76.38 363.22,-76.44 293,-77 281.39,-77.09 269.17,-77.23 257.11,-77.4"/>
<polygon fill="#63b8ff" stroke="#63b8ff" points="476.91,-80.8 486.96,-77.45 477.02,-73.8 476.91,-80.8"/>
</a>
</g>
</g>
<!-- Node7 -->
<g id="Node000007" class="node">
<title>Node7</title>
<g id="a_Node000007"><a xlink:href="classcbrc_1_1NeighborListGraph.html#abbd45bbda58cea747cb90e3a7feafdfd" target="_top" xlink:title=" ">
<polygon fill="white" stroke="#666666" points="451,-30 293,-30 293,0 451,0 451,-30"/>
<text text-anchor="start" x="301" y="-18" font-family="Helvetica,sans-Serif" font-size="10.00">cbrc::NeighborListGraph</text>
<text text-anchor="middle" x="372" y="-7" font-family="Helvetica,sans-Serif" font-size="10.00">::readOneEdgePerLineFormat</text>
</a>
</g>
</g>
<!-- Node1&#45;&gt;Node7 -->
<g id="edge8_Node000001_Node000007" class="edge">
<title>Node1&#45;&gt;Node7</title>
<g id="a_edge8_Node000001_Node000007"><a xlink:title=" ">
<path fill="none" stroke="#63b8ff" d="M509.99,-60.78C480.87,-51.05 445.47,-39.22 417.95,-30.02"/>
<polygon fill="#63b8ff" stroke="#63b8ff" points="509.01,-64.14 519.6,-63.99 511.23,-57.51 509.01,-64.14"/>
</a>
</g>
</g>
<!-- Node3 -->
<g id="Node000003" class="node">
<title>Node3</title>
<g id="a_Node000003"><a xlink:href="graph_2run_2listConnectedComponents_8cc.html#a3c04138a5bfe5d72780bb7e82a18e627" target="_top" xlink:title=" ">
<polygon fill="white" stroke="#666666" points="41,-131.5 0,-131.5 0,-112.5 41,-112.5 41,-131.5"/>
<text text-anchor="middle" x="20.5" y="-119.5" font-family="Helvetica,sans-Serif" font-size="10.00">main</text>
</a>
</g>
</g>
<!-- Node2&#45;&gt;Node3 -->
<g id="edge2_Node000002_Node000003" class="edge">
<title>Node2&#45;&gt;Node3</title>
<g id="a_edge2_Node000002_Node000003"><a xlink:title=" ">
<path fill="none" stroke="#63b8ff" d="M71.07,-122C59.84,-122 49.43,-122 41.08,-122"/>
<polygon fill="#63b8ff" stroke="#63b8ff" points="71.11,-125.5 81.11,-122 71.11,-118.5 71.11,-125.5"/>
</a>
</g>
</g>
<!-- Node4&#45;&gt;Node2 -->
<g id="edge4_Node000004_Node000002" class="edge">
<title>Node4&#45;&gt;Node2</title>
<g id="a_edge4_Node000004_Node000002"><a xlink:title=" ">
<path fill="none" stroke="#63b8ff" d="M283.3,-110.07C273.14,-111.12 262.79,-112.19 252.67,-113.24"/>
<polygon fill="#63b8ff" stroke="#63b8ff" points="283.8,-113.54 293.39,-109.03 283.08,-106.58 283.8,-113.54"/>
</a>
</g>
</g>
<!-- Node4&#45;&gt;Node5 -->
<g id="edge5_Node000004_Node000005" class="edge">
<title>Node4&#45;&gt;Node5</title>
<g id="a_edge5_Node000004_Node000005"><a xlink:title=" ">
<path fill="none" stroke="#63b8ff" d="M283.28,-91.49C274.61,-90.55 265.8,-89.6 257.11,-88.66"/>
<polygon fill="#63b8ff" stroke="#63b8ff" points="283.07,-94.99 293.39,-92.59 283.82,-88.03 283.07,-94.99"/>
</a>
</g>
</g>
<!-- Node6 -->
<g id="Node000006" class="node">
<title>Node6</title>
<g id="a_Node000006"><a xlink:href="graph_2run_2printRandomRepresentativeFromEachConnectedComponent_8cc.html#a3c04138a5bfe5d72780bb7e82a18e627" target="_top" xlink:title=" ">
<polygon fill="white" stroke="#666666" points="41,-88.5 0,-88.5 0,-69.5 41,-69.5 41,-88.5"/>
<text text-anchor="middle" x="20.5" y="-76.5" font-family="Helvetica,sans-Serif" font-size="10.00">main</text>
</a>
</g>
</g>
<!-- Node5&#45;&gt;Node6 -->
<g id="edge6_Node000005_Node000006" class="edge">
<title>Node5&#45;&gt;Node6</title>
<g id="a_edge6_Node000005_Node000006"><a xlink:title=" ">
<path fill="none" stroke="#63b8ff" d="M66.73,-79C57.15,-79 48.3,-79 41.03,-79"/>
<polygon fill="#63b8ff" stroke="#63b8ff" points="66.95,-82.5 76.95,-79 66.95,-75.5 66.95,-82.5"/>
</a>
</g>
</g>
</g>
</svg>

<g id="navigator" transform="translate(0 0)" fill="#404254">
  <rect fill="#f2f5e9" fill-opacity="0.5" stroke="#606060" stroke-width=".5" x="0" y="0" width="60" height="60"/>
  <use id="zoomplus" xlink:href="#zoomPlus" x="17" y="9" onmousedown="handleZoom(evt,'in')"/>
  <use id="zoomminus" xlink:href="#zoomMin" x="42" y="9" onmousedown="handleZoom(evt,'out')"/>
  <use id="reset" xlink:href="#resetDef" x="30" y="36" onmousedown="handleReset()"/>
   <use id="arrowup" xlink:href="#arrowUp" x="0" y="0" onmousedown="handlePan(0,-1)"/>
  <use id="arrowright" xlink:href="#arrowRight" x="0" y="0" onmousedown="handlePan(1,0)"/>
  <use id="arrowdown" xlink:href="#arrowDown" x="0" y="0" onmousedown="handlePan(0,1)"/>
  <use id="arrowleft" xlink:href="#arrowLeft" x="0" y="0" onmousedown="handlePan(-1,0)"/>
</g>
<svg viewBox="0 0 15 15" width="100%" height="30px" preserveAspectRatio="xMaxYMin meet">
 <g id="arrow_out" transform="scale(0.3 0.3)">
  <a xlink:href="classcbrc_1_1OneEdgePerLineFormat_a793d5e37c7e76c38b6f0cdc55f17ebbc_icgraph_org.svg" target="_base">
   <rect id="button" ry="5" rx="5" y="6" x="6" height="38" width="38"
        fill="#f2f5e9" fill-opacity="0.5" stroke="#606060" stroke-width="1.0"/>
   <path id="arrow"
     d="M 11.500037,31.436501 C 11.940474,20.09759 22.043105,11.32322 32.158766,21.979434 L 37.068811,17.246167 C 37.068811,17.246167 37.088388,32 37.088388,32 L 22.160133,31.978069 C 22.160133,31.978069 26.997745,27.140456 26.997745,27.140456 C 18.528582,18.264221 13.291696,25.230495 11.500037,31.436501 z"
     style="fill:#404040;"/>
  </a>
 </g>
</svg>

<style type='text/css'>
<![CDATA[
[data-mouse-over-selected='false'] { opacity: 0.7; }
[data-mouse-over-selected='true']  { opacity: 1.0; }
]]>
</style>
<script type="application/ecmascript"><![CDATA[
document.addEventListener('DOMContentLoaded', (event) => {
  highlightEdges();
  highlightAdjacentNodes();
});
]]></script>
</svg>
