<?xml version="1.0" encoding="UTF-8" standalone="no"?>
<!DOCTYPE svg PUBLIC "-//W3C//DTD SVG 1.1//EN"
 "http://www.w3.org/Graphics/SVG/1.1/DTD/svg11.dtd">
<!-- Generated by graphviz version 2.43.0 (0)
 -->
<!-- Title: cbrc::FLEArray::print Pages: 1 -->
<svg width="391pt" height="76pt"
 viewBox="0.00 0.00 391.00 75.50" xmlns="http://www.w3.org/2000/svg" xmlns:xlink="http://www.w3.org/1999/xlink">
<g id="graph0" class="graph" transform="scale(1 1) rotate(0) translate(4 71.5)">
<title>cbrc::FLEArray::print</title>
<!-- Node1 -->
<g id="Node000001" class="node">
<title>Node1</title>
<g id="a_Node000001"><a xlink:title=" ">
<polygon fill="#999999" stroke="#666666" points="383,-40 269,-40 269,-21 383,-21 383,-40"/>
<text text-anchor="middle" x="326" y="-28" font-family="Helvetica,sans-Serif" font-size="10.00">cbrc::FLEArray::print</text>
</a>
</g>
</g>
<!-- Node2 -->
<g id="Node000002" class="node">
<title>Node2</title>
<g id="a_Node000002"><a xlink:href="namespacecbrc.html#a437e8e878a94bd2e14d5c5aedb994bea" target="_top" xlink:title=" ">
<polygon fill="white" stroke="#666666" points="233,-67.5 77,-67.5 77,-37.5 233,-37.5 233,-67.5"/>
<text text-anchor="start" x="85" y="-55.5" font-family="Helvetica,sans-Serif" font-size="10.00">cbrc::runRecountExpectation</text>
<text text-anchor="middle" x="155" y="-44.5" font-family="Helvetica,sans-Serif" font-size="10.00">MatchingTagCorrector</text>
</a>
</g>
</g>
<!-- Node1&#45;&gt;Node2 -->
<g id="edge1_Node000001_Node000002" class="edge">
<title>Node1&#45;&gt;Node2</title>
<g id="a_edge1_Node000001_Node000002"><a xlink:title=" ">
<path fill="none" stroke="#63b8ff" d="M258.65,-39.14C250.26,-40.23 241.63,-41.35 233.09,-42.46"/>
<polygon fill="#63b8ff" stroke="#63b8ff" points="259.26,-42.59 268.73,-37.83 258.36,-35.65 259.26,-42.59"/>
</a>
</g>
</g>
<!-- Node4 -->
<g id="Node000004" class="node">
<title>Node4</title>
<g id="a_Node000004"><a xlink:href="namespacecbrc.html#a56a8d99d1424c795274c8187846ac4f7" target="_top" xlink:title=" ">
<polygon fill="white" stroke="#666666" points="207,-19 103,-19 103,0 207,0 207,-19"/>
<text text-anchor="middle" x="155" y="-7" font-family="Helvetica,sans-Serif" font-size="10.00">cbrc::sprotToFasta</text>
</a>
</g>
</g>
<!-- Node1&#45;&gt;Node4 -->
<g id="edge3_Node000001_Node000004" class="edge">
<title>Node1&#45;&gt;Node4</title>
<g id="a_edge3_Node000001_Node000004"><a xlink:title=" ">
<path fill="none" stroke="#63b8ff" d="M258.78,-22.27C241.63,-20.14 223.43,-17.88 207.19,-15.86"/>
<polygon fill="#63b8ff" stroke="#63b8ff" points="258.37,-25.75 268.73,-23.51 259.23,-18.8 258.37,-25.75"/>
</a>
</g>
</g>
<!-- Node3 -->
<g id="Node000003" class="node">
<title>Node3</title>
<g id="a_Node000003"><a xlink:href="runRecountExpectationMatchingTagCorrector_8cc.html#ac0f2228420376f4db7e1274f2b41667c" target="_top" xlink:title=" ">
<polygon fill="white" stroke="#666666" points="41,-62 0,-62 0,-43 41,-43 41,-62"/>
<text text-anchor="middle" x="20.5" y="-50" font-family="Helvetica,sans-Serif" font-size="10.00">main</text>
</a>
</g>
</g>
<!-- Node2&#45;&gt;Node3 -->
<g id="edge2_Node000002_Node000003" class="edge">
<title>Node2&#45;&gt;Node3</title>
<g id="a_edge2_Node000002_Node000003"><a xlink:title=" ">
<path fill="none" stroke="#63b8ff" d="M66.86,-52.5C57.39,-52.5 48.56,-52.5 41.25,-52.5"/>
<polygon fill="#63b8ff" stroke="#63b8ff" points="66.92,-56 76.92,-52.5 66.92,-49 66.92,-56"/>
</a>
</g>
</g>
<!-- Node5 -->
<g id="Node000005" class="node">
<title>Node5</title>
<g id="a_Node000005"><a xlink:href="sprotToFasta_8cc.html#ac0f2228420376f4db7e1274f2b41667c" target="_top" xlink:title=" ">
<polygon fill="white" stroke="#666666" points="41,-19 0,-19 0,0 41,0 41,-19"/>
<text text-anchor="middle" x="20.5" y="-7" font-family="Helvetica,sans-Serif" font-size="10.00">main</text>
</a>
</g>
</g>
<!-- Node4&#45;&gt;Node5 -->
<g id="edge4_Node000004_Node000005" class="edge">
<title>Node4&#45;&gt;Node5</title>
<g id="a_edge4_Node000004_Node000005"><a xlink:title=" ">
<path fill="none" stroke="#63b8ff" d="M92.54,-9.5C73.96,-9.5 54.88,-9.5 41.18,-9.5"/>
<polygon fill="#63b8ff" stroke="#63b8ff" points="92.77,-13 102.77,-9.5 92.77,-6 92.77,-13"/>
</a>
</g>
</g>
</g>
</svg>
