<?xml version="1.0" encoding="UTF-8" standalone="no"?>
<!DOCTYPE svg PUBLIC "-//W3C//DTD SVG 1.1//EN"
 "http://www.w3.org/Graphics/SVG/1.1/DTD/svg11.dtd">
<!-- Generated by graphviz version 2.43.0 (0)
 -->
<!-- Title: cbrc::TagSet::has Pages: 1 -->
<svg width="500pt" height="45pt"
 viewBox="0.00 0.00 500.00 45.00" xmlns="http://www.w3.org/2000/svg" xmlns:xlink="http://www.w3.org/1999/xlink">
<g id="graph0" class="graph" transform="scale(1 1) rotate(0) translate(4 41)">
<title>cbrc::TagSet::has</title>
<!-- Node1 -->
<g id="Node000001" class="node">
<title>Node1</title>
<g id="a_Node000001"><a xlink:title=" ">
<polygon fill="#999999" stroke="#666666" points="98,-19 0,-19 0,0 98,0 98,-19"/>
<text text-anchor="middle" x="49" y="-7" font-family="Helvetica,sans-Serif" font-size="10.00">cbrc::TagSet::has</text>
</a>
</g>
</g>
<!-- Node1&#45;&gt;Node1 -->
<g id="edge1_Node000001_Node000001" class="edge">
<title>Node1&#45;&gt;Node1</title>
<g id="a_edge1_Node000001_Node000001"><a xlink:title=" ">
<path fill="none" stroke="#63b8ff" d="M24.03,-19.08C11.88,-27.73 20.21,-37 49,-37 67.9,-37 77.98,-33.01 79.24,-27.82"/>
<polygon fill="#63b8ff" stroke="#63b8ff" points="82.13,-25.84 73.97,-19.08 76.14,-29.45 82.13,-25.84"/>
</a>
</g>
</g>
<!-- Node2 -->
<g id="Node000002" class="node">
<title>Node2</title>
<g id="a_Node000002"><a xlink:href="classcbrc_1_1TagSet.html#ac6a681543f91a5d29a34e29ca39fb918" target="_top" xlink:title=" ">
<polygon fill="white" stroke="#666666" points="291,-19 134,-19 134,0 291,0 291,-19"/>
<text text-anchor="middle" x="212.5" y="-7" font-family="Helvetica,sans-Serif" font-size="10.00">cbrc::TagSet::toUnpackedSeq</text>
</a>
</g>
</g>
<!-- Node1&#45;&gt;Node2 -->
<g id="edge2_Node000001_Node000002" class="edge">
<title>Node1&#45;&gt;Node2</title>
<g id="a_edge2_Node000001_Node000002"><a xlink:title=" ">
<path fill="none" stroke="#63b8ff" d="M98.02,-9.5C106.1,-9.5 114.72,-9.5 123.45,-9.5"/>
<polygon fill="#63b8ff" stroke="#63b8ff" points="123.72,-13 133.72,-9.5 123.72,-6 123.72,-13"/>
</a>
</g>
</g>
<!-- Node3 -->
<g id="Node000003" class="node">
<title>Node3</title>
<g id="a_Node000003"><a xlink:href="classcbrc_1_1TagSet.html#a56d26e688b6ce2cc0b8b46aca4194b6f" target="_top" xlink:title=" ">
<polygon fill="white" stroke="#666666" points="492,-19 327,-19 327,0 492,0 492,-19"/>
<text text-anchor="middle" x="409.5" y="-7" font-family="Helvetica,sans-Serif" font-size="10.00">cbrc::TagSet::residueIndexMap</text>
</a>
</g>
</g>
<!-- Node2&#45;&gt;Node3 -->
<g id="edge3_Node000002_Node000003" class="edge">
<title>Node2&#45;&gt;Node3</title>
<g id="a_edge3_Node000002_Node000003"><a xlink:title=" ">
<path fill="none" stroke="#63b8ff" d="M291.13,-9.5C299.6,-9.5 308.29,-9.5 316.91,-9.5"/>
<polygon fill="#63b8ff" stroke="#63b8ff" points="316.98,-13 326.98,-9.5 316.98,-6 316.98,-13"/>
</a>
</g>
</g>
</g>
</svg>
