<?xml version="1.0" encoding="UTF-8" standalone="no"?>
<!DOCTYPE svg PUBLIC "-//W3C//DTD SVG 1.1//EN"
 "http://www.w3.org/Graphics/SVG/1.1/DTD/svg11.dtd">
<!-- Generated by graphviz version 2.43.0 (0)
 -->
<!-- Title: cbrc::TransfacTextLabelInfo::isRecordSeparator Pages: 1 -->
<svg width="311pt" height="86pt"
 viewBox="0.00 0.00 311.00 86.00" xmlns="http://www.w3.org/2000/svg" xmlns:xlink="http://www.w3.org/1999/xlink">
<g id="graph0" class="graph" transform="scale(1 1) rotate(0) translate(4 82)">
<title>cbrc::TransfacTextLabelInfo::isRecordSeparator</title>
<!-- Node1 -->
<g id="Node000001" class="node">
<title>Node1</title>
<g id="a_Node000001"><a xlink:title=" ">
<polygon fill="#999999" stroke="#666666" points="303,-54 154,-54 154,-24 303,-24 303,-54"/>
<text text-anchor="start" x="162" y="-42" font-family="Helvetica,sans-Serif" font-size="10.00">cbrc::TransfacTextLabelInfo</text>
<text text-anchor="middle" x="228.5" y="-31" font-family="Helvetica,sans-Serif" font-size="10.00">::isRecordSeparator</text>
</a>
</g>
</g>
<!-- Node2 -->
<g id="Node000002" class="node">
<title>Node2</title>
<g id="a_Node000002"><a xlink:href="classcbrc_1_1TransfacReader.html#a0b57f4fd735dffc81814974f7e398600" target="_top" xlink:title=" ">
<polygon fill="white" stroke="#666666" points="118,-78 0,-78 0,-48 118,-48 118,-78"/>
<text text-anchor="start" x="8" y="-66" font-family="Helvetica,sans-Serif" font-size="10.00">cbrc::TransfacReader</text>
<text text-anchor="middle" x="59" y="-55" font-family="Helvetica,sans-Serif" font-size="10.00">::readRecord</text>
</a>
</g>
</g>
<!-- Node1&#45;&gt;Node2 -->
<g id="edge1_Node000001_Node000002" class="edge">
<title>Node1&#45;&gt;Node2</title>
<g id="a_edge1_Node000001_Node000002"><a xlink:title=" ">
<path fill="none" stroke="#63b8ff" d="M143.52,-51.03C134.96,-52.26 126.41,-53.48 118.22,-54.66"/>
<polygon fill="#63b8ff" stroke="#63b8ff" points="144.14,-54.48 153.54,-49.6 143.15,-47.55 144.14,-54.48"/>
</a>
</g>
</g>
<!-- Node3 -->
<g id="Node000003" class="node">
<title>Node3</title>
<g id="a_Node000003"><a xlink:href="classcbrc_1_1TransfacReader.html#a3ed093ad4430cbb06ab8f58473f88ca3" target="_top" xlink:title=" ">
<polygon fill="white" stroke="#666666" points="118,-30 0,-30 0,0 118,0 118,-30"/>
<text text-anchor="start" x="8" y="-18" font-family="Helvetica,sans-Serif" font-size="10.00">cbrc::TransfacReader</text>
<text text-anchor="middle" x="59" y="-7" font-family="Helvetica,sans-Serif" font-size="10.00">::TransfacReader</text>
</a>
</g>
</g>
<!-- Node1&#45;&gt;Node3 -->
<g id="edge2_Node000001_Node000003" class="edge">
<title>Node1&#45;&gt;Node3</title>
<g id="a_edge2_Node000001_Node000003"><a xlink:title=" ">
<path fill="none" stroke="#63b8ff" d="M143.52,-26.97C134.96,-25.74 126.41,-24.52 118.22,-23.34"/>
<polygon fill="#63b8ff" stroke="#63b8ff" points="143.15,-30.45 153.54,-28.4 144.14,-23.52 143.15,-30.45"/>
</a>
</g>
</g>
</g>
</svg>
