<?xml version="1.0" encoding="UTF-8" standalone="no"?>
<!DOCTYPE svg PUBLIC "-//W3C//DTD SVG 1.1//EN"
 "http://www.w3.org/Graphics/SVG/1.1/DTD/svg11.dtd">
<!-- Generated by graphviz version 2.43.0 (0)
 -->
<!-- Title: cbrc::ArgvParser::hasUnused Pages: 1 -->
<svg width="482pt" height="64pt"
 viewBox="0.00 0.00 482.00 64.00" xmlns="http://www.w3.org/2000/svg" xmlns:xlink="http://www.w3.org/1999/xlink">
<g id="graph0" class="graph" transform="scale(1 1) rotate(0) translate(4 60)">
<title>cbrc::ArgvParser::hasUnused</title>
<!-- Node1 -->
<g id="Node000001" class="node">
<title>Node1</title>
<g id="a_Node000001"><a xlink:title=" ">
<polygon fill="#999999" stroke="#666666" points="155,-37 0,-37 0,-18 155,-18 155,-37"/>
<text text-anchor="middle" x="77.5" y="-25" font-family="Helvetica,sans-Serif" font-size="10.00">cbrc::ArgvParser::hasUnused</text>
</a>
</g>
</g>
<!-- Node2 -->
<g id="Node000002" class="node">
<title>Node2</title>
<g id="a_Node000002"><a xlink:href="classcbrc_1_1ArgvParser.html#aad8dc9d595217cf4ad2a7f557371d3ab" target="_top" xlink:title=" ">
<polygon fill="white" stroke="#666666" points="307,-37 191,-37 191,-18 307,-18 307,-37"/>
<text text-anchor="middle" x="249" y="-25" font-family="Helvetica,sans-Serif" font-size="10.00">cbrc::ArgvParser::die</text>
</a>
</g>
</g>
<!-- Node1&#45;&gt;Node2 -->
<g id="edge1_Node000001_Node000002" class="edge">
<title>Node1&#45;&gt;Node2</title>
<g id="a_edge1_Node000001_Node000002"><a xlink:title=" ">
<path fill="none" stroke="#63b8ff" d="M155.32,-27.5C163.85,-27.5 172.49,-27.5 180.88,-27.5"/>
<polygon fill="#63b8ff" stroke="#63b8ff" points="180.98,-31 190.98,-27.5 180.98,-24 180.98,-31"/>
</a>
</g>
</g>
<!-- Node3 -->
<g id="Node000003" class="node">
<title>Node3</title>
<g id="a_Node000003"><a xlink:href="classcbrc_1_1FLEArray.html#ad71311380d762114c9e0f3b0dda38b7c" target="_top" xlink:title=" ">
<polygon fill="white" stroke="#666666" points="464,-56 353,-56 353,-37 464,-37 464,-56"/>
<text text-anchor="middle" x="408.5" y="-44" font-family="Helvetica,sans-Serif" font-size="10.00">cbrc::FLEArray::size</text>
</a>
</g>
</g>
<!-- Node2&#45;&gt;Node3 -->
<g id="edge2_Node000002_Node000003" class="edge">
<title>Node2&#45;&gt;Node3</title>
<g id="a_edge2_Node000002_Node000003"><a xlink:title=" ">
<path fill="none" stroke="#63b8ff" d="M307.31,-34.41C318.8,-35.8 330.96,-37.27 342.69,-38.68"/>
<polygon fill="#63b8ff" stroke="#63b8ff" points="342.51,-42.19 352.86,-39.91 343.35,-35.24 342.51,-42.19"/>
</a>
</g>
</g>
<!-- Node4 -->
<g id="Node000004" class="node">
<title>Node4</title>
<g id="a_Node000004"><a xlink:href="classcbrc_1_1ArgvParser.html#a1b7d257748fcfaa9a9a3cf46bc36a7e5" target="_top" xlink:title=" ">
<polygon fill="white" stroke="#666666" points="474,-19 343,-19 343,0 474,0 474,-19"/>
<text text-anchor="middle" x="408.5" y="-7" font-family="Helvetica,sans-Serif" font-size="10.00">cbrc::ArgvParser::usage</text>
</a>
</g>
</g>
<!-- Node2&#45;&gt;Node4 -->
<g id="edge3_Node000002_Node000004" class="edge">
<title>Node2&#45;&gt;Node4</title>
<g id="a_edge3_Node000002_Node000004"><a xlink:title=" ">
<path fill="none" stroke="#63b8ff" d="M307.31,-20.95C315.59,-20 324.21,-19.02 332.77,-18.04"/>
<polygon fill="#63b8ff" stroke="#63b8ff" points="333.23,-21.51 342.77,-16.9 332.44,-14.56 333.23,-21.51"/>
</a>
</g>
</g>
</g>
</svg>
