<?xml version="1.0" encoding="UTF-8" standalone="no"?>
<!DOCTYPE svg PUBLIC "-//W3C//DTD SVG 1.1//EN"
 "http://www.w3.org/Graphics/SVG/1.1/DTD/svg11.dtd">
<!-- Generated by graphviz version 2.43.0 (0)
 -->
<!-- Title: cbrc::FLEArray::constEnd Pages: 1 -->
<svg width="619pt" height="276pt"
 viewBox="0.00 0.00 619.00 276.00" xmlns="http://www.w3.org/2000/svg" xmlns:xlink="http://www.w3.org/1999/xlink">
<g id="graph0" class="graph" transform="scale(1 1) rotate(0) translate(4 272)">
<title>cbrc::FLEArray::constEnd</title>
<!-- Node1 -->
<g id="Node000001" class="node">
<title>Node1</title>
<g id="a_Node000001"><a xlink:title=" ">
<polygon fill="#999999" stroke="#666666" points="611,-132 475,-132 475,-113 611,-113 611,-132"/>
<text text-anchor="middle" x="543" y="-120" font-family="Helvetica,sans-Serif" font-size="10.00">cbrc::FLEArray::constEnd</text>
</a>
</g>
</g>
<!-- Node2 -->
<g id="Node000002" class="node">
<title>Node2</title>
<g id="a_Node000002"><a xlink:href="classcbrc_1_1RecountTagCounts.html#a3f2b3f521d44897b0749d711abc6191f" target="_top" xlink:title=" ">
<polygon fill="white" stroke="#666666" points="414.5,-233.5 281.5,-233.5 281.5,-203.5 414.5,-203.5 414.5,-233.5"/>
<text text-anchor="start" x="289.5" y="-221.5" font-family="Helvetica,sans-Serif" font-size="10.00">cbrc::RecountTagCounts</text>
<text text-anchor="middle" x="348" y="-210.5" font-family="Helvetica,sans-Serif" font-size="10.00">::assign</text>
</a>
</g>
</g>
<!-- Node1&#45;&gt;Node2 -->
<g id="edge1_Node000001_Node000002" class="edge">
<title>Node1&#45;&gt;Node2</title>
<g id="a_edge1_Node000001_Node000002"><a xlink:title=" ">
<path fill="none" stroke="#63b8ff" d="M523.19,-138.72C503.44,-154.98 470.88,-179.67 439,-194.5 431.38,-198.05 423.13,-201.14 414.84,-203.82"/>
<polygon fill="#63b8ff" stroke="#63b8ff" points="525.66,-141.22 531.07,-132.11 521.16,-135.86 525.66,-141.22"/>
</a>
</g>
</g>
<!-- Node6 -->
<g id="Node000006" class="node">
<title>Node6</title>
<g id="a_Node000006"><a xlink:href="namespacecbrc_1_1HammingDistanceComputer.html#ad1cd9a6e484b7edef3c76192e2cb3a06" target="_top" xlink:title=" ">
<polygon fill="white" stroke="#666666" points="439,-185.5 257,-185.5 257,-155.5 439,-155.5 439,-185.5"/>
<text text-anchor="start" x="265" y="-173.5" font-family="Helvetica,sans-Serif" font-size="10.00">cbrc::HammingDistanceComputer</text>
<text text-anchor="middle" x="348" y="-162.5" font-family="Helvetica,sans-Serif" font-size="10.00">::computeBoundedGapAtBeg</text>
</a>
</g>
</g>
<!-- Node1&#45;&gt;Node6 -->
<g id="edge5_Node000001_Node000006" class="edge">
<title>Node1&#45;&gt;Node6</title>
<g id="a_edge5_Node000001_Node000006"><a xlink:title=" ">
<path fill="none" stroke="#63b8ff" d="M493.6,-134.54C468.13,-140.87 436.65,-148.7 409.57,-155.44"/>
<polygon fill="#63b8ff" stroke="#63b8ff" points="494.55,-137.91 503.41,-132.1 492.86,-131.12 494.55,-137.91"/>
</a>
</g>
</g>
<!-- Node7 -->
<g id="Node000007" class="node">
<title>Node7</title>
<g id="a_Node000007"><a xlink:href="classcbrc_1_1RecountTagCounts.html#a9a58e2bb48e19e36e003251390a40ca9" target="_top" xlink:title=" ">
<polygon fill="white" stroke="#666666" points="414.5,-137.5 281.5,-137.5 281.5,-107.5 414.5,-107.5 414.5,-137.5"/>
<text text-anchor="start" x="289.5" y="-125.5" font-family="Helvetica,sans-Serif" font-size="10.00">cbrc::RecountTagCounts</text>
<text text-anchor="middle" x="348" y="-114.5" font-family="Helvetica,sans-Serif" font-size="10.00">::constEnd</text>
</a>
</g>
</g>
<!-- Node1&#45;&gt;Node7 -->
<g id="edge6_Node000001_Node000007" class="edge">
<title>Node1&#45;&gt;Node7</title>
<g id="a_edge6_Node000001_Node000007"><a xlink:title=" ">
<path fill="none" stroke="#63b8ff" d="M464.59,-122.5C448.05,-122.5 430.74,-122.5 414.69,-122.5"/>
<polygon fill="#63b8ff" stroke="#63b8ff" points="464.77,-126 474.77,-122.5 464.77,-119 464.77,-126"/>
</a>
</g>
</g>
<!-- Node8 -->
<g id="Node000008" class="node">
<title>Node8</title>
<g id="a_Node000008"><a xlink:href="classcbrc_1_1RecountTagCounts.html#a9e5f557acaeb11218dce222596faf893" target="_top" xlink:title=" ">
<polygon fill="white" stroke="#666666" points="414.5,-89.5 281.5,-89.5 281.5,-59.5 414.5,-59.5 414.5,-89.5"/>
<text text-anchor="start" x="289.5" y="-77.5" font-family="Helvetica,sans-Serif" font-size="10.00">cbrc::RecountTagCounts</text>
<text text-anchor="middle" x="348" y="-66.5" font-family="Helvetica,sans-Serif" font-size="10.00">::maxAbsDiff</text>
</a>
</g>
</g>
<!-- Node1&#45;&gt;Node8 -->
<g id="edge7_Node000001_Node000008" class="edge">
<title>Node1&#45;&gt;Node8</title>
<g id="a_edge7_Node000001_Node000008"><a xlink:title=" ">
<path fill="none" stroke="#63b8ff" d="M493.6,-110.46C468.13,-104.13 436.65,-96.3 409.57,-89.56"/>
<polygon fill="#63b8ff" stroke="#63b8ff" points="492.86,-113.88 503.41,-112.9 494.55,-107.09 492.86,-113.88"/>
</a>
</g>
</g>
<!-- Node9 -->
<g id="Node000009" class="node">
<title>Node9</title>
<g id="a_Node000009"><a xlink:href="classcbrc_1_1RecountExpectationMatchingTagCorrector.html#abf31d0629031b04ac0244514c4743d11" target="_top" xlink:title=" ">
<polygon fill="white" stroke="#666666" points="418,-41 278,-41 278,0 418,0 418,-41"/>
<text text-anchor="start" x="286" y="-29" font-family="Helvetica,sans-Serif" font-size="10.00">cbrc::RecountExpectation</text>
<text text-anchor="start" x="286" y="-18" font-family="Helvetica,sans-Serif" font-size="10.00">MatchingTagCorrector::</text>
<text text-anchor="middle" x="348" y="-7" font-family="Helvetica,sans-Serif" font-size="10.00">totalFoldChangeError</text>
</a>
</g>
</g>
<!-- Node1&#45;&gt;Node9 -->
<g id="edge9_Node000001_Node000009" class="edge">
<title>Node1&#45;&gt;Node9</title>
<g id="a_edge9_Node000001_Node000009"><a xlink:title=" ">
<path fill="none" stroke="#63b8ff" d="M522.67,-106.42C502.74,-90.47 470.24,-66.21 439,-50.5 432.23,-47.1 424.99,-43.95 417.66,-41.07"/>
<polygon fill="#63b8ff" stroke="#63b8ff" points="520.68,-109.31 530.65,-112.9 525.09,-103.88 520.68,-109.31"/>
</a>
</g>
</g>
<!-- Node3 -->
<g id="Node000003" class="node">
<title>Node3</title>
<g id="a_Node000003"><a xlink:href="classcbrc_1_1RecountExpectationMatchingTagCorrector.html#aef78c91ab7f6f6ece7dd996d1b562074" target="_top" xlink:title=" ">
<polygon fill="white" stroke="#666666" points="180.5,-137 40.5,-137 40.5,-96 180.5,-96 180.5,-137"/>
<text text-anchor="start" x="48.5" y="-125" font-family="Helvetica,sans-Serif" font-size="10.00">cbrc::RecountExpectation</text>
<text text-anchor="start" x="48.5" y="-114" font-family="Helvetica,sans-Serif" font-size="10.00">MatchingTagCorrector::</text>
<text text-anchor="middle" x="110.5" y="-103" font-family="Helvetica,sans-Serif" font-size="10.00">inferTrueTagCounts</text>
</a>
</g>
</g>
<!-- Node2&#45;&gt;Node3 -->
<g id="edge2_Node000002_Node000003" class="edge">
<title>Node2&#45;&gt;Node3</title>
<g id="a_edge2_Node000002_Node000003"><a xlink:title=" ">
<path fill="none" stroke="#63b8ff" d="M271.34,-201.45C266.37,-199.39 261.54,-197.08 257,-194.5 237.59,-183.49 239.75,-171.59 221,-159.5 207.35,-150.7 191.62,-143.22 176.42,-137.09"/>
<polygon fill="#63b8ff" stroke="#63b8ff" points="270.45,-204.86 281.04,-205.14 272.93,-198.31 270.45,-204.86"/>
</a>
</g>
</g>
<!-- Node4 -->
<g id="Node000004" class="node">
<title>Node4</title>
<g id="a_Node000004"><a xlink:href="classcbrc_1_1RecountExpectationMatchingTagCorrector.html#ac6064bce0de0dae057ca18e8eba8a53d" target="_top" xlink:title=" ">
<polygon fill="white" stroke="#666666" points="221,-268 0,-268 0,-227 221,-227 221,-268"/>
<text text-anchor="start" x="8" y="-256" font-family="Helvetica,sans-Serif" font-size="10.00">cbrc::RecountExpectation</text>
<text text-anchor="start" x="8" y="-245" font-family="Helvetica,sans-Serif" font-size="10.00">MatchingTagCorrector::</text>
<text text-anchor="middle" x="110.5" y="-234" font-family="Helvetica,sans-Serif" font-size="10.00">RecountExpectationMatchingTagCorrector</text>
</a>
</g>
</g>
<!-- Node2&#45;&gt;Node4 -->
<g id="edge3_Node000002_Node000004" class="edge">
<title>Node2&#45;&gt;Node4</title>
<g id="a_edge3_Node000002_Node000004"><a xlink:title=" ">
<path fill="none" stroke="#63b8ff" d="M271.15,-227.84C255.28,-229.79 238.24,-231.89 221.41,-233.97"/>
<polygon fill="#63b8ff" stroke="#63b8ff" points="271.9,-231.27 281.4,-226.58 271.05,-224.33 271.9,-231.27"/>
</a>
</g>
</g>
<!-- Node5 -->
<g id="Node000005" class="node">
<title>Node5</title>
<g id="a_Node000005"><a xlink:href="classcbrc_1_1RecountExpectationMatchingTagCorrector.html#aea1163ebbfd0654659858d7dc5271b85" target="_top" xlink:title=" ">
<polygon fill="white" stroke="#666666" points="221,-209 0,-209 0,-168 221,-168 221,-209"/>
<text text-anchor="start" x="8" y="-197" font-family="Helvetica,sans-Serif" font-size="10.00">cbrc::RecountExpectation</text>
<text text-anchor="start" x="8" y="-186" font-family="Helvetica,sans-Serif" font-size="10.00">MatchingTagCorrector::</text>
<text text-anchor="middle" x="110.5" y="-175" font-family="Helvetica,sans-Serif" font-size="10.00">RecountExpectationMatchingTagCorrector</text>
</a>
</g>
</g>
<!-- Node2&#45;&gt;Node5 -->
<g id="edge4_Node000002_Node000005" class="edge">
<title>Node2&#45;&gt;Node5</title>
<g id="a_edge4_Node000002_Node000005"><a xlink:title=" ">
<path fill="none" stroke="#63b8ff" d="M271.15,-208.84C255.28,-206.82 238.24,-204.64 221.41,-202.5"/>
<polygon fill="#63b8ff" stroke="#63b8ff" points="271.04,-212.35 281.4,-210.14 271.92,-205.41 271.04,-212.35"/>
</a>
</g>
</g>
<!-- Node8&#45;&gt;Node3 -->
<g id="edge8_Node000008_Node000003" class="edge">
<title>Node8&#45;&gt;Node3</title>
<g id="a_edge8_Node000008_Node000003"><a xlink:title=" ">
<path fill="none" stroke="#63b8ff" d="M271.3,-88C242.26,-93.18 209.28,-99.06 180.86,-104.13"/>
<polygon fill="#63b8ff" stroke="#63b8ff" points="272.17,-91.4 281.4,-86.2 270.94,-84.51 272.17,-91.4"/>
</a>
</g>
</g>
</g>
</svg>
