<?xml version="1.0" encoding="UTF-8" standalone="no"?>
<!DOCTYPE svg PUBLIC "-//W3C//DTD SVG 1.1//EN"
 "http://www.w3.org/Graphics/SVG/1.1/DTD/svg11.dtd">
<!-- Generated by graphviz version 2.43.0 (0)
 -->
<!-- Title: cbrc::ArgvParser::setCautiouslyOrDie Pages: 1 -->
<svg width="947pt" height="191pt"
 viewBox="0.00 0.00 947.00 191.21" xmlns="http://www.w3.org/2000/svg" xmlns:xlink="http://www.w3.org/1999/xlink">
<g id="graph0" class="graph" transform="scale(1 1) rotate(0) translate(4 187.21)">
<title>cbrc::ArgvParser::setCautiouslyOrDie</title>
<!-- Node1 -->
<g id="Node000001" class="node">
<title>Node1</title>
<g id="a_Node000001"><a xlink:title=" ">
<polygon fill="#999999" stroke="#666666" points="168,-106.02 0,-106.02 0,-76.02 168,-76.02 168,-106.02"/>
<text text-anchor="start" x="8" y="-94.02" font-family="Helvetica,sans-Serif" font-size="10.00">cbrc::ArgvParser::setCautiously</text>
<text text-anchor="middle" x="84" y="-83.02" font-family="Helvetica,sans-Serif" font-size="10.00">OrDie</text>
</a>
</g>
</g>
<!-- Node2 -->
<g id="Node000002" class="node">
<title>Node2</title>
<g id="a_Node000002"><a xlink:href="classcbrc_1_1ArgvParser.html#a429485e0298628a2f8f61364e9cc2df1" target="_top" xlink:title=" ">
<polygon fill="white" stroke="#666666" points="372,-106.02 204,-106.02 204,-76.02 372,-76.02 372,-106.02"/>
<text text-anchor="start" x="212" y="-94.02" font-family="Helvetica,sans-Serif" font-size="10.00">cbrc::ArgvParser::setCautiously</text>
<text text-anchor="middle" x="288" y="-83.02" font-family="Helvetica,sans-Serif" font-size="10.00">OrDie</text>
</a>
</g>
</g>
<!-- Node1&#45;&gt;Node2 -->
<g id="edge1_Node000001_Node000002" class="edge">
<title>Node1&#45;&gt;Node2</title>
<g id="a_edge1_Node000001_Node000002"><a xlink:title=" ">
<path fill="none" stroke="#63b8ff" d="M168.04,-91.02C176.56,-91.02 185.26,-91.02 193.89,-91.02"/>
<polygon fill="#63b8ff" stroke="#63b8ff" points="193.96,-94.52 203.96,-91.02 193.96,-87.52 193.96,-94.52"/>
</a>
</g>
</g>
<!-- Node3 -->
<g id="Node000003" class="node">
<title>Node3</title>
<g id="a_Node000003"><a xlink:href="namespacecbrc.html#a94ca1678e0481b17626977da7cfb798b" target="_top" xlink:title=" ">
<polygon fill="white" stroke="#666666" points="770.5,-176.52 622.5,-176.52 622.5,-157.52 770.5,-157.52 770.5,-176.52"/>
<text text-anchor="middle" x="696.5" y="-164.52" font-family="Helvetica,sans-Serif" font-size="10.00">cbrc::_argvParserNullString</text>
</a>
</g>
</g>
<!-- Node2&#45;&gt;Node3 -->
<g id="edge2_Node000002_Node000003" class="edge">
<title>Node2&#45;&gt;Node3</title>
<g id="a_edge2_Node000002_Node000003"><a xlink:title=" ">
<path fill="none" stroke="#63b8ff" d="M305.58,-106.06C327.26,-124.61 367.29,-155.13 408,-167.02 480.24,-188.12 567.12,-184.37 626.33,-177.72"/>
<polygon fill="#63b8ff" stroke="#63b8ff" points="626.8,-181.19 636.32,-176.54 625.98,-174.23 626.8,-181.19"/>
</a>
</g>
</g>
<!-- Node4 -->
<g id="Node000004" class="node">
<title>Node4</title>
<g id="a_Node000004"><a xlink:href="classcbrc_1_1ArgvParser.html#aad8dc9d595217cf4ad2a7f557371d3ab" target="_top" xlink:title=" ">
<polygon fill="white" stroke="#666666" points="754.5,-62.52 638.5,-62.52 638.5,-43.52 754.5,-43.52 754.5,-62.52"/>
<text text-anchor="middle" x="696.5" y="-50.52" font-family="Helvetica,sans-Serif" font-size="10.00">cbrc::ArgvParser::die</text>
</a>
</g>
</g>
<!-- Node2&#45;&gt;Node4 -->
<g id="edge3_Node000002_Node000004" class="edge">
<title>Node2&#45;&gt;Node4</title>
<g id="a_edge3_Node000002_Node000004"><a xlink:title=" ">
<path fill="none" stroke="#63b8ff" d="M372.22,-98.31C431.87,-101.77 513.91,-102.9 585,-91.02 612.94,-86.35 643.27,-75.47 665.07,-66.55"/>
<polygon fill="#63b8ff" stroke="#63b8ff" points="666.58,-69.71 674.45,-62.61 663.88,-63.25 666.58,-69.71"/>
</a>
</g>
</g>
<!-- Node7 -->
<g id="Node000007" class="node">
<title>Node7</title>
<g id="a_Node000007"><a xlink:href="classcbrc_1_1ArgvParser.html#a273ad44f1f402d2a9c31d5cb04c2a63f" target="_top" xlink:title=" ">
<polygon fill="white" stroke="#666666" points="563.5,-157.52 429.5,-157.52 429.5,-138.52 563.5,-138.52 563.5,-157.52"/>
<text text-anchor="middle" x="496.5" y="-145.52" font-family="Helvetica,sans-Serif" font-size="10.00">cbrc::ArgvParser::getArg</text>
</a>
</g>
</g>
<!-- Node2&#45;&gt;Node7 -->
<g id="edge6_Node000002_Node000007" class="edge">
<title>Node2&#45;&gt;Node7</title>
<g id="a_edge6_Node000002_Node000007"><a xlink:title=" ">
<path fill="none" stroke="#63b8ff" d="M343.2,-106.09C363.52,-111.73 386.82,-118.18 408,-124.02 421.93,-127.86 437.11,-132.04 450.86,-135.81"/>
<polygon fill="#63b8ff" stroke="#63b8ff" points="450.01,-139.2 460.58,-138.47 451.86,-132.45 450.01,-139.2"/>
</a>
</g>
</g>
<!-- Node8 -->
<g id="Node000008" class="node">
<title>Node8</title>
<g id="a_Node000008"><a xlink:href="classcbrc_1_1ArgvParser.html#acfc1ef9228adb3bfe47ba9c9e68e68cd" target="_top" xlink:title=" ">
<polygon fill="white" stroke="#666666" points="564,-81.52 429,-81.52 429,-62.52 564,-62.52 564,-81.52"/>
<text text-anchor="middle" x="496.5" y="-69.52" font-family="Helvetica,sans-Serif" font-size="10.00">cbrc::ArgvParser::hasArg</text>
</a>
</g>
</g>
<!-- Node2&#45;&gt;Node8 -->
<g id="edge8_Node000002_Node000008" class="edge">
<title>Node2&#45;&gt;Node8</title>
<g id="a_edge8_Node000002_Node000008"><a xlink:title=" ">
<path fill="none" stroke="#63b8ff" d="M372.1,-83.38C387.4,-81.97 403.31,-80.51 418.42,-79.12"/>
<polygon fill="#63b8ff" stroke="#63b8ff" points="419.1,-82.57 428.74,-78.17 418.46,-75.6 419.1,-82.57"/>
</a>
</g>
</g>
<!-- Node9 -->
<g id="Node000009" class="node">
<title>Node9</title>
<g id="a_Node000009"><a xlink:href="classcbrc_1_1ArgvParser.html#ae862060477d073e6a4dcbaa09a86189d" target="_top" xlink:title=" ">
<polygon fill="white" stroke="#666666" points="585,-44.52 408,-44.52 408,-25.52 585,-25.52 585,-44.52"/>
<text text-anchor="middle" x="496.5" y="-32.52" font-family="Helvetica,sans-Serif" font-size="10.00">cbrc::ArgvParser::openCautiously</text>
</a>
</g>
</g>
<!-- Node2&#45;&gt;Node9 -->
<g id="edge9_Node000002_Node000009" class="edge">
<title>Node2&#45;&gt;Node9</title>
<g id="a_edge9_Node000002_Node000009"><a xlink:title=" ">
<path fill="none" stroke="#63b8ff" d="M334.22,-75.94C356.33,-68.83 383.42,-60.5 408,-54.02 417.7,-51.47 428.06,-48.99 438.14,-46.72"/>
<polygon fill="#63b8ff" stroke="#63b8ff" points="439.08,-50.1 448.09,-44.52 437.57,-43.27 439.08,-50.1"/>
</a>
</g>
</g>
<!-- Node10 -->
<g id="Node000010" class="node">
<title>Node10</title>
<g id="a_Node000010"><a xlink:href="classcbrc_1_1ArgvParser.html#ae3c19f8214a3eed2fd50d1f62a8a41c0" target="_top" xlink:title=" ">
<polygon fill="white" stroke="#666666" points="772,-25.52 621,-25.52 621,-6.52 772,-6.52 772,-25.52"/>
<text text-anchor="middle" x="696.5" y="-13.52" font-family="Helvetica,sans-Serif" font-size="10.00">cbrc::ArgvParser::pathname</text>
</a>
</g>
</g>
<!-- Node2&#45;&gt;Node10 -->
<g id="edge12_Node000002_Node000010" class="edge">
<title>Node2&#45;&gt;Node10</title>
<g id="a_edge12_Node000002_Node000010"><a xlink:title=" ">
<path fill="none" stroke="#63b8ff" d="M305.99,-75.86C327.8,-57.53 367.65,-27.68 408,-16.02 479.96,4.76 566.35,1.18 625.52,-5.35"/>
<polygon fill="#63b8ff" stroke="#63b8ff" points="625.17,-8.83 635.51,-6.5 625.98,-1.88 625.17,-8.83"/>
</a>
</g>
</g>
<!-- Node5 -->
<g id="Node000005" class="node">
<title>Node5</title>
<g id="a_Node000005"><a xlink:href="classcbrc_1_1FLEArray.html#ad71311380d762114c9e0f3b0dda38b7c" target="_top" xlink:title=" ">
<polygon fill="white" stroke="#666666" points="929,-81.52 818,-81.52 818,-62.52 929,-62.52 929,-81.52"/>
<text text-anchor="middle" x="873.5" y="-69.52" font-family="Helvetica,sans-Serif" font-size="10.00">cbrc::FLEArray::size</text>
</a>
</g>
</g>
<!-- Node4&#45;&gt;Node5 -->
<g id="edge4_Node000004_Node000005" class="edge">
<title>Node4&#45;&gt;Node5</title>
<g id="a_edge4_Node000004_Node000005"><a xlink:title=" ">
<path fill="none" stroke="#63b8ff" d="M754.8,-59.24C771.72,-61.08 790.35,-63.1 807.7,-64.99"/>
<polygon fill="#63b8ff" stroke="#63b8ff" points="807.43,-68.48 817.75,-66.08 808.18,-61.52 807.43,-68.48"/>
</a>
</g>
</g>
<!-- Node6 -->
<g id="Node000006" class="node">
<title>Node6</title>
<g id="a_Node000006"><a xlink:href="classcbrc_1_1ArgvParser.html#a1b7d257748fcfaa9a9a3cf46bc36a7e5" target="_top" xlink:title=" ">
<polygon fill="white" stroke="#666666" points="939,-44.52 808,-44.52 808,-25.52 939,-25.52 939,-44.52"/>
<text text-anchor="middle" x="873.5" y="-32.52" font-family="Helvetica,sans-Serif" font-size="10.00">cbrc::ArgvParser::usage</text>
</a>
</g>
</g>
<!-- Node4&#45;&gt;Node6 -->
<g id="edge5_Node000004_Node000006" class="edge">
<title>Node4&#45;&gt;Node6</title>
<g id="a_edge5_Node000004_Node000006"><a xlink:title=" ">
<path fill="none" stroke="#63b8ff" d="M754.8,-47.13C768.44,-45.73 783.19,-44.21 797.49,-42.74"/>
<polygon fill="#63b8ff" stroke="#63b8ff" points="798.21,-46.18 807.79,-41.68 797.49,-39.22 798.21,-46.18"/>
</a>
</g>
</g>
<!-- Node7&#45;&gt;Node3 -->
<g id="edge7_Node000007_Node000003" class="edge">
<title>Node7&#45;&gt;Node3</title>
<g id="a_edge7_Node000007_Node000003"><a xlink:title=" ">
<path fill="none" stroke="#63b8ff" d="M563.71,-154.38C579.25,-155.87 596.02,-157.48 612.21,-159.03"/>
<polygon fill="#63b8ff" stroke="#63b8ff" points="611.91,-162.52 622.2,-159.99 612.58,-155.55 611.91,-162.52"/>
</a>
</g>
</g>
<!-- Node9&#45;&gt;Node4 -->
<g id="edge10_Node000009_Node000004" class="edge">
<title>Node9&#45;&gt;Node4</title>
<g id="a_edge10_Node000009_Node000004"><a xlink:title=" ">
<path fill="none" stroke="#63b8ff" d="M585.21,-43C599.55,-44.3 614.22,-45.63 627.97,-46.88"/>
<polygon fill="#63b8ff" stroke="#63b8ff" points="628.02,-50.4 638.3,-47.82 628.66,-43.43 628.02,-50.4"/>
</a>
</g>
</g>
<!-- Node9&#45;&gt;Node10 -->
<g id="edge11_Node000009_Node000010" class="edge">
<title>Node9&#45;&gt;Node10</title>
<g id="a_edge11_Node000009_Node000010"><a xlink:title=" ">
<path fill="none" stroke="#63b8ff" d="M585.21,-26.61C593.67,-25.79 602.24,-24.97 610.66,-24.16"/>
<polygon fill="#63b8ff" stroke="#63b8ff" points="611.24,-27.62 620.86,-23.19 610.57,-20.66 611.24,-27.62"/>
</a>
</g>
</g>
</g>
</svg>
