<?xml version="1.0" encoding="UTF-8" standalone="no"?>
<!DOCTYPE svg PUBLIC "-//W3C//DTD SVG 1.1//EN"
 "http://www.w3.org/Graphics/SVG/1.1/DTD/svg11.dtd">
<!-- Generated by graphviz version 2.43.0 (0)
 -->
<!-- Title: cbrc::ResidueIndexMap::alphabetProper Pages: 1 -->
<!--zoomable 220 -->

<svg id="main" version="1.1" xmlns="http://www.w3.org/2000/svg" xmlns:xlink="http://www.w3.org/1999/xlink" xml:space="preserve" onload="init(evt)">
<style type="text/css"><![CDATA[
.node, .edge {opacity: 0.7;}
.node.selected, .edge.selected {opacity: 1;}
.edge:hover path { stroke: red; }
.edge:hover polygon { stroke: red; fill: red; }
]]></style>

<defs>
  <circle id="rim" cx="0" cy="0" r="7"/>
  <circle id="rim2" cx="0" cy="0" r="3.5"/>
  <g id="zoomPlus">
    <use xlink:href="#rim" fill="#404040"><set attributeName="fill" to="#808080" begin="zoomplus.mouseover" end="zoomplus.mouseout"/></use>
    <path d="M-4,0h8M0,-4v8" fill="none" stroke="white" stroke-width="1.5" pointer-events="none"/>
  </g>
  <g id="zoomMin">
    <use xlink:href="#rim" fill="#404040"><set attributeName="fill" to="#808080" begin="zoomminus.mouseover" end="zoomminus.mouseout"/></use>
    <path d="M-4,0h8" fill="none" stroke="white" stroke-width="1.5" pointer-events="none"/>
  </g>
  <g id="arrowUp" transform="translate(30 24)">
    <use xlink:href="#rim"/>
    <path pointer-events="none" fill="none" stroke="white" stroke-width="1.5" d="M0,-3.0v7 M-2.5,-0.5L0,-3.0L2.5,-0.5"/>
  </g>
  <g id="arrowRight" transform="rotate(90) translate(36 -43)">
    <use xlink:href="#rim"/>
    <path pointer-events="none" fill="none" stroke="white" stroke-width="1.5" d="M0,-3.0v7 M-2.5,-0.5L0,-3.0L2.5,-0.5"/>
  </g>
  <g id="arrowDown" transform="rotate(180) translate(-30 -48)">
    <use xlink:href="#rim"/>
    <path pointer-events="none" fill="none" stroke="white" stroke-width="1.5" d="M0,-3.0v7 M-2.5,-0.5L0,-3.0L2.5,-0.5"/>
  </g>
  <g id="arrowLeft" transform="rotate(270) translate(-36 17)">
    <use xlink:href="#rim"/>
    <path pointer-events="none" fill="none" stroke="white" stroke-width="1.5" d="M0,-3.0v7 M-2.5,-0.5L0,-3.0L2.5,-0.5"/>
  </g>
  <g id="resetDef">
    <use xlink:href="#rim2" fill="#404040"><set attributeName="fill" to="#808080" begin="reset.mouseover" end="reset.mouseout"/></use>
  </g>
</defs>
<script type="application/ecmascript">
var viewWidth = 615;
var viewHeight = 220;
var sectionId = 'dynsection-3';
</script>
<script type="application/ecmascript" xlink:href="svg.min.js"/>
<svg id="graph" class="graph">
<g id="viewport">
<title>cbrc::ResidueIndexMap::alphabetProper</title>
<!-- Node1 -->
<g id="Node000001" class="node">
<title>Node1</title>
<g id="a_Node000001"><a xlink:title=" ">
<polygon fill="#999999" stroke="#666666" points="607,-126 477,-126 477,-96 607,-96 607,-126"/>
<text text-anchor="start" x="485" y="-114" font-family="Helvetica,sans-Serif" font-size="10.00">cbrc::ResidueIndexMap</text>
<text text-anchor="middle" x="542" y="-103" font-family="Helvetica,sans-Serif" font-size="10.00">::alphabetProper</text>
</a>
</g>
</g>
<!-- Node2 -->
<g id="Node000002" class="node">
<title>Node2</title>
<g id="a_Node000002"><a xlink:href="namespacecbrc.html#a8d76979b3a7836ef936be6283c4daed3" target="_top" xlink:title=" ">
<polygon fill="white" stroke="#666666" points="441,-212 280,-212 280,-182 441,-182 441,-212"/>
<text text-anchor="start" x="288" y="-200" font-family="Helvetica,sans-Serif" font-size="10.00">cbrc::dumpAminoAcidContent</text>
<text text-anchor="middle" x="360.5" y="-189" font-family="Helvetica,sans-Serif" font-size="10.00">WPformat</text>
</a>
</g>
</g>
<!-- Node1&#45;&gt;Node2 -->
<g id="edge1_Node000001_Node000002" class="edge">
<title>Node1&#45;&gt;Node2</title>
<g id="a_edge1_Node000001_Node000002"><a xlink:title=" ">
<path fill="none" stroke="#63b8ff" d="M511.69,-132.03C492.34,-145.18 466.02,-161.7 441,-173 433.77,-176.26 425.98,-179.23 418.2,-181.88"/>
<polygon fill="#63b8ff" stroke="#63b8ff" points="513.82,-134.81 520.06,-126.25 509.84,-129.05 513.82,-134.81"/>
</a>
</g>
</g>
<!-- Node4 -->
<g id="Node000004" class="node">
<title>Node4</title>
<g id="a_Node000004"><a xlink:href="namespacecbrc.html#a315b8ac8ad6d015e0789611c9cf020ea" target="_top" xlink:title=" ">
<polygon fill="white" stroke="#666666" points="411,-163.5 310,-163.5 310,-144.5 411,-144.5 411,-163.5"/>
<text text-anchor="middle" x="360.5" y="-151.5" font-family="Helvetica,sans-Serif" font-size="10.00">cbrc::operator&lt;&lt;</text>
</a>
</g>
</g>
<!-- Node1&#45;&gt;Node4 -->
<g id="edge3_Node000001_Node000004" class="edge">
<title>Node1&#45;&gt;Node4</title>
<g id="a_edge3_Node000001_Node000004"><a xlink:title=" ">
<path fill="none" stroke="#63b8ff" d="M468.38,-128.44C459.17,-130.65 449.86,-132.88 441,-135 428.17,-138.07 414.16,-141.42 401.54,-144.44"/>
<polygon fill="#63b8ff" stroke="#63b8ff" points="469.42,-131.79 478.32,-126.05 467.78,-124.98 469.42,-131.79"/>
</a>
</g>
</g>
<!-- Node5 -->
<g id="Node000005" class="node">
<title>Node5</title>
<g id="a_Node000005"><a xlink:href="classcbrc_1_1ResidueIndexMap.html#af4491e9ced21b726f520b8955d719bcf" target="_top" xlink:title=" ">
<polygon fill="white" stroke="#666666" points="425.5,-126 295.5,-126 295.5,-96 425.5,-96 425.5,-126"/>
<text text-anchor="start" x="303.5" y="-114" font-family="Helvetica,sans-Serif" font-size="10.00">cbrc::ResidueIndexMap</text>
<text text-anchor="middle" x="360.5" y="-103" font-family="Helvetica,sans-Serif" font-size="10.00">::properResidue</text>
</a>
</g>
</g>
<!-- Node1&#45;&gt;Node5 -->
<g id="edge4_Node000001_Node000005" class="edge">
<title>Node1&#45;&gt;Node5</title>
<g id="a_edge4_Node000001_Node000005"><a xlink:title=" ">
<path fill="none" stroke="#63b8ff" d="M466.63,-111C452.98,-111 438.84,-111 425.52,-111"/>
<polygon fill="#63b8ff" stroke="#63b8ff" points="466.96,-114.5 476.96,-111 466.96,-107.5 466.96,-114.5"/>
</a>
</g>
</g>
<!-- Node7 -->
<g id="Node000007" class="node">
<title>Node7</title>
<g id="a_Node000007"><a xlink:href="classcbrc_1_1ResidueIndexMap.html#ae82a358079a97a70cd4349aa2644adba" target="_top" xlink:title=" ">
<polygon fill="white" stroke="#666666" points="425.5,-78 295.5,-78 295.5,-48 425.5,-48 425.5,-78"/>
<text text-anchor="start" x="303.5" y="-66" font-family="Helvetica,sans-Serif" font-size="10.00">cbrc::ResidueIndexMap</text>
<text text-anchor="middle" x="360.5" y="-55" font-family="Helvetica,sans-Serif" font-size="10.00">::properResidueIndex</text>
</a>
</g>
</g>
<!-- Node1&#45;&gt;Node7 -->
<g id="edge6_Node000001_Node000007" class="edge">
<title>Node1&#45;&gt;Node7</title>
<g id="a_edge6_Node000001_Node000007"><a xlink:title=" ">
<path fill="none" stroke="#63b8ff" d="M475,-93.35C456.15,-88.31 435.8,-82.87 417.6,-78"/>
<polygon fill="#63b8ff" stroke="#63b8ff" points="474.13,-96.74 484.7,-95.94 475.94,-89.98 474.13,-96.74"/>
</a>
</g>
</g>
<!-- Node9 -->
<g id="Node000009" class="node">
<title>Node9</title>
<g id="a_Node000009"><a xlink:href="classcbrc_1_1ResidueIndexMap.html#a82fb971ecc2b08d269be1a0fb70b9348" target="_top" xlink:title=" ">
<polygon fill="white" stroke="#666666" points="425.5,-30 295.5,-30 295.5,0 425.5,0 425.5,-30"/>
<text text-anchor="start" x="303.5" y="-18" font-family="Helvetica,sans-Serif" font-size="10.00">cbrc::ResidueIndexMap</text>
<text text-anchor="middle" x="360.5" y="-7" font-family="Helvetica,sans-Serif" font-size="10.00">::write</text>
</a>
</g>
</g>
<!-- Node1&#45;&gt;Node9 -->
<g id="edge8_Node000001_Node000009" class="edge">
<title>Node1&#45;&gt;Node9</title>
<g id="a_edge8_Node000001_Node000009"><a xlink:title=" ">
<path fill="none" stroke="#63b8ff" d="M515.99,-89.38C496.61,-73.57 468.53,-52.59 441,-39 434.28,-35.68 427.01,-32.72 419.69,-30.11"/>
<polygon fill="#63b8ff" stroke="#63b8ff" points="513.8,-92.11 523.73,-95.8 518.27,-86.73 513.8,-92.11"/>
</a>
</g>
</g>
<!-- Node3 -->
<g id="Node000003" class="node">
<title>Node3</title>
<g id="a_Node000003"><a xlink:href="fasta__dumpAminoAcidContentWPformat_8cc.html#ad53223b8779f25caeddb70a3b9172967" target="_top" xlink:title=" ">
<polygon fill="white" stroke="#666666" points="181,-206.5 140,-206.5 140,-187.5 181,-187.5 181,-206.5"/>
<text text-anchor="middle" x="160.5" y="-194.5" font-family="Helvetica,sans-Serif" font-size="10.00">main</text>
</a>
</g>
</g>
<!-- Node2&#45;&gt;Node3 -->
<g id="edge2_Node000002_Node000003" class="edge">
<title>Node2&#45;&gt;Node3</title>
<g id="a_edge2_Node000002_Node000003"><a xlink:title=" ">
<path fill="none" stroke="#63b8ff" d="M269.59,-197C236.42,-197 201.88,-197 181.03,-197"/>
<polygon fill="#63b8ff" stroke="#63b8ff" points="269.82,-200.5 279.82,-197 269.82,-193.5 269.82,-200.5"/>
</a>
</g>
</g>
<!-- Node6 -->
<g id="Node000006" class="node">
<title>Node6</title>
<g id="a_Node000006"><a xlink:href="classcbrc_1_1ResidueIndexMap.html#addda628f1d795851627433ced9d2f68a" target="_top" xlink:title=" ">
<polygon fill="white" stroke="#666666" points="225.5,-126 95.5,-126 95.5,-96 225.5,-96 225.5,-126"/>
<text text-anchor="start" x="103.5" y="-114" font-family="Helvetica,sans-Serif" font-size="10.00">cbrc::ResidueIndexMap</text>
<text text-anchor="middle" x="160.5" y="-103" font-family="Helvetica,sans-Serif" font-size="10.00">::properResidues</text>
</a>
</g>
</g>
<!-- Node5&#45;&gt;Node6 -->
<g id="edge5_Node000005_Node000006" class="edge">
<title>Node5&#45;&gt;Node6</title>
<g id="a_edge5_Node000005_Node000006"><a xlink:title=" ">
<path fill="none" stroke="#63b8ff" d="M285.36,-111C265.72,-111 244.69,-111 225.63,-111"/>
<polygon fill="#63b8ff" stroke="#63b8ff" points="285.49,-114.5 295.49,-111 285.49,-107.5 285.49,-114.5"/>
</a>
</g>
</g>
<!-- Node8 -->
<g id="Node000008" class="node">
<title>Node8</title>
<g id="a_Node000008"><a xlink:href="classcbrc_1_1ResidueIndexMap.html#a7591c954b74fb53ed7f82355e0c1c3a4" target="_top" xlink:title=" ">
<polygon fill="white" stroke="#666666" points="244,-78 77,-78 77,-48 244,-48 244,-78"/>
<text text-anchor="start" x="85" y="-66" font-family="Helvetica,sans-Serif" font-size="10.00">cbrc::ResidueIndexMap</text>
<text text-anchor="middle" x="160.5" y="-55" font-family="Helvetica,sans-Serif" font-size="10.00">::splitIntoProperOnlySubstrings</text>
</a>
</g>
</g>
<!-- Node7&#45;&gt;Node8 -->
<g id="edge7_Node000007_Node000008" class="edge">
<title>Node7&#45;&gt;Node8</title>
<g id="a_edge7_Node000007_Node000008"><a xlink:title=" ">
<path fill="none" stroke="#63b8ff" d="M285.34,-63C271.88,-63 257.77,-63 244.08,-63"/>
<polygon fill="#63b8ff" stroke="#63b8ff" points="285.49,-66.5 295.49,-63 285.49,-59.5 285.49,-66.5"/>
</a>
</g>
</g>
<!-- Node10 -->
<g id="Node000010" class="node">
<title>Node10</title>
<g id="a_Node000010"><a xlink:href="namespacecbrc.html#a8941b798efd9269f50d8756e1a7d5838" target="_top" xlink:title=" ">
<polygon fill="white" stroke="#666666" points="238,-24.5 83,-24.5 83,-5.5 238,-5.5 238,-24.5"/>
<text text-anchor="middle" x="160.5" y="-12.5" font-family="Helvetica,sans-Serif" font-size="10.00">cbrc::writeResidueIndexMap</text>
</a>
</g>
</g>
<!-- Node9&#45;&gt;Node10 -->
<g id="edge9_Node000009_Node000010" class="edge">
<title>Node9&#45;&gt;Node10</title>
<g id="a_edge9_Node000009_Node000010"><a xlink:title=" ">
<path fill="none" stroke="#63b8ff" d="M285.46,-15C269.99,-15 253.64,-15 238.08,-15"/>
<polygon fill="#63b8ff" stroke="#63b8ff" points="285.49,-18.5 295.49,-15 285.49,-11.5 285.49,-18.5"/>
</a>
</g>
</g>
<!-- Node11 -->
<g id="Node000011" class="node">
<title>Node11</title>
<g id="a_Node000011"><a xlink:href="writeResidueIndexMap_8cc.html#ac0f2228420376f4db7e1274f2b41667c" target="_top" xlink:title=" ">
<polygon fill="white" stroke="#666666" points="41,-24.5 0,-24.5 0,-5.5 41,-5.5 41,-24.5"/>
<text text-anchor="middle" x="20.5" y="-12.5" font-family="Helvetica,sans-Serif" font-size="10.00">main</text>
</a>
</g>
</g>
<!-- Node10&#45;&gt;Node11 -->
<g id="edge10_Node000010_Node000011" class="edge">
<title>Node10&#45;&gt;Node11</title>
<g id="a_edge10_Node000010_Node000011"><a xlink:title=" ">
<path fill="none" stroke="#63b8ff" d="M72.76,-15C60.94,-15 49.87,-15 41.06,-15"/>
<polygon fill="#63b8ff" stroke="#63b8ff" points="72.83,-18.5 82.83,-15 72.83,-11.5 72.83,-18.5"/>
</a>
</g>
</g>
</g>
</svg>

<g id="navigator" transform="translate(0 0)" fill="#404254">
  <rect fill="#f2f5e9" fill-opacity="0.5" stroke="#606060" stroke-width=".5" x="0" y="0" width="60" height="60"/>
  <use id="zoomplus" xlink:href="#zoomPlus" x="17" y="9" onmousedown="handleZoom(evt,'in')"/>
  <use id="zoomminus" xlink:href="#zoomMin" x="42" y="9" onmousedown="handleZoom(evt,'out')"/>
  <use id="reset" xlink:href="#resetDef" x="30" y="36" onmousedown="handleReset()"/>
   <use id="arrowup" xlink:href="#arrowUp" x="0" y="0" onmousedown="handlePan(0,-1)"/>
  <use id="arrowright" xlink:href="#arrowRight" x="0" y="0" onmousedown="handlePan(1,0)"/>
  <use id="arrowdown" xlink:href="#arrowDown" x="0" y="0" onmousedown="handlePan(0,1)"/>
  <use id="arrowleft" xlink:href="#arrowLeft" x="0" y="0" onmousedown="handlePan(-1,0)"/>
</g>
<svg viewBox="0 0 15 15" width="100%" height="30px" preserveAspectRatio="xMaxYMin meet">
 <g id="arrow_out" transform="scale(0.3 0.3)">
  <a xlink:href="classcbrc_1_1ResidueIndexMap_a19dec9678d9b82ebf1e8c98151c480b9_icgraph_org.svg" target="_base">
   <rect id="button" ry="5" rx="5" y="6" x="6" height="38" width="38"
        fill="#f2f5e9" fill-opacity="0.5" stroke="#606060" stroke-width="1.0"/>
   <path id="arrow"
     d="M 11.500037,31.436501 C 11.940474,20.09759 22.043105,11.32322 32.158766,21.979434 L 37.068811,17.246167 C 37.068811,17.246167 37.088388,32 37.088388,32 L 22.160133,31.978069 C 22.160133,31.978069 26.997745,27.140456 26.997745,27.140456 C 18.528582,18.264221 13.291696,25.230495 11.500037,31.436501 z"
     style="fill:#404040;"/>
  </a>
 </g>
</svg>

<style type='text/css'>
<![CDATA[
[data-mouse-over-selected='false'] { opacity: 0.7; }
[data-mouse-over-selected='true']  { opacity: 1.0; }
]]>
</style>
<script type="application/ecmascript"><![CDATA[
document.addEventListener('DOMContentLoaded', (event) => {
  highlightEdges();
  highlightAdjacentNodes();
});
]]></script>
</svg>
