<?xml version="1.0" encoding="UTF-8" standalone="no"?>
<!DOCTYPE svg PUBLIC "-//W3C//DTD SVG 1.1//EN"
 "http://www.w3.org/Graphics/SVG/1.1/DTD/svg11.dtd">
<!-- Generated by graphviz version 2.43.0 (0)
 -->
<!-- Title: cbrc::BitMatrix::set Pages: 1 -->
<svg width="298pt" height="101pt"
 viewBox="0.00 0.00 298.00 101.00" xmlns="http://www.w3.org/2000/svg" xmlns:xlink="http://www.w3.org/1999/xlink">
<g id="graph0" class="graph" transform="scale(1 1) rotate(0) translate(4 97)">
<title>cbrc::BitMatrix::set</title>
<!-- Node1 -->
<g id="Node000001" class="node">
<title>Node1</title>
<g id="a_Node000001"><a xlink:title=" ">
<polygon fill="#999999" stroke="#666666" points="109,-56 0,-56 0,-37 109,-37 109,-56"/>
<text text-anchor="middle" x="54.5" y="-44" font-family="Helvetica,sans-Serif" font-size="10.00">cbrc::BitMatrix::set</text>
</a>
</g>
</g>
<!-- Node2 -->
<g id="Node000002" class="node">
<title>Node2</title>
<g id="a_Node000002"><a xlink:href="classcbrc_1_1BitMatrix.html#a3b8a61f05175429de409db18731b1be3" target="_top" xlink:title=" ">
<polygon fill="white" stroke="#666666" points="286,-93 149,-93 149,-74 286,-74 286,-93"/>
<text text-anchor="middle" x="217.5" y="-81" font-family="Helvetica,sans-Serif" font-size="10.00">cbrc::BitMatrix::clearFast</text>
</a>
</g>
</g>
<!-- Node1&#45;&gt;Node2 -->
<g id="edge1_Node000001_Node000002" class="edge">
<title>Node1&#45;&gt;Node2</title>
<g id="a_edge1_Node000001_Node000002"><a xlink:title=" ">
<path fill="none" stroke="#63b8ff" d="M96.96,-56.03C117.73,-60.8 143.06,-66.62 165.06,-71.68"/>
<polygon fill="#63b8ff" stroke="#63b8ff" points="164.37,-75.11 174.9,-73.94 165.94,-68.29 164.37,-75.11"/>
</a>
</g>
</g>
<!-- Node3 -->
<g id="Node000003" class="node">
<title>Node3</title>
<g id="a_Node000003"><a xlink:href="classcbrc_1_1BitMatrix.html#aca4712262ef6377cff0ed9bf5bf171d9" target="_top" xlink:title=" ">
<polygon fill="white" stroke="#666666" points="281.5,-56 153.5,-56 153.5,-37 281.5,-37 281.5,-56"/>
<text text-anchor="middle" x="217.5" y="-44" font-family="Helvetica,sans-Serif" font-size="10.00">cbrc::BitMatrix::setFast</text>
</a>
</g>
</g>
<!-- Node1&#45;&gt;Node3 -->
<g id="edge2_Node000001_Node000003" class="edge">
<title>Node1&#45;&gt;Node3</title>
<g id="a_edge2_Node000001_Node000003"><a xlink:title=" ">
<path fill="none" stroke="#63b8ff" d="M109.11,-46.5C120.08,-46.5 131.8,-46.5 143.31,-46.5"/>
<polygon fill="#63b8ff" stroke="#63b8ff" points="143.36,-50 153.36,-46.5 143.36,-43 143.36,-50"/>
</a>
</g>
</g>
<!-- Node4 -->
<g id="Node000004" class="node">
<title>Node4</title>
<g id="a_Node000004"><a xlink:href="classcbrc_1_1BitMatrix.html#a0075799958840771cdf6619138706bbe" target="_top" xlink:title=" ">
<polygon fill="white" stroke="#666666" points="290,-19 145,-19 145,0 290,0 290,-19"/>
<text text-anchor="middle" x="217.5" y="-7" font-family="Helvetica,sans-Serif" font-size="10.00">cbrc::BitMatrix::validIndex</text>
</a>
</g>
</g>
<!-- Node1&#45;&gt;Node4 -->
<g id="edge3_Node000001_Node000004" class="edge">
<title>Node1&#45;&gt;Node4</title>
<g id="a_edge3_Node000001_Node000004"><a xlink:title=" ">
<path fill="none" stroke="#63b8ff" d="M96.96,-36.97C117.73,-32.2 143.06,-26.38 165.06,-21.32"/>
<polygon fill="#63b8ff" stroke="#63b8ff" points="165.94,-24.71 174.9,-19.06 164.37,-17.89 165.94,-24.71"/>
</a>
</g>
</g>
</g>
</svg>
