<?xml version="1.0" encoding="UTF-8" standalone="no"?>
<!DOCTYPE svg PUBLIC "-//W3C//DTD SVG 1.1//EN"
 "http://www.w3.org/Graphics/SVG/1.1/DTD/svg11.dtd">
<!-- Generated by graphviz version 2.43.0 (0)
 -->
<!-- Title: cbrc::BitMatrixFast::set Pages: 1 -->
<svg width="460pt" height="55pt"
 viewBox="0.00 0.00 460.00 54.50" xmlns="http://www.w3.org/2000/svg" xmlns:xlink="http://www.w3.org/1999/xlink">

<svg id="main" version="1.1" xmlns="http://www.w3.org/2000/svg" xmlns:xlink="http://www.w3.org/1999/xlink" xml:space="preserve" onload="init(evt)">
<style type="text/css"><![CDATA[
.node, .edge {opacity: 0.7;}
.node.selected, .edge.selected {opacity: 1;}
.edge:hover path { stroke: red; }
.edge:hover polygon { stroke: red; fill: red; }
]]></style>
<script type="application/ecmascript" xlink:href="svg.min.js"/>
<svg id="graph" class="graph">
<g id="graph0" class="graph" transform="scale(1 1) rotate(0) translate(4 50.5)">
<title>cbrc::BitMatrixFast::set</title>
<!-- Node1 -->
<g id="Node000001" class="node">
<title>Node1</title>
<g id="a_Node000001"><a xlink:title=" ">
<polygon fill="#999999" stroke="#666666" points="128,-19 0,-19 0,0 128,0 128,-19"/>
<text text-anchor="middle" x="64" y="-7" font-family="Helvetica,sans-Serif" font-size="10.00">cbrc::BitMatrixFast::set</text>
</a>
</g>
</g>
<!-- Node1&#45;&gt;Node1 -->
<g id="edge3_Node000001_Node000001" class="edge">
<title>Node1&#45;&gt;Node1</title>
<g id="a_edge3_Node000001_Node000001"><a xlink:title=" ">
<path fill="none" stroke="#63b8ff" d="M40.57,-19.08C29.18,-27.73 36.98,-37 64,-37 81.73,-37 91.19,-33.01 92.37,-27.82"/>
<polygon fill="#63b8ff" stroke="#63b8ff" points="95.4,-26.06 87.43,-19.08 89.31,-29.51 95.4,-26.06"/>
</a>
</g>
</g>
<!-- Node2 -->
<g id="Node000002" class="node">
<title>Node2</title>
<g id="a_Node000002"><a xlink:href="classcbrc_1_1BitMatrixFast.html#a0e9052ae418747ec527f5e49ebb83f38" target="_top" xlink:title=" ">
<polygon fill="white" stroke="#666666" points="271,-46.5 164,-46.5 164,-16.5 271,-16.5 271,-46.5"/>
<text text-anchor="start" x="172" y="-34.5" font-family="Helvetica,sans-Serif" font-size="10.00">cbrc::BitMatrixFast</text>
<text text-anchor="middle" x="217.5" y="-23.5" font-family="Helvetica,sans-Serif" font-size="10.00">::clear</text>
</a>
</g>
</g>
<!-- Node1&#45;&gt;Node2 -->
<g id="edge1_Node000001_Node000002" class="edge">
<title>Node1&#45;&gt;Node2</title>
<g id="a_edge1_Node000001_Node000002"><a xlink:title=" ">
<path fill="none" stroke="#63b8ff" d="M128.37,-18.7C136.79,-19.92 145.41,-21.18 153.82,-22.4"/>
<polygon fill="#63b8ff" stroke="#63b8ff" points="153.53,-25.89 163.93,-23.87 154.54,-18.97 153.53,-25.89"/>
</a>
</g>
</g>
<!-- Node3 -->
<g id="Node000003" class="node">
<title>Node3</title>
<g id="a_Node000003"><a xlink:href="classcbrc_1_1BitMatrix.html#a0075799958840771cdf6619138706bbe" target="_top" xlink:title=" ">
<polygon fill="white" stroke="#666666" points="452,-19 307,-19 307,0 452,0 452,-19"/>
<text text-anchor="middle" x="379.5" y="-7" font-family="Helvetica,sans-Serif" font-size="10.00">cbrc::BitMatrix::validIndex</text>
</a>
</g>
</g>
<!-- Node1&#45;&gt;Node3 -->
<g id="edge4_Node000001_Node000003" class="edge">
<title>Node1&#45;&gt;Node3</title>
<g id="a_edge4_Node000001_Node000003"><a xlink:title=" ">
<path fill="none" stroke="#63b8ff" d="M128.11,-8.03C140.03,-7.81 152.4,-7.62 164,-7.5 211.55,-7.02 223.45,-7.06 271,-7.5 279.32,-7.58 288,-7.69 296.66,-7.82"/>
<polygon fill="#63b8ff" stroke="#63b8ff" points="296.75,-11.32 306.8,-7.98 296.86,-4.32 296.75,-11.32"/>
</a>
</g>
</g>
<!-- Node2&#45;&gt;Node3 -->
<g id="edge2_Node000002_Node000003" class="edge">
<title>Node2&#45;&gt;Node3</title>
<g id="a_edge2_Node000002_Node000003"><a xlink:title=" ">
<path fill="none" stroke="#63b8ff" d="M271.33,-24.24C280.22,-23.01 289.62,-21.72 299.01,-20.43"/>
<polygon fill="#63b8ff" stroke="#63b8ff" points="299.74,-23.86 309.17,-19.03 298.79,-16.93 299.74,-23.86"/>
</a>
</g>
</g>
</g>
</svg>
</svg>

<style type='text/css'>
<![CDATA[
[data-mouse-over-selected='false'] { opacity: 0.7; }
[data-mouse-over-selected='true']  { opacity: 1.0; }
]]>
</style>
<script type="application/ecmascript"><![CDATA[
document.addEventListener('DOMContentLoaded', (event) => {
  highlightEdges();
  highlightAdjacentNodes();
});
]]></script>
</svg>
