<?xml version="1.0" encoding="UTF-8" standalone="no"?>
<!DOCTYPE svg PUBLIC "-//W3C//DTD SVG 1.1//EN"
 "http://www.w3.org/Graphics/SVG/1.1/DTD/svg11.dtd">
<!-- Generated by graphviz version 2.43.0 (0)
 -->
<!-- Title: cbrc::ArgvParser::argc Pages: 1 -->
<!--zoomable 360 -->

<svg id="main" version="1.1" xmlns="http://www.w3.org/2000/svg" xmlns:xlink="http://www.w3.org/1999/xlink" xml:space="preserve" onload="init(evt)">
<style type="text/css"><![CDATA[
.node, .edge {opacity: 0.7;}
.node.selected, .edge.selected {opacity: 1;}
.edge:hover path { stroke: red; }
.edge:hover polygon { stroke: red; fill: red; }
]]></style>

<defs>
  <circle id="rim" cx="0" cy="0" r="7"/>
  <circle id="rim2" cx="0" cy="0" r="3.5"/>
  <g id="zoomPlus">
    <use xlink:href="#rim" fill="#404040"><set attributeName="fill" to="#808080" begin="zoomplus.mouseover" end="zoomplus.mouseout"/></use>
    <path d="M-4,0h8M0,-4v8" fill="none" stroke="white" stroke-width="1.5" pointer-events="none"/>
  </g>
  <g id="zoomMin">
    <use xlink:href="#rim" fill="#404040"><set attributeName="fill" to="#808080" begin="zoomminus.mouseover" end="zoomminus.mouseout"/></use>
    <path d="M-4,0h8" fill="none" stroke="white" stroke-width="1.5" pointer-events="none"/>
  </g>
  <g id="arrowUp" transform="translate(30 24)">
    <use xlink:href="#rim"/>
    <path pointer-events="none" fill="none" stroke="white" stroke-width="1.5" d="M0,-3.0v7 M-2.5,-0.5L0,-3.0L2.5,-0.5"/>
  </g>
  <g id="arrowRight" transform="rotate(90) translate(36 -43)">
    <use xlink:href="#rim"/>
    <path pointer-events="none" fill="none" stroke="white" stroke-width="1.5" d="M0,-3.0v7 M-2.5,-0.5L0,-3.0L2.5,-0.5"/>
  </g>
  <g id="arrowDown" transform="rotate(180) translate(-30 -48)">
    <use xlink:href="#rim"/>
    <path pointer-events="none" fill="none" stroke="white" stroke-width="1.5" d="M0,-3.0v7 M-2.5,-0.5L0,-3.0L2.5,-0.5"/>
  </g>
  <g id="arrowLeft" transform="rotate(270) translate(-36 17)">
    <use xlink:href="#rim"/>
    <path pointer-events="none" fill="none" stroke="white" stroke-width="1.5" d="M0,-3.0v7 M-2.5,-0.5L0,-3.0L2.5,-0.5"/>
  </g>
  <g id="resetDef">
    <use xlink:href="#rim2" fill="#404040"><set attributeName="fill" to="#808080" begin="reset.mouseover" end="reset.mouseout"/></use>
  </g>
</defs>
<script type="application/ecmascript">
var viewWidth = 539;
var viewHeight = 360;
var sectionId = 'dynsection-2';
</script>
<script type="application/ecmascript" xlink:href="svg.min.js"/>
<svg id="graph" class="graph">
<g id="viewport">
<title>cbrc::ArgvParser::argc</title>
<!-- Node1 -->
<g id="Node000001" class="node">
<title>Node1</title>
<g id="a_Node000001"><a xlink:title=" ">
<polygon fill="#999999" stroke="#666666" points="531,-180 409,-180 409,-161 531,-161 531,-180"/>
<text text-anchor="middle" x="470" y="-168" font-family="Helvetica,sans-Serif" font-size="10.00">cbrc::ArgvParser::argc</text>
</a>
</g>
</g>
<!-- Node2 -->
<g id="Node000002" class="node">
<title>Node2</title>
<g id="a_Node000002"><a xlink:href="classcbrc_1_1ArgvParser.html#a768865dae29987a70b40174644b1f84a" target="_top" xlink:title=" ">
<polygon fill="white" stroke="#666666" points="346.5,-351.5 212.5,-351.5 212.5,-321.5 346.5,-321.5 346.5,-351.5"/>
<text text-anchor="start" x="220.5" y="-339.5" font-family="Helvetica,sans-Serif" font-size="10.00">cbrc::ArgvParser::argsAs</text>
<text text-anchor="middle" x="279.5" y="-328.5" font-family="Helvetica,sans-Serif" font-size="10.00">Strings</text>
</a>
</g>
</g>
<!-- Node1&#45;&gt;Node2 -->
<g id="edge1_Node000001_Node000002" class="edge">
<title>Node1&#45;&gt;Node2</title>
<g id="a_edge1_Node000001_Node000002"><a xlink:title=" ">
<path fill="none" stroke="#63b8ff" d="M461.35,-189.79C448.13,-220.61 418,-280.7 373,-312.5 365.14,-318.05 356.1,-322.32 346.8,-325.6"/>
<polygon fill="#63b8ff" stroke="#63b8ff" points="464.73,-190.79 465.32,-180.21 458.26,-188.11 464.73,-190.79"/>
</a>
</g>
</g>
<!-- Node3 -->
<g id="Node000003" class="node">
<title>Node3</title>
<g id="a_Node000003"><a xlink:href="classcbrc_1_1ArgvParser.html#a3bbb0e60b8ecf7aad107e75a62c5798e" target="_top" xlink:title=" ">
<polygon fill="white" stroke="#666666" points="364.5,-303 194.5,-303 194.5,-284 364.5,-284 364.5,-303"/>
<text text-anchor="middle" x="279.5" y="-291" font-family="Helvetica,sans-Serif" font-size="10.00">cbrc::ArgvParser::commandLine</text>
</a>
</g>
</g>
<!-- Node1&#45;&gt;Node3 -->
<g id="edge2_Node000001_Node000003" class="edge">
<title>Node1&#45;&gt;Node3</title>
<g id="a_edge2_Node000001_Node000003"><a xlink:title=" ">
<path fill="none" stroke="#63b8ff" d="M457.68,-188.52C441.8,-212.2 410.59,-253.28 373,-274.5 366.15,-278.37 358.61,-281.45 350.89,-283.92"/>
<polygon fill="#63b8ff" stroke="#63b8ff" points="460.64,-190.38 463.17,-180.1 454.78,-186.56 460.64,-190.38"/>
</a>
</g>
</g>
<!-- Node4 -->
<g id="Node000004" class="node">
<title>Node4</title>
<g id="a_Node000004"><a xlink:href="classcbrc_1_1ArgvParser.html#af13a60f32a0cf727ac0cf3fb3ae9de34" target="_top" xlink:title=" ">
<polygon fill="white" stroke="#666666" points="346.5,-265.5 212.5,-265.5 212.5,-235.5 346.5,-235.5 346.5,-265.5"/>
<text text-anchor="start" x="220.5" y="-253.5" font-family="Helvetica,sans-Serif" font-size="10.00">cbrc::ArgvParser::getArg</text>
<text text-anchor="middle" x="279.5" y="-242.5" font-family="Helvetica,sans-Serif" font-size="10.00">OrDie</text>
</a>
</g>
</g>
<!-- Node1&#45;&gt;Node4 -->
<g id="edge3_Node000001_Node000004" class="edge">
<title>Node1&#45;&gt;Node4</title>
<g id="a_edge3_Node000001_Node000004"><a xlink:title=" ">
<path fill="none" stroke="#63b8ff" d="M446.84,-185.8C427.94,-198.25 399.67,-215.5 373,-226.5 364.72,-229.91 355.81,-232.96 346.92,-235.63"/>
<polygon fill="#63b8ff" stroke="#63b8ff" points="448.96,-188.59 455.32,-180.12 445.06,-182.78 448.96,-188.59"/>
</a>
</g>
</g>
<!-- Node5 -->
<g id="Node000005" class="node">
<title>Node5</title>
<g id="a_Node000005"><a xlink:href="classcbrc_1_1ArgvParser.html#a9621a9ad78d4a0307718162d08faca07" target="_top" xlink:title=" ">
<polygon fill="white" stroke="#666666" points="373,-217 186,-217 186,-198 373,-198 373,-217"/>
<text text-anchor="middle" x="279.5" y="-205" font-family="Helvetica,sans-Serif" font-size="10.00">cbrc::ArgvParser::logCommandLine</text>
</a>
</g>
</g>
<!-- Node1&#45;&gt;Node5 -->
<g id="edge4_Node000001_Node000005" class="edge">
<title>Node1&#45;&gt;Node5</title>
<g id="a_edge4_Node000001_Node000005"><a xlink:title=" ">
<path fill="none" stroke="#63b8ff" d="M411.22,-181.97C398.62,-184.46 385.37,-187.07 373,-189.5 359.03,-192.24 343.88,-195.2 329.95,-197.91"/>
<polygon fill="#63b8ff" stroke="#63b8ff" points="412.02,-185.38 421.15,-180 410.66,-178.51 412.02,-185.38"/>
</a>
</g>
</g>
<!-- Node6 -->
<g id="Node000006" class="node">
<title>Node6</title>
<g id="a_Node000006"><a xlink:href="classcbrc_1_1ArgvParser.html#acf788f4d3e55c136238cfe8cc4fdaabe" target="_top" xlink:title=" ">
<polygon fill="white" stroke="#666666" points="354.5,-180 204.5,-180 204.5,-161 354.5,-161 354.5,-180"/>
<text text-anchor="middle" x="279.5" y="-168" font-family="Helvetica,sans-Serif" font-size="10.00">cbrc::ArgvParser::operator[]</text>
</a>
</g>
</g>
<!-- Node1&#45;&gt;Node6 -->
<g id="edge5_Node000001_Node000006" class="edge">
<title>Node1&#45;&gt;Node6</title>
<g id="a_edge5_Node000001_Node000006"><a xlink:title=" ">
<path fill="none" stroke="#63b8ff" d="M398.56,-170.5C384.22,-170.5 369.09,-170.5 354.63,-170.5"/>
<polygon fill="#63b8ff" stroke="#63b8ff" points="398.84,-174 408.84,-170.5 398.84,-167 398.84,-174"/>
</a>
</g>
</g>
<!-- Node7 -->
<g id="Node000007" class="node">
<title>Node7</title>
<g id="a_Node000007"><a xlink:href="classcbrc_1_1ArgvParser.html#ade70c644ab6bb5f3e8703a11b03f0dee" target="_top" xlink:title=" ">
<polygon fill="white" stroke="#666666" points="340.5,-143 218.5,-143 218.5,-124 340.5,-124 340.5,-143"/>
<text text-anchor="middle" x="279.5" y="-131" font-family="Helvetica,sans-Serif" font-size="10.00">cbrc::ArgvParser::shift</text>
</a>
</g>
</g>
<!-- Node1&#45;&gt;Node7 -->
<g id="edge6_Node000001_Node000007" class="edge">
<title>Node1&#45;&gt;Node7</title>
<g id="a_edge6_Node000001_Node000007"><a xlink:title=" ">
<path fill="none" stroke="#63b8ff" d="M410.33,-158.98C384.28,-153.87 353.98,-147.92 329.21,-143.06"/>
<polygon fill="#63b8ff" stroke="#63b8ff" points="409.97,-162.48 420.46,-160.97 411.32,-155.61 409.97,-162.48"/>
</a>
</g>
</g>
<!-- Node9 -->
<g id="Node000009" class="node">
<title>Node9</title>
<g id="a_Node000009"><a xlink:href="classcbrc_1_1ArgvParser.html#ac08868804310747143776022ecde994b" target="_top" xlink:title=" ">
<polygon fill="white" stroke="#666666" points="150,-105 0,-105 0,-86 150,-86 150,-105"/>
<text text-anchor="middle" x="75" y="-93" font-family="Helvetica,sans-Serif" font-size="10.00">cbrc::ArgvParser::shiftOrDie</text>
</a>
</g>
</g>
<!-- Node1&#45;&gt;Node9 -->
<g id="edge10_Node000001_Node000009" class="edge">
<title>Node1&#45;&gt;Node9</title>
<g id="a_edge10_Node000001_Node000009"><a xlink:title=" ">
<path fill="none" stroke="#63b8ff" d="M448.59,-154.77C430,-141.42 401.23,-123.11 373,-114.5 299.61,-92.12 211.43,-89.31 150.31,-90.9"/>
<polygon fill="#63b8ff" stroke="#63b8ff" points="446.72,-157.74 456.84,-160.86 450.87,-152.11 446.72,-157.74"/>
</a>
</g>
</g>
<!-- Node10 -->
<g id="Node000010" class="node">
<title>Node10</title>
<g id="a_Node000010"><a xlink:href="classcbrc_1_1ArgvParser.html#a92e1c621d6658c22d687f506153d8501" target="_top" xlink:title=" ">
<polygon fill="white" stroke="#666666" points="367,-67.5 192,-67.5 192,-37.5 367,-37.5 367,-67.5"/>
<text text-anchor="start" x="200" y="-55.5" font-family="Helvetica,sans-Serif" font-size="10.00">cbrc::ArgvParser::shiftMandatory</text>
<text text-anchor="middle" x="279.5" y="-44.5" font-family="Helvetica,sans-Serif" font-size="10.00">UsedOk</text>
</a>
</g>
</g>
<!-- Node1&#45;&gt;Node10 -->
<g id="edge9_Node000001_Node000010" class="edge">
<title>Node1&#45;&gt;Node10</title>
<g id="a_edge9_Node000001_Node000010"><a xlink:title=" ">
<path fill="none" stroke="#63b8ff" d="M454.75,-153.28C437.37,-133.34 406.2,-100.76 373,-81.5 363.39,-75.93 352.59,-71.3 341.85,-67.5"/>
<polygon fill="#63b8ff" stroke="#63b8ff" points="452.16,-155.65 461.31,-160.98 457.49,-151.1 452.16,-155.65"/>
</a>
</g>
</g>
<!-- Node11 -->
<g id="Node000011" class="node">
<title>Node11</title>
<g id="a_Node000011"><a xlink:href="classcbrc_1_1ArgvParser.html#a66f0791371e9154eadbee3ff42bf4711" target="_top" xlink:title=" ">
<polygon fill="white" stroke="#666666" points="360,-19 199,-19 199,0 360,0 360,-19"/>
<text text-anchor="middle" x="279.5" y="-7" font-family="Helvetica,sans-Serif" font-size="10.00">cbrc::ArgvParser::shiftUsedOk</text>
</a>
</g>
</g>
<!-- Node1&#45;&gt;Node11 -->
<g id="edge11_Node000001_Node000011" class="edge">
<title>Node1&#45;&gt;Node11</title>
<g id="a_edge11_Node000001_Node000011"><a xlink:title=" ">
<path fill="none" stroke="#63b8ff" d="M461.71,-151.34C448.83,-120.27 419,-59.27 373,-28.5 367.28,-24.67 360.94,-21.59 354.35,-19.11"/>
<polygon fill="#63b8ff" stroke="#63b8ff" points="458.46,-152.66 465.42,-160.65 464.96,-150.06 458.46,-152.66"/>
</a>
</g>
</g>
<!-- Node8 -->
<g id="Node000008" class="node">
<title>Node8</title>
<g id="a_Node000008"><a xlink:href="classcbrc_1_1ArgvParser.html#a75ceb75c4a549f8be75d047857daae07" target="_top" xlink:title=" ">
<polygon fill="white" stroke="#666666" points="145.5,-153.5 4.5,-153.5 4.5,-123.5 145.5,-123.5 145.5,-153.5"/>
<text text-anchor="start" x="12.5" y="-141.5" font-family="Helvetica,sans-Serif" font-size="10.00">cbrc::ArgvParser::setFrom</text>
<text text-anchor="middle" x="75" y="-130.5" font-family="Helvetica,sans-Serif" font-size="10.00">NextUnused</text>
</a>
</g>
</g>
<!-- Node7&#45;&gt;Node8 -->
<g id="edge7_Node000007_Node000008" class="edge">
<title>Node7&#45;&gt;Node8</title>
<g id="a_edge7_Node000007_Node000008"><a xlink:title=" ">
<path fill="none" stroke="#63b8ff" d="M208.19,-135.24C187.92,-135.74 165.82,-136.28 145.59,-136.78"/>
<polygon fill="#63b8ff" stroke="#63b8ff" points="208.38,-138.73 218.29,-134.99 208.21,-131.73 208.38,-138.73"/>
</a>
</g>
</g>
<!-- Node7&#45;&gt;Node9 -->
<g id="edge8_Node000007_Node000009" class="edge">
<title>Node7&#45;&gt;Node9</title>
<g id="a_edge8_Node000007_Node000009"><a xlink:title=" ">
<path fill="none" stroke="#63b8ff" d="M217.65,-122.08C188.68,-116.64 154.42,-110.22 126.86,-105.04"/>
<polygon fill="#63b8ff" stroke="#63b8ff" points="217.19,-125.56 227.66,-123.96 218.48,-118.68 217.19,-125.56"/>
</a>
</g>
</g>
</g>
</svg>

<g id="navigator" transform="translate(0 0)" fill="#404254">
  <rect fill="#f2f5e9" fill-opacity="0.5" stroke="#606060" stroke-width=".5" x="0" y="0" width="60" height="60"/>
  <use id="zoomplus" xlink:href="#zoomPlus" x="17" y="9" onmousedown="handleZoom(evt,'in')"/>
  <use id="zoomminus" xlink:href="#zoomMin" x="42" y="9" onmousedown="handleZoom(evt,'out')"/>
  <use id="reset" xlink:href="#resetDef" x="30" y="36" onmousedown="handleReset()"/>
   <use id="arrowup" xlink:href="#arrowUp" x="0" y="0" onmousedown="handlePan(0,-1)"/>
  <use id="arrowright" xlink:href="#arrowRight" x="0" y="0" onmousedown="handlePan(1,0)"/>
  <use id="arrowdown" xlink:href="#arrowDown" x="0" y="0" onmousedown="handlePan(0,1)"/>
  <use id="arrowleft" xlink:href="#arrowLeft" x="0" y="0" onmousedown="handlePan(-1,0)"/>
</g>
<svg viewBox="0 0 15 15" width="100%" height="30px" preserveAspectRatio="xMaxYMin meet">
 <g id="arrow_out" transform="scale(0.3 0.3)">
  <a xlink:href="classcbrc_1_1ArgvParser_ac1c953b6a160442d0c3e711a68561a28_icgraph_org.svg" target="_base">
   <rect id="button" ry="5" rx="5" y="6" x="6" height="38" width="38"
        fill="#f2f5e9" fill-opacity="0.5" stroke="#606060" stroke-width="1.0"/>
   <path id="arrow"
     d="M 11.500037,31.436501 C 11.940474,20.09759 22.043105,11.32322 32.158766,21.979434 L 37.068811,17.246167 C 37.068811,17.246167 37.088388,32 37.088388,32 L 22.160133,31.978069 C 22.160133,31.978069 26.997745,27.140456 26.997745,27.140456 C 18.528582,18.264221 13.291696,25.230495 11.500037,31.436501 z"
     style="fill:#404040;"/>
  </a>
 </g>
</svg>

<style type='text/css'>
<![CDATA[
[data-mouse-over-selected='false'] { opacity: 0.7; }
[data-mouse-over-selected='true']  { opacity: 1.0; }
]]>
</style>
<script type="application/ecmascript"><![CDATA[
document.addEventListener('DOMContentLoaded', (event) => {
  highlightEdges();
  highlightAdjacentNodes();
});
]]></script>
</svg>
