<?xml version="1.0" encoding="UTF-8" standalone="no"?>
<!DOCTYPE svg PUBLIC "-//W3C//DTD SVG 1.1//EN"
 "http://www.w3.org/Graphics/SVG/1.1/DTD/svg11.dtd">
<!-- Generated by graphviz version 2.43.0 (0)
 -->
<!-- Title: cbrc::Alignment::size Pages: 1 -->
<svg width="545pt" height="258pt"
 viewBox="0.00 0.00 545.00 257.50" xmlns="http://www.w3.org/2000/svg" xmlns:xlink="http://www.w3.org/1999/xlink">
<g id="graph0" class="graph" transform="scale(1 1) rotate(0) translate(4 253.5)">
<title>cbrc::Alignment::size</title>
<!-- Node1 -->
<g id="Node000001" class="node">
<title>Node1</title>
<g id="a_Node000001"><a xlink:title=" ">
<polygon fill="#999999" stroke="#666666" points="537,-134 418,-134 418,-115 537,-115 537,-134"/>
<text text-anchor="middle" x="477.5" y="-122" font-family="Helvetica,sans-Serif" font-size="10.00">cbrc::Alignment::size</text>
</a>
</g>
</g>
<!-- Node2 -->
<g id="Node000002" class="node">
<title>Node2</title>
<g id="a_Node000002"><a xlink:href="classcbrc_1_1Alignment.html#aa00bbf9d77404371db4a13a7ef976e4f" target="_top" xlink:title=" ">
<polygon fill="white" stroke="#666666" points="382,-249.5 219,-249.5 219,-219.5 382,-219.5 382,-249.5"/>
<text text-anchor="start" x="227" y="-237.5" font-family="Helvetica,sans-Serif" font-size="10.00">cbrc::Alignment::assertStrings</text>
<text text-anchor="middle" x="300.5" y="-226.5" font-family="Helvetica,sans-Serif" font-size="10.00">Valid</text>
</a>
</g>
</g>
<!-- Node1&#45;&gt;Node2 -->
<g id="edge1_Node000001_Node000002" class="edge">
<title>Node1&#45;&gt;Node2</title>
<g id="a_edge1_Node000001_Node000002"><a xlink:title=" ">
<path fill="none" stroke="#63b8ff" d="M461.95,-141.76C444.74,-161.14 414.31,-192.26 382,-210.5 376.03,-213.87 369.54,-216.81 362.92,-219.37"/>
<polygon fill="#63b8ff" stroke="#63b8ff" points="464.77,-143.85 468.69,-134.01 459.49,-139.26 464.77,-143.85"/>
</a>
</g>
</g>
<!-- Node3 -->
<g id="Node000003" class="node">
<title>Node3</title>
<g id="a_Node000003"><a xlink:href="classcbrc_1_1Alignment.html#a397e075c10b42dc6f9511ae933b90a14" target="_top" xlink:title=" ">
<polygon fill="white" stroke="#666666" points="378,-201 223,-201 223,-182 378,-182 378,-201"/>
<text text-anchor="middle" x="300.5" y="-189" font-family="Helvetica,sans-Serif" font-size="10.00">cbrc::Alignment::outputHtml</text>
</a>
</g>
</g>
<!-- Node1&#45;&gt;Node3 -->
<g id="edge2_Node000001_Node000003" class="edge">
<title>Node1&#45;&gt;Node3</title>
<g id="a_edge2_Node000001_Node000003"><a xlink:title=" ">
<path fill="none" stroke="#63b8ff" d="M451.91,-139.04C433.25,-149.56 406.69,-163.46 382,-172.5 371.89,-176.2 360.79,-179.37 350.15,-181.99"/>
<polygon fill="#63b8ff" stroke="#63b8ff" points="453.7,-142.05 460.64,-134.04 450.22,-135.98 453.7,-142.05"/>
</a>
</g>
</g>
<!-- Node4 -->
<g id="Node000004" class="node">
<title>Node4</title>
<g id="a_Node000004"><a xlink:href="classcbrc_1_1Alignment.html#a8a02d77813c9c9ded5550b235bb15fe3" target="_top" xlink:title=" ">
<polygon fill="white" stroke="#666666" points="378,-163.5 223,-163.5 223,-133.5 378,-133.5 378,-163.5"/>
<text text-anchor="start" x="231" y="-151.5" font-family="Helvetica,sans-Serif" font-size="10.00">cbrc::Alignment::outputHtml</text>
<text text-anchor="middle" x="300.5" y="-140.5" font-family="Helvetica,sans-Serif" font-size="10.00">MarkSame</text>
</a>
</g>
</g>
<!-- Node1&#45;&gt;Node4 -->
<g id="edge3_Node000001_Node000004" class="edge">
<title>Node1&#45;&gt;Node4</title>
<g id="a_edge3_Node000001_Node000004"><a xlink:title=" ">
<path fill="none" stroke="#63b8ff" d="M407.75,-133.93C398.03,-135.26 387.99,-136.64 378.13,-137.99"/>
<polygon fill="#63b8ff" stroke="#63b8ff" points="408.31,-137.38 417.74,-132.56 407.36,-130.45 408.31,-137.38"/>
</a>
</g>
</g>
<!-- Node6 -->
<g id="Node000006" class="node">
<title>Node6</title>
<g id="a_Node000006"><a xlink:href="classcbrc_1_1Alignment.html#a0a90df2f6b0988867cfdbb349bd04005" target="_top" xlink:title=" ">
<polygon fill="white" stroke="#666666" points="376,-115.5 225,-115.5 225,-85.5 376,-85.5 376,-115.5"/>
<text text-anchor="start" x="233" y="-103.5" font-family="Helvetica,sans-Serif" font-size="10.00">cbrc::Alignment::outputText</text>
<text text-anchor="middle" x="300.5" y="-92.5" font-family="Helvetica,sans-Serif" font-size="10.00">MarkSame</text>
</a>
</g>
</g>
<!-- Node1&#45;&gt;Node6 -->
<g id="edge5_Node000001_Node000006" class="edge">
<title>Node1&#45;&gt;Node6</title>
<g id="a_edge5_Node000001_Node000006"><a xlink:title=" ">
<path fill="none" stroke="#63b8ff" d="M407.6,-115.05C397.31,-113.64 386.67,-112.18 376.27,-110.75"/>
<polygon fill="#63b8ff" stroke="#63b8ff" points="407.36,-118.55 417.74,-116.44 408.31,-111.62 407.36,-118.55"/>
</a>
</g>
</g>
<!-- Node7 -->
<g id="Node000007" class="node">
<title>Node7</title>
<g id="a_Node000007"><a xlink:href="classcbrc_1_1Alignment.html#aae1ce7b90a2d46bf5ae39943f9a89fff" target="_top" xlink:title=" ">
<polygon fill="white" stroke="#666666" points="368.5,-67.5 232.5,-67.5 232.5,-37.5 368.5,-37.5 368.5,-67.5"/>
<text text-anchor="start" x="240.5" y="-55.5" font-family="Helvetica,sans-Serif" font-size="10.00">cbrc::Alignment::percent</text>
<text text-anchor="middle" x="300.5" y="-44.5" font-family="Helvetica,sans-Serif" font-size="10.00">Identity</text>
</a>
</g>
</g>
<!-- Node1&#45;&gt;Node7 -->
<g id="edge7_Node000001_Node000007" class="edge">
<title>Node1&#45;&gt;Node7</title>
<g id="a_edge7_Node000001_Node000007"><a xlink:title=" ">
<path fill="none" stroke="#63b8ff" d="M451.07,-110C432.37,-99.73 406.12,-86.13 382,-76.5 374.01,-73.31 365.43,-70.31 356.95,-67.6"/>
<polygon fill="#63b8ff" stroke="#63b8ff" points="449.41,-113.08 459.86,-114.88 452.82,-106.97 449.41,-113.08"/>
</a>
</g>
</g>
<!-- Node8 -->
<g id="Node000008" class="node">
<title>Node8</title>
<g id="a_Node000008"><a xlink:href="classcbrc_1_1Alignment.html#ac5d04056ff6fbdbe65360b1cab8cf4f1" target="_top" xlink:title=" ">
<polygon fill="white" stroke="#666666" points="363,-19 238,-19 238,0 363,0 363,-19"/>
<text text-anchor="middle" x="300.5" y="-7" font-family="Helvetica,sans-Serif" font-size="10.00">cbrc::Alignment::score</text>
</a>
</g>
</g>
<!-- Node1&#45;&gt;Node8 -->
<g id="edge8_Node000001_Node000008" class="edge">
<title>Node1&#45;&gt;Node8</title>
<g id="a_edge8_Node000001_Node000008"><a xlink:title=" ">
<path fill="none" stroke="#63b8ff" d="M464.05,-106.75C447.76,-84.89 417.11,-48.26 382,-28.5 375.12,-24.63 367.48,-21.54 359.72,-19.08"/>
<polygon fill="#63b8ff" stroke="#63b8ff" points="461.23,-108.82 469.94,-114.86 466.9,-104.71 461.23,-108.82"/>
</a>
</g>
</g>
<!-- Node5 -->
<g id="Node000005" class="node">
<title>Node5</title>
<g id="a_Node000005"><a xlink:href="classcbrc_1_1Alignment.html#a194a680df661b5d98f8d7fea3d84289a" target="_top" xlink:title=" ">
<polygon fill="white" stroke="#666666" points="183,-134 0,-134 0,-115 183,-115 183,-134"/>
<text text-anchor="middle" x="91.5" y="-122" font-family="Helvetica,sans-Serif" font-size="10.00">cbrc::Alignment::outputMarkSame</text>
</a>
</g>
</g>
<!-- Node4&#45;&gt;Node5 -->
<g id="edge4_Node000004_Node000005" class="edge">
<title>Node4&#45;&gt;Node5</title>
<g id="a_edge4_Node000004_Node000005"><a xlink:title=" ">
<path fill="none" stroke="#63b8ff" d="M212.71,-138.44C200.13,-136.98 187.21,-135.48 174.72,-134.03"/>
<polygon fill="#63b8ff" stroke="#63b8ff" points="212.38,-141.92 222.72,-139.6 213.18,-134.97 212.38,-141.92"/>
</a>
</g>
</g>
<!-- Node6&#45;&gt;Node5 -->
<g id="edge6_Node000006_Node000005" class="edge">
<title>Node6&#45;&gt;Node5</title>
<g id="a_edge6_Node000006_Node000005"><a xlink:title=" ">
<path fill="none" stroke="#63b8ff" d="M214.7,-110.33C201.42,-111.87 187.7,-113.46 174.48,-115"/>
<polygon fill="#63b8ff" stroke="#63b8ff" points="215.24,-113.79 224.77,-109.16 214.43,-106.84 215.24,-113.79"/>
</a>
</g>
</g>
</g>
</svg>
