<?xml version="1.0" encoding="UTF-8" standalone="no"?>
<!DOCTYPE svg PUBLIC "-//W3C//DTD SVG 1.1//EN"
 "http://www.w3.org/Graphics/SVG/1.1/DTD/svg11.dtd">
<!-- Generated by graphviz version 2.43.0 (0)
 -->
<!-- Title: cbrc::FLENumMatrix&lt; T &gt; Pages: 1 -->
<svg width="795pt" height="148pt"
 viewBox="0.00 0.00 795.00 148.00" xmlns="http://www.w3.org/2000/svg" xmlns:xlink="http://www.w3.org/1999/xlink">
<g id="graph0" class="graph" transform="scale(1 1) rotate(0) translate(4 144)">
<title>cbrc::FLENumMatrix&lt; T &gt;</title>
<!-- Node1 -->
<g id="Node000001" class="node">
<title>Node1</title>
<g id="a_Node000001"><a xlink:title=" ">
<polygon fill="#999999" stroke="#666666" points="300,-93.5 157,-93.5 157,-74.5 300,-74.5 300,-93.5"/>
<text text-anchor="middle" x="228.5" y="-81.5" font-family="Helvetica,sans-Serif" font-size="10.00">cbrc::FLENumMatrix&lt; T &gt;</text>
</a>
</g>
</g>
<!-- Node3 -->
<g id="Node000003" class="node">
<title>Node3</title>
<g id="a_Node000003"><a xlink:href="classcbrc_1_1FLENumMatrixFast.html" target="_top" xlink:title=" ">
<polygon fill="white" stroke="#666666" points="787,-140 653,-140 653,-110 787,-110 787,-140"/>
<text text-anchor="start" x="661" y="-128" font-family="Helvetica,sans-Serif" font-size="10.00">cbrc::FLENumMatrixFast</text>
<text text-anchor="middle" x="720" y="-117" font-family="Helvetica,sans-Serif" font-size="10.00">&lt; double &gt;</text>
</a>
</g>
</g>
<!-- Node1&#45;&gt;Node3 -->
<g id="edge2_Node000001_Node000003" class="edge">
<title>Node1&#45;&gt;Node3</title>
<g id="a_edge2_Node000001_Node000003"><a xlink:title=" ">
<path fill="none" stroke="#63b8ff" d="M270.76,-96.42C285.59,-100.68 302.48,-105.3 318,-109 455.35,-141.72 493.86,-134.2 635,-130 640.84,-129.83 646.91,-129.58 652.99,-129.3"/>
<polygon fill="#63b8ff" stroke="#63b8ff" points="271.45,-92.98 260.87,-93.55 269.5,-99.7 271.45,-92.98"/>
</a>
</g>
</g>
<!-- Node4 -->
<g id="Node000004" class="node">
<title>Node4</title>
<g id="a_Node000004"><a xlink:href="classcbrc_1_1FLENumMatrixFast.html" target="_top" xlink:title=" ">
<polygon fill="white" stroke="#666666" points="558,-115.5 395,-115.5 395,-96.5 558,-96.5 558,-115.5"/>
<text text-anchor="middle" x="476.5" y="-103.5" font-family="Helvetica,sans-Serif" font-size="10.00">cbrc::FLENumMatrixFast&lt; T &gt;</text>
</a>
</g>
</g>
<!-- Node1&#45;&gt;Node4 -->
<g id="edge3_Node000001_Node000004" class="edge">
<title>Node1&#45;&gt;Node4</title>
<g id="a_edge3_Node000001_Node000004"><a xlink:title=" ">
<path fill="none" stroke="#63b8ff" d="M310.53,-91.25C337.6,-93.67 367.75,-96.36 394.79,-98.78"/>
<polygon fill="#63b8ff" stroke="#63b8ff" points="310.6,-87.74 300.32,-90.33 309.97,-94.71 310.6,-87.74"/>
</a>
</g>
</g>
<!-- Node5 -->
<g id="Node000005" class="node">
<title>Node5</title>
<g id="a_Node000005"><a xlink:href="classcbrc_1_1FLENumMatrix.html" target="_top" xlink:title=" ">
<polygon fill="white" stroke="#666666" points="534,-78 419,-78 419,-48 534,-48 534,-78"/>
<text text-anchor="start" x="427" y="-66" font-family="Helvetica,sans-Serif" font-size="10.00">cbrc::FLENumMatrix</text>
<text text-anchor="middle" x="476.5" y="-55" font-family="Helvetica,sans-Serif" font-size="10.00">&lt; double &gt;</text>
</a>
</g>
</g>
<!-- Node1&#45;&gt;Node5 -->
<g id="edge5_Node000001_Node000005" class="edge">
<title>Node1&#45;&gt;Node5</title>
<g id="a_edge5_Node000001_Node000005"><a xlink:title=" ">
<path fill="none" stroke="orange" stroke-dasharray="5,2" d="M310.41,-73.74C312.97,-73.48 315.5,-73.23 318,-73 351.42,-69.87 388.92,-67.44 418.94,-65.76"/>
<polygon fill="orange" stroke="orange" points="310.04,-70.26 300.47,-74.8 310.78,-77.22 310.04,-70.26"/>
</a>
</g>
<text text-anchor="middle" x="347.5" y="-76" font-family="Helvetica,sans-Serif" font-size="10.00" fill="grey"> &lt; double &gt;</text>
</g>
<!-- Node6 -->
<g id="Node000006" class="node">
<title>Node6</title>
<g id="a_Node000006"><a xlink:href="classcbrc_1_1FLENumMatrix.html" target="_top" xlink:title=" ">
<polygon fill="white" stroke="#666666" points="534,-30 419,-30 419,0 534,0 534,-30"/>
<text text-anchor="start" x="427" y="-18" font-family="Helvetica,sans-Serif" font-size="10.00">cbrc::FLENumMatrix</text>
<text text-anchor="middle" x="476.5" y="-7" font-family="Helvetica,sans-Serif" font-size="10.00">&lt; elemT &gt;</text>
</a>
</g>
</g>
<!-- Node1&#45;&gt;Node6 -->
<g id="edge6_Node000001_Node000006" class="edge">
<title>Node1&#45;&gt;Node6</title>
<g id="a_edge6_Node000001_Node000006"><a xlink:title=" ">
<path fill="none" stroke="orange" stroke-dasharray="5,2" d="M265.18,-71.14C281.23,-65.56 300.46,-59.13 318,-54 351.12,-44.31 388.6,-34.96 418.7,-27.85"/>
<polygon fill="orange" stroke="orange" points="263.92,-67.87 255.65,-74.49 266.24,-74.48 263.92,-67.87"/>
</a>
</g>
<text text-anchor="middle" x="347.5" y="-57" font-family="Helvetica,sans-Serif" font-size="10.00" fill="grey"> &lt; elemT &gt;</text>
</g>
<!-- Node2 -->
<g id="Node000002" class="node">
<title>Node2</title>
<g id="a_Node000002"><a xlink:href="classcbrc_1_1FLEMatrix.html" target="_top" xlink:title=" ">
<polygon fill="white" stroke="#666666" points="120,-93.5 0,-93.5 0,-74.5 120,-74.5 120,-93.5"/>
<text text-anchor="middle" x="60" y="-81.5" font-family="Helvetica,sans-Serif" font-size="10.00">cbrc::FLEMatrix&lt; T &gt;</text>
</a>
</g>
</g>
<!-- Node2&#45;&gt;Node1 -->
<g id="edge1_Node000001_Node000002" class="edge">
<title>Node2&#45;&gt;Node1</title>
<g id="a_edge1_Node000001_Node000002"><a xlink:title=" ">
<path fill="none" stroke="#63b8ff" d="M130.33,-84C139.09,-84 148.06,-84 156.84,-84"/>
<polygon fill="#63b8ff" stroke="#63b8ff" points="130.17,-80.5 120.17,-84 130.17,-87.5 130.17,-80.5"/>
</a>
</g>
</g>
<!-- Node4&#45;&gt;Node3 -->
<g id="edge4_Node000004_Node000003" class="edge">
<title>Node4&#45;&gt;Node3</title>
<g id="a_edge4_Node000004_Node000003"><a xlink:title=" ">
<path fill="none" stroke="orange" stroke-dasharray="5,2" d="M568.46,-113.16C596.47,-115.36 626.77,-117.74 652.79,-119.79"/>
<polygon fill="orange" stroke="orange" points="568.5,-109.65 558.25,-112.35 567.95,-116.63 568.5,-109.65"/>
</a>
</g>
<text text-anchor="middle" x="605.5" y="-122" font-family="Helvetica,sans-Serif" font-size="10.00" fill="grey"> &lt; double &gt;</text>
</g>
</g>
</svg>
