<?xml version="1.0" encoding="UTF-8" standalone="no"?>
<!DOCTYPE svg PUBLIC "-//W3C//DTD SVG 1.1//EN"
 "http://www.w3.org/Graphics/SVG/1.1/DTD/svg11.dtd">
<!-- Generated by graphviz version 2.43.0 (0)
 -->
<!-- Title: cbrc::ArgvParser::yesNoFlag Pages: 1 -->
<svg width="480pt" height="64pt"
 viewBox="0.00 0.00 480.00 64.00" xmlns="http://www.w3.org/2000/svg" xmlns:xlink="http://www.w3.org/1999/xlink">

<svg id="main" version="1.1" xmlns="http://www.w3.org/2000/svg" xmlns:xlink="http://www.w3.org/1999/xlink" xml:space="preserve" onload="init(evt)">
<style type="text/css"><![CDATA[
.node, .edge {opacity: 0.7;}
.node.selected, .edge.selected {opacity: 1;}
.edge:hover path { stroke: red; }
.edge:hover polygon { stroke: red; fill: red; }
]]></style>
<script type="application/ecmascript" xlink:href="svg.min.js"/>
<svg id="graph" class="graph">
<g id="graph0" class="graph" transform="scale(1 1) rotate(0) translate(4 60)">
<title>cbrc::ArgvParser::yesNoFlag</title>
<!-- Node1 -->
<g id="Node000001" class="node">
<title>Node1</title>
<g id="a_Node000001"><a xlink:title=" ">
<polygon fill="#999999" stroke="#666666" points="153,-37 0,-37 0,-18 153,-18 153,-37"/>
<text text-anchor="middle" x="76.5" y="-25" font-family="Helvetica,sans-Serif" font-size="10.00">cbrc::ArgvParser::yesNoFlag</text>
</a>
</g>
</g>
<!-- Node2 -->
<g id="Node000002" class="node">
<title>Node2</title>
<g id="a_Node000002"><a xlink:href="classcbrc_1_1ArgvParser.html#aad8dc9d595217cf4ad2a7f557371d3ab" target="_top" xlink:title=" ">
<polygon fill="white" stroke="#666666" points="305,-37 189,-37 189,-18 305,-18 305,-37"/>
<text text-anchor="middle" x="247" y="-25" font-family="Helvetica,sans-Serif" font-size="10.00">cbrc::ArgvParser::die</text>
</a>
</g>
</g>
<!-- Node1&#45;&gt;Node2 -->
<g id="edge1_Node000001_Node000002" class="edge">
<title>Node1&#45;&gt;Node2</title>
<g id="a_edge1_Node000001_Node000002"><a xlink:title=" ">
<path fill="none" stroke="#63b8ff" d="M153.37,-27.5C161.88,-27.5 170.5,-27.5 178.89,-27.5"/>
<polygon fill="#63b8ff" stroke="#63b8ff" points="178.98,-31 188.98,-27.5 178.98,-24 178.98,-31"/>
</a>
</g>
</g>
<!-- Node3 -->
<g id="Node000003" class="node">
<title>Node3</title>
<g id="a_Node000003"><a xlink:href="classcbrc_1_1FLEArray.html#ad71311380d762114c9e0f3b0dda38b7c" target="_top" xlink:title=" ">
<polygon fill="white" stroke="#666666" points="462,-56 351,-56 351,-37 462,-37 462,-56"/>
<text text-anchor="middle" x="406.5" y="-44" font-family="Helvetica,sans-Serif" font-size="10.00">cbrc::FLEArray::size</text>
</a>
</g>
</g>
<!-- Node2&#45;&gt;Node3 -->
<g id="edge2_Node000002_Node000003" class="edge">
<title>Node2&#45;&gt;Node3</title>
<g id="a_edge2_Node000002_Node000003"><a xlink:title=" ">
<path fill="none" stroke="#63b8ff" d="M305.31,-34.41C316.8,-35.8 328.96,-37.27 340.69,-38.68"/>
<polygon fill="#63b8ff" stroke="#63b8ff" points="340.51,-42.19 350.86,-39.91 341.35,-35.24 340.51,-42.19"/>
</a>
</g>
</g>
<!-- Node4 -->
<g id="Node000004" class="node">
<title>Node4</title>
<g id="a_Node000004"><a xlink:href="classcbrc_1_1ArgvParser.html#a1b7d257748fcfaa9a9a3cf46bc36a7e5" target="_top" xlink:title=" ">
<polygon fill="white" stroke="#666666" points="472,-19 341,-19 341,0 472,0 472,-19"/>
<text text-anchor="middle" x="406.5" y="-7" font-family="Helvetica,sans-Serif" font-size="10.00">cbrc::ArgvParser::usage</text>
</a>
</g>
</g>
<!-- Node2&#45;&gt;Node4 -->
<g id="edge3_Node000002_Node000004" class="edge">
<title>Node2&#45;&gt;Node4</title>
<g id="a_edge3_Node000002_Node000004"><a xlink:title=" ">
<path fill="none" stroke="#63b8ff" d="M305.31,-20.95C313.59,-20 322.21,-19.02 330.77,-18.04"/>
<polygon fill="#63b8ff" stroke="#63b8ff" points="331.23,-21.51 340.77,-16.9 330.44,-14.56 331.23,-21.51"/>
</a>
</g>
</g>
</g>
</svg>
</svg>

<style type='text/css'>
<![CDATA[
[data-mouse-over-selected='false'] { opacity: 0.7; }
[data-mouse-over-selected='true']  { opacity: 1.0; }
]]>
</style>
<script type="application/ecmascript"><![CDATA[
document.addEventListener('DOMContentLoaded', (event) => {
  highlightEdges();
  highlightAdjacentNodes();
});
]]></script>
</svg>
