<?xml version="1.0" encoding="UTF-8" standalone="no"?>
<!DOCTYPE svg PUBLIC "-//W3C//DTD SVG 1.1//EN"
 "http://www.w3.org/Graphics/SVG/1.1/DTD/svg11.dtd">
<!-- Generated by graphviz version 2.43.0 (0)
 -->
<!-- Title: cbrc::ResidueIndexWindow::increment Pages: 1 -->
<svg width="744pt" height="86pt"
 viewBox="0.00 0.00 744.00 86.00" xmlns="http://www.w3.org/2000/svg" xmlns:xlink="http://www.w3.org/1999/xlink">
<g id="graph0" class="graph" transform="scale(1 1) rotate(0) translate(4 82)">
<title>cbrc::ResidueIndexWindow::increment</title>
<!-- Node1 -->
<g id="Node000001" class="node">
<title>Node1</title>
<g id="a_Node000001"><a xlink:title=" ">
<polygon fill="#999999" stroke="#666666" points="148,-54 0,-54 0,-24 148,-24 148,-54"/>
<text text-anchor="start" x="8" y="-42" font-family="Helvetica,sans-Serif" font-size="10.00">cbrc::ResidueIndexWindow</text>
<text text-anchor="middle" x="74" y="-31" font-family="Helvetica,sans-Serif" font-size="10.00">::increment</text>
</a>
</g>
</g>
<!-- Node2 -->
<g id="Node000002" class="node">
<title>Node2</title>
<g id="a_Node000002"><a xlink:href="classcbrc_1_1ResidueIndexWindow.html#a270fb96012b5ae1b902d097427799c29" target="_top" xlink:title=" ">
<polygon fill="white" stroke="#666666" points="332,-78 184,-78 184,-48 332,-48 332,-78"/>
<text text-anchor="start" x="192" y="-66" font-family="Helvetica,sans-Serif" font-size="10.00">cbrc::ResidueIndexWindow</text>
<text text-anchor="middle" x="258" y="-55" font-family="Helvetica,sans-Serif" font-size="10.00">::seqSize</text>
</a>
</g>
</g>
<!-- Node1&#45;&gt;Node2 -->
<g id="edge1_Node000001_Node000002" class="edge">
<title>Node1&#45;&gt;Node2</title>
<g id="a_edge1_Node000001_Node000002"><a xlink:title=" ">
<path fill="none" stroke="#63b8ff" d="M148.24,-48.66C156.69,-49.77 165.35,-50.91 173.92,-52.04"/>
<polygon fill="#63b8ff" stroke="#63b8ff" points="173.54,-55.52 183.91,-53.36 174.45,-48.58 173.54,-55.52"/>
</a>
</g>
</g>
<!-- Node5 -->
<g id="Node000005" class="node">
<title>Node5</title>
<g id="a_Node000005"><a xlink:href="classcbrc_1_1ResidueIndexWindow.html#a7af959c2edd1f1df43e4258fc99ebc6b" target="_top" xlink:title=" ">
<polygon fill="white" stroke="#666666" points="332,-30 184,-30 184,0 332,0 332,-30"/>
<text text-anchor="start" x="192" y="-18" font-family="Helvetica,sans-Serif" font-size="10.00">cbrc::ResidueIndexWindow</text>
<text text-anchor="middle" x="258" y="-7" font-family="Helvetica,sans-Serif" font-size="10.00">::windowEndIdx</text>
</a>
</g>
</g>
<!-- Node1&#45;&gt;Node5 -->
<g id="edge4_Node000001_Node000005" class="edge">
<title>Node1&#45;&gt;Node5</title>
<g id="a_edge4_Node000001_Node000005"><a xlink:title=" ">
<path fill="none" stroke="#63b8ff" d="M148.24,-29.34C156.69,-28.23 165.35,-27.09 173.92,-25.96"/>
<polygon fill="#63b8ff" stroke="#63b8ff" points="174.45,-29.42 183.91,-24.64 173.54,-22.48 174.45,-29.42"/>
</a>
</g>
</g>
<!-- Node3 -->
<g id="Node000003" class="node">
<title>Node3</title>
<g id="a_Node000003"><a xlink:href="classcbrc_1_1ResidueIndexWindow.html#a1110cf175ab6a733b8b2ce21dc67ce40" target="_top" xlink:title=" ">
<polygon fill="white" stroke="#666666" points="516,-78 368,-78 368,-48 516,-48 516,-78"/>
<text text-anchor="start" x="376" y="-66" font-family="Helvetica,sans-Serif" font-size="10.00">cbrc::ResidueIndexWindow</text>
<text text-anchor="middle" x="442" y="-55" font-family="Helvetica,sans-Serif" font-size="10.00">::seqEndIdx</text>
</a>
</g>
</g>
<!-- Node2&#45;&gt;Node3 -->
<g id="edge2_Node000002_Node000003" class="edge">
<title>Node2&#45;&gt;Node3</title>
<g id="a_edge2_Node000002_Node000003"><a xlink:title=" ">
<path fill="none" stroke="#63b8ff" d="M332.24,-63C340.6,-63 349.16,-63 357.64,-63"/>
<polygon fill="#63b8ff" stroke="#63b8ff" points="357.91,-66.5 367.91,-63 357.91,-59.5 357.91,-66.5"/>
</a>
</g>
</g>
<!-- Node4 -->
<g id="Node000004" class="node">
<title>Node4</title>
<g id="a_Node000004"><a xlink:href="classcbrc_1_1ConstResidueIndexSequenceBoundaries.html#a43409c65bd354ce1efd45d24f5632733" target="_top" xlink:title=" ">
<polygon fill="white" stroke="#666666" points="736,-78 552,-78 552,-48 736,-48 736,-78"/>
<text text-anchor="start" x="560" y="-66" font-family="Helvetica,sans-Serif" font-size="10.00">cbrc::ConstResidueIndexSequence</text>
<text text-anchor="middle" x="644" y="-55" font-family="Helvetica,sans-Serif" font-size="10.00">Boundaries::size</text>
</a>
</g>
</g>
<!-- Node3&#45;&gt;Node4 -->
<g id="edge3_Node000003_Node000004" class="edge">
<title>Node3&#45;&gt;Node4</title>
<g id="a_edge3_Node000003_Node000004"><a xlink:title=" ">
<path fill="none" stroke="#63b8ff" d="M516.05,-63C524.39,-63 533.01,-63 541.63,-63"/>
<polygon fill="#63b8ff" stroke="#63b8ff" points="541.75,-66.5 551.75,-63 541.75,-59.5 541.75,-66.5"/>
</a>
</g>
</g>
</g>
</svg>
