<?xml version="1.0" encoding="UTF-8" standalone="no"?>
<!DOCTYPE svg PUBLIC "-//W3C//DTD SVG 1.1//EN"
 "http://www.w3.org/Graphics/SVG/1.1/DTD/svg11.dtd">
<!-- Generated by graphviz version 2.43.0 (0)
 -->
<!-- Title: cbrc::GlobalAffineIdentityAligner::bestPossibleSuffixScore Pages: 1 -->
<svg width="352pt" height="82pt"
 viewBox="0.00 0.00 352.00 82.00" xmlns="http://www.w3.org/2000/svg" xmlns:xlink="http://www.w3.org/1999/xlink">
<g id="graph0" class="graph" transform="scale(1 1) rotate(0) translate(4 78)">
<title>cbrc::GlobalAffineIdentityAligner::bestPossibleSuffixScore</title>
<!-- Node1 -->
<g id="Node000001" class="node">
<title>Node1</title>
<g id="a_Node000001"><a xlink:title=" ">
<polygon fill="#999999" stroke="#666666" points="173,-42.5 0,-42.5 0,-12.5 173,-12.5 173,-42.5"/>
<text text-anchor="start" x="8" y="-30.5" font-family="Helvetica,sans-Serif" font-size="10.00">cbrc::GlobalAffineIdentity</text>
<text text-anchor="middle" x="86.5" y="-19.5" font-family="Helvetica,sans-Serif" font-size="10.00">Aligner::bestPossibleSuffixScore</text>
</a>
</g>
</g>
<!-- Node2 -->
<g id="Node000002" class="node">
<title>Node2</title>
<g id="a_Node000002"><a xlink:href="classcbrc_1_1FLEArray.html#a5368c7c0434bd5c119d2cbb39f4b399e" target="_top" xlink:title=" ">
<polygon fill="white" stroke="#666666" points="344,-56 209,-56 209,-37 344,-37 344,-56"/>
<text text-anchor="middle" x="276.5" y="-44" font-family="Helvetica,sans-Serif" font-size="10.00">cbrc::FLEArray::FLEArray</text>
</a>
</g>
</g>
<!-- Node1&#45;&gt;Node2 -->
<g id="edge1_Node000001_Node000002" class="edge">
<title>Node1&#45;&gt;Node2</title>
<g id="a_edge1_Node000001_Node000002"><a xlink:title=" ">
<path fill="none" stroke="#63b8ff" d="M173.25,-36.17C181.72,-37.02 190.27,-37.89 198.65,-38.73"/>
<polygon fill="#63b8ff" stroke="#63b8ff" points="198.44,-42.23 208.74,-39.75 199.15,-35.27 198.44,-42.23"/>
</a>
</g>
</g>
<!-- Node3 -->
<g id="Node000003" class="node">
<title>Node3</title>
<g id="a_Node000003"><a xlink:href="classcbrc_1_1FLEArray.html#ad71311380d762114c9e0f3b0dda38b7c" target="_top" xlink:title=" ">
<polygon fill="white" stroke="#666666" points="332,-19 221,-19 221,0 332,0 332,-19"/>
<text text-anchor="middle" x="276.5" y="-7" font-family="Helvetica,sans-Serif" font-size="10.00">cbrc::FLEArray::size</text>
</a>
</g>
</g>
<!-- Node1&#45;&gt;Node3 -->
<g id="edge3_Node000001_Node000003" class="edge">
<title>Node1&#45;&gt;Node3</title>
<g id="a_edge3_Node000001_Node000003"><a xlink:title=" ">
<path fill="none" stroke="#63b8ff" d="M173.25,-19.29C185.88,-18.08 198.72,-16.85 210.83,-15.69"/>
<polygon fill="#63b8ff" stroke="#63b8ff" points="211.19,-19.17 220.82,-14.74 210.53,-12.2 211.19,-19.17"/>
</a>
</g>
</g>
<!-- Node2&#45;&gt;Node2 -->
<g id="edge2_Node000002_Node000002" class="edge">
<title>Node2&#45;&gt;Node2</title>
<g id="a_edge2_Node000002_Node000002"><a xlink:title=" ">
<path fill="none" stroke="#63b8ff" d="M247.22,-56.08C232.97,-64.73 242.73,-74 276.5,-74 299.72,-74 311.59,-69.62 312.11,-64.07"/>
<polygon fill="#63b8ff" stroke="#63b8ff" points="314.73,-61.75 305.78,-56.08 309.25,-66.1 314.73,-61.75"/>
</a>
</g>
</g>
</g>
</svg>
