<?xml version="1.0" encoding="UTF-8" standalone="no"?>
<!DOCTYPE svg PUBLIC "-//W3C//DTD SVG 1.1//EN"
 "http://www.w3.org/Graphics/SVG/1.1/DTD/svg11.dtd">
<!-- Generated by graphviz version 2.43.0 (0)
 -->
<!-- Title: cbrc::FLEArray::replace Pages: 1 -->
<svg width="640pt" height="105pt"
 viewBox="0.00 0.00 640.00 104.50" xmlns="http://www.w3.org/2000/svg" xmlns:xlink="http://www.w3.org/1999/xlink">
<g id="graph0" class="graph" transform="scale(1 1) rotate(0) translate(4 100.5)">
<title>cbrc::FLEArray::replace</title>
<!-- Node1 -->
<g id="Node000001" class="node">
<title>Node1</title>
<g id="a_Node000001"><a xlink:title=" ">
<polygon fill="#999999" stroke="#666666" points="632,-51.5 504,-51.5 504,-32.5 632,-32.5 632,-51.5"/>
<text text-anchor="middle" x="568" y="-39.5" font-family="Helvetica,sans-Serif" font-size="10.00">cbrc::FLEArray::replace</text>
</a>
</g>
</g>
<!-- Node2 -->
<g id="Node000002" class="node">
<title>Node2</title>
<g id="a_Node000002"><a xlink:href="namespacecbrc_1_1perlish.html#a7e94fcd7f334892a848acb01d4780d5f" target="_top" xlink:title=" ">
<polygon fill="white" stroke="#666666" points="468,-89.5 283,-89.5 283,-48.5 468,-48.5 468,-89.5"/>
<text text-anchor="start" x="291" y="-77.5" font-family="Helvetica,sans-Serif" font-size="10.00">cbrc::perlish::_split</text>
<text text-anchor="start" x="291" y="-66.5" font-family="Helvetica,sans-Serif" font-size="10.00">_surroundingSquareBracketsFound</text>
<text text-anchor="middle" x="375.5" y="-55.5" font-family="Helvetica,sans-Serif" font-size="10.00">AndRemoved</text>
</a>
</g>
</g>
<!-- Node1&#45;&gt;Node2 -->
<g id="edge1_Node000001_Node000002" class="edge">
<title>Node1&#45;&gt;Node2</title>
<g id="a_edge1_Node000001_Node000002"><a xlink:title=" ">
<path fill="none" stroke="#63b8ff" d="M493.72,-52.39C485.31,-53.58 476.67,-54.8 468.06,-56.02"/>
<polygon fill="#63b8ff" stroke="#63b8ff" points="494.42,-55.82 503.83,-50.95 493.44,-48.89 494.42,-55.82"/>
</a>
</g>
</g>
<!-- Node6 -->
<g id="Node000006" class="node">
<title>Node6</title>
<g id="a_Node000006"><a xlink:href="namespacecbrc_1_1stringUtils.html#ac32e3e3f36b890e6f2b227d097393bd5" target="_top" xlink:title=" ">
<polygon fill="white" stroke="#666666" points="425,-30 326,-30 326,0 425,0 425,-30"/>
<text text-anchor="start" x="334" y="-18" font-family="Helvetica,sans-Serif" font-size="10.00">cbrc::stringUtils::</text>
<text text-anchor="middle" x="375.5" y="-7" font-family="Helvetica,sans-Serif" font-size="10.00">stringReplaceAll</text>
</a>
</g>
</g>
<!-- Node1&#45;&gt;Node6 -->
<g id="edge5_Node000001_Node000006" class="edge">
<title>Node1&#45;&gt;Node6</title>
<g id="a_edge5_Node000001_Node000006"><a xlink:title=" ">
<path fill="none" stroke="#63b8ff" d="M493.75,-31.62C470.72,-28.35 445.89,-24.83 425.03,-21.88"/>
<polygon fill="#63b8ff" stroke="#63b8ff" points="493.44,-35.11 503.83,-33.05 494.42,-28.18 493.44,-35.11"/>
</a>
</g>
</g>
<!-- Node3 -->
<g id="Node000003" class="node">
<title>Node3</title>
<g id="a_Node000003"><a xlink:href="namespacecbrc_1_1perlish.html#a16301d22b0d0ce6e7de8ca433e7a26d4" target="_top" xlink:title=" ">
<polygon fill="white" stroke="#666666" points="247,-96.5 139,-96.5 139,-77.5 247,-77.5 247,-96.5"/>
<text text-anchor="middle" x="193" y="-84.5" font-family="Helvetica,sans-Serif" font-size="10.00">cbrc::perlish::_split</text>
</a>
</g>
</g>
<!-- Node2&#45;&gt;Node3 -->
<g id="edge2_Node000002_Node000003" class="edge">
<title>Node2&#45;&gt;Node3</title>
<g id="a_edge2_Node000002_Node000003"><a xlink:title=" ">
<path fill="none" stroke="#63b8ff" d="M272.93,-79.13C264.12,-80.01 255.45,-80.87 247.27,-81.69"/>
<polygon fill="#63b8ff" stroke="#63b8ff" points="273.32,-82.61 282.93,-78.13 272.63,-75.64 273.32,-82.61"/>
</a>
</g>
</g>
<!-- Node5 -->
<g id="Node000005" class="node">
<title>Node5</title>
<g id="a_Node000005"><a xlink:href="namespacecbrc_1_1perlish.html#aa8224a10fd2772dc264f5fc4664624c3" target="_top" xlink:title=" ">
<polygon fill="white" stroke="#666666" points="244.5,-59.5 141.5,-59.5 141.5,-40.5 244.5,-40.5 244.5,-59.5"/>
<text text-anchor="middle" x="193" y="-47.5" font-family="Helvetica,sans-Serif" font-size="10.00">cbrc::perlish::split</text>
</a>
</g>
</g>
<!-- Node2&#45;&gt;Node5 -->
<g id="edge4_Node000002_Node000005" class="edge">
<title>Node2&#45;&gt;Node5</title>
<g id="a_edge4_Node000002_Node000005"><a xlink:title=" ">
<path fill="none" stroke="#63b8ff" d="M272.83,-58.3C263.18,-57.28 253.71,-56.29 244.87,-55.35"/>
<polygon fill="#63b8ff" stroke="#63b8ff" points="272.62,-61.79 282.93,-59.36 273.35,-54.83 272.62,-61.79"/>
</a>
</g>
</g>
<!-- Node4 -->
<g id="Node000004" class="node">
<title>Node4</title>
<g id="a_Node000004"><a xlink:href="namespacecbrc_1_1perlish.html#a0239063f56550ecc3e66fea8fa39f795" target="_top" xlink:title=" ">
<polygon fill="white" stroke="#666666" points="103,-96.5 0,-96.5 0,-77.5 103,-77.5 103,-96.5"/>
<text text-anchor="middle" x="51.5" y="-84.5" font-family="Helvetica,sans-Serif" font-size="10.00">cbrc::perlish::split</text>
</a>
</g>
</g>
<!-- Node3&#45;&gt;Node4 -->
<g id="edge3_Node000003_Node000004" class="edge">
<title>Node3&#45;&gt;Node4</title>
<g id="a_edge3_Node000003_Node000004"><a xlink:title=" ">
<path fill="none" stroke="#63b8ff" d="M128.86,-87C120.26,-87 111.53,-87 103.19,-87"/>
<polygon fill="#63b8ff" stroke="#63b8ff" points="128.86,-90.5 138.86,-87 128.86,-83.5 128.86,-90.5"/>
</a>
</g>
</g>
</g>
</svg>
