<?xml version="1.0" encoding="UTF-8" standalone="no"?>
<!DOCTYPE svg PUBLIC "-//W3C//DTD SVG 1.1//EN"
 "http://www.w3.org/Graphics/SVG/1.1/DTD/svg11.dtd">
<!-- Generated by graphviz version 2.43.0 (0)
 -->
<!-- Title: cbrc::FLEArray&lt; T &gt; Pages: 1 -->
<!--zoomable 857 -->

<svg id="main" version="1.1" xmlns="http://www.w3.org/2000/svg" xmlns:xlink="http://www.w3.org/1999/xlink" xml:space="preserve" onload="init(evt)">
<style type="text/css"><![CDATA[
.node, .edge {opacity: 0.7;}
.node.selected, .edge.selected {opacity: 1;}
.edge:hover path { stroke: red; }
.edge:hover polygon { stroke: red; fill: red; }
]]></style>

<defs>
  <circle id="rim" cx="0" cy="0" r="7"/>
  <circle id="rim2" cx="0" cy="0" r="3.5"/>
  <g id="zoomPlus">
    <use xlink:href="#rim" fill="#404040"><set attributeName="fill" to="#808080" begin="zoomplus.mouseover" end="zoomplus.mouseout"/></use>
    <path d="M-4,0h8M0,-4v8" fill="none" stroke="white" stroke-width="1.5" pointer-events="none"/>
  </g>
  <g id="zoomMin">
    <use xlink:href="#rim" fill="#404040"><set attributeName="fill" to="#808080" begin="zoomminus.mouseover" end="zoomminus.mouseout"/></use>
    <path d="M-4,0h8" fill="none" stroke="white" stroke-width="1.5" pointer-events="none"/>
  </g>
  <g id="arrowUp" transform="translate(30 24)">
    <use xlink:href="#rim"/>
    <path pointer-events="none" fill="none" stroke="white" stroke-width="1.5" d="M0,-3.0v7 M-2.5,-0.5L0,-3.0L2.5,-0.5"/>
  </g>
  <g id="arrowRight" transform="rotate(90) translate(36 -43)">
    <use xlink:href="#rim"/>
    <path pointer-events="none" fill="none" stroke="white" stroke-width="1.5" d="M0,-3.0v7 M-2.5,-0.5L0,-3.0L2.5,-0.5"/>
  </g>
  <g id="arrowDown" transform="rotate(180) translate(-30 -48)">
    <use xlink:href="#rim"/>
    <path pointer-events="none" fill="none" stroke="white" stroke-width="1.5" d="M0,-3.0v7 M-2.5,-0.5L0,-3.0L2.5,-0.5"/>
  </g>
  <g id="arrowLeft" transform="rotate(270) translate(-36 17)">
    <use xlink:href="#rim"/>
    <path pointer-events="none" fill="none" stroke="white" stroke-width="1.5" d="M0,-3.0v7 M-2.5,-0.5L0,-3.0L2.5,-0.5"/>
  </g>
  <g id="resetDef">
    <use xlink:href="#rim2" fill="#404040"><set attributeName="fill" to="#808080" begin="reset.mouseover" end="reset.mouseout"/></use>
  </g>
</defs>
<script type="application/ecmascript">
var viewWidth = 747;
var viewHeight = 857;
var sectionId = 'dynsection-0';
</script>
<script type="application/ecmascript" xlink:href="svg.min.js"/>
<svg id="graph" class="graph">
<g id="viewport">
<title>cbrc::FLEArray&lt; T &gt;</title>
<!-- Node1 -->
<g id="Node000001" class="node">
<title>Node1</title>
<g id="a_Node000001"><a xlink:title=" ">
<polygon fill="#999999" stroke="#666666" points="115,-438.68 0,-438.68 0,-419.68 115,-419.68 115,-438.68"/>
<text text-anchor="middle" x="57.5" y="-426.68" font-family="Helvetica,sans-Serif" font-size="10.00">cbrc::FLEArray&lt; T &gt;</text>
</a>
</g>
</g>
<!-- Node2 -->
<g id="Node000002" class="node">
<title>Node2</title>
<g id="a_Node000002"><a xlink:href="classcbrc_1_1FLENumArray.html" target="_top" xlink:title=" ">
<polygon fill="white" stroke="#666666" points="719,-849.18 601,-849.18 601,-819.18 719,-819.18 719,-849.18"/>
<text text-anchor="start" x="609" y="-837.18" font-family="Helvetica,sans-Serif" font-size="10.00">cbrc::FLENumArray&lt;</text>
<text text-anchor="middle" x="660" y="-826.18" font-family="Helvetica,sans-Serif" font-size="10.00"> indexT &gt;</text>
</a>
</g>
</g>
<!-- Node1&#45;&gt;Node2 -->
<g id="edge1_Node000001_Node000002" class="edge">
<title>Node1&#45;&gt;Node2</title>
<g id="a_edge1_Node000001_Node000002"><a xlink:title=" ">
<path fill="none" stroke="#63b8ff" d="M60.03,-448.76C64.17,-493.06 79.23,-601.23 133,-671.18 245.36,-817.34 488.94,-830.48 600.75,-832.12"/>
<polygon fill="#63b8ff" stroke="#63b8ff" points="63.51,-448.38 59.18,-438.71 56.53,-448.97 63.51,-448.38"/>
</a>
</g>
</g>
<!-- Node1&#45;&gt;Node2 -->
<g id="edge6_Node000001_Node000002" class="edge">
<title>Node1&#45;&gt;Node2</title>
<g id="a_edge6_Node000001_Node000002"><a xlink:title=" ">
<path fill="none" stroke="#63b8ff" d="M59.34,-449.33C62.35,-496.59 75.67,-614.61 133,-689.18 245.36,-835.34 488.94,-848.48 600.75,-842.32"/>
<polygon fill="#63b8ff" stroke="#63b8ff" points="62.83,-448.95 58.79,-439.15 55.84,-449.33 62.83,-448.95"/>
</a>
</g>
</g>
<!-- Node3 -->
<g id="Node000003" class="node">
<title>Node3</title>
<g id="a_Node000003"><a xlink:href="classcbrc_1_1FLENumArray.html" target="_top" xlink:title=" ">
<polygon fill="white" stroke="#666666" points="719,-797.18 601,-797.18 601,-767.18 719,-767.18 719,-797.18"/>
<text text-anchor="start" x="609" y="-785.18" font-family="Helvetica,sans-Serif" font-size="10.00">cbrc::FLENumArray&lt;</text>
<text text-anchor="middle" x="660" y="-774.18" font-family="Helvetica,sans-Serif" font-size="10.00"> size_t &gt;</text>
</a>
</g>
</g>
<!-- Node1&#45;&gt;Node3 -->
<g id="edge2_Node000001_Node000003" class="edge">
<title>Node1&#45;&gt;Node3</title>
<g id="a_edge2_Node000001_Node000003"><a xlink:title=" ">
<path fill="none" stroke="#63b8ff" d="M62.13,-449.04C69.07,-485.65 87.76,-563.26 133,-610.18 260.41,-742.32 492.58,-767.94 600.7,-776.29"/>
<polygon fill="#63b8ff" stroke="#63b8ff" points="65.55,-448.29 60.34,-439.07 58.66,-449.53 65.55,-448.29"/>
</a>
</g>
</g>
<!-- Node1&#45;&gt;Node3 -->
<g id="edge7_Node000001_Node000003" class="edge">
<title>Node1&#45;&gt;Node3</title>
<g id="a_edge7_Node000001_Node000003"><a xlink:title=" ">
<path fill="none" stroke="#63b8ff" d="M60.45,-448.93C65.73,-488.52 83.43,-576.77 133,-628.18 260.41,-760.32 492.58,-785.94 600.7,-786.69"/>
<polygon fill="#63b8ff" stroke="#63b8ff" points="63.91,-448.43 59.25,-438.91 56.96,-449.26 63.91,-448.43"/>
</a>
</g>
</g>
<!-- Node4 -->
<g id="Node000004" class="node">
<title>Node4</title>
<g id="a_Node000004"><a xlink:href="classcbrc_1_1FLENumArray.html" target="_top" xlink:title=" ">
<polygon fill="white" stroke="#666666" points="719,-564.18 601,-564.18 601,-534.18 719,-534.18 719,-564.18"/>
<text text-anchor="start" x="609" y="-552.18" font-family="Helvetica,sans-Serif" font-size="10.00">cbrc::FLENumArray&lt;</text>
<text text-anchor="middle" x="660" y="-541.18" font-family="Helvetica,sans-Serif" font-size="10.00"> tagCountT &gt;</text>
</a>
</g>
</g>
<!-- Node1&#45;&gt;Node4 -->
<g id="edge3_Node000001_Node000004" class="edge">
<title>Node1&#45;&gt;Node4</title>
<g id="a_edge3_Node000001_Node000004"><a xlink:title=" ">
<path fill="none" stroke="#63b8ff" d="M85.16,-444.82C98.6,-454.62 115.69,-466.33 133,-473.18 293.48,-536.74 501.05,-543.13 600.64,-545.54"/>
<polygon fill="#63b8ff" stroke="#63b8ff" points="87.02,-441.85 76.9,-438.73 82.87,-447.48 87.02,-441.85"/>
</a>
</g>
</g>
<!-- Node1&#45;&gt;Node4 -->
<g id="edge8_Node000001_Node000004" class="edge">
<title>Node1&#45;&gt;Node4</title>
<g id="a_edge8_Node000001_Node000004"><a xlink:title=" ">
<path fill="none" stroke="#63b8ff" d="M69.88,-446.44C83.65,-461.43 108.1,-481.32 133,-491.18 293.48,-554.74 501.05,-561.13 600.64,-556.47"/>
<polygon fill="#63b8ff" stroke="#63b8ff" points="72.51,-444.12 63.4,-438.71 67.15,-448.62 72.51,-444.12"/>
</a>
</g>
</g>
<!-- Node5 -->
<g id="Node000005" class="node">
<title>Node5</title>
<g id="a_Node000005"><a xlink:href="classcbrc_1_1FLENumArray.html" target="_top" xlink:title=" ">
<polygon fill="white" stroke="#666666" points="738.5,-492.18 581.5,-492.18 581.5,-462.18 738.5,-462.18 738.5,-492.18"/>
<text text-anchor="start" x="589.5" y="-480.18" font-family="Helvetica,sans-Serif" font-size="10.00">cbrc::FLENumArray&lt;</text>
<text text-anchor="middle" x="660" y="-469.18" font-family="Helvetica,sans-Serif" font-size="10.00"> ResidueIndexMap::indexT &gt;</text>
</a>
</g>
</g>
<!-- Node1&#45;&gt;Node5 -->
<g id="edge4_Node000001_Node000005" class="edge">
<title>Node1&#45;&gt;Node5</title>
<g id="a_edge4_Node000001_Node000005"><a xlink:title=" ">
<path fill="none" stroke="#63b8ff" d="M122.55,-441.08C126.06,-441.86 129.56,-442.58 133,-443.18 290.36,-470.76 477.99,-472.33 581.23,-473.42"/>
<polygon fill="#63b8ff" stroke="#63b8ff" points="123.18,-437.63 112.63,-438.69 121.54,-444.43 123.18,-437.63"/>
</a>
</g>
</g>
<!-- Node1&#45;&gt;Node5 -->
<g id="edge9_Node000001_Node000005" class="edge">
<title>Node1&#45;&gt;Node5</title>
<g id="a_edge9_Node000001_Node000005"><a xlink:title=" ">
<path fill="none" stroke="#63b8ff" d="M77.09,-443.68C91.97,-450.75 113.5,-457.76 133,-461.18 290.36,-488.76 477.99,-490.33 581.23,-485.7"/>
<polygon fill="#63b8ff" stroke="#63b8ff" points="78.43,-440.43 67.95,-438.82 75.14,-446.61 78.43,-440.43"/>
</a>
</g>
</g>
<!-- Node6 -->
<g id="Node000006" class="node">
<title>Node6</title>
<g id="a_Node000006"><a xlink:href="classcbrc_1_1FLENumArray.html" target="_top" xlink:title=" ">
<polygon fill="white" stroke="#666666" points="719,-444.18 601,-444.18 601,-414.18 719,-414.18 719,-444.18"/>
<text text-anchor="start" x="609" y="-432.18" font-family="Helvetica,sans-Serif" font-size="10.00">cbrc::FLENumArray&lt;</text>
<text text-anchor="middle" x="660" y="-421.18" font-family="Helvetica,sans-Serif" font-size="10.00"> residueIndexT &gt;</text>
</a>
</g>
</g>
<!-- Node1&#45;&gt;Node6 -->
<g id="edge5_Node000001_Node000006" class="edge">
<title>Node1&#45;&gt;Node6</title>
<g id="a_edge5_Node000001_Node000006"><a xlink:title=" ">
<path fill="none" stroke="#63b8ff" d="M125.3,-424.74C243.84,-421.58 489.01,-421.66 600.96,-424.99"/>
<polygon fill="#63b8ff" stroke="#63b8ff" points="125.16,-421.24 115.26,-425.03 125.36,-428.24 125.16,-421.24"/>
</a>
</g>
</g>
<!-- Node1&#45;&gt;Node6 -->
<g id="edge10_Node000001_Node000006" class="edge">
<title>Node1&#45;&gt;Node6</title>
<g id="a_edge10_Node000001_Node000006"><a xlink:title=" ">
<path fill="none" stroke="#63b8ff" d="M125.3,-433.62C243.84,-436.78 489.01,-436.7 600.96,-433.37"/>
<polygon fill="#63b8ff" stroke="#63b8ff" points="125.36,-430.12 115.26,-433.34 125.16,-437.12 125.36,-430.12"/>
</a>
</g>
</g>
<!-- Node7 -->
<g id="Node000007" class="node">
<title>Node7</title>
<g id="a_Node000007"><a xlink:href="classcbrc_1_1FLEArrayFast.html" target="_top" xlink:title=" ">
<polygon fill="white" stroke="#666666" points="415,-391.68 281,-391.68 281,-372.68 415,-372.68 415,-391.68"/>
<text text-anchor="middle" x="348" y="-379.68" font-family="Helvetica,sans-Serif" font-size="10.00">cbrc::FLEArrayFast&lt; T &gt;</text>
</a>
</g>
</g>
<!-- Node1&#45;&gt;Node7 -->
<g id="edge11_Node000001_Node000007" class="edge">
<title>Node1&#45;&gt;Node7</title>
<g id="a_edge11_Node000001_Node000007"><a xlink:title=" ">
<path fill="none" stroke="#63b8ff" d="M77.68,-415.15C92.6,-408.6 113.89,-402.09 133,-398.18 182.11,-388.14 238.44,-381.76 280.98,-379.25"/>
<polygon fill="#63b8ff" stroke="#63b8ff" points="75.92,-412.12 68.48,-419.66 79,-418.4 75.92,-412.12"/>
</a>
</g>
</g>
<!-- Node1&#45;&gt;Node7 -->
<g id="edge12_Node000001_Node000007" class="edge">
<title>Node1&#45;&gt;Node7</title>
<g id="a_edge12_Node000001_Node000007"><a xlink:title=" ">
<path fill="none" stroke="#63b8ff" d="M124.99,-417.93C127.69,-417.31 130.37,-416.72 133,-416.18 192,-404.12 261.43,-397.34 304.84,-391.73"/>
<polygon fill="#63b8ff" stroke="#63b8ff" points="124.09,-414.55 115.19,-420.31 125.74,-421.35 124.09,-414.55"/>
</a>
</g>
</g>
<!-- Node8 -->
<g id="Node000008" class="node">
<title>Node8</title>
<g id="a_Node000008"><a xlink:href="classcbrc_1_1FLENumArray.html" target="_top" xlink:title=" ">
<polygon fill="white" stroke="#666666" points="417,-645.68 279,-645.68 279,-626.68 417,-626.68 417,-645.68"/>
<text text-anchor="middle" x="348" y="-633.68" font-family="Helvetica,sans-Serif" font-size="10.00">cbrc::FLENumArray&lt; T &gt;</text>
</a>
</g>
</g>
<!-- Node1&#45;&gt;Node8 -->
<g id="edge13_Node000001_Node000008" class="edge">
<title>Node1&#45;&gt;Node8</title>
<g id="a_edge13_Node000001_Node000008"><a xlink:title=" ">
<path fill="none" stroke="#63b8ff" d="M65.16,-448.63C74.79,-477.93 95.69,-532.35 133,-563.18 182.62,-604.18 257.87,-618.92 304.65,-626.67"/>
<polygon fill="#63b8ff" stroke="#63b8ff" points="68.37,-447.19 62.01,-438.72 61.7,-449.32 68.37,-447.19"/>
</a>
</g>
</g>
<!-- Node1&#45;&gt;Node8 -->
<g id="edge21_Node000001_Node000008" class="edge">
<title>Node1&#45;&gt;Node8</title>
<g id="a_edge21_Node000001_Node000008"><a xlink:title=" ">
<path fill="none" stroke="#63b8ff" d="M62.01,-448.79C69.73,-481.67 90.93,-546.42 133,-581.18 174.25,-615.27 233.22,-631.2 278.81,-637.24"/>
<polygon fill="#63b8ff" stroke="#63b8ff" points="65.42,-447.99 59.9,-438.95 58.58,-449.46 65.42,-447.99"/>
</a>
</g>
</g>
<!-- Node10 -->
<g id="Node000010" class="node">
<title>Node10</title>
<g id="a_Node000010"><a xlink:href="classcbrc_1_1FLEArray.html" target="_top" xlink:title=" ">
<polygon fill="white" stroke="#666666" points="409,-354.68 287,-354.68 287,-335.68 409,-335.68 409,-354.68"/>
<text text-anchor="middle" x="348" y="-342.68" font-family="Helvetica,sans-Serif" font-size="10.00">cbrc::FLEArray&lt; int &gt;</text>
</a>
</g>
</g>
<!-- Node1&#45;&gt;Node10 -->
<g id="edge22_Node000001_Node000010" class="edge">
<title>Node1&#45;&gt;Node10</title>
<g id="a_edge22_Node000001_Node000010"><a xlink:title=" ">
<path fill="none" stroke="orange" stroke-dasharray="5,2" d="M76.19,-412.87C90.44,-400.71 111.57,-384.77 133,-376.18 182.48,-356.35 242.91,-348.98 286.92,-346.35"/>
<polygon fill="orange" stroke="orange" points="73.84,-410.28 68.64,-419.51 78.46,-415.53 73.84,-410.28"/>
</a>
</g>
<text text-anchor="middle" x="187" y="-379.18" font-family="Helvetica,sans-Serif" font-size="10.00" fill="grey"> &lt; int &gt;</text>
</g>
<!-- Node11 -->
<g id="Node000011" class="node">
<title>Node11</title>
<g id="a_Node000011"><a xlink:href="classcbrc_1_1FLEArray.html" target="_top" xlink:title=" ">
<polygon fill="white" stroke="#666666" points="431,-317.68 265,-317.68 265,-298.68 431,-298.68 431,-317.68"/>
<text text-anchor="middle" x="348" y="-305.68" font-family="Helvetica,sans-Serif" font-size="10.00">cbrc::FLEArray&lt; nodeIndexT &gt;</text>
</a>
</g>
</g>
<!-- Node1&#45;&gt;Node11 -->
<g id="edge23_Node000001_Node000011" class="edge">
<title>Node1&#45;&gt;Node11</title>
<g id="a_edge23_Node000001_Node000011"><a xlink:title=" ">
<path fill="none" stroke="orange" stroke-dasharray="5,2" d="M67.7,-410.58C79.57,-388.77 102.36,-353.43 133,-336.18 172.75,-313.8 223.1,-306.38 264.97,-304.74"/>
<polygon fill="orange" stroke="orange" points="64.56,-409.04 63.04,-419.53 70.76,-412.28 64.56,-409.04"/>
</a>
</g>
<text text-anchor="middle" x="187" y="-339.18" font-family="Helvetica,sans-Serif" font-size="10.00" fill="grey"> &lt; nodeIndexT &gt;</text>
</g>
<!-- Node12 -->
<g id="Node000012" class="node">
<title>Node12</title>
<g id="a_Node000012"><a xlink:href="classcbrc_1_1FLEArray.html" target="_top" xlink:title=" ">
<polygon fill="white" stroke="#666666" points="419,-280.68 277,-280.68 277,-261.68 419,-261.68 419,-280.68"/>
<text text-anchor="middle" x="348" y="-268.68" font-family="Helvetica,sans-Serif" font-size="10.00">cbrc::FLEArray&lt; indexT &gt;</text>
</a>
</g>
</g>
<!-- Node1&#45;&gt;Node12 -->
<g id="edge24_Node000001_Node000012" class="edge">
<title>Node1&#45;&gt;Node12</title>
<g id="a_edge24_Node000001_Node000012"><a xlink:title=" ">
<path fill="none" stroke="orange" stroke-dasharray="5,2" d="M62.9,-409.32C70.93,-378.25 91.14,-318.88 133,-291.18 175.01,-263.39 232.23,-259.34 276.93,-261.73"/>
<polygon fill="orange" stroke="orange" points="59.42,-408.83 60.48,-419.37 66.23,-410.47 59.42,-408.83"/>
</a>
</g>
<text text-anchor="middle" x="187" y="-294.18" font-family="Helvetica,sans-Serif" font-size="10.00" fill="grey"> &lt; indexT &gt;</text>
</g>
<!-- Node13 -->
<g id="Node000013" class="node">
<title>Node13</title>
<g id="a_Node000013"><a xlink:href="classcbrc_1_1FLEArray.html" target="_top" xlink:title=" ">
<polygon fill="white" stroke="#666666" points="416.5,-243.68 279.5,-243.68 279.5,-224.68 416.5,-224.68 416.5,-243.68"/>
<text text-anchor="middle" x="348" y="-231.68" font-family="Helvetica,sans-Serif" font-size="10.00">cbrc::FLEArray&lt; size_t &gt;</text>
</a>
</g>
</g>
<!-- Node1&#45;&gt;Node13 -->
<g id="edge25_Node000001_Node000013" class="edge">
<title>Node1&#45;&gt;Node13</title>
<g id="a_edge25_Node000001_Node000013"><a xlink:title=" ">
<path fill="none" stroke="orange" stroke-dasharray="5,2" d="M59.92,-409.45C63.87,-370.69 78.63,-285.01 133,-246.18 184.03,-209.74 260.59,-216.07 306.97,-224.66"/>
<polygon fill="orange" stroke="orange" points="56.42,-409.2 59.03,-419.47 63.4,-409.81 56.42,-409.2"/>
</a>
</g>
<text text-anchor="middle" x="187" y="-249.18" font-family="Helvetica,sans-Serif" font-size="10.00" fill="grey"> &lt; size_t &gt;</text>
</g>
<!-- Node14 -->
<g id="Node000014" class="node">
<title>Node14</title>
<g id="a_Node000014"><a xlink:href="classcbrc_1_1FLEArray.html" target="_top" xlink:title=" ">
<polygon fill="white" stroke="#666666" points="419,-206.18 277,-206.18 277,-176.18 419,-176.18 419,-206.18"/>
<text text-anchor="start" x="285" y="-194.18" font-family="Helvetica,sans-Serif" font-size="10.00">cbrc::FLEArray&lt; unsigned</text>
<text text-anchor="middle" x="348" y="-183.18" font-family="Helvetica,sans-Serif" font-size="10.00"> char &gt;</text>
</a>
</g>
</g>
<!-- Node1&#45;&gt;Node14 -->
<g id="edge26_Node000001_Node000014" class="edge">
<title>Node1&#45;&gt;Node14</title>
<g id="a_edge26_Node000001_Node000014"><a xlink:title=" ">
<path fill="none" stroke="orange" stroke-dasharray="5,2" d="M58.17,-409.24C58.61,-363.84 66.77,-252.8 133,-202.18 173.79,-171.01 232.79,-170.25 278.51,-176.17"/>
<polygon fill="orange" stroke="orange" points="54.67,-409.3 58.19,-419.29 61.67,-409.28 54.67,-409.3"/>
</a>
</g>
<text text-anchor="middle" x="187" y="-205.18" font-family="Helvetica,sans-Serif" font-size="10.00" fill="grey"> &lt; unsigned char &gt;</text>
</g>
<!-- Node15 -->
<g id="Node000015" class="node">
<title>Node15</title>
<g id="a_Node000015"><a xlink:href="classcbrc_1_1FLEArray.html" target="_top" xlink:title=" ">
<polygon fill="white" stroke="#666666" points="427.5,-157.68 268.5,-157.68 268.5,-138.68 427.5,-138.68 427.5,-157.68"/>
<text text-anchor="middle" x="348" y="-145.68" font-family="Helvetica,sans-Serif" font-size="10.00">cbrc::FLEArray&lt; tagCountT &gt;</text>
</a>
</g>
</g>
<!-- Node1&#45;&gt;Node15 -->
<g id="edge27_Node000001_Node000015" class="edge">
<title>Node1&#45;&gt;Node15</title>
<g id="a_edge27_Node000001_Node000015"><a xlink:title=" ">
<path fill="none" stroke="orange" stroke-dasharray="5,2" d="M60.97,-409.2C68.48,-352.09 92.98,-190.19 133,-158.18 184.27,-117.18 266.57,-127.96 312.74,-138.61"/>
<polygon fill="orange" stroke="orange" points="57.46,-409.07 59.66,-419.44 64.4,-409.96 57.46,-409.07"/>
</a>
</g>
<text text-anchor="middle" x="187" y="-161.18" font-family="Helvetica,sans-Serif" font-size="10.00" fill="grey"> &lt; tagCountT &gt;</text>
</g>
<!-- Node16 -->
<g id="Node000016" class="node">
<title>Node16</title>
<g id="a_Node000016"><a xlink:href="classcbrc_1_1FLEArray.html" target="_top" xlink:title=" ">
<polygon fill="white" stroke="#666666" points="430,-120.18 266,-120.18 266,-90.18 430,-90.18 430,-120.18"/>
<text text-anchor="start" x="274" y="-108.18" font-family="Helvetica,sans-Serif" font-size="10.00">cbrc::FLEArray&lt; ResidueIndex</text>
<text text-anchor="middle" x="348" y="-97.18" font-family="Helvetica,sans-Serif" font-size="10.00">Map::indexT &gt;</text>
</a>
</g>
</g>
<!-- Node1&#45;&gt;Node16 -->
<g id="edge28_Node000001_Node000016" class="edge">
<title>Node1&#45;&gt;Node16</title>
<g id="a_edge28_Node000001_Node000016"><a xlink:title=" ">
<path fill="none" stroke="orange" stroke-dasharray="5,2" d="M59.88,-409.36C64.85,-344.6 84.16,-141.15 133,-102.18 153.11,-86.13 214.1,-88.33 265.85,-93.72"/>
<polygon fill="orange" stroke="orange" points="56.38,-409.23 59.14,-419.46 63.36,-409.74 56.38,-409.23"/>
</a>
</g>
<text text-anchor="start" x="133" y="-116.18" font-family="Helvetica,sans-Serif" font-size="10.00" fill="grey"> &lt; ResidueIndexMap::</text>
<text text-anchor="middle" x="187" y="-105.18" font-family="Helvetica,sans-Serif" font-size="10.00" fill="grey">indexT &gt;</text>
</g>
<!-- Node17 -->
<g id="Node000017" class="node">
<title>Node17</title>
<g id="a_Node000017"><a xlink:href="classcbrc_1_1FLEArray.html" target="_top" xlink:title=" ">
<polygon fill="white" stroke="#666666" points="437,-71.68 259,-71.68 259,-52.68 437,-52.68 437,-71.68"/>
<text text-anchor="middle" x="348" y="-59.68" font-family="Helvetica,sans-Serif" font-size="10.00">cbrc::FLEArray&lt; residueIndexT &gt;</text>
</a>
</g>
</g>
<!-- Node1&#45;&gt;Node17 -->
<g id="edge29_Node000001_Node000017" class="edge">
<title>Node1&#45;&gt;Node17</title>
<g id="a_edge29_Node000001_Node000017"><a xlink:title=" ">
<path fill="none" stroke="orange" stroke-dasharray="5,2" d="M59.61,-409.14C63.84,-340.77 81.42,-118.51 133,-74.18 182.95,-31.25 266.13,-41.95 312.71,-52.64"/>
<polygon fill="orange" stroke="orange" points="56.1,-409.21 59.01,-419.4 63.09,-409.62 56.1,-409.21"/>
</a>
</g>
<text text-anchor="middle" x="187" y="-77.18" font-family="Helvetica,sans-Serif" font-size="10.00" fill="grey"> &lt; residueIndexT &gt;</text>
</g>
<!-- Node18 -->
<g id="Node000018" class="node">
<title>Node18</title>
<g id="a_Node000018"><a xlink:href="classcbrc_1_1FLEArray.html" target="_top" xlink:title=" ">
<polygon fill="white" stroke="#666666" points="431,-34.68 265,-34.68 265,-15.68 431,-15.68 431,-34.68"/>
<text text-anchor="middle" x="348" y="-22.68" font-family="Helvetica,sans-Serif" font-size="10.00">cbrc::FLEArray&lt; alignScoreT &gt;</text>
</a>
</g>
</g>
<!-- Node1&#45;&gt;Node18 -->
<g id="edge30_Node000001_Node000018" class="edge">
<title>Node1&#45;&gt;Node18</title>
<g id="a_edge30_Node000001_Node000018"><a xlink:title=" ">
<path fill="none" stroke="orange" stroke-dasharray="5,2" d="M59.01,-409.4C61.37,-335.61 73.78,-78.12 133,-28.18 185.69,16.25 274.38,-2.13 319.24,-15.63"/>
<polygon fill="orange" stroke="orange" points="55.51,-409.51 58.71,-419.6 62.5,-409.71 55.51,-409.51"/>
</a>
</g>
<text text-anchor="middle" x="187" y="-31.18" font-family="Helvetica,sans-Serif" font-size="10.00" fill="grey"> &lt; alignScoreT &gt;</text>
</g>
<!-- Node8&#45;&gt;Node2 -->
<g id="edge16_Node000008_Node000002" class="edge">
<title>Node8&#45;&gt;Node2</title>
<g id="a_edge16_Node000008_Node000002"><a xlink:title=" ">
<path fill="none" stroke="orange" stroke-dasharray="5,2" d="M366.7,-652.6C403.71,-686.12 493.14,-762.87 581,-806.18 590.68,-810.95 601.38,-815.33 611.68,-819.14"/>
<polygon fill="orange" stroke="orange" points="368.97,-649.94 359.23,-645.77 364.25,-655.1 368.97,-649.94"/>
</a>
</g>
<text text-anchor="middle" x="509" y="-798.18" font-family="Helvetica,sans-Serif" font-size="10.00" fill="grey"> &lt; indexT &gt;</text>
</g>
<!-- Node8&#45;&gt;Node3 -->
<g id="edge17_Node000008_Node000003" class="edge">
<title>Node8&#45;&gt;Node3</title>
<g id="a_edge17_Node000008_Node000003"><a xlink:title=" ">
<path fill="none" stroke="orange" stroke-dasharray="5,2" d="M383.13,-649.28C403.87,-657.19 430.91,-667.4 455,-676.18 502.81,-693.61 517.8,-690.81 563,-714.18 592.03,-729.19 622.27,-752 640.87,-767"/>
<polygon fill="orange" stroke="orange" points="384.38,-646.01 373.79,-645.71 381.88,-652.55 384.38,-646.01"/>
</a>
</g>
<text text-anchor="middle" x="509" y="-717.18" font-family="Helvetica,sans-Serif" font-size="10.00" fill="grey"> &lt; size_t &gt;</text>
</g>
<!-- Node8&#45;&gt;Node4 -->
<g id="edge18_Node000008_Node000004" class="edge">
<title>Node8&#45;&gt;Node4</title>
<g id="a_edge18_Node000008_Node000004"><a xlink:title=" ">
<path fill="none" stroke="orange" stroke-dasharray="5,2" d="M427.54,-632.12C478.08,-628.73 538.7,-623.02 563,-614.18 593.83,-602.97 624.32,-579.68 642.4,-564.24"/>
<polygon fill="orange" stroke="orange" points="427.01,-628.64 417.26,-632.78 427.46,-635.63 427.01,-628.64"/>
</a>
</g>
<text text-anchor="middle" x="509" y="-632.18" font-family="Helvetica,sans-Serif" font-size="10.00" fill="grey"> &lt; tagCountT &gt;</text>
</g>
<!-- Node8&#45;&gt;Node5 -->
<g id="edge19_Node000008_Node000005" class="edge">
<title>Node8&#45;&gt;Node5</title>
<g id="a_edge19_Node000008_Node000005"><a xlink:title=" ">
<path fill="none" stroke="orange" stroke-dasharray="5,2" d="M377.76,-622.17C418.98,-602.01 497.17,-563.46 563,-529.18 586.37,-517.01 612.66,-502.73 631.82,-492.21"/>
<polygon fill="orange" stroke="orange" points="376.03,-619.12 368.58,-626.66 379.1,-625.41 376.03,-619.12"/>
</a>
</g>
<text text-anchor="start" x="455" y="-596.18" font-family="Helvetica,sans-Serif" font-size="10.00" fill="grey"> &lt; ResidueIndexMap::</text>
<text text-anchor="middle" x="509" y="-585.18" font-family="Helvetica,sans-Serif" font-size="10.00" fill="grey">indexT &gt;</text>
</g>
<!-- Node8&#45;&gt;Node6 -->
<g id="edge20_Node000008_Node000006" class="edge">
<title>Node8&#45;&gt;Node6</title>
<g id="a_edge20_Node000008_Node000006"><a xlink:title=" ">
<path fill="none" stroke="orange" stroke-dasharray="5,2" d="M361.17,-618C379.18,-592.2 415.11,-544.71 455,-514.18 499.18,-480.37 558.76,-457.59 602.12,-444.2"/>
<polygon fill="orange" stroke="orange" points="358.14,-616.23 355.37,-626.45 363.92,-620.19 358.14,-616.23"/>
</a>
</g>
<text text-anchor="middle" x="509" y="-517.18" font-family="Helvetica,sans-Serif" font-size="10.00" fill="grey"> &lt; residueIndexT &gt;</text>
</g>
<!-- Node9 -->
<g id="Node000009" class="node">
<title>Node9</title>
<g id="a_Node000009"><a xlink:href="classcbrc_1_1FLENumArrayFast.html" target="_top" xlink:title=" ">
<polygon fill="white" stroke="#666666" points="739,-680.68 581,-680.68 581,-661.68 739,-661.68 739,-680.68"/>
<text text-anchor="middle" x="660" y="-668.68" font-family="Helvetica,sans-Serif" font-size="10.00">cbrc::FLENumArrayFast&lt; T &gt;</text>
</a>
</g>
</g>
<!-- Node8&#45;&gt;Node9 -->
<g id="edge14_Node000008_Node000009" class="edge">
<title>Node8&#45;&gt;Node9</title>
<g id="a_edge14_Node000008_Node000009"><a xlink:title=" ">
<path fill="none" stroke="#63b8ff" d="M427.24,-636.11C436.6,-637.1 446.01,-638.17 455,-639.18 516.8,-646.16 589.13,-654.31 628.93,-661.65"/>
<polygon fill="#63b8ff" stroke="#63b8ff" points="427.45,-632.61 417.14,-635.06 426.73,-639.57 427.45,-632.61"/>
</a>
</g>
</g>
<!-- Node8&#45;&gt;Node9 -->
<g id="edge15_Node000008_Node000009" class="edge">
<title>Node8&#45;&gt;Node9</title>
<g id="a_edge15_Node000008_Node000009"><a xlink:title=" ">
<path fill="none" stroke="#63b8ff" d="M381.73,-647.62C402.68,-651.26 430.44,-654.41 455,-657.18 496.44,-661.86 542.61,-667.07 580.53,-670.48"/>
<polygon fill="#63b8ff" stroke="#63b8ff" points="382.22,-644.15 371.74,-645.72 380.92,-651.02 382.22,-644.15"/>
</a>
</g>
</g>
</g>
</svg>

<g id="navigator" transform="translate(0 0)" fill="#404254">
  <rect fill="#f2f5e9" fill-opacity="0.5" stroke="#606060" stroke-width=".5" x="0" y="0" width="60" height="60"/>
  <use id="zoomplus" xlink:href="#zoomPlus" x="17" y="9" onmousedown="handleZoom(evt,'in')"/>
  <use id="zoomminus" xlink:href="#zoomMin" x="42" y="9" onmousedown="handleZoom(evt,'out')"/>
  <use id="reset" xlink:href="#resetDef" x="30" y="36" onmousedown="handleReset()"/>
   <use id="arrowup" xlink:href="#arrowUp" x="0" y="0" onmousedown="handlePan(0,-1)"/>
  <use id="arrowright" xlink:href="#arrowRight" x="0" y="0" onmousedown="handlePan(1,0)"/>
  <use id="arrowdown" xlink:href="#arrowDown" x="0" y="0" onmousedown="handlePan(0,1)"/>
  <use id="arrowleft" xlink:href="#arrowLeft" x="0" y="0" onmousedown="handlePan(-1,0)"/>
</g>
<svg viewBox="0 0 15 15" width="100%" height="30px" preserveAspectRatio="xMaxYMin meet">
 <g id="arrow_out" transform="scale(0.3 0.3)">
  <a xlink:href="classcbrc_1_1FLEArray__inherit__graph_org.svg" target="_base">
   <rect id="button" ry="5" rx="5" y="6" x="6" height="38" width="38"
        fill="#f2f5e9" fill-opacity="0.5" stroke="#606060" stroke-width="1.0"/>
   <path id="arrow"
     d="M 11.500037,31.436501 C 11.940474,20.09759 22.043105,11.32322 32.158766,21.979434 L 37.068811,17.246167 C 37.068811,17.246167 37.088388,32 37.088388,32 L 22.160133,31.978069 C 22.160133,31.978069 26.997745,27.140456 26.997745,27.140456 C 18.528582,18.264221 13.291696,25.230495 11.500037,31.436501 z"
     style="fill:#404040;"/>
  </a>
 </g>
</svg>

<style type='text/css'>
<![CDATA[
[data-mouse-over-selected='false'] { opacity: 0.7; }
[data-mouse-over-selected='true']  { opacity: 1.0; }
]]>
</style>
<script type="application/ecmascript"><![CDATA[
document.addEventListener('DOMContentLoaded', (event) => {
  highlightEdges();
  highlightAdjacentNodes();
});
]]></script>
</svg>
