<?xml version="1.0" encoding="UTF-8" standalone="no"?>
<!DOCTYPE svg PUBLIC "-//W3C//DTD SVG 1.1//EN"
 "http://www.w3.org/Graphics/SVG/1.1/DTD/svg11.dtd">
<!-- Generated by graphviz version 2.43.0 (0)
 -->
<!-- Title: main Pages: 1 -->
<svg width="1014pt" height="342pt"
 viewBox="0.00 0.00 1014.00 342.25" xmlns="http://www.w3.org/2000/svg" xmlns:xlink="http://www.w3.org/1999/xlink">
<g id="graph0" class="graph" transform="scale(1 1) rotate(0) translate(4 338.25)">
<title>main</title>
<!-- Node1 -->
<g id="Node000001" class="node">
<title>Node1</title>
<g id="a_Node000001"><a xlink:title=" ">
<polygon fill="#999999" stroke="#666666" points="41,-120.1 0,-120.1 0,-101.1 41,-101.1 41,-120.1"/>
<text text-anchor="middle" x="20.5" y="-108.1" font-family="Helvetica,sans-Serif" font-size="10.00">main</text>
</a>
</g>
</g>
<!-- Node2 -->
<g id="Node000002" class="node">
<title>Node2</title>
<g id="a_Node000002"><a xlink:href="namespacecbrc.html#aafac703cb883cf34da8ce1aa2b6341a0" target="_top" xlink:title=" ">
<polygon fill="white" stroke="#666666" points="859,-309.1 700,-309.1 700,-290.1 859,-290.1 859,-309.1"/>
<text text-anchor="middle" x="779.5" y="-297.1" font-family="Helvetica,sans-Serif" font-size="10.00">cbrc::computeAllPairsIdentity</text>
</a>
</g>
</g>
<!-- Node1&#45;&gt;Node2 -->
<g id="edge1_Node000001_Node000002" class="edge">
<title>Node1&#45;&gt;Node2</title>
<g id="a_edge1_Node000001_Node000002"><a xlink:title=" ">
<path fill="none" stroke="#63b8ff" d="M23.77,-120.12C29.3,-141.42 45.39,-193.4 77,-223.6 153.42,-296.61 191.53,-297.04 295,-318.6 446,-350.07 629.13,-326.62 720.61,-310.85"/>
<polygon fill="#63b8ff" stroke="#63b8ff" points="721.27,-314.29 730.51,-309.11 720.05,-307.39 721.27,-314.29"/>
</a>
</g>
</g>
<!-- Node4 -->
<g id="Node000004" class="node">
<title>Node4</title>
<g id="a_Node000004"><a xlink:href="classcbrc_1_1ArgvParser.html#a74359749acfafee36c21d20b237d1cc2" target="_top" xlink:title=" ">
<polygon fill="white" stroke="#666666" points="259,-215.1 77,-215.1 77,-196.1 259,-196.1 259,-215.1"/>
<text text-anchor="middle" x="168" y="-203.1" font-family="Helvetica,sans-Serif" font-size="10.00">cbrc::ArgvParser::dieIfUnusedArgs</text>
</a>
</g>
</g>
<!-- Node1&#45;&gt;Node4 -->
<g id="edge3_Node000001_Node000004" class="edge">
<title>Node1&#45;&gt;Node4</title>
<g id="a_edge3_Node000001_Node000004"><a xlink:title=" ">
<path fill="none" stroke="#63b8ff" d="M36.25,-120.23C61.52,-136.73 113.3,-170.54 143.56,-190.3"/>
<polygon fill="#63b8ff" stroke="#63b8ff" points="141.92,-193.41 152.21,-195.94 145.75,-187.54 141.92,-193.41"/>
</a>
</g>
</g>
<!-- Node13 -->
<g id="Node000013" class="node">
<title>Node13</title>
<g id="a_Node000013"><a xlink:href="classcbrc_1_1ArgvParser.html#a398291b90ac102914876b8b3be39b3a8" target="_top" xlink:title=" ">
<polygon fill="white" stroke="#666666" points="252,-46.1 84,-46.1 84,-27.1 252,-27.1 252,-46.1"/>
<text text-anchor="middle" x="168" y="-34.1" font-family="Helvetica,sans-Serif" font-size="10.00">cbrc::ArgvParser::getIstreamPtr</text>
</a>
</g>
</g>
<!-- Node1&#45;&gt;Node13 -->
<g id="edge17_Node000001_Node000013" class="edge">
<title>Node1&#45;&gt;Node13</title>
<g id="a_edge17_Node000001_Node000013"><a xlink:title=" ">
<path fill="none" stroke="#63b8ff" d="M28.16,-100.96C37.51,-88.2 55.79,-66.02 77,-54.6 80.45,-52.74 84.07,-51.07 87.8,-49.58"/>
<polygon fill="#63b8ff" stroke="#63b8ff" points="89,-52.87 97.23,-46.2 86.64,-46.28 89,-52.87"/>
</a>
</g>
</g>
<!-- Node14 -->
<g id="Node000014" class="node">
<title>Node14</title>
<g id="a_Node000014"><a xlink:href="classcbrc_1_1ArgvParser.html#af2a832f8094ea123b64c182612023d7f" target="_top" xlink:title=" ">
<polygon fill="white" stroke="#666666" points="226,-83.1 110,-83.1 110,-64.1 226,-64.1 226,-83.1"/>
<text text-anchor="middle" x="168" y="-71.1" font-family="Helvetica,sans-Serif" font-size="10.00">cbrc::ArgvParser::set</text>
</a>
</g>
</g>
<!-- Node1&#45;&gt;Node14 -->
<g id="edge18_Node000001_Node000014" class="edge">
<title>Node1&#45;&gt;Node14</title>
<g id="a_edge18_Node000001_Node000014"><a xlink:title=" ">
<path fill="none" stroke="#63b8ff" d="M41.08,-103.19C51.62,-99.38 64.91,-94.86 77,-91.6 85.49,-89.31 94.51,-87.17 103.43,-85.22"/>
<polygon fill="#63b8ff" stroke="#63b8ff" points="104.37,-88.6 113.43,-83.1 102.92,-81.75 104.37,-88.6"/>
</a>
</g>
</g>
<!-- Node18 -->
<g id="Node000018" class="node">
<title>Node18</title>
<g id="a_Node000018"><a xlink:href="classcbrc_1_1ArgvParser.html#a4c8336b8cd01c009285d5f0ba688254c" target="_top" xlink:title=" ">
<polygon fill="white" stroke="#666666" points="240,-120.1 96,-120.1 96,-101.1 240,-101.1 240,-120.1"/>
<text text-anchor="middle" x="168" y="-108.1" font-family="Helvetica,sans-Serif" font-size="10.00">cbrc::ArgvParser::setOrDie</text>
</a>
</g>
</g>
<!-- Node1&#45;&gt;Node18 -->
<g id="edge24_Node000001_Node000018" class="edge">
<title>Node1&#45;&gt;Node18</title>
<g id="a_edge24_Node000001_Node000018"><a xlink:title=" ">
<path fill="none" stroke="#63b8ff" d="M41.12,-110.6C52.94,-110.6 68.88,-110.6 85.43,-110.6"/>
<polygon fill="#63b8ff" stroke="#63b8ff" points="85.78,-114.1 95.78,-110.6 85.78,-107.1 85.78,-114.1"/>
</a>
</g>
</g>
<!-- Node3 -->
<g id="Node000003" class="node">
<title>Node3</title>
<g id="a_Node000003"><a xlink:href="classcbrc_1_1FLEArray.html#ad71311380d762114c9e0f3b0dda38b7c" target="_top" xlink:title=" ">
<polygon fill="white" stroke="#666666" points="1006,-178.1 895,-178.1 895,-159.1 1006,-159.1 1006,-178.1"/>
<text text-anchor="middle" x="950.5" y="-166.1" font-family="Helvetica,sans-Serif" font-size="10.00">cbrc::FLEArray::size</text>
</a>
</g>
</g>
<!-- Node2&#45;&gt;Node3 -->
<g id="edge2_Node000002_Node000003" class="edge">
<title>Node2&#45;&gt;Node3</title>
<g id="a_edge2_Node000002_Node000003"><a xlink:title=" ">
<path fill="none" stroke="#63b8ff" d="M792.93,-289.97C821.74,-267.63 893.34,-212.13 928.85,-184.61"/>
<polygon fill="#63b8ff" stroke="#63b8ff" points="931.3,-187.14 937.05,-178.25 927.01,-181.61 931.3,-187.14"/>
</a>
</g>
</g>
<!-- Node4&#45;&gt;Node3 -->
<g id="edge15_Node000004_Node000003" class="edge">
<title>Node4&#45;&gt;Node3</title>
<g id="a_edge15_Node000004_Node000003"><a xlink:title=" ">
<path fill="none" stroke="#63b8ff" d="M249.09,-215.13C378.66,-228.39 641.67,-246.4 859,-204.6 881.14,-200.34 904.76,-190.76 922.32,-182.55"/>
<polygon fill="#63b8ff" stroke="#63b8ff" points="923.91,-185.66 931.4,-178.17 920.87,-179.36 923.91,-185.66"/>
</a>
</g>
</g>
<!-- Node5 -->
<g id="Node000005" class="node">
<title>Node5</title>
<g id="a_Node000005"><a xlink:href="classcbrc_1_1ArgvParser.html#aad8dc9d595217cf4ad2a7f557371d3ab" target="_top" xlink:title=" ">
<polygon fill="white" stroke="#666666" points="432,-159.1 316,-159.1 316,-140.1 432,-140.1 432,-159.1"/>
<text text-anchor="middle" x="374" y="-147.1" font-family="Helvetica,sans-Serif" font-size="10.00">cbrc::ArgvParser::die</text>
</a>
</g>
</g>
<!-- Node4&#45;&gt;Node5 -->
<g id="edge4_Node000004_Node000005" class="edge">
<title>Node4&#45;&gt;Node5</title>
<g id="a_edge4_Node000004_Node000005"><a xlink:title=" ">
<path fill="none" stroke="#63b8ff" d="M198.63,-196.06C224.06,-188.02 261.77,-176.44 295,-167.6 302.83,-165.52 311.14,-163.45 319.3,-161.5"/>
<polygon fill="#63b8ff" stroke="#63b8ff" points="320.21,-164.88 329.15,-159.18 318.61,-158.07 320.21,-164.88"/>
</a>
</g>
</g>
<!-- Node7 -->
<g id="Node000007" class="node">
<title>Node7</title>
<g id="a_Node000007"><a xlink:href="classcbrc_1_1FLEArray.html#a877e10058250ecb9733399c211afee1a" target="_top" xlink:title=" ">
<polygon fill="white" stroke="#666666" points="435.5,-309.1 312.5,-309.1 312.5,-290.1 435.5,-290.1 435.5,-309.1"/>
<text text-anchor="middle" x="374" y="-297.1" font-family="Helvetica,sans-Serif" font-size="10.00">cbrc::FLEArray::empty</text>
</a>
</g>
</g>
<!-- Node4&#45;&gt;Node7 -->
<g id="edge7_Node000004_Node000007" class="edge">
<title>Node4&#45;&gt;Node7</title>
<g id="a_edge7_Node000004_Node000007"><a xlink:title=" ">
<path fill="none" stroke="#63b8ff" d="M181.88,-215.28C203.9,-231.38 250.72,-263.67 295,-281.6 300.15,-283.69 305.6,-285.56 311.12,-287.24"/>
<polygon fill="#63b8ff" stroke="#63b8ff" points="310.53,-290.71 321.1,-290.05 312.42,-283.97 310.53,-290.71"/>
</a>
</g>
</g>
<!-- Node8 -->
<g id="Node000008" class="node">
<title>Node8</title>
<g id="a_Node000008"><a xlink:href="classcbrc_1_1ArgvParser.html#a8e03423da9e8217c5c6e65f0ff403a1a" target="_top" xlink:title=" ">
<polygon fill="white" stroke="#666666" points="445.5,-196.1 302.5,-196.1 302.5,-177.1 445.5,-177.1 445.5,-196.1"/>
<text text-anchor="middle" x="374" y="-184.1" font-family="Helvetica,sans-Serif" font-size="10.00">cbrc::ArgvParser::printDoc</text>
</a>
</g>
</g>
<!-- Node4&#45;&gt;Node8 -->
<g id="edge8_Node000004_Node000008" class="edge">
<title>Node4&#45;&gt;Node8</title>
<g id="a_edge8_Node000004_Node000008"><a xlink:title=" ">
<path fill="none" stroke="#63b8ff" d="M259.07,-197.21C270.07,-196.19 281.26,-195.14 292.11,-194.13"/>
<polygon fill="#63b8ff" stroke="#63b8ff" points="292.77,-197.59 302.4,-193.18 292.12,-190.62 292.77,-197.59"/>
</a>
</g>
</g>
<!-- Node12 -->
<g id="Node000012" class="node">
<title>Node12</title>
<g id="a_Node000012"><a xlink:href="classcbrc_1_1ArgvParser.html#a40870d9c52a7a88958432ef2126ab9f1" target="_top" xlink:title=" ">
<polygon fill="white" stroke="#666666" points="453,-272.1 295,-272.1 295,-253.1 453,-253.1 453,-272.1"/>
<text text-anchor="middle" x="374" y="-260.1" font-family="Helvetica,sans-Serif" font-size="10.00">cbrc::ArgvParser::unusedArgs</text>
</a>
</g>
</g>
<!-- Node4&#45;&gt;Node12 -->
<g id="edge16_Node000004_Node000012" class="edge">
<title>Node4&#45;&gt;Node12</title>
<g id="a_edge16_Node000004_Node000012"><a xlink:title=" ">
<path fill="none" stroke="#63b8ff" d="M203.15,-215.14C237.71,-224.8 291.31,-239.78 329.04,-250.32"/>
<polygon fill="#63b8ff" stroke="#63b8ff" points="328.17,-253.71 338.74,-253.03 330.05,-246.97 328.17,-253.71"/>
</a>
</g>
</g>
<!-- Node5&#45;&gt;Node3 -->
<g id="edge5_Node000005_Node000003" class="edge">
<title>Node5&#45;&gt;Node3</title>
<g id="a_edge5_Node000005_Node000003"><a xlink:title=" ">
<path fill="none" stroke="#63b8ff" d="M405.06,-140.08C419.9,-134.88 437.82,-127.82 453,-119.6 470.36,-110.2 470.22,-99.67 489,-93.6 646.85,-42.56 846.87,-121.19 920.55,-154.68"/>
<polygon fill="#63b8ff" stroke="#63b8ff" points="919.15,-157.89 929.7,-158.9 922.09,-151.53 919.15,-157.89"/>
</a>
</g>
</g>
<!-- Node6 -->
<g id="Node000006" class="node">
<title>Node6</title>
<g id="a_Node000006"><a xlink:href="classcbrc_1_1ArgvParser.html#a1b7d257748fcfaa9a9a3cf46bc36a7e5" target="_top" xlink:title=" ">
<polygon fill="white" stroke="#666666" points="642,-122.1 511,-122.1 511,-103.1 642,-103.1 642,-122.1"/>
<text text-anchor="middle" x="576.5" y="-110.1" font-family="Helvetica,sans-Serif" font-size="10.00">cbrc::ArgvParser::usage</text>
</a>
</g>
</g>
<!-- Node5&#45;&gt;Node6 -->
<g id="edge6_Node000005_Node000006" class="edge">
<title>Node5&#45;&gt;Node6</title>
<g id="a_edge6_Node000005_Node000006"><a xlink:title=" ">
<path fill="none" stroke="#63b8ff" d="M426.63,-140.07C453.19,-135.17 485.76,-129.16 513.65,-124.01"/>
<polygon fill="#63b8ff" stroke="#63b8ff" points="514.49,-127.42 523.69,-122.16 513.22,-120.53 514.49,-127.42"/>
</a>
</g>
</g>
<!-- Node9 -->
<g id="Node000009" class="node">
<title>Node9</title>
<g id="a_Node000009"><a xlink:href="classcbrc_1_1ArgvParser.html#a4279902497c688168b45f0f70d118060" target="_top" xlink:title=" ">
<polygon fill="white" stroke="#666666" points="649,-196.1 504,-196.1 504,-177.1 649,-177.1 649,-196.1"/>
<text text-anchor="middle" x="576.5" y="-184.1" font-family="Helvetica,sans-Serif" font-size="10.00">cbrc::ArgvParser::numArgs</text>
</a>
</g>
</g>
<!-- Node8&#45;&gt;Node9 -->
<g id="edge9_Node000008_Node000009" class="edge">
<title>Node8&#45;&gt;Node9</title>
<g id="a_edge9_Node000008_Node000009"><a xlink:title=" ">
<path fill="none" stroke="#63b8ff" d="M445.69,-186.6C461.13,-186.6 477.61,-186.6 493.45,-186.6"/>
<polygon fill="#63b8ff" stroke="#63b8ff" points="493.76,-190.1 503.76,-186.6 493.76,-183.1 493.76,-190.1"/>
</a>
</g>
</g>
<!-- Node10 -->
<g id="Node000010" class="node">
<title>Node10</title>
<g id="a_Node000010"><a xlink:href="classcbrc_1_1ArgvParser.html#a96db1f87dc329ff812829f18748c2ce6" target="_top" xlink:title=" ">
<polygon fill="white" stroke="#666666" points="664,-159.1 489,-159.1 489,-140.1 664,-140.1 664,-159.1"/>
<text text-anchor="middle" x="576.5" y="-147.1" font-family="Helvetica,sans-Serif" font-size="10.00">cbrc::ArgvParser::printOptionDoc</text>
</a>
</g>
</g>
<!-- Node8&#45;&gt;Node10 -->
<g id="edge10_Node000008_Node000010" class="edge">
<title>Node8&#45;&gt;Node10</title>
<g id="a_edge10_Node000008_Node000010"><a xlink:title=" ">
<path fill="none" stroke="#63b8ff" d="M426.63,-177.07C453.19,-172.17 485.76,-166.16 513.65,-161.01"/>
<polygon fill="#63b8ff" stroke="#63b8ff" points="514.49,-164.42 523.69,-159.16 513.22,-157.53 514.49,-164.42"/>
</a>
</g>
</g>
<!-- Node10&#45;&gt;Node3 -->
<g id="edge14_Node000010_Node000003" class="edge">
<title>Node10&#45;&gt;Node3</title>
<g id="a_edge14_Node000010_Node000003"><a xlink:title=" ">
<path fill="none" stroke="#63b8ff" d="M664.29,-144.98C720.06,-143.15 793.98,-142.85 859,-149.6 873.39,-151.09 888.87,-153.89 902.88,-156.89"/>
<polygon fill="#63b8ff" stroke="#63b8ff" points="902.27,-160.34 912.79,-159.09 903.78,-153.5 902.27,-160.34"/>
</a>
</g>
</g>
<!-- Node11 -->
<g id="Node000011" class="node">
<title>Node11</title>
<g id="a_Node000011"><a xlink:href="classcbrc_1_1ArgvParser.html#af4e3bd7a5c422f82280a37b17299876f" target="_top" xlink:title=" ">
<polygon fill="white" stroke="#666666" points="847.5,-178.1 711.5,-178.1 711.5,-159.1 847.5,-159.1 847.5,-178.1"/>
<text text-anchor="middle" x="779.5" y="-166.1" font-family="Helvetica,sans-Serif" font-size="10.00">cbrc::ArgvParser::getDoc</text>
</a>
</g>
</g>
<!-- Node10&#45;&gt;Node11 -->
<g id="edge11_Node000010_Node000011" class="edge">
<title>Node10&#45;&gt;Node11</title>
<g id="a_edge11_Node000010_Node000011"><a xlink:title=" ">
<path fill="none" stroke="#63b8ff" d="M664.2,-157.8C676.57,-158.96 689.22,-160.16 701.39,-161.31"/>
<polygon fill="#63b8ff" stroke="#63b8ff" points="701.19,-164.81 711.48,-162.26 701.85,-157.84 701.19,-164.81"/>
</a>
</g>
</g>
<!-- Node11&#45;&gt;Node3 -->
<g id="edge13_Node000011_Node000003" class="edge">
<title>Node11&#45;&gt;Node3</title>
<g id="a_edge13_Node000011_Node000003"><a xlink:title=" ">
<path fill="none" stroke="#63b8ff" d="M847.78,-168.6C860,-168.6 872.73,-168.6 884.88,-168.6"/>
<polygon fill="#63b8ff" stroke="#63b8ff" points="884.92,-172.1 894.92,-168.6 884.92,-165.1 884.92,-172.1"/>
</a>
</g>
</g>
<!-- Node11&#45;&gt;Node11 -->
<g id="edge12_Node000011_Node000011" class="edge">
<title>Node11&#45;&gt;Node11</title>
<g id="a_edge12_Node000011_Node000011"><a xlink:title=" ">
<path fill="none" stroke="#63b8ff" d="M753.3,-178.18C740.55,-186.83 749.29,-196.1 779.5,-196.1 799.8,-196.1 810.4,-191.92 811.31,-186.55"/>
<polygon fill="#63b8ff" stroke="#63b8ff" points="814.18,-184.54 805.7,-178.18 808.36,-188.44 814.18,-184.54"/>
</a>
</g>
</g>
<!-- Node14&#45;&gt;Node5 -->
<g id="edge20_Node000014_Node000005" class="edge">
<title>Node14&#45;&gt;Node5</title>
<g id="a_edge20_Node000014_Node000005"><a xlink:title=" ">
<path fill="none" stroke="#63b8ff" d="M226.28,-82.61C237.29,-85.03 248.61,-88 259,-91.6 291.31,-102.81 326,-121.52 348.51,-134.65"/>
<polygon fill="#63b8ff" stroke="#63b8ff" points="346.99,-137.82 357.38,-139.9 350.56,-131.79 346.99,-137.82"/>
</a>
</g>
</g>
<!-- Node15 -->
<g id="Node000015" class="node">
<title>Node15</title>
<g id="a_Node000015"><a xlink:href="namespacecbrc.html#a94ca1678e0481b17626977da7cfb798b" target="_top" xlink:title=" ">
<polygon fill="white" stroke="#666666" points="650.5,-46.1 502.5,-46.1 502.5,-27.1 650.5,-27.1 650.5,-46.1"/>
<text text-anchor="middle" x="576.5" y="-34.1" font-family="Helvetica,sans-Serif" font-size="10.00">cbrc::_argvParserNullString</text>
</a>
</g>
</g>
<!-- Node14&#45;&gt;Node15 -->
<g id="edge19_Node000014_Node000015" class="edge">
<title>Node14&#45;&gt;Node15</title>
<g id="a_edge19_Node000014_Node000015"><a xlink:title=" ">
<path fill="none" stroke="#63b8ff" d="M226.04,-66.86C237.4,-64.08 248.93,-60.15 259,-54.6 279.1,-43.53 273.86,-26.53 295,-17.6 376.7,16.9 483.72,-7.14 538.97,-24.01"/>
<polygon fill="#63b8ff" stroke="#63b8ff" points="538.08,-27.39 548.67,-27.06 540.18,-20.72 538.08,-27.39"/>
</a>
</g>
</g>
<!-- Node16 -->
<g id="Node000016" class="node">
<title>Node16</title>
<g id="a_Node000016"><a xlink:href="classcbrc_1_1ArgvParser.html#a273ad44f1f402d2a9c31d5cb04c2a63f" target="_top" xlink:title=" ">
<polygon fill="white" stroke="#666666" points="441,-46.1 307,-46.1 307,-27.1 441,-27.1 441,-46.1"/>
<text text-anchor="middle" x="374" y="-34.1" font-family="Helvetica,sans-Serif" font-size="10.00">cbrc::ArgvParser::getArg</text>
</a>
</g>
</g>
<!-- Node14&#45;&gt;Node16 -->
<g id="edge21_Node000014_Node000016" class="edge">
<title>Node14&#45;&gt;Node16</title>
<g id="a_edge21_Node000014_Node000016"><a xlink:title=" ">
<path fill="none" stroke="#63b8ff" d="M221.54,-64.07C248.68,-59.15 281.98,-53.11 310.44,-47.95"/>
<polygon fill="#63b8ff" stroke="#63b8ff" points="311.07,-51.39 320.29,-46.16 309.82,-44.5 311.07,-51.39"/>
</a>
</g>
</g>
<!-- Node17 -->
<g id="Node000017" class="node">
<title>Node17</title>
<g id="a_Node000017"><a xlink:href="classcbrc_1_1ArgvParser.html#acfc1ef9228adb3bfe47ba9c9e68e68cd" target="_top" xlink:title=" ">
<polygon fill="white" stroke="#666666" points="441.5,-83.1 306.5,-83.1 306.5,-64.1 441.5,-64.1 441.5,-83.1"/>
<text text-anchor="middle" x="374" y="-71.1" font-family="Helvetica,sans-Serif" font-size="10.00">cbrc::ArgvParser::hasArg</text>
</a>
</g>
</g>
<!-- Node14&#45;&gt;Node17 -->
<g id="edge23_Node000014_Node000017" class="edge">
<title>Node14&#45;&gt;Node17</title>
<g id="a_edge23_Node000014_Node000017"><a xlink:title=" ">
<path fill="none" stroke="#63b8ff" d="M226.1,-73.6C247.76,-73.6 272.8,-73.6 296.01,-73.6"/>
<polygon fill="#63b8ff" stroke="#63b8ff" points="296.17,-77.1 306.17,-73.6 296.17,-70.1 296.17,-77.1"/>
</a>
</g>
</g>
<!-- Node16&#45;&gt;Node15 -->
<g id="edge22_Node000016_Node000015" class="edge">
<title>Node16&#45;&gt;Node15</title>
<g id="a_edge22_Node000016_Node000015"><a xlink:title=" ">
<path fill="none" stroke="#63b8ff" d="M441.21,-36.6C457.45,-36.6 475.05,-36.6 492,-36.6"/>
<polygon fill="#63b8ff" stroke="#63b8ff" points="492.45,-40.1 502.45,-36.6 492.45,-33.1 492.45,-40.1"/>
</a>
</g>
</g>
<!-- Node18&#45;&gt;Node5 -->
<g id="edge26_Node000018_Node000005" class="edge">
<title>Node18&#45;&gt;Node5</title>
<g id="a_edge26_Node000018_Node000005"><a xlink:title=" ">
<path fill="none" stroke="#63b8ff" d="M218.9,-120.14C247.41,-125.59 283.34,-132.46 313.33,-138.19"/>
<polygon fill="#63b8ff" stroke="#63b8ff" points="312.78,-141.65 323.26,-140.09 314.09,-134.77 312.78,-141.65"/>
</a>
</g>
</g>
<!-- Node18&#45;&gt;Node15 -->
<g id="edge25_Node000018_Node000015" class="edge">
<title>Node18&#45;&gt;Node15</title>
<g id="a_edge25_Node000018_Node000015"><a xlink:title=" ">
<path fill="none" stroke="#63b8ff" d="M240.07,-118.01C299.27,-121.38 384.64,-119.61 453,-91.6 472.54,-83.59 470.38,-70.55 489,-60.6 497.57,-56.02 507.09,-52.25 516.6,-49.16"/>
<polygon fill="#63b8ff" stroke="#63b8ff" points="517.9,-52.43 526.46,-46.19 515.88,-45.72 517.9,-52.43"/>
</a>
</g>
</g>
<!-- Node18&#45;&gt;Node16 -->
<g id="edge27_Node000018_Node000016" class="edge">
<title>Node18&#45;&gt;Node16</title>
<g id="a_edge27_Node000018_Node000016"><a xlink:title=" ">
<path fill="none" stroke="#63b8ff" d="M236.46,-100.98C244.31,-98.53 252.01,-95.45 259,-91.6 279.1,-80.53 275.01,-65.86 295,-54.6 298.22,-52.79 301.61,-51.16 305.1,-49.69"/>
<polygon fill="#63b8ff" stroke="#63b8ff" points="306.37,-52.95 314.53,-46.18 303.93,-46.39 306.37,-52.95"/>
</a>
</g>
</g>
<!-- Node18&#45;&gt;Node17 -->
<g id="edge28_Node000018_Node000017" class="edge">
<title>Node18&#45;&gt;Node17</title>
<g id="a_edge28_Node000018_Node000017"><a xlink:title=" ">
<path fill="none" stroke="#63b8ff" d="M221.54,-101.07C248.68,-96.15 281.98,-90.11 310.44,-84.95"/>
<polygon fill="#63b8ff" stroke="#63b8ff" points="311.07,-88.39 320.29,-83.16 309.82,-81.5 311.07,-88.39"/>
</a>
</g>
</g>
</g>
</svg>
