<?xml version="1.0" encoding="UTF-8" standalone="no"?>
<!DOCTYPE svg PUBLIC "-//W3C//DTD SVG 1.1//EN"
 "http://www.w3.org/Graphics/SVG/1.1/DTD/svg11.dtd">
<!-- Generated by graphviz version 2.43.0 (0)
 -->
<!-- Title: ematch_src/utils/FLArray/ConstantLabeledSquareDoubleFLENumMatrix.hh Pages: 1 -->
<svg width="434pt" height="126pt"
 viewBox="0.00 0.00 433.50 126.00" xmlns="http://www.w3.org/2000/svg" xmlns:xlink="http://www.w3.org/1999/xlink">
<g id="graph0" class="graph" transform="scale(1 1) rotate(0) translate(4 122)">
<title>ematch_src/utils/FLArray/ConstantLabeledSquareDoubleFLENumMatrix.hh</title>
<!-- Node1 -->
<g id="Node000001" class="node">
<title>Node1</title>
<g id="a_Node000001"><a xlink:title=" ">
<polygon fill="#999999" stroke="#666666" points="321,-118 111,-118 111,-77 321,-77 321,-118"/>
<text text-anchor="start" x="119" y="-106" font-family="Helvetica,sans-Serif" font-size="10.00">ematch_src/utils/FLArray</text>
<text text-anchor="start" x="119" y="-95" font-family="Helvetica,sans-Serif" font-size="10.00">/ConstantLabeledSquareDoubleFLENum</text>
<text text-anchor="middle" x="216" y="-84" font-family="Helvetica,sans-Serif" font-size="10.00">Matrix.hh</text>
</a>
</g>
</g>
<!-- Node2 -->
<g id="Node000002" class="node">
<title>Node2</title>
<g id="a_Node000002"><a xlink:href="ConstantLabeledSquareDoubleFLENumMatrix_8cc.html" target="_top" xlink:title=" ">
<polygon fill="white" stroke="#666666" points="210,-41 0,-41 0,0 210,0 210,-41"/>
<text text-anchor="start" x="8" y="-29" font-family="Helvetica,sans-Serif" font-size="10.00">ematch_src/utils/FLArray</text>
<text text-anchor="start" x="8" y="-18" font-family="Helvetica,sans-Serif" font-size="10.00">/ConstantLabeledSquareDoubleFLENum</text>
<text text-anchor="middle" x="105" y="-7" font-family="Helvetica,sans-Serif" font-size="10.00">Matrix.cc</text>
</a>
</g>
</g>
<!-- Node1&#45;&gt;Node2 -->
<g id="edge1_Node000001_Node000002" class="edge">
<title>Node1&#45;&gt;Node2</title>
<g id="a_edge1_Node000001_Node000002"><a xlink:title=" ">
<path fill="none" stroke="#63b8ff" d="M178.81,-71.37C164.24,-61.53 147.79,-50.41 134.12,-41.17"/>
<polygon fill="#63b8ff" stroke="#63b8ff" points="176.88,-74.29 187.13,-76.99 180.8,-68.49 176.88,-74.29"/>
</a>
</g>
</g>
<!-- Node3 -->
<g id="Node000003" class="node">
<title>Node3</title>
<g id="a_Node000003"><a xlink:href="isConstantLabeledSquareDoubleFLENumMatrixSymmetric_8cc.html" target="_top" xlink:title=" ">
<polygon fill="white" stroke="#666666" points="425.5,-41 228.5,-41 228.5,0 425.5,0 425.5,-41"/>
<text text-anchor="start" x="236.5" y="-29" font-family="Helvetica,sans-Serif" font-size="10.00">ematch_src/utils/FLArray</text>
<text text-anchor="start" x="236.5" y="-18" font-family="Helvetica,sans-Serif" font-size="10.00">/run/isConstantLabeledSquareDouble</text>
<text text-anchor="middle" x="327" y="-7" font-family="Helvetica,sans-Serif" font-size="10.00">FLENumMatrixSymmetric.cc</text>
</a>
</g>
</g>
<!-- Node1&#45;&gt;Node3 -->
<g id="edge2_Node000001_Node000003" class="edge">
<title>Node1&#45;&gt;Node3</title>
<g id="a_edge2_Node000001_Node000003"><a xlink:title=" ">
<path fill="none" stroke="#63b8ff" d="M253.19,-71.37C267.76,-61.53 284.21,-50.41 297.88,-41.17"/>
<polygon fill="#63b8ff" stroke="#63b8ff" points="251.2,-68.49 244.87,-76.99 255.12,-74.29 251.2,-68.49"/>
</a>
</g>
</g>
</g>
</svg>
