<?xml version="1.0" encoding="UTF-8" standalone="no"?>
<!DOCTYPE svg PUBLIC "-//W3C//DTD SVG 1.1//EN"
 "http://www.w3.org/Graphics/SVG/1.1/DTD/svg11.dtd">
<!-- Generated by graphviz version 2.43.0 (0)
 -->
<!-- Title: ematch_src/utils/sequence/ResidueIndexMap/ResidueIndexWindow/ConstResidueIndexSequenceBoundaries.hh Pages: 1 -->
<!--zoomable 280 -->

<svg id="main" version="1.1" xmlns="http://www.w3.org/2000/svg" xmlns:xlink="http://www.w3.org/1999/xlink" xml:space="preserve" onload="init(evt)">
<style type="text/css"><![CDATA[
.node, .edge {opacity: 0.7;}
.node.selected, .edge.selected {opacity: 1;}
.edge:hover path { stroke: red; }
.edge:hover polygon { stroke: red; fill: red; }
]]></style>

<defs>
  <circle id="rim" cx="0" cy="0" r="7"/>
  <circle id="rim2" cx="0" cy="0" r="3.5"/>
  <g id="zoomPlus">
    <use xlink:href="#rim" fill="#404040"><set attributeName="fill" to="#808080" begin="zoomplus.mouseover" end="zoomplus.mouseout"/></use>
    <path d="M-4,0h8M0,-4v8" fill="none" stroke="white" stroke-width="1.5" pointer-events="none"/>
  </g>
  <g id="zoomMin">
    <use xlink:href="#rim" fill="#404040"><set attributeName="fill" to="#808080" begin="zoomminus.mouseover" end="zoomminus.mouseout"/></use>
    <path d="M-4,0h8" fill="none" stroke="white" stroke-width="1.5" pointer-events="none"/>
  </g>
  <g id="arrowUp" transform="translate(30 24)">
    <use xlink:href="#rim"/>
    <path pointer-events="none" fill="none" stroke="white" stroke-width="1.5" d="M0,-3.0v7 M-2.5,-0.5L0,-3.0L2.5,-0.5"/>
  </g>
  <g id="arrowRight" transform="rotate(90) translate(36 -43)">
    <use xlink:href="#rim"/>
    <path pointer-events="none" fill="none" stroke="white" stroke-width="1.5" d="M0,-3.0v7 M-2.5,-0.5L0,-3.0L2.5,-0.5"/>
  </g>
  <g id="arrowDown" transform="rotate(180) translate(-30 -48)">
    <use xlink:href="#rim"/>
    <path pointer-events="none" fill="none" stroke="white" stroke-width="1.5" d="M0,-3.0v7 M-2.5,-0.5L0,-3.0L2.5,-0.5"/>
  </g>
  <g id="arrowLeft" transform="rotate(270) translate(-36 17)">
    <use xlink:href="#rim"/>
    <path pointer-events="none" fill="none" stroke="white" stroke-width="1.5" d="M0,-3.0v7 M-2.5,-0.5L0,-3.0L2.5,-0.5"/>
  </g>
  <g id="resetDef">
    <use xlink:href="#rim2" fill="#404040"><set attributeName="fill" to="#808080" begin="reset.mouseover" end="reset.mouseout"/></use>
  </g>
</defs>
<script type="application/ecmascript">
var viewWidth = 655;
var viewHeight = 280;
var sectionId = 'dynsection-1';
</script>
<script type="application/ecmascript" xlink:href="svg.min.js"/>
<svg id="graph" class="graph">
<g id="viewport">
<title>ematch_src/utils/sequence/ResidueIndexMap/ResidueIndexWindow/ConstResidueIndexSequenceBoundaries.hh</title>
<!-- Node1 -->
<g id="Node000001" class="node">
<title>Node1</title>
<g id="a_Node000001"><a xlink:title=" ">
<polygon fill="#999999" stroke="#666666" points="546.5,-272 316.5,-272 316.5,-231 546.5,-231 546.5,-272"/>
<text text-anchor="start" x="324.5" y="-260" font-family="Helvetica,sans-Serif" font-size="10.00">ematch_src/utils/sequence</text>
<text text-anchor="start" x="324.5" y="-249" font-family="Helvetica,sans-Serif" font-size="10.00">/ResidueIndexMap/ResidueIndexWindow</text>
<text text-anchor="middle" x="431.5" y="-238" font-family="Helvetica,sans-Serif" font-size="10.00">/ConstResidueIndexSequenceBoundaries.hh</text>
</a>
</g>
</g>
<!-- Node2 -->
<g id="Node000002" class="node">
<title>Node2</title>
<g id="a_Node000002"><a xlink:href="ResidueIndexWindow_8hh.html" target="_top" xlink:title=" ">
<polygon fill="white" stroke="#666666" points="471,-195 256,-195 256,-154 471,-154 471,-195"/>
<text text-anchor="start" x="264" y="-183" font-family="Helvetica,sans-Serif" font-size="10.00">ematch_src/utils/sequence</text>
<text text-anchor="start" x="264" y="-172" font-family="Helvetica,sans-Serif" font-size="10.00">/ResidueIndexMap/ResidueIndexWindow</text>
<text text-anchor="middle" x="363.5" y="-161" font-family="Helvetica,sans-Serif" font-size="10.00">/ResidueIndexWindow.hh</text>
</a>
</g>
</g>
<!-- Node1&#45;&gt;Node2 -->
<g id="edge1_Node000001_Node000002" class="edge">
<title>Node1&#45;&gt;Node2</title>
<g id="a_edge1_Node000001_Node000002"><a xlink:title=" ">
<path fill="none" stroke="#63b8ff" d="M406.78,-223.23C398.32,-213.91 389.04,-203.67 381.25,-195.07"/>
<polygon fill="#63b8ff" stroke="#63b8ff" points="404.32,-225.74 413.63,-230.79 409.51,-221.04 404.32,-225.74"/>
</a>
</g>
</g>
<!-- Node4 -->
<g id="Node000004" class="node">
<title>Node4</title>
<g id="a_Node000004"><a xlink:href="ResidueIndexWindowFactory_8hh.html" target="_top" xlink:title=" ">
<polygon fill="white" stroke="#666666" points="647,-118 432,-118 432,-77 647,-77 647,-118"/>
<text text-anchor="start" x="440" y="-106" font-family="Helvetica,sans-Serif" font-size="10.00">ematch_src/utils/sequence</text>
<text text-anchor="start" x="440" y="-95" font-family="Helvetica,sans-Serif" font-size="10.00">/ResidueIndexMap/ResidueIndexWindow</text>
<text text-anchor="middle" x="539.5" y="-84" font-family="Helvetica,sans-Serif" font-size="10.00">/ResidueIndexWindowFactory.hh</text>
</a>
</g>
</g>
<!-- Node1&#45;&gt;Node4 -->
<g id="edge6_Node000001_Node000004" class="edge">
<title>Node1&#45;&gt;Node4</title>
<g id="a_edge6_Node000001_Node000004"><a xlink:title=" ">
<path fill="none" stroke="#63b8ff" d="M457.25,-223.25C465.06,-214.49 473.43,-204.58 480.5,-195 499.16,-169.72 517.54,-138.35 528.71,-118.37"/>
<polygon fill="#63b8ff" stroke="#63b8ff" points="454.42,-221.15 450.3,-230.91 459.61,-225.86 454.42,-221.15"/>
</a>
</g>
</g>
<!-- Node3 -->
<g id="Node000003" class="node">
<title>Node3</title>
<g id="a_Node000003"><a xlink:href="ResidueIndexWindow_8cc.html" target="_top" xlink:title=" ">
<polygon fill="white" stroke="#666666" points="215,-118 0,-118 0,-77 215,-77 215,-118"/>
<text text-anchor="start" x="8" y="-106" font-family="Helvetica,sans-Serif" font-size="10.00">ematch_src/utils/sequence</text>
<text text-anchor="start" x="8" y="-95" font-family="Helvetica,sans-Serif" font-size="10.00">/ResidueIndexMap/ResidueIndexWindow</text>
<text text-anchor="middle" x="107.5" y="-84" font-family="Helvetica,sans-Serif" font-size="10.00">/ResidueIndexWindow.cc</text>
</a>
</g>
</g>
<!-- Node2&#45;&gt;Node3 -->
<g id="edge2_Node000002_Node000003" class="edge">
<title>Node2&#45;&gt;Node3</title>
<g id="a_edge2_Node000002_Node000003"><a xlink:title=" ">
<path fill="none" stroke="#63b8ff" d="M286.97,-151.08C251.1,-140.57 208.75,-128.16 174.2,-118.04"/>
<polygon fill="#63b8ff" stroke="#63b8ff" points="286.33,-154.54 296.91,-153.99 288.29,-147.82 286.33,-154.54"/>
</a>
</g>
</g>
<!-- Node2&#45;&gt;Node4 -->
<g id="edge3_Node000002_Node000004" class="edge">
<title>Node2&#45;&gt;Node4</title>
<g id="a_edge3_Node000002_Node000004"><a xlink:title=" ">
<path fill="none" stroke="#63b8ff" d="M418.66,-150C442.76,-139.72 470.7,-127.82 493.64,-118.04"/>
<polygon fill="#63b8ff" stroke="#63b8ff" points="417.11,-146.85 409.28,-153.99 419.85,-153.29 417.11,-146.85"/>
</a>
</g>
</g>
<!-- Node5 -->
<g id="Node000005" class="node">
<title>Node5</title>
<g id="a_Node000005"><a xlink:href="ResiduesIndexMap_8hh.html" target="_top" xlink:title=" ">
<polygon fill="white" stroke="#666666" points="414,-118 233,-118 233,-77 414,-77 414,-118"/>
<text text-anchor="start" x="241" y="-106" font-family="Helvetica,sans-Serif" font-size="10.00">ematch_src/utils/sequence</text>
<text text-anchor="start" x="241" y="-95" font-family="Helvetica,sans-Serif" font-size="10.00">/ResidueIndexMap/ResiduesIndex</text>
<text text-anchor="middle" x="323.5" y="-84" font-family="Helvetica,sans-Serif" font-size="10.00">Map.hh</text>
</a>
</g>
</g>
<!-- Node2&#45;&gt;Node5 -->
<g id="edge4_Node000002_Node000005" class="edge">
<title>Node2&#45;&gt;Node5</title>
<g id="a_edge4_Node000002_Node000005"><a xlink:title=" ">
<path fill="none" stroke="#63b8ff" d="M348.21,-144.83C343.44,-135.89 338.29,-126.24 333.94,-118.07"/>
<polygon fill="#63b8ff" stroke="#63b8ff" points="345.2,-146.62 352.99,-153.79 351.37,-143.32 345.2,-146.62"/>
</a>
</g>
</g>
<!-- Node6 -->
<g id="Node000006" class="node">
<title>Node6</title>
<g id="a_Node000006"><a xlink:href="ResiduesIndexMap_8cc.html" target="_top" xlink:title=" ">
<polygon fill="white" stroke="#666666" points="414,-41 233,-41 233,0 414,0 414,-41"/>
<text text-anchor="start" x="241" y="-29" font-family="Helvetica,sans-Serif" font-size="10.00">ematch_src/utils/sequence</text>
<text text-anchor="start" x="241" y="-18" font-family="Helvetica,sans-Serif" font-size="10.00">/ResidueIndexMap/ResiduesIndex</text>
<text text-anchor="middle" x="323.5" y="-7" font-family="Helvetica,sans-Serif" font-size="10.00">Map.cc</text>
</a>
</g>
</g>
<!-- Node5&#45;&gt;Node6 -->
<g id="edge5_Node000005_Node000006" class="edge">
<title>Node5&#45;&gt;Node6</title>
<g id="a_edge5_Node000005_Node000006"><a xlink:title=" ">
<path fill="none" stroke="#63b8ff" d="M323.5,-66.69C323.5,-58.08 323.5,-48.9 323.5,-41.07"/>
<polygon fill="#63b8ff" stroke="#63b8ff" points="320,-66.79 323.5,-76.79 327,-66.79 320,-66.79"/>
</a>
</g>
</g>
</g>
</svg>

<g id="navigator" transform="translate(0 0)" fill="#404254">
  <rect fill="#f2f5e9" fill-opacity="0.5" stroke="#606060" stroke-width=".5" x="0" y="0" width="60" height="60"/>
  <use id="zoomplus" xlink:href="#zoomPlus" x="17" y="9" onmousedown="handleZoom(evt,'in')"/>
  <use id="zoomminus" xlink:href="#zoomMin" x="42" y="9" onmousedown="handleZoom(evt,'out')"/>
  <use id="reset" xlink:href="#resetDef" x="30" y="36" onmousedown="handleReset()"/>
   <use id="arrowup" xlink:href="#arrowUp" x="0" y="0" onmousedown="handlePan(0,-1)"/>
  <use id="arrowright" xlink:href="#arrowRight" x="0" y="0" onmousedown="handlePan(1,0)"/>
  <use id="arrowdown" xlink:href="#arrowDown" x="0" y="0" onmousedown="handlePan(0,1)"/>
  <use id="arrowleft" xlink:href="#arrowLeft" x="0" y="0" onmousedown="handlePan(-1,0)"/>
</g>
<svg viewBox="0 0 15 15" width="100%" height="30px" preserveAspectRatio="xMaxYMin meet">
 <g id="arrow_out" transform="scale(0.3 0.3)">
  <a xlink:href="ConstResidueIndexSequenceBoundaries_8hh__dep__incl_org.svg" target="_base">
   <rect id="button" ry="5" rx="5" y="6" x="6" height="38" width="38"
        fill="#f2f5e9" fill-opacity="0.5" stroke="#606060" stroke-width="1.0"/>
   <path id="arrow"
     d="M 11.500037,31.436501 C 11.940474,20.09759 22.043105,11.32322 32.158766,21.979434 L 37.068811,17.246167 C 37.068811,17.246167 37.088388,32 37.088388,32 L 22.160133,31.978069 C 22.160133,31.978069 26.997745,27.140456 26.997745,27.140456 C 18.528582,18.264221 13.291696,25.230495 11.500037,31.436501 z"
     style="fill:#404040;"/>
  </a>
 </g>
</svg>

<style type='text/css'>
<![CDATA[
[data-mouse-over-selected='false'] { opacity: 0.7; }
[data-mouse-over-selected='true']  { opacity: 1.0; }
]]>
</style>
<script type="application/ecmascript"><![CDATA[
document.addEventListener('DOMContentLoaded', (event) => {
  highlightEdges();
  highlightAdjacentNodes();
});
]]></script>
</svg>
