<?xml version="1.0" encoding="UTF-8" standalone="no"?>
<!DOCTYPE svg PUBLIC "-//W3C//DTD SVG 1.1//EN"
 "http://www.w3.org/Graphics/SVG/1.1/DTD/svg11.dtd">
<!-- Generated by graphviz version 2.43.0 (0)
 -->
<!-- Title: ematch_src/utils/FLArray/ConstantLabeledSquareDoubleFLENumMatrix.hh Pages: 1 -->
<svg width="1547pt" height="346pt"
 viewBox="0.00 0.00 1547.00 346.00" xmlns="http://www.w3.org/2000/svg" xmlns:xlink="http://www.w3.org/1999/xlink">
<g id="graph0" class="graph" transform="scale(1 1) rotate(0) translate(4 342)">
<title>ematch_src/utils/FLArray/ConstantLabeledSquareDoubleFLENumMatrix.hh</title>
<!-- Node1 -->
<g id="Node000001" class="node">
<title>Node1</title>
<g id="a_Node000001"><a xlink:title=" ">
<polygon fill="#999999" stroke="#666666" points="947,-338 737,-338 737,-297 947,-297 947,-338"/>
<text text-anchor="start" x="745" y="-326" font-family="Helvetica,sans-Serif" font-size="10.00">ematch_src/utils/FLArray</text>
<text text-anchor="start" x="745" y="-315" font-family="Helvetica,sans-Serif" font-size="10.00">/ConstantLabeledSquareDoubleFLENum</text>
<text text-anchor="middle" x="842" y="-304" font-family="Helvetica,sans-Serif" font-size="10.00">Matrix.hh</text>
</a>
</g>
</g>
<!-- Node2 -->
<g id="Node000002" class="node">
<title>Node2</title>
<g id="a_Node000002"><a xlink:title=" ">
<polygon fill="#e0e0e0" stroke="#999999" points="1280.5,-19 1233.5,-19 1233.5,0 1280.5,0 1280.5,-19"/>
<text text-anchor="middle" x="1257" y="-7" font-family="Helvetica,sans-Serif" font-size="10.00">vector</text>
</a>
</g>
</g>
<!-- Node1&#45;&gt;Node2 -->
<g id="edge1_Node000001_Node000002" class="edge">
<title>Node1&#45;&gt;Node2</title>
<g id="a_edge1_Node000001_Node000002"><a xlink:title=" ">
<path fill="none" stroke="#63b8ff" d="M947.02,-304.78C1094.54,-286.31 1352.86,-246.04 1422,-184 1464.67,-145.71 1463.2,-93.81 1421,-55 1402.08,-37.6 1332.95,-23.27 1290.71,-15.9"/>
<polygon fill="#63b8ff" stroke="#63b8ff" points="1291.05,-12.4 1280.6,-14.17 1289.87,-19.3 1291.05,-12.4"/>
</a>
</g>
</g>
<!-- Node3 -->
<g id="Node000003" class="node">
<title>Node3</title>
<g id="a_Node000003"><a xlink:title=" ">
<polygon fill="#e0e0e0" stroke="#999999" points="1371,-19 1327,-19 1327,0 1371,0 1371,-19"/>
<text text-anchor="middle" x="1349" y="-7" font-family="Helvetica,sans-Serif" font-size="10.00">string</text>
</a>
</g>
</g>
<!-- Node1&#45;&gt;Node3 -->
<g id="edge2_Node000001_Node000003" class="edge">
<title>Node1&#45;&gt;Node3</title>
<g id="a_edge2_Node000001_Node000003"><a xlink:title=" ">
<path fill="none" stroke="#63b8ff" d="M947.1,-316.74C1141.82,-314.33 1539,-294.79 1539,-175.5 1539,-175.5 1539,-175.5 1539,-118.5 1539,-46.82 1435.54,-22.12 1381.31,-14.1"/>
<polygon fill="#63b8ff" stroke="#63b8ff" points="1381.55,-10.6 1371.17,-12.71 1380.6,-17.53 1381.55,-10.6"/>
</a>
</g>
</g>
<!-- Node4 -->
<g id="Node000004" class="node">
<title>Node4</title>
<g id="a_Node000004"><a xlink:href="ematch__src_2utils_2gdb_2gdbUtils_8hh.html" target="_top" xlink:title=" ">
<polygon fill="white" stroke="#666666" points="189.5,-74 72.5,-74 72.5,-55 189.5,-55 189.5,-74"/>
<text text-anchor="middle" x="131" y="-62" font-family="Helvetica,sans-Serif" font-size="10.00">utils/gdb/gdbUtils.hh</text>
</a>
</g>
</g>
<!-- Node1&#45;&gt;Node4 -->
<g id="edge3_Node000001_Node000004" class="edge">
<title>Node1&#45;&gt;Node4</title>
<g id="a_edge3_Node000001_Node000004"><a xlink:title=" ">
<path fill="none" stroke="#63b8ff" d="M736.9,-309.64C617.5,-298.01 420.05,-266.88 272,-184 220.64,-155.25 170.24,-106.58 145.97,-81.5"/>
<polygon fill="#63b8ff" stroke="#63b8ff" points="148.48,-79.05 139.04,-74.24 143.42,-83.89 148.48,-79.05"/>
</a>
</g>
</g>
<!-- Node10 -->
<g id="Node000010" class="node">
<title>Node10</title>
<g id="a_Node000010"><a xlink:href="FLEMatrix_8hh.html" target="_top" xlink:title=" ">
<polygon fill="white" stroke="#666666" points="658,-250 512,-250 512,-231 658,-231 658,-250"/>
<text text-anchor="middle" x="585" y="-238" font-family="Helvetica,sans-Serif" font-size="10.00">utils/FLArray/FLEMatrix.hh</text>
</a>
</g>
</g>
<!-- Node1&#45;&gt;Node10 -->
<g id="edge9_Node000001_Node000010" class="edge">
<title>Node1&#45;&gt;Node10</title>
<g id="a_edge9_Node000001_Node000010"><a xlink:title=" ">
<path fill="none" stroke="#63b8ff" d="M775.15,-296.99C727.16,-282.99 664.14,-264.6 624.09,-252.91"/>
<polygon fill="#63b8ff" stroke="#63b8ff" points="625.01,-249.53 614.43,-250.09 623.05,-256.25 625.01,-249.53"/>
</a>
</g>
</g>
<!-- Node22 -->
<g id="Node000022" class="node">
<title>Node22</title>
<g id="a_Node000022"><a xlink:href="SerialNumbersForStrings_8hh.html" target="_top" xlink:title=" ">
<polygon fill="white" stroke="#666666" points="919.5,-261 764.5,-261 764.5,-220 919.5,-220 919.5,-261"/>
<text text-anchor="start" x="772.5" y="-249" font-family="Helvetica,sans-Serif" font-size="10.00">utils/serialNumbers</text>
<text text-anchor="start" x="772.5" y="-238" font-family="Helvetica,sans-Serif" font-size="10.00">/SerialNumbersForStrings</text>
<text text-anchor="middle" x="842" y="-227" font-family="Helvetica,sans-Serif" font-size="10.00">/SerialNumbersForStrings.hh</text>
</a>
</g>
</g>
<!-- Node1&#45;&gt;Node22 -->
<g id="edge36_Node000001_Node000022" class="edge">
<title>Node1&#45;&gt;Node22</title>
<g id="a_edge36_Node000001_Node000022"><a xlink:title=" ">
<path fill="none" stroke="#63b8ff" d="M842,-296.79C842,-288.96 842,-279.77 842,-271.16"/>
<polygon fill="#63b8ff" stroke="#63b8ff" points="845.5,-271.07 842,-261.07 838.5,-271.07 845.5,-271.07"/>
</a>
</g>
</g>
<!-- Node5 -->
<g id="Node000005" class="node">
<title>Node5</title>
<g id="a_Node000005"><a xlink:title=" ">
<polygon fill="#e0e0e0" stroke="#999999" points="123.5,-19 70.5,-19 70.5,0 123.5,0 123.5,-19"/>
<text text-anchor="middle" x="97" y="-7" font-family="Helvetica,sans-Serif" font-size="10.00">cstdarg</text>
</a>
</g>
</g>
<!-- Node4&#45;&gt;Node5 -->
<g id="edge4_Node000004_Node000005" class="edge">
<title>Node4&#45;&gt;Node5</title>
<g id="a_edge4_Node000004_Node000005"><a xlink:title=" ">
<path fill="none" stroke="#63b8ff" d="M125.39,-54.75C120.68,-47.42 113.83,-36.73 108.03,-27.7"/>
<polygon fill="#63b8ff" stroke="#63b8ff" points="110.86,-25.62 102.51,-19.09 104.96,-29.4 110.86,-25.62"/>
</a>
</g>
</g>
<!-- Node6 -->
<g id="Node000006" class="node">
<title>Node6</title>
<g id="a_Node000006"><a xlink:title=" ">
<polygon fill="#e0e0e0" stroke="#999999" points="539,-19 479,-19 479,0 539,0 539,-19"/>
<text text-anchor="middle" x="509" y="-7" font-family="Helvetica,sans-Serif" font-size="10.00">iostream</text>
</a>
</g>
</g>
<!-- Node4&#45;&gt;Node6 -->
<g id="edge5_Node000004_Node000006" class="edge">
<title>Node4&#45;&gt;Node6</title>
<g id="a_edge5_Node000004_Node000006"><a xlink:title=" ">
<path fill="none" stroke="#63b8ff" d="M189.65,-55.28C267.2,-44.4 401.85,-25.52 468.8,-16.14"/>
<polygon fill="#63b8ff" stroke="#63b8ff" points="469.53,-19.57 478.95,-14.71 468.56,-12.64 469.53,-19.57"/>
</a>
</g>
</g>
<!-- Node7 -->
<g id="Node000007" class="node">
<title>Node7</title>
<g id="a_Node000007"><a xlink:title=" ">
<polygon fill="#e0e0e0" stroke="#999999" points="190.5,-19 141.5,-19 141.5,0 190.5,0 190.5,-19"/>
<text text-anchor="middle" x="166" y="-7" font-family="Helvetica,sans-Serif" font-size="10.00">cstdlib</text>
</a>
</g>
</g>
<!-- Node4&#45;&gt;Node7 -->
<g id="edge6_Node000004_Node000007" class="edge">
<title>Node4&#45;&gt;Node7</title>
<g id="a_edge6_Node000004_Node000007"><a xlink:title=" ">
<path fill="none" stroke="#63b8ff" d="M136.78,-54.75C141.62,-47.42 148.68,-36.73 154.64,-27.7"/>
<polygon fill="#63b8ff" stroke="#63b8ff" points="157.74,-29.36 160.33,-19.09 151.9,-25.5 157.74,-29.36"/>
</a>
</g>
</g>
<!-- Node8 -->
<g id="Node000008" class="node">
<title>Node8</title>
<g id="a_Node000008"><a xlink:title=" ">
<polygon fill="#e0e0e0" stroke="#999999" points="255,-19 209,-19 209,0 255,0 255,-19"/>
<text text-anchor="middle" x="232" y="-7" font-family="Helvetica,sans-Serif" font-size="10.00">cstdio</text>
</a>
</g>
</g>
<!-- Node4&#45;&gt;Node8 -->
<g id="edge7_Node000004_Node000008" class="edge">
<title>Node4&#45;&gt;Node8</title>
<g id="a_edge7_Node000004_Node000008"><a xlink:title=" ">
<path fill="none" stroke="#63b8ff" d="M147.23,-54.98C163.18,-46.61 187.78,-33.7 206.38,-23.95"/>
<polygon fill="#63b8ff" stroke="#63b8ff" points="208.25,-26.92 215.48,-19.17 205,-20.72 208.25,-26.92"/>
</a>
</g>
</g>
<!-- Node9 -->
<g id="Node000009" class="node">
<title>Node9</title>
<g id="a_Node000009"><a xlink:title=" ">
<polygon fill="#e0e0e0" stroke="#999999" points="52,-19 0,-19 0,0 52,0 52,-19"/>
<text text-anchor="middle" x="26" y="-7" font-family="Helvetica,sans-Serif" font-size="10.00">cassert</text>
</a>
</g>
</g>
<!-- Node4&#45;&gt;Node9 -->
<g id="edge8_Node000004_Node000009" class="edge">
<title>Node4&#45;&gt;Node9</title>
<g id="a_edge8_Node000004_Node000009"><a xlink:title=" ">
<path fill="none" stroke="#63b8ff" d="M114.13,-54.98C97.39,-46.54 71.5,-33.47 52.11,-23.68"/>
<polygon fill="#63b8ff" stroke="#63b8ff" points="53.68,-20.55 43.18,-19.17 50.53,-26.8 53.68,-20.55"/>
</a>
</g>
</g>
<!-- Node10&#45;&gt;Node2 -->
<g id="edge11_Node000010_Node000002" class="edge">
<title>Node10&#45;&gt;Node2</title>
<g id="a_edge11_Node000010_Node000002"><a xlink:title=" ">
<path fill="none" stroke="#63b8ff" d="M651.78,-230.97C719.93,-221.68 828.52,-205.26 921,-184 1088.61,-145.47 1189.12,-211.82 1292,-74 1303.33,-58.82 1289.25,-39.55 1275.72,-26.24"/>
<polygon fill="#63b8ff" stroke="#63b8ff" points="1277.74,-23.35 1268.01,-19.17 1273.01,-28.51 1277.74,-23.35"/>
</a>
</g>
</g>
<!-- Node10&#45;&gt;Node6 -->
<g id="edge12_Node000010_Node000006" class="edge">
<title>Node10&#45;&gt;Node6</title>
<g id="a_edge12_Node000010_Node000006"><a xlink:title=" ">
<path fill="none" stroke="#63b8ff" d="M526.97,-230.98C433.68,-215.86 257.58,-180.97 226,-129 170.19,-37.16 378.14,-16.48 468.76,-11.84"/>
<polygon fill="#63b8ff" stroke="#63b8ff" points="469.12,-15.32 478.95,-11.36 468.79,-8.33 469.12,-15.32"/>
</a>
</g>
</g>
<!-- Node11 -->
<g id="Node000011" class="node">
<title>Node11</title>
<g id="a_Node000011"><a xlink:title=" ">
<polygon fill="#e0e0e0" stroke="#999999" points="593,-74 537,-74 537,-55 593,-55 593,-74"/>
<text text-anchor="middle" x="565" y="-62" font-family="Helvetica,sans-Serif" font-size="10.00">assert.h</text>
</a>
</g>
</g>
<!-- Node10&#45;&gt;Node11 -->
<g id="edge10_Node000010_Node000011" class="edge">
<title>Node10&#45;&gt;Node11</title>
<g id="a_edge10_Node000010_Node000011"><a xlink:title=" ">
<path fill="none" stroke="#63b8ff" d="M583.98,-230.63C580.86,-203.52 571.42,-121.32 567.14,-84.13"/>
<polygon fill="#63b8ff" stroke="#63b8ff" points="570.61,-83.68 565.99,-74.14 563.66,-84.48 570.61,-83.68"/>
</a>
</g>
</g>
<!-- Node12 -->
<g id="Node000012" class="node">
<title>Node12</title>
<g id="a_Node000012"><a xlink:href="ematch__src_2utils_2FLArray_2FLEArray_8hh.html" target="_top" xlink:title=" ">
<polygon fill="white" stroke="#666666" points="480.5,-184 341.5,-184 341.5,-165 480.5,-165 480.5,-184"/>
<text text-anchor="middle" x="411" y="-172" font-family="Helvetica,sans-Serif" font-size="10.00">utils/FLArray/FLEArray.hh</text>
</a>
</g>
</g>
<!-- Node10&#45;&gt;Node12 -->
<g id="edge13_Node000010_Node000012" class="edge">
<title>Node10&#45;&gt;Node12</title>
<g id="a_edge13_Node000010_Node000012"><a xlink:title=" ">
<path fill="none" stroke="#63b8ff" d="M561.53,-230.87C531.22,-219.72 478.29,-200.25 443.96,-187.62"/>
<polygon fill="#63b8ff" stroke="#63b8ff" points="444.97,-184.26 434.37,-184.1 442.55,-190.83 444.97,-184.26"/>
</a>
</g>
</g>
<!-- Node12&#45;&gt;Node2 -->
<g id="edge15_Node000012_Node000002" class="edge">
<title>Node12&#45;&gt;Node2</title>
<g id="a_edge15_Node000012_Node000002"><a xlink:title=" ">
<path fill="none" stroke="#63b8ff" d="M480.55,-173.35C610.69,-171.01 898.18,-156.05 1123,-74 1128.43,-72.02 1192.1,-41.61 1229.68,-23.6"/>
<polygon fill="#63b8ff" stroke="#63b8ff" points="1231.57,-26.58 1239.08,-19.1 1228.54,-20.27 1231.57,-26.58"/>
</a>
</g>
</g>
<!-- Node12&#45;&gt;Node4 -->
<g id="edge19_Node000012_Node000004" class="edge">
<title>Node12&#45;&gt;Node4</title>
<g id="a_edge19_Node000012_Node000004"><a xlink:title=" ">
<path fill="none" stroke="#63b8ff" d="M353.04,-164.98C315.7,-158.2 266.7,-146.82 226,-129 197.11,-116.35 167.46,-94.92 149.14,-80.5"/>
<polygon fill="#63b8ff" stroke="#63b8ff" points="151.1,-77.58 141.11,-74.05 146.72,-83.04 151.1,-77.58"/>
</a>
</g>
</g>
<!-- Node12&#45;&gt;Node6 -->
<g id="edge16_Node000012_Node000006" class="edge">
<title>Node12&#45;&gt;Node6</title>
<g id="a_edge16_Node000012_Node000006"><a xlink:title=" ">
<path fill="none" stroke="#63b8ff" d="M420.06,-164.91C428.73,-156.37 441.82,-142.6 451,-129 473.33,-95.91 492.14,-52.94 501.87,-28.89"/>
<polygon fill="#63b8ff" stroke="#63b8ff" points="505.25,-29.86 505.69,-19.27 498.75,-27.28 505.25,-29.86"/>
</a>
</g>
</g>
<!-- Node12&#45;&gt;Node11 -->
<g id="edge14_Node000012_Node000011" class="edge">
<title>Node12&#45;&gt;Node11</title>
<g id="a_edge14_Node000012_Node000011"><a xlink:title=" ">
<path fill="none" stroke="#63b8ff" d="M426.67,-164.86C441.91,-156.28 465.53,-142.49 485,-129 507.13,-113.66 531.16,-94.17 547.05,-80.85"/>
<polygon fill="#63b8ff" stroke="#63b8ff" points="549.59,-83.29 554.97,-74.16 545.07,-77.94 549.59,-83.29"/>
</a>
</g>
</g>
<!-- Node13 -->
<g id="Node000013" class="node">
<title>Node13</title>
<g id="a_Node000013"><a xlink:title=" ">
<polygon fill="#e0e0e0" stroke="#999999" points="299,-129 235,-129 235,-110 299,-110 299,-129"/>
<text text-anchor="middle" x="267" y="-117" font-family="Helvetica,sans-Serif" font-size="10.00">algorithm</text>
</a>
</g>
</g>
<!-- Node12&#45;&gt;Node13 -->
<g id="edge17_Node000012_Node000013" class="edge">
<title>Node12&#45;&gt;Node13</title>
<g id="a_edge17_Node000012_Node000013"><a xlink:title=" ">
<path fill="none" stroke="#63b8ff" d="M387.86,-164.98C364.18,-156.27 327.13,-142.63 300.29,-132.75"/>
<polygon fill="#63b8ff" stroke="#63b8ff" points="301.15,-129.34 290.56,-129.17 298.73,-135.91 301.15,-129.34"/>
</a>
</g>
</g>
<!-- Node14 -->
<g id="Node000014" class="node">
<title>Node14</title>
<g id="a_Node000014"><a xlink:title=" ">
<polygon fill="#e0e0e0" stroke="#999999" points="442.5,-129 317.5,-129 317.5,-110 442.5,-110 442.5,-129"/>
<text text-anchor="middle" x="380" y="-117" font-family="Helvetica,sans-Serif" font-size="10.00">boost/lexical_cast.hpp</text>
</a>
</g>
</g>
<!-- Node12&#45;&gt;Node14 -->
<g id="edge18_Node000012_Node000014" class="edge">
<title>Node12&#45;&gt;Node14</title>
<g id="a_edge18_Node000012_Node000014"><a xlink:title=" ">
<path fill="none" stroke="#63b8ff" d="M405.88,-164.75C401.64,-157.49 395.47,-146.95 390.22,-137.98"/>
<polygon fill="#63b8ff" stroke="#63b8ff" points="393.09,-135.95 385.02,-129.09 387.05,-139.49 393.09,-135.95"/>
</a>
</g>
</g>
<!-- Node15 -->
<g id="Node000015" class="node">
<title>Node15</title>
<g id="a_Node000015"><a xlink:href="ematch__src_2utils_2perlish_2perlish_8hh.html" target="_top" xlink:title=" ">
<polygon fill="white" stroke="#666666" points="904.5,-129 779.5,-129 779.5,-110 904.5,-110 904.5,-129"/>
<text text-anchor="middle" x="842" y="-117" font-family="Helvetica,sans-Serif" font-size="10.00">utils/perlish/perlish.hh</text>
</a>
</g>
</g>
<!-- Node12&#45;&gt;Node15 -->
<g id="edge20_Node000012_Node000015" class="edge">
<title>Node12&#45;&gt;Node15</title>
<g id="a_edge20_Node000012_Node000015"><a xlink:title=" ">
<path fill="none" stroke="#63b8ff" d="M480.25,-164.98C559.43,-155.25 688.5,-139.38 769.16,-129.46"/>
<polygon fill="#63b8ff" stroke="#63b8ff" points="769.73,-132.91 779.23,-128.22 768.88,-125.97 769.73,-132.91"/>
</a>
</g>
</g>
<!-- Node15&#45;&gt;Node2 -->
<g id="edge26_Node000015_Node000002" class="edge">
<title>Node15&#45;&gt;Node2</title>
<g id="a_edge26_Node000015_Node000002"><a xlink:title=" ">
<path fill="none" stroke="#63b8ff" d="M904.64,-111.34C954.94,-104.6 1027,-92.7 1088,-74 1107.98,-67.88 1111.58,-62.71 1131,-55 1162.03,-42.69 1197.99,-30.16 1223.53,-21.54"/>
<polygon fill="#63b8ff" stroke="#63b8ff" points="1224.74,-24.83 1233.11,-18.33 1222.52,-18.19 1224.74,-24.83"/>
</a>
</g>
</g>
<!-- Node15&#45;&gt;Node3 -->
<g id="edge25_Node000015_Node000003" class="edge">
<title>Node15&#45;&gt;Node3</title>
<g id="a_edge25_Node000015_Node000003"><a xlink:title=" ">
<path fill="none" stroke="#63b8ff" d="M904.74,-117.84C1012.08,-115.8 1225.82,-107.53 1292,-74 1312.16,-63.78 1328.54,-43.19 1338.48,-28.22"/>
<polygon fill="#63b8ff" stroke="#63b8ff" points="1341.69,-29.68 1344.06,-19.35 1335.77,-25.95 1341.69,-29.68"/>
</a>
</g>
</g>
<!-- Node15&#45;&gt;Node4 -->
<g id="edge29_Node000015_Node000004" class="edge">
<title>Node15&#45;&gt;Node4</title>
<g id="a_edge29_Node000015_Node000004"><a xlink:title=" ">
<path fill="none" stroke="#63b8ff" d="M779.22,-113.82C646.29,-103.91 337.36,-80.88 199.53,-70.61"/>
<polygon fill="#63b8ff" stroke="#63b8ff" points="199.74,-67.11 189.51,-69.86 199.22,-74.1 199.74,-67.11"/>
</a>
</g>
</g>
<!-- Node15&#45;&gt;Node6 -->
<g id="edge22_Node000015_Node000006" class="edge">
<title>Node15&#45;&gt;Node6</title>
<g id="a_edge22_Node000015_Node000006"><a xlink:title=" ">
<path fill="none" stroke="#63b8ff" d="M804.05,-109.93C770.49,-101.94 720.41,-89.03 678,-74 658.31,-67.02 654.42,-62.71 635,-55 604.92,-43.06 570.22,-30.92 544.85,-22.35"/>
<polygon fill="#63b8ff" stroke="#63b8ff" points="545.87,-19 535.28,-19.13 543.64,-25.63 545.87,-19"/>
</a>
</g>
</g>
<!-- Node15&#45;&gt;Node11 -->
<g id="edge27_Node000015_Node000011" class="edge">
<title>Node15&#45;&gt;Node11</title>
<g id="a_edge27_Node000015_Node000011"><a xlink:title=" ">
<path fill="none" stroke="#63b8ff" d="M797.5,-109.98C743.7,-99.69 654.08,-82.54 603.25,-72.82"/>
<polygon fill="#63b8ff" stroke="#63b8ff" points="603.81,-69.36 593.33,-70.92 602.49,-76.24 603.81,-69.36"/>
</a>
</g>
</g>
<!-- Node16 -->
<g id="Node000016" class="node">
<title>Node16</title>
<g id="a_Node000016"><a xlink:title=" ">
<polygon fill="#e0e0e0" stroke="#999999" points="740.5,-74 687.5,-74 687.5,-55 740.5,-55 740.5,-74"/>
<text text-anchor="middle" x="714" y="-62" font-family="Helvetica,sans-Serif" font-size="10.00">ctype.h</text>
</a>
</g>
</g>
<!-- Node15&#45;&gt;Node16 -->
<g id="edge21_Node000015_Node000016" class="edge">
<title>Node15&#45;&gt;Node16</title>
<g id="a_edge21_Node000015_Node000016"><a xlink:title=" ">
<path fill="none" stroke="#63b8ff" d="M821.43,-109.98C800.57,-101.34 768.03,-87.87 744.23,-78.02"/>
<polygon fill="#63b8ff" stroke="#63b8ff" points="745.52,-74.76 734.94,-74.17 742.84,-81.23 745.52,-74.76"/>
</a>
</g>
</g>
<!-- Node17 -->
<g id="Node000017" class="node">
<title>Node17</title>
<g id="a_Node000017"><a xlink:title=" ">
<polygon fill="#e0e0e0" stroke="#999999" points="813.5,-74 758.5,-74 758.5,-55 813.5,-55 813.5,-74"/>
<text text-anchor="middle" x="786" y="-62" font-family="Helvetica,sans-Serif" font-size="10.00">fstream</text>
</a>
</g>
</g>
<!-- Node15&#45;&gt;Node17 -->
<g id="edge23_Node000015_Node000017" class="edge">
<title>Node15&#45;&gt;Node17</title>
<g id="a_edge23_Node000015_Node000017"><a xlink:title=" ">
<path fill="none" stroke="#63b8ff" d="M833,-109.98C824.81,-102.23 812.49,-90.58 802.53,-81.14"/>
<polygon fill="#63b8ff" stroke="#63b8ff" points="804.83,-78.5 795.16,-74.17 800.02,-83.59 804.83,-78.5"/>
</a>
</g>
</g>
<!-- Node18 -->
<g id="Node000018" class="node">
<title>Node18</title>
<g id="a_Node000018"><a xlink:title=" ">
<polygon fill="#e0e0e0" stroke="#999999" points="1079,-74 1023,-74 1023,-55 1079,-55 1079,-74"/>
<text text-anchor="middle" x="1051" y="-62" font-family="Helvetica,sans-Serif" font-size="10.00">sstream</text>
</a>
</g>
</g>
<!-- Node15&#45;&gt;Node18 -->
<g id="edge24_Node000015_Node000018" class="edge">
<title>Node15&#45;&gt;Node18</title>
<g id="a_edge24_Node000015_Node000018"><a xlink:title=" ">
<path fill="none" stroke="#63b8ff" d="M875.58,-109.98C913.16,-100.46 973.9,-85.05 1013.14,-75.1"/>
<polygon fill="#63b8ff" stroke="#63b8ff" points="1014.03,-78.49 1022.86,-72.63 1012.31,-71.7 1014.03,-78.49"/>
</a>
</g>
</g>
<!-- Node19 -->
<g id="Node000019" class="node">
<title>Node19</title>
<g id="a_Node000019"><a xlink:title=" ">
<polygon fill="#e0e0e0" stroke="#999999" points="994.5,-19 899.5,-19 899.5,0 994.5,0 994.5,-19"/>
<text text-anchor="middle" x="947" y="-7" font-family="Helvetica,sans-Serif" font-size="10.00">boost/regex.hpp</text>
</a>
</g>
</g>
<!-- Node15&#45;&gt;Node19 -->
<g id="edge28_Node000015_Node000019" class="edge">
<title>Node15&#45;&gt;Node19</title>
<g id="a_edge28_Node000015_Node000019"><a xlink:title=" ">
<path fill="none" stroke="#63b8ff" d="M904.51,-113.6C931.04,-108.06 959.58,-96.76 976,-74 986.57,-59.35 975,-40.23 963.49,-26.82"/>
<polygon fill="#63b8ff" stroke="#63b8ff" points="965.89,-24.25 956.53,-19.29 960.75,-29.01 965.89,-24.25"/>
</a>
</g>
</g>
<!-- Node20 -->
<g id="Node000020" class="node">
<title>Node20</title>
<g id="a_Node000020"><a xlink:href="ematch__src_2utils_2stl_2stlTypes_8hh.html" target="_top" xlink:title=" ">
<polygon fill="white" stroke="#666666" points="1283,-74 1173,-74 1173,-55 1283,-55 1283,-74"/>
<text text-anchor="middle" x="1228" y="-62" font-family="Helvetica,sans-Serif" font-size="10.00">utils/stl/stlTypes.hh</text>
</a>
</g>
</g>
<!-- Node15&#45;&gt;Node20 -->
<g id="edge30_Node000015_Node000020" class="edge">
<title>Node15&#45;&gt;Node20</title>
<g id="a_edge30_Node000015_Node000020"><a xlink:title=" ">
<path fill="none" stroke="#63b8ff" d="M904.02,-109.98C974.81,-100.27 1090.11,-84.43 1162.37,-74.51"/>
<polygon fill="#63b8ff" stroke="#63b8ff" points="1163.28,-77.92 1172.71,-73.09 1162.32,-70.98 1163.28,-77.92"/>
</a>
</g>
</g>
<!-- Node21 -->
<g id="Node000021" class="node">
<title>Node21</title>
<g id="a_Node000021"><a xlink:href="ematch__src_2utils_2boost_2boostUtils_8hh.html" target="_top" xlink:title=" ">
<polygon fill="white" stroke="#666666" points="966.5,-74 831.5,-74 831.5,-55 966.5,-55 966.5,-74"/>
<text text-anchor="middle" x="899" y="-62" font-family="Helvetica,sans-Serif" font-size="10.00">utils/boost/boostUtils.hh</text>
</a>
</g>
</g>
<!-- Node15&#45;&gt;Node21 -->
<g id="edge33_Node000015_Node000021" class="edge">
<title>Node15&#45;&gt;Node21</title>
<g id="a_edge33_Node000015_Node000021"><a xlink:title=" ">
<path fill="none" stroke="#63b8ff" d="M851.16,-109.98C859.5,-102.23 872.03,-90.58 882.18,-81.14"/>
<polygon fill="#63b8ff" stroke="#63b8ff" points="884.74,-83.54 889.68,-74.17 879.97,-78.42 884.74,-83.54"/>
</a>
</g>
</g>
<!-- Node20&#45;&gt;Node2 -->
<g id="edge32_Node000020_Node000002" class="edge">
<title>Node20&#45;&gt;Node2</title>
<g id="a_edge32_Node000020_Node000002"><a xlink:title=" ">
<path fill="none" stroke="#63b8ff" d="M1232.79,-54.75C1236.76,-47.49 1242.53,-36.95 1247.43,-27.98"/>
<polygon fill="#63b8ff" stroke="#63b8ff" points="1250.57,-29.54 1252.3,-19.09 1244.43,-26.18 1250.57,-29.54"/>
</a>
</g>
</g>
<!-- Node20&#45;&gt;Node3 -->
<g id="edge31_Node000020_Node000003" class="edge">
<title>Node20&#45;&gt;Node3</title>
<g id="a_edge31_Node000020_Node000003"><a xlink:title=" ">
<path fill="none" stroke="#63b8ff" d="M1247.44,-54.98C1266.99,-46.42 1297.38,-33.11 1319.82,-23.28"/>
<polygon fill="#63b8ff" stroke="#63b8ff" points="1321.45,-26.39 1329.21,-19.17 1318.64,-19.98 1321.45,-26.39"/>
</a>
</g>
</g>
<!-- Node21&#45;&gt;Node6 -->
<g id="edge34_Node000021_Node000006" class="edge">
<title>Node21&#45;&gt;Node6</title>
<g id="a_edge34_Node000021_Node000006"><a xlink:title=" ">
<path fill="none" stroke="#63b8ff" d="M836.34,-54.98C755.61,-44.01 617.57,-25.25 549.46,-16"/>
<polygon fill="#63b8ff" stroke="#63b8ff" points="549.52,-12.48 539.14,-14.6 548.58,-19.41 549.52,-12.48"/>
</a>
</g>
</g>
<!-- Node21&#45;&gt;Node19 -->
<g id="edge35_Node000021_Node000019" class="edge">
<title>Node21&#45;&gt;Node19</title>
<g id="a_edge35_Node000021_Node000019"><a xlink:title=" ">
<path fill="none" stroke="#63b8ff" d="M906.93,-54.75C913.85,-47.11 924.07,-35.82 932.45,-26.56"/>
<polygon fill="#63b8ff" stroke="#63b8ff" points="935.1,-28.85 939.22,-19.09 929.91,-24.15 935.1,-28.85"/>
</a>
</g>
</g>
<!-- Node22&#45;&gt;Node2 -->
<g id="edge37_Node000022_Node000002" class="edge">
<title>Node22&#45;&gt;Node2</title>
<g id="a_edge37_Node000022_Node000002"><a xlink:title=" ">
<path fill="none" stroke="#63b8ff" d="M919.74,-237.45C1065.77,-232.8 1369.31,-218.99 1401,-184 1439.49,-141.5 1435.03,-101.14 1401,-55 1387.87,-37.2 1329.25,-23.5 1290.97,-16.25"/>
<polygon fill="#63b8ff" stroke="#63b8ff" points="1291.24,-12.74 1280.77,-14.38 1289.97,-19.62 1291.24,-12.74"/>
</a>
</g>
</g>
<!-- Node22&#45;&gt;Node3 -->
<g id="edge39_Node000022_Node000003" class="edge">
<title>Node22&#45;&gt;Node3</title>
<g id="a_edge39_Node000022_Node000003"><a xlink:title=" ">
<path fill="none" stroke="#63b8ff" d="M919.64,-236.7C1068.63,-230.65 1383.35,-214.42 1422,-184 1467.05,-148.54 1457.18,-99.47 1421,-55 1409.97,-41.44 1393.65,-30.88 1379.33,-23.45"/>
<polygon fill="#63b8ff" stroke="#63b8ff" points="1380.81,-20.28 1370.29,-19.02 1377.73,-26.56 1380.81,-20.28"/>
</a>
</g>
</g>
<!-- Node22&#45;&gt;Node6 -->
<g id="edge38_Node000022_Node000006" class="edge">
<title>Node22&#45;&gt;Node6</title>
<g id="a_edge38_Node000022_Node000006"><a xlink:title=" ">
<path fill="none" stroke="#63b8ff" d="M766.81,-219.92C694.41,-197.09 587.4,-152.11 528,-74 518.1,-60.98 513.33,-42.83 511.05,-29.27"/>
<polygon fill="#63b8ff" stroke="#63b8ff" points="514.5,-28.6 509.67,-19.17 507.56,-29.55 514.5,-28.6"/>
</a>
</g>
</g>
<!-- Node22&#45;&gt;Node11 -->
<g id="edge40_Node000022_Node000011" class="edge">
<title>Node22&#45;&gt;Node11</title>
<g id="a_edge40_Node000022_Node000011"><a xlink:title=" ">
<path fill="none" stroke="#63b8ff" d="M803.66,-219.87C763.63,-198.9 699.48,-163.93 647,-129 624.11,-113.76 599.35,-94.11 583.09,-80.73"/>
<polygon fill="#63b8ff" stroke="#63b8ff" points="584.93,-77.71 575,-74.01 580.46,-83.09 584.93,-77.71"/>
</a>
</g>
</g>
<!-- Node23 -->
<g id="Node000023" class="node">
<title>Node23</title>
<g id="a_Node000023"><a xlink:href="stringBinaryIO_8hh.html" target="_top" xlink:title=" ">
<polygon fill="white" stroke="#666666" points="912,-184 772,-184 772,-165 912,-165 912,-184"/>
<text text-anchor="middle" x="842" y="-172" font-family="Helvetica,sans-Serif" font-size="10.00">utils/stl/stringBinaryIO.hh</text>
</a>
</g>
</g>
<!-- Node22&#45;&gt;Node23 -->
<g id="edge41_Node000022_Node000023" class="edge">
<title>Node22&#45;&gt;Node23</title>
<g id="a_edge41_Node000022_Node000023"><a xlink:title=" ">
<path fill="none" stroke="#63b8ff" d="M842,-219.95C842,-211.85 842,-202.5 842,-194.47"/>
<polygon fill="#63b8ff" stroke="#63b8ff" points="845.5,-194.26 842,-184.26 838.5,-194.26 845.5,-194.26"/>
</a>
</g>
</g>
<!-- Node23&#45;&gt;Node3 -->
<g id="edge43_Node000023_Node000003" class="edge">
<title>Node23&#45;&gt;Node3</title>
<g id="a_edge43_Node000023_Node000003"><a xlink:title=" ">
<path fill="none" stroke="#63b8ff" d="M912.34,-167.31C1029.73,-155.61 1258.59,-126.62 1318,-74 1331.47,-62.07 1339.68,-42.98 1344.23,-28.84"/>
<polygon fill="#63b8ff" stroke="#63b8ff" points="1347.61,-29.77 1347.03,-19.19 1340.88,-27.82 1347.61,-29.77"/>
</a>
</g>
</g>
<!-- Node23&#45;&gt;Node6 -->
<g id="edge42_Node000023_Node000006" class="edge">
<title>Node23&#45;&gt;Node6</title>
<g id="a_edge42_Node000023_Node000006"><a xlink:title=" ">
<path fill="none" stroke="#63b8ff" d="M822.93,-164.91C786.16,-148.22 703.07,-109.89 635,-74 620.03,-66.11 616.98,-62.88 602,-55 580.55,-43.72 555.78,-31.92 537.19,-23.31"/>
<polygon fill="#63b8ff" stroke="#63b8ff" points="538.64,-20.12 528.09,-19.12 535.71,-26.48 538.64,-20.12"/>
</a>
</g>
</g>
<!-- Node23&#45;&gt;Node15 -->
<g id="edge44_Node000023_Node000015" class="edge">
<title>Node23&#45;&gt;Node15</title>
<g id="a_edge44_Node000023_Node000015"><a xlink:title=" ">
<path fill="none" stroke="#63b8ff" d="M842,-164.75C842,-157.8 842,-147.85 842,-139.13"/>
<polygon fill="#63b8ff" stroke="#63b8ff" points="845.5,-139.09 842,-129.09 838.5,-139.09 845.5,-139.09"/>
</a>
</g>
</g>
</g>
</svg>
