<?xml version="1.0" encoding="UTF-8" standalone="no"?>
<!DOCTYPE svg PUBLIC "-//W3C//DTD SVG 1.1//EN"
 "http://www.w3.org/Graphics/SVG/1.1/DTD/svg11.dtd">
<!-- Generated by graphviz version 2.43.0 (0)
 -->
<!-- Title: ematch_src/utils/FLArray Pages: 1 -->
<svg width="250pt" height="141pt"
 viewBox="0.00 0.00 250.00 141.00" xmlns="http://www.w3.org/2000/svg" xmlns:xlink="http://www.w3.org/1999/xlink">
<g id="graph0" class="graph" transform="scale(1 1) rotate(0) translate(4 137)">
<title>ematch_src/utils/FLArray</title>
<g id="clust1" class="cluster">
<title>clusterdir_0ee82d0b51f61194ef614522dab53a64</title>
<g id="a_clust1"><a xlink:href="dir_0ee82d0b51f61194ef614522dab53a64.html" target="_top" xlink:title="utils">
<polygon fill="#edf0f7" stroke="#7f7f7f" stroke-dasharray="5,2" points="8,-8 8,-125 234,-125 234,-8 8,-8"/>
<text text-anchor="middle" x="121" y="-113" font-family="Helvetica,sans-Serif" font-size="10.00">utils</text>
</a>
</g>
</g>
<g id="clust2" class="cluster">
<title>clusterdir_241f45c94b4c119b38aee6e7c5f9fa21</title>
<g id="a_clust2"><a xlink:href="dir_241f45c94b4c119b38aee6e7c5f9fa21.html" target="_top">
<polygon fill="#edf0f7" stroke="#404040" stroke-width="2" points="16,-63 16,-98 192,-98 192,-63 16,-63"/>
</a>
</g>
</g>
<!-- dir_650d54fc89086946a8b4399665da6091 -->
<g id="node1" class="node">
<title>dir_650d54fc89086946a8b4399665da6091</title>
<g id="a_node1"><a xlink:href="dir_650d54fc89086946a8b4399665da6091.html" target="_top" xlink:title="gdb">
<polygon fill="#a2b4d6" stroke="#404040" points="51.5,-35 16.5,-35 16.5,-16 51.5,-16 51.5,-35"/>
<text text-anchor="middle" x="34" y="-23" font-family="Helvetica,sans-Serif" font-size="10.00">gdb</text>
</a>
</g>
</g>
<!-- dir_78892a8ab0a7fc1a92120f9f1cff6aac -->
<g id="node2" class="node">
<title>dir_78892a8ab0a7fc1a92120f9f1cff6aac</title>
<g id="a_node2"><a xlink:href="dir_78892a8ab0a7fc1a92120f9f1cff6aac.html" target="_top" xlink:title="serialNumbers">
<polygon fill="#a2b4d6" stroke="red" points="158,-35 70,-35 70,-16 158,-16 158,-35"/>
<text text-anchor="middle" x="114" y="-23" font-family="Helvetica,sans-Serif" font-size="10.00">serialNumbers</text>
</a>
</g>
</g>
<!-- dir_94d0818a4b74555ee7bd33798201b389 -->
<g id="node3" class="node">
<title>dir_94d0818a4b74555ee7bd33798201b389</title>
<g id="a_node3"><a xlink:href="dir_94d0818a4b74555ee7bd33798201b389.html" target="_top" xlink:title="perlish">
<polygon fill="#a2b4d6" stroke="red" points="226,-35 176,-35 176,-16 226,-16 226,-35"/>
<text text-anchor="middle" x="201" y="-23" font-family="Helvetica,sans-Serif" font-size="10.00">perlish</text>
</a>
</g>
</g>
<!-- dir_241f45c94b4c119b38aee6e7c5f9fa21 -->
<g id="node4" class="node">
<title>dir_241f45c94b4c119b38aee6e7c5f9fa21</title>
<text text-anchor="middle" x="156" y="-78" font-family="Helvetica,sans-Serif" font-size="10.00">FLArray</text>
</g>
<!-- dir_241f45c94b4c119b38aee6e7c5f9fa21&#45;&gt;dir_650d54fc89086946a8b4399665da6091 -->
<g id="edge1" class="edge">
<title>dir_241f45c94b4c119b38aee6e7c5f9fa21&#45;&gt;dir_650d54fc89086946a8b4399665da6091</title>
<g id="a_edge1"><a xlink:href="dir_000014_000016.html" target="_top">
<path fill="none" stroke="#63b8ff" d="M136.82,-70.89C131.09,-68.33 124.8,-65.54 119,-63 99.75,-54.57 77.97,-45.23 61.28,-38.1"/>
<polygon fill="#63b8ff" stroke="#63b8ff" points="62.18,-34.68 51.61,-33.98 59.44,-41.12 62.18,-34.68"/>
</a>
</g>
<g id="a_edge1&#45;headlabel"><a xlink:href="dir_000014_000016.html" target="_top" xlink:title="5">
<text text-anchor="middle" x="66.6" y="-30.98" font-family="Helvetica,sans-Serif" font-size="10.00" fill="#63b8ff">5</text>
</a>
</g>
</g>
<!-- dir_241f45c94b4c119b38aee6e7c5f9fa21&#45;&gt;dir_78892a8ab0a7fc1a92120f9f1cff6aac -->
<g id="edge2" class="edge">
<title>dir_241f45c94b4c119b38aee6e7c5f9fa21&#45;&gt;dir_78892a8ab0a7fc1a92120f9f1cff6aac</title>
<g id="a_edge2"><a xlink:href="dir_000014_000047.html" target="_top">
<path fill="none" stroke="#63b8ff" d="M149.06,-70.75C143.13,-63.26 134.43,-52.28 127.18,-43.13"/>
<polygon fill="#63b8ff" stroke="#63b8ff" points="129.76,-40.75 120.81,-35.09 124.27,-45.1 129.76,-40.75"/>
</a>
</g>
<g id="a_edge2&#45;headlabel"><a xlink:href="dir_000014_000047.html" target="_top" xlink:title="2">
<text text-anchor="middle" x="134.22" y="-39.31" font-family="Helvetica,sans-Serif" font-size="10.00" fill="#63b8ff">2</text>
</a>
</g>
</g>
<!-- dir_241f45c94b4c119b38aee6e7c5f9fa21&#45;&gt;dir_94d0818a4b74555ee7bd33798201b389 -->
<g id="edge3" class="edge">
<title>dir_241f45c94b4c119b38aee6e7c5f9fa21&#45;&gt;dir_94d0818a4b74555ee7bd33798201b389</title>
<g id="a_edge3"><a xlink:href="dir_000014_000029.html" target="_top">
<path fill="none" stroke="#63b8ff" d="M163.43,-70.75C169.85,-63.18 179.31,-52.05 187.12,-42.84"/>
<polygon fill="#63b8ff" stroke="#63b8ff" points="189.9,-44.98 193.71,-35.09 184.57,-40.45 189.9,-44.98"/>
</a>
</g>
<g id="a_edge3&#45;headlabel"><a xlink:href="dir_000014_000029.html" target="_top" xlink:title="3">
<text text-anchor="middle" x="189.74" y="-47.06" font-family="Helvetica,sans-Serif" font-size="10.00" fill="#63b8ff">3</text>
</a>
</g>
</g>
<!-- dir_500c593c59f51303158108a65daad8ef -->
<g id="node5" class="node">
<title>dir_500c593c59f51303158108a65daad8ef</title>
<g id="a_node5"><a xlink:href="dir_500c593c59f51303158108a65daad8ef.html" target="_top" xlink:title="run">
<polygon fill="#a2b4d6" stroke="#404040" points="110,-90 78,-90 78,-71 110,-71 110,-90"/>
<text text-anchor="middle" x="94" y="-78" font-family="Helvetica,sans-Serif" font-size="10.00">run</text>
</a>
</g>
</g>
<!-- dir_bae0f57421616e5330d632f342376d1c -->
<g id="node6" class="node">
<title>dir_bae0f57421616e5330d632f342376d1c</title>
<g id="a_node6"><a xlink:href="dir_bae0f57421616e5330d632f342376d1c.html" target="_top" xlink:title="test">
<polygon fill="#a2b4d6" stroke="#404040" points="59.5,-90 24.5,-90 24.5,-71 59.5,-71 59.5,-90"/>
<text text-anchor="middle" x="42" y="-78" font-family="Helvetica,sans-Serif" font-size="10.00">test</text>
</a>
</g>
</g>
</g>
</svg>
