<?xml version="1.0" encoding="UTF-8" standalone="no"?>
<!DOCTYPE svg PUBLIC "-//W3C//DTD SVG 1.1//EN"
 "http://www.w3.org/Graphics/SVG/1.1/DTD/svg11.dtd">
<!-- Generated by graphviz version 2.43.0 (0)
 -->
<!-- Title: ematch_src/utils/sequence/align Pages: 1 -->
<svg width="721pt" height="141pt"
 viewBox="0.00 0.00 720.50 141.00" xmlns="http://www.w3.org/2000/svg" xmlns:xlink="http://www.w3.org/1999/xlink">
<g id="graph0" class="graph" transform="scale(1 1) rotate(0) translate(4 137)">
<title>ematch_src/utils/sequence/align</title>
<g id="clust1" class="cluster">
<title>clusterdir_e136710bb337b90d7355180ddbbead56</title>
<g id="a_clust1"><a xlink:href="dir_e136710bb337b90d7355180ddbbead56.html" target="_top" xlink:title="sequence">
<polygon fill="#edf0f7" stroke="#7f7f7f" stroke-dasharray="5,2" points="8,-8 8,-125 200,-125 200,-8 8,-8"/>
<text text-anchor="middle" x="104" y="-113" font-family="Helvetica,sans-Serif" font-size="10.00">sequence</text>
</a>
</g>
</g>
<g id="clust2" class="cluster">
<title>clusterdir_5888d24a6b1938724050c31c5b1b8920</title>
<g id="a_clust2"><a xlink:href="dir_5888d24a6b1938724050c31c5b1b8920.html" target="_top">
<polygon fill="#edf0f7" stroke="#404040" stroke-width="2" points="31,-63 31,-98 192,-98 192,-63 31,-63"/>
</a>
</g>
</g>
<!-- dir_954a06066d2332611ea55322810a9738 -->
<g id="node1" class="node">
<title>dir_954a06066d2332611ea55322810a9738</title>
<g id="a_node1"><a xlink:href="dir_954a06066d2332611ea55322810a9738.html" target="_top" xlink:title="ResidueIndexMap">
<polygon fill="#a2b4d6" stroke="red" points="120,-35 16,-35 16,-16 120,-16 120,-35"/>
<text text-anchor="middle" x="68" y="-23" font-family="Helvetica,sans-Serif" font-size="10.00">ResidueIndexMap</text>
</a>
</g>
</g>
<!-- dir_26bbb38cacd9a65a2e959a24fefc8e4d -->
<g id="node2" class="node">
<title>dir_26bbb38cacd9a65a2e959a24fefc8e4d</title>
<g id="a_node2"><a xlink:href="dir_26bbb38cacd9a65a2e959a24fefc8e4d.html" target="_top" xlink:title="readers">
<polygon fill="#a2b4d6" stroke="red" points="191.5,-35 138.5,-35 138.5,-16 191.5,-16 191.5,-35"/>
<text text-anchor="middle" x="165" y="-23" font-family="Helvetica,sans-Serif" font-size="10.00">readers</text>
</a>
</g>
</g>
<!-- dir_5888d24a6b1938724050c31c5b1b8920 -->
<g id="node3" class="node">
<title>dir_5888d24a6b1938724050c31c5b1b8920</title>
<text text-anchor="middle" x="60" y="-78" font-family="Helvetica,sans-Serif" font-size="10.00">align</text>
</g>
<!-- dir_5888d24a6b1938724050c31c5b1b8920&#45;&gt;dir_954a06066d2332611ea55322810a9738 -->
<g id="edge4" class="edge">
<title>dir_5888d24a6b1938724050c31c5b1b8920&#45;&gt;dir_954a06066d2332611ea55322810a9738</title>
<g id="a_edge4"><a xlink:href="dir_000000_000034.html" target="_top">
<path fill="none" stroke="#63b8ff" d="M61.32,-70.75C62.37,-63.8 63.87,-53.85 65.19,-45.13"/>
<polygon fill="#63b8ff" stroke="#63b8ff" points="68.67,-45.5 66.7,-35.09 61.75,-44.45 68.67,-45.5"/>
</a>
</g>
<g id="a_edge4&#45;headlabel"><a xlink:href="dir_000000_000034.html" target="_top" xlink:title="8">
<text text-anchor="middle" x="70.94" y="-46.98" font-family="Helvetica,sans-Serif" font-size="10.00" fill="#63b8ff">8</text>
</a>
</g>
</g>
<!-- dir_241f45c94b4c119b38aee6e7c5f9fa21 -->
<g id="node6" class="node">
<title>dir_241f45c94b4c119b38aee6e7c5f9fa21</title>
<g id="a_node6"><a xlink:href="dir_241f45c94b4c119b38aee6e7c5f9fa21.html" target="_top" xlink:title="FLArray">
<polygon fill="#edf0f7" stroke="red" stroke-dasharray="5,2" points="386.5,-35 331.5,-35 331.5,-16 386.5,-16 386.5,-35"/>
<text text-anchor="middle" x="359" y="-23" font-family="Helvetica,sans-Serif" font-size="10.00">FLArray</text>
</a>
</g>
</g>
<!-- dir_5888d24a6b1938724050c31c5b1b8920&#45;&gt;dir_241f45c94b4c119b38aee6e7c5f9fa21 -->
<g id="edge1" class="edge">
<title>dir_5888d24a6b1938724050c31c5b1b8920&#45;&gt;dir_241f45c94b4c119b38aee6e7c5f9fa21</title>
<g id="a_edge1"><a xlink:href="dir_000000_000014.html" target="_top">
<path fill="none" stroke="#63b8ff" d="M72.48,-70.95C77.42,-67.96 83.28,-64.89 89,-63 185.06,-31.33 217.3,-51.61 321.24,-34.9"/>
<polygon fill="#63b8ff" stroke="#63b8ff" points="321.9,-38.34 331.18,-33.22 320.74,-31.43 321.9,-38.34"/>
</a>
</g>
<g id="a_edge1&#45;headlabel"><a xlink:href="dir_000000_000014.html" target="_top" xlink:title="12">
<text text-anchor="middle" x="318.83" y="-39.23" font-family="Helvetica,sans-Serif" font-size="10.00" fill="#63b8ff">12</text>
</a>
</g>
</g>
<!-- dir_650d54fc89086946a8b4399665da6091 -->
<g id="node7" class="node">
<title>dir_650d54fc89086946a8b4399665da6091</title>
<g id="a_node7"><a xlink:href="dir_650d54fc89086946a8b4399665da6091.html" target="_top" xlink:title="gdb">
<polygon fill="#edf0f7" stroke="#7f7f7f" points="244.5,-35 209.5,-35 209.5,-16 244.5,-16 244.5,-35"/>
<text text-anchor="middle" x="227" y="-23" font-family="Helvetica,sans-Serif" font-size="10.00">gdb</text>
</a>
</g>
</g>
<!-- dir_5888d24a6b1938724050c31c5b1b8920&#45;&gt;dir_650d54fc89086946a8b4399665da6091 -->
<g id="edge2" class="edge">
<title>dir_5888d24a6b1938724050c31c5b1b8920&#45;&gt;dir_650d54fc89086946a8b4399665da6091</title>
<g id="a_edge2"><a xlink:href="dir_000000_000016.html" target="_top">
<path fill="none" stroke="#63b8ff" d="M73.18,-70.97C78.01,-68.12 83.62,-65.14 89,-63 134.93,-44.76 151.66,-49.64 199.78,-36.07"/>
<polygon fill="#63b8ff" stroke="#63b8ff" points="200.89,-39.39 209.49,-33.21 198.91,-32.68 200.89,-39.39"/>
</a>
</g>
<g id="a_edge2&#45;headlabel"><a xlink:href="dir_000000_000016.html" target="_top" xlink:title="1">
<text text-anchor="middle" x="198.24" y="-40.63" font-family="Helvetica,sans-Serif" font-size="10.00" fill="#63b8ff">1</text>
</a>
</g>
</g>
<!-- dir_94d0818a4b74555ee7bd33798201b389 -->
<g id="node8" class="node">
<title>dir_94d0818a4b74555ee7bd33798201b389</title>
<g id="a_node8"><a xlink:href="dir_94d0818a4b74555ee7bd33798201b389.html" target="_top" xlink:title="perlish">
<polygon fill="#edf0f7" stroke="red" stroke-dasharray="5,2" points="313,-35 263,-35 263,-16 313,-16 313,-35"/>
<text text-anchor="middle" x="288" y="-23" font-family="Helvetica,sans-Serif" font-size="10.00">perlish</text>
</a>
</g>
</g>
<!-- dir_5888d24a6b1938724050c31c5b1b8920&#45;&gt;dir_94d0818a4b74555ee7bd33798201b389 -->
<g id="edge3" class="edge">
<title>dir_5888d24a6b1938724050c31c5b1b8920&#45;&gt;dir_94d0818a4b74555ee7bd33798201b389</title>
<g id="a_edge3"><a xlink:href="dir_000000_000029.html" target="_top">
<path fill="none" stroke="#63b8ff" d="M72.82,-70.93C77.7,-68.01 83.44,-64.99 89,-63 156.05,-39.08 179.21,-49.27 252.6,-35.09"/>
<polygon fill="#63b8ff" stroke="#63b8ff" points="253.69,-38.44 262.8,-33.03 252.3,-31.58 253.69,-38.44"/>
</a>
</g>
<g id="a_edge3&#45;headlabel"><a xlink:href="dir_000000_000029.html" target="_top" xlink:title="1">
<text text-anchor="middle" x="250.73" y="-39.44" font-family="Helvetica,sans-Serif" font-size="10.00" fill="#63b8ff">1</text>
</a>
</g>
</g>
<!-- dir_4358551191f75c896e98acdcc16fdc2f -->
<g id="node4" class="node">
<title>dir_4358551191f75c896e98acdcc16fdc2f</title>
<g id="a_node4"><a xlink:href="dir_4358551191f75c896e98acdcc16fdc2f.html" target="_top" xlink:title="run">
<polygon fill="#a2b4d6" stroke="#404040" points="184,-90 152,-90 152,-71 184,-71 184,-90"/>
<text text-anchor="middle" x="168" y="-78" font-family="Helvetica,sans-Serif" font-size="10.00">run</text>
</a>
</g>
</g>
<!-- dir_4358551191f75c896e98acdcc16fdc2f&#45;&gt;dir_954a06066d2332611ea55322810a9738 -->
<g id="edge10" class="edge">
<title>dir_4358551191f75c896e98acdcc16fdc2f&#45;&gt;dir_954a06066d2332611ea55322810a9738</title>
<g id="a_edge10"><a xlink:href="dir_000041_000034.html" target="_top">
<path fill="none" stroke="#63b8ff" d="M155.74,-70.95C151.75,-68.29 147.25,-65.42 143,-63 128.08,-54.49 110.88,-46.03 96.72,-39.4"/>
<polygon fill="#63b8ff" stroke="#63b8ff" points="98.01,-36.14 87.47,-35.13 95.08,-42.5 98.01,-36.14"/>
</a>
</g>
<g id="a_edge10&#45;headlabel"><a xlink:href="dir_000041_000034.html" target="_top" xlink:title="2">
<text text-anchor="middle" x="102.47" y="-32.57" font-family="Helvetica,sans-Serif" font-size="10.00" fill="#63b8ff">2</text>
</a>
</g>
</g>
<!-- dir_4358551191f75c896e98acdcc16fdc2f&#45;&gt;dir_26bbb38cacd9a65a2e959a24fefc8e4d -->
<g id="edge8" class="edge">
<title>dir_4358551191f75c896e98acdcc16fdc2f&#45;&gt;dir_26bbb38cacd9a65a2e959a24fefc8e4d</title>
<g id="a_edge8"><a xlink:href="dir_000041_000033.html" target="_top">
<path fill="none" stroke="#63b8ff" d="M167.5,-70.75C167.11,-63.8 166.55,-53.85 166.05,-45.13"/>
<polygon fill="#63b8ff" stroke="#63b8ff" points="169.55,-44.88 165.49,-35.09 162.56,-45.27 169.55,-44.88"/>
</a>
</g>
<g id="a_edge8&#45;headlabel"><a xlink:href="dir_000041_000033.html" target="_top" xlink:title="13">
<text text-anchor="middle" x="172.58" y="-45.8" font-family="Helvetica,sans-Serif" font-size="10.00" fill="#63b8ff">13</text>
</a>
</g>
</g>
<!-- dir_4358551191f75c896e98acdcc16fdc2f&#45;&gt;dir_241f45c94b4c119b38aee6e7c5f9fa21 -->
<g id="edge7" class="edge">
<title>dir_4358551191f75c896e98acdcc16fdc2f&#45;&gt;dir_241f45c94b4c119b38aee6e7c5f9fa21</title>
<g id="a_edge7"><a xlink:href="dir_000041_000014.html" target="_top">
<path fill="none" stroke="#63b8ff" d="M184.28,-74.98C214.45,-66.61 279.75,-48.49 321.42,-36.93"/>
<polygon fill="#63b8ff" stroke="#63b8ff" points="322.51,-40.26 331.21,-34.21 320.64,-33.51 322.51,-40.26"/>
</a>
</g>
<g id="a_edge7&#45;headlabel"><a xlink:href="dir_000041_000014.html" target="_top" xlink:title="3">
<text text-anchor="middle" x="319.8" y="-41.46" font-family="Helvetica,sans-Serif" font-size="10.00" fill="#63b8ff">3</text>
</a>
</g>
</g>
<!-- dir_1db078a29e90b1da34f6283dcb52b547 -->
<g id="node9" class="node">
<title>dir_1db078a29e90b1da34f6283dcb52b547</title>
<g id="a_node9"><a xlink:href="dir_1db078a29e90b1da34f6283dcb52b547.html" target="_top" xlink:title="argvParsing">
<polygon fill="#edf0f7" stroke="#7f7f7f" points="479,-35 405,-35 405,-16 479,-16 479,-35"/>
<text text-anchor="middle" x="442" y="-23" font-family="Helvetica,sans-Serif" font-size="10.00">argvParsing</text>
</a>
</g>
</g>
<!-- dir_4358551191f75c896e98acdcc16fdc2f&#45;&gt;dir_1db078a29e90b1da34f6283dcb52b547 -->
<g id="edge5" class="edge">
<title>dir_4358551191f75c896e98acdcc16fdc2f&#45;&gt;dir_1db078a29e90b1da34f6283dcb52b547</title>
<g id="a_edge5"><a xlink:href="dir_000041_000001.html" target="_top">
<path fill="none" stroke="#63b8ff" d="M184.32,-76.34C225.03,-68.47 332.27,-47.73 394.82,-35.63"/>
<polygon fill="#63b8ff" stroke="#63b8ff" points="395.68,-39.02 404.84,-33.69 394.36,-32.15 395.68,-39.02"/>
</a>
</g>
<g id="a_edge5&#45;headlabel"><a xlink:href="dir_000041_000001.html" target="_top" xlink:title="12">
<text text-anchor="middle" x="392.69" y="-39.99" font-family="Helvetica,sans-Serif" font-size="10.00" fill="#63b8ff">12</text>
</a>
</g>
</g>
<!-- dir_acf9fc3cfd0086218e8da6d2178f6a2b -->
<g id="node10" class="node">
<title>dir_acf9fc3cfd0086218e8da6d2178f6a2b</title>
<g id="a_node10"><a xlink:href="dir_acf9fc3cfd0086218e8da6d2178f6a2b.html" target="_top" xlink:title="BoundedLenFifo">
<polygon fill="#edf0f7" stroke="#7f7f7f" points="592.5,-35 497.5,-35 497.5,-16 592.5,-16 592.5,-35"/>
<text text-anchor="middle" x="545" y="-23" font-family="Helvetica,sans-Serif" font-size="10.00">BoundedLenFifo</text>
</a>
</g>
</g>
<!-- dir_4358551191f75c896e98acdcc16fdc2f&#45;&gt;dir_acf9fc3cfd0086218e8da6d2178f6a2b -->
<g id="edge11" class="edge">
<title>dir_4358551191f75c896e98acdcc16fdc2f&#45;&gt;dir_acf9fc3cfd0086218e8da6d2178f6a2b</title>
<g id="a_edge11"><a xlink:href="dir_000041_000006.html" target="_top">
<path fill="none" stroke="#63b8ff" d="M184.33,-77.29C230.2,-71.06 364.36,-52.76 487.45,-35.07"/>
<polygon fill="#63b8ff" stroke="#63b8ff" points="488.02,-38.52 497.42,-33.63 487.02,-31.59 488.02,-38.52"/>
</a>
</g>
<g id="a_edge11&#45;headlabel"><a xlink:href="dir_000041_000006.html" target="_top" xlink:title="1">
<text text-anchor="middle" x="484.87" y="-39.34" font-family="Helvetica,sans-Serif" font-size="10.00" fill="#63b8ff">1</text>
</a>
</g>
</g>
<!-- dir_5b3eb6e4632c89cbedc9ecdbf668bff1 -->
<g id="node11" class="node">
<title>dir_5b3eb6e4632c89cbedc9ecdbf668bff1</title>
<g id="a_node11"><a xlink:href="dir_5b3eb6e4632c89cbedc9ecdbf668bff1.html" target="_top" xlink:title="graph">
<polygon fill="#edf0f7" stroke="red" stroke-dasharray="5,2" points="655,-35 611,-35 611,-16 655,-16 655,-35"/>
<text text-anchor="middle" x="633" y="-23" font-family="Helvetica,sans-Serif" font-size="10.00">graph</text>
</a>
</g>
</g>
<!-- dir_4358551191f75c896e98acdcc16fdc2f&#45;&gt;dir_5b3eb6e4632c89cbedc9ecdbf668bff1 -->
<g id="edge9" class="edge">
<title>dir_4358551191f75c896e98acdcc16fdc2f&#45;&gt;dir_5b3eb6e4632c89cbedc9ecdbf668bff1</title>
<g id="a_edge9"><a xlink:href="dir_000041_000020.html" target="_top">
<path fill="none" stroke="#63b8ff" d="M184.3,-78.8C240.73,-76.18 433.1,-65.57 600.76,-34.93"/>
<polygon fill="#63b8ff" stroke="#63b8ff" points="601.56,-38.34 610.75,-33.07 600.28,-31.46 601.56,-38.34"/>
</a>
</g>
<g id="a_edge9&#45;headlabel"><a xlink:href="dir_000041_000020.html" target="_top" xlink:title="1">
<text text-anchor="middle" x="598.54" y="-39.29" font-family="Helvetica,sans-Serif" font-size="10.00" fill="#63b8ff">1</text>
</a>
</g>
</g>
<!-- dir_1e306d7b1d70326be22da0cabe819352 -->
<g id="node12" class="node">
<title>dir_1e306d7b1d70326be22da0cabe819352</title>
<g id="a_node12"><a xlink:href="dir_1e306d7b1d70326be22da0cabe819352.html" target="_top" xlink:title="html">
<polygon fill="#edf0f7" stroke="#7f7f7f" points="712.5,-35 673.5,-35 673.5,-16 712.5,-16 712.5,-35"/>
<text text-anchor="middle" x="693" y="-23" font-family="Helvetica,sans-Serif" font-size="10.00">html</text>
</a>
</g>
</g>
<!-- dir_4358551191f75c896e98acdcc16fdc2f&#45;&gt;dir_1e306d7b1d70326be22da0cabe819352 -->
<g id="edge6" class="edge">
<title>dir_4358551191f75c896e98acdcc16fdc2f&#45;&gt;dir_1e306d7b1d70326be22da0cabe819352</title>
<g id="a_edge6"><a xlink:href="dir_000041_000023.html" target="_top">
<path fill="none" stroke="#63b8ff" d="M184,-79.2C245.12,-77.82 469.69,-70.59 663.4,-34.69"/>
<polygon fill="#63b8ff" stroke="#63b8ff" points="664.29,-38.08 673.47,-32.79 663,-31.2 664.29,-38.08"/>
</a>
</g>
<g id="a_edge6&#45;headlabel"><a xlink:href="dir_000041_000023.html" target="_top" xlink:title="2">
<text text-anchor="middle" x="661.29" y="-39.03" font-family="Helvetica,sans-Serif" font-size="10.00" fill="#63b8ff">2</text>
</a>
</g>
</g>
<!-- dir_1048b6de0f381d610a78e656cafa376f -->
<g id="node5" class="node">
<title>dir_1048b6de0f381d610a78e656cafa376f</title>
<g id="a_node5"><a xlink:href="dir_1048b6de0f381d610a78e656cafa376f.html" target="_top" xlink:title="test">
<polygon fill="#a2b4d6" stroke="#404040" points="133.5,-90 98.5,-90 98.5,-71 133.5,-71 133.5,-90"/>
<text text-anchor="middle" x="116" y="-78" font-family="Helvetica,sans-Serif" font-size="10.00">test</text>
</a>
</g>
</g>
<!-- dir_1048b6de0f381d610a78e656cafa376f&#45;&gt;dir_26bbb38cacd9a65a2e959a24fefc8e4d -->
<g id="edge14" class="edge">
<title>dir_1048b6de0f381d610a78e656cafa376f&#45;&gt;dir_26bbb38cacd9a65a2e959a24fefc8e4d</title>
<g id="a_edge14"><a xlink:href="dir_000069_000033.html" target="_top">
<path fill="none" stroke="#63b8ff" d="M124.09,-70.75C131.16,-63.11 141.59,-51.82 150.15,-42.56"/>
<polygon fill="#63b8ff" stroke="#63b8ff" points="152.84,-44.81 157.06,-35.09 147.7,-40.06 152.84,-44.81"/>
</a>
</g>
<g id="a_edge14&#45;headlabel"><a xlink:href="dir_000069_000033.html" target="_top" xlink:title="2">
<text text-anchor="middle" x="152.49" y="-46.87" font-family="Helvetica,sans-Serif" font-size="10.00" fill="#63b8ff">2</text>
</a>
</g>
</g>
<!-- dir_1048b6de0f381d610a78e656cafa376f&#45;&gt;dir_241f45c94b4c119b38aee6e7c5f9fa21 -->
<g id="edge13" class="edge">
<title>dir_1048b6de0f381d610a78e656cafa376f&#45;&gt;dir_241f45c94b4c119b38aee6e7c5f9fa21</title>
<g id="a_edge13"><a xlink:href="dir_000069_000014.html" target="_top">
<path fill="none" stroke="#63b8ff" d="M127.85,-70.87C132.39,-67.94 137.74,-64.93 143,-63 215.64,-36.33 240.95,-49.14 321.11,-34.98"/>
<polygon fill="#63b8ff" stroke="#63b8ff" points="321.97,-38.38 331.16,-33.12 320.69,-31.5 321.97,-38.38"/>
</a>
</g>
<g id="a_edge13&#45;headlabel"><a xlink:href="dir_000069_000014.html" target="_top" xlink:title="1">
<text text-anchor="middle" x="318.95" y="-39.33" font-family="Helvetica,sans-Serif" font-size="10.00" fill="#63b8ff">1</text>
</a>
</g>
</g>
<!-- dir_1048b6de0f381d610a78e656cafa376f&#45;&gt;dir_1db078a29e90b1da34f6283dcb52b547 -->
<g id="edge12" class="edge">
<title>dir_1048b6de0f381d610a78e656cafa376f&#45;&gt;dir_1db078a29e90b1da34f6283dcb52b547</title>
<g id="a_edge12"><a xlink:href="dir_000069_000001.html" target="_top">
<path fill="none" stroke="#63b8ff" d="M127.53,-70.91C132.12,-67.92 137.59,-64.85 143,-63 247.02,-27.44 282.09,-50.14 394.82,-35.02"/>
<polygon fill="#63b8ff" stroke="#63b8ff" points="395.47,-38.46 404.88,-33.6 394.49,-31.53 395.47,-38.46"/>
</a>
</g>
<g id="a_edge12&#45;headlabel"><a xlink:href="dir_000069_000001.html" target="_top" xlink:title="2">
<text text-anchor="middle" x="392.31" y="-39.28" font-family="Helvetica,sans-Serif" font-size="10.00" fill="#63b8ff">2</text>
</a>
</g>
</g>
</g>
</svg>
