<?xml version="1.0" encoding="UTF-8" standalone="no"?>
<!DOCTYPE svg PUBLIC "-//W3C//DTD SVG 1.1//EN"
 "http://www.w3.org/Graphics/SVG/1.1/DTD/svg11.dtd">
<!-- Generated by graphviz version 2.43.0 (0)
 -->
<!-- Title: ematch_src/utils/FLArray/FLEArrayByIndexSortingPredicate.hh Pages: 1 -->
<!--zoomable 115 -->

<svg id="main" version="1.1" xmlns="http://www.w3.org/2000/svg" xmlns:xlink="http://www.w3.org/1999/xlink" xml:space="preserve" onload="init(evt)">
<style type="text/css"><![CDATA[
.node, .edge {opacity: 0.7;}
.node.selected, .edge.selected {opacity: 1;}
.edge:hover path { stroke: red; }
.edge:hover polygon { stroke: red; fill: red; }
]]></style>

<defs>
  <circle id="rim" cx="0" cy="0" r="7"/>
  <circle id="rim2" cx="0" cy="0" r="3.5"/>
  <g id="zoomPlus">
    <use xlink:href="#rim" fill="#404040"><set attributeName="fill" to="#808080" begin="zoomplus.mouseover" end="zoomplus.mouseout"/></use>
    <path d="M-4,0h8M0,-4v8" fill="none" stroke="white" stroke-width="1.5" pointer-events="none"/>
  </g>
  <g id="zoomMin">
    <use xlink:href="#rim" fill="#404040"><set attributeName="fill" to="#808080" begin="zoomminus.mouseover" end="zoomminus.mouseout"/></use>
    <path d="M-4,0h8" fill="none" stroke="white" stroke-width="1.5" pointer-events="none"/>
  </g>
  <g id="arrowUp" transform="translate(30 24)">
    <use xlink:href="#rim"/>
    <path pointer-events="none" fill="none" stroke="white" stroke-width="1.5" d="M0,-3.0v7 M-2.5,-0.5L0,-3.0L2.5,-0.5"/>
  </g>
  <g id="arrowRight" transform="rotate(90) translate(36 -43)">
    <use xlink:href="#rim"/>
    <path pointer-events="none" fill="none" stroke="white" stroke-width="1.5" d="M0,-3.0v7 M-2.5,-0.5L0,-3.0L2.5,-0.5"/>
  </g>
  <g id="arrowDown" transform="rotate(180) translate(-30 -48)">
    <use xlink:href="#rim"/>
    <path pointer-events="none" fill="none" stroke="white" stroke-width="1.5" d="M0,-3.0v7 M-2.5,-0.5L0,-3.0L2.5,-0.5"/>
  </g>
  <g id="arrowLeft" transform="rotate(270) translate(-36 17)">
    <use xlink:href="#rim"/>
    <path pointer-events="none" fill="none" stroke="white" stroke-width="1.5" d="M0,-3.0v7 M-2.5,-0.5L0,-3.0L2.5,-0.5"/>
  </g>
  <g id="resetDef">
    <use xlink:href="#rim2" fill="#404040"><set attributeName="fill" to="#808080" begin="reset.mouseover" end="reset.mouseout"/></use>
  </g>
</defs>
<script type="application/ecmascript">
var viewWidth = 1950;
var viewHeight = 115;
var sectionId = 'dynsection-1';
</script>
<script type="application/ecmascript" xlink:href="svg.min.js"/>
<svg id="graph" class="graph">
<g id="viewport">
<title>ematch_src/utils/FLArray/FLEArrayByIndexSortingPredicate.hh</title>
<!-- Node1 -->
<g id="Node000001" class="node">
<title>Node1</title>
<g id="a_Node000001"><a xlink:title=" ">
<polygon fill="#999999" stroke="#666666" points="1069.5,-107 871.5,-107 871.5,-77 1069.5,-77 1069.5,-107"/>
<text text-anchor="start" x="879.5" y="-95" font-family="Helvetica,sans-Serif" font-size="10.00">ematch_src/utils/FLArray</text>
<text text-anchor="middle" x="970.5" y="-84" font-family="Helvetica,sans-Serif" font-size="10.00">/FLEArrayByIndexSortingPredicate.hh</text>
</a>
</g>
</g>
<!-- Node2 -->
<g id="Node000002" class="node">
<title>Node2</title>
<g id="a_Node000002"><a xlink:href="graph_2run_2listConnectedComponents_8cc.html" target="_top" xlink:title=" ">
<polygon fill="white" stroke="#666666" points="161,-35.5 0,-35.5 0,-5.5 161,-5.5 161,-35.5"/>
<text text-anchor="start" x="8" y="-23.5" font-family="Helvetica,sans-Serif" font-size="10.00">ematch_src/graph/run</text>
<text text-anchor="middle" x="80.5" y="-12.5" font-family="Helvetica,sans-Serif" font-size="10.00">/listConnectedComponents.cc</text>
</a>
</g>
</g>
<!-- Node1&#45;&gt;Node2 -->
<g id="edge1_Node000001_Node000002" class="edge">
<title>Node1&#45;&gt;Node2</title>
<g id="a_edge1_Node000001_Node000002"><a xlink:title=" ">
<path fill="none" stroke="#63b8ff" d="M861.06,-89.38C706.49,-85.91 415.73,-75.03 170.5,-41 160.37,-39.59 149.67,-37.67 139.33,-35.58"/>
<polygon fill="#63b8ff" stroke="#63b8ff" points="861.42,-92.89 871.49,-89.61 861.57,-85.89 861.42,-92.89"/>
</a>
</g>
</g>
<!-- Node3 -->
<g id="Node000003" class="node">
<title>Node3</title>
<g id="a_Node000003"><a xlink:href="graph_2run_2printRandomRepresentativeFromEachConnectedComponent_8cc.html" target="_top" xlink:title=" ">
<polygon fill="white" stroke="#666666" points="361.5,-41 179.5,-41 179.5,0 361.5,0 361.5,-41"/>
<text text-anchor="start" x="187.5" y="-29" font-family="Helvetica,sans-Serif" font-size="10.00">ematch_src/graph/run</text>
<text text-anchor="start" x="187.5" y="-18" font-family="Helvetica,sans-Serif" font-size="10.00">/printRandomRepresentativeFrom</text>
<text text-anchor="middle" x="270.5" y="-7" font-family="Helvetica,sans-Serif" font-size="10.00">EachConnectedComponent.cc</text>
</a>
</g>
</g>
<!-- Node1&#45;&gt;Node3 -->
<g id="edge2_Node000001_Node000003" class="edge">
<title>Node1&#45;&gt;Node3</title>
<g id="a_edge2_Node000001_Node000003"><a xlink:title=" ">
<path fill="none" stroke="#63b8ff" d="M861.06,-85.48C740.48,-78.57 541.02,-64.66 370.5,-41 367.61,-40.6 364.68,-40.17 361.72,-39.71"/>
<polygon fill="#63b8ff" stroke="#63b8ff" points="861.21,-89 871.39,-86.07 861.61,-82.01 861.21,-89"/>
</a>
</g>
</g>
<!-- Node4 -->
<g id="Node000004" class="node">
<title>Node4</title>
<g id="a_Node000004"><a xlink:href="graph_2run_2runAllShortestEdgeLengthPaths_8cc.html" target="_top" xlink:title=" ">
<polygon fill="white" stroke="#666666" points="565,-35.5 380,-35.5 380,-5.5 565,-5.5 565,-35.5"/>
<text text-anchor="start" x="388" y="-23.5" font-family="Helvetica,sans-Serif" font-size="10.00">ematch_src/graph/run</text>
<text text-anchor="middle" x="472.5" y="-12.5" font-family="Helvetica,sans-Serif" font-size="10.00">/runAllShortestEdgeLengthPaths.cc</text>
</a>
</g>
</g>
<!-- Node1&#45;&gt;Node4 -->
<g id="edge3_Node000001_Node000004" class="edge">
<title>Node1&#45;&gt;Node4</title>
<g id="a_edge3_Node000001_Node000004"><a xlink:title=" ">
<path fill="none" stroke="#63b8ff" d="M861.34,-79.1C781.66,-69.96 671.15,-56.32 574.5,-41 564.17,-39.36 553.29,-37.47 542.63,-35.51"/>
<polygon fill="#63b8ff" stroke="#63b8ff" points="861.06,-82.59 871.39,-80.25 861.85,-75.64 861.06,-82.59"/>
</a>
</g>
</g>
<!-- Node5 -->
<g id="Node000005" class="node">
<title>Node5</title>
<g id="a_Node000005"><a xlink:href="utils_2graph_2run_2listConnectedComponents_8cc.html" target="_top" xlink:title=" ">
<polygon fill="white" stroke="#666666" points="763.5,-35.5 583.5,-35.5 583.5,-5.5 763.5,-5.5 763.5,-35.5"/>
<text text-anchor="start" x="591.5" y="-23.5" font-family="Helvetica,sans-Serif" font-size="10.00">ematch_src/utils/graph</text>
<text text-anchor="middle" x="673.5" y="-12.5" font-family="Helvetica,sans-Serif" font-size="10.00">/run/listConnectedComponents.cc</text>
</a>
</g>
</g>
<!-- Node1&#45;&gt;Node5 -->
<g id="edge4_Node000001_Node000005" class="edge">
<title>Node1&#45;&gt;Node5</title>
<g id="a_edge4_Node000001_Node000005"><a xlink:title=" ">
<path fill="none" stroke="#63b8ff" d="M900.49,-74.62C849.72,-62.74 781.8,-46.84 733.51,-35.54"/>
<polygon fill="#63b8ff" stroke="#63b8ff" points="899.86,-78.06 910.4,-76.94 901.46,-71.25 899.86,-78.06"/>
</a>
</g>
</g>
<!-- Node6 -->
<g id="Node000006" class="node">
<title>Node6</title>
<g id="a_Node000006"><a xlink:href="utils_2graph_2run_2printRandomRepresentativeFromEachConnectedComponent_8cc.html" target="_top" xlink:title=" ">
<polygon fill="white" stroke="#666666" points="967.5,-41 781.5,-41 781.5,0 967.5,0 967.5,-41"/>
<text text-anchor="start" x="789.5" y="-29" font-family="Helvetica,sans-Serif" font-size="10.00">ematch_src/utils/graph</text>
<text text-anchor="start" x="789.5" y="-18" font-family="Helvetica,sans-Serif" font-size="10.00">/run/printRandomRepresentative</text>
<text text-anchor="middle" x="874.5" y="-7" font-family="Helvetica,sans-Serif" font-size="10.00">FromEachConnectedComponent.cc</text>
</a>
</g>
</g>
<!-- Node1&#45;&gt;Node6 -->
<g id="edge5_Node000001_Node000006" class="edge">
<title>Node1&#45;&gt;Node6</title>
<g id="a_edge5_Node000001_Node000006"><a xlink:title=" ">
<path fill="none" stroke="#63b8ff" d="M942.94,-71.04C929.93,-61.63 914.47,-50.44 901.54,-41.07"/>
<polygon fill="#63b8ff" stroke="#63b8ff" points="940.92,-73.91 951.07,-76.94 945.03,-68.24 940.92,-73.91"/>
</a>
</g>
</g>
<!-- Node7 -->
<g id="Node000007" class="node">
<title>Node7</title>
<g id="a_Node000007"><a xlink:href="utils_2graph_2run_2runAllShortestEdgeLengthPaths_8cc.html" target="_top" xlink:title=" ">
<polygon fill="white" stroke="#666666" points="1149.5,-41 985.5,-41 985.5,0 1149.5,0 1149.5,-41"/>
<text text-anchor="start" x="993.5" y="-29" font-family="Helvetica,sans-Serif" font-size="10.00">ematch_src/utils/graph</text>
<text text-anchor="start" x="993.5" y="-18" font-family="Helvetica,sans-Serif" font-size="10.00">/run/runAllShortestEdgeLength</text>
<text text-anchor="middle" x="1067.5" y="-7" font-family="Helvetica,sans-Serif" font-size="10.00">Paths.cc</text>
</a>
</g>
</g>
<!-- Node1&#45;&gt;Node7 -->
<g id="edge6_Node000001_Node000007" class="edge">
<title>Node1&#45;&gt;Node7</title>
<g id="a_edge6_Node000001_Node000007"><a xlink:title=" ">
<path fill="none" stroke="#63b8ff" d="M998.35,-71.04C1011.49,-61.63 1027.11,-50.44 1040.18,-41.07"/>
<polygon fill="#63b8ff" stroke="#63b8ff" points="996.22,-68.27 990.13,-76.94 1000.3,-73.96 996.22,-68.27"/>
</a>
</g>
</g>
<!-- Node8 -->
<g id="Node000008" class="node">
<title>Node8</title>
<g id="a_Node000008"><a xlink:href="SimilaritySearchableSequences_8cc.html" target="_top" xlink:title=" ">
<polygon fill="white" stroke="#666666" points="1381.5,-35.5 1167.5,-35.5 1167.5,-5.5 1381.5,-5.5 1381.5,-35.5"/>
<text text-anchor="start" x="1175.5" y="-23.5" font-family="Helvetica,sans-Serif" font-size="10.00">ematch_src/utils/sequence</text>
<text text-anchor="middle" x="1274.5" y="-12.5" font-family="Helvetica,sans-Serif" font-size="10.00">/align/SimilaritySearchableSequences.cc</text>
</a>
</g>
</g>
<!-- Node1&#45;&gt;Node8 -->
<g id="edge7_Node000001_Node000008" class="edge">
<title>Node1&#45;&gt;Node8</title>
<g id="a_edge7_Node000001_Node000008"><a xlink:title=" ">
<path fill="none" stroke="#63b8ff" d="M1041.84,-74.69C1093.83,-62.8 1163.55,-46.87 1213.07,-35.54"/>
<polygon fill="#63b8ff" stroke="#63b8ff" points="1040.99,-71.29 1032.02,-76.94 1042.55,-78.12 1040.99,-71.29"/>
</a>
</g>
</g>
<!-- Node9 -->
<g id="Node000009" class="node">
<title>Node9</title>
<g id="a_Node000009"><a xlink:href="allPairsNearestGlobalAffineScore_8cc.html" target="_top" xlink:title=" ">
<polygon fill="white" stroke="#666666" points="1569.5,-41 1399.5,-41 1399.5,0 1569.5,0 1569.5,-41"/>
<text text-anchor="start" x="1407.5" y="-29" font-family="Helvetica,sans-Serif" font-size="10.00">ematch_src/utils/sequence</text>
<text text-anchor="start" x="1407.5" y="-18" font-family="Helvetica,sans-Serif" font-size="10.00">/align/run/allPairsNearestGlobal</text>
<text text-anchor="middle" x="1484.5" y="-7" font-family="Helvetica,sans-Serif" font-size="10.00">AffineScore.cc</text>
</a>
</g>
</g>
<!-- Node1&#45;&gt;Node9 -->
<g id="edge8_Node000001_Node000009" class="edge">
<title>Node1&#45;&gt;Node9</title>
<g id="a_edge8_Node000001_Node000009"><a xlink:title=" ">
<path fill="none" stroke="#63b8ff" d="M1079.88,-80.58C1164.86,-71.86 1285.51,-58.11 1390.5,-41 1393.38,-40.53 1396.3,-40.03 1399.25,-39.52"/>
<polygon fill="#63b8ff" stroke="#63b8ff" points="1079.29,-77.13 1069.7,-81.62 1080,-84.09 1079.29,-77.13"/>
</a>
</g>
</g>
<!-- Node10 -->
<g id="Node000010" class="node">
<title>Node10</title>
<g id="a_Node000010"><a xlink:href="clusterByIdentity_8cc.html" target="_top" xlink:title=" ">
<polygon fill="white" stroke="#666666" points="1749,-35.5 1588,-35.5 1588,-5.5 1749,-5.5 1749,-35.5"/>
<text text-anchor="start" x="1596" y="-23.5" font-family="Helvetica,sans-Serif" font-size="10.00">ematch_src/utils/sequence</text>
<text text-anchor="middle" x="1668.5" y="-12.5" font-family="Helvetica,sans-Serif" font-size="10.00">/align/run/clusterByIdentity.cc</text>
</a>
</g>
</g>
<!-- Node1&#45;&gt;Node10 -->
<g id="edge9_Node000001_Node000010" class="edge">
<title>Node1&#45;&gt;Node10</title>
<g id="a_edge9_Node000001_Node000010"><a xlink:title=" ">
<path fill="none" stroke="#63b8ff" d="M1079.79,-86.34C1201.88,-80.13 1405.15,-66.79 1578.5,-41 1588.46,-39.52 1598.97,-37.58 1609.16,-35.51"/>
<polygon fill="#63b8ff" stroke="#63b8ff" points="1079.5,-82.85 1069.68,-86.85 1079.85,-89.84 1079.5,-82.85"/>
</a>
</g>
</g>
<!-- Node11 -->
<g id="Node000011" class="node">
<title>Node11</title>
<g id="a_Node000011"><a xlink:href="labeledBlastToOddsRatio_8cc.html" target="_top" xlink:title=" ">
<polygon fill="white" stroke="#666666" points="1941.5,-41 1767.5,-41 1767.5,0 1941.5,0 1941.5,-41"/>
<text text-anchor="start" x="1775.5" y="-29" font-family="Helvetica,sans-Serif" font-size="10.00">ematch_src/utils/sequence</text>
<text text-anchor="start" x="1775.5" y="-18" font-family="Helvetica,sans-Serif" font-size="10.00">/readers/run/labeledBlastToOdds</text>
<text text-anchor="middle" x="1854.5" y="-7" font-family="Helvetica,sans-Serif" font-size="10.00">Ratio.cc</text>
</a>
</g>
</g>
<!-- Node1&#45;&gt;Node11 -->
<g id="edge10_Node000001_Node000011" class="edge">
<title>Node1&#45;&gt;Node11</title>
<g id="a_edge10_Node000001_Node000011"><a xlink:title=" ">
<path fill="none" stroke="#63b8ff" d="M1079.81,-88.79C1232.38,-84.63 1517.56,-72.96 1758.5,-41 1761.45,-40.61 1764.45,-40.18 1767.47,-39.72"/>
<polygon fill="#63b8ff" stroke="#63b8ff" points="1079.41,-85.3 1069.51,-89.07 1079.6,-92.3 1079.41,-85.3"/>
</a>
</g>
</g>
</g>
</svg>

<g id="navigator" transform="translate(0 0)" fill="#404254">
  <rect fill="#f2f5e9" fill-opacity="0.5" stroke="#606060" stroke-width=".5" x="0" y="0" width="60" height="60"/>
  <use id="zoomplus" xlink:href="#zoomPlus" x="17" y="9" onmousedown="handleZoom(evt,'in')"/>
  <use id="zoomminus" xlink:href="#zoomMin" x="42" y="9" onmousedown="handleZoom(evt,'out')"/>
  <use id="reset" xlink:href="#resetDef" x="30" y="36" onmousedown="handleReset()"/>
   <use id="arrowup" xlink:href="#arrowUp" x="0" y="0" onmousedown="handlePan(0,-1)"/>
  <use id="arrowright" xlink:href="#arrowRight" x="0" y="0" onmousedown="handlePan(1,0)"/>
  <use id="arrowdown" xlink:href="#arrowDown" x="0" y="0" onmousedown="handlePan(0,1)"/>
  <use id="arrowleft" xlink:href="#arrowLeft" x="0" y="0" onmousedown="handlePan(-1,0)"/>
</g>
<svg viewBox="0 0 15 15" width="100%" height="30px" preserveAspectRatio="xMaxYMin meet">
 <g id="arrow_out" transform="scale(0.3 0.3)">
  <a xlink:href="ematch__src_2utils_2FLArray_2FLEArrayByIndexSortingPredicate_8hh__dep__incl_org.svg" target="_base">
   <rect id="button" ry="5" rx="5" y="6" x="6" height="38" width="38"
        fill="#f2f5e9" fill-opacity="0.5" stroke="#606060" stroke-width="1.0"/>
   <path id="arrow"
     d="M 11.500037,31.436501 C 11.940474,20.09759 22.043105,11.32322 32.158766,21.979434 L 37.068811,17.246167 C 37.068811,17.246167 37.088388,32 37.088388,32 L 22.160133,31.978069 C 22.160133,31.978069 26.997745,27.140456 26.997745,27.140456 C 18.528582,18.264221 13.291696,25.230495 11.500037,31.436501 z"
     style="fill:#404040;"/>
  </a>
 </g>
</svg>

<style type='text/css'>
<![CDATA[
[data-mouse-over-selected='false'] { opacity: 0.7; }
[data-mouse-over-selected='true']  { opacity: 1.0; }
]]>
</style>
<script type="application/ecmascript"><![CDATA[
document.addEventListener('DOMContentLoaded', (event) => {
  highlightEdges();
  highlightAdjacentNodes();
});
]]></script>
</svg>
