<?xml version="1.0" encoding="UTF-8" standalone="no"?>
<!DOCTYPE svg PUBLIC "-//W3C//DTD SVG 1.1//EN"
 "http://www.w3.org/Graphics/SVG/1.1/DTD/svg11.dtd">
<!-- Generated by graphviz version 2.43.0 (0)
 -->
<!-- Title: f Pages: 1 -->
<!--zoomable 151 -->

<svg id="main" version="1.1" xmlns="http://www.w3.org/2000/svg" xmlns:xlink="http://www.w3.org/1999/xlink" xml:space="preserve" onload="init(evt)">
<style type="text/css"><![CDATA[
.node, .edge {opacity: 0.7;}
.node.selected, .edge.selected {opacity: 1;}
.edge:hover path { stroke: red; }
.edge:hover polygon { stroke: red; fill: red; }
]]></style>

<defs>
  <circle id="rim" cx="0" cy="0" r="7"/>
  <circle id="rim2" cx="0" cy="0" r="3.5"/>
  <g id="zoomPlus">
    <use xlink:href="#rim" fill="#404040"><set attributeName="fill" to="#808080" begin="zoomplus.mouseover" end="zoomplus.mouseout"/></use>
    <path d="M-4,0h8M0,-4v8" fill="none" stroke="white" stroke-width="1.5" pointer-events="none"/>
  </g>
  <g id="zoomMin">
    <use xlink:href="#rim" fill="#404040"><set attributeName="fill" to="#808080" begin="zoomminus.mouseover" end="zoomminus.mouseout"/></use>
    <path d="M-4,0h8" fill="none" stroke="white" stroke-width="1.5" pointer-events="none"/>
  </g>
  <g id="arrowUp" transform="translate(30 24)">
    <use xlink:href="#rim"/>
    <path pointer-events="none" fill="none" stroke="white" stroke-width="1.5" d="M0,-3.0v7 M-2.5,-0.5L0,-3.0L2.5,-0.5"/>
  </g>
  <g id="arrowRight" transform="rotate(90) translate(36 -43)">
    <use xlink:href="#rim"/>
    <path pointer-events="none" fill="none" stroke="white" stroke-width="1.5" d="M0,-3.0v7 M-2.5,-0.5L0,-3.0L2.5,-0.5"/>
  </g>
  <g id="arrowDown" transform="rotate(180) translate(-30 -48)">
    <use xlink:href="#rim"/>
    <path pointer-events="none" fill="none" stroke="white" stroke-width="1.5" d="M0,-3.0v7 M-2.5,-0.5L0,-3.0L2.5,-0.5"/>
  </g>
  <g id="arrowLeft" transform="rotate(270) translate(-36 17)">
    <use xlink:href="#rim"/>
    <path pointer-events="none" fill="none" stroke="white" stroke-width="1.5" d="M0,-3.0v7 M-2.5,-0.5L0,-3.0L2.5,-0.5"/>
  </g>
  <g id="resetDef">
    <use xlink:href="#rim2" fill="#404040"><set attributeName="fill" to="#808080" begin="reset.mouseover" end="reset.mouseout"/></use>
  </g>
</defs>
<script type="application/ecmascript">
var viewWidth = 726;
var viewHeight = 151;
var sectionId = 'dynsection-20';
</script>
<script type="application/ecmascript" xlink:href="svg.min.js"/>
<svg id="graph" class="graph">
<g id="viewport">
<title>f</title>
<!-- Node1 -->
<g id="Node000001" class="node">
<title>Node1</title>
<g id="a_Node000001"><a xlink:title=" ">
<polygon fill="#999999" stroke="#666666" points="718,-62 689,-62 689,-43 718,-43 718,-62"/>
<text text-anchor="middle" x="703.5" y="-50" font-family="Helvetica,sans-Serif" font-size="10.00">f</text>
</a>
</g>
</g>
<!-- Node2 -->
<g id="Node000002" class="node">
<title>Node2</title>
<g id="a_Node000002"><a xlink:href="EstimateTrueCount__EntropyFast_8cc.html#ae313eea5678e22c3b887b47ed72ccb3f" target="_top" xlink:title=" ">
<polygon fill="white" stroke="#666666" points="624.5,-105 577.5,-105 577.5,-86 624.5,-86 624.5,-105"/>
<text text-anchor="middle" x="601" y="-93" font-family="Helvetica,sans-Serif" font-size="10.00">final_f</text>
</a>
</g>
</g>
<!-- Node1&#45;&gt;Node2 -->
<g id="edge1_Node000001_Node000002" class="edge">
<title>Node1&#45;&gt;Node2</title>
<g id="a_edge1_Node000001_Node000002"><a xlink:title=" ">
<path fill="none" stroke="#63b8ff" d="M679.7,-64.12C671.37,-68.21 661.84,-72.72 653,-76.5 643.79,-80.44 633.46,-84.37 624.52,-87.63"/>
<polygon fill="#63b8ff" stroke="#63b8ff" points="681.41,-67.17 688.79,-59.58 678.28,-60.91 681.41,-67.17"/>
</a>
</g>
</g>
<!-- Node7 -->
<g id="Node000007" class="node">
<title>Node7</title>
<g id="a_Node000007"><a xlink:href="classcbrc_1_1Blast8Result.html#af5416c937e5498a505e5ad358207eacc" target="_top" xlink:title=" ">
<polygon fill="white" stroke="#666666" points="653,-67.5 549,-67.5 549,-37.5 653,-37.5 653,-67.5"/>
<text text-anchor="start" x="557" y="-55.5" font-family="Helvetica,sans-Serif" font-size="10.00">cbrc::Blast8Result</text>
<text text-anchor="middle" x="601" y="-44.5" font-family="Helvetica,sans-Serif" font-size="10.00">::setFields</text>
</a>
</g>
</g>
<!-- Node1&#45;&gt;Node7 -->
<g id="edge8_Node000001_Node000007" class="edge">
<title>Node1&#45;&gt;Node7</title>
<g id="a_edge8_Node000001_Node000007"><a xlink:title=" ">
<path fill="none" stroke="#63b8ff" d="M678.84,-52.5C671.04,-52.5 662.04,-52.5 653,-52.5"/>
<polygon fill="#63b8ff" stroke="#63b8ff" points="678.95,-56 688.95,-52.5 678.95,-49 678.95,-56"/>
</a>
</g>
</g>
<!-- Node8 -->
<g id="Node000008" class="node">
<title>Node8</title>
<g id="a_Node000008"><a xlink:href="testLogFactorial_8cc.html#ad64ffac40d2685d6d07326108dccaf10" target="_top" xlink:title=" ">
<polygon fill="white" stroke="#666666" points="648,-19 554,-19 554,0 648,0 648,-19"/>
<text text-anchor="middle" x="601" y="-7" font-family="Helvetica,sans-Serif" font-size="10.00">testLogFactorial</text>
</a>
</g>
</g>
<!-- Node1&#45;&gt;Node8 -->
<g id="edge9_Node000001_Node000008" class="edge">
<title>Node1&#45;&gt;Node8</title>
<g id="a_edge9_Node000001_Node000008"><a xlink:title=" ">
<path fill="none" stroke="#63b8ff" d="M679.7,-40.88C671.37,-36.79 661.84,-32.28 653,-28.5 645.35,-25.23 636.94,-21.96 629.19,-19.08"/>
<polygon fill="#63b8ff" stroke="#63b8ff" points="678.28,-44.09 688.79,-45.42 681.41,-37.83 678.28,-44.09"/>
</a>
</g>
</g>
<!-- Node3 -->
<g id="Node000003" class="node">
<title>Node3</title>
<g id="a_Node000003"><a xlink:href="EstimateTrueCount__EntropyFast_8cc.html#adc0726cfc1b2ace7c38b40f927f8b6c6" target="_top" xlink:title=" ">
<polygon fill="white" stroke="#666666" points="513,-143 380,-143 380,-124 513,-124 513,-143"/>
<text text-anchor="middle" x="446.5" y="-131" font-family="Helvetica,sans-Serif" font-size="10.00">backtrackingLineSearch</text>
</a>
</g>
</g>
<!-- Node2&#45;&gt;Node3 -->
<g id="edge2_Node000002_Node000003" class="edge">
<title>Node2&#45;&gt;Node3</title>
<g id="a_edge2_Node000002_Node000003"><a xlink:title=" ">
<path fill="none" stroke="#63b8ff" d="M567.5,-103.6C543.57,-109.56 510.96,-117.69 485.78,-123.96"/>
<polygon fill="#63b8ff" stroke="#63b8ff" points="568.64,-106.92 577.5,-101.11 566.95,-100.13 568.64,-106.92"/>
</a>
</g>
</g>
<!-- Node4 -->
<g id="Node000004" class="node">
<title>Node4</title>
<g id="a_Node000004"><a xlink:href="EstimateTrueCount__EntropyFast_8cc.html#a849de12fe72e4dedfdf0f6fdd557b22a" target="_top" xlink:title=" ">
<polygon fill="white" stroke="#666666" points="344,-105 243,-105 243,-86 344,-86 344,-105"/>
<text text-anchor="middle" x="293.5" y="-93" font-family="Helvetica,sans-Serif" font-size="10.00">gradient_descent</text>
</a>
</g>
</g>
<!-- Node2&#45;&gt;Node4 -->
<g id="edge6_Node000002_Node000004" class="edge">
<title>Node2&#45;&gt;Node4</title>
<g id="a_edge6_Node000002_Node000004"><a xlink:title=" ">
<path fill="none" stroke="#63b8ff" d="M566.7,-95.5C512.93,-95.5 406.68,-95.5 344.01,-95.5"/>
<polygon fill="#63b8ff" stroke="#63b8ff" points="567.04,-99 577.04,-95.5 567.04,-92 567.04,-99"/>
</a>
</g>
</g>
<!-- Node5 -->
<g id="Node000005" class="node">
<title>Node5</title>
<g id="a_Node000005"><a xlink:href="EstimateTrueCount__EntropyFast_8cc.html#abebd4fb586dd8c7cbaca02396a997f7a" target="_top" xlink:title=" ">
<polygon fill="white" stroke="#666666" points="207,-86 77,-86 77,-67 207,-67 207,-86"/>
<text text-anchor="middle" x="142" y="-74" font-family="Helvetica,sans-Serif" font-size="10.00">wrap_gradient_descent</text>
</a>
</g>
</g>
<!-- Node2&#45;&gt;Node5 -->
<g id="edge7_Node000002_Node000005" class="edge">
<title>Node2&#45;&gt;Node5</title>
<g id="a_edge7_Node000002_Node000005"><a xlink:title=" ">
<path fill="none" stroke="#63b8ff" d="M567.2,-92.28C518.54,-87.69 424.33,-79.48 344,-76.5 298.32,-74.81 246.76,-74.85 207.29,-75.29"/>
<polygon fill="#63b8ff" stroke="#63b8ff" points="567.14,-95.79 577.43,-93.26 567.81,-88.83 567.14,-95.79"/>
</a>
</g>
</g>
<!-- Node3&#45;&gt;Node4 -->
<g id="edge3_Node000003_Node000004" class="edge">
<title>Node3&#45;&gt;Node4</title>
<g id="a_edge3_Node000003_Node000004"><a xlink:title=" ">
<path fill="none" stroke="#63b8ff" d="M397.66,-121.46C376.56,-116.15 352.12,-110 332.33,-105.02"/>
<polygon fill="#63b8ff" stroke="#63b8ff" points="396.84,-124.86 407.4,-123.91 398.55,-118.08 396.84,-124.86"/>
</a>
</g>
</g>
<!-- Node4&#45;&gt;Node5 -->
<g id="edge4_Node000004_Node000005" class="edge">
<title>Node4&#45;&gt;Node5</title>
<g id="a_edge4_Node000004_Node000005"><a xlink:title=" ">
<path fill="none" stroke="#63b8ff" d="M232.66,-87.89C224.28,-86.83 215.64,-85.73 207.19,-84.66"/>
<polygon fill="#63b8ff" stroke="#63b8ff" points="232.36,-91.38 242.72,-89.17 233.24,-84.44 232.36,-91.38"/>
</a>
</g>
</g>
<!-- Node6 -->
<g id="Node000006" class="node">
<title>Node6</title>
<g id="a_Node000006"><a xlink:href="EstimateTrueCount__EntropyFast_8cc.html#a517c5941a291f7638e647c2598e62590" target="_top" xlink:title=" ">
<polygon fill="white" stroke="#666666" points="41,-86 0,-86 0,-67 41,-67 41,-86"/>
<text text-anchor="middle" x="20.5" y="-74" font-family="Helvetica,sans-Serif" font-size="10.00">main</text>
</a>
</g>
</g>
<!-- Node5&#45;&gt;Node6 -->
<g id="edge5_Node000005_Node000006" class="edge">
<title>Node5&#45;&gt;Node6</title>
<g id="a_edge5_Node000005_Node000006"><a xlink:title=" ">
<path fill="none" stroke="#63b8ff" d="M66.51,-76.5C57.25,-76.5 48.5,-76.5 41.22,-76.5"/>
<polygon fill="#63b8ff" stroke="#63b8ff" points="66.7,-80 76.7,-76.5 66.7,-73 66.7,-80"/>
</a>
</g>
</g>
<!-- Node9 -->
<g id="Node000009" class="node">
<title>Node9</title>
<g id="a_Node000009"><a xlink:href="testLogFactorial_8cc.html#ae66f6b31b5ad750f1fe042a706a4e3d4" target="_top" xlink:title=" ">
<polygon fill="white" stroke="#666666" points="467,-19 426,-19 426,0 467,0 467,-19"/>
<text text-anchor="middle" x="446.5" y="-7" font-family="Helvetica,sans-Serif" font-size="10.00">main</text>
</a>
</g>
</g>
<!-- Node8&#45;&gt;Node9 -->
<g id="edge10_Node000008_Node000009" class="edge">
<title>Node8&#45;&gt;Node9</title>
<g id="a_edge10_Node000008_Node000009"><a xlink:title=" ">
<path fill="none" stroke="#63b8ff" d="M543.77,-9.5C516.97,-9.5 486.62,-9.5 467.29,-9.5"/>
<polygon fill="#63b8ff" stroke="#63b8ff" points="543.83,-13 553.83,-9.5 543.83,-6 543.83,-13"/>
</a>
</g>
</g>
</g>
</svg>

<g id="navigator" transform="translate(0 0)" fill="#404254">
  <rect fill="#f2f5e9" fill-opacity="0.5" stroke="#606060" stroke-width=".5" x="0" y="0" width="60" height="60"/>
  <use id="zoomplus" xlink:href="#zoomPlus" x="17" y="9" onmousedown="handleZoom(evt,'in')"/>
  <use id="zoomminus" xlink:href="#zoomMin" x="42" y="9" onmousedown="handleZoom(evt,'out')"/>
  <use id="reset" xlink:href="#resetDef" x="30" y="36" onmousedown="handleReset()"/>
   <use id="arrowup" xlink:href="#arrowUp" x="0" y="0" onmousedown="handlePan(0,-1)"/>
  <use id="arrowright" xlink:href="#arrowRight" x="0" y="0" onmousedown="handlePan(1,0)"/>
  <use id="arrowdown" xlink:href="#arrowDown" x="0" y="0" onmousedown="handlePan(0,1)"/>
  <use id="arrowleft" xlink:href="#arrowLeft" x="0" y="0" onmousedown="handlePan(-1,0)"/>
</g>
<svg viewBox="0 0 15 15" width="100%" height="30px" preserveAspectRatio="xMaxYMin meet">
 <g id="arrow_out" transform="scale(0.3 0.3)">
  <a xlink:href="EstimateTrueCount__EntropyFast_8cc_a790922e5ce9415fe72d37406abf168c5_icgraph_org.svg" target="_base">
   <rect id="button" ry="5" rx="5" y="6" x="6" height="38" width="38"
        fill="#f2f5e9" fill-opacity="0.5" stroke="#606060" stroke-width="1.0"/>
   <path id="arrow"
     d="M 11.500037,31.436501 C 11.940474,20.09759 22.043105,11.32322 32.158766,21.979434 L 37.068811,17.246167 C 37.068811,17.246167 37.088388,32 37.088388,32 L 22.160133,31.978069 C 22.160133,31.978069 26.997745,27.140456 26.997745,27.140456 C 18.528582,18.264221 13.291696,25.230495 11.500037,31.436501 z"
     style="fill:#404040;"/>
  </a>
 </g>
</svg>

<style type='text/css'>
<![CDATA[
[data-mouse-over-selected='false'] { opacity: 0.7; }
[data-mouse-over-selected='true']  { opacity: 1.0; }
]]>
</style>
<script type="application/ecmascript"><![CDATA[
document.addEventListener('DOMContentLoaded', (event) => {
  highlightEdges();
  highlightAdjacentNodes();
});
]]></script>
</svg>
