<?xml version="1.0" encoding="UTF-8" standalone="no"?>
<!DOCTYPE svg PUBLIC "-//W3C//DTD SVG 1.1//EN"
 "http://www.w3.org/Graphics/SVG/1.1/DTD/svg11.dtd">
<!-- Generated by graphviz version 2.43.0 (0)
 -->
<!-- Title: f Pages: 1 -->
<svg width="267pt" height="46pt"
 viewBox="0.00 0.00 267.00 46.00" xmlns="http://www.w3.org/2000/svg" xmlns:xlink="http://www.w3.org/1999/xlink">
<g id="graph0" class="graph" transform="scale(1 1) rotate(0) translate(4 42)">
<title>f</title>
<!-- Node1 -->
<g id="Node000001" class="node">
<title>Node1</title>
<g id="a_Node000001"><a xlink:title=" ">
<polygon fill="#999999" stroke="#666666" points="29,-19 0,-19 0,0 29,0 29,-19"/>
<text text-anchor="middle" x="14.5" y="-7" font-family="Helvetica,sans-Serif" font-size="10.00">f</text>
</a>
</g>
</g>
<!-- Node2 -->
<g id="Node000002" class="node">
<title>Node2</title>
<g id="a_Node000002"><a xlink:href="EstimateTrueCount__EntropyFast_8cc.html#a9dbdc9b883fafd106ea6e9f4f2d18b10" target="_top" xlink:title=" ">
<polygon fill="white" stroke="#666666" points="194,-38 65,-38 65,-19 194,-19 194,-38"/>
<text text-anchor="middle" x="129.5" y="-26" font-family="Helvetica,sans-Serif" font-size="10.00">compute_sum_hx_vect</text>
</a>
</g>
</g>
<!-- Node1&#45;&gt;Node2 -->
<g id="edge1_Node000001_Node000002" class="edge">
<title>Node1&#45;&gt;Node2</title>
<g id="a_edge1_Node000001_Node000002"><a xlink:title=" ">
<path fill="none" stroke="#63b8ff" d="M29.36,-11.83C37.91,-13.27 49.59,-15.23 61.93,-17.31"/>
<polygon fill="#63b8ff" stroke="#63b8ff" points="61.48,-20.78 71.92,-18.99 62.64,-13.88 61.48,-20.78"/>
</a>
</g>
</g>
<!-- Node3 -->
<g id="Node000003" class="node">
<title>Node3</title>
<g id="a_Node000003"><a xlink:href="EstimateTrueCount__EntropyFast_8cc.html#a4bc05b3e60ec6578aae305cf37c63377" target="_top" xlink:title=" ">
<polygon fill="white" stroke="#666666" points="259,-19 230,-19 230,0 259,0 259,-19"/>
<text text-anchor="middle" x="244.5" y="-7" font-family="Helvetica,sans-Serif" font-size="10.00">h</text>
</a>
</g>
</g>
<!-- Node1&#45;&gt;Node3 -->
<g id="edge3_Node000001_Node000003" class="edge">
<title>Node1&#45;&gt;Node3</title>
<g id="a_edge3_Node000001_Node000003"><a xlink:title=" ">
<path fill="none" stroke="#63b8ff" d="M29.08,-9.5C66.62,-9.5 172.17,-9.5 219.74,-9.5"/>
<polygon fill="#63b8ff" stroke="#63b8ff" points="219.99,-13 229.99,-9.5 219.99,-6 219.99,-13"/>
</a>
</g>
</g>
<!-- Node2&#45;&gt;Node3 -->
<g id="edge2_Node000002_Node000003" class="edge">
<title>Node2&#45;&gt;Node3</title>
<g id="a_edge2_Node000002_Node000003"><a xlink:title=" ">
<path fill="none" stroke="#63b8ff" d="M187.33,-18.94C198.83,-17.01 210.31,-15.08 219.87,-13.47"/>
<polygon fill="#63b8ff" stroke="#63b8ff" points="220.46,-16.92 229.74,-11.81 219.3,-10.02 220.46,-16.92"/>
</a>
</g>
</g>
</g>
</svg>
