<?xml version="1.0" encoding="UTF-8" standalone="no"?>
<!DOCTYPE svg PUBLIC "-//W3C//DTD SVG 1.1//EN"
 "http://www.w3.org/Graphics/SVG/1.1/DTD/svg11.dtd">
<!-- Generated by graphviz version 2.43.0 (0)
 -->
<!-- Title: src/EstimateTrueCount_llratio.cc Pages: 1 -->
<svg width="938pt" height="148pt"
 viewBox="0.00 0.00 938.00 148.00" xmlns="http://www.w3.org/2000/svg" xmlns:xlink="http://www.w3.org/1999/xlink">
<g id="graph0" class="graph" transform="scale(1 1) rotate(0) translate(4 144)">
<title>src/EstimateTrueCount_llratio.cc</title>
<!-- Node1 -->
<g id="Node000001" class="node">
<title>Node1</title>
<g id="a_Node000001"><a xlink:title=" ">
<polygon fill="#999999" stroke="#666666" points="462,-140 336,-140 336,-110 462,-110 462,-140"/>
<text text-anchor="start" x="344" y="-128" font-family="Helvetica,sans-Serif" font-size="10.00">src/EstimateTrueCount</text>
<text text-anchor="middle" x="399" y="-117" font-family="Helvetica,sans-Serif" font-size="10.00">_llratio.cc</text>
</a>
</g>
</g>
<!-- Node2 -->
<g id="Node000002" class="node">
<title>Node2</title>
<g id="a_Node000002"><a xlink:href="Utilities_8hh.html" target="_top" xlink:title="Utility functions for NGS sequence processing and DNA manipulation.">
<polygon fill="white" stroke="#666666" points="216,-74 146,-74 146,-55 216,-55 216,-74"/>
<text text-anchor="middle" x="181" y="-62" font-family="Helvetica,sans-Serif" font-size="10.00">Utilities.hh</text>
</a>
</g>
</g>
<!-- Node1&#45;&gt;Node2 -->
<g id="edge1_Node000001_Node000002" class="edge">
<title>Node1&#45;&gt;Node2</title>
<g id="a_edge1_Node000001_Node000002"><a xlink:title=" ">
<path fill="none" stroke="#63b8ff" d="M346.78,-109.99C308.84,-99.8 258.15,-86.2 222.85,-76.73"/>
<polygon fill="#63b8ff" stroke="#63b8ff" points="223.44,-73.27 212.88,-74.05 221.63,-80.03 223.44,-73.27"/>
</a>
</g>
</g>
<!-- Node3 -->
<g id="Node000003" class="node">
<title>Node3</title>
<g id="a_Node000003"><a xlink:title=" ">
<polygon fill="#e0e0e0" stroke="#999999" points="60,-19 0,-19 0,0 60,0 60,-19"/>
<text text-anchor="middle" x="30" y="-7" font-family="Helvetica,sans-Serif" font-size="10.00">iostream</text>
</a>
</g>
</g>
<!-- Node1&#45;&gt;Node3 -->
<g id="edge8_Node000001_Node000003" class="edge">
<title>Node1&#45;&gt;Node3</title>
<g id="a_edge8_Node000001_Node000003"><a xlink:title=" ">
<path fill="none" stroke="#63b8ff" d="M335.81,-122.19C275.21,-118.39 182.35,-107.1 109,-74 83.83,-62.64 59.83,-41.34 45.03,-26.56"/>
<polygon fill="#63b8ff" stroke="#63b8ff" points="47.28,-23.86 37.8,-19.13 42.26,-28.74 47.28,-23.86"/>
</a>
</g>
</g>
<!-- Node4 -->
<g id="Node000004" class="node">
<title>Node4</title>
<g id="a_Node000004"><a xlink:title=" ">
<polygon fill="#e0e0e0" stroke="#999999" points="116,-19 78,-19 78,0 116,0 116,-19"/>
<text text-anchor="middle" x="97" y="-7" font-family="Helvetica,sans-Serif" font-size="10.00">map</text>
</a>
</g>
</g>
<!-- Node1&#45;&gt;Node4 -->
<g id="edge15_Node000001_Node000004" class="edge">
<title>Node1&#45;&gt;Node4</title>
<g id="a_edge15_Node000001_Node000004"><a xlink:title=" ">
<path fill="none" stroke="#63b8ff" d="M335.98,-118.92C266.4,-112.2 159.96,-98.27 128,-74 113.52,-63 105.42,-43.45 101.16,-28.94"/>
<polygon fill="#63b8ff" stroke="#63b8ff" points="104.49,-27.86 98.61,-19.05 97.72,-29.61 104.49,-27.86"/>
</a>
</g>
</g>
<!-- Node5 -->
<g id="Node000005" class="node">
<title>Node5</title>
<g id="a_Node000005"><a xlink:title=" ">
<polygon fill="#e0e0e0" stroke="#999999" points="178,-19 134,-19 134,0 178,0 178,-19"/>
<text text-anchor="middle" x="156" y="-7" font-family="Helvetica,sans-Serif" font-size="10.00">string</text>
</a>
</g>
</g>
<!-- Node1&#45;&gt;Node5 -->
<g id="edge14_Node000001_Node000005" class="edge">
<title>Node1&#45;&gt;Node5</title>
<g id="a_edge14_Node000001_Node000005"><a xlink:title=" ">
<path fill="none" stroke="#63b8ff" d="M335.89,-120.94C266.57,-116.1 161.76,-103.93 137,-74 126.15,-60.89 134.18,-41.74 142.89,-27.9"/>
<polygon fill="#63b8ff" stroke="#63b8ff" points="146.02,-29.53 148.81,-19.3 140.25,-25.56 146.02,-29.53"/>
</a>
</g>
</g>
<!-- Node6 -->
<g id="Node000006" class="node">
<title>Node6</title>
<g id="a_Node000006"><a xlink:title=" ">
<polygon fill="#e0e0e0" stroke="#999999" points="243.5,-19 196.5,-19 196.5,0 243.5,0 243.5,-19"/>
<text text-anchor="middle" x="220" y="-7" font-family="Helvetica,sans-Serif" font-size="10.00">vector</text>
</a>
</g>
</g>
<!-- Node1&#45;&gt;Node6 -->
<g id="edge9_Node000001_Node000006" class="edge">
<title>Node1&#45;&gt;Node6</title>
<g id="a_edge9_Node000001_Node000006"><a xlink:title=" ">
<path fill="none" stroke="#63b8ff" d="M358.94,-109.95C336.79,-101.26 309.31,-88.91 287,-74 266.92,-60.58 247.26,-40.95 234.49,-27.07"/>
<polygon fill="#63b8ff" stroke="#63b8ff" points="236.77,-24.38 227.48,-19.29 231.57,-29.06 236.77,-24.38"/>
</a>
</g>
</g>
<!-- Node7 -->
<g id="Node000007" class="node">
<title>Node7</title>
<g id="a_Node000007"><a xlink:title=" ">
<polygon fill="#e0e0e0" stroke="#999999" points="310.5,-19 261.5,-19 261.5,0 310.5,0 310.5,-19"/>
<text text-anchor="middle" x="286" y="-7" font-family="Helvetica,sans-Serif" font-size="10.00">cstdlib</text>
</a>
</g>
</g>
<!-- Node1&#45;&gt;Node7 -->
<g id="edge10_Node000001_Node000007" class="edge">
<title>Node1&#45;&gt;Node7</title>
<g id="a_edge10_Node000001_Node000007"><a xlink:title=" ">
<path fill="none" stroke="#63b8ff" d="M352.64,-109.99C334.07,-102.19 314.03,-90.6 301,-74 291.06,-61.33 287.53,-43.15 286.36,-29.48"/>
<polygon fill="#63b8ff" stroke="#63b8ff" points="289.85,-29.09 285.84,-19.29 282.86,-29.45 289.85,-29.09"/>
</a>
</g>
</g>
<!-- Node8 -->
<g id="Node000008" class="node">
<title>Node8</title>
<g id="a_Node000008"><a xlink:title=" ">
<polygon fill="#e0e0e0" stroke="#999999" points="356,-74 310,-74 310,-55 356,-55 356,-74"/>
<text text-anchor="middle" x="333" y="-62" font-family="Helvetica,sans-Serif" font-size="10.00">cstdio</text>
</a>
</g>
</g>
<!-- Node1&#45;&gt;Node8 -->
<g id="edge7_Node000001_Node000008" class="edge">
<title>Node1&#45;&gt;Node8</title>
<g id="a_edge7_Node000001_Node000008"><a xlink:title=" ">
<path fill="none" stroke="#63b8ff" d="M383.02,-109.84C373.25,-101.17 360.73,-90.08 350.66,-81.15"/>
<polygon fill="#63b8ff" stroke="#63b8ff" points="352.69,-78.28 342.89,-74.27 348.05,-83.52 352.69,-78.28"/>
</a>
</g>
</g>
<!-- Node9 -->
<g id="Node000009" class="node">
<title>Node9</title>
<g id="a_Node000009"><a xlink:title=" ">
<polygon fill="#e0e0e0" stroke="#999999" points="424,-74 374,-74 374,-55 424,-55 424,-74"/>
<text text-anchor="middle" x="399" y="-62" font-family="Helvetica,sans-Serif" font-size="10.00">cstring</text>
</a>
</g>
</g>
<!-- Node1&#45;&gt;Node9 -->
<g id="edge11_Node000001_Node000009" class="edge">
<title>Node1&#45;&gt;Node9</title>
<g id="a_edge11_Node000001_Node000009"><a xlink:title=" ">
<path fill="none" stroke="#63b8ff" d="M399,-109.84C399,-102.21 399,-92.7 399,-84.45"/>
<polygon fill="#63b8ff" stroke="#63b8ff" points="402.5,-84.27 399,-74.27 395.5,-84.27 402.5,-84.27"/>
</a>
</g>
</g>
<!-- Node10 -->
<g id="Node000010" class="node">
<title>Node10</title>
<g id="a_Node000010"><a xlink:title=" ">
<polygon fill="#e0e0e0" stroke="#999999" points="497.5,-74 442.5,-74 442.5,-55 497.5,-55 497.5,-74"/>
<text text-anchor="middle" x="470" y="-62" font-family="Helvetica,sans-Serif" font-size="10.00">fstream</text>
</a>
</g>
</g>
<!-- Node1&#45;&gt;Node10 -->
<g id="edge12_Node000001_Node000010" class="edge">
<title>Node1&#45;&gt;Node10</title>
<g id="a_edge12_Node000001_Node000010"><a xlink:title=" ">
<path fill="none" stroke="#63b8ff" d="M416.19,-109.84C426.81,-101.09 440.44,-89.85 451.33,-80.88"/>
<polygon fill="#63b8ff" stroke="#63b8ff" points="453.87,-83.33 459.36,-74.27 449.42,-77.92 453.87,-83.33"/>
</a>
</g>
</g>
<!-- Node11 -->
<g id="Node000011" class="node">
<title>Node11</title>
<g id="a_Node000011"><a xlink:title=" ">
<polygon fill="#e0e0e0" stroke="#999999" points="572,-74 516,-74 516,-55 572,-55 572,-74"/>
<text text-anchor="middle" x="544" y="-62" font-family="Helvetica,sans-Serif" font-size="10.00">sstream</text>
</a>
</g>
</g>
<!-- Node1&#45;&gt;Node11 -->
<g id="edge13_Node000001_Node000011" class="edge">
<title>Node1&#45;&gt;Node11</title>
<g id="a_edge13_Node000001_Node000011"><a xlink:title=" ">
<path fill="none" stroke="#63b8ff" d="M433.73,-109.99C457.92,-100.23 489.9,-87.33 513.19,-77.93"/>
<polygon fill="#63b8ff" stroke="#63b8ff" points="514.62,-81.13 522.59,-74.14 512,-74.63 514.62,-81.13"/>
</a>
</g>
</g>
<!-- Node12 -->
<g id="Node000012" class="node">
<title>Node12</title>
<g id="a_Node000012"><a xlink:title=" ">
<polygon fill="#e0e0e0" stroke="#999999" points="654,-74 590,-74 590,-55 654,-55 654,-74"/>
<text text-anchor="middle" x="622" y="-62" font-family="Helvetica,sans-Serif" font-size="10.00">algorithm</text>
</a>
</g>
</g>
<!-- Node1&#45;&gt;Node12 -->
<g id="edge16_Node000001_Node000012" class="edge">
<title>Node1&#45;&gt;Node12</title>
<g id="a_edge16_Node000001_Node000012"><a xlink:title=" ">
<path fill="none" stroke="#63b8ff" d="M452.41,-109.99C491.52,-99.73 543.84,-86 579.98,-76.52"/>
<polygon fill="#63b8ff" stroke="#63b8ff" points="580.93,-79.89 589.72,-73.97 579.16,-73.12 580.93,-79.89"/>
</a>
</g>
</g>
<!-- Node13 -->
<g id="Node000013" class="node">
<title>Node13</title>
<g id="a_Node000013"><a xlink:title=" ">
<polygon fill="#e0e0e0" stroke="#999999" points="719.5,-74 672.5,-74 672.5,-55 719.5,-55 719.5,-74"/>
<text text-anchor="middle" x="696" y="-62" font-family="Helvetica,sans-Serif" font-size="10.00">cmath</text>
</a>
</g>
</g>
<!-- Node1&#45;&gt;Node13 -->
<g id="edge17_Node000001_Node000013" class="edge">
<title>Node1&#45;&gt;Node13</title>
<g id="a_edge17_Node000001_Node000013"><a xlink:title=" ">
<path fill="none" stroke="#63b8ff" d="M462.18,-113.22C513.5,-104.2 587.98,-90.49 662.25,-74.04"/>
<polygon fill="#63b8ff" stroke="#63b8ff" points="663.25,-77.41 672.25,-71.81 661.73,-70.57 663.25,-77.41"/>
</a>
</g>
</g>
<!-- Node14 -->
<g id="Node000014" class="node">
<title>Node14</title>
<g id="a_Node000014"><a xlink:title=" ">
<polygon fill="#e0e0e0" stroke="#999999" points="782,-74 738,-74 738,-55 782,-55 782,-74"/>
<text text-anchor="middle" x="760" y="-62" font-family="Helvetica,sans-Serif" font-size="10.00">ctime</text>
</a>
</g>
</g>
<!-- Node1&#45;&gt;Node14 -->
<g id="edge18_Node000001_Node000014" class="edge">
<title>Node1&#45;&gt;Node14</title>
<g id="a_edge18_Node000001_Node000014"><a xlink:title=" ">
<path fill="none" stroke="#63b8ff" d="M462.04,-116.68C526.53,-108.69 629.75,-94.52 727.66,-74.07"/>
<polygon fill="#63b8ff" stroke="#63b8ff" points="728.67,-77.44 737.73,-71.94 727.22,-70.59 728.67,-77.44"/>
</a>
</g>
</g>
<!-- Node15 -->
<g id="Node000015" class="node">
<title>Node15</title>
<g id="a_Node000015"><a xlink:title=" ">
<polygon fill="#e0e0e0" stroke="#999999" points="856,-74 800,-74 800,-55 856,-55 856,-74"/>
<text text-anchor="middle" x="828" y="-62" font-family="Helvetica,sans-Serif" font-size="10.00">numeric</text>
</a>
</g>
</g>
<!-- Node1&#45;&gt;Node15 -->
<g id="edge19_Node000001_Node000015" class="edge">
<title>Node1&#45;&gt;Node15</title>
<g id="a_edge19_Node000001_Node000015"><a xlink:title=" ">
<path fill="none" stroke="#63b8ff" d="M462.09,-117.9C537.67,-110.15 668.28,-95.39 789.57,-74.1"/>
<polygon fill="#63b8ff" stroke="#63b8ff" points="790.54,-77.48 799.78,-72.29 789.32,-70.59 790.54,-77.48"/>
</a>
</g>
</g>
<!-- Node16 -->
<g id="Node000016" class="node">
<title>Node16</title>
<g id="a_Node000016"><a xlink:title=" ">
<polygon fill="#e0e0e0" stroke="#999999" points="930,-74 874,-74 874,-55 930,-55 930,-74"/>
<text text-anchor="middle" x="902" y="-62" font-family="Helvetica,sans-Serif" font-size="10.00">iomanip</text>
</a>
</g>
</g>
<!-- Node1&#45;&gt;Node16 -->
<g id="edge20_Node000001_Node000016" class="edge">
<title>Node1&#45;&gt;Node16</title>
<g id="a_edge20_Node000001_Node000016"><a xlink:title=" ">
<path fill="none" stroke="#63b8ff" d="M462.26,-119.61C550.17,-112.98 714.38,-98.68 863.53,-74.06"/>
<polygon fill="#63b8ff" stroke="#63b8ff" points="864.5,-77.45 873.79,-72.35 863.35,-70.54 864.5,-77.45"/>
</a>
</g>
</g>
<!-- Node2&#45;&gt;Node3 -->
<g id="edge2_Node000002_Node000003" class="edge">
<title>Node2&#45;&gt;Node3</title>
<g id="a_edge2_Node000002_Node000003"><a xlink:title=" ">
<path fill="none" stroke="#63b8ff" d="M156.74,-54.98C131.68,-46.19 92.37,-32.39 64.17,-22.49"/>
<polygon fill="#63b8ff" stroke="#63b8ff" points="65.3,-19.18 54.7,-19.17 62.98,-25.78 65.3,-19.18"/>
</a>
</g>
</g>
<!-- Node2&#45;&gt;Node4 -->
<g id="edge3_Node000002_Node000004" class="edge">
<title>Node2&#45;&gt;Node4</title>
<g id="a_edge3_Node000002_Node000004"><a xlink:title=" ">
<path fill="none" stroke="#63b8ff" d="M167.5,-54.98C154.6,-46.84 134.9,-34.41 119.6,-24.76"/>
<polygon fill="#63b8ff" stroke="#63b8ff" points="121.07,-21.55 110.74,-19.17 117.33,-27.47 121.07,-21.55"/>
</a>
</g>
</g>
<!-- Node2&#45;&gt;Node5 -->
<g id="edge4_Node000002_Node000005" class="edge">
<title>Node2&#45;&gt;Node5</title>
<g id="a_edge4_Node000002_Node000005"><a xlink:title=" ">
<path fill="none" stroke="#63b8ff" d="M176.87,-54.75C173.49,-47.57 168.58,-37.18 164.38,-28.27"/>
<polygon fill="#63b8ff" stroke="#63b8ff" points="167.48,-26.64 160.05,-19.09 161.15,-29.63 167.48,-26.64"/>
</a>
</g>
</g>
<!-- Node2&#45;&gt;Node6 -->
<g id="edge5_Node000002_Node000006" class="edge">
<title>Node2&#45;&gt;Node6</title>
<g id="a_edge5_Node000002_Node000006"><a xlink:title=" ">
<path fill="none" stroke="#63b8ff" d="M187.44,-54.75C192.89,-47.34 200.86,-36.5 207.56,-27.41"/>
<polygon fill="#63b8ff" stroke="#63b8ff" points="210.57,-29.22 213.68,-19.09 204.93,-25.07 210.57,-29.22"/>
</a>
</g>
</g>
<!-- Node2&#45;&gt;Node7 -->
<g id="edge6_Node000002_Node000007" class="edge">
<title>Node2&#45;&gt;Node7</title>
<g id="a_edge6_Node000002_Node000007"><a xlink:title=" ">
<path fill="none" stroke="#63b8ff" d="M197.87,-54.98C214.61,-46.54 240.5,-33.47 259.89,-23.68"/>
<polygon fill="#63b8ff" stroke="#63b8ff" points="261.47,-26.8 268.82,-19.17 258.32,-20.55 261.47,-26.8"/>
</a>
</g>
</g>
</g>
</svg>
