<?xml version="1.0" encoding="UTF-8" standalone="no"?>
<!DOCTYPE svg PUBLIC "-//W3C//DTD SVG 1.1//EN"
 "http://www.w3.org/Graphics/SVG/1.1/DTD/svg11.dtd">
<!-- Generated by graphviz version 2.43.0 (0)
 -->
<!-- Title: final_f Pages: 1 -->
<svg width="353pt" height="64pt"
 viewBox="0.00 0.00 353.00 64.00" xmlns="http://www.w3.org/2000/svg" xmlns:xlink="http://www.w3.org/1999/xlink">
<g id="graph0" class="graph" transform="scale(1 1) rotate(0) translate(4 60)">
<title>final_f</title>
<!-- Node1 -->
<g id="Node000001" class="node">
<title>Node1</title>
<g id="a_Node000001"><a xlink:title=" ">
<polygon fill="#999999" stroke="#666666" points="47,-37 0,-37 0,-18 47,-18 47,-37"/>
<text text-anchor="middle" x="23.5" y="-25" font-family="Helvetica,sans-Serif" font-size="10.00">final_f</text>
</a>
</g>
</g>
<!-- Node2 -->
<g id="Node000002" class="node">
<title>Node2</title>
<g id="a_Node000002"><a xlink:href="EstimateTrueCount__EntropyFast_8cc.html#af1014954eb42dcb1cdfd1c7bb24eabb8" target="_top" xlink:title=" ">
<polygon fill="white" stroke="#666666" points="115,-56 83,-56 83,-37 115,-37 115,-56"/>
<text text-anchor="middle" x="99" y="-44" font-family="Helvetica,sans-Serif" font-size="10.00">ent</text>
</a>
</g>
</g>
<!-- Node1&#45;&gt;Node2 -->
<g id="edge1_Node000001_Node000002" class="edge">
<title>Node1&#45;&gt;Node2</title>
<g id="a_edge1_Node000001_Node000002"><a xlink:title=" ">
<path fill="none" stroke="#63b8ff" d="M47.35,-33.41C55.41,-35.49 64.52,-37.84 72.76,-39.98"/>
<polygon fill="#63b8ff" stroke="#63b8ff" points="72.05,-43.41 82.6,-42.52 73.8,-36.63 72.05,-43.41"/>
</a>
</g>
</g>
<!-- Node5 -->
<g id="Node000005" class="node">
<title>Node5</title>
<g id="a_Node000005"><a xlink:href="EstimateTrueCount__EntropyFast_8cc.html#a790922e5ce9415fe72d37406abf168c5" target="_top" xlink:title=" ">
<polygon fill="white" stroke="#666666" points="113.5,-19 84.5,-19 84.5,0 113.5,0 113.5,-19"/>
<text text-anchor="middle" x="99" y="-7" font-family="Helvetica,sans-Serif" font-size="10.00">f</text>
</a>
</g>
</g>
<!-- Node1&#45;&gt;Node5 -->
<g id="edge5_Node000001_Node000005" class="edge">
<title>Node1&#45;&gt;Node5</title>
<g id="a_edge5_Node000001_Node000005"><a xlink:title=" ">
<path fill="none" stroke="#63b8ff" d="M47.35,-21.9C55.98,-19.79 65.81,-17.38 74.5,-15.26"/>
<polygon fill="#63b8ff" stroke="#63b8ff" points="75.49,-18.62 84.37,-12.84 73.82,-11.82 75.49,-18.62"/>
</a>
</g>
</g>
<!-- Node3 -->
<g id="Node000003" class="node">
<title>Node3</title>
<g id="a_Node000003"><a xlink:href="EstimateTrueCount__EntropyFast_8cc.html#a9dbdc9b883fafd106ea6e9f4f2d18b10" target="_top" xlink:title=" ">
<polygon fill="white" stroke="#666666" points="280,-38 151,-38 151,-19 280,-19 280,-38"/>
<text text-anchor="middle" x="215.5" y="-26" font-family="Helvetica,sans-Serif" font-size="10.00">compute_sum_hx_vect</text>
</a>
</g>
</g>
<!-- Node2&#45;&gt;Node3 -->
<g id="edge2_Node000002_Node000003" class="edge">
<title>Node2&#45;&gt;Node3</title>
<g id="a_edge2_Node000002_Node000003"><a xlink:title=" ">
<path fill="none" stroke="#63b8ff" d="M115.44,-44.07C123.25,-42.85 133.33,-41.26 144.07,-39.57"/>
<polygon fill="#63b8ff" stroke="#63b8ff" points="144.73,-43.01 154.07,-38 143.65,-36.1 144.73,-43.01"/>
</a>
</g>
</g>
<!-- Node4 -->
<g id="Node000004" class="node">
<title>Node4</title>
<g id="a_Node000004"><a xlink:href="EstimateTrueCount__EntropyFast_8cc.html#a4bc05b3e60ec6578aae305cf37c63377" target="_top" xlink:title=" ">
<polygon fill="white" stroke="#666666" points="345,-38 316,-38 316,-19 345,-19 345,-38"/>
<text text-anchor="middle" x="330.5" y="-26" font-family="Helvetica,sans-Serif" font-size="10.00">h</text>
</a>
</g>
</g>
<!-- Node2&#45;&gt;Node4 -->
<g id="edge4_Node000002_Node000004" class="edge">
<title>Node2&#45;&gt;Node4</title>
<g id="a_edge4_Node000002_Node000004"><a xlink:title=" ">
<path fill="none" stroke="#63b8ff" d="M115.1,-48.48C146.26,-52.15 219.77,-58.66 280,-47.5 288.88,-45.85 298.22,-42.68 306.37,-39.39"/>
<polygon fill="#63b8ff" stroke="#63b8ff" points="307.8,-42.58 315.61,-35.41 305.04,-36.15 307.8,-42.58"/>
</a>
</g>
</g>
<!-- Node3&#45;&gt;Node4 -->
<g id="edge3_Node000003_Node000004" class="edge">
<title>Node3&#45;&gt;Node4</title>
<g id="a_edge3_Node000003_Node000004"><a xlink:title=" ">
<path fill="none" stroke="#63b8ff" d="M280.27,-28.5C289.28,-28.5 298.04,-28.5 305.62,-28.5"/>
<polygon fill="#63b8ff" stroke="#63b8ff" points="305.75,-32 315.75,-28.5 305.75,-25 305.75,-32"/>
</a>
</g>
</g>
<!-- Node5&#45;&gt;Node3 -->
<g id="edge6_Node000005_Node000003" class="edge">
<title>Node5&#45;&gt;Node3</title>
<g id="a_edge6_Node000005_Node000003"><a xlink:title=" ">
<path fill="none" stroke="#63b8ff" d="M113.58,-11.75C122.23,-13.19 134.15,-15.17 146.77,-17.26"/>
<polygon fill="#63b8ff" stroke="#63b8ff" points="146.56,-20.77 157,-18.96 147.71,-13.87 146.56,-20.77"/>
</a>
</g>
</g>
<!-- Node5&#45;&gt;Node4 -->
<g id="edge7_Node000005_Node000004" class="edge">
<title>Node5&#45;&gt;Node4</title>
<g id="a_edge7_Node000005_Node000004"><a xlink:title=" ">
<path fill="none" stroke="#63b8ff" d="M113.7,-7.81C144,-4.45 218.85,1.83 280,-9.5 288.88,-11.15 298.22,-14.32 306.37,-17.61"/>
<polygon fill="#63b8ff" stroke="#63b8ff" points="305.04,-20.85 315.61,-21.59 307.8,-14.42 305.04,-20.85"/>
</a>
</g>
</g>
</g>
</svg>
