<?xml version="1.0" encoding="UTF-8" standalone="no"?>
<!DOCTYPE svg PUBLIC "-//W3C//DTD SVG 1.1//EN"
 "http://www.w3.org/Graphics/SVG/1.1/DTD/svg11.dtd">
<!-- Generated by graphviz version 2.43.0 (0)
 -->
<!-- Title: src/EstimateTrueCount.cc Pages: 1 -->
<svg width="805pt" height="137pt"
 viewBox="0.00 0.00 805.00 137.00" xmlns="http://www.w3.org/2000/svg" xmlns:xlink="http://www.w3.org/1999/xlink">
<g id="graph0" class="graph" transform="scale(1 1) rotate(0) translate(4 133)">
<title>src/EstimateTrueCount.cc</title>
<!-- Node1 -->
<g id="Node000001" class="node">
<title>Node1</title>
<g id="a_Node000001"><a xlink:title=" ">
<polygon fill="#999999" stroke="#666666" points="405,-129 265,-129 265,-110 405,-110 405,-129"/>
<text text-anchor="middle" x="335" y="-117" font-family="Helvetica,sans-Serif" font-size="10.00">src/EstimateTrueCount.cc</text>
</a>
</g>
</g>
<!-- Node2 -->
<g id="Node000002" class="node">
<title>Node2</title>
<g id="a_Node000002"><a xlink:href="Utilities_8hh.html" target="_top" xlink:title=" ">
<polygon fill="white" stroke="#666666" points="209,-74 139,-74 139,-55 209,-55 209,-74"/>
<text text-anchor="middle" x="174" y="-62" font-family="Helvetica,sans-Serif" font-size="10.00">Utilities.hh</text>
</a>
</g>
</g>
<!-- Node1&#45;&gt;Node2 -->
<g id="edge1_Node000001_Node000002" class="edge">
<title>Node1&#45;&gt;Node2</title>
<g id="a_edge1_Node000001_Node000002"><a xlink:title=" ">
<path fill="none" stroke="#63b8ff" d="M309.13,-109.98C282.22,-101.13 239.88,-87.19 209.77,-77.28"/>
<polygon fill="#63b8ff" stroke="#63b8ff" points="210.66,-73.88 200.07,-74.08 208.47,-80.53 210.66,-73.88"/>
</a>
</g>
</g>
<!-- Node3 -->
<g id="Node000003" class="node">
<title>Node3</title>
<g id="a_Node000003"><a xlink:title=" ">
<polygon fill="#e0e0e0" stroke="#999999" points="44,-19 0,-19 0,0 44,0 44,-19"/>
<text text-anchor="middle" x="22" y="-7" font-family="Helvetica,sans-Serif" font-size="10.00">string</text>
</a>
</g>
</g>
<!-- Node1&#45;&gt;Node3 -->
<g id="edge14_Node000001_Node000003" class="edge">
<title>Node1&#45;&gt;Node3</title>
<g id="a_edge14_Node000001_Node000003"><a xlink:title=" ">
<path fill="none" stroke="#63b8ff" d="M264.97,-114.13C216.99,-109.02 152.91,-97.96 101,-74 75.93,-62.43 51.91,-41.18 37.07,-26.47"/>
<polygon fill="#63b8ff" stroke="#63b8ff" points="39.32,-23.76 29.82,-19.07 34.32,-28.66 39.32,-23.76"/>
</a>
</g>
</g>
<!-- Node4 -->
<g id="Node000004" class="node">
<title>Node4</title>
<g id="a_Node000004"><a xlink:title=" ">
<polygon fill="#e0e0e0" stroke="#999999" points="109.5,-19 62.5,-19 62.5,0 109.5,0 109.5,-19"/>
<text text-anchor="middle" x="86" y="-7" font-family="Helvetica,sans-Serif" font-size="10.00">vector</text>
</a>
</g>
</g>
<!-- Node1&#45;&gt;Node4 -->
<g id="edge15_Node000001_Node000004" class="edge">
<title>Node1&#45;&gt;Node4</title>
<g id="a_edge15_Node000001_Node000004"><a xlink:title=" ">
<path fill="none" stroke="#63b8ff" d="M264.78,-110.15C211.79,-102.7 144.5,-90.43 122,-74 106.83,-62.93 97.16,-43.39 91.7,-28.9"/>
<polygon fill="#63b8ff" stroke="#63b8ff" points="94.88,-27.36 88.33,-19.03 88.25,-29.62 94.88,-27.36"/>
</a>
</g>
</g>
<!-- Node5 -->
<g id="Node000005" class="node">
<title>Node5</title>
<g id="a_Node000005"><a xlink:title=" ">
<polygon fill="#e0e0e0" stroke="#999999" points="188,-19 128,-19 128,0 188,0 188,-19"/>
<text text-anchor="middle" x="158" y="-7" font-family="Helvetica,sans-Serif" font-size="10.00">iostream</text>
</a>
</g>
</g>
<!-- Node1&#45;&gt;Node5 -->
<g id="edge10_Node000001_Node000005" class="edge">
<title>Node1&#45;&gt;Node5</title>
<g id="a_edge10_Node000001_Node000005"><a xlink:title=" ">
<path fill="none" stroke="#63b8ff" d="M264.83,-112.56C212.34,-106.5 146.86,-94.91 130,-74 118.6,-59.86 130.33,-40.36 141.91,-26.71"/>
<polygon fill="#63b8ff" stroke="#63b8ff" points="144.72,-28.82 148.88,-19.07 139.56,-24.09 144.72,-28.82"/>
</a>
</g>
</g>
<!-- Node6 -->
<g id="Node000006" class="node">
<title>Node6</title>
<g id="a_Node000006"><a xlink:title=" ">
<polygon fill="#e0e0e0" stroke="#999999" points="244,-19 206,-19 206,0 244,0 244,-19"/>
<text text-anchor="middle" x="225" y="-7" font-family="Helvetica,sans-Serif" font-size="10.00">map</text>
</a>
</g>
</g>
<!-- Node1&#45;&gt;Node6 -->
<g id="edge11_Node000001_Node000006" class="edge">
<title>Node1&#45;&gt;Node6</title>
<g id="a_edge11_Node000001_Node000006"><a xlink:title=" ">
<path fill="none" stroke="#63b8ff" d="M324.56,-109.94C314.05,-101.2 297.5,-87.09 284,-74 268.22,-58.71 251.25,-40.2 239.58,-27.12"/>
<polygon fill="#63b8ff" stroke="#63b8ff" points="241.99,-24.57 232.74,-19.4 236.75,-29.21 241.99,-24.57"/>
</a>
</g>
</g>
<!-- Node7 -->
<g id="Node000007" class="node">
<title>Node7</title>
<g id="a_Node000007"><a xlink:title=" ">
<polygon fill="#e0e0e0" stroke="#999999" points="311.5,-19 262.5,-19 262.5,0 311.5,0 311.5,-19"/>
<text text-anchor="middle" x="287" y="-7" font-family="Helvetica,sans-Serif" font-size="10.00">cstdlib</text>
</a>
</g>
</g>
<!-- Node1&#45;&gt;Node7 -->
<g id="edge17_Node000001_Node000007" class="edge">
<title>Node1&#45;&gt;Node7</title>
<g id="a_edge17_Node000001_Node000007"><a xlink:title=" ">
<path fill="none" stroke="#63b8ff" d="M323.85,-109.95C314.18,-101.84 300.7,-88.72 294,-74 287.6,-59.95 286.09,-42.4 286.05,-29.31"/>
<polygon fill="#63b8ff" stroke="#63b8ff" points="289.55,-29.25 286.3,-19.16 282.55,-29.07 289.55,-29.25"/>
</a>
</g>
</g>
<!-- Node8 -->
<g id="Node000008" class="node">
<title>Node8</title>
<g id="a_Node000008"><a xlink:title=" ">
<polygon fill="#e0e0e0" stroke="#999999" points="367,-74 303,-74 303,-55 367,-55 367,-74"/>
<text text-anchor="middle" x="335" y="-62" font-family="Helvetica,sans-Serif" font-size="10.00">algorithm</text>
</a>
</g>
</g>
<!-- Node1&#45;&gt;Node8 -->
<g id="edge7_Node000001_Node000008" class="edge">
<title>Node1&#45;&gt;Node8</title>
<g id="a_edge7_Node000001_Node000008"><a xlink:title=" ">
<path fill="none" stroke="#63b8ff" d="M335,-109.75C335,-102.8 335,-92.85 335,-84.13"/>
<polygon fill="#63b8ff" stroke="#63b8ff" points="338.5,-84.09 335,-74.09 331.5,-84.09 338.5,-84.09"/>
</a>
</g>
</g>
<!-- Node9 -->
<g id="Node000009" class="node">
<title>Node9</title>
<g id="a_Node000009"><a xlink:title=" ">
<polygon fill="#e0e0e0" stroke="#999999" points="440.5,-74 385.5,-74 385.5,-55 440.5,-55 440.5,-74"/>
<text text-anchor="middle" x="413" y="-62" font-family="Helvetica,sans-Serif" font-size="10.00">fstream</text>
</a>
</g>
</g>
<!-- Node1&#45;&gt;Node9 -->
<g id="edge8_Node000001_Node000009" class="edge">
<title>Node1&#45;&gt;Node9</title>
<g id="a_edge8_Node000001_Node000009"><a xlink:title=" ">
<path fill="none" stroke="#63b8ff" d="M347.53,-109.98C359.4,-101.92 377.46,-89.65 391.61,-80.03"/>
<polygon fill="#63b8ff" stroke="#63b8ff" points="393.94,-82.69 400.24,-74.17 390,-76.9 393.94,-82.69"/>
</a>
</g>
</g>
<!-- Node10 -->
<g id="Node000010" class="node">
<title>Node10</title>
<g id="a_Node000010"><a xlink:title=" ">
<polygon fill="#e0e0e0" stroke="#999999" points="515,-74 459,-74 459,-55 515,-55 515,-74"/>
<text text-anchor="middle" x="487" y="-62" font-family="Helvetica,sans-Serif" font-size="10.00">iomanip</text>
</a>
</g>
</g>
<!-- Node1&#45;&gt;Node10 -->
<g id="edge9_Node000001_Node000010" class="edge">
<title>Node1&#45;&gt;Node10</title>
<g id="a_edge9_Node000001_Node000010"><a xlink:title=" ">
<path fill="none" stroke="#63b8ff" d="M359.42,-109.98C384.72,-101.16 424.45,-87.31 452.86,-77.41"/>
<polygon fill="#63b8ff" stroke="#63b8ff" points="454.1,-80.68 462.39,-74.08 451.79,-74.07 454.1,-80.68"/>
</a>
</g>
</g>
<!-- Node11 -->
<g id="Node000011" class="node">
<title>Node11</title>
<g id="a_Node000011"><a xlink:title=" ">
<polygon fill="#e0e0e0" stroke="#999999" points="589,-74 533,-74 533,-55 589,-55 589,-74"/>
<text text-anchor="middle" x="561" y="-62" font-family="Helvetica,sans-Serif" font-size="10.00">numeric</text>
</a>
</g>
</g>
<!-- Node1&#45;&gt;Node11 -->
<g id="edge12_Node000001_Node000011" class="edge">
<title>Node1&#45;&gt;Node11</title>
<g id="a_edge12_Node000001_Node000011"><a xlink:title=" ">
<path fill="none" stroke="#63b8ff" d="M371.31,-109.98C412.92,-100.23 480.81,-84.31 523.08,-74.39"/>
<polygon fill="#63b8ff" stroke="#63b8ff" points="524.05,-77.76 532.99,-72.07 522.45,-70.94 524.05,-77.76"/>
</a>
</g>
</g>
<!-- Node12 -->
<g id="Node000012" class="node">
<title>Node12</title>
<g id="a_Node000012"><a xlink:title=" ">
<polygon fill="#e0e0e0" stroke="#999999" points="663,-74 607,-74 607,-55 663,-55 663,-74"/>
<text text-anchor="middle" x="635" y="-62" font-family="Helvetica,sans-Serif" font-size="10.00">sstream</text>
</a>
</g>
</g>
<!-- Node1&#45;&gt;Node12 -->
<g id="edge13_Node000001_Node000012" class="edge">
<title>Node1&#45;&gt;Node12</title>
<g id="a_edge13_Node000001_Node000012"><a xlink:title=" ">
<path fill="none" stroke="#63b8ff" d="M391.1,-109.98C442.27,-101.98 520.21,-89.26 596.92,-74.12"/>
<polygon fill="#63b8ff" stroke="#63b8ff" points="597.63,-77.55 606.75,-72.17 596.26,-70.68 597.63,-77.55"/>
</a>
</g>
</g>
<!-- Node13 -->
<g id="Node000013" class="node">
<title>Node13</title>
<g id="a_Node000013"><a xlink:title=" ">
<polygon fill="#e0e0e0" stroke="#999999" points="728.5,-74 681.5,-74 681.5,-55 728.5,-55 728.5,-74"/>
<text text-anchor="middle" x="705" y="-62" font-family="Helvetica,sans-Serif" font-size="10.00">cmath</text>
</a>
</g>
</g>
<!-- Node1&#45;&gt;Node13 -->
<g id="edge16_Node000001_Node000013" class="edge">
<title>Node1&#45;&gt;Node13</title>
<g id="a_edge16_Node000001_Node000013"><a xlink:title=" ">
<path fill="none" stroke="#63b8ff" d="M405.1,-111.74C471.28,-104.79 573.41,-92.61 671.22,-73.92"/>
<polygon fill="#63b8ff" stroke="#63b8ff" points="672.13,-77.31 681.28,-71.97 670.8,-70.44 672.13,-77.31"/>
</a>
</g>
</g>
<!-- Node14 -->
<g id="Node000014" class="node">
<title>Node14</title>
<g id="a_Node000014"><a xlink:title=" ">
<polygon fill="#e0e0e0" stroke="#999999" points="797,-74 747,-74 747,-55 797,-55 797,-74"/>
<text text-anchor="middle" x="772" y="-62" font-family="Helvetica,sans-Serif" font-size="10.00">cstring</text>
</a>
</g>
</g>
<!-- Node1&#45;&gt;Node14 -->
<g id="edge18_Node000001_Node000014" class="edge">
<title>Node1&#45;&gt;Node14</title>
<g id="a_edge18_Node000001_Node000014"><a xlink:title=" ">
<path fill="none" stroke="#63b8ff" d="M405.3,-113.63C483.92,-107.53 615.15,-95.41 736.96,-73.96"/>
<polygon fill="#63b8ff" stroke="#63b8ff" points="737.6,-77.4 746.83,-72.19 736.37,-70.51 737.6,-77.4"/>
</a>
</g>
</g>
<!-- Node2&#45;&gt;Node3 -->
<g id="edge2_Node000002_Node000003" class="edge">
<title>Node2&#45;&gt;Node3</title>
<g id="a_edge2_Node000002_Node000003"><a xlink:title=" ">
<path fill="none" stroke="#63b8ff" d="M149.58,-54.98C123.6,-45.93 82.41,-31.56 53.89,-21.62"/>
<polygon fill="#63b8ff" stroke="#63b8ff" points="54.97,-18.29 44.38,-18.3 52.67,-24.9 54.97,-18.29"/>
</a>
</g>
</g>
<!-- Node2&#45;&gt;Node4 -->
<g id="edge3_Node000002_Node000004" class="edge">
<title>Node2&#45;&gt;Node4</title>
<g id="a_edge3_Node000002_Node000004"><a xlink:title=" ">
<path fill="none" stroke="#63b8ff" d="M159.86,-54.98C146.21,-46.77 125.31,-34.18 109.22,-24.49"/>
<polygon fill="#63b8ff" stroke="#63b8ff" points="110.77,-21.33 100.4,-19.17 107.16,-27.33 110.77,-21.33"/>
</a>
</g>
</g>
<!-- Node2&#45;&gt;Node5 -->
<g id="edge4_Node000002_Node000005" class="edge">
<title>Node2&#45;&gt;Node5</title>
<g id="a_edge4_Node000002_Node000005"><a xlink:title=" ">
<path fill="none" stroke="#63b8ff" d="M171.36,-54.75C169.24,-47.72 166.19,-37.62 163.54,-28.84"/>
<polygon fill="#63b8ff" stroke="#63b8ff" points="166.83,-27.65 160.59,-19.09 160.13,-29.67 166.83,-27.65"/>
</a>
</g>
</g>
<!-- Node2&#45;&gt;Node6 -->
<g id="edge5_Node000002_Node000006" class="edge">
<title>Node2&#45;&gt;Node6</title>
<g id="a_edge5_Node000002_Node000006"><a xlink:title=" ">
<path fill="none" stroke="#63b8ff" d="M182.42,-54.75C189.77,-47.11 200.63,-35.82 209.54,-26.56"/>
<polygon fill="#63b8ff" stroke="#63b8ff" points="212.32,-28.72 216.74,-19.09 207.28,-23.87 212.32,-28.72"/>
</a>
</g>
</g>
<!-- Node2&#45;&gt;Node7 -->
<g id="edge6_Node000002_Node000007" class="edge">
<title>Node2&#45;&gt;Node7</title>
<g id="a_edge6_Node000002_Node000007"><a xlink:title=" ">
<path fill="none" stroke="#63b8ff" d="M192.16,-54.98C210.25,-46.5 238.28,-33.35 259.19,-23.54"/>
<polygon fill="#63b8ff" stroke="#63b8ff" points="260.95,-26.59 268.51,-19.17 257.97,-20.25 260.95,-26.59"/>
</a>
</g>
</g>
</g>
</svg>
