<?xml version="1.0" encoding="UTF-8" standalone="no"?>
<!DOCTYPE svg PUBLIC "-//W3C//DTD SVG 1.1//EN"
 "http://www.w3.org/Graphics/SVG/1.1/DTD/svg11.dtd">
<!-- Generated by graphviz version 2.43.0 (0)
 -->
<!-- Title: src/EstimateTrueCount.cc Pages: 1 -->
<svg width="812pt" height="137pt"
 viewBox="0.00 0.00 812.00 137.00" xmlns="http://www.w3.org/2000/svg" xmlns:xlink="http://www.w3.org/1999/xlink">
<g id="graph0" class="graph" transform="scale(1 1) rotate(0) translate(4 133)">
<title>src/EstimateTrueCount.cc</title>
<!-- Node1 -->
<g id="Node000001" class="node">
<title>Node1</title>
<g id="a_Node000001"><a xlink:title=" ">
<polygon fill="#999999" stroke="#666666" points="412,-129 272,-129 272,-110 412,-110 412,-129"/>
<text text-anchor="middle" x="342" y="-117" font-family="Helvetica,sans-Serif" font-size="10.00">src/EstimateTrueCount.cc</text>
</a>
</g>
</g>
<!-- Node2 -->
<g id="Node000002" class="node">
<title>Node2</title>
<g id="a_Node000002"><a xlink:href="Utilities_8hh.html" target="_top" xlink:title="Utility functions for NGS sequence processing and DNA manipulation.">
<polygon fill="white" stroke="#666666" points="216,-74 146,-74 146,-55 216,-55 216,-74"/>
<text text-anchor="middle" x="181" y="-62" font-family="Helvetica,sans-Serif" font-size="10.00">Utilities.hh</text>
</a>
</g>
</g>
<!-- Node1&#45;&gt;Node2 -->
<g id="edge1_Node000001_Node000002" class="edge">
<title>Node1&#45;&gt;Node2</title>
<g id="a_edge1_Node000001_Node000002"><a xlink:title=" ">
<path fill="none" stroke="#63b8ff" d="M316.13,-109.98C289.22,-101.13 246.88,-87.19 216.77,-77.28"/>
<polygon fill="#63b8ff" stroke="#63b8ff" points="217.66,-73.88 207.07,-74.08 215.47,-80.53 217.66,-73.88"/>
</a>
</g>
</g>
<!-- Node3 -->
<g id="Node000003" class="node">
<title>Node3</title>
<g id="a_Node000003"><a xlink:title=" ">
<polygon fill="#e0e0e0" stroke="#999999" points="60,-19 0,-19 0,0 60,0 60,-19"/>
<text text-anchor="middle" x="30" y="-7" font-family="Helvetica,sans-Serif" font-size="10.00">iostream</text>
</a>
</g>
</g>
<!-- Node1&#45;&gt;Node3 -->
<g id="edge10_Node000001_Node000003" class="edge">
<title>Node1&#45;&gt;Node3</title>
<g id="a_edge10_Node000001_Node000003"><a xlink:title=" ">
<path fill="none" stroke="#63b8ff" d="M271.75,-114.02C224.04,-108.87 160.5,-97.8 109,-74 83.93,-62.42 59.91,-41.17 45.07,-26.46"/>
<polygon fill="#63b8ff" stroke="#63b8ff" points="47.32,-23.76 37.83,-19.07 42.32,-28.66 47.32,-23.76"/>
</a>
</g>
</g>
<!-- Node4 -->
<g id="Node000004" class="node">
<title>Node4</title>
<g id="a_Node000004"><a xlink:title=" ">
<polygon fill="#e0e0e0" stroke="#999999" points="116,-19 78,-19 78,0 116,0 116,-19"/>
<text text-anchor="middle" x="97" y="-7" font-family="Helvetica,sans-Serif" font-size="10.00">map</text>
</a>
</g>
</g>
<!-- Node1&#45;&gt;Node4 -->
<g id="edge11_Node000001_Node000004" class="edge">
<title>Node1&#45;&gt;Node4</title>
<g id="a_edge11_Node000001_Node000004"><a xlink:title=" ">
<path fill="none" stroke="#63b8ff" d="M271.98,-110.66C218.46,-103.46 150.21,-91.26 128,-74 113.64,-62.84 105.52,-43.32 101.22,-28.85"/>
<polygon fill="#63b8ff" stroke="#63b8ff" points="104.56,-27.79 98.65,-19.01 97.79,-29.57 104.56,-27.79"/>
</a>
</g>
</g>
<!-- Node5 -->
<g id="Node000005" class="node">
<title>Node5</title>
<g id="a_Node000005"><a xlink:title=" ">
<polygon fill="#e0e0e0" stroke="#999999" points="178,-19 134,-19 134,0 178,0 178,-19"/>
<text text-anchor="middle" x="156" y="-7" font-family="Helvetica,sans-Serif" font-size="10.00">string</text>
</a>
</g>
</g>
<!-- Node1&#45;&gt;Node5 -->
<g id="edge14_Node000001_Node000005" class="edge">
<title>Node1&#45;&gt;Node5</title>
<g id="a_edge14_Node000001_Node000005"><a xlink:title=" ">
<path fill="none" stroke="#63b8ff" d="M271.83,-112.56C219.34,-106.5 153.86,-94.91 137,-74 126.32,-60.75 134.32,-41.62 142.98,-27.82"/>
<polygon fill="#63b8ff" stroke="#63b8ff" points="146.08,-29.49 148.86,-19.26 140.31,-25.52 146.08,-29.49"/>
</a>
</g>
</g>
<!-- Node6 -->
<g id="Node000006" class="node">
<title>Node6</title>
<g id="a_Node000006"><a xlink:title=" ">
<polygon fill="#e0e0e0" stroke="#999999" points="243.5,-19 196.5,-19 196.5,0 243.5,0 243.5,-19"/>
<text text-anchor="middle" x="220" y="-7" font-family="Helvetica,sans-Serif" font-size="10.00">vector</text>
</a>
</g>
</g>
<!-- Node1&#45;&gt;Node6 -->
<g id="edge15_Node000001_Node000006" class="edge">
<title>Node1&#45;&gt;Node6</title>
<g id="a_edge15_Node000001_Node000006"><a xlink:title=" ">
<path fill="none" stroke="#63b8ff" d="M331.32,-109.77C320.53,-100.9 303.44,-86.69 289,-74 270.81,-58.01 250.45,-39.15 236.59,-26.17"/>
<polygon fill="#63b8ff" stroke="#63b8ff" points="238.94,-23.56 229.25,-19.26 234.14,-28.66 238.94,-23.56"/>
</a>
</g>
</g>
<!-- Node7 -->
<g id="Node000007" class="node">
<title>Node7</title>
<g id="a_Node000007"><a xlink:title=" ">
<polygon fill="#e0e0e0" stroke="#999999" points="310.5,-19 261.5,-19 261.5,0 310.5,0 310.5,-19"/>
<text text-anchor="middle" x="286" y="-7" font-family="Helvetica,sans-Serif" font-size="10.00">cstdlib</text>
</a>
</g>
</g>
<!-- Node1&#45;&gt;Node7 -->
<g id="edge17_Node000001_Node000007" class="edge">
<title>Node1&#45;&gt;Node7</title>
<g id="a_edge17_Node000001_Node000007"><a xlink:title=" ">
<path fill="none" stroke="#63b8ff" d="M331.27,-109.74C321.88,-101.49 308.59,-88.29 301,-74 293.6,-60.07 289.81,-42.51 287.9,-29.39"/>
<polygon fill="#63b8ff" stroke="#63b8ff" points="291.34,-28.71 286.65,-19.21 284.39,-29.56 291.34,-28.71"/>
</a>
</g>
</g>
<!-- Node8 -->
<g id="Node000008" class="node">
<title>Node8</title>
<g id="a_Node000008"><a xlink:title=" ">
<polygon fill="#e0e0e0" stroke="#999999" points="374,-74 310,-74 310,-55 374,-55 374,-74"/>
<text text-anchor="middle" x="342" y="-62" font-family="Helvetica,sans-Serif" font-size="10.00">algorithm</text>
</a>
</g>
</g>
<!-- Node1&#45;&gt;Node8 -->
<g id="edge7_Node000001_Node000008" class="edge">
<title>Node1&#45;&gt;Node8</title>
<g id="a_edge7_Node000001_Node000008"><a xlink:title=" ">
<path fill="none" stroke="#63b8ff" d="M342,-109.75C342,-102.8 342,-92.85 342,-84.13"/>
<polygon fill="#63b8ff" stroke="#63b8ff" points="345.5,-84.09 342,-74.09 338.5,-84.09 345.5,-84.09"/>
</a>
</g>
</g>
<!-- Node9 -->
<g id="Node000009" class="node">
<title>Node9</title>
<g id="a_Node000009"><a xlink:title=" ">
<polygon fill="#e0e0e0" stroke="#999999" points="447.5,-74 392.5,-74 392.5,-55 447.5,-55 447.5,-74"/>
<text text-anchor="middle" x="420" y="-62" font-family="Helvetica,sans-Serif" font-size="10.00">fstream</text>
</a>
</g>
</g>
<!-- Node1&#45;&gt;Node9 -->
<g id="edge8_Node000001_Node000009" class="edge">
<title>Node1&#45;&gt;Node9</title>
<g id="a_edge8_Node000001_Node000009"><a xlink:title=" ">
<path fill="none" stroke="#63b8ff" d="M354.53,-109.98C366.4,-101.92 384.46,-89.65 398.61,-80.03"/>
<polygon fill="#63b8ff" stroke="#63b8ff" points="400.94,-82.69 407.24,-74.17 397,-76.9 400.94,-82.69"/>
</a>
</g>
</g>
<!-- Node10 -->
<g id="Node000010" class="node">
<title>Node10</title>
<g id="a_Node000010"><a xlink:title=" ">
<polygon fill="#e0e0e0" stroke="#999999" points="522,-74 466,-74 466,-55 522,-55 522,-74"/>
<text text-anchor="middle" x="494" y="-62" font-family="Helvetica,sans-Serif" font-size="10.00">iomanip</text>
</a>
</g>
</g>
<!-- Node1&#45;&gt;Node10 -->
<g id="edge9_Node000001_Node000010" class="edge">
<title>Node1&#45;&gt;Node10</title>
<g id="a_edge9_Node000001_Node000010"><a xlink:title=" ">
<path fill="none" stroke="#63b8ff" d="M366.42,-109.98C391.72,-101.16 431.45,-87.31 459.86,-77.41"/>
<polygon fill="#63b8ff" stroke="#63b8ff" points="461.1,-80.68 469.39,-74.08 458.79,-74.07 461.1,-80.68"/>
</a>
</g>
</g>
<!-- Node11 -->
<g id="Node000011" class="node">
<title>Node11</title>
<g id="a_Node000011"><a xlink:title=" ">
<polygon fill="#e0e0e0" stroke="#999999" points="596,-74 540,-74 540,-55 596,-55 596,-74"/>
<text text-anchor="middle" x="568" y="-62" font-family="Helvetica,sans-Serif" font-size="10.00">numeric</text>
</a>
</g>
</g>
<!-- Node1&#45;&gt;Node11 -->
<g id="edge12_Node000001_Node000011" class="edge">
<title>Node1&#45;&gt;Node11</title>
<g id="a_edge12_Node000001_Node000011"><a xlink:title=" ">
<path fill="none" stroke="#63b8ff" d="M378.31,-109.98C419.92,-100.23 487.81,-84.31 530.08,-74.39"/>
<polygon fill="#63b8ff" stroke="#63b8ff" points="531.05,-77.76 539.99,-72.07 529.45,-70.94 531.05,-77.76"/>
</a>
</g>
</g>
<!-- Node12 -->
<g id="Node000012" class="node">
<title>Node12</title>
<g id="a_Node000012"><a xlink:title=" ">
<polygon fill="#e0e0e0" stroke="#999999" points="670,-74 614,-74 614,-55 670,-55 670,-74"/>
<text text-anchor="middle" x="642" y="-62" font-family="Helvetica,sans-Serif" font-size="10.00">sstream</text>
</a>
</g>
</g>
<!-- Node1&#45;&gt;Node12 -->
<g id="edge13_Node000001_Node000012" class="edge">
<title>Node1&#45;&gt;Node12</title>
<g id="a_edge13_Node000001_Node000012"><a xlink:title=" ">
<path fill="none" stroke="#63b8ff" d="M398.1,-109.98C449.27,-101.98 527.21,-89.26 603.92,-74.12"/>
<polygon fill="#63b8ff" stroke="#63b8ff" points="604.63,-77.55 613.75,-72.17 603.26,-70.68 604.63,-77.55"/>
</a>
</g>
</g>
<!-- Node13 -->
<g id="Node000013" class="node">
<title>Node13</title>
<g id="a_Node000013"><a xlink:title=" ">
<polygon fill="#e0e0e0" stroke="#999999" points="735.5,-74 688.5,-74 688.5,-55 735.5,-55 735.5,-74"/>
<text text-anchor="middle" x="712" y="-62" font-family="Helvetica,sans-Serif" font-size="10.00">cmath</text>
</a>
</g>
</g>
<!-- Node1&#45;&gt;Node13 -->
<g id="edge16_Node000001_Node000013" class="edge">
<title>Node1&#45;&gt;Node13</title>
<g id="a_edge16_Node000001_Node000013"><a xlink:title=" ">
<path fill="none" stroke="#63b8ff" d="M412.1,-111.74C478.28,-104.79 580.41,-92.61 678.22,-73.92"/>
<polygon fill="#63b8ff" stroke="#63b8ff" points="679.13,-77.31 688.28,-71.97 677.8,-70.44 679.13,-77.31"/>
</a>
</g>
</g>
<!-- Node14 -->
<g id="Node000014" class="node">
<title>Node14</title>
<g id="a_Node000014"><a xlink:title=" ">
<polygon fill="#e0e0e0" stroke="#999999" points="804,-74 754,-74 754,-55 804,-55 804,-74"/>
<text text-anchor="middle" x="779" y="-62" font-family="Helvetica,sans-Serif" font-size="10.00">cstring</text>
</a>
</g>
</g>
<!-- Node1&#45;&gt;Node14 -->
<g id="edge18_Node000001_Node000014" class="edge">
<title>Node1&#45;&gt;Node14</title>
<g id="a_edge18_Node000001_Node000014"><a xlink:title=" ">
<path fill="none" stroke="#63b8ff" d="M412.3,-113.63C490.92,-107.53 622.15,-95.41 743.96,-73.96"/>
<polygon fill="#63b8ff" stroke="#63b8ff" points="744.6,-77.4 753.83,-72.19 743.37,-70.51 744.6,-77.4"/>
</a>
</g>
</g>
<!-- Node2&#45;&gt;Node3 -->
<g id="edge2_Node000002_Node000003" class="edge">
<title>Node2&#45;&gt;Node3</title>
<g id="a_edge2_Node000002_Node000003"><a xlink:title=" ">
<path fill="none" stroke="#63b8ff" d="M156.74,-54.98C131.68,-46.19 92.37,-32.39 64.17,-22.49"/>
<polygon fill="#63b8ff" stroke="#63b8ff" points="65.3,-19.18 54.7,-19.17 62.98,-25.78 65.3,-19.18"/>
</a>
</g>
</g>
<!-- Node2&#45;&gt;Node4 -->
<g id="edge3_Node000002_Node000004" class="edge">
<title>Node2&#45;&gt;Node4</title>
<g id="a_edge3_Node000002_Node000004"><a xlink:title=" ">
<path fill="none" stroke="#63b8ff" d="M167.5,-54.98C154.6,-46.84 134.9,-34.41 119.6,-24.76"/>
<polygon fill="#63b8ff" stroke="#63b8ff" points="121.07,-21.55 110.74,-19.17 117.33,-27.47 121.07,-21.55"/>
</a>
</g>
</g>
<!-- Node2&#45;&gt;Node5 -->
<g id="edge4_Node000002_Node000005" class="edge">
<title>Node2&#45;&gt;Node5</title>
<g id="a_edge4_Node000002_Node000005"><a xlink:title=" ">
<path fill="none" stroke="#63b8ff" d="M176.87,-54.75C173.49,-47.57 168.58,-37.18 164.38,-28.27"/>
<polygon fill="#63b8ff" stroke="#63b8ff" points="167.48,-26.64 160.05,-19.09 161.15,-29.63 167.48,-26.64"/>
</a>
</g>
</g>
<!-- Node2&#45;&gt;Node6 -->
<g id="edge5_Node000002_Node000006" class="edge">
<title>Node2&#45;&gt;Node6</title>
<g id="a_edge5_Node000002_Node000006"><a xlink:title=" ">
<path fill="none" stroke="#63b8ff" d="M187.44,-54.75C192.89,-47.34 200.86,-36.5 207.56,-27.41"/>
<polygon fill="#63b8ff" stroke="#63b8ff" points="210.57,-29.22 213.68,-19.09 204.93,-25.07 210.57,-29.22"/>
</a>
</g>
</g>
<!-- Node2&#45;&gt;Node7 -->
<g id="edge6_Node000002_Node000007" class="edge">
<title>Node2&#45;&gt;Node7</title>
<g id="a_edge6_Node000002_Node000007"><a xlink:title=" ">
<path fill="none" stroke="#63b8ff" d="M197.87,-54.98C214.61,-46.54 240.5,-33.47 259.89,-23.68"/>
<polygon fill="#63b8ff" stroke="#63b8ff" points="261.47,-26.8 268.82,-19.17 258.32,-20.55 261.47,-26.8"/>
</a>
</g>
</g>
</g>
</svg>
