<?xml version="1.0" encoding="UTF-8" standalone="no"?>
<!DOCTYPE svg PUBLIC "-//W3C//DTD SVG 1.1//EN"
 "http://www.w3.org/Graphics/SVG/1.1/DTD/svg11.dtd">
<!-- Generated by graphviz version 2.43.0 (0)
 -->
<!-- Title: wrap_gradient_descent Pages: 1 -->
<svg width="895pt" height="288pt"
 viewBox="0.00 0.00 895.00 288.00" xmlns="http://www.w3.org/2000/svg" xmlns:xlink="http://www.w3.org/1999/xlink">
<g id="graph0" class="graph" transform="scale(1 1) rotate(0) translate(4 284)">
<title>wrap_gradient_descent</title>
<!-- Node1 -->
<g id="Node000001" class="node">
<title>Node1</title>
<g id="a_Node000001"><a xlink:title=" ">
<polygon fill="#999999" stroke="#666666" points="130,-209 0,-209 0,-190 130,-190 130,-209"/>
<text text-anchor="middle" x="65" y="-197" font-family="Helvetica,sans-Serif" font-size="10.00">wrap_gradient_descent</text>
</a>
</g>
</g>
<!-- Node2 -->
<g id="Node000002" class="node">
<title>Node2</title>
<g id="a_Node000002"><a xlink:href="EstimateTrueCount__EntropyFast_8cc.html#ae313eea5678e22c3b887b47ed72ccb3f" target="_top" xlink:title=" ">
<polygon fill="white" stroke="#666666" points="539.5,-209 492.5,-209 492.5,-190 539.5,-190 539.5,-209"/>
<text text-anchor="middle" x="516" y="-197" font-family="Helvetica,sans-Serif" font-size="10.00">final_f</text>
</a>
</g>
</g>
<!-- Node1&#45;&gt;Node2 -->
<g id="edge1_Node000001_Node000002" class="edge">
<title>Node1&#45;&gt;Node2</title>
<g id="a_edge1_Node000001_Node000002"><a xlink:title=" ">
<path fill="none" stroke="#63b8ff" d="M130.2,-201.11C204.71,-202.72 331.26,-204.67 440,-202.5 453.88,-202.22 469.19,-201.66 482.35,-201.09"/>
<polygon fill="#63b8ff" stroke="#63b8ff" points="482.53,-204.59 492.36,-200.64 482.21,-197.59 482.53,-204.59"/>
</a>
</g>
</g>
<!-- Node7 -->
<g id="Node000007" class="node">
<title>Node7</title>
<g id="a_Node000007"><a xlink:href="EstimateTrueCount__EntropyFast_8cc.html#a849de12fe72e4dedfdf0f6fdd557b22a" target="_top" xlink:title=" ">
<polygon fill="white" stroke="#666666" points="269,-152 168,-152 168,-133 269,-133 269,-152"/>
<text text-anchor="middle" x="218.5" y="-140" font-family="Helvetica,sans-Serif" font-size="10.00">gradient_descent</text>
</a>
</g>
</g>
<!-- Node1&#45;&gt;Node7 -->
<g id="edge9_Node000001_Node000007" class="edge">
<title>Node1&#45;&gt;Node7</title>
<g id="a_edge9_Node000001_Node000007"><a xlink:title=" ">
<path fill="none" stroke="#63b8ff" d="M91.36,-189.96C116.37,-180.55 154.81,-166.09 182.68,-155.6"/>
<polygon fill="#63b8ff" stroke="#63b8ff" points="183.93,-158.87 192.06,-152.07 181.47,-152.32 183.93,-158.87"/>
</a>
</g>
</g>
<!-- Node16 -->
<g id="Node000016" class="node">
<title>Node16</title>
<g id="a_Node000016"><a xlink:href="EstimateTrueCount__EntropyFast_8cc.html#a5dd082daffe9dfc203a7744502b971b5" target="_top" xlink:title=" ">
<polygon fill="white" stroke="#666666" points="783,-280 732,-280 732,-261 783,-261 783,-280"/>
<text text-anchor="middle" x="757.5" y="-268" font-family="Helvetica,sans-Serif" font-size="10.00">h_alloc</text>
</a>
</g>
</g>
<!-- Node1&#45;&gt;Node16 -->
<g id="edge26_Node000001_Node000016" class="edge">
<title>Node1&#45;&gt;Node16</title>
<g id="a_edge26_Node000001_Node000016"><a xlink:title=" ">
<path fill="none" stroke="#63b8ff" d="M88.59,-209.13C138.71,-229.58 263.4,-275.5 372.5,-275.5 372.5,-275.5 372.5,-275.5 517,-275.5 589.73,-275.5 674.86,-273.17 721.5,-271.69"/>
<polygon fill="#63b8ff" stroke="#63b8ff" points="721.8,-275.18 731.68,-271.36 721.57,-268.18 721.8,-275.18"/>
</a>
</g>
</g>
<!-- Node17 -->
<g id="Node000017" class="node">
<title>Node17</title>
<g id="a_Node000017"><a xlink:href="EstimateTrueCount__EntropyFast_8cc.html#a788cb6d08eb85a6a13251a7ba9d2a536" target="_top" xlink:title=" ">
<polygon fill="white" stroke="#666666" points="271,-77 166,-77 166,-58 271,-58 271,-77"/>
<text text-anchor="middle" x="218.5" y="-65" font-family="Helvetica,sans-Serif" font-size="10.00">make_proba_alloc</text>
</a>
</g>
</g>
<!-- Node1&#45;&gt;Node17 -->
<g id="edge28_Node000001_Node000017" class="edge">
<title>Node1&#45;&gt;Node17</title>
<g id="a_edge28_Node000001_Node000017"><a xlink:title=" ">
<path fill="none" stroke="#63b8ff" d="M77.39,-189.58C103.29,-167.01 166.82,-111.66 198.66,-83.91"/>
<polygon fill="#63b8ff" stroke="#63b8ff" points="201.15,-86.39 206.39,-77.18 196.55,-81.11 201.15,-86.39"/>
</a>
</g>
</g>
<!-- Node3 -->
<g id="Node000003" class="node">
<title>Node3</title>
<g id="a_Node000003"><a xlink:href="EstimateTrueCount__EntropyFast_8cc.html#af1014954eb42dcb1cdfd1c7bb24eabb8" target="_top" xlink:title=" ">
<polygon fill="white" stroke="#666666" points="640.5,-227 608.5,-227 608.5,-208 640.5,-208 640.5,-227"/>
<text text-anchor="middle" x="624.5" y="-215" font-family="Helvetica,sans-Serif" font-size="10.00">ent</text>
</a>
</g>
</g>
<!-- Node2&#45;&gt;Node3 -->
<g id="edge2_Node000002_Node000003" class="edge">
<title>Node2&#45;&gt;Node3</title>
<g id="a_edge2_Node000002_Node000003"><a xlink:title=" ">
<path fill="none" stroke="#63b8ff" d="M539.59,-203.32C556.86,-206.24 580.66,-210.26 598.51,-213.28"/>
<polygon fill="#63b8ff" stroke="#63b8ff" points="598.04,-216.75 608.48,-214.96 599.2,-209.84 598.04,-216.75"/>
</a>
</g>
</g>
<!-- Node6 -->
<g id="Node000006" class="node">
<title>Node6</title>
<g id="a_Node000006"><a xlink:href="EstimateTrueCount__EntropyFast_8cc.html#a790922e5ce9415fe72d37406abf168c5" target="_top" xlink:title=" ">
<polygon fill="white" stroke="#666666" points="639,-190 610,-190 610,-171 639,-171 639,-190"/>
<text text-anchor="middle" x="624.5" y="-178" font-family="Helvetica,sans-Serif" font-size="10.00">f</text>
</a>
</g>
</g>
<!-- Node2&#45;&gt;Node6 -->
<g id="edge6_Node000002_Node000006" class="edge">
<title>Node2&#45;&gt;Node6</title>
<g id="a_edge6_Node000002_Node000006"><a xlink:title=" ">
<path fill="none" stroke="#63b8ff" d="M539.59,-195.47C557.27,-192.32 581.79,-187.94 599.76,-184.74"/>
<polygon fill="#63b8ff" stroke="#63b8ff" points="600.5,-188.16 609.73,-182.96 599.27,-181.27 600.5,-188.16"/>
</a>
</g>
</g>
<!-- Node4 -->
<g id="Node000004" class="node">
<title>Node4</title>
<g id="a_Node000004"><a xlink:href="EstimateTrueCount__EntropyFast_8cc.html#a9dbdc9b883fafd106ea6e9f4f2d18b10" target="_top" xlink:title=" ">
<polygon fill="white" stroke="#666666" points="822,-157 693,-157 693,-138 822,-138 822,-157"/>
<text text-anchor="middle" x="757.5" y="-145" font-family="Helvetica,sans-Serif" font-size="10.00">compute_sum_hx_vect</text>
</a>
</g>
</g>
<!-- Node3&#45;&gt;Node4 -->
<g id="edge3_Node000003_Node000004" class="edge">
<title>Node3&#45;&gt;Node4</title>
<g id="a_edge3_Node000003_Node000004"><a xlink:title=" ">
<path fill="none" stroke="#63b8ff" d="M640.53,-209.47C662.17,-197.91 702.47,-176.37 729.39,-161.99"/>
<polygon fill="#63b8ff" stroke="#63b8ff" points="731.13,-165.02 738.3,-157.22 727.83,-158.85 731.13,-165.02"/>
</a>
</g>
</g>
<!-- Node5 -->
<g id="Node000005" class="node">
<title>Node5</title>
<g id="a_Node000005"><a xlink:href="EstimateTrueCount__EntropyFast_8cc.html#a4bc05b3e60ec6578aae305cf37c63377" target="_top" xlink:title=" ">
<polygon fill="white" stroke="#666666" points="887,-176 858,-176 858,-157 887,-157 887,-176"/>
<text text-anchor="middle" x="872.5" y="-164" font-family="Helvetica,sans-Serif" font-size="10.00">h</text>
</a>
</g>
</g>
<!-- Node3&#45;&gt;Node5 -->
<g id="edge5_Node000003_Node000005" class="edge">
<title>Node3&#45;&gt;Node5</title>
<g id="a_edge5_Node000003_Node000005"><a xlink:title=" ">
<path fill="none" stroke="#63b8ff" d="M640.54,-216.3C673.77,-213.4 755.77,-204.85 822,-186.5 830.89,-184.04 840.35,-180.47 848.59,-177.02"/>
<polygon fill="#63b8ff" stroke="#63b8ff" points="850.15,-180.16 857.92,-172.96 847.36,-173.74 850.15,-180.16"/>
</a>
</g>
</g>
<!-- Node4&#45;&gt;Node5 -->
<g id="edge4_Node000004_Node000005" class="edge">
<title>Node4&#45;&gt;Node5</title>
<g id="a_edge4_Node000004_Node000005"><a xlink:title=" ">
<path fill="none" stroke="#63b8ff" d="M815.33,-157.06C826.83,-158.99 838.31,-160.92 847.87,-162.53"/>
<polygon fill="#63b8ff" stroke="#63b8ff" points="847.3,-165.98 857.74,-164.19 848.46,-159.08 847.3,-165.98"/>
</a>
</g>
</g>
<!-- Node6&#45;&gt;Node4 -->
<g id="edge7_Node000006_Node000004" class="edge">
<title>Node6&#45;&gt;Node4</title>
<g id="a_edge7_Node000006_Node000004"><a xlink:title=" ">
<path fill="none" stroke="#63b8ff" d="M639.03,-177.09C655.4,-172.97 683.87,-165.8 708.68,-159.55"/>
<polygon fill="#63b8ff" stroke="#63b8ff" points="709.85,-162.86 718.69,-157.03 708.14,-156.07 709.85,-162.86"/>
</a>
</g>
</g>
<!-- Node6&#45;&gt;Node5 -->
<g id="edge8_Node000006_Node000005" class="edge">
<title>Node6&#45;&gt;Node5</title>
<g id="a_edge8_Node000006_Node000005"><a xlink:title=" ">
<path fill="none" stroke="#63b8ff" d="M639.08,-179.73C679.15,-177.45 797.26,-170.72 847.95,-167.84"/>
<polygon fill="#63b8ff" stroke="#63b8ff" points="848.18,-171.33 857.97,-167.27 847.78,-164.34 848.18,-171.33"/>
</a>
</g>
</g>
<!-- Node7&#45;&gt;Node2 -->
<g id="edge25_Node000007_Node000002" class="edge">
<title>Node7&#45;&gt;Node2</title>
<g id="a_edge25_Node000007_Node000002"><a xlink:title=" ">
<path fill="none" stroke="#63b8ff" d="M237.01,-152.09C254.26,-161.06 281.65,-174.02 307,-180.5 367.6,-196 440.96,-199.24 482.38,-199.7"/>
<polygon fill="#63b8ff" stroke="#63b8ff" points="482.42,-203.2 492.44,-199.77 482.46,-196.2 482.42,-203.2"/>
</a>
</g>
</g>
<!-- Node8 -->
<g id="Node000008" class="node">
<title>Node8</title>
<g id="a_Node000008"><a xlink:href="EstimateTrueCount__EntropyFast_8cc.html#ac345f90b291be79a860d7a95d256290b" target="_top" xlink:title=" ">
<polygon fill="white" stroke="#666666" points="549,-133 483,-133 483,-114 549,-114 549,-133"/>
<text text-anchor="middle" x="516" y="-121" font-family="Helvetica,sans-Serif" font-size="10.00">alloc_vect</text>
</a>
</g>
</g>
<!-- Node7&#45;&gt;Node8 -->
<g id="edge10_Node000007_Node000008" class="edge">
<title>Node7&#45;&gt;Node8</title>
<g id="a_edge10_Node000007_Node000008"><a xlink:title=" ">
<path fill="none" stroke="#63b8ff" d="M269.29,-139.3C326.35,-135.63 418.87,-129.68 472.62,-126.23"/>
<polygon fill="#63b8ff" stroke="#63b8ff" points="473.07,-129.7 482.83,-125.57 472.62,-122.72 473.07,-129.7"/>
</a>
</g>
</g>
<!-- Node9 -->
<g id="Node000009" class="node">
<title>Node9</title>
<g id="a_Node000009"><a xlink:href="EstimateTrueCount__EntropyFast_8cc.html#adc0726cfc1b2ace7c38b40f927f8b6c6" target="_top" xlink:title=" ">
<polygon fill="white" stroke="#666666" points="440,-171 307,-171 307,-152 440,-152 440,-171"/>
<text text-anchor="middle" x="373.5" y="-159" font-family="Helvetica,sans-Serif" font-size="10.00">backtrackingLineSearch</text>
</a>
</g>
</g>
<!-- Node7&#45;&gt;Node9 -->
<g id="edge11_Node000007_Node000009" class="edge">
<title>Node7&#45;&gt;Node9</title>
<g id="a_edge11_Node000007_Node000009"><a xlink:title=" ">
<path fill="none" stroke="#63b8ff" d="M269.17,-148.67C278.02,-149.77 287.41,-150.93 296.78,-152.1"/>
<polygon fill="#63b8ff" stroke="#63b8ff" points="296.57,-155.6 306.92,-153.36 297.43,-148.65 296.57,-155.6"/>
</a>
</g>
</g>
<!-- Node11 -->
<g id="Node000011" class="node">
<title>Node11</title>
<g id="a_Node000011"><a xlink:href="EstimateTrueCount__EntropyFast_8cc.html#a7afac320e51cf09717231c7ec2d70fd3" target="_top" xlink:title=" ">
<polygon fill="white" stroke="#666666" points="406.5,-95 340.5,-95 340.5,-76 406.5,-76 406.5,-95"/>
<text text-anchor="middle" x="373.5" y="-83" font-family="Helvetica,sans-Serif" font-size="10.00">copy_vect</text>
</a>
</g>
</g>
<!-- Node7&#45;&gt;Node11 -->
<g id="edge15_Node000007_Node000011" class="edge">
<title>Node7&#45;&gt;Node11</title>
<g id="a_edge15_Node000007_Node000011"><a xlink:title=" ">
<path fill="none" stroke="#63b8ff" d="M244.75,-132.91C262.21,-126.29 286,-117.31 307,-109.5 316.6,-105.93 327.02,-102.1 336.65,-98.57"/>
<polygon fill="#63b8ff" stroke="#63b8ff" points="338.15,-101.74 346.34,-95.02 335.75,-95.17 338.15,-101.74"/>
</a>
</g>
</g>
<!-- Node12 -->
<g id="Node000012" class="node">
<title>Node12</title>
<g id="a_Node000012"><a xlink:href="EstimateTrueCount__EntropyFast_8cc.html#aee4df16bba58eb40b7e3479ad129aaff" target="_top" xlink:title=" ">
<polygon fill="white" stroke="#666666" points="545.5,-81 486.5,-81 486.5,-62 545.5,-62 545.5,-81"/>
<text text-anchor="middle" x="516" y="-69" font-family="Helvetica,sans-Serif" font-size="10.00">final_der</text>
</a>
</g>
</g>
<!-- Node7&#45;&gt;Node12 -->
<g id="edge16_Node000007_Node000012" class="edge">
<title>Node7&#45;&gt;Node12</title>
<g id="a_edge16_Node000007_Node000012"><a xlink:title=" ">
<path fill="none" stroke="#63b8ff" d="M226.6,-132.89C240.01,-115.64 271,-79.95 307,-66.5 362.95,-45.59 433.41,-53.78 476.29,-62.2"/>
<polygon fill="#63b8ff" stroke="#63b8ff" points="475.8,-65.68 486.31,-64.27 477.22,-58.82 475.8,-65.68"/>
</a>
</g>
</g>
<!-- Node9&#45;&gt;Node2 -->
<g id="edge14_Node000009_Node000002" class="edge">
<title>Node9&#45;&gt;Node2</title>
<g id="a_edge14_Node000009_Node000002"><a xlink:title=" ">
<path fill="none" stroke="#63b8ff" d="M409.95,-171.09C432.27,-177.12 460.86,-184.86 482.57,-190.73"/>
<polygon fill="#63b8ff" stroke="#63b8ff" points="481.75,-194.13 492.32,-193.37 483.58,-187.38 481.75,-194.13"/>
</a>
</g>
</g>
<!-- Node9&#45;&gt;Node8 -->
<g id="edge12_Node000009_Node000008" class="edge">
<title>Node9&#45;&gt;Node8</title>
<g id="a_edge12_Node000009_Node000008"><a xlink:title=" ">
<path fill="none" stroke="#63b8ff" d="M409.95,-151.91C429.15,-146.72 452.98,-140.27 473.09,-134.84"/>
<polygon fill="#63b8ff" stroke="#63b8ff" points="474.18,-138.17 482.92,-132.18 472.35,-131.41 474.18,-138.17"/>
</a>
</g>
</g>
<!-- Node10 -->
<g id="Node000010" class="node">
<title>Node10</title>
<g id="a_Node000010"><a xlink:href="EstimateTrueCount__EntropyFast_8cc.html#a6a16c14555c418f213836de04f4183d4" target="_top" xlink:title=" ">
<polygon fill="white" stroke="#666666" points="556,-171 476,-171 476,-152 556,-152 556,-171"/>
<text text-anchor="middle" x="516" y="-159" font-family="Helvetica,sans-Serif" font-size="10.00">compute_dot</text>
</a>
</g>
</g>
<!-- Node9&#45;&gt;Node10 -->
<g id="edge13_Node000009_Node000010" class="edge">
<title>Node9&#45;&gt;Node10</title>
<g id="a_edge13_Node000009_Node000010"><a xlink:title=" ">
<path fill="none" stroke="#63b8ff" d="M440.22,-161.5C448.76,-161.5 457.39,-161.5 465.6,-161.5"/>
<polygon fill="#63b8ff" stroke="#63b8ff" points="465.73,-165 475.73,-161.5 465.73,-158 465.73,-165"/>
</a>
</g>
</g>
<!-- Node13 -->
<g id="Node000013" class="node">
<title>Node13</title>
<g id="a_Node000013"><a xlink:href="EstimateTrueCount__EntropyFast_8cc.html#ac1b5db2c6e40e96f228d41be62b94d7c" target="_top" xlink:title=" ">
<polygon fill="white" stroke="#666666" points="657,-118 592,-118 592,-99 657,-99 657,-118"/>
<text text-anchor="middle" x="624.5" y="-106" font-family="Helvetica,sans-Serif" font-size="10.00">der_ent_k</text>
</a>
</g>
</g>
<!-- Node12&#45;&gt;Node13 -->
<g id="edge17_Node000012_Node000013" class="edge">
<title>Node12&#45;&gt;Node13</title>
<g id="a_edge17_Node000012_Node000013"><a xlink:title=" ">
<path fill="none" stroke="#63b8ff" d="M544.43,-81.03C557.12,-85.44 572.4,-90.75 586.13,-95.52"/>
<polygon fill="#63b8ff" stroke="#63b8ff" points="585.2,-98.9 595.8,-98.88 587.5,-92.29 585.2,-98.9"/>
</a>
</g>
</g>
<!-- Node15 -->
<g id="Node000015" class="node">
<title>Node15</title>
<g id="a_Node000015"><a xlink:href="EstimateTrueCount__EntropyFast_8cc.html#a11dd0cbf5d9ad473ce12611fa0e469fd" target="_top" xlink:title=" ">
<polygon fill="white" stroke="#666666" points="651,-81 598,-81 598,-62 651,-62 651,-81"/>
<text text-anchor="middle" x="624.5" y="-69" font-family="Helvetica,sans-Serif" font-size="10.00">der_f_k</text>
</a>
</g>
</g>
<!-- Node12&#45;&gt;Node15 -->
<g id="edge21_Node000012_Node000015" class="edge">
<title>Node12&#45;&gt;Node15</title>
<g id="a_edge21_Node000012_Node000015"><a xlink:title=" ">
<path fill="none" stroke="#63b8ff" d="M545.54,-71.5C558.5,-71.5 573.97,-71.5 587.71,-71.5"/>
<polygon fill="#63b8ff" stroke="#63b8ff" points="587.8,-75 597.8,-71.5 587.8,-68 587.8,-75"/>
</a>
</g>
</g>
<!-- Node13&#45;&gt;Node4 -->
<g id="edge18_Node000013_Node000004" class="edge">
<title>Node13&#45;&gt;Node4</title>
<g id="a_edge18_Node000013_Node000004"><a xlink:title=" ">
<path fill="none" stroke="#63b8ff" d="M657.21,-117.94C674.41,-123.06 695.9,-129.46 714.48,-134.99"/>
<polygon fill="#63b8ff" stroke="#63b8ff" points="713.59,-138.38 724.17,-137.88 715.58,-131.67 713.59,-138.38"/>
</a>
</g>
</g>
<!-- Node13&#45;&gt;Node5 -->
<g id="edge20_Node000013_Node000005" class="edge">
<title>Node13&#45;&gt;Node5</title>
<g id="a_edge20_Node000013_Node000005"><a xlink:title=" ">
<path fill="none" stroke="#63b8ff" d="M657.34,-106.83C697.25,-105.87 767.07,-107.93 822,-129.5 833.81,-134.14 845.26,-142.38 854.18,-149.91"/>
<polygon fill="#63b8ff" stroke="#63b8ff" points="852.08,-152.73 861.87,-156.77 856.74,-147.51 852.08,-152.73"/>
</a>
</g>
</g>
<!-- Node14 -->
<g id="Node000014" class="node">
<title>Node14</title>
<g id="a_Node000014"><a xlink:href="EstimateTrueCount__EntropyFast_8cc.html#a0829f9806eb07065937d345d4de7e28b" target="_top" xlink:title=" ">
<polygon fill="white" stroke="#666666" points="779.5,-81 735.5,-81 735.5,-62 779.5,-62 779.5,-81"/>
<text text-anchor="middle" x="757.5" y="-69" font-family="Helvetica,sans-Serif" font-size="10.00">der_h</text>
</a>
</g>
</g>
<!-- Node13&#45;&gt;Node14 -->
<g id="edge19_Node000013_Node000014" class="edge">
<title>Node13&#45;&gt;Node14</title>
<g id="a_edge19_Node000013_Node000014"><a xlink:title=" ">
<path fill="none" stroke="#63b8ff" d="M657.21,-99.54C677.94,-93.69 704.89,-86.08 725.48,-80.26"/>
<polygon fill="#63b8ff" stroke="#63b8ff" points="726.63,-83.57 735.31,-77.49 724.73,-76.84 726.63,-83.57"/>
</a>
</g>
</g>
<!-- Node15&#45;&gt;Node4 -->
<g id="edge22_Node000015_Node000004" class="edge">
<title>Node15&#45;&gt;Node4</title>
<g id="a_edge22_Node000015_Node000004"><a xlink:title=" ">
<path fill="none" stroke="#63b8ff" d="M642.19,-81C646.98,-83.74 652.2,-86.73 657,-89.5 682.27,-104.08 711.05,-120.88 731.14,-132.63"/>
<polygon fill="#63b8ff" stroke="#63b8ff" points="729.58,-135.78 739.98,-137.81 733.11,-129.74 729.58,-135.78"/>
</a>
</g>
</g>
<!-- Node15&#45;&gt;Node5 -->
<g id="edge24_Node000015_Node000005" class="edge">
<title>Node15&#45;&gt;Node5</title>
<g id="a_edge24_Node000015_Node000005"><a xlink:title=" ">
<path fill="none" stroke="#63b8ff" d="M645.59,-61.89C683.52,-45.29 766.83,-16.31 822,-52.5 854.05,-73.52 865.45,-120.25 869.43,-146.9"/>
<polygon fill="#63b8ff" stroke="#63b8ff" points="865.98,-147.48 870.72,-156.95 872.92,-146.59 865.98,-147.48"/>
</a>
</g>
</g>
<!-- Node15&#45;&gt;Node14 -->
<g id="edge23_Node000015_Node000014" class="edge">
<title>Node15&#45;&gt;Node14</title>
<g id="a_edge23_Node000015_Node000014"><a xlink:title=" ">
<path fill="none" stroke="#63b8ff" d="M651.07,-71.5C672.28,-71.5 702.53,-71.5 725.19,-71.5"/>
<polygon fill="#63b8ff" stroke="#63b8ff" points="725.32,-75 735.32,-71.5 725.32,-68 725.32,-75"/>
</a>
</g>
</g>
<!-- Node16&#45;&gt;Node5 -->
<g id="edge27_Node000016_Node000005" class="edge">
<title>Node16&#45;&gt;Node5</title>
<g id="a_edge27_Node000016_Node000005"><a xlink:title=" ">
<path fill="none" stroke="#63b8ff" d="M783.12,-261.06C795.66,-255.47 810.61,-247.5 822,-237.5 838.86,-222.7 852.89,-201.01 861.66,-185.51"/>
<polygon fill="#63b8ff" stroke="#63b8ff" points="864.93,-186.8 866.63,-176.34 858.78,-183.46 864.93,-186.8"/>
</a>
</g>
</g>
<!-- Node18 -->
<g id="Node000018" class="node">
<title>Node18</title>
<g id="a_Node000018"><a xlink:href="EstimateTrueCount__EntropyFast_8cc.html#ae14fa57ac096fd5e2a6652859592c3af" target="_top" xlink:title=" ">
<polygon fill="white" stroke="#666666" points="416.5,-19 330.5,-19 330.5,0 416.5,0 416.5,-19"/>
<text text-anchor="middle" x="373.5" y="-7" font-family="Helvetica,sans-Serif" font-size="10.00">compute_sum</text>
</a>
</g>
</g>
<!-- Node17&#45;&gt;Node18 -->
<g id="edge29_Node000017_Node000018" class="edge">
<title>Node17&#45;&gt;Node18</title>
<g id="a_edge29_Node000017_Node000018"><a xlink:title=" ">
<path fill="none" stroke="#63b8ff" d="M243.59,-57.99C261.14,-51.1 285.5,-41.61 307,-33.5 316.5,-29.91 326.81,-26.1 336.37,-22.6"/>
<polygon fill="#63b8ff" stroke="#63b8ff" points="337.81,-25.8 346,-19.08 335.41,-19.22 337.81,-25.8"/>
</a>
</g>
</g>
</g>
</svg>
