<?xml version="1.0" encoding="UTF-8" standalone="no"?>
<!DOCTYPE svg PUBLIC "-//W3C//DTD SVG 1.1//EN"
 "http://www.w3.org/Graphics/SVG/1.1/DTD/svg11.dtd">
<!-- Generated by graphviz version 2.43.0 (0)
 -->
<!-- Title: der_ent_k Pages: 1 -->
<svg width="303pt" height="103pt"
 viewBox="0.00 0.00 303.00 103.00" xmlns="http://www.w3.org/2000/svg" xmlns:xlink="http://www.w3.org/1999/xlink">

<svg id="main" version="1.1" xmlns="http://www.w3.org/2000/svg" xmlns:xlink="http://www.w3.org/1999/xlink" xml:space="preserve" onload="init(evt)">
<style type="text/css"><![CDATA[
.node, .edge {opacity: 0.7;}
.node.selected, .edge.selected {opacity: 1;}
.edge:hover path { stroke: red; }
.edge:hover polygon { stroke: red; fill: red; }
]]></style>
<script type="application/ecmascript" xlink:href="svg.min.js"/>
<svg id="graph" class="graph">
<g id="graph0" class="graph" transform="scale(1 1) rotate(0) translate(4 99)">
<title>der_ent_k</title>
<!-- Node1 -->
<g id="Node000001" class="node">
<title>Node1</title>
<g id="a_Node000001"><a xlink:title=" ">
<polygon fill="#999999" stroke="#666666" points="65,-57 0,-57 0,-38 65,-38 65,-57"/>
<text text-anchor="middle" x="32.5" y="-45" font-family="Helvetica,sans-Serif" font-size="10.00">der_ent_k</text>
</a>
</g>
</g>
<!-- Node2 -->
<g id="Node000002" class="node">
<title>Node2</title>
<g id="a_Node000002"><a xlink:href="EstimateTrueCount__EntropyFast_8cc.html#a9dbdc9b883fafd106ea6e9f4f2d18b10" target="_top" xlink:title=" ">
<polygon fill="white" stroke="#666666" points="230,-95 101,-95 101,-76 230,-76 230,-95"/>
<text text-anchor="middle" x="165.5" y="-83" font-family="Helvetica,sans-Serif" font-size="10.00">compute_sum_hx_vect</text>
</a>
</g>
</g>
<!-- Node1&#45;&gt;Node2 -->
<g id="edge1_Node000001_Node000002" class="edge">
<title>Node1&#45;&gt;Node2</title>
<g id="a_edge1_Node000001_Node000002"><a xlink:title=" ">
<path fill="none" stroke="#63b8ff" d="M65.21,-56.7C82.29,-61.65 103.58,-67.83 122.06,-73.19"/>
<polygon fill="#63b8ff" stroke="#63b8ff" points="121.13,-76.56 131.71,-75.99 123.08,-69.84 121.13,-76.56"/>
</a>
</g>
</g>
<!-- Node3 -->
<g id="Node000003" class="node">
<title>Node3</title>
<g id="a_Node000003"><a xlink:href="EstimateTrueCount__EntropyFast_8cc.html#a4bc05b3e60ec6578aae305cf37c63377" target="_top" xlink:title=" ">
<polygon fill="white" stroke="#666666" points="295,-76 266,-76 266,-57 295,-57 295,-76"/>
<text text-anchor="middle" x="280.5" y="-64" font-family="Helvetica,sans-Serif" font-size="10.00">h</text>
</a>
</g>
</g>
<!-- Node1&#45;&gt;Node3 -->
<g id="edge4_Node000001_Node000003" class="edge">
<title>Node1&#45;&gt;Node3</title>
<g id="a_edge4_Node000001_Node000003"><a xlink:title=" ">
<path fill="none" stroke="#63b8ff" d="M65.16,-49.95C115.16,-53.81 211.31,-61.23 255.82,-64.67"/>
<polygon fill="#63b8ff" stroke="#63b8ff" points="255.72,-68.17 265.96,-65.45 256.26,-61.19 255.72,-68.17"/>
</a>
</g>
</g>
<!-- Node4 -->
<g id="Node000004" class="node">
<title>Node4</title>
<g id="a_Node000004"><a xlink:href="EstimateTrueCount__EntropyFast_8cc.html#a0829f9806eb07065937d345d4de7e28b" target="_top" xlink:title=" ">
<polygon fill="white" stroke="#666666" points="187.5,-19 143.5,-19 143.5,0 187.5,0 187.5,-19"/>
<text text-anchor="middle" x="165.5" y="-7" font-family="Helvetica,sans-Serif" font-size="10.00">der_h</text>
</a>
</g>
</g>
<!-- Node1&#45;&gt;Node4 -->
<g id="edge3_Node000001_Node000004" class="edge">
<title>Node1&#45;&gt;Node4</title>
<g id="a_edge3_Node000001_Node000004"><a xlink:title=" ">
<path fill="none" stroke="#63b8ff" d="M65.21,-38.3C85.94,-32.29 112.89,-24.47 133.48,-18.5"/>
<polygon fill="#63b8ff" stroke="#63b8ff" points="134.68,-21.8 143.31,-15.65 132.73,-15.07 134.68,-21.8"/>
</a>
</g>
</g>
<!-- Node2&#45;&gt;Node3 -->
<g id="edge2_Node000002_Node000003" class="edge">
<title>Node2&#45;&gt;Node3</title>
<g id="a_edge2_Node000002_Node000003"><a xlink:title=" ">
<path fill="none" stroke="#63b8ff" d="M223.33,-75.94C234.83,-74.01 246.31,-72.08 255.87,-70.47"/>
<polygon fill="#63b8ff" stroke="#63b8ff" points="256.46,-73.92 265.74,-68.81 255.3,-67.02 256.46,-73.92"/>
</a>
</g>
</g>
</g>
</svg>
</svg>

<style type='text/css'>
<![CDATA[
[data-mouse-over-selected='false'] { opacity: 0.7; }
[data-mouse-over-selected='true']  { opacity: 1.0; }
]]>
</style>
<script type="application/ecmascript"><![CDATA[
document.addEventListener('DOMContentLoaded', (event) => {
  highlightEdges();
  highlightAdjacentNodes();
});
]]></script>
</svg>
