<?xml version="1.0" encoding="UTF-8" standalone="no"?>
<!DOCTYPE svg PUBLIC "-//W3C//DTD SVG 1.1//EN"
 "http://www.w3.org/Graphics/SVG/1.1/DTD/svg11.dtd">
<!-- Generated by graphviz version 2.43.0 (0)
 -->
<!-- Title: main Pages: 1 -->
<svg width="914pt" height="247pt"
 viewBox="0.00 0.00 914.00 246.50" xmlns="http://www.w3.org/2000/svg" xmlns:xlink="http://www.w3.org/1999/xlink">
<g id="graph0" class="graph" transform="scale(1 1) rotate(0) translate(4 242.5)">
<title>main</title>
<!-- Node1 -->
<g id="Node000001" class="node">
<title>Node1</title>
<g id="a_Node000001"><a xlink:title=" ">
<polygon fill="#999999" stroke="#666666" points="41,-73.5 0,-73.5 0,-54.5 41,-54.5 41,-73.5"/>
<text text-anchor="middle" x="20.5" y="-61.5" font-family="Helvetica,sans-Serif" font-size="10.00">main</text>
</a>
</g>
</g>
<!-- Node2 -->
<g id="Node000002" class="node">
<title>Node2</title>
<g id="a_Node000002"><a xlink:href="namespacecbrc.html#a63da722ab9af7fef0a7ff9efef851f89" target="_top" xlink:title=" ">
<polygon fill="white" stroke="#666666" points="204,-128 77,-128 77,-98 204,-98 204,-128"/>
<text text-anchor="start" x="85" y="-116" font-family="Helvetica,sans-Serif" font-size="10.00">cbrc::filterBlast8Result</text>
<text text-anchor="middle" x="140.5" y="-105" font-family="Helvetica,sans-Serif" font-size="10.00">EValueThreshold</text>
</a>
</g>
</g>
<!-- Node1&#45;&gt;Node2 -->
<g id="edge1_Node000001_Node000002" class="edge">
<title>Node1&#45;&gt;Node2</title>
<g id="a_edge1_Node000001_Node000002"><a xlink:title=" ">
<path fill="none" stroke="#63b8ff" d="M41.25,-72.2C55.55,-78.14 75.49,-86.42 93.67,-93.97"/>
<polygon fill="#63b8ff" stroke="#63b8ff" points="92.39,-97.23 102.97,-97.83 95.08,-90.76 92.39,-97.23"/>
</a>
</g>
</g>
<!-- Node13 -->
<g id="Node000013" class="node">
<title>Node13</title>
<g id="a_Node000013"><a xlink:href="namespacecbrc_1_1perlish.html#a0e108ed71261c0e210de8d812835028c" target="_top" xlink:title=" ">
<polygon fill="white" stroke="#666666" points="203.5,-52.5 77.5,-52.5 77.5,-33.5 203.5,-33.5 203.5,-52.5"/>
<text text-anchor="middle" x="140.5" y="-40.5" font-family="Helvetica,sans-Serif" font-size="10.00">cbrc::perlish::toDouble</text>
</a>
</g>
</g>
<!-- Node1&#45;&gt;Node13 -->
<g id="edge15_Node000001_Node000013" class="edge">
<title>Node1&#45;&gt;Node13</title>
<g id="a_edge15_Node000001_Node000013"><a xlink:title=" ">
<path fill="none" stroke="#63b8ff" d="M41.25,-60.49C50.98,-58.75 63.32,-56.56 75.94,-54.31"/>
<polygon fill="#63b8ff" stroke="#63b8ff" points="76.85,-57.7 86.08,-52.51 75.62,-50.81 76.85,-57.7"/>
</a>
</g>
</g>
<!-- Node3 -->
<g id="Node000003" class="node">
<title>Node3</title>
<g id="a_Node000003"><a xlink:href="classcbrc_1_1Blast8ResultReader.html#a482769c3edf7a8b778a953192710583f" target="_top" xlink:title=" ">
<polygon fill="white" stroke="#666666" points="379,-208 240,-208 240,-178 379,-178 379,-208"/>
<text text-anchor="start" x="248" y="-196" font-family="Helvetica,sans-Serif" font-size="10.00">cbrc::Blast8ResultReader</text>
<text text-anchor="middle" x="309.5" y="-185" font-family="Helvetica,sans-Serif" font-size="10.00">::isBlastCommentLine</text>
</a>
</g>
</g>
<!-- Node2&#45;&gt;Node3 -->
<g id="edge2_Node000002_Node000003" class="edge">
<title>Node2&#45;&gt;Node3</title>
<g id="a_edge2_Node000002_Node000003"><a xlink:title=" ">
<path fill="none" stroke="#63b8ff" d="M165.15,-128.05C184.72,-140.11 213.5,-156.94 240,-169 244.04,-170.84 248.28,-172.63 252.56,-174.35"/>
<polygon fill="#63b8ff" stroke="#63b8ff" points="251.4,-177.65 261.99,-177.98 253.92,-171.12 251.4,-177.65"/>
</a>
</g>
</g>
<!-- Node8 -->
<g id="Node000008" class="node">
<title>Node8</title>
<g id="a_Node000008"><a xlink:href="classcbrc_1_1FLEArray.html#ad71311380d762114c9e0f3b0dda38b7c" target="_top" xlink:title=" ">
<polygon fill="white" stroke="#666666" points="365,-159.5 254,-159.5 254,-140.5 365,-140.5 365,-159.5"/>
<text text-anchor="middle" x="309.5" y="-147.5" font-family="Helvetica,sans-Serif" font-size="10.00">cbrc::FLEArray::size</text>
</a>
</g>
</g>
<!-- Node2&#45;&gt;Node8 -->
<g id="edge9_Node000002_Node000008" class="edge">
<title>Node2&#45;&gt;Node8</title>
<g id="a_edge9_Node000002_Node000008"><a xlink:title=" ">
<path fill="none" stroke="#63b8ff" d="M204.16,-126.88C221.1,-130.64 239.26,-134.66 255.6,-138.28"/>
<polygon fill="#63b8ff" stroke="#63b8ff" points="255,-141.73 265.52,-140.48 256.51,-134.9 255,-141.73"/>
</a>
</g>
</g>
<!-- Node9 -->
<g id="Node000009" class="node">
<title>Node9</title>
<g id="a_Node000009"><a xlink:href="namespacecbrc_1_1perlish.html#a2a0db2c27f3a19dfdcd7ef17ea5a0bcd" target="_top" xlink:title=" ">
<polygon fill="white" stroke="#666666" points="372.5,-122.5 246.5,-122.5 246.5,-103.5 372.5,-103.5 372.5,-122.5"/>
<text text-anchor="middle" x="309.5" y="-110.5" font-family="Helvetica,sans-Serif" font-size="10.00">cbrc::perlish::slurpLine</text>
</a>
</g>
</g>
<!-- Node2&#45;&gt;Node9 -->
<g id="edge10_Node000002_Node000009" class="edge">
<title>Node2&#45;&gt;Node9</title>
<g id="a_edge10_Node000002_Node000009"><a xlink:title=" ">
<path fill="none" stroke="#63b8ff" d="M204.16,-113C214.61,-113 225.53,-113 236.19,-113"/>
<polygon fill="#63b8ff" stroke="#63b8ff" points="236.32,-116.5 246.32,-113 236.32,-109.5 236.32,-116.5"/>
</a>
</g>
</g>
<!-- Node10 -->
<g id="Node000010" class="node">
<title>Node10</title>
<g id="a_Node000010"><a xlink:href="namespacecbrc_1_1perlish.html#a101a4746d50e52a00273c6fe533970ec" target="_top" xlink:title=" ">
<polygon fill="white" stroke="#666666" points="361,-67.5 258,-67.5 258,-48.5 361,-48.5 361,-67.5"/>
<text text-anchor="middle" x="309.5" y="-55.5" font-family="Helvetica,sans-Serif" font-size="10.00">cbrc::perlish::split</text>
</a>
</g>
</g>
<!-- Node2&#45;&gt;Node10 -->
<g id="edge11_Node000002_Node000010" class="edge">
<title>Node2&#45;&gt;Node10</title>
<g id="a_edge11_Node000002_Node000010"><a xlink:title=" ">
<path fill="none" stroke="#63b8ff" d="M187.13,-97.97C212.94,-89.47 244.86,-78.96 269.49,-70.85"/>
<polygon fill="#63b8ff" stroke="#63b8ff" points="270.82,-74.1 279.22,-67.64 268.63,-67.45 270.82,-74.1"/>
</a>
</g>
</g>
<!-- Node4 -->
<g id="Node000004" class="node">
<title>Node4</title>
<g id="a_Node000004"><a xlink:href="classcbrc_1_1FLEArray.html#a3eba8d1c247ebc9ed3219dd2a3614252" target="_top" xlink:title=" ">
<polygon fill="white" stroke="#666666" points="529.5,-202.5 419.5,-202.5 419.5,-183.5 529.5,-183.5 529.5,-202.5"/>
<text text-anchor="middle" x="474.5" y="-190.5" font-family="Helvetica,sans-Serif" font-size="10.00">cbrc::FLEArray::find</text>
</a>
</g>
</g>
<!-- Node3&#45;&gt;Node4 -->
<g id="edge3_Node000003_Node000004" class="edge">
<title>Node3&#45;&gt;Node4</title>
<g id="a_edge3_Node000003_Node000004"><a xlink:title=" ">
<path fill="none" stroke="#63b8ff" d="M379.15,-193C389.1,-193 399.3,-193 409.16,-193"/>
<polygon fill="#63b8ff" stroke="#63b8ff" points="409.28,-196.5 419.28,-193 409.28,-189.5 409.28,-196.5"/>
</a>
</g>
</g>
<!-- Node5 -->
<g id="Node000005" class="node">
<title>Node5</title>
<g id="a_Node000005"><a xlink:href="classcbrc_1_1FLEArray.html#a985e9e85d6fc6adf9d3c52a0306361a4" target="_top" xlink:title=" ">
<polygon fill="white" stroke="#666666" points="722,-221.5 570,-221.5 570,-202.5 722,-202.5 722,-221.5"/>
<text text-anchor="middle" x="646" y="-209.5" font-family="Helvetica,sans-Serif" font-size="10.00">cbrc::FLEArray::_validRange</text>
</a>
</g>
</g>
<!-- Node4&#45;&gt;Node5 -->
<g id="edge4_Node000004_Node000005" class="edge">
<title>Node4&#45;&gt;Node5</title>
<g id="a_edge4_Node000004_Node000005"><a xlink:title=" ">
<path fill="none" stroke="#63b8ff" d="M529.6,-199.06C539.19,-200.14 549.39,-201.28 559.6,-202.43"/>
<polygon fill="#63b8ff" stroke="#63b8ff" points="559.46,-205.93 569.79,-203.57 560.24,-198.98 559.46,-205.93"/>
</a>
</g>
</g>
<!-- Node7 -->
<g id="Node000007" class="node">
<title>Node7</title>
<g id="a_Node000007"><a xlink:href="classcbrc_1_1FLEArray.html#a5368c7c0434bd5c119d2cbb39f4b399e" target="_top" xlink:title=" ">
<polygon fill="white" stroke="#666666" points="899.5,-183.5 764.5,-183.5 764.5,-164.5 899.5,-164.5 899.5,-183.5"/>
<text text-anchor="middle" x="832" y="-171.5" font-family="Helvetica,sans-Serif" font-size="10.00">cbrc::FLEArray::FLEArray</text>
</a>
</g>
</g>
<!-- Node4&#45;&gt;Node7 -->
<g id="edge8_Node000004_Node000007" class="edge">
<title>Node4&#45;&gt;Node7</title>
<g id="a_edge8_Node000004_Node000007"><a xlink:title=" ">
<path fill="none" stroke="#63b8ff" d="M529.88,-190.09C589.73,-186.89 686.4,-181.73 754.02,-178.11"/>
<polygon fill="#63b8ff" stroke="#63b8ff" points="754.39,-181.6 764.19,-177.57 754.02,-174.61 754.39,-181.6"/>
</a>
</g>
</g>
<!-- Node6 -->
<g id="Node000006" class="node">
<title>Node6</title>
<g id="a_Node000006"><a xlink:href="classcbrc_1_1FLEArray.html#a0a06120b85cf875ccff4081918fe0f33" target="_top" xlink:title=" ">
<polygon fill="white" stroke="#666666" points="906,-238.5 758,-238.5 758,-219.5 906,-219.5 906,-238.5"/>
<text text-anchor="middle" x="832" y="-226.5" font-family="Helvetica,sans-Serif" font-size="10.00">cbrc::FLEArray::_validIndex</text>
</a>
</g>
</g>
<!-- Node5&#45;&gt;Node6 -->
<g id="edge5_Node000005_Node000006" class="edge">
<title>Node5&#45;&gt;Node6</title>
<g id="a_edge5_Node000005_Node000006"><a xlink:title=" ">
<path fill="none" stroke="#63b8ff" d="M722.11,-218.94C730.6,-219.72 739.3,-220.53 747.9,-221.32"/>
<polygon fill="#63b8ff" stroke="#63b8ff" points="747.64,-224.81 757.92,-222.25 748.28,-217.84 747.64,-224.81"/>
</a>
</g>
</g>
<!-- Node5&#45;&gt;Node7 -->
<g id="edge6_Node000005_Node000007" class="edge">
<title>Node5&#45;&gt;Node7</title>
<g id="a_edge6_Node000005_Node000007"><a xlink:title=" ">
<path fill="none" stroke="#63b8ff" d="M693.43,-202.41C718.15,-197.31 748.74,-190.99 774.79,-185.61"/>
<polygon fill="#63b8ff" stroke="#63b8ff" points="775.82,-188.97 784.9,-183.52 774.4,-182.11 775.82,-188.97"/>
</a>
</g>
</g>
<!-- Node7&#45;&gt;Node7 -->
<g id="edge7_Node000007_Node000007" class="edge">
<title>Node7&#45;&gt;Node7</title>
<g id="a_edge7_Node000007_Node000007"><a xlink:title=" ">
<path fill="none" stroke="#63b8ff" d="M803.33,-183.58C789.39,-192.23 798.94,-201.5 832,-201.5 854.73,-201.5 866.35,-197.12 866.86,-191.57"/>
<polygon fill="#63b8ff" stroke="#63b8ff" points="869.56,-189.34 860.67,-183.58 864.03,-193.63 869.56,-189.34"/>
</a>
</g>
</g>
<!-- Node10&#45;&gt;Node10 -->
<g id="edge14_Node000010_Node000010" class="edge">
<title>Node10&#45;&gt;Node10</title>
<g id="a_edge14_Node000010_Node000010"><a xlink:title=" ">
<path fill="none" stroke="#63b8ff" d="M284.22,-67.58C271.93,-76.23 280.35,-85.5 309.5,-85.5 328.63,-85.5 338.83,-81.51 340.11,-76.32"/>
<polygon fill="#63b8ff" stroke="#63b8ff" points="342.98,-74.29 334.78,-67.58 337,-77.94 342.98,-74.29"/>
</a>
</g>
</g>
<!-- Node11 -->
<g id="Node000011" class="node">
<title>Node11</title>
<g id="a_Node000011"><a xlink:href="classcbrc_1_1FLEArray.html#a7e5d0d3bc5c41546620ccff95b55b3fa" target="_top" xlink:title=" ">
<polygon fill="white" stroke="#666666" points="534,-86.5 415,-86.5 415,-67.5 534,-67.5 534,-86.5"/>
<text text-anchor="middle" x="474.5" y="-74.5" font-family="Helvetica,sans-Serif" font-size="10.00">cbrc::FLEArray::begin</text>
</a>
</g>
</g>
<!-- Node10&#45;&gt;Node11 -->
<g id="edge12_Node000010_Node000011" class="edge">
<title>Node10&#45;&gt;Node11</title>
<g id="a_edge12_Node000010_Node000011"><a xlink:title=" ">
<path fill="none" stroke="#63b8ff" d="M361.18,-63.91C375,-65.52 390.21,-67.29 404.85,-69"/>
<polygon fill="#63b8ff" stroke="#63b8ff" points="404.53,-72.48 414.87,-70.17 405.34,-65.53 404.53,-72.48"/>
</a>
</g>
</g>
<!-- Node12 -->
<g id="Node000012" class="node">
<title>Node12</title>
<g id="a_Node000012"><a xlink:href="classcbrc_1_1FLEArray.html#a8c53878dc57e8f666976e041d146a523" target="_top" xlink:title=" ">
<polygon fill="white" stroke="#666666" points="529.5,-49.5 419.5,-49.5 419.5,-30.5 529.5,-30.5 529.5,-49.5"/>
<text text-anchor="middle" x="474.5" y="-37.5" font-family="Helvetica,sans-Serif" font-size="10.00">cbrc::FLEArray::end</text>
</a>
</g>
</g>
<!-- Node10&#45;&gt;Node12 -->
<g id="edge13_Node000010_Node000012" class="edge">
<title>Node10&#45;&gt;Node12</title>
<g id="a_edge13_Node000010_Node000012"><a xlink:title=" ">
<path fill="none" stroke="#63b8ff" d="M361.18,-52.4C376.36,-50.73 393.21,-48.87 409.15,-47.11"/>
<polygon fill="#63b8ff" stroke="#63b8ff" points="409.9,-50.54 419.46,-45.97 409.14,-43.59 409.9,-50.54"/>
</a>
</g>
</g>
<!-- Node14 -->
<g id="Node000014" class="node">
<title>Node14</title>
<g id="a_Node000014"><a xlink:href="namespacecbrc_1_1perlish.html#a2e0de63b4246722762d5e7c734dae391" target="_top" xlink:title=" ">
<polygon fill="white" stroke="#666666" points="373.5,-30 245.5,-30 245.5,0 373.5,0 373.5,-30"/>
<text text-anchor="start" x="253.5" y="-18" font-family="Helvetica,sans-Serif" font-size="10.00">cbrc::perlish::looksLike</text>
<text text-anchor="middle" x="309.5" y="-7" font-family="Helvetica,sans-Serif" font-size="10.00">RealCstring</text>
</a>
</g>
</g>
<!-- Node13&#45;&gt;Node14 -->
<g id="edge16_Node000013_Node000014" class="edge">
<title>Node13&#45;&gt;Node14</title>
<g id="a_edge16_Node000013_Node000014"><a xlink:title=" ">
<path fill="none" stroke="#63b8ff" d="M198.5,-33.44C210.43,-31.44 223.17,-29.31 235.59,-27.23"/>
<polygon fill="#63b8ff" stroke="#63b8ff" points="236.17,-30.68 245.45,-25.57 235.01,-23.77 236.17,-30.68"/>
</a>
</g>
</g>
</g>
</svg>
