<?xml version="1.0" encoding="UTF-8" standalone="no"?>
<!DOCTYPE svg PUBLIC "-//W3C//DTD SVG 1.1//EN"
 "http://www.w3.org/Graphics/SVG/1.1/DTD/svg11.dtd">
<!-- Generated by graphviz version 2.43.0 (0)
 -->
<!-- Title: ematch_src/utils/sequence/readers/run/filterSameClassHighBlast.cc Pages: 1 -->
<svg width="1580pt" height="291pt"
 viewBox="0.00 0.00 1579.50 291.00" xmlns="http://www.w3.org/2000/svg" xmlns:xlink="http://www.w3.org/1999/xlink">
<g id="graph0" class="graph" transform="scale(1 1) rotate(0) translate(4 287)">
<title>ematch_src/utils/sequence/readers/run/filterSameClassHighBlast.cc</title>
<!-- Node1 -->
<g id="Node000001" class="node">
<title>Node1</title>
<g id="a_Node000001"><a xlink:title=" ">
<polygon fill="#999999" stroke="#666666" points="1088,-283 911,-283 911,-242 1088,-242 1088,-283"/>
<text text-anchor="start" x="919" y="-271" font-family="Helvetica,sans-Serif" font-size="10.00">ematch_src/utils/sequence</text>
<text text-anchor="start" x="919" y="-260" font-family="Helvetica,sans-Serif" font-size="10.00">/readers/run/filterSameClassHigh</text>
<text text-anchor="middle" x="999.5" y="-249" font-family="Helvetica,sans-Serif" font-size="10.00">Blast.cc</text>
</a>
</g>
</g>
<!-- Node2 -->
<g id="Node000002" class="node">
<title>Node2</title>
<g id="a_Node000002"><a xlink:title=" ">
<polygon fill="#e0e0e0" stroke="#999999" points="1028.5,-19 968.5,-19 968.5,0 1028.5,0 1028.5,-19"/>
<text text-anchor="middle" x="998.5" y="-7" font-family="Helvetica,sans-Serif" font-size="10.00">iostream</text>
</a>
</g>
</g>
<!-- Node1&#45;&gt;Node2 -->
<g id="edge1_Node000001_Node000002" class="edge">
<title>Node1&#45;&gt;Node2</title>
<g id="a_edge1_Node000001_Node000002"><a xlink:title=" ">
<path fill="none" stroke="#63b8ff" d="M1088.09,-243.2C1213.17,-213.55 1417.65,-148.71 1335.5,-55 1316.17,-32.95 1123.8,-18.32 1038.67,-12.88"/>
<polygon fill="#63b8ff" stroke="#63b8ff" points="1038.8,-9.38 1028.6,-12.24 1038.36,-16.36 1038.8,-9.38"/>
</a>
</g>
</g>
<!-- Node3 -->
<g id="Node000003" class="node">
<title>Node3</title>
<g id="a_Node000003"><a xlink:title=" ">
<polygon fill="#e0e0e0" stroke="#999999" points="55,-79.5 0,-79.5 0,-60.5 55,-60.5 55,-79.5"/>
<text text-anchor="middle" x="27.5" y="-67.5" font-family="Helvetica,sans-Serif" font-size="10.00">fstream</text>
</a>
</g>
</g>
<!-- Node1&#45;&gt;Node3 -->
<g id="edge2_Node000001_Node000003" class="edge">
<title>Node1&#45;&gt;Node3</title>
<g id="a_edge2_Node000001_Node000003"><a xlink:title=" ">
<path fill="none" stroke="#63b8ff" d="M910.8,-246.52C846.53,-235.56 757.58,-220.2 679.5,-206 405.42,-156.16 332.17,-162.18 64.5,-85 62.36,-84.38 60.16,-83.69 57.96,-82.97"/>
<polygon fill="#63b8ff" stroke="#63b8ff" points="59.03,-79.63 48.43,-79.59 56.69,-86.23 59.03,-79.63"/>
</a>
</g>
</g>
<!-- Node4 -->
<g id="Node000004" class="node">
<title>Node4</title>
<g id="a_Node000004"><a xlink:title=" ">
<polygon fill="#e0e0e0" stroke="#999999" points="1053.5,-145.5 1009.5,-145.5 1009.5,-126.5 1053.5,-126.5 1053.5,-145.5"/>
<text text-anchor="middle" x="1031.5" y="-133.5" font-family="Helvetica,sans-Serif" font-size="10.00">limits</text>
</a>
</g>
</g>
<!-- Node1&#45;&gt;Node4 -->
<g id="edge3_Node000001_Node000004" class="edge">
<title>Node1&#45;&gt;Node4</title>
<g id="a_edge3_Node000001_Node000004"><a xlink:title=" ">
<path fill="none" stroke="#63b8ff" d="M1004.48,-241.89C1008.29,-226.86 1013.71,-205.61 1018.5,-187 1021.17,-176.64 1024.17,-165.07 1026.62,-155.68"/>
<polygon fill="#63b8ff" stroke="#63b8ff" points="1030.05,-156.41 1029.19,-145.85 1023.28,-154.64 1030.05,-156.41"/>
</a>
</g>
</g>
<!-- Node5 -->
<g id="Node000005" class="node">
<title>Node5</title>
<g id="a_Node000005"><a xlink:href="Blast8ResultReader_8hh.html" target="_top" xlink:title=" ">
<polygon fill="white" stroke="#666666" points="971.5,-206 835.5,-206 835.5,-187 971.5,-187 971.5,-206"/>
<text text-anchor="middle" x="903.5" y="-194" font-family="Helvetica,sans-Serif" font-size="10.00">../Blast8ResultReader.hh</text>
</a>
</g>
</g>
<!-- Node1&#45;&gt;Node5 -->
<g id="edge4_Node000001_Node000005" class="edge">
<title>Node1&#45;&gt;Node5</title>
<g id="a_edge4_Node000001_Node000005"><a xlink:title=" ">
<path fill="none" stroke="#63b8ff" d="M970.18,-241.95C955.57,-232.21 938.23,-220.65 924.9,-211.76"/>
<polygon fill="#63b8ff" stroke="#63b8ff" points="926.65,-208.73 916.39,-206.09 922.77,-214.55 926.65,-208.73"/>
</a>
</g>
</g>
<!-- Node6 -->
<g id="Node000006" class="node">
<title>Node6</title>
<g id="a_Node000006"><a xlink:href="ematch__src_2utils_2perlish_2perlish_8hh.html" target="_top" xlink:title=" ">
<polygon fill="white" stroke="#666666" points="525,-145.5 400,-145.5 400,-126.5 525,-126.5 525,-145.5"/>
<text text-anchor="middle" x="462.5" y="-133.5" font-family="Helvetica,sans-Serif" font-size="10.00">utils/perlish/perlish.hh</text>
</a>
</g>
</g>
<!-- Node1&#45;&gt;Node6 -->
<g id="edge36_Node000001_Node000006" class="edge">
<title>Node1&#45;&gt;Node6</title>
<g id="a_edge36_Node000001_Node000006"><a xlink:title=" ">
<path fill="none" stroke="#63b8ff" d="M915.3,-241.98C800.9,-215.46 600.24,-168.93 509.47,-147.89"/>
<polygon fill="#63b8ff" stroke="#63b8ff" points="510,-144.42 499.47,-145.57 508.42,-151.24 510,-144.42"/>
</a>
</g>
</g>
<!-- Node24 -->
<g id="Node000024" class="node">
<title>Node24</title>
<g id="a_Node000024"><a xlink:href="StayFiniteLog_8hh.html" target="_top" xlink:title=" ">
<polygon fill="white" stroke="#666666" points="1177.5,-206 1027.5,-206 1027.5,-187 1177.5,-187 1177.5,-206"/>
<text text-anchor="middle" x="1102.5" y="-194" font-family="Helvetica,sans-Serif" font-size="10.00">utils/math/StayFiniteLog.hh</text>
</a>
</g>
</g>
<!-- Node1&#45;&gt;Node24 -->
<g id="edge37_Node000001_Node000024" class="edge">
<title>Node1&#45;&gt;Node24</title>
<g id="a_edge37_Node000001_Node000024"><a xlink:title=" ">
<path fill="none" stroke="#63b8ff" d="M1030.96,-241.95C1046.78,-232.12 1065.59,-220.43 1079.95,-211.51"/>
<polygon fill="#63b8ff" stroke="#63b8ff" points="1082.03,-214.34 1088.67,-206.09 1078.33,-208.4 1082.03,-214.34"/>
</a>
</g>
</g>
<!-- Node26 -->
<g id="Node000026" class="node">
<title>Node26</title>
<g id="a_Node000026"><a xlink:title=" ">
<polygon fill="#e0e0e0" stroke="#999999" points="1571.5,-206 1403.5,-206 1403.5,-187 1571.5,-187 1571.5,-206"/>
<text text-anchor="middle" x="1487.5" y="-194" font-family="Helvetica,sans-Serif" font-size="10.00">classifiers/LabeledInstances.hh</text>
</a>
</g>
</g>
<!-- Node1&#45;&gt;Node26 -->
<g id="edge40_Node000001_Node000026" class="edge">
<title>Node1&#45;&gt;Node26</title>
<g id="a_edge40_Node000001_Node000026"><a xlink:title=" ">
<path fill="none" stroke="#63b8ff" d="M1088.16,-249.87C1180.93,-237.71 1325.01,-218.81 1412.38,-207.35"/>
<polygon fill="#63b8ff" stroke="#63b8ff" points="1413.02,-210.8 1422.48,-206.03 1412.11,-203.86 1413.02,-210.8"/>
</a>
</g>
</g>
<!-- Node5&#45;&gt;Node6 -->
<g id="edge5_Node000005_Node000006" class="edge">
<title>Node5&#45;&gt;Node6</title>
<g id="a_edge5_Node000005_Node000006"><a xlink:title=" ">
<path fill="none" stroke="#63b8ff" d="M839.37,-186.99C758.57,-176.27 620.05,-157.9 535.33,-146.66"/>
<polygon fill="#63b8ff" stroke="#63b8ff" points="535.65,-143.17 525.27,-145.33 534.73,-150.11 535.65,-143.17"/>
</a>
</g>
</g>
<!-- Node20 -->
<g id="Node000020" class="node">
<title>Node20</title>
<g id="a_Node000020"><a xlink:href="StringKeyHashtable_8hh.html" target="_top" xlink:title=" ">
<polygon fill="white" stroke="#666666" points="977,-151 846,-151 846,-121 977,-121 977,-151"/>
<text text-anchor="start" x="854" y="-139" font-family="Helvetica,sans-Serif" font-size="10.00">utils/ChainHashtable</text>
<text text-anchor="middle" x="911.5" y="-128" font-family="Helvetica,sans-Serif" font-size="10.00">/StringKeyHashtable.hh</text>
</a>
</g>
</g>
<!-- Node5&#45;&gt;Node20 -->
<g id="edge26_Node000005_Node000020" class="edge">
<title>Node5&#45;&gt;Node20</title>
<g id="a_edge26_Node000005_Node000020"><a xlink:title=" ">
<path fill="none" stroke="#63b8ff" d="M904.68,-186.87C905.61,-180.11 906.94,-170.35 908.18,-161.26"/>
<polygon fill="#63b8ff" stroke="#63b8ff" points="911.68,-161.5 909.57,-151.11 904.75,-160.55 911.68,-161.5"/>
</a>
</g>
</g>
<!-- Node6&#45;&gt;Node2 -->
<g id="edge7_Node000006_Node000002" class="edge">
<title>Node6&#45;&gt;Node2</title>
<g id="a_edge7_Node000006_Node000002"><a xlink:title=" ">
<path fill="none" stroke="#63b8ff" d="M525.04,-131.81C627.58,-125.9 826.55,-111.39 891.5,-85 911.76,-76.77 912.67,-67.66 930.5,-55 945.45,-44.38 962.76,-33.07 976.16,-24.51"/>
<polygon fill="#63b8ff" stroke="#63b8ff" points="978.18,-27.38 984.75,-19.07 974.43,-21.47 978.18,-27.38"/>
</a>
</g>
</g>
<!-- Node6&#45;&gt;Node3 -->
<g id="edge8_Node000006_Node000003" class="edge">
<title>Node6&#45;&gt;Node3</title>
<g id="a_edge8_Node000006_Node000003"><a xlink:title=" ">
<path fill="none" stroke="#63b8ff" d="M399.96,-131.73C320.86,-126.55 180.92,-113.9 64.5,-85 62.05,-84.39 59.54,-83.67 57.04,-82.88"/>
<polygon fill="#63b8ff" stroke="#63b8ff" points="58.18,-79.57 47.58,-79.58 55.87,-86.18 58.18,-79.57"/>
</a>
</g>
</g>
<!-- Node7 -->
<g id="Node000007" class="node">
<title>Node7</title>
<g id="a_Node000007"><a xlink:title=" ">
<polygon fill="#e0e0e0" stroke="#999999" points="351,-79.5 298,-79.5 298,-60.5 351,-60.5 351,-79.5"/>
<text text-anchor="middle" x="324.5" y="-67.5" font-family="Helvetica,sans-Serif" font-size="10.00">ctype.h</text>
</a>
</g>
</g>
<!-- Node6&#45;&gt;Node7 -->
<g id="edge6_Node000006_Node000007" class="edge">
<title>Node6&#45;&gt;Node7</title>
<g id="a_edge6_Node000006_Node000007"><a xlink:title=" ">
<path fill="none" stroke="#63b8ff" d="M443.89,-126.37C420.43,-115.49 379.89,-96.69 352.64,-84.05"/>
<polygon fill="#63b8ff" stroke="#63b8ff" points="353.8,-80.73 343.26,-79.7 350.86,-87.08 353.8,-80.73"/>
</a>
</g>
</g>
<!-- Node8 -->
<g id="Node000008" class="node">
<title>Node8</title>
<g id="a_Node000008"><a xlink:title=" ">
<polygon fill="#e0e0e0" stroke="#999999" points="129.5,-79.5 73.5,-79.5 73.5,-60.5 129.5,-60.5 129.5,-79.5"/>
<text text-anchor="middle" x="101.5" y="-67.5" font-family="Helvetica,sans-Serif" font-size="10.00">sstream</text>
</a>
</g>
</g>
<!-- Node6&#45;&gt;Node8 -->
<g id="edge9_Node000006_Node000008" class="edge">
<title>Node6&#45;&gt;Node8</title>
<g id="a_edge9_Node000006_Node000008"><a xlink:title=" ">
<path fill="none" stroke="#63b8ff" d="M399.85,-128.3C335.08,-120.65 231.33,-106.36 143.5,-85 140.53,-84.28 137.48,-83.44 134.43,-82.55"/>
<polygon fill="#63b8ff" stroke="#63b8ff" points="135.43,-79.2 124.85,-79.55 133.34,-85.88 135.43,-79.2"/>
</a>
</g>
</g>
<!-- Node9 -->
<g id="Node000009" class="node">
<title>Node9</title>
<g id="a_Node000009"><a xlink:title=" ">
<polygon fill="#e0e0e0" stroke="#999999" points="395.5,-19 351.5,-19 351.5,0 395.5,0 395.5,-19"/>
<text text-anchor="middle" x="373.5" y="-7" font-family="Helvetica,sans-Serif" font-size="10.00">string</text>
</a>
</g>
</g>
<!-- Node6&#45;&gt;Node9 -->
<g id="edge10_Node000006_Node000009" class="edge">
<title>Node6&#45;&gt;Node9</title>
<g id="a_edge10_Node000006_Node000009"><a xlink:title=" ">
<path fill="none" stroke="#63b8ff" d="M399.77,-132.02C330.19,-127.25 224.43,-115.12 199.5,-85 158.78,-35.81 280.15,-18.37 340.98,-12.82"/>
<polygon fill="#63b8ff" stroke="#63b8ff" points="341.57,-16.29 351.24,-11.95 340.98,-9.31 341.57,-16.29"/>
</a>
</g>
</g>
<!-- Node10 -->
<g id="Node000010" class="node">
<title>Node10</title>
<g id="a_Node000010"><a xlink:title=" ">
<polygon fill="#e0e0e0" stroke="#999999" points="574,-19 527,-19 527,0 574,0 574,-19"/>
<text text-anchor="middle" x="550.5" y="-7" font-family="Helvetica,sans-Serif" font-size="10.00">vector</text>
</a>
</g>
</g>
<!-- Node6&#45;&gt;Node10 -->
<g id="edge11_Node000006_Node000010" class="edge">
<title>Node6&#45;&gt;Node10</title>
<g id="a_edge11_Node000006_Node000010"><a xlink:title=" ">
<path fill="none" stroke="#63b8ff" d="M478.12,-126.49C492.63,-117.84 513.83,-103.15 526.5,-85 538.27,-68.15 544.51,-45.2 547.65,-29.24"/>
<polygon fill="#63b8ff" stroke="#63b8ff" points="551.15,-29.49 549.42,-19.04 544.26,-28.3 551.15,-29.49"/>
</a>
</g>
</g>
<!-- Node11 -->
<g id="Node000011" class="node">
<title>Node11</title>
<g id="a_Node000011"><a xlink:title=" ">
<polygon fill="#e0e0e0" stroke="#999999" points="279.5,-79.5 223.5,-79.5 223.5,-60.5 279.5,-60.5 279.5,-79.5"/>
<text text-anchor="middle" x="251.5" y="-67.5" font-family="Helvetica,sans-Serif" font-size="10.00">assert.h</text>
</a>
</g>
</g>
<!-- Node6&#45;&gt;Node11 -->
<g id="edge12_Node000006_Node000011" class="edge">
<title>Node6&#45;&gt;Node11</title>
<g id="a_edge12_Node000006_Node000011"><a xlink:title=" ">
<path fill="none" stroke="#63b8ff" d="M429.87,-126.48C394.72,-117.1 337.27,-101.2 288.5,-85 286.64,-84.38 284.74,-83.73 282.83,-83.06"/>
<polygon fill="#63b8ff" stroke="#63b8ff" points="283.9,-79.72 273.31,-79.59 281.51,-86.3 283.9,-79.72"/>
</a>
</g>
</g>
<!-- Node12 -->
<g id="Node000012" class="node">
<title>Node12</title>
<g id="a_Node000012"><a xlink:title=" ">
<polygon fill="#e0e0e0" stroke="#999999" points="509,-19 414,-19 414,0 509,0 509,-19"/>
<text text-anchor="middle" x="461.5" y="-7" font-family="Helvetica,sans-Serif" font-size="10.00">boost/regex.hpp</text>
</a>
</g>
</g>
<!-- Node6&#45;&gt;Node12 -->
<g id="edge13_Node000006_Node000012" class="edge">
<title>Node6&#45;&gt;Node12</title>
<g id="a_edge13_Node000006_Node000012"><a xlink:title=" ">
<path fill="none" stroke="#63b8ff" d="M399.81,-134.67C310.13,-132.03 161.55,-118.35 214.5,-55 217.56,-51.34 331.88,-31.89 403.9,-19.94"/>
<polygon fill="#63b8ff" stroke="#63b8ff" points="404.48,-23.4 413.77,-18.31 403.33,-16.49 404.48,-23.4"/>
</a>
</g>
</g>
<!-- Node13 -->
<g id="Node000013" class="node">
<title>Node13</title>
<g id="a_Node000013"><a xlink:href="ematch__src_2utils_2gdb_2gdbUtils_8hh.html" target="_top" xlink:title=" ">
<polygon fill="white" stroke="#666666" points="883,-79.5 766,-79.5 766,-60.5 883,-60.5 883,-79.5"/>
<text text-anchor="middle" x="824.5" y="-67.5" font-family="Helvetica,sans-Serif" font-size="10.00">utils/gdb/gdbUtils.hh</text>
</a>
</g>
</g>
<!-- Node6&#45;&gt;Node13 -->
<g id="edge14_Node000006_Node000013" class="edge">
<title>Node6&#45;&gt;Node13</title>
<g id="a_edge14_Node000006_Node000013"><a xlink:title=" ">
<path fill="none" stroke="#63b8ff" d="M510.95,-126.44C577.05,-114.75 695.38,-93.83 766.24,-81.3"/>
<polygon fill="#63b8ff" stroke="#63b8ff" points="767.1,-84.7 776.34,-79.51 765.88,-77.81 767.1,-84.7"/>
</a>
</g>
</g>
<!-- Node18 -->
<g id="Node000018" class="node">
<title>Node18</title>
<g id="a_Node000018"><a xlink:href="ematch__src_2utils_2stl_2stlTypes_8hh.html" target="_top" xlink:title=" ">
<polygon fill="white" stroke="#666666" points="517.5,-79.5 407.5,-79.5 407.5,-60.5 517.5,-60.5 517.5,-79.5"/>
<text text-anchor="middle" x="462.5" y="-67.5" font-family="Helvetica,sans-Serif" font-size="10.00">utils/stl/stlTypes.hh</text>
</a>
</g>
</g>
<!-- Node6&#45;&gt;Node18 -->
<g id="edge20_Node000006_Node000018" class="edge">
<title>Node6&#45;&gt;Node18</title>
<g id="a_edge20_Node000006_Node000018"><a xlink:title=" ">
<path fill="none" stroke="#63b8ff" d="M462.5,-126.37C462.5,-117.16 462.5,-102.29 462.5,-90.27"/>
<polygon fill="#63b8ff" stroke="#63b8ff" points="466,-89.91 462.5,-79.91 459,-89.91 466,-89.91"/>
</a>
</g>
</g>
<!-- Node19 -->
<g id="Node000019" class="node">
<title>Node19</title>
<g id="a_Node000019"><a xlink:href="ematch__src_2utils_2boost_2boostUtils_8hh.html" target="_top" xlink:title=" ">
<polygon fill="white" stroke="#666666" points="709,-79.5 574,-79.5 574,-60.5 709,-60.5 709,-79.5"/>
<text text-anchor="middle" x="641.5" y="-67.5" font-family="Helvetica,sans-Serif" font-size="10.00">utils/boost/boostUtils.hh</text>
</a>
</g>
</g>
<!-- Node6&#45;&gt;Node19 -->
<g id="edge23_Node000006_Node000019" class="edge">
<title>Node6&#45;&gt;Node19</title>
<g id="a_edge23_Node000006_Node000019"><a xlink:title=" ">
<path fill="none" stroke="#63b8ff" d="M486.64,-126.37C517.82,-115.22 572.27,-95.75 607.6,-83.12"/>
<polygon fill="#63b8ff" stroke="#63b8ff" points="609.22,-86.26 617.46,-79.6 606.86,-79.67 609.22,-86.26"/>
</a>
</g>
</g>
<!-- Node13&#45;&gt;Node2 -->
<g id="edge16_Node000013_Node000002" class="edge">
<title>Node13&#45;&gt;Node2</title>
<g id="a_edge16_Node000013_Node000002"><a xlink:title=" ">
<path fill="none" stroke="#63b8ff" d="M849.8,-60.49C879.7,-50.44 929.62,-33.66 963.28,-22.34"/>
<polygon fill="#63b8ff" stroke="#63b8ff" points="964.81,-25.52 973.17,-19.02 962.57,-18.89 964.81,-25.52"/>
</a>
</g>
</g>
<!-- Node14 -->
<g id="Node000014" class="node">
<title>Node14</title>
<g id="a_Node000014"><a xlink:title=" ">
<polygon fill="#e0e0e0" stroke="#999999" points="867,-19 814,-19 814,0 867,0 867,-19"/>
<text text-anchor="middle" x="840.5" y="-7" font-family="Helvetica,sans-Serif" font-size="10.00">cstdarg</text>
</a>
</g>
</g>
<!-- Node13&#45;&gt;Node14 -->
<g id="edge15_Node000013_Node000014" class="edge">
<title>Node13&#45;&gt;Node14</title>
<g id="a_edge15_Node000013_Node000014"><a xlink:title=" ">
<path fill="none" stroke="#63b8ff" d="M826.86,-60.37C829.11,-52.16 832.56,-39.54 835.43,-29.05"/>
<polygon fill="#63b8ff" stroke="#63b8ff" points="838.87,-29.74 838.13,-19.17 832.12,-27.89 838.87,-29.74"/>
</a>
</g>
</g>
<!-- Node15 -->
<g id="Node000015" class="node">
<title>Node15</title>
<g id="a_Node000015"><a xlink:title=" ">
<polygon fill="#e0e0e0" stroke="#999999" points="934,-19 885,-19 885,0 934,0 934,-19"/>
<text text-anchor="middle" x="909.5" y="-7" font-family="Helvetica,sans-Serif" font-size="10.00">cstdlib</text>
</a>
</g>
</g>
<!-- Node13&#45;&gt;Node15 -->
<g id="edge17_Node000013_Node000015" class="edge">
<title>Node13&#45;&gt;Node15</title>
<g id="a_edge17_Node000013_Node000015"><a xlink:title=" ">
<path fill="none" stroke="#63b8ff" d="M837.04,-60.37C850.6,-51.04 872.44,-36.01 888.6,-24.88"/>
<polygon fill="#63b8ff" stroke="#63b8ff" points="890.65,-27.72 896.91,-19.17 886.68,-21.95 890.65,-27.72"/>
</a>
</g>
</g>
<!-- Node16 -->
<g id="Node000016" class="node">
<title>Node16</title>
<g id="a_Node000016"><a xlink:title=" ">
<polygon fill="#e0e0e0" stroke="#999999" points="725.5,-19 679.5,-19 679.5,0 725.5,0 725.5,-19"/>
<text text-anchor="middle" x="702.5" y="-7" font-family="Helvetica,sans-Serif" font-size="10.00">cstdio</text>
</a>
</g>
</g>
<!-- Node13&#45;&gt;Node16 -->
<g id="edge18_Node000013_Node000016" class="edge">
<title>Node13&#45;&gt;Node16</title>
<g id="a_edge18_Node000013_Node000016"><a xlink:title=" ">
<path fill="none" stroke="#63b8ff" d="M806.76,-60.49C786.43,-50.75 752.89,-34.66 729.36,-23.38"/>
<polygon fill="#63b8ff" stroke="#63b8ff" points="730.79,-20.18 720.26,-19.02 727.76,-26.5 730.79,-20.18"/>
</a>
</g>
</g>
<!-- Node17 -->
<g id="Node000017" class="node">
<title>Node17</title>
<g id="a_Node000017"><a xlink:title=" ">
<polygon fill="#e0e0e0" stroke="#999999" points="795.5,-19 743.5,-19 743.5,0 795.5,0 795.5,-19"/>
<text text-anchor="middle" x="769.5" y="-7" font-family="Helvetica,sans-Serif" font-size="10.00">cassert</text>
</a>
</g>
</g>
<!-- Node13&#45;&gt;Node17 -->
<g id="edge19_Node000013_Node000017" class="edge">
<title>Node13&#45;&gt;Node17</title>
<g id="a_edge19_Node000013_Node000017"><a xlink:title=" ">
<path fill="none" stroke="#63b8ff" d="M816.38,-60.37C808.1,-51.55 795.03,-37.66 784.8,-26.77"/>
<polygon fill="#63b8ff" stroke="#63b8ff" points="787.05,-24.06 777.65,-19.17 781.95,-28.85 787.05,-24.06"/>
</a>
</g>
</g>
<!-- Node18&#45;&gt;Node9 -->
<g id="edge21_Node000018_Node000009" class="edge">
<title>Node18&#45;&gt;Node9</title>
<g id="a_edge21_Node000018_Node000009"><a xlink:title=" ">
<path fill="none" stroke="#63b8ff" d="M449.37,-60.37C435.17,-51.04 412.3,-36.01 395.38,-24.88"/>
<polygon fill="#63b8ff" stroke="#63b8ff" points="396.97,-21.74 386.69,-19.17 393.12,-27.58 396.97,-21.74"/>
</a>
</g>
</g>
<!-- Node18&#45;&gt;Node10 -->
<g id="edge22_Node000018_Node000010" class="edge">
<title>Node18&#45;&gt;Node10</title>
<g id="a_edge22_Node000018_Node000010"><a xlink:title=" ">
<path fill="none" stroke="#63b8ff" d="M475.48,-60.37C489.52,-51.04 512.13,-36.01 528.86,-24.88"/>
<polygon fill="#63b8ff" stroke="#63b8ff" points="531.07,-27.62 537.46,-19.17 527.2,-21.79 531.07,-27.62"/>
</a>
</g>
</g>
<!-- Node19&#45;&gt;Node2 -->
<g id="edge24_Node000019_Node000002" class="edge">
<title>Node19&#45;&gt;Node2</title>
<g id="a_edge24_Node000019_Node000002"><a xlink:title=" ">
<path fill="none" stroke="#63b8ff" d="M693.41,-60.49C765.18,-48.73 893.22,-27.75 958.23,-17.1"/>
<polygon fill="#63b8ff" stroke="#63b8ff" points="958.8,-20.55 968.1,-15.48 957.67,-13.64 958.8,-20.55"/>
</a>
</g>
</g>
<!-- Node19&#45;&gt;Node12 -->
<g id="edge25_Node000019_Node000012" class="edge">
<title>Node19&#45;&gt;Node12</title>
<g id="a_edge25_Node000019_Node000012"><a xlink:title=" ">
<path fill="none" stroke="#63b8ff" d="M615.33,-60.49C584.27,-50.4 532.31,-33.51 497.48,-22.19"/>
<polygon fill="#63b8ff" stroke="#63b8ff" points="498.3,-18.78 487.71,-19.02 496.13,-25.44 498.3,-18.78"/>
</a>
</g>
</g>
<!-- Node20&#45;&gt;Node2 -->
<g id="edge29_Node000020_Node000002" class="edge">
<title>Node20&#45;&gt;Node2</title>
<g id="a_edge29_Node000020_Node000002"><a xlink:title=" ">
<path fill="none" stroke="#63b8ff" d="M977.07,-124.36C984.96,-123.17 992.9,-122.03 1000.5,-121 1070.98,-111.47 1271.12,-138.04 1318.5,-85 1327.38,-75.06 1327.25,-65.06 1318.5,-55 1282.71,-13.89 1116.82,-9.55 1039,-9.85"/>
<polygon fill="#63b8ff" stroke="#63b8ff" points="1038.6,-6.35 1028.63,-9.92 1038.65,-13.35 1038.6,-6.35"/>
</a>
</g>
</g>
<!-- Node20&#45;&gt;Node9 -->
<g id="edge27_Node000020_Node000009" class="edge">
<title>Node20&#45;&gt;Node9</title>
<g id="a_edge27_Node000020_Node000009"><a xlink:title=" ">
<path fill="none" stroke="#63b8ff" d="M845.82,-132.55C715.29,-127.11 432.81,-112.3 398.5,-85 381.69,-71.62 376.1,-46.51 374.29,-29.16"/>
<polygon fill="#63b8ff" stroke="#63b8ff" points="377.77,-28.81 373.56,-19.08 370.79,-29.31 377.77,-28.81"/>
</a>
</g>
</g>
<!-- Node20&#45;&gt;Node10 -->
<g id="edge28_Node000020_Node000010" class="edge">
<title>Node20&#45;&gt;Node10</title>
<g id="a_edge28_Node000020_Node000010"><a xlink:title=" ">
<path fill="none" stroke="#63b8ff" d="M851.8,-120.92C822.17,-112.66 786.41,-100.72 756.5,-85 737.14,-74.83 737.11,-64.67 717.5,-55 674.09,-33.6 619.08,-21.5 584.32,-15.48"/>
<polygon fill="#63b8ff" stroke="#63b8ff" points="584.66,-11.98 574.22,-13.8 583.51,-18.89 584.66,-11.98"/>
</a>
</g>
</g>
<!-- Node20&#45;&gt;Node13 -->
<g id="edge30_Node000020_Node000013" class="edge">
<title>Node20&#45;&gt;Node13</title>
<g id="a_edge30_Node000020_Node000013"><a xlink:title=" ">
<path fill="none" stroke="#63b8ff" d="M892.19,-120.8C878.01,-110.37 858.81,-96.24 844.48,-85.69"/>
<polygon fill="#63b8ff" stroke="#63b8ff" points="846.4,-82.76 836.27,-79.66 842.25,-88.4 846.4,-82.76"/>
</a>
</g>
</g>
<!-- Node21 -->
<g id="Node000021" class="node">
<title>Node21</title>
<g id="a_Node000021"><a xlink:href="bitLeftRotate_8hh.html" target="_top" xlink:title=" ">
<polygon fill="white" stroke="#666666" points="1057.5,-85 939.5,-85 939.5,-55 1057.5,-55 1057.5,-85"/>
<text text-anchor="start" x="947.5" y="-73" font-family="Helvetica,sans-Serif" font-size="10.00">utils/ChainHashtable</text>
<text text-anchor="middle" x="998.5" y="-62" font-family="Helvetica,sans-Serif" font-size="10.00">/bitLeftRotate.hh</text>
</a>
</g>
</g>
<!-- Node20&#45;&gt;Node21 -->
<g id="edge31_Node000020_Node000021" class="edge">
<title>Node20&#45;&gt;Node21</title>
<g id="a_edge31_Node000020_Node000021"><a xlink:title=" ">
<path fill="none" stroke="#63b8ff" d="M930.81,-120.8C942.63,-112.1 957.96,-100.82 971.04,-91.2"/>
<polygon fill="#63b8ff" stroke="#63b8ff" points="973.26,-93.91 979.25,-85.16 969.12,-88.27 973.26,-93.91"/>
</a>
</g>
</g>
<!-- Node22 -->
<g id="Node000022" class="node">
<title>Node22</title>
<g id="a_Node000022"><a xlink:href="nextPrime_8hh.html" target="_top" xlink:title=" ">
<polygon fill="white" stroke="#666666" points="1309.5,-79.5 1227.5,-79.5 1227.5,-60.5 1309.5,-60.5 1309.5,-79.5"/>
<text text-anchor="middle" x="1268.5" y="-67.5" font-family="Helvetica,sans-Serif" font-size="10.00">nextPrime.hh</text>
</a>
</g>
</g>
<!-- Node20&#45;&gt;Node22 -->
<g id="edge33_Node000020_Node000022" class="edge">
<title>Node20&#45;&gt;Node22</title>
<g id="a_edge33_Node000020_Node000022"><a xlink:title=" ">
<path fill="none" stroke="#63b8ff" d="M977.1,-124.51C1063.74,-110.62 1206.8,-87.58 1218.5,-85 1222.35,-84.15 1226.35,-83.18 1230.32,-82.16"/>
<polygon fill="#63b8ff" stroke="#63b8ff" points="1231.33,-85.52 1240.08,-79.55 1229.52,-78.75 1231.33,-85.52"/>
</a>
</g>
</g>
<!-- Node23 -->
<g id="Node000023" class="node">
<title>Node23</title>
<g id="a_Node000023"><a xlink:href="genericHashFunction_8hh.html" target="_top" xlink:title=" ">
<polygon fill="white" stroke="#666666" points="1209.5,-79.5 1075.5,-79.5 1075.5,-60.5 1209.5,-60.5 1209.5,-79.5"/>
<text text-anchor="middle" x="1142.5" y="-67.5" font-family="Helvetica,sans-Serif" font-size="10.00">genericHashFunction.hh</text>
</a>
</g>
</g>
<!-- Node20&#45;&gt;Node23 -->
<g id="edge35_Node000020_Node000023" class="edge">
<title>Node20&#45;&gt;Node23</title>
<g id="a_edge35_Node000020_Node000023"><a xlink:title=" ">
<path fill="none" stroke="#63b8ff" d="M962.19,-120.95C1004.13,-109.34 1062.93,-93.05 1101.83,-82.27"/>
<polygon fill="#63b8ff" stroke="#63b8ff" points="1103.06,-85.56 1111.76,-79.52 1101.19,-78.81 1103.06,-85.56"/>
</a>
</g>
</g>
<!-- Node21&#45;&gt;Node2 -->
<g id="edge32_Node000021_Node000002" class="edge">
<title>Node21&#45;&gt;Node2</title>
<g id="a_edge32_Node000021_Node000002"><a xlink:title=" ">
<path fill="none" stroke="#63b8ff" d="M998.5,-54.84C998.5,-47.21 998.5,-37.7 998.5,-29.45"/>
<polygon fill="#63b8ff" stroke="#63b8ff" points="1002,-29.27 998.5,-19.27 995,-29.27 1002,-29.27"/>
</a>
</g>
</g>
<!-- Node22&#45;&gt;Node2 -->
<g id="edge34_Node000022_Node000002" class="edge">
<title>Node22&#45;&gt;Node2</title>
<g id="a_edge34_Node000022_Node000002"><a xlink:title=" ">
<path fill="none" stroke="#63b8ff" d="M1239.51,-60.49C1232.65,-58.59 1225.34,-56.65 1218.5,-55 1156.07,-39.97 1082.85,-25.85 1038.61,-17.7"/>
<polygon fill="#63b8ff" stroke="#63b8ff" points="1039.01,-14.21 1028.54,-15.85 1037.75,-21.1 1039.01,-14.21"/>
</a>
</g>
</g>
<!-- Node24&#45;&gt;Node4 -->
<g id="edge38_Node000024_Node000004" class="edge">
<title>Node24&#45;&gt;Node4</title>
<g id="a_edge38_Node000024_Node000004"><a xlink:title=" ">
<path fill="none" stroke="#63b8ff" d="M1092.02,-186.87C1081.01,-177.8 1063.46,-163.34 1050.09,-152.32"/>
<polygon fill="#63b8ff" stroke="#63b8ff" points="1051.96,-149.33 1042.02,-145.67 1047.51,-154.73 1051.96,-149.33"/>
</a>
</g>
</g>
<!-- Node25 -->
<g id="Node000025" class="node">
<title>Node25</title>
<g id="a_Node000025"><a xlink:title=" ">
<polygon fill="#e0e0e0" stroke="#999999" points="1126,-145.5 1079,-145.5 1079,-126.5 1126,-126.5 1126,-145.5"/>
<text text-anchor="middle" x="1102.5" y="-133.5" font-family="Helvetica,sans-Serif" font-size="10.00">cmath</text>
</a>
</g>
</g>
<!-- Node24&#45;&gt;Node25 -->
<g id="edge39_Node000024_Node000025" class="edge">
<title>Node24&#45;&gt;Node25</title>
<g id="a_edge39_Node000024_Node000025"><a xlink:title=" ">
<path fill="none" stroke="#63b8ff" d="M1102.5,-186.87C1102.5,-178.75 1102.5,-166.31 1102.5,-155.89"/>
<polygon fill="#63b8ff" stroke="#63b8ff" points="1106,-155.67 1102.5,-145.67 1099,-155.67 1106,-155.67"/>
</a>
</g>
</g>
</g>
</svg>
