<?xml version="1.0" encoding="UTF-8" standalone="no"?>
<!DOCTYPE svg PUBLIC "-//W3C//DTD SVG 1.1//EN"
 "http://www.w3.org/Graphics/SVG/1.1/DTD/svg11.dtd">
<!-- Generated by graphviz version 2.43.0 (0)
 -->
<!-- Title: neighbors Pages: 1 -->
<svg width="524pt" height="113pt"
 viewBox="0.00 0.00 524.00 113.00" xmlns="http://www.w3.org/2000/svg" xmlns:xlink="http://www.w3.org/1999/xlink">
<g id="graph0" class="graph" transform="scale(1 1) rotate(0) translate(4 109)">
<title>neighbors</title>
<!-- Node1 -->
<g id="Node000001" class="node">
<title>Node1</title>
<g id="a_Node000001"><a xlink:title=" ">
<polygon fill="#999999" stroke="#666666" points="516,-62 451,-62 451,-43 516,-43 516,-62"/>
<text text-anchor="middle" x="483.5" y="-50" font-family="Helvetica,sans-Serif" font-size="10.00">neighbors</text>
</a>
</g>
</g>
<!-- Node2 -->
<g id="Node000002" class="node">
<title>Node2</title>
<g id="a_Node000002"><a xlink:href="FindNeighboursWithQual_8cc.html#a517c5941a291f7638e647c2598e62590" target="_top" xlink:title=" ">
<polygon fill="white" stroke="#666666" points="364.5,-105 323.5,-105 323.5,-86 364.5,-86 364.5,-105"/>
<text text-anchor="middle" x="344" y="-93" font-family="Helvetica,sans-Serif" font-size="10.00">main</text>
</a>
</g>
</g>
<!-- Node1&#45;&gt;Node2 -->
<g id="edge1_Node000001_Node000002" class="edge">
<title>Node1&#45;&gt;Node2</title>
<g id="a_edge1_Node000001_Node000002"><a xlink:title=" ">
<path fill="none" stroke="#63b8ff" d="M447.44,-65.54C437.05,-69.25 425.61,-73.18 415,-76.5 398.18,-81.77 378.82,-86.95 364.73,-90.58"/>
<polygon fill="#63b8ff" stroke="#63b8ff" points="448.8,-68.77 457.01,-62.08 446.42,-62.19 448.8,-68.77"/>
</a>
</g>
</g>
<!-- Node3 -->
<g id="Node000003" class="node">
<title>Node3</title>
<g id="a_Node000003"><a xlink:href="classcbrc_1_1MatrixGraph.html#a08fc7b448a92b0529bd10bd08539de30" target="_top" xlink:title=" ">
<polygon fill="white" stroke="#666666" points="400,-67.5 288,-67.5 288,-37.5 400,-37.5 400,-67.5"/>
<text text-anchor="start" x="296" y="-55.5" font-family="Helvetica,sans-Serif" font-size="10.00">cbrc::MatrixGraph::</text>
<text text-anchor="middle" x="344" y="-44.5" font-family="Helvetica,sans-Serif" font-size="10.00">printAdjacencyLists</text>
</a>
</g>
</g>
<!-- Node1&#45;&gt;Node3 -->
<g id="edge2_Node000001_Node000003" class="edge">
<title>Node1&#45;&gt;Node3</title>
<g id="a_edge2_Node000001_Node000003"><a xlink:title=" ">
<path fill="none" stroke="#63b8ff" d="M440.63,-52.5C427.86,-52.5 413.64,-52.5 400.14,-52.5"/>
<polygon fill="#63b8ff" stroke="#63b8ff" points="440.95,-56 450.95,-52.5 440.95,-49 440.95,-56"/>
</a>
</g>
</g>
<!-- Node4 -->
<g id="Node000004" class="node">
<title>Node4</title>
<g id="a_Node000004"><a xlink:href="namespacecbrc.html#ac970e24981618eb9ff0de30da638b09e" target="_top" xlink:title=" ">
<polygon fill="white" stroke="#666666" points="415,-19 273,-19 273,0 415,0 415,-19"/>
<text text-anchor="middle" x="344" y="-7" font-family="Helvetica,sans-Serif" font-size="10.00">cbrc::printCloseNeighbors</text>
</a>
</g>
</g>
<!-- Node1&#45;&gt;Node4 -->
<g id="edge3_Node000001_Node000004" class="edge">
<title>Node1&#45;&gt;Node4</title>
<g id="a_edge3_Node000001_Node000004"><a xlink:title=" ">
<path fill="none" stroke="#63b8ff" d="M447.44,-39.46C437.05,-35.75 425.61,-31.82 415,-28.5 404.42,-25.19 392.85,-21.91 382.21,-19.03"/>
<polygon fill="#63b8ff" stroke="#63b8ff" points="446.42,-42.81 457.01,-42.92 448.8,-36.23 446.42,-42.81"/>
</a>
</g>
</g>
<!-- Node5 -->
<g id="Node000005" class="node">
<title>Node5</title>
<g id="a_Node000005"><a xlink:href="namespacecbrc.html#a3740c6485edcd60ebafc11e06184000b" target="_top" xlink:title=" ">
<polygon fill="white" stroke="#666666" points="237,-19 77,-19 77,0 237,0 237,-19"/>
<text text-anchor="middle" x="157" y="-7" font-family="Helvetica,sans-Serif" font-size="10.00">cbrc::adjacentCloseHamming</text>
</a>
</g>
</g>
<!-- Node4&#45;&gt;Node5 -->
<g id="edge4_Node000004_Node000005" class="edge">
<title>Node4&#45;&gt;Node5</title>
<g id="a_edge4_Node000004_Node000005"><a xlink:title=" ">
<path fill="none" stroke="#63b8ff" d="M262.58,-9.5C254.14,-9.5 245.56,-9.5 237.13,-9.5"/>
<polygon fill="#63b8ff" stroke="#63b8ff" points="262.8,-13 272.8,-9.5 262.8,-6 262.8,-13"/>
</a>
</g>
</g>
<!-- Node6 -->
<g id="Node000006" class="node">
<title>Node6</title>
<g id="a_Node000006"><a xlink:href="adjacentCloseHamming_8cc.html#ac0f2228420376f4db7e1274f2b41667c" target="_top" xlink:title=" ">
<polygon fill="white" stroke="#666666" points="41,-19 0,-19 0,0 41,0 41,-19"/>
<text text-anchor="middle" x="20.5" y="-7" font-family="Helvetica,sans-Serif" font-size="10.00">main</text>
</a>
</g>
</g>
<!-- Node5&#45;&gt;Node6 -->
<g id="edge5_Node000005_Node000006" class="edge">
<title>Node5&#45;&gt;Node6</title>
<g id="a_edge5_Node000005_Node000006"><a xlink:title=" ">
<path fill="none" stroke="#63b8ff" d="M66.88,-9.5C57.39,-9.5 48.54,-9.5 41.23,-9.5"/>
<polygon fill="#63b8ff" stroke="#63b8ff" points="66.98,-13 76.98,-9.5 66.98,-6 66.98,-13"/>
</a>
</g>
</g>
</g>
</svg>
