<?xml version="1.0" encoding="UTF-8" standalone="no"?>
<!DOCTYPE svg PUBLIC "-//W3C//DTD SVG 1.1//EN"
 "http://www.w3.org/Graphics/SVG/1.1/DTD/svg11.dtd">
<!-- Generated by graphviz version 2.43.0 (0)
 -->
<!-- Title: main Pages: 1 -->
<svg width="534pt" height="212pt"
 viewBox="0.00 0.00 534.00 212.00" xmlns="http://www.w3.org/2000/svg" xmlns:xlink="http://www.w3.org/1999/xlink">
<g id="graph0" class="graph" transform="scale(1 1) rotate(0) translate(4 208)">
<title>main</title>
<!-- Node1 -->
<g id="Node000001" class="node">
<title>Node1</title>
<g id="a_Node000001"><a xlink:title=" ">
<polygon fill="#999999" stroke="#666666" points="41,-111 0,-111 0,-92 41,-92 41,-111"/>
<text text-anchor="middle" x="20.5" y="-99" font-family="Helvetica,sans-Serif" font-size="10.00">main</text>
</a>
</g>
</g>
<!-- Node2 -->
<g id="Node000002" class="node">
<title>Node2</title>
<g id="a_Node000002"><a xlink:href="Utilities_8cc.html#ab9bb88af1264a25fd39cf392bf03c7cf" target="_top" xlink:title=" ">
<polygon fill="white" stroke="#666666" points="246.5,-204 89.5,-204 89.5,-185 246.5,-185 246.5,-204"/>
<text text-anchor="middle" x="168" y="-192" font-family="Helvetica,sans-Serif" font-size="10.00">GetBaseNameFromFilename</text>
</a>
</g>
</g>
<!-- Node1&#45;&gt;Node2 -->
<g id="edge1_Node000001_Node000002" class="edge">
<title>Node1&#45;&gt;Node2</title>
<g id="a_edge1_Node000001_Node000002"><a xlink:title=" ">
<path fill="none" stroke="#63b8ff" d="M25.73,-111.11C33.41,-127.38 51.29,-160.18 77,-176.5 79.61,-178.15 82.33,-179.66 85.15,-181.03"/>
<polygon fill="#63b8ff" stroke="#63b8ff" points="83.83,-184.28 94.4,-184.98 86.57,-177.84 83.83,-184.28"/>
</a>
</g>
</g>
<!-- Node3 -->
<g id="Node000003" class="node">
<title>Node3</title>
<g id="a_Node000003"><a xlink:href="ematch__src_2utils_2perlish_2getline_8hh.html#aaf07c1bbc2aa081a54bdd66f0e152312" target="_top" xlink:title=" ">
<polygon fill="white" stroke="#666666" points="193,-167 143,-167 143,-148 193,-148 193,-167"/>
<text text-anchor="middle" x="168" y="-155" font-family="Helvetica,sans-Serif" font-size="10.00">getline</text>
</a>
</g>
</g>
<!-- Node1&#45;&gt;Node3 -->
<g id="edge2_Node000001_Node000003" class="edge">
<title>Node1&#45;&gt;Node3</title>
<g id="a_edge2_Node000001_Node000003"><a xlink:title=" ">
<path fill="none" stroke="#63b8ff" d="M32.61,-111.13C43.28,-119.86 60.21,-132.42 77,-139.5 94.63,-146.93 115.52,-151.35 132.74,-153.95"/>
<polygon fill="#63b8ff" stroke="#63b8ff" points="132.54,-157.46 142.92,-155.34 133.49,-150.52 132.54,-157.46"/>
</a>
</g>
</g>
<!-- Node4 -->
<g id="Node000004" class="node">
<title>Node4</title>
<g id="a_Node000004"><a xlink:href="Utilities_8cc.html#affc79188d35e92555ba7ec508730dc54" target="_top" xlink:title=" ">
<polygon fill="white" stroke="#666666" points="245,-130 91,-130 91,-111 245,-111 245,-130"/>
<text text-anchor="middle" x="168" y="-118" font-family="Helvetica,sans-Serif" font-size="10.00">GetPathNameFromFilename</text>
</a>
</g>
</g>
<!-- Node1&#45;&gt;Node4 -->
<g id="edge3_Node000001_Node000004" class="edge">
<title>Node1&#45;&gt;Node4</title>
<g id="a_edge3_Node000001_Node000004"><a xlink:title=" ">
<path fill="none" stroke="#63b8ff" d="M41.12,-104.06C52.62,-105.56 68.01,-107.57 84.08,-109.67"/>
<polygon fill="#63b8ff" stroke="#63b8ff" points="83.77,-113.16 94.14,-110.99 84.68,-106.22 83.77,-113.16"/>
</a>
</g>
</g>
<!-- Node5 -->
<g id="Node000005" class="node">
<title>Node5</title>
<g id="a_Node000005"><a xlink:href="FindNeighboursWithQual_8cc.html#ab67fae432aae2961a9c040f7c2b847dc" target="_top" xlink:title=" ">
<polygon fill="white" stroke="#666666" points="200.5,-93 135.5,-93 135.5,-74 200.5,-74 200.5,-93"/>
<text text-anchor="middle" x="168" y="-81" font-family="Helvetica,sans-Serif" font-size="10.00">neighbors</text>
</a>
</g>
</g>
<!-- Node1&#45;&gt;Node5 -->
<g id="edge4_Node000001_Node000005" class="edge">
<title>Node1&#45;&gt;Node5</title>
<g id="a_edge4_Node000001_Node000005"><a xlink:title=" ">
<path fill="none" stroke="#63b8ff" d="M41.12,-99.07C62.58,-96.42 97.6,-92.09 125.26,-88.66"/>
<polygon fill="#63b8ff" stroke="#63b8ff" points="125.97,-92.1 135.46,-87.4 125.11,-85.16 125.97,-92.1"/>
</a>
</g>
</g>
<!-- Node6 -->
<g id="Node000006" class="node">
<title>Node6</title>
<g id="a_Node000006"><a xlink:href="FindNeighboursWithQual_8cc.html#aeabc9bd8c5ba73a82a985924e4ee9987" target="_top" xlink:title=" ">
<polygon fill="white" stroke="#666666" points="259,-56 77,-56 77,-37 259,-37 259,-56"/>
<text text-anchor="middle" x="168" y="-44" font-family="Helvetica,sans-Serif" font-size="10.00">normalizeQualByMismatches1Tag</text>
</a>
</g>
</g>
<!-- Node1&#45;&gt;Node6 -->
<g id="edge5_Node000001_Node000006" class="edge">
<title>Node1&#45;&gt;Node6</title>
<g id="a_edge5_Node000001_Node000006"><a xlink:title=" ">
<path fill="none" stroke="#63b8ff" d="M33.55,-91.8C44.32,-83.61 60.87,-72.17 77,-65.5 83.25,-62.92 89.89,-60.67 96.62,-58.72"/>
<polygon fill="#63b8ff" stroke="#63b8ff" points="97.77,-62.04 106.52,-56.06 95.96,-55.27 97.77,-62.04"/>
</a>
</g>
</g>
<!-- Node10 -->
<g id="Node000010" class="node">
<title>Node10</title>
<g id="a_Node000010"><a xlink:href="FindNeighboursWithQual_8cc.html#aa866d066373f66977bcd20d1312b5123" target="_top" xlink:title=" ">
<polygon fill="white" stroke="#666666" points="194.5,-19 141.5,-19 141.5,0 194.5,0 194.5,-19"/>
<text text-anchor="middle" x="168" y="-7" font-family="Helvetica,sans-Serif" font-size="10.00">Vec2Str</text>
</a>
</g>
</g>
<!-- Node1&#45;&gt;Node10 -->
<g id="edge9_Node000001_Node000010" class="edge">
<title>Node1&#45;&gt;Node10</title>
<g id="a_edge9_Node000001_Node000010"><a xlink:title=" ">
<path fill="none" stroke="#63b8ff" d="M25.94,-91.92C33.83,-76.04 51.85,-44.43 77,-28.5 92.98,-18.38 113.43,-13.56 130.8,-11.3"/>
<polygon fill="#63b8ff" stroke="#63b8ff" points="131.58,-14.74 141.15,-10.2 130.84,-7.78 131.58,-14.74"/>
</a>
</g>
</g>
<!-- Node7 -->
<g id="Node000007" class="node">
<title>Node7</title>
<g id="a_Node000007"><a xlink:href="FindNeighboursWithQual_8cc.html#a4743c9002d987dbc269d432f45725759" target="_top" xlink:title=" ">
<polygon fill="white" stroke="#666666" points="407,-74 295,-74 295,-55 407,-55 407,-74"/>
<text text-anchor="middle" x="351" y="-62" font-family="Helvetica,sans-Serif" font-size="10.00">MismatchPosByVec</text>
</a>
</g>
</g>
<!-- Node6&#45;&gt;Node7 -->
<g id="edge6_Node000006_Node000007" class="edge">
<title>Node6&#45;&gt;Node7</title>
<g id="a_edge6_Node000006_Node000007"><a xlink:title=" ">
<path fill="none" stroke="#63b8ff" d="M259.23,-55.47C267.7,-56.32 276.17,-57.16 284.35,-57.97"/>
<polygon fill="#63b8ff" stroke="#63b8ff" points="284.23,-61.48 294.53,-58.98 284.92,-54.51 284.23,-61.48"/>
</a>
</g>
</g>
<!-- Node8 -->
<g id="Node000008" class="node">
<title>Node8</title>
<g id="a_Node000008"><a xlink:href="FindNeighboursWithQual_8cc.html#a74a433fb876b924e00943d1ad0c490c5" target="_top" xlink:title=" ">
<polygon fill="white" stroke="#666666" points="391,-37 311,-37 311,-18 391,-18 391,-37"/>
<text text-anchor="middle" x="351" y="-25" font-family="Helvetica,sans-Serif" font-size="10.00">MultiplyError</text>
</a>
</g>
</g>
<!-- Node6&#45;&gt;Node8 -->
<g id="edge7_Node000006_Node000008" class="edge">
<title>Node6&#45;&gt;Node8</title>
<g id="a_edge7_Node000006_Node000008"><a xlink:title=" ">
<path fill="none" stroke="#63b8ff" d="M259.23,-37.03C273.49,-35.53 287.75,-34.03 300.61,-32.68"/>
<polygon fill="#63b8ff" stroke="#63b8ff" points="301.01,-36.16 310.59,-31.64 300.28,-29.2 301.01,-36.16"/>
</a>
</g>
</g>
<!-- Node9 -->
<g id="Node000009" class="node">
<title>Node9</title>
<g id="a_Node000009"><a xlink:href="FindNeighboursWithQual_8cc.html#a5cf264cdb54b3b9a6efd1bfd3acb2579" target="_top" xlink:title=" ">
<polygon fill="white" stroke="#666666" points="526,-37 443,-37 443,-18 526,-18 526,-37"/>
<text text-anchor="middle" x="484.5" y="-25" font-family="Helvetica,sans-Serif" font-size="10.00">Solexa2Phred</text>
</a>
</g>
</g>
<!-- Node8&#45;&gt;Node9 -->
<g id="edge8_Node000008_Node000009" class="edge">
<title>Node8&#45;&gt;Node9</title>
<g id="a_edge8_Node000008_Node000009"><a xlink:title=" ">
<path fill="none" stroke="#63b8ff" d="M391.1,-27.5C404.13,-27.5 418.84,-27.5 432.63,-27.5"/>
<polygon fill="#63b8ff" stroke="#63b8ff" points="432.96,-31 442.96,-27.5 432.96,-24 432.96,-31"/>
</a>
</g>
</g>
</g>
</svg>
