<?xml version="1.0" encoding="UTF-8" standalone="no"?>
<!DOCTYPE svg PUBLIC "-//W3C//DTD SVG 1.1//EN"
 "http://www.w3.org/Graphics/SVG/1.1/DTD/svg11.dtd">
<!-- Generated by graphviz version 2.43.0 (0)
 -->
<!-- Title: ematch_src/utils/FLArray/FLArrayByIndexSortingPredicate.hh Pages: 1 -->
<svg width="1069pt" height="258pt"
 viewBox="0.00 0.00 1068.99 258.00" xmlns="http://www.w3.org/2000/svg" xmlns:xlink="http://www.w3.org/1999/xlink">
<g id="graph0" class="graph" transform="scale(1 1) rotate(0) translate(4 254)">
<title>ematch_src/utils/FLArray/FLArrayByIndexSortingPredicate.hh</title>
<!-- Node1 -->
<g id="Node000001" class="node">
<title>Node1</title>
<g id="a_Node000001"><a xlink:title=" ">
<polygon fill="#999999" stroke="#666666" points="670,-250 477,-250 477,-220 670,-220 670,-250"/>
<text text-anchor="start" x="485" y="-238" font-family="Helvetica,sans-Serif" font-size="10.00">ematch_src/utils/FLArray</text>
<text text-anchor="middle" x="573.5" y="-227" font-family="Helvetica,sans-Serif" font-size="10.00">/FLArrayByIndexSortingPredicate.hh</text>
</a>
</g>
</g>
<!-- Node2 -->
<g id="Node000002" class="node">
<title>Node2</title>
<g id="a_Node000002"><a xlink:title=" ">
<polygon fill="#e0e0e0" stroke="#999999" points="486,-184 421,-184 421,-165 486,-165 486,-184"/>
<text text-anchor="middle" x="453.5" y="-172" font-family="Helvetica,sans-Serif" font-size="10.00">functional</text>
</a>
</g>
</g>
<!-- Node1&#45;&gt;Node2 -->
<g id="edge1_Node000001_Node000002" class="edge">
<title>Node1&#45;&gt;Node2</title>
<g id="a_edge1_Node000001_Node000002"><a xlink:title=" ">
<path fill="none" stroke="#63b8ff" d="M544.76,-219.99C525.18,-210.45 499.45,-197.9 480.3,-188.57"/>
<polygon fill="#63b8ff" stroke="#63b8ff" points="481.74,-185.38 471.22,-184.14 478.68,-191.67 481.74,-185.38"/>
</a>
</g>
</g>
<!-- Node3 -->
<g id="Node000003" class="node">
<title>Node3</title>
<g id="a_Node000003"><a xlink:href="ematch__src_2utils_2FLArray_2FLEArray_8hh.html" target="_top" xlink:title=" ">
<polygon fill="white" stroke="#666666" points="643,-184 504,-184 504,-165 643,-165 643,-184"/>
<text text-anchor="middle" x="573.5" y="-172" font-family="Helvetica,sans-Serif" font-size="10.00">utils/FLArray/FLEArray.hh</text>
</a>
</g>
</g>
<!-- Node1&#45;&gt;Node3 -->
<g id="edge2_Node000001_Node000003" class="edge">
<title>Node1&#45;&gt;Node3</title>
<g id="a_edge2_Node000001_Node000003"><a xlink:title=" ">
<path fill="none" stroke="#63b8ff" d="M573.5,-219.84C573.5,-212.21 573.5,-202.7 573.5,-194.45"/>
<polygon fill="#63b8ff" stroke="#63b8ff" points="577,-194.27 573.5,-184.27 570,-194.27 577,-194.27"/>
</a>
</g>
</g>
<!-- Node22 -->
<g id="Node000022" class="node">
<title>Node22</title>
<g id="a_Node000022"><a xlink:href="FLArray_8hh.html" target="_top" xlink:title=" ">
<polygon fill="white" stroke="#666666" points="1035.5,-129 901.5,-129 901.5,-110 1035.5,-110 1035.5,-129"/>
<text text-anchor="middle" x="968.5" y="-117" font-family="Helvetica,sans-Serif" font-size="10.00">utils/FLArray/FLArray.hh</text>
</a>
</g>
</g>
<!-- Node1&#45;&gt;Node22 -->
<g id="edge30_Node000001_Node000022" class="edge">
<title>Node1&#45;&gt;Node22</title>
<g id="a_edge30_Node000001_Node000022"><a xlink:title=" ">
<path fill="none" stroke="#63b8ff" d="M622.33,-219.97C701.48,-197.23 856.25,-152.75 928.97,-131.86"/>
<polygon fill="#63b8ff" stroke="#63b8ff" points="930.02,-135.2 938.67,-129.07 928.09,-128.47 930.02,-135.2"/>
</a>
</g>
</g>
<!-- Node4 -->
<g id="Node000004" class="node">
<title>Node4</title>
<g id="a_Node000004"><a xlink:title=" ">
<polygon fill="#e0e0e0" stroke="#999999" points="1024.5,-74 968.5,-74 968.5,-55 1024.5,-55 1024.5,-74"/>
<text text-anchor="middle" x="996.5" y="-62" font-family="Helvetica,sans-Serif" font-size="10.00">assert.h</text>
</a>
</g>
</g>
<!-- Node3&#45;&gt;Node4 -->
<g id="edge3_Node000003_Node000004" class="edge">
<title>Node3&#45;&gt;Node4</title>
<g id="a_edge3_Node000003_Node000004"><a xlink:title=" ">
<path fill="none" stroke="#63b8ff" d="M607.05,-164.94C684.72,-145.1 876.53,-96.13 958.43,-75.22"/>
<polygon fill="#63b8ff" stroke="#63b8ff" points="959.5,-78.56 968.32,-72.69 957.77,-71.78 959.5,-78.56"/>
</a>
</g>
</g>
<!-- Node5 -->
<g id="Node000005" class="node">
<title>Node5</title>
<g id="a_Node000005"><a xlink:title=" ">
<polygon fill="#e0e0e0" stroke="#999999" points="1020,-19 973,-19 973,0 1020,0 1020,-19"/>
<text text-anchor="middle" x="996.5" y="-7" font-family="Helvetica,sans-Serif" font-size="10.00">vector</text>
</a>
</g>
</g>
<!-- Node3&#45;&gt;Node5 -->
<g id="edge4_Node000003_Node000005" class="edge">
<title>Node3&#45;&gt;Node5</title>
<g id="a_edge4_Node000003_Node000005"><a xlink:title=" ">
<path fill="none" stroke="#63b8ff" d="M643.33,-171.74C767.61,-167.91 1016.78,-156.82 1044.5,-129 1067.77,-105.65 1063.43,-84.88 1049.5,-55 1043.67,-42.49 1032.41,-32.25 1021.75,-24.76"/>
<polygon fill="#63b8ff" stroke="#63b8ff" points="1023.38,-21.64 1013.08,-19.13 1019.56,-27.51 1023.38,-21.64"/>
</a>
</g>
</g>
<!-- Node6 -->
<g id="Node000006" class="node">
<title>Node6</title>
<g id="a_Node000006"><a xlink:title=" ">
<polygon fill="#e0e0e0" stroke="#999999" points="332.5,-19 272.5,-19 272.5,0 332.5,0 332.5,-19"/>
<text text-anchor="middle" x="302.5" y="-7" font-family="Helvetica,sans-Serif" font-size="10.00">iostream</text>
</a>
</g>
</g>
<!-- Node3&#45;&gt;Node6 -->
<g id="edge5_Node000003_Node000006" class="edge">
<title>Node3&#45;&gt;Node6</title>
<g id="a_edge5_Node000003_Node000006"><a xlink:title=" ">
<path fill="none" stroke="#63b8ff" d="M508.78,-164.97C452.46,-156.78 375.72,-143.53 348.5,-129 318,-112.72 306.73,-105.94 293.5,-74 287.51,-59.53 290.81,-41.8 295.01,-28.75"/>
<polygon fill="#63b8ff" stroke="#63b8ff" points="298.41,-29.66 298.56,-19.07 291.83,-27.25 298.41,-29.66"/>
</a>
</g>
</g>
<!-- Node7 -->
<g id="Node000007" class="node">
<title>Node7</title>
<g id="a_Node000007"><a xlink:title=" ">
<polygon fill="#e0e0e0" stroke="#999999" points="421.5,-129 357.5,-129 357.5,-110 421.5,-110 421.5,-129"/>
<text text-anchor="middle" x="389.5" y="-117" font-family="Helvetica,sans-Serif" font-size="10.00">algorithm</text>
</a>
</g>
</g>
<!-- Node3&#45;&gt;Node7 -->
<g id="edge6_Node000003_Node000007" class="edge">
<title>Node3&#45;&gt;Node7</title>
<g id="a_edge6_Node000003_Node000007"><a xlink:title=" ">
<path fill="none" stroke="#63b8ff" d="M543.94,-164.98C512.78,-156.01 463.53,-141.82 429.04,-131.89"/>
<polygon fill="#63b8ff" stroke="#63b8ff" points="429.87,-128.49 419.29,-129.08 427.93,-135.21 429.87,-128.49"/>
</a>
</g>
</g>
<!-- Node8 -->
<g id="Node000008" class="node">
<title>Node8</title>
<g id="a_Node000008"><a xlink:title=" ">
<polygon fill="#e0e0e0" stroke="#999999" points="565,-129 440,-129 440,-110 565,-110 565,-129"/>
<text text-anchor="middle" x="502.5" y="-117" font-family="Helvetica,sans-Serif" font-size="10.00">boost/lexical_cast.hpp</text>
</a>
</g>
</g>
<!-- Node3&#45;&gt;Node8 -->
<g id="edge7_Node000003_Node000008" class="edge">
<title>Node3&#45;&gt;Node8</title>
<g id="a_edge7_Node000003_Node000008"><a xlink:title=" ">
<path fill="none" stroke="#63b8ff" d="M562.09,-164.98C551.39,-157 535.16,-144.88 522.34,-135.31"/>
<polygon fill="#63b8ff" stroke="#63b8ff" points="524.22,-132.35 514.11,-129.17 520.03,-137.96 524.22,-132.35"/>
</a>
</g>
</g>
<!-- Node9 -->
<g id="Node000009" class="node">
<title>Node9</title>
<g id="a_Node000009"><a xlink:href="ematch__src_2utils_2gdb_2gdbUtils_8hh.html" target="_top" xlink:title=" ">
<polygon fill="white" stroke="#666666" points="220,-74 103,-74 103,-55 220,-55 220,-74"/>
<text text-anchor="middle" x="161.5" y="-62" font-family="Helvetica,sans-Serif" font-size="10.00">utils/gdb/gdbUtils.hh</text>
</a>
</g>
</g>
<!-- Node3&#45;&gt;Node9 -->
<g id="edge8_Node000003_Node000009" class="edge">
<title>Node3&#45;&gt;Node9</title>
<g id="a_edge8_Node000003_Node000009"><a xlink:title=" ">
<path fill="none" stroke="#63b8ff" d="M503.63,-165.37C407.97,-154.09 246.63,-134.46 234.5,-129 210.69,-118.27 188.87,-97.15 175.41,-82.22"/>
<polygon fill="#63b8ff" stroke="#63b8ff" points="177.7,-79.52 168.5,-74.27 172.42,-84.11 177.7,-79.52"/>
</a>
</g>
</g>
<!-- Node14 -->
<g id="Node000014" class="node">
<title>Node14</title>
<g id="a_Node000014"><a xlink:href="ematch__src_2utils_2perlish_2perlish_8hh.html" target="_top" xlink:title=" ">
<polygon fill="white" stroke="#666666" points="708,-129 583,-129 583,-110 708,-110 708,-129"/>
<text text-anchor="middle" x="645.5" y="-117" font-family="Helvetica,sans-Serif" font-size="10.00">utils/perlish/perlish.hh</text>
</a>
</g>
</g>
<!-- Node3&#45;&gt;Node14 -->
<g id="edge14_Node000003_Node000014" class="edge">
<title>Node3&#45;&gt;Node14</title>
<g id="a_edge14_Node000003_Node000014"><a xlink:title=" ">
<path fill="none" stroke="#63b8ff" d="M585.07,-164.98C595.92,-157 612.38,-144.88 625.38,-135.31"/>
<polygon fill="#63b8ff" stroke="#63b8ff" points="627.74,-137.92 633.72,-129.17 623.59,-132.28 627.74,-137.92"/>
</a>
</g>
</g>
<!-- Node9&#45;&gt;Node6 -->
<g id="edge10_Node000009_Node000006" class="edge">
<title>Node9&#45;&gt;Node6</title>
<g id="a_edge10_Node000009_Node000006"><a xlink:title=" ">
<path fill="none" stroke="#63b8ff" d="M184.15,-54.98C207.35,-46.27 243.62,-32.63 269.9,-22.75"/>
<polygon fill="#63b8ff" stroke="#63b8ff" points="271.3,-25.97 279.43,-19.17 268.84,-19.41 271.3,-25.97"/>
</a>
</g>
</g>
<!-- Node10 -->
<g id="Node000010" class="node">
<title>Node10</title>
<g id="a_Node000010"><a xlink:title=" ">
<polygon fill="#e0e0e0" stroke="#999999" points="53,-19 0,-19 0,0 53,0 53,-19"/>
<text text-anchor="middle" x="26.5" y="-7" font-family="Helvetica,sans-Serif" font-size="10.00">cstdarg</text>
</a>
</g>
</g>
<!-- Node9&#45;&gt;Node10 -->
<g id="edge9_Node000009_Node000010" class="edge">
<title>Node9&#45;&gt;Node10</title>
<g id="a_edge9_Node000009_Node000010"><a xlink:title=" ">
<path fill="none" stroke="#63b8ff" d="M139.81,-54.98C117.7,-46.3 83.18,-32.75 58.05,-22.88"/>
<polygon fill="#63b8ff" stroke="#63b8ff" points="59.17,-19.57 48.58,-19.17 56.61,-26.08 59.17,-19.57"/>
</a>
</g>
</g>
<!-- Node11 -->
<g id="Node000011" class="node">
<title>Node11</title>
<g id="a_Node000011"><a xlink:title=" ">
<polygon fill="#e0e0e0" stroke="#999999" points="120,-19 71,-19 71,0 120,0 120,-19"/>
<text text-anchor="middle" x="95.5" y="-7" font-family="Helvetica,sans-Serif" font-size="10.00">cstdlib</text>
</a>
</g>
</g>
<!-- Node9&#45;&gt;Node11 -->
<g id="edge11_Node000009_Node000011" class="edge">
<title>Node9&#45;&gt;Node11</title>
<g id="a_edge11_Node000009_Node000011"><a xlink:title=" ">
<path fill="none" stroke="#63b8ff" d="M150.9,-54.98C141.04,-47.07 126.15,-35.11 114.28,-25.58"/>
<polygon fill="#63b8ff" stroke="#63b8ff" points="116.29,-22.7 106.3,-19.17 111.9,-28.16 116.29,-22.7"/>
</a>
</g>
</g>
<!-- Node12 -->
<g id="Node000012" class="node">
<title>Node12</title>
<g id="a_Node000012"><a xlink:title=" ">
<polygon fill="#e0e0e0" stroke="#999999" points="184.5,-19 138.5,-19 138.5,0 184.5,0 184.5,-19"/>
<text text-anchor="middle" x="161.5" y="-7" font-family="Helvetica,sans-Serif" font-size="10.00">cstdio</text>
</a>
</g>
</g>
<!-- Node9&#45;&gt;Node12 -->
<g id="edge12_Node000009_Node000012" class="edge">
<title>Node9&#45;&gt;Node12</title>
<g id="a_edge12_Node000009_Node000012"><a xlink:title=" ">
<path fill="none" stroke="#63b8ff" d="M161.5,-54.75C161.5,-47.8 161.5,-37.85 161.5,-29.13"/>
<polygon fill="#63b8ff" stroke="#63b8ff" points="165,-29.09 161.5,-19.09 158,-29.09 165,-29.09"/>
</a>
</g>
</g>
<!-- Node13 -->
<g id="Node000013" class="node">
<title>Node13</title>
<g id="a_Node000013"><a xlink:title=" ">
<polygon fill="#e0e0e0" stroke="#999999" points="254.5,-19 202.5,-19 202.5,0 254.5,0 254.5,-19"/>
<text text-anchor="middle" x="228.5" y="-7" font-family="Helvetica,sans-Serif" font-size="10.00">cassert</text>
</a>
</g>
</g>
<!-- Node9&#45;&gt;Node13 -->
<g id="edge13_Node000009_Node000013" class="edge">
<title>Node9&#45;&gt;Node13</title>
<g id="a_edge13_Node000009_Node000013"><a xlink:title=" ">
<path fill="none" stroke="#63b8ff" d="M172.26,-54.98C182.27,-47.07 197.39,-35.11 209.43,-25.58"/>
<polygon fill="#63b8ff" stroke="#63b8ff" points="211.87,-28.12 217.54,-19.17 207.53,-22.63 211.87,-28.12"/>
</a>
</g>
</g>
<!-- Node14&#45;&gt;Node4 -->
<g id="edge21_Node000014_Node000004" class="edge">
<title>Node14&#45;&gt;Node4</title>
<g id="a_edge21_Node000014_Node000004"><a xlink:title=" ">
<path fill="none" stroke="#63b8ff" d="M708.1,-110.54C770.64,-102.34 869.45,-88.72 954.5,-74 955.6,-73.81 956.71,-73.61 957.84,-73.41"/>
<polygon fill="#63b8ff" stroke="#63b8ff" points="958.9,-76.77 968.07,-71.48 957.6,-69.89 958.9,-76.77"/>
</a>
</g>
</g>
<!-- Node14&#45;&gt;Node5 -->
<g id="edge20_Node000014_Node000005" class="edge">
<title>Node14&#45;&gt;Node5</title>
<g id="a_edge20_Node000014_Node000005"><a xlink:title=" ">
<path fill="none" stroke="#63b8ff" d="M708.01,-117.9C765.83,-115.19 852.94,-105.55 921.5,-74 945.82,-62.81 968.51,-41.47 982.43,-26.64"/>
<polygon fill="#63b8ff" stroke="#63b8ff" points="985.08,-28.93 989.21,-19.17 979.9,-24.22 985.08,-28.93"/>
</a>
</g>
</g>
<!-- Node14&#45;&gt;Node6 -->
<g id="edge16_Node000014_Node000006" class="edge">
<title>Node14&#45;&gt;Node6</title>
<g id="a_edge16_Node000014_Node000006"><a xlink:title=" ">
<path fill="none" stroke="#63b8ff" d="M582.88,-110.81C485.31,-98.76 307.84,-76.54 305.5,-74 294.65,-62.21 295.14,-43.37 297.6,-29.27"/>
<polygon fill="#63b8ff" stroke="#63b8ff" points="301.08,-29.72 299.82,-19.2 294.25,-28.21 301.08,-29.72"/>
</a>
</g>
</g>
<!-- Node14&#45;&gt;Node9 -->
<g id="edge23_Node000014_Node000009" class="edge">
<title>Node14&#45;&gt;Node9</title>
<g id="a_edge23_Node000014_Node000009"><a xlink:title=" ">
<path fill="none" stroke="#63b8ff" d="M582.68,-111.05C579.57,-110.69 576.5,-110.34 573.5,-110 452.84,-96.36 312.2,-81.36 230.37,-72.73"/>
<polygon fill="#63b8ff" stroke="#63b8ff" points="230.51,-69.22 220.2,-71.65 229.77,-76.18 230.51,-69.22"/>
</a>
</g>
</g>
<!-- Node15 -->
<g id="Node000015" class="node">
<title>Node15</title>
<g id="a_Node000015"><a xlink:title=" ">
<polygon fill="#e0e0e0" stroke="#999999" points="746,-74 693,-74 693,-55 746,-55 746,-74"/>
<text text-anchor="middle" x="719.5" y="-62" font-family="Helvetica,sans-Serif" font-size="10.00">ctype.h</text>
</a>
</g>
</g>
<!-- Node14&#45;&gt;Node15 -->
<g id="edge15_Node000014_Node000015" class="edge">
<title>Node14&#45;&gt;Node15</title>
<g id="a_edge15_Node000014_Node000015"><a xlink:title=" ">
<path fill="none" stroke="#63b8ff" d="M657.39,-109.98C668.65,-101.92 685.79,-89.65 699.21,-80.03"/>
<polygon fill="#63b8ff" stroke="#63b8ff" points="701.3,-82.84 707.39,-74.17 697.23,-77.15 701.3,-82.84"/>
</a>
</g>
</g>
<!-- Node16 -->
<g id="Node000016" class="node">
<title>Node16</title>
<g id="a_Node000016"><a xlink:title=" ">
<polygon fill="#e0e0e0" stroke="#999999" points="370,-74 315,-74 315,-55 370,-55 370,-74"/>
<text text-anchor="middle" x="342.5" y="-62" font-family="Helvetica,sans-Serif" font-size="10.00">fstream</text>
</a>
</g>
</g>
<!-- Node14&#45;&gt;Node16 -->
<g id="edge17_Node000014_Node000016" class="edge">
<title>Node14&#45;&gt;Node16</title>
<g id="a_edge17_Node000014_Node000016"><a xlink:title=" ">
<path fill="none" stroke="#63b8ff" d="M588.5,-109.98C536.73,-102.01 458.04,-89.33 380.31,-74.06"/>
<polygon fill="#63b8ff" stroke="#63b8ff" points="380.83,-70.59 370.34,-72.08 379.47,-77.46 380.83,-70.59"/>
</a>
</g>
</g>
<!-- Node17 -->
<g id="Node000017" class="node">
<title>Node17</title>
<g id="a_Node000017"><a xlink:title=" ">
<polygon fill="#e0e0e0" stroke="#999999" points="444.5,-74 388.5,-74 388.5,-55 444.5,-55 444.5,-74"/>
<text text-anchor="middle" x="416.5" y="-62" font-family="Helvetica,sans-Serif" font-size="10.00">sstream</text>
</a>
</g>
</g>
<!-- Node14&#45;&gt;Node17 -->
<g id="edge18_Node000014_Node000017" class="edge">
<title>Node14&#45;&gt;Node17</title>
<g id="a_edge18_Node000014_Node000017"><a xlink:title=" ">
<path fill="none" stroke="#63b8ff" d="M608.71,-109.98C566.34,-100.18 497.08,-84.15 454.29,-74.25"/>
<polygon fill="#63b8ff" stroke="#63b8ff" points="455.07,-70.83 444.54,-71.99 453.49,-77.65 455.07,-70.83"/>
</a>
</g>
</g>
<!-- Node18 -->
<g id="Node000018" class="node">
<title>Node18</title>
<g id="a_Node000018"><a xlink:title=" ">
<polygon fill="#e0e0e0" stroke="#999999" points="722.5,-19 678.5,-19 678.5,0 722.5,0 722.5,-19"/>
<text text-anchor="middle" x="700.5" y="-7" font-family="Helvetica,sans-Serif" font-size="10.00">string</text>
</a>
</g>
</g>
<!-- Node14&#45;&gt;Node18 -->
<g id="edge19_Node000014_Node000018" class="edge">
<title>Node14&#45;&gt;Node18</title>
<g id="a_edge19_Node000014_Node000018"><a xlink:title=" ">
<path fill="none" stroke="#63b8ff" d="M650,-109.66C659.03,-91.93 679.5,-51.73 691.43,-28.32"/>
<polygon fill="#63b8ff" stroke="#63b8ff" points="694.67,-29.66 696.09,-19.16 688.43,-26.48 694.67,-29.66"/>
</a>
</g>
</g>
<!-- Node19 -->
<g id="Node000019" class="node">
<title>Node19</title>
<g id="a_Node000019"><a xlink:title=" ">
<polygon fill="#e0e0e0" stroke="#999999" points="637,-19 542,-19 542,0 637,0 637,-19"/>
<text text-anchor="middle" x="589.5" y="-7" font-family="Helvetica,sans-Serif" font-size="10.00">boost/regex.hpp</text>
</a>
</g>
</g>
<!-- Node14&#45;&gt;Node19 -->
<g id="edge22_Node000014_Node000019" class="edge">
<title>Node14&#45;&gt;Node19</title>
<g id="a_edge22_Node000014_Node000019"><a xlink:title=" ">
<path fill="none" stroke="#63b8ff" d="M640.92,-109.66C631.72,-91.93 610.88,-51.73 598.74,-28.32"/>
<polygon fill="#63b8ff" stroke="#63b8ff" points="601.7,-26.42 593.99,-19.16 595.49,-29.65 601.7,-26.42"/>
</a>
</g>
</g>
<!-- Node20 -->
<g id="Node000020" class="node">
<title>Node20</title>
<g id="a_Node000020"><a xlink:href="ematch__src_2utils_2stl_2stlTypes_8hh.html" target="_top" xlink:title=" ">
<polygon fill="white" stroke="#666666" points="912.5,-74 802.5,-74 802.5,-55 912.5,-55 912.5,-74"/>
<text text-anchor="middle" x="857.5" y="-62" font-family="Helvetica,sans-Serif" font-size="10.00">utils/stl/stlTypes.hh</text>
</a>
</g>
</g>
<!-- Node14&#45;&gt;Node20 -->
<g id="edge24_Node000014_Node000020" class="edge">
<title>Node14&#45;&gt;Node20</title>
<g id="a_edge24_Node000014_Node000020"><a xlink:title=" ">
<path fill="none" stroke="#63b8ff" d="M679.56,-109.98C715.92,-100.89 773.67,-86.46 813.47,-76.51"/>
<polygon fill="#63b8ff" stroke="#63b8ff" points="814.32,-79.9 823.17,-74.08 812.62,-73.11 814.32,-79.9"/>
</a>
</g>
</g>
<!-- Node21 -->
<g id="Node000021" class="node">
<title>Node21</title>
<g id="a_Node000021"><a xlink:href="ematch__src_2utils_2boost_2boostUtils_8hh.html" target="_top" xlink:title=" ">
<polygon fill="white" stroke="#666666" points="598,-74 463,-74 463,-55 598,-55 598,-74"/>
<text text-anchor="middle" x="530.5" y="-62" font-family="Helvetica,sans-Serif" font-size="10.00">utils/boost/boostUtils.hh</text>
</a>
</g>
</g>
<!-- Node14&#45;&gt;Node21 -->
<g id="edge27_Node000014_Node000021" class="edge">
<title>Node14&#45;&gt;Node21</title>
<g id="a_edge27_Node000014_Node000021"><a xlink:title=" ">
<path fill="none" stroke="#63b8ff" d="M627.02,-109.98C608.52,-101.46 579.82,-88.23 558.52,-78.41"/>
<polygon fill="#63b8ff" stroke="#63b8ff" points="559.86,-75.18 549.31,-74.17 556.93,-81.53 559.86,-75.18"/>
</a>
</g>
</g>
<!-- Node20&#45;&gt;Node5 -->
<g id="edge26_Node000020_Node000005" class="edge">
<title>Node20&#45;&gt;Node5</title>
<g id="a_edge26_Node000020_Node000005"><a xlink:title=" ">
<path fill="none" stroke="#63b8ff" d="M879.83,-54.98C902.7,-46.27 938.46,-32.63 964.36,-22.75"/>
<polygon fill="#63b8ff" stroke="#63b8ff" points="965.66,-26 973.76,-19.17 963.17,-19.46 965.66,-26"/>
</a>
</g>
</g>
<!-- Node20&#45;&gt;Node18 -->
<g id="edge25_Node000020_Node000018" class="edge">
<title>Node20&#45;&gt;Node18</title>
<g id="a_edge25_Node000020_Node000018"><a xlink:title=" ">
<path fill="none" stroke="#63b8ff" d="M832.28,-54.98C805.14,-45.82 761.91,-31.23 732.43,-21.28"/>
<polygon fill="#63b8ff" stroke="#63b8ff" points="733.21,-17.85 722.62,-17.97 730.97,-24.48 733.21,-17.85"/>
</a>
</g>
</g>
<!-- Node21&#45;&gt;Node6 -->
<g id="edge28_Node000021_Node000006" class="edge">
<title>Node21&#45;&gt;Node6</title>
<g id="a_edge28_Node000021_Node000006"><a xlink:title=" ">
<path fill="none" stroke="#63b8ff" d="M493.87,-54.98C452.5,-45.37 385.39,-29.77 342.63,-19.83"/>
<polygon fill="#63b8ff" stroke="#63b8ff" points="343.37,-16.41 332.84,-17.55 341.79,-23.23 343.37,-16.41"/>
</a>
</g>
</g>
<!-- Node21&#45;&gt;Node19 -->
<g id="edge29_Node000021_Node000019" class="edge">
<title>Node21&#45;&gt;Node19</title>
<g id="a_edge29_Node000021_Node000019"><a xlink:title=" ">
<path fill="none" stroke="#63b8ff" d="M539.98,-54.98C548.7,-47.15 561.84,-35.34 572.4,-25.86"/>
<polygon fill="#63b8ff" stroke="#63b8ff" points="574.75,-28.46 579.85,-19.17 570.07,-23.25 574.75,-28.46"/>
</a>
</g>
</g>
<!-- Node22&#45;&gt;Node4 -->
<g id="edge31_Node000022_Node000004" class="edge">
<title>Node22&#45;&gt;Node4</title>
<g id="a_edge31_Node000022_Node000004"><a xlink:title=" ">
<path fill="none" stroke="#63b8ff" d="M973.12,-109.75C976.96,-102.49 982.52,-91.95 987.26,-82.98"/>
<polygon fill="#63b8ff" stroke="#63b8ff" points="990.39,-84.57 991.96,-74.09 984.2,-81.3 990.39,-84.57"/>
</a>
</g>
</g>
<!-- Node22&#45;&gt;Node5 -->
<g id="edge32_Node000022_Node000005" class="edge">
<title>Node22&#45;&gt;Node5</title>
<g id="a_edge32_Node000022_Node000005"><a xlink:title=" ">
<path fill="none" stroke="#63b8ff" d="M990.62,-109.95C1005.7,-102.82 1024.51,-91.06 1033.5,-74 1042.26,-57.39 1028.73,-38.9 1015.64,-26.18"/>
<polygon fill="#63b8ff" stroke="#63b8ff" points="1017.91,-23.52 1008.15,-19.41 1013.22,-28.71 1017.91,-23.52"/>
</a>
</g>
</g>
<!-- Node22&#45;&gt;Node6 -->
<g id="edge33_Node000022_Node000006" class="edge">
<title>Node22&#45;&gt;Node6</title>
<g id="a_edge33_Node000022_Node000006"><a xlink:title=" ">
<path fill="none" stroke="#63b8ff" d="M924.6,-109.94C888.75,-102.34 837.06,-89.96 793.5,-74 775.4,-67.37 773.05,-60.25 754.5,-55 677.53,-33.22 438.64,-18.01 342.85,-12.64"/>
<polygon fill="#63b8ff" stroke="#63b8ff" points="342.87,-9.13 332.69,-12.08 342.48,-16.12 342.87,-9.13"/>
</a>
</g>
</g>
</g>
</svg>
