<?xml version="1.0" encoding="UTF-8" standalone="no"?>
<!DOCTYPE svg PUBLIC "-//W3C//DTD SVG 1.1//EN"
 "http://www.w3.org/Graphics/SVG/1.1/DTD/svg11.dtd">
<!-- Generated by graphviz version 2.43.0 (0)
 -->
<!-- Title: ematch_src/utils/FLArray/FLMatrix.hh Pages: 1 -->
<svg width="250pt" height="148pt"
 viewBox="0.00 0.00 250.00 148.00" xmlns="http://www.w3.org/2000/svg" xmlns:xlink="http://www.w3.org/1999/xlink">
<g id="graph0" class="graph" transform="scale(1 1) rotate(0) translate(4 144)">
<title>ematch_src/utils/FLArray/FLMatrix.hh</title>
<!-- Node1 -->
<g id="Node000001" class="node">
<title>Node1</title>
<g id="a_Node000001"><a xlink:title=" ">
<polygon fill="#999999" stroke="#666666" points="211,-140 73,-140 73,-110 211,-110 211,-140"/>
<text text-anchor="start" x="81" y="-128" font-family="Helvetica,sans-Serif" font-size="10.00">ematch_src/utils/FLArray</text>
<text text-anchor="middle" x="142" y="-117" font-family="Helvetica,sans-Serif" font-size="10.00">/FLMatrix.hh</text>
</a>
</g>
</g>
<!-- Node2 -->
<g id="Node000002" class="node">
<title>Node2</title>
<g id="a_Node000002"><a xlink:title=" ">
<polygon fill="#e0e0e0" stroke="#999999" points="56,-19 0,-19 0,0 56,0 56,-19"/>
<text text-anchor="middle" x="28" y="-7" font-family="Helvetica,sans-Serif" font-size="10.00">assert.h</text>
</a>
</g>
</g>
<!-- Node1&#45;&gt;Node2 -->
<g id="edge1_Node000001_Node000002" class="edge">
<title>Node1&#45;&gt;Node2</title>
<g id="a_edge1_Node000001_Node000002"><a xlink:title=" ">
<path fill="none" stroke="#63b8ff" d="M72.72,-111.45C51.95,-104.1 31.42,-92.45 19,-74 9.98,-60.6 14.07,-42 19.31,-28.4"/>
<polygon fill="#63b8ff" stroke="#63b8ff" points="22.56,-29.7 23.34,-19.14 16.14,-26.91 22.56,-29.7"/>
</a>
</g>
</g>
<!-- Node3 -->
<g id="Node000003" class="node">
<title>Node3</title>
<g id="a_Node000003"><a xlink:title=" ">
<polygon fill="#e0e0e0" stroke="#999999" points="133.5,-19 86.5,-19 86.5,0 133.5,0 133.5,-19"/>
<text text-anchor="middle" x="110" y="-7" font-family="Helvetica,sans-Serif" font-size="10.00">vector</text>
</a>
</g>
</g>
<!-- Node1&#45;&gt;Node3 -->
<g id="edge2_Node000001_Node000003" class="edge">
<title>Node1&#45;&gt;Node3</title>
<g id="a_edge2_Node000001_Node000003"><a xlink:title=" ">
<path fill="none" stroke="#63b8ff" d="M155.15,-109.99C166.74,-95.85 180.42,-73.53 171,-55 164.23,-41.68 151.4,-31.41 139.25,-24.1"/>
<polygon fill="#63b8ff" stroke="#63b8ff" points="140.64,-20.87 130.2,-19.09 137.25,-26.99 140.64,-20.87"/>
</a>
</g>
</g>
<!-- Node4 -->
<g id="Node000004" class="node">
<title>Node4</title>
<g id="a_Node000004"><a xlink:title=" ">
<polygon fill="#e0e0e0" stroke="#999999" points="242,-19 182,-19 182,0 242,0 242,-19"/>
<text text-anchor="middle" x="212" y="-7" font-family="Helvetica,sans-Serif" font-size="10.00">iostream</text>
</a>
</g>
</g>
<!-- Node1&#45;&gt;Node4 -->
<g id="edge3_Node000001_Node000004" class="edge">
<title>Node1&#45;&gt;Node4</title>
<g id="a_edge3_Node000001_Node000004"><a xlink:title=" ">
<path fill="none" stroke="#63b8ff" d="M156.89,-109.73C166.16,-100.25 177.83,-87.17 186,-74 194.83,-59.76 201.8,-42.01 206.3,-28.89"/>
<polygon fill="#63b8ff" stroke="#63b8ff" points="209.7,-29.74 209.47,-19.15 203.05,-27.57 209.7,-29.74"/>
</a>
</g>
</g>
<!-- Node5 -->
<g id="Node000005" class="node">
<title>Node5</title>
<g id="a_Node000005"><a xlink:href="FLArray_8hh.html" target="_top" xlink:title=" ">
<polygon fill="white" stroke="#666666" points="162,-74 28,-74 28,-55 162,-55 162,-74"/>
<text text-anchor="middle" x="95" y="-62" font-family="Helvetica,sans-Serif" font-size="10.00">utils/FLArray/FLArray.hh</text>
</a>
</g>
</g>
<!-- Node1&#45;&gt;Node5 -->
<g id="edge4_Node000001_Node000005" class="edge">
<title>Node1&#45;&gt;Node5</title>
<g id="a_edge4_Node000001_Node000005"><a xlink:title=" ">
<path fill="none" stroke="#63b8ff" d="M130.62,-109.84C123.94,-101.52 115.45,-90.96 108.44,-82.23"/>
<polygon fill="#63b8ff" stroke="#63b8ff" points="111.03,-79.87 102.04,-74.27 105.58,-84.25 111.03,-79.87"/>
</a>
</g>
</g>
<!-- Node5&#45;&gt;Node2 -->
<g id="edge5_Node000005_Node000002" class="edge">
<title>Node5&#45;&gt;Node2</title>
<g id="a_edge5_Node000005_Node000002"><a xlink:title=" ">
<path fill="none" stroke="#63b8ff" d="M84.24,-54.98C74.23,-47.07 59.11,-35.11 47.07,-25.58"/>
<polygon fill="#63b8ff" stroke="#63b8ff" points="48.97,-22.63 38.96,-19.17 44.63,-28.12 48.97,-22.63"/>
</a>
</g>
</g>
<!-- Node5&#45;&gt;Node3 -->
<g id="edge6_Node000005_Node000003" class="edge">
<title>Node5&#45;&gt;Node3</title>
<g id="a_edge6_Node000005_Node000003"><a xlink:title=" ">
<path fill="none" stroke="#63b8ff" d="M97.48,-54.75C99.46,-47.72 102.32,-37.62 104.81,-28.84"/>
<polygon fill="#63b8ff" stroke="#63b8ff" points="108.21,-29.66 107.57,-19.09 101.48,-27.76 108.21,-29.66"/>
</a>
</g>
</g>
<!-- Node5&#45;&gt;Node4 -->
<g id="edge7_Node000005_Node000004" class="edge">
<title>Node5&#45;&gt;Node4</title>
<g id="a_edge7_Node000005_Node000004"><a xlink:title=" ">
<path fill="none" stroke="#63b8ff" d="M113.8,-54.98C132.62,-46.46 161.82,-33.23 183.5,-23.41"/>
<polygon fill="#63b8ff" stroke="#63b8ff" points="185.2,-26.48 192.86,-19.17 182.31,-20.11 185.2,-26.48"/>
</a>
</g>
</g>
</g>
</svg>
