<?xml version="1.0" encoding="UTF-8" standalone="no"?>
<!DOCTYPE svg PUBLIC "-//W3C//DTD SVG 1.1//EN"
 "http://www.w3.org/Graphics/SVG/1.1/DTD/svg11.dtd">
<!-- Generated by graphviz version 2.43.0 (0)
 -->
<!-- Title: ematch_src/utils/FLArray/FLSortedFunctions.hh Pages: 1 -->
<!--zoomable 203 -->

<svg id="main" version="1.1" xmlns="http://www.w3.org/2000/svg" xmlns:xlink="http://www.w3.org/1999/xlink" xml:space="preserve" onload="init(evt)">
<style type="text/css"><![CDATA[
.node, .edge {opacity: 0.7;}
.node.selected, .edge.selected {opacity: 1;}
.edge:hover path { stroke: red; }
.edge:hover polygon { stroke: red; fill: red; }
]]></style>

<defs>
  <circle id="rim" cx="0" cy="0" r="7"/>
  <circle id="rim2" cx="0" cy="0" r="3.5"/>
  <g id="zoomPlus">
    <use xlink:href="#rim" fill="#404040"><set attributeName="fill" to="#808080" begin="zoomplus.mouseover" end="zoomplus.mouseout"/></use>
    <path d="M-4,0h8M0,-4v8" fill="none" stroke="white" stroke-width="1.5" pointer-events="none"/>
  </g>
  <g id="zoomMin">
    <use xlink:href="#rim" fill="#404040"><set attributeName="fill" to="#808080" begin="zoomminus.mouseover" end="zoomminus.mouseout"/></use>
    <path d="M-4,0h8" fill="none" stroke="white" stroke-width="1.5" pointer-events="none"/>
  </g>
  <g id="arrowUp" transform="translate(30 24)">
    <use xlink:href="#rim"/>
    <path pointer-events="none" fill="none" stroke="white" stroke-width="1.5" d="M0,-3.0v7 M-2.5,-0.5L0,-3.0L2.5,-0.5"/>
  </g>
  <g id="arrowRight" transform="rotate(90) translate(36 -43)">
    <use xlink:href="#rim"/>
    <path pointer-events="none" fill="none" stroke="white" stroke-width="1.5" d="M0,-3.0v7 M-2.5,-0.5L0,-3.0L2.5,-0.5"/>
  </g>
  <g id="arrowDown" transform="rotate(180) translate(-30 -48)">
    <use xlink:href="#rim"/>
    <path pointer-events="none" fill="none" stroke="white" stroke-width="1.5" d="M0,-3.0v7 M-2.5,-0.5L0,-3.0L2.5,-0.5"/>
  </g>
  <g id="arrowLeft" transform="rotate(270) translate(-36 17)">
    <use xlink:href="#rim"/>
    <path pointer-events="none" fill="none" stroke="white" stroke-width="1.5" d="M0,-3.0v7 M-2.5,-0.5L0,-3.0L2.5,-0.5"/>
  </g>
  <g id="resetDef">
    <use xlink:href="#rim2" fill="#404040"><set attributeName="fill" to="#808080" begin="reset.mouseover" end="reset.mouseout"/></use>
  </g>
</defs>
<script type="application/ecmascript">
var viewWidth = 669;
var viewHeight = 203;
var sectionId = 'dynsection-0';
</script>
<script type="application/ecmascript" xlink:href="svg.min.js"/>
<svg id="graph" class="graph">
<g id="viewport">
<title>ematch_src/utils/FLArray/FLSortedFunctions.hh</title>
<!-- Node1 -->
<g id="Node000001" class="node">
<title>Node1</title>
<g id="a_Node000001"><a xlink:title=" ">
<polygon fill="#999999" stroke="#666666" points="316.02,-195 178.02,-195 178.02,-165 316.02,-165 316.02,-195"/>
<text text-anchor="start" x="186.02" y="-183" font-family="Helvetica,sans-Serif" font-size="10.00">ematch_src/utils/FLArray</text>
<text text-anchor="middle" x="247.02" y="-172" font-family="Helvetica,sans-Serif" font-size="10.00">/FLSortedFunctions.hh</text>
</a>
</g>
</g>
<!-- Node2 -->
<g id="Node000002" class="node">
<title>Node2</title>
<g id="a_Node000002"><a xlink:href="FLSorted_8hh.html" target="_top" xlink:title=" ">
<polygon fill="white" stroke="#666666" points="317.02,-129 177.02,-129 177.02,-110 317.02,-110 317.02,-129"/>
<text text-anchor="middle" x="247.02" y="-117" font-family="Helvetica,sans-Serif" font-size="10.00">utils/FLArray/FLSorted.hh</text>
</a>
</g>
</g>
<!-- Node1&#45;&gt;Node2 -->
<g id="edge1_Node000001_Node000002" class="edge">
<title>Node1&#45;&gt;Node2</title>
<g id="a_edge1_Node000001_Node000002"><a xlink:title=" ">
<path fill="none" stroke="#63b8ff" d="M247.02,-164.84C247.02,-157.21 247.02,-147.7 247.02,-139.45"/>
<polygon fill="#63b8ff" stroke="#63b8ff" points="250.52,-139.27 247.02,-129.27 243.52,-139.27 250.52,-139.27"/>
</a>
</g>
</g>
<!-- Node3 -->
<g id="Node000003" class="node">
<title>Node3</title>
<g id="a_Node000003"><a xlink:title=" ">
<polygon fill="#e0e0e0" stroke="#999999" points="105.52,-19 58.52,-19 58.52,0 105.52,0 105.52,-19"/>
<text text-anchor="middle" x="82.02" y="-7" font-family="Helvetica,sans-Serif" font-size="10.00">vector</text>
</a>
</g>
</g>
<!-- Node2&#45;&gt;Node3 -->
<g id="edge2_Node000002_Node000003" class="edge">
<title>Node2&#45;&gt;Node3</title>
<g id="a_edge2_Node000002_Node000003"><a xlink:title=" ">
<path fill="none" stroke="#63b8ff" d="M176.98,-115.31C113.46,-110.77 26.59,-99.89 5.02,-74 -12.44,-53.04 20.7,-33.84 48.81,-22.17"/>
<polygon fill="#63b8ff" stroke="#63b8ff" points="50.43,-25.29 58.44,-18.36 47.86,-18.78 50.43,-25.29"/>
</a>
</g>
</g>
<!-- Node4 -->
<g id="Node000004" class="node">
<title>Node4</title>
<g id="a_Node000004"><a xlink:title=" ">
<polygon fill="#e0e0e0" stroke="#999999" points="78.02,-74 14.02,-74 14.02,-55 78.02,-55 78.02,-74"/>
<text text-anchor="middle" x="46.02" y="-62" font-family="Helvetica,sans-Serif" font-size="10.00">algorithm</text>
</a>
</g>
</g>
<!-- Node2&#45;&gt;Node4 -->
<g id="edge3_Node000002_Node000004" class="edge">
<title>Node2&#45;&gt;Node4</title>
<g id="a_edge3_Node000002_Node000004"><a xlink:title=" ">
<path fill="none" stroke="#63b8ff" d="M214.73,-109.98C180.3,-100.91 125.64,-86.49 87.92,-76.55"/>
<polygon fill="#63b8ff" stroke="#63b8ff" points="88.8,-73.16 78.24,-73.99 87.01,-79.93 88.8,-73.16"/>
</a>
</g>
</g>
<!-- Node5 -->
<g id="Node000005" class="node">
<title>Node5</title>
<g id="a_Node000005"><a xlink:title=" ">
<polygon fill="#e0e0e0" stroke="#999999" points="161.52,-74 96.52,-74 96.52,-55 161.52,-55 161.52,-74"/>
<text text-anchor="middle" x="129.02" y="-62" font-family="Helvetica,sans-Serif" font-size="10.00">stdexcept</text>
</a>
</g>
</g>
<!-- Node2&#45;&gt;Node5 -->
<g id="edge4_Node000002_Node000005" class="edge">
<title>Node2&#45;&gt;Node5</title>
<g id="a_edge4_Node000002_Node000005"><a xlink:title=" ">
<path fill="none" stroke="#63b8ff" d="M228.06,-109.98C208.99,-101.42 179.36,-88.11 157.47,-78.28"/>
<polygon fill="#63b8ff" stroke="#63b8ff" points="158.88,-75.07 148.33,-74.17 156.01,-81.46 158.88,-75.07"/>
</a>
</g>
</g>
<!-- Node6 -->
<g id="Node000006" class="node">
<title>Node6</title>
<g id="a_Node000006"><a xlink:title=" ">
<polygon fill="#e0e0e0" stroke="#999999" points="388.02,-19 328.02,-19 328.02,0 388.02,0 388.02,-19"/>
<text text-anchor="middle" x="358.02" y="-7" font-family="Helvetica,sans-Serif" font-size="10.00">iostream</text>
</a>
</g>
</g>
<!-- Node2&#45;&gt;Node6 -->
<g id="edge5_Node000002_Node000006" class="edge">
<title>Node2&#45;&gt;Node6</title>
<g id="a_edge5_Node000002_Node000006"><a xlink:title=" ">
<path fill="none" stroke="#63b8ff" d="M317.18,-115.52C346.73,-110.35 378.5,-98.82 397.02,-74 408.77,-58.25 392.86,-38.84 377.96,-25.65"/>
<polygon fill="#63b8ff" stroke="#63b8ff" points="379.91,-22.72 369.98,-19.03 375.44,-28.11 379.91,-22.72"/>
</a>
</g>
</g>
<!-- Node7 -->
<g id="Node000007" class="node">
<title>Node7</title>
<g id="a_Node000007"><a xlink:title=" ">
<polygon fill="#e0e0e0" stroke="#999999" points="388.02,-74 332.02,-74 332.02,-55 388.02,-55 388.02,-74"/>
<text text-anchor="middle" x="360.02" y="-62" font-family="Helvetica,sans-Serif" font-size="10.00">sstream</text>
</a>
</g>
</g>
<!-- Node2&#45;&gt;Node7 -->
<g id="edge6_Node000002_Node000007" class="edge">
<title>Node2&#45;&gt;Node7</title>
<g id="a_edge6_Node000002_Node000007"><a xlink:title=" ">
<path fill="none" stroke="#63b8ff" d="M265.18,-109.98C283.27,-101.5 311.31,-88.35 332.21,-78.54"/>
<polygon fill="#63b8ff" stroke="#63b8ff" points="333.97,-81.59 341.54,-74.17 331,-75.25 333.97,-81.59"/>
</a>
</g>
</g>
<!-- Node8 -->
<g id="Node000008" class="node">
<title>Node8</title>
<g id="a_Node000008"><a xlink:href="ematch__src_2utils_2gdb_2gdbUtils_8hh.html" target="_top" xlink:title=" ">
<polygon fill="white" stroke="#666666" points="561.52,-74 444.52,-74 444.52,-55 561.52,-55 561.52,-74"/>
<text text-anchor="middle" x="503.02" y="-62" font-family="Helvetica,sans-Serif" font-size="10.00">utils/gdb/gdbUtils.hh</text>
</a>
</g>
</g>
<!-- Node2&#45;&gt;Node8 -->
<g id="edge7_Node000002_Node000008" class="edge">
<title>Node2&#45;&gt;Node8</title>
<g id="a_edge7_Node000002_Node000008"><a xlink:title=" ">
<path fill="none" stroke="#63b8ff" d="M288.15,-109.98C332.62,-100.78 403.57,-86.09 451.67,-76.13"/>
<polygon fill="#63b8ff" stroke="#63b8ff" points="452.49,-79.54 461.57,-74.08 451.07,-72.68 452.49,-79.54"/>
</a>
</g>
</g>
<!-- Node13 -->
<g id="Node000013" class="node">
<title>Node13</title>
<g id="a_Node000013"><a xlink:href="FLArray_8hh.html" target="_top" xlink:title=" ">
<polygon fill="white" stroke="#666666" points="314.02,-74 180.02,-74 180.02,-55 314.02,-55 314.02,-74"/>
<text text-anchor="middle" x="247.02" y="-62" font-family="Helvetica,sans-Serif" font-size="10.00">utils/FLArray/FLArray.hh</text>
</a>
</g>
</g>
<!-- Node2&#45;&gt;Node13 -->
<g id="edge13_Node000002_Node000013" class="edge">
<title>Node2&#45;&gt;Node13</title>
<g id="a_edge13_Node000002_Node000013"><a xlink:title=" ">
<path fill="none" stroke="#63b8ff" d="M247.02,-109.75C247.02,-102.8 247.02,-92.85 247.02,-84.13"/>
<polygon fill="#63b8ff" stroke="#63b8ff" points="250.52,-84.09 247.02,-74.09 243.52,-84.09 250.52,-84.09"/>
</a>
</g>
</g>
<!-- Node8&#45;&gt;Node6 -->
<g id="edge9_Node000008_Node000006" class="edge">
<title>Node8&#45;&gt;Node6</title>
<g id="a_edge9_Node000008_Node000006"><a xlink:title=" ">
<path fill="none" stroke="#63b8ff" d="M479.72,-54.98C455.77,-46.23 418.24,-32.51 391.19,-22.62"/>
<polygon fill="#63b8ff" stroke="#63b8ff" points="392.34,-19.32 381.74,-19.17 389.93,-25.89 392.34,-19.32"/>
</a>
</g>
</g>
<!-- Node9 -->
<g id="Node000009" class="node">
<title>Node9</title>
<g id="a_Node000009"><a xlink:title=" ">
<polygon fill="#e0e0e0" stroke="#999999" points="529.52,-19 476.52,-19 476.52,0 529.52,0 529.52,-19"/>
<text text-anchor="middle" x="503.02" y="-7" font-family="Helvetica,sans-Serif" font-size="10.00">cstdarg</text>
</a>
</g>
</g>
<!-- Node8&#45;&gt;Node9 -->
<g id="edge8_Node000008_Node000009" class="edge">
<title>Node8&#45;&gt;Node9</title>
<g id="a_edge8_Node000008_Node000009"><a xlink:title=" ">
<path fill="none" stroke="#63b8ff" d="M503.02,-54.75C503.02,-47.8 503.02,-37.85 503.02,-29.13"/>
<polygon fill="#63b8ff" stroke="#63b8ff" points="506.52,-29.09 503.02,-19.09 499.52,-29.09 506.52,-29.09"/>
</a>
</g>
</g>
<!-- Node10 -->
<g id="Node000010" class="node">
<title>Node10</title>
<g id="a_Node000010"><a xlink:title=" ">
<polygon fill="#e0e0e0" stroke="#999999" points="596.52,-19 547.52,-19 547.52,0 596.52,0 596.52,-19"/>
<text text-anchor="middle" x="572.02" y="-7" font-family="Helvetica,sans-Serif" font-size="10.00">cstdlib</text>
</a>
</g>
</g>
<!-- Node8&#45;&gt;Node10 -->
<g id="edge10_Node000008_Node000010" class="edge">
<title>Node8&#45;&gt;Node10</title>
<g id="a_edge10_Node000008_Node000010"><a xlink:title=" ">
<path fill="none" stroke="#63b8ff" d="M514.11,-54.98C524.51,-47 540.28,-34.88 552.74,-25.31"/>
<polygon fill="#63b8ff" stroke="#63b8ff" points="554.94,-28.04 560.73,-19.17 550.67,-22.49 554.94,-28.04"/>
</a>
</g>
</g>
<!-- Node11 -->
<g id="Node000011" class="node">
<title>Node11</title>
<g id="a_Node000011"><a xlink:title=" ">
<polygon fill="#e0e0e0" stroke="#999999" points="661.02,-19 615.02,-19 615.02,0 661.02,0 661.02,-19"/>
<text text-anchor="middle" x="638.02" y="-7" font-family="Helvetica,sans-Serif" font-size="10.00">cstdio</text>
</a>
</g>
</g>
<!-- Node8&#45;&gt;Node11 -->
<g id="edge11_Node000008_Node000011" class="edge">
<title>Node8&#45;&gt;Node11</title>
<g id="a_edge11_Node000008_Node000011"><a xlink:title=" ">
<path fill="none" stroke="#63b8ff" d="M524.71,-54.98C546.82,-46.3 581.34,-32.75 606.48,-22.88"/>
<polygon fill="#63b8ff" stroke="#63b8ff" points="607.91,-26.08 615.94,-19.17 605.35,-19.57 607.91,-26.08"/>
</a>
</g>
</g>
<!-- Node12 -->
<g id="Node000012" class="node">
<title>Node12</title>
<g id="a_Node000012"><a xlink:title=" ">
<polygon fill="#e0e0e0" stroke="#999999" points="458.02,-19 406.02,-19 406.02,0 458.02,0 458.02,-19"/>
<text text-anchor="middle" x="432.02" y="-7" font-family="Helvetica,sans-Serif" font-size="10.00">cassert</text>
</a>
</g>
</g>
<!-- Node8&#45;&gt;Node12 -->
<g id="edge12_Node000008_Node000012" class="edge">
<title>Node8&#45;&gt;Node12</title>
<g id="a_edge12_Node000008_Node000012"><a xlink:title=" ">
<path fill="none" stroke="#63b8ff" d="M491.61,-54.98C480.91,-47 464.68,-34.88 451.86,-25.31"/>
<polygon fill="#63b8ff" stroke="#63b8ff" points="453.74,-22.35 443.64,-19.17 449.56,-27.96 453.74,-22.35"/>
</a>
</g>
</g>
<!-- Node13&#45;&gt;Node3 -->
<g id="edge15_Node000013_Node000003" class="edge">
<title>Node13&#45;&gt;Node3</title>
<g id="a_edge15_Node000013_Node000003"><a xlink:title=" ">
<path fill="none" stroke="#63b8ff" d="M220.51,-54.98C191.95,-45.81 146.43,-31.19 115.44,-21.23"/>
<polygon fill="#63b8ff" stroke="#63b8ff" points="116.12,-17.78 105.53,-18.05 113.98,-24.44 116.12,-17.78"/>
</a>
</g>
</g>
<!-- Node13&#45;&gt;Node6 -->
<g id="edge16_Node000013_Node000006" class="edge">
<title>Node13&#45;&gt;Node6</title>
<g id="a_edge16_Node000013_Node000006"><a xlink:title=" ">
<path fill="none" stroke="#63b8ff" d="M264.86,-54.98C282.63,-46.5 310.17,-33.35 330.7,-23.54"/>
<polygon fill="#63b8ff" stroke="#63b8ff" points="332.35,-26.64 339.86,-19.17 329.33,-20.32 332.35,-26.64"/>
</a>
</g>
</g>
<!-- Node14 -->
<g id="Node000014" class="node">
<title>Node14</title>
<g id="a_Node000014"><a xlink:title=" ">
<polygon fill="#e0e0e0" stroke="#999999" points="275.02,-19 219.02,-19 219.02,0 275.02,0 275.02,-19"/>
<text text-anchor="middle" x="247.02" y="-7" font-family="Helvetica,sans-Serif" font-size="10.00">assert.h</text>
</a>
</g>
</g>
<!-- Node13&#45;&gt;Node14 -->
<g id="edge14_Node000013_Node000014" class="edge">
<title>Node13&#45;&gt;Node14</title>
<g id="a_edge14_Node000013_Node000014"><a xlink:title=" ">
<path fill="none" stroke="#63b8ff" d="M247.02,-54.75C247.02,-47.8 247.02,-37.85 247.02,-29.13"/>
<polygon fill="#63b8ff" stroke="#63b8ff" points="250.52,-29.09 247.02,-19.09 243.52,-29.09 250.52,-29.09"/>
</a>
</g>
</g>
</g>
</svg>

<g id="navigator" transform="translate(0 0)" fill="#404254">
  <rect fill="#f2f5e9" fill-opacity="0.5" stroke="#606060" stroke-width=".5" x="0" y="0" width="60" height="60"/>
  <use id="zoomplus" xlink:href="#zoomPlus" x="17" y="9" onmousedown="handleZoom(evt,'in')"/>
  <use id="zoomminus" xlink:href="#zoomMin" x="42" y="9" onmousedown="handleZoom(evt,'out')"/>
  <use id="reset" xlink:href="#resetDef" x="30" y="36" onmousedown="handleReset()"/>
   <use id="arrowup" xlink:href="#arrowUp" x="0" y="0" onmousedown="handlePan(0,-1)"/>
  <use id="arrowright" xlink:href="#arrowRight" x="0" y="0" onmousedown="handlePan(1,0)"/>
  <use id="arrowdown" xlink:href="#arrowDown" x="0" y="0" onmousedown="handlePan(0,1)"/>
  <use id="arrowleft" xlink:href="#arrowLeft" x="0" y="0" onmousedown="handlePan(-1,0)"/>
</g>
<svg viewBox="0 0 15 15" width="100%" height="30px" preserveAspectRatio="xMaxYMin meet">
 <g id="arrow_out" transform="scale(0.3 0.3)">
  <a xlink:href="FLSortedFunctions_8hh__incl_org.svg" target="_base">
   <rect id="button" ry="5" rx="5" y="6" x="6" height="38" width="38"
        fill="#f2f5e9" fill-opacity="0.5" stroke="#606060" stroke-width="1.0"/>
   <path id="arrow"
     d="M 11.500037,31.436501 C 11.940474,20.09759 22.043105,11.32322 32.158766,21.979434 L 37.068811,17.246167 C 37.068811,17.246167 37.088388,32 37.088388,32 L 22.160133,31.978069 C 22.160133,31.978069 26.997745,27.140456 26.997745,27.140456 C 18.528582,18.264221 13.291696,25.230495 11.500037,31.436501 z"
     style="fill:#404040;"/>
  </a>
 </g>
</svg>

<style type='text/css'>
<![CDATA[
[data-mouse-over-selected='false'] { opacity: 0.7; }
[data-mouse-over-selected='true']  { opacity: 1.0; }
]]>
</style>
<script type="application/ecmascript"><![CDATA[
document.addEventListener('DOMContentLoaded', (event) => {
  highlightEdges();
  highlightAdjacentNodes();
});
]]></script>
</svg>
