<?xml version="1.0" encoding="UTF-8" standalone="no"?>
<!DOCTYPE svg PUBLIC "-//W3C//DTD SVG 1.1//EN"
 "http://www.w3.org/Graphics/SVG/1.1/DTD/svg11.dtd">
<!-- Generated by graphviz version 2.43.0 (0)
 -->
<!-- Title: ematch_src/utils/FLArray/FLSorted2TypePairSet.hh Pages: 1 -->
<svg width="1248pt" height="203pt"
 viewBox="0.00 0.00 1248.00 203.00" xmlns="http://www.w3.org/2000/svg" xmlns:xlink="http://www.w3.org/1999/xlink">
<g id="graph0" class="graph" transform="scale(1 1) rotate(0) translate(4 199)">
<title>ematch_src/utils/FLArray/FLSorted2TypePairSet.hh</title>
<!-- Node1 -->
<g id="Node000001" class="node">
<title>Node1</title>
<g id="a_Node000001"><a xlink:title=" ">
<polygon fill="#999999" stroke="#666666" points="742.5,-195 602.5,-195 602.5,-165 742.5,-165 742.5,-195"/>
<text text-anchor="start" x="610.5" y="-183" font-family="Helvetica,sans-Serif" font-size="10.00">ematch_src/utils/FLArray</text>
<text text-anchor="middle" x="672.5" y="-172" font-family="Helvetica,sans-Serif" font-size="10.00">/FLSorted2TypePairSet.hh</text>
</a>
</g>
</g>
<!-- Node2 -->
<g id="Node000002" class="node">
<title>Node2</title>
<g id="a_Node000002"><a xlink:title=" ">
<polygon fill="#e0e0e0" stroke="#999999" points="55,-74 0,-74 0,-55 55,-55 55,-74"/>
<text text-anchor="middle" x="27.5" y="-62" font-family="Helvetica,sans-Serif" font-size="10.00">fstream</text>
</a>
</g>
</g>
<!-- Node1&#45;&gt;Node2 -->
<g id="edge1_Node000001_Node000002" class="edge">
<title>Node1&#45;&gt;Node2</title>
<g id="a_edge1_Node000001_Node000002"><a xlink:title=" ">
<path fill="none" stroke="#63b8ff" d="M602.25,-170.17C532.38,-161.07 422.24,-145.87 327.5,-129 232.52,-112.08 121.68,-87.3 65.03,-74.26"/>
<polygon fill="#63b8ff" stroke="#63b8ff" points="65.63,-70.81 55.09,-71.97 64.05,-77.63 65.63,-70.81"/>
</a>
</g>
</g>
<!-- Node3 -->
<g id="Node000003" class="node">
<title>Node3</title>
<g id="a_Node000003"><a xlink:title=" ">
<polygon fill="#e0e0e0" stroke="#999999" points="888.5,-19 828.5,-19 828.5,0 888.5,0 888.5,-19"/>
<text text-anchor="middle" x="858.5" y="-7" font-family="Helvetica,sans-Serif" font-size="10.00">iostream</text>
</a>
</g>
</g>
<!-- Node1&#45;&gt;Node3 -->
<g id="edge2_Node000001_Node000003" class="edge">
<title>Node1&#45;&gt;Node3</title>
<g id="a_edge2_Node000001_Node000003"><a xlink:title=" ">
<path fill="none" stroke="#63b8ff" d="M699.05,-164.99C731.05,-147.14 785.03,-113.76 821.5,-74 834.01,-60.36 844.22,-41.8 850.72,-28.26"/>
<polygon fill="#63b8ff" stroke="#63b8ff" points="853.96,-29.61 854.95,-19.06 847.59,-26.69 853.96,-29.61"/>
</a>
</g>
</g>
<!-- Node4 -->
<g id="Node000004" class="node">
<title>Node4</title>
<g id="a_Node000004"><a xlink:href="ematch__src_2utils_2perlish_2perlish_8hh.html" target="_top" xlink:title=" ">
<polygon fill="white" stroke="#666666" points="461,-129 336,-129 336,-110 461,-110 461,-129"/>
<text text-anchor="middle" x="398.5" y="-117" font-family="Helvetica,sans-Serif" font-size="10.00">utils/perlish/perlish.hh</text>
</a>
</g>
</g>
<!-- Node1&#45;&gt;Node4 -->
<g id="edge3_Node000001_Node000004" class="edge">
<title>Node1&#45;&gt;Node4</title>
<g id="a_edge3_Node000001_Node000004"><a xlink:title=" ">
<path fill="none" stroke="#63b8ff" d="M606.87,-164.99C558.25,-154.61 493,-140.68 448.55,-131.19"/>
<polygon fill="#63b8ff" stroke="#63b8ff" points="449.07,-127.72 438.56,-129.05 447.61,-134.56 449.07,-127.72"/>
</a>
</g>
</g>
<!-- Node18 -->
<g id="Node000018" class="node">
<title>Node18</title>
<g id="a_Node000018"><a xlink:href="FLSorted_8hh.html" target="_top" xlink:title=" ">
<polygon fill="white" stroke="#666666" points="1058.5,-129 918.5,-129 918.5,-110 1058.5,-110 1058.5,-129"/>
<text text-anchor="middle" x="988.5" y="-117" font-family="Helvetica,sans-Serif" font-size="10.00">utils/FLArray/FLSorted.hh</text>
</a>
</g>
</g>
<!-- Node1&#45;&gt;Node18 -->
<g id="edge24_Node000001_Node000018" class="edge">
<title>Node1&#45;&gt;Node18</title>
<g id="a_edge24_Node000001_Node000018"><a xlink:title=" ">
<path fill="none" stroke="#63b8ff" d="M742.63,-166.02C799.86,-155.42 879.63,-140.66 932.61,-130.85"/>
<polygon fill="#63b8ff" stroke="#63b8ff" points="933.31,-134.28 942.5,-129.02 932.03,-127.39 933.31,-134.28"/>
</a>
</g>
</g>
<!-- Node4&#45;&gt;Node2 -->
<g id="edge6_Node000004_Node000002" class="edge">
<title>Node4&#45;&gt;Node2</title>
<g id="a_edge6_Node000004_Node000002"><a xlink:title=" ">
<path fill="none" stroke="#63b8ff" d="M335.86,-111.26C269.53,-103.31 161.86,-89.57 69.5,-74 68.03,-73.75 66.54,-73.49 65.03,-73.22"/>
<polygon fill="#63b8ff" stroke="#63b8ff" points="65.49,-69.75 55.01,-71.34 64.19,-76.63 65.49,-69.75"/>
</a>
</g>
</g>
<!-- Node4&#45;&gt;Node3 -->
<g id="edge5_Node000004_Node000003" class="edge">
<title>Node4&#45;&gt;Node3</title>
<g id="a_edge5_Node000004_Node000003"><a xlink:title=" ">
<path fill="none" stroke="#63b8ff" d="M461.02,-116.53C557.61,-112.65 737.98,-101.82 795.5,-74 817.03,-63.59 835.46,-42.71 846.73,-27.74"/>
<polygon fill="#63b8ff" stroke="#63b8ff" points="849.78,-29.49 852.78,-19.33 844.1,-25.4 849.78,-29.49"/>
</a>
</g>
</g>
<!-- Node5 -->
<g id="Node000005" class="node">
<title>Node5</title>
<g id="a_Node000005"><a xlink:title=" ">
<polygon fill="#e0e0e0" stroke="#999999" points="369,-74 316,-74 316,-55 369,-55 369,-74"/>
<text text-anchor="middle" x="342.5" y="-62" font-family="Helvetica,sans-Serif" font-size="10.00">ctype.h</text>
</a>
</g>
</g>
<!-- Node4&#45;&gt;Node5 -->
<g id="edge4_Node000004_Node000005" class="edge">
<title>Node4&#45;&gt;Node5</title>
<g id="a_edge4_Node000004_Node000005"><a xlink:title=" ">
<path fill="none" stroke="#63b8ff" d="M389.5,-109.98C381.31,-102.23 368.99,-90.58 359.03,-81.14"/>
<polygon fill="#63b8ff" stroke="#63b8ff" points="361.33,-78.5 351.66,-74.17 356.52,-83.59 361.33,-78.5"/>
</a>
</g>
</g>
<!-- Node6 -->
<g id="Node000006" class="node">
<title>Node6</title>
<g id="a_Node000006"><a xlink:title=" ">
<polygon fill="#e0e0e0" stroke="#999999" points="634.5,-74 578.5,-74 578.5,-55 634.5,-55 634.5,-74"/>
<text text-anchor="middle" x="606.5" y="-62" font-family="Helvetica,sans-Serif" font-size="10.00">sstream</text>
</a>
</g>
</g>
<!-- Node4&#45;&gt;Node6 -->
<g id="edge7_Node000004_Node000006" class="edge">
<title>Node4&#45;&gt;Node6</title>
<g id="a_edge7_Node000004_Node000006"><a xlink:title=" ">
<path fill="none" stroke="#63b8ff" d="M431.92,-109.98C469.24,-100.48 529.51,-85.12 568.57,-75.17"/>
<polygon fill="#63b8ff" stroke="#63b8ff" points="569.67,-78.5 578.5,-72.63 567.94,-71.71 569.67,-78.5"/>
</a>
</g>
</g>
<!-- Node7 -->
<g id="Node000007" class="node">
<title>Node7</title>
<g id="a_Node000007"><a xlink:title=" ">
<polygon fill="#e0e0e0" stroke="#999999" points="168.5,-19 124.5,-19 124.5,0 168.5,0 168.5,-19"/>
<text text-anchor="middle" x="146.5" y="-7" font-family="Helvetica,sans-Serif" font-size="10.00">string</text>
</a>
</g>
</g>
<!-- Node4&#45;&gt;Node7 -->
<g id="edge8_Node000004_Node000007" class="edge">
<title>Node4&#45;&gt;Node7</title>
<g id="a_edge8_Node000004_Node000007"><a xlink:title=" ">
<path fill="none" stroke="#63b8ff" d="M335.92,-117.12C265.13,-114.09 156.31,-104.45 130.5,-74 119.63,-61.18 126.66,-41.98 134.53,-28.05"/>
<polygon fill="#63b8ff" stroke="#63b8ff" points="137.61,-29.74 139.91,-19.39 131.66,-26.04 137.61,-29.74"/>
</a>
</g>
</g>
<!-- Node8 -->
<g id="Node000008" class="node">
<title>Node8</title>
<g id="a_Node000008"><a xlink:title=" ">
<polygon fill="#e0e0e0" stroke="#999999" points="658,-19 611,-19 611,0 658,0 658,-19"/>
<text text-anchor="middle" x="634.5" y="-7" font-family="Helvetica,sans-Serif" font-size="10.00">vector</text>
</a>
</g>
</g>
<!-- Node4&#45;&gt;Node8 -->
<g id="edge9_Node000004_Node000008" class="edge">
<title>Node4&#45;&gt;Node8</title>
<g id="a_edge9_Node000004_Node000008"><a xlink:title=" ">
<path fill="none" stroke="#63b8ff" d="M430.74,-109.97C458.18,-102.18 498.31,-89.53 531.5,-74 561.69,-59.87 594.03,-38.86 614.26,-24.92"/>
<polygon fill="#63b8ff" stroke="#63b8ff" points="616.45,-27.66 622.64,-19.07 612.44,-21.92 616.45,-27.66"/>
</a>
</g>
</g>
<!-- Node9 -->
<g id="Node000009" class="node">
<title>Node9</title>
<g id="a_Node000009"><a xlink:title=" ">
<polygon fill="#e0e0e0" stroke="#999999" points="372.5,-19 316.5,-19 316.5,0 372.5,0 372.5,-19"/>
<text text-anchor="middle" x="344.5" y="-7" font-family="Helvetica,sans-Serif" font-size="10.00">assert.h</text>
</a>
</g>
</g>
<!-- Node4&#45;&gt;Node9 -->
<g id="edge10_Node000004_Node000009" class="edge">
<title>Node4&#45;&gt;Node9</title>
<g id="a_edge10_Node000004_Node000009"><a xlink:title=" ">
<path fill="none" stroke="#63b8ff" d="M360.08,-109.96C340.76,-103.52 319.05,-92.5 307.5,-74 297.45,-57.89 311.58,-39.06 325.18,-26.11"/>
<polygon fill="#63b8ff" stroke="#63b8ff" points="327.78,-28.48 332.94,-19.23 323.14,-23.24 327.78,-28.48"/>
</a>
</g>
</g>
<!-- Node10 -->
<g id="Node000010" class="node">
<title>Node10</title>
<g id="a_Node000010"><a xlink:title=" ">
<polygon fill="#e0e0e0" stroke="#999999" points="293,-19 198,-19 198,0 293,0 293,-19"/>
<text text-anchor="middle" x="245.5" y="-7" font-family="Helvetica,sans-Serif" font-size="10.00">boost/regex.hpp</text>
</a>
</g>
</g>
<!-- Node4&#45;&gt;Node10 -->
<g id="edge11_Node000004_Node000010" class="edge">
<title>Node4&#45;&gt;Node10</title>
<g id="a_edge11_Node000004_Node000010"><a xlink:title=" ">
<path fill="none" stroke="#63b8ff" d="M335.8,-116.65C267.6,-113.15 164.99,-103.07 140.5,-74 120.05,-49.72 158.97,-32.2 195.08,-21.78"/>
<polygon fill="#63b8ff" stroke="#63b8ff" points="196.42,-25.05 205.14,-19.04 194.57,-18.3 196.42,-25.05"/>
</a>
</g>
</g>
<!-- Node11 -->
<g id="Node000011" class="node">
<title>Node11</title>
<g id="a_Node000011"><a xlink:href="ematch__src_2utils_2gdb_2gdbUtils_8hh.html" target="_top" xlink:title=" ">
<polygon fill="white" stroke="#666666" points="1074,-74 957,-74 957,-55 1074,-55 1074,-74"/>
<text text-anchor="middle" x="1015.5" y="-62" font-family="Helvetica,sans-Serif" font-size="10.00">utils/gdb/gdbUtils.hh</text>
</a>
</g>
</g>
<!-- Node4&#45;&gt;Node11 -->
<g id="edge12_Node000004_Node000011" class="edge">
<title>Node4&#45;&gt;Node11</title>
<g id="a_edge12_Node000004_Node000011"><a xlink:title=" ">
<path fill="none" stroke="#63b8ff" d="M461.06,-113.13C577.3,-103.14 825.76,-81.8 946.63,-71.42"/>
<polygon fill="#63b8ff" stroke="#63b8ff" points="947.2,-74.88 956.86,-70.54 946.6,-67.91 947.2,-74.88"/>
</a>
</g>
</g>
<!-- Node16 -->
<g id="Node000016" class="node">
<title>Node16</title>
<g id="a_Node000016"><a xlink:href="ematch__src_2utils_2stl_2stlTypes_8hh.html" target="_top" xlink:title=" ">
<polygon fill="white" stroke="#666666" points="259.5,-74 149.5,-74 149.5,-55 259.5,-55 259.5,-74"/>
<text text-anchor="middle" x="204.5" y="-62" font-family="Helvetica,sans-Serif" font-size="10.00">utils/stl/stlTypes.hh</text>
</a>
</g>
</g>
<!-- Node4&#45;&gt;Node16 -->
<g id="edge18_Node000004_Node000016" class="edge">
<title>Node4&#45;&gt;Node16</title>
<g id="a_edge18_Node000004_Node000016"><a xlink:title=" ">
<path fill="none" stroke="#63b8ff" d="M367.33,-109.98C334.34,-100.97 282.1,-86.7 245.73,-76.76"/>
<polygon fill="#63b8ff" stroke="#63b8ff" points="246.48,-73.34 235.91,-74.08 244.64,-80.09 246.48,-73.34"/>
</a>
</g>
</g>
<!-- Node17 -->
<g id="Node000017" class="node">
<title>Node17</title>
<g id="a_Node000017"><a xlink:href="ematch__src_2utils_2boost_2boostUtils_8hh.html" target="_top" xlink:title=" ">
<polygon fill="white" stroke="#666666" points="522,-74 387,-74 387,-55 522,-55 522,-74"/>
<text text-anchor="middle" x="454.5" y="-62" font-family="Helvetica,sans-Serif" font-size="10.00">utils/boost/boostUtils.hh</text>
</a>
</g>
</g>
<!-- Node4&#45;&gt;Node17 -->
<g id="edge21_Node000004_Node000017" class="edge">
<title>Node4&#45;&gt;Node17</title>
<g id="a_edge21_Node000004_Node000017"><a xlink:title=" ">
<path fill="none" stroke="#63b8ff" d="M407.5,-109.98C415.69,-102.23 428.01,-90.58 437.97,-81.14"/>
<polygon fill="#63b8ff" stroke="#63b8ff" points="440.48,-83.59 445.34,-74.17 435.67,-78.5 440.48,-83.59"/>
</a>
</g>
</g>
<!-- Node11&#45;&gt;Node3 -->
<g id="edge14_Node000011_Node000003" class="edge">
<title>Node11&#45;&gt;Node3</title>
<g id="a_edge14_Node000011_Node000003"><a xlink:title=" ">
<path fill="none" stroke="#63b8ff" d="M990.28,-54.98C964.14,-46.16 923.1,-32.31 893.77,-22.41"/>
<polygon fill="#63b8ff" stroke="#63b8ff" points="894.52,-18.96 883.92,-19.08 892.28,-25.6 894.52,-18.96"/>
</a>
</g>
</g>
<!-- Node12 -->
<g id="Node000012" class="node">
<title>Node12</title>
<g id="a_Node000012"><a xlink:title=" ">
<polygon fill="#e0e0e0" stroke="#999999" points="1174,-19 1121,-19 1121,0 1174,0 1174,-19"/>
<text text-anchor="middle" x="1147.5" y="-7" font-family="Helvetica,sans-Serif" font-size="10.00">cstdarg</text>
</a>
</g>
</g>
<!-- Node11&#45;&gt;Node12 -->
<g id="edge13_Node000011_Node000012" class="edge">
<title>Node11&#45;&gt;Node12</title>
<g id="a_edge13_Node000011_Node000012"><a xlink:title=" ">
<path fill="none" stroke="#63b8ff" d="M1036.71,-54.98C1058.23,-46.34 1091.78,-32.87 1116.33,-23.02"/>
<polygon fill="#63b8ff" stroke="#63b8ff" points="1117.93,-26.14 1125.91,-19.17 1115.32,-19.65 1117.93,-26.14"/>
</a>
</g>
</g>
<!-- Node13 -->
<g id="Node000013" class="node">
<title>Node13</title>
<g id="a_Node000013"><a xlink:title=" ">
<polygon fill="#e0e0e0" stroke="#999999" points="968,-19 919,-19 919,0 968,0 968,-19"/>
<text text-anchor="middle" x="943.5" y="-7" font-family="Helvetica,sans-Serif" font-size="10.00">cstdlib</text>
</a>
</g>
</g>
<!-- Node11&#45;&gt;Node13 -->
<g id="edge15_Node000011_Node000013" class="edge">
<title>Node11&#45;&gt;Node13</title>
<g id="a_edge15_Node000011_Node000013"><a xlink:title=" ">
<path fill="none" stroke="#63b8ff" d="M1003.93,-54.98C993.08,-47 976.62,-34.88 963.62,-25.31"/>
<polygon fill="#63b8ff" stroke="#63b8ff" points="965.41,-22.28 955.28,-19.17 961.26,-27.92 965.41,-22.28"/>
</a>
</g>
</g>
<!-- Node14 -->
<g id="Node000014" class="node">
<title>Node14</title>
<g id="a_Node000014"><a xlink:title=" ">
<polygon fill="#e0e0e0" stroke="#999999" points="1032.5,-19 986.5,-19 986.5,0 1032.5,0 1032.5,-19"/>
<text text-anchor="middle" x="1009.5" y="-7" font-family="Helvetica,sans-Serif" font-size="10.00">cstdio</text>
</a>
</g>
</g>
<!-- Node11&#45;&gt;Node14 -->
<g id="edge16_Node000011_Node000014" class="edge">
<title>Node11&#45;&gt;Node14</title>
<g id="a_edge16_Node000011_Node000014"><a xlink:title=" ">
<path fill="none" stroke="#63b8ff" d="M1014.51,-54.75C1013.72,-47.8 1012.6,-37.85 1011.61,-29.13"/>
<polygon fill="#63b8ff" stroke="#63b8ff" points="1015.08,-28.63 1010.47,-19.09 1008.12,-29.42 1015.08,-28.63"/>
</a>
</g>
</g>
<!-- Node15 -->
<g id="Node000015" class="node">
<title>Node15</title>
<g id="a_Node000015"><a xlink:title=" ">
<polygon fill="#e0e0e0" stroke="#999999" points="1102.5,-19 1050.5,-19 1050.5,0 1102.5,0 1102.5,-19"/>
<text text-anchor="middle" x="1076.5" y="-7" font-family="Helvetica,sans-Serif" font-size="10.00">cassert</text>
</a>
</g>
</g>
<!-- Node11&#45;&gt;Node15 -->
<g id="edge17_Node000011_Node000015" class="edge">
<title>Node11&#45;&gt;Node15</title>
<g id="a_edge17_Node000011_Node000015"><a xlink:title=" ">
<path fill="none" stroke="#63b8ff" d="M1025.3,-54.98C1034.32,-47.15 1047.91,-35.34 1058.82,-25.86"/>
<polygon fill="#63b8ff" stroke="#63b8ff" points="1061.27,-28.37 1066.52,-19.17 1056.68,-23.09 1061.27,-28.37"/>
</a>
</g>
</g>
<!-- Node16&#45;&gt;Node7 -->
<g id="edge19_Node000016_Node000007" class="edge">
<title>Node16&#45;&gt;Node7</title>
<g id="a_edge19_Node000016_Node000007"><a xlink:title=" ">
<path fill="none" stroke="#63b8ff" d="M195.18,-54.98C186.69,-47.23 173.94,-35.58 163.62,-26.14"/>
<polygon fill="#63b8ff" stroke="#63b8ff" points="165.73,-23.33 155.99,-19.17 161.01,-28.5 165.73,-23.33"/>
</a>
</g>
</g>
<!-- Node16&#45;&gt;Node8 -->
<g id="edge20_Node000016_Node000008" class="edge">
<title>Node16&#45;&gt;Node8</title>
<g id="a_edge20_Node000016_Node000008"><a xlink:title=" ">
<path fill="none" stroke="#63b8ff" d="M259.83,-56.68C350.2,-45.54 526.79,-23.78 600.7,-14.67"/>
<polygon fill="#63b8ff" stroke="#63b8ff" points="601.34,-18.11 610.84,-13.42 600.49,-11.17 601.34,-18.11"/>
</a>
</g>
</g>
<!-- Node17&#45;&gt;Node3 -->
<g id="edge22_Node000017_Node000003" class="edge">
<title>Node17&#45;&gt;Node3</title>
<g id="a_edge22_Node000017_Node000003"><a xlink:title=" ">
<path fill="none" stroke="#63b8ff" d="M519.41,-54.98C603.64,-43.94 748.07,-24.99 818.09,-15.8"/>
<polygon fill="#63b8ff" stroke="#63b8ff" points="818.81,-19.24 828.27,-14.47 817.9,-12.3 818.81,-19.24"/>
</a>
</g>
</g>
<!-- Node17&#45;&gt;Node10 -->
<g id="edge23_Node000017_Node000010" class="edge">
<title>Node17&#45;&gt;Node10</title>
<g id="a_edge23_Node000017_Node000010"><a xlink:title=" ">
<path fill="none" stroke="#63b8ff" d="M420.92,-54.98C385.15,-45.91 328.38,-31.52 289.16,-21.57"/>
<polygon fill="#63b8ff" stroke="#63b8ff" points="289.9,-18.15 279.34,-19.08 288.18,-24.93 289.9,-18.15"/>
</a>
</g>
</g>
<!-- Node18&#45;&gt;Node3 -->
<g id="edge28_Node000018_Node000003" class="edge">
<title>Node18&#45;&gt;Node3</title>
<g id="a_edge28_Node000018_Node000003"><a xlink:title=" ">
<path fill="none" stroke="#63b8ff" d="M977.86,-109.66C955.66,-91.22 904.17,-48.45 876.64,-25.57"/>
<polygon fill="#63b8ff" stroke="#63b8ff" points="878.85,-22.86 868.92,-19.16 874.38,-28.24 878.85,-22.86"/>
</a>
</g>
</g>
<!-- Node18&#45;&gt;Node6 -->
<g id="edge29_Node000018_Node000006" class="edge">
<title>Node18&#45;&gt;Node6</title>
<g id="a_edge29_Node000018_Node000006"><a xlink:title=" ">
<path fill="none" stroke="#63b8ff" d="M918.48,-111.49C850.82,-104.26 745.24,-91.78 644.74,-74.07"/>
<polygon fill="#63b8ff" stroke="#63b8ff" points="645.18,-70.59 634.72,-72.28 643.95,-77.48 645.18,-70.59"/>
</a>
</g>
</g>
<!-- Node18&#45;&gt;Node8 -->
<g id="edge25_Node000018_Node000008" class="edge">
<title>Node18&#45;&gt;Node8</title>
<g id="a_edge25_Node000018_Node000008"><a xlink:title=" ">
<path fill="none" stroke="#63b8ff" d="M963.94,-110C927.39,-97.44 856.44,-73.44 795.5,-55 751.67,-41.74 700.65,-27.91 667.99,-19.25"/>
<polygon fill="#63b8ff" stroke="#63b8ff" points="668.63,-15.8 658.07,-16.63 666.84,-22.57 668.63,-15.8"/>
</a>
</g>
</g>
<!-- Node18&#45;&gt;Node11 -->
<g id="edge30_Node000018_Node000011" class="edge">
<title>Node18&#45;&gt;Node11</title>
<g id="a_edge30_Node000018_Node000011"><a xlink:title=" ">
<path fill="none" stroke="#63b8ff" d="M992.96,-109.75C996.62,-102.57 1001.91,-92.18 1006.45,-83.27"/>
<polygon fill="#63b8ff" stroke="#63b8ff" points="1009.7,-84.59 1011.12,-74.09 1003.47,-81.41 1009.7,-84.59"/>
</a>
</g>
</g>
<!-- Node19 -->
<g id="Node000019" class="node">
<title>Node19</title>
<g id="a_Node000019"><a xlink:title=" ">
<polygon fill="#e0e0e0" stroke="#999999" points="1156.5,-74 1092.5,-74 1092.5,-55 1156.5,-55 1156.5,-74"/>
<text text-anchor="middle" x="1124.5" y="-62" font-family="Helvetica,sans-Serif" font-size="10.00">algorithm</text>
</a>
</g>
</g>
<!-- Node18&#45;&gt;Node19 -->
<g id="edge26_Node000018_Node000019" class="edge">
<title>Node18&#45;&gt;Node19</title>
<g id="a_edge26_Node000018_Node000019"><a xlink:title=" ">
<path fill="none" stroke="#63b8ff" d="M1010.35,-109.98C1032.62,-101.3 1067.4,-87.75 1092.72,-77.88"/>
<polygon fill="#63b8ff" stroke="#63b8ff" points="1094.21,-81.06 1102.25,-74.17 1091.66,-74.54 1094.21,-81.06"/>
</a>
</g>
</g>
<!-- Node20 -->
<g id="Node000020" class="node">
<title>Node20</title>
<g id="a_Node000020"><a xlink:title=" ">
<polygon fill="#e0e0e0" stroke="#999999" points="1240,-74 1175,-74 1175,-55 1240,-55 1240,-74"/>
<text text-anchor="middle" x="1207.5" y="-62" font-family="Helvetica,sans-Serif" font-size="10.00">stdexcept</text>
</a>
</g>
</g>
<!-- Node18&#45;&gt;Node20 -->
<g id="edge27_Node000018_Node000020" class="edge">
<title>Node18&#45;&gt;Node20</title>
<g id="a_edge27_Node000018_Node000020"><a xlink:title=" ">
<path fill="none" stroke="#63b8ff" d="M1023.69,-109.98C1062.22,-100.66 1124.01,-85.71 1165.17,-75.74"/>
<polygon fill="#63b8ff" stroke="#63b8ff" points="1166.01,-79.14 1174.9,-73.39 1164.36,-72.34 1166.01,-79.14"/>
</a>
</g>
</g>
<!-- Node21 -->
<g id="Node000021" class="node">
<title>Node21</title>
<g id="a_Node000021"><a xlink:href="FLArray_8hh.html" target="_top" xlink:title=" ">
<polygon fill="white" stroke="#666666" points="786.5,-74 652.5,-74 652.5,-55 786.5,-55 786.5,-74"/>
<text text-anchor="middle" x="719.5" y="-62" font-family="Helvetica,sans-Serif" font-size="10.00">utils/FLArray/FLArray.hh</text>
</a>
</g>
</g>
<!-- Node18&#45;&gt;Node21 -->
<g id="edge31_Node000018_Node000021" class="edge">
<title>Node18&#45;&gt;Node21</title>
<g id="a_edge31_Node000018_Node000021"><a xlink:title=" ">
<path fill="none" stroke="#63b8ff" d="M945.28,-109.98C898.46,-100.76 823.69,-86.03 773.14,-76.07"/>
<polygon fill="#63b8ff" stroke="#63b8ff" points="773.55,-72.58 763.06,-74.08 772.19,-79.45 773.55,-72.58"/>
</a>
</g>
</g>
<!-- Node21&#45;&gt;Node3 -->
<g id="edge34_Node000021_Node000003" class="edge">
<title>Node21&#45;&gt;Node3</title>
<g id="a_edge34_Node000021_Node000003"><a xlink:title=" ">
<path fill="none" stroke="#63b8ff" d="M741.83,-54.98C764.7,-46.27 800.46,-32.63 826.36,-22.75"/>
<polygon fill="#63b8ff" stroke="#63b8ff" points="827.66,-26 835.76,-19.17 825.17,-19.46 827.66,-26"/>
</a>
</g>
</g>
<!-- Node21&#45;&gt;Node8 -->
<g id="edge33_Node000021_Node000008" class="edge">
<title>Node21&#45;&gt;Node8</title>
<g id="a_edge33_Node000021_Node000008"><a xlink:title=" ">
<path fill="none" stroke="#63b8ff" d="M705.84,-54.98C692.66,-46.77 672.47,-34.18 656.93,-24.49"/>
<polygon fill="#63b8ff" stroke="#63b8ff" points="658.74,-21.49 648.41,-19.17 655.04,-27.43 658.74,-21.49"/>
</a>
</g>
</g>
<!-- Node21&#45;&gt;Node9 -->
<g id="edge32_Node000021_Node000009" class="edge">
<title>Node21&#45;&gt;Node9</title>
<g id="a_edge32_Node000021_Node000009"><a xlink:title=" ">
<path fill="none" stroke="#63b8ff" d="M659.25,-54.98C581.39,-43.98 448.1,-25.14 382.81,-15.92"/>
<polygon fill="#63b8ff" stroke="#63b8ff" points="382.96,-12.4 372.56,-14.47 381.98,-19.33 382.96,-12.4"/>
</a>
</g>
</g>
</g>
</svg>
