<?xml version="1.0" encoding="UTF-8" standalone="no"?>
<!DOCTYPE svg PUBLIC "-//W3C//DTD SVG 1.1//EN"
 "http://www.w3.org/Graphics/SVG/1.1/DTD/svg11.dtd">
<!-- Generated by graphviz version 2.43.0 (0)
 -->
<!-- Title: ematch_src/utils/FLArray/FLStack.hh Pages: 1 -->
<svg width="228pt" height="148pt"
 viewBox="0.00 0.00 227.50 148.00" xmlns="http://www.w3.org/2000/svg" xmlns:xlink="http://www.w3.org/1999/xlink">

<svg id="main" version="1.1" xmlns="http://www.w3.org/2000/svg" xmlns:xlink="http://www.w3.org/1999/xlink" xml:space="preserve" onload="init(evt)">
<style type="text/css"><![CDATA[
.node, .edge {opacity: 0.7;}
.node.selected, .edge.selected {opacity: 1;}
.edge:hover path { stroke: red; }
.edge:hover polygon { stroke: red; fill: red; }
]]></style>
<script type="application/ecmascript" xlink:href="svg.min.js"/>
<svg id="graph" class="graph">
<g id="graph0" class="graph" transform="scale(1 1) rotate(0) translate(4 144)">
<title>ematch_src/utils/FLArray/FLStack.hh</title>
<!-- Node1 -->
<g id="Node000001" class="node">
<title>Node1</title>
<g id="a_Node000001"><a xlink:title=" ">
<polygon fill="#999999" stroke="#666666" points="143.5,-140 5.5,-140 5.5,-110 143.5,-110 143.5,-140"/>
<text text-anchor="start" x="13.5" y="-128" font-family="Helvetica,sans-Serif" font-size="10.00">ematch_src/utils/FLArray</text>
<text text-anchor="middle" x="74.5" y="-117" font-family="Helvetica,sans-Serif" font-size="10.00">/FLStack.hh</text>
</a>
</g>
</g>
<!-- Node2 -->
<g id="Node000002" class="node">
<title>Node2</title>
<g id="a_Node000002"><a xlink:title=" ">
<polygon fill="#e0e0e0" stroke="#999999" points="65,-74 0,-74 0,-55 65,-55 65,-74"/>
<text text-anchor="middle" x="32.5" y="-62" font-family="Helvetica,sans-Serif" font-size="10.00">stdexcept</text>
</a>
</g>
</g>
<!-- Node1&#45;&gt;Node2 -->
<g id="edge1_Node000001_Node000002" class="edge">
<title>Node1&#45;&gt;Node2</title>
<g id="a_edge1_Node000001_Node000002"><a xlink:title=" ">
<path fill="none" stroke="#63b8ff" d="M64.33,-109.84C58.42,-101.61 50.94,-91.18 44.71,-82.51"/>
<polygon fill="#63b8ff" stroke="#63b8ff" points="47.47,-80.35 38.79,-74.27 41.78,-84.43 47.47,-80.35"/>
</a>
</g>
</g>
<!-- Node3 -->
<g id="Node000003" class="node">
<title>Node3</title>
<g id="a_Node000003"><a xlink:href="FLArray_8hh.html" target="_top" xlink:title=" ">
<polygon fill="white" stroke="#666666" points="151.5,-74 83.5,-74 83.5,-55 151.5,-55 151.5,-74"/>
<text text-anchor="middle" x="117.5" y="-62" font-family="Helvetica,sans-Serif" font-size="10.00">FLArray.hh</text>
</a>
</g>
</g>
<!-- Node1&#45;&gt;Node3 -->
<g id="edge2_Node000001_Node000003" class="edge">
<title>Node1&#45;&gt;Node3</title>
<g id="a_edge2_Node000001_Node000003"><a xlink:title=" ">
<path fill="none" stroke="#63b8ff" d="M84.91,-109.84C90.96,-101.61 98.62,-91.18 105,-82.51"/>
<polygon fill="#63b8ff" stroke="#63b8ff" points="107.95,-84.4 111.06,-74.27 102.31,-80.25 107.95,-84.4"/>
</a>
</g>
</g>
<!-- Node4 -->
<g id="Node000004" class="node">
<title>Node4</title>
<g id="a_Node000004"><a xlink:title=" ">
<polygon fill="#e0e0e0" stroke="#999999" points="75.5,-19 19.5,-19 19.5,0 75.5,0 75.5,-19"/>
<text text-anchor="middle" x="47.5" y="-7" font-family="Helvetica,sans-Serif" font-size="10.00">assert.h</text>
</a>
</g>
</g>
<!-- Node3&#45;&gt;Node4 -->
<g id="edge3_Node000003_Node000004" class="edge">
<title>Node3&#45;&gt;Node4</title>
<g id="a_edge3_Node000003_Node000004"><a xlink:title=" ">
<path fill="none" stroke="#63b8ff" d="M106.25,-54.98C95.7,-47 79.7,-34.88 67.06,-25.31"/>
<polygon fill="#63b8ff" stroke="#63b8ff" points="69.04,-22.42 58.95,-19.17 64.81,-28 69.04,-22.42"/>
</a>
</g>
</g>
<!-- Node5 -->
<g id="Node000005" class="node">
<title>Node5</title>
<g id="a_Node000005"><a xlink:title=" ">
<polygon fill="#e0e0e0" stroke="#999999" points="141,-19 94,-19 94,0 141,0 141,-19"/>
<text text-anchor="middle" x="117.5" y="-7" font-family="Helvetica,sans-Serif" font-size="10.00">vector</text>
</a>
</g>
</g>
<!-- Node3&#45;&gt;Node5 -->
<g id="edge4_Node000003_Node000005" class="edge">
<title>Node3&#45;&gt;Node5</title>
<g id="a_edge4_Node000003_Node000005"><a xlink:title=" ">
<path fill="none" stroke="#63b8ff" d="M117.5,-54.75C117.5,-47.8 117.5,-37.85 117.5,-29.13"/>
<polygon fill="#63b8ff" stroke="#63b8ff" points="121,-29.09 117.5,-19.09 114,-29.09 121,-29.09"/>
</a>
</g>
</g>
<!-- Node6 -->
<g id="Node000006" class="node">
<title>Node6</title>
<g id="a_Node000006"><a xlink:title=" ">
<polygon fill="#e0e0e0" stroke="#999999" points="219.5,-19 159.5,-19 159.5,0 219.5,0 219.5,-19"/>
<text text-anchor="middle" x="189.5" y="-7" font-family="Helvetica,sans-Serif" font-size="10.00">iostream</text>
</a>
</g>
</g>
<!-- Node3&#45;&gt;Node6 -->
<g id="edge5_Node000003_Node000006" class="edge">
<title>Node3&#45;&gt;Node6</title>
<g id="a_edge5_Node000003_Node000006"><a xlink:title=" ">
<path fill="none" stroke="#63b8ff" d="M129.07,-54.98C139.92,-47 156.38,-34.88 169.38,-25.31"/>
<polygon fill="#63b8ff" stroke="#63b8ff" points="171.74,-27.92 177.72,-19.17 167.59,-22.28 171.74,-27.92"/>
</a>
</g>
</g>
</g>
</svg>
</svg>

<style type='text/css'>
<![CDATA[
[data-mouse-over-selected='false'] { opacity: 0.7; }
[data-mouse-over-selected='true']  { opacity: 1.0; }
]]>
</style>
<script type="application/ecmascript"><![CDATA[
document.addEventListener('DOMContentLoaded', (event) => {
  highlightEdges();
  highlightAdjacentNodes();
});
]]></script>
</svg>
