<?xml version="1.0" encoding="UTF-8" standalone="no"?>
<!DOCTYPE svg PUBLIC "-//W3C//DTD SVG 1.1//EN"
 "http://www.w3.org/Graphics/SVG/1.1/DTD/svg11.dtd">
<!-- Generated by graphviz version 2.43.0 (0)
 -->
<!-- Title: main Pages: 1 -->
<svg width="269pt" height="79pt"
 viewBox="0.00 0.00 269.00 78.74" xmlns="http://www.w3.org/2000/svg" xmlns:xlink="http://www.w3.org/1999/xlink">
<g id="graph0" class="graph" transform="scale(1 1) rotate(0) translate(4 74.74)">
<title>main</title>
<!-- Node1 -->
<g id="Node000001" class="node">
<title>Node1</title>
<g id="a_Node000001"><a xlink:title=" ">
<polygon fill="#999999" stroke="#666666" points="41,-56 0,-56 0,-37 41,-37 41,-56"/>
<text text-anchor="middle" x="20.5" y="-44" font-family="Helvetica,sans-Serif" font-size="10.00">main</text>
</a>
</g>
</g>
<!-- Node2 -->
<g id="Node000002" class="node">
<title>Node2</title>
<g id="a_Node000002"><a xlink:href="ematch__src_2utils_2perlish_2getline_8hh.html#aaf07c1bbc2aa081a54bdd66f0e152312" target="_top" xlink:title=" ">
<polygon fill="white" stroke="#666666" points="261,-56 211,-56 211,-37 261,-37 261,-56"/>
<text text-anchor="middle" x="236" y="-44" font-family="Helvetica,sans-Serif" font-size="10.00">getline</text>
</a>
</g>
</g>
<!-- Node1&#45;&gt;Node2 -->
<g id="edge1_Node000001_Node000002" class="edge">
<title>Node1&#45;&gt;Node2</title>
<g id="a_edge1_Node000001_Node000002"><a xlink:title=" ">
<path fill="none" stroke="#63b8ff" d="M41.13,-54.99C51.56,-59.05 64.74,-63.46 77,-65.5 119.96,-72.65 131.96,-72.15 175,-65.5 183.69,-64.16 192.85,-61.78 201.32,-59.15"/>
<polygon fill="#63b8ff" stroke="#63b8ff" points="202.48,-62.45 210.88,-56 200.29,-55.81 202.48,-62.45"/>
</a>
</g>
</g>
<!-- Node3 -->
<g id="Node000003" class="node">
<title>Node3</title>
<g id="a_Node000003"><a xlink:href="Utilities_8cc.html#a788db92ab5ea8c023e37b399531f1273" target="_top" xlink:title=" ">
<polygon fill="white" stroke="#666666" points="160.5,-56 91.5,-56 91.5,-37 160.5,-37 160.5,-56"/>
<text text-anchor="middle" x="126" y="-44" font-family="Helvetica,sans-Serif" font-size="10.00">id2tagnum</text>
</a>
</g>
</g>
<!-- Node1&#45;&gt;Node3 -->
<g id="edge2_Node000001_Node000003" class="edge">
<title>Node1&#45;&gt;Node3</title>
<g id="a_edge2_Node000001_Node000003"><a xlink:title=" ">
<path fill="none" stroke="#63b8ff" d="M41.46,-46.5C52.69,-46.5 67.19,-46.5 80.94,-46.5"/>
<polygon fill="#63b8ff" stroke="#63b8ff" points="81.25,-50 91.25,-46.5 81.25,-43 81.25,-50"/>
</a>
</g>
</g>
<!-- Node4 -->
<g id="Node000004" class="node">
<title>Node4</title>
<g id="a_Node000004"><a xlink:href="GenerateProportion_8cc.html#a58ec3b8cca2173371e41ddd3d721540d" target="_top" xlink:title=" ">
<polygon fill="white" stroke="#666666" points="175,-19 77,-19 77,0 175,0 175,-19"/>
<text text-anchor="middle" x="126" y="-7" font-family="Helvetica,sans-Serif" font-size="10.00">number_of_lines</text>
</a>
</g>
</g>
<!-- Node1&#45;&gt;Node4 -->
<g id="edge3_Node000001_Node000004" class="edge">
<title>Node1&#45;&gt;Node4</title>
<g id="a_edge3_Node000001_Node000004"><a xlink:title=" ">
<path fill="none" stroke="#63b8ff" d="M41.46,-39.37C54.78,-34.6 72.71,-28.19 88.54,-22.54"/>
<polygon fill="#63b8ff" stroke="#63b8ff" points="89.82,-25.79 98.06,-19.13 87.47,-19.2 89.82,-25.79"/>
</a>
</g>
</g>
<!-- Node4&#45;&gt;Node2 -->
<g id="edge4_Node000004_Node000002" class="edge">
<title>Node4&#45;&gt;Node2</title>
<g id="a_edge4_Node000004_Node000002"><a xlink:title=" ">
<path fill="none" stroke="#63b8ff" d="M154.81,-19.03C168.93,-23.86 186.2,-29.78 201.09,-34.88"/>
<polygon fill="#63b8ff" stroke="#63b8ff" points="200.35,-38.33 210.95,-38.26 202.62,-31.71 200.35,-38.33"/>
</a>
</g>
</g>
</g>
</svg>
