<?xml version="1.0" encoding="UTF-8" standalone="no"?>
<!DOCTYPE svg PUBLIC "-//W3C//DTD SVG 1.1//EN"
 "http://www.w3.org/Graphics/SVG/1.1/DTD/svg11.dtd">
<!-- Generated by graphviz version 2.43.0 (0)
 -->
<!-- Title: src/GenerateProportion.cc Pages: 1 -->
<svg width="496pt" height="137pt"
 viewBox="0.00 0.00 495.50 137.00" xmlns="http://www.w3.org/2000/svg" xmlns:xlink="http://www.w3.org/1999/xlink">
<g id="graph0" class="graph" transform="scale(1 1) rotate(0) translate(4 133)">
<title>src/GenerateProportion.cc</title>
<!-- Node1 -->
<g id="Node000001" class="node">
<title>Node1</title>
<g id="a_Node000001"><a xlink:title=" ">
<polygon fill="#999999" stroke="#666666" points="335.5,-129 192.5,-129 192.5,-110 335.5,-110 335.5,-129"/>
<text text-anchor="middle" x="264" y="-117" font-family="Helvetica,sans-Serif" font-size="10.00">src/GenerateProportion.cc</text>
</a>
</g>
</g>
<!-- Node2 -->
<g id="Node000002" class="node">
<title>Node2</title>
<g id="a_Node000002"><a xlink:href="Utilities_8hh.html" target="_top" xlink:title="Utility functions for NGS sequence processing and DNA manipulation.">
<polygon fill="white" stroke="#666666" points="198,-74 128,-74 128,-55 198,-55 198,-74"/>
<text text-anchor="middle" x="163" y="-62" font-family="Helvetica,sans-Serif" font-size="10.00">Utilities.hh</text>
</a>
</g>
</g>
<!-- Node1&#45;&gt;Node2 -->
<g id="edge1_Node000001_Node000002" class="edge">
<title>Node1&#45;&gt;Node2</title>
<g id="a_edge1_Node000001_Node000002"><a xlink:title=" ">
<path fill="none" stroke="#63b8ff" d="M247.77,-109.98C231.82,-101.61 207.22,-88.7 188.62,-78.95"/>
<polygon fill="#63b8ff" stroke="#63b8ff" points="190,-75.72 179.52,-74.17 186.75,-81.92 190,-75.72"/>
</a>
</g>
</g>
<!-- Node3 -->
<g id="Node000003" class="node">
<title>Node3</title>
<g id="a_Node000003"><a xlink:title=" ">
<polygon fill="#e0e0e0" stroke="#999999" points="60,-19 0,-19 0,0 60,0 60,-19"/>
<text text-anchor="middle" x="30" y="-7" font-family="Helvetica,sans-Serif" font-size="10.00">iostream</text>
</a>
</g>
</g>
<!-- Node1&#45;&gt;Node3 -->
<g id="edge8_Node000001_Node000003" class="edge">
<title>Node1&#45;&gt;Node3</title>
<g id="a_edge8_Node000001_Node000003"><a xlink:title=" ">
<path fill="none" stroke="#63b8ff" d="M224.23,-109.97C194.34,-102.69 152.88,-90.73 119,-74 92.33,-60.83 64.97,-39.99 47.75,-25.81"/>
<polygon fill="#63b8ff" stroke="#63b8ff" points="49.64,-22.82 39.73,-19.07 45.14,-28.18 49.64,-22.82"/>
</a>
</g>
</g>
<!-- Node5 -->
<g id="Node000005" class="node">
<title>Node5</title>
<g id="a_Node000005"><a xlink:title=" ">
<polygon fill="#e0e0e0" stroke="#999999" points="246,-19 202,-19 202,0 246,0 246,-19"/>
<text text-anchor="middle" x="224" y="-7" font-family="Helvetica,sans-Serif" font-size="10.00">string</text>
</a>
</g>
</g>
<!-- Node1&#45;&gt;Node5 -->
<g id="edge10_Node000001_Node000005" class="edge">
<title>Node1&#45;&gt;Node5</title>
<g id="a_edge10_Node000001_Node000005"><a xlink:title=" ">
<path fill="none" stroke="#63b8ff" d="M260.73,-109.66C254.19,-92.01 239.4,-52.09 230.72,-28.64"/>
<polygon fill="#63b8ff" stroke="#63b8ff" points="233.96,-27.32 227.21,-19.16 227.4,-29.75 233.96,-27.32"/>
</a>
</g>
</g>
<!-- Node6 -->
<g id="Node000006" class="node">
<title>Node6</title>
<g id="a_Node000006"><a xlink:title=" ">
<polygon fill="#e0e0e0" stroke="#999999" points="311.5,-19 264.5,-19 264.5,0 311.5,0 311.5,-19"/>
<text text-anchor="middle" x="288" y="-7" font-family="Helvetica,sans-Serif" font-size="10.00">vector</text>
</a>
</g>
</g>
<!-- Node1&#45;&gt;Node6 -->
<g id="edge11_Node000001_Node000006" class="edge">
<title>Node1&#45;&gt;Node6</title>
<g id="a_edge11_Node000001_Node000006"><a xlink:title=" ">
<path fill="none" stroke="#63b8ff" d="M265.96,-109.66C269.87,-92.09 278.68,-52.45 283.9,-28.95"/>
<polygon fill="#63b8ff" stroke="#63b8ff" points="287.32,-29.68 286.08,-19.16 280.49,-28.16 287.32,-29.68"/>
</a>
</g>
</g>
<!-- Node8 -->
<g id="Node000008" class="node">
<title>Node8</title>
<g id="a_Node000008"><a xlink:title=" ">
<polygon fill="#e0e0e0" stroke="#999999" points="347.5,-74 292.5,-74 292.5,-55 347.5,-55 347.5,-74"/>
<text text-anchor="middle" x="320" y="-62" font-family="Helvetica,sans-Serif" font-size="10.00">fstream</text>
</a>
</g>
</g>
<!-- Node1&#45;&gt;Node8 -->
<g id="edge7_Node000001_Node000008" class="edge">
<title>Node1&#45;&gt;Node8</title>
<g id="a_edge7_Node000001_Node000008"><a xlink:title=" ">
<path fill="none" stroke="#63b8ff" d="M273,-109.98C281.19,-102.23 293.51,-90.58 303.47,-81.14"/>
<polygon fill="#63b8ff" stroke="#63b8ff" points="305.98,-83.59 310.84,-74.17 301.17,-78.5 305.98,-83.59"/>
</a>
</g>
</g>
<!-- Node9 -->
<g id="Node000009" class="node">
<title>Node9</title>
<g id="a_Node000009"><a xlink:title=" ">
<polygon fill="#e0e0e0" stroke="#999999" points="422,-74 366,-74 366,-55 422,-55 422,-74"/>
<text text-anchor="middle" x="394" y="-62" font-family="Helvetica,sans-Serif" font-size="10.00">sstream</text>
</a>
</g>
</g>
<!-- Node1&#45;&gt;Node9 -->
<g id="edge9_Node000001_Node000009" class="edge">
<title>Node1&#45;&gt;Node9</title>
<g id="a_edge9_Node000001_Node000009"><a xlink:title=" ">
<path fill="none" stroke="#63b8ff" d="M284.89,-109.98C306.08,-101.34 339.13,-87.87 363.3,-78.02"/>
<polygon fill="#63b8ff" stroke="#63b8ff" points="364.79,-81.19 372.73,-74.17 362.15,-74.7 364.79,-81.19"/>
</a>
</g>
</g>
<!-- Node10 -->
<g id="Node000010" class="node">
<title>Node10</title>
<g id="a_Node000010"><a xlink:title=" ">
<polygon fill="#e0e0e0" stroke="#999999" points="487.5,-74 440.5,-74 440.5,-55 487.5,-55 487.5,-74"/>
<text text-anchor="middle" x="464" y="-62" font-family="Helvetica,sans-Serif" font-size="10.00">cmath</text>
</a>
</g>
</g>
<!-- Node1&#45;&gt;Node10 -->
<g id="edge12_Node000001_Node000010" class="edge">
<title>Node1&#45;&gt;Node10</title>
<g id="a_edge12_Node000001_Node000010"><a xlink:title=" ">
<path fill="none" stroke="#63b8ff" d="M296.13,-109.98C332.97,-100.22 393.08,-84.29 430.49,-74.38"/>
<polygon fill="#63b8ff" stroke="#63b8ff" points="431.63,-77.7 440.4,-71.75 429.84,-70.93 431.63,-77.7"/>
</a>
</g>
</g>
<!-- Node2&#45;&gt;Node3 -->
<g id="edge2_Node000002_Node000003" class="edge">
<title>Node2&#45;&gt;Node3</title>
<g id="a_edge2_Node000002_Node000003"><a xlink:title=" ">
<path fill="none" stroke="#63b8ff" d="M141.63,-54.98C119.85,-46.3 85.84,-32.75 61.08,-22.88"/>
<polygon fill="#63b8ff" stroke="#63b8ff" points="62.34,-19.62 51.76,-19.17 59.75,-26.12 62.34,-19.62"/>
</a>
</g>
</g>
<!-- Node4 -->
<g id="Node000004" class="node">
<title>Node4</title>
<g id="a_Node000004"><a xlink:title=" ">
<polygon fill="#e0e0e0" stroke="#999999" points="184,-19 146,-19 146,0 184,0 184,-19"/>
<text text-anchor="middle" x="165" y="-7" font-family="Helvetica,sans-Serif" font-size="10.00">map</text>
</a>
</g>
</g>
<!-- Node2&#45;&gt;Node4 -->
<g id="edge3_Node000002_Node000004" class="edge">
<title>Node2&#45;&gt;Node4</title>
<g id="a_edge3_Node000002_Node000004"><a xlink:title=" ">
<path fill="none" stroke="#63b8ff" d="M163.33,-54.75C163.59,-47.8 163.97,-37.85 164.3,-29.13"/>
<polygon fill="#63b8ff" stroke="#63b8ff" points="167.8,-29.21 164.68,-19.09 160.8,-28.95 167.8,-29.21"/>
</a>
</g>
</g>
<!-- Node2&#45;&gt;Node5 -->
<g id="edge4_Node000002_Node000005" class="edge">
<title>Node2&#45;&gt;Node5</title>
<g id="a_edge4_Node000002_Node000005"><a xlink:title=" ">
<path fill="none" stroke="#63b8ff" d="M172.8,-54.98C181.82,-47.15 195.41,-35.34 206.32,-25.86"/>
<polygon fill="#63b8ff" stroke="#63b8ff" points="208.77,-28.37 214.02,-19.17 204.18,-23.09 208.77,-28.37"/>
</a>
</g>
</g>
<!-- Node2&#45;&gt;Node6 -->
<g id="edge5_Node000002_Node000006" class="edge">
<title>Node2&#45;&gt;Node6</title>
<g id="a_edge5_Node000002_Node000006"><a xlink:title=" ">
<path fill="none" stroke="#63b8ff" d="M183.08,-54.98C203.37,-46.38 234.96,-32.99 258.17,-23.15"/>
<polygon fill="#63b8ff" stroke="#63b8ff" points="259.71,-26.3 267.55,-19.17 256.98,-19.85 259.71,-26.3"/>
</a>
</g>
</g>
<!-- Node7 -->
<g id="Node000007" class="node">
<title>Node7</title>
<g id="a_Node000007"><a xlink:title=" ">
<polygon fill="#e0e0e0" stroke="#999999" points="127.5,-19 78.5,-19 78.5,0 127.5,0 127.5,-19"/>
<text text-anchor="middle" x="103" y="-7" font-family="Helvetica,sans-Serif" font-size="10.00">cstdlib</text>
</a>
</g>
</g>
<!-- Node2&#45;&gt;Node7 -->
<g id="edge6_Node000002_Node000007" class="edge">
<title>Node2&#45;&gt;Node7</title>
<g id="a_edge6_Node000002_Node000007"><a xlink:title=" ">
<path fill="none" stroke="#63b8ff" d="M153.36,-54.98C144.49,-47.15 131.13,-35.34 120.39,-25.86"/>
<polygon fill="#63b8ff" stroke="#63b8ff" points="122.63,-23.17 112.82,-19.17 117.99,-28.41 122.63,-23.17"/>
</a>
</g>
</g>
</g>
</svg>
