<?xml version="1.0" encoding="UTF-8" standalone="no"?>
<!DOCTYPE svg PUBLIC "-//W3C//DTD SVG 1.1//EN"
 "http://www.w3.org/Graphics/SVG/1.1/DTD/svg11.dtd">
<!-- Generated by graphviz version 2.43.0 (0)
 -->
<!-- Title: ematch_src/utils/sequence/align/GlobalAffineDist.hh Pages: 1 -->
<svg width="1341pt" height="522pt"
 viewBox="0.00 0.00 1341.01 522.00" xmlns="http://www.w3.org/2000/svg" xmlns:xlink="http://www.w3.org/1999/xlink">
<g id="graph0" class="graph" transform="scale(1 1) rotate(0) translate(4 518)">
<title>ematch_src/utils/sequence/align/GlobalAffineDist.hh</title>
<!-- Node1 -->
<g id="Node000001" class="node">
<title>Node1</title>
<g id="a_Node000001"><a xlink:title=" ">
<polygon fill="#999999" stroke="#666666" points="840,-514 694,-514 694,-484 840,-484 840,-514"/>
<text text-anchor="start" x="702" y="-502" font-family="Helvetica,sans-Serif" font-size="10.00">ematch_src/utils/sequence</text>
<text text-anchor="middle" x="767" y="-491" font-family="Helvetica,sans-Serif" font-size="10.00">/align/GlobalAffineDist.hh</text>
</a>
</g>
</g>
<!-- Node2 -->
<g id="Node000002" class="node">
<title>Node2</title>
<g id="a_Node000002"><a xlink:title=" ">
<polygon fill="#e0e0e0" stroke="#999999" points="720,-448 606,-448 606,-418 720,-418 720,-448"/>
<text text-anchor="start" x="614" y="-436" font-family="Helvetica,sans-Serif" font-size="10.00">utils/sequence/align</text>
<text text-anchor="middle" x="663" y="-425" font-family="Helvetica,sans-Serif" font-size="10.00">/AminoDistance.hh</text>
</a>
</g>
</g>
<!-- Node1&#45;&gt;Node2 -->
<g id="edge1_Node000001_Node000002" class="edge">
<title>Node1&#45;&gt;Node2</title>
<g id="a_edge1_Node000001_Node000002"><a xlink:title=" ">
<path fill="none" stroke="#63b8ff" d="M744.18,-483.95C729.55,-474.95 710.36,-463.14 694.31,-453.27"/>
<polygon fill="#63b8ff" stroke="#63b8ff" points="696.12,-450.27 685.77,-448.01 692.45,-456.23 696.12,-450.27"/>
</a>
</g>
</g>
<!-- Node3 -->
<g id="Node000003" class="node">
<title>Node3</title>
<g id="a_Node000003"><a xlink:href="Alignment_8hh.html" target="_top" xlink:title=" ">
<polygon fill="white" stroke="#666666" points="1082,-448 968,-448 968,-418 1082,-418 1082,-448"/>
<text text-anchor="start" x="976" y="-436" font-family="Helvetica,sans-Serif" font-size="10.00">utils/sequence/align</text>
<text text-anchor="middle" x="1025" y="-425" font-family="Helvetica,sans-Serif" font-size="10.00">/Alignment.hh</text>
</a>
</g>
</g>
<!-- Node1&#45;&gt;Node3 -->
<g id="edge2_Node000001_Node000003" class="edge">
<title>Node1&#45;&gt;Node3</title>
<g id="a_edge2_Node000001_Node000003"><a xlink:title=" ">
<path fill="none" stroke="#63b8ff" d="M823.62,-483.95C863.44,-474.08 916.87,-460.82 958.69,-450.45"/>
<polygon fill="#63b8ff" stroke="#63b8ff" points="959.65,-453.82 968.51,-448.01 957.96,-447.02 959.65,-453.82"/>
</a>
</g>
</g>
<!-- Node27 -->
<g id="Node000027" class="node">
<title>Node27</title>
<g id="a_Node000027"><a xlink:href="FLArray_8hh.html" target="_top" xlink:title=" ">
<polygon fill="white" stroke="#666666" points="850,-129 716,-129 716,-110 850,-110 850,-129"/>
<text text-anchor="middle" x="783" y="-117" font-family="Helvetica,sans-Serif" font-size="10.00">utils/FLArray/FLArray.hh</text>
</a>
</g>
</g>
<!-- Node1&#45;&gt;Node27 -->
<g id="edge44_Node000001_Node000027" class="edge">
<title>Node1&#45;&gt;Node27</title>
<g id="a_edge44_Node000001_Node000027"><a xlink:title=" ">
<path fill="none" stroke="#63b8ff" d="M770.48,-483.67C775.97,-459.83 786,-410.43 786,-368 786,-368 786,-368 786,-234 786,-200.6 784.69,-161.68 783.8,-139.19"/>
<polygon fill="#63b8ff" stroke="#63b8ff" points="787.29,-138.89 783.38,-129.04 780.29,-139.18 787.29,-138.89"/>
</a>
</g>
</g>
<!-- Node28 -->
<g id="Node000028" class="node">
<title>Node28</title>
<g id="a_Node000028"><a xlink:href="FLMatrix_8hh.html" target="_top" xlink:title=" ">
<polygon fill="white" stroke="#666666" points="758,-184 618,-184 618,-165 758,-165 758,-184"/>
<text text-anchor="middle" x="688" y="-172" font-family="Helvetica,sans-Serif" font-size="10.00">utils/FLArray/FLMatrix.hh</text>
</a>
</g>
</g>
<!-- Node1&#45;&gt;Node28 -->
<g id="edge48_Node000001_Node000028" class="edge">
<title>Node1&#45;&gt;Node28</title>
<g id="a_edge48_Node000001_Node000028"><a xlink:title=" ">
<path fill="none" stroke="#63b8ff" d="M763.52,-483.67C758.03,-459.83 748,-410.43 748,-368 748,-368 748,-368 748,-300 748,-257.85 719.74,-214.92 702.01,-192.13"/>
<polygon fill="#63b8ff" stroke="#63b8ff" points="704.6,-189.76 695.6,-184.17 699.15,-194.15 704.6,-189.76"/>
</a>
</g>
</g>
<!-- Node4 -->
<g id="Node000004" class="node">
<title>Node4</title>
<g id="a_Node000004"><a xlink:title=" ">
<polygon fill="#e0e0e0" stroke="#999999" points="153,-19 109,-19 109,0 153,0 153,-19"/>
<text text-anchor="middle" x="131" y="-7" font-family="Helvetica,sans-Serif" font-size="10.00">string</text>
</a>
</g>
</g>
<!-- Node3&#45;&gt;Node4 -->
<g id="edge3_Node000003_Node000004" class="edge">
<title>Node3&#45;&gt;Node4</title>
<g id="a_edge3_Node000003_Node000004"><a xlink:title=" ">
<path fill="none" stroke="#63b8ff" d="M967.7,-427.77C751.84,-411.47 0,-351.16 0,-302 0,-302 0,-302 0,-118.5 0,-67.36 60.17,-35.93 98.95,-20.99"/>
<polygon fill="#63b8ff" stroke="#63b8ff" points="100.6,-24.11 108.78,-17.37 98.18,-17.54 100.6,-24.11"/>
</a>
</g>
</g>
<!-- Node5 -->
<g id="Node000005" class="node">
<title>Node5</title>
<g id="a_Node000005"><a xlink:title=" ">
<polygon fill="#e0e0e0" stroke="#999999" points="1228,-129 1164,-129 1164,-110 1228,-110 1228,-129"/>
<text text-anchor="middle" x="1196" y="-117" font-family="Helvetica,sans-Serif" font-size="10.00">algorithm</text>
</a>
</g>
</g>
<!-- Node3&#45;&gt;Node5 -->
<g id="edge4_Node000003_Node000005" class="edge">
<title>Node3&#45;&gt;Node5</title>
<g id="a_edge4_Node000003_Node000005"><a xlink:title=" ">
<path fill="none" stroke="#63b8ff" d="M1082.07,-425.86C1145.44,-418.11 1242.81,-403.21 1273,-382 1301.07,-362.28 1303.77,-349.04 1313,-316 1333.88,-241.27 1254.06,-166.28 1215.61,-135.3"/>
<polygon fill="#63b8ff" stroke="#63b8ff" points="1217.68,-132.48 1207.66,-129.05 1213.35,-137.98 1217.68,-132.48"/>
</a>
</g>
</g>
<!-- Node6 -->
<g id="Node000006" class="node">
<title>Node6</title>
<g id="a_Node000006"><a xlink:title=" ">
<polygon fill="#e0e0e0" stroke="#999999" points="1140,-74 1084,-74 1084,-55 1140,-55 1140,-74"/>
<text text-anchor="middle" x="1112" y="-62" font-family="Helvetica,sans-Serif" font-size="10.00">assert.h</text>
</a>
</g>
</g>
<!-- Node3&#45;&gt;Node6 -->
<g id="edge5_Node000003_Node000006" class="edge">
<title>Node3&#45;&gt;Node6</title>
<g id="a_edge5_Node000003_Node000006"><a xlink:title=" ">
<path fill="none" stroke="#63b8ff" d="M1031.09,-417.7C1042.83,-390.81 1070.16,-331.38 1101,-286 1152.89,-209.65 1204.74,-215.5 1237,-129 1251.42,-90.34 1191.93,-75.03 1150.09,-69.11"/>
<polygon fill="#63b8ff" stroke="#63b8ff" points="1150.52,-65.63 1140.15,-67.82 1149.62,-72.58 1150.52,-65.63"/>
</a>
</g>
</g>
<!-- Node7 -->
<g id="Node000007" class="node">
<title>Node7</title>
<g id="a_Node000007"><a xlink:href="ResidueIndexMap_8hh.html" target="_top" xlink:title=" ">
<polygon fill="white" stroke="#666666" points="970,-250 814,-250 814,-220 970,-220 970,-250"/>
<text text-anchor="start" x="822" y="-238" font-family="Helvetica,sans-Serif" font-size="10.00">utils/sequence/ResidueIndex</text>
<text text-anchor="middle" x="892" y="-227" font-family="Helvetica,sans-Serif" font-size="10.00">Map/ResidueIndexMap.hh</text>
</a>
</g>
</g>
<!-- Node3&#45;&gt;Node7 -->
<g id="edge6_Node000003_Node000007" class="edge">
<title>Node3&#45;&gt;Node7</title>
<g id="a_edge6_Node000003_Node000007"><a xlink:title=" ">
<path fill="none" stroke="#63b8ff" d="M1015.43,-417.9C992.68,-384.37 935.14,-299.57 907.41,-258.71"/>
<polygon fill="#63b8ff" stroke="#63b8ff" points="910.17,-256.54 901.66,-250.23 904.38,-260.47 910.17,-256.54"/>
</a>
</g>
</g>
<!-- Node25 -->
<g id="Node000025" class="node">
<title>Node25</title>
<g id="a_Node000025"><a xlink:href="AminoScore_8hh.html" target="_top" xlink:title=" ">
<polygon fill="white" stroke="#666666" points="1264,-382 1150,-382 1150,-352 1264,-352 1264,-382"/>
<text text-anchor="start" x="1158" y="-370" font-family="Helvetica,sans-Serif" font-size="10.00">utils/sequence/align</text>
<text text-anchor="middle" x="1207" y="-359" font-family="Helvetica,sans-Serif" font-size="10.00">/AminoScore.hh</text>
</a>
</g>
</g>
<!-- Node3&#45;&gt;Node25 -->
<g id="edge39_Node000003_Node000025" class="edge">
<title>Node3&#45;&gt;Node25</title>
<g id="a_edge39_Node000003_Node000025"><a xlink:title=" ">
<path fill="none" stroke="#63b8ff" d="M1064.94,-417.95C1092.2,-408.37 1128.51,-395.6 1157.59,-385.37"/>
<polygon fill="#63b8ff" stroke="#63b8ff" points="1158.88,-388.63 1167.15,-382.01 1156.56,-382.03 1158.88,-388.63"/>
</a>
</g>
</g>
<!-- Node7&#45;&gt;Node4 -->
<g id="edge7_Node000007_Node000004" class="edge">
<title>Node7&#45;&gt;Node4</title>
<g id="a_edge7_Node000007_Node000004"><a xlink:title=" ">
<path fill="none" stroke="#63b8ff" d="M813.74,-233.41C703.17,-231.16 495.44,-221.72 323,-184 252,-168.47 229.47,-169.31 169,-129 141.51,-110.68 130.91,-104.81 119,-74 113.32,-59.3 117.48,-41.62 122.4,-28.65"/>
<polygon fill="#63b8ff" stroke="#63b8ff" points="125.64,-29.98 126.33,-19.41 119.2,-27.24 125.64,-29.98"/>
</a>
</g>
</g>
<!-- Node8 -->
<g id="Node000008" class="node">
<title>Node8</title>
<g id="a_Node000008"><a xlink:title=" ">
<polygon fill="#e0e0e0" stroke="#999999" points="371.5,-19 324.5,-19 324.5,0 371.5,0 371.5,-19"/>
<text text-anchor="middle" x="348" y="-7" font-family="Helvetica,sans-Serif" font-size="10.00">vector</text>
</a>
</g>
</g>
<!-- Node7&#45;&gt;Node8 -->
<g id="edge8_Node000007_Node000008" class="edge">
<title>Node7&#45;&gt;Node8</title>
<g id="a_edge8_Node000007_Node000008"><a xlink:title=" ">
<path fill="none" stroke="#63b8ff" d="M813.84,-230.19C635.68,-219.64 208.46,-183.25 126,-74 120.91,-67.26 120.65,-61.53 126,-55 149.41,-26.44 258.04,-15.83 314.19,-12.21"/>
<polygon fill="#63b8ff" stroke="#63b8ff" points="314.59,-15.69 324.36,-11.59 314.16,-8.7 314.59,-15.69"/>
</a>
</g>
</g>
<!-- Node9 -->
<g id="Node000009" class="node">
<title>Node9</title>
<g id="a_Node000009"><a xlink:title=" ">
<polygon fill="#e0e0e0" stroke="#999999" points="195.5,-74 142.5,-74 142.5,-55 195.5,-55 195.5,-74"/>
<text text-anchor="middle" x="169" y="-62" font-family="Helvetica,sans-Serif" font-size="10.00">ctype.h</text>
</a>
</g>
</g>
<!-- Node7&#45;&gt;Node9 -->
<g id="edge9_Node000007_Node000009" class="edge">
<title>Node7&#45;&gt;Node9</title>
<g id="a_edge9_Node000007_Node000009"><a xlink:title=" ">
<path fill="none" stroke="#63b8ff" d="M813.86,-222.1C756.83,-212.95 677.79,-199.31 609,-184 457.81,-150.35 280.51,-98.86 205.48,-76.5"/>
<polygon fill="#63b8ff" stroke="#63b8ff" points="206.17,-73.05 195.58,-73.54 204.16,-79.76 206.17,-73.05"/>
</a>
</g>
</g>
<!-- Node10 -->
<g id="Node000010" class="node">
<title>Node10</title>
<g id="a_Node000010"><a xlink:title=" ">
<polygon fill="#e0e0e0" stroke="#999999" points="919.5,-184 854.5,-184 854.5,-165 919.5,-165 919.5,-184"/>
<text text-anchor="middle" x="887" y="-172" font-family="Helvetica,sans-Serif" font-size="10.00">stdexcept</text>
</a>
</g>
</g>
<!-- Node7&#45;&gt;Node10 -->
<g id="edge10_Node000007_Node000010" class="edge">
<title>Node7&#45;&gt;Node10</title>
<g id="a_edge10_Node000007_Node000010"><a xlink:title=" ">
<path fill="none" stroke="#63b8ff" d="M890.79,-219.84C890.14,-212.21 889.33,-202.7 888.62,-194.45"/>
<polygon fill="#63b8ff" stroke="#63b8ff" points="892.09,-193.93 887.75,-184.27 885.11,-194.53 892.09,-193.93"/>
</a>
</g>
</g>
<!-- Node11 -->
<g id="Node000011" class="node">
<title>Node11</title>
<g id="a_Node000011"><a xlink:href="ematch__src_2utils_2FLArray_2FLEArray_8hh.html" target="_top" xlink:title=" ">
<polygon fill="white" stroke="#666666" points="1076.5,-184 937.5,-184 937.5,-165 1076.5,-165 1076.5,-184"/>
<text text-anchor="middle" x="1007" y="-172" font-family="Helvetica,sans-Serif" font-size="10.00">utils/FLArray/FLEArray.hh</text>
</a>
</g>
</g>
<!-- Node7&#45;&gt;Node11 -->
<g id="edge11_Node000007_Node000011" class="edge">
<title>Node7&#45;&gt;Node11</title>
<g id="a_edge11_Node000007_Node000011"><a xlink:title=" ">
<path fill="none" stroke="#63b8ff" d="M919.55,-219.99C938.22,-210.49 962.74,-198.02 981.06,-188.69"/>
<polygon fill="#63b8ff" stroke="#63b8ff" points="982.69,-191.79 990.02,-184.14 979.52,-185.55 982.69,-191.79"/>
</a>
</g>
</g>
<!-- Node11&#45;&gt;Node5 -->
<g id="edge15_Node000011_Node000005" class="edge">
<title>Node11&#45;&gt;Node5</title>
<g id="a_edge15_Node000011_Node000005"><a xlink:title=" ">
<path fill="none" stroke="#63b8ff" d="M1037.37,-164.98C1069.37,-156.01 1119.96,-141.82 1155.38,-131.89"/>
<polygon fill="#63b8ff" stroke="#63b8ff" points="1156.71,-135.15 1165.4,-129.08 1154.82,-128.41 1156.71,-135.15"/>
</a>
</g>
</g>
<!-- Node11&#45;&gt;Node6 -->
<g id="edge12_Node000011_Node000006" class="edge">
<title>Node11&#45;&gt;Node6</title>
<g id="a_edge12_Node000011_Node000006"><a xlink:title=" ">
<path fill="none" stroke="#63b8ff" d="M1026.73,-164.93C1042.45,-157.32 1064.2,-144.94 1079,-129 1091.14,-115.92 1100.04,-97.54 1105.52,-83.91"/>
<polygon fill="#63b8ff" stroke="#63b8ff" points="1108.93,-84.79 1109.18,-74.2 1102.38,-82.32 1108.93,-84.79"/>
</a>
</g>
</g>
<!-- Node11&#45;&gt;Node8 -->
<g id="edge13_Node000011_Node000008" class="edge">
<title>Node11&#45;&gt;Node8</title>
<g id="a_edge13_Node000011_Node000008"><a xlink:title=" ">
<path fill="none" stroke="#63b8ff" d="M937.22,-165.9C934.11,-165.59 931.02,-165.29 928,-165 737.53,-146.76 680.71,-188.94 499,-129 439.35,-109.32 385.67,-54.37 361.52,-26.77"/>
<polygon fill="#63b8ff" stroke="#63b8ff" points="364.15,-24.47 354.99,-19.15 358.84,-29.02 364.15,-24.47"/>
</a>
</g>
</g>
<!-- Node12 -->
<g id="Node000012" class="node">
<title>Node12</title>
<g id="a_Node000012"><a xlink:title=" ">
<polygon fill="#e0e0e0" stroke="#999999" points="1067,-19 1007,-19 1007,0 1067,0 1067,-19"/>
<text text-anchor="middle" x="1037" y="-7" font-family="Helvetica,sans-Serif" font-size="10.00">iostream</text>
</a>
</g>
</g>
<!-- Node11&#45;&gt;Node12 -->
<g id="edge14_Node000011_Node000012" class="edge">
<title>Node11&#45;&gt;Node12</title>
<g id="a_edge14_Node000011_Node000012"><a xlink:title=" ">
<path fill="none" stroke="#63b8ff" d="M1034.34,-164.9C1069.94,-151.91 1129.9,-123.42 1149,-74 1161.97,-40.46 1114.41,-24 1077.27,-16.39"/>
<polygon fill="#63b8ff" stroke="#63b8ff" points="1077.61,-12.9 1067.13,-14.48 1076.31,-19.77 1077.61,-12.9"/>
</a>
</g>
</g>
<!-- Node13 -->
<g id="Node000013" class="node">
<title>Node13</title>
<g id="a_Node000013"><a xlink:title=" ">
<polygon fill="#e0e0e0" stroke="#999999" points="1069.5,-129 944.5,-129 944.5,-110 1069.5,-110 1069.5,-129"/>
<text text-anchor="middle" x="1007" y="-117" font-family="Helvetica,sans-Serif" font-size="10.00">boost/lexical_cast.hpp</text>
</a>
</g>
</g>
<!-- Node11&#45;&gt;Node13 -->
<g id="edge16_Node000011_Node000013" class="edge">
<title>Node11&#45;&gt;Node13</title>
<g id="a_edge16_Node000011_Node000013"><a xlink:title=" ">
<path fill="none" stroke="#63b8ff" d="M1007,-164.75C1007,-157.8 1007,-147.85 1007,-139.13"/>
<polygon fill="#63b8ff" stroke="#63b8ff" points="1010.5,-139.09 1007,-129.09 1003.5,-139.09 1010.5,-139.09"/>
</a>
</g>
</g>
<!-- Node14 -->
<g id="Node000014" class="node">
<title>Node14</title>
<g id="a_Node000014"><a xlink:href="ematch__src_2utils_2gdb_2gdbUtils_8hh.html" target="_top" xlink:title=" ">
<polygon fill="white" stroke="#666666" points="759.5,-74 642.5,-74 642.5,-55 759.5,-55 759.5,-74"/>
<text text-anchor="middle" x="701" y="-62" font-family="Helvetica,sans-Serif" font-size="10.00">utils/gdb/gdbUtils.hh</text>
</a>
</g>
</g>
<!-- Node11&#45;&gt;Node14 -->
<g id="edge17_Node000011_Node000014" class="edge">
<title>Node11&#45;&gt;Node14</title>
<g id="a_edge17_Node000011_Node000014"><a xlink:title=" ">
<path fill="none" stroke="#63b8ff" d="M989.08,-164.9C961.54,-151.9 906.97,-126.97 859,-110 821.54,-96.75 778.03,-84.74 746.16,-76.54"/>
<polygon fill="#63b8ff" stroke="#63b8ff" points="746.8,-73.09 736.24,-74.02 745.07,-79.87 746.8,-73.09"/>
</a>
</g>
</g>
<!-- Node19 -->
<g id="Node000019" class="node">
<title>Node19</title>
<g id="a_Node000019"><a xlink:href="ematch__src_2utils_2perlish_2perlish_8hh.html" target="_top" xlink:title=" ">
<polygon fill="white" stroke="#666666" points="633.5,-129 508.5,-129 508.5,-110 633.5,-110 633.5,-129"/>
<text text-anchor="middle" x="571" y="-117" font-family="Helvetica,sans-Serif" font-size="10.00">utils/perlish/perlish.hh</text>
</a>
</g>
</g>
<!-- Node11&#45;&gt;Node19 -->
<g id="edge23_Node000011_Node000019" class="edge">
<title>Node11&#45;&gt;Node19</title>
<g id="a_edge23_Node000011_Node000019"><a xlink:title=" ">
<path fill="none" stroke="#63b8ff" d="M937.43,-165.04C857.08,-155.28 725.5,-139.28 643.8,-129.35"/>
<polygon fill="#63b8ff" stroke="#63b8ff" points="643.95,-125.84 633.6,-128.11 643.11,-132.79 643.95,-125.84"/>
</a>
</g>
</g>
<!-- Node14&#45;&gt;Node12 -->
<g id="edge19_Node000014_Node000012" class="edge">
<title>Node14&#45;&gt;Node12</title>
<g id="a_edge19_Node000014_Node000012"><a xlink:title=" ">
<path fill="none" stroke="#63b8ff" d="M754.98,-54.98C822.5,-44.34 936.53,-26.35 996.83,-16.84"/>
<polygon fill="#63b8ff" stroke="#63b8ff" points="997.4,-20.29 1006.74,-15.27 996.31,-13.37 997.4,-20.29"/>
</a>
</g>
</g>
<!-- Node15 -->
<g id="Node000015" class="node">
<title>Node15</title>
<g id="a_Node000015"><a xlink:title=" ">
<polygon fill="#e0e0e0" stroke="#999999" points="665.5,-19 612.5,-19 612.5,0 665.5,0 665.5,-19"/>
<text text-anchor="middle" x="639" y="-7" font-family="Helvetica,sans-Serif" font-size="10.00">cstdarg</text>
</a>
</g>
</g>
<!-- Node14&#45;&gt;Node15 -->
<g id="edge18_Node000014_Node000015" class="edge">
<title>Node14&#45;&gt;Node15</title>
<g id="a_edge18_Node000014_Node000015"><a xlink:title=" ">
<path fill="none" stroke="#63b8ff" d="M691.04,-54.98C681.87,-47.15 668.06,-35.34 656.97,-25.86"/>
<polygon fill="#63b8ff" stroke="#63b8ff" points="659.02,-23.01 649.14,-19.17 654.47,-28.33 659.02,-23.01"/>
</a>
</g>
</g>
<!-- Node16 -->
<g id="Node000016" class="node">
<title>Node16</title>
<g id="a_Node000016"><a xlink:title=" ">
<polygon fill="#e0e0e0" stroke="#999999" points="732.5,-19 683.5,-19 683.5,0 732.5,0 732.5,-19"/>
<text text-anchor="middle" x="708" y="-7" font-family="Helvetica,sans-Serif" font-size="10.00">cstdlib</text>
</a>
</g>
</g>
<!-- Node14&#45;&gt;Node16 -->
<g id="edge20_Node000014_Node000016" class="edge">
<title>Node14&#45;&gt;Node16</title>
<g id="a_edge20_Node000014_Node000016"><a xlink:title=" ">
<path fill="none" stroke="#63b8ff" d="M702.16,-54.75C703.07,-47.8 704.39,-37.85 705.54,-29.13"/>
<polygon fill="#63b8ff" stroke="#63b8ff" points="709.03,-29.46 706.87,-19.09 702.09,-28.54 709.03,-29.46"/>
</a>
</g>
</g>
<!-- Node17 -->
<g id="Node000017" class="node">
<title>Node17</title>
<g id="a_Node000017"><a xlink:title=" ">
<polygon fill="#e0e0e0" stroke="#999999" points="797,-19 751,-19 751,0 797,0 797,-19"/>
<text text-anchor="middle" x="774" y="-7" font-family="Helvetica,sans-Serif" font-size="10.00">cstdio</text>
</a>
</g>
</g>
<!-- Node14&#45;&gt;Node17 -->
<g id="edge21_Node000014_Node000017" class="edge">
<title>Node14&#45;&gt;Node17</title>
<g id="a_edge21_Node000014_Node000017"><a xlink:title=" ">
<path fill="none" stroke="#63b8ff" d="M712.73,-54.98C723.73,-47 740.42,-34.88 753.6,-25.31"/>
<polygon fill="#63b8ff" stroke="#63b8ff" points="756.02,-27.88 762.06,-19.17 751.91,-22.21 756.02,-27.88"/>
</a>
</g>
</g>
<!-- Node18 -->
<g id="Node000018" class="node">
<title>Node18</title>
<g id="a_Node000018"><a xlink:title=" ">
<polygon fill="#e0e0e0" stroke="#999999" points="594,-19 542,-19 542,0 594,0 594,-19"/>
<text text-anchor="middle" x="568" y="-7" font-family="Helvetica,sans-Serif" font-size="10.00">cassert</text>
</a>
</g>
</g>
<!-- Node14&#45;&gt;Node18 -->
<g id="edge22_Node000014_Node000018" class="edge">
<title>Node14&#45;&gt;Node18</title>
<g id="a_edge22_Node000014_Node000018"><a xlink:title=" ">
<path fill="none" stroke="#63b8ff" d="M679.63,-54.98C657.85,-46.3 623.84,-32.75 599.08,-22.88"/>
<polygon fill="#63b8ff" stroke="#63b8ff" points="600.34,-19.62 589.76,-19.17 597.75,-26.12 600.34,-19.62"/>
</a>
</g>
</g>
<!-- Node19&#45;&gt;Node4 -->
<g id="edge28_Node000019_Node000004" class="edge">
<title>Node19&#45;&gt;Node4</title>
<g id="a_edge28_Node000019_Node000004"><a xlink:title=" ">
<path fill="none" stroke="#63b8ff" d="M508.35,-117.03C441.13,-113.85 332.03,-104.03 243,-74 224.81,-67.87 180.62,-41.38 153.5,-24.61"/>
<polygon fill="#63b8ff" stroke="#63b8ff" points="155.03,-21.44 144.69,-19.14 151.33,-27.39 155.03,-21.44"/>
</a>
</g>
</g>
<!-- Node19&#45;&gt;Node6 -->
<g id="edge30_Node000019_Node000006" class="edge">
<title>Node19&#45;&gt;Node6</title>
<g id="a_edge30_Node000019_Node000006"><a xlink:title=" ">
<path fill="none" stroke="#63b8ff" d="M633.59,-112.37C746.61,-101.3 981.56,-78.28 1073.73,-69.25"/>
<polygon fill="#63b8ff" stroke="#63b8ff" points="1074.12,-72.73 1083.73,-68.27 1073.44,-65.76 1074.12,-72.73"/>
</a>
</g>
</g>
<!-- Node19&#45;&gt;Node8 -->
<g id="edge29_Node000019_Node000008" class="edge">
<title>Node19&#45;&gt;Node8</title>
<g id="a_edge29_Node000019_Node000008"><a xlink:title=" ">
<path fill="none" stroke="#63b8ff" d="M541.42,-109.96C515.81,-102.08 478.09,-89.3 447,-74 418.06,-59.75 387.14,-38.91 367.7,-25.03"/>
<polygon fill="#63b8ff" stroke="#63b8ff" points="369.54,-22.04 359.38,-19.02 365.43,-27.72 369.54,-22.04"/>
</a>
</g>
</g>
<!-- Node19&#45;&gt;Node9 -->
<g id="edge24_Node000019_Node000009" class="edge">
<title>Node19&#45;&gt;Node9</title>
<g id="a_edge24_Node000019_Node000009"><a xlink:title=" ">
<path fill="none" stroke="#63b8ff" d="M508.49,-112.36C436.34,-104.92 314.21,-91.19 210,-74 208.71,-73.79 207.4,-73.56 206.07,-73.33"/>
<polygon fill="#63b8ff" stroke="#63b8ff" points="206.32,-69.81 195.85,-71.39 205.02,-76.69 206.32,-69.81"/>
</a>
</g>
</g>
<!-- Node19&#45;&gt;Node12 -->
<g id="edge25_Node000019_Node000012" class="edge">
<title>Node19&#45;&gt;Node12</title>
<g id="a_edge25_Node000019_Node000012"><a xlink:title=" ">
<path fill="none" stroke="#63b8ff" d="M633.76,-113.29C736.15,-104.49 930.71,-86.44 960,-74 985.03,-63.37 1008.31,-41.91 1022.58,-26.89"/>
<polygon fill="#63b8ff" stroke="#63b8ff" points="1025.34,-29.05 1029.53,-19.32 1020.19,-24.32 1025.34,-29.05"/>
</a>
</g>
</g>
<!-- Node19&#45;&gt;Node14 -->
<g id="edge32_Node000019_Node000014" class="edge">
<title>Node19&#45;&gt;Node14</title>
<g id="a_edge32_Node000019_Node000014"><a xlink:title=" ">
<path fill="none" stroke="#63b8ff" d="M591.89,-109.98C613.08,-101.34 646.13,-87.87 670.3,-78.02"/>
<polygon fill="#63b8ff" stroke="#63b8ff" points="671.79,-81.19 679.73,-74.17 669.15,-74.7 671.79,-81.19"/>
</a>
</g>
</g>
<!-- Node20 -->
<g id="Node000020" class="node">
<title>Node20</title>
<g id="a_Node000020"><a xlink:title=" ">
<polygon fill="#e0e0e0" stroke="#999999" points="511.5,-74 456.5,-74 456.5,-55 511.5,-55 511.5,-74"/>
<text text-anchor="middle" x="484" y="-62" font-family="Helvetica,sans-Serif" font-size="10.00">fstream</text>
</a>
</g>
</g>
<!-- Node19&#45;&gt;Node20 -->
<g id="edge26_Node000019_Node000020" class="edge">
<title>Node19&#45;&gt;Node20</title>
<g id="a_edge26_Node000019_Node000020"><a xlink:title=" ">
<path fill="none" stroke="#63b8ff" d="M557.02,-109.98C543.53,-101.77 522.87,-89.18 506.96,-79.49"/>
<polygon fill="#63b8ff" stroke="#63b8ff" points="508.59,-76.38 498.23,-74.17 504.95,-82.36 508.59,-76.38"/>
</a>
</g>
</g>
<!-- Node21 -->
<g id="Node000021" class="node">
<title>Node21</title>
<g id="a_Node000021"><a xlink:title=" ">
<polygon fill="#e0e0e0" stroke="#999999" points="586,-74 530,-74 530,-55 586,-55 586,-74"/>
<text text-anchor="middle" x="558" y="-62" font-family="Helvetica,sans-Serif" font-size="10.00">sstream</text>
</a>
</g>
</g>
<!-- Node19&#45;&gt;Node21 -->
<g id="edge27_Node000019_Node000021" class="edge">
<title>Node19&#45;&gt;Node21</title>
<g id="a_edge27_Node000019_Node000021"><a xlink:title=" ">
<path fill="none" stroke="#63b8ff" d="M568.85,-109.75C567.13,-102.72 564.65,-92.62 562.5,-83.84"/>
<polygon fill="#63b8ff" stroke="#63b8ff" points="565.89,-82.97 560.11,-74.09 559.09,-84.63 565.89,-82.97"/>
</a>
</g>
</g>
<!-- Node22 -->
<g id="Node000022" class="node">
<title>Node22</title>
<g id="a_Node000022"><a xlink:title=" ">
<polygon fill="#e0e0e0" stroke="#999999" points="917.5,-19 822.5,-19 822.5,0 917.5,0 917.5,-19"/>
<text text-anchor="middle" x="870" y="-7" font-family="Helvetica,sans-Serif" font-size="10.00">boost/regex.hpp</text>
</a>
</g>
</g>
<!-- Node19&#45;&gt;Node22 -->
<g id="edge31_Node000019_Node000022" class="edge">
<title>Node19&#45;&gt;Node22</title>
<g id="a_edge31_Node000019_Node000022"><a xlink:title=" ">
<path fill="none" stroke="#63b8ff" d="M632.96,-109.97C672.6,-103.2 724.53,-91.84 768,-74 798.96,-61.29 831.17,-39.57 850.91,-25.13"/>
<polygon fill="#63b8ff" stroke="#63b8ff" points="853.13,-27.84 859.05,-19.06 848.94,-22.23 853.13,-27.84"/>
</a>
</g>
</g>
<!-- Node23 -->
<g id="Node000023" class="node">
<title>Node23</title>
<g id="a_Node000023"><a xlink:href="ematch__src_2utils_2stl_2stlTypes_8hh.html" target="_top" xlink:title=" ">
<polygon fill="white" stroke="#666666" points="362,-74 252,-74 252,-55 362,-55 362,-74"/>
<text text-anchor="middle" x="307" y="-62" font-family="Helvetica,sans-Serif" font-size="10.00">utils/stl/stlTypes.hh</text>
</a>
</g>
</g>
<!-- Node19&#45;&gt;Node23 -->
<g id="edge33_Node000019_Node000023" class="edge">
<title>Node19&#45;&gt;Node23</title>
<g id="a_edge33_Node000019_Node000023"><a xlink:title=" ">
<path fill="none" stroke="#63b8ff" d="M528.58,-109.98C482.63,-100.76 409.25,-86.03 359.65,-76.07"/>
<polygon fill="#63b8ff" stroke="#63b8ff" points="360.24,-72.62 349.75,-74.08 358.86,-79.48 360.24,-72.62"/>
</a>
</g>
</g>
<!-- Node24 -->
<g id="Node000024" class="node">
<title>Node24</title>
<g id="a_Node000024"><a xlink:href="ematch__src_2utils_2boost_2boostUtils_8hh.html" target="_top" xlink:title=" ">
<polygon fill="white" stroke="#666666" points="951.5,-74 816.5,-74 816.5,-55 951.5,-55 951.5,-74"/>
<text text-anchor="middle" x="884" y="-62" font-family="Helvetica,sans-Serif" font-size="10.00">utils/boost/boostUtils.hh</text>
</a>
</g>
</g>
<!-- Node19&#45;&gt;Node24 -->
<g id="edge36_Node000019_Node000024" class="edge">
<title>Node19&#45;&gt;Node24</title>
<g id="a_edge36_Node000019_Node000024"><a xlink:title=" ">
<path fill="none" stroke="#63b8ff" d="M621.29,-109.98C676.42,-100.65 764.85,-85.67 823.68,-75.71"/>
<polygon fill="#63b8ff" stroke="#63b8ff" points="824.3,-79.16 833.58,-74.04 823.13,-72.26 824.3,-79.16"/>
</a>
</g>
</g>
<!-- Node23&#45;&gt;Node4 -->
<g id="edge34_Node000023_Node000004" class="edge">
<title>Node23&#45;&gt;Node4</title>
<g id="a_edge34_Node000023_Node000004"><a xlink:title=" ">
<path fill="none" stroke="#63b8ff" d="M278.72,-54.98C247.02,-45.44 195.74,-30 162.7,-20.05"/>
<polygon fill="#63b8ff" stroke="#63b8ff" points="163.66,-16.68 153.08,-17.15 161.64,-23.38 163.66,-16.68"/>
</a>
</g>
</g>
<!-- Node23&#45;&gt;Node8 -->
<g id="edge35_Node000023_Node000008" class="edge">
<title>Node23&#45;&gt;Node8</title>
<g id="a_edge35_Node000023_Node000008"><a xlink:title=" ">
<path fill="none" stroke="#63b8ff" d="M313.77,-54.75C319.56,-47.26 328.06,-36.28 335.14,-27.13"/>
<polygon fill="#63b8ff" stroke="#63b8ff" points="338.01,-29.14 341.36,-19.09 332.47,-24.86 338.01,-29.14"/>
</a>
</g>
</g>
<!-- Node24&#45;&gt;Node12 -->
<g id="edge37_Node000024_Node000012" class="edge">
<title>Node24&#45;&gt;Node12</title>
<g id="a_edge37_Node000024_Node000012"><a xlink:title=" ">
<path fill="none" stroke="#63b8ff" d="M908.58,-54.98C934.05,-46.16 974.04,-32.31 1002.63,-22.41"/>
<polygon fill="#63b8ff" stroke="#63b8ff" points="1003.92,-25.66 1012.23,-19.08 1001.63,-19.05 1003.92,-25.66"/>
</a>
</g>
</g>
<!-- Node24&#45;&gt;Node22 -->
<g id="edge38_Node000024_Node000022" class="edge">
<title>Node24&#45;&gt;Node22</title>
<g id="a_edge38_Node000024_Node000022"><a xlink:title=" ">
<path fill="none" stroke="#63b8ff" d="M881.69,-54.75C879.83,-47.72 877.16,-37.62 874.85,-28.84"/>
<polygon fill="#63b8ff" stroke="#63b8ff" points="878.21,-27.86 872.27,-19.09 871.44,-29.65 878.21,-27.86"/>
</a>
</g>
</g>
<!-- Node25&#45;&gt;Node12 -->
<g id="edge40_Node000025_Node000012" class="edge">
<title>Node25&#45;&gt;Node12</title>
<g id="a_edge40_Node000025_Node000012"><a xlink:title=" ">
<path fill="none" stroke="#63b8ff" d="M1259.26,-351.98C1278.71,-344.31 1299.35,-332.83 1313,-316 1336.02,-287.62 1332,-272.54 1332,-236 1332,-236 1332,-236 1332,-118.5 1332,-82.85 1313.46,-73.52 1283,-55 1249.08,-34.38 1138.04,-20.51 1077.41,-14.27"/>
<polygon fill="#63b8ff" stroke="#63b8ff" points="1077.71,-10.78 1067.41,-13.26 1077.01,-17.75 1077.71,-10.78"/>
</a>
</g>
</g>
<!-- Node26 -->
<g id="Node000026" class="node">
<title>Node26</title>
<g id="a_Node000026"><a xlink:href="ResidueIndexMapPredefined_8hh.html" target="_top" xlink:title=" ">
<polygon fill="white" stroke="#666666" points="1304,-316 1110,-316 1110,-286 1304,-286 1304,-316"/>
<text text-anchor="start" x="1118" y="-304" font-family="Helvetica,sans-Serif" font-size="10.00">utils/sequence/ResidueIndex</text>
<text text-anchor="middle" x="1207" y="-293" font-family="Helvetica,sans-Serif" font-size="10.00">Map/ResidueIndexMapPredefined.hh</text>
</a>
</g>
</g>
<!-- Node25&#45;&gt;Node26 -->
<g id="edge41_Node000025_Node000026" class="edge">
<title>Node25&#45;&gt;Node26</title>
<g id="a_edge41_Node000025_Node000026"><a xlink:title=" ">
<path fill="none" stroke="#63b8ff" d="M1207,-351.8C1207,-344.34 1207,-334.99 1207,-326.41"/>
<polygon fill="#63b8ff" stroke="#63b8ff" points="1210.5,-326.16 1207,-316.16 1203.5,-326.16 1210.5,-326.16"/>
</a>
</g>
</g>
<!-- Node26&#45;&gt;Node7 -->
<g id="edge42_Node000026_Node000007" class="edge">
<title>Node26&#45;&gt;Node7</title>
<g id="a_edge42_Node000026_Node000007"><a xlink:title=" ">
<path fill="none" stroke="#63b8ff" d="M1137.87,-285.95C1088.63,-275.95 1022.36,-262.49 971.03,-252.06"/>
<polygon fill="#63b8ff" stroke="#63b8ff" points="971.46,-248.57 960.97,-250.01 970.07,-255.43 971.46,-248.57"/>
</a>
</g>
</g>
<!-- Node26&#45;&gt;Node12 -->
<g id="edge43_Node000026_Node000012" class="edge">
<title>Node26&#45;&gt;Node12</title>
<g id="a_edge43_Node000026_Node000012"><a xlink:title=" ">
<path fill="none" stroke="#63b8ff" d="M1231.18,-285.81C1244.32,-277 1259.9,-264.58 1270,-250 1289.81,-221.4 1294,-210.29 1294,-175.5 1294,-175.5 1294,-175.5 1294,-118.5 1294,-25.67 1149.71,-11.32 1077.36,-9.96"/>
<polygon fill="#63b8ff" stroke="#63b8ff" points="1077.28,-6.45 1067.24,-9.84 1077.2,-13.45 1077.28,-6.45"/>
</a>
</g>
</g>
<!-- Node27&#45;&gt;Node6 -->
<g id="edge45_Node000027_Node000006" class="edge">
<title>Node27&#45;&gt;Node6</title>
<g id="a_edge45_Node000027_Node000006"><a xlink:title=" ">
<path fill="none" stroke="#63b8ff" d="M843.33,-109.97C901.49,-101.55 991.95,-87.94 1070,-74 1071.1,-73.8 1072.21,-73.6 1073.34,-73.39"/>
<polygon fill="#63b8ff" stroke="#63b8ff" points="1074.4,-76.75 1083.57,-71.44 1073.09,-69.88 1074.4,-76.75"/>
</a>
</g>
</g>
<!-- Node27&#45;&gt;Node8 -->
<g id="edge46_Node000027_Node000008" class="edge">
<title>Node27&#45;&gt;Node8</title>
<g id="a_edge46_Node000027_Node000008"><a xlink:title=" ">
<path fill="none" stroke="#63b8ff" d="M747.86,-109.94C717.08,-102.01 671.4,-89.16 633,-74 615.44,-67.07 612.92,-60.96 595,-55 521.19,-30.46 430.23,-18.51 381.91,-13.52"/>
<polygon fill="#63b8ff" stroke="#63b8ff" points="382.01,-10.01 371.71,-12.5 381.31,-16.98 382.01,-10.01"/>
</a>
</g>
</g>
<!-- Node27&#45;&gt;Node12 -->
<g id="edge47_Node000027_Node000012" class="edge">
<title>Node27&#45;&gt;Node12</title>
<g id="a_edge47_Node000027_Node000012"><a xlink:title=" ">
<path fill="none" stroke="#63b8ff" d="M850.09,-110.76C919.61,-102.07 1019.82,-87.44 1032,-74 1042.78,-62.1 1042.94,-43.28 1041.06,-29.21"/>
<polygon fill="#63b8ff" stroke="#63b8ff" points="1044.47,-28.4 1039.28,-19.17 1037.58,-29.62 1044.47,-28.4"/>
</a>
</g>
</g>
<!-- Node28&#45;&gt;Node6 -->
<g id="edge49_Node000028_Node000006" class="edge">
<title>Node28&#45;&gt;Node6</title>
<g id="a_edge49_Node000028_Node000006"><a xlink:title=" ">
<path fill="none" stroke="#63b8ff" d="M721.29,-164.94C768.88,-152.72 859.12,-129.56 936,-110 983.54,-97.9 1038.33,-84.07 1073.98,-75.08"/>
<polygon fill="#63b8ff" stroke="#63b8ff" points="1075.11,-78.4 1083.95,-72.56 1073.4,-71.62 1075.11,-78.4"/>
</a>
</g>
</g>
<!-- Node28&#45;&gt;Node8 -->
<g id="edge50_Node000028_Node000008" class="edge">
<title>Node28&#45;&gt;Node8</title>
<g id="a_edge50_Node000028_Node000008"><a xlink:title=" ">
<path fill="none" stroke="#63b8ff" d="M617.85,-171.92C482.29,-167.19 192.46,-148.42 133,-74 127.73,-67.4 127.67,-61.55 133,-55 155.45,-27.43 259.36,-16.41 314.08,-12.46"/>
<polygon fill="#63b8ff" stroke="#63b8ff" points="314.59,-15.93 324.33,-11.76 314.12,-8.95 314.59,-15.93"/>
</a>
</g>
</g>
<!-- Node28&#45;&gt;Node12 -->
<g id="edge51_Node000028_Node000012" class="edge">
<title>Node28&#45;&gt;Node12</title>
<g id="a_edge51_Node000028_Node000012"><a xlink:title=" ">
<path fill="none" stroke="#63b8ff" d="M687.82,-164.96C688.04,-151.09 690.68,-123.85 707,-110 803.35,-28.26 879.68,-137.36 989,-74 1007.07,-63.53 1020.53,-43.29 1028.53,-28.47"/>
<polygon fill="#63b8ff" stroke="#63b8ff" points="1031.8,-29.76 1033.18,-19.26 1025.55,-26.6 1031.8,-29.76"/>
</a>
</g>
</g>
<!-- Node28&#45;&gt;Node27 -->
<g id="edge52_Node000028_Node000027" class="edge">
<title>Node28&#45;&gt;Node27</title>
<g id="a_edge52_Node000028_Node000027"><a xlink:title=" ">
<path fill="none" stroke="#63b8ff" d="M703.26,-164.98C718.13,-156.69 740.98,-143.94 758.42,-134.22"/>
<polygon fill="#63b8ff" stroke="#63b8ff" points="760.43,-137.1 767.46,-129.17 757.02,-130.99 760.43,-137.1"/>
</a>
</g>
</g>
</g>
</svg>
