<?xml version="1.0" encoding="UTF-8" standalone="no"?>
<!DOCTYPE svg PUBLIC "-//W3C//DTD SVG 1.1//EN"
 "http://www.w3.org/Graphics/SVG/1.1/DTD/svg11.dtd">
<!-- Generated by graphviz version 2.43.0 (0)
 -->
<!-- Title: ematch_src/graph/run/runAllShortestEdgeLengthPaths.cc Pages: 1 -->
<!--zoomable 390 -->

<svg id="main" version="1.1" xmlns="http://www.w3.org/2000/svg" xmlns:xlink="http://www.w3.org/1999/xlink" xml:space="preserve" onload="init(evt)">
<style type="text/css"><![CDATA[
.node, .edge {opacity: 0.7;}
.node.selected, .edge.selected {opacity: 1;}
.edge:hover path { stroke: red; }
.edge:hover polygon { stroke: red; fill: red; }
]]></style>

<defs>
  <circle id="rim" cx="0" cy="0" r="7"/>
  <circle id="rim2" cx="0" cy="0" r="3.5"/>
  <g id="zoomPlus">
    <use xlink:href="#rim" fill="#404040"><set attributeName="fill" to="#808080" begin="zoomplus.mouseover" end="zoomplus.mouseout"/></use>
    <path d="M-4,0h8M0,-4v8" fill="none" stroke="white" stroke-width="1.5" pointer-events="none"/>
  </g>
  <g id="zoomMin">
    <use xlink:href="#rim" fill="#404040"><set attributeName="fill" to="#808080" begin="zoomminus.mouseover" end="zoomminus.mouseout"/></use>
    <path d="M-4,0h8" fill="none" stroke="white" stroke-width="1.5" pointer-events="none"/>
  </g>
  <g id="arrowUp" transform="translate(30 24)">
    <use xlink:href="#rim"/>
    <path pointer-events="none" fill="none" stroke="white" stroke-width="1.5" d="M0,-3.0v7 M-2.5,-0.5L0,-3.0L2.5,-0.5"/>
  </g>
  <g id="arrowRight" transform="rotate(90) translate(36 -43)">
    <use xlink:href="#rim"/>
    <path pointer-events="none" fill="none" stroke="white" stroke-width="1.5" d="M0,-3.0v7 M-2.5,-0.5L0,-3.0L2.5,-0.5"/>
  </g>
  <g id="arrowDown" transform="rotate(180) translate(-30 -48)">
    <use xlink:href="#rim"/>
    <path pointer-events="none" fill="none" stroke="white" stroke-width="1.5" d="M0,-3.0v7 M-2.5,-0.5L0,-3.0L2.5,-0.5"/>
  </g>
  <g id="arrowLeft" transform="rotate(270) translate(-36 17)">
    <use xlink:href="#rim"/>
    <path pointer-events="none" fill="none" stroke="white" stroke-width="1.5" d="M0,-3.0v7 M-2.5,-0.5L0,-3.0L2.5,-0.5"/>
  </g>
  <g id="resetDef">
    <use xlink:href="#rim2" fill="#404040"><set attributeName="fill" to="#808080" begin="reset.mouseover" end="reset.mouseout"/></use>
  </g>
</defs>
<script type="application/ecmascript">
var viewWidth = 1471;
var viewHeight = 390;
var sectionId = 'dynsection-0';
</script>
<script type="application/ecmascript" xlink:href="svg.min.js"/>
<svg id="graph" class="graph">
<g id="viewport">
<title>ematch_src/graph/run/runAllShortestEdgeLengthPaths.cc</title>
<!-- Node1 -->
<g id="Node000001" class="node">
<title>Node1</title>
<g id="a_Node000001"><a xlink:title=" ">
<polygon fill="#999999" stroke="#666666" points="978.5,-382 793.5,-382 793.5,-352 978.5,-352 978.5,-382"/>
<text text-anchor="start" x="801.5" y="-370" font-family="Helvetica,sans-Serif" font-size="10.00">ematch_src/graph/run</text>
<text text-anchor="middle" x="886" y="-359" font-family="Helvetica,sans-Serif" font-size="10.00">/runAllShortestEdgeLengthPaths.cc</text>
</a>
</g>
</g>
<!-- Node2 -->
<g id="Node000002" class="node">
<title>Node2</title>
<g id="a_Node000002"><a xlink:title=" ">
<polygon fill="#e0e0e0" stroke="#999999" points="182,-19 122,-19 122,0 182,0 182,-19"/>
<text text-anchor="middle" x="152" y="-7" font-family="Helvetica,sans-Serif" font-size="10.00">iostream</text>
</a>
</g>
</g>
<!-- Node1&#45;&gt;Node2 -->
<g id="edge1_Node000001_Node000002" class="edge">
<title>Node1&#45;&gt;Node2</title>
<g id="a_edge1_Node000001_Node000002"><a xlink:title=" ">
<path fill="none" stroke="#63b8ff" d="M793.27,-362.57C566.07,-352.94 0,-320.96 0,-241.5 0,-241.5 0,-241.5 0,-118.5 0,-63.42 67.13,-33.85 112.17,-20.21"/>
<polygon fill="#63b8ff" stroke="#63b8ff" points="113.33,-23.52 121.97,-17.39 111.39,-16.79 113.33,-23.52"/>
</a>
</g>
</g>
<!-- Node3 -->
<g id="Node000003" class="node">
<title>Node3</title>
<g id="a_Node000003"><a xlink:href="graph_2NeighborListGraph_8hh.html" target="_top" xlink:title=" ">
<polygon fill="white" stroke="#666666" points="951.5,-316 820.5,-316 820.5,-297 951.5,-297 951.5,-316"/>
<text text-anchor="middle" x="886" y="-304" font-family="Helvetica,sans-Serif" font-size="10.00">../NeighborListGraph.hh</text>
</a>
</g>
</g>
<!-- Node1&#45;&gt;Node3 -->
<g id="edge2_Node000001_Node000003" class="edge">
<title>Node1&#45;&gt;Node3</title>
<g id="a_edge2_Node000001_Node000003"><a xlink:title=" ">
<path fill="none" stroke="#63b8ff" d="M886,-351.84C886,-344.21 886,-334.7 886,-326.45"/>
<polygon fill="#63b8ff" stroke="#63b8ff" points="889.5,-326.27 886,-316.27 882.5,-326.27 889.5,-326.27"/>
</a>
</g>
</g>
<!-- Node26 -->
<g id="Node000026" class="node">
<title>Node26</title>
<g id="a_Node000026"><a xlink:href="ematch__src_2utils_2FLArray_2FLEArrayByIndexSortingPredicate_8hh.html" target="_top" xlink:title=" ">
<polygon fill="white" stroke="#666666" points="1340.5,-255.5 1201.5,-255.5 1201.5,-225.5 1340.5,-225.5 1340.5,-255.5"/>
<text text-anchor="start" x="1209.5" y="-243.5" font-family="Helvetica,sans-Serif" font-size="10.00">utils/FLArray/FLEArrayBy</text>
<text text-anchor="middle" x="1271" y="-232.5" font-family="Helvetica,sans-Serif" font-size="10.00">IndexSortingPredicate.hh</text>
</a>
</g>
</g>
<!-- Node1&#45;&gt;Node26 -->
<g id="edge47_Node000001_Node000026" class="edge">
<title>Node1&#45;&gt;Node26</title>
<g id="a_edge47_Node000001_Node000026"><a xlink:title=" ">
<path fill="none" stroke="#63b8ff" d="M929.42,-351.96C1000.28,-329.05 1140.58,-283.68 1217.48,-258.81"/>
<polygon fill="#63b8ff" stroke="#63b8ff" points="1219.01,-261.99 1227.45,-255.58 1216.86,-255.33 1219.01,-261.99"/>
</a>
</g>
</g>
<!-- Node4 -->
<g id="Node000004" class="node">
<title>Node4</title>
<g id="a_Node000004"><a xlink:href="utils_2graph_2Graph_8hh.html" target="_top" xlink:title=" ">
<polygon fill="white" stroke="#666666" points="335,-129 219,-129 219,-110 335,-110 335,-129"/>
<text text-anchor="middle" x="277" y="-117" font-family="Helvetica,sans-Serif" font-size="10.00">utils/graph/Graph.hh</text>
</a>
</g>
</g>
<!-- Node3&#45;&gt;Node4 -->
<g id="edge3_Node000003_Node000004" class="edge">
<title>Node3&#45;&gt;Node4</title>
<g id="a_edge3_Node000003_Node000004"><a xlink:title=" ">
<path fill="none" stroke="#63b8ff" d="M820.26,-297.33C720.55,-283.31 526.52,-249.62 374,-184 344.47,-171.3 314.03,-149.73 295.31,-135.3"/>
<polygon fill="#63b8ff" stroke="#63b8ff" points="297.38,-132.47 287.35,-129.05 293.05,-137.98 297.38,-132.47"/>
</a>
</g>
</g>
<!-- Node7 -->
<g id="Node000007" class="node">
<title>Node7</title>
<g id="a_Node000007"><a xlink:href="ematch__src_2utils_2perlish_2perlish_8hh.html" target="_top" xlink:title=" ">
<polygon fill="white" stroke="#666666" points="950.5,-129 825.5,-129 825.5,-110 950.5,-110 950.5,-129"/>
<text text-anchor="middle" x="888" y="-117" font-family="Helvetica,sans-Serif" font-size="10.00">utils/perlish/perlish.hh</text>
</a>
</g>
</g>
<!-- Node3&#45;&gt;Node7 -->
<g id="edge9_Node000003_Node000007" class="edge">
<title>Node3&#45;&gt;Node7</title>
<g id="a_edge9_Node000003_Node000007"><a xlink:title=" ">
<path fill="none" stroke="#63b8ff" d="M895.61,-296.69C903.87,-288.41 915.2,-275.18 920,-261 933.68,-220.55 929.32,-205.57 916,-165 912.73,-155.04 906.77,-145.07 901.18,-137.09"/>
<polygon fill="#63b8ff" stroke="#63b8ff" points="903.97,-134.98 895.19,-129.05 898.35,-139.16 903.97,-134.98"/>
</a>
</g>
</g>
<!-- Node21 -->
<g id="Node000021" class="node">
<title>Node21</title>
<g id="a_Node000021"><a xlink:href="ematch__src_2utils_2FLArray_2FLEArray_8hh.html" target="_top" xlink:title=" ">
<polygon fill="white" stroke="#666666" points="1340.5,-184 1201.5,-184 1201.5,-165 1340.5,-165 1340.5,-184"/>
<text text-anchor="middle" x="1271" y="-172" font-family="Helvetica,sans-Serif" font-size="10.00">utils/FLArray/FLEArray.hh</text>
</a>
</g>
</g>
<!-- Node3&#45;&gt;Node21 -->
<g id="edge30_Node000003_Node000021" class="edge">
<title>Node3&#45;&gt;Node21</title>
<g id="a_edge30_Node000003_Node000021"><a xlink:title=" ">
<path fill="none" stroke="#63b8ff" d="M911.26,-296.97C978.02,-274.43 1159.27,-213.23 1235.97,-187.33"/>
<polygon fill="#63b8ff" stroke="#63b8ff" points="1237.29,-190.58 1245.65,-184.06 1235.05,-183.94 1237.29,-190.58"/>
</a>
</g>
</g>
<!-- Node24 -->
<g id="Node000024" class="node">
<title>Node24</title>
<g id="a_Node000024"><a xlink:href="SerialNumbersForStrings_8hh.html" target="_top" xlink:title=" ">
<polygon fill="white" stroke="#666666" points="910.5,-261 755.5,-261 755.5,-220 910.5,-220 910.5,-261"/>
<text text-anchor="start" x="763.5" y="-249" font-family="Helvetica,sans-Serif" font-size="10.00">utils/serialNumbers</text>
<text text-anchor="start" x="763.5" y="-238" font-family="Helvetica,sans-Serif" font-size="10.00">/SerialNumbersForStrings</text>
<text text-anchor="middle" x="833" y="-227" font-family="Helvetica,sans-Serif" font-size="10.00">/SerialNumbersForStrings.hh</text>
</a>
</g>
</g>
<!-- Node3&#45;&gt;Node24 -->
<g id="edge38_Node000003_Node000024" class="edge">
<title>Node3&#45;&gt;Node24</title>
<g id="a_edge38_Node000003_Node000024"><a xlink:title=" ">
<path fill="none" stroke="#63b8ff" d="M878.85,-296.87C872.88,-289.65 864.02,-278.95 855.67,-268.88"/>
<polygon fill="#63b8ff" stroke="#63b8ff" points="858.23,-266.48 849.16,-261.01 852.84,-270.94 858.23,-266.48"/>
</a>
</g>
</g>
<!-- Node4&#45;&gt;Node2 -->
<g id="edge4_Node000004_Node000002" class="edge">
<title>Node4&#45;&gt;Node2</title>
<g id="a_edge4_Node000004_Node000002"><a xlink:title=" ">
<path fill="none" stroke="#63b8ff" d="M234.97,-109.97C213.13,-103.51 187.61,-92.48 171,-74 159.94,-61.7 155.31,-43.19 153.38,-29.32"/>
<polygon fill="#63b8ff" stroke="#63b8ff" points="156.82,-28.59 152.31,-19.01 149.86,-29.31 156.82,-28.59"/>
</a>
</g>
</g>
<!-- Node5 -->
<g id="Node000005" class="node">
<title>Node5</title>
<g id="a_Node000005"><a xlink:title=" ">
<polygon fill="#e0e0e0" stroke="#999999" points="449.5,-19 402.5,-19 402.5,0 449.5,0 449.5,-19"/>
<text text-anchor="middle" x="426" y="-7" font-family="Helvetica,sans-Serif" font-size="10.00">vector</text>
</a>
</g>
</g>
<!-- Node4&#45;&gt;Node5 -->
<g id="edge5_Node000004_Node000005" class="edge">
<title>Node4&#45;&gt;Node5</title>
<g id="a_edge5_Node000004_Node000005"><a xlink:title=" ">
<path fill="none" stroke="#63b8ff" d="M288.94,-109.84C314.33,-91.44 373.94,-48.23 405.53,-25.34"/>
<polygon fill="#63b8ff" stroke="#63b8ff" points="407.96,-27.9 414,-19.2 403.85,-22.23 407.96,-27.9"/>
</a>
</g>
</g>
<!-- Node6 -->
<g id="Node000006" class="node">
<title>Node6</title>
<g id="a_Node000006"><a xlink:href="utils_2graph_2graphTypes_8hh.html" target="_top" xlink:title=" ">
<polygon fill="white" stroke="#666666" points="322,-74 180,-74 180,-55 322,-55 322,-74"/>
<text text-anchor="middle" x="251" y="-62" font-family="Helvetica,sans-Serif" font-size="10.00">utils/graph/graphTypes.hh</text>
</a>
</g>
</g>
<!-- Node4&#45;&gt;Node6 -->
<g id="edge6_Node000004_Node000006" class="edge">
<title>Node4&#45;&gt;Node6</title>
<g id="a_edge6_Node000004_Node000006"><a xlink:title=" ">
<path fill="none" stroke="#63b8ff" d="M272.71,-109.75C269.19,-102.57 264.09,-92.18 259.72,-83.27"/>
<polygon fill="#63b8ff" stroke="#63b8ff" points="262.76,-81.53 255.21,-74.09 256.48,-84.61 262.76,-81.53"/>
</a>
</g>
</g>
<!-- Node6&#45;&gt;Node2 -->
<g id="edge7_Node000006_Node000002" class="edge">
<title>Node6&#45;&gt;Node2</title>
<g id="a_edge7_Node000006_Node000002"><a xlink:title=" ">
<path fill="none" stroke="#63b8ff" d="M235.09,-54.98C219.45,-46.61 195.34,-33.7 177.12,-23.95"/>
<polygon fill="#63b8ff" stroke="#63b8ff" points="178.66,-20.8 168.2,-19.17 175.36,-26.98 178.66,-20.8"/>
</a>
</g>
</g>
<!-- Node6&#45;&gt;Node5 -->
<g id="edge8_Node000006_Node000005" class="edge">
<title>Node6&#45;&gt;Node5</title>
<g id="a_edge8_Node000006_Node000005"><a xlink:title=" ">
<path fill="none" stroke="#63b8ff" d="M279.12,-54.98C310.11,-45.6 359.93,-30.51 392.82,-20.55"/>
<polygon fill="#63b8ff" stroke="#63b8ff" points="393.89,-23.88 402.44,-17.63 391.86,-17.18 393.89,-23.88"/>
</a>
</g>
</g>
<!-- Node7&#45;&gt;Node2 -->
<g id="edge11_Node000007_Node000002" class="edge">
<title>Node7&#45;&gt;Node2</title>
<g id="a_edge11_Node000007_Node000002"><a xlink:title=" ">
<path fill="none" stroke="#63b8ff" d="M825.39,-113.26C745.3,-106.18 602.42,-92.32 481,-74 376.33,-58.2 254.23,-32.78 192.36,-19.4"/>
<polygon fill="#63b8ff" stroke="#63b8ff" points="192.76,-15.9 182.25,-17.2 191.28,-22.74 192.76,-15.9"/>
</a>
</g>
</g>
<!-- Node7&#45;&gt;Node5 -->
<g id="edge15_Node000007_Node000005" class="edge">
<title>Node7&#45;&gt;Node5</title>
<g id="a_edge15_Node000007_Node000005"><a xlink:title=" ">
<path fill="none" stroke="#63b8ff" d="M825.24,-114.42C735.49,-108 575.31,-94.13 521,-74 491.11,-62.92 461.31,-40.73 443.26,-25.74"/>
<polygon fill="#63b8ff" stroke="#63b8ff" points="445.28,-22.86 435.4,-19.04 440.75,-28.19 445.28,-22.86"/>
</a>
</g>
</g>
<!-- Node8 -->
<g id="Node000008" class="node">
<title>Node8</title>
<g id="a_Node000008"><a xlink:title=" ">
<polygon fill="#e0e0e0" stroke="#999999" points="583.5,-74 530.5,-74 530.5,-55 583.5,-55 583.5,-74"/>
<text text-anchor="middle" x="557" y="-62" font-family="Helvetica,sans-Serif" font-size="10.00">ctype.h</text>
</a>
</g>
</g>
<!-- Node7&#45;&gt;Node8 -->
<g id="edge10_Node000007_Node000008" class="edge">
<title>Node7&#45;&gt;Node8</title>
<g id="a_edge10_Node000007_Node000008"><a xlink:title=" ">
<path fill="none" stroke="#63b8ff" d="M825.36,-110.73C767.48,-103.18 678.93,-90.68 593.55,-74.17"/>
<polygon fill="#63b8ff" stroke="#63b8ff" points="594.18,-70.73 583.7,-72.24 592.84,-77.6 594.18,-70.73"/>
</a>
</g>
</g>
<!-- Node9 -->
<g id="Node000009" class="node">
<title>Node9</title>
<g id="a_Node000009"><a xlink:title=" ">
<polygon fill="#e0e0e0" stroke="#999999" points="656.5,-74 601.5,-74 601.5,-55 656.5,-55 656.5,-74"/>
<text text-anchor="middle" x="629" y="-62" font-family="Helvetica,sans-Serif" font-size="10.00">fstream</text>
</a>
</g>
</g>
<!-- Node7&#45;&gt;Node9 -->
<g id="edge12_Node000007_Node000009" class="edge">
<title>Node7&#45;&gt;Node9</title>
<g id="a_edge12_Node000007_Node000009"><a xlink:title=" ">
<path fill="none" stroke="#63b8ff" d="M843.7,-110C800.94,-101.71 734.12,-88.53 666.8,-74.12"/>
<polygon fill="#63b8ff" stroke="#63b8ff" points="667.37,-70.67 656.86,-71.99 665.9,-77.51 667.37,-70.67"/>
</a>
</g>
</g>
<!-- Node10 -->
<g id="Node000010" class="node">
<title>Node10</title>
<g id="a_Node000010"><a xlink:title=" ">
<polygon fill="#e0e0e0" stroke="#999999" points="731,-74 675,-74 675,-55 731,-55 731,-74"/>
<text text-anchor="middle" x="703" y="-62" font-family="Helvetica,sans-Serif" font-size="10.00">sstream</text>
</a>
</g>
</g>
<!-- Node7&#45;&gt;Node10 -->
<g id="edge13_Node000007_Node000010" class="edge">
<title>Node7&#45;&gt;Node10</title>
<g id="a_edge13_Node000007_Node000010"><a xlink:title=" ">
<path fill="none" stroke="#63b8ff" d="M858.28,-109.98C826.39,-100.85 775.66,-86.32 740.92,-76.36"/>
<polygon fill="#63b8ff" stroke="#63b8ff" points="741.71,-72.95 731.13,-73.56 739.78,-79.68 741.71,-72.95"/>
</a>
</g>
</g>
<!-- Node11 -->
<g id="Node000011" class="node">
<title>Node11</title>
<g id="a_Node000011"><a xlink:title=" ">
<polygon fill="#e0e0e0" stroke="#999999" points="1119,-19 1075,-19 1075,0 1119,0 1119,-19"/>
<text text-anchor="middle" x="1097" y="-7" font-family="Helvetica,sans-Serif" font-size="10.00">string</text>
</a>
</g>
</g>
<!-- Node7&#45;&gt;Node11 -->
<g id="edge14_Node000007_Node000011" class="edge">
<title>Node7&#45;&gt;Node11</title>
<g id="a_edge14_Node000007_Node000011"><a xlink:title=" ">
<path fill="none" stroke="#63b8ff" d="M940.84,-110C970.95,-103.45 1008.45,-92.33 1038,-74 1057.3,-62.03 1074.35,-42.1 1085.1,-27.76"/>
<polygon fill="#63b8ff" stroke="#63b8ff" points="1088.2,-29.44 1091.21,-19.28 1082.52,-25.35 1088.2,-29.44"/>
</a>
</g>
</g>
<!-- Node12 -->
<g id="Node000012" class="node">
<title>Node12</title>
<g id="a_Node000012"><a xlink:title=" ">
<polygon fill="#e0e0e0" stroke="#999999" points="1239,-74 1183,-74 1183,-55 1239,-55 1239,-74"/>
<text text-anchor="middle" x="1211" y="-62" font-family="Helvetica,sans-Serif" font-size="10.00">assert.h</text>
</a>
</g>
</g>
<!-- Node7&#45;&gt;Node12 -->
<g id="edge16_Node000007_Node000012" class="edge">
<title>Node7&#45;&gt;Node12</title>
<g id="a_edge16_Node000007_Node000012"><a xlink:title=" ">
<path fill="none" stroke="#63b8ff" d="M939.9,-109.98C1004.87,-99.32 1114.64,-81.31 1172.56,-71.81"/>
<polygon fill="#63b8ff" stroke="#63b8ff" points="1173.45,-75.21 1182.75,-70.13 1172.32,-68.3 1173.45,-75.21"/>
</a>
</g>
</g>
<!-- Node13 -->
<g id="Node000013" class="node">
<title>Node13</title>
<g id="a_Node000013"><a xlink:title=" ">
<polygon fill="#e0e0e0" stroke="#999999" points="951.5,-19 856.5,-19 856.5,0 951.5,0 951.5,-19"/>
<text text-anchor="middle" x="904" y="-7" font-family="Helvetica,sans-Serif" font-size="10.00">boost/regex.hpp</text>
</a>
</g>
</g>
<!-- Node7&#45;&gt;Node13 -->
<g id="edge17_Node000007_Node000013" class="edge">
<title>Node7&#45;&gt;Node13</title>
<g id="a_edge17_Node000007_Node000013"><a xlink:title=" ">
<path fill="none" stroke="#63b8ff" d="M950.51,-113.6C977.04,-108.06 1005.58,-96.76 1022,-74 1041.89,-46.43 1000.63,-29.65 961.55,-20.32"/>
<polygon fill="#63b8ff" stroke="#63b8ff" points="962.22,-16.88 951.7,-18.1 960.69,-23.71 962.22,-16.88"/>
</a>
</g>
</g>
<!-- Node14 -->
<g id="Node000014" class="node">
<title>Node14</title>
<g id="a_Node000014"><a xlink:href="ematch__src_2utils_2gdb_2gdbUtils_8hh.html" target="_top" xlink:title=" ">
<polygon fill="white" stroke="#666666" points="1374.5,-74 1257.5,-74 1257.5,-55 1374.5,-55 1374.5,-74"/>
<text text-anchor="middle" x="1316" y="-62" font-family="Helvetica,sans-Serif" font-size="10.00">utils/gdb/gdbUtils.hh</text>
</a>
</g>
</g>
<!-- Node7&#45;&gt;Node14 -->
<g id="edge18_Node000007_Node000014" class="edge">
<title>Node7&#45;&gt;Node14</title>
<g id="a_edge18_Node000007_Node000014"><a xlink:title=" ">
<path fill="none" stroke="#63b8ff" d="M950.76,-110.77C1020.49,-102.17 1136.73,-87.83 1247.39,-74.07"/>
<polygon fill="#63b8ff" stroke="#63b8ff" points="1247.9,-77.54 1257.4,-72.83 1247.04,-70.59 1247.9,-77.54"/>
</a>
</g>
</g>
<!-- Node19 -->
<g id="Node000019" class="node">
<title>Node19</title>
<g id="a_Node000019"><a xlink:href="ematch__src_2utils_2stl_2stlTypes_8hh.html" target="_top" xlink:title=" ">
<polygon fill="white" stroke="#666666" points="1013,-74 903,-74 903,-55 1013,-55 1013,-74"/>
<text text-anchor="middle" x="958" y="-62" font-family="Helvetica,sans-Serif" font-size="10.00">utils/stl/stlTypes.hh</text>
</a>
</g>
</g>
<!-- Node7&#45;&gt;Node19 -->
<g id="edge24_Node000007_Node000019" class="edge">
<title>Node7&#45;&gt;Node19</title>
<g id="a_edge24_Node000007_Node000019"><a xlink:title=" ">
<path fill="none" stroke="#63b8ff" d="M899.25,-109.98C909.8,-102 925.8,-89.88 938.44,-80.31"/>
<polygon fill="#63b8ff" stroke="#63b8ff" points="940.69,-83 946.55,-74.17 936.46,-77.42 940.69,-83"/>
</a>
</g>
</g>
<!-- Node20 -->
<g id="Node000020" class="node">
<title>Node20</title>
<g id="a_Node000020"><a xlink:href="ematch__src_2utils_2boost_2boostUtils_8hh.html" target="_top" xlink:title=" ">
<polygon fill="white" stroke="#666666" points="884.5,-74 749.5,-74 749.5,-55 884.5,-55 884.5,-74"/>
<text text-anchor="middle" x="817" y="-62" font-family="Helvetica,sans-Serif" font-size="10.00">utils/boost/boostUtils.hh</text>
</a>
</g>
</g>
<!-- Node7&#45;&gt;Node20 -->
<g id="edge27_Node000007_Node000020" class="edge">
<title>Node7&#45;&gt;Node20</title>
<g id="a_edge27_Node000007_Node000020"><a xlink:title=" ">
<path fill="none" stroke="#63b8ff" d="M876.59,-109.98C865.89,-102 849.66,-89.88 836.84,-80.31"/>
<polygon fill="#63b8ff" stroke="#63b8ff" points="838.72,-77.35 828.61,-74.17 834.53,-82.96 838.72,-77.35"/>
</a>
</g>
</g>
<!-- Node14&#45;&gt;Node2 -->
<g id="edge20_Node000014_Node000002" class="edge">
<title>Node14&#45;&gt;Node2</title>
<g id="a_edge20_Node000014_Node000002"><a xlink:title=" ">
<path fill="none" stroke="#63b8ff" d="M1257.43,-55.86C1254.24,-55.55 1251.08,-55.25 1248,-55 1141.36,-46.19 377.13,-18.55 192.21,-11.93"/>
<polygon fill="#63b8ff" stroke="#63b8ff" points="192.22,-8.43 182.11,-11.57 191.97,-15.43 192.22,-8.43"/>
</a>
</g>
</g>
<!-- Node15 -->
<g id="Node000015" class="node">
<title>Node15</title>
<g id="a_Node000015"><a xlink:title=" ">
<polygon fill="#e0e0e0" stroke="#999999" points="1377.5,-19 1324.5,-19 1324.5,0 1377.5,0 1377.5,-19"/>
<text text-anchor="middle" x="1351" y="-7" font-family="Helvetica,sans-Serif" font-size="10.00">cstdarg</text>
</a>
</g>
</g>
<!-- Node14&#45;&gt;Node15 -->
<g id="edge19_Node000014_Node000015" class="edge">
<title>Node14&#45;&gt;Node15</title>
<g id="a_edge19_Node000014_Node000015"><a xlink:title=" ">
<path fill="none" stroke="#63b8ff" d="M1321.78,-54.75C1326.62,-47.42 1333.68,-36.73 1339.64,-27.7"/>
<polygon fill="#63b8ff" stroke="#63b8ff" points="1342.74,-29.36 1345.33,-19.09 1336.9,-25.5 1342.74,-29.36"/>
</a>
</g>
</g>
<!-- Node16 -->
<g id="Node000016" class="node">
<title>Node16</title>
<g id="a_Node000016"><a xlink:title=" ">
<polygon fill="#e0e0e0" stroke="#999999" points="1444.5,-19 1395.5,-19 1395.5,0 1444.5,0 1444.5,-19"/>
<text text-anchor="middle" x="1420" y="-7" font-family="Helvetica,sans-Serif" font-size="10.00">cstdlib</text>
</a>
</g>
</g>
<!-- Node14&#45;&gt;Node16 -->
<g id="edge21_Node000014_Node000016" class="edge">
<title>Node14&#45;&gt;Node16</title>
<g id="a_edge21_Node000014_Node000016"><a xlink:title=" ">
<path fill="none" stroke="#63b8ff" d="M1332.71,-54.98C1349.21,-46.57 1374.7,-33.59 1393.88,-23.81"/>
<polygon fill="#63b8ff" stroke="#63b8ff" points="1395.67,-26.83 1402.99,-19.17 1392.49,-20.59 1395.67,-26.83"/>
</a>
</g>
</g>
<!-- Node17 -->
<g id="Node000017" class="node">
<title>Node17</title>
<g id="a_Node000017"><a xlink:title=" ">
<polygon fill="#e0e0e0" stroke="#999999" points="1236,-19 1190,-19 1190,0 1236,0 1236,-19"/>
<text text-anchor="middle" x="1213" y="-7" font-family="Helvetica,sans-Serif" font-size="10.00">cstdio</text>
</a>
</g>
</g>
<!-- Node14&#45;&gt;Node17 -->
<g id="edge22_Node000014_Node000017" class="edge">
<title>Node14&#45;&gt;Node17</title>
<g id="a_edge22_Node000014_Node000017"><a xlink:title=" ">
<path fill="none" stroke="#63b8ff" d="M1299.45,-54.98C1283.11,-46.57 1257.87,-33.59 1238.87,-23.81"/>
<polygon fill="#63b8ff" stroke="#63b8ff" points="1240.34,-20.63 1229.85,-19.17 1237.14,-26.86 1240.34,-20.63"/>
</a>
</g>
</g>
<!-- Node18 -->
<g id="Node000018" class="node">
<title>Node18</title>
<g id="a_Node000018"><a xlink:title=" ">
<polygon fill="#e0e0e0" stroke="#999999" points="1306,-19 1254,-19 1254,0 1306,0 1306,-19"/>
<text text-anchor="middle" x="1280" y="-7" font-family="Helvetica,sans-Serif" font-size="10.00">cassert</text>
</a>
</g>
</g>
<!-- Node14&#45;&gt;Node18 -->
<g id="edge23_Node000014_Node000018" class="edge">
<title>Node14&#45;&gt;Node18</title>
<g id="a_edge23_Node000014_Node000018"><a xlink:title=" ">
<path fill="none" stroke="#63b8ff" d="M1310.06,-54.75C1305.02,-47.34 1297.66,-36.5 1291.49,-27.41"/>
<polygon fill="#63b8ff" stroke="#63b8ff" points="1294.35,-25.39 1285.83,-19.09 1288.56,-29.33 1294.35,-25.39"/>
</a>
</g>
</g>
<!-- Node19&#45;&gt;Node5 -->
<g id="edge26_Node000019_Node000005" class="edge">
<title>Node19&#45;&gt;Node5</title>
<g id="a_edge26_Node000019_Node000005"><a xlink:title=" ">
<path fill="none" stroke="#63b8ff" d="M902.86,-56.04C899.86,-55.68 896.9,-55.33 894,-55 731.74,-36.52 537.23,-19.74 460,-13.3"/>
<polygon fill="#63b8ff" stroke="#63b8ff" points="460.15,-9.8 449.9,-12.46 459.57,-16.77 460.15,-9.8"/>
</a>
</g>
</g>
<!-- Node19&#45;&gt;Node11 -->
<g id="edge25_Node000019_Node000011" class="edge">
<title>Node19&#45;&gt;Node11</title>
<g id="a_edge25_Node000019_Node000011"><a xlink:title=" ">
<path fill="none" stroke="#63b8ff" d="M980.33,-54.98C1003.33,-46.21 1039.38,-32.47 1065.32,-22.58"/>
<polygon fill="#63b8ff" stroke="#63b8ff" points="1066.63,-25.83 1074.72,-18.99 1064.13,-19.29 1066.63,-25.83"/>
</a>
</g>
</g>
<!-- Node20&#45;&gt;Node2 -->
<g id="edge28_Node000020_Node000002" class="edge">
<title>Node20&#45;&gt;Node2</title>
<g id="a_edge28_Node000020_Node000002"><a xlink:title=" ">
<path fill="none" stroke="#63b8ff" d="M749.41,-55.91C746.23,-55.59 743.08,-55.29 740,-55 534.16,-35.86 287.2,-19.23 192.06,-13.05"/>
<polygon fill="#63b8ff" stroke="#63b8ff" points="192.22,-9.56 182.01,-12.41 191.77,-16.54 192.22,-9.56"/>
</a>
</g>
</g>
<!-- Node20&#45;&gt;Node13 -->
<g id="edge29_Node000020_Node000013" class="edge">
<title>Node20&#45;&gt;Node13</title>
<g id="a_edge29_Node000020_Node000013"><a xlink:title=" ">
<path fill="none" stroke="#63b8ff" d="M830.98,-54.98C844.47,-46.77 865.13,-34.18 881.04,-24.49"/>
<polygon fill="#63b8ff" stroke="#63b8ff" points="883.05,-27.36 889.77,-19.17 879.41,-21.38 883.05,-27.36"/>
</a>
</g>
</g>
<!-- Node21&#45;&gt;Node2 -->
<g id="edge33_Node000021_Node000002" class="edge">
<title>Node21&#45;&gt;Node2</title>
<g id="a_edge33_Node000021_Node000002"><a xlink:title=" ">
<path fill="none" stroke="#63b8ff" d="M1201.15,-172C972,-166.88 255.16,-149.32 210,-129 179.04,-115.07 170.93,-104.96 157,-74 150.68,-59.96 149.76,-42.41 150.23,-29.32"/>
<polygon fill="#63b8ff" stroke="#63b8ff" points="153.73,-29.38 150.9,-19.17 146.75,-28.91 153.73,-29.38"/>
</a>
</g>
</g>
<!-- Node21&#45;&gt;Node5 -->
<g id="edge32_Node000021_Node000005" class="edge">
<title>Node21&#45;&gt;Node5</title>
<g id="a_edge32_Node000021_Node000005"><a xlink:title=" ">
<path fill="none" stroke="#63b8ff" d="M1201.38,-171.35C1032.14,-165.1 604.01,-142.75 481,-74 461.57,-63.14 445.77,-42.67 436.17,-27.9"/>
<polygon fill="#63b8ff" stroke="#63b8ff" points="439.01,-25.85 430.78,-19.18 433.05,-29.53 439.01,-25.85"/>
</a>
</g>
</g>
<!-- Node21&#45;&gt;Node7 -->
<g id="edge37_Node000021_Node000007" class="edge">
<title>Node21&#45;&gt;Node7</title>
<g id="a_edge37_Node000021_Node000007"><a xlink:title=" ">
<path fill="none" stroke="#63b8ff" d="M1209.46,-164.98C1141.44,-155.57 1032,-140.43 960.04,-130.47"/>
<polygon fill="#63b8ff" stroke="#63b8ff" points="960.09,-126.94 949.7,-129.04 959.13,-133.88 960.09,-126.94"/>
</a>
</g>
</g>
<!-- Node21&#45;&gt;Node12 -->
<g id="edge31_Node000021_Node000012" class="edge">
<title>Node21&#45;&gt;Node12</title>
<g id="a_edge31_Node000021_Node000012"><a xlink:title=" ">
<path fill="none" stroke="#63b8ff" d="M1260.83,-164.95C1251.56,-156.65 1238.11,-143.24 1230,-129 1222.07,-115.08 1217.15,-97.52 1214.31,-84.4"/>
<polygon fill="#63b8ff" stroke="#63b8ff" points="1217.67,-83.35 1212.32,-74.21 1210.8,-84.69 1217.67,-83.35"/>
</a>
</g>
</g>
<!-- Node21&#45;&gt;Node14 -->
<g id="edge36_Node000021_Node000014" class="edge">
<title>Node21&#45;&gt;Node14</title>
<g id="a_edge36_Node000021_Node000014"><a xlink:title=" ">
<path fill="none" stroke="#63b8ff" d="M1340.73,-165.7C1386.93,-158.93 1441.59,-147.29 1456,-129 1480.13,-98.37 1431.12,-82.02 1384.59,-73.63"/>
<polygon fill="#63b8ff" stroke="#63b8ff" points="1385.17,-70.17 1374.72,-71.95 1384,-77.08 1385.17,-70.17"/>
</a>
</g>
</g>
<!-- Node22 -->
<g id="Node000022" class="node">
<title>Node22</title>
<g id="a_Node000022"><a xlink:title=" ">
<polygon fill="#e0e0e0" stroke="#999999" points="1303,-129 1239,-129 1239,-110 1303,-110 1303,-129"/>
<text text-anchor="middle" x="1271" y="-117" font-family="Helvetica,sans-Serif" font-size="10.00">algorithm</text>
</a>
</g>
</g>
<!-- Node21&#45;&gt;Node22 -->
<g id="edge34_Node000021_Node000022" class="edge">
<title>Node21&#45;&gt;Node22</title>
<g id="a_edge34_Node000021_Node000022"><a xlink:title=" ">
<path fill="none" stroke="#63b8ff" d="M1271,-164.75C1271,-157.8 1271,-147.85 1271,-139.13"/>
<polygon fill="#63b8ff" stroke="#63b8ff" points="1274.5,-139.09 1271,-129.09 1267.5,-139.09 1274.5,-139.09"/>
</a>
</g>
</g>
<!-- Node23 -->
<g id="Node000023" class="node">
<title>Node23</title>
<g id="a_Node000023"><a xlink:title=" ">
<polygon fill="#e0e0e0" stroke="#999999" points="1446.5,-129 1321.5,-129 1321.5,-110 1446.5,-110 1446.5,-129"/>
<text text-anchor="middle" x="1384" y="-117" font-family="Helvetica,sans-Serif" font-size="10.00">boost/lexical_cast.hpp</text>
</a>
</g>
</g>
<!-- Node21&#45;&gt;Node23 -->
<g id="edge35_Node000021_Node000023" class="edge">
<title>Node21&#45;&gt;Node23</title>
<g id="a_edge35_Node000021_Node000023"><a xlink:title=" ">
<path fill="none" stroke="#63b8ff" d="M1289.16,-164.98C1307.25,-156.5 1335.28,-143.35 1356.19,-133.54"/>
<polygon fill="#63b8ff" stroke="#63b8ff" points="1357.95,-136.59 1365.51,-129.17 1354.97,-130.25 1357.95,-136.59"/>
</a>
</g>
</g>
<!-- Node24&#45;&gt;Node2 -->
<g id="edge40_Node000024_Node000002" class="edge">
<title>Node24&#45;&gt;Node2</title>
<g id="a_edge40_Node000024_Node000002"><a xlink:title=" ">
<path fill="none" stroke="#63b8ff" d="M755.22,-240.22C581.62,-239.99 171.04,-228.68 85,-129 76.36,-118.99 69.87,-88.86 89,-55 96.58,-41.58 110.07,-31.24 122.63,-23.91"/>
<polygon fill="#63b8ff" stroke="#63b8ff" points="124.38,-26.94 131.52,-19.11 121.06,-20.79 124.38,-26.94"/>
</a>
</g>
</g>
<!-- Node24&#45;&gt;Node5 -->
<g id="edge39_Node000024_Node000005" class="edge">
<title>Node24&#45;&gt;Node5</title>
<g id="a_edge39_Node000024_Node000005"><a xlink:title=" ">
<path fill="none" stroke="#63b8ff" d="M755.22,-222.97C671.51,-201.57 539.11,-156.8 455,-74 442.46,-61.66 434.82,-42.89 430.55,-28.95"/>
<polygon fill="#63b8ff" stroke="#63b8ff" points="433.85,-27.75 427.82,-19.03 427.1,-29.6 433.85,-27.75"/>
</a>
</g>
</g>
<!-- Node24&#45;&gt;Node11 -->
<g id="edge41_Node000024_Node000011" class="edge">
<title>Node24&#45;&gt;Node11</title>
<g id="a_edge41_Node000024_Node000011"><a xlink:title=" ">
<path fill="none" stroke="#63b8ff" d="M887.01,-219.9C945.99,-195.45 1038.14,-147.67 1084,-74 1092.28,-60.7 1095.4,-43.09 1096.52,-29.78"/>
<polygon fill="#63b8ff" stroke="#63b8ff" points="1100.04,-29.59 1097.07,-19.42 1093.05,-29.22 1100.04,-29.59"/>
</a>
</g>
</g>
<!-- Node24&#45;&gt;Node12 -->
<g id="edge42_Node000024_Node000012" class="edge">
<title>Node24&#45;&gt;Node12</title>
<g id="a_edge42_Node000024_Node000012"><a xlink:title=" ">
<path fill="none" stroke="#63b8ff" d="M910.71,-229.49C997.98,-217.69 1129.97,-197.91 1149,-184 1182.78,-159.3 1199.73,-110.63 1206.8,-84"/>
<polygon fill="#63b8ff" stroke="#63b8ff" points="1210.25,-84.61 1209.25,-74.06 1203.46,-82.94 1210.25,-84.61"/>
</a>
</g>
</g>
<!-- Node25 -->
<g id="Node000025" class="node">
<title>Node25</title>
<g id="a_Node000025"><a xlink:href="stringBinaryIO_8hh.html" target="_top" xlink:title=" ">
<polygon fill="white" stroke="#666666" points="907,-184 767,-184 767,-165 907,-165 907,-184"/>
<text text-anchor="middle" x="837" y="-172" font-family="Helvetica,sans-Serif" font-size="10.00">utils/stl/stringBinaryIO.hh</text>
</a>
</g>
</g>
<!-- Node24&#45;&gt;Node25 -->
<g id="edge43_Node000024_Node000025" class="edge">
<title>Node24&#45;&gt;Node25</title>
<g id="a_edge43_Node000024_Node000025"><a xlink:title=" ">
<path fill="none" stroke="#63b8ff" d="M834.22,-219.95C834.73,-211.85 835.31,-202.5 835.81,-194.47"/>
<polygon fill="#63b8ff" stroke="#63b8ff" points="839.32,-194.46 836.45,-184.26 832.34,-194.02 839.32,-194.46"/>
</a>
</g>
</g>
<!-- Node25&#45;&gt;Node2 -->
<g id="edge44_Node000025_Node000002" class="edge">
<title>Node25&#45;&gt;Node2</title>
<g id="a_edge44_Node000025_Node000002"><a xlink:title=" ">
<path fill="none" stroke="#63b8ff" d="M766.88,-171.84C587.19,-167.24 122.65,-153.06 100,-129 77.46,-105.05 86.25,-84.87 100,-55 105.75,-42.52 116.91,-32.24 127.42,-24.71"/>
<polygon fill="#63b8ff" stroke="#63b8ff" points="129.57,-27.49 135.97,-19.05 125.7,-21.65 129.57,-27.49"/>
</a>
</g>
</g>
<!-- Node25&#45;&gt;Node7 -->
<g id="edge46_Node000025_Node000007" class="edge">
<title>Node25&#45;&gt;Node7</title>
<g id="a_edge46_Node000025_Node000007"><a xlink:title=" ">
<path fill="none" stroke="#63b8ff" d="M845.42,-164.75C852.77,-157.11 863.63,-145.82 872.54,-136.56"/>
<polygon fill="#63b8ff" stroke="#63b8ff" points="875.32,-138.72 879.74,-129.09 870.28,-133.87 875.32,-138.72"/>
</a>
</g>
</g>
<!-- Node25&#45;&gt;Node11 -->
<g id="edge45_Node000025_Node000011" class="edge">
<title>Node25&#45;&gt;Node11</title>
<g id="a_edge45_Node000025_Node000011"><a xlink:title=" ">
<path fill="none" stroke="#63b8ff" d="M878.48,-164.9C928.21,-152.64 1011.29,-125.66 1063,-74 1075.83,-61.18 1085.04,-42.51 1090.61,-28.73"/>
<polygon fill="#63b8ff" stroke="#63b8ff" points="1093.9,-29.91 1094.16,-19.32 1087.35,-27.44 1093.9,-29.91"/>
</a>
</g>
</g>
<!-- Node26&#45;&gt;Node21 -->
<g id="edge49_Node000026_Node000021" class="edge">
<title>Node26&#45;&gt;Node21</title>
<g id="a_edge49_Node000026_Node000021"><a xlink:title=" ">
<path fill="none" stroke="#63b8ff" d="M1271,-225.3C1271,-216.2 1271,-204.29 1271,-194.4"/>
<polygon fill="#63b8ff" stroke="#63b8ff" points="1274.5,-194.34 1271,-184.34 1267.5,-194.34 1274.5,-194.34"/>
</a>
</g>
</g>
<!-- Node27 -->
<g id="Node000027" class="node">
<title>Node27</title>
<g id="a_Node000027"><a xlink:title=" ">
<polygon fill="#e0e0e0" stroke="#999999" points="1423.5,-184 1358.5,-184 1358.5,-165 1423.5,-165 1423.5,-184"/>
<text text-anchor="middle" x="1391" y="-172" font-family="Helvetica,sans-Serif" font-size="10.00">functional</text>
</a>
</g>
</g>
<!-- Node26&#45;&gt;Node27 -->
<g id="edge48_Node000026_Node000027" class="edge">
<title>Node26&#45;&gt;Node27</title>
<g id="a_edge48_Node000026_Node000027"><a xlink:title=" ">
<path fill="none" stroke="#63b8ff" d="M1297.33,-225.45C1317.82,-214.53 1346.06,-199.47 1366.16,-188.75"/>
<polygon fill="#63b8ff" stroke="#63b8ff" points="1367.85,-191.81 1375.03,-184.02 1364.56,-185.64 1367.85,-191.81"/>
</a>
</g>
</g>
</g>
</svg>

<g id="navigator" transform="translate(0 0)" fill="#404254">
  <rect fill="#f2f5e9" fill-opacity="0.5" stroke="#606060" stroke-width=".5" x="0" y="0" width="60" height="60"/>
  <use id="zoomplus" xlink:href="#zoomPlus" x="17" y="9" onmousedown="handleZoom(evt,'in')"/>
  <use id="zoomminus" xlink:href="#zoomMin" x="42" y="9" onmousedown="handleZoom(evt,'out')"/>
  <use id="reset" xlink:href="#resetDef" x="30" y="36" onmousedown="handleReset()"/>
   <use id="arrowup" xlink:href="#arrowUp" x="0" y="0" onmousedown="handlePan(0,-1)"/>
  <use id="arrowright" xlink:href="#arrowRight" x="0" y="0" onmousedown="handlePan(1,0)"/>
  <use id="arrowdown" xlink:href="#arrowDown" x="0" y="0" onmousedown="handlePan(0,1)"/>
  <use id="arrowleft" xlink:href="#arrowLeft" x="0" y="0" onmousedown="handlePan(-1,0)"/>
</g>
<svg viewBox="0 0 15 15" width="100%" height="30px" preserveAspectRatio="xMaxYMin meet">
 <g id="arrow_out" transform="scale(0.3 0.3)">
  <a xlink:href="graph_2run_2runAllShortestEdgeLengthPaths_8cc__incl_org.svg" target="_base">
   <rect id="button" ry="5" rx="5" y="6" x="6" height="38" width="38"
        fill="#f2f5e9" fill-opacity="0.5" stroke="#606060" stroke-width="1.0"/>
   <path id="arrow"
     d="M 11.500037,31.436501 C 11.940474,20.09759 22.043105,11.32322 32.158766,21.979434 L 37.068811,17.246167 C 37.068811,17.246167 37.088388,32 37.088388,32 L 22.160133,31.978069 C 22.160133,31.978069 26.997745,27.140456 26.997745,27.140456 C 18.528582,18.264221 13.291696,25.230495 11.500037,31.436501 z"
     style="fill:#404040;"/>
  </a>
 </g>
</svg>

<style type='text/css'>
<![CDATA[
[data-mouse-over-selected='false'] { opacity: 0.7; }
[data-mouse-over-selected='true']  { opacity: 1.0; }
]]>
</style>
<script type="application/ecmascript"><![CDATA[
document.addEventListener('DOMContentLoaded', (event) => {
  highlightEdges();
  highlightAdjacentNodes();
});
]]></script>
</svg>
