<?xml version="1.0" encoding="UTF-8" standalone="no"?>
<!DOCTYPE svg PUBLIC "-//W3C//DTD SVG 1.1//EN"
 "http://www.w3.org/Graphics/SVG/1.1/DTD/svg11.dtd">
<!-- Generated by graphviz version 2.43.0 (0)
 -->
<!-- Title: ematch_src/graph/run/convertMultipleEdgePerLineToOneEdgePerLineFormat.cc Pages: 1 -->
<svg width="1352pt" height="214pt"
 viewBox="0.00 0.00 1351.50 214.00" xmlns="http://www.w3.org/2000/svg" xmlns:xlink="http://www.w3.org/1999/xlink">
<g id="graph0" class="graph" transform="scale(1 1) rotate(0) translate(4 210)">
<title>ematch_src/graph/run/convertMultipleEdgePerLineToOneEdgePerLineFormat.cc</title>
<!-- Node1 -->
<g id="Node000001" class="node">
<title>Node1</title>
<g id="a_Node000001"><a xlink:title=" ">
<polygon fill="#999999" stroke="#666666" points="987,-206 831,-206 831,-165 987,-165 987,-206"/>
<text text-anchor="start" x="839" y="-194" font-family="Helvetica,sans-Serif" font-size="10.00">ematch_src/graph/run</text>
<text text-anchor="start" x="839" y="-183" font-family="Helvetica,sans-Serif" font-size="10.00">/convertMultipleEdgePerLine</text>
<text text-anchor="middle" x="909" y="-172" font-family="Helvetica,sans-Serif" font-size="10.00">ToOneEdgePerLineFormat.cc</text>
</a>
</g>
</g>
<!-- Node2 -->
<g id="Node000002" class="node">
<title>Node2</title>
<g id="a_Node000002"><a xlink:title=" ">
<polygon fill="#e0e0e0" stroke="#999999" points="1134,-19 1074,-19 1074,0 1134,0 1134,-19"/>
<text text-anchor="middle" x="1104" y="-7" font-family="Helvetica,sans-Serif" font-size="10.00">iostream</text>
</a>
</g>
</g>
<!-- Node1&#45;&gt;Node2 -->
<g id="edge1_Node000001_Node000002" class="edge">
<title>Node1&#45;&gt;Node2</title>
<g id="a_edge1_Node000001_Node000002"><a xlink:title=" ">
<path fill="none" stroke="#63b8ff" d="M987.22,-180.9C1052.4,-175.54 1146.46,-162.18 1222,-129 1258.87,-112.8 1276.15,-110.1 1294,-74 1297.74,-66.43 1299.25,-61.62 1294,-55 1275.68,-31.89 1194.39,-19.63 1144.26,-14.15"/>
<polygon fill="#63b8ff" stroke="#63b8ff" points="1144.38,-10.65 1134.07,-13.08 1143.65,-17.61 1144.38,-10.65"/>
</a>
</g>
</g>
<!-- Node3 -->
<g id="Node000003" class="node">
<title>Node3</title>
<g id="a_Node000003"><a xlink:href="ematch__src_2utils_2argvParsing_2ArgvParser_8hh.html" target="_top" xlink:title=" ">
<polygon fill="white" stroke="#666666" points="481.5,-129 314.5,-129 314.5,-110 481.5,-110 481.5,-129"/>
<text text-anchor="middle" x="398" y="-117" font-family="Helvetica,sans-Serif" font-size="10.00">utils/argvParsing/ArgvParser.hh</text>
</a>
</g>
</g>
<!-- Node1&#45;&gt;Node3 -->
<g id="edge2_Node000001_Node000003" class="edge">
<title>Node1&#45;&gt;Node3</title>
<g id="a_edge2_Node000001_Node000003"><a xlink:title=" ">
<path fill="none" stroke="#63b8ff" d="M830.83,-174.71C734.57,-162.65 572.03,-142.3 475.89,-130.26"/>
<polygon fill="#63b8ff" stroke="#63b8ff" points="476.3,-126.78 465.94,-129.01 475.43,-133.73 476.3,-126.78"/>
</a>
</g>
</g>
<!-- Node17 -->
<g id="Node000017" class="node">
<title>Node17</title>
<g id="a_Node000017"><a xlink:href="ematch__src_2utils_2perlish_2perlish_8hh.html" target="_top" xlink:title=" ">
<polygon fill="white" stroke="#666666" points="849.5,-129 724.5,-129 724.5,-110 849.5,-110 849.5,-129"/>
<text text-anchor="middle" x="787" y="-117" font-family="Helvetica,sans-Serif" font-size="10.00">utils/perlish/perlish.hh</text>
</a>
</g>
</g>
<!-- Node1&#45;&gt;Node17 -->
<g id="edge19_Node000001_Node000017" class="edge">
<title>Node1&#45;&gt;Node17</title>
<g id="a_edge19_Node000001_Node000017"><a xlink:title=" ">
<path fill="none" stroke="#63b8ff" d="M871.73,-164.95C852.46,-154.84 829.44,-142.76 812.26,-133.75"/>
<polygon fill="#63b8ff" stroke="#63b8ff" points="813.86,-130.64 803.38,-129.09 810.61,-136.84 813.86,-130.64"/>
</a>
</g>
</g>
<!-- Node22 -->
<g id="Node000022" class="node">
<title>Node22</title>
<g id="a_Node000022"><a xlink:href="graph_2OneEdgePerLineFormat_8hh.html" target="_top" xlink:title=" ">
<polygon fill="white" stroke="#666666" points="1212.5,-129 1057.5,-129 1057.5,-110 1212.5,-110 1212.5,-129"/>
<text text-anchor="middle" x="1135" y="-117" font-family="Helvetica,sans-Serif" font-size="10.00">../OneEdgePerLineFormat.hh</text>
</a>
</g>
</g>
<!-- Node1&#45;&gt;Node22 -->
<g id="edge33_Node000001_Node000022" class="edge">
<title>Node1&#45;&gt;Node22</title>
<g id="a_edge33_Node000001_Node000022"><a xlink:title=" ">
<path fill="none" stroke="#63b8ff" d="M978.04,-164.95C1016.34,-154.1 1062.62,-141 1094.97,-131.84"/>
<polygon fill="#63b8ff" stroke="#63b8ff" points="1096.29,-135.1 1104.96,-129.01 1094.38,-128.37 1096.29,-135.1"/>
</a>
</g>
</g>
<!-- Node3&#45;&gt;Node2 -->
<g id="edge3_Node000003_Node000002" class="edge">
<title>Node3&#45;&gt;Node2</title>
<g id="a_edge3_Node000003_Node000002"><a xlink:title=" ">
<path fill="none" stroke="#63b8ff" d="M470.13,-109.98C532.14,-102.18 623.83,-89.5 703,-74 737.59,-67.23 745.38,-61.63 780,-55 881.48,-35.57 1002.4,-21.28 1063.85,-14.64"/>
<polygon fill="#63b8ff" stroke="#63b8ff" points="1064.33,-18.1 1073.9,-13.56 1063.58,-11.14 1064.33,-18.1"/>
</a>
</g>
</g>
<!-- Node4 -->
<g id="Node000004" class="node">
<title>Node4</title>
<g id="a_Node000004"><a xlink:title=" ">
<polygon fill="#e0e0e0" stroke="#999999" points="138,-74 82,-74 82,-55 138,-55 138,-74"/>
<text text-anchor="middle" x="110" y="-62" font-family="Helvetica,sans-Serif" font-size="10.00">unistd.h</text>
</a>
</g>
</g>
<!-- Node3&#45;&gt;Node4 -->
<g id="edge4_Node000003_Node000004" class="edge">
<title>Node3&#45;&gt;Node4</title>
<g id="a_edge4_Node000003_Node000004"><a xlink:title=" ">
<path fill="none" stroke="#63b8ff" d="M345.45,-109.98C296.76,-101.9 222.06,-89.05 148.19,-74.16"/>
<polygon fill="#63b8ff" stroke="#63b8ff" points="148.75,-70.7 138.25,-72.14 147.35,-77.56 148.75,-70.7"/>
</a>
</g>
</g>
<!-- Node5 -->
<g id="Node000005" class="node">
<title>Node5</title>
<g id="a_Node000005"><a xlink:title=" ">
<polygon fill="#e0e0e0" stroke="#999999" points="206,-74 156,-74 156,-55 206,-55 206,-74"/>
<text text-anchor="middle" x="181" y="-62" font-family="Helvetica,sans-Serif" font-size="10.00">cstring</text>
</a>
</g>
</g>
<!-- Node3&#45;&gt;Node5 -->
<g id="edge5_Node000003_Node000005" class="edge">
<title>Node3&#45;&gt;Node5</title>
<g id="a_edge5_Node000003_Node000005"><a xlink:title=" ">
<path fill="none" stroke="#63b8ff" d="M363.14,-109.98C322.8,-100.13 256.75,-84 216.25,-74.11"/>
<polygon fill="#63b8ff" stroke="#63b8ff" points="216.83,-70.65 206.29,-71.68 215.17,-77.45 216.83,-70.65"/>
</a>
</g>
</g>
<!-- Node6 -->
<g id="Node000006" class="node">
<title>Node6</title>
<g id="a_Node000006"><a xlink:title=" ">
<polygon fill="#e0e0e0" stroke="#999999" points="527.5,-74 472.5,-74 472.5,-55 527.5,-55 527.5,-74"/>
<text text-anchor="middle" x="500" y="-62" font-family="Helvetica,sans-Serif" font-size="10.00">fstream</text>
</a>
</g>
</g>
<!-- Node3&#45;&gt;Node6 -->
<g id="edge6_Node000003_Node000006" class="edge">
<title>Node3&#45;&gt;Node6</title>
<g id="a_edge6_Node000003_Node000006"><a xlink:title=" ">
<path fill="none" stroke="#63b8ff" d="M414.39,-109.98C430.57,-101.57 455.57,-88.59 474.38,-78.81"/>
<polygon fill="#63b8ff" stroke="#63b8ff" points="476.05,-81.89 483.31,-74.17 472.83,-75.68 476.05,-81.89"/>
</a>
</g>
</g>
<!-- Node7 -->
<g id="Node000007" class="node">
<title>Node7</title>
<g id="a_Node000007"><a xlink:title=" ">
<polygon fill="#e0e0e0" stroke="#999999" points="454,-74 398,-74 398,-55 454,-55 454,-74"/>
<text text-anchor="middle" x="426" y="-62" font-family="Helvetica,sans-Serif" font-size="10.00">sstream</text>
</a>
</g>
</g>
<!-- Node3&#45;&gt;Node7 -->
<g id="edge7_Node000003_Node000007" class="edge">
<title>Node3&#45;&gt;Node7</title>
<g id="a_edge7_Node000003_Node000007"><a xlink:title=" ">
<path fill="none" stroke="#63b8ff" d="M402.62,-109.75C406.46,-102.49 412.02,-91.95 416.76,-82.98"/>
<polygon fill="#63b8ff" stroke="#63b8ff" points="419.89,-84.57 421.46,-74.09 413.7,-81.3 419.89,-84.57"/>
</a>
</g>
</g>
<!-- Node8 -->
<g id="Node000008" class="node">
<title>Node8</title>
<g id="a_Node000008"><a xlink:title=" ">
<polygon fill="#e0e0e0" stroke="#999999" points="588.5,-19 541.5,-19 541.5,0 588.5,0 588.5,-19"/>
<text text-anchor="middle" x="565" y="-7" font-family="Helvetica,sans-Serif" font-size="10.00">vector</text>
</a>
</g>
</g>
<!-- Node3&#45;&gt;Node8 -->
<g id="edge8_Node000003_Node000008" class="edge">
<title>Node3&#45;&gt;Node8</title>
<g id="a_edge8_Node000003_Node000008"><a xlink:title=" ">
<path fill="none" stroke="#63b8ff" d="M393.06,-109.66C386.35,-96.34 376.55,-70.99 389,-55 406.29,-32.79 485.11,-19.91 531.2,-14.15"/>
<polygon fill="#63b8ff" stroke="#63b8ff" points="531.81,-17.61 541.33,-12.94 530.98,-10.66 531.81,-17.61"/>
</a>
</g>
</g>
<!-- Node9 -->
<g id="Node000009" class="node">
<title>Node9</title>
<g id="a_Node000009"><a xlink:title=" ">
<polygon fill="#e0e0e0" stroke="#999999" points="64,-74 0,-74 0,-55 64,-55 64,-74"/>
<text text-anchor="middle" x="32" y="-62" font-family="Helvetica,sans-Serif" font-size="10.00">algorithm</text>
</a>
</g>
</g>
<!-- Node3&#45;&gt;Node9 -->
<g id="edge9_Node000003_Node000009" class="edge">
<title>Node3&#45;&gt;Node9</title>
<g id="a_edge9_Node000003_Node000009"><a xlink:title=" ">
<path fill="none" stroke="#63b8ff" d="M325.17,-109.97C261.48,-102.19 166.27,-89.75 74.24,-74.11"/>
<polygon fill="#63b8ff" stroke="#63b8ff" points="74.64,-70.63 64.19,-72.39 73.45,-77.53 74.64,-70.63"/>
</a>
</g>
</g>
<!-- Node10 -->
<g id="Node000010" class="node">
<title>Node10</title>
<g id="a_Node000010"><a xlink:href="ematch__src_2utils_2gdb_2gdbUtils_8hh.html" target="_top" xlink:title=" ">
<polygon fill="white" stroke="#666666" points="341.5,-74 224.5,-74 224.5,-55 341.5,-55 341.5,-74"/>
<text text-anchor="middle" x="283" y="-62" font-family="Helvetica,sans-Serif" font-size="10.00">utils/gdb/gdbUtils.hh</text>
</a>
</g>
</g>
<!-- Node3&#45;&gt;Node10 -->
<g id="edge10_Node000003_Node000010" class="edge">
<title>Node3&#45;&gt;Node10</title>
<g id="a_edge10_Node000003_Node000010"><a xlink:title=" ">
<path fill="none" stroke="#63b8ff" d="M379.52,-109.98C361.02,-101.46 332.32,-88.23 311.02,-78.41"/>
<polygon fill="#63b8ff" stroke="#63b8ff" points="312.36,-75.18 301.81,-74.17 309.43,-81.53 312.36,-75.18"/>
</a>
</g>
</g>
<!-- Node15 -->
<g id="Node000015" class="node">
<title>Node15</title>
<g id="a_Node000015"><a xlink:href="ematch__src_2utils_2stl_2stlTypes_8hh.html" target="_top" xlink:title=" ">
<polygon fill="white" stroke="#666666" points="694,-74 584,-74 584,-55 694,-55 694,-74"/>
<text text-anchor="middle" x="639" y="-62" font-family="Helvetica,sans-Serif" font-size="10.00">utils/stl/stlTypes.hh</text>
</a>
</g>
</g>
<!-- Node3&#45;&gt;Node15 -->
<g id="edge16_Node000003_Node000015" class="edge">
<title>Node3&#45;&gt;Node15</title>
<g id="a_edge16_Node000003_Node000015"><a xlink:title=" ">
<path fill="none" stroke="#63b8ff" d="M436.72,-109.98C478.41,-100.82 544.82,-86.21 590.09,-76.26"/>
<polygon fill="#63b8ff" stroke="#63b8ff" points="590.96,-79.65 599.98,-74.08 589.46,-72.81 590.96,-79.65"/>
</a>
</g>
</g>
<!-- Node10&#45;&gt;Node2 -->
<g id="edge12_Node000010_Node000002" class="edge">
<title>Node10&#45;&gt;Node2</title>
<g id="a_edge12_Node000010_Node000002"><a xlink:title=" ">
<path fill="none" stroke="#63b8ff" d="M341.58,-58.61C357,-57.38 373.62,-56.09 389,-55 645.63,-36.73 954.38,-18.93 1063.45,-12.77"/>
<polygon fill="#63b8ff" stroke="#63b8ff" points="1063.88,-16.25 1073.67,-12.19 1063.49,-9.26 1063.88,-16.25"/>
</a>
</g>
</g>
<!-- Node11 -->
<g id="Node000011" class="node">
<title>Node11</title>
<g id="a_Node000011"><a xlink:title=" ">
<polygon fill="#e0e0e0" stroke="#999999" points="413.5,-19 360.5,-19 360.5,0 413.5,0 413.5,-19"/>
<text text-anchor="middle" x="387" y="-7" font-family="Helvetica,sans-Serif" font-size="10.00">cstdarg</text>
</a>
</g>
</g>
<!-- Node10&#45;&gt;Node11 -->
<g id="edge11_Node000010_Node000011" class="edge">
<title>Node10&#45;&gt;Node11</title>
<g id="a_edge11_Node000010_Node000011"><a xlink:title=" ">
<path fill="none" stroke="#63b8ff" d="M299.71,-54.98C316.21,-46.57 341.7,-33.59 360.88,-23.81"/>
<polygon fill="#63b8ff" stroke="#63b8ff" points="362.67,-26.83 369.99,-19.17 359.49,-20.59 362.67,-26.83"/>
</a>
</g>
</g>
<!-- Node12 -->
<g id="Node000012" class="node">
<title>Node12</title>
<g id="a_Node000012"><a xlink:title=" ">
<polygon fill="#e0e0e0" stroke="#999999" points="207.5,-19 158.5,-19 158.5,0 207.5,0 207.5,-19"/>
<text text-anchor="middle" x="183" y="-7" font-family="Helvetica,sans-Serif" font-size="10.00">cstdlib</text>
</a>
</g>
</g>
<!-- Node10&#45;&gt;Node12 -->
<g id="edge13_Node000010_Node000012" class="edge">
<title>Node10&#45;&gt;Node12</title>
<g id="a_edge13_Node000010_Node000012"><a xlink:title=" ">
<path fill="none" stroke="#63b8ff" d="M266.93,-54.98C251.14,-46.61 226.78,-33.7 208.37,-23.95"/>
<polygon fill="#63b8ff" stroke="#63b8ff" points="209.83,-20.76 199.36,-19.17 206.56,-26.95 209.83,-20.76"/>
</a>
</g>
</g>
<!-- Node13 -->
<g id="Node000013" class="node">
<title>Node13</title>
<g id="a_Node000013"><a xlink:title=" ">
<polygon fill="#e0e0e0" stroke="#999999" points="272,-19 226,-19 226,0 272,0 272,-19"/>
<text text-anchor="middle" x="249" y="-7" font-family="Helvetica,sans-Serif" font-size="10.00">cstdio</text>
</a>
</g>
</g>
<!-- Node10&#45;&gt;Node13 -->
<g id="edge14_Node000010_Node000013" class="edge">
<title>Node10&#45;&gt;Node13</title>
<g id="a_edge14_Node000010_Node000013"><a xlink:title=" ">
<path fill="none" stroke="#63b8ff" d="M277.39,-54.75C272.68,-47.42 265.83,-36.73 260.03,-27.7"/>
<polygon fill="#63b8ff" stroke="#63b8ff" points="262.86,-25.62 254.51,-19.09 256.96,-29.4 262.86,-25.62"/>
</a>
</g>
</g>
<!-- Node14 -->
<g id="Node000014" class="node">
<title>Node14</title>
<g id="a_Node000014"><a xlink:title=" ">
<polygon fill="#e0e0e0" stroke="#999999" points="342,-19 290,-19 290,0 342,0 342,-19"/>
<text text-anchor="middle" x="316" y="-7" font-family="Helvetica,sans-Serif" font-size="10.00">cassert</text>
</a>
</g>
</g>
<!-- Node10&#45;&gt;Node14 -->
<g id="edge15_Node000010_Node000014" class="edge">
<title>Node10&#45;&gt;Node14</title>
<g id="a_edge15_Node000010_Node000014"><a xlink:title=" ">
<path fill="none" stroke="#63b8ff" d="M288.45,-54.75C293.01,-47.42 299.67,-36.73 305.29,-27.7"/>
<polygon fill="#63b8ff" stroke="#63b8ff" points="308.34,-29.43 310.65,-19.09 302.4,-25.73 308.34,-29.43"/>
</a>
</g>
</g>
<!-- Node15&#45;&gt;Node8 -->
<g id="edge18_Node000015_Node000008" class="edge">
<title>Node15&#45;&gt;Node8</title>
<g id="a_edge18_Node000015_Node000008"><a xlink:title=" ">
<path fill="none" stroke="#63b8ff" d="M627.11,-54.98C615.85,-46.92 598.71,-34.65 585.29,-25.03"/>
<polygon fill="#63b8ff" stroke="#63b8ff" points="587.27,-22.15 577.11,-19.17 583.2,-27.84 587.27,-22.15"/>
</a>
</g>
</g>
<!-- Node16 -->
<g id="Node000016" class="node">
<title>Node16</title>
<g id="a_Node000016"><a xlink:title=" ">
<polygon fill="#e0e0e0" stroke="#999999" points="721,-19 677,-19 677,0 721,0 721,-19"/>
<text text-anchor="middle" x="699" y="-7" font-family="Helvetica,sans-Serif" font-size="10.00">string</text>
</a>
</g>
</g>
<!-- Node15&#45;&gt;Node16 -->
<g id="edge17_Node000015_Node000016" class="edge">
<title>Node15&#45;&gt;Node16</title>
<g id="a_edge17_Node000015_Node000016"><a xlink:title=" ">
<path fill="none" stroke="#63b8ff" d="M648.64,-54.98C657.51,-47.15 670.87,-35.34 681.61,-25.86"/>
<polygon fill="#63b8ff" stroke="#63b8ff" points="684.01,-28.41 689.18,-19.17 679.37,-23.17 684.01,-28.41"/>
</a>
</g>
</g>
<!-- Node17&#45;&gt;Node2 -->
<g id="edge21_Node000017_Node000002" class="edge">
<title>Node17&#45;&gt;Node2</title>
<g id="a_edge21_Node000017_Node000002"><a xlink:title=" ">
<path fill="none" stroke="#63b8ff" d="M849.55,-116.86C926.38,-113.57 1050.76,-103.68 1085,-74 1097.76,-62.94 1102.14,-43.69 1103.54,-29.28"/>
<polygon fill="#63b8ff" stroke="#63b8ff" points="1107.06,-29.19 1104.14,-19 1100.07,-28.78 1107.06,-29.19"/>
</a>
</g>
</g>
<!-- Node17&#45;&gt;Node6 -->
<g id="edge22_Node000017_Node000006" class="edge">
<title>Node17&#45;&gt;Node6</title>
<g id="a_edge22_Node000017_Node000006"><a xlink:title=" ">
<path fill="none" stroke="#63b8ff" d="M738.14,-109.92C688.65,-101.16 609.93,-87.04 542,-74 540.54,-73.72 539.05,-73.43 537.55,-73.14"/>
<polygon fill="#63b8ff" stroke="#63b8ff" points="538.04,-69.67 527.55,-71.16 536.68,-76.53 538.04,-69.67"/>
</a>
</g>
</g>
<!-- Node17&#45;&gt;Node7 -->
<g id="edge23_Node000017_Node000007" class="edge">
<title>Node17&#45;&gt;Node7</title>
<g id="a_edge23_Node000017_Node000007"><a xlink:title=" ">
<path fill="none" stroke="#63b8ff" d="M724.23,-111.42C658.97,-103.69 553.97,-90.23 464,-74 463.9,-73.98 463.8,-73.96 463.7,-73.95"/>
<polygon fill="#63b8ff" stroke="#63b8ff" points="464.66,-70.57 454.17,-72.07 463.31,-77.44 464.66,-70.57"/>
</a>
</g>
</g>
<!-- Node17&#45;&gt;Node8 -->
<g id="edge25_Node000017_Node000008" class="edge">
<title>Node17&#45;&gt;Node8</title>
<g id="a_edge25_Node000017_Node000008"><a xlink:title=" ">
<path fill="none" stroke="#63b8ff" d="M724.48,-113.17C669.51,-107.13 595.21,-95.26 575,-74 563.84,-62.26 562.12,-43.41 562.72,-29.29"/>
<polygon fill="#63b8ff" stroke="#63b8ff" points="566.22,-29.47 563.57,-19.21 559.25,-28.88 566.22,-29.47"/>
</a>
</g>
</g>
<!-- Node17&#45;&gt;Node10 -->
<g id="edge28_Node000017_Node000010" class="edge">
<title>Node17&#45;&gt;Node10</title>
<g id="a_edge28_Node000017_Node000010"><a xlink:title=" ">
<path fill="none" stroke="#63b8ff" d="M724.44,-111.92C629.6,-101.95 450.08,-83.07 351.72,-72.73"/>
<polygon fill="#63b8ff" stroke="#63b8ff" points="351.9,-69.23 341.58,-71.66 351.16,-76.19 351.9,-69.23"/>
</a>
</g>
</g>
<!-- Node17&#45;&gt;Node15 -->
<g id="edge29_Node000017_Node000015" class="edge">
<title>Node17&#45;&gt;Node15</title>
<g id="a_edge29_Node000017_Node000015"><a xlink:title=" ">
<path fill="none" stroke="#63b8ff" d="M763.22,-109.98C738.77,-101.23 700.47,-87.51 672.85,-77.62"/>
<polygon fill="#63b8ff" stroke="#63b8ff" points="673.81,-74.25 663.21,-74.17 671.45,-80.84 673.81,-74.25"/>
</a>
</g>
</g>
<!-- Node17&#45;&gt;Node16 -->
<g id="edge24_Node000017_Node000016" class="edge">
<title>Node17&#45;&gt;Node16</title>
<g id="a_edge24_Node000017_Node000016"><a xlink:title=" ">
<path fill="none" stroke="#63b8ff" d="M779.8,-109.66C765.09,-91.61 731.41,-50.28 712.51,-27.08"/>
<polygon fill="#63b8ff" stroke="#63b8ff" points="715.09,-24.7 706.05,-19.16 709.66,-29.12 715.09,-24.7"/>
</a>
</g>
</g>
<!-- Node18 -->
<g id="Node000018" class="node">
<title>Node18</title>
<g id="a_Node000018"><a xlink:title=" ">
<polygon fill="#e0e0e0" stroke="#999999" points="841.5,-74 788.5,-74 788.5,-55 841.5,-55 841.5,-74"/>
<text text-anchor="middle" x="815" y="-62" font-family="Helvetica,sans-Serif" font-size="10.00">ctype.h</text>
</a>
</g>
</g>
<!-- Node17&#45;&gt;Node18 -->
<g id="edge20_Node000017_Node000018" class="edge">
<title>Node17&#45;&gt;Node18</title>
<g id="a_edge20_Node000017_Node000018"><a xlink:title=" ">
<path fill="none" stroke="#63b8ff" d="M791.62,-109.75C795.46,-102.49 801.02,-91.95 805.76,-82.98"/>
<polygon fill="#63b8ff" stroke="#63b8ff" points="808.89,-84.57 810.46,-74.09 802.7,-81.3 808.89,-84.57"/>
</a>
</g>
</g>
<!-- Node19 -->
<g id="Node000019" class="node">
<title>Node19</title>
<g id="a_Node000019"><a xlink:title=" ">
<polygon fill="#e0e0e0" stroke="#999999" points="916,-74 860,-74 860,-55 916,-55 916,-74"/>
<text text-anchor="middle" x="888" y="-62" font-family="Helvetica,sans-Serif" font-size="10.00">assert.h</text>
</a>
</g>
</g>
<!-- Node17&#45;&gt;Node19 -->
<g id="edge26_Node000017_Node000019" class="edge">
<title>Node17&#45;&gt;Node19</title>
<g id="a_edge26_Node000017_Node000019"><a xlink:title=" ">
<path fill="none" stroke="#63b8ff" d="M803.23,-109.98C819.18,-101.61 843.78,-88.7 862.38,-78.95"/>
<polygon fill="#63b8ff" stroke="#63b8ff" points="864.25,-81.92 871.48,-74.17 861,-75.72 864.25,-81.92"/>
</a>
</g>
</g>
<!-- Node20 -->
<g id="Node000020" class="node">
<title>Node20</title>
<g id="a_Node000020"><a xlink:title=" ">
<polygon fill="#e0e0e0" stroke="#999999" points="1343.5,-19 1248.5,-19 1248.5,0 1343.5,0 1343.5,-19"/>
<text text-anchor="middle" x="1296" y="-7" font-family="Helvetica,sans-Serif" font-size="10.00">boost/regex.hpp</text>
</a>
</g>
</g>
<!-- Node17&#45;&gt;Node20 -->
<g id="edge27_Node000017_Node000020" class="edge">
<title>Node17&#45;&gt;Node20</title>
<g id="a_edge27_Node000017_Node000020"><a xlink:title=" ">
<path fill="none" stroke="#63b8ff" d="M849.79,-116.68C974.58,-112.5 1244.59,-100.49 1277,-74 1290.08,-63.31 1294.4,-44.01 1295.72,-29.48"/>
<polygon fill="#63b8ff" stroke="#63b8ff" points="1299.23,-29.27 1296.23,-19.11 1292.24,-28.92 1299.23,-29.27"/>
</a>
</g>
</g>
<!-- Node21 -->
<g id="Node000021" class="node">
<title>Node21</title>
<g id="a_Node000021"><a xlink:href="ematch__src_2utils_2boost_2boostUtils_8hh.html" target="_top" xlink:title=" ">
<polygon fill="white" stroke="#666666" points="1267.5,-74 1132.5,-74 1132.5,-55 1267.5,-55 1267.5,-74"/>
<text text-anchor="middle" x="1200" y="-62" font-family="Helvetica,sans-Serif" font-size="10.00">utils/boost/boostUtils.hh</text>
</a>
</g>
</g>
<!-- Node17&#45;&gt;Node21 -->
<g id="edge30_Node000017_Node000021" class="edge">
<title>Node17&#45;&gt;Node21</title>
<g id="a_edge30_Node000017_Node000021"><a xlink:title=" ">
<path fill="none" stroke="#63b8ff" d="M849.73,-110.45C923.04,-101.04 1044.37,-85.47 1123.24,-75.35"/>
<polygon fill="#63b8ff" stroke="#63b8ff" points="1124.13,-78.77 1133.6,-74.02 1123.24,-71.82 1124.13,-78.77"/>
</a>
</g>
</g>
<!-- Node21&#45;&gt;Node2 -->
<g id="edge31_Node000021_Node000002" class="edge">
<title>Node21&#45;&gt;Node2</title>
<g id="a_edge31_Node000021_Node000002"><a xlink:title=" ">
<path fill="none" stroke="#63b8ff" d="M1184.58,-54.98C1169.55,-46.69 1146.46,-33.94 1128.84,-24.22"/>
<polygon fill="#63b8ff" stroke="#63b8ff" points="1130.15,-20.94 1119.7,-19.17 1126.77,-27.07 1130.15,-20.94"/>
</a>
</g>
</g>
<!-- Node21&#45;&gt;Node20 -->
<g id="edge32_Node000021_Node000020" class="edge">
<title>Node21&#45;&gt;Node20</title>
<g id="a_edge32_Node000021_Node000020"><a xlink:title=" ">
<path fill="none" stroke="#63b8ff" d="M1215.42,-54.98C1230.45,-46.69 1253.54,-33.94 1271.16,-24.22"/>
<polygon fill="#63b8ff" stroke="#63b8ff" points="1273.23,-27.07 1280.3,-19.17 1269.85,-20.94 1273.23,-27.07"/>
</a>
</g>
</g>
<!-- Node22&#45;&gt;Node2 -->
<g id="edge34_Node000022_Node000002" class="edge">
<title>Node22&#45;&gt;Node2</title>
<g id="a_edge34_Node000022_Node000002"><a xlink:title=" ">
<path fill="none" stroke="#63b8ff" d="M1208.38,-109.97C1254.24,-101.53 1300.5,-85.31 1277,-55 1260.88,-34.21 1190.14,-21.43 1144.25,-15.18"/>
<polygon fill="#63b8ff" stroke="#63b8ff" points="1144.68,-11.7 1134.31,-13.87 1143.76,-18.64 1144.68,-11.7"/>
</a>
</g>
</g>
<!-- Node22&#45;&gt;Node20 -->
<g id="edge35_Node000022_Node000020" class="edge">
<title>Node22&#45;&gt;Node20</title>
<g id="a_edge35_Node000022_Node000020"><a xlink:title=" ">
<path fill="none" stroke="#63b8ff" d="M1191.11,-109.96C1231.53,-102.54 1281.14,-90.41 1294,-74 1303.77,-61.53 1303.21,-43.07 1300.83,-29.26"/>
<polygon fill="#63b8ff" stroke="#63b8ff" points="1304.23,-28.43 1298.7,-19.39 1297.39,-29.9 1304.23,-28.43"/>
</a>
</g>
</g>
<!-- Node23 -->
<g id="Node000023" class="node">
<title>Node23</title>
<g id="a_Node000023"><a xlink:href="utils_2graph_2graphTypes_8hh.html" target="_top" xlink:title=" ">
<polygon fill="white" stroke="#666666" points="1076,-74 934,-74 934,-55 1076,-55 1076,-74"/>
<text text-anchor="middle" x="1005" y="-62" font-family="Helvetica,sans-Serif" font-size="10.00">utils/graph/graphTypes.hh</text>
</a>
</g>
</g>
<!-- Node22&#45;&gt;Node23 -->
<g id="edge36_Node000022_Node000023" class="edge">
<title>Node22&#45;&gt;Node23</title>
<g id="a_edge36_Node000022_Node000023"><a xlink:title=" ">
<path fill="none" stroke="#63b8ff" d="M1114.11,-109.98C1092.92,-101.34 1059.87,-87.87 1035.7,-78.02"/>
<polygon fill="#63b8ff" stroke="#63b8ff" points="1036.85,-74.7 1026.27,-74.17 1034.21,-81.19 1036.85,-74.7"/>
</a>
</g>
</g>
<!-- Node23&#45;&gt;Node2 -->
<g id="edge37_Node000023_Node000002" class="edge">
<title>Node23&#45;&gt;Node2</title>
<g id="a_edge37_Node000023_Node000002"><a xlink:title=" ">
<path fill="none" stroke="#63b8ff" d="M1020.91,-54.98C1036.55,-46.61 1060.66,-33.7 1078.88,-23.95"/>
<polygon fill="#63b8ff" stroke="#63b8ff" points="1080.64,-26.98 1087.8,-19.17 1077.34,-20.8 1080.64,-26.98"/>
</a>
</g>
</g>
<!-- Node23&#45;&gt;Node8 -->
<g id="edge38_Node000023_Node000008" class="edge">
<title>Node23&#45;&gt;Node8</title>
<g id="a_edge38_Node000023_Node000008"><a xlink:title=" ">
<path fill="none" stroke="#63b8ff" d="M934.31,-54.98C838.41,-43.43 670.87,-23.25 599.15,-14.61"/>
<polygon fill="#63b8ff" stroke="#63b8ff" points="599.23,-11.1 588.89,-13.38 598.4,-18.05 599.23,-11.1"/>
</a>
</g>
</g>
</g>
</svg>
