<?xml version="1.0" encoding="UTF-8" standalone="no"?>
<!DOCTYPE svg PUBLIC "-//W3C//DTD SVG 1.1//EN"
 "http://www.w3.org/Graphics/SVG/1.1/DTD/svg11.dtd">
<!-- Generated by graphviz version 2.43.0 (0)
 -->
<!-- Title: main Pages: 1 -->
<svg width="824pt" height="321pt"
 viewBox="0.00 0.00 824.00 321.39" xmlns="http://www.w3.org/2000/svg" xmlns:xlink="http://www.w3.org/1999/xlink">
<g id="graph0" class="graph" transform="scale(1 1) rotate(0) translate(4 317.39)">
<title>main</title>
<!-- Node1 -->
<g id="Node000001" class="node">
<title>Node1</title>
<g id="a_Node000001"><a xlink:title=" ">
<polygon fill="#999999" stroke="#666666" points="41,-182.32 0,-182.32 0,-163.32 41,-163.32 41,-182.32"/>
<text text-anchor="middle" x="20.5" y="-170.32" font-family="Helvetica,sans-Serif" font-size="10.00">main</text>
</a>
</g>
</g>
<!-- Node2 -->
<g id="Node000002" class="node">
<title>Node2</title>
<g id="a_Node000002"><a xlink:href="namespacecbrc_1_1perlish.html#a7452171f064c2d156fab74ff6514e779" target="_top" xlink:title=" ">
<polygon fill="white" stroke="#666666" points="230.5,-201.32 94.5,-201.32 94.5,-182.32 230.5,-182.32 230.5,-201.32"/>
<text text-anchor="middle" x="162.5" y="-189.32" font-family="Helvetica,sans-Serif" font-size="10.00">cbrc::perlish::canStatFile</text>
</a>
</g>
</g>
<!-- Node1&#45;&gt;Node2 -->
<g id="edge1_Node000001_Node000002" class="edge">
<title>Node1&#45;&gt;Node2</title>
<g id="a_edge1_Node000001_Node000002"><a xlink:title=" ">
<path fill="none" stroke="#63b8ff" d="M41.26,-175.5C52.87,-177.07 68.38,-179.18 84.39,-181.35"/>
<polygon fill="#63b8ff" stroke="#63b8ff" points="84.01,-184.83 94.39,-182.71 84.95,-177.89 84.01,-184.83"/>
</a>
</g>
</g>
<!-- Node3 -->
<g id="Node000003" class="node">
<title>Node3</title>
<g id="a_Node000003"><a xlink:href="namespacecbrc.html#a69d7192d0249221a368646d4fe103642" target="_top" xlink:title=" ">
<polygon fill="white" stroke="#666666" points="248,-164.32 77,-164.32 77,-145.32 248,-145.32 248,-164.32"/>
<text text-anchor="middle" x="162.5" y="-152.32" font-family="Helvetica,sans-Serif" font-size="10.00">cbrc::listConnectedComponents</text>
</a>
</g>
</g>
<!-- Node1&#45;&gt;Node3 -->
<g id="edge2_Node000001_Node000003" class="edge">
<title>Node1&#45;&gt;Node3</title>
<g id="a_edge2_Node000001_Node000003"><a xlink:title=" ">
<path fill="none" stroke="#63b8ff" d="M41.26,-170.28C51.21,-169 64.02,-167.35 77.55,-165.61"/>
<polygon fill="#63b8ff" stroke="#63b8ff" points="78.03,-169.08 87.5,-164.33 77.13,-162.13 78.03,-169.08"/>
</a>
</g>
</g>
<!-- Node4 -->
<g id="Node000004" class="node">
<title>Node4</title>
<g id="a_Node000004"><a xlink:href="classcbrc_1_1FLEArray.html#a7e5d0d3bc5c41546620ccff95b55b3fa" target="_top" xlink:title=" ">
<polygon fill="white" stroke="#666666" points="816,-271.32 697,-271.32 697,-252.32 816,-252.32 816,-271.32"/>
<text text-anchor="middle" x="756.5" y="-259.32" font-family="Helvetica,sans-Serif" font-size="10.00">cbrc::FLEArray::begin</text>
</a>
</g>
</g>
<!-- Node3&#45;&gt;Node4 -->
<g id="edge3_Node000003_Node000004" class="edge">
<title>Node3&#45;&gt;Node4</title>
<g id="a_edge3_Node000003_Node000004"><a xlink:title=" ">
<path fill="none" stroke="#63b8ff" d="M233.04,-164.49C238.43,-166.97 243.51,-170.04 248,-173.82 280.01,-200.77 249.26,-237.48 284,-260.82 420.47,-352.49 633.01,-300.94 718.27,-274.47"/>
<polygon fill="#63b8ff" stroke="#63b8ff" points="719.54,-277.73 728.02,-271.37 717.43,-271.06 719.54,-277.73"/>
</a>
</g>
</g>
<!-- Node5 -->
<g id="Node000005" class="node">
<title>Node5</title>
<g id="a_Node000005"><a xlink:href="classcbrc_1_1FLEArray.html#a8c53878dc57e8f666976e041d146a523" target="_top" xlink:title=" ">
<polygon fill="white" stroke="#666666" points="811.5,-172.32 701.5,-172.32 701.5,-153.32 811.5,-153.32 811.5,-172.32"/>
<text text-anchor="middle" x="756.5" y="-160.32" font-family="Helvetica,sans-Serif" font-size="10.00">cbrc::FLEArray::end</text>
</a>
</g>
</g>
<!-- Node3&#45;&gt;Node5 -->
<g id="edge4_Node000003_Node000005" class="edge">
<title>Node3&#45;&gt;Node5</title>
<g id="a_edge4_Node000003_Node000005"><a xlink:title=" ">
<path fill="none" stroke="#63b8ff" d="M171.95,-145.03C190.09,-124.82 235.07,-78.8 284,-59.82 440.35,0.85 509.98,29.1 661,-43.82 704.16,-64.66 733.66,-115.86 747.15,-143.82"/>
<polygon fill="#63b8ff" stroke="#63b8ff" points="744.01,-145.37 751.39,-152.98 750.36,-142.43 744.01,-145.37"/>
</a>
</g>
</g>
<!-- Node6 -->
<g id="Node000006" class="node">
<title>Node6</title>
<g id="a_Node000006"><a xlink:href="namespacecbrc.html#a0498f0fc177d15ccb25e38c06d5685cd" target="_top" xlink:title=" ">
<polygon fill="white" stroke="#666666" points="468,-224.32 284,-224.32 284,-205.32 468,-205.32 468,-224.32"/>
<text text-anchor="middle" x="376" y="-212.32" font-family="Helvetica,sans-Serif" font-size="10.00">cbrc::FLEArrayIdentityPermutation</text>
</a>
</g>
</g>
<!-- Node3&#45;&gt;Node6 -->
<g id="edge5_Node000003_Node000006" class="edge">
<title>Node3&#45;&gt;Node6</title>
<g id="a_edge5_Node000003_Node000006"><a xlink:title=" ">
<path fill="none" stroke="#63b8ff" d="M214.5,-164.38C225.67,-167 237.34,-170.15 248,-173.82 264.73,-179.57 267.38,-184.76 284,-190.82 296.23,-195.28 309.67,-199.28 322.37,-202.69"/>
<polygon fill="#63b8ff" stroke="#63b8ff" points="321.81,-206.16 332.37,-205.29 323.57,-199.39 321.81,-206.16"/>
</a>
</g>
</g>
<!-- Node7 -->
<g id="Node000007" class="node">
<title>Node7</title>
<g id="a_Node000007"><a xlink:href="classcbrc_1_1OneEdgePerLineFormat.html#a793d5e37c7e76c38b6f0cdc55f17ebbc" target="_top" xlink:title=" ">
<polygon fill="white" stroke="#666666" points="661,-178.82 504,-178.82 504,-148.82 661,-148.82 661,-178.82"/>
<text text-anchor="start" x="512" y="-166.82" font-family="Helvetica,sans-Serif" font-size="10.00">cbrc::OneEdgePerLineFormat</text>
<text text-anchor="middle" x="582.5" y="-155.82" font-family="Helvetica,sans-Serif" font-size="10.00">::inputDelimiter</text>
</a>
</g>
</g>
<!-- Node3&#45;&gt;Node7 -->
<g id="edge6_Node000003_Node000007" class="edge">
<title>Node3&#45;&gt;Node7</title>
<g id="a_edge6_Node000003_Node000007"><a xlink:title=" ">
<path fill="none" stroke="#63b8ff" d="M248.1,-156.97C260.15,-157.27 272.39,-157.55 284,-157.82 354.55,-159.41 434.51,-161.01 493.76,-162.16"/>
<polygon fill="#63b8ff" stroke="#63b8ff" points="493.76,-165.66 503.82,-162.35 493.89,-158.66 493.76,-165.66"/>
</a>
</g>
</g>
<!-- Node8 -->
<g id="Node000008" class="node">
<title>Node8</title>
<g id="a_Node000008"><a xlink:href="classcbrc_1_1OneEdgePerLineFormat.html#a1ba6e59128b65550ff5b7fd783a6b676" target="_top" xlink:title=" ">
<polygon fill="white" stroke="#666666" points="454.5,-148.82 297.5,-148.82 297.5,-118.82 454.5,-118.82 454.5,-148.82"/>
<text text-anchor="start" x="305.5" y="-136.82" font-family="Helvetica,sans-Serif" font-size="10.00">cbrc::OneEdgePerLineFormat</text>
<text text-anchor="middle" x="376" y="-125.82" font-family="Helvetica,sans-Serif" font-size="10.00">::numNodesInStream</text>
</a>
</g>
</g>
<!-- Node3&#45;&gt;Node8 -->
<g id="edge7_Node000003_Node000008" class="edge">
<title>Node3&#45;&gt;Node8</title>
<g id="a_edge7_Node000003_Node000008"><a xlink:title=" ">
<path fill="none" stroke="#63b8ff" d="M248,-146.43C260.89,-145.15 274.23,-143.82 287.19,-142.53"/>
<polygon fill="#63b8ff" stroke="#63b8ff" points="287.88,-145.98 297.49,-141.51 287.19,-139.02 287.88,-145.98"/>
</a>
</g>
</g>
<!-- Node9 -->
<g id="Node000009" class="node">
<title>Node9</title>
<g id="a_Node000009"><a xlink:href="classcbrc_1_1FLEArray.html#ad71311380d762114c9e0f3b0dda38b7c" target="_top" xlink:title=" ">
<polygon fill="white" stroke="#666666" points="638,-109.32 527,-109.32 527,-90.32 638,-90.32 638,-109.32"/>
<text text-anchor="middle" x="582.5" y="-97.32" font-family="Helvetica,sans-Serif" font-size="10.00">cbrc::FLEArray::size</text>
</a>
</g>
</g>
<!-- Node3&#45;&gt;Node9 -->
<g id="edge15_Node000003_Node000009" class="edge">
<title>Node3&#45;&gt;Node9</title>
<g id="a_edge15_Node000003_Node000009"><a xlink:title=" ">
<path fill="none" stroke="#63b8ff" d="M182.96,-145.3C206.32,-134.41 246.98,-117.15 284,-109.82 362.95,-94.18 455.95,-93.87 516.68,-96.02"/>
<polygon fill="#63b8ff" stroke="#63b8ff" points="516.76,-99.53 526.88,-96.42 517.03,-92.53 516.76,-99.53"/>
</a>
</g>
</g>
<!-- Node10 -->
<g id="Node000010" class="node">
<title>Node10</title>
<g id="a_Node000010"><a xlink:href="namespacecbrc_1_1perlish.html#a2a0db2c27f3a19dfdcd7ef17ea5a0bcd" target="_top" xlink:title=" ">
<polygon fill="white" stroke="#666666" points="645.5,-72.32 519.5,-72.32 519.5,-53.32 645.5,-53.32 645.5,-72.32"/>
<text text-anchor="middle" x="582.5" y="-60.32" font-family="Helvetica,sans-Serif" font-size="10.00">cbrc::perlish::slurpLine</text>
</a>
</g>
</g>
<!-- Node3&#45;&gt;Node10 -->
<g id="edge16_Node000003_Node000010" class="edge">
<title>Node3&#45;&gt;Node10</title>
<g id="a_edge16_Node000003_Node000010"><a xlink:title=" ">
<path fill="none" stroke="#63b8ff" d="M177.18,-145.21C198.74,-130.61 242.47,-103.25 284,-90.82 358.58,-68.48 447.95,-62.71 509.15,-61.76"/>
<polygon fill="#63b8ff" stroke="#63b8ff" points="509.52,-65.25 519.48,-61.64 509.44,-58.25 509.52,-65.25"/>
</a>
</g>
</g>
<!-- Node11 -->
<g id="Node000011" class="node">
<title>Node11</title>
<g id="a_Node000011"><a xlink:href="namespacecbrc_1_1perlish.html#a101a4746d50e52a00273c6fe533970ec" target="_top" xlink:title=" ">
<polygon fill="white" stroke="#666666" points="634,-234.32 531,-234.32 531,-215.32 634,-215.32 634,-234.32"/>
<text text-anchor="middle" x="582.5" y="-222.32" font-family="Helvetica,sans-Serif" font-size="10.00">cbrc::perlish::split</text>
</a>
</g>
</g>
<!-- Node3&#45;&gt;Node11 -->
<g id="edge17_Node000003_Node000011" class="edge">
<title>Node3&#45;&gt;Node11</title>
<g id="a_edge17_Node000003_Node000011"><a xlink:title=" ">
<path fill="none" stroke="#63b8ff" d="M230.34,-164.35C236.62,-166.84 242.64,-169.94 248,-173.82 273.21,-192.03 256.94,-218.49 284,-233.82 367.1,-280.87 485.26,-255.29 544.55,-237.43"/>
<polygon fill="#63b8ff" stroke="#63b8ff" points="545.72,-240.73 554.24,-234.43 543.65,-234.05 545.72,-240.73"/>
</a>
</g>
</g>
<!-- Node8&#45;&gt;Node7 -->
<g id="edge8_Node000008_Node000007" class="edge">
<title>Node8&#45;&gt;Node7</title>
<g id="a_edge8_Node000008_Node000007"><a xlink:title=" ">
<path fill="none" stroke="#63b8ff" d="M454.6,-145.2C467.48,-147.09 480.91,-149.06 494.01,-150.98"/>
<polygon fill="#63b8ff" stroke="#63b8ff" points="493.55,-154.45 503.95,-152.44 494.56,-147.52 493.55,-154.45"/>
</a>
</g>
</g>
<!-- Node8&#45;&gt;Node9 -->
<g id="edge9_Node000008_Node000009" class="edge">
<title>Node8&#45;&gt;Node9</title>
<g id="a_edge9_Node000008_Node000009"><a xlink:title=" ">
<path fill="none" stroke="#63b8ff" d="M454.6,-120.91C475.1,-117.51 497,-113.87 516.74,-110.58"/>
<polygon fill="#63b8ff" stroke="#63b8ff" points="517.55,-114 526.84,-108.9 516.4,-107.09 517.55,-114"/>
</a>
</g>
</g>
<!-- Node8&#45;&gt;Node10 -->
<g id="edge10_Node000008_Node000010" class="edge">
<title>Node8&#45;&gt;Node10</title>
<g id="a_edge10_Node000008_Node000010"><a xlink:title=" ">
<path fill="none" stroke="#63b8ff" d="M408.8,-118.8C434.16,-107.25 470.8,-91.52 504,-80.82 510.78,-78.63 517.97,-76.6 525.14,-74.74"/>
<polygon fill="#63b8ff" stroke="#63b8ff" points="525.99,-78.13 534.85,-72.32 524.3,-71.34 525.99,-78.13"/>
</a>
</g>
</g>
<!-- Node8&#45;&gt;Node11 -->
<g id="edge11_Node000008_Node000011" class="edge">
<title>Node8&#45;&gt;Node11</title>
<g id="a_edge11_Node000008_Node000011"><a xlink:title=" ">
<path fill="none" stroke="#63b8ff" d="M410.77,-148.84C449.61,-166.13 512.86,-194.27 550.5,-211.02"/>
<polygon fill="#63b8ff" stroke="#63b8ff" points="549.38,-214.35 559.94,-215.22 552.22,-207.96 549.38,-214.35"/>
</a>
</g>
</g>
<!-- Node11&#45;&gt;Node4 -->
<g id="edge12_Node000011_Node000004" class="edge">
<title>Node11&#45;&gt;Node4</title>
<g id="a_edge12_Node000011_Node000004"><a xlink:title=" ">
<path fill="none" stroke="#63b8ff" d="M627.79,-234.34C650.18,-239.16 677.53,-245.04 701.18,-250.13"/>
<polygon fill="#63b8ff" stroke="#63b8ff" points="700.54,-253.57 711.06,-252.26 702.02,-246.73 700.54,-253.57"/>
</a>
</g>
</g>
<!-- Node11&#45;&gt;Node5 -->
<g id="edge13_Node000011_Node000005" class="edge">
<title>Node11&#45;&gt;Node5</title>
<g id="a_edge13_Node000011_Node000005"><a xlink:title=" ">
<path fill="none" stroke="#63b8ff" d="M610,-215.26C639.29,-204.71 686.65,-187.64 719.33,-175.85"/>
<polygon fill="#63b8ff" stroke="#63b8ff" points="720.75,-179.06 728.97,-172.38 718.38,-172.48 720.75,-179.06"/>
</a>
</g>
</g>
<!-- Node11&#45;&gt;Node11 -->
<g id="edge14_Node000011_Node000011" class="edge">
<title>Node11&#45;&gt;Node11</title>
<g id="a_edge14_Node000011_Node000011"><a xlink:title=" ">
<path fill="none" stroke="#63b8ff" d="M555.68,-234.4C542.63,-243.05 551.57,-252.32 582.5,-252.32 603.28,-252.32 614.13,-248.13 615.06,-242.76"/>
<polygon fill="#63b8ff" stroke="#63b8ff" points="617.86,-240.66 609.32,-234.4 612.09,-244.62 617.86,-240.66"/>
</a>
</g>
</g>
</g>
</svg>
