<?xml version="1.0" encoding="UTF-8" standalone="no"?>
<!DOCTYPE svg PUBLIC "-//W3C//DTD SVG 1.1//EN"
 "http://www.w3.org/Graphics/SVG/1.1/DTD/svg11.dtd">
<!-- Generated by graphviz version 2.43.0 (0)
 -->
<!-- Title: main Pages: 1 -->
<svg width="728pt" height="195pt"
 viewBox="0.00 0.00 728.00 195.00" xmlns="http://www.w3.org/2000/svg" xmlns:xlink="http://www.w3.org/1999/xlink">
<g id="graph0" class="graph" transform="scale(1 1) rotate(0) translate(4 191)">
<title>main</title>
<!-- Node1 -->
<g id="Node000001" class="node">
<title>Node1</title>
<g id="a_Node000001"><a xlink:title=" ">
<polygon fill="#999999" stroke="#666666" points="41,-113 0,-113 0,-94 41,-94 41,-113"/>
<text text-anchor="middle" x="20.5" y="-101" font-family="Helvetica,sans-Serif" font-size="10.00">main</text>
</a>
</g>
</g>
<!-- Node2 -->
<g id="Node000002" class="node">
<title>Node2</title>
<g id="a_Node000002"><a xlink:href="namespacecbrc.html#a59b02daff29890d24f755b27508743f0" target="_top" xlink:title=" ">
<polygon fill="white" stroke="#666666" points="213,-118.5 77,-118.5 77,-88.5 213,-88.5 213,-118.5"/>
<text text-anchor="start" x="85" y="-106.5" font-family="Helvetica,sans-Serif" font-size="10.00">cbrc::runAllShortestEdge</text>
<text text-anchor="middle" x="145" y="-95.5" font-family="Helvetica,sans-Serif" font-size="10.00">LengthPaths</text>
</a>
</g>
</g>
<!-- Node1&#45;&gt;Node2 -->
<g id="edge1_Node000001_Node000002" class="edge">
<title>Node1&#45;&gt;Node2</title>
<g id="a_edge1_Node000001_Node000002"><a xlink:title=" ">
<path fill="none" stroke="#63b8ff" d="M41.18,-103.5C48.48,-103.5 57.28,-103.5 66.61,-103.5"/>
<polygon fill="#63b8ff" stroke="#63b8ff" points="66.9,-107 76.9,-103.5 66.9,-100 66.9,-107"/>
</a>
</g>
</g>
<!-- Node3 -->
<g id="Node000003" class="node">
<title>Node3</title>
<g id="a_Node000003"><a xlink:href="classcbrc_1_1FLEArray.html#a7e5d0d3bc5c41546620ccff95b55b3fa" target="_top" xlink:title=" ">
<polygon fill="white" stroke="#666666" points="400.5,-187 281.5,-187 281.5,-168 400.5,-168 400.5,-187"/>
<text text-anchor="middle" x="341" y="-175" font-family="Helvetica,sans-Serif" font-size="10.00">cbrc::FLEArray::begin</text>
</a>
</g>
</g>
<!-- Node2&#45;&gt;Node3 -->
<g id="edge2_Node000002_Node000003" class="edge">
<title>Node2&#45;&gt;Node3</title>
<g id="a_edge2_Node000002_Node000003"><a xlink:title=" ">
<path fill="none" stroke="#63b8ff" d="M168.78,-118.51C189.05,-131.22 219.9,-148.99 249,-159.5 256.06,-162.05 263.56,-164.27 271.11,-166.19"/>
<polygon fill="#63b8ff" stroke="#63b8ff" points="270.49,-169.64 281.03,-168.55 272.11,-162.83 270.49,-169.64"/>
</a>
</g>
</g>
<!-- Node4 -->
<g id="Node000004" class="node">
<title>Node4</title>
<g id="a_Node000004"><a xlink:href="classcbrc_1_1FLEArray.html#a8c53878dc57e8f666976e041d146a523" target="_top" xlink:title=" ">
<polygon fill="white" stroke="#666666" points="396,-150 286,-150 286,-131 396,-131 396,-150"/>
<text text-anchor="middle" x="341" y="-138" font-family="Helvetica,sans-Serif" font-size="10.00">cbrc::FLEArray::end</text>
</a>
</g>
</g>
<!-- Node2&#45;&gt;Node4 -->
<g id="edge3_Node000002_Node000004" class="edge">
<title>Node2&#45;&gt;Node4</title>
<g id="a_edge3_Node000002_Node000004"><a xlink:title=" ">
<path fill="none" stroke="#63b8ff" d="M213.04,-116.29C234.88,-120.45 258.96,-125.04 280.24,-129.1"/>
<polygon fill="#63b8ff" stroke="#63b8ff" points="279.63,-132.55 290.11,-130.98 280.94,-125.67 279.63,-132.55"/>
</a>
</g>
</g>
<!-- Node5 -->
<g id="Node000005" class="node">
<title>Node5</title>
<g id="a_Node000005"><a xlink:href="namespacecbrc.html#a0498f0fc177d15ccb25e38c06d5685cd" target="_top" xlink:title=" ">
<polygon fill="white" stroke="#666666" points="433,-113 249,-113 249,-94 433,-94 433,-113"/>
<text text-anchor="middle" x="341" y="-101" font-family="Helvetica,sans-Serif" font-size="10.00">cbrc::FLEArrayIdentityPermutation</text>
</a>
</g>
</g>
<!-- Node2&#45;&gt;Node5 -->
<g id="edge4_Node000002_Node000005" class="edge">
<title>Node2&#45;&gt;Node5</title>
<g id="a_edge4_Node000002_Node000005"><a xlink:title=" ">
<path fill="none" stroke="#63b8ff" d="M213.04,-103.5C221.3,-103.5 229.89,-103.5 238.52,-103.5"/>
<polygon fill="#63b8ff" stroke="#63b8ff" points="238.66,-107 248.66,-103.5 238.66,-100 238.66,-107"/>
</a>
</g>
</g>
<!-- Node6 -->
<g id="Node000006" class="node">
<title>Node6</title>
<g id="a_Node000006"><a xlink:href="classcbrc_1_1FLEArray.html#ad71311380d762114c9e0f3b0dda38b7c" target="_top" xlink:title=" ">
<polygon fill="white" stroke="#666666" points="720,-47 609,-47 609,-28 720,-28 720,-47"/>
<text text-anchor="middle" x="664.5" y="-35" font-family="Helvetica,sans-Serif" font-size="10.00">cbrc::FLEArray::size</text>
</a>
</g>
</g>
<!-- Node2&#45;&gt;Node6 -->
<g id="edge5_Node000002_Node000006" class="edge">
<title>Node2&#45;&gt;Node6</title>
<g id="a_edge5_Node000002_Node000006"><a xlink:title=" ">
<path fill="none" stroke="#63b8ff" d="M213.23,-91.18C225.13,-89.16 237.41,-87.18 249,-85.5 372.24,-67.61 516.86,-52.1 598.59,-43.85"/>
<polygon fill="#63b8ff" stroke="#63b8ff" points="599.12,-47.31 608.72,-42.83 598.42,-40.34 599.12,-47.31"/>
</a>
</g>
</g>
<!-- Node7 -->
<g id="Node000007" class="node">
<title>Node7</title>
<g id="a_Node000007"><a xlink:href="classcbrc_1_1FLEArray.html#a31b7db1817b5eec4d9cbb10bfe07d58a" target="_top" xlink:title=" ">
<polygon fill="white" stroke="#666666" points="397.5,-28 284.5,-28 284.5,-9 397.5,-9 397.5,-28"/>
<text text-anchor="middle" x="341" y="-16" font-family="Helvetica,sans-Serif" font-size="10.00">cbrc::FLEArray::zero</text>
</a>
</g>
</g>
<!-- Node2&#45;&gt;Node7 -->
<g id="edge6_Node000002_Node000007" class="edge">
<title>Node2&#45;&gt;Node7</title>
<g id="a_edge6_Node000002_Node000007"><a xlink:title=" ">
<path fill="none" stroke="#63b8ff" d="M173.55,-88.46C194.05,-77.54 222.89,-62.78 249,-51.5 265.86,-44.22 284.92,-37.14 301.22,-31.41"/>
<polygon fill="#63b8ff" stroke="#63b8ff" points="302.66,-34.62 310.97,-28.04 300.37,-28 302.66,-34.62"/>
</a>
</g>
</g>
<!-- Node8 -->
<g id="Node000008" class="node">
<title>Node8</title>
<g id="a_Node000008"><a xlink:href="classcbrc_1_1FLEArray.html#ab3482d140dd947c2d956fa5620da84ab" target="_top" xlink:title=" ">
<polygon fill="white" stroke="#666666" points="573,-19 469,-19 469,0 573,0 573,-19"/>
<text text-anchor="middle" x="521" y="-7" font-family="Helvetica,sans-Serif" font-size="10.00">cbrc::FLEArray::fill</text>
</a>
</g>
</g>
<!-- Node7&#45;&gt;Node8 -->
<g id="edge7_Node000007_Node000008" class="edge">
<title>Node7&#45;&gt;Node8</title>
<g id="a_edge7_Node000007_Node000008"><a xlink:title=" ">
<path fill="none" stroke="#63b8ff" d="M397.83,-15.68C417.19,-14.7 439,-13.6 458.77,-12.6"/>
<polygon fill="#63b8ff" stroke="#63b8ff" points="459.09,-16.08 468.9,-12.08 458.74,-9.09 459.09,-16.08"/>
</a>
</g>
</g>
<!-- Node8&#45;&gt;Node6 -->
<g id="edge9_Node000008_Node000006" class="edge">
<title>Node8&#45;&gt;Node6</title>
<g id="a_edge9_Node000008_Node000006"><a xlink:title=" ">
<path fill="none" stroke="#63b8ff" d="M570.3,-19.06C581.57,-21.29 593.69,-23.69 605.34,-25.99"/>
<polygon fill="#63b8ff" stroke="#63b8ff" points="604.93,-29.48 615.42,-27.99 606.29,-22.61 604.93,-29.48"/>
</a>
</g>
</g>
<!-- Node8&#45;&gt;Node8 -->
<g id="edge8_Node000008_Node000008" class="edge">
<title>Node8&#45;&gt;Node8</title>
<g id="a_edge8_Node000008_Node000008"><a xlink:title=" ">
<path fill="none" stroke="#63b8ff" d="M499.11,-19.08C488.47,-27.73 495.76,-37 521,-37 537.17,-37 545.97,-33.2 547.41,-28.19"/>
<polygon fill="#63b8ff" stroke="#63b8ff" points="550.47,-26.48 542.89,-19.08 544.2,-29.6 550.47,-26.48"/>
</a>
</g>
</g>
</g>
</svg>
