<?xml version="1.0" encoding="UTF-8" standalone="no"?>
<!DOCTYPE svg PUBLIC "-//W3C//DTD SVG 1.1//EN"
 "http://www.w3.org/Graphics/SVG/1.1/DTD/svg11.dtd">
<!-- Generated by graphviz version 2.43.0 (0)
 -->
<!-- Title: Graphical Class Hierarchy Pages: 1 -->
<svg width="506pt" height="230pt"
 viewBox="0.00 0.00 506.00 229.50" xmlns="http://www.w3.org/2000/svg" xmlns:xlink="http://www.w3.org/1999/xlink">
<g id="graph0" class="graph" transform="scale(1 1) rotate(0) translate(4 225.5)">
<title>Graphical Class Hierarchy</title>
<!-- Node0 -->
<g id="Node000000" class="node">
<title>Node0</title>
<g id="a_Node000000"><a xlink:href="classcbrc_1_1FLEMatrix.html" target="_top" xlink:title=" ">
<polygon fill="white" stroke="#666666" points="120,-120 0,-120 0,-101 120,-101 120,-120"/>
<text text-anchor="middle" x="60" y="-108" font-family="Helvetica,sans-Serif" font-size="10.00">cbrc::FLEMatrix&lt; T &gt;</text>
</a>
</g>
</g>
<!-- Node1 -->
<g id="Node000001" class="node">
<title>Node1</title>
<g id="a_Node000001"><a xlink:href="classcbrc_1_1FLEMatrixFast.html" target="_top" xlink:title=" ">
<polygon fill="white" stroke="#666666" points="283,-221.5 172,-221.5 172,-191.5 283,-191.5 283,-221.5"/>
<text text-anchor="start" x="180" y="-209.5" font-family="Helvetica,sans-Serif" font-size="10.00">cbrc::FLEMatrixFast</text>
<text text-anchor="middle" x="227.5" y="-198.5" font-family="Helvetica,sans-Serif" font-size="10.00">&lt; alignScoreT &gt;</text>
</a>
</g>
</g>
<!-- Node0&#45;&gt;Node1 -->
<g id="edge23_Node000000_Node000001" class="edge">
<title>Node0&#45;&gt;Node1</title>
<g id="a_edge23_Node000000_Node000001"><a xlink:title=" ">
<path fill="none" stroke="#63b8ff" d="M78.87,-126.86C97.12,-142.86 126.84,-167.01 156,-182.5 162.17,-185.78 168.87,-188.74 175.6,-191.37"/>
<polygon fill="#63b8ff" stroke="#63b8ff" points="81.13,-124.18 71.34,-120.14 76.47,-129.41 81.13,-124.18"/>
</a>
</g>
</g>
<!-- Node2 -->
<g id="Node000002" class="node">
<title>Node2</title>
<g id="a_Node000002"><a xlink:href="classcbrc_1_1FLENumMatrix.html" target="_top" xlink:title=" ">
<polygon fill="white" stroke="#666666" points="285,-173.5 170,-173.5 170,-143.5 285,-143.5 285,-173.5"/>
<text text-anchor="start" x="178" y="-161.5" font-family="Helvetica,sans-Serif" font-size="10.00">cbrc::FLENumMatrix</text>
<text text-anchor="middle" x="227.5" y="-150.5" font-family="Helvetica,sans-Serif" font-size="10.00">&lt; double &gt;</text>
</a>
</g>
</g>
<!-- Node0&#45;&gt;Node2 -->
<g id="edge24_Node000000_Node000002" class="edge">
<title>Node0&#45;&gt;Node2</title>
<g id="a_edge24_Node000000_Node000002"><a xlink:title=" ">
<path fill="none" stroke="#63b8ff" d="M103.96,-122.96C125.54,-129.22 151.86,-136.85 174.56,-143.44"/>
<polygon fill="#63b8ff" stroke="#63b8ff" points="104.67,-119.52 94.09,-120.1 102.72,-126.25 104.67,-119.52"/>
</a>
</g>
</g>
<!-- Node3 -->
<g id="Node000003" class="node">
<title>Node3</title>
<g id="a_Node000003"><a xlink:href="classcbrc_1_1FLENumMatrix.html" target="_top" xlink:title=" ">
<polygon fill="white" stroke="#666666" points="285,-125.5 170,-125.5 170,-95.5 285,-95.5 285,-125.5"/>
<text text-anchor="start" x="178" y="-113.5" font-family="Helvetica,sans-Serif" font-size="10.00">cbrc::FLENumMatrix</text>
<text text-anchor="middle" x="227.5" y="-102.5" font-family="Helvetica,sans-Serif" font-size="10.00">&lt; elemT &gt;</text>
</a>
</g>
</g>
<!-- Node0&#45;&gt;Node3 -->
<g id="edge25_Node000000_Node000003" class="edge">
<title>Node0&#45;&gt;Node3</title>
<g id="a_edge25_Node000000_Node000003"><a xlink:title=" ">
<path fill="none" stroke="#63b8ff" d="M130.64,-110.5C143.71,-110.5 157.23,-110.5 169.85,-110.5"/>
<polygon fill="#63b8ff" stroke="#63b8ff" points="130.28,-107 120.28,-110.5 130.28,-114 130.28,-107"/>
</a>
</g>
</g>
<!-- Node4 -->
<g id="Node000004" class="node">
<title>Node4</title>
<g id="a_Node000004"><a xlink:href="classcbrc_1_1FLEMatrixFast.html" target="_top" xlink:title=" ">
<polygon fill="white" stroke="#666666" points="297.5,-77 157.5,-77 157.5,-58 297.5,-58 297.5,-77"/>
<text text-anchor="middle" x="227.5" y="-65" font-family="Helvetica,sans-Serif" font-size="10.00">cbrc::FLEMatrixFast&lt; T &gt;</text>
</a>
</g>
</g>
<!-- Node0&#45;&gt;Node4 -->
<g id="edge26_Node000000_Node000004" class="edge">
<title>Node0&#45;&gt;Node4</title>
<g id="a_edge26_Node000000_Node000004"><a xlink:title=" ">
<path fill="none" stroke="#63b8ff" d="M107.75,-98.35C133.77,-91.59 165.68,-83.3 189.87,-77.02"/>
<polygon fill="#63b8ff" stroke="#63b8ff" points="106.53,-95.05 97.73,-100.96 108.29,-101.83 106.53,-95.05"/>
</a>
</g>
</g>
<!-- Node5 -->
<g id="Node000005" class="node">
<title>Node5</title>
<g id="a_Node000005"><a xlink:href="classcbrc_1_1FLENumMatrix.html" target="_top" xlink:title=" ">
<polygon fill="white" stroke="#666666" points="299,-40 156,-40 156,-21 299,-21 299,-40"/>
<text text-anchor="middle" x="227.5" y="-28" font-family="Helvetica,sans-Serif" font-size="10.00">cbrc::FLENumMatrix&lt; T &gt;</text>
</a>
</g>
</g>
<!-- Node0&#45;&gt;Node5 -->
<g id="edge27_Node000000_Node000005" class="edge">
<title>Node0&#45;&gt;Node5</title>
<g id="a_edge27_Node000000_Node000005"><a xlink:title=" ">
<path fill="none" stroke="#63b8ff" d="M81.2,-94.9C99.76,-81.23 128.46,-61.7 156,-49.5 164.46,-45.75 173.83,-42.6 182.9,-40"/>
<polygon fill="#63b8ff" stroke="#63b8ff" points="79.1,-92.1 73.2,-100.9 83.3,-97.7 79.1,-92.1"/>
</a>
</g>
</g>
<!-- Node6 -->
<g id="Node000006" class="node">
<title>Node6</title>
<g id="a_Node000006"><a xlink:href="classcbrc_1_1FLENumMatrixFast.html" target="_top" xlink:title=" ">
<polygon fill="white" stroke="#666666" points="483.5,-67.5 349.5,-67.5 349.5,-37.5 483.5,-37.5 483.5,-67.5"/>
<text text-anchor="start" x="357.5" y="-55.5" font-family="Helvetica,sans-Serif" font-size="10.00">cbrc::FLENumMatrixFast</text>
<text text-anchor="middle" x="416.5" y="-44.5" font-family="Helvetica,sans-Serif" font-size="10.00">&lt; double &gt;</text>
</a>
</g>
</g>
<!-- Node5&#45;&gt;Node6 -->
<g id="edge28_Node000005_Node000006" class="edge">
<title>Node5&#45;&gt;Node6</title>
<g id="a_edge28_Node000005_Node000006"><a xlink:title=" ">
<path fill="none" stroke="#63b8ff" d="M309.32,-40.01C322.68,-41.58 336.39,-43.19 349.33,-44.72"/>
<polygon fill="#63b8ff" stroke="#63b8ff" points="309.54,-36.51 299.2,-38.82 308.72,-43.46 309.54,-36.51"/>
</a>
</g>
</g>
<!-- Node7 -->
<g id="Node000007" class="node">
<title>Node7</title>
<g id="a_Node000007"><a xlink:href="classcbrc_1_1FLENumMatrixFast.html" target="_top" xlink:title=" ">
<polygon fill="white" stroke="#666666" points="498,-19 335,-19 335,0 498,0 498,-19"/>
<text text-anchor="middle" x="416.5" y="-7" font-family="Helvetica,sans-Serif" font-size="10.00">cbrc::FLENumMatrixFast&lt; T &gt;</text>
</a>
</g>
</g>
<!-- Node5&#45;&gt;Node7 -->
<g id="edge29_Node000005_Node000007" class="edge">
<title>Node5&#45;&gt;Node7</title>
<g id="a_edge29_Node000005_Node000007"><a xlink:title=" ">
<path fill="none" stroke="#63b8ff" d="M309.16,-21.44C317.72,-20.48 326.43,-19.5 334.98,-18.54"/>
<polygon fill="#63b8ff" stroke="#63b8ff" points="308.74,-17.97 299.2,-22.56 309.52,-24.92 308.74,-17.97"/>
</a>
</g>
</g>
</g>
</svg>
