<?xml version="1.0" encoding="UTF-8" standalone="no"?>
<!DOCTYPE svg PUBLIC "-//W3C//DTD SVG 1.1//EN"
 "http://www.w3.org/Graphics/SVG/1.1/DTD/svg11.dtd">
<!-- Generated by graphviz version 2.43.0 (0)
 -->
<!-- Title: Graphical Class Hierarchy Pages: 1 -->
<svg width="285pt" height="64pt"
 viewBox="0.00 0.00 285.00 64.00" xmlns="http://www.w3.org/2000/svg" xmlns:xlink="http://www.w3.org/1999/xlink">
<g id="graph0" class="graph" transform="scale(1 1) rotate(0) translate(4 60)">
<title>Graphical Class Hierarchy</title>
<!-- Node0 -->
<g id="Node000000" class="node">
<title>Node0</title>
<g id="a_Node000000"><a xlink:href="classcbrc_1_1AminoScore.html" target="_top" xlink:title=" ">
<polygon fill="white" stroke="#666666" points="101,-37 0,-37 0,-18 101,-18 101,-37"/>
<text text-anchor="middle" x="50.5" y="-25" font-family="Helvetica,sans-Serif" font-size="10.00">cbrc::AminoScore</text>
</a>
</g>
</g>
<!-- Node1 -->
<g id="Node000001" class="node">
<title>Node1</title>
<g id="a_Node000001"><a xlink:href="classcbrc_1_1AminoScoreIdentity.html" target="_top" xlink:title=" ">
<polygon fill="white" stroke="#666666" points="276.5,-56 137.5,-56 137.5,-37 276.5,-37 276.5,-56"/>
<text text-anchor="middle" x="207" y="-44" font-family="Helvetica,sans-Serif" font-size="10.00">cbrc::AminoScoreIdentity</text>
</a>
</g>
</g>
<!-- Node0&#45;&gt;Node1 -->
<g id="edge1_Node000000_Node000001" class="edge">
<title>Node0&#45;&gt;Node1</title>
<g id="a_edge1_Node000000_Node000001"><a xlink:title=" ">
<path fill="none" stroke="#63b8ff" d="M111.18,-34.84C119.8,-35.9 128.72,-37 137.5,-38.08"/>
<polygon fill="#63b8ff" stroke="#63b8ff" points="111.59,-31.36 101.24,-33.62 110.73,-38.31 111.59,-31.36"/>
</a>
</g>
</g>
<!-- Node2 -->
<g id="Node000002" class="node">
<title>Node2</title>
<g id="a_Node000002"><a xlink:href="classcbrc_1_1AminoScorePam120.html" target="_top" xlink:title=" ">
<polygon fill="white" stroke="#666666" points="277,-19 137,-19 137,0 277,0 277,-19"/>
<text text-anchor="middle" x="207" y="-7" font-family="Helvetica,sans-Serif" font-size="10.00">cbrc::AminoScorePam120</text>
</a>
</g>
</g>
<!-- Node0&#45;&gt;Node2 -->
<g id="edge2_Node000000_Node000002" class="edge">
<title>Node0&#45;&gt;Node2</title>
<g id="a_edge2_Node000000_Node000002"><a xlink:title=" ">
<path fill="none" stroke="#63b8ff" d="M111.3,-20.53C119.7,-19.55 128.39,-18.54 136.94,-17.55"/>
<polygon fill="#63b8ff" stroke="#63b8ff" points="110.76,-17.07 101.24,-21.71 111.57,-24.02 110.76,-17.07"/>
</a>
</g>
</g>
</g>
</svg>
