<?xml version="1.0" encoding="UTF-8" standalone="no"?>
<!DOCTYPE svg PUBLIC "-//W3C//DTD SVG 1.1//EN"
 "http://www.w3.org/Graphics/SVG/1.1/DTD/svg11.dtd">
<!-- Generated by graphviz version 2.43.0 (0)
 -->
<!-- Title: Graphical Class Hierarchy Pages: 1 -->
<svg width="536pt" height="64pt"
 viewBox="0.00 0.00 536.00 64.00" xmlns="http://www.w3.org/2000/svg" xmlns:xlink="http://www.w3.org/1999/xlink">
<g id="graph0" class="graph" transform="scale(1 1) rotate(0) translate(4 60)">
<title>Graphical Class Hierarchy</title>
<!-- Node0 -->
<g id="Node000000" class="node">
<title>Node0</title>
<g id="a_Node000000"><a xlink:href="classcbrc_1_1MallocArray.html" target="_top" xlink:title=" ">
<polygon fill="white" stroke="#666666" points="130,-37 0,-37 0,-18 130,-18 130,-37"/>
<text text-anchor="middle" x="65" y="-25" font-family="Helvetica,sans-Serif" font-size="10.00">cbrc::MallocArray&lt; T &gt;</text>
</a>
</g>
</g>
<!-- Node1 -->
<g id="Node000001" class="node">
<title>Node1</title>
<g id="a_Node000001"><a xlink:href="classcbrc_1_1MallocArrayFast.html" target="_top" xlink:title=" ">
<polygon fill="white" stroke="#666666" points="317,-56 168,-56 168,-37 317,-37 317,-56"/>
<text text-anchor="middle" x="242.5" y="-44" font-family="Helvetica,sans-Serif" font-size="10.00">cbrc::MallocArrayFast&lt; T &gt;</text>
</a>
</g>
</g>
<!-- Node0&#45;&gt;Node1 -->
<g id="edge41_Node000000_Node000001" class="edge">
<title>Node0&#45;&gt;Node1</title>
<g id="a_edge41_Node000000_Node000001"><a xlink:title=" ">
<path fill="none" stroke="#63b8ff" d="M140.51,-35.57C149.6,-36.55 158.88,-37.56 167.95,-38.54"/>
<polygon fill="#63b8ff" stroke="#63b8ff" points="140.67,-32.06 130.35,-34.47 139.92,-39.02 140.67,-32.06"/>
</a>
</g>
</g>
<!-- Node2 -->
<g id="Node000002" class="node">
<title>Node2</title>
<g id="a_Node000002"><a xlink:href="classcbrc_1_1MallocNumArray.html" target="_top" xlink:title=" ">
<polygon fill="white" stroke="#666666" points="319,-19 166,-19 166,0 319,0 319,-19"/>
<text text-anchor="middle" x="242.5" y="-7" font-family="Helvetica,sans-Serif" font-size="10.00">cbrc::MallocNumArray&lt; T &gt;</text>
</a>
</g>
</g>
<!-- Node0&#45;&gt;Node2 -->
<g id="edge42_Node000000_Node000002" class="edge">
<title>Node0&#45;&gt;Node2</title>
<g id="a_edge42_Node000000_Node000002"><a xlink:title=" ">
<path fill="none" stroke="#63b8ff" d="M140.49,-19.86C148.88,-19 157.44,-18.12 165.85,-17.26"/>
<polygon fill="#63b8ff" stroke="#63b8ff" points="139.94,-16.4 130.35,-20.9 140.66,-23.36 139.94,-16.4"/>
</a>
</g>
</g>
<!-- Node3 -->
<g id="Node000003" class="node">
<title>Node3</title>
<g id="a_Node000003"><a xlink:href="classcbrc_1_1MallocNumArrayFast.html" target="_top" xlink:title=" ">
<polygon fill="white" stroke="#666666" points="528,-19 355,-19 355,0 528,0 528,-19"/>
<text text-anchor="middle" x="441.5" y="-7" font-family="Helvetica,sans-Serif" font-size="10.00">cbrc::MallocNumArrayFast&lt; T &gt;</text>
</a>
</g>
</g>
<!-- Node2&#45;&gt;Node3 -->
<g id="edge43_Node000002_Node000003" class="edge">
<title>Node2&#45;&gt;Node3</title>
<g id="a_edge43_Node000002_Node000003"><a xlink:title=" ">
<path fill="none" stroke="#63b8ff" d="M329.36,-9.5C337.84,-9.5 346.44,-9.5 354.92,-9.5"/>
<polygon fill="#63b8ff" stroke="#63b8ff" points="329.1,-6 319.1,-9.5 329.1,-13 329.1,-6"/>
</a>
</g>
</g>
</g>
</svg>
