<?xml version="1.0" encoding="UTF-8" standalone="no"?>
<!DOCTYPE svg PUBLIC "-//W3C//DTD SVG 1.1//EN"
 "http://www.w3.org/Graphics/SVG/1.1/DTD/svg11.dtd">
<!-- Generated by graphviz version 2.43.0 (0)
 -->
<!-- Title: knapsack_src/KnapsackObjectVector.cc Pages: 1 -->
<!--zoomable 258 -->

<svg id="main" version="1.1" xmlns="http://www.w3.org/2000/svg" xmlns:xlink="http://www.w3.org/1999/xlink" xml:space="preserve" onload="init(evt)">
<style type="text/css"><![CDATA[
.node, .edge {opacity: 0.7;}
.node.selected, .edge.selected {opacity: 1;}
.edge:hover path { stroke: red; }
.edge:hover polygon { stroke: red; fill: red; }
]]></style>

<defs>
  <circle id="rim" cx="0" cy="0" r="7"/>
  <circle id="rim2" cx="0" cy="0" r="3.5"/>
  <g id="zoomPlus">
    <use xlink:href="#rim" fill="#404040"><set attributeName="fill" to="#808080" begin="zoomplus.mouseover" end="zoomplus.mouseout"/></use>
    <path d="M-4,0h8M0,-4v8" fill="none" stroke="white" stroke-width="1.5" pointer-events="none"/>
  </g>
  <g id="zoomMin">
    <use xlink:href="#rim" fill="#404040"><set attributeName="fill" to="#808080" begin="zoomminus.mouseover" end="zoomminus.mouseout"/></use>
    <path d="M-4,0h8" fill="none" stroke="white" stroke-width="1.5" pointer-events="none"/>
  </g>
  <g id="arrowUp" transform="translate(30 24)">
    <use xlink:href="#rim"/>
    <path pointer-events="none" fill="none" stroke="white" stroke-width="1.5" d="M0,-3.0v7 M-2.5,-0.5L0,-3.0L2.5,-0.5"/>
  </g>
  <g id="arrowRight" transform="rotate(90) translate(36 -43)">
    <use xlink:href="#rim"/>
    <path pointer-events="none" fill="none" stroke="white" stroke-width="1.5" d="M0,-3.0v7 M-2.5,-0.5L0,-3.0L2.5,-0.5"/>
  </g>
  <g id="arrowDown" transform="rotate(180) translate(-30 -48)">
    <use xlink:href="#rim"/>
    <path pointer-events="none" fill="none" stroke="white" stroke-width="1.5" d="M0,-3.0v7 M-2.5,-0.5L0,-3.0L2.5,-0.5"/>
  </g>
  <g id="arrowLeft" transform="rotate(270) translate(-36 17)">
    <use xlink:href="#rim"/>
    <path pointer-events="none" fill="none" stroke="white" stroke-width="1.5" d="M0,-3.0v7 M-2.5,-0.5L0,-3.0L2.5,-0.5"/>
  </g>
  <g id="resetDef">
    <use xlink:href="#rim2" fill="#404040"><set attributeName="fill" to="#808080" begin="reset.mouseover" end="reset.mouseout"/></use>
  </g>
</defs>
<script type="application/ecmascript">
var viewWidth = 1007;
var viewHeight = 258;
var sectionId = 'dynsection-0';
</script>
<script type="application/ecmascript" xlink:href="svg.min.js"/>
<svg id="graph" class="graph">
<g id="viewport">
<title>knapsack_src/KnapsackObjectVector.cc</title>
<!-- Node1 -->
<g id="Node000001" class="node">
<title>Node1</title>
<g id="a_Node000001"><a xlink:title=" ">
<polygon fill="#999999" stroke="#666666" points="681.34,-250 517.34,-250 517.34,-220 681.34,-220 681.34,-250"/>
<text text-anchor="start" x="525.34" y="-238" font-family="Helvetica,sans-Serif" font-size="10.00">knapsack_src/KnapsackObject</text>
<text text-anchor="middle" x="599.34" y="-227" font-family="Helvetica,sans-Serif" font-size="10.00">Vector.cc</text>
</a>
</g>
</g>
<!-- Node2 -->
<g id="Node000002" class="node">
<title>Node2</title>
<g id="a_Node000002"><a xlink:title=" ">
<polygon fill="#e0e0e0" stroke="#999999" points="586.84,-184 461.84,-184 461.84,-165 586.84,-165 586.84,-184"/>
<text text-anchor="middle" x="524.34" y="-172" font-family="Helvetica,sans-Serif" font-size="10.00">boost/lexical_cast.hpp</text>
</a>
</g>
</g>
<!-- Node1&#45;&gt;Node2 -->
<g id="edge1_Node000001_Node000002" class="edge">
<title>Node1&#45;&gt;Node2</title>
<g id="a_edge1_Node000001_Node000002"><a xlink:title=" ">
<path fill="none" stroke="#63b8ff" d="M581.19,-219.84C569.86,-211 555.28,-199.63 543.73,-190.62"/>
<polygon fill="#63b8ff" stroke="#63b8ff" points="545.62,-187.66 535.58,-184.27 541.31,-193.18 545.62,-187.66"/>
</a>
</g>
</g>
<!-- Node3 -->
<g id="Node000003" class="node">
<title>Node3</title>
<g id="a_Node000003"><a xlink:href="KnapsackObjectVector_8hh.html" target="_top" xlink:title=" ">
<polygon fill="white" stroke="#666666" points="745.34,-184 605.34,-184 605.34,-165 745.34,-165 745.34,-184"/>
<text text-anchor="middle" x="675.34" y="-172" font-family="Helvetica,sans-Serif" font-size="10.00">KnapsackObjectVector.hh</text>
</a>
</g>
</g>
<!-- Node1&#45;&gt;Node3 -->
<g id="edge2_Node000001_Node000003" class="edge">
<title>Node1&#45;&gt;Node3</title>
<g id="a_edge2_Node000001_Node000003"><a xlink:title=" ">
<path fill="none" stroke="#63b8ff" d="M617.74,-219.84C629.22,-211 643.99,-199.63 655.7,-190.62"/>
<polygon fill="#63b8ff" stroke="#63b8ff" points="658.17,-193.14 663.96,-184.27 653.9,-187.59 658.17,-193.14"/>
</a>
</g>
</g>
<!-- Node4 -->
<g id="Node000004" class="node">
<title>Node4</title>
<g id="a_Node000004"><a xlink:title=" ">
<polygon fill="#e0e0e0" stroke="#999999" points="726.34,-19 666.34,-19 666.34,0 726.34,0 726.34,-19"/>
<text text-anchor="middle" x="696.34" y="-7" font-family="Helvetica,sans-Serif" font-size="10.00">iostream</text>
</a>
</g>
</g>
<!-- Node3&#45;&gt;Node4 -->
<g id="edge3_Node000003_Node000004" class="edge">
<title>Node3&#45;&gt;Node4</title>
<g id="a_edge3_Node000003_Node000004"><a xlink:title=" ">
<path fill="none" stroke="#63b8ff" d="M680.92,-164.72C686.08,-156.03 693.39,-142.17 696.34,-129 704.08,-94.5 701.43,-52.91 698.85,-29.3"/>
<polygon fill="#63b8ff" stroke="#63b8ff" points="702.31,-28.77 697.64,-19.27 695.36,-29.61 702.31,-28.77"/>
</a>
</g>
</g>
<!-- Node5 -->
<g id="Node000005" class="node">
<title>Node5</title>
<g id="a_Node000005"><a xlink:title=" ">
<polygon fill="#e0e0e0" stroke="#999999" points="687.34,-129 583.34,-129 583.34,-110 687.34,-110 687.34,-129"/>
<text text-anchor="middle" x="635.34" y="-117" font-family="Helvetica,sans-Serif" font-size="10.00">boost/foreach.hpp</text>
</a>
</g>
</g>
<!-- Node3&#45;&gt;Node5 -->
<g id="edge4_Node000003_Node000005" class="edge">
<title>Node3&#45;&gt;Node5</title>
<g id="a_edge4_Node000003_Node000005"><a xlink:title=" ">
<path fill="none" stroke="#63b8ff" d="M668.74,-164.75C663.09,-157.26 654.8,-146.28 647.89,-137.13"/>
<polygon fill="#63b8ff" stroke="#63b8ff" points="650.64,-134.96 641.83,-129.09 645.06,-139.18 650.64,-134.96"/>
</a>
</g>
</g>
<!-- Node6 -->
<g id="Node000006" class="node">
<title>Node6</title>
<g id="a_Node000006"><a xlink:href="knapsack__src_2utils_2perlish_2perlish_8hh.html" target="_top" xlink:title=" ">
<polygon fill="white" stroke="#666666" points="447.84,-129 322.84,-129 322.84,-110 447.84,-110 447.84,-129"/>
<text text-anchor="middle" x="385.34" y="-117" font-family="Helvetica,sans-Serif" font-size="10.00">utils/perlish/perlish.hh</text>
</a>
</g>
</g>
<!-- Node3&#45;&gt;Node6 -->
<g id="edge5_Node000003_Node000006" class="edge">
<title>Node3&#45;&gt;Node6</title>
<g id="a_edge5_Node000003_Node000006"><a xlink:title=" ">
<path fill="none" stroke="#63b8ff" d="M628.75,-164.98C577.95,-155.7 496.65,-140.84 442.15,-130.88"/>
<polygon fill="#63b8ff" stroke="#63b8ff" points="442.77,-127.44 432.3,-129.08 441.51,-134.32 442.77,-127.44"/>
</a>
</g>
</g>
<!-- Node21 -->
<g id="Node000021" class="node">
<title>Node21</title>
<g id="a_Node000021"><a xlink:href="KnapsackObject_8hh.html" target="_top" xlink:title=" ">
<polygon fill="white" stroke="#666666" points="853.34,-129 743.34,-129 743.34,-110 853.34,-110 853.34,-129"/>
<text text-anchor="middle" x="798.34" y="-117" font-family="Helvetica,sans-Serif" font-size="10.00">KnapsackObject.hh</text>
</a>
</g>
</g>
<!-- Node3&#45;&gt;Node21 -->
<g id="edge26_Node000003_Node000021" class="edge">
<title>Node3&#45;&gt;Node21</title>
<g id="a_edge26_Node000003_Node000021"><a xlink:title=" ">
<path fill="none" stroke="#63b8ff" d="M695.11,-164.98C715.07,-156.38 746.15,-142.99 768.99,-133.15"/>
<polygon fill="#63b8ff" stroke="#63b8ff" points="770.42,-136.34 778.22,-129.17 767.65,-129.91 770.42,-136.34"/>
</a>
</g>
</g>
<!-- Node6&#45;&gt;Node4 -->
<g id="edge7_Node000006_Node000004" class="edge">
<title>Node6&#45;&gt;Node4</title>
<g id="a_edge7_Node000006_Node000004"><a xlink:title=" ">
<path fill="none" stroke="#63b8ff" d="M445.35,-110C485.81,-103.1 539.9,-91.59 585.34,-74 603.03,-67.15 646.55,-41.16 673.54,-24.63"/>
<polygon fill="#63b8ff" stroke="#63b8ff" points="675.65,-27.44 682.33,-19.22 671.98,-21.48 675.65,-27.44"/>
</a>
</g>
</g>
<!-- Node7 -->
<g id="Node000007" class="node">
<title>Node7</title>
<g id="a_Node000007"><a xlink:title=" ">
<polygon fill="#e0e0e0" stroke="#999999" points="686.84,-74 633.84,-74 633.84,-55 686.84,-55 686.84,-74"/>
<text text-anchor="middle" x="660.34" y="-62" font-family="Helvetica,sans-Serif" font-size="10.00">ctype.h</text>
</a>
</g>
</g>
<!-- Node6&#45;&gt;Node7 -->
<g id="edge6_Node000006_Node000007" class="edge">
<title>Node6&#45;&gt;Node7</title>
<g id="a_edge6_Node000006_Node000007"><a xlink:title=" ">
<path fill="none" stroke="#63b8ff" d="M431.56,-109.94C478.8,-101.14 554.25,-86.94 619.34,-74 620.63,-73.74 621.93,-73.48 623.25,-73.22"/>
<polygon fill="#63b8ff" stroke="#63b8ff" points="624.35,-76.57 633.45,-71.14 622.95,-69.71 624.35,-76.57"/>
</a>
</g>
</g>
<!-- Node8 -->
<g id="Node000008" class="node">
<title>Node8</title>
<g id="a_Node000008"><a xlink:title=" ">
<polygon fill="#e0e0e0" stroke="#999999" points="70.84,-74 15.84,-74 15.84,-55 70.84,-55 70.84,-74"/>
<text text-anchor="middle" x="43.34" y="-62" font-family="Helvetica,sans-Serif" font-size="10.00">fstream</text>
</a>
</g>
</g>
<!-- Node6&#45;&gt;Node8 -->
<g id="edge8_Node000006_Node000008" class="edge">
<title>Node6&#45;&gt;Node8</title>
<g id="a_edge8_Node000006_Node000008"><a xlink:title=" ">
<path fill="none" stroke="#63b8ff" d="M322.6,-110.85C263,-103.25 170.68,-90.59 81.22,-74.03"/>
<polygon fill="#63b8ff" stroke="#63b8ff" points="81.65,-70.55 71.17,-72.15 80.36,-77.43 81.65,-70.55"/>
</a>
</g>
</g>
<!-- Node9 -->
<g id="Node000009" class="node">
<title>Node9</title>
<g id="a_Node000009"><a xlink:title=" ">
<polygon fill="#e0e0e0" stroke="#999999" points="145.34,-74 89.34,-74 89.34,-55 145.34,-55 145.34,-74"/>
<text text-anchor="middle" x="117.34" y="-62" font-family="Helvetica,sans-Serif" font-size="10.00">sstream</text>
</a>
</g>
</g>
<!-- Node6&#45;&gt;Node9 -->
<g id="edge9_Node000006_Node000009" class="edge">
<title>Node6&#45;&gt;Node9</title>
<g id="a_edge9_Node000006_Node000009"><a xlink:title=" ">
<path fill="none" stroke="#63b8ff" d="M338.35,-109.95C293.79,-101.74 224.73,-88.71 155.77,-74.24"/>
<polygon fill="#63b8ff" stroke="#63b8ff" points="156.11,-70.74 145.6,-72.1 154.67,-77.59 156.11,-70.74"/>
</a>
</g>
</g>
<!-- Node10 -->
<g id="Node000010" class="node">
<title>Node10</title>
<g id="a_Node000010"><a xlink:title=" ">
<polygon fill="#e0e0e0" stroke="#999999" points="134.34,-19 90.34,-19 90.34,0 134.34,0 134.34,-19"/>
<text text-anchor="middle" x="112.34" y="-7" font-family="Helvetica,sans-Serif" font-size="10.00">string</text>
</a>
</g>
</g>
<!-- Node6&#45;&gt;Node10 -->
<g id="edge10_Node000006_Node000010" class="edge">
<title>Node6&#45;&gt;Node10</title>
<g id="a_edge10_Node000006_Node000010"><a xlink:title=" ">
<path fill="none" stroke="#63b8ff" d="M322.48,-115.61C220.18,-110.25 26.96,-97.17 6.34,-74 -18.71,-45.84 40.56,-26.42 80.21,-17.01"/>
<polygon fill="#63b8ff" stroke="#63b8ff" points="81.07,-20.4 90.05,-14.78 79.52,-13.58 81.07,-20.4"/>
</a>
</g>
</g>
<!-- Node11 -->
<g id="Node000011" class="node">
<title>Node11</title>
<g id="a_Node000011"><a xlink:title=" ">
<polygon fill="#e0e0e0" stroke="#999999" points="282.84,-19 235.84,-19 235.84,0 282.84,0 282.84,-19"/>
<text text-anchor="middle" x="259.34" y="-7" font-family="Helvetica,sans-Serif" font-size="10.00">vector</text>
</a>
</g>
</g>
<!-- Node6&#45;&gt;Node11 -->
<g id="edge11_Node000006_Node000011" class="edge">
<title>Node6&#45;&gt;Node11</title>
<g id="a_edge11_Node000006_Node000011"><a xlink:title=" ">
<path fill="none" stroke="#63b8ff" d="M371.05,-109.91C357.46,-101.47 336.73,-87.88 320.34,-74 303.12,-59.41 285.47,-40.52 273.62,-27.15"/>
<polygon fill="#63b8ff" stroke="#63b8ff" points="275.94,-24.49 266.73,-19.26 270.67,-29.1 275.94,-24.49"/>
</a>
</g>
</g>
<!-- Node12 -->
<g id="Node000012" class="node">
<title>Node12</title>
<g id="a_Node000012"><a xlink:title=" ">
<polygon fill="#e0e0e0" stroke="#999999" points="385.34,-74 329.34,-74 329.34,-55 385.34,-55 385.34,-74"/>
<text text-anchor="middle" x="357.34" y="-62" font-family="Helvetica,sans-Serif" font-size="10.00">assert.h</text>
</a>
</g>
</g>
<!-- Node6&#45;&gt;Node12 -->
<g id="edge12_Node000006_Node000012" class="edge">
<title>Node6&#45;&gt;Node12</title>
<g id="a_edge12_Node000006_Node000012"><a xlink:title=" ">
<path fill="none" stroke="#63b8ff" d="M380.72,-109.75C376.89,-102.49 371.32,-91.95 366.58,-82.98"/>
<polygon fill="#63b8ff" stroke="#63b8ff" points="369.65,-81.3 361.88,-74.09 363.46,-84.57 369.65,-81.3"/>
</a>
</g>
</g>
<!-- Node13 -->
<g id="Node000013" class="node">
<title>Node13</title>
<g id="a_Node000013"><a xlink:title=" ">
<polygon fill="#e0e0e0" stroke="#999999" points="508.84,-19 413.84,-19 413.84,0 508.84,0 508.84,-19"/>
<text text-anchor="middle" x="461.34" y="-7" font-family="Helvetica,sans-Serif" font-size="10.00">boost/regex.hpp</text>
</a>
</g>
</g>
<!-- Node6&#45;&gt;Node13 -->
<g id="edge13_Node000006_Node000013" class="edge">
<title>Node6&#45;&gt;Node13</title>
<g id="a_edge13_Node000006_Node000013"><a xlink:title=" ">
<path fill="none" stroke="#63b8ff" d="M391.56,-109.66C404.21,-91.69 433.1,-50.64 449.46,-27.38"/>
<polygon fill="#63b8ff" stroke="#63b8ff" points="452.36,-29.35 455.25,-19.16 446.63,-25.32 452.36,-29.35"/>
</a>
</g>
</g>
<!-- Node14 -->
<g id="Node000014" class="node">
<title>Node14</title>
<g id="a_Node000014"><a xlink:href="ematch__src_2utils_2gdb_2gdbUtils_8hh.html" target="_top" xlink:title=" ">
<polygon fill="white" stroke="#666666" points="898.84,-74 781.84,-74 781.84,-55 898.84,-55 898.84,-74"/>
<text text-anchor="middle" x="840.34" y="-62" font-family="Helvetica,sans-Serif" font-size="10.00">utils/gdb/gdbUtils.hh</text>
</a>
</g>
</g>
<!-- Node6&#45;&gt;Node14 -->
<g id="edge14_Node000006_Node000014" class="edge">
<title>Node6&#45;&gt;Node14</title>
<g id="a_edge14_Node000006_Node000014"><a xlink:title=" ">
<path fill="none" stroke="#63b8ff" d="M448.13,-111.19C533.02,-101.3 683.86,-83.73 771.67,-73.5"/>
<polygon fill="#63b8ff" stroke="#63b8ff" points="772.27,-76.95 781.8,-72.32 771.46,-70 772.27,-76.95"/>
</a>
</g>
</g>
<!-- Node19 -->
<g id="Node000019" class="node">
<title>Node19</title>
<g id="a_Node000019"><a xlink:href="ematch__src_2utils_2stl_2stlTypes_8hh.html" target="_top" xlink:title=" ">
<polygon fill="white" stroke="#666666" points="273.34,-74 163.34,-74 163.34,-55 273.34,-55 273.34,-74"/>
<text text-anchor="middle" x="218.34" y="-62" font-family="Helvetica,sans-Serif" font-size="10.00">utils/stl/stlTypes.hh</text>
</a>
</g>
</g>
<!-- Node6&#45;&gt;Node19 -->
<g id="edge20_Node000006_Node000019" class="edge">
<title>Node6&#45;&gt;Node19</title>
<g id="a_edge20_Node000006_Node000019"><a xlink:title=" ">
<path fill="none" stroke="#63b8ff" d="M358.51,-109.98C330.47,-101.09 286.3,-87.07 255.04,-77.15"/>
<polygon fill="#63b8ff" stroke="#63b8ff" points="255.98,-73.77 245.39,-74.08 253.86,-80.44 255.98,-73.77"/>
</a>
</g>
</g>
<!-- Node20 -->
<g id="Node000020" class="node">
<title>Node20</title>
<g id="a_Node000020"><a xlink:href="ematch__src_2utils_2boost_2boostUtils_8hh.html" target="_top" xlink:title=" ">
<polygon fill="white" stroke="#666666" points="576.84,-74 441.84,-74 441.84,-55 576.84,-55 576.84,-74"/>
<text text-anchor="middle" x="509.34" y="-62" font-family="Helvetica,sans-Serif" font-size="10.00">utils/boost/boostUtils.hh</text>
</a>
</g>
</g>
<!-- Node6&#45;&gt;Node20 -->
<g id="edge23_Node000006_Node000020" class="edge">
<title>Node6&#45;&gt;Node20</title>
<g id="a_edge23_Node000006_Node000020"><a xlink:title=" ">
<path fill="none" stroke="#63b8ff" d="M405.27,-109.98C425.39,-101.38 456.72,-87.99 479.75,-78.15"/>
<polygon fill="#63b8ff" stroke="#63b8ff" points="481.24,-81.32 489.06,-74.17 478.49,-74.88 481.24,-81.32"/>
</a>
</g>
</g>
<!-- Node14&#45;&gt;Node4 -->
<g id="edge16_Node000014_Node000004" class="edge">
<title>Node14&#45;&gt;Node4</title>
<g id="a_edge16_Node000014_Node000004"><a xlink:title=" ">
<path fill="none" stroke="#63b8ff" d="M817.21,-54.98C793.52,-46.27 756.47,-32.63 729.64,-22.75"/>
<polygon fill="#63b8ff" stroke="#63b8ff" points="730.49,-19.34 719.9,-19.17 728.08,-25.91 730.49,-19.34"/>
</a>
</g>
</g>
<!-- Node15 -->
<g id="Node000015" class="node">
<title>Node15</title>
<g id="a_Node000015"><a xlink:title=" ">
<polygon fill="#e0e0e0" stroke="#999999" points="797.84,-19 744.84,-19 744.84,0 797.84,0 797.84,-19"/>
<text text-anchor="middle" x="771.34" y="-7" font-family="Helvetica,sans-Serif" font-size="10.00">cstdarg</text>
</a>
</g>
</g>
<!-- Node14&#45;&gt;Node15 -->
<g id="edge15_Node000014_Node000015" class="edge">
<title>Node14&#45;&gt;Node15</title>
<g id="a_edge15_Node000014_Node000015"><a xlink:title=" ">
<path fill="none" stroke="#63b8ff" d="M829.26,-54.98C818.86,-47 803.08,-34.88 790.62,-25.31"/>
<polygon fill="#63b8ff" stroke="#63b8ff" points="792.69,-22.49 782.63,-19.17 788.43,-28.04 792.69,-22.49"/>
</a>
</g>
</g>
<!-- Node16 -->
<g id="Node000016" class="node">
<title>Node16</title>
<g id="a_Node000016"><a xlink:title=" ">
<polygon fill="#e0e0e0" stroke="#999999" points="864.84,-19 815.84,-19 815.84,0 864.84,0 864.84,-19"/>
<text text-anchor="middle" x="840.34" y="-7" font-family="Helvetica,sans-Serif" font-size="10.00">cstdlib</text>
</a>
</g>
</g>
<!-- Node14&#45;&gt;Node16 -->
<g id="edge17_Node000014_Node000016" class="edge">
<title>Node14&#45;&gt;Node16</title>
<g id="a_edge17_Node000014_Node000016"><a xlink:title=" ">
<path fill="none" stroke="#63b8ff" d="M840.34,-54.75C840.34,-47.8 840.34,-37.85 840.34,-29.13"/>
<polygon fill="#63b8ff" stroke="#63b8ff" points="843.84,-29.09 840.34,-19.09 836.84,-29.09 843.84,-29.09"/>
</a>
</g>
</g>
<!-- Node17 -->
<g id="Node000017" class="node">
<title>Node17</title>
<g id="a_Node000017"><a xlink:title=" ">
<polygon fill="#e0e0e0" stroke="#999999" points="929.34,-19 883.34,-19 883.34,0 929.34,0 929.34,-19"/>
<text text-anchor="middle" x="906.34" y="-7" font-family="Helvetica,sans-Serif" font-size="10.00">cstdio</text>
</a>
</g>
</g>
<!-- Node14&#45;&gt;Node17 -->
<g id="edge18_Node000014_Node000017" class="edge">
<title>Node14&#45;&gt;Node17</title>
<g id="a_edge18_Node000014_Node000017"><a xlink:title=" ">
<path fill="none" stroke="#63b8ff" d="M850.95,-54.98C860.8,-47.07 875.69,-35.11 887.56,-25.58"/>
<polygon fill="#63b8ff" stroke="#63b8ff" points="889.94,-28.16 895.55,-19.17 885.56,-22.7 889.94,-28.16"/>
</a>
</g>
</g>
<!-- Node18 -->
<g id="Node000018" class="node">
<title>Node18</title>
<g id="a_Node000018"><a xlink:title=" ">
<polygon fill="#e0e0e0" stroke="#999999" points="999.34,-19 947.34,-19 947.34,0 999.34,0 999.34,-19"/>
<text text-anchor="middle" x="973.34" y="-7" font-family="Helvetica,sans-Serif" font-size="10.00">cassert</text>
</a>
</g>
</g>
<!-- Node14&#45;&gt;Node18 -->
<g id="edge19_Node000014_Node000018" class="edge">
<title>Node14&#45;&gt;Node18</title>
<g id="a_edge19_Node000014_Node000018"><a xlink:title=" ">
<path fill="none" stroke="#63b8ff" d="M861.71,-54.98C883.49,-46.3 917.51,-32.75 942.27,-22.88"/>
<polygon fill="#63b8ff" stroke="#63b8ff" points="943.59,-26.12 951.59,-19.17 941,-19.62 943.59,-26.12"/>
</a>
</g>
</g>
<!-- Node19&#45;&gt;Node10 -->
<g id="edge21_Node000019_Node000010" class="edge">
<title>Node19&#45;&gt;Node10</title>
<g id="a_edge21_Node000019_Node000010"><a xlink:title=" ">
<path fill="none" stroke="#63b8ff" d="M201.31,-54.98C184.41,-46.54 158.28,-33.47 138.7,-23.68"/>
<polygon fill="#63b8ff" stroke="#63b8ff" points="140.19,-20.51 129.68,-19.17 137.06,-26.77 140.19,-20.51"/>
</a>
</g>
</g>
<!-- Node19&#45;&gt;Node11 -->
<g id="edge22_Node000019_Node000011" class="edge">
<title>Node19&#45;&gt;Node11</title>
<g id="a_edge22_Node000019_Node000011"><a xlink:title=" ">
<path fill="none" stroke="#63b8ff" d="M225.11,-54.75C230.91,-47.26 239.4,-36.28 246.48,-27.13"/>
<polygon fill="#63b8ff" stroke="#63b8ff" points="249.35,-29.14 252.7,-19.09 243.81,-24.86 249.35,-29.14"/>
</a>
</g>
</g>
<!-- Node20&#45;&gt;Node4 -->
<g id="edge24_Node000020_Node000004" class="edge">
<title>Node20&#45;&gt;Node4</title>
<g id="a_edge24_Node000020_Node000004"><a xlink:title=" ">
<path fill="none" stroke="#63b8ff" d="M539.39,-54.98C571.06,-46.01 621.11,-31.82 656.16,-21.89"/>
<polygon fill="#63b8ff" stroke="#63b8ff" points="657.4,-25.18 666.06,-19.08 655.49,-18.44 657.4,-25.18"/>
</a>
</g>
</g>
<!-- Node20&#45;&gt;Node13 -->
<g id="edge25_Node000020_Node000013" class="edge">
<title>Node20&#45;&gt;Node13</title>
<g id="a_edge25_Node000020_Node000013"><a xlink:title=" ">
<path fill="none" stroke="#63b8ff" d="M501.42,-54.75C494.5,-47.11 484.28,-35.82 475.89,-26.56"/>
<polygon fill="#63b8ff" stroke="#63b8ff" points="478.43,-24.15 469.12,-19.09 473.24,-28.85 478.43,-24.15"/>
</a>
</g>
</g>
<!-- Node21&#45;&gt;Node4 -->
<g id="edge27_Node000021_Node000004" class="edge">
<title>Node21&#45;&gt;Node4</title>
<g id="a_edge27_Node000021_Node000004"><a xlink:title=" ">
<path fill="none" stroke="#63b8ff" d="M790,-109.66C772.8,-91.46 733.22,-49.55 711.42,-26.47"/>
<polygon fill="#63b8ff" stroke="#63b8ff" points="713.93,-24.03 704.52,-19.16 708.84,-28.83 713.93,-24.03"/>
</a>
</g>
</g>
</g>
</svg>

<g id="navigator" transform="translate(0 0)" fill="#404254">
  <rect fill="#f2f5e9" fill-opacity="0.5" stroke="#606060" stroke-width=".5" x="0" y="0" width="60" height="60"/>
  <use id="zoomplus" xlink:href="#zoomPlus" x="17" y="9" onmousedown="handleZoom(evt,'in')"/>
  <use id="zoomminus" xlink:href="#zoomMin" x="42" y="9" onmousedown="handleZoom(evt,'out')"/>
  <use id="reset" xlink:href="#resetDef" x="30" y="36" onmousedown="handleReset()"/>
   <use id="arrowup" xlink:href="#arrowUp" x="0" y="0" onmousedown="handlePan(0,-1)"/>
  <use id="arrowright" xlink:href="#arrowRight" x="0" y="0" onmousedown="handlePan(1,0)"/>
  <use id="arrowdown" xlink:href="#arrowDown" x="0" y="0" onmousedown="handlePan(0,1)"/>
  <use id="arrowleft" xlink:href="#arrowLeft" x="0" y="0" onmousedown="handlePan(-1,0)"/>
</g>
<svg viewBox="0 0 15 15" width="100%" height="30px" preserveAspectRatio="xMaxYMin meet">
 <g id="arrow_out" transform="scale(0.3 0.3)">
  <a xlink:href="KnapsackObjectVector_8cc__incl_org.svg" target="_base">
   <rect id="button" ry="5" rx="5" y="6" x="6" height="38" width="38"
        fill="#f2f5e9" fill-opacity="0.5" stroke="#606060" stroke-width="1.0"/>
   <path id="arrow"
     d="M 11.500037,31.436501 C 11.940474,20.09759 22.043105,11.32322 32.158766,21.979434 L 37.068811,17.246167 C 37.068811,17.246167 37.088388,32 37.088388,32 L 22.160133,31.978069 C 22.160133,31.978069 26.997745,27.140456 26.997745,27.140456 C 18.528582,18.264221 13.291696,25.230495 11.500037,31.436501 z"
     style="fill:#404040;"/>
  </a>
 </g>
</svg>

<style type='text/css'>
<![CDATA[
[data-mouse-over-selected='false'] { opacity: 0.7; }
[data-mouse-over-selected='true']  { opacity: 1.0; }
]]>
</style>
<script type="application/ecmascript"><![CDATA[
document.addEventListener('DOMContentLoaded', (event) => {
  highlightEdges();
  highlightAdjacentNodes();
});
]]></script>
</svg>
