<?xml version="1.0" encoding="UTF-8" standalone="no"?>
<!DOCTYPE svg PUBLIC "-//W3C//DTD SVG 1.1//EN"
 "http://www.w3.org/Graphics/SVG/1.1/DTD/svg11.dtd">
<!-- Generated by graphviz version 2.43.0 (0)
 -->
<!-- Title: knapsack_src/utils/perlish/perlish.hh Pages: 1 -->
<svg width="954pt" height="148pt"
 viewBox="0.00 0.00 953.50 148.00" xmlns="http://www.w3.org/2000/svg" xmlns:xlink="http://www.w3.org/1999/xlink">
<g id="graph0" class="graph" transform="scale(1 1) rotate(0) translate(4 144)">
<title>knapsack_src/utils/perlish/perlish.hh</title>
<!-- Node1 -->
<g id="Node000001" class="node">
<title>Node1</title>
<g id="a_Node000001"><a xlink:title=" ">
<polygon fill="#999999" stroke="#666666" points="449,-140 342,-140 342,-110 449,-110 449,-140"/>
<text text-anchor="start" x="350" y="-128" font-family="Helvetica,sans-Serif" font-size="10.00">knapsack_src/utils</text>
<text text-anchor="middle" x="395.5" y="-117" font-family="Helvetica,sans-Serif" font-size="10.00">/perlish/perlish.hh</text>
</a>
</g>
</g>
<!-- Node2 -->
<g id="Node000002" class="node">
<title>Node2</title>
<g id="a_Node000002"><a xlink:title=" ">
<polygon fill="#e0e0e0" stroke="#999999" points="53,-74 0,-74 0,-55 53,-55 53,-74"/>
<text text-anchor="middle" x="26.5" y="-62" font-family="Helvetica,sans-Serif" font-size="10.00">ctype.h</text>
</a>
</g>
</g>
<!-- Node1&#45;&gt;Node2 -->
<g id="edge1_Node000001_Node000002" class="edge">
<title>Node1&#45;&gt;Node2</title>
<g id="a_edge1_Node000001_Node000002"><a xlink:title=" ">
<path fill="none" stroke="#63b8ff" d="M341.95,-116.73C276.9,-107.69 163.88,-91.32 67.5,-74 66.21,-73.77 64.9,-73.53 63.58,-73.28"/>
<polygon fill="#63b8ff" stroke="#63b8ff" points="63.85,-69.77 53.37,-71.28 62.51,-76.64 63.85,-69.77"/>
</a>
</g>
</g>
<!-- Node3 -->
<g id="Node000003" class="node">
<title>Node3</title>
<g id="a_Node000003"><a xlink:title=" ">
<polygon fill="#e0e0e0" stroke="#999999" points="672.5,-19 612.5,-19 612.5,0 672.5,0 672.5,-19"/>
<text text-anchor="middle" x="642.5" y="-7" font-family="Helvetica,sans-Serif" font-size="10.00">iostream</text>
</a>
</g>
</g>
<!-- Node1&#45;&gt;Node3 -->
<g id="edge2_Node000001_Node000003" class="edge">
<title>Node1&#45;&gt;Node3</title>
<g id="a_edge2_Node000001_Node000003"><a xlink:title=" ">
<path fill="none" stroke="#63b8ff" d="M449.18,-122.51C523.41,-119.19 651.54,-108.48 680.5,-74 693.12,-58.98 677.16,-39.28 662.23,-25.83"/>
<polygon fill="#63b8ff" stroke="#63b8ff" points="664.12,-22.85 654.22,-19.07 659.61,-28.2 664.12,-22.85"/>
</a>
</g>
</g>
<!-- Node4 -->
<g id="Node000004" class="node">
<title>Node4</title>
<g id="a_Node000004"><a xlink:title=" ">
<polygon fill="#e0e0e0" stroke="#999999" points="165,-74 110,-74 110,-55 165,-55 165,-74"/>
<text text-anchor="middle" x="137.5" y="-62" font-family="Helvetica,sans-Serif" font-size="10.00">fstream</text>
</a>
</g>
</g>
<!-- Node1&#45;&gt;Node4 -->
<g id="edge3_Node000001_Node000004" class="edge">
<title>Node1&#45;&gt;Node4</title>
<g id="a_edge3_Node000001_Node000004"><a xlink:title=" ">
<path fill="none" stroke="#63b8ff" d="M341.9,-111.93C299.41,-102.34 238.24,-88.52 175.47,-74.21"/>
<polygon fill="#63b8ff" stroke="#63b8ff" points="175.91,-70.73 165.38,-71.91 174.35,-77.55 175.91,-70.73"/>
</a>
</g>
</g>
<!-- Node5 -->
<g id="Node000005" class="node">
<title>Node5</title>
<g id="a_Node000005"><a xlink:title=" ">
<polygon fill="#e0e0e0" stroke="#999999" points="239.5,-74 183.5,-74 183.5,-55 239.5,-55 239.5,-74"/>
<text text-anchor="middle" x="211.5" y="-62" font-family="Helvetica,sans-Serif" font-size="10.00">sstream</text>
</a>
</g>
</g>
<!-- Node1&#45;&gt;Node5 -->
<g id="edge4_Node000001_Node000005" class="edge">
<title>Node1&#45;&gt;Node5</title>
<g id="a_edge4_Node000001_Node000005"><a xlink:title=" ">
<path fill="none" stroke="#63b8ff" d="M351.43,-109.99C319.81,-99.94 277.72,-86.55 247.98,-77.1"/>
<polygon fill="#63b8ff" stroke="#63b8ff" points="248.99,-73.75 238.4,-74.05 246.87,-80.42 248.99,-73.75"/>
</a>
</g>
</g>
<!-- Node6 -->
<g id="Node000006" class="node">
<title>Node6</title>
<g id="a_Node000006"><a xlink:title=" ">
<polygon fill="#e0e0e0" stroke="#999999" points="228.5,-19 184.5,-19 184.5,0 228.5,0 228.5,-19"/>
<text text-anchor="middle" x="206.5" y="-7" font-family="Helvetica,sans-Serif" font-size="10.00">string</text>
</a>
</g>
</g>
<!-- Node1&#45;&gt;Node6 -->
<g id="edge5_Node000001_Node000006" class="edge">
<title>Node1&#45;&gt;Node6</title>
<g id="a_edge5_Node000001_Node000006"><a xlink:title=" ">
<path fill="none" stroke="#63b8ff" d="M341.87,-122.88C265.37,-120.01 130.8,-109.86 100.5,-74 76.18,-45.21 135.18,-26.02 174.58,-16.82"/>
<polygon fill="#63b8ff" stroke="#63b8ff" points="175.35,-20.24 184.36,-14.65 173.83,-13.4 175.35,-20.24"/>
</a>
</g>
</g>
<!-- Node7 -->
<g id="Node000007" class="node">
<title>Node7</title>
<g id="a_Node000007"><a xlink:title=" ">
<polygon fill="#e0e0e0" stroke="#999999" points="377,-19 330,-19 330,0 377,0 377,-19"/>
<text text-anchor="middle" x="353.5" y="-7" font-family="Helvetica,sans-Serif" font-size="10.00">vector</text>
</a>
</g>
</g>
<!-- Node1&#45;&gt;Node7 -->
<g id="edge6_Node000001_Node000007" class="edge">
<title>Node1&#45;&gt;Node7</title>
<g id="a_edge6_Node000001_Node000007"><a xlink:title=" ">
<path fill="none" stroke="#63b8ff" d="M392.54,-109.98C389.35,-95.84 383.74,-73.51 376.5,-55 372.9,-45.79 367.95,-35.98 363.57,-27.92"/>
<polygon fill="#63b8ff" stroke="#63b8ff" points="366.58,-26.12 358.64,-19.11 360.48,-29.55 366.58,-26.12"/>
</a>
</g>
</g>
<!-- Node8 -->
<g id="Node000008" class="node">
<title>Node8</title>
<g id="a_Node000008"><a xlink:title=" ">
<polygon fill="#e0e0e0" stroke="#999999" points="479.5,-74 423.5,-74 423.5,-55 479.5,-55 479.5,-74"/>
<text text-anchor="middle" x="451.5" y="-62" font-family="Helvetica,sans-Serif" font-size="10.00">assert.h</text>
</a>
</g>
</g>
<!-- Node1&#45;&gt;Node8 -->
<g id="edge7_Node000001_Node000008" class="edge">
<title>Node1&#45;&gt;Node8</title>
<g id="a_edge7_Node000001_Node000008"><a xlink:title=" ">
<path fill="none" stroke="#63b8ff" d="M409.06,-109.84C417.18,-101.35 427.55,-90.52 436,-81.69"/>
<polygon fill="#63b8ff" stroke="#63b8ff" points="438.72,-83.91 443.11,-74.27 433.67,-79.07 438.72,-83.91"/>
</a>
</g>
</g>
<!-- Node9 -->
<g id="Node000009" class="node">
<title>Node9</title>
<g id="a_Node000009"><a xlink:title=" ">
<polygon fill="#e0e0e0" stroke="#999999" points="574,-19 479,-19 479,0 574,0 574,-19"/>
<text text-anchor="middle" x="526.5" y="-7" font-family="Helvetica,sans-Serif" font-size="10.00">boost/regex.hpp</text>
</a>
</g>
</g>
<!-- Node1&#45;&gt;Node9 -->
<g id="edge8_Node000001_Node000009" class="edge">
<title>Node1&#45;&gt;Node9</title>
<g id="a_edge8_Node000001_Node000009"><a xlink:title=" ">
<path fill="none" stroke="#63b8ff" d="M431.97,-109.94C450.45,-101.53 472.33,-89.45 488.5,-74 501.97,-61.13 512.38,-42.46 518.87,-28.7"/>
<polygon fill="#63b8ff" stroke="#63b8ff" points="522.18,-29.86 523.05,-19.3 515.78,-27.01 522.18,-29.86"/>
</a>
</g>
</g>
<!-- Node10 -->
<g id="Node000010" class="node">
<title>Node10</title>
<g id="a_Node000010"><a xlink:href="ematch__src_2utils_2gdb_2gdbUtils_8hh.html" target="_top" xlink:title=" ">
<polygon fill="white" stroke="#666666" points="845,-74 728,-74 728,-55 845,-55 845,-74"/>
<text text-anchor="middle" x="786.5" y="-62" font-family="Helvetica,sans-Serif" font-size="10.00">utils/gdb/gdbUtils.hh</text>
</a>
</g>
</g>
<!-- Node1&#45;&gt;Node10 -->
<g id="edge9_Node000001_Node000010" class="edge">
<title>Node1&#45;&gt;Node10</title>
<g id="a_edge9_Node000001_Node000010"><a xlink:title=" ">
<path fill="none" stroke="#63b8ff" d="M449.05,-115.99C519.4,-105.46 642.98,-86.97 719.47,-75.53"/>
<polygon fill="#63b8ff" stroke="#63b8ff" points="720.11,-78.97 729.48,-74.03 719.07,-72.05 720.11,-78.97"/>
</a>
</g>
</g>
<!-- Node15 -->
<g id="Node000015" class="node">
<title>Node15</title>
<g id="a_Node000015"><a xlink:href="ematch__src_2utils_2stl_2stlTypes_8hh.html" target="_top" xlink:title=" ">
<polygon fill="white" stroke="#666666" points="367.5,-74 257.5,-74 257.5,-55 367.5,-55 367.5,-74"/>
<text text-anchor="middle" x="312.5" y="-62" font-family="Helvetica,sans-Serif" font-size="10.00">utils/stl/stlTypes.hh</text>
</a>
</g>
</g>
<!-- Node1&#45;&gt;Node15 -->
<g id="edge15_Node000001_Node000015" class="edge">
<title>Node1&#45;&gt;Node15</title>
<g id="a_edge15_Node000001_Node000015"><a xlink:title=" ">
<path fill="none" stroke="#63b8ff" d="M375.41,-109.84C362.62,-100.83 346.1,-89.18 333.2,-80.09"/>
<polygon fill="#63b8ff" stroke="#63b8ff" points="335.13,-77.17 324.94,-74.27 331.09,-82.89 335.13,-77.17"/>
</a>
</g>
</g>
<!-- Node16 -->
<g id="Node000016" class="node">
<title>Node16</title>
<g id="a_Node000016"><a xlink:href="ematch__src_2utils_2boost_2boostUtils_8hh.html" target="_top" xlink:title=" ">
<polygon fill="white" stroke="#666666" points="671,-74 536,-74 536,-55 671,-55 671,-74"/>
<text text-anchor="middle" x="603.5" y="-62" font-family="Helvetica,sans-Serif" font-size="10.00">utils/boost/boostUtils.hh</text>
</a>
</g>
</g>
<!-- Node1&#45;&gt;Node16 -->
<g id="edge18_Node000001_Node000016" class="edge">
<title>Node1&#45;&gt;Node16</title>
<g id="a_edge18_Node000001_Node000016"><a xlink:title=" ">
<path fill="none" stroke="#63b8ff" d="M445.32,-109.99C481.37,-99.85 529.48,-86.32 563.13,-76.85"/>
<polygon fill="#63b8ff" stroke="#63b8ff" points="564.41,-80.13 573.09,-74.05 562.51,-73.39 564.41,-80.13"/>
</a>
</g>
</g>
<!-- Node10&#45;&gt;Node3 -->
<g id="edge11_Node000010_Node000003" class="edge">
<title>Node10&#45;&gt;Node3</title>
<g id="a_edge11_Node000010_Node000003"><a xlink:title=" ">
<path fill="none" stroke="#63b8ff" d="M763.36,-54.98C739.68,-46.27 702.63,-32.63 675.79,-22.75"/>
<polygon fill="#63b8ff" stroke="#63b8ff" points="676.65,-19.34 666.06,-19.17 674.23,-25.91 676.65,-19.34"/>
</a>
</g>
</g>
<!-- Node11 -->
<g id="Node000011" class="node">
<title>Node11</title>
<g id="a_Node000011"><a xlink:title=" ">
<polygon fill="#e0e0e0" stroke="#999999" points="744,-19 691,-19 691,0 744,0 744,-19"/>
<text text-anchor="middle" x="717.5" y="-7" font-family="Helvetica,sans-Serif" font-size="10.00">cstdarg</text>
</a>
</g>
</g>
<!-- Node10&#45;&gt;Node11 -->
<g id="edge10_Node000010_Node000011" class="edge">
<title>Node10&#45;&gt;Node11</title>
<g id="a_edge10_Node000010_Node000011"><a xlink:title=" ">
<path fill="none" stroke="#63b8ff" d="M775.41,-54.98C765.01,-47 749.24,-34.88 736.78,-25.31"/>
<polygon fill="#63b8ff" stroke="#63b8ff" points="738.85,-22.49 728.79,-19.17 734.59,-28.04 738.85,-22.49"/>
</a>
</g>
</g>
<!-- Node12 -->
<g id="Node000012" class="node">
<title>Node12</title>
<g id="a_Node000012"><a xlink:title=" ">
<polygon fill="#e0e0e0" stroke="#999999" points="811,-19 762,-19 762,0 811,0 811,-19"/>
<text text-anchor="middle" x="786.5" y="-7" font-family="Helvetica,sans-Serif" font-size="10.00">cstdlib</text>
</a>
</g>
</g>
<!-- Node10&#45;&gt;Node12 -->
<g id="edge12_Node000010_Node000012" class="edge">
<title>Node10&#45;&gt;Node12</title>
<g id="a_edge12_Node000010_Node000012"><a xlink:title=" ">
<path fill="none" stroke="#63b8ff" d="M786.5,-54.75C786.5,-47.8 786.5,-37.85 786.5,-29.13"/>
<polygon fill="#63b8ff" stroke="#63b8ff" points="790,-29.09 786.5,-19.09 783,-29.09 790,-29.09"/>
</a>
</g>
</g>
<!-- Node13 -->
<g id="Node000013" class="node">
<title>Node13</title>
<g id="a_Node000013"><a xlink:title=" ">
<polygon fill="#e0e0e0" stroke="#999999" points="875.5,-19 829.5,-19 829.5,0 875.5,0 875.5,-19"/>
<text text-anchor="middle" x="852.5" y="-7" font-family="Helvetica,sans-Serif" font-size="10.00">cstdio</text>
</a>
</g>
</g>
<!-- Node10&#45;&gt;Node13 -->
<g id="edge13_Node000010_Node000013" class="edge">
<title>Node10&#45;&gt;Node13</title>
<g id="a_edge13_Node000010_Node000013"><a xlink:title=" ">
<path fill="none" stroke="#63b8ff" d="M797.1,-54.98C806.96,-47.07 821.85,-35.11 833.72,-25.58"/>
<polygon fill="#63b8ff" stroke="#63b8ff" points="836.1,-28.16 841.7,-19.17 831.71,-22.7 836.1,-28.16"/>
</a>
</g>
</g>
<!-- Node14 -->
<g id="Node000014" class="node">
<title>Node14</title>
<g id="a_Node000014"><a xlink:title=" ">
<polygon fill="#e0e0e0" stroke="#999999" points="945.5,-19 893.5,-19 893.5,0 945.5,0 945.5,-19"/>
<text text-anchor="middle" x="919.5" y="-7" font-family="Helvetica,sans-Serif" font-size="10.00">cassert</text>
</a>
</g>
</g>
<!-- Node10&#45;&gt;Node14 -->
<g id="edge14_Node000010_Node000014" class="edge">
<title>Node10&#45;&gt;Node14</title>
<g id="a_edge14_Node000010_Node000014"><a xlink:title=" ">
<path fill="none" stroke="#63b8ff" d="M807.87,-54.98C829.65,-46.3 863.66,-32.75 888.42,-22.88"/>
<polygon fill="#63b8ff" stroke="#63b8ff" points="889.75,-26.12 897.74,-19.17 887.16,-19.62 889.75,-26.12"/>
</a>
</g>
</g>
<!-- Node15&#45;&gt;Node6 -->
<g id="edge16_Node000015_Node000006" class="edge">
<title>Node15&#45;&gt;Node6</title>
<g id="a_edge16_Node000015_Node000006"><a xlink:title=" ">
<path fill="none" stroke="#63b8ff" d="M295.47,-54.98C278.57,-46.54 252.44,-33.47 232.86,-23.68"/>
<polygon fill="#63b8ff" stroke="#63b8ff" points="234.35,-20.51 223.84,-19.17 231.22,-26.77 234.35,-20.51"/>
</a>
</g>
</g>
<!-- Node15&#45;&gt;Node7 -->
<g id="edge17_Node000015_Node000007" class="edge">
<title>Node15&#45;&gt;Node7</title>
<g id="a_edge17_Node000015_Node000007"><a xlink:title=" ">
<path fill="none" stroke="#63b8ff" d="M319.27,-54.75C325.06,-47.26 333.56,-36.28 340.64,-27.13"/>
<polygon fill="#63b8ff" stroke="#63b8ff" points="343.51,-29.14 346.86,-19.09 337.97,-24.86 343.51,-29.14"/>
</a>
</g>
</g>
<!-- Node16&#45;&gt;Node3 -->
<g id="edge19_Node000016_Node000003" class="edge">
<title>Node16&#45;&gt;Node3</title>
<g id="a_edge19_Node000016_Node000003"><a xlink:title=" ">
<path fill="none" stroke="#63b8ff" d="M609.94,-54.75C615.39,-47.34 623.36,-36.5 630.06,-27.41"/>
<polygon fill="#63b8ff" stroke="#63b8ff" points="633.07,-29.22 636.18,-19.09 627.43,-25.07 633.07,-29.22"/>
</a>
</g>
</g>
<!-- Node16&#45;&gt;Node9 -->
<g id="edge20_Node000016_Node000009" class="edge">
<title>Node16&#45;&gt;Node9</title>
<g id="a_edge20_Node000016_Node000009"><a xlink:title=" ">
<path fill="none" stroke="#63b8ff" d="M591.13,-54.98C579.41,-46.92 561.58,-34.65 547.61,-25.03"/>
<polygon fill="#63b8ff" stroke="#63b8ff" points="549.32,-21.96 539.1,-19.17 545.35,-27.72 549.32,-21.96"/>
</a>
</g>
</g>
</g>
</svg>
