<?xml version="1.0" encoding="UTF-8" standalone="no"?>
<!DOCTYPE svg PUBLIC "-//W3C//DTD SVG 1.1//EN"
 "http://www.w3.org/Graphics/SVG/1.1/DTD/svg11.dtd">
<!-- Generated by graphviz version 2.43.0 (0)
 -->
<!-- Title: ematch_src/utils/sequence/LabeledAsciiSeq.hh Pages: 1 -->
<!--zoomable 181 -->

<svg id="main" version="1.1" xmlns="http://www.w3.org/2000/svg" xmlns:xlink="http://www.w3.org/1999/xlink" xml:space="preserve" onload="init(evt)">
<style type="text/css"><![CDATA[
.node, .edge {opacity: 0.7;}
.node.selected, .edge.selected {opacity: 1;}
.edge:hover path { stroke: red; }
.edge:hover polygon { stroke: red; fill: red; }
]]></style>

<defs>
  <circle id="rim" cx="0" cy="0" r="7"/>
  <circle id="rim2" cx="0" cy="0" r="3.5"/>
  <g id="zoomPlus">
    <use xlink:href="#rim" fill="#404040"><set attributeName="fill" to="#808080" begin="zoomplus.mouseover" end="zoomplus.mouseout"/></use>
    <path d="M-4,0h8M0,-4v8" fill="none" stroke="white" stroke-width="1.5" pointer-events="none"/>
  </g>
  <g id="zoomMin">
    <use xlink:href="#rim" fill="#404040"><set attributeName="fill" to="#808080" begin="zoomminus.mouseover" end="zoomminus.mouseout"/></use>
    <path d="M-4,0h8" fill="none" stroke="white" stroke-width="1.5" pointer-events="none"/>
  </g>
  <g id="arrowUp" transform="translate(30 24)">
    <use xlink:href="#rim"/>
    <path pointer-events="none" fill="none" stroke="white" stroke-width="1.5" d="M0,-3.0v7 M-2.5,-0.5L0,-3.0L2.5,-0.5"/>
  </g>
  <g id="arrowRight" transform="rotate(90) translate(36 -43)">
    <use xlink:href="#rim"/>
    <path pointer-events="none" fill="none" stroke="white" stroke-width="1.5" d="M0,-3.0v7 M-2.5,-0.5L0,-3.0L2.5,-0.5"/>
  </g>
  <g id="arrowDown" transform="rotate(180) translate(-30 -48)">
    <use xlink:href="#rim"/>
    <path pointer-events="none" fill="none" stroke="white" stroke-width="1.5" d="M0,-3.0v7 M-2.5,-0.5L0,-3.0L2.5,-0.5"/>
  </g>
  <g id="arrowLeft" transform="rotate(270) translate(-36 17)">
    <use xlink:href="#rim"/>
    <path pointer-events="none" fill="none" stroke="white" stroke-width="1.5" d="M0,-3.0v7 M-2.5,-0.5L0,-3.0L2.5,-0.5"/>
  </g>
  <g id="resetDef">
    <use xlink:href="#rim2" fill="#404040"><set attributeName="fill" to="#808080" begin="reset.mouseover" end="reset.mouseout"/></use>
  </g>
</defs>
<script type="application/ecmascript">
var viewWidth = 3567;
var viewHeight = 181;
var sectionId = 'dynsection-1';
</script>
<script type="application/ecmascript" xlink:href="svg.min.js"/>
<svg id="graph" class="graph">
<g id="viewport">
<title>ematch_src/utils/sequence/LabeledAsciiSeq.hh</title>
<!-- Node1 -->
<g id="Node000001" class="node">
<title>Node1</title>
<g id="a_Node000001"><a xlink:title=" ">
<polygon fill="#999999" stroke="#666666" points="3207,-173 3061,-173 3061,-143 3207,-143 3207,-173"/>
<text text-anchor="start" x="3069" y="-161" font-family="Helvetica,sans-Serif" font-size="10.00">ematch_src/utils/sequence</text>
<text text-anchor="middle" x="3134" y="-150" font-family="Helvetica,sans-Serif" font-size="10.00">/LabeledAsciiSeq.hh</text>
</a>
</g>
</g>
<!-- Node2 -->
<g id="Node000002" class="node">
<title>Node2</title>
<g id="a_Node000002"><a xlink:href="adjacentCloseHamming_8cc.html" target="_top" xlink:title=" ">
<polygon fill="white" stroke="#666666" points="1724,-107 1528,-107 1528,-77 1724,-77 1724,-107"/>
<text text-anchor="start" x="1536" y="-95" font-family="Helvetica,sans-Serif" font-size="10.00">ematch_src/utils/sequence</text>
<text text-anchor="middle" x="1626" y="-84" font-family="Helvetica,sans-Serif" font-size="10.00">/align/run/adjacentCloseHamming.cc</text>
</a>
</g>
</g>
<!-- Node1&#45;&gt;Node2 -->
<g id="edge1_Node000001_Node000002" class="edge">
<title>Node1&#45;&gt;Node2</title>
<g id="a_edge1_Node000001_Node000002"><a xlink:title=" ">
<path fill="none" stroke="#63b8ff" d="M3050.89,-156.77C2833.8,-155.57 2232.01,-148.46 1733,-107 1730.11,-106.76 1727.17,-106.5 1724.21,-106.22"/>
<polygon fill="#63b8ff" stroke="#63b8ff" points="3050.91,-160.27 3060.93,-156.82 3050.95,-153.27 3050.91,-160.27"/>
</a>
</g>
</g>
<!-- Node3 -->
<g id="Node000003" class="node">
<title>Node3</title>
<g id="a_Node000003"><a xlink:href="FastaSeqSlurper_8hh.html" target="_top" xlink:title=" ">
<polygon fill="white" stroke="#666666" points="1921.5,-107 1742.5,-107 1742.5,-77 1921.5,-77 1921.5,-107"/>
<text text-anchor="start" x="1750.5" y="-95" font-family="Helvetica,sans-Serif" font-size="10.00">ematch_src/utils/sequence</text>
<text text-anchor="middle" x="1832" y="-84" font-family="Helvetica,sans-Serif" font-size="10.00">/readers/fasta/FastaSeqSlurper.hh</text>
</a>
</g>
</g>
<!-- Node1&#45;&gt;Node3 -->
<g id="edge2_Node000001_Node000003" class="edge">
<title>Node1&#45;&gt;Node3</title>
<g id="a_edge2_Node000001_Node000003"><a xlink:title=" ">
<path fill="none" stroke="#63b8ff" d="M3050.64,-152.9C2817.87,-141.46 2162.27,-109.23 1921.84,-97.42"/>
<polygon fill="#63b8ff" stroke="#63b8ff" points="3050.58,-156.4 3060.74,-153.4 3050.92,-149.41 3050.58,-156.4"/>
</a>
</g>
</g>
<!-- Node19 -->
<g id="Node000019" class="node">
<title>Node19</title>
<g id="a_Node000019"><a xlink:href="sortFastaByLength_8cc.html" target="_top" xlink:title=" ">
<polygon fill="white" stroke="#666666" points="3215.5,-41 3052.5,-41 3052.5,0 3215.5,0 3215.5,-41"/>
<text text-anchor="start" x="3060.5" y="-29" font-family="Helvetica,sans-Serif" font-size="10.00">ematch_src/utils/sequence</text>
<text text-anchor="start" x="3060.5" y="-18" font-family="Helvetica,sans-Serif" font-size="10.00">/readers/fasta/run/sortFastaBy</text>
<text text-anchor="middle" x="3134" y="-7" font-family="Helvetica,sans-Serif" font-size="10.00">Length.cc</text>
</a>
</g>
</g>
<!-- Node1&#45;&gt;Node19 -->
<g id="edge22_Node000001_Node000019" class="edge">
<title>Node1&#45;&gt;Node19</title>
<g id="a_edge22_Node000001_Node000019"><a xlink:title=" ">
<path fill="none" stroke="#63b8ff" d="M3134,-132.54C3134,-106.38 3134,-65.39 3134,-41.21"/>
<polygon fill="#63b8ff" stroke="#63b8ff" points="3130.5,-132.76 3134,-142.76 3137.5,-132.76 3130.5,-132.76"/>
</a>
</g>
</g>
<!-- Node20 -->
<g id="Node000020" class="node">
<title>Node20</title>
<g id="a_Node000020"><a xlink:href="FastaWriter_8hh.html" target="_top" xlink:title=" ">
<polygon fill="white" stroke="#666666" points="3389.5,-107 3232.5,-107 3232.5,-77 3389.5,-77 3389.5,-107"/>
<text text-anchor="start" x="3240.5" y="-95" font-family="Helvetica,sans-Serif" font-size="10.00">ematch_src/utils/sequence</text>
<text text-anchor="middle" x="3311" y="-84" font-family="Helvetica,sans-Serif" font-size="10.00">/readers/fasta/FastaWriter.hh</text>
</a>
</g>
</g>
<!-- Node1&#45;&gt;Node20 -->
<g id="edge19_Node000001_Node000020" class="edge">
<title>Node1&#45;&gt;Node20</title>
<g id="a_edge19_Node000001_Node000020"><a xlink:title=" ">
<path fill="none" stroke="#63b8ff" d="M3182.52,-139.46C3210.76,-129.25 3245.87,-116.55 3272.25,-107.01"/>
<polygon fill="#63b8ff" stroke="#63b8ff" points="3181.06,-136.26 3172.84,-142.95 3183.44,-142.85 3181.06,-136.26"/>
</a>
</g>
</g>
<!-- Node22 -->
<g id="Node000022" class="node">
<title>Node22</title>
<g id="a_Node000022"><a xlink:href="sprotToFasta_8cc.html" target="_top" xlink:title=" ">
<polygon fill="white" stroke="#666666" points="3559,-35.5 3407,-35.5 3407,-5.5 3559,-5.5 3559,-35.5"/>
<text text-anchor="start" x="3415" y="-23.5" font-family="Helvetica,sans-Serif" font-size="10.00">ematch_src/utils/sequence</text>
<text text-anchor="middle" x="3483" y="-12.5" font-family="Helvetica,sans-Serif" font-size="10.00">/readers/run/sprotToFasta.cc</text>
</a>
</g>
</g>
<!-- Node1&#45;&gt;Node22 -->
<g id="edge23_Node000001_Node000022" class="edge">
<title>Node1&#45;&gt;Node22</title>
<g id="a_edge23_Node000001_Node000022"><a xlink:title=" ">
<path fill="none" stroke="#63b8ff" d="M3217.03,-154.11C3271.52,-149.23 3342.82,-136.99 3399,-107 3431.68,-89.56 3459.52,-55.03 3473.46,-35.62"/>
<polygon fill="#63b8ff" stroke="#63b8ff" points="3216.73,-150.62 3207.06,-154.94 3217.31,-157.6 3216.73,-150.62"/>
</a>
</g>
</g>
<!-- Node4 -->
<g id="Node000004" class="node">
<title>Node4</title>
<g id="a_Node000004"><a xlink:href="allPairsHammingNeighbors_8cc.html" target="_top" xlink:title=" ">
<polygon fill="white" stroke="#666666" points="212,-35.5 0,-35.5 0,-5.5 212,-5.5 212,-35.5"/>
<text text-anchor="start" x="8" y="-23.5" font-family="Helvetica,sans-Serif" font-size="10.00">ematch_src/utils/sequence</text>
<text text-anchor="middle" x="106" y="-12.5" font-family="Helvetica,sans-Serif" font-size="10.00">/align/run/allPairsHammingNeighbors.cc</text>
</a>
</g>
</g>
<!-- Node3&#45;&gt;Node4 -->
<g id="edge3_Node000003_Node000004" class="edge">
<title>Node3&#45;&gt;Node4</title>
<g id="a_edge3_Node000003_Node000004"><a xlink:title=" ">
<path fill="none" stroke="#63b8ff" d="M1732.06,-77.01C1061.29,-22.7 886.67,-105.03 221,-41 207.39,-39.69 192.97,-37.72 179.1,-35.52"/>
<polygon fill="#63b8ff" stroke="#63b8ff" points="1732.22,-80.54 1742.47,-77.86 1732.79,-73.56 1732.22,-80.54"/>
</a>
</g>
</g>
<!-- Node5 -->
<g id="Node000005" class="node">
<title>Node5</title>
<g id="a_Node000005"><a xlink:href="allPairsNearestGlobalAffineScore_8cc.html" target="_top" xlink:title=" ">
<polygon fill="white" stroke="#666666" points="400,-41 230,-41 230,0 400,0 400,-41"/>
<text text-anchor="start" x="238" y="-29" font-family="Helvetica,sans-Serif" font-size="10.00">ematch_src/utils/sequence</text>
<text text-anchor="start" x="238" y="-18" font-family="Helvetica,sans-Serif" font-size="10.00">/align/run/allPairsNearestGlobal</text>
<text text-anchor="middle" x="315" y="-7" font-family="Helvetica,sans-Serif" font-size="10.00">AffineScore.cc</text>
</a>
</g>
</g>
<!-- Node3&#45;&gt;Node5 -->
<g id="edge4_Node000003_Node000005" class="edge">
<title>Node3&#45;&gt;Node5</title>
<g id="a_edge4_Node000003_Node000005"><a xlink:title=" ">
<path fill="none" stroke="#63b8ff" d="M1732.47,-77.04C1144.68,-28.62 990.43,-108.67 409,-41 406.1,-40.66 403.16,-40.28 400.2,-39.86"/>
<polygon fill="#63b8ff" stroke="#63b8ff" points="1732.22,-80.53 1742.47,-77.88 1732.8,-73.56 1732.22,-80.53"/>
</a>
</g>
</g>
<!-- Node6 -->
<g id="Node000006" class="node">
<title>Node6</title>
<g id="a_Node000006"><a xlink:href="clusterByIdentity_8cc.html" target="_top" xlink:title=" ">
<polygon fill="white" stroke="#666666" points="579.5,-35.5 418.5,-35.5 418.5,-5.5 579.5,-5.5 579.5,-35.5"/>
<text text-anchor="start" x="426.5" y="-23.5" font-family="Helvetica,sans-Serif" font-size="10.00">ematch_src/utils/sequence</text>
<text text-anchor="middle" x="499" y="-12.5" font-family="Helvetica,sans-Serif" font-size="10.00">/align/run/clusterByIdentity.cc</text>
</a>
</g>
</g>
<!-- Node3&#45;&gt;Node6 -->
<g id="edge5_Node000003_Node000006" class="edge">
<title>Node3&#45;&gt;Node6</title>
<g id="a_edge5_Node000003_Node000006"><a xlink:title=" ">
<path fill="none" stroke="#63b8ff" d="M1732.31,-77.03C1224.42,-34.24 1090.56,-102.71 589,-41 578.37,-39.69 567.14,-37.73 556.35,-35.55"/>
<polygon fill="#63b8ff" stroke="#63b8ff" points="1732.21,-80.53 1742.47,-77.89 1732.81,-73.56 1732.21,-80.53"/>
</a>
</g>
</g>
<!-- Node7 -->
<g id="Node000007" class="node">
<title>Node7</title>
<g id="a_Node000007"><a xlink:href="computeAllPairsIdentity_8cc.html" target="_top" xlink:title=" ">
<polygon fill="white" stroke="#666666" points="792,-35.5 598,-35.5 598,-5.5 792,-5.5 792,-35.5"/>
<text text-anchor="start" x="606" y="-23.5" font-family="Helvetica,sans-Serif" font-size="10.00">ematch_src/utils/sequence</text>
<text text-anchor="middle" x="695" y="-12.5" font-family="Helvetica,sans-Serif" font-size="10.00">/align/run/computeAllPairsIdentity.cc</text>
</a>
</g>
</g>
<!-- Node3&#45;&gt;Node7 -->
<g id="edge6_Node000003_Node000007" class="edge">
<title>Node3&#45;&gt;Node7</title>
<g id="a_edge6_Node000003_Node000007"><a xlink:title=" ">
<path fill="none" stroke="#63b8ff" d="M1732.32,-77.02C1318.38,-40.68 1209.69,-86.25 801,-41 788.73,-39.64 775.73,-37.69 763.21,-35.53"/>
<polygon fill="#63b8ff" stroke="#63b8ff" points="1732.2,-80.52 1742.47,-77.92 1732.82,-73.55 1732.2,-80.52"/>
</a>
</g>
</g>
<!-- Node8 -->
<g id="Node000008" class="node">
<title>Node8</title>
<g id="a_Node000008"><a xlink:href="computeGlobalAffineIdentity_8cc.html" target="_top" xlink:title=" ">
<polygon fill="white" stroke="#666666" points="978,-41 810,-41 810,0 978,0 978,-41"/>
<text text-anchor="start" x="818" y="-29" font-family="Helvetica,sans-Serif" font-size="10.00">ematch_src/utils/sequence</text>
<text text-anchor="start" x="818" y="-18" font-family="Helvetica,sans-Serif" font-size="10.00">/align/run/computeGlobalAffine</text>
<text text-anchor="middle" x="894" y="-7" font-family="Helvetica,sans-Serif" font-size="10.00">Identity.cc</text>
</a>
</g>
</g>
<!-- Node3&#45;&gt;Node8 -->
<g id="edge7_Node000003_Node000008" class="edge">
<title>Node3&#45;&gt;Node8</title>
<g id="a_edge7_Node000003_Node000008"><a xlink:title=" ">
<path fill="none" stroke="#63b8ff" d="M1732.07,-76.99C1400.29,-46.46 1312.26,-83.16 986,-41 983.41,-40.67 980.78,-40.3 978.14,-39.9"/>
<polygon fill="#63b8ff" stroke="#63b8ff" points="1732.18,-80.52 1742.47,-77.96 1732.83,-73.55 1732.18,-80.52"/>
</a>
</g>
</g>
<!-- Node9 -->
<g id="Node000009" class="node">
<title>Node9</title>
<g id="a_Node000009"><a xlink:href="hasHighIdentityToDataset_8cc.html" target="_top" xlink:title=" ">
<polygon fill="white" stroke="#666666" points="1200.5,-35.5 995.5,-35.5 995.5,-5.5 1200.5,-5.5 1200.5,-35.5"/>
<text text-anchor="start" x="1003.5" y="-23.5" font-family="Helvetica,sans-Serif" font-size="10.00">ematch_src/utils/sequence</text>
<text text-anchor="middle" x="1098" y="-12.5" font-family="Helvetica,sans-Serif" font-size="10.00">/align/run/hasHighIdentityToDataset.cc</text>
</a>
</g>
</g>
<!-- Node3&#45;&gt;Node9 -->
<g id="edge8_Node000003_Node000009" class="edge">
<title>Node3&#45;&gt;Node9</title>
<g id="a_edge8_Node000003_Node000009"><a xlink:title=" ">
<path fill="none" stroke="#63b8ff" d="M1732.32,-76.99C1499.55,-53.13 1438.03,-68.62 1210,-41 1197.75,-39.52 1184.81,-37.6 1172.24,-35.54"/>
<polygon fill="#63b8ff" stroke="#63b8ff" points="1732.15,-80.49 1742.46,-78.04 1732.87,-73.53 1732.15,-80.49"/>
</a>
</g>
</g>
<!-- Node10 -->
<g id="Node000010" class="node">
<title>Node10</title>
<g id="a_Node000010"><a xlink:href="runAddAlignmentToHtml_8cc.html" target="_top" xlink:title=" ">
<polygon fill="white" stroke="#666666" points="1417,-35.5 1219,-35.5 1219,-5.5 1417,-5.5 1417,-35.5"/>
<text text-anchor="start" x="1227" y="-23.5" font-family="Helvetica,sans-Serif" font-size="10.00">ematch_src/utils/sequence</text>
<text text-anchor="middle" x="1318" y="-12.5" font-family="Helvetica,sans-Serif" font-size="10.00">/align/run/runAddAlignmentToHtml.cc</text>
</a>
</g>
</g>
<!-- Node3&#45;&gt;Node10 -->
<g id="edge9_Node000003_Node000010" class="edge">
<title>Node3&#45;&gt;Node10</title>
<g id="a_edge9_Node000003_Node000010"><a xlink:title=" ">
<path fill="none" stroke="#63b8ff" d="M1732.37,-76.94C1595.07,-59.45 1558.7,-60.74 1426,-41 1415.07,-39.37 1403.55,-37.48 1392.26,-35.53"/>
<polygon fill="#63b8ff" stroke="#63b8ff" points="1732.07,-80.43 1742.43,-78.24 1732.96,-73.49 1732.07,-80.43"/>
</a>
</g>
</g>
<!-- Node11 -->
<g id="Node000011" class="node">
<title>Node11</title>
<g id="a_Node000011"><a xlink:href="runAddIdenticalToHtml_8cc.html" target="_top" xlink:title=" ">
<polygon fill="white" stroke="#666666" points="1625,-35.5 1435,-35.5 1435,-5.5 1625,-5.5 1625,-35.5"/>
<text text-anchor="start" x="1443" y="-23.5" font-family="Helvetica,sans-Serif" font-size="10.00">ematch_src/utils/sequence</text>
<text text-anchor="middle" x="1530" y="-12.5" font-family="Helvetica,sans-Serif" font-size="10.00">/align/run/runAddIdenticalToHtml.cc</text>
</a>
</g>
</g>
<!-- Node3&#45;&gt;Node11 -->
<g id="edge10_Node000003_Node000011" class="edge">
<title>Node3&#45;&gt;Node11</title>
<g id="a_edge10_Node000003_Node000011"><a xlink:title=" ">
<path fill="none" stroke="#63b8ff" d="M1761.13,-74.69C1709.48,-62.8 1640.22,-46.87 1591.02,-35.54"/>
<polygon fill="#63b8ff" stroke="#63b8ff" points="1760.36,-78.1 1770.89,-76.94 1761.93,-71.28 1760.36,-78.1"/>
</a>
</g>
</g>
<!-- Node12 -->
<g id="Node000012" class="node">
<title>Node12</title>
<g id="a_Node000012"><a xlink:href="runGlobalAffineNearestClass_8cc.html" target="_top" xlink:title=" ">
<polygon fill="white" stroke="#666666" points="1822.5,-41 1643.5,-41 1643.5,0 1822.5,0 1822.5,-41"/>
<text text-anchor="start" x="1651.5" y="-29" font-family="Helvetica,sans-Serif" font-size="10.00">ematch_src/utils/sequence</text>
<text text-anchor="start" x="1651.5" y="-18" font-family="Helvetica,sans-Serif" font-size="10.00">/align/run/runGlobalAffineNearest</text>
<text text-anchor="middle" x="1733" y="-7" font-family="Helvetica,sans-Serif" font-size="10.00">Class.cc</text>
</a>
</g>
</g>
<!-- Node3&#45;&gt;Node12 -->
<g id="edge11_Node000003_Node000012" class="edge">
<title>Node3&#45;&gt;Node12</title>
<g id="a_edge11_Node000003_Node000012"><a xlink:title=" ">
<path fill="none" stroke="#63b8ff" d="M1803.57,-71.04C1790.17,-61.63 1774.22,-50.44 1760.88,-41.07"/>
<polygon fill="#63b8ff" stroke="#63b8ff" points="1801.77,-74.05 1811.97,-76.94 1805.79,-68.33 1801.77,-74.05"/>
</a>
</g>
</g>
<!-- Node13 -->
<g id="Node000013" class="node">
<title>Node13</title>
<g id="a_Node000013"><a xlink:href="runGlobalAffineNearestClassDiff_8cc.html" target="_top" xlink:title=" ">
<polygon fill="white" stroke="#666666" points="2019.5,-41 1840.5,-41 1840.5,0 2019.5,0 2019.5,-41"/>
<text text-anchor="start" x="1848.5" y="-29" font-family="Helvetica,sans-Serif" font-size="10.00">ematch_src/utils/sequence</text>
<text text-anchor="start" x="1848.5" y="-18" font-family="Helvetica,sans-Serif" font-size="10.00">/align/run/runGlobalAffineNearest</text>
<text text-anchor="middle" x="1930" y="-7" font-family="Helvetica,sans-Serif" font-size="10.00">ClassDiff.cc</text>
</a>
</g>
</g>
<!-- Node3&#45;&gt;Node13 -->
<g id="edge12_Node000003_Node000013" class="edge">
<title>Node3&#45;&gt;Node13</title>
<g id="a_edge12_Node000003_Node000013"><a xlink:title=" ">
<path fill="none" stroke="#63b8ff" d="M1860.14,-71.04C1873.41,-61.63 1889.2,-50.44 1902.4,-41.07"/>
<polygon fill="#63b8ff" stroke="#63b8ff" points="1857.96,-68.3 1851.83,-76.94 1862.01,-74.01 1857.96,-68.3"/>
</a>
</g>
</g>
<!-- Node14 -->
<g id="Node000014" class="node">
<title>Node14</title>
<g id="a_Node000014"><a xlink:href="runSimilaritySearchableSequences_8cc.html" target="_top" xlink:title=" ">
<polygon fill="white" stroke="#666666" points="2220,-41 2038,-41 2038,0 2220,0 2220,-41"/>
<text text-anchor="start" x="2046" y="-29" font-family="Helvetica,sans-Serif" font-size="10.00">ematch_src/utils/sequence</text>
<text text-anchor="start" x="2046" y="-18" font-family="Helvetica,sans-Serif" font-size="10.00">/align/run/runSimilaritySearchable</text>
<text text-anchor="middle" x="2129" y="-7" font-family="Helvetica,sans-Serif" font-size="10.00">Sequences.cc</text>
</a>
</g>
</g>
<!-- Node3&#45;&gt;Node14 -->
<g id="edge13_Node000003_Node000014" class="edge">
<title>Node3&#45;&gt;Node14</title>
<g id="a_edge13_Node000003_Node000014"><a xlink:title=" ">
<path fill="none" stroke="#63b8ff" d="M1901.92,-74.64C1944.95,-64.57 2000.33,-51.61 2045.64,-41.01"/>
<polygon fill="#63b8ff" stroke="#63b8ff" points="1901.04,-71.25 1892.1,-76.94 1902.64,-78.06 1901.04,-71.25"/>
</a>
</g>
</g>
<!-- Node15 -->
<g id="Node000015" class="node">
<title>Node15</title>
<g id="a_Node000015"><a xlink:href="allPairsGlobalAffineScore_8cc.html" target="_top" xlink:title=" ">
<polygon fill="white" stroke="#666666" points="2402,-41 2238,-41 2238,0 2402,0 2402,-41"/>
<text text-anchor="start" x="2246" y="-29" font-family="Helvetica,sans-Serif" font-size="10.00">ematch_src/utils/sequence</text>
<text text-anchor="start" x="2246" y="-18" font-family="Helvetica,sans-Serif" font-size="10.00">/align/test/allPairsGlobalAffine</text>
<text text-anchor="middle" x="2320" y="-7" font-family="Helvetica,sans-Serif" font-size="10.00">Score.cc</text>
</a>
</g>
</g>
<!-- Node3&#45;&gt;Node15 -->
<g id="edge14_Node000003_Node000015" class="edge">
<title>Node3&#45;&gt;Node15</title>
<g id="a_edge14_Node000003_Node000015"><a xlink:title=" ">
<path fill="none" stroke="#63b8ff" d="M1931.93,-80.82C2012.42,-72.04 2128.35,-58.09 2229,-41 2231.87,-40.51 2234.78,-40 2237.72,-39.46"/>
<polygon fill="#63b8ff" stroke="#63b8ff" points="1931.37,-77.36 1921.8,-81.91 1932.12,-84.32 1931.37,-77.36"/>
</a>
</g>
</g>
<!-- Node16 -->
<g id="Node000016" class="node">
<title>Node16</title>
<g id="a_Node000016"><a xlink:href="FastaSeqSlurper_8cc.html" target="_top" xlink:title=" ">
<polygon fill="white" stroke="#666666" points="2598,-35.5 2420,-35.5 2420,-5.5 2598,-5.5 2598,-35.5"/>
<text text-anchor="start" x="2428" y="-23.5" font-family="Helvetica,sans-Serif" font-size="10.00">ematch_src/utils/sequence</text>
<text text-anchor="middle" x="2509" y="-12.5" font-family="Helvetica,sans-Serif" font-size="10.00">/readers/fasta/FastaSeqSlurper.cc</text>
</a>
</g>
</g>
<!-- Node3&#45;&gt;Node16 -->
<g id="edge15_Node000003_Node000016" class="edge">
<title>Node3&#45;&gt;Node16</title>
<g id="a_edge15_Node000003_Node000016"><a xlink:title=" ">
<path fill="none" stroke="#63b8ff" d="M1931.87,-85.73C2047.57,-78.85 2243.74,-64.79 2411,-41 2421.65,-39.49 2432.89,-37.56 2443.81,-35.51"/>
<polygon fill="#63b8ff" stroke="#63b8ff" points="1931.39,-82.25 1921.62,-86.33 1931.81,-89.24 1931.39,-82.25"/>
</a>
</g>
</g>
<!-- Node17 -->
<g id="Node000017" class="node">
<title>Node17</title>
<g id="a_Node000017"><a xlink:href="fastaPrintDuplicateSeqs_8cc.html" target="_top" xlink:title=" ">
<polygon fill="white" stroke="#666666" points="2816,-41 2616,-41 2616,0 2816,0 2816,-41"/>
<text text-anchor="start" x="2624" y="-29" font-family="Helvetica,sans-Serif" font-size="10.00">ematch_src/utils/sequence</text>
<text text-anchor="start" x="2624" y="-18" font-family="Helvetica,sans-Serif" font-size="10.00">/readers/fasta/run/fastaPrintDuplicate</text>
<text text-anchor="middle" x="2716" y="-7" font-family="Helvetica,sans-Serif" font-size="10.00">Seqs.cc</text>
</a>
</g>
</g>
<!-- Node3&#45;&gt;Node17 -->
<g id="edge16_Node000003_Node000017" class="edge">
<title>Node3&#45;&gt;Node17</title>
<g id="a_edge16_Node000003_Node000017"><a xlink:title=" ">
<path fill="none" stroke="#63b8ff" d="M1931.92,-88.15C2079.86,-83.12 2365.68,-70.28 2607,-41 2609.96,-40.64 2612.96,-40.25 2615.98,-39.84"/>
<polygon fill="#63b8ff" stroke="#63b8ff" points="1931.39,-84.67 1921.51,-88.5 1931.62,-91.66 1931.39,-84.67"/>
</a>
</g>
</g>
<!-- Node18 -->
<g id="Node000018" class="node">
<title>Node18</title>
<g id="a_Node000018"><a xlink:href="fastaPrintDuplicateSeqs2Streams_8cc.html" target="_top" xlink:title=" ">
<polygon fill="white" stroke="#666666" points="3034,-41 2834,-41 2834,0 3034,0 3034,-41"/>
<text text-anchor="start" x="2842" y="-29" font-family="Helvetica,sans-Serif" font-size="10.00">ematch_src/utils/sequence</text>
<text text-anchor="start" x="2842" y="-18" font-family="Helvetica,sans-Serif" font-size="10.00">/readers/fasta/run/fastaPrintDuplicate</text>
<text text-anchor="middle" x="2934" y="-7" font-family="Helvetica,sans-Serif" font-size="10.00">Seqs2Streams.cc</text>
</a>
</g>
</g>
<!-- Node3&#45;&gt;Node18 -->
<g id="edge17_Node000003_Node000018" class="edge">
<title>Node3&#45;&gt;Node18</title>
<g id="a_edge17_Node000003_Node000018"><a xlink:title=" ">
<path fill="none" stroke="#63b8ff" d="M1931.87,-90.15C2111.26,-87.69 2499.68,-78.14 2825,-41 2827.96,-40.66 2830.96,-40.29 2833.99,-39.9"/>
<polygon fill="#63b8ff" stroke="#63b8ff" points="1931.61,-86.65 1921.66,-90.28 1931.71,-93.65 1931.61,-86.65"/>
</a>
</g>
</g>
<!-- Node3&#45;&gt;Node19 -->
<g id="edge18_Node000003_Node000019" class="edge">
<title>Node3&#45;&gt;Node19</title>
<g id="a_edge18_Node000003_Node000019"><a xlink:title=" ">
<path fill="none" stroke="#63b8ff" d="M1931.89,-89.06C2181.76,-83.86 2829.13,-68.13 3043,-41 3046.05,-40.61 3049.14,-40.18 3052.26,-39.7"/>
<polygon fill="#63b8ff" stroke="#63b8ff" points="1931.66,-85.57 1921.73,-89.27 1931.8,-92.56 1931.66,-85.57"/>
</a>
</g>
</g>
<!-- Node21 -->
<g id="Node000021" class="node">
<title>Node21</title>
<g id="a_Node000021"><a xlink:href="FastaWriter_8cc.html" target="_top" xlink:title=" ">
<polygon fill="white" stroke="#666666" points="3388.5,-35.5 3233.5,-35.5 3233.5,-5.5 3388.5,-5.5 3388.5,-35.5"/>
<text text-anchor="start" x="3241.5" y="-23.5" font-family="Helvetica,sans-Serif" font-size="10.00">ematch_src/utils/sequence</text>
<text text-anchor="middle" x="3311" y="-12.5" font-family="Helvetica,sans-Serif" font-size="10.00">/readers/fasta/FastaWriter.cc</text>
</a>
</g>
</g>
<!-- Node20&#45;&gt;Node21 -->
<g id="edge20_Node000020_Node000021" class="edge">
<title>Node20&#45;&gt;Node21</title>
<g id="a_edge20_Node000020_Node000021"><a xlink:title=" ">
<path fill="none" stroke="#63b8ff" d="M3311,-66.75C3311,-56.31 3311,-44.49 3311,-35.54"/>
<polygon fill="#63b8ff" stroke="#63b8ff" points="3307.5,-66.94 3311,-76.94 3314.5,-66.94 3307.5,-66.94"/>
</a>
</g>
</g>
<!-- Node20&#45;&gt;Node22 -->
<g id="edge21_Node000020_Node000022" class="edge">
<title>Node20&#45;&gt;Node22</title>
<g id="a_edge21_Node000020_Node000022"><a xlink:title=" ">
<path fill="none" stroke="#63b8ff" d="M3355.27,-73.11C3384.2,-61.42 3421.45,-46.37 3448.24,-35.54"/>
<polygon fill="#63b8ff" stroke="#63b8ff" points="3353.77,-69.94 3345.81,-76.94 3356.39,-76.43 3353.77,-69.94"/>
</a>
</g>
</g>
</g>
</svg>

<g id="navigator" transform="translate(0 0)" fill="#404254">
  <rect fill="#f2f5e9" fill-opacity="0.5" stroke="#606060" stroke-width=".5" x="0" y="0" width="60" height="60"/>
  <use id="zoomplus" xlink:href="#zoomPlus" x="17" y="9" onmousedown="handleZoom(evt,'in')"/>
  <use id="zoomminus" xlink:href="#zoomMin" x="42" y="9" onmousedown="handleZoom(evt,'out')"/>
  <use id="reset" xlink:href="#resetDef" x="30" y="36" onmousedown="handleReset()"/>
   <use id="arrowup" xlink:href="#arrowUp" x="0" y="0" onmousedown="handlePan(0,-1)"/>
  <use id="arrowright" xlink:href="#arrowRight" x="0" y="0" onmousedown="handlePan(1,0)"/>
  <use id="arrowdown" xlink:href="#arrowDown" x="0" y="0" onmousedown="handlePan(0,1)"/>
  <use id="arrowleft" xlink:href="#arrowLeft" x="0" y="0" onmousedown="handlePan(-1,0)"/>
</g>
<svg viewBox="0 0 15 15" width="100%" height="30px" preserveAspectRatio="xMaxYMin meet">
 <g id="arrow_out" transform="scale(0.3 0.3)">
  <a xlink:href="LabeledAsciiSeq_8hh__dep__incl_org.svg" target="_base">
   <rect id="button" ry="5" rx="5" y="6" x="6" height="38" width="38"
        fill="#f2f5e9" fill-opacity="0.5" stroke="#606060" stroke-width="1.0"/>
   <path id="arrow"
     d="M 11.500037,31.436501 C 11.940474,20.09759 22.043105,11.32322 32.158766,21.979434 L 37.068811,17.246167 C 37.068811,17.246167 37.088388,32 37.088388,32 L 22.160133,31.978069 C 22.160133,31.978069 26.997745,27.140456 26.997745,27.140456 C 18.528582,18.264221 13.291696,25.230495 11.500037,31.436501 z"
     style="fill:#404040;"/>
  </a>
 </g>
</svg>

<style type='text/css'>
<![CDATA[
[data-mouse-over-selected='false'] { opacity: 0.7; }
[data-mouse-over-selected='true']  { opacity: 1.0; }
]]>
</style>
<script type="application/ecmascript"><![CDATA[
document.addEventListener('DOMContentLoaded', (event) => {
  highlightEdges();
  highlightAdjacentNodes();
});
]]></script>
</svg>
