<?xml version="1.0" encoding="UTF-8" standalone="no"?>
<!DOCTYPE svg PUBLIC "-//W3C//DTD SVG 1.1//EN"
 "http://www.w3.org/Graphics/SVG/1.1/DTD/svg11.dtd">
<!-- Generated by graphviz version 2.43.0 (0)
 -->
<!-- Title: ematch_src/utils/sequence/LabeledSequences.cc Pages: 1 -->
<!--zoomable 511 -->

<svg id="main" version="1.1" xmlns="http://www.w3.org/2000/svg" xmlns:xlink="http://www.w3.org/1999/xlink" xml:space="preserve" onload="init(evt)">
<style type="text/css"><![CDATA[
.node, .edge {opacity: 0.7;}
.node.selected, .edge.selected {opacity: 1;}
.edge:hover path { stroke: red; }
.edge:hover polygon { stroke: red; fill: red; }
]]></style>

<defs>
  <circle id="rim" cx="0" cy="0" r="7"/>
  <circle id="rim2" cx="0" cy="0" r="3.5"/>
  <g id="zoomPlus">
    <use xlink:href="#rim" fill="#404040"><set attributeName="fill" to="#808080" begin="zoomplus.mouseover" end="zoomplus.mouseout"/></use>
    <path d="M-4,0h8M0,-4v8" fill="none" stroke="white" stroke-width="1.5" pointer-events="none"/>
  </g>
  <g id="zoomMin">
    <use xlink:href="#rim" fill="#404040"><set attributeName="fill" to="#808080" begin="zoomminus.mouseover" end="zoomminus.mouseout"/></use>
    <path d="M-4,0h8" fill="none" stroke="white" stroke-width="1.5" pointer-events="none"/>
  </g>
  <g id="arrowUp" transform="translate(30 24)">
    <use xlink:href="#rim"/>
    <path pointer-events="none" fill="none" stroke="white" stroke-width="1.5" d="M0,-3.0v7 M-2.5,-0.5L0,-3.0L2.5,-0.5"/>
  </g>
  <g id="arrowRight" transform="rotate(90) translate(36 -43)">
    <use xlink:href="#rim"/>
    <path pointer-events="none" fill="none" stroke="white" stroke-width="1.5" d="M0,-3.0v7 M-2.5,-0.5L0,-3.0L2.5,-0.5"/>
  </g>
  <g id="arrowDown" transform="rotate(180) translate(-30 -48)">
    <use xlink:href="#rim"/>
    <path pointer-events="none" fill="none" stroke="white" stroke-width="1.5" d="M0,-3.0v7 M-2.5,-0.5L0,-3.0L2.5,-0.5"/>
  </g>
  <g id="arrowLeft" transform="rotate(270) translate(-36 17)">
    <use xlink:href="#rim"/>
    <path pointer-events="none" fill="none" stroke="white" stroke-width="1.5" d="M0,-3.0v7 M-2.5,-0.5L0,-3.0L2.5,-0.5"/>
  </g>
  <g id="resetDef">
    <use xlink:href="#rim2" fill="#404040"><set attributeName="fill" to="#808080" begin="reset.mouseover" end="reset.mouseout"/></use>
  </g>
</defs>
<script type="application/ecmascript">
var viewWidth = 1501;
var viewHeight = 511;
var sectionId = 'dynsection-0';
</script>
<script type="application/ecmascript" xlink:href="svg.min.js"/>
<svg id="graph" class="graph">
<g id="viewport">
<title>ematch_src/utils/sequence/LabeledSequences.cc</title>
<!-- Node1 -->
<g id="Node000001" class="node">
<title>Node1</title>
<g id="a_Node000001"><a xlink:title=" ">
<polygon fill="#999999" stroke="#666666" points="505,-503 359,-503 359,-473 505,-473 505,-503"/>
<text text-anchor="start" x="367" y="-491" font-family="Helvetica,sans-Serif" font-size="10.00">ematch_src/utils/sequence</text>
<text text-anchor="middle" x="432" y="-480" font-family="Helvetica,sans-Serif" font-size="10.00">/LabeledSequences.cc</text>
</a>
</g>
</g>
<!-- Node2 -->
<g id="Node000002" class="node">
<title>Node2</title>
<g id="a_Node000002"><a xlink:href="LabeledSequences_8hh.html" target="_top" xlink:title=" ">
<polygon fill="white" stroke="#666666" points="493,-437 371,-437 371,-418 493,-418 493,-437"/>
<text text-anchor="middle" x="432" y="-425" font-family="Helvetica,sans-Serif" font-size="10.00">LabeledSequences.hh</text>
</a>
</g>
</g>
<!-- Node1&#45;&gt;Node2 -->
<g id="edge1_Node000001_Node000002" class="edge">
<title>Node1&#45;&gt;Node2</title>
<g id="a_edge1_Node000001_Node000002"><a xlink:title=" ">
<path fill="none" stroke="#63b8ff" d="M432,-472.84C432,-465.21 432,-455.7 432,-447.45"/>
<polygon fill="#63b8ff" stroke="#63b8ff" points="435.5,-447.27 432,-437.27 428.5,-447.27 435.5,-447.27"/>
</a>
</g>
</g>
<!-- Node3 -->
<g id="Node000003" class="node">
<title>Node3</title>
<g id="a_Node000003"><a xlink:href="StringKeyHashtable_8hh.html" target="_top" xlink:title=" ">
<polygon fill="white" stroke="#666666" points="407.5,-151 276.5,-151 276.5,-121 407.5,-121 407.5,-151"/>
<text text-anchor="start" x="284.5" y="-139" font-family="Helvetica,sans-Serif" font-size="10.00">utils/ChainHashtable</text>
<text text-anchor="middle" x="342" y="-128" font-family="Helvetica,sans-Serif" font-size="10.00">/StringKeyHashtable.hh</text>
</a>
</g>
</g>
<!-- Node2&#45;&gt;Node3 -->
<g id="edge2_Node000002_Node000003" class="edge">
<title>Node2&#45;&gt;Node3</title>
<g id="a_edge2_Node000002_Node000003"><a xlink:title=" ">
<path fill="none" stroke="#63b8ff" d="M423.38,-417.97C406.34,-400.16 370,-357.01 370,-313 370,-313 370,-313 370,-250.5 370,-218.64 359.47,-183.18 351.33,-160.51"/>
<polygon fill="#63b8ff" stroke="#63b8ff" points="354.58,-159.2 347.8,-151.06 348.02,-161.65 354.58,-159.2"/>
</a>
</g>
</g>
<!-- Node15 -->
<g id="Node000015" class="node">
<title>Node15</title>
<g id="a_Node000015"><a xlink:href="LabeledSequence_8hh.html" target="_top" xlink:title=" ">
<polygon fill="white" stroke="#666666" points="748.5,-382 557.5,-382 557.5,-363 748.5,-363 748.5,-382"/>
<text text-anchor="middle" x="653" y="-370" font-family="Helvetica,sans-Serif" font-size="10.00">utils/sequence/LabeledSequence.hh</text>
</a>
</g>
</g>
<!-- Node2&#45;&gt;Node15 -->
<g id="edge17_Node000002_Node000015" class="edge">
<title>Node2&#45;&gt;Node15</title>
<g id="a_edge17_Node000002_Node000015"><a xlink:title=" ">
<path fill="none" stroke="#63b8ff" d="M467.51,-417.98C505.49,-408.87 565.87,-394.4 607.36,-384.45"/>
<polygon fill="#63b8ff" stroke="#63b8ff" points="608.31,-387.82 617.21,-382.08 606.67,-381.01 608.31,-387.82"/>
</a>
</g>
</g>
<!-- Node4 -->
<g id="Node000004" class="node">
<title>Node4</title>
<g id="a_Node000004"><a xlink:title=" ">
<polygon fill="#e0e0e0" stroke="#999999" points="862,-19 818,-19 818,0 862,0 862,-19"/>
<text text-anchor="middle" x="840" y="-7" font-family="Helvetica,sans-Serif" font-size="10.00">string</text>
</a>
</g>
</g>
<!-- Node3&#45;&gt;Node4 -->
<g id="edge3_Node000003_Node000004" class="edge">
<title>Node3&#45;&gt;Node4</title>
<g id="a_edge3_Node000003_Node000004"><a xlink:title=" ">
<path fill="none" stroke="#63b8ff" d="M407.52,-133.35C474.59,-129.73 580.76,-118.63 666,-85 688.02,-76.31 688.84,-65.59 710,-55 741.97,-39 781.05,-26.48 807.97,-18.85"/>
<polygon fill="#63b8ff" stroke="#63b8ff" points="808.95,-22.21 817.65,-16.17 807.08,-15.47 808.95,-22.21"/>
</a>
</g>
</g>
<!-- Node5 -->
<g id="Node000005" class="node">
<title>Node5</title>
<g id="a_Node000005"><a xlink:title=" ">
<polygon fill="#e0e0e0" stroke="#999999" points="1403.5,-19 1356.5,-19 1356.5,0 1403.5,0 1403.5,-19"/>
<text text-anchor="middle" x="1380" y="-7" font-family="Helvetica,sans-Serif" font-size="10.00">vector</text>
</a>
</g>
</g>
<!-- Node3&#45;&gt;Node5 -->
<g id="edge4_Node000003_Node000005" class="edge">
<title>Node3&#45;&gt;Node5</title>
<g id="a_edge4_Node000003_Node000005"><a xlink:title=" ">
<path fill="none" stroke="#63b8ff" d="M407.53,-135.4C481.63,-133.73 604.62,-124.44 702,-85 722.93,-76.52 721.8,-62.76 743,-55 799.78,-34.23 1222.41,-16.54 1346.09,-11.77"/>
<polygon fill="#63b8ff" stroke="#63b8ff" points="1346.6,-15.25 1356.46,-11.37 1346.33,-8.26 1346.6,-15.25"/>
</a>
</g>
</g>
<!-- Node6 -->
<g id="Node000006" class="node">
<title>Node6</title>
<g id="a_Node000006"><a xlink:title=" ">
<polygon fill="#e0e0e0" stroke="#999999" points="473,-19 413,-19 413,0 473,0 473,-19"/>
<text text-anchor="middle" x="443" y="-7" font-family="Helvetica,sans-Serif" font-size="10.00">iostream</text>
</a>
</g>
</g>
<!-- Node3&#45;&gt;Node6 -->
<g id="edge5_Node000003_Node000006" class="edge">
<title>Node3&#45;&gt;Node6</title>
<g id="a_edge5_Node000003_Node000006"><a xlink:title=" ">
<path fill="none" stroke="#63b8ff" d="M311.51,-120.94C282.39,-105.58 245.6,-79.84 265,-55 281.77,-33.53 355.6,-20.88 402.76,-14.85"/>
<polygon fill="#63b8ff" stroke="#63b8ff" points="403.46,-18.29 412.96,-13.6 402.61,-11.35 403.46,-18.29"/>
</a>
</g>
</g>
<!-- Node7 -->
<g id="Node000007" class="node">
<title>Node7</title>
<g id="a_Node000007"><a xlink:href="ematch__src_2utils_2gdb_2gdbUtils_8hh.html" target="_top" xlink:title=" ">
<polygon fill="white" stroke="#666666" points="657.5,-79.5 540.5,-79.5 540.5,-60.5 657.5,-60.5 657.5,-79.5"/>
<text text-anchor="middle" x="599" y="-67.5" font-family="Helvetica,sans-Serif" font-size="10.00">utils/gdb/gdbUtils.hh</text>
</a>
</g>
</g>
<!-- Node3&#45;&gt;Node7 -->
<g id="edge6_Node000003_Node000007" class="edge">
<title>Node3&#45;&gt;Node7</title>
<g id="a_edge6_Node000003_Node000007"><a xlink:title=" ">
<path fill="none" stroke="#63b8ff" d="M398.4,-120.95C445.46,-109.24 511.58,-92.77 554.85,-81.99"/>
<polygon fill="#63b8ff" stroke="#63b8ff" points="555.94,-85.33 564.8,-79.52 554.25,-78.54 555.94,-85.33"/>
</a>
</g>
</g>
<!-- Node12 -->
<g id="Node000012" class="node">
<title>Node12</title>
<g id="a_Node000012"><a xlink:href="bitLeftRotate_8hh.html" target="_top" xlink:title=" ">
<polygon fill="white" stroke="#666666" points="118,-85 0,-85 0,-55 118,-55 118,-85"/>
<text text-anchor="start" x="8" y="-73" font-family="Helvetica,sans-Serif" font-size="10.00">utils/ChainHashtable</text>
<text text-anchor="middle" x="59" y="-62" font-family="Helvetica,sans-Serif" font-size="10.00">/bitLeftRotate.hh</text>
</a>
</g>
</g>
<!-- Node3&#45;&gt;Node12 -->
<g id="edge12_Node000003_Node000012" class="edge">
<title>Node3&#45;&gt;Node12</title>
<g id="a_edge12_Node000003_Node000012"><a xlink:title=" ">
<path fill="none" stroke="#63b8ff" d="M279.89,-120.95C235.03,-110.81 174.41,-97.1 128.03,-86.61"/>
<polygon fill="#63b8ff" stroke="#63b8ff" points="128.58,-83.15 118.06,-84.36 127.04,-89.98 128.58,-83.15"/>
</a>
</g>
</g>
<!-- Node13 -->
<g id="Node000013" class="node">
<title>Node13</title>
<g id="a_Node000013"><a xlink:href="nextPrime_8hh.html" target="_top" xlink:title=" ">
<polygon fill="white" stroke="#666666" points="218,-79.5 136,-79.5 136,-60.5 218,-60.5 218,-79.5"/>
<text text-anchor="middle" x="177" y="-67.5" font-family="Helvetica,sans-Serif" font-size="10.00">nextPrime.hh</text>
</a>
</g>
</g>
<!-- Node3&#45;&gt;Node13 -->
<g id="edge14_Node000003_Node000013" class="edge">
<title>Node3&#45;&gt;Node13</title>
<g id="a_edge14_Node000003_Node000013"><a xlink:title=" ">
<path fill="none" stroke="#63b8ff" d="M305.79,-120.95C276.73,-109.68 236.33,-94.01 208.57,-83.25"/>
<polygon fill="#63b8ff" stroke="#63b8ff" points="209.55,-79.87 198.96,-79.52 207.02,-86.4 209.55,-79.87"/>
</a>
</g>
</g>
<!-- Node14 -->
<g id="Node000014" class="node">
<title>Node14</title>
<g id="a_Node000014"><a xlink:href="genericHashFunction_8hh.html" target="_top" xlink:title=" ">
<polygon fill="white" stroke="#666666" points="408,-79.5 274,-79.5 274,-60.5 408,-60.5 408,-79.5"/>
<text text-anchor="middle" x="341" y="-67.5" font-family="Helvetica,sans-Serif" font-size="10.00">genericHashFunction.hh</text>
</a>
</g>
</g>
<!-- Node3&#45;&gt;Node14 -->
<g id="edge16_Node000003_Node000014" class="edge">
<title>Node3&#45;&gt;Node14</title>
<g id="a_edge16_Node000003_Node000014"><a xlink:title=" ">
<path fill="none" stroke="#63b8ff" d="M341.78,-120.8C341.64,-111.7 341.45,-99.79 341.3,-89.9"/>
<polygon fill="#63b8ff" stroke="#63b8ff" points="344.79,-89.79 341.14,-79.84 337.79,-89.9 344.79,-89.79"/>
</a>
</g>
</g>
<!-- Node7&#45;&gt;Node6 -->
<g id="edge8_Node000007_Node000006" class="edge">
<title>Node7&#45;&gt;Node6</title>
<g id="a_edge8_Node000007_Node000006"><a xlink:title=" ">
<path fill="none" stroke="#63b8ff" d="M576.32,-60.49C549.74,-50.53 505.52,-33.95 475.36,-22.63"/>
<polygon fill="#63b8ff" stroke="#63b8ff" points="476.3,-19.25 465.71,-19.02 473.85,-25.81 476.3,-19.25"/>
</a>
</g>
</g>
<!-- Node8 -->
<g id="Node000008" class="node">
<title>Node8</title>
<g id="a_Node000008"><a xlink:title=" ">
<polygon fill="#e0e0e0" stroke="#999999" points="684.5,-19 631.5,-19 631.5,0 684.5,0 684.5,-19"/>
<text text-anchor="middle" x="658" y="-7" font-family="Helvetica,sans-Serif" font-size="10.00">cstdarg</text>
</a>
</g>
</g>
<!-- Node7&#45;&gt;Node8 -->
<g id="edge7_Node000007_Node000008" class="edge">
<title>Node7&#45;&gt;Node8</title>
<g id="a_edge7_Node000007_Node000008"><a xlink:title=" ">
<path fill="none" stroke="#63b8ff" d="M607.71,-60.37C616.68,-51.47 630.88,-37.39 641.91,-26.45"/>
<polygon fill="#63b8ff" stroke="#63b8ff" points="644.62,-28.69 649.26,-19.17 639.69,-23.72 644.62,-28.69"/>
</a>
</g>
</g>
<!-- Node9 -->
<g id="Node000009" class="node">
<title>Node9</title>
<g id="a_Node000009"><a xlink:title=" ">
<polygon fill="#e0e0e0" stroke="#999999" points="751.5,-19 702.5,-19 702.5,0 751.5,0 751.5,-19"/>
<text text-anchor="middle" x="727" y="-7" font-family="Helvetica,sans-Serif" font-size="10.00">cstdlib</text>
</a>
</g>
</g>
<!-- Node7&#45;&gt;Node9 -->
<g id="edge9_Node000007_Node000009" class="edge">
<title>Node7&#45;&gt;Node9</title>
<g id="a_edge9_Node000007_Node000009"><a xlink:title=" ">
<path fill="none" stroke="#63b8ff" d="M617.61,-60.49C639.04,-50.7 674.44,-34.52 699.15,-23.23"/>
<polygon fill="#63b8ff" stroke="#63b8ff" points="700.72,-26.36 708.37,-19.02 697.82,-19.99 700.72,-26.36"/>
</a>
</g>
</g>
<!-- Node10 -->
<g id="Node000010" class="node">
<title>Node10</title>
<g id="a_Node000010"><a xlink:title=" ">
<polygon fill="#e0e0e0" stroke="#999999" points="543,-19 497,-19 497,0 543,0 543,-19"/>
<text text-anchor="middle" x="520" y="-7" font-family="Helvetica,sans-Serif" font-size="10.00">cstdio</text>
</a>
</g>
</g>
<!-- Node7&#45;&gt;Node10 -->
<g id="edge10_Node000007_Node000010" class="edge">
<title>Node7&#45;&gt;Node10</title>
<g id="a_edge10_Node000007_Node000010"><a xlink:title=" ">
<path fill="none" stroke="#63b8ff" d="M587.34,-60.37C574.86,-51.12 554.82,-36.28 539.84,-25.19"/>
<polygon fill="#63b8ff" stroke="#63b8ff" points="541.82,-22.31 531.7,-19.17 537.66,-27.93 541.82,-22.31"/>
</a>
</g>
</g>
<!-- Node11 -->
<g id="Node000011" class="node">
<title>Node11</title>
<g id="a_Node000011"><a xlink:title=" ">
<polygon fill="#e0e0e0" stroke="#999999" points="613,-19 561,-19 561,0 613,0 613,-19"/>
<text text-anchor="middle" x="587" y="-7" font-family="Helvetica,sans-Serif" font-size="10.00">cassert</text>
</a>
</g>
</g>
<!-- Node7&#45;&gt;Node11 -->
<g id="edge11_Node000007_Node000011" class="edge">
<title>Node7&#45;&gt;Node11</title>
<g id="a_edge11_Node000007_Node000011"><a xlink:title=" ">
<path fill="none" stroke="#63b8ff" d="M597.23,-60.37C595.55,-52.16 592.96,-39.54 590.81,-29.05"/>
<polygon fill="#63b8ff" stroke="#63b8ff" points="594.22,-28.26 588.78,-19.17 587.36,-29.67 594.22,-28.26"/>
</a>
</g>
</g>
<!-- Node12&#45;&gt;Node6 -->
<g id="edge13_Node000012_Node000006" class="edge">
<title>Node12&#45;&gt;Node6</title>
<g id="a_edge13_Node000012_Node000006"><a xlink:title=" ">
<path fill="none" stroke="#63b8ff" d="M118.3,-56.56C121.24,-56.02 124.15,-55.49 127,-55 225.62,-37.92 342.41,-22.79 402.62,-15.36"/>
<polygon fill="#63b8ff" stroke="#63b8ff" points="403.34,-18.8 412.84,-14.1 402.49,-11.85 403.34,-18.8"/>
</a>
</g>
</g>
<!-- Node13&#45;&gt;Node6 -->
<g id="edge15_Node000013_Node000006" class="edge">
<title>Node13&#45;&gt;Node6</title>
<g id="a_edge15_Node000013_Node000006"><a xlink:title=" ">
<path fill="none" stroke="#63b8ff" d="M209.52,-60.49C216.9,-58.62 224.71,-56.7 232,-55 291.29,-41.21 360.38,-26.98 402.91,-18.44"/>
<polygon fill="#63b8ff" stroke="#63b8ff" points="403.75,-21.84 412.86,-16.45 402.37,-14.98 403.75,-21.84"/>
</a>
</g>
</g>
<!-- Node16 -->
<g id="Node000016" class="node">
<title>Node16</title>
<g id="a_Node000016"><a xlink:href="ematch__src_2utils_2perlish_2perlish_8hh.html" target="_top" xlink:title=" ">
<polygon fill="white" stroke="#666666" points="1173.5,-145.5 1048.5,-145.5 1048.5,-126.5 1173.5,-126.5 1173.5,-145.5"/>
<text text-anchor="middle" x="1111" y="-133.5" font-family="Helvetica,sans-Serif" font-size="10.00">utils/perlish/perlish.hh</text>
</a>
</g>
</g>
<!-- Node15&#45;&gt;Node16 -->
<g id="edge18_Node000015_Node000016" class="edge">
<title>Node15&#45;&gt;Node16</title>
<g id="a_edge18_Node000015_Node000016"><a xlink:title=" ">
<path fill="none" stroke="#63b8ff" d="M673.77,-362.94C695.19,-354.07 729.51,-339.76 759,-327 825.1,-298.39 843.21,-294.44 907,-261 975.7,-224.99 1052.97,-175.36 1089.57,-151.27"/>
<polygon fill="#63b8ff" stroke="#63b8ff" points="1091.56,-154.15 1097.97,-145.72 1087.7,-148.31 1091.56,-154.15"/>
</a>
</g>
</g>
<!-- Node24 -->
<g id="Node000024" class="node">
<title>Node24</title>
<g id="a_Node000024"><a xlink:href="ResidueIndexMapPredefined_8hh.html" target="_top" xlink:title=" ">
<polygon fill="white" stroke="#666666" points="750,-327 556,-327 556,-297 750,-297 750,-327"/>
<text text-anchor="start" x="564" y="-315" font-family="Helvetica,sans-Serif" font-size="10.00">utils/sequence/ResidueIndex</text>
<text text-anchor="middle" x="653" y="-304" font-family="Helvetica,sans-Serif" font-size="10.00">Map/ResidueIndexMapPredefined.hh</text>
</a>
</g>
</g>
<!-- Node15&#45;&gt;Node24 -->
<g id="edge34_Node000015_Node000024" class="edge">
<title>Node15&#45;&gt;Node24</title>
<g id="a_edge34_Node000015_Node000024"><a xlink:title=" ">
<path fill="none" stroke="#63b8ff" d="M653,-362.87C653,-356.11 653,-346.35 653,-337.26"/>
<polygon fill="#63b8ff" stroke="#63b8ff" points="656.5,-337.11 653,-327.11 649.5,-337.11 656.5,-337.11"/>
</a>
</g>
</g>
<!-- Node16&#45;&gt;Node4 -->
<g id="edge23_Node000016_Node000004" class="edge">
<title>Node16&#45;&gt;Node4</title>
<g id="a_edge23_Node000016_Node000004"><a xlink:title=" ">
<path fill="none" stroke="#63b8ff" d="M1099.66,-126.17C1086.85,-116.19 1065.41,-99.46 1047,-85 1030.08,-71.71 1028.25,-64.61 1009,-55 964.35,-32.72 907.31,-20.7 872.23,-14.95"/>
<polygon fill="#63b8ff" stroke="#63b8ff" points="872.51,-11.45 862.09,-13.37 871.43,-18.37 872.51,-11.45"/>
</a>
</g>
</g>
<!-- Node16&#45;&gt;Node5 -->
<g id="edge24_Node000016_Node000005" class="edge">
<title>Node16&#45;&gt;Node5</title>
<g id="a_edge24_Node000016_Node000005"><a xlink:title=" ">
<path fill="none" stroke="#63b8ff" d="M1173.63,-127.43C1232.44,-119.26 1315.12,-104.72 1341,-85 1359.19,-71.13 1369.72,-46.33 1375.16,-29.18"/>
<polygon fill="#63b8ff" stroke="#63b8ff" points="1378.63,-29.78 1378.02,-19.2 1371.9,-27.85 1378.63,-29.78"/>
</a>
</g>
</g>
<!-- Node16&#45;&gt;Node6 -->
<g id="edge20_Node000016_Node000006" class="edge">
<title>Node16&#45;&gt;Node6</title>
<g id="a_edge20_Node000016_Node000006"><a xlink:title=" ">
<path fill="none" stroke="#63b8ff" d="M1048.42,-131.76C908.29,-124.18 577.86,-104.5 531,-85 514.85,-78.28 479.73,-46 459.07,-26.2"/>
<polygon fill="#63b8ff" stroke="#63b8ff" points="461.31,-23.5 451.69,-19.07 456.44,-28.53 461.31,-23.5"/>
</a>
</g>
</g>
<!-- Node16&#45;&gt;Node7 -->
<g id="edge27_Node000016_Node000007" class="edge">
<title>Node16&#45;&gt;Node7</title>
<g id="a_edge27_Node000016_Node000007"><a xlink:title=" ">
<path fill="none" stroke="#63b8ff" d="M1048.47,-127.18C952.02,-115.13 767.63,-92.08 667.61,-79.58"/>
<polygon fill="#63b8ff" stroke="#63b8ff" points="667.97,-76.09 657.61,-78.33 667.1,-83.04 667.97,-76.09"/>
</a>
</g>
</g>
<!-- Node17 -->
<g id="Node000017" class="node">
<title>Node17</title>
<g id="a_Node000017"><a xlink:title=" ">
<polygon fill="#e0e0e0" stroke="#999999" points="1461.5,-79.5 1408.5,-79.5 1408.5,-60.5 1461.5,-60.5 1461.5,-79.5"/>
<text text-anchor="middle" x="1435" y="-67.5" font-family="Helvetica,sans-Serif" font-size="10.00">ctype.h</text>
</a>
</g>
</g>
<!-- Node16&#45;&gt;Node17 -->
<g id="edge19_Node000016_Node000017" class="edge">
<title>Node16&#45;&gt;Node17</title>
<g id="a_edge19_Node000016_Node000017"><a xlink:title=" ">
<path fill="none" stroke="#63b8ff" d="M1173.7,-126.76C1231.44,-118.5 1319.23,-104.25 1394,-85 1396.64,-84.32 1399.36,-83.55 1402.07,-82.73"/>
<polygon fill="#63b8ff" stroke="#63b8ff" points="1403.32,-86.01 1411.77,-79.63 1401.18,-79.34 1403.32,-86.01"/>
</a>
</g>
</g>
<!-- Node18 -->
<g id="Node000018" class="node">
<title>Node18</title>
<g id="a_Node000018"><a xlink:title=" ">
<polygon fill="#e0e0e0" stroke="#999999" points="1239.5,-79.5 1184.5,-79.5 1184.5,-60.5 1239.5,-60.5 1239.5,-79.5"/>
<text text-anchor="middle" x="1212" y="-67.5" font-family="Helvetica,sans-Serif" font-size="10.00">fstream</text>
</a>
</g>
</g>
<!-- Node16&#45;&gt;Node18 -->
<g id="edge21_Node000016_Node000018" class="edge">
<title>Node16&#45;&gt;Node18</title>
<g id="a_edge21_Node000016_Node000018"><a xlink:title=" ">
<path fill="none" stroke="#63b8ff" d="M1124.62,-126.37C1141.34,-115.78 1169.91,-97.67 1189.81,-85.06"/>
<polygon fill="#63b8ff" stroke="#63b8ff" points="1191.7,-88.01 1198.27,-79.7 1187.95,-82.1 1191.7,-88.01"/>
</a>
</g>
</g>
<!-- Node19 -->
<g id="Node000019" class="node">
<title>Node19</title>
<g id="a_Node000019"><a xlink:title=" ">
<polygon fill="#e0e0e0" stroke="#999999" points="1314,-79.5 1258,-79.5 1258,-60.5 1314,-60.5 1314,-79.5"/>
<text text-anchor="middle" x="1286" y="-67.5" font-family="Helvetica,sans-Serif" font-size="10.00">sstream</text>
</a>
</g>
</g>
<!-- Node16&#45;&gt;Node19 -->
<g id="edge22_Node000016_Node000019" class="edge">
<title>Node16&#45;&gt;Node19</title>
<g id="a_edge22_Node000016_Node000019"><a xlink:title=" ">
<path fill="none" stroke="#63b8ff" d="M1134.97,-126.43C1162.53,-116.55 1209.09,-99.78 1249,-85 1250.59,-84.41 1252.23,-83.8 1253.87,-83.19"/>
<polygon fill="#63b8ff" stroke="#63b8ff" points="1255.19,-86.43 1263.32,-79.64 1252.73,-79.88 1255.19,-86.43"/>
</a>
</g>
</g>
<!-- Node20 -->
<g id="Node000020" class="node">
<title>Node20</title>
<g id="a_Node000020"><a xlink:title=" ">
<polygon fill="#e0e0e0" stroke="#999999" points="808,-79.5 752,-79.5 752,-60.5 808,-60.5 808,-79.5"/>
<text text-anchor="middle" x="780" y="-67.5" font-family="Helvetica,sans-Serif" font-size="10.00">assert.h</text>
</a>
</g>
</g>
<!-- Node16&#45;&gt;Node20 -->
<g id="edge25_Node000016_Node000020" class="edge">
<title>Node16&#45;&gt;Node20</title>
<g id="a_edge25_Node000016_Node000020"><a xlink:title=" ">
<path fill="none" stroke="#63b8ff" d="M1066.7,-126.44C1001.26,-113.78 879.84,-90.3 818.13,-78.37"/>
<polygon fill="#63b8ff" stroke="#63b8ff" points="818.53,-74.88 808.04,-76.42 817.2,-81.76 818.53,-74.88"/>
</a>
</g>
</g>
<!-- Node21 -->
<g id="Node000021" class="node">
<title>Node21</title>
<g id="a_Node000021"><a xlink:title=" ">
<polygon fill="#e0e0e0" stroke="#999999" points="1158.5,-19 1063.5,-19 1063.5,0 1158.5,0 1158.5,-19"/>
<text text-anchor="middle" x="1111" y="-7" font-family="Helvetica,sans-Serif" font-size="10.00">boost/regex.hpp</text>
</a>
</g>
</g>
<!-- Node16&#45;&gt;Node21 -->
<g id="edge26_Node000016_Node000021" class="edge">
<title>Node16&#45;&gt;Node21</title>
<g id="a_edge26_Node000016_Node000021"><a xlink:title=" ">
<path fill="none" stroke="#63b8ff" d="M1173.61,-132.14C1250.73,-126.31 1366.52,-108.6 1323,-55 1303.92,-31.5 1225.01,-19.96 1169.05,-14.63"/>
<polygon fill="#63b8ff" stroke="#63b8ff" points="1169.17,-11.12 1158.89,-13.7 1168.53,-18.1 1169.17,-11.12"/>
</a>
</g>
</g>
<!-- Node22 -->
<g id="Node000022" class="node">
<title>Node22</title>
<g id="a_Node000022"><a xlink:href="ematch__src_2utils_2stl_2stlTypes_8hh.html" target="_top" xlink:title=" ">
<polygon fill="white" stroke="#666666" points="1166,-79.5 1056,-79.5 1056,-60.5 1166,-60.5 1166,-79.5"/>
<text text-anchor="middle" x="1111" y="-67.5" font-family="Helvetica,sans-Serif" font-size="10.00">utils/stl/stlTypes.hh</text>
</a>
</g>
</g>
<!-- Node16&#45;&gt;Node22 -->
<g id="edge28_Node000016_Node000022" class="edge">
<title>Node16&#45;&gt;Node22</title>
<g id="a_edge28_Node000016_Node000022"><a xlink:title=" ">
<path fill="none" stroke="#63b8ff" d="M1111,-126.37C1111,-117.16 1111,-102.29 1111,-90.27"/>
<polygon fill="#63b8ff" stroke="#63b8ff" points="1114.5,-89.91 1111,-79.91 1107.5,-89.91 1114.5,-89.91"/>
</a>
</g>
</g>
<!-- Node23 -->
<g id="Node000023" class="node">
<title>Node23</title>
<g id="a_Node000023"><a xlink:href="ematch__src_2utils_2boost_2boostUtils_8hh.html" target="_top" xlink:title=" ">
<polygon fill="white" stroke="#666666" points="999.5,-79.5 864.5,-79.5 864.5,-60.5 999.5,-60.5 999.5,-79.5"/>
<text text-anchor="middle" x="932" y="-67.5" font-family="Helvetica,sans-Serif" font-size="10.00">utils/boost/boostUtils.hh</text>
</a>
</g>
</g>
<!-- Node16&#45;&gt;Node23 -->
<g id="edge31_Node000016_Node000023" class="edge">
<title>Node16&#45;&gt;Node23</title>
<g id="a_edge31_Node000016_Node000023"><a xlink:title=" ">
<path fill="none" stroke="#63b8ff" d="M1086.86,-126.37C1055.68,-115.22 1001.23,-95.75 965.9,-83.12"/>
<polygon fill="#63b8ff" stroke="#63b8ff" points="966.64,-79.67 956.04,-79.6 964.28,-86.26 966.64,-79.67"/>
</a>
</g>
</g>
<!-- Node22&#45;&gt;Node4 -->
<g id="edge29_Node000022_Node000004" class="edge">
<title>Node22&#45;&gt;Node4</title>
<g id="a_edge29_Node000022_Node000004"><a xlink:title=" ">
<path fill="none" stroke="#63b8ff" d="M1071.59,-60.49C1017.6,-48.84 921.65,-28.13 871.9,-17.39"/>
<polygon fill="#63b8ff" stroke="#63b8ff" points="872.53,-13.94 862.02,-15.25 871.05,-20.78 872.53,-13.94"/>
</a>
</g>
</g>
<!-- Node22&#45;&gt;Node5 -->
<g id="edge30_Node000022_Node000005" class="edge">
<title>Node22&#45;&gt;Node5</title>
<g id="a_edge30_Node000022_Node000005"><a xlink:title=" ">
<path fill="none" stroke="#63b8ff" d="M1150.11,-60.49C1203.03,-48.99 1296.54,-28.65 1346.43,-17.8"/>
<polygon fill="#63b8ff" stroke="#63b8ff" points="1347.36,-21.18 1356.39,-15.64 1345.87,-14.34 1347.36,-21.18"/>
</a>
</g>
</g>
<!-- Node23&#45;&gt;Node6 -->
<g id="edge32_Node000023_Node000006" class="edge">
<title>Node23&#45;&gt;Node6</title>
<g id="a_edge32_Node000023_Node000006"><a xlink:title=" ">
<path fill="none" stroke="#63b8ff" d="M864.21,-60.61C848.7,-58.73 832.28,-56.77 817,-55 670.88,-38.11 633.49,-40.67 488,-19 486.53,-18.78 485.03,-18.55 483.51,-18.3"/>
<polygon fill="#63b8ff" stroke="#63b8ff" points="483.89,-14.82 473.45,-16.58 482.71,-21.72 483.89,-14.82"/>
</a>
</g>
</g>
<!-- Node23&#45;&gt;Node21 -->
<g id="edge33_Node000023_Node000021" class="edge">
<title>Node23&#45;&gt;Node21</title>
<g id="a_edge33_Node000023_Node000021"><a xlink:title=" ">
<path fill="none" stroke="#63b8ff" d="M958.03,-60.49C988.92,-50.4 1040.58,-33.51 1075.22,-22.19"/>
<polygon fill="#63b8ff" stroke="#63b8ff" points="1076.52,-25.45 1084.94,-19.02 1074.35,-18.8 1076.52,-25.45"/>
</a>
</g>
</g>
<!-- Node24&#45;&gt;Node6 -->
<g id="edge48_Node000024_Node000006" class="edge">
<title>Node24&#45;&gt;Node6</title>
<g id="a_edge48_Node000024_Node000006"><a xlink:title=" ">
<path fill="none" stroke="#63b8ff" d="M555.92,-297.98C498.15,-284.16 436,-255.75 436,-197.5 436,-197.5 436,-197.5 436,-135 436,-97.44 439.22,-53.6 441.29,-29.25"/>
<polygon fill="#63b8ff" stroke="#63b8ff" points="444.78,-29.51 442.17,-19.25 437.81,-28.9 444.78,-29.51"/>
</a>
</g>
</g>
<!-- Node25 -->
<g id="Node000025" class="node">
<title>Node25</title>
<g id="a_Node000025"><a xlink:href="ResidueIndexMap_8hh.html" target="_top" xlink:title=" ">
<polygon fill="white" stroke="#666666" points="897.5,-261 778.5,-261 778.5,-242 897.5,-242 897.5,-261"/>
<text text-anchor="middle" x="838" y="-249" font-family="Helvetica,sans-Serif" font-size="10.00">ResidueIndexMap.hh</text>
</a>
</g>
</g>
<!-- Node24&#45;&gt;Node25 -->
<g id="edge35_Node000024_Node000025" class="edge">
<title>Node24&#45;&gt;Node25</title>
<g id="a_edge35_Node000024_Node000025"><a xlink:title=" ">
<path fill="none" stroke="#63b8ff" d="M697.31,-296.99C729.1,-286.94 771.42,-273.55 801.32,-264.1"/>
<polygon fill="#63b8ff" stroke="#63b8ff" points="802.47,-267.41 810.95,-261.05 800.36,-260.73 802.47,-267.41"/>
</a>
</g>
</g>
<!-- Node25&#45;&gt;Node4 -->
<g id="edge36_Node000025_Node000004" class="edge">
<title>Node25&#45;&gt;Node4</title>
<g id="a_edge36_Node000025_Node000004"><a xlink:title=" ">
<path fill="none" stroke="#63b8ff" d="M841.09,-241.77C844.05,-232.9 848.32,-218.69 850,-206 858.54,-141.53 848.72,-64.2 843.22,-29.26"/>
<polygon fill="#63b8ff" stroke="#63b8ff" points="846.63,-28.42 841.56,-19.12 839.72,-29.56 846.63,-28.42"/>
</a>
</g>
</g>
<!-- Node25&#45;&gt;Node5 -->
<g id="edge37_Node000025_Node000005" class="edge">
<title>Node25&#45;&gt;Node5</title>
<g id="a_edge37_Node000025_Node000005"><a xlink:title=" ">
<path fill="none" stroke="#63b8ff" d="M897.74,-244.55C1044.29,-228.58 1414.92,-179.46 1487,-85 1495.09,-74.4 1494.4,-66.09 1487,-55 1470.78,-30.69 1438.52,-19.64 1413.64,-14.63"/>
<polygon fill="#63b8ff" stroke="#63b8ff" points="1413.96,-11.13 1403.5,-12.83 1412.74,-18.02 1413.96,-11.13"/>
</a>
</g>
</g>
<!-- Node25&#45;&gt;Node17 -->
<g id="edge38_Node000025_Node000017" class="edge">
<title>Node25&#45;&gt;Node17</title>
<g id="a_edge38_Node000025_Node000017"><a xlink:title=" ">
<path fill="none" stroke="#63b8ff" d="M868.54,-241.99C928.81,-225.12 1067.26,-186.06 1183,-151 1260.31,-127.58 1350.42,-98.56 1399.19,-82.7"/>
<polygon fill="#63b8ff" stroke="#63b8ff" points="1400.53,-85.94 1408.95,-79.52 1398.36,-79.29 1400.53,-85.94"/>
</a>
</g>
</g>
<!-- Node26 -->
<g id="Node000026" class="node">
<title>Node26</title>
<g id="a_Node000026"><a xlink:title=" ">
<polygon fill="#e0e0e0" stroke="#999999" points="840.5,-206 775.5,-206 775.5,-187 840.5,-187 840.5,-206"/>
<text text-anchor="middle" x="808" y="-194" font-family="Helvetica,sans-Serif" font-size="10.00">stdexcept</text>
</a>
</g>
</g>
<!-- Node25&#45;&gt;Node26 -->
<g id="edge39_Node000025_Node000026" class="edge">
<title>Node25&#45;&gt;Node26</title>
<g id="a_edge39_Node000025_Node000026"><a xlink:title=" ">
<path fill="none" stroke="#63b8ff" d="M833.05,-241.75C828.94,-234.49 822.97,-223.95 817.9,-214.98"/>
<polygon fill="#63b8ff" stroke="#63b8ff" points="820.83,-213.07 812.86,-206.09 814.74,-216.52 820.83,-213.07"/>
</a>
</g>
</g>
<!-- Node27 -->
<g id="Node000027" class="node">
<title>Node27</title>
<g id="a_Node000027"><a xlink:href="ematch__src_2utils_2FLArray_2FLEArray_8hh.html" target="_top" xlink:title=" ">
<polygon fill="white" stroke="#666666" points="746.5,-206 607.5,-206 607.5,-187 746.5,-187 746.5,-206"/>
<text text-anchor="middle" x="677" y="-194" font-family="Helvetica,sans-Serif" font-size="10.00">utils/FLArray/FLEArray.hh</text>
</a>
</g>
</g>
<!-- Node25&#45;&gt;Node27 -->
<g id="edge40_Node000025_Node000027" class="edge">
<title>Node25&#45;&gt;Node27</title>
<g id="a_edge40_Node000025_Node000027"><a xlink:title=" ">
<path fill="none" stroke="#63b8ff" d="M812.13,-241.98C785.22,-233.13 742.88,-219.19 712.77,-209.28"/>
<polygon fill="#63b8ff" stroke="#63b8ff" points="713.66,-205.88 703.07,-206.08 711.47,-212.53 713.66,-205.88"/>
</a>
</g>
</g>
<!-- Node27&#45;&gt;Node5 -->
<g id="edge42_Node000027_Node000005" class="edge">
<title>Node27&#45;&gt;Node5</title>
<g id="a_edge42_Node000027_Node000005"><a xlink:title=" ">
<path fill="none" stroke="#63b8ff" d="M746.95,-188.76C753.39,-188.16 759.82,-187.56 766,-187 923.65,-172.67 1372.36,-208.81 1471,-85 1479.31,-74.57 1478.06,-66.31 1471,-55 1458.49,-34.96 1434.06,-23.7 1413.66,-17.52"/>
<polygon fill="#63b8ff" stroke="#63b8ff" points="1414.31,-14.07 1403.74,-14.81 1412.46,-20.82 1414.31,-14.07"/>
</a>
</g>
</g>
<!-- Node27&#45;&gt;Node6 -->
<g id="edge43_Node000027_Node000006" class="edge">
<title>Node27&#45;&gt;Node6</title>
<g id="a_edge43_Node000027_Node000006"><a xlink:title=" ">
<path fill="none" stroke="#63b8ff" d="M653.61,-186.9C614.93,-171.68 537.17,-136.62 489,-85 473.01,-67.86 459.59,-44.33 451.45,-28.34"/>
<polygon fill="#63b8ff" stroke="#63b8ff" points="454.44,-26.49 446.89,-19.05 448.16,-29.57 454.44,-26.49"/>
</a>
</g>
</g>
<!-- Node27&#45;&gt;Node7 -->
<g id="edge46_Node000027_Node000007" class="edge">
<title>Node27&#45;&gt;Node7</title>
<g id="a_edge46_Node000027_Node000007"><a xlink:title=" ">
<path fill="none" stroke="#63b8ff" d="M641.95,-186.88C623.35,-180.33 602.1,-169.24 591,-151 579.58,-132.24 585.22,-106.32 591.26,-89.13"/>
<polygon fill="#63b8ff" stroke="#63b8ff" points="594.57,-90.28 594.93,-79.69 588.05,-87.75 594.57,-90.28"/>
</a>
</g>
</g>
<!-- Node27&#45;&gt;Node16 -->
<g id="edge47_Node000027_Node000016" class="edge">
<title>Node27&#45;&gt;Node16</title>
<g id="a_edge47_Node000027_Node000016"><a xlink:title=" ">
<path fill="none" stroke="#63b8ff" d="M740.11,-186.99C819.29,-176.32 954.79,-158.06 1038.26,-146.81"/>
<polygon fill="#63b8ff" stroke="#63b8ff" points="1038.73,-150.27 1048.17,-145.47 1037.79,-143.34 1038.73,-150.27"/>
</a>
</g>
</g>
<!-- Node27&#45;&gt;Node20 -->
<g id="edge41_Node000027_Node000020" class="edge">
<title>Node27&#45;&gt;Node20</title>
<g id="a_edge41_Node000027_Node000020"><a xlink:title=" ">
<path fill="none" stroke="#63b8ff" d="M660.42,-186.87C647.83,-179.3 631.46,-167.01 624,-151 618.37,-138.92 616.12,-131.75 624,-121 655.41,-78.14 687.46,-101.4 738,-85 740.28,-84.26 742.63,-83.49 745,-82.71"/>
<polygon fill="#63b8ff" stroke="#63b8ff" points="746.31,-85.97 754.7,-79.5 744.11,-79.32 746.31,-85.97"/>
</a>
</g>
</g>
<!-- Node28 -->
<g id="Node000028" class="node">
<title>Node28</title>
<g id="a_Node000028"><a xlink:title=" ">
<polygon fill="#e0e0e0" stroke="#999999" points="697,-145.5 633,-145.5 633,-126.5 697,-126.5 697,-145.5"/>
<text text-anchor="middle" x="665" y="-133.5" font-family="Helvetica,sans-Serif" font-size="10.00">algorithm</text>
</a>
</g>
</g>
<!-- Node27&#45;&gt;Node28 -->
<g id="edge44_Node000027_Node000028" class="edge">
<title>Node27&#45;&gt;Node28</title>
<g id="a_edge44_Node000027_Node000028"><a xlink:title=" ">
<path fill="none" stroke="#63b8ff" d="M675.23,-186.87C673.55,-178.66 670.96,-166.04 668.81,-155.55"/>
<polygon fill="#63b8ff" stroke="#63b8ff" points="672.22,-154.76 666.78,-145.67 665.36,-156.17 672.22,-154.76"/>
</a>
</g>
</g>
<!-- Node29 -->
<g id="Node000029" class="node">
<title>Node29</title>
<g id="a_Node000029"><a xlink:title=" ">
<polygon fill="#e0e0e0" stroke="#999999" points="840.5,-145.5 715.5,-145.5 715.5,-126.5 840.5,-126.5 840.5,-145.5"/>
<text text-anchor="middle" x="778" y="-133.5" font-family="Helvetica,sans-Serif" font-size="10.00">boost/lexical_cast.hpp</text>
</a>
</g>
</g>
<!-- Node27&#45;&gt;Node29 -->
<g id="edge45_Node000027_Node000029" class="edge">
<title>Node27&#45;&gt;Node29</title>
<g id="a_edge45_Node000027_Node000029"><a xlink:title=" ">
<path fill="none" stroke="#63b8ff" d="M691.9,-186.87C708.31,-177.36 734.93,-161.95 754.23,-150.77"/>
<polygon fill="#63b8ff" stroke="#63b8ff" points="756.14,-153.71 763.04,-145.67 752.63,-147.65 756.14,-153.71"/>
</a>
</g>
</g>
</g>
</svg>

<g id="navigator" transform="translate(0 0)" fill="#404254">
  <rect fill="#f2f5e9" fill-opacity="0.5" stroke="#606060" stroke-width=".5" x="0" y="0" width="60" height="60"/>
  <use id="zoomplus" xlink:href="#zoomPlus" x="17" y="9" onmousedown="handleZoom(evt,'in')"/>
  <use id="zoomminus" xlink:href="#zoomMin" x="42" y="9" onmousedown="handleZoom(evt,'out')"/>
  <use id="reset" xlink:href="#resetDef" x="30" y="36" onmousedown="handleReset()"/>
   <use id="arrowup" xlink:href="#arrowUp" x="0" y="0" onmousedown="handlePan(0,-1)"/>
  <use id="arrowright" xlink:href="#arrowRight" x="0" y="0" onmousedown="handlePan(1,0)"/>
  <use id="arrowdown" xlink:href="#arrowDown" x="0" y="0" onmousedown="handlePan(0,1)"/>
  <use id="arrowleft" xlink:href="#arrowLeft" x="0" y="0" onmousedown="handlePan(-1,0)"/>
</g>
<svg viewBox="0 0 15 15" width="100%" height="30px" preserveAspectRatio="xMaxYMin meet">
 <g id="arrow_out" transform="scale(0.3 0.3)">
  <a xlink:href="LabeledSequences_8cc__incl_org.svg" target="_base">
   <rect id="button" ry="5" rx="5" y="6" x="6" height="38" width="38"
        fill="#f2f5e9" fill-opacity="0.5" stroke="#606060" stroke-width="1.0"/>
   <path id="arrow"
     d="M 11.500037,31.436501 C 11.940474,20.09759 22.043105,11.32322 32.158766,21.979434 L 37.068811,17.246167 C 37.068811,17.246167 37.088388,32 37.088388,32 L 22.160133,31.978069 C 22.160133,31.978069 26.997745,27.140456 26.997745,27.140456 C 18.528582,18.264221 13.291696,25.230495 11.500037,31.436501 z"
     style="fill:#404040;"/>
  </a>
 </g>
</svg>

<style type='text/css'>
<![CDATA[
[data-mouse-over-selected='false'] { opacity: 0.7; }
[data-mouse-over-selected='true']  { opacity: 1.0; }
]]>
</style>
<script type="application/ecmascript"><![CDATA[
document.addEventListener('DOMContentLoaded', (event) => {
  highlightEdges();
  highlightAdjacentNodes();
});
]]></script>
</svg>
