<?xml version="1.0" encoding="UTF-8" standalone="no"?>
<!DOCTYPE svg PUBLIC "-//W3C//DTD SVG 1.1//EN"
 "http://www.w3.org/Graphics/SVG/1.1/DTD/svg11.dtd">
<!-- Generated by graphviz version 2.43.0 (0)
 -->
<!-- Title: main Pages: 1 -->
<!--zoomable 447 -->

<svg id="main" version="1.1" xmlns="http://www.w3.org/2000/svg" xmlns:xlink="http://www.w3.org/1999/xlink" xml:space="preserve" onload="init(evt)">
<style type="text/css"><![CDATA[
.node, .edge {opacity: 0.7;}
.node.selected, .edge.selected {opacity: 1;}
.edge:hover path { stroke: red; }
.edge:hover polygon { stroke: red; fill: red; }
]]></style>

<defs>
  <circle id="rim" cx="0" cy="0" r="7"/>
  <circle id="rim2" cx="0" cy="0" r="3.5"/>
  <g id="zoomPlus">
    <use xlink:href="#rim" fill="#404040"><set attributeName="fill" to="#808080" begin="zoomplus.mouseover" end="zoomplus.mouseout"/></use>
    <path d="M-4,0h8M0,-4v8" fill="none" stroke="white" stroke-width="1.5" pointer-events="none"/>
  </g>
  <g id="zoomMin">
    <use xlink:href="#rim" fill="#404040"><set attributeName="fill" to="#808080" begin="zoomminus.mouseover" end="zoomminus.mouseout"/></use>
    <path d="M-4,0h8" fill="none" stroke="white" stroke-width="1.5" pointer-events="none"/>
  </g>
  <g id="arrowUp" transform="translate(30 24)">
    <use xlink:href="#rim"/>
    <path pointer-events="none" fill="none" stroke="white" stroke-width="1.5" d="M0,-3.0v7 M-2.5,-0.5L0,-3.0L2.5,-0.5"/>
  </g>
  <g id="arrowRight" transform="rotate(90) translate(36 -43)">
    <use xlink:href="#rim"/>
    <path pointer-events="none" fill="none" stroke="white" stroke-width="1.5" d="M0,-3.0v7 M-2.5,-0.5L0,-3.0L2.5,-0.5"/>
  </g>
  <g id="arrowDown" transform="rotate(180) translate(-30 -48)">
    <use xlink:href="#rim"/>
    <path pointer-events="none" fill="none" stroke="white" stroke-width="1.5" d="M0,-3.0v7 M-2.5,-0.5L0,-3.0L2.5,-0.5"/>
  </g>
  <g id="arrowLeft" transform="rotate(270) translate(-36 17)">
    <use xlink:href="#rim"/>
    <path pointer-events="none" fill="none" stroke="white" stroke-width="1.5" d="M0,-3.0v7 M-2.5,-0.5L0,-3.0L2.5,-0.5"/>
  </g>
  <g id="resetDef">
    <use xlink:href="#rim2" fill="#404040"><set attributeName="fill" to="#808080" begin="reset.mouseover" end="reset.mouseout"/></use>
  </g>
</defs>
<script type="application/ecmascript">
var viewWidth = 1036;
var viewHeight = 447;
var sectionId = 'dynsection-1';
</script>
<script type="application/ecmascript" xlink:href="svg.min.js"/>
<svg id="graph" class="graph">
<g id="viewport">
<title>main</title>
<!-- Node1 -->
<g id="Node000001" class="node">
<title>Node1</title>
<g id="a_Node000001"><a xlink:title=" ">
<polygon fill="#999999" stroke="#666666" points="41,-327 0,-327 0,-308 41,-308 41,-327"/>
<text text-anchor="middle" x="20.5" y="-315" font-family="Helvetica,sans-Serif" font-size="10.00">main</text>
</a>
</g>
</g>
<!-- Node2 -->
<g id="Node000002" class="node">
<title>Node2</title>
<g id="a_Node000002"><a xlink:href="namespacecbrc.html#aef2d0ed299987208c4ea3f95ca35008f" target="_top" xlink:title=" ">
<polygon fill="white" stroke="#666666" points="216,-332.5 77,-332.5 77,-302.5 216,-302.5 216,-332.5"/>
<text text-anchor="start" x="85" y="-320.5" font-family="Helvetica,sans-Serif" font-size="10.00">cbrc::labeledBlastToOdds</text>
<text text-anchor="middle" x="146.5" y="-309.5" font-family="Helvetica,sans-Serif" font-size="10.00">Ratio</text>
</a>
</g>
</g>
<!-- Node1&#45;&gt;Node2 -->
<g id="edge1_Node000001_Node000002" class="edge">
<title>Node1&#45;&gt;Node2</title>
<g id="a_edge1_Node000001_Node000002"><a xlink:title=" ">
<path fill="none" stroke="#63b8ff" d="M41.15,-317.5C48.42,-317.5 57.18,-317.5 66.5,-317.5"/>
<polygon fill="#63b8ff" stroke="#63b8ff" points="66.78,-321 76.78,-317.5 66.78,-314 66.78,-321"/>
</a>
</g>
</g>
<!-- Node3 -->
<g id="Node000003" class="node">
<title>Node3</title>
<g id="a_Node000003"><a xlink:href="classcbrc_1_1FLEArray.html#a7e5d0d3bc5c41546620ccff95b55b3fa" target="_top" xlink:title=" ">
<polygon fill="white" stroke="#666666" points="403.5,-439 284.5,-439 284.5,-420 403.5,-420 403.5,-439"/>
<text text-anchor="middle" x="344" y="-427" font-family="Helvetica,sans-Serif" font-size="10.00">cbrc::FLEArray::begin</text>
</a>
</g>
</g>
<!-- Node2&#45;&gt;Node3 -->
<g id="edge2_Node000002_Node000003" class="edge">
<title>Node2&#45;&gt;Node3</title>
<g id="a_edge2_Node000002_Node000003"><a xlink:title=" ">
<path fill="none" stroke="#63b8ff" d="M159.94,-332.72C177.95,-353.69 213.39,-391.06 252,-410.5 258.99,-414.02 266.6,-416.89 274.35,-419.23"/>
<polygon fill="#63b8ff" stroke="#63b8ff" points="273.62,-422.66 284.19,-421.91 275.46,-415.91 273.62,-422.66"/>
</a>
</g>
</g>
<!-- Node4 -->
<g id="Node000004" class="node">
<title>Node4</title>
<g id="a_Node000004"><a xlink:href="classcbrc_1_1FLEArray.html#a8c53878dc57e8f666976e041d146a523" target="_top" xlink:title=" ">
<polygon fill="white" stroke="#666666" points="623,-251 513,-251 513,-232 623,-232 623,-251"/>
<text text-anchor="middle" x="568" y="-239" font-family="Helvetica,sans-Serif" font-size="10.00">cbrc::FLEArray::end</text>
</a>
</g>
</g>
<!-- Node2&#45;&gt;Node4 -->
<g id="edge3_Node000002_Node000004" class="edge">
<title>Node2&#45;&gt;Node4</title>
<g id="a_edge3_Node000002_Node000004"><a xlink:title=" ">
<path fill="none" stroke="#63b8ff" d="M171.34,-302.29C191.86,-290.04 222.7,-273.58 252,-265.5 336.57,-242.2 438.42,-238.64 502.95,-239.26"/>
<polygon fill="#63b8ff" stroke="#63b8ff" points="502.94,-242.76 512.98,-239.39 503.03,-235.76 502.94,-242.76"/>
</a>
</g>
</g>
<!-- Node5 -->
<g id="Node000005" class="node">
<title>Node5</title>
<g id="a_Node000005"><a xlink:href="namespacecbrc.html#a0498f0fc177d15ccb25e38c06d5685cd" target="_top" xlink:title=" ">
<polygon fill="white" stroke="#666666" points="436,-365 252,-365 252,-346 436,-346 436,-365"/>
<text text-anchor="middle" x="344" y="-353" font-family="Helvetica,sans-Serif" font-size="10.00">cbrc::FLEArrayIdentityPermutation</text>
</a>
</g>
</g>
<!-- Node2&#45;&gt;Node5 -->
<g id="edge4_Node000002_Node000005" class="edge">
<title>Node2&#45;&gt;Node5</title>
<g id="a_edge4_Node000002_Node000005"><a xlink:title=" ">
<path fill="none" stroke="#63b8ff" d="M216.15,-330.84C238.28,-335.15 262.6,-339.87 283.97,-344.03"/>
<polygon fill="#63b8ff" stroke="#63b8ff" points="283.4,-347.48 293.89,-345.95 284.74,-340.61 283.4,-347.48"/>
</a>
</g>
</g>
<!-- Node6 -->
<g id="Node000006" class="node">
<title>Node6</title>
<g id="a_Node000006"><a xlink:href="classcbrc_1_1Blast8ResultReader.html#ac1a7f64fb3efdfcf6cd146d8ec2b1c79" target="_top" xlink:title=" ">
<polygon fill="white" stroke="#666666" points="425,-402 263,-402 263,-383 425,-383 425,-402"/>
<text text-anchor="middle" x="344" y="-390" font-family="Helvetica,sans-Serif" font-size="10.00">cbrc::Blast8ResultReader::has</text>
</a>
</g>
</g>
<!-- Node2&#45;&gt;Node6 -->
<g id="edge5_Node000002_Node000006" class="edge">
<title>Node2&#45;&gt;Node6</title>
<g id="a_edge5_Node000002_Node000006"><a xlink:title=" ">
<path fill="none" stroke="#63b8ff" d="M171.08,-332.67C191.68,-345.3 222.79,-362.88 252,-373.5 259.36,-376.18 267.2,-378.52 275.07,-380.56"/>
<polygon fill="#63b8ff" stroke="#63b8ff" points="274.48,-384.02 285.02,-382.99 276.14,-377.22 274.48,-384.02"/>
</a>
</g>
</g>
<!-- Node10 -->
<g id="Node000010" class="node">
<title>Node10</title>
<g id="a_Node000010"><a xlink:href="namespacecbrc_1_1smoothing.html#aaf7cb873e7438e138f83af89d4efd678" target="_top" xlink:title=" ">
<polygon fill="white" stroke="#666666" points="877.5,-337.5 703.5,-337.5 703.5,-307.5 877.5,-307.5 877.5,-337.5"/>
<text text-anchor="start" x="711.5" y="-325.5" font-family="Helvetica,sans-Serif" font-size="10.00">cbrc::smoothing::mergeIdentical</text>
<text text-anchor="middle" x="790.5" y="-314.5" font-family="Helvetica,sans-Serif" font-size="10.00">AdjacentX</text>
</a>
</g>
</g>
<!-- Node2&#45;&gt;Node10 -->
<g id="edge9_Node000002_Node000010" class="edge">
<title>Node2&#45;&gt;Node10</title>
<g id="a_edge9_Node000002_Node000010"><a xlink:title=" ">
<path fill="none" stroke="#63b8ff" d="M216.21,-318.04C331.04,-318.93 562.24,-320.73 693.24,-321.75"/>
<polygon fill="#63b8ff" stroke="#63b8ff" points="693.24,-325.25 703.27,-321.83 693.29,-318.25 693.24,-325.25"/>
</a>
</g>
</g>
<!-- Node11 -->
<g id="Node000011" class="node">
<title>Node11</title>
<g id="a_Node000011"><a xlink:href="classcbrc_1_1FLEArray.html#ad71311380d762114c9e0f3b0dda38b7c" target="_top" xlink:title=" ">
<polygon fill="white" stroke="#666666" points="1028,-213 917,-213 917,-194 1028,-194 1028,-213"/>
<text text-anchor="middle" x="972.5" y="-201" font-family="Helvetica,sans-Serif" font-size="10.00">cbrc::FLEArray::size</text>
</a>
</g>
</g>
<!-- Node2&#45;&gt;Node11 -->
<g id="edge21_Node000002_Node000011" class="edge">
<title>Node2&#45;&gt;Node11</title>
<g id="a_edge21_Node000002_Node000011"><a xlink:title=" ">
<path fill="none" stroke="#63b8ff" d="M216.2,-311.29C315.35,-301.99 504.2,-283 664,-259.5 751.98,-246.56 853.33,-227.24 914.88,-215.01"/>
<polygon fill="#63b8ff" stroke="#63b8ff" points="915.66,-218.42 924.78,-213.04 914.29,-211.56 915.66,-218.42"/>
</a>
</g>
</g>
<!-- Node12 -->
<g id="Node000012" class="node">
<title>Node12</title>
<g id="a_Node000012"><a xlink:href="namespacecbrc_1_1smoothing.html#a7841dbf6fb908ba9d4dab17f77387236" target="_top" xlink:title=" ">
<polygon fill="white" stroke="#666666" points="420,-180.5 268,-180.5 268,-150.5 420,-150.5 420,-180.5"/>
<text text-anchor="start" x="276" y="-168.5" font-family="Helvetica,sans-Serif" font-size="10.00">cbrc::smoothing::monotonic</text>
<text text-anchor="middle" x="344" y="-157.5" font-family="Helvetica,sans-Serif" font-size="10.00">SmoothY</text>
</a>
</g>
</g>
<!-- Node2&#45;&gt;Node12 -->
<g id="edge11_Node000002_Node000012" class="edge">
<title>Node2&#45;&gt;Node12</title>
<g id="a_edge11_Node000002_Node000012"><a xlink:title=" ">
<path fill="none" stroke="#63b8ff" d="M164.02,-302.24C184.22,-283.84 219.71,-252.28 252,-227.5 270.86,-213.03 292.86,-197.99 310.51,-186.35"/>
<polygon fill="#63b8ff" stroke="#63b8ff" points="312.85,-189 319.3,-180.59 309.02,-183.14 312.85,-189"/>
</a>
</g>
</g>
<!-- Node7 -->
<g id="Node000007" class="node">
<title>Node7</title>
<g id="a_Node000007"><a xlink:href="classcbrc_1_1StringKeyHashtable.html#a5bc49e2ccc392c77b418d9b4b24b7e33" target="_top" xlink:title=" ">
<polygon fill="white" stroke="#666666" points="649,-402 487,-402 487,-383 649,-383 649,-402"/>
<text text-anchor="middle" x="568" y="-390" font-family="Helvetica,sans-Serif" font-size="10.00">cbrc::StringKeyHashtable::has</text>
</a>
</g>
</g>
<!-- Node6&#45;&gt;Node7 -->
<g id="edge6_Node000006_Node000007" class="edge">
<title>Node6&#45;&gt;Node7</title>
<g id="a_edge6_Node000006_Node000007"><a xlink:title=" ">
<path fill="none" stroke="#63b8ff" d="M425.15,-392.5C441.97,-392.5 459.81,-392.5 476.96,-392.5"/>
<polygon fill="#63b8ff" stroke="#63b8ff" points="476.97,-396 486.97,-392.5 476.97,-389 476.97,-396"/>
</a>
</g>
</g>
<!-- Node8 -->
<g id="Node000008" class="node">
<title>Node8</title>
<g id="a_Node000008"><a xlink:href="genericHashFunction_8hh.html#a85bd86848a5fd402056c2880030a73de" target="_top" xlink:title=" ">
<polygon fill="white" stroke="#666666" points="838.5,-402 742.5,-402 742.5,-383 838.5,-383 838.5,-402"/>
<text text-anchor="middle" x="790.5" y="-390" font-family="Helvetica,sans-Serif" font-size="10.00">stringHashValue</text>
</a>
</g>
</g>
<!-- Node7&#45;&gt;Node8 -->
<g id="edge7_Node000007_Node000008" class="edge">
<title>Node7&#45;&gt;Node8</title>
<g id="a_edge7_Node000007_Node000008"><a xlink:title=" ">
<path fill="none" stroke="#63b8ff" d="M649.23,-392.5C676.72,-392.5 706.9,-392.5 732.21,-392.5"/>
<polygon fill="#63b8ff" stroke="#63b8ff" points="732.37,-396 742.37,-392.5 732.37,-389 732.37,-396"/>
</a>
</g>
</g>
<!-- Node9 -->
<g id="Node000009" class="node">
<title>Node9</title>
<g id="a_Node000009"><a xlink:href="genericHashFunction_8hh.html#a3ff129a3cf74905c3ce7d762a3d90239" target="_top" xlink:title=" ">
<polygon fill="white" stroke="#666666" points="1024.5,-402 920.5,-402 920.5,-383 1024.5,-383 1024.5,-402"/>
<text text-anchor="middle" x="972.5" y="-390" font-family="Helvetica,sans-Serif" font-size="10.00">genericHashValue</text>
</a>
</g>
</g>
<!-- Node8&#45;&gt;Node9 -->
<g id="edge8_Node000008_Node000009" class="edge">
<title>Node8&#45;&gt;Node9</title>
<g id="a_edge8_Node000008_Node000009"><a xlink:title=" ">
<path fill="none" stroke="#63b8ff" d="M838.79,-392.5C860.66,-392.5 886.91,-392.5 910.26,-392.5"/>
<polygon fill="#63b8ff" stroke="#63b8ff" points="910.42,-396 920.42,-392.5 910.42,-389 910.42,-396"/>
</a>
</g>
</g>
<!-- Node10&#45;&gt;Node11 -->
<g id="edge10_Node000010_Node000011" class="edge">
<title>Node10&#45;&gt;Node11</title>
<g id="a_edge10_Node000010_Node000011"><a xlink:title=" ">
<path fill="none" stroke="#63b8ff" d="M851.49,-307.4C861.71,-303.62 871.94,-299.03 881,-293.5 912.8,-274.09 941.86,-241.36 958.07,-221.17"/>
<polygon fill="#63b8ff" stroke="#63b8ff" points="960.97,-223.15 964.39,-213.12 955.46,-218.83 960.97,-223.15"/>
</a>
</g>
</g>
<!-- Node12&#45;&gt;Node4 -->
<g id="edge17_Node000012_Node000004" class="edge">
<title>Node12&#45;&gt;Node4</title>
<g id="a_edge17_Node000012_Node000004"><a xlink:title=" ">
<path fill="none" stroke="#63b8ff" d="M378.21,-180.61C403.55,-191.76 439.53,-206.81 472,-217.5 485.39,-221.91 500.07,-225.98 513.8,-229.47"/>
<polygon fill="#63b8ff" stroke="#63b8ff" points="513.05,-232.89 523.6,-231.9 514.73,-226.09 513.05,-232.89"/>
</a>
</g>
</g>
<!-- Node12&#45;&gt;Node11 -->
<g id="edge19_Node000012_Node000011" class="edge">
<title>Node12&#45;&gt;Node11</title>
<g id="a_edge19_Node000012_Node000011"><a xlink:title=" ">
<path fill="none" stroke="#63b8ff" d="M420.2,-170.99C437.23,-172.19 455.24,-173.42 472,-174.5 627.98,-184.55 811.47,-194.8 906.73,-200"/>
<polygon fill="#63b8ff" stroke="#63b8ff" points="906.62,-203.5 916.79,-200.55 907,-196.51 906.62,-203.5"/>
</a>
</g>
</g>
<!-- Node13 -->
<g id="Node000013" class="node">
<title>Node13</title>
<g id="a_Node000013"><a xlink:href="namespacecbrc_1_1smoothing.html#ac1ab7e34716884166d35b735e16b93d6" target="_top" xlink:title=" ">
<polygon fill="white" stroke="#666666" points="881,-175 700,-175 700,-134 881,-134 881,-175"/>
<text text-anchor="start" x="708" y="-163" font-family="Helvetica,sans-Serif" font-size="10.00">cbrc::smoothing::average</text>
<text text-anchor="start" x="708" y="-152" font-family="Helvetica,sans-Serif" font-size="10.00">YCoordinateOfPointIWithNeighbor</text>
<text text-anchor="middle" x="790.5" y="-141" font-family="Helvetica,sans-Serif" font-size="10.00">PointUntilMinSampleSizeAttained</text>
</a>
</g>
</g>
<!-- Node12&#45;&gt;Node13 -->
<g id="edge12_Node000012_Node000013" class="edge">
<title>Node12&#45;&gt;Node13</title>
<g id="a_edge12_Node000012_Node000013"><a xlink:title=" ">
<path fill="none" stroke="#63b8ff" d="M420.15,-163.64C494.22,-161.81 607.85,-159 689.52,-156.97"/>
<polygon fill="#63b8ff" stroke="#63b8ff" points="689.9,-160.47 699.81,-156.72 689.73,-153.47 689.9,-160.47"/>
</a>
</g>
</g>
<!-- Node14 -->
<g id="Node000014" class="node">
<title>Node14</title>
<g id="a_Node000014"><a xlink:href="namespacecbrc_1_1smoothing.html#aff57ef2038f4bff5e44f4060dbc89cf0" target="_top" xlink:title=" ">
<polygon fill="white" stroke="#666666" points="664,-41 472,-41 472,0 664,0 664,-41"/>
<text text-anchor="start" x="480" y="-29" font-family="Helvetica,sans-Serif" font-size="10.00">cbrc::smoothing::average</text>
<text text-anchor="start" x="480" y="-18" font-family="Helvetica,sans-Serif" font-size="10.00">YCoordinatesWithNeighboringPoints</text>
<text text-anchor="middle" x="568" y="-7" font-family="Helvetica,sans-Serif" font-size="10.00">UntilMinSampleSizeAttained</text>
</a>
</g>
</g>
<!-- Node12&#45;&gt;Node14 -->
<g id="edge14_Node000012_Node000014" class="edge">
<title>Node12&#45;&gt;Node14</title>
<g id="a_edge14_Node000012_Node000014"><a xlink:title=" ">
<path fill="none" stroke="#63b8ff" d="M357.87,-150.19C379.2,-125.75 424.27,-77.88 472,-50.5 475.19,-48.67 478.5,-46.94 481.9,-45.3"/>
<polygon fill="#63b8ff" stroke="#63b8ff" points="483.37,-48.48 491.05,-41.18 480.49,-42.09 483.37,-48.48"/>
</a>
</g>
</g>
<!-- Node15 -->
<g id="Node000015" class="node">
<title>Node15</title>
<g id="a_Node000015"><a xlink:href="classcbrc_1_1WeightedPoint2D.html#a40bc244a9b5f51bf9810c22760241214" target="_top" xlink:title=" ">
<polygon fill="white" stroke="#666666" points="631.5,-137.5 504.5,-137.5 504.5,-107.5 631.5,-107.5 631.5,-137.5"/>
<text text-anchor="start" x="512.5" y="-125.5" font-family="Helvetica,sans-Serif" font-size="10.00">cbrc::WeightedPoint2D</text>
<text text-anchor="middle" x="568" y="-114.5" font-family="Helvetica,sans-Serif" font-size="10.00">::nonFinite</text>
</a>
</g>
</g>
<!-- Node12&#45;&gt;Node15 -->
<g id="edge18_Node000012_Node000015" class="edge">
<title>Node12&#45;&gt;Node15</title>
<g id="a_edge18_Node000012_Node000015"><a xlink:title=" ">
<path fill="none" stroke="#63b8ff" d="M420.16,-150.94C444.15,-146.29 470.65,-141.16 494.46,-136.55"/>
<polygon fill="#63b8ff" stroke="#63b8ff" points="495.33,-139.95 504.48,-134.61 493.99,-133.08 495.33,-139.95"/>
</a>
</g>
</g>
<!-- Node16 -->
<g id="Node000016" class="node">
<title>Node16</title>
<g id="a_Node000016"><a xlink:href="classcbrc_1_1WeightedPoint2D.html#a9e020ea23a4d774a35fe4d4eb50d4c0b" target="_top" xlink:title=" ">
<polygon fill="white" stroke="#666666" points="631.5,-89.5 504.5,-89.5 504.5,-59.5 631.5,-59.5 631.5,-89.5"/>
<text text-anchor="start" x="512.5" y="-77.5" font-family="Helvetica,sans-Serif" font-size="10.00">cbrc::WeightedPoint2D</text>
<text text-anchor="middle" x="568" y="-66.5" font-family="Helvetica,sans-Serif" font-size="10.00">::xLess</text>
</a>
</g>
</g>
<!-- Node12&#45;&gt;Node16 -->
<g id="edge20_Node000012_Node000016" class="edge">
<title>Node12&#45;&gt;Node16</title>
<g id="a_edge20_Node000012_Node000016"><a xlink:title=" ">
<path fill="none" stroke="#63b8ff" d="M369.47,-150.33C394.46,-135.39 434.76,-112.79 472,-98.5 479.2,-95.74 486.83,-93.2 494.52,-90.89"/>
<polygon fill="#63b8ff" stroke="#63b8ff" points="495.6,-94.22 504.25,-88.1 493.67,-87.49 495.6,-94.22"/>
</a>
</g>
</g>
<!-- Node13&#45;&gt;Node11 -->
<g id="edge13_Node000013_Node000011" class="edge">
<title>Node13&#45;&gt;Node11</title>
<g id="a_edge13_Node000013_Node000011"><a xlink:title=" ">
<path fill="none" stroke="#63b8ff" d="M867.05,-175.07C887.35,-180.59 908.65,-186.39 926.68,-191.3"/>
<polygon fill="#63b8ff" stroke="#63b8ff" points="925.77,-194.68 936.34,-193.93 927.61,-187.92 925.77,-194.68"/>
</a>
</g>
</g>
<!-- Node14&#45;&gt;Node11 -->
<g id="edge16_Node000014_Node000011" class="edge">
<title>Node14&#45;&gt;Node11</title>
<g id="a_edge16_Node000014_Node000011"><a xlink:title=" ">
<path fill="none" stroke="#63b8ff" d="M662.21,-41.06C726.49,-57.69 812.37,-84.92 881,-124.5 910.45,-141.49 939.1,-168.88 956.02,-186.53"/>
<polygon fill="#63b8ff" stroke="#63b8ff" points="953.53,-188.99 962.93,-193.89 958.63,-184.2 953.53,-188.99"/>
</a>
</g>
</g>
<!-- Node14&#45;&gt;Node13 -->
<g id="edge15_Node000014_Node000013" class="edge">
<title>Node14&#45;&gt;Node13</title>
<g id="a_edge15_Node000014_Node000013"><a xlink:title=" ">
<path fill="none" stroke="#63b8ff" d="M643.8,-41.06C650.78,-43.88 657.62,-47.02 664,-50.5 674.32,-56.13 724.13,-98.27 757.8,-127.15"/>
<polygon fill="#63b8ff" stroke="#63b8ff" points="755.7,-129.96 765.56,-133.82 760.26,-124.65 755.7,-129.96"/>
</a>
</g>
</g>
</g>
</svg>

<g id="navigator" transform="translate(0 0)" fill="#404254">
  <rect fill="#f2f5e9" fill-opacity="0.5" stroke="#606060" stroke-width=".5" x="0" y="0" width="60" height="60"/>
  <use id="zoomplus" xlink:href="#zoomPlus" x="17" y="9" onmousedown="handleZoom(evt,'in')"/>
  <use id="zoomminus" xlink:href="#zoomMin" x="42" y="9" onmousedown="handleZoom(evt,'out')"/>
  <use id="reset" xlink:href="#resetDef" x="30" y="36" onmousedown="handleReset()"/>
   <use id="arrowup" xlink:href="#arrowUp" x="0" y="0" onmousedown="handlePan(0,-1)"/>
  <use id="arrowright" xlink:href="#arrowRight" x="0" y="0" onmousedown="handlePan(1,0)"/>
  <use id="arrowdown" xlink:href="#arrowDown" x="0" y="0" onmousedown="handlePan(0,1)"/>
  <use id="arrowleft" xlink:href="#arrowLeft" x="0" y="0" onmousedown="handlePan(-1,0)"/>
</g>
<svg viewBox="0 0 15 15" width="100%" height="30px" preserveAspectRatio="xMaxYMin meet">
 <g id="arrow_out" transform="scale(0.3 0.3)">
  <a xlink:href="labeledBlastToOddsRatio_8cc_a3c04138a5bfe5d72780bb7e82a18e627_cgraph_org.svg" target="_base">
   <rect id="button" ry="5" rx="5" y="6" x="6" height="38" width="38"
        fill="#f2f5e9" fill-opacity="0.5" stroke="#606060" stroke-width="1.0"/>
   <path id="arrow"
     d="M 11.500037,31.436501 C 11.940474,20.09759 22.043105,11.32322 32.158766,21.979434 L 37.068811,17.246167 C 37.068811,17.246167 37.088388,32 37.088388,32 L 22.160133,31.978069 C 22.160133,31.978069 26.997745,27.140456 26.997745,27.140456 C 18.528582,18.264221 13.291696,25.230495 11.500037,31.436501 z"
     style="fill:#404040;"/>
  </a>
 </g>
</svg>

<style type='text/css'>
<![CDATA[
[data-mouse-over-selected='false'] { opacity: 0.7; }
[data-mouse-over-selected='true']  { opacity: 1.0; }
]]>
</style>
<script type="application/ecmascript"><![CDATA[
document.addEventListener('DOMContentLoaded', (event) => {
  highlightEdges();
  highlightAdjacentNodes();
});
]]></script>
</svg>
