<?xml version="1.0" encoding="UTF-8" standalone="no"?>
<!DOCTYPE svg PUBLIC "-//W3C//DTD SVG 1.1//EN"
 "http://www.w3.org/Graphics/SVG/1.1/DTD/svg11.dtd">
<!-- Generated by graphviz version 2.43.0 (0)
 -->
<!-- Title: ematch_src/utils/Matrix/Matrix.hh Pages: 1 -->
<svg width="327pt" height="170pt"
 viewBox="0.00 0.00 327.00 170.00" xmlns="http://www.w3.org/2000/svg" xmlns:xlink="http://www.w3.org/1999/xlink">
<g id="graph0" class="graph" transform="scale(1 1) rotate(0) translate(4 166)">
<title>ematch_src/utils/Matrix/Matrix.hh</title>
<!-- Node1 -->
<g id="Node000001" class="node">
<title>Node1</title>
<g id="a_Node000001"><a xlink:title=" ">
<polygon fill="#999999" stroke="#666666" points="225,-162 94,-162 94,-132 225,-132 225,-162"/>
<text text-anchor="start" x="102" y="-150" font-family="Helvetica,sans-Serif" font-size="10.00">ematch_src/utils/Matrix</text>
<text text-anchor="middle" x="159.5" y="-139" font-family="Helvetica,sans-Serif" font-size="10.00">/Matrix.hh</text>
</a>
</g>
</g>
<!-- Node2 -->
<g id="Node000002" class="node">
<title>Node2</title>
<g id="a_Node000002"><a xlink:href="MatrixAlgorithm_8hh.html" target="_top" xlink:title=" ">
<polygon fill="white" stroke="#666666" points="131,-96 0,-96 0,-66 131,-66 131,-96"/>
<text text-anchor="start" x="8" y="-84" font-family="Helvetica,sans-Serif" font-size="10.00">ematch_src/utils/Matrix</text>
<text text-anchor="middle" x="65.5" y="-73" font-family="Helvetica,sans-Serif" font-size="10.00">/MatrixAlgorithm.hh</text>
</a>
</g>
</g>
<!-- Node1&#45;&gt;Node2 -->
<g id="edge1_Node000001_Node000002" class="edge">
<title>Node1&#45;&gt;Node2</title>
<g id="a_edge1_Node000001_Node000002"><a xlink:title=" ">
<path fill="none" stroke="#63b8ff" d="M130.17,-126.03C115.94,-116.34 99.19,-104.94 86.3,-96.16"/>
<polygon fill="#63b8ff" stroke="#63b8ff" points="128.4,-129.06 138.64,-131.8 132.34,-123.28 128.4,-129.06"/>
</a>
</g>
</g>
<!-- Node3 -->
<g id="Node000003" class="node">
<title>Node3</title>
<g id="a_Node000003"><a xlink:href="testMatrixAlgorithm_8cc.html" target="_top" xlink:title=" ">
<polygon fill="white" stroke="#666666" points="189,-30 36,-30 36,0 189,0 189,-30"/>
<text text-anchor="start" x="44" y="-18" font-family="Helvetica,sans-Serif" font-size="10.00">ematch_src/utils/Matrix</text>
<text text-anchor="middle" x="112.5" y="-7" font-family="Helvetica,sans-Serif" font-size="10.00">/test/testMatrixAlgorithm.cc</text>
</a>
</g>
</g>
<!-- Node1&#45;&gt;Node3 -->
<g id="edge4_Node000001_Node000003" class="edge">
<title>Node1&#45;&gt;Node3</title>
<g id="a_edge4_Node000001_Node000003"><a xlink:title=" ">
<path fill="none" stroke="#63b8ff" d="M155.52,-121.56C152.45,-105.44 147.54,-84.05 140.5,-66 135.58,-53.39 127.99,-40.07 121.95,-30.35"/>
<polygon fill="#63b8ff" stroke="#63b8ff" points="152.14,-122.54 157.35,-131.77 159.03,-121.31 152.14,-122.54"/>
</a>
</g>
</g>
<!-- Node4 -->
<g id="Node000004" class="node">
<title>Node4</title>
<g id="a_Node000004"><a xlink:href="testMatrix_8cc.html" target="_top" xlink:title=" ">
<polygon fill="white" stroke="#666666" points="319,-96 188,-96 188,-66 319,-66 319,-96"/>
<text text-anchor="start" x="196" y="-84" font-family="Helvetica,sans-Serif" font-size="10.00">ematch_src/utils/Matrix</text>
<text text-anchor="middle" x="253.5" y="-73" font-family="Helvetica,sans-Serif" font-size="10.00">/test/testMatrix.cc</text>
</a>
</g>
</g>
<!-- Node1&#45;&gt;Node4 -->
<g id="edge3_Node000001_Node000004" class="edge">
<title>Node1&#45;&gt;Node4</title>
<g id="a_edge3_Node000001_Node000004"><a xlink:title=" ">
<path fill="none" stroke="#63b8ff" d="M188.83,-126.03C203.06,-116.34 219.81,-104.94 232.7,-96.16"/>
<polygon fill="#63b8ff" stroke="#63b8ff" points="186.66,-123.28 180.36,-131.8 190.6,-129.06 186.66,-123.28"/>
</a>
</g>
</g>
<!-- Node2&#45;&gt;Node3 -->
<g id="edge2_Node000002_Node000003" class="edge">
<title>Node2&#45;&gt;Node3</title>
<g id="a_edge2_Node000002_Node000003"><a xlink:title=" ">
<path fill="none" stroke="#63b8ff" d="M82,-57.53C88.69,-48.43 96.2,-38.19 102.1,-30.16"/>
<polygon fill="#63b8ff" stroke="#63b8ff" points="79.03,-55.66 75.93,-65.8 84.67,-59.81 79.03,-55.66"/>
</a>
</g>
</g>
</g>
</svg>
