<?xml version="1.0" encoding="UTF-8" standalone="no"?>
<!DOCTYPE svg PUBLIC "-//W3C//DTD SVG 1.1//EN"
 "http://www.w3.org/Graphics/SVG/1.1/DTD/svg11.dtd">
<!-- Generated by graphviz version 2.43.0 (0)
 -->
<!-- Title: ematch_src/utils/sys/meminfo.cc Pages: 1 -->
<!--zoomable 203 -->

<svg id="main" version="1.1" xmlns="http://www.w3.org/2000/svg" xmlns:xlink="http://www.w3.org/1999/xlink" xml:space="preserve" onload="init(evt)">
<style type="text/css"><![CDATA[
.node, .edge {opacity: 0.7;}
.node.selected, .edge.selected {opacity: 1;}
.edge:hover path { stroke: red; }
.edge:hover polygon { stroke: red; fill: red; }
]]></style>

<defs>
  <circle id="rim" cx="0" cy="0" r="7"/>
  <circle id="rim2" cx="0" cy="0" r="3.5"/>
  <g id="zoomPlus">
    <use xlink:href="#rim" fill="#404040"><set attributeName="fill" to="#808080" begin="zoomplus.mouseover" end="zoomplus.mouseout"/></use>
    <path d="M-4,0h8M0,-4v8" fill="none" stroke="white" stroke-width="1.5" pointer-events="none"/>
  </g>
  <g id="zoomMin">
    <use xlink:href="#rim" fill="#404040"><set attributeName="fill" to="#808080" begin="zoomminus.mouseover" end="zoomminus.mouseout"/></use>
    <path d="M-4,0h8" fill="none" stroke="white" stroke-width="1.5" pointer-events="none"/>
  </g>
  <g id="arrowUp" transform="translate(30 24)">
    <use xlink:href="#rim"/>
    <path pointer-events="none" fill="none" stroke="white" stroke-width="1.5" d="M0,-3.0v7 M-2.5,-0.5L0,-3.0L2.5,-0.5"/>
  </g>
  <g id="arrowRight" transform="rotate(90) translate(36 -43)">
    <use xlink:href="#rim"/>
    <path pointer-events="none" fill="none" stroke="white" stroke-width="1.5" d="M0,-3.0v7 M-2.5,-0.5L0,-3.0L2.5,-0.5"/>
  </g>
  <g id="arrowDown" transform="rotate(180) translate(-30 -48)">
    <use xlink:href="#rim"/>
    <path pointer-events="none" fill="none" stroke="white" stroke-width="1.5" d="M0,-3.0v7 M-2.5,-0.5L0,-3.0L2.5,-0.5"/>
  </g>
  <g id="arrowLeft" transform="rotate(270) translate(-36 17)">
    <use xlink:href="#rim"/>
    <path pointer-events="none" fill="none" stroke="white" stroke-width="1.5" d="M0,-3.0v7 M-2.5,-0.5L0,-3.0L2.5,-0.5"/>
  </g>
  <g id="resetDef">
    <use xlink:href="#rim2" fill="#404040"><set attributeName="fill" to="#808080" begin="reset.mouseover" end="reset.mouseout"/></use>
  </g>
</defs>
<script type="application/ecmascript">
var viewWidth = 1001;
var viewHeight = 203;
var sectionId = 'dynsection-0';
</script>
<script type="application/ecmascript" xlink:href="svg.min.js"/>
<svg id="graph" class="graph">
<g id="viewport">
<title>ematch_src/utils/sys/meminfo.cc</title>
<!-- Node1 -->
<g id="Node000001" class="node">
<title>Node1</title>
<g id="a_Node000001"><a xlink:title=" ">
<polygon fill="#999999" stroke="#666666" points="478.5,-195 362.5,-195 362.5,-165 478.5,-165 478.5,-195"/>
<text text-anchor="start" x="370.5" y="-183" font-family="Helvetica,sans-Serif" font-size="10.00">ematch_src/utils/sys</text>
<text text-anchor="middle" x="420.5" y="-172" font-family="Helvetica,sans-Serif" font-size="10.00">/meminfo.cc</text>
</a>
</g>
</g>
<!-- Node2 -->
<g id="Node000002" class="node">
<title>Node2</title>
<g id="a_Node000002"><a xlink:title=" ">
<polygon fill="#e0e0e0" stroke="#999999" points="137.5,-19 93.5,-19 93.5,0 137.5,0 137.5,-19"/>
<text text-anchor="middle" x="115.5" y="-7" font-family="Helvetica,sans-Serif" font-size="10.00">string</text>
</a>
</g>
</g>
<!-- Node1&#45;&gt;Node2 -->
<g id="edge1_Node000001_Node000002" class="edge">
<title>Node1&#45;&gt;Node2</title>
<g id="a_edge1_Node000001_Node000002"><a xlink:title=" ">
<path fill="none" stroke="#63b8ff" d="M362.33,-171C268.14,-156.73 88.98,-123.63 51.5,-74 37.08,-54.9 62.72,-35.96 85.72,-23.8"/>
<polygon fill="#63b8ff" stroke="#63b8ff" points="87.58,-26.78 94.96,-19.18 84.45,-20.52 87.58,-26.78"/>
</a>
</g>
</g>
<!-- Node3 -->
<g id="Node000003" class="node">
<title>Node3</title>
<g id="a_Node000003"><a xlink:href="ematch__src_2utils_2perlish_2perlish_8hh.html" target="_top" xlink:title=" ">
<polygon fill="white" stroke="#666666" points="483,-129 358,-129 358,-110 483,-110 483,-129"/>
<text text-anchor="middle" x="420.5" y="-117" font-family="Helvetica,sans-Serif" font-size="10.00">utils/perlish/perlish.hh</text>
</a>
</g>
</g>
<!-- Node1&#45;&gt;Node3 -->
<g id="edge2_Node000001_Node000003" class="edge">
<title>Node1&#45;&gt;Node3</title>
<g id="a_edge2_Node000001_Node000003"><a xlink:title=" ">
<path fill="none" stroke="#63b8ff" d="M420.5,-164.84C420.5,-157.21 420.5,-147.7 420.5,-139.45"/>
<polygon fill="#63b8ff" stroke="#63b8ff" points="424,-139.27 420.5,-129.27 417,-139.27 424,-139.27"/>
</a>
</g>
</g>
<!-- Node18 -->
<g id="Node000018" class="node">
<title>Node18</title>
<g id="a_Node000018"><a xlink:href="meminfo_8hh.html" target="_top" xlink:title=" ">
<polygon fill="white" stroke="#666666" points="687.5,-129 611.5,-129 611.5,-110 687.5,-110 687.5,-129"/>
<text text-anchor="middle" x="649.5" y="-117" font-family="Helvetica,sans-Serif" font-size="10.00">meminfo.hh</text>
</a>
</g>
</g>
<!-- Node1&#45;&gt;Node18 -->
<g id="edge23_Node000001_Node000018" class="edge">
<title>Node1&#45;&gt;Node18</title>
<g id="a_edge23_Node000001_Node000018"><a xlink:title=" ">
<path fill="none" stroke="#63b8ff" d="M475.35,-164.99C515.39,-154.76 568.92,-141.09 606.01,-131.61"/>
<polygon fill="#63b8ff" stroke="#63b8ff" points="607.19,-134.92 616.02,-129.05 605.46,-128.14 607.19,-134.92"/>
</a>
</g>
</g>
<!-- Node3&#45;&gt;Node2 -->
<g id="edge7_Node000003_Node000002" class="edge">
<title>Node3&#45;&gt;Node2</title>
<g id="a_edge7_Node000003_Node000002"><a xlink:title=" ">
<path fill="none" stroke="#63b8ff" d="M420.62,-109.56C420.29,-95.63 417.46,-68.92 401.5,-55 364.19,-22.46 214.9,-13.65 148.1,-11.32"/>
<polygon fill="#63b8ff" stroke="#63b8ff" points="147.85,-7.81 137.74,-10.98 147.62,-14.8 147.85,-7.81"/>
</a>
</g>
</g>
<!-- Node4 -->
<g id="Node000004" class="node">
<title>Node4</title>
<g id="a_Node000004"><a xlink:title=" ">
<polygon fill="#e0e0e0" stroke="#999999" points="732,-74 679,-74 679,-55 732,-55 732,-74"/>
<text text-anchor="middle" x="705.5" y="-62" font-family="Helvetica,sans-Serif" font-size="10.00">ctype.h</text>
</a>
</g>
</g>
<!-- Node3&#45;&gt;Node4 -->
<g id="edge3_Node000003_Node000004" class="edge">
<title>Node3&#45;&gt;Node4</title>
<g id="a_edge3_Node000003_Node000004"><a xlink:title=" ">
<path fill="none" stroke="#63b8ff" d="M469.17,-109.98C518.47,-101.26 596.88,-87.17 664.5,-74 665.78,-73.75 667.09,-73.49 668.41,-73.23"/>
<polygon fill="#63b8ff" stroke="#63b8ff" points="669.5,-76.58 678.61,-71.17 668.12,-69.72 669.5,-76.58"/>
</a>
</g>
</g>
<!-- Node5 -->
<g id="Node000005" class="node">
<title>Node5</title>
<g id="a_Node000005"><a xlink:title=" ">
<polygon fill="#e0e0e0" stroke="#999999" points="693.5,-19 633.5,-19 633.5,0 693.5,0 693.5,-19"/>
<text text-anchor="middle" x="663.5" y="-7" font-family="Helvetica,sans-Serif" font-size="10.00">iostream</text>
</a>
</g>
</g>
<!-- Node3&#45;&gt;Node5 -->
<g id="edge4_Node000003_Node000005" class="edge">
<title>Node3&#45;&gt;Node5</title>
<g id="a_edge4_Node000003_Node000005"><a xlink:title=" ">
<path fill="none" stroke="#63b8ff" d="M483.16,-111.34C536.71,-104.15 608.62,-91.61 631.5,-74 646,-62.84 654.44,-43.32 658.97,-28.86"/>
<polygon fill="#63b8ff" stroke="#63b8ff" points="662.4,-29.58 661.71,-19.01 655.66,-27.7 662.4,-29.58"/>
</a>
</g>
</g>
<!-- Node6 -->
<g id="Node000006" class="node">
<title>Node6</title>
<g id="a_Node000006"><a xlink:title=" ">
<polygon fill="#e0e0e0" stroke="#999999" points="244,-74 189,-74 189,-55 244,-55 244,-74"/>
<text text-anchor="middle" x="216.5" y="-62" font-family="Helvetica,sans-Serif" font-size="10.00">fstream</text>
</a>
</g>
</g>
<!-- Node3&#45;&gt;Node6 -->
<g id="edge5_Node000003_Node000006" class="edge">
<title>Node3&#45;&gt;Node6</title>
<g id="a_edge5_Node000003_Node000006"><a xlink:title=" ">
<path fill="none" stroke="#63b8ff" d="M387.72,-109.98C351.23,-100.5 292.34,-85.2 254.03,-75.25"/>
<polygon fill="#63b8ff" stroke="#63b8ff" points="254.84,-71.84 244.28,-72.72 253.08,-78.62 254.84,-71.84"/>
</a>
</g>
</g>
<!-- Node7 -->
<g id="Node000007" class="node">
<title>Node7</title>
<g id="a_Node000007"><a xlink:title=" ">
<polygon fill="#e0e0e0" stroke="#999999" points="318.5,-74 262.5,-74 262.5,-55 318.5,-55 318.5,-74"/>
<text text-anchor="middle" x="290.5" y="-62" font-family="Helvetica,sans-Serif" font-size="10.00">sstream</text>
</a>
</g>
</g>
<!-- Node3&#45;&gt;Node7 -->
<g id="edge6_Node000003_Node000007" class="edge">
<title>Node3&#45;&gt;Node7</title>
<g id="a_edge6_Node000003_Node000007"><a xlink:title=" ">
<path fill="none" stroke="#63b8ff" d="M399.61,-109.98C378.42,-101.34 345.37,-87.87 321.2,-78.02"/>
<polygon fill="#63b8ff" stroke="#63b8ff" points="322.35,-74.7 311.77,-74.17 319.71,-81.19 322.35,-74.7"/>
</a>
</g>
</g>
<!-- Node8 -->
<g id="Node000008" class="node">
<title>Node8</title>
<g id="a_Node000008"><a xlink:title=" ">
<polygon fill="#e0e0e0" stroke="#999999" points="47,-19 0,-19 0,0 47,0 47,-19"/>
<text text-anchor="middle" x="23.5" y="-7" font-family="Helvetica,sans-Serif" font-size="10.00">vector</text>
</a>
</g>
</g>
<!-- Node3&#45;&gt;Node8 -->
<g id="edge8_Node000003_Node000008" class="edge">
<title>Node3&#45;&gt;Node8</title>
<g id="a_edge8_Node000003_Node000008"><a xlink:title=" ">
<path fill="none" stroke="#63b8ff" d="M357.65,-118.26C265.28,-116.7 98.68,-108.96 51.5,-74 37.15,-63.37 30.03,-43.76 26.58,-29.14"/>
<polygon fill="#63b8ff" stroke="#63b8ff" points="29.98,-28.28 24.6,-19.15 23.11,-29.64 29.98,-28.28"/>
</a>
</g>
</g>
<!-- Node9 -->
<g id="Node000009" class="node">
<title>Node9</title>
<g id="a_Node000009"><a xlink:title=" ">
<polygon fill="#e0e0e0" stroke="#999999" points="392.5,-74 336.5,-74 336.5,-55 392.5,-55 392.5,-74"/>
<text text-anchor="middle" x="364.5" y="-62" font-family="Helvetica,sans-Serif" font-size="10.00">assert.h</text>
</a>
</g>
</g>
<!-- Node3&#45;&gt;Node9 -->
<g id="edge9_Node000003_Node000009" class="edge">
<title>Node3&#45;&gt;Node9</title>
<g id="a_edge9_Node000003_Node000009"><a xlink:title=" ">
<path fill="none" stroke="#63b8ff" d="M411.5,-109.98C403.31,-102.23 390.99,-90.58 381.03,-81.14"/>
<polygon fill="#63b8ff" stroke="#63b8ff" points="383.33,-78.5 373.66,-74.17 378.52,-83.59 383.33,-78.5"/>
</a>
</g>
</g>
<!-- Node10 -->
<g id="Node000010" class="node">
<title>Node10</title>
<g id="a_Node000010"><a xlink:title=" ">
<polygon fill="#e0e0e0" stroke="#999999" points="554,-19 459,-19 459,0 554,0 554,-19"/>
<text text-anchor="middle" x="506.5" y="-7" font-family="Helvetica,sans-Serif" font-size="10.00">boost/regex.hpp</text>
</a>
</g>
</g>
<!-- Node3&#45;&gt;Node10 -->
<g id="edge10_Node000003_Node000010" class="edge">
<title>Node3&#45;&gt;Node10</title>
<g id="a_edge10_Node000003_Node000010"><a xlink:title=" ">
<path fill="none" stroke="#63b8ff" d="M427.54,-109.66C441.91,-91.61 474.83,-50.28 493.3,-27.08"/>
<polygon fill="#63b8ff" stroke="#63b8ff" points="496.11,-29.16 499.61,-19.16 490.64,-24.8 496.11,-29.16"/>
</a>
</g>
</g>
<!-- Node11 -->
<g id="Node000011" class="node">
<title>Node11</title>
<g id="a_Node000011"><a xlink:href="ematch__src_2utils_2gdb_2gdbUtils_8hh.html" target="_top" xlink:title=" ">
<polygon fill="white" stroke="#666666" points="906,-74 789,-74 789,-55 906,-55 906,-74"/>
<text text-anchor="middle" x="847.5" y="-62" font-family="Helvetica,sans-Serif" font-size="10.00">utils/gdb/gdbUtils.hh</text>
</a>
</g>
</g>
<!-- Node3&#45;&gt;Node11 -->
<g id="edge11_Node000003_Node000011" class="edge">
<title>Node3&#45;&gt;Node11</title>
<g id="a_edge11_Node000003_Node000011"><a xlink:title=" ">
<path fill="none" stroke="#63b8ff" d="M483.05,-110.74C561.91,-100.95 697.03,-84.18 778.73,-74.04"/>
<polygon fill="#63b8ff" stroke="#63b8ff" points="779.41,-77.48 788.91,-72.77 778.55,-70.53 779.41,-77.48"/>
</a>
</g>
</g>
<!-- Node16 -->
<g id="Node000016" class="node">
<title>Node16</title>
<g id="a_Node000016"><a xlink:href="ematch__src_2utils_2stl_2stlTypes_8hh.html" target="_top" xlink:title=" ">
<polygon fill="white" stroke="#666666" points="170.5,-74 60.5,-74 60.5,-55 170.5,-55 170.5,-74"/>
<text text-anchor="middle" x="115.5" y="-62" font-family="Helvetica,sans-Serif" font-size="10.00">utils/stl/stlTypes.hh</text>
</a>
</g>
</g>
<!-- Node3&#45;&gt;Node16 -->
<g id="edge17_Node000003_Node000016" class="edge">
<title>Node3&#45;&gt;Node16</title>
<g id="a_edge17_Node000003_Node000016"><a xlink:title=" ">
<path fill="none" stroke="#63b8ff" d="M371.5,-109.98C317.88,-100.67 231.96,-85.74 174.64,-75.78"/>
<polygon fill="#63b8ff" stroke="#63b8ff" points="175.09,-72.3 164.63,-74.04 173.89,-79.2 175.09,-72.3"/>
</a>
</g>
</g>
<!-- Node17 -->
<g id="Node000017" class="node">
<title>Node17</title>
<g id="a_Node000017"><a xlink:href="ematch__src_2utils_2boost_2boostUtils_8hh.html" target="_top" xlink:title=" ">
<polygon fill="white" stroke="#666666" points="622,-74 487,-74 487,-55 622,-55 622,-74"/>
<text text-anchor="middle" x="554.5" y="-62" font-family="Helvetica,sans-Serif" font-size="10.00">utils/boost/boostUtils.hh</text>
</a>
</g>
</g>
<!-- Node3&#45;&gt;Node17 -->
<g id="edge20_Node000003_Node000017" class="edge">
<title>Node3&#45;&gt;Node17</title>
<g id="a_edge20_Node000003_Node000017"><a xlink:title=" ">
<path fill="none" stroke="#63b8ff" d="M442.03,-109.98C463.97,-101.3 498.24,-87.75 523.19,-77.88"/>
<polygon fill="#63b8ff" stroke="#63b8ff" points="524.57,-81.1 532.58,-74.17 521.99,-74.59 524.57,-81.1"/>
</a>
</g>
</g>
<!-- Node11&#45;&gt;Node5 -->
<g id="edge13_Node000011_Node000005" class="edge">
<title>Node11&#45;&gt;Node5</title>
<g id="a_edge13_Node000011_Node000005"><a xlink:title=" ">
<path fill="none" stroke="#63b8ff" d="M817.94,-54.98C786.78,-46.01 737.53,-31.82 703.04,-21.89"/>
<polygon fill="#63b8ff" stroke="#63b8ff" points="703.87,-18.49 693.29,-19.08 701.93,-25.21 703.87,-18.49"/>
</a>
</g>
</g>
<!-- Node12 -->
<g id="Node000012" class="node">
<title>Node12</title>
<g id="a_Node000012"><a xlink:title=" ">
<polygon fill="#e0e0e0" stroke="#999999" points="791,-19 738,-19 738,0 791,0 791,-19"/>
<text text-anchor="middle" x="764.5" y="-7" font-family="Helvetica,sans-Serif" font-size="10.00">cstdarg</text>
</a>
</g>
</g>
<!-- Node11&#45;&gt;Node12 -->
<g id="edge12_Node000011_Node000012" class="edge">
<title>Node11&#45;&gt;Node12</title>
<g id="a_edge12_Node000011_Node000012"><a xlink:title=" ">
<path fill="none" stroke="#63b8ff" d="M834.16,-54.98C821.41,-46.84 801.95,-34.41 786.83,-24.76"/>
<polygon fill="#63b8ff" stroke="#63b8ff" points="788.39,-21.6 778.08,-19.17 784.62,-27.5 788.39,-21.6"/>
</a>
</g>
</g>
<!-- Node13 -->
<g id="Node000013" class="node">
<title>Node13</title>
<g id="a_Node000013"><a xlink:title=" ">
<polygon fill="#e0e0e0" stroke="#999999" points="858,-19 809,-19 809,0 858,0 858,-19"/>
<text text-anchor="middle" x="833.5" y="-7" font-family="Helvetica,sans-Serif" font-size="10.00">cstdlib</text>
</a>
</g>
</g>
<!-- Node11&#45;&gt;Node13 -->
<g id="edge14_Node000011_Node000013" class="edge">
<title>Node11&#45;&gt;Node13</title>
<g id="a_edge14_Node000011_Node000013"><a xlink:title=" ">
<path fill="none" stroke="#63b8ff" d="M845.19,-54.75C843.33,-47.72 840.66,-37.62 838.35,-28.84"/>
<polygon fill="#63b8ff" stroke="#63b8ff" points="841.71,-27.86 835.77,-19.09 834.94,-29.65 841.71,-27.86"/>
</a>
</g>
</g>
<!-- Node14 -->
<g id="Node000014" class="node">
<title>Node14</title>
<g id="a_Node000014"><a xlink:title=" ">
<polygon fill="#e0e0e0" stroke="#999999" points="922.5,-19 876.5,-19 876.5,0 922.5,0 922.5,-19"/>
<text text-anchor="middle" x="899.5" y="-7" font-family="Helvetica,sans-Serif" font-size="10.00">cstdio</text>
</a>
</g>
</g>
<!-- Node11&#45;&gt;Node14 -->
<g id="edge15_Node000011_Node000014" class="edge">
<title>Node11&#45;&gt;Node14</title>
<g id="a_edge15_Node000011_Node000014"><a xlink:title=" ">
<path fill="none" stroke="#63b8ff" d="M856.09,-54.75C863.66,-47.03 874.88,-35.6 884.01,-26.28"/>
<polygon fill="#63b8ff" stroke="#63b8ff" points="886.57,-28.68 891.07,-19.09 881.57,-23.78 886.57,-28.68"/>
</a>
</g>
</g>
<!-- Node15 -->
<g id="Node000015" class="node">
<title>Node15</title>
<g id="a_Node000015"><a xlink:title=" ">
<polygon fill="#e0e0e0" stroke="#999999" points="992.5,-19 940.5,-19 940.5,0 992.5,0 992.5,-19"/>
<text text-anchor="middle" x="966.5" y="-7" font-family="Helvetica,sans-Serif" font-size="10.00">cassert</text>
</a>
</g>
</g>
<!-- Node11&#45;&gt;Node15 -->
<g id="edge16_Node000011_Node000015" class="edge">
<title>Node11&#45;&gt;Node15</title>
<g id="a_edge16_Node000011_Node000015"><a xlink:title=" ">
<path fill="none" stroke="#63b8ff" d="M866.62,-54.98C885.85,-46.42 915.73,-33.11 937.81,-23.28"/>
<polygon fill="#63b8ff" stroke="#63b8ff" points="939.32,-26.44 947.03,-19.17 936.47,-20.04 939.32,-26.44"/>
</a>
</g>
</g>
<!-- Node16&#45;&gt;Node2 -->
<g id="edge18_Node000016_Node000002" class="edge">
<title>Node16&#45;&gt;Node2</title>
<g id="a_edge18_Node000016_Node000002"><a xlink:title=" ">
<path fill="none" stroke="#63b8ff" d="M115.5,-54.75C115.5,-47.8 115.5,-37.85 115.5,-29.13"/>
<polygon fill="#63b8ff" stroke="#63b8ff" points="119,-29.09 115.5,-19.09 112,-29.09 119,-29.09"/>
</a>
</g>
</g>
<!-- Node16&#45;&gt;Node8 -->
<g id="edge19_Node000016_Node000008" class="edge">
<title>Node16&#45;&gt;Node8</title>
<g id="a_edge19_Node000016_Node000008"><a xlink:title=" ">
<path fill="none" stroke="#63b8ff" d="M100.72,-54.98C86.32,-46.69 64.19,-33.94 47.31,-24.22"/>
<polygon fill="#63b8ff" stroke="#63b8ff" points="48.96,-21.13 38.55,-19.17 45.47,-27.19 48.96,-21.13"/>
</a>
</g>
</g>
<!-- Node17&#45;&gt;Node5 -->
<g id="edge21_Node000017_Node000005" class="edge">
<title>Node17&#45;&gt;Node5</title>
<g id="a_edge21_Node000017_Node000005"><a xlink:title=" ">
<path fill="none" stroke="#63b8ff" d="M572.01,-54.98C589.47,-46.5 616.51,-33.35 636.67,-23.54"/>
<polygon fill="#63b8ff" stroke="#63b8ff" points="638.21,-26.69 645.67,-19.17 635.14,-20.4 638.21,-26.69"/>
</a>
</g>
</g>
<!-- Node17&#45;&gt;Node10 -->
<g id="edge22_Node000017_Node000010" class="edge">
<title>Node17&#45;&gt;Node10</title>
<g id="a_edge22_Node000017_Node000010"><a xlink:title=" ">
<path fill="none" stroke="#63b8ff" d="M546.57,-54.75C539.65,-47.11 529.43,-35.82 521.05,-26.56"/>
<polygon fill="#63b8ff" stroke="#63b8ff" points="523.59,-24.15 514.28,-19.09 518.4,-28.85 523.59,-24.15"/>
</a>
</g>
</g>
<!-- Node18&#45;&gt;Node5 -->
<g id="edge24_Node000018_Node000005" class="edge">
<title>Node18&#45;&gt;Node5</title>
<g id="a_edge24_Node000018_Node000005"><a xlink:title=" ">
<path fill="none" stroke="#63b8ff" d="M687.86,-110.23C707.51,-103.84 729.72,-92.79 741.5,-74 755.38,-51.87 726.39,-33.91 699.9,-22.82"/>
<polygon fill="#63b8ff" stroke="#63b8ff" points="700.93,-19.46 690.34,-19.04 698.36,-25.97 700.93,-19.46"/>
</a>
</g>
</g>
</g>
</svg>

<g id="navigator" transform="translate(0 0)" fill="#404254">
  <rect fill="#f2f5e9" fill-opacity="0.5" stroke="#606060" stroke-width=".5" x="0" y="0" width="60" height="60"/>
  <use id="zoomplus" xlink:href="#zoomPlus" x="17" y="9" onmousedown="handleZoom(evt,'in')"/>
  <use id="zoomminus" xlink:href="#zoomMin" x="42" y="9" onmousedown="handleZoom(evt,'out')"/>
  <use id="reset" xlink:href="#resetDef" x="30" y="36" onmousedown="handleReset()"/>
   <use id="arrowup" xlink:href="#arrowUp" x="0" y="0" onmousedown="handlePan(0,-1)"/>
  <use id="arrowright" xlink:href="#arrowRight" x="0" y="0" onmousedown="handlePan(1,0)"/>
  <use id="arrowdown" xlink:href="#arrowDown" x="0" y="0" onmousedown="handlePan(0,1)"/>
  <use id="arrowleft" xlink:href="#arrowLeft" x="0" y="0" onmousedown="handlePan(-1,0)"/>
</g>
<svg viewBox="0 0 15 15" width="100%" height="30px" preserveAspectRatio="xMaxYMin meet">
 <g id="arrow_out" transform="scale(0.3 0.3)">
  <a xlink:href="meminfo_8cc__incl_org.svg" target="_base">
   <rect id="button" ry="5" rx="5" y="6" x="6" height="38" width="38"
        fill="#f2f5e9" fill-opacity="0.5" stroke="#606060" stroke-width="1.0"/>
   <path id="arrow"
     d="M 11.500037,31.436501 C 11.940474,20.09759 22.043105,11.32322 32.158766,21.979434 L 37.068811,17.246167 C 37.068811,17.246167 37.088388,32 37.088388,32 L 22.160133,31.978069 C 22.160133,31.978069 26.997745,27.140456 26.997745,27.140456 C 18.528582,18.264221 13.291696,25.230495 11.500037,31.436501 z"
     style="fill:#404040;"/>
  </a>
 </g>
</svg>

<style type='text/css'>
<![CDATA[
[data-mouse-over-selected='false'] { opacity: 0.7; }
[data-mouse-over-selected='true']  { opacity: 1.0; }
]]>
</style>
<script type="application/ecmascript"><![CDATA[
document.addEventListener('DOMContentLoaded', (event) => {
  highlightEdges();
  highlightAdjacentNodes();
});
]]></script>
</svg>
