<?xml version="1.0" encoding="UTF-8" standalone="no"?>
<!DOCTYPE svg PUBLIC "-//W3C//DTD SVG 1.1//EN"
 "http://www.w3.org/Graphics/SVG/1.1/DTD/svg11.dtd">
<!-- Generated by graphviz version 2.43.0 (0)
 -->
<!-- Title: ematch_src/utils/math/moreNumericLimits.hh Pages: 1 -->
<svg width="704pt" height="313pt"
 viewBox="0.00 0.00 704.00 313.00" xmlns="http://www.w3.org/2000/svg" xmlns:xlink="http://www.w3.org/1999/xlink">
<g id="graph0" class="graph" transform="scale(1 1) rotate(0) translate(4 309)">
<title>ematch_src/utils/math/moreNumericLimits.hh</title>
<!-- Node1 -->
<g id="Node000001" class="node">
<title>Node1</title>
<g id="a_Node000001"><a xlink:title=" ">
<polygon fill="#999999" stroke="#666666" points="584.5,-305 453.5,-305 453.5,-275 584.5,-275 584.5,-305"/>
<text text-anchor="start" x="461.5" y="-293" font-family="Helvetica,sans-Serif" font-size="10.00">ematch_src/utils/math</text>
<text text-anchor="middle" x="519" y="-282" font-family="Helvetica,sans-Serif" font-size="10.00">/moreNumericLimits.hh</text>
</a>
</g>
</g>
<!-- Node2 -->
<g id="Node000002" class="node">
<title>Node2</title>
<g id="a_Node000002"><a xlink:href="Point2D_8hh.html" target="_top" xlink:title=" ">
<polygon fill="white" stroke="#666666" points="541.5,-239 394.5,-239 394.5,-209 541.5,-209 541.5,-239"/>
<text text-anchor="start" x="402.5" y="-227" font-family="Helvetica,sans-Serif" font-size="10.00">ematch_src/utils/geometry</text>
<text text-anchor="middle" x="468" y="-216" font-family="Helvetica,sans-Serif" font-size="10.00">/Point2D.hh</text>
</a>
</g>
</g>
<!-- Node1&#45;&gt;Node2 -->
<g id="edge1_Node000001_Node000002" class="edge">
<title>Node1&#45;&gt;Node2</title>
<g id="a_edge1_Node000001_Node000002"><a xlink:title=" ">
<path fill="none" stroke="#63b8ff" d="M501.32,-266.81C494.01,-257.64 485.75,-247.28 479.29,-239.16"/>
<polygon fill="#63b8ff" stroke="#63b8ff" points="498.71,-269.16 507.68,-274.8 504.19,-264.79 498.71,-269.16"/>
</a>
</g>
</g>
<!-- Node8 -->
<g id="Node000008" class="node">
<title>Node8</title>
<g id="a_Node000008"><a xlink:href="labeledBlastToOddsRatio_8cc.html" target="_top" xlink:title=" ">
<polygon fill="white" stroke="#666666" points="696,-41 522,-41 522,0 696,0 696,-41"/>
<text text-anchor="start" x="530" y="-29" font-family="Helvetica,sans-Serif" font-size="10.00">ematch_src/utils/sequence</text>
<text text-anchor="start" x="530" y="-18" font-family="Helvetica,sans-Serif" font-size="10.00">/readers/run/labeledBlastToOdds</text>
<text text-anchor="middle" x="609" y="-7" font-family="Helvetica,sans-Serif" font-size="10.00">Ratio.cc</text>
</a>
</g>
</g>
<!-- Node1&#45;&gt;Node8 -->
<g id="edge8_Node000001_Node000008" class="edge">
<title>Node1&#45;&gt;Node8</title>
<g id="a_edge8_Node000001_Node000008"><a xlink:title=" ">
<path fill="none" stroke="#63b8ff" d="M534.99,-266.33C540.32,-258.02 545.93,-248.36 550,-239 580.33,-169.21 598.63,-79.92 605.67,-41.04"/>
<polygon fill="#63b8ff" stroke="#63b8ff" points="532.02,-264.47 529.4,-274.74 537.85,-268.35 532.02,-264.47"/>
</a>
</g>
</g>
<!-- Node3 -->
<g id="Node000003" class="node">
<title>Node3</title>
<g id="a_Node000003"><a xlink:href="WeightedPoint2D_8hh.html" target="_top" xlink:title=" ">
<polygon fill="white" stroke="#666666" points="541.5,-173 394.5,-173 394.5,-143 541.5,-143 541.5,-173"/>
<text text-anchor="start" x="402.5" y="-161" font-family="Helvetica,sans-Serif" font-size="10.00">ematch_src/utils/geometry</text>
<text text-anchor="middle" x="468" y="-150" font-family="Helvetica,sans-Serif" font-size="10.00">/WeightedPoint2D.hh</text>
</a>
</g>
</g>
<!-- Node2&#45;&gt;Node3 -->
<g id="edge2_Node000002_Node000003" class="edge">
<title>Node2&#45;&gt;Node3</title>
<g id="a_edge2_Node000002_Node000003"><a xlink:title=" ">
<path fill="none" stroke="#63b8ff" d="M468,-198.54C468,-189.96 468,-180.61 468,-173.16"/>
<polygon fill="#63b8ff" stroke="#63b8ff" points="464.5,-198.8 468,-208.8 471.5,-198.8 464.5,-198.8"/>
</a>
</g>
</g>
<!-- Node4 -->
<g id="Node000004" class="node">
<title>Node4</title>
<g id="a_Node000004"><a xlink:href="smoothing_8hh.html" target="_top" xlink:title=" ">
<polygon fill="white" stroke="#666666" points="503.5,-107 356.5,-107 356.5,-77 503.5,-77 503.5,-107"/>
<text text-anchor="start" x="364.5" y="-95" font-family="Helvetica,sans-Serif" font-size="10.00">ematch_src/utils/geometry</text>
<text text-anchor="middle" x="430" y="-84" font-family="Helvetica,sans-Serif" font-size="10.00">/smoothing.hh</text>
</a>
</g>
</g>
<!-- Node3&#45;&gt;Node4 -->
<g id="edge3_Node000003_Node000004" class="edge">
<title>Node3&#45;&gt;Node4</title>
<g id="a_edge3_Node000003_Node000004"><a xlink:title=" ">
<path fill="none" stroke="#63b8ff" d="M454.32,-133.96C449,-125 443.08,-115.03 438.41,-107.16"/>
<polygon fill="#63b8ff" stroke="#63b8ff" points="451.45,-135.98 459.57,-142.8 457.47,-132.41 451.45,-135.98"/>
</a>
</g>
</g>
<!-- Node5 -->
<g id="Node000005" class="node">
<title>Node5</title>
<g id="a_Node000005"><a xlink:href="smoothMinSampleSize_8cc.html" target="_top" xlink:title=" ">
<polygon fill="white" stroke="#666666" points="164,-35.5 0,-35.5 0,-5.5 164,-5.5 164,-35.5"/>
<text text-anchor="start" x="8" y="-23.5" font-family="Helvetica,sans-Serif" font-size="10.00">ematch_src/utils/geometry</text>
<text text-anchor="middle" x="82" y="-12.5" font-family="Helvetica,sans-Serif" font-size="10.00">/run/smoothMinSampleSize.cc</text>
</a>
</g>
</g>
<!-- Node4&#45;&gt;Node5 -->
<g id="edge4_Node000004_Node000005" class="edge">
<title>Node4&#45;&gt;Node5</title>
<g id="a_edge4_Node000004_Node000005"><a xlink:title=" ">
<path fill="none" stroke="#63b8ff" d="M346.4,-75.15C296.11,-65.51 230.82,-52.82 173,-41 164.61,-39.29 155.79,-37.44 147.09,-35.6"/>
<polygon fill="#63b8ff" stroke="#63b8ff" points="345.78,-78.59 356.26,-77.04 347.09,-71.72 345.78,-78.59"/>
</a>
</g>
</g>
<!-- Node6 -->
<g id="Node000006" class="node">
<title>Node6</title>
<g id="a_Node000006"><a xlink:href="smoothMonotonically_8cc.html" target="_top" xlink:title=" ">
<polygon fill="white" stroke="#666666" points="338,-35.5 182,-35.5 182,-5.5 338,-5.5 338,-35.5"/>
<text text-anchor="start" x="190" y="-23.5" font-family="Helvetica,sans-Serif" font-size="10.00">ematch_src/utils/geometry</text>
<text text-anchor="middle" x="260" y="-12.5" font-family="Helvetica,sans-Serif" font-size="10.00">/run/smoothMonotonically.cc</text>
</a>
</g>
</g>
<!-- Node4&#45;&gt;Node6 -->
<g id="edge5_Node000004_Node000006" class="edge">
<title>Node4&#45;&gt;Node6</title>
<g id="a_edge5_Node000004_Node000006"><a xlink:title=" ">
<path fill="none" stroke="#63b8ff" d="M386.24,-73.11C357.65,-61.42 320.84,-46.37 294.35,-35.54"/>
<polygon fill="#63b8ff" stroke="#63b8ff" points="385.02,-76.39 395.6,-76.94 387.67,-69.91 385.02,-76.39"/>
</a>
</g>
</g>
<!-- Node7 -->
<g id="Node000007" class="node">
<title>Node7</title>
<g id="a_Node000007"><a xlink:href="smoothing_8cc.html" target="_top" xlink:title=" ">
<polygon fill="white" stroke="#666666" points="503.5,-35.5 356.5,-35.5 356.5,-5.5 503.5,-5.5 503.5,-35.5"/>
<text text-anchor="start" x="364.5" y="-23.5" font-family="Helvetica,sans-Serif" font-size="10.00">ematch_src/utils/geometry</text>
<text text-anchor="middle" x="430" y="-12.5" font-family="Helvetica,sans-Serif" font-size="10.00">/smoothing.cc</text>
</a>
</g>
</g>
<!-- Node4&#45;&gt;Node7 -->
<g id="edge6_Node000004_Node000007" class="edge">
<title>Node4&#45;&gt;Node7</title>
<g id="a_edge6_Node000004_Node000007"><a xlink:title=" ">
<path fill="none" stroke="#63b8ff" d="M430,-66.75C430,-56.31 430,-44.49 430,-35.54"/>
<polygon fill="#63b8ff" stroke="#63b8ff" points="426.5,-66.94 430,-76.94 433.5,-66.94 426.5,-66.94"/>
</a>
</g>
</g>
<!-- Node4&#45;&gt;Node8 -->
<g id="edge7_Node000004_Node000008" class="edge">
<title>Node4&#45;&gt;Node8</title>
<g id="a_edge7_Node000004_Node000008"><a xlink:title=" ">
<path fill="none" stroke="#63b8ff" d="M475.6,-73.29C500.94,-63.46 532.52,-51.2 558.59,-41.07"/>
<polygon fill="#63b8ff" stroke="#63b8ff" points="474.28,-70.05 466.22,-76.94 476.81,-76.58 474.28,-70.05"/>
</a>
</g>
</g>
</g>
</svg>
