<?xml version="1.0" encoding="UTF-8" standalone="no"?>
<!DOCTYPE svg PUBLIC "-//W3C//DTD SVG 1.1//EN"
 "http://www.w3.org/Graphics/SVG/1.1/DTD/svg11.dtd">
<!-- Generated by graphviz version 2.43.0 (0)
 -->
<!-- Title: cbrc::stringBinaryIO::writeContentsOnly Pages: 1 -->
<svg width="741pt" height="182pt"
 viewBox="0.00 0.00 741.00 182.00" xmlns="http://www.w3.org/2000/svg" xmlns:xlink="http://www.w3.org/1999/xlink">
<g id="graph0" class="graph" transform="scale(1 1) rotate(0) translate(4 178)">
<title>cbrc::stringBinaryIO::writeContentsOnly</title>
<!-- Node1 -->
<g id="Node000001" class="node">
<title>Node1</title>
<g id="a_Node000001"><a xlink:title=" ">
<polygon fill="#999999" stroke="#666666" points="733,-102 620,-102 620,-72 733,-72 733,-102"/>
<text text-anchor="start" x="628" y="-90" font-family="Helvetica,sans-Serif" font-size="10.00">cbrc::stringBinaryIO</text>
<text text-anchor="middle" x="676.5" y="-79" font-family="Helvetica,sans-Serif" font-size="10.00">::writeContentsOnly</text>
</a>
</g>
</g>
<!-- Node2 -->
<g id="Node000002" class="node">
<title>Node2</title>
<g id="a_Node000002"><a xlink:href="namespacecbrc_1_1stringBinaryIO.html#ac08c9b395d220910943ec47cae012384" target="_top" xlink:title=" ">
<polygon fill="white" stroke="#666666" points="584,-102 471,-102 471,-72 584,-72 584,-102"/>
<text text-anchor="start" x="479" y="-90" font-family="Helvetica,sans-Serif" font-size="10.00">cbrc::stringBinaryIO</text>
<text text-anchor="middle" x="527.5" y="-79" font-family="Helvetica,sans-Serif" font-size="10.00">::write</text>
</a>
</g>
</g>
<!-- Node1&#45;&gt;Node2 -->
<g id="edge1_Node000001_Node000002" class="edge">
<title>Node1&#45;&gt;Node2</title>
<g id="a_edge1_Node000001_Node000002"><a xlink:title=" ">
<path fill="none" stroke="#63b8ff" d="M609.92,-87C601.32,-87 592.57,-87 584.15,-87"/>
<polygon fill="#63b8ff" stroke="#63b8ff" points="609.93,-90.5 619.93,-87 609.93,-83.5 609.93,-90.5"/>
</a>
</g>
</g>
<!-- Node4 -->
<g id="Node000004" class="node">
<title>Node4</title>
<g id="a_Node000004"><a xlink:href="classcbrc_1_1ResidueIndexedSequence.html#acc2c399cc501516d5391f26f82548e86" target="_top" xlink:title=" ">
<polygon fill="white" stroke="#666666" points="435,-174 268,-174 268,-144 435,-144 435,-174"/>
<text text-anchor="start" x="276" y="-162" font-family="Helvetica,sans-Serif" font-size="10.00">cbrc::ResidueIndexedSequence</text>
<text text-anchor="middle" x="351.5" y="-151" font-family="Helvetica,sans-Serif" font-size="10.00">::write</text>
</a>
</g>
</g>
<!-- Node1&#45;&gt;Node4 -->
<g id="edge8_Node000001_Node000004" class="edge">
<title>Node1&#45;&gt;Node4</title>
<g id="a_edge8_Node000001_Node000004"><a xlink:title=" ">
<path fill="none" stroke="#63b8ff" d="M610.15,-104.58C601.37,-106.81 592.48,-109.01 584,-111 532.95,-122.98 475.2,-134.96 430.15,-143.95"/>
<polygon fill="#63b8ff" stroke="#63b8ff" points="611.16,-107.94 619.97,-102.06 609.41,-101.16 611.16,-107.94"/>
</a>
</g>
</g>
<!-- Node5 -->
<g id="Node000005" class="node">
<title>Node5</title>
<g id="a_Node000005"><a xlink:href="classcbrc_1_1ResidueIndexMap.html#a82fb971ecc2b08d269be1a0fb70b9348" target="_top" xlink:title=" ">
<polygon fill="white" stroke="#666666" points="416.5,-30 286.5,-30 286.5,0 416.5,0 416.5,-30"/>
<text text-anchor="start" x="294.5" y="-18" font-family="Helvetica,sans-Serif" font-size="10.00">cbrc::ResidueIndexMap</text>
<text text-anchor="middle" x="351.5" y="-7" font-family="Helvetica,sans-Serif" font-size="10.00">::write</text>
</a>
</g>
</g>
<!-- Node1&#45;&gt;Node5 -->
<g id="edge9_Node000001_Node000005" class="edge">
<title>Node1&#45;&gt;Node5</title>
<g id="a_edge9_Node000001_Node000005"><a xlink:title=" ">
<path fill="none" stroke="#63b8ff" d="M610.15,-69.42C601.37,-67.19 592.48,-64.99 584,-63 527.66,-49.78 463.15,-36.56 416.57,-27.35"/>
<polygon fill="#63b8ff" stroke="#63b8ff" points="609.41,-72.84 619.97,-71.94 611.16,-66.06 609.41,-72.84"/>
</a>
</g>
</g>
<!-- Node3 -->
<g id="Node000003" class="node">
<title>Node3</title>
<g id="a_Node000003"><a xlink:href="namespacecbrc_1_1stringBinaryIO.html#af8f76a21b8941bb9fb1d1c7a5a3142f8" target="_top" xlink:title=" ">
<polygon fill="white" stroke="#666666" points="408,-126 295,-126 295,-96 408,-96 408,-126"/>
<text text-anchor="start" x="303" y="-114" font-family="Helvetica,sans-Serif" font-size="10.00">cbrc::stringBinaryIO</text>
<text text-anchor="middle" x="351.5" y="-103" font-family="Helvetica,sans-Serif" font-size="10.00">::write</text>
</a>
</g>
</g>
<!-- Node2&#45;&gt;Node3 -->
<g id="edge2_Node000002_Node000003" class="edge">
<title>Node2&#45;&gt;Node3</title>
<g id="a_edge2_Node000002_Node000003"><a xlink:title=" ">
<path fill="none" stroke="#63b8ff" d="M460.89,-96.05C443.5,-98.45 424.9,-101.01 408.1,-103.33"/>
<polygon fill="#63b8ff" stroke="#63b8ff" points="461.54,-99.49 470.97,-94.66 460.58,-92.56 461.54,-99.49"/>
</a>
</g>
</g>
<!-- Node2&#45;&gt;Node4 -->
<g id="edge3_Node000002_Node000004" class="edge">
<title>Node2&#45;&gt;Node4</title>
<g id="a_edge3_Node000002_Node000004"><a xlink:title=" ">
<path fill="none" stroke="#63b8ff" d="M492.21,-107.08C475.35,-116.4 454.51,-127.14 435,-135 426.98,-138.23 418.35,-141.23 409.81,-143.94"/>
<polygon fill="#63b8ff" stroke="#63b8ff" points="494.12,-110.02 501.13,-102.07 490.69,-103.92 494.12,-110.02"/>
</a>
</g>
</g>
<!-- Node2&#45;&gt;Node5 -->
<g id="edge4_Node000002_Node000005" class="edge">
<title>Node2&#45;&gt;Node5</title>
<g id="a_edge4_Node000002_Node000005"><a xlink:title=" ">
<path fill="none" stroke="#63b8ff" d="M490.4,-67.12C469.8,-55.96 445.94,-43.41 435,-39 426.98,-35.77 418.35,-32.77 409.81,-30.06"/>
<polygon fill="#63b8ff" stroke="#63b8ff" points="488.83,-70.25 499.29,-71.95 492.18,-64.1 488.83,-70.25"/>
</a>
</g>
</g>
<!-- Node8 -->
<g id="Node000008" class="node">
<title>Node8</title>
<g id="a_Node000008"><a xlink:href="classcbrc_1_1SerialNumbersForStrings.html#aed2fe420ba9bfbe49c802b6321050e9a" target="_top" xlink:title=" ">
<polygon fill="white" stroke="#666666" points="433.5,-78 269.5,-78 269.5,-48 433.5,-48 433.5,-78"/>
<text text-anchor="start" x="277.5" y="-66" font-family="Helvetica,sans-Serif" font-size="10.00">cbrc::SerialNumbersForStrings</text>
<text text-anchor="middle" x="351.5" y="-55" font-family="Helvetica,sans-Serif" font-size="10.00">::write</text>
</a>
</g>
</g>
<!-- Node2&#45;&gt;Node8 -->
<g id="edge7_Node000002_Node000008" class="edge">
<title>Node2&#45;&gt;Node8</title>
<g id="a_edge7_Node000002_Node000008"><a xlink:title=" ">
<path fill="none" stroke="#63b8ff" d="M460.99,-77.96C452.02,-76.73 442.72,-75.44 433.51,-74.17"/>
<polygon fill="#63b8ff" stroke="#63b8ff" points="460.58,-81.44 470.97,-79.34 461.54,-74.51 460.58,-81.44"/>
</a>
</g>
</g>
<!-- Node6 -->
<g id="Node000006" class="node">
<title>Node6</title>
<g id="a_Node000006"><a xlink:href="namespacecbrc.html#a8941b798efd9269f50d8756e1a7d5838" target="_top" xlink:title=" ">
<polygon fill="white" stroke="#666666" points="232,-24.5 77,-24.5 77,-5.5 232,-5.5 232,-24.5"/>
<text text-anchor="middle" x="154.5" y="-12.5" font-family="Helvetica,sans-Serif" font-size="10.00">cbrc::writeResidueIndexMap</text>
</a>
</g>
</g>
<!-- Node5&#45;&gt;Node6 -->
<g id="edge5_Node000005_Node000006" class="edge">
<title>Node5&#45;&gt;Node6</title>
<g id="a_edge5_Node000005_Node000006"><a xlink:title=" ">
<path fill="none" stroke="#63b8ff" d="M276.07,-15C261.71,-15 246.65,-15 232.22,-15"/>
<polygon fill="#63b8ff" stroke="#63b8ff" points="276.38,-18.5 286.38,-15 276.38,-11.5 276.38,-18.5"/>
</a>
</g>
</g>
<!-- Node7 -->
<g id="Node000007" class="node">
<title>Node7</title>
<g id="a_Node000007"><a xlink:href="writeResidueIndexMap_8cc.html#ac0f2228420376f4db7e1274f2b41667c" target="_top" xlink:title=" ">
<polygon fill="white" stroke="#666666" points="41,-24.5 0,-24.5 0,-5.5 41,-5.5 41,-24.5"/>
<text text-anchor="middle" x="20.5" y="-12.5" font-family="Helvetica,sans-Serif" font-size="10.00">main</text>
</a>
</g>
</g>
<!-- Node6&#45;&gt;Node7 -->
<g id="edge6_Node000006_Node000007" class="edge">
<title>Node6&#45;&gt;Node7</title>
<g id="a_edge6_Node000006_Node000007"><a xlink:title=" ">
<path fill="none" stroke="#63b8ff" d="M66.69,-15C57.26,-15 48.46,-15 41.17,-15"/>
<polygon fill="#63b8ff" stroke="#63b8ff" points="66.72,-18.5 76.72,-15 66.72,-11.5 66.72,-18.5"/>
</a>
</g>
</g>
</g>
</svg>
