<?xml version="1.0" encoding="UTF-8" standalone="no"?>
<!DOCTYPE svg PUBLIC "-//W3C//DTD SVG 1.1//EN"
 "http://www.w3.org/Graphics/SVG/1.1/DTD/svg11.dtd">
<!-- Generated by graphviz version 2.43.0 (0)
 -->
<!-- Title: cbrc::perlish::toSeconds Pages: 1 -->
<svg width="697pt" height="174pt"
 viewBox="0.00 0.00 697.00 174.00" xmlns="http://www.w3.org/2000/svg" xmlns:xlink="http://www.w3.org/1999/xlink">
<g id="graph0" class="graph" transform="scale(1 1) rotate(0) translate(4 170)">
<title>cbrc::perlish::toSeconds</title>
<!-- Node1 -->
<g id="Node000001" class="node">
<title>Node1</title>
<g id="a_Node000001"><a xlink:title=" ">
<polygon fill="#999999" stroke="#666666" points="132,-74 0,-74 0,-55 132,-55 132,-74"/>
<text text-anchor="middle" x="66" y="-62" font-family="Helvetica,sans-Serif" font-size="10.00">cbrc::perlish::toSeconds</text>
</a>
</g>
</g>
<!-- Node2 -->
<g id="Node000002" class="node">
<title>Node2</title>
<g id="a_Node000002"><a xlink:href="classcbrc_1_1FLEArray.html#a3eba8d1c247ebc9ed3219dd2a3614252" target="_top" xlink:title=" ">
<polygon fill="white" stroke="#666666" points="297.5,-130 187.5,-130 187.5,-111 297.5,-111 297.5,-130"/>
<text text-anchor="middle" x="242.5" y="-118" font-family="Helvetica,sans-Serif" font-size="10.00">cbrc::FLEArray::find</text>
</a>
</g>
</g>
<!-- Node1&#45;&gt;Node2 -->
<g id="edge1_Node000001_Node000002" class="edge">
<title>Node1&#45;&gt;Node2</title>
<g id="a_edge1_Node000001_Node000002"><a xlink:title=" ">
<path fill="none" stroke="#63b8ff" d="M89.99,-74.05C110.29,-82.27 140.8,-94.08 168,-102.5 174.66,-104.56 181.72,-106.54 188.73,-108.38"/>
<polygon fill="#63b8ff" stroke="#63b8ff" points="188.34,-111.9 198.9,-110.98 190.08,-105.12 188.34,-111.9"/>
</a>
</g>
</g>
<!-- Node6 -->
<g id="Node000006" class="node">
<title>Node6</title>
<g id="a_Node000006"><a xlink:href="namespacecbrc_1_1perlish.html#ac5d886f1edd46005302516a6bb9e4b99" target="_top" xlink:title=" ">
<polygon fill="white" stroke="#666666" points="317,-93 168,-93 168,-74 317,-74 317,-93"/>
<text text-anchor="middle" x="242.5" y="-81" font-family="Helvetica,sans-Serif" font-size="10.00">cbrc::perlish::looksLikeReal</text>
</a>
</g>
</g>
<!-- Node1&#45;&gt;Node6 -->
<g id="edge7_Node000001_Node000006" class="edge">
<title>Node1&#45;&gt;Node6</title>
<g id="a_edge7_Node000001_Node000006"><a xlink:title=" ">
<path fill="none" stroke="#63b8ff" d="M132.47,-71.63C140.75,-72.53 149.3,-73.46 157.8,-74.39"/>
<polygon fill="#63b8ff" stroke="#63b8ff" points="157.43,-77.87 167.75,-75.47 158.18,-70.91 157.43,-77.87"/>
</a>
</g>
</g>
<!-- Node8 -->
<g id="Node000008" class="node">
<title>Node8</title>
<g id="a_Node000008"><a xlink:href="classcbrc_1_1FLEArray.html#ad71311380d762114c9e0f3b0dda38b7c" target="_top" xlink:title=" ">
<polygon fill="white" stroke="#666666" points="298,-56 187,-56 187,-37 298,-37 298,-56"/>
<text text-anchor="middle" x="242.5" y="-44" font-family="Helvetica,sans-Serif" font-size="10.00">cbrc::FLEArray::size</text>
</a>
</g>
</g>
<!-- Node1&#45;&gt;Node8 -->
<g id="edge9_Node000001_Node000008" class="edge">
<title>Node1&#45;&gt;Node8</title>
<g id="a_edge9_Node000001_Node000008"><a xlink:title=" ">
<path fill="none" stroke="#63b8ff" d="M132.47,-57.75C146.87,-56.26 162.11,-54.69 176.49,-53.21"/>
<polygon fill="#63b8ff" stroke="#63b8ff" points="177.2,-56.65 186.78,-52.14 176.48,-49.69 177.2,-56.65"/>
</a>
</g>
</g>
<!-- Node9 -->
<g id="Node000009" class="node">
<title>Node9</title>
<g id="a_Node000009"><a xlink:href="namespacecbrc_1_1perlish.html#a0e108ed71261c0e210de8d812835028c" target="_top" xlink:title=" ">
<polygon fill="white" stroke="#666666" points="305.5,-19 179.5,-19 179.5,0 305.5,0 305.5,-19"/>
<text text-anchor="middle" x="242.5" y="-7" font-family="Helvetica,sans-Serif" font-size="10.00">cbrc::perlish::toDouble</text>
</a>
</g>
</g>
<!-- Node1&#45;&gt;Node9 -->
<g id="edge10_Node000001_Node000009" class="edge">
<title>Node1&#45;&gt;Node9</title>
<g id="a_edge10_Node000001_Node000009"><a xlink:title=" ">
<path fill="none" stroke="#63b8ff" d="M90.83,-54.92C111.13,-46.96 141.2,-35.66 168,-27.5 174.67,-25.47 181.73,-23.51 188.74,-21.67"/>
<polygon fill="#63b8ff" stroke="#63b8ff" points="190.09,-24.94 198.92,-19.08 188.36,-18.15 190.09,-24.94"/>
</a>
</g>
</g>
<!-- Node3 -->
<g id="Node000003" class="node">
<title>Node3</title>
<g id="a_Node000003"><a xlink:href="classcbrc_1_1FLEArray.html#a985e9e85d6fc6adf9d3c52a0306361a4" target="_top" xlink:title=" ">
<polygon fill="white" stroke="#666666" points="505,-149 353,-149 353,-130 505,-130 505,-149"/>
<text text-anchor="middle" x="429" y="-137" font-family="Helvetica,sans-Serif" font-size="10.00">cbrc::FLEArray::_validRange</text>
</a>
</g>
</g>
<!-- Node2&#45;&gt;Node3 -->
<g id="edge2_Node000002_Node000003" class="edge">
<title>Node2&#45;&gt;Node3</title>
<g id="a_edge2_Node000002_Node000003"><a xlink:title=" ">
<path fill="none" stroke="#63b8ff" d="M297.86,-126.1C311.98,-127.55 327.54,-129.15 342.84,-130.73"/>
<polygon fill="#63b8ff" stroke="#63b8ff" points="342.53,-134.22 352.84,-131.76 343.25,-127.25 342.53,-134.22"/>
</a>
</g>
</g>
<!-- Node5 -->
<g id="Node000005" class="node">
<title>Node5</title>
<g id="a_Node000005"><a xlink:href="classcbrc_1_1FLEArray.html#a5368c7c0434bd5c119d2cbb39f4b399e" target="_top" xlink:title=" ">
<polygon fill="white" stroke="#666666" points="682.5,-111 547.5,-111 547.5,-92 682.5,-92 682.5,-111"/>
<text text-anchor="middle" x="615" y="-99" font-family="Helvetica,sans-Serif" font-size="10.00">cbrc::FLEArray::FLEArray</text>
</a>
</g>
</g>
<!-- Node2&#45;&gt;Node5 -->
<g id="edge6_Node000002_Node000005" class="edge">
<title>Node2&#45;&gt;Node5</title>
<g id="a_edge6_Node000002_Node000005"><a xlink:title=" ">
<path fill="none" stroke="#63b8ff" d="M297.77,-117.72C360.89,-114.48 465.56,-109.11 537.05,-105.45"/>
<polygon fill="#63b8ff" stroke="#63b8ff" points="537.54,-108.93 547.35,-104.92 537.19,-101.93 537.54,-108.93"/>
</a>
</g>
</g>
<!-- Node4 -->
<g id="Node000004" class="node">
<title>Node4</title>
<g id="a_Node000004"><a xlink:href="classcbrc_1_1FLEArray.html#a0a06120b85cf875ccff4081918fe0f33" target="_top" xlink:title=" ">
<polygon fill="white" stroke="#666666" points="689,-166 541,-166 541,-147 689,-147 689,-166"/>
<text text-anchor="middle" x="615" y="-154" font-family="Helvetica,sans-Serif" font-size="10.00">cbrc::FLEArray::_validIndex</text>
</a>
</g>
</g>
<!-- Node3&#45;&gt;Node4 -->
<g id="edge3_Node000003_Node000004" class="edge">
<title>Node3&#45;&gt;Node4</title>
<g id="a_edge3_Node000003_Node000004"><a xlink:title=" ">
<path fill="none" stroke="#63b8ff" d="M505.11,-146.44C513.6,-147.22 522.3,-148.03 530.9,-148.82"/>
<polygon fill="#63b8ff" stroke="#63b8ff" points="530.64,-152.31 540.92,-149.75 531.28,-145.34 530.64,-152.31"/>
</a>
</g>
</g>
<!-- Node3&#45;&gt;Node5 -->
<g id="edge4_Node000003_Node000005" class="edge">
<title>Node3&#45;&gt;Node5</title>
<g id="a_edge4_Node000003_Node000005"><a xlink:title=" ">
<path fill="none" stroke="#63b8ff" d="M476.43,-129.91C501.15,-124.81 531.74,-118.49 557.79,-113.11"/>
<polygon fill="#63b8ff" stroke="#63b8ff" points="558.82,-116.47 567.9,-111.02 557.4,-109.61 558.82,-116.47"/>
</a>
</g>
</g>
<!-- Node5&#45;&gt;Node5 -->
<g id="edge5_Node000005_Node000005" class="edge">
<title>Node5&#45;&gt;Node5</title>
<g id="a_edge5_Node000005_Node000005"><a xlink:title=" ">
<path fill="none" stroke="#63b8ff" d="M586.33,-111.08C572.39,-119.73 581.94,-129 615,-129 637.73,-129 649.35,-124.62 649.86,-119.07"/>
<polygon fill="#63b8ff" stroke="#63b8ff" points="652.56,-116.84 643.67,-111.08 647.03,-121.13 652.56,-116.84"/>
</a>
</g>
</g>
<!-- Node7 -->
<g id="Node000007" class="node">
<title>Node7</title>
<g id="a_Node000007"><a xlink:href="namespacecbrc_1_1perlish.html#a2e0de63b4246722762d5e7c734dae391" target="_top" xlink:title=" ">
<polygon fill="white" stroke="#666666" points="493,-58.5 365,-58.5 365,-28.5 493,-28.5 493,-58.5"/>
<text text-anchor="start" x="373" y="-46.5" font-family="Helvetica,sans-Serif" font-size="10.00">cbrc::perlish::looksLike</text>
<text text-anchor="middle" x="429" y="-35.5" font-family="Helvetica,sans-Serif" font-size="10.00">RealCstring</text>
</a>
</g>
</g>
<!-- Node6&#45;&gt;Node7 -->
<g id="edge8_Node000006_Node000007" class="edge">
<title>Node6&#45;&gt;Node7</title>
<g id="a_edge8_Node000006_Node000007"><a xlink:title=" ">
<path fill="none" stroke="#63b8ff" d="M287.69,-73.92C307.84,-69.55 332.24,-64.26 355,-59.33"/>
<polygon fill="#63b8ff" stroke="#63b8ff" points="355.95,-62.7 364.98,-57.16 354.46,-55.86 355.95,-62.7"/>
</a>
</g>
</g>
<!-- Node9&#45;&gt;Node7 -->
<g id="edge11_Node000009_Node000007" class="edge">
<title>Node9&#45;&gt;Node7</title>
<g id="a_edge11_Node000009_Node000007"><a xlink:title=" ">
<path fill="none" stroke="#63b8ff" d="M295.38,-19.06C313.8,-22.46 334.89,-26.34 354.76,-30"/>
<polygon fill="#63b8ff" stroke="#63b8ff" points="354.23,-33.46 364.7,-31.84 355.5,-26.58 354.23,-33.46"/>
</a>
</g>
</g>
</g>
</svg>
