<?xml version="1.0" encoding="UTF-8" standalone="no"?>
<!DOCTYPE svg PUBLIC "-//W3C//DTD SVG 1.1//EN"
 "http://www.w3.org/Graphics/SVG/1.1/DTD/svg11.dtd">
<!-- Generated by graphviz version 2.43.0 (0)
 -->
<!-- Title: cbrc::smoothMinPoints Pages: 1 -->
<!--zoomable 400 -->

<svg id="main" version="1.1" xmlns="http://www.w3.org/2000/svg" xmlns:xlink="http://www.w3.org/1999/xlink" xml:space="preserve" onload="init(evt)">
<style type="text/css"><![CDATA[
.node, .edge {opacity: 0.7;}
.node.selected, .edge.selected {opacity: 1;}
.edge:hover path { stroke: red; }
.edge:hover polygon { stroke: red; fill: red; }
]]></style>

<defs>
  <circle id="rim" cx="0" cy="0" r="7"/>
  <circle id="rim2" cx="0" cy="0" r="3.5"/>
  <g id="zoomPlus">
    <use xlink:href="#rim" fill="#404040"><set attributeName="fill" to="#808080" begin="zoomplus.mouseover" end="zoomplus.mouseout"/></use>
    <path d="M-4,0h8M0,-4v8" fill="none" stroke="white" stroke-width="1.5" pointer-events="none"/>
  </g>
  <g id="zoomMin">
    <use xlink:href="#rim" fill="#404040"><set attributeName="fill" to="#808080" begin="zoomminus.mouseover" end="zoomminus.mouseout"/></use>
    <path d="M-4,0h8" fill="none" stroke="white" stroke-width="1.5" pointer-events="none"/>
  </g>
  <g id="arrowUp" transform="translate(30 24)">
    <use xlink:href="#rim"/>
    <path pointer-events="none" fill="none" stroke="white" stroke-width="1.5" d="M0,-3.0v7 M-2.5,-0.5L0,-3.0L2.5,-0.5"/>
  </g>
  <g id="arrowRight" transform="rotate(90) translate(36 -43)">
    <use xlink:href="#rim"/>
    <path pointer-events="none" fill="none" stroke="white" stroke-width="1.5" d="M0,-3.0v7 M-2.5,-0.5L0,-3.0L2.5,-0.5"/>
  </g>
  <g id="arrowDown" transform="rotate(180) translate(-30 -48)">
    <use xlink:href="#rim"/>
    <path pointer-events="none" fill="none" stroke="white" stroke-width="1.5" d="M0,-3.0v7 M-2.5,-0.5L0,-3.0L2.5,-0.5"/>
  </g>
  <g id="arrowLeft" transform="rotate(270) translate(-36 17)">
    <use xlink:href="#rim"/>
    <path pointer-events="none" fill="none" stroke="white" stroke-width="1.5" d="M0,-3.0v7 M-2.5,-0.5L0,-3.0L2.5,-0.5"/>
  </g>
  <g id="resetDef">
    <use xlink:href="#rim2" fill="#404040"><set attributeName="fill" to="#808080" begin="reset.mouseover" end="reset.mouseout"/></use>
  </g>
</defs>
<script type="application/ecmascript">
var viewWidth = 728;
var viewHeight = 400;
var sectionId = 'dynsection-131';
</script>
<script type="application/ecmascript" xlink:href="svg.min.js"/>
<svg id="graph" class="graph">
<g id="viewport">
<title>cbrc::smoothMinPoints</title>
<!-- Node1 -->
<g id="Node000001" class="node">
<title>Node1</title>
<g id="a_Node000001"><a xlink:title=" ">
<polygon fill="#999999" stroke="#666666" points="128,-195.5 0,-195.5 0,-176.5 128,-176.5 128,-195.5"/>
<text text-anchor="middle" x="64" y="-183.5" font-family="Helvetica,sans-Serif" font-size="10.00">cbrc::smoothMinPoints</text>
</a>
</g>
</g>
<!-- Node2 -->
<g id="Node000002" class="node">
<title>Node2</title>
<g id="a_Node000002"><a xlink:href="namespacecbrc_1_1smoothing.html#aff57ef2038f4bff5e44f4060dbc89cf0" target="_top" xlink:title=" ">
<polygon fill="white" stroke="#666666" points="356,-353.5 164,-353.5 164,-312.5 356,-312.5 356,-353.5"/>
<text text-anchor="start" x="172" y="-341.5" font-family="Helvetica,sans-Serif" font-size="10.00">cbrc::smoothing::average</text>
<text text-anchor="start" x="172" y="-330.5" font-family="Helvetica,sans-Serif" font-size="10.00">YCoordinatesWithNeighboringPoints</text>
<text text-anchor="middle" x="260" y="-319.5" font-family="Helvetica,sans-Serif" font-size="10.00">UntilMinSampleSizeAttained</text>
</a>
</g>
</g>
<!-- Node1&#45;&gt;Node2 -->
<g id="edge1_Node000001_Node000002" class="edge">
<title>Node1&#45;&gt;Node2</title>
<g id="a_edge1_Node000001_Node000002"><a xlink:title=" ">
<path fill="none" stroke="#63b8ff" d="M70.99,-195.53C84.83,-216.82 121.16,-268.69 164,-298 169.46,-301.73 175.36,-305.13 181.47,-308.2"/>
<polygon fill="#63b8ff" stroke="#63b8ff" points="179.99,-311.37 190.52,-312.47 182.97,-305.04 179.99,-311.37"/>
</a>
</g>
</g>
<!-- Node4 -->
<g id="Node000004" class="node">
<title>Node4</title>
<g id="a_Node000004"><a xlink:href="classcbrc_1_1FLEArray.html#ad71311380d762114c9e0f3b0dda38b7c" target="_top" xlink:title=" ">
<polygon fill="white" stroke="#666666" points="720,-312.5 609,-312.5 609,-293.5 720,-293.5 720,-312.5"/>
<text text-anchor="middle" x="664.5" y="-300.5" font-family="Helvetica,sans-Serif" font-size="10.00">cbrc::FLEArray::size</text>
</a>
</g>
</g>
<!-- Node1&#45;&gt;Node4 -->
<g id="edge7_Node000001_Node000004" class="edge">
<title>Node1&#45;&gt;Node4</title>
<g id="a_edge7_Node000001_Node000004"><a xlink:title=" ">
<path fill="none" stroke="#63b8ff" d="M75.95,-195.6C93.27,-210.18 128.69,-237.52 164,-250 312.94,-302.65 501.2,-307.33 598.56,-305.56"/>
<polygon fill="#63b8ff" stroke="#63b8ff" points="598.91,-309.05 608.84,-305.34 598.77,-302.06 598.91,-309.05"/>
</a>
</g>
</g>
<!-- Node5 -->
<g id="Node000005" class="node">
<title>Node5</title>
<g id="a_Node000005"><a xlink:href="namespacecbrc_1_1smoothing.html#aaf7cb873e7438e138f83af89d4efd678" target="_top" xlink:title=" ">
<polygon fill="white" stroke="#666666" points="569.5,-256 395.5,-256 395.5,-226 569.5,-226 569.5,-256"/>
<text text-anchor="start" x="403.5" y="-244" font-family="Helvetica,sans-Serif" font-size="10.00">cbrc::smoothing::mergeIdentical</text>
<text text-anchor="middle" x="482.5" y="-233" font-family="Helvetica,sans-Serif" font-size="10.00">AdjacentX</text>
</a>
</g>
</g>
<!-- Node1&#45;&gt;Node5 -->
<g id="edge5_Node000001_Node000005" class="edge">
<title>Node1&#45;&gt;Node5</title>
<g id="a_edge5_Node000001_Node000005"><a xlink:title=" ">
<path fill="none" stroke="#63b8ff" d="M82.63,-195.52C101.96,-205.42 134.22,-220.39 164,-227 236.99,-243.2 321.66,-246.17 385.2,-245.38"/>
<polygon fill="#63b8ff" stroke="#63b8ff" points="385.27,-248.88 395.21,-245.22 385.16,-241.88 385.27,-248.88"/>
</a>
</g>
</g>
<!-- Node6 -->
<g id="Node000006" class="node">
<title>Node6</title>
<g id="a_Node000006"><a xlink:href="namespacecbrc_1_1perlish.html#a1b9b10d59aa7b6d3e846aed1a3d84a09" target="_top" xlink:title=" ">
<polygon fill="white" stroke="#666666" points="325.5,-217.5 194.5,-217.5 194.5,-198.5 325.5,-198.5 325.5,-217.5"/>
<text text-anchor="middle" x="260" y="-205.5" font-family="Helvetica,sans-Serif" font-size="10.00">cbrc::perlish::slurpLines</text>
</a>
</g>
</g>
<!-- Node1&#45;&gt;Node6 -->
<g id="edge8_Node000001_Node000006" class="edge">
<title>Node1&#45;&gt;Node6</title>
<g id="a_edge8_Node000001_Node000006"><a xlink:title=" ">
<path fill="none" stroke="#63b8ff" d="M128.25,-193.17C146.07,-195.19 165.63,-197.41 184.06,-199.5"/>
<polygon fill="#63b8ff" stroke="#63b8ff" points="183.84,-203 194.17,-200.65 184.63,-196.04 183.84,-203"/>
</a>
</g>
</g>
<!-- Node7 -->
<g id="Node000007" class="node">
<title>Node7</title>
<g id="a_Node000007"><a xlink:href="namespacecbrc_1_1smoothing.html#ab16a6b2dbe0cbebcff46591498dc53a7" target="_top" xlink:title=" ">
<polygon fill="white" stroke="#666666" points="337.5,-180 182.5,-180 182.5,-150 337.5,-150 337.5,-180"/>
<text text-anchor="start" x="190.5" y="-168" font-family="Helvetica,sans-Serif" font-size="10.00">cbrc::smoothing::sortInPlace</text>
<text text-anchor="middle" x="260" y="-157" font-family="Helvetica,sans-Serif" font-size="10.00">AscendingValue</text>
</a>
</g>
</g>
<!-- Node1&#45;&gt;Node7 -->
<g id="edge9_Node000001_Node000007" class="edge">
<title>Node1&#45;&gt;Node7</title>
<g id="a_edge9_Node000001_Node000007"><a xlink:title=" ">
<path fill="none" stroke="#63b8ff" d="M128.25,-179.15C142.27,-177.64 157.36,-176 172.13,-174.4"/>
<polygon fill="#63b8ff" stroke="#63b8ff" points="172.72,-177.86 182.29,-173.3 171.97,-170.9 172.72,-177.86"/>
</a>
</g>
</g>
<!-- Node8 -->
<g id="Node000008" class="node">
<title>Node8</title>
<g id="a_Node000008"><a xlink:href="namespacecbrc_1_1perlish.html#a101a4746d50e52a00273c6fe533970ec" target="_top" xlink:title=" ">
<polygon fill="white" stroke="#666666" points="311.5,-113.5 208.5,-113.5 208.5,-94.5 311.5,-94.5 311.5,-113.5"/>
<text text-anchor="middle" x="260" y="-101.5" font-family="Helvetica,sans-Serif" font-size="10.00">cbrc::perlish::split</text>
</a>
</g>
</g>
<!-- Node1&#45;&gt;Node8 -->
<g id="edge10_Node000001_Node000008" class="edge">
<title>Node1&#45;&gt;Node8</title>
<g id="a_edge10_Node000001_Node000008"><a xlink:title=" ">
<path fill="none" stroke="#63b8ff" d="M85.33,-176.36C105.24,-167.01 136.51,-152.59 164,-141 183.68,-132.7 205.91,-124.01 223.92,-117.13"/>
<polygon fill="#63b8ff" stroke="#63b8ff" points="225.34,-120.34 233.44,-113.52 222.85,-113.79 225.34,-120.34"/>
</a>
</g>
</g>
<!-- Node11 -->
<g id="Node000011" class="node">
<title>Node11</title>
<g id="a_Node000011"><a xlink:href="namespacecbrc_1_1perlish.html#a0e108ed71261c0e210de8d812835028c" target="_top" xlink:title=" ">
<polygon fill="white" stroke="#666666" points="323,-73.5 197,-73.5 197,-54.5 323,-54.5 323,-73.5"/>
<text text-anchor="middle" x="260" y="-61.5" font-family="Helvetica,sans-Serif" font-size="10.00">cbrc::perlish::toDouble</text>
</a>
</g>
</g>
<!-- Node1&#45;&gt;Node11 -->
<g id="edge14_Node000001_Node000011" class="edge">
<title>Node1&#45;&gt;Node11</title>
<g id="a_edge14_Node000001_Node000011"><a xlink:title=" ">
<path fill="none" stroke="#63b8ff" d="M71.65,-176.25C86,-156.03 121.97,-109.45 164,-86 171.15,-82.01 178.98,-78.75 186.99,-76.07"/>
<polygon fill="#63b8ff" stroke="#63b8ff" points="188.26,-79.34 196.81,-73.09 186.23,-72.64 188.26,-79.34"/>
</a>
</g>
</g>
<!-- Node13 -->
<g id="Node000013" class="node">
<title>Node13</title>
<g id="a_Node000013"><a xlink:href="namespacecbrc_1_1perlish.html#a808f5d7e67fdbcd98444453a3aac97f6" target="_top" xlink:title=" ">
<polygon fill="white" stroke="#666666" points="335,-31.5 185,-31.5 185,-12.5 335,-12.5 335,-31.5"/>
<text text-anchor="middle" x="260" y="-19.5" font-family="Helvetica,sans-Serif" font-size="10.00">cbrc::perlish::toUnsignedInt</text>
</a>
</g>
</g>
<!-- Node1&#45;&gt;Node13 -->
<g id="edge16_Node000001_Node000013" class="edge">
<title>Node1&#45;&gt;Node13</title>
<g id="a_edge16_Node000001_Node000013"><a xlink:title=" ">
<path fill="none" stroke="#63b8ff" d="M68.87,-176.31C79.68,-150.53 112.83,-79.86 164,-45 169.75,-41.08 176.09,-37.83 182.69,-35.13"/>
<polygon fill="#63b8ff" stroke="#63b8ff" points="184.3,-38.27 192.5,-31.56 181.91,-31.69 184.3,-38.27"/>
</a>
</g>
</g>
<!-- Node3 -->
<g id="Node000003" class="node">
<title>Node3</title>
<g id="a_Node000003"><a xlink:href="namespacecbrc_1_1smoothing.html#ac1ab7e34716884166d35b735e16b93d6" target="_top" xlink:title=" ">
<polygon fill="white" stroke="#666666" points="573,-391.5 392,-391.5 392,-350.5 573,-350.5 573,-391.5"/>
<text text-anchor="start" x="400" y="-379.5" font-family="Helvetica,sans-Serif" font-size="10.00">cbrc::smoothing::average</text>
<text text-anchor="start" x="400" y="-368.5" font-family="Helvetica,sans-Serif" font-size="10.00">YCoordinateOfPointIWithNeighbor</text>
<text text-anchor="middle" x="482.5" y="-357.5" font-family="Helvetica,sans-Serif" font-size="10.00">PointUntilMinSampleSizeAttained</text>
</a>
</g>
</g>
<!-- Node2&#45;&gt;Node3 -->
<g id="edge2_Node000002_Node000003" class="edge">
<title>Node2&#45;&gt;Node3</title>
<g id="a_edge2_Node000002_Node000003"><a xlink:title=" ">
<path fill="none" stroke="#63b8ff" d="M356.11,-349.39C364.66,-350.86 373.33,-352.36 381.91,-353.84"/>
<polygon fill="#63b8ff" stroke="#63b8ff" points="381.48,-357.31 391.93,-355.56 382.67,-350.42 381.48,-357.31"/>
</a>
</g>
</g>
<!-- Node2&#45;&gt;Node4 -->
<g id="edge4_Node000002_Node000004" class="edge">
<title>Node2&#45;&gt;Node4</title>
<g id="a_edge4_Node000002_Node000004"><a xlink:title=" ">
<path fill="none" stroke="#63b8ff" d="M356.13,-325.91C430.93,-320.33 533.12,-312.72 598.72,-307.83"/>
<polygon fill="#63b8ff" stroke="#63b8ff" points="599.22,-311.3 608.93,-307.07 598.69,-304.32 599.22,-311.3"/>
</a>
</g>
</g>
<!-- Node3&#45;&gt;Node4 -->
<g id="edge3_Node000003_Node000004" class="edge">
<title>Node3&#45;&gt;Node4</title>
<g id="a_edge3_Node000003_Node000004"><a xlink:title=" ">
<path fill="none" stroke="#63b8ff" d="M537.99,-350.41C567.41,-339.3 602.85,-325.91 628.56,-316.2"/>
<polygon fill="#63b8ff" stroke="#63b8ff" points="630.12,-319.35 638.24,-312.54 627.65,-312.8 630.12,-319.35"/>
</a>
</g>
</g>
<!-- Node5&#45;&gt;Node4 -->
<g id="edge6_Node000005_Node000004" class="edge">
<title>Node5&#45;&gt;Node4</title>
<g id="a_edge6_Node000005_Node000004"><a xlink:title=" ">
<path fill="none" stroke="#63b8ff" d="M530.98,-256.03C544.59,-260.43 559.41,-265.32 573,-270 591.37,-276.32 611.71,-283.71 628.45,-289.88"/>
<polygon fill="#63b8ff" stroke="#63b8ff" points="627.25,-293.17 637.84,-293.36 629.68,-286.61 627.25,-293.17"/>
</a>
</g>
</g>
<!-- Node8&#45;&gt;Node8 -->
<g id="edge13_Node000008_Node000008" class="edge">
<title>Node8&#45;&gt;Node8</title>
<g id="a_edge13_Node000008_Node000008"><a xlink:title=" ">
<path fill="none" stroke="#63b8ff" d="M229.79,-113.58C215.09,-122.23 225.16,-131.5 260,-131.5 284.49,-131.5 296.74,-126.92 296.75,-121.19"/>
<polygon fill="#63b8ff" stroke="#63b8ff" points="299.38,-118.88 290.21,-113.58 294.07,-123.45 299.38,-118.88"/>
</a>
</g>
</g>
<!-- Node9 -->
<g id="Node000009" class="node">
<title>Node9</title>
<g id="a_Node000009"><a xlink:href="classcbrc_1_1FLEArray.html#a7e5d0d3bc5c41546620ccff95b55b3fa" target="_top" xlink:title=" ">
<polygon fill="white" stroke="#666666" points="542,-152.5 423,-152.5 423,-133.5 542,-133.5 542,-152.5"/>
<text text-anchor="middle" x="482.5" y="-140.5" font-family="Helvetica,sans-Serif" font-size="10.00">cbrc::FLEArray::begin</text>
</a>
</g>
</g>
<!-- Node8&#45;&gt;Node9 -->
<g id="edge11_Node000008_Node000009" class="edge">
<title>Node8&#45;&gt;Node9</title>
<g id="a_edge11_Node000008_Node000009"><a xlink:title=" ">
<path fill="none" stroke="#63b8ff" d="M311.59,-112.95C343.04,-118.51 383.77,-125.72 417.47,-131.68"/>
<polygon fill="#63b8ff" stroke="#63b8ff" points="417.23,-135.19 427.68,-133.48 418.45,-128.29 417.23,-135.19"/>
</a>
</g>
</g>
<!-- Node10 -->
<g id="Node000010" class="node">
<title>Node10</title>
<g id="a_Node000010"><a xlink:href="classcbrc_1_1FLEArray.html#a8c53878dc57e8f666976e041d146a523" target="_top" xlink:title=" ">
<polygon fill="white" stroke="#666666" points="537.5,-115.5 427.5,-115.5 427.5,-96.5 537.5,-96.5 537.5,-115.5"/>
<text text-anchor="middle" x="482.5" y="-103.5" font-family="Helvetica,sans-Serif" font-size="10.00">cbrc::FLEArray::end</text>
</a>
</g>
</g>
<!-- Node8&#45;&gt;Node10 -->
<g id="edge12_Node000008_Node000010" class="edge">
<title>Node8&#45;&gt;Node10</title>
<g id="a_edge12_Node000008_Node000010"><a xlink:title=" ">
<path fill="none" stroke="#63b8ff" d="M311.59,-104.46C342.93,-104.74 383.48,-105.11 417.1,-105.42"/>
<polygon fill="#63b8ff" stroke="#63b8ff" points="417.26,-108.92 427.29,-105.51 417.33,-101.92 417.26,-108.92"/>
</a>
</g>
</g>
<!-- Node12 -->
<g id="Node000012" class="node">
<title>Node12</title>
<g id="a_Node000012"><a xlink:href="namespacecbrc_1_1perlish.html#a2e0de63b4246722762d5e7c734dae391" target="_top" xlink:title=" ">
<polygon fill="white" stroke="#666666" points="546.5,-78 418.5,-78 418.5,-48 546.5,-48 546.5,-78"/>
<text text-anchor="start" x="426.5" y="-66" font-family="Helvetica,sans-Serif" font-size="10.00">cbrc::perlish::looksLike</text>
<text text-anchor="middle" x="482.5" y="-55" font-family="Helvetica,sans-Serif" font-size="10.00">RealCstring</text>
</a>
</g>
</g>
<!-- Node11&#45;&gt;Node12 -->
<g id="edge15_Node000011_Node000012" class="edge">
<title>Node11&#45;&gt;Node12</title>
<g id="a_edge15_Node000011_Node000012"><a xlink:title=" ">
<path fill="none" stroke="#63b8ff" d="M323.01,-63.72C349.56,-63.6 380.75,-63.46 408.41,-63.33"/>
<polygon fill="#63b8ff" stroke="#63b8ff" points="408.44,-66.83 418.43,-63.29 408.41,-59.83 408.44,-66.83"/>
</a>
</g>
</g>
<!-- Node14 -->
<g id="Node000014" class="node">
<title>Node14</title>
<g id="a_Node000014"><a xlink:href="namespacecbrc_1_1perlish.html#a09c31c84f1c49e9e4eef979b815fda72" target="_top" xlink:title=" ">
<polygon fill="white" stroke="#666666" points="546.5,-30 418.5,-30 418.5,0 546.5,0 546.5,-30"/>
<text text-anchor="start" x="426.5" y="-18" font-family="Helvetica,sans-Serif" font-size="10.00">cbrc::perlish::looksLike</text>
<text text-anchor="middle" x="482.5" y="-7" font-family="Helvetica,sans-Serif" font-size="10.00">UnsignedIntCstring</text>
</a>
</g>
</g>
<!-- Node13&#45;&gt;Node14 -->
<g id="edge17_Node000013_Node000014" class="edge">
<title>Node13&#45;&gt;Node14</title>
<g id="a_edge17_Node000013_Node000014"><a xlink:title=" ">
<path fill="none" stroke="#63b8ff" d="M335.04,-19.65C358.58,-18.9 384.6,-18.08 408.09,-17.33"/>
<polygon fill="#63b8ff" stroke="#63b8ff" points="408.46,-20.82 418.34,-17.01 408.24,-13.82 408.46,-20.82"/>
</a>
</g>
</g>
</g>
</svg>

<g id="navigator" transform="translate(0 0)" fill="#404254">
  <rect fill="#f2f5e9" fill-opacity="0.5" stroke="#606060" stroke-width=".5" x="0" y="0" width="60" height="60"/>
  <use id="zoomplus" xlink:href="#zoomPlus" x="17" y="9" onmousedown="handleZoom(evt,'in')"/>
  <use id="zoomminus" xlink:href="#zoomMin" x="42" y="9" onmousedown="handleZoom(evt,'out')"/>
  <use id="reset" xlink:href="#resetDef" x="30" y="36" onmousedown="handleReset()"/>
   <use id="arrowup" xlink:href="#arrowUp" x="0" y="0" onmousedown="handlePan(0,-1)"/>
  <use id="arrowright" xlink:href="#arrowRight" x="0" y="0" onmousedown="handlePan(1,0)"/>
  <use id="arrowdown" xlink:href="#arrowDown" x="0" y="0" onmousedown="handlePan(0,1)"/>
  <use id="arrowleft" xlink:href="#arrowLeft" x="0" y="0" onmousedown="handlePan(-1,0)"/>
</g>
<svg viewBox="0 0 15 15" width="100%" height="30px" preserveAspectRatio="xMaxYMin meet">
 <g id="arrow_out" transform="scale(0.3 0.3)">
  <a xlink:href="namespacecbrc_a21b3d568b029c61ac627788f2c9f16e8_cgraph_org.svg" target="_base">
   <rect id="button" ry="5" rx="5" y="6" x="6" height="38" width="38"
        fill="#f2f5e9" fill-opacity="0.5" stroke="#606060" stroke-width="1.0"/>
   <path id="arrow"
     d="M 11.500037,31.436501 C 11.940474,20.09759 22.043105,11.32322 32.158766,21.979434 L 37.068811,17.246167 C 37.068811,17.246167 37.088388,32 37.088388,32 L 22.160133,31.978069 C 22.160133,31.978069 26.997745,27.140456 26.997745,27.140456 C 18.528582,18.264221 13.291696,25.230495 11.500037,31.436501 z"
     style="fill:#404040;"/>
  </a>
 </g>
</svg>

<style type='text/css'>
<![CDATA[
[data-mouse-over-selected='false'] { opacity: 0.7; }
[data-mouse-over-selected='true']  { opacity: 1.0; }
]]>
</style>
<script type="application/ecmascript"><![CDATA[
document.addEventListener('DOMContentLoaded', (event) => {
  highlightEdges();
  highlightAdjacentNodes();
});
]]></script>
</svg>
