<?xml version="1.0" encoding="UTF-8" standalone="no"?>
<!DOCTYPE svg PUBLIC "-//W3C//DTD SVG 1.1//EN"
 "http://www.w3.org/Graphics/SVG/1.1/DTD/svg11.dtd">
<!-- Generated by graphviz version 2.43.0 (0)
 -->
<!-- Title: cbrc::meminfo::total Pages: 1 -->
<svg width="682pt" height="186pt"
 viewBox="0.00 0.00 682.00 186.00" xmlns="http://www.w3.org/2000/svg" xmlns:xlink="http://www.w3.org/1999/xlink">
<g id="graph0" class="graph" transform="scale(1 1) rotate(0) translate(4 182)">
<title>cbrc::meminfo::total</title>
<!-- Node1 -->
<g id="Node000001" class="node">
<title>Node1</title>
<g id="a_Node000001"><a xlink:title=" ">
<polygon fill="#999999" stroke="#666666" points="116,-77 0,-77 0,-58 116,-58 116,-77"/>
<text text-anchor="middle" x="58" y="-65" font-family="Helvetica,sans-Serif" font-size="10.00">cbrc::meminfo::total</text>
</a>
</g>
</g>
<!-- Node2 -->
<g id="Node000002" class="node">
<title>Node2</title>
<g id="a_Node000002"><a xlink:href="classcbrc_1_1FLEArray.html#a3eba8d1c247ebc9ed3219dd2a3614252" target="_top" xlink:title=" ">
<polygon fill="white" stroke="#666666" points="282,-142 172,-142 172,-123 282,-123 282,-142"/>
<text text-anchor="middle" x="227" y="-130" font-family="Helvetica,sans-Serif" font-size="10.00">cbrc::FLEArray::find</text>
</a>
</g>
</g>
<!-- Node1&#45;&gt;Node2 -->
<g id="edge1_Node000001_Node000002" class="edge">
<title>Node1&#45;&gt;Node2</title>
<g id="a_edge1_Node000001_Node000002"><a xlink:title=" ">
<path fill="none" stroke="#63b8ff" d="M75.67,-77.07C93.93,-87.23 124.3,-103.22 152,-113.5 158.52,-115.92 165.47,-118.14 172.4,-120.15"/>
<polygon fill="#63b8ff" stroke="#63b8ff" points="171.92,-123.65 182.49,-122.94 173.78,-116.9 171.92,-123.65"/>
</a>
</g>
</g>
<!-- Node6 -->
<g id="Node000006" class="node">
<title>Node6</title>
<g id="a_Node000006"><a xlink:href="namespacecbrc_1_1perlish.html#a70769fac33085131b5ad0167e07bade8" target="_top" xlink:title=" ">
<polygon fill="white" stroke="#666666" points="291,-104.5 163,-104.5 163,-74.5 291,-74.5 291,-104.5"/>
<text text-anchor="start" x="171" y="-92.5" font-family="Helvetica,sans-Serif" font-size="10.00">cbrc::perlish::looksLike</text>
<text text-anchor="middle" x="227" y="-81.5" font-family="Helvetica,sans-Serif" font-size="10.00">UnsignedInt</text>
</a>
</g>
</g>
<!-- Node1&#45;&gt;Node6 -->
<g id="edge7_Node000001_Node000006" class="edge">
<title>Node1&#45;&gt;Node6</title>
<g id="a_edge7_Node000001_Node000006"><a xlink:title=" ">
<path fill="none" stroke="#63b8ff" d="M116,-75.01C127.82,-76.57 140.42,-78.23 152.72,-79.85"/>
<polygon fill="#63b8ff" stroke="#63b8ff" points="152.58,-83.36 162.95,-81.19 153.5,-76.42 152.58,-83.36"/>
</a>
</g>
</g>
<!-- Node8 -->
<g id="Node000008" class="node">
<title>Node8</title>
<g id="a_Node000008"><a xlink:href="namespacecbrc_1_1perlish.html#a2a0db2c27f3a19dfdcd7ef17ea5a0bcd" target="_top" xlink:title=" ">
<polygon fill="white" stroke="#666666" points="290,-56 164,-56 164,-37 290,-37 290,-56"/>
<text text-anchor="middle" x="227" y="-44" font-family="Helvetica,sans-Serif" font-size="10.00">cbrc::perlish::slurpLine</text>
</a>
</g>
</g>
<!-- Node1&#45;&gt;Node8 -->
<g id="edge9_Node000001_Node000008" class="edge">
<title>Node1&#45;&gt;Node8</title>
<g id="a_edge9_Node000001_Node000008"><a xlink:title=" ">
<path fill="none" stroke="#63b8ff" d="M116,-60.33C128.16,-58.8 141.15,-57.17 153.78,-55.58"/>
<polygon fill="#63b8ff" stroke="#63b8ff" points="154.33,-59.04 163.82,-54.32 153.46,-52.09 154.33,-59.04"/>
</a>
</g>
</g>
<!-- Node9 -->
<g id="Node000009" class="node">
<title>Node9</title>
<g id="a_Node000009"><a xlink:href="namespacecbrc_1_1perlish.html#a808f5d7e67fdbcd98444453a3aac97f6" target="_top" xlink:title=" ">
<polygon fill="white" stroke="#666666" points="302,-19 152,-19 152,0 302,0 302,-19"/>
<text text-anchor="middle" x="227" y="-7" font-family="Helvetica,sans-Serif" font-size="10.00">cbrc::perlish::toUnsignedInt</text>
</a>
</g>
</g>
<!-- Node1&#45;&gt;Node9 -->
<g id="edge10_Node000001_Node000009" class="edge">
<title>Node1&#45;&gt;Node9</title>
<g id="a_edge10_Node000001_Node000009"><a xlink:title=" ">
<path fill="none" stroke="#63b8ff" d="M78.58,-57.93C97.15,-49.14 125.99,-36.19 152,-27.5 158.32,-25.39 165.02,-23.41 171.7,-21.6"/>
<polygon fill="#63b8ff" stroke="#63b8ff" points="172.64,-24.97 181.44,-19.06 170.88,-18.19 172.64,-24.97"/>
</a>
</g>
</g>
<!-- Node3 -->
<g id="Node000003" class="node">
<title>Node3</title>
<g id="a_Node000003"><a xlink:href="classcbrc_1_1FLEArray.html#a985e9e85d6fc6adf9d3c52a0306361a4" target="_top" xlink:title=" ">
<polygon fill="white" stroke="#666666" points="490,-161 338,-161 338,-142 490,-142 490,-161"/>
<text text-anchor="middle" x="414" y="-149" font-family="Helvetica,sans-Serif" font-size="10.00">cbrc::FLEArray::_validRange</text>
</a>
</g>
</g>
<!-- Node2&#45;&gt;Node3 -->
<g id="edge2_Node000002_Node000003" class="edge">
<title>Node2&#45;&gt;Node3</title>
<g id="a_edge2_Node000002_Node000003"><a xlink:title=" ">
<path fill="none" stroke="#63b8ff" d="M282.01,-138.05C296.35,-139.52 312.21,-141.15 327.78,-142.75"/>
<polygon fill="#63b8ff" stroke="#63b8ff" points="327.65,-146.25 337.96,-143.79 328.37,-139.29 327.65,-146.25"/>
</a>
</g>
</g>
<!-- Node5 -->
<g id="Node000005" class="node">
<title>Node5</title>
<g id="a_Node000005"><a xlink:href="classcbrc_1_1FLEArray.html#a5368c7c0434bd5c119d2cbb39f4b399e" target="_top" xlink:title=" ">
<polygon fill="white" stroke="#666666" points="667.5,-123 532.5,-123 532.5,-104 667.5,-104 667.5,-123"/>
<text text-anchor="middle" x="600" y="-111" font-family="Helvetica,sans-Serif" font-size="10.00">cbrc::FLEArray::FLEArray</text>
</a>
</g>
</g>
<!-- Node2&#45;&gt;Node5 -->
<g id="edge6_Node000002_Node000005" class="edge">
<title>Node2&#45;&gt;Node5</title>
<g id="a_edge6_Node000002_Node000005"><a xlink:title=" ">
<path fill="none" stroke="#63b8ff" d="M282.34,-129.72C345.55,-126.48 450.36,-121.11 521.95,-117.45"/>
<polygon fill="#63b8ff" stroke="#63b8ff" points="522.45,-120.92 532.26,-116.92 522.1,-113.93 522.45,-120.92"/>
</a>
</g>
</g>
<!-- Node4 -->
<g id="Node000004" class="node">
<title>Node4</title>
<g id="a_Node000004"><a xlink:href="classcbrc_1_1FLEArray.html#a0a06120b85cf875ccff4081918fe0f33" target="_top" xlink:title=" ">
<polygon fill="white" stroke="#666666" points="674,-178 526,-178 526,-159 674,-159 674,-178"/>
<text text-anchor="middle" x="600" y="-166" font-family="Helvetica,sans-Serif" font-size="10.00">cbrc::FLEArray::_validIndex</text>
</a>
</g>
</g>
<!-- Node3&#45;&gt;Node4 -->
<g id="edge3_Node000003_Node000004" class="edge">
<title>Node3&#45;&gt;Node4</title>
<g id="a_edge3_Node000003_Node000004"><a xlink:title=" ">
<path fill="none" stroke="#63b8ff" d="M490.11,-158.44C498.6,-159.22 507.3,-160.03 515.9,-160.82"/>
<polygon fill="#63b8ff" stroke="#63b8ff" points="515.64,-164.31 525.92,-161.75 516.28,-157.34 515.64,-164.31"/>
</a>
</g>
</g>
<!-- Node3&#45;&gt;Node5 -->
<g id="edge4_Node000003_Node000005" class="edge">
<title>Node3&#45;&gt;Node5</title>
<g id="a_edge4_Node000003_Node000005"><a xlink:title=" ">
<path fill="none" stroke="#63b8ff" d="M461.43,-141.91C486.15,-136.81 516.74,-130.49 542.79,-125.11"/>
<polygon fill="#63b8ff" stroke="#63b8ff" points="543.82,-128.47 552.9,-123.02 542.4,-121.61 543.82,-128.47"/>
</a>
</g>
</g>
<!-- Node5&#45;&gt;Node5 -->
<g id="edge5_Node000005_Node000005" class="edge">
<title>Node5&#45;&gt;Node5</title>
<g id="a_edge5_Node000005_Node000005"><a xlink:title=" ">
<path fill="none" stroke="#63b8ff" d="M571.33,-123.08C557.39,-131.73 566.94,-141 600,-141 622.73,-141 634.35,-136.62 634.86,-131.07"/>
<polygon fill="#63b8ff" stroke="#63b8ff" points="637.56,-128.84 628.67,-123.08 632.03,-133.13 637.56,-128.84"/>
</a>
</g>
</g>
<!-- Node7 -->
<g id="Node000007" class="node">
<title>Node7</title>
<g id="a_Node000007"><a xlink:href="namespacecbrc_1_1perlish.html#a09c31c84f1c49e9e4eef979b815fda72" target="_top" xlink:title=" ">
<polygon fill="white" stroke="#666666" points="478,-64.5 350,-64.5 350,-34.5 478,-34.5 478,-64.5"/>
<text text-anchor="start" x="358" y="-52.5" font-family="Helvetica,sans-Serif" font-size="10.00">cbrc::perlish::looksLike</text>
<text text-anchor="middle" x="414" y="-41.5" font-family="Helvetica,sans-Serif" font-size="10.00">UnsignedIntCstring</text>
</a>
</g>
</g>
<!-- Node6&#45;&gt;Node7 -->
<g id="edge8_Node000006_Node000007" class="edge">
<title>Node6&#45;&gt;Node7</title>
<g id="a_edge8_Node000006_Node000007"><a xlink:title=" ">
<path fill="none" stroke="#63b8ff" d="M291.15,-75.85C306.84,-72.45 323.79,-68.79 339.91,-65.3"/>
<polygon fill="#63b8ff" stroke="#63b8ff" points="340.79,-68.69 349.82,-63.16 339.31,-61.85 340.79,-68.69"/>
</a>
</g>
</g>
<!-- Node9&#45;&gt;Node7 -->
<g id="edge11_Node000009_Node000007" class="edge">
<title>Node9&#45;&gt;Node7</title>
<g id="a_edge11_Node000009_Node000007"><a xlink:title=" ">
<path fill="none" stroke="#63b8ff" d="M272.31,-19.08C292.52,-23.45 316.98,-28.74 339.8,-33.67"/>
<polygon fill="#63b8ff" stroke="#63b8ff" points="339.29,-37.14 349.81,-35.84 340.77,-30.3 339.29,-37.14"/>
</a>
</g>
</g>
</g>
</svg>
