<?xml version="1.0" encoding="UTF-8" standalone="no"?>
<!DOCTYPE svg PUBLIC "-//W3C//DTD SVG 1.1//EN"
 "http://www.w3.org/Graphics/SVG/1.1/DTD/svg11.dtd">
<!-- Generated by graphviz version 2.43.0 (0)
 -->
<!-- Title: cbrc::perlish::slurpLine Pages: 1 -->
<svg width="698pt" height="921pt"
 viewBox="0.00 0.00 698.00 921.00" xmlns="http://www.w3.org/2000/svg" xmlns:xlink="http://www.w3.org/1999/xlink">
<g id="graph0" class="graph" transform="scale(1 1) rotate(0) translate(4 917)">
<title>cbrc::perlish::slurpLine</title>
<!-- Node1 -->
<g id="Node000001" class="node">
<title>Node1</title>
<g id="a_Node000001"><a xlink:title=" ">
<polygon fill="#999999" stroke="#666666" points="690,-459.5 564,-459.5 564,-440.5 690,-440.5 690,-459.5"/>
<text text-anchor="middle" x="627" y="-447.5" font-family="Helvetica,sans-Serif" font-size="10.00">cbrc::perlish::slurpLine</text>
</a>
</g>
</g>
<!-- Node2 -->
<g id="Node000002" class="node">
<title>Node2</title>
<g id="a_Node000002"><a xlink:href="namespacecbrc.html#a37cbf166beb0abee738f195483d83344" target="_top" xlink:title=" ">
<polygon fill="white" stroke="#666666" points="514.5,-913 337.5,-913 337.5,-883 514.5,-883 514.5,-913"/>
<text text-anchor="start" x="345.5" y="-901" font-family="Helvetica,sans-Serif" font-size="10.00">cbrc::convertMultipleEdge</text>
<text text-anchor="middle" x="426" y="-890" font-family="Helvetica,sans-Serif" font-size="10.00">PerLineToOneEdgePerLineFormat</text>
</a>
</g>
</g>
<!-- Node1&#45;&gt;Node2 -->
<g id="edge1_Node000001_Node000002" class="edge">
<title>Node1&#45;&gt;Node2</title>
<g id="a_edge1_Node000001_Node000002"><a xlink:title=" ">
<path fill="none" stroke="#63b8ff" d="M624.18,-469.59C616.78,-544.97 586.51,-815.13 528,-874 524.06,-877.96 519.6,-881.32 514.79,-884.15"/>
<polygon fill="#63b8ff" stroke="#63b8ff" points="627.67,-469.86 625.14,-459.57 620.7,-469.19 627.67,-469.86"/>
</a>
</g>
</g>
<!-- Node4 -->
<g id="Node000004" class="node">
<title>Node4</title>
<g id="a_Node000004"><a xlink:href="namespacecbrc.html#a63da722ab9af7fef0a7ff9efef851f89" target="_top" xlink:title=" ">
<polygon fill="white" stroke="#666666" points="489.5,-865 362.5,-865 362.5,-835 489.5,-835 489.5,-865"/>
<text text-anchor="start" x="370.5" y="-853" font-family="Helvetica,sans-Serif" font-size="10.00">cbrc::filterBlast8Result</text>
<text text-anchor="middle" x="426" y="-842" font-family="Helvetica,sans-Serif" font-size="10.00">EValueThreshold</text>
</a>
</g>
</g>
<!-- Node1&#45;&gt;Node4 -->
<g id="edge3_Node000001_Node000004" class="edge">
<title>Node1&#45;&gt;Node4</title>
<g id="a_edge3_Node000001_Node000004"><a xlink:title=" ">
<path fill="none" stroke="#63b8ff" d="M623.56,-469.57C614.48,-539.38 580.41,-774.72 528,-826 517.63,-836.15 503.8,-842.29 489.7,-845.93"/>
<polygon fill="#63b8ff" stroke="#63b8ff" points="627.05,-469.88 624.85,-459.51 620.11,-468.99 627.05,-469.88"/>
</a>
</g>
</g>
<!-- Node6 -->
<g id="Node000006" class="node">
<title>Node6</title>
<g id="a_Node000006"><a xlink:href="namespacecbrc.html#a69d7192d0249221a368646d4fe103642" target="_top" xlink:title=" ">
<polygon fill="white" stroke="#666666" points="268,-725.5 97,-725.5 97,-706.5 268,-706.5 268,-725.5"/>
<text text-anchor="middle" x="182.5" y="-713.5" font-family="Helvetica,sans-Serif" font-size="10.00">cbrc::listConnectedComponents</text>
</a>
</g>
</g>
<!-- Node1&#45;&gt;Node6 -->
<g id="edge5_Node000001_Node000006" class="edge">
<title>Node1&#45;&gt;Node6</title>
<g id="a_edge5_Node000001_Node000006"><a xlink:title=" ">
<path fill="none" stroke="#63b8ff" d="M626.43,-469.82C626.39,-524.11 617.89,-675.49 528,-740 454.34,-792.86 414.34,-747.66 324,-740 306.86,-738.55 266.91,-731.6 233.98,-725.55"/>
<polygon fill="#63b8ff" stroke="#63b8ff" points="629.93,-469.74 626.33,-459.77 622.93,-469.8 629.93,-469.74"/>
</a>
</g>
</g>
<!-- Node8 -->
<g id="Node000008" class="node">
<title>Node8</title>
<g id="a_Node000008"><a xlink:href="classcbrc_1_1TransfacReader.html#a3098435fd650f3842c6f9c315fcd92a3" target="_top" xlink:title=" ">
<polygon fill="white" stroke="#666666" points="485,-817 367,-817 367,-787 485,-787 485,-817"/>
<text text-anchor="start" x="375" y="-805" font-family="Helvetica,sans-Serif" font-size="10.00">cbrc::TransfacReader</text>
<text text-anchor="middle" x="426" y="-794" font-family="Helvetica,sans-Serif" font-size="10.00">::nextNonBlankLine</text>
</a>
</g>
</g>
<!-- Node1&#45;&gt;Node8 -->
<g id="edge7_Node000001_Node000008" class="edge">
<title>Node1&#45;&gt;Node8</title>
<g id="a_edge7_Node000001_Node000008"><a xlink:title=" ">
<path fill="none" stroke="#63b8ff" d="M626.13,-469.87C625.37,-525.96 615.3,-687 528,-773 516.43,-784.39 500.7,-791.37 485.1,-795.63"/>
<polygon fill="#63b8ff" stroke="#63b8ff" points="629.63,-469.58 626.17,-459.56 622.63,-469.55 629.63,-469.58"/>
</a>
</g>
</g>
<!-- Node11 -->
<g id="Node000011" class="node">
<title>Node11</title>
<g id="a_Node000011"><a xlink:href="classcbrc_1_1OneEdgePerLineFormat.html#a1ba6e59128b65550ff5b7fd783a6b676" target="_top" xlink:title=" ">
<polygon fill="white" stroke="#666666" points="504.5,-731 347.5,-731 347.5,-701 504.5,-701 504.5,-731"/>
<text text-anchor="start" x="355.5" y="-719" font-family="Helvetica,sans-Serif" font-size="10.00">cbrc::OneEdgePerLineFormat</text>
<text text-anchor="middle" x="426" y="-708" font-family="Helvetica,sans-Serif" font-size="10.00">::numNodesInStream</text>
</a>
</g>
</g>
<!-- Node1&#45;&gt;Node11 -->
<g id="edge10_Node000001_Node000011" class="edge">
<title>Node1&#45;&gt;Node11</title>
<g id="a_edge10_Node000001_Node000011"><a xlink:title=" ">
<path fill="none" stroke="#63b8ff" d="M623.61,-469.88C617.08,-515.31 594.73,-627.38 528,-687 521.2,-693.08 513.2,-697.89 504.73,-701.69"/>
<polygon fill="#63b8ff" stroke="#63b8ff" points="627.1,-470.22 624.95,-459.84 620.16,-469.29 627.1,-470.22"/>
</a>
</g>
</g>
<!-- Node12 -->
<g id="Node000012" class="node">
<title>Node12</title>
<g id="a_Node000012"><a xlink:href="namespacecbrc.html#a86fc3ad7bc4b49f407604ce1d0c71e7e" target="_top" xlink:title=" ">
<polygon fill="white" stroke="#666666" points="272.5,-688 92.5,-688 92.5,-658 272.5,-658 272.5,-688"/>
<text text-anchor="start" x="100.5" y="-676" font-family="Helvetica,sans-Serif" font-size="10.00">cbrc::printRandomRepresentative</text>
<text text-anchor="middle" x="182.5" y="-665" font-family="Helvetica,sans-Serif" font-size="10.00">FromEachConnectedComponent</text>
</a>
</g>
</g>
<!-- Node1&#45;&gt;Node12 -->
<g id="edge14_Node000001_Node000012" class="edge">
<title>Node1&#45;&gt;Node12</title>
<g id="a_edge14_Node000001_Node000012"><a xlink:title=" ">
<path fill="none" stroke="#63b8ff" d="M623.18,-469.83C616,-512.1 592.78,-610.72 528,-654 487.72,-680.91 360.81,-681.4 272.82,-678.11"/>
<polygon fill="#63b8ff" stroke="#63b8ff" points="626.64,-470.35 624.74,-459.93 619.73,-469.27 626.64,-470.35"/>
</a>
</g>
</g>
<!-- Node14 -->
<g id="Node000014" class="node">
<title>Node14</title>
<g id="a_Node000014"><a xlink:href="classcbrc_1_1MatrixGraph.html#a32a503187de195192db021525be8ac1b" target="_top" xlink:title=" ">
<polygon fill="white" stroke="#666666" points="505,-644.5 347,-644.5 347,-603.5 505,-603.5 505,-644.5"/>
<text text-anchor="start" x="355" y="-632.5" font-family="Helvetica,sans-Serif" font-size="10.00">cbrc::MatrixGraph::</text>
<text text-anchor="start" x="355" y="-621.5" font-family="Helvetica,sans-Serif" font-size="10.00">readContinuousIntegerNodes</text>
<text text-anchor="middle" x="426" y="-610.5" font-family="Helvetica,sans-Serif" font-size="10.00">Format</text>
</a>
</g>
</g>
<!-- Node1&#45;&gt;Node14 -->
<g id="edge15_Node000001_Node000014" class="edge">
<title>Node1&#45;&gt;Node14</title>
<g id="a_edge15_Node000001_Node000014"><a xlink:title=" ">
<path fill="none" stroke="#63b8ff" d="M618.21,-468.98C604.56,-499.85 573.41,-560.82 528,-594 521.06,-599.07 513.26,-603.29 505.16,-606.8"/>
<polygon fill="#63b8ff" stroke="#63b8ff" points="621.44,-470.32 622.16,-459.75 615.01,-467.56 621.44,-470.32"/>
</a>
</g>
</g>
<!-- Node16 -->
<g id="Node000016" class="node">
<title>Node16</title>
<g id="a_Node000016"><a xlink:href="classcbrc_1_1MatrixGraph.html#ade9e70ed22be1e11a6675ace517c701d" target="_top" xlink:title=" ">
<polygon fill="white" stroke="#666666" points="517,-585 335,-585 335,-555 517,-555 517,-585"/>
<text text-anchor="start" x="343" y="-573" font-family="Helvetica,sans-Serif" font-size="10.00">cbrc::MatrixGraph::</text>
<text text-anchor="middle" x="426" y="-562" font-family="Helvetica,sans-Serif" font-size="10.00">readEdgesOneEdgePerLineFormat</text>
</a>
</g>
</g>
<!-- Node1&#45;&gt;Node16 -->
<g id="edge17_Node000001_Node000016" class="edge">
<title>Node1&#45;&gt;Node16</title>
<g id="a_edge17_Node000001_Node000016"><a xlink:title=" ">
<path fill="none" stroke="#63b8ff" d="M612.93,-467.73C595.88,-489.56 563.92,-526.18 528,-546 521.77,-549.44 515.05,-552.39 508.15,-554.92"/>
<polygon fill="#63b8ff" stroke="#63b8ff" points="615.83,-469.71 619.11,-459.63 610.26,-465.46 615.83,-469.71"/>
</a>
</g>
</g>
<!-- Node17 -->
<g id="Node000017" class="node">
<title>Node17</title>
<g id="a_Node000017"><a xlink:href="classcbrc_1_1FLSorted2TypePairSet.html#a9d7ed855620c0018ef8f7077bd2bf58b" target="_top" xlink:title=" ">
<polygon fill="white" stroke="#666666" points="500,-537 352,-537 352,-507 500,-507 500,-537"/>
<text text-anchor="start" x="360" y="-525" font-family="Helvetica,sans-Serif" font-size="10.00">cbrc::FLSorted2TypePairSet</text>
<text text-anchor="middle" x="426" y="-514" font-family="Helvetica,sans-Serif" font-size="10.00">::readFromTextFile</text>
</a>
</g>
</g>
<!-- Node1&#45;&gt;Node17 -->
<g id="edge18_Node000001_Node000017" class="edge">
<title>Node1&#45;&gt;Node17</title>
<g id="a_edge18_Node000001_Node000017"><a xlink:title=" ">
<path fill="none" stroke="#63b8ff" d="M600.34,-464.53C580.96,-475.02 553.44,-488.88 528,-498 518.75,-501.32 508.87,-504.31 499.03,-506.96"/>
<polygon fill="#63b8ff" stroke="#63b8ff" points="602.07,-467.57 609.16,-459.69 598.71,-461.43 602.07,-467.57"/>
</a>
</g>
</g>
<!-- Node19 -->
<g id="Node000019" class="node">
<title>Node19</title>
<g id="a_Node000019"><a xlink:href="classcbrc_1_1SortedTagSet.html#afb8e8a80ac993c965a5c4354b020acfe" target="_top" xlink:title=" ">
<polygon fill="white" stroke="#666666" points="488.5,-489 363.5,-489 363.5,-459 488.5,-459 488.5,-489"/>
<text text-anchor="start" x="371.5" y="-477" font-family="Helvetica,sans-Serif" font-size="10.00">cbrc::SortedTagSet</text>
<text text-anchor="middle" x="426" y="-466" font-family="Helvetica,sans-Serif" font-size="10.00">::readFromTextStream</text>
</a>
</g>
</g>
<!-- Node1&#45;&gt;Node19 -->
<g id="edge20_Node000001_Node000019" class="edge">
<title>Node1&#45;&gt;Node19</title>
<g id="a_edge20_Node000001_Node000019"><a xlink:title=" ">
<path fill="none" stroke="#63b8ff" d="M553.86,-458.7C532.5,-461.28 509.31,-464.07 488.68,-466.56"/>
<polygon fill="#63b8ff" stroke="#63b8ff" points="554.34,-462.17 563.85,-457.5 553.51,-455.22 554.34,-462.17"/>
</a>
</g>
</g>
<!-- Node21 -->
<g id="Node000021" class="node">
<title>Node21</title>
<g id="a_Node000021"><a xlink:href="classcbrc_1_1TagSet.html#a1971c9ff8bfc61ca844762cd3e8703b5" target="_top" xlink:title=" ">
<polygon fill="white" stroke="#666666" points="500,-441 352,-441 352,-411 500,-411 500,-441"/>
<text text-anchor="start" x="360" y="-429" font-family="Helvetica,sans-Serif" font-size="10.00">cbrc::TagSet::readFromText</text>
<text text-anchor="middle" x="426" y="-418" font-family="Helvetica,sans-Serif" font-size="10.00">Stream</text>
</a>
</g>
</g>
<!-- Node1&#45;&gt;Node21 -->
<g id="edge22_Node000001_Node000021" class="edge">
<title>Node1&#45;&gt;Node21</title>
<g id="a_edge22_Node000001_Node000021"><a xlink:title=" ">
<path fill="none" stroke="#63b8ff" d="M553.74,-441.29C536.3,-439.18 517.65,-436.93 500.17,-434.82"/>
<polygon fill="#63b8ff" stroke="#63b8ff" points="553.51,-444.78 563.85,-442.5 554.34,-437.83 553.51,-444.78"/>
</a>
</g>
</g>
<!-- Node23 -->
<g id="Node000023" class="node">
<title>Node23</title>
<g id="a_Node000023"><a xlink:href="classcbrc_1_1NeighborListGraph.html#abbd45bbda58cea747cb90e3a7feafdfd" target="_top" xlink:title=" ">
<polygon fill="white" stroke="#666666" points="505,-393 347,-393 347,-363 505,-363 505,-393"/>
<text text-anchor="start" x="355" y="-381" font-family="Helvetica,sans-Serif" font-size="10.00">cbrc::NeighborListGraph</text>
<text text-anchor="middle" x="426" y="-370" font-family="Helvetica,sans-Serif" font-size="10.00">::readOneEdgePerLineFormat</text>
</a>
</g>
</g>
<!-- Node1&#45;&gt;Node23 -->
<g id="edge24_Node000001_Node000023" class="edge">
<title>Node1&#45;&gt;Node23</title>
<g id="a_edge24_Node000001_Node000023"><a xlink:title=" ">
<path fill="none" stroke="#63b8ff" d="M600.34,-435.47C580.96,-424.98 553.44,-411.12 528,-402 518.75,-398.68 508.87,-395.69 499.03,-393.04"/>
<polygon fill="#63b8ff" stroke="#63b8ff" points="598.71,-438.57 609.16,-440.31 602.07,-432.43 598.71,-438.57"/>
</a>
</g>
</g>
<!-- Node24 -->
<g id="Node000024" class="node">
<title>Node24</title>
<g id="a_Node000024"><a xlink:href="classcbrc_1_1KnapsackObjectVector.html#a914589f83d2ffdad1edc38d614fe979d" target="_top" xlink:title=" ">
<polygon fill="white" stroke="#666666" points="502,-345 350,-345 350,-315 502,-315 502,-345"/>
<text text-anchor="start" x="358" y="-333" font-family="Helvetica,sans-Serif" font-size="10.00">cbrc::KnapsackObjectVector</text>
<text text-anchor="middle" x="426" y="-322" font-family="Helvetica,sans-Serif" font-size="10.00">::readText_idsFrom0</text>
</a>
</g>
</g>
<!-- Node1&#45;&gt;Node24 -->
<g id="edge25_Node000001_Node000024" class="edge">
<title>Node1&#45;&gt;Node24</title>
<g id="a_edge25_Node000001_Node000024"><a xlink:title=" ">
<path fill="none" stroke="#63b8ff" d="M612.93,-432.27C595.88,-410.44 563.92,-373.82 528,-354 519.95,-349.56 511.1,-345.94 502.09,-342.98"/>
<polygon fill="#63b8ff" stroke="#63b8ff" points="610.26,-434.54 619.11,-440.37 615.83,-430.29 610.26,-434.54"/>
</a>
</g>
</g>
<!-- Node26 -->
<g id="Node000026" class="node">
<title>Node26</title>
<g id="a_Node000026"><a xlink:href="classcbrc_1_1RecountTagCounts.html#ad11bd14698ea4628067edf0059a25c68" target="_top" xlink:title=" ">
<polygon fill="white" stroke="#666666" points="492.5,-297 359.5,-297 359.5,-267 492.5,-267 492.5,-297"/>
<text text-anchor="start" x="367.5" y="-285" font-family="Helvetica,sans-Serif" font-size="10.00">cbrc::RecountTagCounts</text>
<text text-anchor="middle" x="426" y="-274" font-family="Helvetica,sans-Serif" font-size="10.00">::RecountTagCounts</text>
</a>
</g>
</g>
<!-- Node1&#45;&gt;Node26 -->
<g id="edge27_Node000001_Node000026" class="edge">
<title>Node1&#45;&gt;Node26</title>
<g id="a_edge27_Node000001_Node000026"><a xlink:title=" ">
<path fill="none" stroke="#63b8ff" d="M618.6,-431.19C605.35,-400.05 574.54,-338.06 528,-306 517.54,-298.79 505.18,-293.73 492.76,-290.19"/>
<polygon fill="#63b8ff" stroke="#63b8ff" points="615.38,-432.56 622.42,-440.47 621.86,-429.89 615.38,-432.56"/>
</a>
</g>
</g>
<!-- Node27 -->
<g id="Node000027" class="node">
<title>Node27</title>
<g id="a_Node000027"><a xlink:href="classcbrc_1_1RecountTagCounts.html#a5e025f710ef06a603501aeead7a98924" target="_top" xlink:title=" ">
<polygon fill="white" stroke="#666666" points="492.5,-249 359.5,-249 359.5,-219 492.5,-219 492.5,-249"/>
<text text-anchor="start" x="367.5" y="-237" font-family="Helvetica,sans-Serif" font-size="10.00">cbrc::RecountTagCounts</text>
<text text-anchor="middle" x="426" y="-226" font-family="Helvetica,sans-Serif" font-size="10.00">::RecountTagCounts</text>
</a>
</g>
</g>
<!-- Node1&#45;&gt;Node27 -->
<g id="edge28_Node000001_Node000027" class="edge">
<title>Node1&#45;&gt;Node27</title>
<g id="a_edge28_Node000001_Node000027"><a xlink:title=" ">
<path fill="none" stroke="#63b8ff" d="M621.76,-430.29C612.26,-391.06 585.44,-303.14 528,-258 517.8,-249.98 505.34,-244.58 492.71,-240.95"/>
<polygon fill="#63b8ff" stroke="#63b8ff" points="618.39,-431.23 624.04,-440.19 625.21,-429.66 618.39,-431.23"/>
</a>
</g>
</g>
<!-- Node28 -->
<g id="Node000028" class="node">
<title>Node28</title>
<g id="a_Node000028"><a xlink:href="classcbrc_1_1Blast8Result.html#af12163e9dc07186966f7957a418d2149" target="_top" xlink:title=" ">
<polygon fill="white" stroke="#666666" points="478,-201 374,-201 374,-171 478,-171 478,-201"/>
<text text-anchor="start" x="382" y="-189" font-family="Helvetica,sans-Serif" font-size="10.00">cbrc::Blast8Result</text>
<text text-anchor="middle" x="426" y="-178" font-family="Helvetica,sans-Serif" font-size="10.00">::setFromStream</text>
</a>
</g>
</g>
<!-- Node1&#45;&gt;Node28 -->
<g id="edge29_Node000001_Node000028" class="edge">
<title>Node1&#45;&gt;Node28</title>
<g id="a_edge29_Node000001_Node000028"><a xlink:title=" ">
<path fill="none" stroke="#63b8ff" d="M623.97,-430.29C618.12,-384.25 597.01,-269.1 528,-210 514.17,-198.16 495.54,-191.93 478.04,-188.72"/>
<polygon fill="#63b8ff" stroke="#63b8ff" points="620.51,-430.9 625.14,-440.43 627.47,-430.09 620.51,-430.9"/>
</a>
</g>
</g>
<!-- Node29 -->
<g id="Node000029" class="node">
<title>Node29</title>
<g id="a_Node000029"><a xlink:href="classcbrc_1_1ConstantLabeledSquareDoubleFLENumMatrix.html#ad7db3f1395829b77b3c9ad8b5edb7d21" target="_top" xlink:title=" ">
<polygon fill="white" stroke="#666666" points="528,-153 324,-153 324,-123 528,-123 528,-153"/>
<text text-anchor="start" x="332" y="-141" font-family="Helvetica,sans-Serif" font-size="10.00">cbrc::ConstantLabeledSquare</text>
<text text-anchor="middle" x="426" y="-130" font-family="Helvetica,sans-Serif" font-size="10.00">DoubleFLENumMatrix::setFromStream</text>
</a>
</g>
</g>
<!-- Node1&#45;&gt;Node29 -->
<g id="edge30_Node000001_Node000029" class="edge">
<title>Node1&#45;&gt;Node29</title>
<g id="a_edge30_Node000001_Node000029"><a xlink:title=" ">
<path fill="none" stroke="#63b8ff" d="M625.47,-430.01C622.95,-377.62 608.64,-235.34 528,-162 524.27,-158.6 520.14,-155.66 515.76,-153.12"/>
<polygon fill="#63b8ff" stroke="#63b8ff" points="621.98,-430.42 625.86,-440.28 628.98,-430.16 621.98,-430.42"/>
</a>
</g>
</g>
<!-- Node32 -->
<g id="Node000032" class="node">
<title>Node32</title>
<g id="a_Node000032"><a xlink:href="namespacecbrc_1_1perlish.html#aeeb0df817545ad41f62e032d775f40b3" target="_top" xlink:title=" ">
<polygon fill="white" stroke="#666666" points="499,-104.5 353,-104.5 353,-85.5 499,-85.5 499,-104.5"/>
<text text-anchor="middle" x="426" y="-92.5" font-family="Helvetica,sans-Serif" font-size="10.00">cbrc::perlish::slurpAndSplit</text>
</a>
</g>
</g>
<!-- Node1&#45;&gt;Node32 -->
<g id="edge33_Node000001_Node000032" class="edge">
<title>Node1&#45;&gt;Node32</title>
<g id="a_edge33_Node000001_Node000032"><a xlink:title=" ">
<path fill="none" stroke="#63b8ff" d="M626.79,-430.44C627.97,-372.43 622.96,-200.09 528,-114 519.87,-106.63 509.82,-101.7 499.24,-98.47"/>
<polygon fill="#63b8ff" stroke="#63b8ff" points="623.29,-430.35 626.49,-440.45 630.28,-430.56 623.29,-430.35"/>
</a>
</g>
</g>
<!-- Node33 -->
<g id="Node000033" class="node">
<title>Node33</title>
<g id="a_Node000033"><a xlink:href="namespacecbrc_1_1meminfo.html#aafede38599a54b64aebbb926ca8025ad" target="_top" xlink:title=" ">
<polygon fill="white" stroke="#666666" points="484,-67.5 368,-67.5 368,-48.5 484,-48.5 484,-67.5"/>
<text text-anchor="middle" x="426" y="-55.5" font-family="Helvetica,sans-Serif" font-size="10.00">cbrc::meminfo::total</text>
</a>
</g>
</g>
<!-- Node1&#45;&gt;Node33 -->
<g id="edge34_Node000001_Node000033" class="edge">
<title>Node1&#45;&gt;Node33</title>
<g id="a_edge34_Node000001_Node000033"><a xlink:title=" ">
<path fill="none" stroke="#63b8ff" d="M623.64,-430.43C614.84,-360.64 581.61,-125.49 528,-76 516.16,-65.07 500.06,-59.61 484.21,-57.13"/>
<polygon fill="#63b8ff" stroke="#63b8ff" points="620.19,-430.99 624.89,-440.49 627.13,-430.13 620.19,-430.99"/>
</a>
</g>
</g>
<!-- Node34 -->
<g id="Node000034" class="node">
<title>Node34</title>
<g id="a_Node000034"><a xlink:href="classcbrc_1_1RecountNeighborProbGraphWriter.html#a91446e90c2d07ea6575be9a8e8c987eb" target="_top" xlink:title=" ">
<polygon fill="white" stroke="#666666" points="500.5,-30 351.5,-30 351.5,0 500.5,0 500.5,-30"/>
<text text-anchor="start" x="359.5" y="-18" font-family="Helvetica,sans-Serif" font-size="10.00">cbrc::RecountNeighborProb</text>
<text text-anchor="middle" x="426" y="-7" font-family="Helvetica,sans-Serif" font-size="10.00">GraphWriter::write</text>
</a>
</g>
</g>
<!-- Node1&#45;&gt;Node34 -->
<g id="edge35_Node000001_Node000034" class="edge">
<title>Node1&#45;&gt;Node34</title>
<g id="a_edge35_Node000001_Node000034"><a xlink:title=" ">
<path fill="none" stroke="#63b8ff" d="M623.99,-430.07C616.08,-355.7 584.77,-95.72 528,-39 520.35,-31.36 510.74,-25.98 500.5,-22.22"/>
<polygon fill="#63b8ff" stroke="#63b8ff" points="620.54,-430.77 625.06,-440.36 627.5,-430.05 620.54,-430.77"/>
</a>
</g>
</g>
<!-- Node3 -->
<g id="Node000003" class="node">
<title>Node3</title>
<g id="a_Node000003"><a xlink:href="graph_2run_2convertMultipleEdgePerLineToOneEdgePerLineFormat_8cc.html#ac0f2228420376f4db7e1274f2b41667c" target="_top" xlink:title=" ">
<polygon fill="white" stroke="#666666" points="203,-907.5 162,-907.5 162,-888.5 203,-888.5 203,-907.5"/>
<text text-anchor="middle" x="182.5" y="-895.5" font-family="Helvetica,sans-Serif" font-size="10.00">main</text>
</a>
</g>
</g>
<!-- Node2&#45;&gt;Node3 -->
<g id="edge2_Node000002_Node000003" class="edge">
<title>Node2&#45;&gt;Node3</title>
<g id="a_edge2_Node000002_Node000003"><a xlink:title=" ">
<path fill="none" stroke="#63b8ff" d="M327.41,-898C281.3,-898 230.5,-898 203.3,-898"/>
<polygon fill="#63b8ff" stroke="#63b8ff" points="327.47,-901.5 337.47,-898 327.47,-894.5 327.47,-901.5"/>
</a>
</g>
</g>
<!-- Node5 -->
<g id="Node000005" class="node">
<title>Node5</title>
<g id="a_Node000005"><a xlink:href="filterBlast8ResultEValueThreshold_8cc.html#a217dbf8b442f20279ea00b898af96f52" target="_top" xlink:title=" ">
<polygon fill="white" stroke="#666666" points="203,-859.5 162,-859.5 162,-840.5 203,-840.5 203,-859.5"/>
<text text-anchor="middle" x="182.5" y="-847.5" font-family="Helvetica,sans-Serif" font-size="10.00">main</text>
</a>
</g>
</g>
<!-- Node4&#45;&gt;Node5 -->
<g id="edge4_Node000004_Node000005" class="edge">
<title>Node4&#45;&gt;Node5</title>
<g id="a_edge4_Node000004_Node000005"><a xlink:title=" ">
<path fill="none" stroke="#63b8ff" d="M352.37,-850C300.77,-850 235.14,-850 203.01,-850"/>
<polygon fill="#63b8ff" stroke="#63b8ff" points="352.49,-853.5 362.49,-850 352.49,-846.5 352.49,-853.5"/>
</a>
</g>
</g>
<!-- Node7 -->
<g id="Node000007" class="node">
<title>Node7</title>
<g id="a_Node000007"><a xlink:href="graph_2run_2listConnectedComponents_8cc.html#a3c04138a5bfe5d72780bb7e82a18e627" target="_top" xlink:title=" ">
<polygon fill="white" stroke="#666666" points="41,-725.5 0,-725.5 0,-706.5 41,-706.5 41,-725.5"/>
<text text-anchor="middle" x="20.5" y="-713.5" font-family="Helvetica,sans-Serif" font-size="10.00">main</text>
</a>
</g>
</g>
<!-- Node6&#45;&gt;Node7 -->
<g id="edge6_Node000006_Node000007" class="edge">
<title>Node6&#45;&gt;Node7</title>
<g id="a_edge6_Node000006_Node000007"><a xlink:title=" ">
<path fill="none" stroke="#63b8ff" d="M86.62,-716C69.44,-716 53.22,-716 41.26,-716"/>
<polygon fill="#63b8ff" stroke="#63b8ff" points="86.81,-719.5 96.81,-716 86.81,-712.5 86.81,-719.5"/>
</a>
</g>
</g>
<!-- Node9 -->
<g id="Node000009" class="node">
<title>Node9</title>
<g id="a_Node000009"><a xlink:href="classcbrc_1_1TransfacReader.html#a0b57f4fd735dffc81814974f7e398600" target="_top" xlink:title=" ">
<polygon fill="white" stroke="#666666" points="241.5,-774 123.5,-774 123.5,-744 241.5,-744 241.5,-774"/>
<text text-anchor="start" x="131.5" y="-762" font-family="Helvetica,sans-Serif" font-size="10.00">cbrc::TransfacReader</text>
<text text-anchor="middle" x="182.5" y="-751" font-family="Helvetica,sans-Serif" font-size="10.00">::readRecord</text>
</a>
</g>
</g>
<!-- Node8&#45;&gt;Node9 -->
<g id="edge8_Node000008_Node000009" class="edge">
<title>Node8&#45;&gt;Node9</title>
<g id="a_edge8_Node000008_Node000009"><a xlink:title=" ">
<path fill="none" stroke="#63b8ff" d="M356.82,-789.86C320.48,-783.39 276.25,-775.51 241.57,-769.34"/>
<polygon fill="#63b8ff" stroke="#63b8ff" points="356.39,-793.34 366.85,-791.65 357.62,-786.45 356.39,-793.34"/>
</a>
</g>
</g>
<!-- Node10 -->
<g id="Node000010" class="node">
<title>Node10</title>
<g id="a_Node000010"><a xlink:href="classcbrc_1_1TransfacReader.html#a3ed093ad4430cbb06ab8f58473f88ca3" target="_top" xlink:title=" ">
<polygon fill="white" stroke="#666666" points="241.5,-822 123.5,-822 123.5,-792 241.5,-792 241.5,-822"/>
<text text-anchor="start" x="131.5" y="-810" font-family="Helvetica,sans-Serif" font-size="10.00">cbrc::TransfacReader</text>
<text text-anchor="middle" x="182.5" y="-799" font-family="Helvetica,sans-Serif" font-size="10.00">::TransfacReader</text>
</a>
</g>
</g>
<!-- Node8&#45;&gt;Node10 -->
<g id="edge9_Node000008_Node000010" class="edge">
<title>Node8&#45;&gt;Node10</title>
<g id="a_edge9_Node000008_Node000010"><a xlink:title=" ">
<path fill="none" stroke="#63b8ff" d="M356.82,-803.41C320.48,-804.16 276.25,-805.08 241.57,-805.8"/>
<polygon fill="#63b8ff" stroke="#63b8ff" points="356.92,-806.91 366.85,-803.2 356.78,-799.91 356.92,-806.91"/>
</a>
</g>
</g>
<!-- Node11&#45;&gt;Node6 -->
<g id="edge11_Node000011_Node000006" class="edge">
<title>Node11&#45;&gt;Node6</title>
<g id="a_edge11_Node000011_Node000006"><a xlink:title=" ">
<path fill="none" stroke="#63b8ff" d="M337.06,-716C314.6,-716 290.49,-716 268.2,-716"/>
<polygon fill="#63b8ff" stroke="#63b8ff" points="337.26,-719.5 347.26,-716 337.26,-712.5 337.26,-719.5"/>
</a>
</g>
</g>
<!-- Node11&#45;&gt;Node12 -->
<g id="edge12_Node000011_Node000012" class="edge">
<title>Node11&#45;&gt;Node12</title>
<g id="a_edge12_Node000011_Node000012"><a xlink:title=" ">
<path fill="none" stroke="#63b8ff" d="M337.31,-700.39C314.64,-696.35 290.27,-692.01 267.77,-688.01"/>
<polygon fill="#63b8ff" stroke="#63b8ff" points="336.8,-703.85 347.26,-702.16 338.03,-696.96 336.8,-703.85"/>
</a>
</g>
</g>
<!-- Node13 -->
<g id="Node000013" class="node">
<title>Node13</title>
<g id="a_Node000013"><a xlink:href="graph_2run_2printRandomRepresentativeFromEachConnectedComponent_8cc.html#a3c04138a5bfe5d72780bb7e82a18e627" target="_top" xlink:title=" ">
<polygon fill="white" stroke="#666666" points="41,-682.5 0,-682.5 0,-663.5 41,-663.5 41,-682.5"/>
<text text-anchor="middle" x="20.5" y="-670.5" font-family="Helvetica,sans-Serif" font-size="10.00">main</text>
</a>
</g>
</g>
<!-- Node12&#45;&gt;Node13 -->
<g id="edge13_Node000012_Node000013" class="edge">
<title>Node12&#45;&gt;Node13</title>
<g id="a_edge13_Node000012_Node000013"><a xlink:title=" ">
<path fill="none" stroke="#63b8ff" d="M81.9,-673C66.5,-673 52.13,-673 41.27,-673"/>
<polygon fill="#63b8ff" stroke="#63b8ff" points="82.14,-676.5 92.14,-673 82.14,-669.5 82.14,-676.5"/>
</a>
</g>
</g>
<!-- Node15 -->
<g id="Node000015" class="node">
<title>Node15</title>
<g id="a_Node000015"><a xlink:href="classcbrc_1_1MatrixGraph.html#a253063eb36f1bfdb9739f177e768cab5" target="_top" xlink:title=" ">
<polygon fill="white" stroke="#666666" points="237.5,-639 127.5,-639 127.5,-609 237.5,-609 237.5,-639"/>
<text text-anchor="start" x="135.5" y="-627" font-family="Helvetica,sans-Serif" font-size="10.00">cbrc::MatrixGraph::</text>
<text text-anchor="middle" x="182.5" y="-616" font-family="Helvetica,sans-Serif" font-size="10.00">MatrixGraph</text>
</a>
</g>
</g>
<!-- Node14&#45;&gt;Node15 -->
<g id="edge16_Node000014_Node000015" class="edge">
<title>Node14&#45;&gt;Node15</title>
<g id="a_edge16_Node000014_Node000015"><a xlink:title=" ">
<path fill="none" stroke="#63b8ff" d="M336.75,-624C303.55,-624 266.81,-624 237.63,-624"/>
<polygon fill="#63b8ff" stroke="#63b8ff" points="336.93,-627.5 346.93,-624 336.93,-620.5 336.93,-627.5"/>
</a>
</g>
</g>
<!-- Node18 -->
<g id="Node000018" class="node">
<title>Node18</title>
<g id="a_Node000018"><a xlink:href="classcbrc_1_1FLSorted2TypePairSet.html#a146a35baf521ee468c6172724f88ad94" target="_top" xlink:title=" ">
<polygon fill="white" stroke="#666666" points="256.5,-537 108.5,-537 108.5,-507 256.5,-507 256.5,-537"/>
<text text-anchor="start" x="116.5" y="-525" font-family="Helvetica,sans-Serif" font-size="10.00">cbrc::FLSorted2TypePairSet</text>
<text text-anchor="middle" x="182.5" y="-514" font-family="Helvetica,sans-Serif" font-size="10.00">::FLSorted2TypePairSet</text>
</a>
</g>
</g>
<!-- Node17&#45;&gt;Node18 -->
<g id="edge19_Node000017_Node000018" class="edge">
<title>Node17&#45;&gt;Node18</title>
<g id="a_edge19_Node000017_Node000018"><a xlink:title=" ">
<path fill="none" stroke="#63b8ff" d="M341.84,-522C314.2,-522 283.63,-522 256.78,-522"/>
<polygon fill="#63b8ff" stroke="#63b8ff" points="341.89,-525.5 351.89,-522 341.89,-518.5 341.89,-525.5"/>
</a>
</g>
</g>
<!-- Node20 -->
<g id="Node000020" class="node">
<title>Node20</title>
<g id="a_Node000020"><a xlink:href="classcbrc_1_1SortedTagSet.html#a59533c6a3ce4fff13dd297396468e721" target="_top" xlink:title=" ">
<polygon fill="white" stroke="#666666" points="236,-489 129,-489 129,-459 236,-459 236,-489"/>
<text text-anchor="start" x="137" y="-477" font-family="Helvetica,sans-Serif" font-size="10.00">cbrc::SortedTagSet</text>
<text text-anchor="middle" x="182.5" y="-466" font-family="Helvetica,sans-Serif" font-size="10.00">::SortedTagSet</text>
</a>
</g>
</g>
<!-- Node19&#45;&gt;Node20 -->
<g id="edge21_Node000019_Node000020" class="edge">
<title>Node19&#45;&gt;Node20</title>
<g id="a_edge21_Node000019_Node000020"><a xlink:title=" ">
<path fill="none" stroke="#63b8ff" d="M353.08,-474C315.6,-474 270.58,-474 236.35,-474"/>
<polygon fill="#63b8ff" stroke="#63b8ff" points="353.43,-477.5 363.43,-474 353.43,-470.5 353.43,-477.5"/>
</a>
</g>
</g>
<!-- Node22 -->
<g id="Node000022" class="node">
<title>Node22</title>
<g id="a_Node000022"><a xlink:href="classcbrc_1_1TagSet.html#a265ec8ad6132c63559613e84ba627c01" target="_top" xlink:title=" ">
<polygon fill="white" stroke="#666666" points="239,-435.5 126,-435.5 126,-416.5 239,-416.5 239,-435.5"/>
<text text-anchor="middle" x="182.5" y="-423.5" font-family="Helvetica,sans-Serif" font-size="10.00">cbrc::TagSet::TagSet</text>
</a>
</g>
</g>
<!-- Node21&#45;&gt;Node22 -->
<g id="edge23_Node000021_Node000022" class="edge">
<title>Node21&#45;&gt;Node22</title>
<g id="a_edge23_Node000021_Node000022"><a xlink:title=" ">
<path fill="none" stroke="#63b8ff" d="M341.53,-426C307.66,-426 269.46,-426 239.1,-426"/>
<polygon fill="#63b8ff" stroke="#63b8ff" points="341.89,-429.5 351.89,-426 341.89,-422.5 341.89,-429.5"/>
</a>
</g>
</g>
<!-- Node25 -->
<g id="Node000025" class="node">
<title>Node25</title>
<g id="a_Node000025"><a xlink:href="classcbrc_1_1KnapsackObjectVector.html#a10d6b593fbe2f4375ea0a392213b63b0" target="_top" xlink:title=" ">
<polygon fill="white" stroke="#666666" points="258.5,-345 106.5,-345 106.5,-315 258.5,-315 258.5,-345"/>
<text text-anchor="start" x="114.5" y="-333" font-family="Helvetica,sans-Serif" font-size="10.00">cbrc::KnapsackObjectVector</text>
<text text-anchor="middle" x="182.5" y="-322" font-family="Helvetica,sans-Serif" font-size="10.00">::KnapsackObjectVector</text>
</a>
</g>
</g>
<!-- Node24&#45;&gt;Node25 -->
<g id="edge26_Node000024_Node000025" class="edge">
<title>Node24&#45;&gt;Node25</title>
<g id="a_edge26_Node000024_Node000025"><a xlink:title=" ">
<path fill="none" stroke="#63b8ff" d="M339.88,-330C313.36,-330 284.32,-330 258.54,-330"/>
<polygon fill="#63b8ff" stroke="#63b8ff" points="339.91,-333.5 349.91,-330 339.91,-326.5 339.91,-333.5"/>
</a>
</g>
</g>
<!-- Node30 -->
<g id="Node000030" class="node">
<title>Node30</title>
<g id="a_Node000030"><a xlink:href="classcbrc_1_1ConstantLabeledSquareDoubleFLENumMatrix.html#ab4382a4662ed8b6685ed8609586590ea" target="_top" xlink:title=" ">
<polygon fill="white" stroke="#666666" points="288,-128.5 77,-128.5 77,-87.5 288,-87.5 288,-128.5"/>
<text text-anchor="start" x="85" y="-116.5" font-family="Helvetica,sans-Serif" font-size="10.00">cbrc::ConstantLabeledSquare</text>
<text text-anchor="start" x="85" y="-105.5" font-family="Helvetica,sans-Serif" font-size="10.00">DoubleFLENumMatrix::ConstantLabeled</text>
<text text-anchor="middle" x="182.5" y="-94.5" font-family="Helvetica,sans-Serif" font-size="10.00">SquareDoubleFLENumMatrix</text>
</a>
</g>
</g>
<!-- Node29&#45;&gt;Node30 -->
<g id="edge31_Node000029_Node000030" class="edge">
<title>Node29&#45;&gt;Node30</title>
<g id="a_edge31_Node000029_Node000030"><a xlink:title=" ">
<path fill="none" stroke="#63b8ff" d="M314.01,-124.21C305.48,-123.15 296.88,-122.08 288.39,-121.03"/>
<polygon fill="#63b8ff" stroke="#63b8ff" points="313.63,-127.69 323.98,-125.45 314.49,-120.74 313.63,-127.69"/>
</a>
</g>
</g>
<!-- Node31 -->
<g id="Node000031" class="node">
<title>Node31</title>
<g id="a_Node000031"><a xlink:href="classcbrc_1_1ConstantLabeledSquareDoubleFLENumMatrix.html#ae744cd721a1c3ec56ecf854092e90543" target="_top" xlink:title=" ">
<polygon fill="white" stroke="#666666" points="288,-187.5 77,-187.5 77,-146.5 288,-146.5 288,-187.5"/>
<text text-anchor="start" x="85" y="-175.5" font-family="Helvetica,sans-Serif" font-size="10.00">cbrc::ConstantLabeledSquare</text>
<text text-anchor="start" x="85" y="-164.5" font-family="Helvetica,sans-Serif" font-size="10.00">DoubleFLENumMatrix::ConstantLabeled</text>
<text text-anchor="middle" x="182.5" y="-153.5" font-family="Helvetica,sans-Serif" font-size="10.00">SquareDoubleFLENumMatrix</text>
</a>
</g>
</g>
<!-- Node29&#45;&gt;Node31 -->
<g id="edge32_Node000029_Node000031" class="edge">
<title>Node29&#45;&gt;Node31</title>
<g id="a_edge32_Node000029_Node000031"><a xlink:title=" ">
<path fill="none" stroke="#63b8ff" d="M314.01,-151.33C305.48,-152.35 296.88,-153.39 288.39,-154.4"/>
<polygon fill="#63b8ff" stroke="#63b8ff" points="314.47,-154.8 323.98,-150.13 313.64,-147.85 314.47,-154.8"/>
</a>
</g>
</g>
</g>
</svg>
