<?xml version="1.0" encoding="UTF-8" standalone="no"?>
<!DOCTYPE svg PUBLIC "-//W3C//DTD SVG 1.1//EN"
 "http://www.w3.org/Graphics/SVG/1.1/DTD/svg11.dtd">
<!-- Generated by graphviz version 2.43.0 (0)
 -->
<!-- Title: cbrc::binaryIO::read Pages: 1 -->
<svg width="735pt" height="163pt"
 viewBox="0.00 0.00 735.00 163.00" xmlns="http://www.w3.org/2000/svg" xmlns:xlink="http://www.w3.org/1999/xlink">
<g id="graph0" class="graph" transform="scale(1 1) rotate(0) translate(4 159)">
<title>cbrc::binaryIO::read</title>
<!-- Node1 -->
<g id="Node000001" class="node">
<title>Node1</title>
<g id="a_Node000001"><a xlink:title=" ">
<polygon fill="#999999" stroke="#666666" points="112,-104 0,-104 0,-85 112,-85 112,-104"/>
<text text-anchor="middle" x="56" y="-92" font-family="Helvetica,sans-Serif" font-size="10.00">cbrc::binaryIO::read</text>
</a>
</g>
</g>
<!-- Node2 -->
<g id="Node000002" class="node">
<title>Node2</title>
<g id="a_Node000002"><a xlink:href="namespacecbrc_1_1perlish.html#a27da775d330fc85aeb67ad7bc5e054d6" target="_top" xlink:title=" ">
<polygon fill="white" stroke="#666666" points="401,-155 304,-155 304,-136 401,-136 401,-155"/>
<text text-anchor="middle" x="352.5" y="-143" font-family="Helvetica,sans-Serif" font-size="10.00">cbrc::perlish::die</text>
</a>
</g>
</g>
<!-- Node1&#45;&gt;Node2 -->
<g id="edge1_Node000001_Node000002" class="edge">
<title>Node1&#45;&gt;Node2</title>
<g id="a_edge1_Node000001_Node000002"><a xlink:title=" ">
<path fill="none" stroke="#63b8ff" d="M75.6,-104.11C93.6,-112.91 121.91,-125.46 148,-131.5 196.35,-142.69 252.74,-145.82 293.88,-146.37"/>
<polygon fill="#63b8ff" stroke="#63b8ff" points="293.97,-149.87 304,-146.45 294.03,-142.87 293.97,-149.87"/>
</a>
</g>
</g>
<!-- Node4 -->
<g id="Node000004" class="node">
<title>Node4</title>
<g id="a_Node000004"><a xlink:href="classcbrc_1_1FLEArray.html#ab4f853671d71b67a4771b5199af8d8f8" target="_top" xlink:title=" ">
<polygon fill="white" stroke="#666666" points="409,-75 296,-75 296,-56 409,-56 409,-75"/>
<text text-anchor="middle" x="352.5" y="-63" font-family="Helvetica,sans-Serif" font-size="10.00">cbrc::FLEArray::read</text>
</a>
</g>
</g>
<!-- Node1&#45;&gt;Node4 -->
<g id="edge3_Node000001_Node000004" class="edge">
<title>Node1&#45;&gt;Node4</title>
<g id="a_edge3_Node000001_Node000004"><a xlink:title=" ">
<path fill="none" stroke="#63b8ff" d="M96.19,-84.91C112.16,-81.37 130.87,-77.7 148,-75.5 193.67,-69.65 245.51,-67.16 285.44,-66.13"/>
<polygon fill="#63b8ff" stroke="#63b8ff" points="285.67,-69.63 295.58,-65.89 285.5,-62.63 285.67,-69.63"/>
</a>
</g>
</g>
<!-- Node8 -->
<g id="Node000008" class="node">
<title>Node8</title>
<g id="a_Node000008"><a xlink:href="namespacecbrc_1_1binaryIO.html#a181fc6c1b04986051a53ee38649e886e" target="_top" xlink:title=" ">
<polygon fill="white" stroke="#666666" points="260,-104 148,-104 148,-85 260,-85 260,-104"/>
<text text-anchor="middle" x="204" y="-92" font-family="Helvetica,sans-Serif" font-size="10.00">cbrc::binaryIO::read</text>
</a>
</g>
</g>
<!-- Node1&#45;&gt;Node8 -->
<g id="edge10_Node000001_Node000008" class="edge">
<title>Node1&#45;&gt;Node8</title>
<g id="a_edge10_Node000001_Node000008"><a xlink:title=" ">
<path fill="none" stroke="#63b8ff" d="M112.2,-94.5C120.46,-94.5 129.05,-94.5 137.51,-94.5"/>
<polygon fill="#63b8ff" stroke="#63b8ff" points="137.73,-98 147.73,-94.5 137.73,-91 137.73,-98"/>
</a>
</g>
</g>
<!-- Node3 -->
<g id="Node000003" class="node">
<title>Node3</title>
<g id="a_Node000003"><a xlink:href="namespacecbrc.html#a0d70f74afe25a87ac43272ff476dcb48" target="_top" xlink:title=" ">
<polygon fill="white" stroke="#666666" points="552.5,-155 472.5,-155 472.5,-136 552.5,-136 552.5,-155"/>
<text text-anchor="middle" x="512.5" y="-143" font-family="Helvetica,sans-Serif" font-size="10.00">cbrc::gdbExit</text>
</a>
</g>
</g>
<!-- Node2&#45;&gt;Node3 -->
<g id="edge2_Node000002_Node000003" class="edge">
<title>Node2&#45;&gt;Node3</title>
<g id="a_edge2_Node000002_Node000003"><a xlink:title=" ">
<path fill="none" stroke="#63b8ff" d="M401.33,-145.5C420.58,-145.5 442.77,-145.5 462.16,-145.5"/>
<polygon fill="#63b8ff" stroke="#63b8ff" points="462.32,-149 472.32,-145.5 462.32,-142 462.32,-149"/>
</a>
</g>
</g>
<!-- Node4&#45;&gt;Node4 -->
<g id="edge8_Node000004_Node000004" class="edge">
<title>Node4&#45;&gt;Node4</title>
<g id="a_edge8_Node000004_Node000004"><a xlink:title=" ">
<path fill="none" stroke="#63b8ff" d="M329.69,-75.08C318.59,-83.73 326.2,-93 352.5,-93 369.35,-93 378.53,-89.2 380.03,-84.19"/>
<polygon fill="#63b8ff" stroke="#63b8ff" points="383.02,-82.35 375.31,-75.08 376.8,-85.57 383.02,-82.35"/>
</a>
</g>
</g>
<!-- Node5 -->
<g id="Node000005" class="node">
<title>Node5</title>
<g id="a_Node000005"><a xlink:href="classcbrc_1_1FLEArray.html#a8255bcefe055e10a4fccd3331b450fee" target="_top" xlink:title=" ">
<polygon fill="white" stroke="#666666" points="571,-113 454,-113 454,-94 571,-94 571,-113"/>
<text text-anchor="middle" x="512.5" y="-101" font-family="Helvetica,sans-Serif" font-size="10.00">cbrc::FLEArray::bsize</text>
</a>
</g>
</g>
<!-- Node4&#45;&gt;Node5 -->
<g id="edge4_Node000004_Node000005" class="edge">
<title>Node4&#45;&gt;Node5</title>
<g id="a_edge4_Node000004_Node000005"><a xlink:title=" ">
<path fill="none" stroke="#63b8ff" d="M393.37,-75.09C414.22,-80.1 439.93,-86.29 462.04,-91.61"/>
<polygon fill="#63b8ff" stroke="#63b8ff" points="461.38,-95.04 471.92,-93.98 463.01,-88.24 461.38,-95.04"/>
</a>
</g>
</g>
<!-- Node6 -->
<g id="Node000006" class="node">
<title>Node6</title>
<g id="a_Node000006"><a xlink:href="classcbrc_1_1FLEArray.html#ad71311380d762114c9e0f3b0dda38b7c" target="_top" xlink:title=" ">
<polygon fill="white" stroke="#666666" points="727,-94 616,-94 616,-75 727,-75 727,-94"/>
<text text-anchor="middle" x="671.5" y="-82" font-family="Helvetica,sans-Serif" font-size="10.00">cbrc::FLEArray::size</text>
</a>
</g>
</g>
<!-- Node4&#45;&gt;Node6 -->
<g id="edge9_Node000004_Node000006" class="edge">
<title>Node4&#45;&gt;Node6</title>
<g id="a_edge9_Node000004_Node000006"><a xlink:title=" ">
<path fill="none" stroke="#63b8ff" d="M409.08,-68.83C463.94,-72.12 547.78,-77.14 605.65,-80.61"/>
<polygon fill="#63b8ff" stroke="#63b8ff" points="605.59,-84.12 615.78,-81.22 606.01,-77.13 605.59,-84.12"/>
</a>
</g>
</g>
<!-- Node7 -->
<g id="Node000007" class="node">
<title>Node7</title>
<g id="a_Node000007"><a xlink:href="classcbrc_1_1FLEArray.html#a5368c7c0434bd5c119d2cbb39f4b399e" target="_top" xlink:title=" ">
<polygon fill="white" stroke="#666666" points="580,-19 445,-19 445,0 580,0 580,-19"/>
<text text-anchor="middle" x="512.5" y="-7" font-family="Helvetica,sans-Serif" font-size="10.00">cbrc::FLEArray::FLEArray</text>
</a>
</g>
</g>
<!-- Node4&#45;&gt;Node7 -->
<g id="edge6_Node000004_Node000007" class="edge">
<title>Node4&#45;&gt;Node7</title>
<g id="a_edge6_Node000004_Node000007"><a xlink:title=" ">
<path fill="none" stroke="#63b8ff" d="M380.66,-55.87C406.71,-46.64 446.21,-32.64 475,-22.44"/>
<polygon fill="#63b8ff" stroke="#63b8ff" points="476.44,-25.64 484.69,-19 474.1,-19.04 476.44,-25.64"/>
</a>
</g>
</g>
<!-- Node5&#45;&gt;Node6 -->
<g id="edge5_Node000005_Node000006" class="edge">
<title>Node5&#45;&gt;Node6</title>
<g id="a_edge5_Node000005_Node000006"><a xlink:title=" ">
<path fill="none" stroke="#63b8ff" d="M571.07,-96.53C582.37,-95.17 594.3,-93.72 605.82,-92.33"/>
<polygon fill="#63b8ff" stroke="#63b8ff" points="606.3,-95.79 615.81,-91.12 605.46,-88.85 606.3,-95.79"/>
</a>
</g>
</g>
<!-- Node7&#45;&gt;Node7 -->
<g id="edge7_Node000007_Node000007" class="edge">
<title>Node7&#45;&gt;Node7</title>
<g id="a_edge7_Node000007_Node000007"><a xlink:title=" ">
<path fill="none" stroke="#63b8ff" d="M488.15,-19.08C476.3,-27.73 484.42,-37 512.5,-37 530.93,-37 540.76,-33.01 541.99,-27.82"/>
<polygon fill="#63b8ff" stroke="#63b8ff" points="544.94,-25.93 536.85,-19.08 538.91,-29.48 544.94,-25.93"/>
</a>
</g>
</g>
<!-- Node8&#45;&gt;Node2 -->
<g id="edge11_Node000008_Node000002" class="edge">
<title>Node8&#45;&gt;Node2</title>
<g id="a_edge11_Node000008_Node000002"><a xlink:title=" ">
<path fill="none" stroke="#63b8ff" d="M232.56,-104.09C255.68,-112.14 288.91,-123.71 314.38,-132.58"/>
<polygon fill="#63b8ff" stroke="#63b8ff" points="313.47,-135.97 324.07,-135.95 315.77,-129.36 313.47,-135.97"/>
</a>
</g>
</g>
<!-- Node8&#45;&gt;Node4 -->
<g id="edge12_Node000008_Node000004" class="edge">
<title>Node8&#45;&gt;Node4</title>
<g id="a_edge12_Node000008_Node000004"><a xlink:title=" ">
<path fill="none" stroke="#63b8ff" d="M253.38,-84.92C266.13,-82.4 280.02,-79.65 293.23,-77.03"/>
<polygon fill="#63b8ff" stroke="#63b8ff" points="294.05,-80.44 303.18,-75.07 292.69,-73.57 294.05,-80.44"/>
</a>
</g>
</g>
<!-- Node8&#45;&gt;Node8 -->
<g id="edge13_Node000008_Node000008" class="edge">
<title>Node8&#45;&gt;Node8</title>
<g id="a_edge13_Node000008_Node000008"><a xlink:title=" ">
<path fill="none" stroke="#63b8ff" d="M181.19,-104.08C170.09,-112.73 177.7,-122 204,-122 220.85,-122 230.03,-118.2 231.53,-113.19"/>
<polygon fill="#63b8ff" stroke="#63b8ff" points="234.52,-111.35 226.81,-104.08 228.3,-114.57 234.52,-111.35"/>
</a>
</g>
</g>
</g>
</svg>
