<?xml version="1.0" encoding="UTF-8" standalone="no"?>
<!DOCTYPE svg PUBLIC "-//W3C//DTD SVG 1.1//EN"
 "http://www.w3.org/Graphics/SVG/1.1/DTD/svg11.dtd">
<!-- Generated by graphviz version 2.43.0 (0)
 -->
<!-- Title: cbrc::perlish::spaceTabString Pages: 1 -->
<svg width="504pt" height="51pt"
 viewBox="0.00 0.00 504.00 50.50" xmlns="http://www.w3.org/2000/svg" xmlns:xlink="http://www.w3.org/1999/xlink">
<g id="graph0" class="graph" transform="scale(1 1) rotate(0) translate(4 46.5)">
<title>cbrc::perlish::spaceTabString</title>
<!-- Node1 -->
<g id="Node000001" class="node">
<title>Node1</title>
<g id="a_Node000001"><a xlink:title=" ">
<polygon fill="#999999" stroke="#666666" points="496,-24.5 341,-24.5 341,-5.5 496,-5.5 496,-24.5"/>
<text text-anchor="middle" x="418.5" y="-12.5" font-family="Helvetica,sans-Serif" font-size="10.00">cbrc::perlish::spaceTabString</text>
</a>
</g>
</g>
<!-- Node1&#45;&gt;Node1 -->
<g id="edge3_Node000001_Node000001" class="edge">
<title>Node1&#45;&gt;Node1</title>
<g id="a_edge3_Node000001_Node000001"><a xlink:title=" ">
<path fill="none" stroke="#63b8ff" d="M453.36,-32.57C452.85,-38.12 441.23,-42.5 418.5,-42.5 385.44,-42.5 375.89,-33.23 389.83,-24.58"/>
<polygon fill="#63b8ff" stroke="#63b8ff" points="456.06,-30.34 447.17,-24.58 450.53,-34.63 456.06,-30.34"/>
</a>
</g>
</g>
<!-- Node2 -->
<g id="Node000002" class="node">
<title>Node2</title>
<g id="a_Node000002"><a xlink:href="classcbrc_1_1TransfacTextLine.html#ad036f13e1217eeafc9b279035e48fd77" target="_top" xlink:title=" ">
<polygon fill="white" stroke="#666666" points="305,-24.5 160,-24.5 160,-5.5 305,-5.5 305,-24.5"/>
<text text-anchor="middle" x="232.5" y="-12.5" font-family="Helvetica,sans-Serif" font-size="10.00">cbrc::TransfacTextLine::set</text>
</a>
</g>
</g>
<!-- Node1&#45;&gt;Node2 -->
<g id="edge1_Node000001_Node000002" class="edge">
<title>Node1&#45;&gt;Node2</title>
<g id="a_edge1_Node000001_Node000002"><a xlink:title=" ">
<path fill="none" stroke="#63b8ff" d="M330.75,-15C322.15,-15 313.49,-15 305.07,-15"/>
<polygon fill="#63b8ff" stroke="#63b8ff" points="330.8,-18.5 340.8,-15 330.8,-11.5 330.8,-18.5"/>
</a>
</g>
</g>
<!-- Node3 -->
<g id="Node000003" class="node">
<title>Node3</title>
<g id="a_Node000003"><a xlink:href="classcbrc_1_1TransfacTextLine.html#a13fdb8b03ee5c94a487d308f4448cf0b" target="_top" xlink:title=" ">
<polygon fill="white" stroke="#666666" points="124,-30 0,-30 0,0 124,0 124,-30"/>
<text text-anchor="start" x="8" y="-18" font-family="Helvetica,sans-Serif" font-size="10.00">cbrc::TransfacTextLine</text>
<text text-anchor="middle" x="62" y="-7" font-family="Helvetica,sans-Serif" font-size="10.00">::TransfacTextLine</text>
</a>
</g>
</g>
<!-- Node2&#45;&gt;Node3 -->
<g id="edge2_Node000002_Node000003" class="edge">
<title>Node2&#45;&gt;Node3</title>
<g id="a_edge2_Node000002_Node000003"><a xlink:title=" ">
<path fill="none" stroke="#63b8ff" d="M149.53,-15C140.97,-15 132.37,-15 124.1,-15"/>
<polygon fill="#63b8ff" stroke="#63b8ff" points="149.55,-18.5 159.55,-15 149.55,-11.5 149.55,-18.5"/>
</a>
</g>
</g>
</g>
</svg>
