<?xml version="1.0" encoding="UTF-8" standalone="no"?>
<!DOCTYPE svg PUBLIC "-//W3C//DTD SVG 1.1//EN"
 "http://www.w3.org/Graphics/SVG/1.1/DTD/svg11.dtd">
<!-- Generated by graphviz version 2.43.0 (0)
 -->
<!-- Title: cbrc::stringUtils::stringReplaceAll Pages: 1 -->
<svg width="643pt" height="187pt"
 viewBox="0.00 0.00 643.00 187.00" xmlns="http://www.w3.org/2000/svg" xmlns:xlink="http://www.w3.org/1999/xlink">
<g id="graph0" class="graph" transform="scale(1 1) rotate(0) translate(4 183)">
<title>cbrc::stringUtils::stringReplaceAll</title>
<!-- Node1 -->
<g id="Node000001" class="node">
<title>Node1</title>
<g id="a_Node000001"><a xlink:title=" ">
<polygon fill="#999999" stroke="#666666" points="99,-62.5 0,-62.5 0,-32.5 99,-32.5 99,-62.5"/>
<text text-anchor="start" x="8" y="-50.5" font-family="Helvetica,sans-Serif" font-size="10.00">cbrc::stringUtils::</text>
<text text-anchor="middle" x="49.5" y="-39.5" font-family="Helvetica,sans-Serif" font-size="10.00">stringReplaceAll</text>
</a>
</g>
</g>
<!-- Node2 -->
<g id="Node000002" class="node">
<title>Node2</title>
<g id="a_Node000002"><a xlink:href="classcbrc_1_1FLEArray.html#a3eba8d1c247ebc9ed3219dd2a3614252" target="_top" xlink:title=" ">
<polygon fill="white" stroke="#666666" points="254,-133 144,-133 144,-114 254,-114 254,-133"/>
<text text-anchor="middle" x="199" y="-121" font-family="Helvetica,sans-Serif" font-size="10.00">cbrc::FLEArray::find</text>
</a>
</g>
</g>
<!-- Node1&#45;&gt;Node2 -->
<g id="edge1_Node000001_Node000002" class="edge">
<title>Node1&#45;&gt;Node2</title>
<g id="a_edge1_Node000001_Node000002"><a xlink:title=" ">
<path fill="none" stroke="#63b8ff" d="M79.64,-62.52C105.96,-76.08 144.42,-95.9 170.29,-109.22"/>
<polygon fill="#63b8ff" stroke="#63b8ff" points="168.71,-112.35 179.21,-113.82 171.92,-106.13 168.71,-112.35"/>
</a>
</g>
</g>
<!-- Node6 -->
<g id="Node000006" class="node">
<title>Node6</title>
<g id="a_Node000006"><a xlink:href="classcbrc_1_1FLEArray.html#a0a035b6ea365980182ea962f0185beb3" target="_top" xlink:title=" ">
<polygon fill="white" stroke="#666666" points="263,-57 135,-57 135,-38 263,-38 263,-57"/>
<text text-anchor="middle" x="199" y="-45" font-family="Helvetica,sans-Serif" font-size="10.00">cbrc::FLEArray::replace</text>
</a>
</g>
</g>
<!-- Node1&#45;&gt;Node6 -->
<g id="edge7_Node000001_Node000006" class="edge">
<title>Node1&#45;&gt;Node6</title>
<g id="a_edge7_Node000001_Node000006"><a xlink:title=" ">
<path fill="none" stroke="#63b8ff" d="M99.21,-47.5C107.41,-47.5 116.08,-47.5 124.74,-47.5"/>
<polygon fill="#63b8ff" stroke="#63b8ff" points="124.88,-51 134.88,-47.5 124.88,-44 124.88,-51"/>
</a>
</g>
</g>
<!-- Node8 -->
<g id="Node000008" class="node">
<title>Node8</title>
<g id="a_Node000008"><a xlink:href="classcbrc_1_1FLEArray.html#ad71311380d762114c9e0f3b0dda38b7c" target="_top" xlink:title=" ">
<polygon fill="white" stroke="#666666" points="616.5,-19 505.5,-19 505.5,0 616.5,0 616.5,-19"/>
<text text-anchor="middle" x="561" y="-7" font-family="Helvetica,sans-Serif" font-size="10.00">cbrc::FLEArray::size</text>
</a>
</g>
</g>
<!-- Node1&#45;&gt;Node8 -->
<g id="edge12_Node000001_Node000008" class="edge">
<title>Node1&#45;&gt;Node8</title>
<g id="a_edge12_Node000001_Node000008"><a xlink:title=" ">
<path fill="none" stroke="#63b8ff" d="M99.01,-35.56C110.74,-32.96 123.28,-30.42 135,-28.5 261.3,-7.83 411.33,-6.44 495.11,-7.69"/>
<polygon fill="#63b8ff" stroke="#63b8ff" points="495.18,-11.2 505.24,-7.86 495.3,-4.2 495.18,-11.2"/>
</a>
</g>
</g>
<!-- Node3 -->
<g id="Node000003" class="node">
<title>Node3</title>
<g id="a_Node000003"><a xlink:href="classcbrc_1_1FLEArray.html#a985e9e85d6fc6adf9d3c52a0306361a4" target="_top" xlink:title=" ">
<polygon fill="white" stroke="#666666" points="451,-171 299,-171 299,-152 451,-152 451,-171"/>
<text text-anchor="middle" x="375" y="-159" font-family="Helvetica,sans-Serif" font-size="10.00">cbrc::FLEArray::_validRange</text>
</a>
</g>
</g>
<!-- Node2&#45;&gt;Node3 -->
<g id="edge2_Node000002_Node000003" class="edge">
<title>Node2&#45;&gt;Node3</title>
<g id="a_edge2_Node000002_Node000003"><a xlink:title=" ">
<path fill="none" stroke="#63b8ff" d="M243.91,-133.09C267.18,-138.17 295.95,-144.46 320.52,-149.82"/>
<polygon fill="#63b8ff" stroke="#63b8ff" points="319.89,-153.27 330.41,-151.98 321.39,-146.43 319.89,-153.27"/>
</a>
</g>
</g>
<!-- Node5 -->
<g id="Node000005" class="node">
<title>Node5</title>
<g id="a_Node000005"><a xlink:href="classcbrc_1_1FLEArray.html#a5368c7c0434bd5c119d2cbb39f4b399e" target="_top" xlink:title=" ">
<polygon fill="white" stroke="#666666" points="628.5,-124 493.5,-124 493.5,-105 628.5,-105 628.5,-124"/>
<text text-anchor="middle" x="561" y="-112" font-family="Helvetica,sans-Serif" font-size="10.00">cbrc::FLEArray::FLEArray</text>
</a>
</g>
</g>
<!-- Node2&#45;&gt;Node5 -->
<g id="edge6_Node000002_Node000005" class="edge">
<title>Node2&#45;&gt;Node5</title>
<g id="a_edge6_Node000002_Node000005"><a xlink:title=" ">
<path fill="none" stroke="#63b8ff" d="M254.29,-122.14C315.1,-120.62 414.15,-118.15 482.96,-116.43"/>
<polygon fill="#63b8ff" stroke="#63b8ff" points="483.4,-119.92 493.31,-116.17 483.23,-112.92 483.4,-119.92"/>
</a>
</g>
</g>
<!-- Node4 -->
<g id="Node000004" class="node">
<title>Node4</title>
<g id="a_Node000004"><a xlink:href="classcbrc_1_1FLEArray.html#a0a06120b85cf875ccff4081918fe0f33" target="_top" xlink:title=" ">
<polygon fill="white" stroke="#666666" points="635,-179 487,-179 487,-160 635,-160 635,-179"/>
<text text-anchor="middle" x="561" y="-167" font-family="Helvetica,sans-Serif" font-size="10.00">cbrc::FLEArray::_validIndex</text>
</a>
</g>
</g>
<!-- Node3&#45;&gt;Node4 -->
<g id="edge3_Node000003_Node000004" class="edge">
<title>Node3&#45;&gt;Node4</title>
<g id="a_edge3_Node000003_Node000004"><a xlink:title=" ">
<path fill="none" stroke="#63b8ff" d="M451.11,-164.77C459.6,-165.13 468.3,-165.51 476.9,-165.89"/>
<polygon fill="#63b8ff" stroke="#63b8ff" points="476.78,-169.38 486.92,-166.32 477.08,-162.39 476.78,-169.38"/>
</a>
</g>
</g>
<!-- Node3&#45;&gt;Node5 -->
<g id="edge4_Node000003_Node000005" class="edge">
<title>Node3&#45;&gt;Node5</title>
<g id="a_edge4_Node000003_Node000005"><a xlink:title=" ">
<path fill="none" stroke="#63b8ff" d="M413.24,-151.99C441.95,-144.66 481.85,-134.46 512.8,-126.56"/>
<polygon fill="#63b8ff" stroke="#63b8ff" points="513.68,-129.94 522.5,-124.08 511.95,-123.16 513.68,-129.94"/>
</a>
</g>
</g>
<!-- Node5&#45;&gt;Node5 -->
<g id="edge5_Node000005_Node000005" class="edge">
<title>Node5&#45;&gt;Node5</title>
<g id="a_edge5_Node000005_Node000005"><a xlink:title=" ">
<path fill="none" stroke="#63b8ff" d="M532.33,-124.08C518.39,-132.73 527.94,-142 561,-142 583.73,-142 595.35,-137.62 595.86,-132.07"/>
<polygon fill="#63b8ff" stroke="#63b8ff" points="598.56,-129.84 589.67,-124.08 593.03,-134.13 598.56,-129.84"/>
</a>
</g>
</g>
<!-- Node6&#45;&gt;Node5 -->
<g id="edge10_Node000006_Node000005" class="edge">
<title>Node6&#45;&gt;Node5</title>
<g id="a_edge10_Node000006_Node000005"><a xlink:title=" ">
<path fill="none" stroke="#63b8ff" d="M249.34,-57.05C265.19,-60.09 282.83,-63.46 299,-66.5 366.85,-79.25 444.69,-93.52 497.58,-103.16"/>
<polygon fill="#63b8ff" stroke="#63b8ff" points="497.02,-106.62 507.49,-104.97 498.28,-99.73 497.02,-106.62"/>
</a>
</g>
</g>
<!-- Node7 -->
<g id="Node000007" class="node">
<title>Node7</title>
<g id="a_Node000007"><a xlink:href="classcbrc_1_1FLEArray.html#a8255bcefe055e10a4fccd3331b450fee" target="_top" xlink:title=" ">
<polygon fill="white" stroke="#666666" points="433.5,-57 316.5,-57 316.5,-38 433.5,-38 433.5,-57"/>
<text text-anchor="middle" x="375" y="-45" font-family="Helvetica,sans-Serif" font-size="10.00">cbrc::FLEArray::bsize</text>
</a>
</g>
</g>
<!-- Node6&#45;&gt;Node7 -->
<g id="edge8_Node000006_Node000007" class="edge">
<title>Node6&#45;&gt;Node7</title>
<g id="a_edge8_Node000006_Node000007"><a xlink:title=" ">
<path fill="none" stroke="#63b8ff" d="M263.31,-47.5C277.23,-47.5 292.02,-47.5 306.11,-47.5"/>
<polygon fill="#63b8ff" stroke="#63b8ff" points="306.22,-51 316.22,-47.5 306.22,-44 306.22,-51"/>
</a>
</g>
</g>
<!-- Node6&#45;&gt;Node8 -->
<g id="edge11_Node000006_Node000008" class="edge">
<title>Node6&#45;&gt;Node8</title>
<g id="a_edge11_Node000006_Node000008"><a xlink:title=" ">
<path fill="none" stroke="#63b8ff" d="M243.68,-37.98C260.85,-34.53 280.78,-30.9 299,-28.5 365.51,-19.73 442.12,-14.75 495.06,-12.12"/>
<polygon fill="#63b8ff" stroke="#63b8ff" points="495.5,-15.6 505.32,-11.62 495.17,-8.61 495.5,-15.6"/>
</a>
</g>
</g>
<!-- Node7&#45;&gt;Node8 -->
<g id="edge9_Node000007_Node000008" class="edge">
<title>Node7&#45;&gt;Node8</title>
<g id="a_edge9_Node000007_Node000008"><a xlink:title=" ">
<path fill="none" stroke="#63b8ff" d="M422.43,-37.91C447.15,-32.81 477.74,-26.49 503.79,-21.11"/>
<polygon fill="#63b8ff" stroke="#63b8ff" points="504.82,-24.47 513.9,-19.02 503.4,-17.61 504.82,-24.47"/>
</a>
</g>
</g>
</g>
</svg>
