<?xml version="1.0" encoding="UTF-8" standalone="no"?>
<!DOCTYPE svg PUBLIC "-//W3C//DTD SVG 1.1//EN"
 "http://www.w3.org/Graphics/SVG/1.1/DTD/svg11.dtd">
<!-- Generated by graphviz version 2.43.0 (0)
 -->
<!-- Title: cbrc::binaryIO::traceOrDie Pages: 1 -->
<svg width="642pt" height="154pt"
 viewBox="0.00 0.00 642.00 153.81" xmlns="http://www.w3.org/2000/svg" xmlns:xlink="http://www.w3.org/1999/xlink">
<g id="graph0" class="graph" transform="scale(1 1) rotate(0) translate(4 149.81)">
<title>cbrc::binaryIO::traceOrDie</title>
<!-- Node1 -->
<g id="Node000001" class="node">
<title>Node1</title>
<g id="a_Node000001"><a xlink:title=" ">
<polygon fill="#999999" stroke="#666666" points="143,-108.56 0,-108.56 0,-89.56 143,-89.56 143,-108.56"/>
<text text-anchor="middle" x="71.5" y="-96.56" font-family="Helvetica,sans-Serif" font-size="10.00">cbrc::binaryIO::traceOrDie</text>
</a>
</g>
</g>
<!-- Node2 -->
<g id="Node000002" class="node">
<title>Node2</title>
<g id="a_Node000002"><a xlink:href="classcbrc_1_1FLEArray.html#ab4f853671d71b67a4771b5199af8d8f8" target="_top" xlink:title=" ">
<polygon fill="white" stroke="#666666" points="296,-108.56 183,-108.56 183,-89.56 296,-89.56 296,-108.56"/>
<text text-anchor="middle" x="239.5" y="-96.56" font-family="Helvetica,sans-Serif" font-size="10.00">cbrc::FLEArray::read</text>
</a>
</g>
</g>
<!-- Node1&#45;&gt;Node2 -->
<g id="edge1_Node000001_Node000002" class="edge">
<title>Node1&#45;&gt;Node2</title>
<g id="a_edge1_Node000001_Node000002"><a xlink:title=" ">
<path fill="none" stroke="#63b8ff" d="M143.38,-99.06C153.09,-99.06 163.02,-99.06 172.63,-99.06"/>
<polygon fill="#63b8ff" stroke="#63b8ff" points="172.91,-102.56 182.91,-99.06 172.91,-95.56 172.91,-102.56"/>
</a>
</g>
</g>
<!-- Node4 -->
<g id="Node000004" class="node">
<title>Node4</title>
<g id="a_Node000004"><a xlink:href="classcbrc_1_1FLEArray.html#ad71311380d762114c9e0f3b0dda38b7c" target="_top" xlink:title=" ">
<polygon fill="white" stroke="#666666" points="622,-127.56 511,-127.56 511,-108.56 622,-108.56 622,-127.56"/>
<text text-anchor="middle" x="566.5" y="-115.56" font-family="Helvetica,sans-Serif" font-size="10.00">cbrc::FLEArray::size</text>
</a>
</g>
</g>
<!-- Node1&#45;&gt;Node4 -->
<g id="edge13_Node000001_Node000004" class="edge">
<title>Node1&#45;&gt;Node4</title>
<g id="a_edge13_Node000001_Node000004"><a xlink:title=" ">
<path fill="none" stroke="#63b8ff" d="M93.17,-108.57C114.24,-117.7 148.12,-130.85 179,-136.06 291.84,-155.1 425.65,-140.83 502.55,-129.15"/>
<polygon fill="#63b8ff" stroke="#63b8ff" points="503.21,-132.59 512.56,-127.59 502.14,-125.67 503.21,-132.59"/>
</a>
</g>
</g>
<!-- Node6 -->
<g id="Node000006" class="node">
<title>Node6</title>
<g id="a_Node000006"><a xlink:href="classcbrc_1_1FLEArray.html#ad003950bdededca7ee3b3dd6cd6ea644" target="_top" xlink:title=" ">
<polygon fill="white" stroke="#666666" points="300,-32.56 179,-32.56 179,-13.56 300,-13.56 300,-32.56"/>
<text text-anchor="middle" x="239.5" y="-20.56" font-family="Helvetica,sans-Serif" font-size="10.00">cbrc::FLEArray::resize</text>
</a>
</g>
</g>
<!-- Node1&#45;&gt;Node6 -->
<g id="edge8_Node000001_Node000006" class="edge">
<title>Node1&#45;&gt;Node6</title>
<g id="a_edge8_Node000001_Node000006"><a xlink:title=" ">
<path fill="none" stroke="#63b8ff" d="M93.52,-89.43C122.59,-76.13 175.2,-52.04 208.42,-36.83"/>
<polygon fill="#63b8ff" stroke="#63b8ff" points="210.01,-39.95 217.65,-32.61 207.1,-33.59 210.01,-39.95"/>
</a>
</g>
</g>
<!-- Node2&#45;&gt;Node2 -->
<g id="edge6_Node000002_Node000002" class="edge">
<title>Node2&#45;&gt;Node2</title>
<g id="a_edge6_Node000002_Node000002"><a xlink:title=" ">
<path fill="none" stroke="#63b8ff" d="M214.84,-108.64C202.84,-117.29 211.06,-126.56 239.5,-126.56 258.16,-126.56 268.12,-122.57 269.37,-117.38"/>
<polygon fill="#63b8ff" stroke="#63b8ff" points="272.29,-115.44 264.16,-108.64 266.27,-119.02 272.29,-115.44"/>
</a>
</g>
</g>
<!-- Node3 -->
<g id="Node000003" class="node">
<title>Node3</title>
<g id="a_Node000003"><a xlink:href="classcbrc_1_1FLEArray.html#a8255bcefe055e10a4fccd3331b450fee" target="_top" xlink:title=" ">
<polygon fill="white" stroke="#666666" points="458,-108.56 341,-108.56 341,-89.56 458,-89.56 458,-108.56"/>
<text text-anchor="middle" x="399.5" y="-96.56" font-family="Helvetica,sans-Serif" font-size="10.00">cbrc::FLEArray::bsize</text>
</a>
</g>
</g>
<!-- Node2&#45;&gt;Node3 -->
<g id="edge2_Node000002_Node000003" class="edge">
<title>Node2&#45;&gt;Node3</title>
<g id="a_edge2_Node000002_Node000003"><a xlink:title=" ">
<path fill="none" stroke="#63b8ff" d="M296.2,-99.06C307.41,-99.06 319.29,-99.06 330.85,-99.06"/>
<polygon fill="#63b8ff" stroke="#63b8ff" points="330.89,-102.56 340.89,-99.06 330.89,-95.56 330.89,-102.56"/>
</a>
</g>
</g>
<!-- Node2&#45;&gt;Node4 -->
<g id="edge7_Node000002_Node000004" class="edge">
<title>Node2&#45;&gt;Node4</title>
<g id="a_edge7_Node000002_Node000004"><a xlink:title=" ">
<path fill="none" stroke="#63b8ff" d="M279.27,-108.57C296.52,-112.33 317.16,-116.2 336,-118.06 391.3,-123.51 454.45,-123.02 500.49,-121.45"/>
<polygon fill="#63b8ff" stroke="#63b8ff" points="500.77,-124.94 510.63,-121.07 500.51,-117.94 500.77,-124.94"/>
</a>
</g>
</g>
<!-- Node5 -->
<g id="Node000005" class="node">
<title>Node5</title>
<g id="a_Node000005"><a xlink:href="classcbrc_1_1FLEArray.html#a5368c7c0434bd5c119d2cbb39f4b399e" target="_top" xlink:title=" ">
<polygon fill="white" stroke="#666666" points="634,-32.56 499,-32.56 499,-13.56 634,-13.56 634,-32.56"/>
<text text-anchor="middle" x="566.5" y="-20.56" font-family="Helvetica,sans-Serif" font-size="10.00">cbrc::FLEArray::FLEArray</text>
</a>
</g>
</g>
<!-- Node2&#45;&gt;Node5 -->
<g id="edge4_Node000002_Node000005" class="edge">
<title>Node2&#45;&gt;Node5</title>
<g id="a_edge4_Node000002_Node000005"><a xlink:title=" ">
<path fill="none" stroke="#63b8ff" d="M281.33,-89.51C340.64,-75.64 450.55,-49.94 514.91,-34.89"/>
<polygon fill="#63b8ff" stroke="#63b8ff" points="515.89,-38.25 524.83,-32.57 514.3,-31.44 515.89,-38.25"/>
</a>
</g>
</g>
<!-- Node3&#45;&gt;Node4 -->
<g id="edge3_Node000003_Node000004" class="edge">
<title>Node3&#45;&gt;Node4</title>
<g id="a_edge3_Node000003_Node000004"><a xlink:title=" ">
<path fill="none" stroke="#63b8ff" d="M458.21,-105.7C471.97,-107.29 486.74,-108.99 500.79,-110.61"/>
<polygon fill="#63b8ff" stroke="#63b8ff" points="500.54,-114.1 510.87,-111.77 501.34,-107.15 500.54,-114.1"/>
</a>
</g>
</g>
<!-- Node5&#45;&gt;Node5 -->
<g id="edge5_Node000005_Node000005" class="edge">
<title>Node5&#45;&gt;Node5</title>
<g id="a_edge5_Node000005_Node000005"><a xlink:title=" ">
<path fill="none" stroke="#63b8ff" d="M540.91,-32.64C528.47,-41.29 537,-50.56 566.5,-50.56 585.86,-50.56 596.19,-46.57 597.49,-41.38"/>
<polygon fill="#63b8ff" stroke="#63b8ff" points="600.32,-39.31 592.09,-32.64 594.37,-42.99 600.32,-39.31"/>
</a>
</g>
</g>
<!-- Node6&#45;&gt;Node5 -->
<g id="edge9_Node000006_Node000005" class="edge">
<title>Node6&#45;&gt;Node5</title>
<g id="a_edge9_Node000006_Node000005"><a xlink:title=" ">
<path fill="none" stroke="#63b8ff" d="M279.27,-13.55C296.52,-9.78 317.16,-5.91 336,-4.06 392.17,1.48 406.79,1.11 463,-4.06 479.72,-5.59 497.77,-8.51 514.01,-11.61"/>
<polygon fill="#63b8ff" stroke="#63b8ff" points="513.36,-15.05 523.85,-13.55 514.72,-8.18 513.36,-15.05"/>
</a>
</g>
</g>
<!-- Node7 -->
<g id="Node000007" class="node">
<title>Node7</title>
<g id="a_Node000007"><a xlink:href="classcbrc_1_1FLEArray.html#a5f10f892188c41f2821ef33ee9bcc743" target="_top" xlink:title=" ">
<polygon fill="white" stroke="#666666" points="463,-32.56 336,-32.56 336,-13.56 463,-13.56 463,-32.56"/>
<text text-anchor="middle" x="399.5" y="-20.56" font-family="Helvetica,sans-Serif" font-size="10.00">cbrc::FLEArray::setSize</text>
</a>
</g>
</g>
<!-- Node6&#45;&gt;Node7 -->
<g id="edge10_Node000006_Node000007" class="edge">
<title>Node6&#45;&gt;Node7</title>
<g id="a_edge10_Node000006_Node000007"><a xlink:title=" ">
<path fill="none" stroke="#63b8ff" d="M300.23,-23.06C308.5,-23.06 317.06,-23.06 325.53,-23.06"/>
<polygon fill="#63b8ff" stroke="#63b8ff" points="325.79,-26.56 335.79,-23.06 325.79,-19.56 325.79,-26.56"/>
</a>
</g>
</g>
<!-- Node7&#45;&gt;Node4 -->
<g id="edge12_Node000007_Node000004" class="edge">
<title>Node7&#45;&gt;Node4</title>
<g id="a_edge12_Node000007_Node000004"><a xlink:title=" ">
<path fill="none" stroke="#63b8ff" d="M417.23,-32.69C446.14,-49.33 505.61,-83.58 539.8,-103.26"/>
<polygon fill="#63b8ff" stroke="#63b8ff" points="538.31,-106.44 548.73,-108.4 541.81,-100.38 538.31,-106.44"/>
</a>
</g>
</g>
<!-- Node7&#45;&gt;Node5 -->
<g id="edge11_Node000007_Node000005" class="edge">
<title>Node7&#45;&gt;Node5</title>
<g id="a_edge11_Node000007_Node000005"><a xlink:title=" ">
<path fill="none" stroke="#63b8ff" d="M463.35,-23.06C471.73,-23.06 480.39,-23.06 488.97,-23.06"/>
<polygon fill="#63b8ff" stroke="#63b8ff" points="488.98,-26.56 498.98,-23.06 488.98,-19.56 488.98,-26.56"/>
</a>
</g>
</g>
</g>
</svg>
