<?xml version="1.0" encoding="UTF-8" standalone="no"?>
<!DOCTYPE svg PUBLIC "-//W3C//DTD SVG 1.1//EN"
 "http://www.w3.org/Graphics/SVG/1.1/DTD/svg11.dtd">
<!-- Generated by graphviz version 2.43.0 (0)
 -->
<!-- Title: cbrc::smoothing::mergeIdenticalAdjacentX Pages: 1 -->
<svg width="434pt" height="76pt"
 viewBox="0.00 0.00 434.00 75.50" xmlns="http://www.w3.org/2000/svg" xmlns:xlink="http://www.w3.org/1999/xlink">

<svg id="main" version="1.1" xmlns="http://www.w3.org/2000/svg" xmlns:xlink="http://www.w3.org/1999/xlink" xml:space="preserve" onload="init(evt)">
<style type="text/css"><![CDATA[
.node, .edge {opacity: 0.7;}
.node.selected, .edge.selected {opacity: 1;}
.edge:hover path { stroke: red; }
.edge:hover polygon { stroke: red; fill: red; }
]]></style>
<script type="application/ecmascript" xlink:href="svg.min.js"/>
<svg id="graph" class="graph">
<g id="graph0" class="graph" transform="scale(1 1) rotate(0) translate(4 71.5)">
<title>cbrc::smoothing::mergeIdenticalAdjacentX</title>
<!-- Node1 -->
<g id="Node000001" class="node">
<title>Node1</title>
<g id="a_Node000001"><a xlink:title=" ">
<polygon fill="#999999" stroke="#666666" points="426,-45.5 252,-45.5 252,-15.5 426,-15.5 426,-45.5"/>
<text text-anchor="start" x="260" y="-33.5" font-family="Helvetica,sans-Serif" font-size="10.00">cbrc::smoothing::mergeIdentical</text>
<text text-anchor="middle" x="339" y="-22.5" font-family="Helvetica,sans-Serif" font-size="10.00">AdjacentX</text>
</a>
</g>
</g>
<!-- Node2 -->
<g id="Node000002" class="node">
<title>Node2</title>
<g id="a_Node000002"><a xlink:href="namespacecbrc.html#aef2d0ed299987208c4ea3f95ca35008f" target="_top" xlink:title=" ">
<polygon fill="white" stroke="#666666" points="216,-67.5 77,-67.5 77,-37.5 216,-37.5 216,-67.5"/>
<text text-anchor="start" x="85" y="-55.5" font-family="Helvetica,sans-Serif" font-size="10.00">cbrc::labeledBlastToOdds</text>
<text text-anchor="middle" x="146.5" y="-44.5" font-family="Helvetica,sans-Serif" font-size="10.00">Ratio</text>
</a>
</g>
</g>
<!-- Node1&#45;&gt;Node2 -->
<g id="edge1_Node000001_Node000002" class="edge">
<title>Node1&#45;&gt;Node2</title>
<g id="a_edge1_Node000001_Node000002"><a xlink:title=" ">
<path fill="none" stroke="#63b8ff" d="M241.77,-41.61C233.08,-42.62 224.41,-43.62 216.04,-44.58"/>
<polygon fill="#63b8ff" stroke="#63b8ff" points="242.41,-45.06 251.95,-40.44 241.61,-38.11 242.41,-45.06"/>
</a>
</g>
</g>
<!-- Node4 -->
<g id="Node000004" class="node">
<title>Node4</title>
<g id="a_Node000004"><a xlink:href="namespacecbrc.html#a21b3d568b029c61ac627788f2c9f16e8" target="_top" xlink:title=" ">
<polygon fill="white" stroke="#666666" points="210.5,-19 82.5,-19 82.5,0 210.5,0 210.5,-19"/>
<text text-anchor="middle" x="146.5" y="-7" font-family="Helvetica,sans-Serif" font-size="10.00">cbrc::smoothMinPoints</text>
</a>
</g>
</g>
<!-- Node1&#45;&gt;Node4 -->
<g id="edge3_Node000001_Node000004" class="edge">
<title>Node1&#45;&gt;Node4</title>
<g id="a_edge3_Node000001_Node000004"><a xlink:title=" ">
<path fill="none" stroke="#63b8ff" d="M241.82,-19.9C231.24,-18.73 220.67,-17.57 210.65,-16.46"/>
<polygon fill="#63b8ff" stroke="#63b8ff" points="241.62,-23.4 251.95,-21.01 242.39,-16.44 241.62,-23.4"/>
</a>
</g>
</g>
<!-- Node3 -->
<g id="Node000003" class="node">
<title>Node3</title>
<g id="a_Node000003"><a xlink:href="labeledBlastToOddsRatio_8cc.html#a3c04138a5bfe5d72780bb7e82a18e627" target="_top" xlink:title=" ">
<polygon fill="white" stroke="#666666" points="41,-62 0,-62 0,-43 41,-43 41,-62"/>
<text text-anchor="middle" x="20.5" y="-50" font-family="Helvetica,sans-Serif" font-size="10.00">main</text>
</a>
</g>
</g>
<!-- Node2&#45;&gt;Node3 -->
<g id="edge2_Node000002_Node000003" class="edge">
<title>Node2&#45;&gt;Node3</title>
<g id="a_edge2_Node000002_Node000003"><a xlink:title=" ">
<path fill="none" stroke="#63b8ff" d="M66.95,-52.5C57.49,-52.5 48.59,-52.5 41.21,-52.5"/>
<polygon fill="#63b8ff" stroke="#63b8ff" points="66.97,-56 76.97,-52.5 66.97,-49 66.97,-56"/>
</a>
</g>
</g>
<!-- Node5 -->
<g id="Node000005" class="node">
<title>Node5</title>
<g id="a_Node000005"><a xlink:href="smoothMinSampleSize_8cc.html#ac0f2228420376f4db7e1274f2b41667c" target="_top" xlink:title=" ">
<polygon fill="white" stroke="#666666" points="41,-19 0,-19 0,0 41,0 41,-19"/>
<text text-anchor="middle" x="20.5" y="-7" font-family="Helvetica,sans-Serif" font-size="10.00">main</text>
</a>
</g>
</g>
<!-- Node4&#45;&gt;Node5 -->
<g id="edge4_Node000004_Node000005" class="edge">
<title>Node4&#45;&gt;Node5</title>
<g id="a_edge4_Node000004_Node000005"><a xlink:title=" ">
<path fill="none" stroke="#63b8ff" d="M72.22,-9.5C60.73,-9.5 49.77,-9.5 41.01,-9.5"/>
<polygon fill="#63b8ff" stroke="#63b8ff" points="72.41,-13 82.41,-9.5 72.41,-6 72.41,-13"/>
</a>
</g>
</g>
</g>
</svg>
</svg>

<style type='text/css'>
<![CDATA[
[data-mouse-over-selected='false'] { opacity: 0.7; }
[data-mouse-over-selected='true']  { opacity: 1.0; }
]]>
</style>
<script type="application/ecmascript"><![CDATA[
document.addEventListener('DOMContentLoaded', (event) => {
  highlightEdges();
  highlightAdjacentNodes();
});
]]></script>
</svg>
