<?xml version="1.0" encoding="UTF-8" standalone="no"?>
<!DOCTYPE svg PUBLIC "-//W3C//DTD SVG 1.1//EN"
 "http://www.w3.org/Graphics/SVG/1.1/DTD/svg11.dtd">
<!-- Generated by graphviz version 2.43.0 (0)
 -->
<!-- Title: cbrc::perlish::toUnsignedInt Pages: 1 -->
<svg width="447pt" height="238pt"
 viewBox="0.00 0.00 447.00 237.60" xmlns="http://www.w3.org/2000/svg" xmlns:xlink="http://www.w3.org/1999/xlink">

<svg id="main" version="1.1" xmlns="http://www.w3.org/2000/svg" xmlns:xlink="http://www.w3.org/1999/xlink" xml:space="preserve" onload="init(evt)">
<style type="text/css"><![CDATA[
.node, .edge {opacity: 0.7;}
.node.selected, .edge.selected {opacity: 1;}
.edge:hover path { stroke: red; }
.edge:hover polygon { stroke: red; fill: red; }
]]></style>
<script type="application/ecmascript" xlink:href="svg.min.js"/>
<svg id="graph" class="graph">
<g id="graph0" class="graph" transform="scale(1 1) rotate(0) translate(4 233.6)">
<title>cbrc::perlish::toUnsignedInt</title>
<!-- Node1 -->
<g id="Node000001" class="node">
<title>Node1</title>
<g id="a_Node000001"><a xlink:title=" ">
<polygon fill="#999999" stroke="#666666" points="439,-130 289,-130 289,-111 439,-111 439,-130"/>
<text text-anchor="middle" x="364" y="-118" font-family="Helvetica,sans-Serif" font-size="10.00">cbrc::perlish::toUnsignedInt</text>
</a>
</g>
</g>
<!-- Node2 -->
<g id="Node000002" class="node">
<title>Node2</title>
<g id="a_Node000002"><a xlink:href="smoothMinSampleSize_8cc.html#ac0f2228420376f4db7e1274f2b41667c" target="_top" xlink:title=" ">
<polygon fill="white" stroke="#666666" points="41,-223 0,-223 0,-204 41,-204 41,-223"/>
<text text-anchor="middle" x="20.5" y="-211" font-family="Helvetica,sans-Serif" font-size="10.00">main</text>
</a>
</g>
</g>
<!-- Node1&#45;&gt;Node2 -->
<g id="edge1_Node000001_Node000002" class="edge">
<title>Node1&#45;&gt;Node2</title>
<g id="a_edge1_Node000001_Node000002"><a xlink:title=" ">
<path fill="none" stroke="#63b8ff" d="M349.46,-137.8C330.65,-160.27 294.23,-198.41 253,-213.5 178.84,-240.65 82.13,-226.12 41.18,-217.9"/>
<polygon fill="#63b8ff" stroke="#63b8ff" points="352.18,-140 355.78,-130.04 346.75,-135.58 352.18,-140"/>
</a>
</g>
</g>
<!-- Node3 -->
<g id="Node000003" class="node">
<title>Node3</title>
<g id="a_Node000003"><a xlink:href="namespacecbrc.html#a21b3d568b029c61ac627788f2c9f16e8" target="_top" xlink:title=" ">
<polygon fill="white" stroke="#666666" points="229,-204 101,-204 101,-185 229,-185 229,-204"/>
<text text-anchor="middle" x="165" y="-192" font-family="Helvetica,sans-Serif" font-size="10.00">cbrc::smoothMinPoints</text>
</a>
</g>
</g>
<!-- Node1&#45;&gt;Node3 -->
<g id="edge2_Node000001_Node000003" class="edge">
<title>Node1&#45;&gt;Node3</title>
<g id="a_edge2_Node000001_Node000003"><a xlink:title=" ">
<path fill="none" stroke="#63b8ff" d="M338.69,-135.27C316.94,-147.89 283.83,-165.68 253,-176.5 243.54,-179.82 233.27,-182.61 223.22,-184.94"/>
<polygon fill="#63b8ff" stroke="#63b8ff" points="340.72,-138.14 347.56,-130.04 337.17,-132.11 340.72,-138.14"/>
</a>
</g>
</g>
<!-- Node4 -->
<g id="Node000004" class="node">
<title>Node4</title>
<g id="a_Node000004"><a xlink:href="namespacecbrc.html#a2cde2566ec76e051d46f1e427eae9802" target="_top" xlink:title=" ">
<polygon fill="white" stroke="#666666" points="229,-167 101,-167 101,-148 229,-148 229,-167"/>
<text text-anchor="middle" x="165" y="-155" font-family="Helvetica,sans-Serif" font-size="10.00">cbrc::smoothMinPoints</text>
</a>
</g>
</g>
<!-- Node1&#45;&gt;Node4 -->
<g id="edge4_Node000001_Node000004" class="edge">
<title>Node1&#45;&gt;Node4</title>
<g id="a_edge4_Node000001_Node000004"><a xlink:title=" ">
<path fill="none" stroke="#63b8ff" d="M302.41,-131.88C275.02,-137.02 243.02,-143.03 216.9,-147.94"/>
<polygon fill="#63b8ff" stroke="#63b8ff" points="303.09,-135.31 312.27,-130.03 301.79,-128.43 303.09,-135.31"/>
</a>
</g>
</g>
<!-- Node5 -->
<g id="Node000005" class="node">
<title>Node5</title>
<g id="a_Node000005"><a xlink:href="namespacecbrc.html#a3405003ddefb627442a2fa3f200c0fb6" target="_top" xlink:title=" ">
<polygon fill="white" stroke="#666666" points="253,-130 77,-130 77,-111 253,-111 253,-130"/>
<text text-anchor="middle" x="165" y="-118" font-family="Helvetica,sans-Serif" font-size="10.00">cbrc::testNumberStringFunctions</text>
</a>
</g>
</g>
<!-- Node1&#45;&gt;Node5 -->
<g id="edge5_Node000001_Node000005" class="edge">
<title>Node1&#45;&gt;Node5</title>
<g id="a_edge5_Node000001_Node000005"><a xlink:title=" ">
<path fill="none" stroke="#63b8ff" d="M278.58,-120.5C270.12,-120.5 261.53,-120.5 253.05,-120.5"/>
<polygon fill="#63b8ff" stroke="#63b8ff" points="278.8,-124 288.8,-120.5 278.8,-117 278.8,-124"/>
</a>
</g>
</g>
<!-- Node7 -->
<g id="Node000007" class="node">
<title>Node7</title>
<g id="a_Node000007"><a xlink:href="namespacecbrc_1_1meminfo.html#aafede38599a54b64aebbb926ca8025ad" target="_top" xlink:title=" ">
<polygon fill="white" stroke="#666666" points="223,-93 107,-93 107,-74 223,-74 223,-93"/>
<text text-anchor="middle" x="165" y="-81" font-family="Helvetica,sans-Serif" font-size="10.00">cbrc::meminfo::total</text>
</a>
</g>
</g>
<!-- Node1&#45;&gt;Node7 -->
<g id="edge7_Node000001_Node000007" class="edge">
<title>Node1&#45;&gt;Node7</title>
<g id="a_edge7_Node000001_Node000007"><a xlink:title=" ">
<path fill="none" stroke="#63b8ff" d="M302.41,-109.12C275.02,-103.98 243.02,-97.97 216.9,-93.06"/>
<polygon fill="#63b8ff" stroke="#63b8ff" points="301.79,-112.57 312.27,-110.97 303.09,-105.69 301.79,-112.57"/>
</a>
</g>
</g>
<!-- Node8 -->
<g id="Node000008" class="node">
<title>Node8</title>
<g id="a_Node000008"><a xlink:href="namespacecbrc_1_1perlish.html#ac1f533943e7d2f5863cad558b1689dd5" target="_top" xlink:title=" ">
<polygon fill="white" stroke="#666666" points="240,-56 90,-56 90,-37 240,-37 240,-56"/>
<text text-anchor="middle" x="165" y="-44" font-family="Helvetica,sans-Serif" font-size="10.00">cbrc::perlish::toUnsignedInt</text>
</a>
</g>
</g>
<!-- Node1&#45;&gt;Node8 -->
<g id="edge8_Node000001_Node000008" class="edge">
<title>Node1&#45;&gt;Node8</title>
<g id="a_edge8_Node000001_Node000008"><a xlink:title=" ">
<path fill="none" stroke="#63b8ff" d="M338.69,-105.73C316.94,-93.11 283.83,-75.32 253,-64.5 243.54,-61.18 233.27,-58.39 223.22,-56.06"/>
<polygon fill="#63b8ff" stroke="#63b8ff" points="337.17,-108.89 347.56,-110.96 340.72,-102.86 337.17,-108.89"/>
</a>
</g>
</g>
<!-- Node9 -->
<g id="Node000009" class="node">
<title>Node9</title>
<g id="a_Node000009"><a xlink:href="namespacecbrc_1_1perlish.html#a1501cc50a04ca3dc5f7362024cea9b17" target="_top" xlink:title=" ">
<polygon fill="white" stroke="#666666" points="242.5,-19 87.5,-19 87.5,0 242.5,0 242.5,-19"/>
<text text-anchor="middle" x="165" y="-7" font-family="Helvetica,sans-Serif" font-size="10.00">cbrc::perlish::toUnsignedInts</text>
</a>
</g>
</g>
<!-- Node1&#45;&gt;Node9 -->
<g id="edge9_Node000001_Node000009" class="edge">
<title>Node1&#45;&gt;Node9</title>
<g id="a_edge9_Node000001_Node000009"><a xlink:title=" ">
<path fill="none" stroke="#63b8ff" d="M347.79,-103.17C328.1,-81.9 291.71,-46.34 253,-27.5 245.93,-24.06 238.22,-21.27 230.41,-19.02"/>
<polygon fill="#63b8ff" stroke="#63b8ff" points="345.4,-105.75 354.71,-110.81 350.59,-101.05 345.4,-105.75"/>
</a>
</g>
</g>
<!-- Node3&#45;&gt;Node2 -->
<g id="edge3_Node000003_Node000002" class="edge">
<title>Node3&#45;&gt;Node2</title>
<g id="a_edge3_Node000003_Node000002"><a xlink:title=" ">
<path fill="none" stroke="#63b8ff" d="M90.52,-204.3C72.24,-206.73 54.16,-209.15 41.09,-210.89"/>
<polygon fill="#63b8ff" stroke="#63b8ff" points="91.22,-207.74 100.67,-202.94 90.29,-200.8 91.22,-207.74"/>
</a>
</g>
</g>
<!-- Node6 -->
<g id="Node000006" class="node">
<title>Node6</title>
<g id="a_Node000006"><a xlink:href="testNumberStringFunctions_8cc.html#ae66f6b31b5ad750f1fe042a706a4e3d4" target="_top" xlink:title=" ">
<polygon fill="white" stroke="#666666" points="41,-130 0,-130 0,-111 41,-111 41,-130"/>
<text text-anchor="middle" x="20.5" y="-118" font-family="Helvetica,sans-Serif" font-size="10.00">main</text>
</a>
</g>
</g>
<!-- Node5&#45;&gt;Node6 -->
<g id="edge6_Node000005_Node000006" class="edge">
<title>Node5&#45;&gt;Node6</title>
<g id="a_edge6_Node000005_Node000006"><a xlink:title=" ">
<path fill="none" stroke="#63b8ff" d="M66.54,-120.5C57.1,-120.5 48.38,-120.5 41.17,-120.5"/>
<polygon fill="#63b8ff" stroke="#63b8ff" points="66.59,-124 76.59,-120.5 66.59,-117 66.59,-124"/>
</a>
</g>
</g>
</g>
</svg>
</svg>

<style type='text/css'>
<![CDATA[
[data-mouse-over-selected='false'] { opacity: 0.7; }
[data-mouse-over-selected='true']  { opacity: 1.0; }
]]>
</style>
<script type="application/ecmascript"><![CDATA[
document.addEventListener('DOMContentLoaded', (event) => {
  highlightEdges();
  highlightAdjacentNodes();
});
]]></script>
</svg>
