<?xml version="1.0" encoding="UTF-8" standalone="no"?>
<!DOCTYPE svg PUBLIC "-//W3C//DTD SVG 1.1//EN"
 "http://www.w3.org/Graphics/SVG/1.1/DTD/svg11.dtd">
<!-- Generated by graphviz version 2.43.0 (0)
 -->
<!-- Title: cbrc::stringBinaryIO::write Pages: 1 -->
<svg width="871pt" height="111pt"
 viewBox="0.00 0.00 871.00 110.50" xmlns="http://www.w3.org/2000/svg" xmlns:xlink="http://www.w3.org/1999/xlink">
<g id="graph0" class="graph" transform="scale(1 1) rotate(0) translate(4 106.5)">
<title>cbrc::stringBinaryIO::write</title>
<!-- Node1 -->
<g id="Node000001" class="node">
<title>Node1</title>
<g id="a_Node000001"><a xlink:title=" ">
<polygon fill="#999999" stroke="#666666" points="113,-55.5 0,-55.5 0,-25.5 113,-25.5 113,-55.5"/>
<text text-anchor="start" x="8" y="-43.5" font-family="Helvetica,sans-Serif" font-size="10.00">cbrc::stringBinaryIO</text>
<text text-anchor="middle" x="56.5" y="-32.5" font-family="Helvetica,sans-Serif" font-size="10.00">::write</text>
</a>
</g>
</g>
<!-- Node2 -->
<g id="Node000002" class="node">
<title>Node2</title>
<g id="a_Node000002"><a xlink:href="classcbrc_1_1FLEArray.html#ad71311380d762114c9e0f3b0dda38b7c" target="_top" xlink:title=" ">
<polygon fill="white" stroke="#666666" points="863,-65 752,-65 752,-46 863,-46 863,-65"/>
<text text-anchor="middle" x="807.5" y="-53" font-family="Helvetica,sans-Serif" font-size="10.00">cbrc::FLEArray::size</text>
</a>
</g>
</g>
<!-- Node1&#45;&gt;Node2 -->
<g id="edge1_Node000001_Node000002" class="edge">
<title>Node1&#45;&gt;Node2</title>
<g id="a_edge1_Node000001_Node000002"><a xlink:title=" ">
<path fill="none" stroke="#63b8ff" d="M101.03,-55.51C158.23,-73.86 262.14,-102.5 353.5,-102.5 353.5,-102.5 353.5,-102.5 506,-102.5 599.71,-102.5 624.06,-101.67 716,-83.5 734.44,-79.86 754.45,-73.88 770.96,-68.39"/>
<polygon fill="#63b8ff" stroke="#63b8ff" points="772.4,-71.6 780.73,-65.06 770.14,-64.97 772.4,-71.6"/>
</a>
</g>
</g>
<!-- Node3 -->
<g id="Node000003" class="node">
<title>Node3</title>
<g id="a_Node000003"><a xlink:href="namespacecbrc_1_1stringBinaryIO.html#ac08c9b395d220910943ec47cae012384" target="_top" xlink:title=" ">
<polygon fill="white" stroke="#666666" points="262,-55.5 149,-55.5 149,-25.5 262,-25.5 262,-55.5"/>
<text text-anchor="start" x="157" y="-43.5" font-family="Helvetica,sans-Serif" font-size="10.00">cbrc::stringBinaryIO</text>
<text text-anchor="middle" x="205.5" y="-32.5" font-family="Helvetica,sans-Serif" font-size="10.00">::write</text>
</a>
</g>
</g>
<!-- Node1&#45;&gt;Node3 -->
<g id="edge2_Node000001_Node000003" class="edge">
<title>Node1&#45;&gt;Node3</title>
<g id="a_edge2_Node000001_Node000003"><a xlink:title=" ">
<path fill="none" stroke="#63b8ff" d="M113.07,-40.5C121.49,-40.5 130.24,-40.5 138.84,-40.5"/>
<polygon fill="#63b8ff" stroke="#63b8ff" points="138.85,-44 148.85,-40.5 138.85,-37 138.85,-44"/>
</a>
</g>
</g>
<!-- Node4 -->
<g id="Node000004" class="node">
<title>Node4</title>
<g id="a_Node000004"><a xlink:href="classcbrc_1_1FLEArray.html#a67f88b1303a55d4e8039da5a9a739203" target="_top" xlink:title=" ">
<polygon fill="white" stroke="#666666" points="563,-19 447,-19 447,0 563,0 563,-19"/>
<text text-anchor="middle" x="505" y="-7" font-family="Helvetica,sans-Serif" font-size="10.00">cbrc::FLEArray::write</text>
</a>
</g>
</g>
<!-- Node1&#45;&gt;Node4 -->
<g id="edge11_Node000001_Node000004" class="edge">
<title>Node1&#45;&gt;Node4</title>
<g id="a_edge11_Node000001_Node000004"><a xlink:title=" ">
<path fill="none" stroke="#63b8ff" d="M106.45,-25.38C120.09,-21.79 135.01,-18.44 149,-16.5 248.37,-2.69 364.87,-3.61 436.56,-6.11"/>
<polygon fill="#63b8ff" stroke="#63b8ff" points="436.68,-9.62 446.8,-6.49 436.94,-2.62 436.68,-9.62"/>
</a>
</g>
</g>
<!-- Node3&#45;&gt;Node4 -->
<g id="edge3_Node000003_Node000004" class="edge">
<title>Node3&#45;&gt;Node4</title>
<g id="a_edge3_Node000003_Node000004"><a xlink:title=" ">
<path fill="none" stroke="#63b8ff" d="M262.11,-34.71C311.54,-29.55 383.93,-22.01 436.63,-16.52"/>
<polygon fill="#63b8ff" stroke="#63b8ff" points="437.31,-19.97 446.89,-15.45 436.58,-13.01 437.31,-19.97"/>
</a>
</g>
</g>
<!-- Node6 -->
<g id="Node000006" class="node">
<title>Node6</title>
<g id="a_Node000006"><a xlink:href="namespacecbrc_1_1stringBinaryIO.html#adc3f5e1088f5f1b8ea300f46a3331524" target="_top" xlink:title=" ">
<polygon fill="white" stroke="#666666" points="411,-74.5 298,-74.5 298,-44.5 411,-44.5 411,-74.5"/>
<text text-anchor="start" x="306" y="-62.5" font-family="Helvetica,sans-Serif" font-size="10.00">cbrc::stringBinaryIO</text>
<text text-anchor="middle" x="354.5" y="-51.5" font-family="Helvetica,sans-Serif" font-size="10.00">::writeContentsOnly</text>
</a>
</g>
</g>
<!-- Node3&#45;&gt;Node6 -->
<g id="edge7_Node000003_Node000006" class="edge">
<title>Node3&#45;&gt;Node6</title>
<g id="a_edge7_Node000003_Node000006"><a xlink:title=" ">
<path fill="none" stroke="#63b8ff" d="M262.07,-47.68C270.49,-48.77 279.24,-49.9 287.84,-51.01"/>
<polygon fill="#63b8ff" stroke="#63b8ff" points="287.48,-54.5 297.85,-52.31 288.38,-47.55 287.48,-54.5"/>
</a>
</g>
</g>
<!-- Node4&#45;&gt;Node4 -->
<g id="edge6_Node000004_Node000004" class="edge">
<title>Node4&#45;&gt;Node4</title>
<g id="a_edge6_Node000004_Node000004"><a xlink:title=" ">
<path fill="none" stroke="#63b8ff" d="M481.88,-19.08C470.63,-27.73 478.34,-37 505,-37 522.5,-37 531.83,-33.01 533,-27.82"/>
<polygon fill="#63b8ff" stroke="#63b8ff" points="536.05,-26.11 528.12,-19.08 529.94,-29.52 536.05,-26.11"/>
</a>
</g>
</g>
<!-- Node5 -->
<g id="Node000005" class="node">
<title>Node5</title>
<g id="a_Node000005"><a xlink:href="classcbrc_1_1FLEArray.html#a8255bcefe055e10a4fccd3331b450fee" target="_top" xlink:title=" ">
<polygon fill="white" stroke="#666666" points="716,-28 599,-28 599,-9 716,-9 716,-28"/>
<text text-anchor="middle" x="657.5" y="-16" font-family="Helvetica,sans-Serif" font-size="10.00">cbrc::FLEArray::bsize</text>
</a>
</g>
</g>
<!-- Node4&#45;&gt;Node5 -->
<g id="edge4_Node000004_Node000005" class="edge">
<title>Node4&#45;&gt;Node5</title>
<g id="a_edge4_Node000004_Node000005"><a xlink:title=" ">
<path fill="none" stroke="#63b8ff" d="M563.33,-12.93C571.59,-13.42 580.17,-13.94 588.62,-14.44"/>
<polygon fill="#63b8ff" stroke="#63b8ff" points="588.64,-17.95 598.83,-15.05 589.06,-10.96 588.64,-17.95"/>
</a>
</g>
</g>
<!-- Node5&#45;&gt;Node2 -->
<g id="edge5_Node000005_Node000002" class="edge">
<title>Node5&#45;&gt;Node2</title>
<g id="a_edge5_Node000005_Node000002"><a xlink:title=" ">
<path fill="none" stroke="#63b8ff" d="M696.61,-28.03C715.44,-32.74 738.36,-38.47 758.39,-43.47"/>
<polygon fill="#63b8ff" stroke="#63b8ff" points="757.71,-46.91 768.26,-45.94 759.41,-40.12 757.71,-46.91"/>
</a>
</g>
</g>
<!-- Node6&#45;&gt;Node4 -->
<g id="edge10_Node000006_Node000004" class="edge">
<title>Node6&#45;&gt;Node4</title>
<g id="a_edge10_Node000006_Node000004"><a xlink:title=" ">
<path fill="none" stroke="#63b8ff" d="M400.05,-44.5C420.96,-37.46 445.62,-29.16 465.67,-22.4"/>
<polygon fill="#63b8ff" stroke="#63b8ff" points="467.04,-25.64 475.4,-19.13 464.81,-19 467.04,-25.64"/>
</a>
</g>
</g>
<!-- Node7 -->
<g id="Node000007" class="node">
<title>Node7</title>
<g id="a_Node000007"><a xlink:href="namespacecbrc_1_1perlish.html#a27da775d330fc85aeb67ad7bc5e054d6" target="_top" xlink:title=" ">
<polygon fill="white" stroke="#666666" points="553.5,-74 456.5,-74 456.5,-55 553.5,-55 553.5,-74"/>
<text text-anchor="middle" x="505" y="-62" font-family="Helvetica,sans-Serif" font-size="10.00">cbrc::perlish::die</text>
</a>
</g>
</g>
<!-- Node6&#45;&gt;Node7 -->
<g id="edge8_Node000006_Node000007" class="edge">
<title>Node6&#45;&gt;Node7</title>
<g id="a_edge8_Node000006_Node000007"><a xlink:title=" ">
<path fill="none" stroke="#63b8ff" d="M411.22,-61.38C422.56,-61.76 434.52,-62.16 445.94,-62.55"/>
<polygon fill="#63b8ff" stroke="#63b8ff" points="446.13,-66.05 456.24,-62.89 446.37,-59.06 446.13,-66.05"/>
</a>
</g>
</g>
<!-- Node8 -->
<g id="Node000008" class="node">
<title>Node8</title>
<g id="a_Node000008"><a xlink:href="namespacecbrc.html#a0d70f74afe25a87ac43272ff476dcb48" target="_top" xlink:title=" ">
<polygon fill="white" stroke="#666666" points="697.5,-74 617.5,-74 617.5,-55 697.5,-55 697.5,-74"/>
<text text-anchor="middle" x="657.5" y="-62" font-family="Helvetica,sans-Serif" font-size="10.00">cbrc::gdbExit</text>
</a>
</g>
</g>
<!-- Node7&#45;&gt;Node8 -->
<g id="edge9_Node000007_Node000008" class="edge">
<title>Node7&#45;&gt;Node8</title>
<g id="a_edge9_Node000007_Node000008"><a xlink:title=" ">
<path fill="none" stroke="#63b8ff" d="M553.62,-64.5C570.59,-64.5 589.74,-64.5 606.88,-64.5"/>
<polygon fill="#63b8ff" stroke="#63b8ff" points="607.25,-68 617.25,-64.5 607.25,-61 607.25,-68"/>
</a>
</g>
</g>
</g>
</svg>
