<?xml version="1.0" encoding="UTF-8" standalone="no"?>
<!DOCTYPE svg PUBLIC "-//W3C//DTD SVG 1.1//EN"
 "http://www.w3.org/Graphics/SVG/1.1/DTD/svg11.dtd">
<!-- Generated by graphviz version 2.43.0 (0)
 -->
<!-- Title: cbrc::perlish::split Pages: 1 -->
<!--zoomable 425 -->

<svg id="main" version="1.1" xmlns="http://www.w3.org/2000/svg" xmlns:xlink="http://www.w3.org/1999/xlink" xml:space="preserve" onload="init(evt)">
<style type="text/css"><![CDATA[
.node, .edge {opacity: 0.7;}
.node.selected, .edge.selected {opacity: 1;}
.edge:hover path { stroke: red; }
.edge:hover polygon { stroke: red; fill: red; }
]]></style>

<defs>
  <circle id="rim" cx="0" cy="0" r="7"/>
  <circle id="rim2" cx="0" cy="0" r="3.5"/>
  <g id="zoomPlus">
    <use xlink:href="#rim" fill="#404040"><set attributeName="fill" to="#808080" begin="zoomplus.mouseover" end="zoomplus.mouseout"/></use>
    <path d="M-4,0h8M0,-4v8" fill="none" stroke="white" stroke-width="1.5" pointer-events="none"/>
  </g>
  <g id="zoomMin">
    <use xlink:href="#rim" fill="#404040"><set attributeName="fill" to="#808080" begin="zoomminus.mouseover" end="zoomminus.mouseout"/></use>
    <path d="M-4,0h8" fill="none" stroke="white" stroke-width="1.5" pointer-events="none"/>
  </g>
  <g id="arrowUp" transform="translate(30 24)">
    <use xlink:href="#rim"/>
    <path pointer-events="none" fill="none" stroke="white" stroke-width="1.5" d="M0,-3.0v7 M-2.5,-0.5L0,-3.0L2.5,-0.5"/>
  </g>
  <g id="arrowRight" transform="rotate(90) translate(36 -43)">
    <use xlink:href="#rim"/>
    <path pointer-events="none" fill="none" stroke="white" stroke-width="1.5" d="M0,-3.0v7 M-2.5,-0.5L0,-3.0L2.5,-0.5"/>
  </g>
  <g id="arrowDown" transform="rotate(180) translate(-30 -48)">
    <use xlink:href="#rim"/>
    <path pointer-events="none" fill="none" stroke="white" stroke-width="1.5" d="M0,-3.0v7 M-2.5,-0.5L0,-3.0L2.5,-0.5"/>
  </g>
  <g id="arrowLeft" transform="rotate(270) translate(-36 17)">
    <use xlink:href="#rim"/>
    <path pointer-events="none" fill="none" stroke="white" stroke-width="1.5" d="M0,-3.0v7 M-2.5,-0.5L0,-3.0L2.5,-0.5"/>
  </g>
  <g id="resetDef">
    <use xlink:href="#rim2" fill="#404040"><set attributeName="fill" to="#808080" begin="reset.mouseover" end="reset.mouseout"/></use>
  </g>
</defs>
<script type="application/ecmascript">
var viewWidth = 1098;
var viewHeight = 425;
var sectionId = 'dynsection-59';
</script>
<script type="application/ecmascript" xlink:href="svg.min.js"/>
<svg id="graph" class="graph">
<g id="viewport">
<title>cbrc::perlish::split</title>
<!-- Node1 -->
<g id="Node000001" class="node">
<title>Node1</title>
<g id="a_Node000001"><a xlink:title=" ">
<polygon fill="#999999" stroke="#666666" points="103,-253 0,-253 0,-234 103,-234 103,-253"/>
<text text-anchor="middle" x="51.5" y="-241" font-family="Helvetica,sans-Serif" font-size="10.00">cbrc::perlish::split</text>
</a>
</g>
</g>
<!-- Node2 -->
<g id="Node000002" class="node">
<title>Node2</title>
<g id="a_Node000002"><a xlink:href="namespacecbrc_1_1perlish.html#a6dcff8a36780c63f7cc665ddf759c3f5" target="_top" xlink:title=" ">
<polygon fill="white" stroke="#666666" points="324,-366.5 148,-366.5 148,-336.5 324,-336.5 324,-366.5"/>
<text text-anchor="start" x="156" y="-354.5" font-family="Helvetica,sans-Serif" font-size="10.00">cbrc::perlish::_split</text>
<text text-anchor="middle" x="236" y="-343.5" font-family="Helvetica,sans-Serif" font-size="10.00">_diePatternTypeNotImplemented</text>
</a>
</g>
</g>
<!-- Node1&#45;&gt;Node2 -->
<g id="edge1_Node000001_Node000002" class="edge">
<title>Node1&#45;&gt;Node2</title>
<g id="a_edge1_Node000001_Node000002"><a xlink:title=" ">
<path fill="none" stroke="#63b8ff" d="M60.53,-253.26C74.69,-269.86 105.76,-303.61 139,-322.5 146,-326.47 153.59,-329.96 161.35,-333"/>
<polygon fill="#63b8ff" stroke="#63b8ff" points="160.26,-336.33 170.86,-336.5 162.68,-329.76 160.26,-336.33"/>
</a>
</g>
</g>
<!-- Node3 -->
<g id="Node000003" class="node">
<title>Node3</title>
<g id="a_Node000003"><a xlink:href="namespacecbrc_1_1perlish.html#a7e94fcd7f334892a848acb01d4780d5f" target="_top" xlink:title=" ">
<polygon fill="white" stroke="#666666" points="554,-417 369,-417 369,-376 554,-376 554,-417"/>
<text text-anchor="start" x="377" y="-405" font-family="Helvetica,sans-Serif" font-size="10.00">cbrc::perlish::_split</text>
<text text-anchor="start" x="377" y="-394" font-family="Helvetica,sans-Serif" font-size="10.00">_surroundingSquareBracketsFound</text>
<text text-anchor="middle" x="461.5" y="-383" font-family="Helvetica,sans-Serif" font-size="10.00">AndRemoved</text>
</a>
</g>
</g>
<!-- Node1&#45;&gt;Node3 -->
<g id="edge2_Node000001_Node000003" class="edge">
<title>Node1&#45;&gt;Node3</title>
<g id="a_edge2_Node000001_Node000003"><a xlink:title=" ">
<path fill="none" stroke="#63b8ff" d="M67.19,-253.06C83.92,-263.52 112.39,-280.06 139,-289.5 221.8,-318.89 254.87,-287.31 333,-327.5 352.57,-337.57 350.37,-349.79 369,-361.5 374.81,-365.15 381.05,-368.52 387.45,-371.6"/>
<polygon fill="#63b8ff" stroke="#63b8ff" points="386.37,-374.95 396.92,-375.92 389.27,-368.58 386.37,-374.95"/>
</a>
</g>
</g>
<!-- Node8 -->
<g id="Node000008" class="node">
<title>Node8</title>
<g id="a_Node000008"><a xlink:href="namespacecbrc_1_1perlish.html#a758811d0fca16439ad3644862718d7a1" target="_top" xlink:title=" ">
<polygon fill="white" stroke="#666666" points="333,-280.5 139,-280.5 139,-250.5 333,-250.5 333,-280.5"/>
<text text-anchor="start" x="147" y="-268.5" font-family="Helvetica,sans-Serif" font-size="10.00">cbrc::perlish::_split</text>
<text text-anchor="middle" x="236" y="-257.5" font-family="Helvetica,sans-Serif" font-size="10.00">_trailingPlusCharFoundAndRemoved</text>
</a>
</g>
</g>
<!-- Node1&#45;&gt;Node8 -->
<g id="edge10_Node000001_Node000008" class="edge">
<title>Node1&#45;&gt;Node8</title>
<g id="a_edge10_Node000001_Node000008"><a xlink:title=" ">
<path fill="none" stroke="#63b8ff" d="M103.34,-249.63C111.38,-250.6 119.95,-251.63 128.72,-252.69"/>
<polygon fill="#63b8ff" stroke="#63b8ff" points="128.32,-256.17 138.67,-253.89 129.16,-249.22 128.32,-256.17"/>
</a>
</g>
</g>
<!-- Node12 -->
<g id="Node000012" class="node">
<title>Node12</title>
<g id="a_Node000012"><a xlink:href="classcbrc_1_1FLEArray.html#a3eba8d1c247ebc9ed3219dd2a3614252" target="_top" xlink:title=" ">
<polygon fill="white" stroke="#666666" points="709,-141 599,-141 599,-122 709,-122 709,-141"/>
<text text-anchor="middle" x="654" y="-129" font-family="Helvetica,sans-Serif" font-size="10.00">cbrc::FLEArray::find</text>
</a>
</g>
</g>
<!-- Node1&#45;&gt;Node12 -->
<g id="edge18_Node000001_Node000012" class="edge">
<title>Node1&#45;&gt;Node12</title>
<g id="a_edge18_Node000001_Node000012"><a xlink:title=" ">
<path fill="none" stroke="#63b8ff" d="M64.89,-233.79C81.01,-221.68 110.49,-201.26 139,-190.5 292.6,-132.52 488.89,-127.26 588.61,-128.99"/>
<polygon fill="#63b8ff" stroke="#63b8ff" points="588.76,-132.49 598.82,-129.2 588.9,-125.49 588.76,-132.49"/>
</a>
</g>
</g>
<!-- Node15 -->
<g id="Node000015" class="node">
<title>Node15</title>
<g id="a_Node000015"><a xlink:href="namespacecbrc_1_1perlish.html#a45e3793df08adee15403fd121c0e8b97" target="_top" xlink:title=" ">
<polygon fill="white" stroke="#666666" points="529.5,-189.5 393.5,-189.5 393.5,-159.5 529.5,-159.5 529.5,-189.5"/>
<text text-anchor="start" x="401.5" y="-177.5" font-family="Helvetica,sans-Serif" font-size="10.00">cbrc::perlish::splitOnOne</text>
<text text-anchor="middle" x="461.5" y="-166.5" font-family="Helvetica,sans-Serif" font-size="10.00">Match</text>
</a>
</g>
</g>
<!-- Node1&#45;&gt;Node15 -->
<g id="edge23_Node000001_Node000015" class="edge">
<title>Node1&#45;&gt;Node15</title>
<g id="a_edge23_Node000001_Node000015"><a xlink:title=" ">
<path fill="none" stroke="#63b8ff" d="M96.42,-233.94C110.04,-231.08 125.12,-228.04 139,-225.5 222.11,-210.27 317.79,-195.44 383.02,-185.73"/>
<polygon fill="#63b8ff" stroke="#63b8ff" points="383.84,-189.14 393.22,-184.21 382.82,-182.22 383.84,-189.14"/>
</a>
</g>
</g>
<!-- Node16 -->
<g id="Node000016" class="node">
<title>Node16</title>
<g id="a_Node000016"><a xlink:href="namespacecbrc_1_1perlish.html#ace193148eb37542381568f674e8ca7c9" target="_top" xlink:title=" ">
<polygon fill="white" stroke="#666666" points="529.5,-237.5 393.5,-237.5 393.5,-207.5 529.5,-207.5 529.5,-237.5"/>
<text text-anchor="start" x="401.5" y="-225.5" font-family="Helvetica,sans-Serif" font-size="10.00">cbrc::perlish::splitOnOne</text>
<text text-anchor="middle" x="461.5" y="-214.5" font-family="Helvetica,sans-Serif" font-size="10.00">OrMoreCharsInCharSet</text>
</a>
</g>
</g>
<!-- Node1&#45;&gt;Node16 -->
<g id="edge27_Node000001_Node000016" class="edge">
<title>Node1&#45;&gt;Node16</title>
<g id="a_edge27_Node000001_Node000016"><a xlink:title=" ">
<path fill="none" stroke="#63b8ff" d="M103.35,-240.88C173.69,-237.26 301.26,-230.7 383.37,-226.47"/>
<polygon fill="#63b8ff" stroke="#63b8ff" points="383.59,-229.96 393.4,-225.95 383.23,-222.97 383.59,-229.96"/>
</a>
</g>
</g>
<!-- Node4 -->
<g id="Node000004" class="node">
<title>Node4</title>
<g id="a_Node000004"><a xlink:href="classcbrc_1_1FLEArray.html#a0a035b6ea365980182ea962f0185beb3" target="_top" xlink:title=" ">
<polygon fill="white" stroke="#666666" points="718,-237 590,-237 590,-218 718,-218 718,-237"/>
<text text-anchor="middle" x="654" y="-225" font-family="Helvetica,sans-Serif" font-size="10.00">cbrc::FLEArray::replace</text>
</a>
</g>
</g>
<!-- Node3&#45;&gt;Node4 -->
<g id="edge3_Node000003_Node000004" class="edge">
<title>Node3&#45;&gt;Node4</title>
<g id="a_edge3_Node000003_Node000004"><a xlink:title=" ">
<path fill="none" stroke="#63b8ff" d="M485.86,-375.78C524.12,-341.83 599.39,-275.06 634.35,-244.05"/>
<polygon fill="#63b8ff" stroke="#63b8ff" points="636.78,-246.57 641.93,-237.32 632.13,-241.33 636.78,-246.57"/>
</a>
</g>
</g>
<!-- Node6 -->
<g id="Node000006" class="node">
<title>Node6</title>
<g id="a_Node000006"><a xlink:href="classcbrc_1_1FLEArray.html#ad71311380d762114c9e0f3b0dda38b7c" target="_top" xlink:title=" ">
<polygon fill="white" stroke="#666666" points="1071.5,-284 960.5,-284 960.5,-265 1071.5,-265 1071.5,-284"/>
<text text-anchor="middle" x="1016" y="-272" font-family="Helvetica,sans-Serif" font-size="10.00">cbrc::FLEArray::size</text>
</a>
</g>
</g>
<!-- Node3&#45;&gt;Node6 -->
<g id="edge9_Node000003_Node000006" class="edge">
<title>Node3&#45;&gt;Node6</title>
<g id="a_edge9_Node000003_Node000006"><a xlink:title=" ">
<path fill="none" stroke="#63b8ff" d="M554.02,-405.73C646.32,-411.46 791.17,-410.51 906,-364.5 945.42,-348.71 981.35,-313.15 1000.49,-291.76"/>
<polygon fill="#63b8ff" stroke="#63b8ff" points="1003.27,-293.9 1007.2,-284.07 997.99,-289.3 1003.27,-293.9"/>
</a>
</g>
</g>
<!-- Node5 -->
<g id="Node000005" class="node">
<title>Node5</title>
<g id="a_Node000005"><a xlink:href="classcbrc_1_1FLEArray.html#a8255bcefe055e10a4fccd3331b450fee" target="_top" xlink:title=" ">
<polygon fill="white" stroke="#666666" points="888.5,-208 771.5,-208 771.5,-189 888.5,-189 888.5,-208"/>
<text text-anchor="middle" x="830" y="-196" font-family="Helvetica,sans-Serif" font-size="10.00">cbrc::FLEArray::bsize</text>
</a>
</g>
</g>
<!-- Node4&#45;&gt;Node5 -->
<g id="edge4_Node000004_Node000005" class="edge">
<title>Node4&#45;&gt;Node5</title>
<g id="a_edge4_Node000004_Node000005"><a xlink:title=" ">
<path fill="none" stroke="#63b8ff" d="M712.46,-217.92C728.28,-215.29 745.58,-212.4 761.89,-209.68"/>
<polygon fill="#63b8ff" stroke="#63b8ff" points="762.61,-213.11 771.9,-208.02 761.46,-206.21 762.61,-213.11"/>
</a>
</g>
</g>
<!-- Node4&#45;&gt;Node6 -->
<g id="edge8_Node000004_Node000006" class="edge">
<title>Node4&#45;&gt;Node6</title>
<g id="a_edge8_Node000004_Node000006"><a xlink:title=" ">
<path fill="none" stroke="#63b8ff" d="M718.12,-235.74C783.3,-244.25 884.49,-257.46 950.26,-266.05"/>
<polygon fill="#63b8ff" stroke="#63b8ff" points="950.13,-269.56 960.5,-267.38 951.03,-262.62 950.13,-269.56"/>
</a>
</g>
</g>
<!-- Node7 -->
<g id="Node000007" class="node">
<title>Node7</title>
<g id="a_Node000007"><a xlink:href="classcbrc_1_1FLEArray.html#a5368c7c0434bd5c119d2cbb39f4b399e" target="_top" xlink:title=" ">
<polygon fill="white" stroke="#666666" points="1083.5,-95 948.5,-95 948.5,-76 1083.5,-76 1083.5,-95"/>
<text text-anchor="middle" x="1016" y="-83" font-family="Helvetica,sans-Serif" font-size="10.00">cbrc::FLEArray::FLEArray</text>
</a>
</g>
</g>
<!-- Node4&#45;&gt;Node7 -->
<g id="edge6_Node000004_Node000007" class="edge">
<title>Node4&#45;&gt;Node7</title>
<g id="a_edge6_Node000004_Node000007"><a xlink:title=" ">
<path fill="none" stroke="#63b8ff" d="M675.02,-217.91C688.08,-211.08 705.05,-201.08 718,-189.5 737.61,-171.95 731.79,-156.61 754,-142.5 756.2,-141.1 884.57,-113.44 960.43,-97.17"/>
<polygon fill="#63b8ff" stroke="#63b8ff" points="961.27,-100.57 970.32,-95.06 959.81,-93.73 961.27,-100.57"/>
</a>
</g>
</g>
<!-- Node5&#45;&gt;Node6 -->
<g id="edge5_Node000005_Node000006" class="edge">
<title>Node5&#45;&gt;Node6</title>
<g id="a_edge5_Node000005_Node000006"><a xlink:title=" ">
<path fill="none" stroke="#63b8ff" d="M864.2,-208.06C877.35,-212.13 892.53,-217.16 906,-222.5 934.52,-233.81 966.06,-249.18 987.84,-260.27"/>
<polygon fill="#63b8ff" stroke="#63b8ff" points="986.33,-263.44 996.82,-264.89 989.53,-257.21 986.33,-263.44"/>
</a>
</g>
</g>
<!-- Node7&#45;&gt;Node7 -->
<g id="edge7_Node000007_Node000007" class="edge">
<title>Node7&#45;&gt;Node7</title>
<g id="a_edge7_Node000007_Node000007"><a xlink:title=" ">
<path fill="none" stroke="#63b8ff" d="M987.33,-95.08C973.39,-103.73 982.94,-113 1016,-113 1038.73,-113 1050.35,-108.62 1050.86,-103.07"/>
<polygon fill="#63b8ff" stroke="#63b8ff" points="1053.56,-100.84 1044.67,-95.08 1048.03,-105.13 1053.56,-100.84"/>
</a>
</g>
</g>
<!-- Node8&#45;&gt;Node6 -->
<g id="edge17_Node000008_Node000006" class="edge">
<title>Node8&#45;&gt;Node6</title>
<g id="a_edge17_Node000008_Node000006"><a xlink:title=" ">
<path fill="none" stroke="#63b8ff" d="M325.59,-280.52C396.82,-292.06 499.58,-307.5 590,-316.5 662.64,-323.73 681.03,-323.5 754,-325.5 821.53,-327.35 840.06,-340.16 906,-325.5 937.09,-318.59 969.8,-301.82 991.18,-289.39"/>
<polygon fill="#63b8ff" stroke="#63b8ff" points="993.09,-292.33 999.89,-284.2 989.51,-286.32 993.09,-292.33"/>
</a>
</g>
</g>
<!-- Node9 -->
<g id="Node000009" class="node">
<title>Node9</title>
<g id="a_Node000009"><a xlink:href="namespacecbrc_1_1perlish.html#a9ec548121232207238e6018a59aeb1f4" target="_top" xlink:title=" ">
<polygon fill="white" stroke="#666666" points="514,-275 409,-275 409,-256 514,-256 514,-275"/>
<text text-anchor="middle" x="461.5" y="-263" font-family="Helvetica,sans-Serif" font-size="10.00">cbrc::perlish::chop</text>
</a>
</g>
</g>
<!-- Node8&#45;&gt;Node9 -->
<g id="edge11_Node000008_Node000009" class="edge">
<title>Node8&#45;&gt;Node9</title>
<g id="a_edge11_Node000008_Node000009"><a xlink:title=" ">
<path fill="none" stroke="#63b8ff" d="M333.08,-265.5C355.35,-265.5 378.46,-265.5 398.79,-265.5"/>
<polygon fill="#63b8ff" stroke="#63b8ff" points="398.84,-269 408.84,-265.5 398.84,-262 398.84,-269"/>
</a>
</g>
</g>
<!-- Node10 -->
<g id="Node000010" class="node">
<title>Node10</title>
<g id="a_Node000010"><a xlink:href="classcbrc_1_1FLEArray.html#ad003950bdededca7ee3b3dd6cd6ea644" target="_top" xlink:title=" ">
<polygon fill="white" stroke="#666666" points="714.5,-181 593.5,-181 593.5,-162 714.5,-162 714.5,-181"/>
<text text-anchor="middle" x="654" y="-169" font-family="Helvetica,sans-Serif" font-size="10.00">cbrc::FLEArray::resize</text>
</a>
</g>
</g>
<!-- Node9&#45;&gt;Node10 -->
<g id="edge12_Node000009_Node000010" class="edge">
<title>Node9&#45;&gt;Node10</title>
<g id="a_edge12_Node000009_Node000010"><a xlink:title=" ">
<path fill="none" stroke="#63b8ff" d="M514.31,-260.38C527.82,-257.57 541.95,-253.22 554,-246.5 574.32,-235.17 571.79,-222.98 590,-208.5 600.63,-200.05 613.38,-192.2 624.62,-185.92"/>
<polygon fill="#63b8ff" stroke="#63b8ff" points="626.51,-188.88 633.63,-181.04 623.17,-182.73 626.51,-188.88"/>
</a>
</g>
</g>
<!-- Node10&#45;&gt;Node7 -->
<g id="edge13_Node000010_Node000007" class="edge">
<title>Node10&#45;&gt;Node7</title>
<g id="a_edge13_Node000010_Node000007"><a xlink:title=" ">
<path fill="none" stroke="#63b8ff" d="M692.12,-162C701.01,-158.81 710.19,-154.7 718,-149.5 737.91,-136.25 732.62,-120.22 754,-109.5 811.03,-80.9 883.89,-76.43 938.12,-78.24"/>
<polygon fill="#63b8ff" stroke="#63b8ff" points="938.23,-81.74 948.37,-78.66 938.52,-74.75 938.23,-81.74"/>
</a>
</g>
</g>
<!-- Node11 -->
<g id="Node000011" class="node">
<title>Node11</title>
<g id="a_Node000011"><a xlink:href="classcbrc_1_1FLEArray.html#a5f10f892188c41f2821ef33ee9bcc743" target="_top" xlink:title=" ">
<polygon fill="white" stroke="#666666" points="893.5,-171 766.5,-171 766.5,-152 893.5,-152 893.5,-171"/>
<text text-anchor="middle" x="830" y="-159" font-family="Helvetica,sans-Serif" font-size="10.00">cbrc::FLEArray::setSize</text>
</a>
</g>
</g>
<!-- Node10&#45;&gt;Node11 -->
<g id="edge14_Node000010_Node000011" class="edge">
<title>Node10&#45;&gt;Node11</title>
<g id="a_edge14_Node000010_Node000011"><a xlink:title=" ">
<path fill="none" stroke="#63b8ff" d="M714.88,-168.06C728.12,-167.3 742.29,-166.48 755.98,-165.7"/>
<polygon fill="#63b8ff" stroke="#63b8ff" points="756.56,-169.17 766.34,-165.1 756.16,-162.18 756.56,-169.17"/>
</a>
</g>
</g>
<!-- Node11&#45;&gt;Node6 -->
<g id="edge16_Node000011_Node000006" class="edge">
<title>Node11&#45;&gt;Node6</title>
<g id="a_edge16_Node000011_Node000006"><a xlink:title=" ">
<path fill="none" stroke="#63b8ff" d="M885,-171.12C892.26,-173.37 899.45,-176.12 906,-179.5 944.41,-199.31 980.45,-235.44 999.94,-256.98"/>
<polygon fill="#63b8ff" stroke="#63b8ff" points="997.54,-259.55 1006.79,-264.71 1002.78,-254.91 997.54,-259.55"/>
</a>
</g>
</g>
<!-- Node11&#45;&gt;Node7 -->
<g id="edge15_Node000011_Node000007" class="edge">
<title>Node11&#45;&gt;Node7</title>
<g id="a_edge15_Node000011_Node000007"><a xlink:title=" ">
<path fill="none" stroke="#63b8ff" d="M864.2,-151.94C877.35,-147.87 892.53,-142.84 906,-137.5 934.52,-126.19 966.06,-110.82 987.84,-99.73"/>
<polygon fill="#63b8ff" stroke="#63b8ff" points="989.53,-102.79 996.82,-95.11 986.33,-96.56 989.53,-102.79"/>
</a>
</g>
</g>
<!-- Node12&#45;&gt;Node7 -->
<g id="edge22_Node000012_Node000007" class="edge">
<title>Node12&#45;&gt;Node7</title>
<g id="a_edge22_Node000012_Node000007"><a xlink:title=" ">
<path fill="none" stroke="#63b8ff" d="M666.2,-121.83C683.6,-107.52 718.77,-81.34 754,-71.5 826.26,-51.31 914.06,-63.04 967.18,-73.88"/>
<polygon fill="#63b8ff" stroke="#63b8ff" points="966.49,-77.31 977,-75.96 967.94,-70.47 966.49,-77.31"/>
</a>
</g>
</g>
<!-- Node13 -->
<g id="Node000013" class="node">
<title>Node13</title>
<g id="a_Node000013"><a xlink:href="classcbrc_1_1FLEArray.html#a985e9e85d6fc6adf9d3c52a0306361a4" target="_top" xlink:title=" ">
<polygon fill="white" stroke="#666666" points="906,-19 754,-19 754,0 906,0 906,-19"/>
<text text-anchor="middle" x="830" y="-7" font-family="Helvetica,sans-Serif" font-size="10.00">cbrc::FLEArray::_validRange</text>
</a>
</g>
</g>
<!-- Node12&#45;&gt;Node13 -->
<g id="edge19_Node000012_Node000013" class="edge">
<title>Node12&#45;&gt;Node13</title>
<g id="a_edge19_Node000012_Node000013"><a xlink:title=" ">
<path fill="none" stroke="#63b8ff" d="M662.09,-121.92C676.97,-102.46 713.47,-58.07 754,-33.5 761.31,-29.07 769.52,-25.37 777.76,-22.31"/>
<polygon fill="#63b8ff" stroke="#63b8ff" points="779.07,-25.56 787.4,-19.01 776.8,-18.94 779.07,-25.56"/>
</a>
</g>
</g>
<!-- Node13&#45;&gt;Node7 -->
<g id="edge21_Node000013_Node000007" class="edge">
<title>Node13&#45;&gt;Node7</title>
<g id="a_edge21_Node000013_Node000007"><a xlink:title=" ">
<path fill="none" stroke="#63b8ff" d="M864.2,-19.06C877.35,-23.13 892.53,-28.16 906,-33.5 934.52,-44.81 966.06,-60.18 987.84,-71.27"/>
<polygon fill="#63b8ff" stroke="#63b8ff" points="986.33,-74.44 996.82,-75.89 989.53,-68.21 986.33,-74.44"/>
</a>
</g>
</g>
<!-- Node14 -->
<g id="Node000014" class="node">
<title>Node14</title>
<g id="a_Node000014"><a xlink:href="classcbrc_1_1FLEArray.html#a0a06120b85cf875ccff4081918fe0f33" target="_top" xlink:title=" ">
<polygon fill="white" stroke="#666666" points="1090,-19 942,-19 942,0 1090,0 1090,-19"/>
<text text-anchor="middle" x="1016" y="-7" font-family="Helvetica,sans-Serif" font-size="10.00">cbrc::FLEArray::_validIndex</text>
</a>
</g>
</g>
<!-- Node13&#45;&gt;Node14 -->
<g id="edge20_Node000013_Node000014" class="edge">
<title>Node13&#45;&gt;Node14</title>
<g id="a_edge20_Node000013_Node000014"><a xlink:title=" ">
<path fill="none" stroke="#63b8ff" d="M906.11,-9.5C914.6,-9.5 923.3,-9.5 931.9,-9.5"/>
<polygon fill="#63b8ff" stroke="#63b8ff" points="931.92,-13 941.92,-9.5 931.92,-6 931.92,-13"/>
</a>
</g>
</g>
<!-- Node15&#45;&gt;Node6 -->
<g id="edge26_Node000015_Node000006" class="edge">
<title>Node15&#45;&gt;Node6</title>
<g id="a_edge26_Node000015_Node000006"><a xlink:title=" ">
<path fill="none" stroke="#63b8ff" d="M529.76,-186.5C538.31,-189.62 546.64,-193.55 554,-198.5 576.13,-213.38 566.68,-233.57 590,-246.5 706.48,-311.08 869.44,-298.65 955.82,-285.6"/>
<polygon fill="#63b8ff" stroke="#63b8ff" points="956.37,-289.06 965.71,-284.05 955.29,-282.14 956.37,-289.06"/>
</a>
</g>
</g>
<!-- Node15&#45;&gt;Node10 -->
<g id="edge25_Node000015_Node000010" class="edge">
<title>Node15&#45;&gt;Node10</title>
<g id="a_edge25_Node000015_Node000010"><a xlink:title=" ">
<path fill="none" stroke="#63b8ff" d="M529.66,-173.44C547.04,-173.17 565.78,-172.87 583.28,-172.6"/>
<polygon fill="#63b8ff" stroke="#63b8ff" points="583.47,-176.1 593.42,-172.44 583.36,-169.1 583.47,-176.1"/>
</a>
</g>
</g>
<!-- Node15&#45;&gt;Node12 -->
<g id="edge24_Node000015_Node000012" class="edge">
<title>Node15&#45;&gt;Node12</title>
<g id="a_edge24_Node000015_Node000012"><a xlink:title=" ">
<path fill="none" stroke="#63b8ff" d="M529.13,-159.46C552.67,-154.15 578.78,-148.25 600.94,-143.25"/>
<polygon fill="#63b8ff" stroke="#63b8ff" points="601.83,-146.64 610.81,-141.02 600.29,-139.81 601.83,-146.64"/>
</a>
</g>
</g>
<!-- Node16&#45;&gt;Node6 -->
<g id="edge29_Node000016_Node000006" class="edge">
<title>Node16&#45;&gt;Node6</title>
<g id="a_edge29_Node000016_Node000006"><a xlink:title=" ">
<path fill="none" stroke="#63b8ff" d="M529.9,-236C538.34,-239.09 546.6,-242.88 554,-247.5 574.57,-260.35 567.91,-278.5 590,-288.5 720.5,-347.58 897.34,-309.06 975.29,-286.95"/>
<polygon fill="#63b8ff" stroke="#63b8ff" points="976.55,-290.23 985.18,-284.08 974.6,-283.5 976.55,-290.23"/>
</a>
</g>
</g>
<!-- Node16&#45;&gt;Node12 -->
<g id="edge28_Node000016_Node000012" class="edge">
<title>Node16&#45;&gt;Node12</title>
<g id="a_edge28_Node000016_Node000012"><a xlink:title=" ">
<path fill="none" stroke="#63b8ff" d="M529.66,-210.35C538.23,-207.26 546.59,-203.37 554,-198.5 575.69,-184.24 568.78,-167.46 590,-152.5 594.03,-149.66 598.47,-147.18 603.07,-145.03"/>
<polygon fill="#63b8ff" stroke="#63b8ff" points="604.77,-148.11 612.66,-141.04 602.08,-141.64 604.77,-148.11"/>
</a>
</g>
</g>
</g>
</svg>

<g id="navigator" transform="translate(0 0)" fill="#404254">
  <rect fill="#f2f5e9" fill-opacity="0.5" stroke="#606060" stroke-width=".5" x="0" y="0" width="60" height="60"/>
  <use id="zoomplus" xlink:href="#zoomPlus" x="17" y="9" onmousedown="handleZoom(evt,'in')"/>
  <use id="zoomminus" xlink:href="#zoomMin" x="42" y="9" onmousedown="handleZoom(evt,'out')"/>
  <use id="reset" xlink:href="#resetDef" x="30" y="36" onmousedown="handleReset()"/>
   <use id="arrowup" xlink:href="#arrowUp" x="0" y="0" onmousedown="handlePan(0,-1)"/>
  <use id="arrowright" xlink:href="#arrowRight" x="0" y="0" onmousedown="handlePan(1,0)"/>
  <use id="arrowdown" xlink:href="#arrowDown" x="0" y="0" onmousedown="handlePan(0,1)"/>
  <use id="arrowleft" xlink:href="#arrowLeft" x="0" y="0" onmousedown="handlePan(-1,0)"/>
</g>
<svg viewBox="0 0 15 15" width="100%" height="30px" preserveAspectRatio="xMaxYMin meet">
 <g id="arrow_out" transform="scale(0.3 0.3)">
  <a xlink:href="namespacecbrc_1_1perlish_aa8224a10fd2772dc264f5fc4664624c3_cgraph_org.svg" target="_base">
   <rect id="button" ry="5" rx="5" y="6" x="6" height="38" width="38"
        fill="#f2f5e9" fill-opacity="0.5" stroke="#606060" stroke-width="1.0"/>
   <path id="arrow"
     d="M 11.500037,31.436501 C 11.940474,20.09759 22.043105,11.32322 32.158766,21.979434 L 37.068811,17.246167 C 37.068811,17.246167 37.088388,32 37.088388,32 L 22.160133,31.978069 C 22.160133,31.978069 26.997745,27.140456 26.997745,27.140456 C 18.528582,18.264221 13.291696,25.230495 11.500037,31.436501 z"
     style="fill:#404040;"/>
  </a>
 </g>
</svg>

<style type='text/css'>
<![CDATA[
[data-mouse-over-selected='false'] { opacity: 0.7; }
[data-mouse-over-selected='true']  { opacity: 1.0; }
]]>
</style>
<script type="application/ecmascript"><![CDATA[
document.addEventListener('DOMContentLoaded', (event) => {
  highlightEdges();
  highlightAdjacentNodes();
});
]]></script>
</svg>
