<?xml version="1.0" encoding="UTF-8" standalone="no"?>
<!DOCTYPE svg PUBLIC "-//W3C//DTD SVG 1.1//EN"
 "http://www.w3.org/Graphics/SVG/1.1/DTD/svg11.dtd">
<!-- Generated by graphviz version 2.43.0 (0)
 -->
<!-- Title: cbrc::smoothing::averageYCoordinatesWithNeighboringPointsUntilMinSampleSizeAttained Pages: 1 -->
<svg width="640pt" height="116pt"
 viewBox="0.00 0.00 640.00 115.50" xmlns="http://www.w3.org/2000/svg" xmlns:xlink="http://www.w3.org/1999/xlink">
<g id="graph0" class="graph" transform="scale(1 1) rotate(0) translate(4 111.5)">
<title>cbrc::smoothing::averageYCoordinatesWithNeighboringPointsUntilMinSampleSizeAttained</title>
<!-- Node1 -->
<g id="Node000001" class="node">
<title>Node1</title>
<g id="a_Node000001"><a xlink:title=" ">
<polygon fill="#999999" stroke="#666666" points="632,-51 440,-51 440,-10 632,-10 632,-51"/>
<text text-anchor="start" x="448" y="-39" font-family="Helvetica,sans-Serif" font-size="10.00">cbrc::smoothing::average</text>
<text text-anchor="start" x="448" y="-28" font-family="Helvetica,sans-Serif" font-size="10.00">YCoordinatesWithNeighboringPoints</text>
<text text-anchor="middle" x="536" y="-17" font-family="Helvetica,sans-Serif" font-size="10.00">UntilMinSampleSizeAttained</text>
</a>
</g>
</g>
<!-- Node2 -->
<g id="Node000002" class="node">
<title>Node2</title>
<g id="a_Node000002"><a xlink:href="namespacecbrc_1_1smoothing.html#a7841dbf6fb908ba9d4dab17f77387236" target="_top" xlink:title=" ">
<polygon fill="white" stroke="#666666" points="404,-67.5 252,-67.5 252,-37.5 404,-37.5 404,-67.5"/>
<text text-anchor="start" x="260" y="-55.5" font-family="Helvetica,sans-Serif" font-size="10.00">cbrc::smoothing::monotonic</text>
<text text-anchor="middle" x="328" y="-44.5" font-family="Helvetica,sans-Serif" font-size="10.00">SmoothY</text>
</a>
</g>
</g>
<!-- Node1&#45;&gt;Node2 -->
<g id="edge1_Node000001_Node000002" class="edge">
<title>Node1&#45;&gt;Node2</title>
<g id="a_edge1_Node000001_Node000002"><a xlink:title=" ">
<path fill="none" stroke="#63b8ff" d="M429.68,-41.75C421.02,-42.67 412.38,-43.59 404.01,-44.49"/>
<polygon fill="#63b8ff" stroke="#63b8ff" points="430.27,-45.21 439.84,-40.66 429.52,-38.24 430.27,-45.21"/>
</a>
</g>
</g>
<!-- Node6 -->
<g id="Node000006" class="node">
<title>Node6</title>
<g id="a_Node000006"><a xlink:href="namespacecbrc.html#a21b3d568b029c61ac627788f2c9f16e8" target="_top" xlink:title=" ">
<polygon fill="white" stroke="#666666" points="392,-19 264,-19 264,0 392,0 392,-19"/>
<text text-anchor="middle" x="328" y="-7" font-family="Helvetica,sans-Serif" font-size="10.00">cbrc::smoothMinPoints</text>
</a>
</g>
</g>
<!-- Node1&#45;&gt;Node6 -->
<g id="edge5_Node000001_Node000006" class="edge">
<title>Node1&#45;&gt;Node6</title>
<g id="a_edge5_Node000001_Node000006"><a xlink:title=" ">
<path fill="none" stroke="#63b8ff" d="M429.61,-19.76C416.86,-18.46 404.15,-17.16 392.27,-15.95"/>
<polygon fill="#63b8ff" stroke="#63b8ff" points="429.54,-23.27 439.84,-20.8 430.25,-16.3 429.54,-23.27"/>
</a>
</g>
</g>
<!-- Node3 -->
<g id="Node000003" class="node">
<title>Node3</title>
<g id="a_Node000003"><a xlink:href="namespacecbrc.html#aef2d0ed299987208c4ea3f95ca35008f" target="_top" xlink:title=" ">
<polygon fill="white" stroke="#666666" points="216,-107.5 77,-107.5 77,-77.5 216,-77.5 216,-107.5"/>
<text text-anchor="start" x="85" y="-95.5" font-family="Helvetica,sans-Serif" font-size="10.00">cbrc::labeledBlastToOdds</text>
<text text-anchor="middle" x="146.5" y="-84.5" font-family="Helvetica,sans-Serif" font-size="10.00">Ratio</text>
</a>
</g>
</g>
<!-- Node2&#45;&gt;Node3 -->
<g id="edge2_Node000002_Node000003" class="edge">
<title>Node2&#45;&gt;Node3</title>
<g id="a_edge2_Node000002_Node000003"><a xlink:title=" ">
<path fill="none" stroke="#63b8ff" d="M249.6,-69.75C238.06,-72.32 226.24,-74.95 214.93,-77.47"/>
<polygon fill="#63b8ff" stroke="#63b8ff" points="250.65,-73.1 259.65,-67.51 249.13,-66.27 250.65,-73.1"/>
</a>
</g>
</g>
<!-- Node5 -->
<g id="Node000005" class="node">
<title>Node5</title>
<g id="a_Node000005"><a xlink:href="namespacecbrc.html#a2cde2566ec76e051d46f1e427eae9802" target="_top" xlink:title=" ">
<polygon fill="white" stroke="#666666" points="210.5,-59 82.5,-59 82.5,-40 210.5,-40 210.5,-59"/>
<text text-anchor="middle" x="146.5" y="-47" font-family="Helvetica,sans-Serif" font-size="10.00">cbrc::smoothMinPoints</text>
</a>
</g>
</g>
<!-- Node2&#45;&gt;Node5 -->
<g id="edge4_Node000002_Node000005" class="edge">
<title>Node2&#45;&gt;Node5</title>
<g id="a_edge4_Node000002_Node000005"><a xlink:title=" ">
<path fill="none" stroke="#63b8ff" d="M241.87,-51.08C231.35,-50.9 220.74,-50.72 210.62,-50.55"/>
<polygon fill="#63b8ff" stroke="#63b8ff" points="241.86,-54.58 251.92,-51.25 241.98,-47.58 241.86,-54.58"/>
</a>
</g>
</g>
<!-- Node4 -->
<g id="Node000004" class="node">
<title>Node4</title>
<g id="a_Node000004"><a xlink:href="labeledBlastToOddsRatio_8cc.html#a3c04138a5bfe5d72780bb7e82a18e627" target="_top" xlink:title=" ">
<polygon fill="white" stroke="#666666" points="41,-102 0,-102 0,-83 41,-83 41,-102"/>
<text text-anchor="middle" x="20.5" y="-90" font-family="Helvetica,sans-Serif" font-size="10.00">main</text>
</a>
</g>
</g>
<!-- Node3&#45;&gt;Node4 -->
<g id="edge3_Node000003_Node000004" class="edge">
<title>Node3&#45;&gt;Node4</title>
<g id="a_edge3_Node000003_Node000004"><a xlink:title=" ">
<path fill="none" stroke="#63b8ff" d="M66.95,-92.5C57.49,-92.5 48.59,-92.5 41.21,-92.5"/>
<polygon fill="#63b8ff" stroke="#63b8ff" points="66.97,-96 76.97,-92.5 66.97,-89 66.97,-96"/>
</a>
</g>
</g>
<!-- Node7 -->
<g id="Node000007" class="node">
<title>Node7</title>
<g id="a_Node000007"><a xlink:href="smoothMinSampleSize_8cc.html#ac0f2228420376f4db7e1274f2b41667c" target="_top" xlink:title=" ">
<polygon fill="white" stroke="#666666" points="167,-19 126,-19 126,0 167,0 167,-19"/>
<text text-anchor="middle" x="146.5" y="-7" font-family="Helvetica,sans-Serif" font-size="10.00">main</text>
</a>
</g>
</g>
<!-- Node6&#45;&gt;Node7 -->
<g id="edge6_Node000006_Node000007" class="edge">
<title>Node6&#45;&gt;Node7</title>
<g id="a_edge6_Node000006_Node000007"><a xlink:title=" ">
<path fill="none" stroke="#63b8ff" d="M253.88,-9.5C222.46,-9.5 188.21,-9.5 167.29,-9.5"/>
<polygon fill="#63b8ff" stroke="#63b8ff" points="253.97,-13 263.97,-9.5 253.97,-6 253.97,-13"/>
</a>
</g>
</g>
</g>
</svg>
