<?xml version="1.0" encoding="UTF-8" standalone="no"?>
<!DOCTYPE svg PUBLIC "-//W3C//DTD SVG 1.1//EN"
 "http://www.w3.org/Graphics/SVG/1.1/DTD/svg11.dtd">
<!-- Generated by graphviz version 2.43.0 (0)
 -->
<!-- Title: cbrc::_argvParserNullString Pages: 1 -->
<!--zoomable 684 -->

<svg id="main" version="1.1" xmlns="http://www.w3.org/2000/svg" xmlns:xlink="http://www.w3.org/1999/xlink" xml:space="preserve" onload="init(evt)">
<style type="text/css"><![CDATA[
.node, .edge {opacity: 0.7;}
.node.selected, .edge.selected {opacity: 1;}
.edge:hover path { stroke: red; }
.edge:hover polygon { stroke: red; fill: red; }
]]></style>

<defs>
  <circle id="rim" cx="0" cy="0" r="7"/>
  <circle id="rim2" cx="0" cy="0" r="3.5"/>
  <g id="zoomPlus">
    <use xlink:href="#rim" fill="#404040"><set attributeName="fill" to="#808080" begin="zoomplus.mouseover" end="zoomplus.mouseout"/></use>
    <path d="M-4,0h8M0,-4v8" fill="none" stroke="white" stroke-width="1.5" pointer-events="none"/>
  </g>
  <g id="zoomMin">
    <use xlink:href="#rim" fill="#404040"><set attributeName="fill" to="#808080" begin="zoomminus.mouseover" end="zoomminus.mouseout"/></use>
    <path d="M-4,0h8" fill="none" stroke="white" stroke-width="1.5" pointer-events="none"/>
  </g>
  <g id="arrowUp" transform="translate(30 24)">
    <use xlink:href="#rim"/>
    <path pointer-events="none" fill="none" stroke="white" stroke-width="1.5" d="M0,-3.0v7 M-2.5,-0.5L0,-3.0L2.5,-0.5"/>
  </g>
  <g id="arrowRight" transform="rotate(90) translate(36 -43)">
    <use xlink:href="#rim"/>
    <path pointer-events="none" fill="none" stroke="white" stroke-width="1.5" d="M0,-3.0v7 M-2.5,-0.5L0,-3.0L2.5,-0.5"/>
  </g>
  <g id="arrowDown" transform="rotate(180) translate(-30 -48)">
    <use xlink:href="#rim"/>
    <path pointer-events="none" fill="none" stroke="white" stroke-width="1.5" d="M0,-3.0v7 M-2.5,-0.5L0,-3.0L2.5,-0.5"/>
  </g>
  <g id="arrowLeft" transform="rotate(270) translate(-36 17)">
    <use xlink:href="#rim"/>
    <path pointer-events="none" fill="none" stroke="white" stroke-width="1.5" d="M0,-3.0v7 M-2.5,-0.5L0,-3.0L2.5,-0.5"/>
  </g>
  <g id="resetDef">
    <use xlink:href="#rim2" fill="#404040"><set attributeName="fill" to="#808080" begin="reset.mouseover" end="reset.mouseout"/></use>
  </g>
</defs>
<script type="application/ecmascript">
var viewWidth = 768;
var viewHeight = 684;
var sectionId = 'dynsection-0';
</script>
<script type="application/ecmascript" xlink:href="svg.min.js"/>
<svg id="graph" class="graph">
<g id="viewport">
<title>cbrc::_argvParserNullString</title>
<!-- Node1 -->
<g id="Node000001" class="node">
<title>Node1</title>
<g id="a_Node000001"><a xlink:title=" ">
<polygon fill="#999999" stroke="#666666" points="760,-336 612,-336 612,-317 760,-317 760,-336"/>
<text text-anchor="middle" x="686" y="-324" font-family="Helvetica,sans-Serif" font-size="10.00">cbrc::_argvParserNullString</text>
</a>
</g>
</g>
<!-- Node2 -->
<g id="Node000002" class="node">
<title>Node2</title>
<g id="a_Node000002"><a xlink:href="classcbrc_1_1ArgvParser.html#a273ad44f1f402d2a9c31d5cb04c2a63f" target="_top" xlink:title=" ">
<polygon fill="white" stroke="#666666" points="559,-488 425,-488 425,-469 559,-469 559,-488"/>
<text text-anchor="middle" x="492" y="-476" font-family="Helvetica,sans-Serif" font-size="10.00">cbrc::ArgvParser::getArg</text>
</a>
</g>
</g>
<!-- Node1&#45;&gt;Node2 -->
<g id="edge1_Node000001_Node000002" class="edge">
<title>Node1&#45;&gt;Node2</title>
<g id="a_edge1_Node000001_Node000002"><a xlink:title=" ">
<path fill="none" stroke="#63b8ff" d="M674.27,-344.96C657.08,-372.86 620.74,-425.6 576,-454.5 566.3,-460.77 554.92,-465.43 543.76,-468.9"/>
<polygon fill="#63b8ff" stroke="#63b8ff" points="677.38,-346.57 679.53,-336.2 671.38,-342.97 677.38,-346.57"/>
</a>
</g>
</g>
<!-- Node3 -->
<g id="Node000003" class="node">
<title>Node3</title>
<g id="a_Node000003"><a xlink:href="classcbrc_1_1ArgvParser.html#af13a60f32a0cf727ac0cf3fb3ae9de34" target="_top" xlink:title=" ">
<polygon fill="white" stroke="#666666" points="355,-622.5 221,-622.5 221,-592.5 355,-592.5 355,-622.5"/>
<text text-anchor="start" x="229" y="-610.5" font-family="Helvetica,sans-Serif" font-size="10.00">cbrc::ArgvParser::getArg</text>
<text text-anchor="middle" x="288" y="-599.5" font-family="Helvetica,sans-Serif" font-size="10.00">OrDie</text>
</a>
</g>
</g>
<!-- Node1&#45;&gt;Node3 -->
<g id="edge21_Node000001_Node000003" class="edge">
<title>Node1&#45;&gt;Node3</title>
<g id="a_edge21_Node000001_Node000003"><a xlink:title=" ">
<path fill="none" stroke="#63b8ff" d="M682.28,-346.12C674.77,-392.34 649.17,-508.35 576,-563.5 512.4,-611.44 417.98,-616.97 355.01,-614.17"/>
<polygon fill="#63b8ff" stroke="#63b8ff" points="685.75,-346.59 683.79,-336.18 678.83,-345.54 685.75,-346.59"/>
</a>
</g>
</g>
<!-- Node4 -->
<g id="Node000004" class="node">
<title>Node4</title>
<g id="a_Node000004"><a xlink:href="classcbrc_1_1ArgvParser.html#ace4e4a625d1c1114763fb25b41ab54e7" target="_top" xlink:title=" ">
<polygon fill="white" stroke="#666666" points="360.5,-574.5 215.5,-574.5 215.5,-544.5 360.5,-544.5 360.5,-574.5"/>
<text text-anchor="start" x="223.5" y="-562.5" font-family="Helvetica,sans-Serif" font-size="10.00">cbrc::ArgvParser::getEnum</text>
<text text-anchor="middle" x="288" y="-551.5" font-family="Helvetica,sans-Serif" font-size="10.00">OrDie</text>
</a>
</g>
</g>
<!-- Node1&#45;&gt;Node4 -->
<g id="edge22_Node000001_Node000004" class="edge">
<title>Node1&#45;&gt;Node4</title>
<g id="a_edge22_Node000001_Node000004"><a xlink:title=" ">
<path fill="none" stroke="#63b8ff" d="M680.81,-346.22C670.84,-387.86 641.44,-484.52 576,-528.5 512.57,-571.13 422.86,-573.97 360.7,-569.3"/>
<polygon fill="#63b8ff" stroke="#63b8ff" points="684.28,-346.76 683.08,-336.24 677.45,-345.21 684.28,-346.76"/>
</a>
</g>
</g>
<!-- Node5 -->
<g id="Node000005" class="node">
<title>Node5</title>
<g id="a_Node000005"><a xlink:href="classcbrc_1_1ArgvParser.html#af2a832f8094ea123b64c182612023d7f" target="_top" xlink:title=" ">
<polygon fill="white" stroke="#666666" points="346,-526 230,-526 230,-507 346,-507 346,-526"/>
<text text-anchor="middle" x="288" y="-514" font-family="Helvetica,sans-Serif" font-size="10.00">cbrc::ArgvParser::set</text>
</a>
</g>
</g>
<!-- Node1&#45;&gt;Node5 -->
<g id="edge30_Node000001_Node000005" class="edge">
<title>Node1&#45;&gt;Node5</title>
<g id="a_edge30_Node000001_Node000005"><a xlink:title=" ">
<path fill="none" stroke="#63b8ff" d="M679.23,-345.69C667.02,-382.55 634.72,-462.72 576,-497.5 502.64,-540.95 399.46,-534.89 338.88,-526.04"/>
<polygon fill="#63b8ff" stroke="#63b8ff" points="682.58,-346.71 682.27,-336.12 675.91,-344.59 682.58,-346.71"/>
</a>
</g>
</g>
<!-- Node11 -->
<g id="Node000011" class="node">
<title>Node11</title>
<g id="a_Node000011"><a xlink:href="classcbrc_1_1ArgvParser.html#a20c3a4a1e0613097369fede57b736b61" target="_top" xlink:title=" ">
<polygon fill="white" stroke="#666666" points="372,-474 204,-474 204,-455 372,-455 372,-474"/>
<text text-anchor="middle" x="288" y="-462" font-family="Helvetica,sans-Serif" font-size="10.00">cbrc::ArgvParser::setCautiously</text>
</a>
</g>
</g>
<!-- Node1&#45;&gt;Node11 -->
<g id="edge32_Node000001_Node000011" class="edge">
<title>Node1&#45;&gt;Node11</title>
<g id="a_edge32_Node000001_Node000011"><a xlink:title=" ">
<path fill="none" stroke="#63b8ff" d="M664.04,-342.12C642.84,-357.24 608.62,-379.83 576,-393.5 501.32,-424.79 409.7,-444.48 350.37,-454.98"/>
<polygon fill="#63b8ff" stroke="#63b8ff" points="666.24,-344.84 672.29,-336.14 662.14,-339.17 666.24,-344.84"/>
</a>
</g>
</g>
<!-- Node14 -->
<g id="Node000014" class="node">
<title>Node14</title>
<g id="a_Node000014"><a xlink:href="classcbrc_1_1ArgvParser.html#a429485e0298628a2f8f61364e9cc2df1" target="_top" xlink:title=" ">
<polygon fill="white" stroke="#666666" points="372,-422.5 204,-422.5 204,-392.5 372,-392.5 372,-422.5"/>
<text text-anchor="start" x="212" y="-410.5" font-family="Helvetica,sans-Serif" font-size="10.00">cbrc::ArgvParser::setCautiously</text>
<text text-anchor="middle" x="288" y="-399.5" font-family="Helvetica,sans-Serif" font-size="10.00">OrDie</text>
</a>
</g>
</g>
<!-- Node1&#45;&gt;Node14 -->
<g id="edge34_Node000001_Node000014" class="edge">
<title>Node1&#45;&gt;Node14</title>
<g id="a_edge34_Node000001_Node000014"><a xlink:title=" ">
<path fill="none" stroke="#63b8ff" d="M653.16,-339.79C631.69,-348.27 602.55,-358.88 576,-365.5 508.33,-382.38 429.88,-393.29 372.11,-399.75"/>
<polygon fill="#63b8ff" stroke="#63b8ff" points="654.46,-343.03 662.44,-336.06 651.86,-336.54 654.46,-343.03"/>
</a>
</g>
</g>
<!-- Node18 -->
<g id="Node000018" class="node">
<title>Node18</title>
<g id="a_Node000018"><a xlink:href="classcbrc_1_1ArgvParser.html#a4c8336b8cd01c009285d5f0ba688254c" target="_top" xlink:title=" ">
<polygon fill="white" stroke="#666666" points="360,-374 216,-374 216,-355 360,-355 360,-374"/>
<text text-anchor="middle" x="288" y="-362" font-family="Helvetica,sans-Serif" font-size="10.00">cbrc::ArgvParser::setOrDie</text>
</a>
</g>
</g>
<!-- Node1&#45;&gt;Node18 -->
<g id="edge36_Node000001_Node000018" class="edge">
<title>Node1&#45;&gt;Node18</title>
<g id="a_edge36_Node000001_Node000018"><a xlink:title=" ">
<path fill="none" stroke="#63b8ff" d="M626.88,-337.81C610.48,-340.68 592.58,-343.51 576,-345.5 502.75,-354.28 418.45,-359.26 360.26,-361.89"/>
<polygon fill="#63b8ff" stroke="#63b8ff" points="627.64,-341.23 636.87,-336.03 626.41,-334.34 627.64,-341.23"/>
</a>
</g>
</g>
<!-- Node22 -->
<g id="Node000022" class="node">
<title>Node22</title>
<g id="a_Node000022"><a xlink:href="classcbrc_1_1ArgvParser.html#acc20cd6aec93dc29e4e4cb99df4c53a6" target="_top" xlink:title=" ">
<polygon fill="white" stroke="#666666" points="561,-336 423,-336 423,-317 561,-317 561,-336"/>
<text text-anchor="middle" x="492" y="-324" font-family="Helvetica,sans-Serif" font-size="10.00">cbrc::ArgvParser::getFlag</text>
</a>
</g>
</g>
<!-- Node1&#45;&gt;Node22 -->
<g id="edge23_Node000001_Node000022" class="edge">
<title>Node1&#45;&gt;Node22</title>
<g id="a_edge23_Node000001_Node000022"><a xlink:title=" ">
<path fill="none" stroke="#63b8ff" d="M601.62,-326.5C588.12,-326.5 574.28,-326.5 561.19,-326.5"/>
<polygon fill="#63b8ff" stroke="#63b8ff" points="601.87,-330 611.87,-326.5 601.87,-323 601.87,-330"/>
</a>
</g>
</g>
<!-- Node25 -->
<g id="Node000025" class="node">
<title>Node25</title>
<g id="a_Node000025"><a xlink:href="classcbrc_1_1ArgvParser.html#adaa4bb9143dd1f5c4b40cbfb447785f1" target="_top" xlink:title=" ">
<polygon fill="white" stroke="#666666" points="346,-263 230,-263 230,-244 346,-244 346,-263"/>
<text text-anchor="middle" x="288" y="-251" font-family="Helvetica,sans-Serif" font-size="10.00">cbrc::ArgvParser::set</text>
</a>
</g>
</g>
<!-- Node1&#45;&gt;Node25 -->
<g id="edge31_Node000001_Node000025" class="edge">
<title>Node1&#45;&gt;Node25</title>
<g id="a_edge31_Node000001_Node000025"><a xlink:title=" ">
<path fill="none" stroke="#63b8ff" d="M623.1,-315.09C545.37,-300.76 413.42,-276.44 340.78,-263.05"/>
<polygon fill="#63b8ff" stroke="#63b8ff" points="622.76,-318.59 633.23,-316.96 624.03,-311.7 622.76,-318.59"/>
</a>
</g>
</g>
<!-- Node26 -->
<g id="Node000026" class="node">
<title>Node26</title>
<g id="a_Node000026"><a xlink:href="classcbrc_1_1ArgvParser.html#a57002fb266287967dfb72c07aae209e5" target="_top" xlink:title=" ">
<polygon fill="white" stroke="#666666" points="360,-226 216,-226 216,-207 360,-207 360,-226"/>
<text text-anchor="middle" x="288" y="-214" font-family="Helvetica,sans-Serif" font-size="10.00">cbrc::ArgvParser::setOrDie</text>
</a>
</g>
</g>
<!-- Node1&#45;&gt;Node26 -->
<g id="edge37_Node000001_Node000026" class="edge">
<title>Node1&#45;&gt;Node26</title>
<g id="a_edge37_Node000001_Node000026"><a xlink:title=" ">
<path fill="none" stroke="#63b8ff" d="M660.15,-311.79C638.57,-299.61 606.15,-282.7 576,-272.5 504.47,-248.29 419.17,-233.31 360.25,-225"/>
<polygon fill="#63b8ff" stroke="#63b8ff" points="658.55,-314.91 668.97,-316.85 662.04,-308.83 658.55,-314.91"/>
</a>
</g>
</g>
<!-- Node27 -->
<g id="Node000027" class="node">
<title>Node27</title>
<g id="a_Node000027"><a xlink:href="classcbrc_1_1ArgvParser.html#a5d653fed7dada9292de8660d76b196a8" target="_top" xlink:title=" ">
<polygon fill="white" stroke="#666666" points="559,-222.5 425,-222.5 425,-192.5 559,-192.5 559,-222.5"/>
<text text-anchor="start" x="433" y="-210.5" font-family="Helvetica,sans-Serif" font-size="10.00">cbrc::ArgvParser::getOpt</text>
<text text-anchor="middle" x="492" y="-199.5" font-family="Helvetica,sans-Serif" font-size="10.00">OrDie</text>
</a>
</g>
</g>
<!-- Node1&#45;&gt;Node27 -->
<g id="edge28_Node000001_Node000027" class="edge">
<title>Node1&#45;&gt;Node27</title>
<g id="a_edge28_Node000001_Node000027"><a xlink:title=" ">
<path fill="none" stroke="#63b8ff" d="M668.49,-309.61C648.27,-289.76 612.24,-256.92 576,-236.5 566.43,-231.1 555.67,-226.45 545.16,-222.55"/>
<polygon fill="#63b8ff" stroke="#63b8ff" points="666.11,-312.19 675.67,-316.77 671.06,-307.23 666.11,-312.19"/>
</a>
</g>
</g>
<!-- Node28 -->
<g id="Node000028" class="node">
<title>Node28</title>
<g id="a_Node000028"><a xlink:href="classcbrc_1_1ArgvParser.html#aea14ab84461e22dba9509f1d57025637" target="_top" xlink:title=" ">
<polygon fill="white" stroke="#666666" points="556.5,-174.5 427.5,-174.5 427.5,-144.5 556.5,-144.5 556.5,-174.5"/>
<text text-anchor="start" x="435.5" y="-162.5" font-family="Helvetica,sans-Serif" font-size="10.00">cbrc::ArgvParser::isNull</text>
<text text-anchor="middle" x="492" y="-151.5" font-family="Helvetica,sans-Serif" font-size="10.00">String</text>
</a>
</g>
</g>
<!-- Node1&#45;&gt;Node28 -->
<g id="edge29_Node000001_Node000028" class="edge">
<title>Node1&#45;&gt;Node28</title>
<g id="a_edge29_Node000001_Node000028"><a xlink:title=" ">
<path fill="none" stroke="#63b8ff" d="M675.75,-307.62C659.73,-276.92 623.9,-216.3 576,-183.5 570.06,-179.43 563.43,-176.05 556.58,-173.23"/>
<polygon fill="#63b8ff" stroke="#63b8ff" points="672.76,-309.47 680.41,-316.8 679,-306.3 672.76,-309.47"/>
</a>
</g>
</g>
<!-- Node29 -->
<g id="Node000029" class="node">
<title>Node29</title>
<g id="a_Node000029"><a xlink:href="classcbrc_1_1ArgvParser.html#a024c9c201f99c9fc4168509e24758886" target="_top" xlink:title=" ">
<polygon fill="white" stroke="#666666" points="576,-126 408,-126 408,-107 576,-107 576,-126"/>
<text text-anchor="middle" x="492" y="-114" font-family="Helvetica,sans-Serif" font-size="10.00">cbrc::ArgvParser::setCautiously</text>
</a>
</g>
</g>
<!-- Node1&#45;&gt;Node29 -->
<g id="edge33_Node000001_Node000029" class="edge">
<title>Node1&#45;&gt;Node29</title>
<g id="a_edge33_Node000001_Node000029"><a xlink:title=" ">
<path fill="none" stroke="#63b8ff" d="M679.68,-307.06C667.93,-268.02 635.96,-180.02 576,-135.5 570.78,-131.62 564.9,-128.52 558.74,-126.03"/>
<polygon fill="#63b8ff" stroke="#63b8ff" points="676.32,-308.06 682.46,-316.7 683.05,-306.12 676.32,-308.06"/>
</a>
</g>
</g>
<!-- Node30 -->
<g id="Node000030" class="node">
<title>Node30</title>
<g id="a_Node000030"><a xlink:href="classcbrc_1_1ArgvParser.html#ae2235cb31afbd26a6be09c2d9c5b739f" target="_top" xlink:title=" ">
<polygon fill="white" stroke="#666666" points="576,-88.5 408,-88.5 408,-58.5 576,-58.5 576,-88.5"/>
<text text-anchor="start" x="416" y="-76.5" font-family="Helvetica,sans-Serif" font-size="10.00">cbrc::ArgvParser::setCautiously</text>
<text text-anchor="middle" x="492" y="-65.5" font-family="Helvetica,sans-Serif" font-size="10.00">OrDie</text>
</a>
</g>
</g>
<!-- Node1&#45;&gt;Node30 -->
<g id="edge35_Node000001_Node000030" class="edge">
<title>Node1&#45;&gt;Node30</title>
<g id="a_edge35_Node000001_Node000030"><a xlink:title=" ">
<path fill="none" stroke="#63b8ff" d="M681.14,-306.49C671.56,-262.24 642.49,-155.5 576,-98.5 571.54,-94.68 566.52,-91.44 561.2,-88.7"/>
<polygon fill="#63b8ff" stroke="#63b8ff" points="677.77,-307.46 683.21,-316.55 684.63,-306.05 677.77,-307.46"/>
</a>
</g>
</g>
<!-- Node31 -->
<g id="Node000031" class="node">
<title>Node31</title>
<g id="a_Node000031"><a xlink:href="classcbrc_1_1ArgvParser.html#ade70c644ab6bb5f3e8703a11b03f0dee" target="_top" xlink:title=" ">
<polygon fill="white" stroke="#666666" points="553,-40 431,-40 431,-21 553,-21 553,-40"/>
<text text-anchor="middle" x="492" y="-28" font-family="Helvetica,sans-Serif" font-size="10.00">cbrc::ArgvParser::shift</text>
</a>
</g>
</g>
<!-- Node1&#45;&gt;Node31 -->
<g id="edge38_Node000001_Node000031" class="edge">
<title>Node1&#45;&gt;Node31</title>
<g id="a_edge38_Node000001_Node000031"><a xlink:title=" ">
<path fill="none" stroke="#63b8ff" d="M683.38,-306.82C678.09,-255.89 656.67,-118.91 576,-49.5 569.39,-43.81 561.42,-39.74 553.06,-36.83"/>
<polygon fill="#63b8ff" stroke="#63b8ff" points="679.9,-307.2 684.32,-316.83 686.87,-306.55 679.9,-307.2"/>
</a>
</g>
</g>
<!-- Node2&#45;&gt;Node3 -->
<g id="edge2_Node000002_Node000003" class="edge">
<title>Node2&#45;&gt;Node3</title>
<g id="a_edge2_Node000002_Node000003"><a xlink:title=" ">
<path fill="none" stroke="#63b8ff" d="M475.98,-495.88C454.97,-519.12 414.59,-560.11 372,-583.5 365.82,-586.89 359.11,-589.85 352.28,-592.42"/>
<polygon fill="#63b8ff" stroke="#63b8ff" points="478.79,-497.99 482.81,-488.18 473.55,-493.34 478.79,-497.99"/>
</a>
</g>
</g>
<!-- Node2&#45;&gt;Node4 -->
<g id="edge3_Node000002_Node000004" class="edge">
<title>Node2&#45;&gt;Node4</title>
<g id="a_edge3_Node000002_Node000004"><a xlink:title=" ">
<path fill="none" stroke="#63b8ff" d="M464.17,-492.93C440.41,-505.32 404.55,-523.1 372,-535.5 363.59,-538.7 354.56,-541.73 345.67,-544.47"/>
<polygon fill="#63b8ff" stroke="#63b8ff" points="466.05,-495.9 473.26,-488.14 462.78,-489.7 466.05,-495.9"/>
</a>
</g>
</g>
<!-- Node2&#45;&gt;Node5 -->
<g id="edge4_Node000002_Node000005" class="edge">
<title>Node2&#45;&gt;Node5</title>
<g id="a_edge4_Node000002_Node000005"><a xlink:title=" ">
<path fill="none" stroke="#63b8ff" d="M430.3,-489.92C401.4,-495.36 367.23,-501.78 339.73,-506.96"/>
<polygon fill="#63b8ff" stroke="#63b8ff" points="431.11,-493.33 440.29,-488.04 429.81,-486.45 431.11,-493.33"/>
</a>
</g>
</g>
<!-- Node2&#45;&gt;Node11 -->
<g id="edge10_Node000002_Node000011" class="edge">
<title>Node2&#45;&gt;Node11</title>
<g id="a_edge10_Node000002_Node000011"><a xlink:title=" ">
<path fill="none" stroke="#63b8ff" d="M414.86,-473.22C400.95,-472.26 386.37,-471.25 372.26,-470.27"/>
<polygon fill="#63b8ff" stroke="#63b8ff" points="414.64,-476.72 424.86,-473.92 415.12,-469.73 414.64,-476.72"/>
</a>
</g>
</g>
<!-- Node2&#45;&gt;Node14 -->
<g id="edge13_Node000002_Node000014" class="edge">
<title>Node2&#45;&gt;Node14</title>
<g id="a_edge13_Node000002_Node000014"><a xlink:title=" ">
<path fill="none" stroke="#63b8ff" d="M454.09,-465.53C419.66,-453.42 368.29,-435.37 332.02,-422.62"/>
<polygon fill="#63b8ff" stroke="#63b8ff" points="453.16,-468.91 463.76,-468.92 455.48,-462.31 453.16,-468.91"/>
</a>
</g>
</g>
<!-- Node2&#45;&gt;Node18 -->
<g id="edge17_Node000002_Node000018" class="edge">
<title>Node2&#45;&gt;Node18</title>
<g id="a_edge17_Node000002_Node000018"><a xlink:title=" ">
<path fill="none" stroke="#63b8ff" d="M474.87,-461.58C453.42,-440.1 413.38,-403.46 372,-383.5 364.01,-379.65 355.21,-376.56 346.41,-374.08"/>
<polygon fill="#63b8ff" stroke="#63b8ff" points="472.65,-464.31 482.14,-469 477.64,-459.41 472.65,-464.31"/>
</a>
</g>
</g>
<!-- Node6 -->
<g id="Node000006" class="node">
<title>Node6</title>
<g id="a_Node000006"><a xlink:href="fasta__dumpAminoAcidContentWPformat_8cc.html#ad53223b8779f25caeddb70a3b9172967" target="_top" xlink:title=" ">
<polygon fill="white" stroke="#666666" points="104.5,-528 63.5,-528 63.5,-509 104.5,-509 104.5,-528"/>
<text text-anchor="middle" x="84" y="-516" font-family="Helvetica,sans-Serif" font-size="10.00">main</text>
</a>
</g>
</g>
<!-- Node5&#45;&gt;Node6 -->
<g id="edge5_Node000005_Node000006" class="edge">
<title>Node5&#45;&gt;Node6</title>
<g id="a_edge5_Node000005_Node000006"><a xlink:title=" ">
<path fill="none" stroke="#63b8ff" d="M219.87,-517.16C179.55,-517.56 131.1,-518.04 104.63,-518.31"/>
<polygon fill="#63b8ff" stroke="#63b8ff" points="219.96,-520.66 229.92,-517.07 219.89,-513.66 219.96,-520.66"/>
</a>
</g>
</g>
<!-- Node7 -->
<g id="Node000007" class="node">
<title>Node7</title>
<g id="a_Node000007"><a xlink:href="runRecountExpectationMatchingTagCorrector_8cc.html#ac0f2228420376f4db7e1274f2b41667c" target="_top" xlink:title=" ">
<polygon fill="white" stroke="#666666" points="104.5,-676 63.5,-676 63.5,-657 104.5,-657 104.5,-676"/>
<text text-anchor="middle" x="84" y="-664" font-family="Helvetica,sans-Serif" font-size="10.00">main</text>
</a>
</g>
</g>
<!-- Node5&#45;&gt;Node7 -->
<g id="edge6_Node000005_Node000007" class="edge">
<title>Node5&#45;&gt;Node7</title>
<g id="a_edge6_Node000005_Node000007"><a xlink:title=" ">
<path fill="none" stroke="#63b8ff" d="M220.35,-524.96C214.37,-527.65 208.78,-531.1 204,-535.5 165.21,-571.19 207,-613.04 168,-648.5 150.76,-664.17 123.19,-667.36 104.6,-667.5"/>
<polygon fill="#63b8ff" stroke="#63b8ff" points="221.88,-528.12 230,-521.31 219.41,-521.57 221.88,-528.12"/>
</a>
</g>
</g>
<!-- Node8 -->
<g id="Node000008" class="node">
<title>Node8</title>
<g id="a_Node000008"><a xlink:href="classcbrc_1_1ArgvParser.html#ad5b37896c52dd2eed30ed9e5062a0224" target="_top" xlink:title=" ">
<polygon fill="white" stroke="#666666" points="142,-639 26,-639 26,-620 142,-620 142,-639"/>
<text text-anchor="middle" x="84" y="-627" font-family="Helvetica,sans-Serif" font-size="10.00">cbrc::ArgvParser::set</text>
</a>
</g>
</g>
<!-- Node5&#45;&gt;Node8 -->
<g id="edge7_Node000005_Node000008" class="edge">
<title>Node5&#45;&gt;Node8</title>
<g id="a_edge7_Node000005_Node000008"><a xlink:title=" ">
<path fill="none" stroke="#63b8ff" d="M220.39,-525.87C214.5,-528.39 208.92,-531.55 204,-535.5 174.86,-558.91 197.27,-588.26 168,-611.5 160.49,-617.46 151.45,-621.55 142.13,-624.34"/>
<polygon fill="#63b8ff" stroke="#63b8ff" points="221.66,-529.13 229.85,-522.4 219.25,-522.55 221.66,-529.13"/>
</a>
</g>
</g>
<!-- Node9 -->
<g id="Node000009" class="node">
<title>Node9</title>
<g id="a_Node000009"><a xlink:href="classcbrc_1_1ArgvParser.html#a916de2fed5134dbf8110a11b1d99effd" target="_top" xlink:title=" ">
<polygon fill="white" stroke="#666666" points="142,-602 26,-602 26,-583 142,-583 142,-602"/>
<text text-anchor="middle" x="84" y="-590" font-family="Helvetica,sans-Serif" font-size="10.00">cbrc::ArgvParser::set</text>
</a>
</g>
</g>
<!-- Node5&#45;&gt;Node9 -->
<g id="edge8_Node000005_Node000009" class="edge">
<title>Node5&#45;&gt;Node9</title>
<g id="a_edge8_Node000005_Node000009"><a xlink:title=" ">
<path fill="none" stroke="#63b8ff" d="M220.25,-527.97C214.58,-530.07 209.08,-532.56 204,-535.5 183.59,-547.33 188.48,-562.79 168,-574.5 160.06,-579.04 151.1,-582.43 142.08,-584.97"/>
<polygon fill="#63b8ff" stroke="#63b8ff" points="221.51,-531.24 229.91,-524.78 219.32,-524.59 221.51,-531.24"/>
</a>
</g>
</g>
<!-- Node10 -->
<g id="Node000010" class="node">
<title>Node10</title>
<g id="a_Node000010"><a xlink:href="classcbrc_1_1ArgvParser.html#af22321bfcb9e0d843a7e163bf0feb4fb" target="_top" xlink:title=" ">
<polygon fill="white" stroke="#666666" points="142,-565 26,-565 26,-546 142,-546 142,-565"/>
<text text-anchor="middle" x="84" y="-553" font-family="Helvetica,sans-Serif" font-size="10.00">cbrc::ArgvParser::set</text>
</a>
</g>
</g>
<!-- Node5&#45;&gt;Node10 -->
<g id="edge9_Node000005_Node000010" class="edge">
<title>Node5&#45;&gt;Node10</title>
<g id="a_edge9_Node000005_Node000010"><a xlink:title=" ">
<path fill="none" stroke="#63b8ff" d="M227.75,-527.94C198.03,-533.68 162.45,-540.55 134.25,-545.99"/>
<polygon fill="#63b8ff" stroke="#63b8ff" points="228.43,-531.37 237.59,-526.04 227.1,-524.5 228.43,-531.37"/>
</a>
</g>
</g>
<!-- Node12 -->
<g id="Node000012" class="node">
<title>Node12</title>
<g id="a_Node000012"><a xlink:href="classcbrc_1_1ArgvParser.html#aa391c52eee10155693f8b67c73c7ff30" target="_top" xlink:title=" ">
<polygon fill="white" stroke="#666666" points="168,-454 0,-454 0,-435 168,-435 168,-454"/>
<text text-anchor="middle" x="84" y="-442" font-family="Helvetica,sans-Serif" font-size="10.00">cbrc::ArgvParser::setCautiously</text>
</a>
</g>
</g>
<!-- Node11&#45;&gt;Node12 -->
<g id="edge11_Node000011_Node000012" class="edge">
<title>Node11&#45;&gt;Node12</title>
<g id="a_edge11_Node000011_Node000012"><a xlink:title=" ">
<path fill="none" stroke="#63b8ff" d="M193.89,-455.28C185.27,-454.43 176.56,-453.57 168.04,-452.72"/>
<polygon fill="#63b8ff" stroke="#63b8ff" points="193.67,-458.78 203.96,-456.28 194.36,-451.81 193.67,-458.78"/>
</a>
</g>
</g>
<!-- Node13 -->
<g id="Node000013" class="node">
<title>Node13</title>
<g id="a_Node000013"><a xlink:href="classcbrc_1_1ArgvParser.html#add9d44a80412304ba4d0cb025b740050" target="_top" xlink:title=" ">
<polygon fill="white" stroke="#666666" points="168,-491 0,-491 0,-472 168,-472 168,-491"/>
<text text-anchor="middle" x="84" y="-479" font-family="Helvetica,sans-Serif" font-size="10.00">cbrc::ArgvParser::setCautiously</text>
</a>
</g>
</g>
<!-- Node11&#45;&gt;Node13 -->
<g id="edge12_Node000011_Node000013" class="edge">
<title>Node11&#45;&gt;Node13</title>
<g id="a_edge12_Node000011_Node000013"><a xlink:title=" ">
<path fill="none" stroke="#63b8ff" d="M193.89,-472.34C185.27,-473.06 176.56,-473.79 168.04,-474.51"/>
<polygon fill="#63b8ff" stroke="#63b8ff" points="194.29,-475.81 203.96,-471.49 193.71,-468.84 194.29,-475.81"/>
</a>
</g>
</g>
<!-- Node15 -->
<g id="Node000015" class="node">
<title>Node15</title>
<g id="a_Node000015"><a xlink:href="writeRecountNeighborProbGraph_8cc.html#ac0f2228420376f4db7e1274f2b41667c" target="_top" xlink:title=" ">
<polygon fill="white" stroke="#666666" points="104.5,-417 63.5,-417 63.5,-398 104.5,-398 104.5,-417"/>
<text text-anchor="middle" x="84" y="-405" font-family="Helvetica,sans-Serif" font-size="10.00">main</text>
</a>
</g>
</g>
<!-- Node14&#45;&gt;Node15 -->
<g id="edge14_Node000014_Node000015" class="edge">
<title>Node14&#45;&gt;Node15</title>
<g id="a_edge14_Node000014_Node000015"><a xlink:title=" ">
<path fill="none" stroke="#63b8ff" d="M193.61,-407.5C160.09,-407.5 125.43,-407.5 104.55,-407.5"/>
<polygon fill="#63b8ff" stroke="#63b8ff" points="193.96,-411 203.96,-407.5 193.96,-404 193.96,-411"/>
</a>
</g>
</g>
<!-- Node16 -->
<g id="Node000016" class="node">
<title>Node16</title>
<g id="a_Node000016"><a xlink:href="classcbrc_1_1ArgvParser.html#ac6a5995c8c638a900fb3502fc0aea82d" target="_top" xlink:title=" ">
<polygon fill="white" stroke="#666666" points="168,-379.5 0,-379.5 0,-349.5 168,-349.5 168,-379.5"/>
<text text-anchor="start" x="8" y="-367.5" font-family="Helvetica,sans-Serif" font-size="10.00">cbrc::ArgvParser::setCautiously</text>
<text text-anchor="middle" x="84" y="-356.5" font-family="Helvetica,sans-Serif" font-size="10.00">OrDie</text>
</a>
</g>
</g>
<!-- Node14&#45;&gt;Node16 -->
<g id="edge15_Node000014_Node000016" class="edge">
<title>Node14&#45;&gt;Node16</title>
<g id="a_edge15_Node000014_Node000016"><a xlink:title=" ">
<path fill="none" stroke="#63b8ff" d="M206.54,-390.37C189.7,-386.79 172.06,-383.03 155.61,-379.53"/>
<polygon fill="#63b8ff" stroke="#63b8ff" points="205.84,-393.8 216.35,-392.46 207.3,-386.96 205.84,-393.8"/>
</a>
</g>
</g>
<!-- Node17 -->
<g id="Node000017" class="node">
<title>Node17</title>
<g id="a_Node000017"><a xlink:href="classcbrc_1_1ArgvParser.html#aa11fcbd0a683bb75d7e4e9283e7ecc64" target="_top" xlink:title=" ">
<polygon fill="white" stroke="#666666" points="168,-331.5 0,-331.5 0,-301.5 168,-301.5 168,-331.5"/>
<text text-anchor="start" x="8" y="-319.5" font-family="Helvetica,sans-Serif" font-size="10.00">cbrc::ArgvParser::setCautiously</text>
<text text-anchor="middle" x="84" y="-308.5" font-family="Helvetica,sans-Serif" font-size="10.00">OrDie</text>
</a>
</g>
</g>
<!-- Node14&#45;&gt;Node17 -->
<g id="edge16_Node000014_Node000017" class="edge">
<title>Node14&#45;&gt;Node17</title>
<g id="a_edge16_Node000014_Node000017"><a xlink:title=" ">
<path fill="none" stroke="#63b8ff" d="M211.99,-388.17C209.23,-386.72 206.56,-385.17 204,-383.5 183.12,-369.89 188.88,-354.11 168,-340.5 162.72,-337.06 156.94,-334.1 150.97,-331.56"/>
<polygon fill="#63b8ff" stroke="#63b8ff" points="210.5,-391.33 221.03,-392.44 213.49,-385 210.5,-391.33"/>
</a>
</g>
</g>
<!-- Node19 -->
<g id="Node000019" class="node">
<title>Node19</title>
<g id="a_Node000019"><a xlink:href="dumpRecountNeighborProbGraphOnDisk_8cc.html#ac0f2228420376f4db7e1274f2b41667c" target="_top" xlink:title=" ">
<polygon fill="white" stroke="#666666" points="104.5,-283 63.5,-283 63.5,-264 104.5,-264 104.5,-283"/>
<text text-anchor="middle" x="84" y="-271" font-family="Helvetica,sans-Serif" font-size="10.00">main</text>
</a>
</g>
</g>
<!-- Node18&#45;&gt;Node19 -->
<g id="edge18_Node000018_Node000019" class="edge">
<title>Node18&#45;&gt;Node19</title>
<g id="a_edge18_Node000018_Node000019"><a xlink:title=" ">
<path fill="none" stroke="#63b8ff" d="M211.09,-350.75C208.64,-349.46 206.26,-348.04 204,-346.5 180.16,-330.26 191.74,-308.88 168,-292.5 149.14,-279.49 122.69,-275.27 104.76,-273.96"/>
<polygon fill="#63b8ff" stroke="#63b8ff" points="209.72,-353.98 220.28,-354.94 212.63,-347.61 209.72,-353.98"/>
</a>
</g>
</g>
<!-- Node20 -->
<g id="Node000020" class="node">
<title>Node20</title>
<g id="a_Node000020"><a xlink:href="classcbrc_1_1ArgvParser.html#ad074f0b31ebb7a573a85079e44e4c5ce" target="_top" xlink:title=" ">
<polygon fill="white" stroke="#666666" points="156,-246 12,-246 12,-227 156,-227 156,-246"/>
<text text-anchor="middle" x="84" y="-234" font-family="Helvetica,sans-Serif" font-size="10.00">cbrc::ArgvParser::setOrDie</text>
</a>
</g>
</g>
<!-- Node18&#45;&gt;Node20 -->
<g id="edge19_Node000018_Node000020" class="edge">
<title>Node18&#45;&gt;Node20</title>
<g id="a_edge19_Node000018_Node000020"><a xlink:title=" ">
<path fill="none" stroke="#63b8ff" d="M208.22,-349.74C206.76,-348.73 205.35,-347.65 204,-346.5 170.84,-318.35 201,-283.84 168,-255.5 163.51,-251.65 158.4,-248.54 152.97,-246.03"/>
<polygon fill="#63b8ff" stroke="#63b8ff" points="206.63,-352.87 217.03,-354.88 210.15,-346.82 206.63,-352.87"/>
</a>
</g>
</g>
<!-- Node21 -->
<g id="Node000021" class="node">
<title>Node21</title>
<g id="a_Node000021"><a xlink:href="classcbrc_1_1ArgvParser.html#a0f934fcf5d08db542021c77ede327390" target="_top" xlink:title=" ">
<polygon fill="white" stroke="#666666" points="156,-209 12,-209 12,-190 156,-190 156,-209"/>
<text text-anchor="middle" x="84" y="-197" font-family="Helvetica,sans-Serif" font-size="10.00">cbrc::ArgvParser::setOrDie</text>
</a>
</g>
</g>
<!-- Node18&#45;&gt;Node21 -->
<g id="edge20_Node000018_Node000021" class="edge">
<title>Node18&#45;&gt;Node21</title>
<g id="a_edge20_Node000018_Node000021"><a xlink:title=" ">
<path fill="none" stroke="#63b8ff" d="M207.45,-349.46C206.26,-348.53 205.11,-347.54 204,-346.5 160.97,-306 210.8,-259.25 168,-218.5 164.04,-214.73 159.49,-211.65 154.6,-209.14"/>
<polygon fill="#63b8ff" stroke="#63b8ff" points="205.55,-352.4 215.85,-354.91 209.36,-346.53 205.55,-352.4"/>
</a>
</g>
</g>
<!-- Node23 -->
<g id="Node000023" class="node">
<title>Node23</title>
<g id="a_Node000023"><a xlink:href="classcbrc_1_1ArgvParser.html#a519278f32eea179e12d5ff6662aa836e" target="_top" xlink:title=" ">
<polygon fill="white" stroke="#666666" points="357,-337 219,-337 219,-318 357,-318 357,-337"/>
<text text-anchor="middle" x="288" y="-325" font-family="Helvetica,sans-Serif" font-size="10.00">cbrc::ArgvParser::getFlag</text>
</a>
</g>
</g>
<!-- Node22&#45;&gt;Node23 -->
<g id="edge24_Node000022_Node000023" class="edge">
<title>Node22&#45;&gt;Node23</title>
<g id="a_edge24_Node000022_Node000023"><a xlink:title=" ">
<path fill="none" stroke="#63b8ff" d="M412.82,-326.89C394.46,-326.98 375.04,-327.07 357.15,-327.16"/>
<polygon fill="#63b8ff" stroke="#63b8ff" points="412.91,-330.39 422.89,-326.84 412.88,-323.39 412.91,-330.39"/>
</a>
</g>
</g>
<!-- Node24 -->
<g id="Node000024" class="node">
<title>Node24</title>
<g id="a_Node000024"><a xlink:href="classcbrc_1_1ArgvParser.html#a33066cad40538d943b13551218881cc0" target="_top" xlink:title=" ">
<polygon fill="white" stroke="#666666" points="346,-300 230,-300 230,-281 346,-281 346,-300"/>
<text text-anchor="middle" x="288" y="-288" font-family="Helvetica,sans-Serif" font-size="10.00">cbrc::ArgvParser::set</text>
</a>
</g>
</g>
<!-- Node22&#45;&gt;Node24 -->
<g id="edge25_Node000022_Node000024" class="edge">
<title>Node22&#45;&gt;Node24</title>
<g id="a_edge25_Node000022_Node000024"><a xlink:title=" ">
<path fill="none" stroke="#63b8ff" d="M427.8,-315.24C400.47,-310.37 368.81,-304.72 342.64,-300.06"/>
<polygon fill="#63b8ff" stroke="#63b8ff" points="427.2,-318.69 437.66,-316.99 428.43,-311.79 427.2,-318.69"/>
</a>
</g>
</g>
<!-- Node22&#45;&gt;Node25 -->
<g id="edge26_Node000022_Node000025" class="edge">
<title>Node22&#45;&gt;Node25</title>
<g id="a_edge26_Node000022_Node000025"><a xlink:title=" ">
<path fill="none" stroke="#63b8ff" d="M435.53,-313.93C426.07,-310.82 416.55,-307.04 408,-302.5 389.6,-292.73 390.66,-281.74 372,-272.5 363.92,-268.5 354.98,-265.32 346.04,-262.81"/>
<polygon fill="#63b8ff" stroke="#63b8ff" points="434.73,-317.34 445.31,-316.93 436.78,-310.65 434.73,-317.34"/>
</a>
</g>
</g>
<!-- Node22&#45;&gt;Node26 -->
<g id="edge27_Node000022_Node000026" class="edge">
<title>Node22&#45;&gt;Node26</title>
<g id="a_edge27_Node000022_Node000026"><a xlink:title=" ">
<path fill="none" stroke="#63b8ff" d="M469.85,-311.03C452.98,-298.61 428.81,-280.65 408,-264.5 391.77,-251.91 390.49,-244.47 372,-235.5 364.02,-231.63 355.22,-228.53 346.43,-226.05"/>
<polygon fill="#63b8ff" stroke="#63b8ff" points="467.82,-313.88 477.95,-316.98 471.96,-308.24 467.82,-313.88"/>
</a>
</g>
</g>
<!-- Node32 -->
<g id="Node000032" class="node">
<title>Node32</title>
<g id="a_Node000032"><a xlink:href="classcbrc_1_1ArgvParser.html#a75ceb75c4a549f8be75d047857daae07" target="_top" xlink:title=" ">
<polygon fill="white" stroke="#666666" points="358.5,-67.5 217.5,-67.5 217.5,-37.5 358.5,-37.5 358.5,-67.5"/>
<text text-anchor="start" x="225.5" y="-55.5" font-family="Helvetica,sans-Serif" font-size="10.00">cbrc::ArgvParser::setFrom</text>
<text text-anchor="middle" x="288" y="-44.5" font-family="Helvetica,sans-Serif" font-size="10.00">NextUnused</text>
</a>
</g>
</g>
<!-- Node31&#45;&gt;Node32 -->
<g id="edge39_Node000031_Node000032" class="edge">
<title>Node31&#45;&gt;Node32</title>
<g id="a_edge39_Node000031_Node000032"><a xlink:title=" ">
<path fill="none" stroke="#63b8ff" d="M420.92,-38.13C400.8,-40.32 378.87,-42.71 358.78,-44.9"/>
<polygon fill="#63b8ff" stroke="#63b8ff" points="421.38,-41.6 430.94,-37.04 420.62,-34.64 421.38,-41.6"/>
</a>
</g>
</g>
<!-- Node33 -->
<g id="Node000033" class="node">
<title>Node33</title>
<g id="a_Node000033"><a xlink:href="classcbrc_1_1ArgvParser.html#ac08868804310747143776022ecde994b" target="_top" xlink:title=" ">
<polygon fill="white" stroke="#666666" points="363,-19 213,-19 213,0 363,0 363,-19"/>
<text text-anchor="middle" x="288" y="-7" font-family="Helvetica,sans-Serif" font-size="10.00">cbrc::ArgvParser::shiftOrDie</text>
</a>
</g>
</g>
<!-- Node31&#45;&gt;Node33 -->
<g id="edge40_Node000031_Node000033" class="edge">
<title>Node31&#45;&gt;Node33</title>
<g id="a_edge40_Node000031_Node000033"><a xlink:title=" ">
<path fill="none" stroke="#63b8ff" d="M420.77,-23.2C402.14,-21.26 381.97,-19.17 363.14,-17.21"/>
<polygon fill="#63b8ff" stroke="#63b8ff" points="420.63,-26.7 430.94,-24.26 421.36,-19.74 420.63,-26.7"/>
</a>
</g>
</g>
</g>
</svg>

<g id="navigator" transform="translate(0 0)" fill="#404254">
  <rect fill="#f2f5e9" fill-opacity="0.5" stroke="#606060" stroke-width=".5" x="0" y="0" width="60" height="60"/>
  <use id="zoomplus" xlink:href="#zoomPlus" x="17" y="9" onmousedown="handleZoom(evt,'in')"/>
  <use id="zoomminus" xlink:href="#zoomMin" x="42" y="9" onmousedown="handleZoom(evt,'out')"/>
  <use id="reset" xlink:href="#resetDef" x="30" y="36" onmousedown="handleReset()"/>
   <use id="arrowup" xlink:href="#arrowUp" x="0" y="0" onmousedown="handlePan(0,-1)"/>
  <use id="arrowright" xlink:href="#arrowRight" x="0" y="0" onmousedown="handlePan(1,0)"/>
  <use id="arrowdown" xlink:href="#arrowDown" x="0" y="0" onmousedown="handlePan(0,1)"/>
  <use id="arrowleft" xlink:href="#arrowLeft" x="0" y="0" onmousedown="handlePan(-1,0)"/>
</g>
<svg viewBox="0 0 15 15" width="100%" height="30px" preserveAspectRatio="xMaxYMin meet">
 <g id="arrow_out" transform="scale(0.3 0.3)">
  <a xlink:href="namespacecbrc_a94ca1678e0481b17626977da7cfb798b_icgraph_org.svg" target="_base">
   <rect id="button" ry="5" rx="5" y="6" x="6" height="38" width="38"
        fill="#f2f5e9" fill-opacity="0.5" stroke="#606060" stroke-width="1.0"/>
   <path id="arrow"
     d="M 11.500037,31.436501 C 11.940474,20.09759 22.043105,11.32322 32.158766,21.979434 L 37.068811,17.246167 C 37.068811,17.246167 37.088388,32 37.088388,32 L 22.160133,31.978069 C 22.160133,31.978069 26.997745,27.140456 26.997745,27.140456 C 18.528582,18.264221 13.291696,25.230495 11.500037,31.436501 z"
     style="fill:#404040;"/>
  </a>
 </g>
</svg>

<style type='text/css'>
<![CDATA[
[data-mouse-over-selected='false'] { opacity: 0.7; }
[data-mouse-over-selected='true']  { opacity: 1.0; }
]]>
</style>
<script type="application/ecmascript"><![CDATA[
document.addEventListener('DOMContentLoaded', (event) => {
  highlightEdges();
  highlightAdjacentNodes();
});
]]></script>
</svg>
