<?xml version="1.0" encoding="UTF-8" standalone="no"?>
<!DOCTYPE svg PUBLIC "-//W3C//DTD SVG 1.1//EN"
 "http://www.w3.org/Graphics/SVG/1.1/DTD/svg11.dtd">
<!-- Generated by graphviz version 2.43.0 (0)
 -->
<!-- Title: cbrc::vectorMatrix::write Pages: 1 -->
<svg width="565pt" height="61pt"
 viewBox="0.00 0.00 565.00 60.50" xmlns="http://www.w3.org/2000/svg" xmlns:xlink="http://www.w3.org/1999/xlink">
<g id="graph0" class="graph" transform="scale(1 1) rotate(0) translate(4 56.5)">
<title>cbrc::vectorMatrix::write</title>
<!-- Node1 -->
<g id="Node000001" class="node">
<title>Node1</title>
<g id="a_Node000001"><a xlink:title=" ">
<polygon fill="#999999" stroke="#666666" points="105,-52.5 0,-52.5 0,-22.5 105,-22.5 105,-52.5"/>
<text text-anchor="start" x="8" y="-40.5" font-family="Helvetica,sans-Serif" font-size="10.00">cbrc::vectorMatrix</text>
<text text-anchor="middle" x="52.5" y="-29.5" font-family="Helvetica,sans-Serif" font-size="10.00">::write</text>
</a>
</g>
</g>
<!-- Node2 -->
<g id="Node000002" class="node">
<title>Node2</title>
<g id="a_Node000002"><a xlink:href="classcbrc_1_1FLEArray.html#ad71311380d762114c9e0f3b0dda38b7c" target="_top" xlink:title=" ">
<polygon fill="white" stroke="#666666" points="557,-47 446,-47 446,-28 557,-28 557,-47"/>
<text text-anchor="middle" x="501.5" y="-35" font-family="Helvetica,sans-Serif" font-size="10.00">cbrc::FLEArray::size</text>
</a>
</g>
</g>
<!-- Node1&#45;&gt;Node2 -->
<g id="edge1_Node000001_Node000002" class="edge">
<title>Node1&#45;&gt;Node2</title>
<g id="a_edge1_Node000001_Node000002"><a xlink:title=" ">
<path fill="none" stroke="#63b8ff" d="M105.27,-43.02C117,-44.05 129.42,-44.97 141,-45.5 243.98,-50.2 363.69,-45.51 435.69,-41.58"/>
<polygon fill="#63b8ff" stroke="#63b8ff" points="436.17,-45.06 445.96,-41.01 435.78,-38.07 436.17,-45.06"/>
</a>
</g>
</g>
<!-- Node3 -->
<g id="Node000003" class="node">
<title>Node3</title>
<g id="a_Node000003"><a xlink:href="classcbrc_1_1FLEArray.html#a67f88b1303a55d4e8039da5a9a739203" target="_top" xlink:title=" ">
<polygon fill="white" stroke="#666666" points="257,-19 141,-19 141,0 257,0 257,-19"/>
<text text-anchor="middle" x="199" y="-7" font-family="Helvetica,sans-Serif" font-size="10.00">cbrc::FLEArray::write</text>
</a>
</g>
</g>
<!-- Node1&#45;&gt;Node3 -->
<g id="edge2_Node000001_Node000003" class="edge">
<title>Node1&#45;&gt;Node3</title>
<g id="a_edge2_Node000001_Node000003"><a xlink:title=" ">
<path fill="none" stroke="#63b8ff" d="M105.26,-27.47C116.05,-25.38 127.5,-23.16 138.54,-21.02"/>
<polygon fill="#63b8ff" stroke="#63b8ff" points="139.38,-24.42 148.54,-19.08 138.05,-17.55 139.38,-24.42"/>
</a>
</g>
</g>
<!-- Node3&#45;&gt;Node3 -->
<g id="edge5_Node000003_Node000003" class="edge">
<title>Node3&#45;&gt;Node3</title>
<g id="a_edge5_Node000003_Node000003"><a xlink:title=" ">
<path fill="none" stroke="#63b8ff" d="M176.5,-19.08C165.55,-27.73 173.05,-37 199,-37 215.62,-37 224.68,-33.2 226.16,-28.19"/>
<polygon fill="#63b8ff" stroke="#63b8ff" points="229.17,-26.39 221.5,-19.08 222.94,-29.58 229.17,-26.39"/>
</a>
</g>
</g>
<!-- Node4 -->
<g id="Node000004" class="node">
<title>Node4</title>
<g id="a_Node000004"><a xlink:href="classcbrc_1_1FLEArray.html#a8255bcefe055e10a4fccd3331b450fee" target="_top" xlink:title=" ">
<polygon fill="white" stroke="#666666" points="410,-28 293,-28 293,-9 410,-9 410,-28"/>
<text text-anchor="middle" x="351.5" y="-16" font-family="Helvetica,sans-Serif" font-size="10.00">cbrc::FLEArray::bsize</text>
</a>
</g>
</g>
<!-- Node3&#45;&gt;Node4 -->
<g id="edge3_Node000003_Node000004" class="edge">
<title>Node3&#45;&gt;Node4</title>
<g id="a_edge3_Node000003_Node000004"><a xlink:title=" ">
<path fill="none" stroke="#63b8ff" d="M257.33,-12.93C265.59,-13.42 274.17,-13.94 282.62,-14.44"/>
<polygon fill="#63b8ff" stroke="#63b8ff" points="282.64,-17.95 292.83,-15.05 283.06,-10.96 282.64,-17.95"/>
</a>
</g>
</g>
<!-- Node4&#45;&gt;Node2 -->
<g id="edge4_Node000004_Node000002" class="edge">
<title>Node4&#45;&gt;Node2</title>
<g id="a_edge4_Node000004_Node000002"><a xlink:title=" ">
<path fill="none" stroke="#63b8ff" d="M410.14,-25.9C418.45,-26.97 427.05,-28.07 435.49,-29.15"/>
<polygon fill="#63b8ff" stroke="#63b8ff" points="435.32,-32.66 445.68,-30.46 436.21,-25.72 435.32,-32.66"/>
</a>
</g>
</g>
</g>
</svg>
