<?xml version="1.0" encoding="UTF-8" standalone="no"?>
<!DOCTYPE svg PUBLIC "-//W3C//DTD SVG 1.1//EN"
 "http://www.w3.org/Graphics/SVG/1.1/DTD/svg11.dtd">
<!-- Generated by graphviz version 2.43.0 (0)
 -->
<!-- Title: cbrc::stringBinaryIO::write Pages: 1 -->
<svg width="592pt" height="182pt"
 viewBox="0.00 0.00 592.00 182.00" xmlns="http://www.w3.org/2000/svg" xmlns:xlink="http://www.w3.org/1999/xlink">
<g id="graph0" class="graph" transform="scale(1 1) rotate(0) translate(4 178)">
<title>cbrc::stringBinaryIO::write</title>
<!-- Node1 -->
<g id="Node000001" class="node">
<title>Node1</title>
<g id="a_Node000001"><a xlink:title=" ">
<polygon fill="#999999" stroke="#666666" points="584,-102 471,-102 471,-72 584,-72 584,-102"/>
<text text-anchor="start" x="479" y="-90" font-family="Helvetica,sans-Serif" font-size="10.00">cbrc::stringBinaryIO</text>
<text text-anchor="middle" x="527.5" y="-79" font-family="Helvetica,sans-Serif" font-size="10.00">::write</text>
</a>
</g>
</g>
<!-- Node2 -->
<g id="Node000002" class="node">
<title>Node2</title>
<g id="a_Node000002"><a xlink:href="namespacecbrc_1_1stringBinaryIO.html#af8f76a21b8941bb9fb1d1c7a5a3142f8" target="_top" xlink:title=" ">
<polygon fill="white" stroke="#666666" points="408,-174 295,-174 295,-144 408,-144 408,-174"/>
<text text-anchor="start" x="303" y="-162" font-family="Helvetica,sans-Serif" font-size="10.00">cbrc::stringBinaryIO</text>
<text text-anchor="middle" x="351.5" y="-151" font-family="Helvetica,sans-Serif" font-size="10.00">::write</text>
</a>
</g>
</g>
<!-- Node1&#45;&gt;Node2 -->
<g id="edge1_Node000001_Node000002" class="edge">
<title>Node1&#45;&gt;Node2</title>
<g id="a_edge1_Node000001_Node000002"><a xlink:title=" ">
<path fill="none" stroke="#63b8ff" d="M492.21,-107.08C475.35,-116.4 454.51,-127.14 435,-135 426.42,-138.46 417.16,-141.65 408.05,-144.5"/>
<polygon fill="#63b8ff" stroke="#63b8ff" points="494.12,-110.02 501.13,-102.07 490.69,-103.92 494.12,-110.02"/>
</a>
</g>
</g>
<!-- Node3 -->
<g id="Node000003" class="node">
<title>Node3</title>
<g id="a_Node000003"><a xlink:href="classcbrc_1_1ResidueIndexedSequence.html#acc2c399cc501516d5391f26f82548e86" target="_top" xlink:title=" ">
<polygon fill="white" stroke="#666666" points="435,-126 268,-126 268,-96 435,-96 435,-126"/>
<text text-anchor="start" x="276" y="-114" font-family="Helvetica,sans-Serif" font-size="10.00">cbrc::ResidueIndexedSequence</text>
<text text-anchor="middle" x="351.5" y="-103" font-family="Helvetica,sans-Serif" font-size="10.00">::write</text>
</a>
</g>
</g>
<!-- Node1&#45;&gt;Node3 -->
<g id="edge2_Node000001_Node000003" class="edge">
<title>Node1&#45;&gt;Node3</title>
<g id="a_edge2_Node000001_Node000003"><a xlink:title=" ">
<path fill="none" stroke="#63b8ff" d="M460.86,-96.05C452.44,-97.21 443.74,-98.42 435.09,-99.61"/>
<polygon fill="#63b8ff" stroke="#63b8ff" points="461.54,-99.49 470.97,-94.66 460.58,-92.56 461.54,-99.49"/>
</a>
</g>
</g>
<!-- Node4 -->
<g id="Node000004" class="node">
<title>Node4</title>
<g id="a_Node000004"><a xlink:href="classcbrc_1_1ResidueIndexMap.html#a82fb971ecc2b08d269be1a0fb70b9348" target="_top" xlink:title=" ">
<polygon fill="white" stroke="#666666" points="416.5,-78 286.5,-78 286.5,-48 416.5,-48 416.5,-78"/>
<text text-anchor="start" x="294.5" y="-66" font-family="Helvetica,sans-Serif" font-size="10.00">cbrc::ResidueIndexMap</text>
<text text-anchor="middle" x="351.5" y="-55" font-family="Helvetica,sans-Serif" font-size="10.00">::write</text>
</a>
</g>
</g>
<!-- Node1&#45;&gt;Node4 -->
<g id="edge3_Node000001_Node000004" class="edge">
<title>Node1&#45;&gt;Node4</title>
<g id="a_edge3_Node000001_Node000004"><a xlink:title=" ">
<path fill="none" stroke="#63b8ff" d="M461.05,-77.97C446.5,-75.97 431.09,-73.84 416.59,-71.84"/>
<polygon fill="#63b8ff" stroke="#63b8ff" points="460.58,-81.44 470.97,-79.34 461.54,-74.51 460.58,-81.44"/>
</a>
</g>
</g>
<!-- Node7 -->
<g id="Node000007" class="node">
<title>Node7</title>
<g id="a_Node000007"><a xlink:href="classcbrc_1_1SerialNumbersForStrings.html#aed2fe420ba9bfbe49c802b6321050e9a" target="_top" xlink:title=" ">
<polygon fill="white" stroke="#666666" points="433.5,-30 269.5,-30 269.5,0 433.5,0 433.5,-30"/>
<text text-anchor="start" x="277.5" y="-18" font-family="Helvetica,sans-Serif" font-size="10.00">cbrc::SerialNumbersForStrings</text>
<text text-anchor="middle" x="351.5" y="-7" font-family="Helvetica,sans-Serif" font-size="10.00">::write</text>
</a>
</g>
</g>
<!-- Node1&#45;&gt;Node7 -->
<g id="edge6_Node000001_Node000007" class="edge">
<title>Node1&#45;&gt;Node7</title>
<g id="a_edge6_Node000001_Node000007"><a xlink:title=" ">
<path fill="none" stroke="#63b8ff" d="M492.21,-66.92C475.35,-57.6 454.51,-46.86 435,-39 426.98,-35.77 418.35,-32.77 409.81,-30.06"/>
<polygon fill="#63b8ff" stroke="#63b8ff" points="490.69,-70.08 501.13,-71.93 494.12,-63.98 490.69,-70.08"/>
</a>
</g>
</g>
<!-- Node5 -->
<g id="Node000005" class="node">
<title>Node5</title>
<g id="a_Node000005"><a xlink:href="namespacecbrc.html#a8941b798efd9269f50d8756e1a7d5838" target="_top" xlink:title=" ">
<polygon fill="white" stroke="#666666" points="232,-72.5 77,-72.5 77,-53.5 232,-53.5 232,-72.5"/>
<text text-anchor="middle" x="154.5" y="-60.5" font-family="Helvetica,sans-Serif" font-size="10.00">cbrc::writeResidueIndexMap</text>
</a>
</g>
</g>
<!-- Node4&#45;&gt;Node5 -->
<g id="edge4_Node000004_Node000005" class="edge">
<title>Node4&#45;&gt;Node5</title>
<g id="a_edge4_Node000004_Node000005"><a xlink:title=" ">
<path fill="none" stroke="#63b8ff" d="M276.07,-63C261.71,-63 246.65,-63 232.22,-63"/>
<polygon fill="#63b8ff" stroke="#63b8ff" points="276.38,-66.5 286.38,-63 276.38,-59.5 276.38,-66.5"/>
</a>
</g>
</g>
<!-- Node6 -->
<g id="Node000006" class="node">
<title>Node6</title>
<g id="a_Node000006"><a xlink:href="writeResidueIndexMap_8cc.html#ac0f2228420376f4db7e1274f2b41667c" target="_top" xlink:title=" ">
<polygon fill="white" stroke="#666666" points="41,-72.5 0,-72.5 0,-53.5 41,-53.5 41,-72.5"/>
<text text-anchor="middle" x="20.5" y="-60.5" font-family="Helvetica,sans-Serif" font-size="10.00">main</text>
</a>
</g>
</g>
<!-- Node5&#45;&gt;Node6 -->
<g id="edge5_Node000005_Node000006" class="edge">
<title>Node5&#45;&gt;Node6</title>
<g id="a_edge5_Node000005_Node000006"><a xlink:title=" ">
<path fill="none" stroke="#63b8ff" d="M66.69,-63C57.26,-63 48.46,-63 41.17,-63"/>
<polygon fill="#63b8ff" stroke="#63b8ff" points="66.72,-66.5 76.72,-63 66.72,-59.5 66.72,-66.5"/>
</a>
</g>
</g>
</g>
</svg>
