<?xml version="1.0" encoding="UTF-8" standalone="no"?>
<!DOCTYPE svg PUBLIC "-//W3C//DTD SVG 1.1//EN"
 "http://www.w3.org/Graphics/SVG/1.1/DTD/svg11.dtd">
<!-- Generated by graphviz version 2.43.0 (0)
 -->
<!-- Title: cbrc::perlish::looksLikeUnsignedInt Pages: 1 -->
<svg width="539pt" height="161pt"
 viewBox="0.00 0.00 539.00 160.50" xmlns="http://www.w3.org/2000/svg" xmlns:xlink="http://www.w3.org/1999/xlink">
<g id="graph0" class="graph" transform="scale(1 1) rotate(0) translate(4 156.5)">
<title>cbrc::perlish::looksLikeUnsignedInt</title>
<!-- Node1 -->
<g id="Node000001" class="node">
<title>Node1</title>
<g id="a_Node000001"><a xlink:title=" ">
<polygon fill="#999999" stroke="#666666" points="531,-82.5 403,-82.5 403,-52.5 531,-52.5 531,-82.5"/>
<text text-anchor="start" x="411" y="-70.5" font-family="Helvetica,sans-Serif" font-size="10.00">cbrc::perlish::looksLike</text>
<text text-anchor="middle" x="467" y="-59.5" font-family="Helvetica,sans-Serif" font-size="10.00">UnsignedInt</text>
</a>
</g>
</g>
<!-- Node2 -->
<g id="Node000002" class="node">
<title>Node2</title>
<g id="a_Node000002"><a xlink:href="classcbrc_1_1TransfacTextLabelInfo.html#ac92d364a66d83b774e437725803da200" target="_top" xlink:title=" ">
<polygon fill="white" stroke="#666666" points="353.5,-152.5 204.5,-152.5 204.5,-122.5 353.5,-122.5 353.5,-152.5"/>
<text text-anchor="start" x="212.5" y="-140.5" font-family="Helvetica,sans-Serif" font-size="10.00">cbrc::TransfacTextLabelInfo</text>
<text text-anchor="middle" x="279" y="-129.5" font-family="Helvetica,sans-Serif" font-size="10.00">::isFreqMatrixBody</text>
</a>
</g>
</g>
<!-- Node1&#45;&gt;Node2 -->
<g id="edge1_Node000001_Node000002" class="edge">
<title>Node1&#45;&gt;Node2</title>
<g id="a_edge1_Node000001_Node000002"><a xlink:title=" ">
<path fill="none" stroke="#63b8ff" d="M427.59,-87.16C409.5,-95.95 387.45,-105.99 367,-113.5 358.32,-116.69 349.02,-119.68 339.85,-122.4"/>
<polygon fill="#63b8ff" stroke="#63b8ff" points="429.22,-90.26 436.65,-82.7 426.13,-83.97 429.22,-90.26"/>
</a>
</g>
</g>
<!-- Node3 -->
<g id="Node000003" class="node">
<title>Node3</title>
<g id="a_Node000003"><a xlink:href="namespacecbrc_1_1perlish.html#a1a59a3bc8883c9e160b8cde51e1b4958" target="_top" xlink:title=" ">
<polygon fill="white" stroke="#666666" points="343,-104.5 215,-104.5 215,-74.5 343,-74.5 343,-104.5"/>
<text text-anchor="start" x="223" y="-92.5" font-family="Helvetica,sans-Serif" font-size="10.00">cbrc::perlish::looksLike</text>
<text text-anchor="middle" x="279" y="-81.5" font-family="Helvetica,sans-Serif" font-size="10.00">UnsignedInts</text>
</a>
</g>
</g>
<!-- Node1&#45;&gt;Node3 -->
<g id="edge2_Node000001_Node000003" class="edge">
<title>Node1&#45;&gt;Node3</title>
<g id="a_edge2_Node000001_Node000003"><a xlink:title=" ">
<path fill="none" stroke="#63b8ff" d="M392.68,-76.17C376.27,-78.11 359.01,-80.16 343.06,-82.04"/>
<polygon fill="#63b8ff" stroke="#63b8ff" points="393.25,-79.63 402.77,-74.98 392.43,-72.68 393.25,-79.63"/>
</a>
</g>
</g>
<!-- Node5 -->
<g id="Node000005" class="node">
<title>Node5</title>
<g id="a_Node000005"><a xlink:href="namespacecbrc.html#a3405003ddefb627442a2fa3f200c0fb6" target="_top" xlink:title=" ">
<polygon fill="white" stroke="#666666" points="367,-56 191,-56 191,-37 367,-37 367,-56"/>
<text text-anchor="middle" x="279" y="-44" font-family="Helvetica,sans-Serif" font-size="10.00">cbrc::testNumberStringFunctions</text>
</a>
</g>
</g>
<!-- Node1&#45;&gt;Node5 -->
<g id="edge4_Node000001_Node000005" class="edge">
<title>Node1&#45;&gt;Node5</title>
<g id="a_edge4_Node000001_Node000005"><a xlink:title=" ">
<path fill="none" stroke="#63b8ff" d="M392.8,-59.24C383.5,-58.19 373.92,-57.1 364.46,-56.04"/>
<polygon fill="#63b8ff" stroke="#63b8ff" points="392.44,-62.72 402.77,-60.36 393.23,-55.76 392.44,-62.72"/>
</a>
</g>
</g>
<!-- Node7 -->
<g id="Node000007" class="node">
<title>Node7</title>
<g id="a_Node000007"><a xlink:href="namespacecbrc_1_1meminfo.html#aafede38599a54b64aebbb926ca8025ad" target="_top" xlink:title=" ">
<polygon fill="white" stroke="#666666" points="337,-19 221,-19 221,0 337,0 337,-19"/>
<text text-anchor="middle" x="279" y="-7" font-family="Helvetica,sans-Serif" font-size="10.00">cbrc::meminfo::total</text>
</a>
</g>
</g>
<!-- Node1&#45;&gt;Node7 -->
<g id="edge6_Node000001_Node000007" class="edge">
<title>Node1&#45;&gt;Node7</title>
<g id="a_edge6_Node000001_Node000007"><a xlink:title=" ">
<path fill="none" stroke="#63b8ff" d="M423.8,-48.5C406.45,-41.2 386.01,-33.26 367,-27.5 356.37,-24.28 344.84,-21.45 333.75,-19.04"/>
<polygon fill="#63b8ff" stroke="#63b8ff" points="422.51,-51.75 433.08,-52.46 425.26,-45.32 422.51,-51.75"/>
</a>
</g>
</g>
<!-- Node4 -->
<g id="Node000004" class="node">
<title>Node4</title>
<g id="a_Node000004"><a xlink:href="namespacecbrc_1_1perlish.html#a1501cc50a04ca3dc5f7362024cea9b17" target="_top" xlink:title=" ">
<polygon fill="white" stroke="#666666" points="155,-99 0,-99 0,-80 155,-80 155,-99"/>
<text text-anchor="middle" x="77.5" y="-87" font-family="Helvetica,sans-Serif" font-size="10.00">cbrc::perlish::toUnsignedInts</text>
</a>
</g>
</g>
<!-- Node3&#45;&gt;Node4 -->
<g id="edge3_Node000003_Node000004" class="edge">
<title>Node3&#45;&gt;Node4</title>
<g id="a_edge3_Node000003_Node000004"><a xlink:title=" ">
<path fill="none" stroke="#63b8ff" d="M204.48,-89.5C188.42,-89.5 171.39,-89.5 155.2,-89.5"/>
<polygon fill="#63b8ff" stroke="#63b8ff" points="204.88,-93 214.88,-89.5 204.88,-86 204.88,-93"/>
</a>
</g>
</g>
<!-- Node6 -->
<g id="Node000006" class="node">
<title>Node6</title>
<g id="a_Node000006"><a xlink:href="testNumberStringFunctions_8cc.html#ae66f6b31b5ad750f1fe042a706a4e3d4" target="_top" xlink:title=" ">
<polygon fill="white" stroke="#666666" points="98,-56 57,-56 57,-37 98,-37 98,-56"/>
<text text-anchor="middle" x="77.5" y="-44" font-family="Helvetica,sans-Serif" font-size="10.00">main</text>
</a>
</g>
</g>
<!-- Node5&#45;&gt;Node6 -->
<g id="edge5_Node000005_Node000006" class="edge">
<title>Node5&#45;&gt;Node6</title>
<g id="a_edge5_Node000005_Node000006"><a xlink:title=" ">
<path fill="none" stroke="#63b8ff" d="M180.67,-46.5C149.42,-46.5 117.86,-46.5 98.26,-46.5"/>
<polygon fill="#63b8ff" stroke="#63b8ff" points="180.79,-50 190.79,-46.5 180.79,-43 180.79,-50"/>
</a>
</g>
</g>
</g>
</svg>
