<?xml version="1.0" encoding="UTF-8" standalone="no"?>
<!DOCTYPE svg PUBLIC "-//W3C//DTD SVG 1.1//EN"
 "http://www.w3.org/Graphics/SVG/1.1/DTD/svg11.dtd">
<!-- Generated by graphviz version 2.43.0 (0)
 -->
<!-- Title: cbrc::filterBlast8ResultEValueThreshold Pages: 1 -->
<svg width="837pt" height="216pt"
 viewBox="0.00 0.00 837.00 216.00" xmlns="http://www.w3.org/2000/svg" xmlns:xlink="http://www.w3.org/1999/xlink">
<g id="graph0" class="graph" transform="scale(1 1) rotate(0) translate(4 212)">
<title>cbrc::filterBlast8ResultEValueThreshold</title>
<!-- Node1 -->
<g id="Node000001" class="node">
<title>Node1</title>
<g id="a_Node000001"><a xlink:title=" ">
<polygon fill="#999999" stroke="#666666" points="127,-115.5 0,-115.5 0,-85.5 127,-85.5 127,-115.5"/>
<text text-anchor="start" x="8" y="-103.5" font-family="Helvetica,sans-Serif" font-size="10.00">cbrc::filterBlast8Result</text>
<text text-anchor="middle" x="63.5" y="-92.5" font-family="Helvetica,sans-Serif" font-size="10.00">EValueThreshold</text>
</a>
</g>
</g>
<!-- Node2 -->
<g id="Node000002" class="node">
<title>Node2</title>
<g id="a_Node000002"><a xlink:href="classcbrc_1_1Blast8ResultReader.html#a482769c3edf7a8b778a953192710583f" target="_top" xlink:title=" ">
<polygon fill="white" stroke="#666666" points="302,-177.5 163,-177.5 163,-147.5 302,-147.5 302,-177.5"/>
<text text-anchor="start" x="171" y="-165.5" font-family="Helvetica,sans-Serif" font-size="10.00">cbrc::Blast8ResultReader</text>
<text text-anchor="middle" x="232.5" y="-154.5" font-family="Helvetica,sans-Serif" font-size="10.00">::isBlastCommentLine</text>
</a>
</g>
</g>
<!-- Node1&#45;&gt;Node2 -->
<g id="edge1_Node000001_Node000002" class="edge">
<title>Node1&#45;&gt;Node2</title>
<g id="a_edge1_Node000001_Node000002"><a xlink:title=" ">
<path fill="none" stroke="#63b8ff" d="M102.75,-115.58C120.95,-122.67 143.05,-131.16 163,-138.5 167.9,-140.3 173.01,-142.15 178.13,-143.98"/>
<polygon fill="#63b8ff" stroke="#63b8ff" points="177.35,-147.42 187.94,-147.47 179.69,-140.82 177.35,-147.42"/>
</a>
</g>
</g>
<!-- Node7 -->
<g id="Node000007" class="node">
<title>Node7</title>
<g id="a_Node000007"><a xlink:href="classcbrc_1_1FLEArray.html#ad71311380d762114c9e0f3b0dda38b7c" target="_top" xlink:title=" ">
<polygon fill="white" stroke="#666666" points="288,-129 177,-129 177,-110 288,-110 288,-129"/>
<text text-anchor="middle" x="232.5" y="-117" font-family="Helvetica,sans-Serif" font-size="10.00">cbrc::FLEArray::size</text>
</a>
</g>
</g>
<!-- Node1&#45;&gt;Node7 -->
<g id="edge8_Node000001_Node000007" class="edge">
<title>Node1&#45;&gt;Node7</title>
<g id="a_edge8_Node000001_Node000007"><a xlink:title=" ">
<path fill="none" stroke="#63b8ff" d="M127.16,-107.63C140.09,-109.1 153.72,-110.65 166.72,-112.13"/>
<polygon fill="#63b8ff" stroke="#63b8ff" points="166.66,-115.64 176.99,-113.3 167.45,-108.69 166.66,-115.64"/>
</a>
</g>
</g>
<!-- Node8 -->
<g id="Node000008" class="node">
<title>Node8</title>
<g id="a_Node000008"><a xlink:href="namespacecbrc_1_1perlish.html#a2a0db2c27f3a19dfdcd7ef17ea5a0bcd" target="_top" xlink:title=" ">
<polygon fill="white" stroke="#666666" points="295.5,-92 169.5,-92 169.5,-73 295.5,-73 295.5,-92"/>
<text text-anchor="middle" x="232.5" y="-80" font-family="Helvetica,sans-Serif" font-size="10.00">cbrc::perlish::slurpLine</text>
</a>
</g>
</g>
<!-- Node1&#45;&gt;Node8 -->
<g id="edge9_Node000001_Node000008" class="edge">
<title>Node1&#45;&gt;Node8</title>
<g id="a_edge9_Node000001_Node000008"><a xlink:title=" ">
<path fill="none" stroke="#63b8ff" d="M127.16,-93.75C137.61,-92.62 148.53,-91.44 159.19,-90.29"/>
<polygon fill="#63b8ff" stroke="#63b8ff" points="159.75,-93.75 169.32,-89.2 159,-86.79 159.75,-93.75"/>
</a>
</g>
</g>
<!-- Node9 -->
<g id="Node000009" class="node">
<title>Node9</title>
<g id="a_Node000009"><a xlink:href="namespacecbrc_1_1perlish.html#a101a4746d50e52a00273c6fe533970ec" target="_top" xlink:title=" ">
<polygon fill="white" stroke="#666666" points="284,-37 181,-37 181,-18 284,-18 284,-37"/>
<text text-anchor="middle" x="232.5" y="-25" font-family="Helvetica,sans-Serif" font-size="10.00">cbrc::perlish::split</text>
</a>
</g>
</g>
<!-- Node1&#45;&gt;Node9 -->
<g id="edge10_Node000001_Node000009" class="edge">
<title>Node1&#45;&gt;Node9</title>
<g id="a_edge10_Node000001_Node000009"><a xlink:title=" ">
<path fill="none" stroke="#63b8ff" d="M99.1,-85.37C128.97,-72.32 171.73,-53.63 200.5,-41.05"/>
<polygon fill="#63b8ff" stroke="#63b8ff" points="201.92,-44.25 209.68,-37.04 199.12,-37.83 201.92,-44.25"/>
</a>
</g>
</g>
<!-- Node3 -->
<g id="Node000003" class="node">
<title>Node3</title>
<g id="a_Node000003"><a xlink:href="classcbrc_1_1FLEArray.html#a3eba8d1c247ebc9ed3219dd2a3614252" target="_top" xlink:title=" ">
<polygon fill="white" stroke="#666666" points="452.5,-172 342.5,-172 342.5,-153 452.5,-153 452.5,-172"/>
<text text-anchor="middle" x="397.5" y="-160" font-family="Helvetica,sans-Serif" font-size="10.00">cbrc::FLEArray::find</text>
</a>
</g>
</g>
<!-- Node2&#45;&gt;Node3 -->
<g id="edge2_Node000002_Node000003" class="edge">
<title>Node2&#45;&gt;Node3</title>
<g id="a_edge2_Node000002_Node000003"><a xlink:title=" ">
<path fill="none" stroke="#63b8ff" d="M302.15,-162.5C312.1,-162.5 322.3,-162.5 332.16,-162.5"/>
<polygon fill="#63b8ff" stroke="#63b8ff" points="332.28,-166 342.28,-162.5 332.28,-159 332.28,-166"/>
</a>
</g>
</g>
<!-- Node4 -->
<g id="Node000004" class="node">
<title>Node4</title>
<g id="a_Node000004"><a xlink:href="classcbrc_1_1FLEArray.html#a985e9e85d6fc6adf9d3c52a0306361a4" target="_top" xlink:title=" ">
<polygon fill="white" stroke="#666666" points="645,-191 493,-191 493,-172 645,-172 645,-191"/>
<text text-anchor="middle" x="569" y="-179" font-family="Helvetica,sans-Serif" font-size="10.00">cbrc::FLEArray::_validRange</text>
</a>
</g>
</g>
<!-- Node3&#45;&gt;Node4 -->
<g id="edge3_Node000003_Node000004" class="edge">
<title>Node3&#45;&gt;Node4</title>
<g id="a_edge3_Node000003_Node000004"><a xlink:title=" ">
<path fill="none" stroke="#63b8ff" d="M452.6,-168.56C462.19,-169.64 472.39,-170.78 482.6,-171.93"/>
<polygon fill="#63b8ff" stroke="#63b8ff" points="482.46,-175.43 492.79,-173.07 483.24,-168.48 482.46,-175.43"/>
</a>
</g>
</g>
<!-- Node6 -->
<g id="Node000006" class="node">
<title>Node6</title>
<g id="a_Node000006"><a xlink:href="classcbrc_1_1FLEArray.html#a5368c7c0434bd5c119d2cbb39f4b399e" target="_top" xlink:title=" ">
<polygon fill="white" stroke="#666666" points="822.5,-153 687.5,-153 687.5,-134 822.5,-134 822.5,-153"/>
<text text-anchor="middle" x="755" y="-141" font-family="Helvetica,sans-Serif" font-size="10.00">cbrc::FLEArray::FLEArray</text>
</a>
</g>
</g>
<!-- Node3&#45;&gt;Node6 -->
<g id="edge7_Node000003_Node000006" class="edge">
<title>Node3&#45;&gt;Node6</title>
<g id="a_edge7_Node000003_Node000006"><a xlink:title=" ">
<path fill="none" stroke="#63b8ff" d="M452.88,-159.59C512.73,-156.39 609.4,-151.23 677.02,-147.61"/>
<polygon fill="#63b8ff" stroke="#63b8ff" points="677.39,-151.1 687.19,-147.07 677.02,-144.11 677.39,-151.1"/>
</a>
</g>
</g>
<!-- Node5 -->
<g id="Node000005" class="node">
<title>Node5</title>
<g id="a_Node000005"><a xlink:href="classcbrc_1_1FLEArray.html#a0a06120b85cf875ccff4081918fe0f33" target="_top" xlink:title=" ">
<polygon fill="white" stroke="#666666" points="829,-208 681,-208 681,-189 829,-189 829,-208"/>
<text text-anchor="middle" x="755" y="-196" font-family="Helvetica,sans-Serif" font-size="10.00">cbrc::FLEArray::_validIndex</text>
</a>
</g>
</g>
<!-- Node4&#45;&gt;Node5 -->
<g id="edge4_Node000004_Node000005" class="edge">
<title>Node4&#45;&gt;Node5</title>
<g id="a_edge4_Node000004_Node000005"><a xlink:title=" ">
<path fill="none" stroke="#63b8ff" d="M645.11,-188.44C653.6,-189.22 662.3,-190.03 670.9,-190.82"/>
<polygon fill="#63b8ff" stroke="#63b8ff" points="670.64,-194.31 680.92,-191.75 671.28,-187.34 670.64,-194.31"/>
</a>
</g>
</g>
<!-- Node4&#45;&gt;Node6 -->
<g id="edge5_Node000004_Node000006" class="edge">
<title>Node4&#45;&gt;Node6</title>
<g id="a_edge5_Node000004_Node000006"><a xlink:title=" ">
<path fill="none" stroke="#63b8ff" d="M616.43,-171.91C641.15,-166.81 671.74,-160.49 697.79,-155.11"/>
<polygon fill="#63b8ff" stroke="#63b8ff" points="698.82,-158.47 707.9,-153.02 697.4,-151.61 698.82,-158.47"/>
</a>
</g>
</g>
<!-- Node6&#45;&gt;Node6 -->
<g id="edge6_Node000006_Node000006" class="edge">
<title>Node6&#45;&gt;Node6</title>
<g id="a_edge6_Node000006_Node000006"><a xlink:title=" ">
<path fill="none" stroke="#63b8ff" d="M726.33,-153.08C712.39,-161.73 721.94,-171 755,-171 777.73,-171 789.35,-166.62 789.86,-161.07"/>
<polygon fill="#63b8ff" stroke="#63b8ff" points="792.56,-158.84 783.67,-153.08 787.03,-163.13 792.56,-158.84"/>
</a>
</g>
</g>
<!-- Node9&#45;&gt;Node9 -->
<g id="edge13_Node000009_Node000009" class="edge">
<title>Node9&#45;&gt;Node9</title>
<g id="a_edge13_Node000009_Node000009"><a xlink:title=" ">
<path fill="none" stroke="#63b8ff" d="M207.22,-37.08C194.93,-45.73 203.35,-55 232.5,-55 251.63,-55 261.83,-51.01 263.11,-45.82"/>
<polygon fill="#63b8ff" stroke="#63b8ff" points="265.98,-43.79 257.78,-37.08 260,-47.44 265.98,-43.79"/>
</a>
</g>
</g>
<!-- Node10 -->
<g id="Node000010" class="node">
<title>Node10</title>
<g id="a_Node000010"><a xlink:href="classcbrc_1_1FLEArray.html#a7e5d0d3bc5c41546620ccff95b55b3fa" target="_top" xlink:title=" ">
<polygon fill="white" stroke="#666666" points="457,-56 338,-56 338,-37 457,-37 457,-56"/>
<text text-anchor="middle" x="397.5" y="-44" font-family="Helvetica,sans-Serif" font-size="10.00">cbrc::FLEArray::begin</text>
</a>
</g>
</g>
<!-- Node9&#45;&gt;Node10 -->
<g id="edge11_Node000009_Node000010" class="edge">
<title>Node9&#45;&gt;Node10</title>
<g id="a_edge11_Node000009_Node000010"><a xlink:title=" ">
<path fill="none" stroke="#63b8ff" d="M284.18,-33.41C298,-35.02 313.21,-36.79 327.85,-38.5"/>
<polygon fill="#63b8ff" stroke="#63b8ff" points="327.53,-41.98 337.87,-39.67 328.34,-35.03 327.53,-41.98"/>
</a>
</g>
</g>
<!-- Node11 -->
<g id="Node000011" class="node">
<title>Node11</title>
<g id="a_Node000011"><a xlink:href="classcbrc_1_1FLEArray.html#a8c53878dc57e8f666976e041d146a523" target="_top" xlink:title=" ">
<polygon fill="white" stroke="#666666" points="452.5,-19 342.5,-19 342.5,0 452.5,0 452.5,-19"/>
<text text-anchor="middle" x="397.5" y="-7" font-family="Helvetica,sans-Serif" font-size="10.00">cbrc::FLEArray::end</text>
</a>
</g>
</g>
<!-- Node9&#45;&gt;Node11 -->
<g id="edge12_Node000009_Node000011" class="edge">
<title>Node9&#45;&gt;Node11</title>
<g id="a_edge12_Node000009_Node000011"><a xlink:title=" ">
<path fill="none" stroke="#63b8ff" d="M284.18,-21.9C299.36,-20.23 316.21,-18.37 332.15,-16.61"/>
<polygon fill="#63b8ff" stroke="#63b8ff" points="332.9,-20.04 342.46,-15.47 332.14,-13.09 332.9,-20.04"/>
</a>
</g>
</g>
</g>
</svg>
