<?xml version="1.0" encoding="UTF-8" standalone="no"?>
<!DOCTYPE svg PUBLIC "-//W3C//DTD SVG 1.1//EN"
 "http://www.w3.org/Graphics/SVG/1.1/DTD/svg11.dtd">
<!-- Generated by graphviz version 2.43.0 (0)
 -->
<!-- Title: cbrc::stringBinaryIO::read Pages: 1 -->
<svg width="727pt" height="177pt"
 viewBox="0.00 0.00 727.00 177.00" xmlns="http://www.w3.org/2000/svg" xmlns:xlink="http://www.w3.org/1999/xlink">
<g id="graph0" class="graph" transform="scale(1 1) rotate(0) translate(4 173)">
<title>cbrc::stringBinaryIO::read</title>
<!-- Node1 -->
<g id="Node000001" class="node">
<title>Node1</title>
<g id="a_Node000001"><a xlink:title=" ">
<polygon fill="#999999" stroke="#666666" points="719,-102 606,-102 606,-72 719,-72 719,-102"/>
<text text-anchor="start" x="614" y="-90" font-family="Helvetica,sans-Serif" font-size="10.00">cbrc::stringBinaryIO</text>
<text text-anchor="middle" x="662.5" y="-79" font-family="Helvetica,sans-Serif" font-size="10.00">::read</text>
</a>
</g>
</g>
<!-- Node1&#45;&gt;Node1 -->
<g id="edge7_Node000001_Node000001" class="edge">
<title>Node1&#45;&gt;Node1</title>
<g id="a_edge7_Node000001_Node000001"><a xlink:title=" ">
<path fill="none" stroke="#63b8ff" d="M692.96,-112.6C688.79,-116.97 678.64,-120 662.5,-120 635.31,-120 625.12,-111.41 631.91,-102.28"/>
<polygon fill="#63b8ff" stroke="#63b8ff" points="696.46,-112.32 693.09,-102.28 689.46,-112.23 696.46,-112.32"/>
</a>
</g>
</g>
<!-- Node2 -->
<g id="Node000002" class="node">
<title>Node2</title>
<g id="a_Node000002"><a xlink:href="classcbrc_1_1ResidueIndexedSequence.html#ac11f3945771f1db002bb65c6aae55b95" target="_top" xlink:title=" ">
<polygon fill="white" stroke="#666666" points="370,-169 203,-169 203,-139 370,-139 370,-169"/>
<text text-anchor="start" x="211" y="-157" font-family="Helvetica,sans-Serif" font-size="10.00">cbrc::ResidueIndexedSequence</text>
<text text-anchor="middle" x="286.5" y="-146" font-family="Helvetica,sans-Serif" font-size="10.00">::read</text>
</a>
</g>
</g>
<!-- Node1&#45;&gt;Node2 -->
<g id="edge1_Node000001_Node000002" class="edge">
<title>Node1&#45;&gt;Node2</title>
<g id="a_edge1_Node000001_Node000002"><a xlink:title=" ">
<path fill="none" stroke="#63b8ff" d="M630.34,-107.51C613.25,-117.66 591.27,-129 570,-135 504.6,-153.46 427.45,-157.53 370.31,-157.36"/>
<polygon fill="#63b8ff" stroke="#63b8ff" points="632.59,-110.23 639.3,-102.03 628.94,-104.26 632.59,-110.23"/>
</a>
</g>
</g>
<!-- Node4 -->
<g id="Node000004" class="node">
<title>Node4</title>
<g id="a_Node000004"><a xlink:href="classcbrc_1_1ResidueIndexMap.html#a4786107032b60621400e59800db8c256" target="_top" xlink:title=" ">
<polygon fill="white" stroke="#666666" points="553,-126 423,-126 423,-96 553,-96 553,-126"/>
<text text-anchor="start" x="431" y="-114" font-family="Helvetica,sans-Serif" font-size="10.00">cbrc::ResidueIndexMap</text>
<text text-anchor="middle" x="488" y="-103" font-family="Helvetica,sans-Serif" font-size="10.00">::read</text>
</a>
</g>
</g>
<!-- Node1&#45;&gt;Node4 -->
<g id="edge3_Node000001_Node000004" class="edge">
<title>Node1&#45;&gt;Node4</title>
<g id="a_edge3_Node000001_Node000004"><a xlink:title=" ">
<path fill="none" stroke="#63b8ff" d="M595.92,-96.12C581.9,-98.08 567.1,-100.13 553.13,-102.08"/>
<polygon fill="#63b8ff" stroke="#63b8ff" points="596.55,-99.57 605.97,-94.73 595.58,-92.64 596.55,-99.57"/>
</a>
</g>
</g>
<!-- Node6 -->
<g id="Node000006" class="node">
<title>Node6</title>
<g id="a_Node000006"><a xlink:href="classcbrc_1_1SerialNumbersForStrings.html#aa3a5d4fb2ef3db200d9eee1633ab2263" target="_top" xlink:title=" ">
<polygon fill="white" stroke="#666666" points="570,-78 406,-78 406,-48 570,-48 570,-78"/>
<text text-anchor="start" x="414" y="-66" font-family="Helvetica,sans-Serif" font-size="10.00">cbrc::SerialNumbersForStrings</text>
<text text-anchor="middle" x="488" y="-55" font-family="Helvetica,sans-Serif" font-size="10.00">::read</text>
</a>
</g>
</g>
<!-- Node1&#45;&gt;Node6 -->
<g id="edge6_Node000001_Node000006" class="edge">
<title>Node1&#45;&gt;Node6</title>
<g id="a_edge6_Node000001_Node000006"><a xlink:title=" ">
<path fill="none" stroke="#63b8ff" d="M595.88,-77.87C587.47,-76.7 578.79,-75.49 570.18,-74.29"/>
<polygon fill="#63b8ff" stroke="#63b8ff" points="595.58,-81.36 605.97,-79.27 596.55,-74.43 595.58,-81.36"/>
</a>
</g>
</g>
<!-- Node7 -->
<g id="Node000007" class="node">
<title>Node7</title>
<g id="a_Node000007"><a xlink:href="namespacecbrc_1_1stringBinaryIO.html#a7cb8da877e08d4d39a0084ae1945c3e1" target="_top" xlink:title=" ">
<polygon fill="white" stroke="#666666" points="544.5,-30 431.5,-30 431.5,0 544.5,0 544.5,-30"/>
<text text-anchor="start" x="439.5" y="-18" font-family="Helvetica,sans-Serif" font-size="10.00">cbrc::stringBinaryIO</text>
<text text-anchor="middle" x="488" y="-7" font-family="Helvetica,sans-Serif" font-size="10.00">::read</text>
</a>
</g>
</g>
<!-- Node1&#45;&gt;Node7 -->
<g id="edge8_Node000001_Node000007" class="edge">
<title>Node1&#45;&gt;Node7</title>
<g id="a_edge8_Node000001_Node000007"><a xlink:title=" ">
<path fill="none" stroke="#63b8ff" d="M627.19,-66.96C610.33,-57.65 589.49,-46.91 570,-39 561.98,-35.75 553.36,-32.72 544.83,-29.98"/>
<polygon fill="#63b8ff" stroke="#63b8ff" points="625.68,-70.13 636.11,-71.96 629.1,-64.02 625.68,-70.13"/>
</a>
</g>
</g>
<!-- Node3 -->
<g id="Node000003" class="node">
<title>Node3</title>
<g id="a_Node000003"><a xlink:href="classcbrc_1_1ResidueIndexedSequence.html#ab9f7be97236171a4c6fac58754ee811e" target="_top" xlink:title=" ">
<polygon fill="white" stroke="#666666" points="167,-169 0,-169 0,-139 167,-139 167,-169"/>
<text text-anchor="start" x="8" y="-157" font-family="Helvetica,sans-Serif" font-size="10.00">cbrc::ResidueIndexedSequence</text>
<text text-anchor="middle" x="83.5" y="-146" font-family="Helvetica,sans-Serif" font-size="10.00">::ResidueIndexedSequence</text>
</a>
</g>
</g>
<!-- Node2&#45;&gt;Node3 -->
<g id="edge2_Node000002_Node000003" class="edge">
<title>Node2&#45;&gt;Node3</title>
<g id="a_edge2_Node000002_Node000003"><a xlink:title=" ">
<path fill="none" stroke="#63b8ff" d="M192.85,-154C184.27,-154 175.61,-154 167.13,-154"/>
<polygon fill="#63b8ff" stroke="#63b8ff" points="192.88,-157.5 202.88,-154 192.88,-150.5 192.88,-157.5"/>
</a>
</g>
</g>
<!-- Node4&#45;&gt;Node2 -->
<g id="edge4_Node000004_Node000002" class="edge">
<title>Node4&#45;&gt;Node2</title>
<g id="a_edge4_Node000004_Node000002"><a xlink:title=" ">
<path fill="none" stroke="#63b8ff" d="M412.79,-126.99C394.57,-130.92 375.12,-135.11 357.12,-138.99"/>
<polygon fill="#63b8ff" stroke="#63b8ff" points="413.74,-130.37 422.78,-124.84 412.27,-123.53 413.74,-130.37"/>
</a>
</g>
</g>
<!-- Node5 -->
<g id="Node000005" class="node">
<title>Node5</title>
<g id="a_Node000005"><a xlink:href="classcbrc_1_1ResidueIndexMap.html#a9adc37ebbdfc6bcaa564e398153ca7c4" target="_top" xlink:title=" ">
<polygon fill="white" stroke="#666666" points="351.5,-121 221.5,-121 221.5,-91 351.5,-91 351.5,-121"/>
<text text-anchor="start" x="229.5" y="-109" font-family="Helvetica,sans-Serif" font-size="10.00">cbrc::ResidueIndexMap</text>
<text text-anchor="middle" x="286.5" y="-98" font-family="Helvetica,sans-Serif" font-size="10.00">::ResidueIndexMap</text>
</a>
</g>
</g>
<!-- Node4&#45;&gt;Node5 -->
<g id="edge5_Node000004_Node000005" class="edge">
<title>Node4&#45;&gt;Node5</title>
<g id="a_edge5_Node000004_Node000005"><a xlink:title=" ">
<path fill="none" stroke="#63b8ff" d="M412.74,-109.14C392.65,-108.64 371.08,-108.09 351.6,-107.61"/>
<polygon fill="#63b8ff" stroke="#63b8ff" points="412.69,-112.64 422.78,-109.39 412.87,-105.64 412.69,-112.64"/>
</a>
</g>
</g>
</g>
</svg>
