<?xml version="1.0" encoding="UTF-8" standalone="no"?>
<!DOCTYPE svg PUBLIC "-//W3C//DTD SVG 1.1//EN"
 "http://www.w3.org/Graphics/SVG/1.1/DTD/svg11.dtd">
<!-- Generated by graphviz version 2.43.0 (0)
 -->
<!-- Title: cbrc::perlish::splitOnOneOrMoreCharsInCharSet Pages: 1 -->
<svg width="663pt" height="100pt"
 viewBox="0.00 0.00 663.00 100.00" xmlns="http://www.w3.org/2000/svg" xmlns:xlink="http://www.w3.org/1999/xlink">
<g id="graph0" class="graph" transform="scale(1 1) rotate(0) translate(4 96)">
<title>cbrc::perlish::splitOnOneOrMoreCharsInCharSet</title>
<!-- Node1 -->
<g id="Node000001" class="node">
<title>Node1</title>
<g id="a_Node000001"><a xlink:title=" ">
<polygon fill="#999999" stroke="#666666" points="136,-42.5 0,-42.5 0,-12.5 136,-12.5 136,-42.5"/>
<text text-anchor="start" x="8" y="-30.5" font-family="Helvetica,sans-Serif" font-size="10.00">cbrc::perlish::splitOnOne</text>
<text text-anchor="middle" x="68" y="-19.5" font-family="Helvetica,sans-Serif" font-size="10.00">OrMoreCharsInCharSet</text>
</a>
</g>
</g>
<!-- Node2 -->
<g id="Node000002" class="node">
<title>Node2</title>
<g id="a_Node000002"><a xlink:href="classcbrc_1_1FLEArray.html#a3eba8d1c247ebc9ed3219dd2a3614252" target="_top" xlink:title=" ">
<polygon fill="white" stroke="#666666" points="282.5,-56 172.5,-56 172.5,-37 282.5,-37 282.5,-56"/>
<text text-anchor="middle" x="227.5" y="-44" font-family="Helvetica,sans-Serif" font-size="10.00">cbrc::FLEArray::find</text>
</a>
</g>
</g>
<!-- Node1&#45;&gt;Node2 -->
<g id="edge1_Node000001_Node000002" class="edge">
<title>Node1&#45;&gt;Node2</title>
<g id="a_edge1_Node000001_Node000002"><a xlink:title=" ">
<path fill="none" stroke="#63b8ff" d="M136.25,-35.61C144.9,-36.66 153.75,-37.72 162.35,-38.76"/>
<polygon fill="#63b8ff" stroke="#63b8ff" points="161.96,-42.24 172.31,-39.96 162.8,-35.29 161.96,-42.24"/>
</a>
</g>
</g>
<!-- Node6 -->
<g id="Node000006" class="node">
<title>Node6</title>
<g id="a_Node000006"><a xlink:href="classcbrc_1_1FLEArray.html#ad71311380d762114c9e0f3b0dda38b7c" target="_top" xlink:title=" ">
<polygon fill="white" stroke="#666666" points="283,-19 172,-19 172,0 283,0 283,-19"/>
<text text-anchor="middle" x="227.5" y="-7" font-family="Helvetica,sans-Serif" font-size="10.00">cbrc::FLEArray::size</text>
</a>
</g>
</g>
<!-- Node1&#45;&gt;Node6 -->
<g id="edge7_Node000001_Node000006" class="edge">
<title>Node1&#45;&gt;Node6</title>
<g id="a_edge7_Node000001_Node000006"><a xlink:title=" ">
<path fill="none" stroke="#63b8ff" d="M136.25,-19.81C144.69,-18.85 153.31,-17.86 161.71,-16.9"/>
<polygon fill="#63b8ff" stroke="#63b8ff" points="162.29,-20.36 171.83,-15.75 161.49,-13.41 162.29,-20.36"/>
</a>
</g>
</g>
<!-- Node3 -->
<g id="Node000003" class="node">
<title>Node3</title>
<g id="a_Node000003"><a xlink:href="classcbrc_1_1FLEArray.html#a985e9e85d6fc6adf9d3c52a0306361a4" target="_top" xlink:title=" ">
<polygon fill="white" stroke="#666666" points="471,-75 319,-75 319,-56 471,-56 471,-75"/>
<text text-anchor="middle" x="395" y="-63" font-family="Helvetica,sans-Serif" font-size="10.00">cbrc::FLEArray::_validRange</text>
</a>
</g>
</g>
<!-- Node2&#45;&gt;Node3 -->
<g id="edge2_Node000002_Node000003" class="edge">
<title>Node2&#45;&gt;Node3</title>
<g id="a_edge2_Node000002_Node000003"><a xlink:title=" ">
<path fill="none" stroke="#63b8ff" d="M282.69,-52.72C291.12,-53.69 299.99,-54.71 308.9,-55.73"/>
<polygon fill="#63b8ff" stroke="#63b8ff" points="308.62,-59.22 318.96,-56.88 309.42,-52.27 308.62,-59.22"/>
</a>
</g>
</g>
<!-- Node5 -->
<g id="Node000005" class="node">
<title>Node5</title>
<g id="a_Node000005"><a xlink:href="classcbrc_1_1FLEArray.html#a5368c7c0434bd5c119d2cbb39f4b399e" target="_top" xlink:title=" ">
<polygon fill="white" stroke="#666666" points="648.5,-37 513.5,-37 513.5,-18 648.5,-18 648.5,-37"/>
<text text-anchor="middle" x="581" y="-25" font-family="Helvetica,sans-Serif" font-size="10.00">cbrc::FLEArray::FLEArray</text>
</a>
</g>
</g>
<!-- Node2&#45;&gt;Node5 -->
<g id="edge6_Node000002_Node000005" class="edge">
<title>Node2&#45;&gt;Node5</title>
<g id="a_edge6_Node000002_Node000005"><a xlink:title=" ">
<path fill="none" stroke="#63b8ff" d="M282.65,-43.57C341.72,-40.38 436.75,-35.24 503.44,-31.64"/>
<polygon fill="#63b8ff" stroke="#63b8ff" points="503.68,-35.13 513.48,-31.1 503.3,-28.14 503.68,-35.13"/>
</a>
</g>
</g>
<!-- Node4 -->
<g id="Node000004" class="node">
<title>Node4</title>
<g id="a_Node000004"><a xlink:href="classcbrc_1_1FLEArray.html#a0a06120b85cf875ccff4081918fe0f33" target="_top" xlink:title=" ">
<polygon fill="white" stroke="#666666" points="655,-92 507,-92 507,-73 655,-73 655,-92"/>
<text text-anchor="middle" x="581" y="-80" font-family="Helvetica,sans-Serif" font-size="10.00">cbrc::FLEArray::_validIndex</text>
</a>
</g>
</g>
<!-- Node3&#45;&gt;Node4 -->
<g id="edge3_Node000003_Node000004" class="edge">
<title>Node3&#45;&gt;Node4</title>
<g id="a_edge3_Node000003_Node000004"><a xlink:title=" ">
<path fill="none" stroke="#63b8ff" d="M471.11,-72.44C479.6,-73.22 488.3,-74.03 496.9,-74.82"/>
<polygon fill="#63b8ff" stroke="#63b8ff" points="496.64,-78.31 506.92,-75.75 497.28,-71.34 496.64,-78.31"/>
</a>
</g>
</g>
<!-- Node3&#45;&gt;Node5 -->
<g id="edge4_Node000003_Node000005" class="edge">
<title>Node3&#45;&gt;Node5</title>
<g id="a_edge4_Node000003_Node000005"><a xlink:title=" ">
<path fill="none" stroke="#63b8ff" d="M442.43,-55.91C467.15,-50.81 497.74,-44.49 523.79,-39.11"/>
<polygon fill="#63b8ff" stroke="#63b8ff" points="524.82,-42.47 533.9,-37.02 523.4,-35.61 524.82,-42.47"/>
</a>
</g>
</g>
<!-- Node5&#45;&gt;Node5 -->
<g id="edge5_Node000005_Node000005" class="edge">
<title>Node5&#45;&gt;Node5</title>
<g id="a_edge5_Node000005_Node000005"><a xlink:title=" ">
<path fill="none" stroke="#63b8ff" d="M552.33,-37.08C538.39,-45.73 547.94,-55 581,-55 603.73,-55 615.35,-50.62 615.86,-45.07"/>
<polygon fill="#63b8ff" stroke="#63b8ff" points="618.56,-42.84 609.67,-37.08 613.03,-47.13 618.56,-42.84"/>
</a>
</g>
</g>
</g>
</svg>
