<?xml version="1.0" encoding="UTF-8" standalone="no"?>
<!DOCTYPE svg PUBLIC "-//W3C//DTD SVG 1.1//EN"
 "http://www.w3.org/Graphics/SVG/1.1/DTD/svg11.dtd">
<!-- Generated by graphviz version 2.43.0 (0)
 -->
<!-- Title: cbrc::FLEArrayIdentityPermutation Pages: 1 -->
<svg width="485pt" height="343pt"
 viewBox="0.00 0.00 485.00 343.00" xmlns="http://www.w3.org/2000/svg" xmlns:xlink="http://www.w3.org/1999/xlink">
<g id="graph0" class="graph" transform="scale(1 1) rotate(0) translate(4 339)">
<title>cbrc::FLEArrayIdentityPermutation</title>
<!-- Node1 -->
<g id="Node000001" class="node">
<title>Node1</title>
<g id="a_Node000001"><a xlink:title=" ">
<polygon fill="#999999" stroke="#666666" points="477,-179.5 293,-179.5 293,-160.5 477,-160.5 477,-179.5"/>
<text text-anchor="middle" x="385" y="-167.5" font-family="Helvetica,sans-Serif" font-size="10.00">cbrc::FLEArrayIdentityPermutation</text>
</a>
</g>
</g>
<!-- Node2 -->
<g id="Node000002" class="node">
<title>Node2</title>
<g id="a_Node000002"><a xlink:href="namespacecbrc.html#a83a6bd525e5572fa83375315a72db7ba" target="_top" xlink:title=" ">
<polygon fill="white" stroke="#666666" points="241,-335 93,-335 93,-305 241,-305 241,-335"/>
<text text-anchor="start" x="101" y="-323" font-family="Helvetica,sans-Serif" font-size="10.00">cbrc::allPairsNearestGlobal</text>
<text text-anchor="middle" x="167" y="-312" font-family="Helvetica,sans-Serif" font-size="10.00">AffineScore</text>
</a>
</g>
</g>
<!-- Node1&#45;&gt;Node2 -->
<g id="edge1_Node000001_Node000002" class="edge">
<title>Node1&#45;&gt;Node2</title>
<g id="a_edge1_Node000001_Node000002"><a xlink:title=" ">
<path fill="none" stroke="#63b8ff" d="M371.02,-187.85C350.12,-215.28 306.33,-267.6 257,-296 251.04,-299.43 244.57,-302.39 237.93,-304.94"/>
<polygon fill="#63b8ff" stroke="#63b8ff" points="374.02,-189.68 377.21,-179.57 368.42,-185.49 374.02,-189.68"/>
</a>
</g>
</g>
<!-- Node4 -->
<g id="Node000004" class="node">
<title>Node4</title>
<g id="a_Node000004"><a xlink:href="classcbrc_1_1SimilaritySearchableSequences.html#ab3046f18f90ac2e6783e72b5cc2a4870" target="_top" xlink:title=" ">
<polygon fill="white" stroke="#666666" points="239,-287 95,-287 95,-257 239,-257 239,-287"/>
<text text-anchor="start" x="103" y="-275" font-family="Helvetica,sans-Serif" font-size="10.00">cbrc::SimilaritySearchable</text>
<text text-anchor="middle" x="167" y="-264" font-family="Helvetica,sans-Serif" font-size="10.00">Sequences::bestMatch</text>
</a>
</g>
</g>
<!-- Node1&#45;&gt;Node4 -->
<g id="edge3_Node000001_Node000004" class="edge">
<title>Node1&#45;&gt;Node4</title>
<g id="a_edge3_Node000001_Node000004"><a xlink:title=" ">
<path fill="none" stroke="#63b8ff" d="M363.2,-185.39C338.86,-202.76 296.78,-230.85 257,-248 249.21,-251.36 240.83,-254.35 232.44,-257"/>
<polygon fill="#63b8ff" stroke="#63b8ff" points="365.28,-188.2 371.33,-179.51 361.18,-182.53 365.28,-188.2"/>
</a>
</g>
</g>
<!-- Node5 -->
<g id="Node000005" class="node">
<title>Node5</title>
<g id="a_Node000005"><a xlink:href="namespacecbrc.html#a47008b0334d893b29e722c3a78b03a77" target="_top" xlink:title=" ">
<polygon fill="white" stroke="#666666" points="230,-238.5 104,-238.5 104,-219.5 230,-219.5 230,-238.5"/>
<text text-anchor="middle" x="167" y="-226.5" font-family="Helvetica,sans-Serif" font-size="10.00">cbrc::clusterByIdentity</text>
</a>
</g>
</g>
<!-- Node1&#45;&gt;Node5 -->
<g id="edge4_Node000001_Node000005" class="edge">
<title>Node1&#45;&gt;Node5</title>
<g id="a_edge4_Node000001_Node000005"><a xlink:title=" ">
<path fill="none" stroke="#63b8ff" d="M347.97,-182.83C322.72,-191.53 288.07,-202.87 257,-211 245.26,-214.07 232.53,-216.93 220.46,-219.41"/>
<polygon fill="#63b8ff" stroke="#63b8ff" points="349.2,-186.11 357.5,-179.52 346.9,-179.5 349.2,-186.11"/>
</a>
</g>
</g>
<!-- Node7 -->
<g id="Node000007" class="node">
<title>Node7</title>
<g id="a_Node000007"><a xlink:href="namespacecbrc.html#a12c8855fbe39b71406be45428da1a078" target="_top" xlink:title=" ">
<polygon fill="white" stroke="#666666" points="256,-201.5 78,-201.5 78,-182.5 256,-182.5 256,-201.5"/>
<text text-anchor="middle" x="167" y="-189.5" font-family="Helvetica,sans-Serif" font-size="10.00">cbrc::FLEArraySortedPermutation</text>
</a>
</g>
</g>
<!-- Node1&#45;&gt;Node7 -->
<g id="edge6_Node000001_Node000007" class="edge">
<title>Node1&#45;&gt;Node7</title>
<g id="a_edge6_Node000001_Node000007"><a xlink:title=" ">
<path fill="none" stroke="#63b8ff" d="M282.74,-180.31C273.88,-181.22 264.95,-182.13 256.21,-183.02"/>
<polygon fill="#63b8ff" stroke="#63b8ff" points="283.12,-183.79 292.71,-179.3 282.41,-176.83 283.12,-183.79"/>
</a>
</g>
</g>
<!-- Node8 -->
<g id="Node000008" class="node">
<title>Node8</title>
<g id="a_Node000008"><a xlink:href="namespacecbrc.html#aef2d0ed299987208c4ea3f95ca35008f" target="_top" xlink:title=" ">
<polygon fill="white" stroke="#666666" points="236.5,-164 97.5,-164 97.5,-134 236.5,-134 236.5,-164"/>
<text text-anchor="start" x="105.5" y="-152" font-family="Helvetica,sans-Serif" font-size="10.00">cbrc::labeledBlastToOdds</text>
<text text-anchor="middle" x="167" y="-141" font-family="Helvetica,sans-Serif" font-size="10.00">Ratio</text>
</a>
</g>
</g>
<!-- Node1&#45;&gt;Node8 -->
<g id="edge7_Node000001_Node000008" class="edge">
<title>Node1&#45;&gt;Node8</title>
<g id="a_edge7_Node000001_Node000008"><a xlink:title=" ">
<path fill="none" stroke="#63b8ff" d="M282.54,-160.14C267,-158.63 251.28,-157.1 236.68,-155.68"/>
<polygon fill="#63b8ff" stroke="#63b8ff" points="282.42,-163.64 292.71,-161.12 283.1,-156.67 282.42,-163.64"/>
</a>
</g>
</g>
<!-- Node10 -->
<g id="Node000010" class="node">
<title>Node10</title>
<g id="a_Node000010"><a xlink:href="namespacecbrc.html#a69d7192d0249221a368646d4fe103642" target="_top" xlink:title=" ">
<polygon fill="white" stroke="#666666" points="252.5,-115.5 81.5,-115.5 81.5,-96.5 252.5,-96.5 252.5,-115.5"/>
<text text-anchor="middle" x="167" y="-103.5" font-family="Helvetica,sans-Serif" font-size="10.00">cbrc::listConnectedComponents</text>
</a>
</g>
</g>
<!-- Node1&#45;&gt;Node10 -->
<g id="edge9_Node000001_Node000010" class="edge">
<title>Node1&#45;&gt;Node10</title>
<g id="a_edge9_Node000001_Node000010"><a xlink:title=" ">
<path fill="none" stroke="#63b8ff" d="M350.43,-156.76C325.05,-147.08 289.19,-134.1 257,-125 244.53,-121.48 230.92,-118.26 218.18,-115.52"/>
<polygon fill="#63b8ff" stroke="#63b8ff" points="349.37,-160.1 359.96,-160.42 351.88,-153.56 349.37,-160.1"/>
</a>
</g>
</g>
<!-- Node12 -->
<g id="Node000012" class="node">
<title>Node12</title>
<g id="a_Node000012"><a xlink:href="namespacecbrc.html#a86fc3ad7bc4b49f407604ce1d0c71e7e" target="_top" xlink:title=" ">
<polygon fill="white" stroke="#666666" points="257,-78 77,-78 77,-48 257,-48 257,-78"/>
<text text-anchor="start" x="85" y="-66" font-family="Helvetica,sans-Serif" font-size="10.00">cbrc::printRandomRepresentative</text>
<text text-anchor="middle" x="167" y="-55" font-family="Helvetica,sans-Serif" font-size="10.00">FromEachConnectedComponent</text>
</a>
</g>
</g>
<!-- Node1&#45;&gt;Node12 -->
<g id="edge11_Node000001_Node000012" class="edge">
<title>Node1&#45;&gt;Node12</title>
<g id="a_edge11_Node000001_Node000012"><a xlink:title=" ">
<path fill="none" stroke="#63b8ff" d="M363.69,-154.12C339.49,-135.89 297.27,-106.16 257,-88 248.66,-84.24 239.62,-80.91 230.61,-78.02"/>
<polygon fill="#63b8ff" stroke="#63b8ff" points="361.68,-156.99 371.75,-160.28 365.92,-151.43 361.68,-156.99"/>
</a>
</g>
</g>
<!-- Node14 -->
<g id="Node000014" class="node">
<title>Node14</title>
<g id="a_Node000014"><a xlink:href="namespacecbrc.html#a59b02daff29890d24f755b27508743f0" target="_top" xlink:title=" ">
<polygon fill="white" stroke="#666666" points="235,-30 99,-30 99,0 235,0 235,-30"/>
<text text-anchor="start" x="107" y="-18" font-family="Helvetica,sans-Serif" font-size="10.00">cbrc::runAllShortestEdge</text>
<text text-anchor="middle" x="167" y="-7" font-family="Helvetica,sans-Serif" font-size="10.00">LengthPaths</text>
</a>
</g>
</g>
<!-- Node1&#45;&gt;Node14 -->
<g id="edge13_Node000001_Node000014" class="edge">
<title>Node1&#45;&gt;Node14</title>
<g id="a_edge13_Node000001_Node000014"><a xlink:title=" ">
<path fill="none" stroke="#63b8ff" d="M371.76,-152.21C351.32,-123.89 307.49,-68.73 257,-39 250.24,-35.02 242.81,-31.69 235.21,-28.89"/>
<polygon fill="#63b8ff" stroke="#63b8ff" points="368.92,-154.26 377.55,-160.4 374.63,-150.21 368.92,-154.26"/>
</a>
</g>
</g>
<!-- Node3 -->
<g id="Node000003" class="node">
<title>Node3</title>
<g id="a_Node000003"><a xlink:href="allPairsNearestGlobalAffineScore_8cc.html#ac0f2228420376f4db7e1274f2b41667c" target="_top" xlink:title=" ">
<polygon fill="white" stroke="#666666" points="41,-329.5 0,-329.5 0,-310.5 41,-310.5 41,-329.5"/>
<text text-anchor="middle" x="20.5" y="-317.5" font-family="Helvetica,sans-Serif" font-size="10.00">main</text>
</a>
</g>
</g>
<!-- Node2&#45;&gt;Node3 -->
<g id="edge2_Node000002_Node000003" class="edge">
<title>Node2&#45;&gt;Node3</title>
<g id="a_edge2_Node000002_Node000003"><a xlink:title=" ">
<path fill="none" stroke="#63b8ff" d="M82.6,-320C67.04,-320 52.18,-320 41.01,-320"/>
<polygon fill="#63b8ff" stroke="#63b8ff" points="82.9,-323.5 92.9,-320 82.9,-316.5 82.9,-323.5"/>
</a>
</g>
</g>
<!-- Node6 -->
<g id="Node000006" class="node">
<title>Node6</title>
<g id="a_Node000006"><a xlink:href="clusterByIdentity_8cc.html#ac0f2228420376f4db7e1274f2b41667c" target="_top" xlink:title=" ">
<polygon fill="white" stroke="#666666" points="41,-238.5 0,-238.5 0,-219.5 41,-219.5 41,-238.5"/>
<text text-anchor="middle" x="20.5" y="-226.5" font-family="Helvetica,sans-Serif" font-size="10.00">main</text>
</a>
</g>
</g>
<!-- Node5&#45;&gt;Node6 -->
<g id="edge5_Node000005_Node000006" class="edge">
<title>Node5&#45;&gt;Node6</title>
<g id="a_edge5_Node000005_Node000006"><a xlink:title=" ">
<path fill="none" stroke="#63b8ff" d="M93.74,-229C74.29,-229 54.84,-229 41.03,-229"/>
<polygon fill="#63b8ff" stroke="#63b8ff" points="93.88,-232.5 103.88,-229 93.88,-225.5 93.88,-232.5"/>
</a>
</g>
</g>
<!-- Node9 -->
<g id="Node000009" class="node">
<title>Node9</title>
<g id="a_Node000009"><a xlink:href="labeledBlastToOddsRatio_8cc.html#a3c04138a5bfe5d72780bb7e82a18e627" target="_top" xlink:title=" ">
<polygon fill="white" stroke="#666666" points="41,-158.5 0,-158.5 0,-139.5 41,-139.5 41,-158.5"/>
<text text-anchor="middle" x="20.5" y="-146.5" font-family="Helvetica,sans-Serif" font-size="10.00">main</text>
</a>
</g>
</g>
<!-- Node8&#45;&gt;Node9 -->
<g id="edge8_Node000008_Node000009" class="edge">
<title>Node8&#45;&gt;Node9</title>
<g id="a_edge8_Node000008_Node000009"><a xlink:title=" ">
<path fill="none" stroke="#63b8ff" d="M87.05,-149C69.96,-149 53.38,-149 41.17,-149"/>
<polygon fill="#63b8ff" stroke="#63b8ff" points="87.14,-152.5 97.14,-149 87.14,-145.5 87.14,-152.5"/>
</a>
</g>
</g>
<!-- Node11 -->
<g id="Node000011" class="node">
<title>Node11</title>
<g id="a_Node000011"><a xlink:href="graph_2run_2listConnectedComponents_8cc.html#a3c04138a5bfe5d72780bb7e82a18e627" target="_top" xlink:title=" ">
<polygon fill="white" stroke="#666666" points="41,-115.5 0,-115.5 0,-96.5 41,-96.5 41,-115.5"/>
<text text-anchor="middle" x="20.5" y="-103.5" font-family="Helvetica,sans-Serif" font-size="10.00">main</text>
</a>
</g>
</g>
<!-- Node10&#45;&gt;Node11 -->
<g id="edge10_Node000010_Node000011" class="edge">
<title>Node10&#45;&gt;Node11</title>
<g id="a_edge10_Node000010_Node000011"><a xlink:title=" ">
<path fill="none" stroke="#63b8ff" d="M71.07,-106C59.84,-106 49.43,-106 41.08,-106"/>
<polygon fill="#63b8ff" stroke="#63b8ff" points="71.11,-109.5 81.11,-106 71.11,-102.5 71.11,-109.5"/>
</a>
</g>
</g>
<!-- Node13 -->
<g id="Node000013" class="node">
<title>Node13</title>
<g id="a_Node000013"><a xlink:href="graph_2run_2printRandomRepresentativeFromEachConnectedComponent_8cc.html#a3c04138a5bfe5d72780bb7e82a18e627" target="_top" xlink:title=" ">
<polygon fill="white" stroke="#666666" points="41,-72.5 0,-72.5 0,-53.5 41,-53.5 41,-72.5"/>
<text text-anchor="middle" x="20.5" y="-60.5" font-family="Helvetica,sans-Serif" font-size="10.00">main</text>
</a>
</g>
</g>
<!-- Node12&#45;&gt;Node13 -->
<g id="edge12_Node000012_Node000013" class="edge">
<title>Node12&#45;&gt;Node13</title>
<g id="a_edge12_Node000012_Node000013"><a xlink:title=" ">
<path fill="none" stroke="#63b8ff" d="M66.73,-63C57.15,-63 48.3,-63 41.03,-63"/>
<polygon fill="#63b8ff" stroke="#63b8ff" points="66.95,-66.5 76.95,-63 66.95,-59.5 66.95,-66.5"/>
</a>
</g>
</g>
<!-- Node15 -->
<g id="Node000015" class="node">
<title>Node15</title>
<g id="a_Node000015"><a xlink:href="graph_2run_2runAllShortestEdgeLengthPaths_8cc.html#a3c04138a5bfe5d72780bb7e82a18e627" target="_top" xlink:title=" ">
<polygon fill="white" stroke="#666666" points="41,-24.5 0,-24.5 0,-5.5 41,-5.5 41,-24.5"/>
<text text-anchor="middle" x="20.5" y="-12.5" font-family="Helvetica,sans-Serif" font-size="10.00">main</text>
</a>
</g>
</g>
<!-- Node14&#45;&gt;Node15 -->
<g id="edge14_Node000014_Node000015" class="edge">
<title>Node14&#45;&gt;Node15</title>
<g id="a_edge14_Node000014_Node000015"><a xlink:title=" ">
<path fill="none" stroke="#63b8ff" d="M88.44,-15C70.82,-15 53.63,-15 41.08,-15"/>
<polygon fill="#63b8ff" stroke="#63b8ff" points="88.83,-18.5 98.83,-15 88.83,-11.5 88.83,-18.5"/>
</a>
</g>
</g>
</g>
</svg>
