<?xml version="1.0" encoding="UTF-8" standalone="no"?>
<!DOCTYPE svg PUBLIC "-//W3C//DTD SVG 1.1//EN"
 "http://www.w3.org/Graphics/SVG/1.1/DTD/svg11.dtd">
<!-- Generated by graphviz version 2.43.0 (0)
 -->
<!-- Title: cbrc::dumpAminoAcidContentWPformat Pages: 1 -->
<svg width="482pt" height="218pt"
 viewBox="0.00 0.00 482.00 217.50" xmlns="http://www.w3.org/2000/svg" xmlns:xlink="http://www.w3.org/1999/xlink">

<svg id="main" version="1.1" xmlns="http://www.w3.org/2000/svg" xmlns:xlink="http://www.w3.org/1999/xlink" xml:space="preserve" onload="init(evt)">
<style type="text/css"><![CDATA[
.node, .edge {opacity: 0.7;}
.node.selected, .edge.selected {opacity: 1;}
.edge:hover path { stroke: red; }
.edge:hover polygon { stroke: red; fill: red; }
]]></style>
<script type="application/ecmascript" xlink:href="svg.min.js"/>
<svg id="graph" class="graph">
<g id="graph0" class="graph" transform="scale(1 1) rotate(0) translate(4 213.5)">
<title>cbrc::dumpAminoAcidContentWPformat</title>
<!-- Node1 -->
<g id="Node000001" class="node">
<title>Node1</title>
<g id="a_Node000001"><a xlink:title=" ">
<polygon fill="#999999" stroke="#666666" points="161,-105.5 0,-105.5 0,-75.5 161,-75.5 161,-105.5"/>
<text text-anchor="start" x="8" y="-93.5" font-family="Helvetica,sans-Serif" font-size="10.00">cbrc::dumpAminoAcidContent</text>
<text text-anchor="middle" x="80.5" y="-82.5" font-family="Helvetica,sans-Serif" font-size="10.00">WPformat</text>
</a>
</g>
</g>
<!-- Node2 -->
<g id="Node000002" class="node">
<title>Node2</title>
<g id="a_Node000002"><a xlink:href="classcbrc_1_1ResidueIndexMap.html#a19dec9678d9b82ebf1e8c98151c480b9" target="_top" xlink:title=" ">
<polygon fill="white" stroke="#666666" points="327,-209.5 197,-209.5 197,-179.5 327,-179.5 327,-209.5"/>
<text text-anchor="start" x="205" y="-197.5" font-family="Helvetica,sans-Serif" font-size="10.00">cbrc::ResidueIndexMap</text>
<text text-anchor="middle" x="262" y="-186.5" font-family="Helvetica,sans-Serif" font-size="10.00">::alphabetProper</text>
</a>
</g>
</g>
<!-- Node1&#45;&gt;Node2 -->
<g id="edge1_Node000001_Node000002" class="edge">
<title>Node1&#45;&gt;Node2</title>
<g id="a_edge1_Node000001_Node000002"><a xlink:title=" ">
<path fill="none" stroke="#63b8ff" d="M100.19,-105.62C122.3,-122.98 160.69,-151.49 197,-170.5 200.24,-172.2 203.63,-173.83 207.08,-175.4"/>
<polygon fill="#63b8ff" stroke="#63b8ff" points="205.74,-178.63 216.31,-179.37 208.51,-172.2 205.74,-178.63"/>
</a>
</g>
</g>
<!-- Node3 -->
<g id="Node000003" class="node">
<title>Node3</title>
<g id="a_Node000003"><a xlink:href="classcbrc_1_1FLEArray.html#a7e5d0d3bc5c41546620ccff95b55b3fa" target="_top" xlink:title=" ">
<polygon fill="white" stroke="#666666" points="321.5,-161 202.5,-161 202.5,-142 321.5,-142 321.5,-161"/>
<text text-anchor="middle" x="262" y="-149" font-family="Helvetica,sans-Serif" font-size="10.00">cbrc::FLEArray::begin</text>
</a>
</g>
</g>
<!-- Node1&#45;&gt;Node3 -->
<g id="edge2_Node000001_Node000003" class="edge">
<title>Node1&#45;&gt;Node3</title>
<g id="a_edge2_Node000001_Node000003"><a xlink:title=" ">
<path fill="none" stroke="#63b8ff" d="M121.12,-105.57C143.32,-113.85 171.57,-124.11 197,-132.5 203.58,-134.67 210.58,-136.87 217.44,-138.95"/>
<polygon fill="#63b8ff" stroke="#63b8ff" points="216.75,-142.4 227.33,-141.92 218.76,-135.69 216.75,-142.4"/>
</a>
</g>
</g>
<!-- Node4 -->
<g id="Node000004" class="node">
<title>Node4</title>
<g id="a_Node000004"><a xlink:href="classcbrc_1_1ResidueIndexMap.html#ac7603464d0869102a949604457df96ce" target="_top" xlink:title=" ">
<polygon fill="white" stroke="#666666" points="327,-105.5 197,-105.5 197,-75.5 327,-75.5 327,-105.5"/>
<text text-anchor="start" x="205" y="-93.5" font-family="Helvetica,sans-Serif" font-size="10.00">cbrc::ResidueIndexMap</text>
<text text-anchor="middle" x="262" y="-82.5" font-family="Helvetica,sans-Serif" font-size="10.00">::canonicalizeCase</text>
</a>
</g>
</g>
<!-- Node1&#45;&gt;Node4 -->
<g id="edge3_Node000001_Node000004" class="edge">
<title>Node1&#45;&gt;Node4</title>
<g id="a_edge3_Node000001_Node000004"><a xlink:title=" ">
<path fill="none" stroke="#63b8ff" d="M161.02,-90.5C169.55,-90.5 178.21,-90.5 186.68,-90.5"/>
<polygon fill="#63b8ff" stroke="#63b8ff" points="186.89,-94 196.89,-90.5 186.89,-87 186.89,-94"/>
</a>
</g>
</g>
<!-- Node5 -->
<g id="Node000005" class="node">
<title>Node5</title>
<g id="a_Node000005"><a xlink:href="classcbrc_1_1FLEArray.html#ad71311380d762114c9e0f3b0dda38b7c" target="_top" xlink:title=" ">
<polygon fill="white" stroke="#666666" points="474,-78 363,-78 363,-59 474,-59 474,-78"/>
<text text-anchor="middle" x="418.5" y="-66" font-family="Helvetica,sans-Serif" font-size="10.00">cbrc::FLEArray::size</text>
</a>
</g>
</g>
<!-- Node1&#45;&gt;Node5 -->
<g id="edge7_Node000001_Node000005" class="edge">
<title>Node1&#45;&gt;Node5</title>
<g id="a_edge7_Node000001_Node000005"><a xlink:title=" ">
<path fill="none" stroke="#63b8ff" d="M142.28,-75.44C159.82,-71.75 179.07,-68.34 197,-66.5 254.47,-60.59 269.23,-65.86 327,-66.5 335.36,-66.59 344.15,-66.73 352.83,-66.9"/>
<polygon fill="#63b8ff" stroke="#63b8ff" points="352.88,-70.4 362.95,-67.1 353.02,-63.4 352.88,-70.4"/>
</a>
</g>
</g>
<!-- Node6 -->
<g id="Node000006" class="node">
<title>Node6</title>
<g id="a_Node000006"><a xlink:href="classcbrc_1_1FLEArray.html#a8c53878dc57e8f666976e041d146a523" target="_top" xlink:title=" ">
<polygon fill="white" stroke="#666666" points="317,-19 207,-19 207,0 317,0 317,-19"/>
<text text-anchor="middle" x="262" y="-7" font-family="Helvetica,sans-Serif" font-size="10.00">cbrc::FLEArray::end</text>
</a>
</g>
</g>
<!-- Node1&#45;&gt;Node6 -->
<g id="edge6_Node000001_Node000006" class="edge">
<title>Node1&#45;&gt;Node6</title>
<g id="a_edge6_Node000001_Node000006"><a xlink:title=" ">
<path fill="none" stroke="#63b8ff" d="M110.08,-75.4C133.23,-63.42 166.84,-46.56 197,-33.5 205.72,-29.73 215.24,-25.97 224.21,-22.58"/>
<polygon fill="#63b8ff" stroke="#63b8ff" points="225.51,-25.83 233.67,-19.07 223.08,-19.27 225.51,-25.83"/>
</a>
</g>
</g>
<!-- Node4&#45;&gt;Node4 -->
<g id="edge4_Node000004_Node000004" class="edge">
<title>Node4&#45;&gt;Node4</title>
<g id="a_edge4_Node000004_Node000004"><a xlink:title=" ">
<path fill="none" stroke="#63b8ff" d="M234.58,-105.78C228.48,-114.91 237.62,-123.5 262,-123.5 276.47,-123.5 285.57,-120.47 289.31,-116.1"/>
<polygon fill="#63b8ff" stroke="#63b8ff" points="292.81,-115.81 289.42,-105.78 285.81,-115.74 292.81,-115.81"/>
</a>
</g>
</g>
<!-- Node4&#45;&gt;Node5 -->
<g id="edge5_Node000004_Node000005" class="edge">
<title>Node4&#45;&gt;Node5</title>
<g id="a_edge5_Node000004_Node000005"><a xlink:title=" ">
<path fill="none" stroke="#63b8ff" d="M327.18,-81.36C335.55,-80.17 344.13,-78.95 352.51,-77.75"/>
<polygon fill="#63b8ff" stroke="#63b8ff" points="353.21,-81.19 362.61,-76.32 352.22,-74.26 353.21,-81.19"/>
</a>
</g>
</g>
</g>
</svg>
</svg>

<style type='text/css'>
<![CDATA[
[data-mouse-over-selected='false'] { opacity: 0.7; }
[data-mouse-over-selected='true']  { opacity: 1.0; }
]]>
</style>
<script type="application/ecmascript"><![CDATA[
document.addEventListener('DOMContentLoaded', (event) => {
  highlightEdges();
  highlightAdjacentNodes();
});
]]></script>
</svg>
