<?xml version="1.0" encoding="UTF-8" standalone="no"?>
<!DOCTYPE svg PUBLIC "-//W3C//DTD SVG 1.1//EN"
 "http://www.w3.org/Graphics/SVG/1.1/DTD/svg11.dtd">
<!-- Generated by graphviz version 2.43.0 (0)
 -->
<!-- Title: cbrc::perlish::toString Pages: 1 -->
<svg width="538pt" height="321pt"
 viewBox="0.00 0.00 538.00 320.50" xmlns="http://www.w3.org/2000/svg" xmlns:xlink="http://www.w3.org/1999/xlink">
<g id="graph0" class="graph" transform="scale(1 1) rotate(0) translate(4 316.5)">
<title>cbrc::perlish::toString</title>
<!-- Node1 -->
<g id="Node000001" class="node">
<title>Node1</title>
<g id="a_Node000001"><a xlink:title=" ">
<polygon fill="#999999" stroke="#666666" points="530,-151 410,-151 410,-132 530,-132 530,-151"/>
<text text-anchor="middle" x="470" y="-139" font-family="Helvetica,sans-Serif" font-size="10.00">cbrc::perlish::toString</text>
</a>
</g>
</g>
<!-- Node2 -->
<g id="Node000002" class="node">
<title>Node2</title>
<g id="a_Node000002"><a xlink:href="namespacecbrc_1_1htmlStrings.html#ad67d942146170ed7891bb73380f28251" target="_top" xlink:title=" ">
<polygon fill="white" stroke="#666666" points="355.5,-312.5 237.5,-312.5 237.5,-282.5 355.5,-282.5 355.5,-312.5"/>
<text text-anchor="start" x="245.5" y="-300.5" font-family="Helvetica,sans-Serif" font-size="10.00">cbrc::htmlStrings::</text>
<text text-anchor="middle" x="296.5" y="-289.5" font-family="Helvetica,sans-Serif" font-size="10.00">equalWidthFontStyle</text>
</a>
</g>
</g>
<!-- Node1&#45;&gt;Node2 -->
<g id="edge1_Node000001_Node000002" class="edge">
<title>Node1&#45;&gt;Node2</title>
<g id="a_edge1_Node000001_Node000002"><a xlink:title=" ">
<path fill="none" stroke="#63b8ff" d="M460.35,-160.4C446.29,-189.05 415.79,-243.32 374,-273.5 368.47,-277.49 362.26,-280.84 355.82,-283.63"/>
<polygon fill="#63b8ff" stroke="#63b8ff" points="463.64,-161.63 464.78,-151.09 457.32,-158.62 463.64,-161.63"/>
</a>
</g>
</g>
<!-- Node3 -->
<g id="Node000003" class="node">
<title>Node3</title>
<g id="a_Node000003"><a xlink:href="classcbrc_1_1Alignment.html#a397e075c10b42dc6f9511ae933b90a14" target="_top" xlink:title=" ">
<polygon fill="white" stroke="#666666" points="374,-264 219,-264 219,-245 374,-245 374,-264"/>
<text text-anchor="middle" x="296.5" y="-252" font-family="Helvetica,sans-Serif" font-size="10.00">cbrc::Alignment::outputHtml</text>
</a>
</g>
</g>
<!-- Node1&#45;&gt;Node3 -->
<g id="edge2_Node000001_Node000003" class="edge">
<title>Node1&#45;&gt;Node3</title>
<g id="a_edge2_Node000001_Node000003"><a xlink:title=" ">
<path fill="none" stroke="#63b8ff" d="M455.87,-159.42C439.22,-180.81 408.52,-216.11 374,-235.5 367.08,-239.39 359.37,-242.49 351.58,-244.96"/>
<polygon fill="#63b8ff" stroke="#63b8ff" points="458.85,-161.28 462.11,-151.19 453.28,-157.05 458.85,-161.28"/>
</a>
</g>
</g>
<!-- Node4 -->
<g id="Node000004" class="node">
<title>Node4</title>
<g id="a_Node000004"><a xlink:href="classcbrc_1_1Alignment.html#a8a02d77813c9c9ded5550b235bb15fe3" target="_top" xlink:title=" ">
<polygon fill="white" stroke="#666666" points="374,-226.5 219,-226.5 219,-196.5 374,-196.5 374,-226.5"/>
<text text-anchor="start" x="227" y="-214.5" font-family="Helvetica,sans-Serif" font-size="10.00">cbrc::Alignment::outputHtml</text>
<text text-anchor="middle" x="296.5" y="-203.5" font-family="Helvetica,sans-Serif" font-size="10.00">MarkSame</text>
</a>
</g>
</g>
<!-- Node1&#45;&gt;Node4 -->
<g id="edge3_Node000001_Node000004" class="edge">
<title>Node1&#45;&gt;Node4</title>
<g id="a_edge3_Node000001_Node000004"><a xlink:title=" ">
<path fill="none" stroke="#63b8ff" d="M442.02,-155.88C423.26,-165.55 397.5,-178.18 374,-187.5 366.11,-190.63 357.63,-193.63 349.3,-196.39"/>
<polygon fill="#63b8ff" stroke="#63b8ff" points="443.89,-158.85 451.14,-151.13 440.66,-152.64 443.89,-158.85"/>
</a>
</g>
</g>
<!-- Node6 -->
<g id="Node000006" class="node">
<title>Node6</title>
<g id="a_Node000006"><a xlink:href="classcbrc_1_1Alignment.html#a0a90df2f6b0988867cfdbb349bd04005" target="_top" xlink:title=" ">
<polygon fill="white" stroke="#666666" points="372,-178.5 221,-178.5 221,-148.5 372,-148.5 372,-178.5"/>
<text text-anchor="start" x="229" y="-166.5" font-family="Helvetica,sans-Serif" font-size="10.00">cbrc::Alignment::outputText</text>
<text text-anchor="middle" x="296.5" y="-155.5" font-family="Helvetica,sans-Serif" font-size="10.00">MarkSame</text>
</a>
</g>
</g>
<!-- Node1&#45;&gt;Node6 -->
<g id="edge5_Node000001_Node000006" class="edge">
<title>Node1&#45;&gt;Node6</title>
<g id="a_edge5_Node000001_Node000006"><a xlink:title=" ">
<path fill="none" stroke="#63b8ff" d="M399.81,-150.38C390.68,-151.55 381.29,-152.75 372.08,-153.93"/>
<polygon fill="#63b8ff" stroke="#63b8ff" points="400.51,-153.82 409.98,-149.07 399.62,-146.87 400.51,-153.82"/>
</a>
</g>
</g>
<!-- Node7 -->
<g id="Node000007" class="node">
<title>Node7</title>
<g id="a_Node000007"><a xlink:href="namespacecbrc_1_1perlish.html#a6566d66256fca0399f4eaebc0296dac3" target="_top" xlink:title=" ">
<polygon fill="white" stroke="#666666" points="356.5,-130 236.5,-130 236.5,-111 356.5,-111 356.5,-130"/>
<text text-anchor="middle" x="296.5" y="-118" font-family="Helvetica,sans-Serif" font-size="10.00">cbrc::perlish::toString</text>
</a>
</g>
</g>
<!-- Node1&#45;&gt;Node7 -->
<g id="edge7_Node000001_Node000007" class="edge">
<title>Node1&#45;&gt;Node7</title>
<g id="a_edge7_Node000001_Node000007"><a xlink:title=" ">
<path fill="none" stroke="#63b8ff" d="M399.71,-133.02C385.43,-131.27 370.51,-129.44 356.63,-127.74"/>
<polygon fill="#63b8ff" stroke="#63b8ff" points="399.63,-136.53 409.98,-134.27 400.48,-129.58 399.63,-136.53"/>
</a>
</g>
</g>
<!-- Node8 -->
<g id="Node000008" class="node">
<title>Node8</title>
<g id="a_Node000008"><a xlink:href="namespacecbrc_1_1perlish.html#ab5d40c6d852f80dd6d6af1220ad546ae" target="_top" xlink:title=" ">
<polygon fill="white" stroke="#666666" points="356.5,-93 236.5,-93 236.5,-74 356.5,-74 356.5,-93"/>
<text text-anchor="middle" x="296.5" y="-81" font-family="Helvetica,sans-Serif" font-size="10.00">cbrc::perlish::toString</text>
</a>
</g>
</g>
<!-- Node1&#45;&gt;Node8 -->
<g id="edge8_Node000001_Node000008" class="edge">
<title>Node1&#45;&gt;Node8</title>
<g id="a_edge8_Node000001_Node000008"><a xlink:title=" ">
<path fill="none" stroke="#63b8ff" d="M438.85,-127.8C420.38,-119.74 396.12,-109.74 374,-102.5 363.34,-99.01 351.65,-95.8 340.7,-93.06"/>
<polygon fill="#63b8ff" stroke="#63b8ff" points="437.64,-131.09 448.2,-131.93 440.47,-124.69 437.64,-131.09"/>
</a>
</g>
</g>
<!-- Node9 -->
<g id="Node000009" class="node">
<title>Node9</title>
<g id="a_Node000009"><a xlink:href="namespacecbrc_1_1perlish.html#ab11cc90e07199a4f22481562212094fa" target="_top" xlink:title=" ">
<polygon fill="white" stroke="#666666" points="356.5,-56 236.5,-56 236.5,-37 356.5,-37 356.5,-56"/>
<text text-anchor="middle" x="296.5" y="-44" font-family="Helvetica,sans-Serif" font-size="10.00">cbrc::perlish::toString</text>
</a>
</g>
</g>
<!-- Node1&#45;&gt;Node9 -->
<g id="edge9_Node000001_Node000009" class="edge">
<title>Node1&#45;&gt;Node9</title>
<g id="a_edge9_Node000001_Node000009"><a xlink:title=" ">
<path fill="none" stroke="#63b8ff" d="M452.73,-124.75C434.95,-107.41 404.87,-80.76 374,-65.5 366.27,-61.68 357.71,-58.59 349.2,-56.1"/>
<polygon fill="#63b8ff" stroke="#63b8ff" points="450.43,-127.4 459.99,-131.99 455.38,-122.45 450.43,-127.4"/>
</a>
</g>
</g>
<!-- Node10 -->
<g id="Node000010" class="node">
<title>Node10</title>
<g id="a_Node000010"><a xlink:href="namespacecbrc_1_1perlish.html#ac390088bdb3f69cd6042ec262d7a138a" target="_top" xlink:title=" ">
<polygon fill="white" stroke="#666666" points="356.5,-19 236.5,-19 236.5,0 356.5,0 356.5,-19"/>
<text text-anchor="middle" x="296.5" y="-7" font-family="Helvetica,sans-Serif" font-size="10.00">cbrc::perlish::toString</text>
</a>
</g>
</g>
<!-- Node1&#45;&gt;Node10 -->
<g id="edge10_Node000001_Node000010" class="edge">
<title>Node1&#45;&gt;Node10</title>
<g id="a_edge10_Node000001_Node000010"><a xlink:title=" ">
<path fill="none" stroke="#63b8ff" d="M458.56,-122.91C443.33,-97.56 412.59,-52.56 374,-28.5 367.73,-24.59 360.7,-21.48 353.51,-19.02"/>
<polygon fill="#63b8ff" stroke="#63b8ff" points="455.72,-124.99 463.78,-131.87 461.77,-121.47 455.72,-124.99"/>
</a>
</g>
</g>
<!-- Node5 -->
<g id="Node000005" class="node">
<title>Node5</title>
<g id="a_Node000005"><a xlink:href="classcbrc_1_1Alignment.html#a194a680df661b5d98f8d7fea3d84289a" target="_top" xlink:title=" ">
<polygon fill="white" stroke="#666666" points="183,-197 0,-197 0,-178 183,-178 183,-197"/>
<text text-anchor="middle" x="91.5" y="-185" font-family="Helvetica,sans-Serif" font-size="10.00">cbrc::Alignment::outputMarkSame</text>
</a>
</g>
</g>
<!-- Node4&#45;&gt;Node5 -->
<g id="edge4_Node000004_Node000005" class="edge">
<title>Node4&#45;&gt;Node5</title>
<g id="a_edge4_Node000004_Node000005"><a xlink:title=" ">
<path fill="none" stroke="#63b8ff" d="M208.5,-201.21C196.74,-199.82 184.72,-198.4 173.07,-197.03"/>
<polygon fill="#63b8ff" stroke="#63b8ff" points="208.41,-204.73 218.75,-202.43 209.23,-197.78 208.41,-204.73"/>
</a>
</g>
</g>
<!-- Node6&#45;&gt;Node5 -->
<g id="edge6_Node000006_Node000005" class="edge">
<title>Node6&#45;&gt;Node5</title>
<g id="a_edge6_Node000006_Node000005"><a xlink:title=" ">
<path fill="none" stroke="#63b8ff" d="M210.8,-173.51C198.24,-175 185.33,-176.52 172.87,-178"/>
<polygon fill="#63b8ff" stroke="#63b8ff" points="211.26,-176.98 220.78,-172.33 210.43,-170.03 211.26,-176.98"/>
</a>
</g>
</g>
</g>
</svg>
