<?xml version="1.0" encoding="UTF-8" standalone="no"?>
<!DOCTYPE svg PUBLIC "-//W3C//DTD SVG 1.1//EN"
 "http://www.w3.org/Graphics/SVG/1.1/DTD/svg11.dtd">
<!-- Generated by graphviz version 2.43.0 (0)
 -->
<!-- Title: cbrc::binaryIO::write Pages: 1 -->
<svg width="943pt" height="111pt"
 viewBox="0.00 0.00 943.00 110.50" xmlns="http://www.w3.org/2000/svg" xmlns:xlink="http://www.w3.org/1999/xlink">
<g id="graph0" class="graph" transform="scale(1 1) rotate(0) translate(4 106.5)">
<title>cbrc::binaryIO::write</title>
<!-- Node1 -->
<g id="Node000001" class="node">
<title>Node1</title>
<g id="a_Node000001"><a xlink:title=" ">
<polygon fill="#999999" stroke="#666666" points="115,-55 0,-55 0,-36 115,-36 115,-55"/>
<text text-anchor="middle" x="57.5" y="-43" font-family="Helvetica,sans-Serif" font-size="10.00">cbrc::binaryIO::write</text>
</a>
</g>
</g>
<!-- Node2 -->
<g id="Node000002" class="node">
<title>Node2</title>
<g id="a_Node000002"><a xlink:href="classcbrc_1_1FLEArray.html#ad71311380d762114c9e0f3b0dda38b7c" target="_top" xlink:title=" ">
<polygon fill="white" stroke="#666666" points="935,-65 824,-65 824,-46 935,-46 935,-65"/>
<text text-anchor="middle" x="879.5" y="-53" font-family="Helvetica,sans-Serif" font-size="10.00">cbrc::FLEArray::size</text>
</a>
</g>
</g>
<!-- Node1&#45;&gt;Node2 -->
<g id="edge1_Node000001_Node000002" class="edge">
<title>Node1&#45;&gt;Node2</title>
<g id="a_edge1_Node000001_Node000002"><a xlink:title=" ">
<path fill="none" stroke="#63b8ff" d="M91.74,-55.04C151.29,-71.27 280.35,-102.5 391.5,-102.5 391.5,-102.5 391.5,-102.5 578,-102.5 671.71,-102.5 696.06,-101.67 788,-83.5 806.44,-79.86 826.45,-73.88 842.96,-68.39"/>
<polygon fill="#63b8ff" stroke="#63b8ff" points="844.4,-71.6 852.73,-65.06 842.14,-64.97 844.4,-71.6"/>
</a>
</g>
</g>
<!-- Node3 -->
<g id="Node000003" class="node">
<title>Node3</title>
<g id="a_Node000003"><a xlink:href="namespacecbrc_1_1binaryIO.html#a440d3764ebc531c0232f2d3c5449c402" target="_top" xlink:title=" ">
<polygon fill="white" stroke="#666666" points="266,-55 151,-55 151,-36 266,-36 266,-55"/>
<text text-anchor="middle" x="208.5" y="-43" font-family="Helvetica,sans-Serif" font-size="10.00">cbrc::binaryIO::write</text>
</a>
</g>
</g>
<!-- Node1&#45;&gt;Node3 -->
<g id="edge2_Node000001_Node000003" class="edge">
<title>Node1&#45;&gt;Node3</title>
<g id="a_edge2_Node000001_Node000003"><a xlink:title=" ">
<path fill="none" stroke="#63b8ff" d="M115.26,-45.5C123.56,-45.5 132.17,-45.5 140.65,-45.5"/>
<polygon fill="#63b8ff" stroke="#63b8ff" points="140.9,-49 150.9,-45.5 140.9,-42 140.9,-49"/>
</a>
</g>
</g>
<!-- Node4 -->
<g id="Node000004" class="node">
<title>Node4</title>
<g id="a_Node000004"><a xlink:href="classcbrc_1_1FLEArray.html#a67f88b1303a55d4e8039da5a9a739203" target="_top" xlink:title=" ">
<polygon fill="white" stroke="#666666" points="635,-19 519,-19 519,0 635,0 635,-19"/>
<text text-anchor="middle" x="577" y="-7" font-family="Helvetica,sans-Serif" font-size="10.00">cbrc::FLEArray::write</text>
</a>
</g>
</g>
<!-- Node1&#45;&gt;Node4 -->
<g id="edge11_Node000001_Node000004" class="edge">
<title>Node1&#45;&gt;Node4</title>
<g id="a_edge11_Node000001_Node000004"><a xlink:title=" ">
<path fill="none" stroke="#63b8ff" d="M99.28,-35.93C115.32,-32.48 133.95,-28.86 151,-26.5 276.51,-9.11 424.71,-7.4 508.79,-8.16"/>
<polygon fill="#63b8ff" stroke="#63b8ff" points="508.94,-11.66 518.97,-8.26 509.01,-4.66 508.94,-11.66"/>
</a>
</g>
</g>
<!-- Node3&#45;&gt;Node4 -->
<g id="edge3_Node000003_Node000004" class="edge">
<title>Node3&#45;&gt;Node4</title>
<g id="a_edge3_Node000003_Node000004"><a xlink:title=" ">
<path fill="none" stroke="#63b8ff" d="M266.36,-39.91C331.81,-33.49 439.18,-22.94 508.72,-16.11"/>
<polygon fill="#63b8ff" stroke="#63b8ff" points="509.09,-19.59 518.7,-15.13 508.41,-12.62 509.09,-19.59"/>
</a>
</g>
</g>
<!-- Node6 -->
<g id="Node000006" class="node">
<title>Node6</title>
<g id="a_Node000006"><a xlink:href="namespacecbrc_1_1binaryIO.html#afe8aa28482d86e6661288a70ba41858c" target="_top" xlink:title=" ">
<polygon fill="white" stroke="#666666" points="483,-74 302,-74 302,-55 483,-55 483,-74"/>
<text text-anchor="middle" x="392.5" y="-62" font-family="Helvetica,sans-Serif" font-size="10.00">cbrc::binaryIO::writeContentsOnly</text>
</a>
</g>
</g>
<!-- Node3&#45;&gt;Node6 -->
<g id="edge7_Node000003_Node000006" class="edge">
<title>Node3&#45;&gt;Node6</title>
<g id="a_edge7_Node000003_Node000006"><a xlink:title=" ">
<path fill="none" stroke="#63b8ff" d="M266.09,-51.41C274.35,-52.27 283.06,-53.18 291.88,-54.1"/>
<polygon fill="#63b8ff" stroke="#63b8ff" points="291.55,-57.58 301.86,-55.14 292.28,-50.62 291.55,-57.58"/>
</a>
</g>
</g>
<!-- Node4&#45;&gt;Node4 -->
<g id="edge6_Node000004_Node000004" class="edge">
<title>Node4&#45;&gt;Node4</title>
<g id="a_edge6_Node000004_Node000004"><a xlink:title=" ">
<path fill="none" stroke="#63b8ff" d="M553.57,-19.08C542.18,-27.73 549.98,-37 577,-37 594.73,-37 604.19,-33.01 605.37,-27.82"/>
<polygon fill="#63b8ff" stroke="#63b8ff" points="608.4,-26.06 600.43,-19.08 602.31,-29.51 608.4,-26.06"/>
</a>
</g>
</g>
<!-- Node5 -->
<g id="Node000005" class="node">
<title>Node5</title>
<g id="a_Node000005"><a xlink:href="classcbrc_1_1FLEArray.html#a8255bcefe055e10a4fccd3331b450fee" target="_top" xlink:title=" ">
<polygon fill="white" stroke="#666666" points="788,-28 671,-28 671,-9 788,-9 788,-28"/>
<text text-anchor="middle" x="729.5" y="-16" font-family="Helvetica,sans-Serif" font-size="10.00">cbrc::FLEArray::bsize</text>
</a>
</g>
</g>
<!-- Node4&#45;&gt;Node5 -->
<g id="edge4_Node000004_Node000005" class="edge">
<title>Node4&#45;&gt;Node5</title>
<g id="a_edge4_Node000004_Node000005"><a xlink:title=" ">
<path fill="none" stroke="#63b8ff" d="M635.33,-12.93C643.59,-13.42 652.17,-13.94 660.62,-14.44"/>
<polygon fill="#63b8ff" stroke="#63b8ff" points="660.64,-17.95 670.83,-15.05 661.06,-10.96 660.64,-17.95"/>
</a>
</g>
</g>
<!-- Node5&#45;&gt;Node2 -->
<g id="edge5_Node000005_Node000002" class="edge">
<title>Node5&#45;&gt;Node2</title>
<g id="a_edge5_Node000005_Node000002"><a xlink:title=" ">
<path fill="none" stroke="#63b8ff" d="M768.61,-28.03C787.44,-32.74 810.36,-38.47 830.39,-43.47"/>
<polygon fill="#63b8ff" stroke="#63b8ff" points="829.71,-46.91 840.26,-45.94 831.41,-40.12 829.71,-46.91"/>
</a>
</g>
</g>
<!-- Node6&#45;&gt;Node4 -->
<g id="edge10_Node000006_Node000004" class="edge">
<title>Node6&#45;&gt;Node4</title>
<g id="a_edge10_Node000006_Node000004"><a xlink:title=" ">
<path fill="none" stroke="#63b8ff" d="M431.09,-54.95C447.14,-50.74 466.05,-45.59 483,-40.5 501.67,-34.89 522.24,-28.1 539.29,-22.3"/>
<polygon fill="#63b8ff" stroke="#63b8ff" points="540.54,-25.57 548.87,-19.02 538.28,-18.95 540.54,-25.57"/>
</a>
</g>
</g>
<!-- Node7 -->
<g id="Node000007" class="node">
<title>Node7</title>
<g id="a_Node000007"><a xlink:href="namespacecbrc_1_1perlish.html#a27da775d330fc85aeb67ad7bc5e054d6" target="_top" xlink:title=" ">
<polygon fill="white" stroke="#666666" points="625.5,-74 528.5,-74 528.5,-55 625.5,-55 625.5,-74"/>
<text text-anchor="middle" x="577" y="-62" font-family="Helvetica,sans-Serif" font-size="10.00">cbrc::perlish::die</text>
</a>
</g>
</g>
<!-- Node6&#45;&gt;Node7 -->
<g id="edge8_Node000006_Node000007" class="edge">
<title>Node6&#45;&gt;Node7</title>
<g id="a_edge8_Node000006_Node000007"><a xlink:title=" ">
<path fill="none" stroke="#63b8ff" d="M483.15,-64.5C494.9,-64.5 506.68,-64.5 517.72,-64.5"/>
<polygon fill="#63b8ff" stroke="#63b8ff" points="518.05,-68 528.05,-64.5 518.05,-61 518.05,-68"/>
</a>
</g>
</g>
<!-- Node8 -->
<g id="Node000008" class="node">
<title>Node8</title>
<g id="a_Node000008"><a xlink:href="namespacecbrc.html#a0d70f74afe25a87ac43272ff476dcb48" target="_top" xlink:title=" ">
<polygon fill="white" stroke="#666666" points="769.5,-74 689.5,-74 689.5,-55 769.5,-55 769.5,-74"/>
<text text-anchor="middle" x="729.5" y="-62" font-family="Helvetica,sans-Serif" font-size="10.00">cbrc::gdbExit</text>
</a>
</g>
</g>
<!-- Node7&#45;&gt;Node8 -->
<g id="edge9_Node000007_Node000008" class="edge">
<title>Node7&#45;&gt;Node8</title>
<g id="a_edge9_Node000007_Node000008"><a xlink:title=" ">
<path fill="none" stroke="#63b8ff" d="M625.62,-64.5C642.59,-64.5 661.74,-64.5 678.88,-64.5"/>
<polygon fill="#63b8ff" stroke="#63b8ff" points="679.25,-68 689.25,-64.5 679.25,-61 679.25,-68"/>
</a>
</g>
</g>
</g>
</svg>
