<?xml version="1.0" encoding="UTF-8" standalone="no"?>
<!DOCTYPE svg PUBLIC "-//W3C//DTD SVG 1.1//EN"
 "http://www.w3.org/Graphics/SVG/1.1/DTD/svg11.dtd">
<!-- Generated by graphviz version 2.43.0 (0)
 -->
<!-- Title: cbrc::dumpNeighborList Pages: 1 -->
<svg width="1237pt" height="263pt"
 viewBox="0.00 0.00 1237.00 263.00" xmlns="http://www.w3.org/2000/svg" xmlns:xlink="http://www.w3.org/1999/xlink">
<g id="graph0" class="graph" transform="scale(1 1) rotate(0) translate(4 259)">
<title>cbrc::dumpNeighborList</title>
<!-- Node1 -->
<g id="Node000001" class="node">
<title>Node1</title>
<g id="a_Node000001"><a xlink:title=" ">
<polygon fill="#999999" stroke="#666666" points="132,-196 0,-196 0,-177 132,-177 132,-196"/>
<text text-anchor="middle" x="66" y="-184" font-family="Helvetica,sans-Serif" font-size="10.00">cbrc::dumpNeighborList</text>
</a>
</g>
</g>
<!-- Node2 -->
<g id="Node000002" class="node">
<title>Node2</title>
<g id="a_Node000002"><a xlink:href="classcbrc_1_1RecountNeighborList.html#a8c7237c3fda7b0a00c74f0530d92609c" target="_top" xlink:title=" ">
<polygon fill="white" stroke="#666666" points="329,-255 170,-255 170,-236 329,-236 329,-255"/>
<text text-anchor="middle" x="249.5" y="-243" font-family="Helvetica,sans-Serif" font-size="10.00">cbrc::RecountNeighborList::id</text>
</a>
</g>
</g>
<!-- Node1&#45;&gt;Node2 -->
<g id="edge1_Node000001_Node000002" class="edge">
<title>Node1&#45;&gt;Node2</title>
<g id="a_edge1_Node000001_Node000002"><a xlink:title=" ">
<path fill="none" stroke="#63b8ff" d="M87.52,-196.01C107.68,-205.06 139.46,-218.58 168,-227.5 174.95,-229.67 182.32,-231.69 189.67,-233.53"/>
<polygon fill="#63b8ff" stroke="#63b8ff" points="189.09,-236.99 199.63,-235.93 190.73,-230.19 189.09,-236.99"/>
</a>
</g>
</g>
<!-- Node3 -->
<g id="Node000003" class="node">
<title>Node3</title>
<g id="a_Node000003"><a xlink:href="classcbrc_1_1RecountTagIdProbPair.html#af25c6582ad213aa973cb5803fba4dc4b" target="_top" xlink:title=" ">
<polygon fill="white" stroke="#666666" points="331,-218 168,-218 168,-199 331,-199 331,-218"/>
<text text-anchor="middle" x="249.5" y="-206" font-family="Helvetica,sans-Serif" font-size="10.00">cbrc::RecountTagIdProbPair::id</text>
</a>
</g>
</g>
<!-- Node1&#45;&gt;Node3 -->
<g id="edge2_Node000001_Node000003" class="edge">
<title>Node1&#45;&gt;Node3</title>
<g id="a_edge2_Node000001_Node000003"><a xlink:title=" ">
<path fill="none" stroke="#63b8ff" d="M132.01,-194.38C141.05,-195.48 150.46,-196.62 159.84,-197.75"/>
<polygon fill="#63b8ff" stroke="#63b8ff" points="159.64,-201.25 169.99,-198.98 160.48,-194.31 159.64,-201.25"/>
</a>
</g>
</g>
<!-- Node4 -->
<g id="Node000004" class="node">
<title>Node4</title>
<g id="a_Node000004"><a xlink:href="classcbrc_1_1RecountTagIdProbPair.html#a148d8c7d6c942bc3501929ce6d5f2bfa" target="_top" xlink:title=" ">
<polygon fill="white" stroke="#666666" points="323.5,-180.5 175.5,-180.5 175.5,-150.5 323.5,-150.5 323.5,-180.5"/>
<text text-anchor="start" x="183.5" y="-168.5" font-family="Helvetica,sans-Serif" font-size="10.00">cbrc::RecountTagIdProbPair</text>
<text text-anchor="middle" x="249.5" y="-157.5" font-family="Helvetica,sans-Serif" font-size="10.00">::prob</text>
</a>
</g>
</g>
<!-- Node1&#45;&gt;Node4 -->
<g id="edge3_Node000001_Node000004" class="edge">
<title>Node1&#45;&gt;Node4</title>
<g id="a_edge3_Node000001_Node000004"><a xlink:title=" ">
<path fill="none" stroke="#63b8ff" d="M132.01,-178.98C142.76,-177.73 154.03,-176.43 165.15,-175.14"/>
<polygon fill="#63b8ff" stroke="#63b8ff" points="165.78,-178.59 175.31,-173.97 164.97,-171.64 165.78,-178.59"/>
</a>
</g>
</g>
<!-- Node5 -->
<g id="Node000005" class="node">
<title>Node5</title>
<g id="a_Node000005"><a xlink:href="classcbrc_1_1TagSet.html#a0ba2d925e4403f2092c7dda16c14d849" target="_top" xlink:title=" ">
<polygon fill="white" stroke="#666666" points="309,-114 190,-114 190,-95 309,-95 309,-114"/>
<text text-anchor="middle" x="249.5" y="-102" font-family="Helvetica,sans-Serif" font-size="10.00">cbrc::TagSet::toString</text>
</a>
</g>
</g>
<!-- Node1&#45;&gt;Node5 -->
<g id="edge4_Node000001_Node000005" class="edge">
<title>Node1&#45;&gt;Node5</title>
<g id="a_edge4_Node000001_Node000005"><a xlink:title=" ">
<path fill="none" stroke="#63b8ff" d="M88.18,-176.93C120.28,-162.43 181.42,-134.81 218.22,-118.18"/>
<polygon fill="#63b8ff" stroke="#63b8ff" points="219.79,-121.31 227.46,-114.01 216.91,-114.93 219.79,-121.31"/>
</a>
</g>
</g>
<!-- Node5&#45;&gt;Node5 -->
<g id="edge6_Node000005_Node000005" class="edge">
<title>Node5&#45;&gt;Node5</title>
<g id="a_edge6_Node000005_Node000005"><a xlink:title=" ">
<path fill="none" stroke="#63b8ff" d="M221.45,-114.08C207.8,-122.73 217.15,-132 249.5,-132 271.74,-132 283.11,-127.62 283.61,-122.07"/>
<polygon fill="#63b8ff" stroke="#63b8ff" points="286.38,-119.94 277.55,-114.08 280.8,-124.17 286.38,-119.94"/>
</a>
</g>
</g>
<!-- Node6 -->
<g id="Node000006" class="node">
<title>Node6</title>
<g id="a_Node000006"><a xlink:href="classcbrc_1_1TagSet.html#aefba617c77efd2a537a2ebba52e06678" target="_top" xlink:title=" ">
<polygon fill="white" stroke="#666666" points="493.5,-136 392.5,-136 392.5,-117 493.5,-117 493.5,-136"/>
<text text-anchor="middle" x="443" y="-124" font-family="Helvetica,sans-Serif" font-size="10.00">cbrc::TagSet::size</text>
</a>
</g>
</g>
<!-- Node5&#45;&gt;Node6 -->
<g id="edge5_Node000005_Node000006" class="edge">
<title>Node5&#45;&gt;Node6</title>
<g id="a_edge5_Node000005_Node000006"><a xlink:title=" ">
<path fill="none" stroke="#63b8ff" d="M309.26,-111.25C332.43,-113.91 359.03,-116.97 382.3,-119.64"/>
<polygon fill="#63b8ff" stroke="#63b8ff" points="382.05,-123.14 392.39,-120.8 382.85,-116.18 382.05,-123.14"/>
</a>
</g>
</g>
<!-- Node7 -->
<g id="Node000007" class="node">
<title>Node7</title>
<g id="a_Node000007"><a xlink:href="namespacecbrc_1_1sigma4bitPackingUtils.html#a9b1eae84102a8fcf18ac8ad21deba6bb" target="_top" xlink:title=" ">
<polygon fill="white" stroke="#666666" points="519,-98.5 367,-98.5 367,-68.5 519,-68.5 519,-98.5"/>
<text text-anchor="start" x="375" y="-86.5" font-family="Helvetica,sans-Serif" font-size="10.00">cbrc::sigma4bitPackingUtils</text>
<text text-anchor="middle" x="443" y="-75.5" font-family="Helvetica,sans-Serif" font-size="10.00">::toUnpacked</text>
</a>
</g>
</g>
<!-- Node5&#45;&gt;Node7 -->
<g id="edge7_Node000005_Node000007" class="edge">
<title>Node5&#45;&gt;Node7</title>
<g id="a_edge7_Node000005_Node000007"><a xlink:title=" ">
<path fill="none" stroke="#63b8ff" d="M309.26,-98.06C324.14,-96.42 340.43,-94.64 356.34,-92.89"/>
<polygon fill="#63b8ff" stroke="#63b8ff" points="357.17,-96.32 366.73,-91.75 356.41,-89.37 357.17,-96.32"/>
</a>
</g>
</g>
<!-- Node8 -->
<g id="Node000008" class="node">
<title>Node8</title>
<g id="a_Node000008"><a xlink:href="namespacecbrc_1_1sigma4bitPackingUtils.html#ac768f6a9aa4a25043b08fb0946b8a14a" target="_top" xlink:title=" ">
<polygon fill="white" stroke="#666666" points="707,-98.5 555,-98.5 555,-68.5 707,-68.5 707,-98.5"/>
<text text-anchor="start" x="563" y="-86.5" font-family="Helvetica,sans-Serif" font-size="10.00">cbrc::sigma4bitPackingUtils</text>
<text text-anchor="middle" x="631" y="-75.5" font-family="Helvetica,sans-Serif" font-size="10.00">::unpack</text>
</a>
</g>
</g>
<!-- Node7&#45;&gt;Node8 -->
<g id="edge8_Node000007_Node000008" class="edge">
<title>Node7&#45;&gt;Node8</title>
<g id="a_edge8_Node000007_Node000008"><a xlink:title=" ">
<path fill="none" stroke="#63b8ff" d="M519.12,-83.5C527.6,-83.5 536.28,-83.5 544.87,-83.5"/>
<polygon fill="#63b8ff" stroke="#63b8ff" points="544.9,-87 554.9,-83.5 544.9,-80 544.9,-87"/>
</a>
</g>
</g>
<!-- Node9 -->
<g id="Node000009" class="node">
<title>Node9</title>
<g id="a_Node000009"><a xlink:href="namespacecbrc_1_1sigma4bitPackingUtils.html#a8fa96777f42cebda95d8a41e87a5f6f3" target="_top" xlink:title=" ">
<polygon fill="white" stroke="#666666" points="895,-160.5 743,-160.5 743,-130.5 895,-130.5 895,-160.5"/>
<text text-anchor="start" x="751" y="-148.5" font-family="Helvetica,sans-Serif" font-size="10.00">cbrc::sigma4bitPackingUtils</text>
<text text-anchor="middle" x="819" y="-137.5" font-family="Helvetica,sans-Serif" font-size="10.00">::assignNthUnpacked</text>
</a>
</g>
</g>
<!-- Node8&#45;&gt;Node9 -->
<g id="edge9_Node000008_Node000009" class="edge">
<title>Node8&#45;&gt;Node9</title>
<g id="a_edge9_Node000008_Node000009"><a xlink:title=" ">
<path fill="none" stroke="#63b8ff" d="M675.16,-98.5C695.68,-105.57 720.57,-114.07 743,-121.5 748.65,-123.37 754.55,-125.3 760.46,-127.22"/>
<polygon fill="#63b8ff" stroke="#63b8ff" points="759.75,-130.67 770.34,-130.41 761.9,-124 759.75,-130.67"/>
</a>
</g>
</g>
<!-- Node10 -->
<g id="Node000010" class="node">
<title>Node10</title>
<g id="a_Node000010"><a xlink:href="classcbrc_1_1FLEArray.html#a7e5d0d3bc5c41546620ccff95b55b3fa" target="_top" xlink:title=" ">
<polygon fill="white" stroke="#666666" points="878.5,-112 759.5,-112 759.5,-93 878.5,-93 878.5,-112"/>
<text text-anchor="middle" x="819" y="-100" font-family="Helvetica,sans-Serif" font-size="10.00">cbrc::FLEArray::begin</text>
</a>
</g>
</g>
<!-- Node8&#45;&gt;Node10 -->
<g id="edge10_Node000008_Node000010" class="edge">
<title>Node8&#45;&gt;Node10</title>
<g id="a_edge10_Node000008_Node000010"><a xlink:title=" ">
<path fill="none" stroke="#63b8ff" d="M707.12,-91.17C721.02,-92.59 735.47,-94.07 749.17,-95.47"/>
<polygon fill="#63b8ff" stroke="#63b8ff" points="749.18,-98.99 759.48,-96.52 749.89,-92.02 749.18,-98.99"/>
</a>
</g>
</g>
<!-- Node11 -->
<g id="Node000011" class="node">
<title>Node11</title>
<g id="a_Node000011"><a xlink:href="classcbrc_1_1FLEArray.html#a8c53878dc57e8f666976e041d146a523" target="_top" xlink:title=" ">
<polygon fill="white" stroke="#666666" points="874,-75 764,-75 764,-56 874,-56 874,-75"/>
<text text-anchor="middle" x="819" y="-63" font-family="Helvetica,sans-Serif" font-size="10.00">cbrc::FLEArray::end</text>
</a>
</g>
</g>
<!-- Node8&#45;&gt;Node11 -->
<g id="edge11_Node000008_Node000011" class="edge">
<title>Node8&#45;&gt;Node11</title>
<g id="a_edge11_Node000008_Node000011"><a xlink:title=" ">
<path fill="none" stroke="#63b8ff" d="M707.12,-76.23C722.52,-74.74 738.6,-73.18 753.58,-71.73"/>
<polygon fill="#63b8ff" stroke="#63b8ff" points="754.14,-75.2 763.76,-70.75 753.47,-68.23 754.14,-75.2"/>
</a>
</g>
</g>
<!-- Node12 -->
<g id="Node000012" class="node">
<title>Node12</title>
<g id="a_Node000012"><a xlink:href="classcbrc_1_1FLEArray.html#ad003950bdededca7ee3b3dd6cd6ea644" target="_top" xlink:title=" ">
<polygon fill="white" stroke="#666666" points="879.5,-38 758.5,-38 758.5,-19 879.5,-19 879.5,-38"/>
<text text-anchor="middle" x="819" y="-26" font-family="Helvetica,sans-Serif" font-size="10.00">cbrc::FLEArray::resize</text>
</a>
</g>
</g>
<!-- Node8&#45;&gt;Node12 -->
<g id="edge12_Node000008_Node000012" class="edge">
<title>Node8&#45;&gt;Node12</title>
<g id="a_edge12_Node000008_Node000012"><a xlink:title=" ">
<path fill="none" stroke="#63b8ff" d="M676.09,-68.47C696.37,-61.74 720.81,-53.9 743,-47.5 751.16,-45.15 759.87,-42.79 768.36,-40.59"/>
<polygon fill="#63b8ff" stroke="#63b8ff" points="769.35,-43.95 778.17,-38.08 767.61,-37.17 769.35,-43.95"/>
</a>
</g>
</g>
<!-- Node13 -->
<g id="Node000013" class="node">
<title>Node13</title>
<g id="a_Node000013"><a xlink:href="classcbrc_1_1FLEArray.html#a5368c7c0434bd5c119d2cbb39f4b399e" target="_top" xlink:title=" ">
<polygon fill="white" stroke="#666666" points="1229,-56 1094,-56 1094,-37 1229,-37 1229,-56"/>
<text text-anchor="middle" x="1161.5" y="-44" font-family="Helvetica,sans-Serif" font-size="10.00">cbrc::FLEArray::FLEArray</text>
</a>
</g>
</g>
<!-- Node12&#45;&gt;Node13 -->
<g id="edge13_Node000012_Node000013" class="edge">
<title>Node12&#45;&gt;Node13</title>
<g id="a_edge13_Node000012_Node000013"><a xlink:title=" ">
<path fill="none" stroke="#63b8ff" d="M879.7,-31.66C936.43,-34.65 1022.02,-39.18 1083.78,-42.44"/>
<polygon fill="#63b8ff" stroke="#63b8ff" points="1083.7,-45.94 1093.87,-42.98 1084.07,-38.95 1083.7,-45.94"/>
</a>
</g>
</g>
<!-- Node14 -->
<g id="Node000014" class="node">
<title>Node14</title>
<g id="a_Node000014"><a xlink:href="classcbrc_1_1FLEArray.html#a5f10f892188c41f2821ef33ee9bcc743" target="_top" xlink:title=" ">
<polygon fill="white" stroke="#666666" points="1058,-19 931,-19 931,0 1058,0 1058,-19"/>
<text text-anchor="middle" x="994.5" y="-7" font-family="Helvetica,sans-Serif" font-size="10.00">cbrc::FLEArray::setSize</text>
</a>
</g>
</g>
<!-- Node12&#45;&gt;Node14 -->
<g id="edge15_Node000012_Node000014" class="edge">
<title>Node12&#45;&gt;Node14</title>
<g id="a_edge15_Node000012_Node000014"><a xlink:title=" ">
<path fill="none" stroke="#63b8ff" d="M879.71,-21.96C892.83,-20.52 906.87,-18.99 920.45,-17.5"/>
<polygon fill="#63b8ff" stroke="#63b8ff" points="921.17,-20.94 930.72,-16.37 920.4,-13.98 921.17,-20.94"/>
</a>
</g>
</g>
<!-- Node13&#45;&gt;Node13 -->
<g id="edge14_Node000013_Node000013" class="edge">
<title>Node13&#45;&gt;Node13</title>
<g id="a_edge14_Node000013_Node000013"><a xlink:title=" ">
<path fill="none" stroke="#63b8ff" d="M1135.91,-56.08C1123.47,-64.73 1132,-74 1161.5,-74 1180.86,-74 1191.19,-70.01 1192.49,-64.82"/>
<polygon fill="#63b8ff" stroke="#63b8ff" points="1195.32,-62.75 1187.09,-56.08 1189.37,-66.43 1195.32,-62.75"/>
</a>
</g>
</g>
<!-- Node14&#45;&gt;Node13 -->
<g id="edge16_Node000014_Node000013" class="edge">
<title>Node14&#45;&gt;Node13</title>
<g id="a_edge16_Node000014_Node000013"><a xlink:title=" ">
<path fill="none" stroke="#63b8ff" d="M1037.99,-19.03C1059.37,-23.82 1085.47,-29.68 1108.08,-34.75"/>
<polygon fill="#63b8ff" stroke="#63b8ff" points="1107.34,-38.17 1117.87,-36.94 1108.87,-31.34 1107.34,-38.17"/>
</a>
</g>
</g>
<!-- Node15 -->
<g id="Node000015" class="node">
<title>Node15</title>
<g id="a_Node000015"><a xlink:href="classcbrc_1_1FLEArray.html#ad71311380d762114c9e0f3b0dda38b7c" target="_top" xlink:title=" ">
<polygon fill="white" stroke="#666666" points="1217,-19 1106,-19 1106,0 1217,0 1217,-19"/>
<text text-anchor="middle" x="1161.5" y="-7" font-family="Helvetica,sans-Serif" font-size="10.00">cbrc::FLEArray::size</text>
</a>
</g>
</g>
<!-- Node14&#45;&gt;Node15 -->
<g id="edge17_Node000014_Node000015" class="edge">
<title>Node14&#45;&gt;Node15</title>
<g id="a_edge17_Node000014_Node000015"><a xlink:title=" ">
<path fill="none" stroke="#63b8ff" d="M1058.35,-9.5C1070.59,-9.5 1083.44,-9.5 1095.74,-9.5"/>
<polygon fill="#63b8ff" stroke="#63b8ff" points="1095.91,-13 1105.91,-9.5 1095.91,-6 1095.91,-13"/>
</a>
</g>
</g>
</g>
</svg>
