<?xml version="1.0" encoding="UTF-8" standalone="no"?>
<!DOCTYPE svg PUBLIC "-//W3C//DTD SVG 1.1//EN"
 "http://www.w3.org/Graphics/SVG/1.1/DTD/svg11.dtd">
<!-- Generated by graphviz version 2.43.0 (0)
 -->
<!-- Title: cbrc::perlish::chop Pages: 1 -->
<svg width="626pt" height="99pt"
 viewBox="0.00 0.00 626.00 98.50" xmlns="http://www.w3.org/2000/svg" xmlns:xlink="http://www.w3.org/1999/xlink">
<g id="graph0" class="graph" transform="scale(1 1) rotate(0) translate(4 94.5)">
<title>cbrc::perlish::chop</title>
<!-- Node1 -->
<g id="Node000001" class="node">
<title>Node1</title>
<g id="a_Node000001"><a xlink:title=" ">
<polygon fill="#999999" stroke="#666666" points="618,-48.5 513,-48.5 513,-29.5 618,-29.5 618,-48.5"/>
<text text-anchor="middle" x="565.5" y="-36.5" font-family="Helvetica,sans-Serif" font-size="10.00">cbrc::perlish::chop</text>
</a>
</g>
</g>
<!-- Node2 -->
<g id="Node000002" class="node">
<title>Node2</title>
<g id="a_Node000002"><a xlink:href="namespacecbrc_1_1perlish.html#a758811d0fca16439ad3644862718d7a1" target="_top" xlink:title=" ">
<polygon fill="white" stroke="#666666" points="477,-78 283,-78 283,-48 477,-48 477,-78"/>
<text text-anchor="start" x="291" y="-66" font-family="Helvetica,sans-Serif" font-size="10.00">cbrc::perlish::_split</text>
<text text-anchor="middle" x="380" y="-55" font-family="Helvetica,sans-Serif" font-size="10.00">_trailingPlusCharFoundAndRemoved</text>
</a>
</g>
</g>
<!-- Node1&#45;&gt;Node2 -->
<g id="edge1_Node000001_Node000002" class="edge">
<title>Node1&#45;&gt;Node2</title>
<g id="a_edge1_Node000001_Node000002"><a xlink:title=" ">
<path fill="none" stroke="#63b8ff" d="M502.92,-47.05C494.58,-48.15 485.86,-49.29 477.08,-50.43"/>
<polygon fill="#63b8ff" stroke="#63b8ff" points="503.44,-50.52 512.9,-45.75 502.53,-43.58 503.44,-50.52"/>
</a>
</g>
</g>
<!-- Node6 -->
<g id="Node000006" class="node">
<title>Node6</title>
<g id="a_Node000006"><a xlink:href="classcbrc_1_1SprotReader.html#a53ec59f37385fc380d98d0f26873f9c6" target="_top" xlink:title=" ">
<polygon fill="white" stroke="#666666" points="434.5,-30 325.5,-30 325.5,0 434.5,0 434.5,-30"/>
<text text-anchor="start" x="333.5" y="-18" font-family="Helvetica,sans-Serif" font-size="10.00">cbrc::SprotReader::</text>
<text text-anchor="middle" x="380" y="-7" font-family="Helvetica,sans-Serif" font-size="10.00">readRecord</text>
</a>
</g>
</g>
<!-- Node1&#45;&gt;Node6 -->
<g id="edge5_Node000001_Node000006" class="edge">
<title>Node1&#45;&gt;Node6</title>
<g id="a_edge5_Node000001_Node000006"><a xlink:title=" ">
<path fill="none" stroke="#63b8ff" d="M502.95,-30.95C480.87,-28.06 456.15,-24.83 434.77,-22.03"/>
<polygon fill="#63b8ff" stroke="#63b8ff" points="502.53,-34.42 512.9,-32.25 503.44,-27.48 502.53,-34.42"/>
</a>
</g>
</g>
<!-- Node3 -->
<g id="Node000003" class="node">
<title>Node3</title>
<g id="a_Node000003"><a xlink:href="namespacecbrc_1_1perlish.html#a16301d22b0d0ce6e7de8ca433e7a26d4" target="_top" xlink:title=" ">
<polygon fill="white" stroke="#666666" points="247,-90.5 139,-90.5 139,-71.5 247,-71.5 247,-90.5"/>
<text text-anchor="middle" x="193" y="-78.5" font-family="Helvetica,sans-Serif" font-size="10.00">cbrc::perlish::_split</text>
</a>
</g>
</g>
<!-- Node2&#45;&gt;Node3 -->
<g id="edge2_Node000002_Node000003" class="edge">
<title>Node2&#45;&gt;Node3</title>
<g id="a_edge2_Node000002_Node000003"><a xlink:title=" ">
<path fill="none" stroke="#63b8ff" d="M272.91,-73.32C264.04,-74.19 255.34,-75.03 247.15,-75.83"/>
<polygon fill="#63b8ff" stroke="#63b8ff" points="273.36,-76.79 282.98,-72.34 272.69,-69.83 273.36,-76.79"/>
</a>
</g>
</g>
<!-- Node5 -->
<g id="Node000005" class="node">
<title>Node5</title>
<g id="a_Node000005"><a xlink:href="namespacecbrc_1_1perlish.html#aa8224a10fd2772dc264f5fc4664624c3" target="_top" xlink:title=" ">
<polygon fill="white" stroke="#666666" points="244.5,-53.5 141.5,-53.5 141.5,-34.5 244.5,-34.5 244.5,-53.5"/>
<text text-anchor="middle" x="193" y="-41.5" font-family="Helvetica,sans-Serif" font-size="10.00">cbrc::perlish::split</text>
</a>
</g>
</g>
<!-- Node2&#45;&gt;Node5 -->
<g id="edge4_Node000002_Node000005" class="edge">
<title>Node2&#45;&gt;Node5</title>
<g id="a_edge4_Node000002_Node000005"><a xlink:title=" ">
<path fill="none" stroke="#63b8ff" d="M272.81,-52.09C263.1,-51.1 253.6,-50.12 244.75,-49.21"/>
<polygon fill="#63b8ff" stroke="#63b8ff" points="272.67,-55.6 282.98,-53.14 273.39,-48.63 272.67,-55.6"/>
</a>
</g>
</g>
<!-- Node4 -->
<g id="Node000004" class="node">
<title>Node4</title>
<g id="a_Node000004"><a xlink:href="namespacecbrc_1_1perlish.html#a0239063f56550ecc3e66fea8fa39f795" target="_top" xlink:title=" ">
<polygon fill="white" stroke="#666666" points="103,-90.5 0,-90.5 0,-71.5 103,-71.5 103,-90.5"/>
<text text-anchor="middle" x="51.5" y="-78.5" font-family="Helvetica,sans-Serif" font-size="10.00">cbrc::perlish::split</text>
</a>
</g>
</g>
<!-- Node3&#45;&gt;Node4 -->
<g id="edge3_Node000003_Node000004" class="edge">
<title>Node3&#45;&gt;Node4</title>
<g id="a_edge3_Node000003_Node000004"><a xlink:title=" ">
<path fill="none" stroke="#63b8ff" d="M128.86,-81C120.26,-81 111.53,-81 103.19,-81"/>
<polygon fill="#63b8ff" stroke="#63b8ff" points="128.86,-84.5 138.86,-81 128.86,-77.5 128.86,-84.5"/>
</a>
</g>
</g>
</g>
</svg>
