<?xml version="1.0" encoding="UTF-8" standalone="no"?>
<!DOCTYPE svg PUBLIC "-//W3C//DTD SVG 1.1//EN"
 "http://www.w3.org/Graphics/SVG/1.1/DTD/svg11.dtd">
<!-- Generated by graphviz version 2.43.0 (0)
 -->
<!-- Title: cbrc::perlish::_split_surroundingSquareBracketsFoundAndRemoved Pages: 1 -->
<svg width="675pt" height="159pt"
 viewBox="0.00 0.00 675.00 159.46" xmlns="http://www.w3.org/2000/svg" xmlns:xlink="http://www.w3.org/1999/xlink">
<g id="graph0" class="graph" transform="scale(1 1) rotate(0) translate(4 155.46)">
<title>cbrc::perlish::_split_surroundingSquareBracketsFoundAndRemoved</title>
<!-- Node1 -->
<g id="Node000001" class="node">
<title>Node1</title>
<g id="a_Node000001"><a xlink:title=" ">
<polygon fill="#999999" stroke="#666666" points="185,-49.46 0,-49.46 0,-8.46 185,-8.46 185,-49.46"/>
<text text-anchor="start" x="8" y="-37.46" font-family="Helvetica,sans-Serif" font-size="10.00">cbrc::perlish::_split</text>
<text text-anchor="start" x="8" y="-26.46" font-family="Helvetica,sans-Serif" font-size="10.00">_surroundingSquareBracketsFound</text>
<text text-anchor="middle" x="92.5" y="-15.46" font-family="Helvetica,sans-Serif" font-size="10.00">AndRemoved</text>
</a>
</g>
</g>
<!-- Node2 -->
<g id="Node000002" class="node">
<title>Node2</title>
<g id="a_Node000002"><a xlink:href="classcbrc_1_1FLEArray.html#a0a035b6ea365980182ea962f0185beb3" target="_top" xlink:title=" ">
<polygon fill="white" stroke="#666666" points="349,-85.46 221,-85.46 221,-66.46 349,-66.46 349,-85.46"/>
<text text-anchor="middle" x="285" y="-73.46" font-family="Helvetica,sans-Serif" font-size="10.00">cbrc::FLEArray::replace</text>
</a>
</g>
</g>
<!-- Node1&#45;&gt;Node2 -->
<g id="edge1_Node000001_Node000002" class="edge">
<title>Node1&#45;&gt;Node2</title>
<g id="a_edge1_Node000001_Node000002"><a xlink:title=" ">
<path fill="none" stroke="#63b8ff" d="M176.78,-49.51C196.7,-54.43 217.33,-59.51 235.11,-63.9"/>
<polygon fill="#63b8ff" stroke="#63b8ff" points="234.67,-67.4 245.22,-66.4 236.35,-60.6 234.67,-67.4"/>
</a>
</g>
</g>
<!-- Node4 -->
<g id="Node000004" class="node">
<title>Node4</title>
<g id="a_Node000004"><a xlink:href="classcbrc_1_1FLEArray.html#ad71311380d762114c9e0f3b0dda38b7c" target="_top" xlink:title=" ">
<polygon fill="white" stroke="#666666" points="667,-113.46 556,-113.46 556,-94.46 667,-94.46 667,-113.46"/>
<text text-anchor="middle" x="611.5" y="-101.46" font-family="Helvetica,sans-Serif" font-size="10.00">cbrc::FLEArray::size</text>
</a>
</g>
</g>
<!-- Node1&#45;&gt;Node4 -->
<g id="edge7_Node000001_Node000004" class="edge">
<title>Node1&#45;&gt;Node4</title>
<g id="a_edge7_Node000001_Node000004"><a xlink:title=" ">
<path fill="none" stroke="#63b8ff" d="M185.19,-11.46C273.71,1.44 410.12,10.65 520,-28.96 551.63,-40.37 580.03,-68.16 596.26,-86.52"/>
<polygon fill="#63b8ff" stroke="#63b8ff" points="593.67,-88.88 602.83,-94.2 598.99,-84.33 593.67,-88.88"/>
</a>
</g>
</g>
<!-- Node3 -->
<g id="Node000003" class="node">
<title>Node3</title>
<g id="a_Node000003"><a xlink:href="classcbrc_1_1FLEArray.html#a8255bcefe055e10a4fccd3331b450fee" target="_top" xlink:title=" ">
<polygon fill="white" stroke="#666666" points="511,-151.46 394,-151.46 394,-132.46 511,-132.46 511,-151.46"/>
<text text-anchor="middle" x="452.5" y="-139.46" font-family="Helvetica,sans-Serif" font-size="10.00">cbrc::FLEArray::bsize</text>
</a>
</g>
</g>
<!-- Node2&#45;&gt;Node3 -->
<g id="edge2_Node000002_Node000003" class="edge">
<title>Node2&#45;&gt;Node3</title>
<g id="a_edge2_Node000002_Node000003"><a xlink:title=" ">
<path fill="none" stroke="#63b8ff" d="M307.49,-85.48C327.45,-94.23 358.06,-107.4 385,-117.96 394.41,-121.66 404.66,-125.46 414.22,-128.92"/>
<polygon fill="#63b8ff" stroke="#63b8ff" points="413.28,-132.3 423.87,-132.38 415.64,-125.71 413.28,-132.3"/>
</a>
</g>
</g>
<!-- Node2&#45;&gt;Node4 -->
<g id="edge6_Node000002_Node000004" class="edge">
<title>Node2&#45;&gt;Node4</title>
<g id="a_edge6_Node000002_Node000004"><a xlink:title=" ">
<path fill="none" stroke="#63b8ff" d="M349.34,-81.43C406.06,-86.32 488.87,-93.47 545.95,-98.4"/>
<polygon fill="#63b8ff" stroke="#63b8ff" points="545.68,-101.88 555.95,-99.26 546.29,-94.91 545.68,-101.88"/>
</a>
</g>
</g>
<!-- Node5 -->
<g id="Node000005" class="node">
<title>Node5</title>
<g id="a_Node000005"><a xlink:href="classcbrc_1_1FLEArray.html#a5368c7c0434bd5c119d2cbb39f4b399e" target="_top" xlink:title=" ">
<polygon fill="white" stroke="#666666" points="520,-57.46 385,-57.46 385,-38.46 520,-38.46 520,-57.46"/>
<text text-anchor="middle" x="452.5" y="-45.46" font-family="Helvetica,sans-Serif" font-size="10.00">cbrc::FLEArray::FLEArray</text>
</a>
</g>
</g>
<!-- Node2&#45;&gt;Node5 -->
<g id="edge4_Node000002_Node000005" class="edge">
<title>Node2&#45;&gt;Node5</title>
<g id="a_edge4_Node000002_Node000005"><a xlink:title=" ">
<path fill="none" stroke="#63b8ff" d="M342.49,-66.41C356.21,-64.09 370.99,-61.58 385.12,-59.2"/>
<polygon fill="#63b8ff" stroke="#63b8ff" points="385.99,-62.6 395.26,-57.48 384.82,-55.7 385.99,-62.6"/>
</a>
</g>
</g>
<!-- Node3&#45;&gt;Node4 -->
<g id="edge3_Node000003_Node000004" class="edge">
<title>Node3&#45;&gt;Node4</title>
<g id="a_edge3_Node000003_Node000004"><a xlink:title=" ">
<path fill="none" stroke="#63b8ff" d="M493.12,-132.38C513.84,-127.36 539.39,-121.18 561.36,-115.86"/>
<polygon fill="#63b8ff" stroke="#63b8ff" points="562.27,-119.24 571.17,-113.48 560.62,-112.44 562.27,-119.24"/>
</a>
</g>
</g>
<!-- Node5&#45;&gt;Node5 -->
<g id="edge5_Node000005_Node000005" class="edge">
<title>Node5&#45;&gt;Node5</title>
<g id="a_edge5_Node000005_Node000005"><a xlink:title=" ">
<path fill="none" stroke="#63b8ff" d="M428.15,-57.55C416.3,-66.2 424.42,-75.46 452.5,-75.46 470.93,-75.46 480.76,-71.47 481.99,-66.29"/>
<polygon fill="#63b8ff" stroke="#63b8ff" points="484.94,-64.39 476.85,-57.55 478.91,-67.94 484.94,-64.39"/>
</a>
</g>
</g>
</g>
</svg>
