<?xml version="1.0" encoding="UTF-8" standalone="no"?>
<!DOCTYPE svg PUBLIC "-//W3C//DTD SVG 1.1//EN"
 "http://www.w3.org/Graphics/SVG/1.1/DTD/svg11.dtd">
<!-- Generated by graphviz version 2.43.0 (0)
 -->
<!-- Title: cbrc::hasHighIdentityToDataset Pages: 1 -->
<svg width="559pt" height="94pt"
 viewBox="0.00 0.00 559.00 93.50" xmlns="http://www.w3.org/2000/svg" xmlns:xlink="http://www.w3.org/1999/xlink">
<g id="graph0" class="graph" transform="scale(1 1) rotate(0) translate(4 89.5)">
<title>cbrc::hasHighIdentityToDataset</title>
<!-- Node1 -->
<g id="Node000001" class="node">
<title>Node1</title>
<g id="a_Node000001"><a xlink:title=" ">
<polygon fill="#999999" stroke="#666666" points="169,-40 0,-40 0,-21 169,-21 169,-40"/>
<text text-anchor="middle" x="84.5" y="-28" font-family="Helvetica,sans-Serif" font-size="10.00">cbrc::hasHighIdentityToDataset</text>
</a>
</g>
</g>
<!-- Node2 -->
<g id="Node000002" class="node">
<title>Node2</title>
<g id="a_Node000002"><a xlink:href="classcbrc_1_1SeqGlobalAffineAligner.html#ae580a1caa6408968a25a6df33815d9bb" target="_top" xlink:title=" ">
<polygon fill="white" stroke="#666666" points="360,-67.5 205,-67.5 205,-37.5 360,-37.5 360,-67.5"/>
<text text-anchor="start" x="213" y="-55.5" font-family="Helvetica,sans-Serif" font-size="10.00">cbrc::SeqGlobalAffineAligner</text>
<text text-anchor="middle" x="282.5" y="-44.5" font-family="Helvetica,sans-Serif" font-size="10.00">::bestPossibleSuffixScore</text>
</a>
</g>
</g>
<!-- Node1&#45;&gt;Node2 -->
<g id="edge1_Node000001_Node000002" class="edge">
<title>Node1&#45;&gt;Node2</title>
<g id="a_edge1_Node000001_Node000002"><a xlink:title=" ">
<path fill="none" stroke="#63b8ff" d="M169.19,-39.89C177.72,-40.85 186.39,-41.82 194.94,-42.78"/>
<polygon fill="#63b8ff" stroke="#63b8ff" points="194.59,-46.27 204.92,-43.9 195.37,-39.31 194.59,-46.27"/>
</a>
</g>
</g>
<!-- Node4 -->
<g id="Node000004" class="node">
<title>Node4</title>
<g id="a_Node000004"><a xlink:href="classcbrc_1_1FLEArray.html#ad71311380d762114c9e0f3b0dda38b7c" target="_top" xlink:title=" ">
<polygon fill="white" stroke="#666666" points="529,-19 418,-19 418,0 529,0 529,-19"/>
<text text-anchor="middle" x="473.5" y="-7" font-family="Helvetica,sans-Serif" font-size="10.00">cbrc::FLEArray::size</text>
</a>
</g>
</g>
<!-- Node1&#45;&gt;Node4 -->
<g id="edge5_Node000001_Node000004" class="edge">
<title>Node1&#45;&gt;Node4</title>
<g id="a_edge5_Node000001_Node000004"><a xlink:title=" ">
<path fill="none" stroke="#63b8ff" d="M169.47,-25.94C241.01,-22.06 342.32,-16.56 407.72,-13.02"/>
<polygon fill="#63b8ff" stroke="#63b8ff" points="408.11,-16.5 417.9,-12.46 407.73,-9.51 408.11,-16.5"/>
</a>
</g>
</g>
<!-- Node2&#45;&gt;Node2 -->
<g id="edge2_Node000002_Node000002" class="edge">
<title>Node2&#45;&gt;Node2</title>
<g id="a_edge2_Node000002_Node000002"><a xlink:title=" ">
<path fill="none" stroke="#63b8ff" d="M249.1,-67.78C241.68,-76.91 252.81,-85.5 282.5,-85.5 300.13,-85.5 311.21,-82.47 315.76,-78.1"/>
<polygon fill="#63b8ff" stroke="#63b8ff" points="319.26,-77.82 315.9,-67.78 312.26,-77.73 319.26,-77.82"/>
</a>
</g>
</g>
<!-- Node3 -->
<g id="Node000003" class="node">
<title>Node3</title>
<g id="a_Node000003"><a xlink:href="classcbrc_1_1SeqGlobalAffineAligner.html#abfd1556484b4c230c84fe4d1af47003e" target="_top" xlink:title=" ">
<polygon fill="white" stroke="#666666" points="551,-67.5 396,-67.5 396,-37.5 551,-37.5 551,-67.5"/>
<text text-anchor="start" x="404" y="-55.5" font-family="Helvetica,sans-Serif" font-size="10.00">cbrc::SeqGlobalAffineAligner</text>
<text text-anchor="middle" x="473.5" y="-44.5" font-family="Helvetica,sans-Serif" font-size="10.00">::resSubScore</text>
</a>
</g>
</g>
<!-- Node2&#45;&gt;Node3 -->
<g id="edge3_Node000002_Node000003" class="edge">
<title>Node2&#45;&gt;Node3</title>
<g id="a_edge3_Node000002_Node000003"><a xlink:title=" ">
<path fill="none" stroke="#63b8ff" d="M360.1,-52.5C368.56,-52.5 377.22,-52.5 385.79,-52.5"/>
<polygon fill="#63b8ff" stroke="#63b8ff" points="385.79,-56 395.79,-52.5 385.79,-49 385.79,-56"/>
</a>
</g>
</g>
<!-- Node2&#45;&gt;Node4 -->
<g id="edge4_Node000002_Node000004" class="edge">
<title>Node2&#45;&gt;Node4</title>
<g id="a_edge4_Node000002_Node000004"><a xlink:title=" ">
<path fill="none" stroke="#63b8ff" d="M349.6,-37.46C372.96,-32.15 398.86,-26.25 420.85,-21.25"/>
<polygon fill="#63b8ff" stroke="#63b8ff" points="421.67,-24.65 430.65,-19.02 420.12,-17.83 421.67,-24.65"/>
</a>
</g>
</g>
</g>
</svg>
