<?xml version="1.0" encoding="UTF-8" standalone="no"?>
<!DOCTYPE svg PUBLIC "-//W3C//DTD SVG 1.1//EN"
 "http://www.w3.org/Graphics/SVG/1.1/DTD/svg11.dtd">
<!-- Generated by graphviz version 2.43.0 (0)
 -->
<!-- Title: cbrc::sprotGrepOC Pages: 1 -->
<svg width="631pt" height="82pt"
 viewBox="0.00 0.00 631.00 82.00" xmlns="http://www.w3.org/2000/svg" xmlns:xlink="http://www.w3.org/1999/xlink">
<g id="graph0" class="graph" transform="scale(1 1) rotate(0) translate(4 78)">
<title>cbrc::sprotGrepOC</title>
<!-- Node1 -->
<g id="Node000001" class="node">
<title>Node1</title>
<g id="a_Node000001"><a xlink:title=" ">
<polygon fill="#999999" stroke="#666666" points="105,-38 0,-38 0,-19 105,-19 105,-38"/>
<text text-anchor="middle" x="52.5" y="-26" font-family="Helvetica,sans-Serif" font-size="10.00">cbrc::sprotGrepOC</text>
</a>
</g>
</g>
<!-- Node2 -->
<g id="Node000002" class="node">
<title>Node2</title>
<g id="a_Node000002"><a xlink:href="classcbrc_1_1FLEArray.html#a3eba8d1c247ebc9ed3219dd2a3614252" target="_top" xlink:title=" ">
<polygon fill="white" stroke="#666666" points="251,-38 141,-38 141,-19 251,-19 251,-38"/>
<text text-anchor="middle" x="196" y="-26" font-family="Helvetica,sans-Serif" font-size="10.00">cbrc::FLEArray::find</text>
</a>
</g>
</g>
<!-- Node1&#45;&gt;Node2 -->
<g id="edge1_Node000001_Node000002" class="edge">
<title>Node1&#45;&gt;Node2</title>
<g id="a_edge1_Node000001_Node000002"><a xlink:title=" ">
<path fill="none" stroke="#63b8ff" d="M105.39,-28.5C113.57,-28.5 122.12,-28.5 130.55,-28.5"/>
<polygon fill="#63b8ff" stroke="#63b8ff" points="130.74,-32 140.74,-28.5 130.74,-25 130.74,-32"/>
</a>
</g>
</g>
<!-- Node3 -->
<g id="Node000003" class="node">
<title>Node3</title>
<g id="a_Node000003"><a xlink:href="classcbrc_1_1FLEArray.html#a985e9e85d6fc6adf9d3c52a0306361a4" target="_top" xlink:title=" ">
<polygon fill="white" stroke="#666666" points="439,-57 287,-57 287,-38 439,-38 439,-57"/>
<text text-anchor="middle" x="363" y="-45" font-family="Helvetica,sans-Serif" font-size="10.00">cbrc::FLEArray::_validRange</text>
</a>
</g>
</g>
<!-- Node2&#45;&gt;Node3 -->
<g id="edge2_Node000002_Node000003" class="edge">
<title>Node2&#45;&gt;Node3</title>
<g id="a_edge2_Node000002_Node000003"><a xlink:title=" ">
<path fill="none" stroke="#63b8ff" d="M251.03,-34.72C259.36,-35.68 268.13,-36.69 276.94,-37.71"/>
<polygon fill="#63b8ff" stroke="#63b8ff" points="276.55,-41.18 286.89,-38.85 277.35,-34.23 276.55,-41.18"/>
</a>
</g>
</g>
<!-- Node5 -->
<g id="Node000005" class="node">
<title>Node5</title>
<g id="a_Node000005"><a xlink:href="classcbrc_1_1FLEArray.html#a5368c7c0434bd5c119d2cbb39f4b399e" target="_top" xlink:title=" ">
<polygon fill="white" stroke="#666666" points="616.5,-19 481.5,-19 481.5,0 616.5,0 616.5,-19"/>
<text text-anchor="middle" x="549" y="-7" font-family="Helvetica,sans-Serif" font-size="10.00">cbrc::FLEArray::FLEArray</text>
</a>
</g>
</g>
<!-- Node2&#45;&gt;Node5 -->
<g id="edge6_Node000002_Node000005" class="edge">
<title>Node2&#45;&gt;Node5</title>
<g id="a_edge6_Node000002_Node000005"><a xlink:title=" ">
<path fill="none" stroke="#63b8ff" d="M251.07,-25.57C309.97,-22.38 404.66,-17.26 471.24,-13.66"/>
<polygon fill="#63b8ff" stroke="#63b8ff" points="471.46,-17.15 481.26,-13.11 471.09,-10.16 471.46,-17.15"/>
</a>
</g>
</g>
<!-- Node4 -->
<g id="Node000004" class="node">
<title>Node4</title>
<g id="a_Node000004"><a xlink:href="classcbrc_1_1FLEArray.html#a0a06120b85cf875ccff4081918fe0f33" target="_top" xlink:title=" ">
<polygon fill="white" stroke="#666666" points="623,-74 475,-74 475,-55 623,-55 623,-74"/>
<text text-anchor="middle" x="549" y="-62" font-family="Helvetica,sans-Serif" font-size="10.00">cbrc::FLEArray::_validIndex</text>
</a>
</g>
</g>
<!-- Node3&#45;&gt;Node4 -->
<g id="edge3_Node000003_Node000004" class="edge">
<title>Node3&#45;&gt;Node4</title>
<g id="a_edge3_Node000003_Node000004"><a xlink:title=" ">
<path fill="none" stroke="#63b8ff" d="M439.11,-54.44C447.6,-55.22 456.3,-56.03 464.9,-56.82"/>
<polygon fill="#63b8ff" stroke="#63b8ff" points="464.64,-60.31 474.92,-57.75 465.28,-53.34 464.64,-60.31"/>
</a>
</g>
</g>
<!-- Node3&#45;&gt;Node5 -->
<g id="edge4_Node000003_Node000005" class="edge">
<title>Node3&#45;&gt;Node5</title>
<g id="a_edge4_Node000003_Node000005"><a xlink:title=" ">
<path fill="none" stroke="#63b8ff" d="M410.43,-37.91C435.15,-32.81 465.74,-26.49 491.79,-21.11"/>
<polygon fill="#63b8ff" stroke="#63b8ff" points="492.82,-24.47 501.9,-19.02 491.4,-17.61 492.82,-24.47"/>
</a>
</g>
</g>
<!-- Node5&#45;&gt;Node5 -->
<g id="edge5_Node000005_Node000005" class="edge">
<title>Node5&#45;&gt;Node5</title>
<g id="a_edge5_Node000005_Node000005"><a xlink:title=" ">
<path fill="none" stroke="#63b8ff" d="M520.33,-19.08C506.39,-27.73 515.94,-37 549,-37 571.73,-37 583.35,-32.62 583.86,-27.07"/>
<polygon fill="#63b8ff" stroke="#63b8ff" points="586.56,-24.84 577.67,-19.08 581.03,-29.13 586.56,-24.84"/>
</a>
</g>
</g>
</g>
</svg>
