<?xml version="1.0" encoding="UTF-8" standalone="no"?>
<!DOCTYPE svg PUBLIC "-//W3C//DTD SVG 1.1//EN"
 "http://www.w3.org/Graphics/SVG/1.1/DTD/svg11.dtd">
<!-- Generated by graphviz version 2.43.0 (0)
 -->
<!-- Title: cbrc::smoothing::monotonicSmoothY Pages: 1 -->
<!--zoomable 259 -->

<svg id="main" version="1.1" xmlns="http://www.w3.org/2000/svg" xmlns:xlink="http://www.w3.org/1999/xlink" xml:space="preserve" onload="init(evt)">
<style type="text/css"><![CDATA[
.node, .edge {opacity: 0.7;}
.node.selected, .edge.selected {opacity: 1;}
.edge:hover path { stroke: red; }
.edge:hover polygon { stroke: red; fill: red; }
]]></style>

<defs>
  <circle id="rim" cx="0" cy="0" r="7"/>
  <circle id="rim2" cx="0" cy="0" r="3.5"/>
  <g id="zoomPlus">
    <use xlink:href="#rim" fill="#404040"><set attributeName="fill" to="#808080" begin="zoomplus.mouseover" end="zoomplus.mouseout"/></use>
    <path d="M-4,0h8M0,-4v8" fill="none" stroke="white" stroke-width="1.5" pointer-events="none"/>
  </g>
  <g id="zoomMin">
    <use xlink:href="#rim" fill="#404040"><set attributeName="fill" to="#808080" begin="zoomminus.mouseover" end="zoomminus.mouseout"/></use>
    <path d="M-4,0h8" fill="none" stroke="white" stroke-width="1.5" pointer-events="none"/>
  </g>
  <g id="arrowUp" transform="translate(30 24)">
    <use xlink:href="#rim"/>
    <path pointer-events="none" fill="none" stroke="white" stroke-width="1.5" d="M0,-3.0v7 M-2.5,-0.5L0,-3.0L2.5,-0.5"/>
  </g>
  <g id="arrowRight" transform="rotate(90) translate(36 -43)">
    <use xlink:href="#rim"/>
    <path pointer-events="none" fill="none" stroke="white" stroke-width="1.5" d="M0,-3.0v7 M-2.5,-0.5L0,-3.0L2.5,-0.5"/>
  </g>
  <g id="arrowDown" transform="rotate(180) translate(-30 -48)">
    <use xlink:href="#rim"/>
    <path pointer-events="none" fill="none" stroke="white" stroke-width="1.5" d="M0,-3.0v7 M-2.5,-0.5L0,-3.0L2.5,-0.5"/>
  </g>
  <g id="arrowLeft" transform="rotate(270) translate(-36 17)">
    <use xlink:href="#rim"/>
    <path pointer-events="none" fill="none" stroke="white" stroke-width="1.5" d="M0,-3.0v7 M-2.5,-0.5L0,-3.0L2.5,-0.5"/>
  </g>
  <g id="resetDef">
    <use xlink:href="#rim2" fill="#404040"><set attributeName="fill" to="#808080" begin="reset.mouseover" end="reset.mouseout"/></use>
  </g>
</defs>
<script type="application/ecmascript">
var viewWidth = 752;
var viewHeight = 259;
var sectionId = 'dynsection-7';
</script>
<script type="application/ecmascript" xlink:href="svg.min.js"/>
<svg id="graph" class="graph">
<g id="viewport">
<title>cbrc::smoothing::monotonicSmoothY</title>
<!-- Node1 -->
<g id="Node000001" class="node">
<title>Node1</title>
<g id="a_Node000001"><a xlink:title=" ">
<polygon fill="#999999" stroke="#666666" points="152,-145 0,-145 0,-115 152,-115 152,-145"/>
<text text-anchor="start" x="8" y="-133" font-family="Helvetica,sans-Serif" font-size="10.00">cbrc::smoothing::monotonic</text>
<text text-anchor="middle" x="76" y="-122" font-family="Helvetica,sans-Serif" font-size="10.00">SmoothY</text>
</a>
</g>
</g>
<!-- Node2 -->
<g id="Node000002" class="node">
<title>Node2</title>
<g id="a_Node000002"><a xlink:href="namespacecbrc_1_1smoothing.html#ac1ab7e34716884166d35b735e16b93d6" target="_top" xlink:title=" ">
<polygon fill="white" stroke="#666666" points="597,-217.5 416,-217.5 416,-176.5 597,-176.5 597,-217.5"/>
<text text-anchor="start" x="424" y="-205.5" font-family="Helvetica,sans-Serif" font-size="10.00">cbrc::smoothing::average</text>
<text text-anchor="start" x="424" y="-194.5" font-family="Helvetica,sans-Serif" font-size="10.00">YCoordinateOfPointIWithNeighbor</text>
<text text-anchor="middle" x="506.5" y="-183.5" font-family="Helvetica,sans-Serif" font-size="10.00">PointUntilMinSampleSizeAttained</text>
</a>
</g>
</g>
<!-- Node1&#45;&gt;Node2 -->
<g id="edge1_Node000001_Node000002" class="edge">
<title>Node1&#45;&gt;Node2</title>
<g id="a_edge1_Node000001_Node000002"><a xlink:title=" ">
<path fill="none" stroke="#63b8ff" d="M101.48,-145.24C123.28,-157.92 156.51,-175.13 188,-183 259.24,-200.8 342.23,-203.87 405.48,-202.72"/>
<polygon fill="#63b8ff" stroke="#63b8ff" points="405.94,-206.21 415.86,-202.49 405.78,-199.22 405.94,-206.21"/>
</a>
</g>
</g>
<!-- Node3 -->
<g id="Node000003" class="node">
<title>Node3</title>
<g id="a_Node000003"><a xlink:href="classcbrc_1_1FLEArray.html#ad71311380d762114c9e0f3b0dda38b7c" target="_top" xlink:title=" ">
<polygon fill="white" stroke="#666666" points="744,-206.5 633,-206.5 633,-187.5 744,-187.5 744,-206.5"/>
<text text-anchor="middle" x="688.5" y="-194.5" font-family="Helvetica,sans-Serif" font-size="10.00">cbrc::FLEArray::size</text>
</a>
</g>
</g>
<!-- Node1&#45;&gt;Node3 -->
<g id="edge8_Node000001_Node000003" class="edge">
<title>Node1&#45;&gt;Node3</title>
<g id="a_edge8_Node000001_Node000003"><a xlink:title=" ">
<path fill="none" stroke="#63b8ff" d="M93.11,-145.32C113.43,-163.59 150.28,-193.36 188,-207 359.15,-268.89 417.33,-256 597,-227 617.08,-223.76 638.74,-216.72 655.83,-210.27"/>
<polygon fill="#63b8ff" stroke="#63b8ff" points="657.27,-213.46 665.32,-206.58 654.73,-206.94 657.27,-213.46"/>
</a>
</g>
</g>
<!-- Node4 -->
<g id="Node000004" class="node">
<title>Node4</title>
<g id="a_Node000004"><a xlink:href="namespacecbrc_1_1smoothing.html#aff57ef2038f4bff5e44f4060dbc89cf0" target="_top" xlink:title=" ">
<polygon fill="white" stroke="#666666" points="380,-174.5 188,-174.5 188,-133.5 380,-133.5 380,-174.5"/>
<text text-anchor="start" x="196" y="-162.5" font-family="Helvetica,sans-Serif" font-size="10.00">cbrc::smoothing::average</text>
<text text-anchor="start" x="196" y="-151.5" font-family="Helvetica,sans-Serif" font-size="10.00">YCoordinatesWithNeighboringPoints</text>
<text text-anchor="middle" x="284" y="-140.5" font-family="Helvetica,sans-Serif" font-size="10.00">UntilMinSampleSizeAttained</text>
</a>
</g>
</g>
<!-- Node1&#45;&gt;Node4 -->
<g id="edge3_Node000001_Node000004" class="edge">
<title>Node1&#45;&gt;Node4</title>
<g id="a_edge3_Node000001_Node000004"><a xlink:title=" ">
<path fill="none" stroke="#63b8ff" d="M152.25,-138.77C160.59,-139.74 169.19,-140.74 177.82,-141.75"/>
<polygon fill="#63b8ff" stroke="#63b8ff" points="177.61,-145.24 187.94,-142.93 178.42,-138.29 177.61,-145.24"/>
</a>
</g>
</g>
<!-- Node5 -->
<g id="Node000005" class="node">
<title>Node5</title>
<g id="a_Node000005"><a xlink:href="classcbrc_1_1FLEArray.html#a8c53878dc57e8f666976e041d146a523" target="_top" xlink:title=" ">
<polygon fill="white" stroke="#666666" points="339,-115.5 229,-115.5 229,-96.5 339,-96.5 339,-115.5"/>
<text text-anchor="middle" x="284" y="-103.5" font-family="Helvetica,sans-Serif" font-size="10.00">cbrc::FLEArray::end</text>
</a>
</g>
</g>
<!-- Node1&#45;&gt;Node5 -->
<g id="edge6_Node000001_Node000005" class="edge">
<title>Node1&#45;&gt;Node5</title>
<g id="a_edge6_Node000001_Node000005"><a xlink:title=" ">
<path fill="none" stroke="#63b8ff" d="M152.25,-121.23C174.07,-118.69 197.7,-115.94 218.79,-113.48"/>
<polygon fill="#63b8ff" stroke="#63b8ff" points="219.39,-116.94 228.91,-112.3 218.58,-109.98 219.39,-116.94"/>
</a>
</g>
</g>
<!-- Node6 -->
<g id="Node000006" class="node">
<title>Node6</title>
<g id="a_Node000006"><a xlink:href="classcbrc_1_1WeightedPoint2D.html#a40bc244a9b5f51bf9810c22760241214" target="_top" xlink:title=" ">
<polygon fill="white" stroke="#666666" points="347.5,-78 220.5,-78 220.5,-48 347.5,-48 347.5,-78"/>
<text text-anchor="start" x="228.5" y="-66" font-family="Helvetica,sans-Serif" font-size="10.00">cbrc::WeightedPoint2D</text>
<text text-anchor="middle" x="284" y="-55" font-family="Helvetica,sans-Serif" font-size="10.00">::nonFinite</text>
</a>
</g>
</g>
<!-- Node1&#45;&gt;Node6 -->
<g id="edge7_Node000001_Node000006" class="edge">
<title>Node1&#45;&gt;Node6</title>
<g id="a_edge7_Node000001_Node000006"><a xlink:title=" ">
<path fill="none" stroke="#63b8ff" d="M112.6,-114.93C134.18,-106.12 162.4,-95.16 188,-87 195.29,-84.68 202.96,-82.43 210.64,-80.3"/>
<polygon fill="#63b8ff" stroke="#63b8ff" points="211.61,-83.66 220.35,-77.67 209.78,-76.9 211.61,-83.66"/>
</a>
</g>
</g>
<!-- Node7 -->
<g id="Node000007" class="node">
<title>Node7</title>
<g id="a_Node000007"><a xlink:href="classcbrc_1_1WeightedPoint2D.html#a9e020ea23a4d774a35fe4d4eb50d4c0b" target="_top" xlink:title=" ">
<polygon fill="white" stroke="#666666" points="347.5,-30 220.5,-30 220.5,0 347.5,0 347.5,-30"/>
<text text-anchor="start" x="228.5" y="-18" font-family="Helvetica,sans-Serif" font-size="10.00">cbrc::WeightedPoint2D</text>
<text text-anchor="middle" x="284" y="-7" font-family="Helvetica,sans-Serif" font-size="10.00">::xLess</text>
</a>
</g>
</g>
<!-- Node1&#45;&gt;Node7 -->
<g id="edge9_Node000001_Node000007" class="edge">
<title>Node1&#45;&gt;Node7</title>
<g id="a_edge9_Node000001_Node000007"><a xlink:title=" ">
<path fill="none" stroke="#63b8ff" d="M91.27,-114.68C111.06,-94.35 148.84,-58.75 188,-39 195.13,-35.41 202.83,-32.32 210.67,-29.68"/>
<polygon fill="#63b8ff" stroke="#63b8ff" points="211.76,-33.01 220.25,-26.68 209.66,-26.33 211.76,-33.01"/>
</a>
</g>
</g>
<!-- Node2&#45;&gt;Node3 -->
<g id="edge2_Node000002_Node000003" class="edge">
<title>Node2&#45;&gt;Node3</title>
<g id="a_edge2_Node000002_Node000003"><a xlink:title=" ">
<path fill="none" stroke="#63b8ff" d="M597.24,-197C605.78,-197 614.33,-197 622.57,-197"/>
<polygon fill="#63b8ff" stroke="#63b8ff" points="622.83,-200.5 632.83,-197 622.83,-193.5 622.83,-200.5"/>
</a>
</g>
</g>
<!-- Node4&#45;&gt;Node2 -->
<g id="edge4_Node000004_Node000002" class="edge">
<title>Node4&#45;&gt;Node2</title>
<g id="a_edge4_Node000004_Node000002"><a xlink:title=" ">
<path fill="none" stroke="#63b8ff" d="M380.11,-172.55C388.66,-174.21 397.33,-175.9 405.91,-177.58"/>
<polygon fill="#63b8ff" stroke="#63b8ff" points="405.44,-181.05 415.93,-179.53 406.78,-174.18 405.44,-181.05"/>
</a>
</g>
</g>
<!-- Node4&#45;&gt;Node3 -->
<g id="edge5_Node000004_Node000003" class="edge">
<title>Node4&#45;&gt;Node3</title>
<g id="a_edge5_Node000004_Node000003"><a xlink:title=" ">
<path fill="none" stroke="#63b8ff" d="M380.31,-151.14C442.48,-150.95 525.14,-153.86 597,-167 616.74,-170.61 638.07,-177.53 655.07,-183.81"/>
<polygon fill="#63b8ff" stroke="#63b8ff" points="653.94,-187.12 664.53,-187.41 656.42,-180.58 653.94,-187.12"/>
</a>
</g>
</g>
</g>
</svg>

<g id="navigator" transform="translate(0 0)" fill="#404254">
  <rect fill="#f2f5e9" fill-opacity="0.5" stroke="#606060" stroke-width=".5" x="0" y="0" width="60" height="60"/>
  <use id="zoomplus" xlink:href="#zoomPlus" x="17" y="9" onmousedown="handleZoom(evt,'in')"/>
  <use id="zoomminus" xlink:href="#zoomMin" x="42" y="9" onmousedown="handleZoom(evt,'out')"/>
  <use id="reset" xlink:href="#resetDef" x="30" y="36" onmousedown="handleReset()"/>
   <use id="arrowup" xlink:href="#arrowUp" x="0" y="0" onmousedown="handlePan(0,-1)"/>
  <use id="arrowright" xlink:href="#arrowRight" x="0" y="0" onmousedown="handlePan(1,0)"/>
  <use id="arrowdown" xlink:href="#arrowDown" x="0" y="0" onmousedown="handlePan(0,1)"/>
  <use id="arrowleft" xlink:href="#arrowLeft" x="0" y="0" onmousedown="handlePan(-1,0)"/>
</g>
<svg viewBox="0 0 15 15" width="100%" height="30px" preserveAspectRatio="xMaxYMin meet">
 <g id="arrow_out" transform="scale(0.3 0.3)">
  <a xlink:href="namespacecbrc_1_1smoothing_a7841dbf6fb908ba9d4dab17f77387236_cgraph_org.svg" target="_base">
   <rect id="button" ry="5" rx="5" y="6" x="6" height="38" width="38"
        fill="#f2f5e9" fill-opacity="0.5" stroke="#606060" stroke-width="1.0"/>
   <path id="arrow"
     d="M 11.500037,31.436501 C 11.940474,20.09759 22.043105,11.32322 32.158766,21.979434 L 37.068811,17.246167 C 37.068811,17.246167 37.088388,32 37.088388,32 L 22.160133,31.978069 C 22.160133,31.978069 26.997745,27.140456 26.997745,27.140456 C 18.528582,18.264221 13.291696,25.230495 11.500037,31.436501 z"
     style="fill:#404040;"/>
  </a>
 </g>
</svg>

<style type='text/css'>
<![CDATA[
[data-mouse-over-selected='false'] { opacity: 0.7; }
[data-mouse-over-selected='true']  { opacity: 1.0; }
]]>
</style>
<script type="application/ecmascript"><![CDATA[
document.addEventListener('DOMContentLoaded', (event) => {
  highlightEdges();
  highlightAdjacentNodes();
});
]]></script>
</svg>
