<?xml version="1.0" encoding="UTF-8" standalone="no"?>
<!DOCTYPE svg PUBLIC "-//W3C//DTD SVG 1.1//EN"
 "http://www.w3.org/Graphics/SVG/1.1/DTD/svg11.dtd">
<!-- Generated by graphviz version 2.43.0 (0)
 -->
<!-- Title: cbrc::smoothing::monotonicSmoothY Pages: 1 -->
<svg width="752pt" height="259pt"
 viewBox="0.00 0.00 752.00 259.31" xmlns="http://www.w3.org/2000/svg" xmlns:xlink="http://www.w3.org/1999/xlink">
<g id="graph0" class="graph" transform="scale(1 1) rotate(0) translate(4 255.31)">
<title>cbrc::smoothing::monotonicSmoothY</title>
<!-- Node1 -->
<g id="Node000001" class="node">
<title>Node1</title>
<g id="a_Node000001"><a xlink:title=" ">
<polygon fill="#999999" stroke="#666666" points="152,-145 0,-145 0,-115 152,-115 152,-145"/>
<text text-anchor="start" x="8" y="-133" font-family="Helvetica,sans-Serif" font-size="10.00">cbrc::smoothing::monotonic</text>
<text text-anchor="middle" x="76" y="-122" font-family="Helvetica,sans-Serif" font-size="10.00">SmoothY</text>
</a>
</g>
</g>
<!-- Node2 -->
<g id="Node000002" class="node">
<title>Node2</title>
<g id="a_Node000002"><a xlink:href="namespacecbrc_1_1smoothing.html#ac1ab7e34716884166d35b735e16b93d6" target="_top" xlink:title=" ">
<polygon fill="white" stroke="#666666" points="597,-217.5 416,-217.5 416,-176.5 597,-176.5 597,-217.5"/>
<text text-anchor="start" x="424" y="-205.5" font-family="Helvetica,sans-Serif" font-size="10.00">cbrc::smoothing::average</text>
<text text-anchor="start" x="424" y="-194.5" font-family="Helvetica,sans-Serif" font-size="10.00">YCoordinateOfPointIWithNeighbor</text>
<text text-anchor="middle" x="506.5" y="-183.5" font-family="Helvetica,sans-Serif" font-size="10.00">PointUntilMinSampleSizeAttained</text>
</a>
</g>
</g>
<!-- Node1&#45;&gt;Node2 -->
<g id="edge1_Node000001_Node000002" class="edge">
<title>Node1&#45;&gt;Node2</title>
<g id="a_edge1_Node000001_Node000002"><a xlink:title=" ">
<path fill="none" stroke="#63b8ff" d="M101.48,-145.24C123.28,-157.92 156.51,-175.13 188,-183 259.24,-200.8 342.23,-203.87 405.48,-202.72"/>
<polygon fill="#63b8ff" stroke="#63b8ff" points="405.94,-206.21 415.86,-202.49 405.78,-199.22 405.94,-206.21"/>
</a>
</g>
</g>
<!-- Node3 -->
<g id="Node000003" class="node">
<title>Node3</title>
<g id="a_Node000003"><a xlink:href="classcbrc_1_1FLEArray.html#ad71311380d762114c9e0f3b0dda38b7c" target="_top" xlink:title=" ">
<polygon fill="white" stroke="#666666" points="744,-206.5 633,-206.5 633,-187.5 744,-187.5 744,-206.5"/>
<text text-anchor="middle" x="688.5" y="-194.5" font-family="Helvetica,sans-Serif" font-size="10.00">cbrc::FLEArray::size</text>
</a>
</g>
</g>
<!-- Node1&#45;&gt;Node3 -->
<g id="edge8_Node000001_Node000003" class="edge">
<title>Node1&#45;&gt;Node3</title>
<g id="a_edge8_Node000001_Node000003"><a xlink:title=" ">
<path fill="none" stroke="#63b8ff" d="M93.11,-145.32C113.43,-163.59 150.28,-193.36 188,-207 359.15,-268.89 417.33,-256 597,-227 617.08,-223.76 638.74,-216.72 655.83,-210.27"/>
<polygon fill="#63b8ff" stroke="#63b8ff" points="657.27,-213.46 665.32,-206.58 654.73,-206.94 657.27,-213.46"/>
</a>
</g>
</g>
<!-- Node4 -->
<g id="Node000004" class="node">
<title>Node4</title>
<g id="a_Node000004"><a xlink:href="namespacecbrc_1_1smoothing.html#aff57ef2038f4bff5e44f4060dbc89cf0" target="_top" xlink:title=" ">
<polygon fill="white" stroke="#666666" points="380,-174.5 188,-174.5 188,-133.5 380,-133.5 380,-174.5"/>
<text text-anchor="start" x="196" y="-162.5" font-family="Helvetica,sans-Serif" font-size="10.00">cbrc::smoothing::average</text>
<text text-anchor="start" x="196" y="-151.5" font-family="Helvetica,sans-Serif" font-size="10.00">YCoordinatesWithNeighboringPoints</text>
<text text-anchor="middle" x="284" y="-140.5" font-family="Helvetica,sans-Serif" font-size="10.00">UntilMinSampleSizeAttained</text>
</a>
</g>
</g>
<!-- Node1&#45;&gt;Node4 -->
<g id="edge3_Node000001_Node000004" class="edge">
<title>Node1&#45;&gt;Node4</title>
<g id="a_edge3_Node000001_Node000004"><a xlink:title=" ">
<path fill="none" stroke="#63b8ff" d="M152.25,-138.77C160.59,-139.74 169.19,-140.74 177.82,-141.75"/>
<polygon fill="#63b8ff" stroke="#63b8ff" points="177.61,-145.24 187.94,-142.93 178.42,-138.29 177.61,-145.24"/>
</a>
</g>
</g>
<!-- Node5 -->
<g id="Node000005" class="node">
<title>Node5</title>
<g id="a_Node000005"><a xlink:href="classcbrc_1_1FLEArray.html#a8c53878dc57e8f666976e041d146a523" target="_top" xlink:title=" ">
<polygon fill="white" stroke="#666666" points="339,-115.5 229,-115.5 229,-96.5 339,-96.5 339,-115.5"/>
<text text-anchor="middle" x="284" y="-103.5" font-family="Helvetica,sans-Serif" font-size="10.00">cbrc::FLEArray::end</text>
</a>
</g>
</g>
<!-- Node1&#45;&gt;Node5 -->
<g id="edge6_Node000001_Node000005" class="edge">
<title>Node1&#45;&gt;Node5</title>
<g id="a_edge6_Node000001_Node000005"><a xlink:title=" ">
<path fill="none" stroke="#63b8ff" d="M152.25,-121.23C174.07,-118.69 197.7,-115.94 218.79,-113.48"/>
<polygon fill="#63b8ff" stroke="#63b8ff" points="219.39,-116.94 228.91,-112.3 218.58,-109.98 219.39,-116.94"/>
</a>
</g>
</g>
<!-- Node6 -->
<g id="Node000006" class="node">
<title>Node6</title>
<g id="a_Node000006"><a xlink:href="classcbrc_1_1WeightedPoint2D.html#a40bc244a9b5f51bf9810c22760241214" target="_top" xlink:title=" ">
<polygon fill="white" stroke="#666666" points="347.5,-78 220.5,-78 220.5,-48 347.5,-48 347.5,-78"/>
<text text-anchor="start" x="228.5" y="-66" font-family="Helvetica,sans-Serif" font-size="10.00">cbrc::WeightedPoint2D</text>
<text text-anchor="middle" x="284" y="-55" font-family="Helvetica,sans-Serif" font-size="10.00">::nonFinite</text>
</a>
</g>
</g>
<!-- Node1&#45;&gt;Node6 -->
<g id="edge7_Node000001_Node000006" class="edge">
<title>Node1&#45;&gt;Node6</title>
<g id="a_edge7_Node000001_Node000006"><a xlink:title=" ">
<path fill="none" stroke="#63b8ff" d="M112.6,-114.93C134.18,-106.12 162.4,-95.16 188,-87 195.29,-84.68 202.96,-82.43 210.64,-80.3"/>
<polygon fill="#63b8ff" stroke="#63b8ff" points="211.61,-83.66 220.35,-77.67 209.78,-76.9 211.61,-83.66"/>
</a>
</g>
</g>
<!-- Node7 -->
<g id="Node000007" class="node">
<title>Node7</title>
<g id="a_Node000007"><a xlink:href="classcbrc_1_1WeightedPoint2D.html#a9e020ea23a4d774a35fe4d4eb50d4c0b" target="_top" xlink:title=" ">
<polygon fill="white" stroke="#666666" points="347.5,-30 220.5,-30 220.5,0 347.5,0 347.5,-30"/>
<text text-anchor="start" x="228.5" y="-18" font-family="Helvetica,sans-Serif" font-size="10.00">cbrc::WeightedPoint2D</text>
<text text-anchor="middle" x="284" y="-7" font-family="Helvetica,sans-Serif" font-size="10.00">::xLess</text>
</a>
</g>
</g>
<!-- Node1&#45;&gt;Node7 -->
<g id="edge9_Node000001_Node000007" class="edge">
<title>Node1&#45;&gt;Node7</title>
<g id="a_edge9_Node000001_Node000007"><a xlink:title=" ">
<path fill="none" stroke="#63b8ff" d="M91.27,-114.68C111.06,-94.35 148.84,-58.75 188,-39 195.13,-35.41 202.83,-32.32 210.67,-29.68"/>
<polygon fill="#63b8ff" stroke="#63b8ff" points="211.76,-33.01 220.25,-26.68 209.66,-26.33 211.76,-33.01"/>
</a>
</g>
</g>
<!-- Node2&#45;&gt;Node3 -->
<g id="edge2_Node000002_Node000003" class="edge">
<title>Node2&#45;&gt;Node3</title>
<g id="a_edge2_Node000002_Node000003"><a xlink:title=" ">
<path fill="none" stroke="#63b8ff" d="M597.24,-197C605.78,-197 614.33,-197 622.57,-197"/>
<polygon fill="#63b8ff" stroke="#63b8ff" points="622.83,-200.5 632.83,-197 622.83,-193.5 622.83,-200.5"/>
</a>
</g>
</g>
<!-- Node4&#45;&gt;Node2 -->
<g id="edge4_Node000004_Node000002" class="edge">
<title>Node4&#45;&gt;Node2</title>
<g id="a_edge4_Node000004_Node000002"><a xlink:title=" ">
<path fill="none" stroke="#63b8ff" d="M380.11,-172.55C388.66,-174.21 397.33,-175.9 405.91,-177.58"/>
<polygon fill="#63b8ff" stroke="#63b8ff" points="405.44,-181.05 415.93,-179.53 406.78,-174.18 405.44,-181.05"/>
</a>
</g>
</g>
<!-- Node4&#45;&gt;Node3 -->
<g id="edge5_Node000004_Node000003" class="edge">
<title>Node4&#45;&gt;Node3</title>
<g id="a_edge5_Node000004_Node000003"><a xlink:title=" ">
<path fill="none" stroke="#63b8ff" d="M380.31,-151.14C442.48,-150.95 525.14,-153.86 597,-167 616.74,-170.61 638.07,-177.53 655.07,-183.81"/>
<polygon fill="#63b8ff" stroke="#63b8ff" points="653.94,-187.12 664.53,-187.41 656.42,-180.58 653.94,-187.12"/>
</a>
</g>
</g>
</g>
</svg>
