<?xml version="1.0" encoding="UTF-8" standalone="no"?>
<!DOCTYPE svg PUBLIC "-//W3C//DTD SVG 1.1//EN"
 "http://www.w3.org/Graphics/SVG/1.1/DTD/svg11.dtd">
<!-- Generated by graphviz version 2.43.0 (0)
 -->
<!-- Title: cbrc::string2HashVal Pages: 1 -->
<!--zoomable 228 -->

<svg id="main" version="1.1" xmlns="http://www.w3.org/2000/svg" xmlns:xlink="http://www.w3.org/1999/xlink" xml:space="preserve" onload="init(evt)">
<style type="text/css"><![CDATA[
.node, .edge {opacity: 0.7;}
.node.selected, .edge.selected {opacity: 1;}
.edge:hover path { stroke: red; }
.edge:hover polygon { stroke: red; fill: red; }
]]></style>

<defs>
  <circle id="rim" cx="0" cy="0" r="7"/>
  <circle id="rim2" cx="0" cy="0" r="3.5"/>
  <g id="zoomPlus">
    <use xlink:href="#rim" fill="#404040"><set attributeName="fill" to="#808080" begin="zoomplus.mouseover" end="zoomplus.mouseout"/></use>
    <path d="M-4,0h8M0,-4v8" fill="none" stroke="white" stroke-width="1.5" pointer-events="none"/>
  </g>
  <g id="zoomMin">
    <use xlink:href="#rim" fill="#404040"><set attributeName="fill" to="#808080" begin="zoomminus.mouseover" end="zoomminus.mouseout"/></use>
    <path d="M-4,0h8" fill="none" stroke="white" stroke-width="1.5" pointer-events="none"/>
  </g>
  <g id="arrowUp" transform="translate(30 24)">
    <use xlink:href="#rim"/>
    <path pointer-events="none" fill="none" stroke="white" stroke-width="1.5" d="M0,-3.0v7 M-2.5,-0.5L0,-3.0L2.5,-0.5"/>
  </g>
  <g id="arrowRight" transform="rotate(90) translate(36 -43)">
    <use xlink:href="#rim"/>
    <path pointer-events="none" fill="none" stroke="white" stroke-width="1.5" d="M0,-3.0v7 M-2.5,-0.5L0,-3.0L2.5,-0.5"/>
  </g>
  <g id="arrowDown" transform="rotate(180) translate(-30 -48)">
    <use xlink:href="#rim"/>
    <path pointer-events="none" fill="none" stroke="white" stroke-width="1.5" d="M0,-3.0v7 M-2.5,-0.5L0,-3.0L2.5,-0.5"/>
  </g>
  <g id="arrowLeft" transform="rotate(270) translate(-36 17)">
    <use xlink:href="#rim"/>
    <path pointer-events="none" fill="none" stroke="white" stroke-width="1.5" d="M0,-3.0v7 M-2.5,-0.5L0,-3.0L2.5,-0.5"/>
  </g>
  <g id="resetDef">
    <use xlink:href="#rim2" fill="#404040"><set attributeName="fill" to="#808080" begin="reset.mouseover" end="reset.mouseout"/></use>
  </g>
</defs>
<script type="application/ecmascript">
var viewWidth = 528;
var viewHeight = 228;
var sectionId = 'dynsection-141';
</script>
<script type="application/ecmascript" xlink:href="svg.min.js"/>
<svg id="graph" class="graph">
<g id="viewport">
<title>cbrc::string2HashVal</title>
<!-- Node1 -->
<g id="Node000001" class="node">
<title>Node1</title>
<g id="a_Node000001"><a xlink:title=" ">
<polygon fill="#999999" stroke="#666666" points="520,-115.5 404,-115.5 404,-96.5 520,-96.5 520,-115.5"/>
<text text-anchor="middle" x="462" y="-103.5" font-family="Helvetica,sans-Serif" font-size="10.00">cbrc::string2HashVal</text>
</a>
</g>
</g>
<!-- Node2 -->
<g id="Node000002" class="node">
<title>Node2</title>
<g id="a_Node000002"><a xlink:href="classcbrc_1_1String2KeyHashtable.html#a5a7722c2bf28dc07b5566e5bcfef74a6" target="_top" xlink:title=" ">
<polygon fill="white" stroke="#666666" points="356.5,-202 211.5,-202 211.5,-172 356.5,-172 356.5,-202"/>
<text text-anchor="start" x="219.5" y="-190" font-family="Helvetica,sans-Serif" font-size="10.00">cbrc::String2KeyHashtable</text>
<text text-anchor="middle" x="284" y="-179" font-family="Helvetica,sans-Serif" font-size="10.00">::add2</text>
</a>
</g>
</g>
<!-- Node1&#45;&gt;Node2 -->
<g id="edge1_Node000001_Node000002" class="edge">
<title>Node1&#45;&gt;Node2</title>
<g id="a_edge1_Node000001_Node000002"><a xlink:title=" ">
<path fill="none" stroke="#63b8ff" d="M437.01,-120.94C418.58,-132.04 392.24,-147.09 368,-158 356.73,-163.08 344.28,-167.84 332.52,-171.99"/>
<polygon fill="#63b8ff" stroke="#63b8ff" points="438.91,-123.88 445.63,-115.69 435.27,-117.9 438.91,-123.88"/>
</a>
</g>
</g>
<!-- Node3 -->
<g id="Node000003" class="node">
<title>Node3</title>
<g id="a_Node000003"><a xlink:href="classcbrc_1_1String2KeyHashtable.html#a3474cdf86c87c50291e22e4de755708b" target="_top" xlink:title=" ">
<polygon fill="white" stroke="#666666" points="164,-174.5 0,-174.5 0,-155.5 164,-155.5 164,-174.5"/>
<text text-anchor="middle" x="82" y="-162.5" font-family="Helvetica,sans-Serif" font-size="10.00">cbrc::String2KeyHashtable::ref</text>
</a>
</g>
</g>
<!-- Node1&#45;&gt;Node3 -->
<g id="edge7_Node000001_Node000003" class="edge">
<title>Node1&#45;&gt;Node3</title>
<g id="a_edge7_Node000001_Node000003"><a xlink:title=" ">
<path fill="none" stroke="#63b8ff" d="M407.07,-117.61C394.29,-120.2 380.69,-122.82 368,-125 297.96,-137.06 217.76,-148.07 160.31,-155.47"/>
<polygon fill="#63b8ff" stroke="#63b8ff" points="408.02,-120.99 417.11,-115.55 406.61,-114.13 408.02,-120.99"/>
</a>
</g>
</g>
<!-- Node4 -->
<g id="Node000004" class="node">
<title>Node4</title>
<g id="a_Node000004"><a xlink:href="classcbrc_1_1String2KeyHashtable.html#a606fb5667ea491ba88a4f09edce228ec" target="_top" xlink:title=" ">
<polygon fill="white" stroke="#666666" points="368,-115.5 200,-115.5 200,-96.5 368,-96.5 368,-115.5"/>
<text text-anchor="middle" x="284" y="-103.5" font-family="Helvetica,sans-Serif" font-size="10.00">cbrc::String2KeyHashtable::has</text>
</a>
</g>
</g>
<!-- Node1&#45;&gt;Node4 -->
<g id="edge4_Node000001_Node000004" class="edge">
<title>Node1&#45;&gt;Node4</title>
<g id="a_edge4_Node000001_Node000004"><a xlink:title=" ">
<path fill="none" stroke="#63b8ff" d="M393.76,-106C385.35,-106 376.67,-106 368.06,-106"/>
<polygon fill="#63b8ff" stroke="#63b8ff" points="393.86,-109.5 403.86,-106 393.86,-102.5 393.86,-109.5"/>
</a>
</g>
</g>
<!-- Node5 -->
<g id="Node000005" class="node">
<title>Node5</title>
<g id="a_Node000005"><a xlink:href="classcbrc_1_1String2KeyAndValue.html#a63045e584a1263081f302ad65d1ceb01" target="_top" xlink:title=" ">
<polygon fill="white" stroke="#666666" points="354.5,-78 213.5,-78 213.5,-48 354.5,-48 354.5,-78"/>
<text text-anchor="start" x="221.5" y="-66" font-family="Helvetica,sans-Serif" font-size="10.00">cbrc::String2KeyAndValue</text>
<text text-anchor="middle" x="284" y="-55" font-family="Helvetica,sans-Serif" font-size="10.00">::hashVal</text>
</a>
</g>
</g>
<!-- Node1&#45;&gt;Node5 -->
<g id="edge5_Node000001_Node000005" class="edge">
<title>Node1&#45;&gt;Node5</title>
<g id="a_edge5_Node000001_Node000005"><a xlink:title=" ">
<path fill="none" stroke="#63b8ff" d="M411.97,-94.02C391.66,-89.06 367.88,-83.25 346.42,-78.01"/>
<polygon fill="#63b8ff" stroke="#63b8ff" points="411.39,-97.48 421.94,-96.46 413.06,-90.68 411.39,-97.48"/>
</a>
</g>
</g>
<!-- Node6 -->
<g id="Node000006" class="node">
<title>Node6</title>
<g id="a_Node000006"><a xlink:href="classcbrc_1_1String2KeyHashtable.html#a3a03ccd1790f589500a9c9b44acd25dd" target="_top" xlink:title=" ">
<polygon fill="white" stroke="#666666" points="356.5,-30 211.5,-30 211.5,0 356.5,0 356.5,-30"/>
<text text-anchor="start" x="219.5" y="-18" font-family="Helvetica,sans-Serif" font-size="10.00">cbrc::String2KeyHashtable</text>
<text text-anchor="middle" x="284" y="-7" font-family="Helvetica,sans-Serif" font-size="10.00">::operator()</text>
</a>
</g>
</g>
<!-- Node1&#45;&gt;Node6 -->
<g id="edge6_Node000001_Node000006" class="edge">
<title>Node1&#45;&gt;Node6</title>
<g id="a_edge6_Node000001_Node000006"><a xlink:title=" ">
<path fill="none" stroke="#63b8ff" d="M442.43,-89.65C424.49,-74.61 395.99,-52.62 368,-39 361.12,-35.65 353.69,-32.69 346.2,-30.08"/>
<polygon fill="#63b8ff" stroke="#63b8ff" points="440.47,-92.58 450.34,-96.41 445.02,-87.26 440.47,-92.58"/>
</a>
</g>
</g>
<!-- Node2&#45;&gt;Node2 -->
<g id="edge2_Node000002_Node000002" class="edge">
<title>Node2&#45;&gt;Node2</title>
<g id="a_edge2_Node000002_Node000002"><a xlink:title=" ">
<path fill="none" stroke="#63b8ff" d="M315.16,-212.6C310.9,-216.97 300.51,-220 284,-220 256.19,-220 245.76,-211.41 252.71,-202.28"/>
<polygon fill="#63b8ff" stroke="#63b8ff" points="318.66,-212.32 315.29,-202.28 311.66,-212.23 318.66,-212.32"/>
</a>
</g>
</g>
<!-- Node2&#45;&gt;Node3 -->
<g id="edge3_Node000002_Node000003" class="edge">
<title>Node2&#45;&gt;Node3</title>
<g id="a_edge3_Node000002_Node000003"><a xlink:title=" ">
<path fill="none" stroke="#63b8ff" d="M201.24,-178.01C189.06,-176.67 176.51,-175.29 164.34,-173.95"/>
<polygon fill="#63b8ff" stroke="#63b8ff" points="201.04,-181.51 211.36,-179.12 201.8,-174.55 201.04,-181.51"/>
</a>
</g>
</g>
</g>
</svg>

<g id="navigator" transform="translate(0 0)" fill="#404254">
  <rect fill="#f2f5e9" fill-opacity="0.5" stroke="#606060" stroke-width=".5" x="0" y="0" width="60" height="60"/>
  <use id="zoomplus" xlink:href="#zoomPlus" x="17" y="9" onmousedown="handleZoom(evt,'in')"/>
  <use id="zoomminus" xlink:href="#zoomMin" x="42" y="9" onmousedown="handleZoom(evt,'out')"/>
  <use id="reset" xlink:href="#resetDef" x="30" y="36" onmousedown="handleReset()"/>
   <use id="arrowup" xlink:href="#arrowUp" x="0" y="0" onmousedown="handlePan(0,-1)"/>
  <use id="arrowright" xlink:href="#arrowRight" x="0" y="0" onmousedown="handlePan(1,0)"/>
  <use id="arrowdown" xlink:href="#arrowDown" x="0" y="0" onmousedown="handlePan(0,1)"/>
  <use id="arrowleft" xlink:href="#arrowLeft" x="0" y="0" onmousedown="handlePan(-1,0)"/>
</g>
<svg viewBox="0 0 15 15" width="100%" height="30px" preserveAspectRatio="xMaxYMin meet">
 <g id="arrow_out" transform="scale(0.3 0.3)">
  <a xlink:href="namespacecbrc_a7017865be3a27c28d57d32cd21eca51b_icgraph_org.svg" target="_base">
   <rect id="button" ry="5" rx="5" y="6" x="6" height="38" width="38"
        fill="#f2f5e9" fill-opacity="0.5" stroke="#606060" stroke-width="1.0"/>
   <path id="arrow"
     d="M 11.500037,31.436501 C 11.940474,20.09759 22.043105,11.32322 32.158766,21.979434 L 37.068811,17.246167 C 37.068811,17.246167 37.088388,32 37.088388,32 L 22.160133,31.978069 C 22.160133,31.978069 26.997745,27.140456 26.997745,27.140456 C 18.528582,18.264221 13.291696,25.230495 11.500037,31.436501 z"
     style="fill:#404040;"/>
  </a>
 </g>
</svg>

<style type='text/css'>
<![CDATA[
[data-mouse-over-selected='false'] { opacity: 0.7; }
[data-mouse-over-selected='true']  { opacity: 1.0; }
]]>
</style>
<script type="application/ecmascript"><![CDATA[
document.addEventListener('DOMContentLoaded', (event) => {
  highlightEdges();
  highlightAdjacentNodes();
});
]]></script>
</svg>
