<?xml version="1.0" encoding="UTF-8" standalone="no"?>
<!DOCTYPE svg PUBLIC "-//W3C//DTD SVG 1.1//EN"
 "http://www.w3.org/Graphics/SVG/1.1/DTD/svg11.dtd">
<!-- Generated by graphviz version 2.43.0 (0)
 -->
<!-- Title: cbrc::HammingDistanceComputer::computeBoundedGapAtBeg Pages: 1 -->
<svg width="372pt" height="119pt"
 viewBox="0.00 0.00 372.00 119.00" xmlns="http://www.w3.org/2000/svg" xmlns:xlink="http://www.w3.org/1999/xlink">

<svg id="main" version="1.1" xmlns="http://www.w3.org/2000/svg" xmlns:xlink="http://www.w3.org/1999/xlink" xml:space="preserve" onload="init(evt)">
<style type="text/css"><![CDATA[
.node, .edge {opacity: 0.7;}
.node.selected, .edge.selected {opacity: 1;}
.edge:hover path { stroke: red; }
.edge:hover polygon { stroke: red; fill: red; }
]]></style>
<script type="application/ecmascript" xlink:href="svg.min.js"/>
<svg id="graph" class="graph">
<g id="graph0" class="graph" transform="scale(1 1) rotate(0) translate(4 115)">
<title>cbrc::HammingDistanceComputer::computeBoundedGapAtBeg</title>
<!-- Node1 -->
<g id="Node000001" class="node">
<title>Node1</title>
<g id="a_Node000001"><a xlink:title=" ">
<polygon fill="#999999" stroke="#666666" points="182,-79.5 0,-79.5 0,-49.5 182,-49.5 182,-79.5"/>
<text text-anchor="start" x="8" y="-67.5" font-family="Helvetica,sans-Serif" font-size="10.00">cbrc::HammingDistanceComputer</text>
<text text-anchor="middle" x="91" y="-56.5" font-family="Helvetica,sans-Serif" font-size="10.00">::computeBoundedGapAtBeg</text>
</a>
</g>
</g>
<!-- Node2 -->
<g id="Node000002" class="node">
<title>Node2</title>
<g id="a_Node000002"><a xlink:href="classcbrc_1_1FLEArray.html#a6b4512b0dfaf8e8274bee6b4782805ae" target="_top" xlink:title=" ">
<polygon fill="white" stroke="#666666" points="364,-111 218,-111 218,-92 364,-92 364,-111"/>
<text text-anchor="middle" x="291" y="-99" font-family="Helvetica,sans-Serif" font-size="10.00">cbrc::FLEArray::constBegin</text>
</a>
</g>
</g>
<!-- Node1&#45;&gt;Node2 -->
<g id="edge1_Node000001_Node000002" class="edge">
<title>Node1&#45;&gt;Node2</title>
<g id="a_edge1_Node000001_Node000002"><a xlink:title=" ">
<path fill="none" stroke="#63b8ff" d="M172.53,-79.55C191.33,-83.06 211.04,-86.75 228.84,-90.07"/>
<polygon fill="#63b8ff" stroke="#63b8ff" points="228.6,-93.59 239.07,-91.98 229.89,-86.71 228.6,-93.59"/>
</a>
</g>
</g>
<!-- Node3 -->
<g id="Node000003" class="node">
<title>Node3</title>
<g id="a_Node000003"><a xlink:href="classcbrc_1_1FLEArray.html#a909867804334565cfa57d185347a5457" target="_top" xlink:title=" ">
<polygon fill="white" stroke="#666666" points="359,-74 223,-74 223,-55 359,-55 359,-74"/>
<text text-anchor="middle" x="291" y="-62" font-family="Helvetica,sans-Serif" font-size="10.00">cbrc::FLEArray::constEnd</text>
</a>
</g>
</g>
<!-- Node1&#45;&gt;Node3 -->
<g id="edge2_Node000001_Node000003" class="edge">
<title>Node1&#45;&gt;Node3</title>
<g id="a_edge2_Node000001_Node000003"><a xlink:title=" ">
<path fill="none" stroke="#63b8ff" d="M182.02,-64.5C192.18,-64.5 202.47,-64.5 212.45,-64.5"/>
<polygon fill="#63b8ff" stroke="#63b8ff" points="212.72,-68 222.72,-64.5 212.72,-61 212.72,-68"/>
</a>
</g>
</g>
<!-- Node4 -->
<g id="Node000004" class="node">
<title>Node4</title>
<g id="a_Node000004"><a xlink:href="classcbrc_1_1FLEArray.html#a5368c7c0434bd5c119d2cbb39f4b399e" target="_top" xlink:title=" ">
<polygon fill="white" stroke="#666666" points="358.5,-19 223.5,-19 223.5,0 358.5,0 358.5,-19"/>
<text text-anchor="middle" x="291" y="-7" font-family="Helvetica,sans-Serif" font-size="10.00">cbrc::FLEArray::FLEArray</text>
</a>
</g>
</g>
<!-- Node1&#45;&gt;Node4 -->
<g id="edge3_Node000001_Node000004" class="edge">
<title>Node1&#45;&gt;Node4</title>
<g id="a_edge3_Node000001_Node000004"><a xlink:title=" ">
<path fill="none" stroke="#63b8ff" d="M146.1,-49.47C177.34,-40.79 216.15,-30.01 245.59,-21.84"/>
<polygon fill="#63b8ff" stroke="#63b8ff" points="246.88,-25.11 255.58,-19.06 245.01,-18.36 246.88,-25.11"/>
</a>
</g>
</g>
<!-- Node4&#45;&gt;Node4 -->
<g id="edge4_Node000004_Node000004" class="edge">
<title>Node4&#45;&gt;Node4</title>
<g id="a_edge4_Node000004_Node000004"><a xlink:title=" ">
<path fill="none" stroke="#63b8ff" d="M260.17,-19.08C245.18,-27.73 255.45,-37 291,-37 315.99,-37 328.49,-32.42 328.5,-26.69"/>
<polygon fill="#63b8ff" stroke="#63b8ff" points="331.05,-24.29 321.83,-19.08 325.79,-28.91 331.05,-24.29"/>
</a>
</g>
</g>
</g>
</svg>
</svg>

<style type='text/css'>
<![CDATA[
[data-mouse-over-selected='false'] { opacity: 0.7; }
[data-mouse-over-selected='true']  { opacity: 1.0; }
]]>
</style>
<script type="application/ecmascript"><![CDATA[
document.addEventListener('DOMContentLoaded', (event) => {
  highlightEdges();
  highlightAdjacentNodes();
});
]]></script>
</svg>
