<?xml version="1.0" encoding="UTF-8" standalone="no"?>
<!DOCTYPE svg PUBLIC "-//W3C//DTD SVG 1.1//EN"
 "http://www.w3.org/Graphics/SVG/1.1/DTD/svg11.dtd">
<!-- Generated by graphviz version 2.43.0 (0)
 -->
<!-- Title: cbrc::smoothing::averageYCoordinateOfPointIWithNeighborPointUntilMinSampleSizeAttained Pages: 1 -->
<!--zoomable 128 -->

<svg id="main" version="1.1" xmlns="http://www.w3.org/2000/svg" xmlns:xlink="http://www.w3.org/1999/xlink" xml:space="preserve" onload="init(evt)">
<style type="text/css"><![CDATA[
.node, .edge {opacity: 0.7;}
.node.selected, .edge.selected {opacity: 1;}
.edge:hover path { stroke: red; }
.edge:hover polygon { stroke: red; fill: red; }
]]></style>

<defs>
  <circle id="rim" cx="0" cy="0" r="7"/>
  <circle id="rim2" cx="0" cy="0" r="3.5"/>
  <g id="zoomPlus">
    <use xlink:href="#rim" fill="#404040"><set attributeName="fill" to="#808080" begin="zoomplus.mouseover" end="zoomplus.mouseout"/></use>
    <path d="M-4,0h8M0,-4v8" fill="none" stroke="white" stroke-width="1.5" pointer-events="none"/>
  </g>
  <g id="zoomMin">
    <use xlink:href="#rim" fill="#404040"><set attributeName="fill" to="#808080" begin="zoomminus.mouseover" end="zoomminus.mouseout"/></use>
    <path d="M-4,0h8" fill="none" stroke="white" stroke-width="1.5" pointer-events="none"/>
  </g>
  <g id="arrowUp" transform="translate(30 24)">
    <use xlink:href="#rim"/>
    <path pointer-events="none" fill="none" stroke="white" stroke-width="1.5" d="M0,-3.0v7 M-2.5,-0.5L0,-3.0L2.5,-0.5"/>
  </g>
  <g id="arrowRight" transform="rotate(90) translate(36 -43)">
    <use xlink:href="#rim"/>
    <path pointer-events="none" fill="none" stroke="white" stroke-width="1.5" d="M0,-3.0v7 M-2.5,-0.5L0,-3.0L2.5,-0.5"/>
  </g>
  <g id="arrowDown" transform="rotate(180) translate(-30 -48)">
    <use xlink:href="#rim"/>
    <path pointer-events="none" fill="none" stroke="white" stroke-width="1.5" d="M0,-3.0v7 M-2.5,-0.5L0,-3.0L2.5,-0.5"/>
  </g>
  <g id="arrowLeft" transform="rotate(270) translate(-36 17)">
    <use xlink:href="#rim"/>
    <path pointer-events="none" fill="none" stroke="white" stroke-width="1.5" d="M0,-3.0v7 M-2.5,-0.5L0,-3.0L2.5,-0.5"/>
  </g>
  <g id="resetDef">
    <use xlink:href="#rim2" fill="#404040"><set attributeName="fill" to="#808080" begin="reset.mouseover" end="reset.mouseout"/></use>
  </g>
</defs>
<script type="application/ecmascript">
var viewWidth = 857;
var viewHeight = 128;
var sectionId = 'dynsection-1';
</script>
<script type="application/ecmascript" xlink:href="svg.min.js"/>
<svg id="graph" class="graph">
<g id="viewport">
<title>cbrc::smoothing::averageYCoordinateOfPointIWithNeighborPointUntilMinSampleSizeAttained</title>
<!-- Node1 -->
<g id="Node000001" class="node">
<title>Node1</title>
<g id="a_Node000001"><a xlink:title=" ">
<polygon fill="#999999" stroke="#666666" points="849,-65 668,-65 668,-24 849,-24 849,-65"/>
<text text-anchor="start" x="676" y="-53" font-family="Helvetica,sans-Serif" font-size="10.00">cbrc::smoothing::average</text>
<text text-anchor="start" x="676" y="-42" font-family="Helvetica,sans-Serif" font-size="10.00">YCoordinateOfPointIWithNeighbor</text>
<text text-anchor="middle" x="758.5" y="-31" font-family="Helvetica,sans-Serif" font-size="10.00">PointUntilMinSampleSizeAttained</text>
</a>
</g>
</g>
<!-- Node2 -->
<g id="Node000002" class="node">
<title>Node2</title>
<g id="a_Node000002"><a xlink:href="namespacecbrc_1_1smoothing.html#aff57ef2038f4bff5e44f4060dbc89cf0" target="_top" xlink:title=" ">
<polygon fill="white" stroke="#666666" points="632,-41 440,-41 440,0 632,0 632,-41"/>
<text text-anchor="start" x="448" y="-29" font-family="Helvetica,sans-Serif" font-size="10.00">cbrc::smoothing::average</text>
<text text-anchor="start" x="448" y="-18" font-family="Helvetica,sans-Serif" font-size="10.00">YCoordinatesWithNeighboringPoints</text>
<text text-anchor="middle" x="536" y="-7" font-family="Helvetica,sans-Serif" font-size="10.00">UntilMinSampleSizeAttained</text>
</a>
</g>
</g>
<!-- Node1&#45;&gt;Node2 -->
<g id="edge1_Node000001_Node000002" class="edge">
<title>Node1&#45;&gt;Node2</title>
<g id="a_edge1_Node000001_Node000002"><a xlink:title=" ">
<path fill="none" stroke="#63b8ff" d="M657.61,-33.63C649.21,-32.71 640.72,-31.79 632.35,-30.88"/>
<polygon fill="#63b8ff" stroke="#63b8ff" points="657.49,-37.14 667.81,-34.74 658.25,-30.18 657.49,-37.14"/>
</a>
</g>
</g>
<!-- Node3 -->
<g id="Node000003" class="node">
<title>Node3</title>
<g id="a_Node000003"><a xlink:href="namespacecbrc_1_1smoothing.html#a7841dbf6fb908ba9d4dab17f77387236" target="_top" xlink:title=" ">
<polygon fill="white" stroke="#666666" points="404,-81.5 252,-81.5 252,-51.5 404,-51.5 404,-81.5"/>
<text text-anchor="start" x="260" y="-69.5" font-family="Helvetica,sans-Serif" font-size="10.00">cbrc::smoothing::monotonic</text>
<text text-anchor="middle" x="328" y="-58.5" font-family="Helvetica,sans-Serif" font-size="10.00">SmoothY</text>
</a>
</g>
</g>
<!-- Node1&#45;&gt;Node3 -->
<g id="edge8_Node000001_Node000003" class="edge">
<title>Node1&#45;&gt;Node3</title>
<g id="a_edge8_Node000001_Node000003"><a xlink:title=" ">
<path fill="none" stroke="#63b8ff" d="M657.68,-49.63C580.23,-53.6 474.55,-59.03 404.16,-62.64"/>
<polygon fill="#63b8ff" stroke="#63b8ff" points="658.13,-53.11 667.93,-49.1 657.77,-46.12 658.13,-53.11"/>
</a>
</g>
</g>
<!-- Node2&#45;&gt;Node3 -->
<g id="edge2_Node000002_Node000003" class="edge">
<title>Node2&#45;&gt;Node3</title>
<g id="a_edge2_Node000002_Node000003"><a xlink:title=" ">
<path fill="none" stroke="#63b8ff" d="M433.13,-43.25C420.62,-46.04 408.09,-48.84 396.27,-51.48"/>
<polygon fill="#63b8ff" stroke="#63b8ff" points="434.15,-46.61 443.15,-41.01 432.62,-39.77 434.15,-46.61"/>
</a>
</g>
</g>
<!-- Node7 -->
<g id="Node000007" class="node">
<title>Node7</title>
<g id="a_Node000007"><a xlink:href="namespacecbrc.html#a21b3d568b029c61ac627788f2c9f16e8" target="_top" xlink:title=" ">
<polygon fill="white" stroke="#666666" points="392,-30 264,-30 264,-11 392,-11 392,-30"/>
<text text-anchor="middle" x="328" y="-18" font-family="Helvetica,sans-Serif" font-size="10.00">cbrc::smoothMinPoints</text>
</a>
</g>
</g>
<!-- Node2&#45;&gt;Node7 -->
<g id="edge6_Node000002_Node000007" class="edge">
<title>Node2&#45;&gt;Node7</title>
<g id="a_edge6_Node000002_Node000007"><a xlink:title=" ">
<path fill="none" stroke="#63b8ff" d="M429.61,-20.5C416.86,-20.5 404.15,-20.5 392.27,-20.5"/>
<polygon fill="#63b8ff" stroke="#63b8ff" points="429.84,-24 439.84,-20.5 429.84,-17 429.84,-24"/>
</a>
</g>
</g>
<!-- Node4 -->
<g id="Node000004" class="node">
<title>Node4</title>
<g id="a_Node000004"><a xlink:href="namespacecbrc.html#aef2d0ed299987208c4ea3f95ca35008f" target="_top" xlink:title=" ">
<polygon fill="white" stroke="#666666" points="216,-119.5 77,-119.5 77,-89.5 216,-89.5 216,-119.5"/>
<text text-anchor="start" x="85" y="-107.5" font-family="Helvetica,sans-Serif" font-size="10.00">cbrc::labeledBlastToOdds</text>
<text text-anchor="middle" x="146.5" y="-96.5" font-family="Helvetica,sans-Serif" font-size="10.00">Ratio</text>
</a>
</g>
</g>
<!-- Node3&#45;&gt;Node4 -->
<g id="edge3_Node000003_Node000004" class="edge">
<title>Node3&#45;&gt;Node4</title>
<g id="a_edge3_Node000003_Node000004"><a xlink:title=" ">
<path fill="none" stroke="#63b8ff" d="M246.12,-83.62C236.12,-85.74 225.97,-87.89 216.17,-89.96"/>
<polygon fill="#63b8ff" stroke="#63b8ff" points="247,-87.01 256.06,-81.52 245.55,-80.17 247,-87.01"/>
</a>
</g>
</g>
<!-- Node6 -->
<g id="Node000006" class="node">
<title>Node6</title>
<g id="a_Node000006"><a xlink:href="namespacecbrc.html#a2cde2566ec76e051d46f1e427eae9802" target="_top" xlink:title=" ">
<polygon fill="white" stroke="#666666" points="210.5,-71 82.5,-71 82.5,-52 210.5,-52 210.5,-71"/>
<text text-anchor="middle" x="146.5" y="-59" font-family="Helvetica,sans-Serif" font-size="10.00">cbrc::smoothMinPoints</text>
</a>
</g>
</g>
<!-- Node3&#45;&gt;Node6 -->
<g id="edge5_Node000003_Node000006" class="edge">
<title>Node3&#45;&gt;Node6</title>
<g id="a_edge5_Node000003_Node000006"><a xlink:title=" ">
<path fill="none" stroke="#63b8ff" d="M241.87,-64.13C231.35,-63.84 220.74,-63.54 210.62,-63.26"/>
<polygon fill="#63b8ff" stroke="#63b8ff" points="241.82,-67.63 251.92,-64.41 242.02,-60.63 241.82,-67.63"/>
</a>
</g>
</g>
<!-- Node5 -->
<g id="Node000005" class="node">
<title>Node5</title>
<g id="a_Node000005"><a xlink:href="labeledBlastToOddsRatio_8cc.html#a3c04138a5bfe5d72780bb7e82a18e627" target="_top" xlink:title=" ">
<polygon fill="white" stroke="#666666" points="41,-114 0,-114 0,-95 41,-95 41,-114"/>
<text text-anchor="middle" x="20.5" y="-102" font-family="Helvetica,sans-Serif" font-size="10.00">main</text>
</a>
</g>
</g>
<!-- Node4&#45;&gt;Node5 -->
<g id="edge4_Node000004_Node000005" class="edge">
<title>Node4&#45;&gt;Node5</title>
<g id="a_edge4_Node000004_Node000005"><a xlink:title=" ">
<path fill="none" stroke="#63b8ff" d="M66.95,-104.5C57.49,-104.5 48.59,-104.5 41.21,-104.5"/>
<polygon fill="#63b8ff" stroke="#63b8ff" points="66.97,-108 76.97,-104.5 66.97,-101 66.97,-108"/>
</a>
</g>
</g>
<!-- Node8 -->
<g id="Node000008" class="node">
<title>Node8</title>
<g id="a_Node000008"><a xlink:href="smoothMinSampleSize_8cc.html#ac0f2228420376f4db7e1274f2b41667c" target="_top" xlink:title=" ">
<polygon fill="white" stroke="#666666" points="167,-30 126,-30 126,-11 167,-11 167,-30"/>
<text text-anchor="middle" x="146.5" y="-18" font-family="Helvetica,sans-Serif" font-size="10.00">main</text>
</a>
</g>
</g>
<!-- Node7&#45;&gt;Node8 -->
<g id="edge7_Node000007_Node000008" class="edge">
<title>Node7&#45;&gt;Node8</title>
<g id="a_edge7_Node000007_Node000008"><a xlink:title=" ">
<path fill="none" stroke="#63b8ff" d="M253.88,-20.5C222.46,-20.5 188.21,-20.5 167.29,-20.5"/>
<polygon fill="#63b8ff" stroke="#63b8ff" points="253.97,-24 263.97,-20.5 253.97,-17 253.97,-24"/>
</a>
</g>
</g>
</g>
</svg>

<g id="navigator" transform="translate(0 0)" fill="#404254">
  <rect fill="#f2f5e9" fill-opacity="0.5" stroke="#606060" stroke-width=".5" x="0" y="0" width="60" height="60"/>
  <use id="zoomplus" xlink:href="#zoomPlus" x="17" y="9" onmousedown="handleZoom(evt,'in')"/>
  <use id="zoomminus" xlink:href="#zoomMin" x="42" y="9" onmousedown="handleZoom(evt,'out')"/>
  <use id="reset" xlink:href="#resetDef" x="30" y="36" onmousedown="handleReset()"/>
   <use id="arrowup" xlink:href="#arrowUp" x="0" y="0" onmousedown="handlePan(0,-1)"/>
  <use id="arrowright" xlink:href="#arrowRight" x="0" y="0" onmousedown="handlePan(1,0)"/>
  <use id="arrowdown" xlink:href="#arrowDown" x="0" y="0" onmousedown="handlePan(0,1)"/>
  <use id="arrowleft" xlink:href="#arrowLeft" x="0" y="0" onmousedown="handlePan(-1,0)"/>
</g>
<svg viewBox="0 0 15 15" width="100%" height="30px" preserveAspectRatio="xMaxYMin meet">
 <g id="arrow_out" transform="scale(0.3 0.3)">
  <a xlink:href="namespacecbrc_1_1smoothing_ac1ab7e34716884166d35b735e16b93d6_icgraph_org.svg" target="_base">
   <rect id="button" ry="5" rx="5" y="6" x="6" height="38" width="38"
        fill="#f2f5e9" fill-opacity="0.5" stroke="#606060" stroke-width="1.0"/>
   <path id="arrow"
     d="M 11.500037,31.436501 C 11.940474,20.09759 22.043105,11.32322 32.158766,21.979434 L 37.068811,17.246167 C 37.068811,17.246167 37.088388,32 37.088388,32 L 22.160133,31.978069 C 22.160133,31.978069 26.997745,27.140456 26.997745,27.140456 C 18.528582,18.264221 13.291696,25.230495 11.500037,31.436501 z"
     style="fill:#404040;"/>
  </a>
 </g>
</svg>

<style type='text/css'>
<![CDATA[
[data-mouse-over-selected='false'] { opacity: 0.7; }
[data-mouse-over-selected='true']  { opacity: 1.0; }
]]>
</style>
<script type="application/ecmascript"><![CDATA[
document.addEventListener('DOMContentLoaded', (event) => {
  highlightEdges();
  highlightAdjacentNodes();
});
]]></script>
</svg>
