<?xml version="1.0" encoding="UTF-8" standalone="no"?>
<!DOCTYPE svg PUBLIC "-//W3C//DTD SVG 1.1//EN"
 "http://www.w3.org/Graphics/SVG/1.1/DTD/svg11.dtd">
<!-- Generated by graphviz version 2.43.0 (0)
 -->
<!-- Title: cbrc::FLSortedFunctions::write Pages: 1 -->
<svg width="592pt" height="61pt"
 viewBox="0.00 0.00 592.00 60.50" xmlns="http://www.w3.org/2000/svg" xmlns:xlink="http://www.w3.org/1999/xlink">
<g id="graph0" class="graph" transform="scale(1 1) rotate(0) translate(4 56.5)">
<title>cbrc::FLSortedFunctions::write</title>
<!-- Node1 -->
<g id="Node000001" class="node">
<title>Node1</title>
<g id="a_Node000001"><a xlink:title=" ">
<polygon fill="#999999" stroke="#666666" points="132,-52.5 0,-52.5 0,-22.5 132,-22.5 132,-52.5"/>
<text text-anchor="start" x="8" y="-40.5" font-family="Helvetica,sans-Serif" font-size="10.00">cbrc::FLSortedFunctions</text>
<text text-anchor="middle" x="66" y="-29.5" font-family="Helvetica,sans-Serif" font-size="10.00">::write</text>
</a>
</g>
</g>
<!-- Node2 -->
<g id="Node000002" class="node">
<title>Node2</title>
<g id="a_Node000002"><a xlink:href="classcbrc_1_1FLEArray.html#ad71311380d762114c9e0f3b0dda38b7c" target="_top" xlink:title=" ">
<polygon fill="white" stroke="#666666" points="584,-47 473,-47 473,-28 584,-28 584,-47"/>
<text text-anchor="middle" x="528.5" y="-35" font-family="Helvetica,sans-Serif" font-size="10.00">cbrc::FLEArray::size</text>
</a>
</g>
</g>
<!-- Node1&#45;&gt;Node2 -->
<g id="edge1_Node000001_Node000002" class="edge">
<title>Node1&#45;&gt;Node2</title>
<g id="a_edge1_Node000001_Node000002"><a xlink:title=" ">
<path fill="none" stroke="#63b8ff" d="M132.15,-43.42C144.07,-44.29 156.4,-45.04 168,-45.5 271.01,-49.57 390.71,-45.06 462.7,-41.35"/>
<polygon fill="#63b8ff" stroke="#63b8ff" points="463.17,-44.83 472.97,-40.81 462.8,-37.84 463.17,-44.83"/>
</a>
</g>
</g>
<!-- Node3 -->
<g id="Node000003" class="node">
<title>Node3</title>
<g id="a_Node000003"><a xlink:href="classcbrc_1_1FLEArray.html#a67f88b1303a55d4e8039da5a9a739203" target="_top" xlink:title=" ">
<polygon fill="white" stroke="#666666" points="284,-19 168,-19 168,0 284,0 284,-19"/>
<text text-anchor="middle" x="226" y="-7" font-family="Helvetica,sans-Serif" font-size="10.00">cbrc::FLEArray::write</text>
</a>
</g>
</g>
<!-- Node1&#45;&gt;Node3 -->
<g id="edge2_Node000001_Node000003" class="edge">
<title>Node1&#45;&gt;Node3</title>
<g id="a_edge2_Node000001_Node000003"><a xlink:title=" ">
<path fill="none" stroke="#63b8ff" d="M132.18,-25.95C141.67,-24.27 151.43,-22.54 160.9,-20.86"/>
<polygon fill="#63b8ff" stroke="#63b8ff" points="161.79,-24.26 171.03,-19.07 160.57,-17.36 161.79,-24.26"/>
</a>
</g>
</g>
<!-- Node3&#45;&gt;Node3 -->
<g id="edge5_Node000003_Node000003" class="edge">
<title>Node3&#45;&gt;Node3</title>
<g id="a_edge5_Node000003_Node000003"><a xlink:title=" ">
<path fill="none" stroke="#63b8ff" d="M202.57,-19.08C191.18,-27.73 198.98,-37 226,-37 243.73,-37 253.19,-33.01 254.37,-27.82"/>
<polygon fill="#63b8ff" stroke="#63b8ff" points="257.4,-26.06 249.43,-19.08 251.31,-29.51 257.4,-26.06"/>
</a>
</g>
</g>
<!-- Node4 -->
<g id="Node000004" class="node">
<title>Node4</title>
<g id="a_Node000004"><a xlink:href="classcbrc_1_1FLEArray.html#a8255bcefe055e10a4fccd3331b450fee" target="_top" xlink:title=" ">
<polygon fill="white" stroke="#666666" points="437,-28 320,-28 320,-9 437,-9 437,-28"/>
<text text-anchor="middle" x="378.5" y="-16" font-family="Helvetica,sans-Serif" font-size="10.00">cbrc::FLEArray::bsize</text>
</a>
</g>
</g>
<!-- Node3&#45;&gt;Node4 -->
<g id="edge3_Node000003_Node000004" class="edge">
<title>Node3&#45;&gt;Node4</title>
<g id="a_edge3_Node000003_Node000004"><a xlink:title=" ">
<path fill="none" stroke="#63b8ff" d="M284.33,-12.93C292.59,-13.42 301.17,-13.94 309.62,-14.44"/>
<polygon fill="#63b8ff" stroke="#63b8ff" points="309.64,-17.95 319.83,-15.05 310.06,-10.96 309.64,-17.95"/>
</a>
</g>
</g>
<!-- Node4&#45;&gt;Node2 -->
<g id="edge4_Node000004_Node000002" class="edge">
<title>Node4&#45;&gt;Node2</title>
<g id="a_edge4_Node000004_Node000002"><a xlink:title=" ">
<path fill="none" stroke="#63b8ff" d="M437.14,-25.9C445.45,-26.97 454.05,-28.07 462.49,-29.15"/>
<polygon fill="#63b8ff" stroke="#63b8ff" points="462.32,-32.66 472.68,-30.46 463.21,-25.72 462.32,-32.66"/>
</a>
</g>
</g>
</g>
</svg>
