<?xml version="1.0" encoding="UTF-8" standalone="no"?>
<!DOCTYPE svg PUBLIC "-//W3C//DTD SVG 1.1//EN"
 "http://www.w3.org/Graphics/SVG/1.1/DTD/svg11.dtd">
<!-- Generated by graphviz version 2.43.0 (0)
 -->
<!-- Title: cbrc::observedMeanStdev_fromTrueCounts Pages: 1 -->
<!--zoomable 181 -->

<svg id="main" version="1.1" xmlns="http://www.w3.org/2000/svg" xmlns:xlink="http://www.w3.org/1999/xlink" xml:space="preserve" onload="init(evt)">
<style type="text/css"><![CDATA[
.node, .edge {opacity: 0.7;}
.node.selected, .edge.selected {opacity: 1;}
.edge:hover path { stroke: red; }
.edge:hover polygon { stroke: red; fill: red; }
]]></style>

<defs>
  <circle id="rim" cx="0" cy="0" r="7"/>
  <circle id="rim2" cx="0" cy="0" r="3.5"/>
  <g id="zoomPlus">
    <use xlink:href="#rim" fill="#404040"><set attributeName="fill" to="#808080" begin="zoomplus.mouseover" end="zoomplus.mouseout"/></use>
    <path d="M-4,0h8M0,-4v8" fill="none" stroke="white" stroke-width="1.5" pointer-events="none"/>
  </g>
  <g id="zoomMin">
    <use xlink:href="#rim" fill="#404040"><set attributeName="fill" to="#808080" begin="zoomminus.mouseover" end="zoomminus.mouseout"/></use>
    <path d="M-4,0h8" fill="none" stroke="white" stroke-width="1.5" pointer-events="none"/>
  </g>
  <g id="arrowUp" transform="translate(30 24)">
    <use xlink:href="#rim"/>
    <path pointer-events="none" fill="none" stroke="white" stroke-width="1.5" d="M0,-3.0v7 M-2.5,-0.5L0,-3.0L2.5,-0.5"/>
  </g>
  <g id="arrowRight" transform="rotate(90) translate(36 -43)">
    <use xlink:href="#rim"/>
    <path pointer-events="none" fill="none" stroke="white" stroke-width="1.5" d="M0,-3.0v7 M-2.5,-0.5L0,-3.0L2.5,-0.5"/>
  </g>
  <g id="arrowDown" transform="rotate(180) translate(-30 -48)">
    <use xlink:href="#rim"/>
    <path pointer-events="none" fill="none" stroke="white" stroke-width="1.5" d="M0,-3.0v7 M-2.5,-0.5L0,-3.0L2.5,-0.5"/>
  </g>
  <g id="arrowLeft" transform="rotate(270) translate(-36 17)">
    <use xlink:href="#rim"/>
    <path pointer-events="none" fill="none" stroke="white" stroke-width="1.5" d="M0,-3.0v7 M-2.5,-0.5L0,-3.0L2.5,-0.5"/>
  </g>
  <g id="resetDef">
    <use xlink:href="#rim2" fill="#404040"><set attributeName="fill" to="#808080" begin="reset.mouseover" end="reset.mouseout"/></use>
  </g>
</defs>
<script type="application/ecmascript">
var viewWidth = 1245;
var viewHeight = 181;
var sectionId = 'dynsection-70';
</script>
<script type="application/ecmascript" xlink:href="svg.min.js"/>
<svg id="graph" class="graph">
<g id="viewport">
<title>cbrc::observedMeanStdev_fromTrueCounts</title>
<!-- Node1 -->
<g id="Node000001" class="node">
<title>Node1</title>
<g id="a_Node000001"><a xlink:title=" ">
<polygon fill="#999999" stroke="#666666" points="143,-146.5 0,-146.5 0,-116.5 143,-116.5 143,-146.5"/>
<text text-anchor="start" x="8" y="-134.5" font-family="Helvetica,sans-Serif" font-size="10.00">cbrc::observedMeanStdev</text>
<text text-anchor="middle" x="71.5" y="-123.5" font-family="Helvetica,sans-Serif" font-size="10.00">_fromTrueCounts</text>
</a>
</g>
</g>
<!-- Node2 -->
<g id="Node000002" class="node">
<title>Node2</title>
<g id="a_Node000002"><a xlink:href="classcbrc_1_1FLEArray.html#ad71311380d762114c9e0f3b0dda38b7c" target="_top" xlink:title=" ">
<polygon fill="white" stroke="#666666" points="1225,-136 1114,-136 1114,-117 1225,-117 1225,-136"/>
<text text-anchor="middle" x="1169.5" y="-124" font-family="Helvetica,sans-Serif" font-size="10.00">cbrc::FLEArray::size</text>
</a>
</g>
</g>
<!-- Node1&#45;&gt;Node2 -->
<g id="edge1_Node000001_Node000002" class="edge">
<title>Node1&#45;&gt;Node2</title>
<g id="a_edge1_Node000001_Node000002"><a xlink:title=" ">
<path fill="none" stroke="#63b8ff" d="M143.1,-145.07C155.05,-147.09 167.36,-148.99 179,-150.5 298.84,-166.02 329.16,-172.5 450,-172.5 450,-172.5 450,-172.5 828,-172.5 930.7,-172.5 1049.26,-151.7 1115.91,-138.07"/>
<polygon fill="#63b8ff" stroke="#63b8ff" points="1116.67,-141.49 1125.75,-136.03 1115.25,-134.63 1116.67,-141.49"/>
</a>
</g>
</g>
<!-- Node3 -->
<g id="Node000003" class="node">
<title>Node3</title>
<g id="a_Node000003"><a xlink:href="classcbrc_1_1RecountTagCounts.html#aa60f9e495a5d5f341a7beedcc95a4755" target="_top" xlink:title=" ">
<polygon fill="white" stroke="#666666" points="339,-141 179,-141 179,-122 339,-122 339,-141"/>
<text text-anchor="middle" x="259" y="-129" font-family="Helvetica,sans-Serif" font-size="10.00">cbrc::RecountTagCounts::sum</text>
</a>
</g>
</g>
<!-- Node1&#45;&gt;Node3 -->
<g id="edge2_Node000001_Node000003" class="edge">
<title>Node1&#45;&gt;Node3</title>
<g id="a_edge2_Node000001_Node000003"><a xlink:title=" ">
<path fill="none" stroke="#63b8ff" d="M143.16,-131.5C151.55,-131.5 160.19,-131.5 168.8,-131.5"/>
<polygon fill="#63b8ff" stroke="#63b8ff" points="168.86,-135 178.86,-131.5 168.86,-128 168.86,-135"/>
</a>
</g>
</g>
<!-- Node5 -->
<g id="Node000005" class="node">
<title>Node5</title>
<g id="a_Node000005"><a xlink:href="classcbrc_1_1TagSet.html#a0ba2d925e4403f2092c7dda16c14d849" target="_top" xlink:title=" ">
<polygon fill="white" stroke="#666666" points="318.5,-86 199.5,-86 199.5,-67 318.5,-67 318.5,-86"/>
<text text-anchor="middle" x="259" y="-74" font-family="Helvetica,sans-Serif" font-size="10.00">cbrc::TagSet::toString</text>
</a>
</g>
</g>
<!-- Node1&#45;&gt;Node5 -->
<g id="edge4_Node000001_Node000005" class="edge">
<title>Node1&#45;&gt;Node5</title>
<g id="a_edge4_Node000001_Node000005"><a xlink:title=" ">
<path fill="none" stroke="#63b8ff" d="M123.19,-116.47C152.33,-107.83 188.49,-97.11 216.03,-88.94"/>
<polygon fill="#63b8ff" stroke="#63b8ff" points="217.16,-92.26 225.75,-86.06 215.17,-85.55 217.16,-92.26"/>
</a>
</g>
</g>
<!-- Node4 -->
<g id="Node000004" class="node">
<title>Node4</title>
<g id="a_Node000004"><a xlink:href="classcbrc_1_1RecountTagCounts.html#ae05c5de97d80fdb60f1ff6a004ffc6ff" target="_top" xlink:title=" ">
<polygon fill="white" stroke="#666666" points="517.5,-144.5 384.5,-144.5 384.5,-114.5 517.5,-114.5 517.5,-144.5"/>
<text text-anchor="start" x="392.5" y="-132.5" font-family="Helvetica,sans-Serif" font-size="10.00">cbrc::RecountTagCounts</text>
<text text-anchor="middle" x="451" y="-121.5" font-family="Helvetica,sans-Serif" font-size="10.00">::counts</text>
</a>
</g>
</g>
<!-- Node3&#45;&gt;Node4 -->
<g id="edge3_Node000003_Node000004" class="edge">
<title>Node3&#45;&gt;Node4</title>
<g id="a_edge3_Node000003_Node000004"><a xlink:title=" ">
<path fill="none" stroke="#63b8ff" d="M339.2,-130.67C350.86,-130.54 362.84,-130.42 374.42,-130.3"/>
<polygon fill="#63b8ff" stroke="#63b8ff" points="374.51,-133.79 384.47,-130.19 374.44,-126.8 374.51,-133.79"/>
</a>
</g>
</g>
<!-- Node5&#45;&gt;Node5 -->
<g id="edge6_Node000005_Node000005" class="edge">
<title>Node5&#45;&gt;Node5</title>
<g id="a_edge6_Node000005_Node000005"><a xlink:title=" ">
<path fill="none" stroke="#63b8ff" d="M230.33,-86.08C216.39,-94.73 225.94,-104 259,-104 281.73,-104 293.35,-99.62 293.86,-94.07"/>
<polygon fill="#63b8ff" stroke="#63b8ff" points="296.56,-91.84 287.67,-86.08 291.03,-96.13 296.56,-91.84"/>
</a>
</g>
</g>
<!-- Node6 -->
<g id="Node000006" class="node">
<title>Node6</title>
<g id="a_Node000006"><a xlink:href="classcbrc_1_1TagSet.html#aefba617c77efd2a537a2ebba52e06678" target="_top" xlink:title=" ">
<polygon fill="white" stroke="#666666" points="501.5,-96 400.5,-96 400.5,-77 501.5,-77 501.5,-96"/>
<text text-anchor="middle" x="451" y="-84" font-family="Helvetica,sans-Serif" font-size="10.00">cbrc::TagSet::size</text>
</a>
</g>
</g>
<!-- Node5&#45;&gt;Node6 -->
<g id="edge5_Node000005_Node000006" class="edge">
<title>Node5&#45;&gt;Node6</title>
<g id="a_edge5_Node000005_Node000006"><a xlink:title=" ">
<path fill="none" stroke="#63b8ff" d="M318.56,-79.58C341.25,-80.78 367.21,-82.14 390.04,-83.34"/>
<polygon fill="#63b8ff" stroke="#63b8ff" points="390.11,-86.85 400.28,-83.88 390.48,-79.86 390.11,-86.85"/>
</a>
</g>
</g>
<!-- Node7 -->
<g id="Node000007" class="node">
<title>Node7</title>
<g id="a_Node000007"><a xlink:href="namespacecbrc_1_1sigma4bitPackingUtils.html#a9b1eae84102a8fcf18ac8ad21deba6bb" target="_top" xlink:title=" ">
<polygon fill="white" stroke="#666666" points="527,-58.5 375,-58.5 375,-28.5 527,-28.5 527,-58.5"/>
<text text-anchor="start" x="383" y="-46.5" font-family="Helvetica,sans-Serif" font-size="10.00">cbrc::sigma4bitPackingUtils</text>
<text text-anchor="middle" x="451" y="-35.5" font-family="Helvetica,sans-Serif" font-size="10.00">::toUnpacked</text>
</a>
</g>
</g>
<!-- Node5&#45;&gt;Node7 -->
<g id="edge7_Node000005_Node000007" class="edge">
<title>Node5&#45;&gt;Node7</title>
<g id="a_edge7_Node000005_Node000007"><a xlink:title=" ">
<path fill="none" stroke="#63b8ff" d="M314.7,-67C330.37,-64.28 347.84,-61.24 364.88,-58.28"/>
<polygon fill="#63b8ff" stroke="#63b8ff" points="365.59,-61.71 374.84,-56.55 364.39,-54.82 365.59,-61.71"/>
</a>
</g>
</g>
<!-- Node8 -->
<g id="Node000008" class="node">
<title>Node8</title>
<g id="a_Node000008"><a xlink:href="namespacecbrc_1_1sigma4bitPackingUtils.html#ac768f6a9aa4a25043b08fb0946b8a14a" target="_top" xlink:title=" ">
<polygon fill="white" stroke="#666666" points="715,-61.5 563,-61.5 563,-31.5 715,-31.5 715,-61.5"/>
<text text-anchor="start" x="571" y="-49.5" font-family="Helvetica,sans-Serif" font-size="10.00">cbrc::sigma4bitPackingUtils</text>
<text text-anchor="middle" x="639" y="-38.5" font-family="Helvetica,sans-Serif" font-size="10.00">::unpack</text>
</a>
</g>
</g>
<!-- Node7&#45;&gt;Node8 -->
<g id="edge8_Node000007_Node000008" class="edge">
<title>Node7&#45;&gt;Node8</title>
<g id="a_edge8_Node000007_Node000008"><a xlink:title=" ">
<path fill="none" stroke="#63b8ff" d="M527.12,-44.71C535.6,-44.85 544.28,-44.99 552.87,-45.13"/>
<polygon fill="#63b8ff" stroke="#63b8ff" points="552.85,-48.63 562.9,-45.29 552.96,-41.63 552.85,-48.63"/>
</a>
</g>
</g>
<!-- Node9 -->
<g id="Node000009" class="node">
<title>Node9</title>
<g id="a_Node000009"><a xlink:href="namespacecbrc_1_1sigma4bitPackingUtils.html#a8fa96777f42cebda95d8a41e87a5f6f3" target="_top" xlink:title=" ">
<polygon fill="white" stroke="#666666" points="903,-141.5 751,-141.5 751,-111.5 903,-111.5 903,-141.5"/>
<text text-anchor="start" x="759" y="-129.5" font-family="Helvetica,sans-Serif" font-size="10.00">cbrc::sigma4bitPackingUtils</text>
<text text-anchor="middle" x="827" y="-118.5" font-family="Helvetica,sans-Serif" font-size="10.00">::assignNthUnpacked</text>
</a>
</g>
</g>
<!-- Node8&#45;&gt;Node9 -->
<g id="edge9_Node000008_Node000009" class="edge">
<title>Node8&#45;&gt;Node9</title>
<g id="a_edge9_Node000008_Node000009"><a xlink:title=" ">
<path fill="none" stroke="#63b8ff" d="M666.81,-61.53C688.96,-73.57 721.44,-90.4 751,-102.5 755.7,-104.42 760.62,-106.3 765.59,-108.09"/>
<polygon fill="#63b8ff" stroke="#63b8ff" points="764.59,-111.45 775.18,-111.44 766.89,-104.84 764.59,-111.45"/>
</a>
</g>
</g>
<!-- Node10 -->
<g id="Node000010" class="node">
<title>Node10</title>
<g id="a_Node000010"><a xlink:href="classcbrc_1_1FLEArray.html#a7e5d0d3bc5c41546620ccff95b55b3fa" target="_top" xlink:title=" ">
<polygon fill="white" stroke="#666666" points="886.5,-93 767.5,-93 767.5,-74 886.5,-74 886.5,-93"/>
<text text-anchor="middle" x="827" y="-81" font-family="Helvetica,sans-Serif" font-size="10.00">cbrc::FLEArray::begin</text>
</a>
</g>
</g>
<!-- Node8&#45;&gt;Node10 -->
<g id="edge10_Node000008_Node000010" class="edge">
<title>Node8&#45;&gt;Node10</title>
<g id="a_edge10_Node000008_Node000010"><a xlink:title=" ">
<path fill="none" stroke="#63b8ff" d="M715.12,-61.44C732.73,-64.95 751.24,-68.63 767.98,-71.96"/>
<polygon fill="#63b8ff" stroke="#63b8ff" points="767.66,-75.46 778.15,-73.98 769.02,-68.6 767.66,-75.46"/>
</a>
</g>
</g>
<!-- Node11 -->
<g id="Node000011" class="node">
<title>Node11</title>
<g id="a_Node000011"><a xlink:href="classcbrc_1_1FLEArray.html#a8c53878dc57e8f666976e041d146a523" target="_top" xlink:title=" ">
<polygon fill="white" stroke="#666666" points="882,-56 772,-56 772,-37 882,-37 882,-56"/>
<text text-anchor="middle" x="827" y="-44" font-family="Helvetica,sans-Serif" font-size="10.00">cbrc::FLEArray::end</text>
</a>
</g>
</g>
<!-- Node8&#45;&gt;Node11 -->
<g id="edge11_Node000008_Node000011" class="edge">
<title>Node8&#45;&gt;Node11</title>
<g id="a_edge11_Node000008_Node000011"><a xlink:title=" ">
<path fill="none" stroke="#63b8ff" d="M715.12,-46.5C730.52,-46.5 746.6,-46.5 761.58,-46.5"/>
<polygon fill="#63b8ff" stroke="#63b8ff" points="761.76,-50 771.76,-46.5 761.76,-43 761.76,-50"/>
</a>
</g>
</g>
<!-- Node12 -->
<g id="Node000012" class="node">
<title>Node12</title>
<g id="a_Node000012"><a xlink:href="classcbrc_1_1FLEArray.html#ad003950bdededca7ee3b3dd6cd6ea644" target="_top" xlink:title=" ">
<polygon fill="white" stroke="#666666" points="887.5,-19 766.5,-19 766.5,0 887.5,0 887.5,-19"/>
<text text-anchor="middle" x="827" y="-7" font-family="Helvetica,sans-Serif" font-size="10.00">cbrc::FLEArray::resize</text>
</a>
</g>
</g>
<!-- Node8&#45;&gt;Node12 -->
<g id="edge12_Node000008_Node000012" class="edge">
<title>Node8&#45;&gt;Node12</title>
<g id="a_edge12_Node000008_Node000012"><a xlink:title=" ">
<path fill="none" stroke="#63b8ff" d="M715.12,-31.56C732.73,-28.05 751.24,-24.37 767.98,-21.04"/>
<polygon fill="#63b8ff" stroke="#63b8ff" points="769.02,-24.4 778.15,-19.02 767.66,-17.54 769.02,-24.4"/>
</a>
</g>
</g>
<!-- Node13 -->
<g id="Node000013" class="node">
<title>Node13</title>
<g id="a_Node000013"><a xlink:href="classcbrc_1_1FLEArray.html#a5368c7c0434bd5c119d2cbb39f4b399e" target="_top" xlink:title=" ">
<polygon fill="white" stroke="#666666" points="1237,-38 1102,-38 1102,-19 1237,-19 1237,-38"/>
<text text-anchor="middle" x="1169.5" y="-26" font-family="Helvetica,sans-Serif" font-size="10.00">cbrc::FLEArray::FLEArray</text>
</a>
</g>
</g>
<!-- Node12&#45;&gt;Node13 -->
<g id="edge13_Node000012_Node000013" class="edge">
<title>Node12&#45;&gt;Node13</title>
<g id="a_edge13_Node000012_Node000013"><a xlink:title=" ">
<path fill="none" stroke="#63b8ff" d="M887.7,-12.83C944.43,-16 1030.02,-20.77 1091.78,-24.22"/>
<polygon fill="#63b8ff" stroke="#63b8ff" points="1091.69,-27.72 1101.87,-24.78 1092.08,-20.73 1091.69,-27.72"/>
</a>
</g>
</g>
<!-- Node14 -->
<g id="Node000014" class="node">
<title>Node14</title>
<g id="a_Node000014"><a xlink:href="classcbrc_1_1FLEArray.html#a5f10f892188c41f2821ef33ee9bcc743" target="_top" xlink:title=" ">
<polygon fill="white" stroke="#666666" points="1066,-57 939,-57 939,-38 1066,-38 1066,-57"/>
<text text-anchor="middle" x="1002.5" y="-45" font-family="Helvetica,sans-Serif" font-size="10.00">cbrc::FLEArray::setSize</text>
</a>
</g>
</g>
<!-- Node12&#45;&gt;Node14 -->
<g id="edge15_Node000012_Node000014" class="edge">
<title>Node12&#45;&gt;Node14</title>
<g id="a_edge15_Node000012_Node000014"><a xlink:title=" ">
<path fill="none" stroke="#63b8ff" d="M871.78,-19.09C894.99,-24.17 923.68,-30.46 948.17,-35.82"/>
<polygon fill="#63b8ff" stroke="#63b8ff" points="947.52,-39.26 958.03,-37.98 949.01,-32.42 947.52,-39.26"/>
</a>
</g>
</g>
<!-- Node13&#45;&gt;Node13 -->
<g id="edge14_Node000013_Node000013" class="edge">
<title>Node13&#45;&gt;Node13</title>
<g id="a_edge14_Node000013_Node000013"><a xlink:title=" ">
<path fill="none" stroke="#63b8ff" d="M1143.91,-38.08C1131.47,-46.73 1140,-56 1169.5,-56 1188.86,-56 1199.19,-52.01 1200.49,-46.82"/>
<polygon fill="#63b8ff" stroke="#63b8ff" points="1203.32,-44.75 1195.09,-38.08 1197.37,-48.43 1203.32,-44.75"/>
</a>
</g>
</g>
<!-- Node14&#45;&gt;Node2 -->
<g id="edge17_Node000014_Node000002" class="edge">
<title>Node14&#45;&gt;Node2</title>
<g id="a_edge17_Node000014_Node000002"><a xlink:title=" ">
<path fill="none" stroke="#63b8ff" d="M1023.4,-57.03C1052.27,-70.85 1105.93,-96.54 1139.29,-112.51"/>
<polygon fill="#63b8ff" stroke="#63b8ff" points="1138,-115.78 1148.53,-116.94 1141.02,-109.46 1138,-115.78"/>
</a>
</g>
</g>
<!-- Node14&#45;&gt;Node13 -->
<g id="edge16_Node000014_Node000013" class="edge">
<title>Node14&#45;&gt;Node13</title>
<g id="a_edge16_Node000014_Node000013"><a xlink:title=" ">
<path fill="none" stroke="#63b8ff" d="M1066.35,-40.26C1074.73,-39.3 1083.39,-38.3 1091.97,-37.31"/>
<polygon fill="#63b8ff" stroke="#63b8ff" points="1092.45,-40.78 1101.98,-36.16 1091.65,-33.83 1092.45,-40.78"/>
</a>
</g>
</g>
</g>
</svg>

<g id="navigator" transform="translate(0 0)" fill="#404254">
  <rect fill="#f2f5e9" fill-opacity="0.5" stroke="#606060" stroke-width=".5" x="0" y="0" width="60" height="60"/>
  <use id="zoomplus" xlink:href="#zoomPlus" x="17" y="9" onmousedown="handleZoom(evt,'in')"/>
  <use id="zoomminus" xlink:href="#zoomMin" x="42" y="9" onmousedown="handleZoom(evt,'out')"/>
  <use id="reset" xlink:href="#resetDef" x="30" y="36" onmousedown="handleReset()"/>
   <use id="arrowup" xlink:href="#arrowUp" x="0" y="0" onmousedown="handlePan(0,-1)"/>
  <use id="arrowright" xlink:href="#arrowRight" x="0" y="0" onmousedown="handlePan(1,0)"/>
  <use id="arrowdown" xlink:href="#arrowDown" x="0" y="0" onmousedown="handlePan(0,1)"/>
  <use id="arrowleft" xlink:href="#arrowLeft" x="0" y="0" onmousedown="handlePan(-1,0)"/>
</g>
<svg viewBox="0 0 15 15" width="100%" height="30px" preserveAspectRatio="xMaxYMin meet">
 <g id="arrow_out" transform="scale(0.3 0.3)">
  <a xlink:href="namespacecbrc_aa3b9b929137a6f28e0e85c38c585b1de_cgraph_org.svg" target="_base">
   <rect id="button" ry="5" rx="5" y="6" x="6" height="38" width="38"
        fill="#f2f5e9" fill-opacity="0.5" stroke="#606060" stroke-width="1.0"/>
   <path id="arrow"
     d="M 11.500037,31.436501 C 11.940474,20.09759 22.043105,11.32322 32.158766,21.979434 L 37.068811,17.246167 C 37.068811,17.246167 37.088388,32 37.088388,32 L 22.160133,31.978069 C 22.160133,31.978069 26.997745,27.140456 26.997745,27.140456 C 18.528582,18.264221 13.291696,25.230495 11.500037,31.436501 z"
     style="fill:#404040;"/>
  </a>
 </g>
</svg>

<style type='text/css'>
<![CDATA[
[data-mouse-over-selected='false'] { opacity: 0.7; }
[data-mouse-over-selected='true']  { opacity: 1.0; }
]]>
</style>
<script type="application/ecmascript"><![CDATA[
document.addEventListener('DOMContentLoaded', (event) => {
  highlightEdges();
  highlightAdjacentNodes();
});
]]></script>
</svg>
