<?xml version="1.0" encoding="UTF-8" standalone="no"?>
<!DOCTYPE svg PUBLIC "-//W3C//DTD SVG 1.1//EN"
 "http://www.w3.org/Graphics/SVG/1.1/DTD/svg11.dtd">
<!-- Generated by graphviz version 2.43.0 (0)
 -->
<!-- Title: cbrc::sprotToFasta Pages: 1 -->
<svg width="433pt" height="82pt"
 viewBox="0.00 0.00 433.00 82.00" xmlns="http://www.w3.org/2000/svg" xmlns:xlink="http://www.w3.org/1999/xlink">
<g id="graph0" class="graph" transform="scale(1 1) rotate(0) translate(4 78)">
<title>cbrc::sprotToFasta</title>
<!-- Node1 -->
<g id="Node000001" class="node">
<title>Node1</title>
<g id="a_Node000001"><a xlink:title=" ">
<polygon fill="#999999" stroke="#666666" points="104,-37 0,-37 0,-18 104,-18 104,-37"/>
<text text-anchor="middle" x="52" y="-25" font-family="Helvetica,sans-Serif" font-size="10.00">cbrc::sprotToFasta</text>
</a>
</g>
</g>
<!-- Node2 -->
<g id="Node000002" class="node">
<title>Node2</title>
<g id="a_Node000002"><a xlink:href="classcbrc_1_1FLEArray.html#a5935847e541b1e70406ea046b2b4e97e" target="_top" xlink:title=" ">
<polygon fill="white" stroke="#666666" points="254,-37 140,-37 140,-18 254,-18 254,-37"/>
<text text-anchor="middle" x="197" y="-25" font-family="Helvetica,sans-Serif" font-size="10.00">cbrc::FLEArray::print</text>
</a>
</g>
</g>
<!-- Node1&#45;&gt;Node2 -->
<g id="edge1_Node000001_Node000002" class="edge">
<title>Node1&#45;&gt;Node2</title>
<g id="a_edge1_Node000001_Node000002"><a xlink:title=" ">
<path fill="none" stroke="#63b8ff" d="M104.22,-27.5C112.52,-27.5 121.21,-27.5 129.8,-27.5"/>
<polygon fill="#63b8ff" stroke="#63b8ff" points="129.8,-31 139.8,-27.5 129.8,-24 129.8,-31"/>
</a>
</g>
</g>
<!-- Node3 -->
<g id="Node000003" class="node">
<title>Node3</title>
<g id="a_Node000003"><a xlink:href="classcbrc_1_1FLEArray.html#a5368c7c0434bd5c119d2cbb39f4b399e" target="_top" xlink:title=" ">
<polygon fill="white" stroke="#666666" points="425,-56 290,-56 290,-37 425,-37 425,-56"/>
<text text-anchor="middle" x="357.5" y="-44" font-family="Helvetica,sans-Serif" font-size="10.00">cbrc::FLEArray::FLEArray</text>
</a>
</g>
</g>
<!-- Node2&#45;&gt;Node3 -->
<g id="edge2_Node000002_Node000003" class="edge">
<title>Node2&#45;&gt;Node3</title>
<g id="a_edge2_Node000002_Node000003"><a xlink:title=" ">
<path fill="none" stroke="#63b8ff" d="M254.33,-34.25C262.58,-35.24 271.19,-36.27 279.76,-37.3"/>
<polygon fill="#63b8ff" stroke="#63b8ff" points="279.44,-40.79 289.79,-38.5 280.27,-33.84 279.44,-40.79"/>
</a>
</g>
</g>
<!-- Node4 -->
<g id="Node000004" class="node">
<title>Node4</title>
<g id="a_Node000004"><a xlink:href="classcbrc_1_1FLEArray.html#ad71311380d762114c9e0f3b0dda38b7c" target="_top" xlink:title=" ">
<polygon fill="white" stroke="#666666" points="413,-19 302,-19 302,0 413,0 413,-19"/>
<text text-anchor="middle" x="357.5" y="-7" font-family="Helvetica,sans-Serif" font-size="10.00">cbrc::FLEArray::size</text>
</a>
</g>
</g>
<!-- Node2&#45;&gt;Node4 -->
<g id="edge4_Node000002_Node000004" class="edge">
<title>Node2&#45;&gt;Node4</title>
<g id="a_edge4_Node000002_Node000004"><a xlink:title=" ">
<path fill="none" stroke="#63b8ff" d="M254.33,-21.1C266.42,-19.73 279.3,-18.27 291.69,-16.86"/>
<polygon fill="#63b8ff" stroke="#63b8ff" points="292.41,-20.3 301.95,-15.69 291.62,-13.35 292.41,-20.3"/>
</a>
</g>
</g>
<!-- Node3&#45;&gt;Node3 -->
<g id="edge3_Node000003_Node000003" class="edge">
<title>Node3&#45;&gt;Node3</title>
<g id="a_edge3_Node000003_Node000003"><a xlink:title=" ">
<path fill="none" stroke="#63b8ff" d="M332.84,-56.08C320.84,-64.73 329.06,-74 357.5,-74 376.16,-74 386.12,-70.01 387.37,-64.82"/>
<polygon fill="#63b8ff" stroke="#63b8ff" points="390.29,-62.88 382.16,-56.08 384.27,-66.47 390.29,-62.88"/>
</a>
</g>
</g>
</g>
</svg>
