<?xml version="1.0" encoding="UTF-8" standalone="no"?>
<!DOCTYPE svg PUBLIC "-//W3C//DTD SVG 1.1//EN"
 "http://www.w3.org/Graphics/SVG/1.1/DTD/svg11.dtd">
<!-- Generated by graphviz version 2.43.0 (0)
 -->
<!-- Title: ematch_src/utils/stl/pushbackLiteral.hh Pages: 1 -->
<svg width="1225pt" height="203pt"
 viewBox="0.00 0.00 1225.00 203.00" xmlns="http://www.w3.org/2000/svg" xmlns:xlink="http://www.w3.org/1999/xlink">
<g id="graph0" class="graph" transform="scale(1 1) rotate(0) translate(4 199)">
<title>ematch_src/utils/stl/pushbackLiteral.hh</title>
<!-- Node1 -->
<g id="Node000001" class="node">
<title>Node1</title>
<g id="a_Node000001"><a xlink:title=" ">
<polygon fill="#999999" stroke="#666666" points="1081.5,-195 969.5,-195 969.5,-165 1081.5,-165 1081.5,-195"/>
<text text-anchor="start" x="977.5" y="-183" font-family="Helvetica,sans-Serif" font-size="10.00">ematch_src/utils/stl</text>
<text text-anchor="middle" x="1025.5" y="-172" font-family="Helvetica,sans-Serif" font-size="10.00">/pushbackLiteral.hh</text>
</a>
</g>
</g>
<!-- Node2 -->
<g id="Node000002" class="node">
<title>Node2</title>
<g id="a_Node000002"><a xlink:title=" ">
<polygon fill="#e0e0e0" stroke="#999999" points="332.5,-19 272.5,-19 272.5,0 332.5,0 332.5,-19"/>
<text text-anchor="middle" x="302.5" y="-7" font-family="Helvetica,sans-Serif" font-size="10.00">iostream</text>
</a>
</g>
</g>
<!-- Node1&#45;&gt;Node2 -->
<g id="edge1_Node000001_Node000002" class="edge">
<title>Node1&#45;&gt;Node2</title>
<g id="a_edge1_Node000001_Node000002"><a xlink:title=" ">
<path fill="none" stroke="#63b8ff" d="M969.37,-175.17C806.8,-163.49 344.49,-125.93 302.5,-74 292.44,-61.55 293.79,-42.8 296.84,-28.9"/>
<polygon fill="#63b8ff" stroke="#63b8ff" points="300.29,-29.56 299.47,-19 293.52,-27.77 300.29,-29.56"/>
</a>
</g>
</g>
<!-- Node3 -->
<g id="Node000003" class="node">
<title>Node3</title>
<g id="a_Node000003"><a xlink:title=" ">
<polygon fill="#e0e0e0" stroke="#999999" points="1009.5,-19 965.5,-19 965.5,0 1009.5,0 1009.5,-19"/>
<text text-anchor="middle" x="987.5" y="-7" font-family="Helvetica,sans-Serif" font-size="10.00">string</text>
</a>
</g>
</g>
<!-- Node1&#45;&gt;Node3 -->
<g id="edge2_Node000001_Node000003" class="edge">
<title>Node1&#45;&gt;Node3</title>
<g id="a_edge2_Node000001_Node000003"><a xlink:title=" ">
<path fill="none" stroke="#63b8ff" d="M1031.7,-164.85C1041.16,-141 1056.44,-91.8 1039.5,-55 1033.75,-42.52 1022.59,-32.24 1012.08,-24.71"/>
<polygon fill="#63b8ff" stroke="#63b8ff" points="1013.8,-21.65 1003.53,-19.05 1009.93,-27.49 1013.8,-21.65"/>
</a>
</g>
</g>
<!-- Node4 -->
<g id="Node000004" class="node">
<title>Node4</title>
<g id="a_Node000004"><a xlink:title=" ">
<polygon fill="#e0e0e0" stroke="#999999" points="928,-19 881,-19 881,0 928,0 928,-19"/>
<text text-anchor="middle" x="904.5" y="-7" font-family="Helvetica,sans-Serif" font-size="10.00">vector</text>
</a>
</g>
</g>
<!-- Node1&#45;&gt;Node4 -->
<g id="edge3_Node000001_Node000004" class="edge">
<title>Node1&#45;&gt;Node4</title>
<g id="a_edge3_Node000001_Node000004"><a xlink:title=" ">
<path fill="none" stroke="#63b8ff" d="M1021.62,-164.63C1014.43,-140.02 997.09,-89.15 968.5,-55 958.01,-42.48 943.19,-31.87 930.45,-24.16"/>
<polygon fill="#63b8ff" stroke="#63b8ff" points="932.04,-21.03 921.63,-19.06 928.54,-27.1 932.04,-21.03"/>
</a>
</g>
</g>
<!-- Node5 -->
<g id="Node000005" class="node">
<title>Node5</title>
<g id="a_Node000005"><a xlink:title=" ">
<polygon fill="#e0e0e0" stroke="#999999" points="1217,-129 1092,-129 1092,-110 1217,-110 1217,-129"/>
<text text-anchor="middle" x="1154.5" y="-117" font-family="Helvetica,sans-Serif" font-size="10.00">boost/lexical_cast.hpp</text>
</a>
</g>
</g>
<!-- Node1&#45;&gt;Node5 -->
<g id="edge4_Node000001_Node000005" class="edge">
<title>Node1&#45;&gt;Node5</title>
<g id="a_edge4_Node000001_Node000005"><a xlink:title=" ">
<path fill="none" stroke="#63b8ff" d="M1056.4,-164.99C1077.63,-155.36 1105.61,-142.67 1126.25,-133.31"/>
<polygon fill="#63b8ff" stroke="#63b8ff" points="1127.79,-136.46 1135.45,-129.14 1124.9,-130.08 1127.79,-136.46"/>
</a>
</g>
</g>
<!-- Node6 -->
<g id="Node000006" class="node">
<title>Node6</title>
<g id="a_Node000006"><a xlink:href="ematch__src_2utils_2perlish_2perlish_8hh.html" target="_top" xlink:title=" ">
<polygon fill="white" stroke="#666666" points="693,-129 568,-129 568,-110 693,-110 693,-129"/>
<text text-anchor="middle" x="630.5" y="-117" font-family="Helvetica,sans-Serif" font-size="10.00">utils/perlish/perlish.hh</text>
</a>
</g>
</g>
<!-- Node1&#45;&gt;Node6 -->
<g id="edge5_Node000001_Node000006" class="edge">
<title>Node1&#45;&gt;Node6</title>
<g id="a_edge5_Node000001_Node000006"><a xlink:title=" ">
<path fill="none" stroke="#63b8ff" d="M969.33,-170.68C897.88,-160.1 774.62,-141.84 698.1,-130.51"/>
<polygon fill="#63b8ff" stroke="#63b8ff" points="698.49,-127.03 688.08,-129.03 697.46,-133.96 698.49,-127.03"/>
</a>
</g>
</g>
<!-- Node6&#45;&gt;Node2 -->
<g id="edge7_Node000006_Node000002" class="edge">
<title>Node6&#45;&gt;Node2</title>
<g id="a_edge7_Node000006_Node000002"><a xlink:title=" ">
<path fill="none" stroke="#63b8ff" d="M567.67,-117.7C486.97,-115.34 353.07,-106.48 317.5,-74 305.36,-62.91 302.16,-43.97 301.67,-29.66"/>
<polygon fill="#63b8ff" stroke="#63b8ff" points="305.17,-29.43 301.74,-19.41 298.17,-29.38 305.17,-29.43"/>
</a>
</g>
</g>
<!-- Node6&#45;&gt;Node3 -->
<g id="edge10_Node000006_Node000003" class="edge">
<title>Node6&#45;&gt;Node3</title>
<g id="a_edge10_Node000006_Node000003"><a xlink:title=" ">
<path fill="none" stroke="#63b8ff" d="M693.26,-118.16C779.41,-116.4 928.23,-108.3 968.5,-74 981.36,-63.05 985.72,-43.78 987.1,-29.34"/>
<polygon fill="#63b8ff" stroke="#63b8ff" points="990.61,-29.21 987.67,-19.03 983.62,-28.82 990.61,-29.21"/>
</a>
</g>
</g>
<!-- Node6&#45;&gt;Node4 -->
<g id="edge11_Node000006_Node000004" class="edge">
<title>Node6&#45;&gt;Node4</title>
<g id="a_edge11_Node000006_Node000004"><a xlink:title=" ">
<path fill="none" stroke="#63b8ff" d="M665.98,-109.96C696.78,-102.07 742.3,-89.3 780.5,-74 816.77,-59.48 856.65,-37.99 881.13,-24.12"/>
<polygon fill="#63b8ff" stroke="#63b8ff" points="883.08,-27.04 890.03,-19.03 879.61,-20.96 883.08,-27.04"/>
</a>
</g>
</g>
<!-- Node7 -->
<g id="Node000007" class="node">
<title>Node7</title>
<g id="a_Node000007"><a xlink:title=" ">
<polygon fill="#e0e0e0" stroke="#999999" points="380,-74 327,-74 327,-55 380,-55 380,-74"/>
<text text-anchor="middle" x="353.5" y="-62" font-family="Helvetica,sans-Serif" font-size="10.00">ctype.h</text>
</a>
</g>
</g>
<!-- Node6&#45;&gt;Node7 -->
<g id="edge6_Node000006_Node000007" class="edge">
<title>Node6&#45;&gt;Node7</title>
<g id="a_edge6_Node000006_Node000007"><a xlink:title=" ">
<path fill="none" stroke="#63b8ff" d="M579.35,-109.96C532.46,-101.93 460.88,-89.19 390.18,-74.27"/>
<polygon fill="#63b8ff" stroke="#63b8ff" points="390.73,-70.81 380.22,-72.15 389.27,-77.66 390.73,-70.81"/>
</a>
</g>
</g>
<!-- Node8 -->
<g id="Node000008" class="node">
<title>Node8</title>
<g id="a_Node000008"><a xlink:title=" ">
<polygon fill="#e0e0e0" stroke="#999999" points="453,-74 398,-74 398,-55 453,-55 453,-74"/>
<text text-anchor="middle" x="425.5" y="-62" font-family="Helvetica,sans-Serif" font-size="10.00">fstream</text>
</a>
</g>
</g>
<!-- Node6&#45;&gt;Node8 -->
<g id="edge8_Node000006_Node000008" class="edge">
<title>Node6&#45;&gt;Node8</title>
<g id="a_edge8_Node000006_Node000008"><a xlink:title=" ">
<path fill="none" stroke="#63b8ff" d="M597.56,-109.98C560.78,-100.48 501.38,-85.12 462.88,-75.17"/>
<polygon fill="#63b8ff" stroke="#63b8ff" points="463.66,-71.75 453.1,-72.63 461.9,-78.53 463.66,-71.75"/>
</a>
</g>
</g>
<!-- Node9 -->
<g id="Node000009" class="node">
<title>Node9</title>
<g id="a_Node000009"><a xlink:title=" ">
<polygon fill="#e0e0e0" stroke="#999999" points="527.5,-74 471.5,-74 471.5,-55 527.5,-55 527.5,-74"/>
<text text-anchor="middle" x="499.5" y="-62" font-family="Helvetica,sans-Serif" font-size="10.00">sstream</text>
</a>
</g>
</g>
<!-- Node6&#45;&gt;Node9 -->
<g id="edge9_Node000006_Node000009" class="edge">
<title>Node6&#45;&gt;Node9</title>
<g id="a_edge9_Node000006_Node000009"><a xlink:title=" ">
<path fill="none" stroke="#63b8ff" d="M609.45,-109.98C588.09,-101.34 554.8,-87.87 530.44,-78.02"/>
<polygon fill="#63b8ff" stroke="#63b8ff" points="531.51,-74.68 520.93,-74.17 528.89,-81.17 531.51,-74.68"/>
</a>
</g>
</g>
<!-- Node10 -->
<g id="Node000010" class="node">
<title>Node10</title>
<g id="a_Node000010"><a xlink:title=" ">
<polygon fill="#e0e0e0" stroke="#999999" points="601.5,-74 545.5,-74 545.5,-55 601.5,-55 601.5,-74"/>
<text text-anchor="middle" x="573.5" y="-62" font-family="Helvetica,sans-Serif" font-size="10.00">assert.h</text>
</a>
</g>
</g>
<!-- Node6&#45;&gt;Node10 -->
<g id="edge12_Node000006_Node000010" class="edge">
<title>Node6&#45;&gt;Node10</title>
<g id="a_edge12_Node000006_Node000010"><a xlink:title=" ">
<path fill="none" stroke="#63b8ff" d="M621.34,-109.98C613,-102.23 600.47,-90.58 590.32,-81.14"/>
<polygon fill="#63b8ff" stroke="#63b8ff" points="592.53,-78.42 582.82,-74.17 587.76,-83.54 592.53,-78.42"/>
</a>
</g>
</g>
<!-- Node11 -->
<g id="Node000011" class="node">
<title>Node11</title>
<g id="a_Node000011"><a xlink:title=" ">
<polygon fill="#e0e0e0" stroke="#999999" points="783,-19 688,-19 688,0 783,0 783,-19"/>
<text text-anchor="middle" x="735.5" y="-7" font-family="Helvetica,sans-Serif" font-size="10.00">boost/regex.hpp</text>
</a>
</g>
</g>
<!-- Node6&#45;&gt;Node11 -->
<g id="edge13_Node000006_Node000011" class="edge">
<title>Node6&#45;&gt;Node11</title>
<g id="a_edge13_Node000006_Node000011"><a xlink:title=" ">
<path fill="none" stroke="#63b8ff" d="M693.01,-113.6C719.54,-108.06 748.08,-96.76 764.5,-74 775.07,-59.35 763.5,-40.23 751.99,-26.82"/>
<polygon fill="#63b8ff" stroke="#63b8ff" points="754.39,-24.25 745.03,-19.29 749.25,-29.01 754.39,-24.25"/>
</a>
</g>
</g>
<!-- Node12 -->
<g id="Node000012" class="node">
<title>Node12</title>
<g id="a_Node000012"><a xlink:href="ematch__src_2utils_2gdb_2gdbUtils_8hh.html" target="_top" xlink:title=" ">
<polygon fill="white" stroke="#666666" points="228,-74 111,-74 111,-55 228,-55 228,-74"/>
<text text-anchor="middle" x="169.5" y="-62" font-family="Helvetica,sans-Serif" font-size="10.00">utils/gdb/gdbUtils.hh</text>
</a>
</g>
</g>
<!-- Node6&#45;&gt;Node12 -->
<g id="edge14_Node000006_Node000012" class="edge">
<title>Node6&#45;&gt;Node12</title>
<g id="a_edge14_Node000006_Node000012"><a xlink:title=" ">
<path fill="none" stroke="#63b8ff" d="M567.85,-111.3C481.68,-101.39 327.16,-83.63 238.02,-73.38"/>
<polygon fill="#63b8ff" stroke="#63b8ff" points="238.34,-69.89 228.01,-72.23 237.54,-76.85 238.34,-69.89"/>
</a>
</g>
</g>
<!-- Node17 -->
<g id="Node000017" class="node">
<title>Node17</title>
<g id="a_Node000017"><a xlink:href="ematch__src_2utils_2stl_2stlTypes_8hh.html" target="_top" xlink:title=" ">
<polygon fill="white" stroke="#666666" points="959.5,-74 849.5,-74 849.5,-55 959.5,-55 959.5,-74"/>
<text text-anchor="middle" x="904.5" y="-62" font-family="Helvetica,sans-Serif" font-size="10.00">utils/stl/stlTypes.hh</text>
</a>
</g>
</g>
<!-- Node6&#45;&gt;Node17 -->
<g id="edge20_Node000006_Node000017" class="edge">
<title>Node6&#45;&gt;Node17</title>
<g id="a_edge20_Node000006_Node000017"><a xlink:title=" ">
<path fill="none" stroke="#63b8ff" d="M674.52,-109.98C722.32,-100.74 798.7,-85.97 850.18,-76.01"/>
<polygon fill="#63b8ff" stroke="#63b8ff" points="850.98,-79.42 860.13,-74.08 849.65,-72.54 850.98,-79.42"/>
</a>
</g>
</g>
<!-- Node18 -->
<g id="Node000018" class="node">
<title>Node18</title>
<g id="a_Node000018"><a xlink:href="ematch__src_2utils_2boost_2boostUtils_8hh.html" target="_top" xlink:title=" ">
<polygon fill="white" stroke="#666666" points="755,-74 620,-74 620,-55 755,-55 755,-74"/>
<text text-anchor="middle" x="687.5" y="-62" font-family="Helvetica,sans-Serif" font-size="10.00">utils/boost/boostUtils.hh</text>
</a>
</g>
</g>
<!-- Node6&#45;&gt;Node18 -->
<g id="edge23_Node000006_Node000018" class="edge">
<title>Node6&#45;&gt;Node18</title>
<g id="a_edge23_Node000006_Node000018"><a xlink:title=" ">
<path fill="none" stroke="#63b8ff" d="M639.66,-109.98C648,-102.23 660.53,-90.58 670.68,-81.14"/>
<polygon fill="#63b8ff" stroke="#63b8ff" points="673.24,-83.54 678.18,-74.17 668.47,-78.42 673.24,-83.54"/>
</a>
</g>
</g>
<!-- Node12&#45;&gt;Node2 -->
<g id="edge16_Node000012_Node000002" class="edge">
<title>Node12&#45;&gt;Node2</title>
<g id="a_edge16_Node000012_Node000002"><a xlink:title=" ">
<path fill="none" stroke="#63b8ff" d="M190.87,-54.98C212.65,-46.3 246.66,-32.75 271.42,-22.88"/>
<polygon fill="#63b8ff" stroke="#63b8ff" points="272.75,-26.12 280.74,-19.17 270.16,-19.62 272.75,-26.12"/>
</a>
</g>
</g>
<!-- Node13 -->
<g id="Node000013" class="node">
<title>Node13</title>
<g id="a_Node000013"><a xlink:title=" ">
<polygon fill="#e0e0e0" stroke="#999999" points="53,-19 0,-19 0,0 53,0 53,-19"/>
<text text-anchor="middle" x="26.5" y="-7" font-family="Helvetica,sans-Serif" font-size="10.00">cstdarg</text>
</a>
</g>
</g>
<!-- Node12&#45;&gt;Node13 -->
<g id="edge15_Node000012_Node000013" class="edge">
<title>Node12&#45;&gt;Node13</title>
<g id="a_edge15_Node000012_Node000013"><a xlink:title=" ">
<path fill="none" stroke="#63b8ff" d="M146.52,-54.98C123,-46.27 86.21,-32.63 59.56,-22.75"/>
<polygon fill="#63b8ff" stroke="#63b8ff" points="60.49,-19.36 49.89,-19.17 58.05,-25.93 60.49,-19.36"/>
</a>
</g>
</g>
<!-- Node14 -->
<g id="Node000014" class="node">
<title>Node14</title>
<g id="a_Node000014"><a xlink:title=" ">
<polygon fill="#e0e0e0" stroke="#999999" points="120,-19 71,-19 71,0 120,0 120,-19"/>
<text text-anchor="middle" x="95.5" y="-7" font-family="Helvetica,sans-Serif" font-size="10.00">cstdlib</text>
</a>
</g>
</g>
<!-- Node12&#45;&gt;Node14 -->
<g id="edge17_Node000012_Node000014" class="edge">
<title>Node12&#45;&gt;Node14</title>
<g id="a_edge17_Node000012_Node000014"><a xlink:title=" ">
<path fill="none" stroke="#63b8ff" d="M157.61,-54.98C146.35,-46.92 129.21,-34.65 115.79,-25.03"/>
<polygon fill="#63b8ff" stroke="#63b8ff" points="117.77,-22.15 107.61,-19.17 113.7,-27.84 117.77,-22.15"/>
</a>
</g>
</g>
<!-- Node15 -->
<g id="Node000015" class="node">
<title>Node15</title>
<g id="a_Node000015"><a xlink:title=" ">
<polygon fill="#e0e0e0" stroke="#999999" points="184.5,-19 138.5,-19 138.5,0 184.5,0 184.5,-19"/>
<text text-anchor="middle" x="161.5" y="-7" font-family="Helvetica,sans-Serif" font-size="10.00">cstdio</text>
</a>
</g>
</g>
<!-- Node12&#45;&gt;Node15 -->
<g id="edge18_Node000012_Node000015" class="edge">
<title>Node12&#45;&gt;Node15</title>
<g id="a_edge18_Node000012_Node000015"><a xlink:title=" ">
<path fill="none" stroke="#63b8ff" d="M168.18,-54.75C167.13,-47.8 165.63,-37.85 164.31,-29.13"/>
<polygon fill="#63b8ff" stroke="#63b8ff" points="167.75,-28.45 162.8,-19.09 160.83,-29.5 167.75,-28.45"/>
</a>
</g>
</g>
<!-- Node16 -->
<g id="Node000016" class="node">
<title>Node16</title>
<g id="a_Node000016"><a xlink:title=" ">
<polygon fill="#e0e0e0" stroke="#999999" points="254.5,-19 202.5,-19 202.5,0 254.5,0 254.5,-19"/>
<text text-anchor="middle" x="228.5" y="-7" font-family="Helvetica,sans-Serif" font-size="10.00">cassert</text>
</a>
</g>
</g>
<!-- Node12&#45;&gt;Node16 -->
<g id="edge19_Node000012_Node000016" class="edge">
<title>Node12&#45;&gt;Node16</title>
<g id="a_edge19_Node000012_Node000016"><a xlink:title=" ">
<path fill="none" stroke="#63b8ff" d="M178.98,-54.98C187.7,-47.15 200.84,-35.34 211.4,-25.86"/>
<polygon fill="#63b8ff" stroke="#63b8ff" points="213.75,-28.46 218.85,-19.17 209.07,-23.25 213.75,-28.46"/>
</a>
</g>
</g>
<!-- Node17&#45;&gt;Node3 -->
<g id="edge21_Node000017_Node000003" class="edge">
<title>Node17&#45;&gt;Node3</title>
<g id="a_edge21_Node000017_Node000003"><a xlink:title=" ">
<path fill="none" stroke="#63b8ff" d="M917.84,-54.98C930.59,-46.84 950.05,-34.41 965.17,-24.76"/>
<polygon fill="#63b8ff" stroke="#63b8ff" points="967.38,-27.5 973.92,-19.17 963.61,-21.6 967.38,-27.5"/>
</a>
</g>
</g>
<!-- Node17&#45;&gt;Node4 -->
<g id="edge22_Node000017_Node000004" class="edge">
<title>Node17&#45;&gt;Node4</title>
<g id="a_edge22_Node000017_Node000004"><a xlink:title=" ">
<path fill="none" stroke="#63b8ff" d="M904.5,-54.75C904.5,-47.8 904.5,-37.85 904.5,-29.13"/>
<polygon fill="#63b8ff" stroke="#63b8ff" points="908,-29.09 904.5,-19.09 901,-29.09 908,-29.09"/>
</a>
</g>
</g>
<!-- Node18&#45;&gt;Node2 -->
<g id="edge24_Node000018_Node000002" class="edge">
<title>Node18&#45;&gt;Node2</title>
<g id="a_edge24_Node000018_Node000002"><a xlink:title=" ">
<path fill="none" stroke="#63b8ff" d="M625.64,-54.98C546.15,-44.04 410.37,-25.35 342.95,-16.07"/>
<polygon fill="#63b8ff" stroke="#63b8ff" points="343.12,-12.56 332.74,-14.66 342.16,-19.49 343.12,-12.56"/>
</a>
</g>
</g>
<!-- Node18&#45;&gt;Node11 -->
<g id="edge25_Node000018_Node000011" class="edge">
<title>Node18&#45;&gt;Node11</title>
<g id="a_edge25_Node000018_Node000011"><a xlink:title=" ">
<path fill="none" stroke="#63b8ff" d="M695.43,-54.75C702.35,-47.11 712.57,-35.82 720.95,-26.56"/>
<polygon fill="#63b8ff" stroke="#63b8ff" points="723.6,-28.85 727.72,-19.09 718.41,-24.15 723.6,-28.85"/>
</a>
</g>
</g>
</g>
</svg>
