<?xml version="1.0" encoding="UTF-8" standalone="no"?>
<!DOCTYPE svg PUBLIC "-//W3C//DTD SVG 1.1//EN"
 "http://www.w3.org/Graphics/SVG/1.1/DTD/svg11.dtd">
<!-- Generated by graphviz version 2.43.0 (0)
 -->
<!-- Title: ematch_src/RecountNeighborProbGraphOnDisk_SortedTagSet.cc Pages: 1 -->
<!--zoomable 467 -->

<svg id="main" version="1.1" xmlns="http://www.w3.org/2000/svg" xmlns:xlink="http://www.w3.org/1999/xlink" xml:space="preserve" onload="init(evt)">
<style type="text/css"><![CDATA[
.node, .edge {opacity: 0.7;}
.node.selected, .edge.selected {opacity: 1;}
.edge:hover path { stroke: red; }
.edge:hover polygon { stroke: red; fill: red; }
]]></style>

<defs>
  <circle id="rim" cx="0" cy="0" r="7"/>
  <circle id="rim2" cx="0" cy="0" r="3.5"/>
  <g id="zoomPlus">
    <use xlink:href="#rim" fill="#404040"><set attributeName="fill" to="#808080" begin="zoomplus.mouseover" end="zoomplus.mouseout"/></use>
    <path d="M-4,0h8M0,-4v8" fill="none" stroke="white" stroke-width="1.5" pointer-events="none"/>
  </g>
  <g id="zoomMin">
    <use xlink:href="#rim" fill="#404040"><set attributeName="fill" to="#808080" begin="zoomminus.mouseover" end="zoomminus.mouseout"/></use>
    <path d="M-4,0h8" fill="none" stroke="white" stroke-width="1.5" pointer-events="none"/>
  </g>
  <g id="arrowUp" transform="translate(30 24)">
    <use xlink:href="#rim"/>
    <path pointer-events="none" fill="none" stroke="white" stroke-width="1.5" d="M0,-3.0v7 M-2.5,-0.5L0,-3.0L2.5,-0.5"/>
  </g>
  <g id="arrowRight" transform="rotate(90) translate(36 -43)">
    <use xlink:href="#rim"/>
    <path pointer-events="none" fill="none" stroke="white" stroke-width="1.5" d="M0,-3.0v7 M-2.5,-0.5L0,-3.0L2.5,-0.5"/>
  </g>
  <g id="arrowDown" transform="rotate(180) translate(-30 -48)">
    <use xlink:href="#rim"/>
    <path pointer-events="none" fill="none" stroke="white" stroke-width="1.5" d="M0,-3.0v7 M-2.5,-0.5L0,-3.0L2.5,-0.5"/>
  </g>
  <g id="arrowLeft" transform="rotate(270) translate(-36 17)">
    <use xlink:href="#rim"/>
    <path pointer-events="none" fill="none" stroke="white" stroke-width="1.5" d="M0,-3.0v7 M-2.5,-0.5L0,-3.0L2.5,-0.5"/>
  </g>
  <g id="resetDef">
    <use xlink:href="#rim2" fill="#404040"><set attributeName="fill" to="#808080" begin="reset.mouseover" end="reset.mouseout"/></use>
  </g>
</defs>
<script type="application/ecmascript">
var viewWidth = 2136;
var viewHeight = 467;
var sectionId = 'dynsection-0';
</script>
<script type="application/ecmascript" xlink:href="svg.min.js"/>
<svg id="graph" class="graph">
<g id="viewport">
<title>ematch_src/RecountNeighborProbGraphOnDisk_SortedTagSet.cc</title>
<!-- Node1 -->
<g id="Node000001" class="node">
<title>Node1</title>
<g id="a_Node000001"><a xlink:title=" ">
<polygon fill="#999999" stroke="#666666" points="1062.5,-459 877.5,-459 877.5,-429 1062.5,-429 1062.5,-459"/>
<text text-anchor="start" x="885.5" y="-447" font-family="Helvetica,sans-Serif" font-size="10.00">ematch_src/RecountNeighbor</text>
<text text-anchor="middle" x="970" y="-436" font-family="Helvetica,sans-Serif" font-size="10.00">ProbGraphOnDisk_SortedTagSet.cc</text>
</a>
</g>
</g>
<!-- Node2 -->
<g id="Node000002" class="node">
<title>Node2</title>
<g id="a_Node000002"><a xlink:href="binaryIO_8hh.html" target="_top" xlink:title=" ">
<polygon fill="white" stroke="#666666" points="1610,-195 1498,-195 1498,-176 1610,-176 1610,-195"/>
<text text-anchor="middle" x="1554" y="-183" font-family="Helvetica,sans-Serif" font-size="10.00">utils/stl/binaryIO.hh</text>
</a>
</g>
</g>
<!-- Node1&#45;&gt;Node2 -->
<g id="edge1_Node000001_Node000002" class="edge">
<title>Node1&#45;&gt;Node2</title>
<g id="a_edge1_Node000001_Node000002"><a xlink:title=" ">
<path fill="none" stroke="#63b8ff" d="M1002.23,-428.84C1105.45,-383.51 1426.84,-242.35 1525.14,-199.18"/>
<polygon fill="#63b8ff" stroke="#63b8ff" points="1526.71,-202.31 1534.46,-195.08 1523.9,-195.9 1526.71,-202.31"/>
</a>
</g>
</g>
<!-- Node19 -->
<g id="Node000019" class="node">
<title>Node19</title>
<g id="a_Node000019"><a xlink:href="RecountNeighborProbGraphFormat_8hh.html" target="_top" xlink:title=" ">
<polygon fill="white" stroke="#666666" points="1046,-327 894,-327 894,-297 1046,-297 1046,-327"/>
<text text-anchor="start" x="902" y="-315" font-family="Helvetica,sans-Serif" font-size="10.00">RecountNeighborProbGraph</text>
<text text-anchor="middle" x="970" y="-304" font-family="Helvetica,sans-Serif" font-size="10.00">Format.hh</text>
</a>
</g>
</g>
<!-- Node1&#45;&gt;Node19 -->
<g id="edge26_Node000001_Node000019" class="edge">
<title>Node1&#45;&gt;Node19</title>
<g id="a_edge26_Node000001_Node000019"><a xlink:title=" ">
<path fill="none" stroke="#63b8ff" d="M970,-428.84C970,-406.86 970,-364.27 970,-337.3"/>
<polygon fill="#63b8ff" stroke="#63b8ff" points="973.5,-337.14 970,-327.14 966.5,-337.14 973.5,-337.14"/>
</a>
</g>
</g>
<!-- Node20 -->
<g id="Node000020" class="node">
<title>Node20</title>
<g id="a_Node000020"><a xlink:href="RecountNeighborProbGraphOnDisk_8hh.html" target="_top" xlink:title=" ">
<polygon fill="white" stroke="#666666" points="942,-393 790,-393 790,-363 942,-363 942,-393"/>
<text text-anchor="start" x="798" y="-381" font-family="Helvetica,sans-Serif" font-size="10.00">RecountNeighborProbGraph</text>
<text text-anchor="middle" x="866" y="-370" font-family="Helvetica,sans-Serif" font-size="10.00">OnDisk.hh</text>
</a>
</g>
</g>
<!-- Node1&#45;&gt;Node20 -->
<g id="edge28_Node000001_Node000020" class="edge">
<title>Node1&#45;&gt;Node20</title>
<g id="a_edge28_Node000001_Node000020"><a xlink:title=" ">
<path fill="none" stroke="#63b8ff" d="M947.18,-428.95C932.55,-419.95 913.36,-408.14 897.31,-398.27"/>
<polygon fill="#63b8ff" stroke="#63b8ff" points="899.12,-395.27 888.77,-393.01 895.45,-401.23 899.12,-395.27"/>
</a>
</g>
</g>
<!-- Node3 -->
<g id="Node000003" class="node">
<title>Node3</title>
<g id="a_Node000003"><a xlink:title=" ">
<polygon fill="#e0e0e0" stroke="#999999" points="858,-19 798,-19 798,0 858,0 858,-19"/>
<text text-anchor="middle" x="828" y="-7" font-family="Helvetica,sans-Serif" font-size="10.00">iostream</text>
</a>
</g>
</g>
<!-- Node2&#45;&gt;Node3 -->
<g id="edge2_Node000002_Node000003" class="edge">
<title>Node2&#45;&gt;Node3</title>
<g id="a_edge2_Node000002_Node000003"><a xlink:title=" ">
<path fill="none" stroke="#63b8ff" d="M1518.49,-175.99C1396.67,-146.79 996.17,-50.8 867.9,-20.06"/>
<polygon fill="#63b8ff" stroke="#63b8ff" points="868.63,-16.64 858.09,-17.71 867,-23.45 868.63,-16.64"/>
</a>
</g>
</g>
<!-- Node4 -->
<g id="Node000004" class="node">
<title>Node4</title>
<g id="a_Node000004"><a xlink:title=" ">
<polygon fill="#e0e0e0" stroke="#999999" points="2108,-19 2064,-19 2064,0 2108,0 2108,-19"/>
<text text-anchor="middle" x="2086" y="-7" font-family="Helvetica,sans-Serif" font-size="10.00">string</text>
</a>
</g>
</g>
<!-- Node2&#45;&gt;Node4 -->
<g id="edge3_Node000002_Node000004" class="edge">
<title>Node2&#45;&gt;Node4</title>
<g id="a_edge3_Node000002_Node000004"><a xlink:title=" ">
<path fill="none" stroke="#63b8ff" d="M1610.33,-182.11C1738.8,-175.34 2047.09,-151.23 2109,-74 2119.95,-60.34 2110.3,-41.02 2100.36,-27.28"/>
<polygon fill="#63b8ff" stroke="#63b8ff" points="2102.93,-24.88 2094,-19.18 2097.42,-29.2 2102.93,-24.88"/>
</a>
</g>
</g>
<!-- Node5 -->
<g id="Node000005" class="node">
<title>Node5</title>
<g id="a_Node000005"><a xlink:href="ematch__src_2utils_2stl_2stlTypes_8hh.html" target="_top" xlink:title=" ">
<polygon fill="white" stroke="#666666" points="2100,-74 1990,-74 1990,-55 2100,-55 2100,-74"/>
<text text-anchor="middle" x="2045" y="-62" font-family="Helvetica,sans-Serif" font-size="10.00">utils/stl/stlTypes.hh</text>
</a>
</g>
</g>
<!-- Node2&#45;&gt;Node5 -->
<g id="edge4_Node000002_Node000005" class="edge">
<title>Node2&#45;&gt;Node5</title>
<g id="a_edge4_Node000002_Node000005"><a xlink:title=" ">
<path fill="none" stroke="#63b8ff" d="M1589.31,-175.94C1676.7,-154.76 1903,-99.92 1999.89,-76.43"/>
<polygon fill="#63b8ff" stroke="#63b8ff" points="2000.79,-79.82 2009.68,-74.06 1999.14,-73.01 2000.79,-79.82"/>
</a>
</g>
</g>
<!-- Node7 -->
<g id="Node000007" class="node">
<title>Node7</title>
<g id="a_Node000007"><a xlink:href="ematch__src_2utils_2perlish_2perlish_8hh.html" target="_top" xlink:title=" ">
<polygon fill="white" stroke="#666666" points="1616.5,-134.5 1491.5,-134.5 1491.5,-115.5 1616.5,-115.5 1616.5,-134.5"/>
<text text-anchor="middle" x="1554" y="-122.5" font-family="Helvetica,sans-Serif" font-size="10.00">utils/perlish/perlish.hh</text>
</a>
</g>
</g>
<!-- Node2&#45;&gt;Node7 -->
<g id="edge7_Node000002_Node000007" class="edge">
<title>Node2&#45;&gt;Node7</title>
<g id="a_edge7_Node000002_Node000007"><a xlink:title=" ">
<path fill="none" stroke="#63b8ff" d="M1554,-175.87C1554,-167.75 1554,-155.31 1554,-144.89"/>
<polygon fill="#63b8ff" stroke="#63b8ff" points="1557.5,-144.67 1554,-134.67 1550.5,-144.67 1557.5,-144.67"/>
</a>
</g>
</g>
<!-- Node5&#45;&gt;Node4 -->
<g id="edge5_Node000005_Node000004" class="edge">
<title>Node5&#45;&gt;Node4</title>
<g id="a_edge5_Node000005_Node000004"><a xlink:title=" ">
<path fill="none" stroke="#63b8ff" d="M2051.77,-54.75C2057.56,-47.26 2066.06,-36.28 2073.14,-27.13"/>
<polygon fill="#63b8ff" stroke="#63b8ff" points="2076.01,-29.14 2079.36,-19.09 2070.47,-24.86 2076.01,-29.14"/>
</a>
</g>
</g>
<!-- Node6 -->
<g id="Node000006" class="node">
<title>Node6</title>
<g id="a_Node000006"><a xlink:title=" ">
<polygon fill="#e0e0e0" stroke="#999999" points="1249.5,-19 1202.5,-19 1202.5,0 1249.5,0 1249.5,-19"/>
<text text-anchor="middle" x="1226" y="-7" font-family="Helvetica,sans-Serif" font-size="10.00">vector</text>
</a>
</g>
</g>
<!-- Node5&#45;&gt;Node6 -->
<g id="edge6_Node000005_Node000006" class="edge">
<title>Node5&#45;&gt;Node6</title>
<g id="a_edge6_Node000005_Node000006"><a xlink:title=" ">
<path fill="none" stroke="#63b8ff" d="M1989.99,-59.94C1833.17,-49.79 1386.99,-20.92 1260.07,-12.7"/>
<polygon fill="#63b8ff" stroke="#63b8ff" points="1260,-9.19 1249.8,-12.04 1259.55,-16.18 1260,-9.19"/>
</a>
</g>
</g>
<!-- Node7&#45;&gt;Node3 -->
<g id="edge9_Node000007_Node000003" class="edge">
<title>Node7&#45;&gt;Node3</title>
<g id="a_edge9_Node000007_Node000003"><a xlink:title=" ">
<path fill="none" stroke="#63b8ff" d="M1531.62,-115.35C1506.84,-105.67 1465.81,-89.33 1431,-74 1412.99,-66.07 1410.01,-60.08 1391,-55 1292.13,-28.57 980.1,-15.65 868.33,-11.79"/>
<polygon fill="#63b8ff" stroke="#63b8ff" points="868.26,-8.28 858.15,-11.44 868.03,-15.28 868.26,-8.28"/>
</a>
</g>
</g>
<!-- Node7&#45;&gt;Node4 -->
<g id="edge12_Node000007_Node000004" class="edge">
<title>Node7&#45;&gt;Node4</title>
<g id="a_edge12_Node000007_Node000004"><a xlink:title=" ">
<path fill="none" stroke="#63b8ff" d="M1616.53,-119.92C1690.26,-114.09 1816.05,-100.95 1921,-74 1947.37,-67.23 2016.41,-39.36 2056.33,-22.87"/>
<polygon fill="#63b8ff" stroke="#63b8ff" points="2057.67,-26.11 2065.57,-19.05 2054.99,-19.64 2057.67,-26.11"/>
</a>
</g>
</g>
<!-- Node7&#45;&gt;Node5 -->
<g id="edge22_Node000007_Node000005" class="edge">
<title>Node7&#45;&gt;Node5</title>
<g id="a_edge22_Node000007_Node000005"><a xlink:title=" ">
<path fill="none" stroke="#63b8ff" d="M1616.57,-116.68C1698.97,-107.01 1848.37,-89.42 1976,-74 1977.11,-73.87 1978.23,-73.73 1979.35,-73.59"/>
<polygon fill="#63b8ff" stroke="#63b8ff" points="1980.14,-77.02 1989.64,-72.34 1979.29,-70.08 1980.14,-77.02"/>
</a>
</g>
</g>
<!-- Node7&#45;&gt;Node6 -->
<g id="edge13_Node000007_Node000006" class="edge">
<title>Node7&#45;&gt;Node6</title>
<g id="a_edge13_Node000007_Node000006"><a xlink:title=" ">
<path fill="none" stroke="#63b8ff" d="M1561.9,-115.31C1573.86,-101.1 1593.6,-72.7 1578,-55 1557.1,-31.29 1343.5,-17 1259.59,-12.26"/>
<polygon fill="#63b8ff" stroke="#63b8ff" points="1259.73,-8.76 1249.56,-11.7 1259.35,-15.75 1259.73,-8.76"/>
</a>
</g>
</g>
<!-- Node8 -->
<g id="Node000008" class="node">
<title>Node8</title>
<g id="a_Node000008"><a xlink:title=" ">
<polygon fill="#e0e0e0" stroke="#999999" points="1382.5,-74 1329.5,-74 1329.5,-55 1382.5,-55 1382.5,-74"/>
<text text-anchor="middle" x="1356" y="-62" font-family="Helvetica,sans-Serif" font-size="10.00">ctype.h</text>
</a>
</g>
</g>
<!-- Node7&#45;&gt;Node8 -->
<g id="edge8_Node000007_Node000008" class="edge">
<title>Node7&#45;&gt;Node8</title>
<g id="a_edge8_Node000007_Node000008"><a xlink:title=" ">
<path fill="none" stroke="#63b8ff" d="M1525.21,-115.49C1490.06,-105.11 1430.58,-87.54 1392.32,-76.23"/>
<polygon fill="#63b8ff" stroke="#63b8ff" points="1393.19,-72.84 1382.61,-73.36 1391.2,-79.55 1393.19,-72.84"/>
</a>
</g>
</g>
<!-- Node9 -->
<g id="Node000009" class="node">
<title>Node9</title>
<g id="a_Node000009"><a xlink:title=" ">
<polygon fill="#e0e0e0" stroke="#999999" points="1494.5,-74 1439.5,-74 1439.5,-55 1494.5,-55 1494.5,-74"/>
<text text-anchor="middle" x="1467" y="-62" font-family="Helvetica,sans-Serif" font-size="10.00">fstream</text>
</a>
</g>
</g>
<!-- Node7&#45;&gt;Node9 -->
<g id="edge10_Node000007_Node000009" class="edge">
<title>Node7&#45;&gt;Node9</title>
<g id="a_edge10_Node000007_Node000009"><a xlink:title=" ">
<path fill="none" stroke="#63b8ff" d="M1541.16,-115.37C1527.28,-106.04 1504.93,-91.01 1488.39,-79.88"/>
<polygon fill="#63b8ff" stroke="#63b8ff" points="1490.14,-76.84 1479.89,-74.17 1486.24,-82.65 1490.14,-76.84"/>
</a>
</g>
</g>
<!-- Node10 -->
<g id="Node000010" class="node">
<title>Node10</title>
<g id="a_Node000010"><a xlink:title=" ">
<polygon fill="#e0e0e0" stroke="#999999" points="1569,-74 1513,-74 1513,-55 1569,-55 1569,-74"/>
<text text-anchor="middle" x="1541" y="-62" font-family="Helvetica,sans-Serif" font-size="10.00">sstream</text>
</a>
</g>
</g>
<!-- Node7&#45;&gt;Node10 -->
<g id="edge11_Node000007_Node000010" class="edge">
<title>Node7&#45;&gt;Node10</title>
<g id="a_edge11_Node000007_Node000010"><a xlink:title=" ">
<path fill="none" stroke="#63b8ff" d="M1552.08,-115.37C1550.26,-107.16 1547.45,-94.54 1545.12,-84.05"/>
<polygon fill="#63b8ff" stroke="#63b8ff" points="1548.51,-83.17 1542.93,-74.17 1541.68,-84.69 1548.51,-83.17"/>
</a>
</g>
</g>
<!-- Node11 -->
<g id="Node000011" class="node">
<title>Node11</title>
<g id="a_Node000011"><a xlink:title=" ">
<polygon fill="#e0e0e0" stroke="#999999" points="1273,-74 1217,-74 1217,-55 1273,-55 1273,-74"/>
<text text-anchor="middle" x="1245" y="-62" font-family="Helvetica,sans-Serif" font-size="10.00">assert.h</text>
</a>
</g>
</g>
<!-- Node7&#45;&gt;Node11 -->
<g id="edge14_Node000007_Node000011" class="edge">
<title>Node7&#45;&gt;Node11</title>
<g id="a_edge14_Node000007_Node000011"><a xlink:title=" ">
<path fill="none" stroke="#63b8ff" d="M1509.07,-115.49C1448.24,-103.98 1340.74,-83.63 1283.46,-72.78"/>
<polygon fill="#63b8ff" stroke="#63b8ff" points="1283.84,-69.29 1273.37,-70.87 1282.54,-76.17 1283.84,-69.29"/>
</a>
</g>
</g>
<!-- Node12 -->
<g id="Node000012" class="node">
<title>Node12</title>
<g id="a_Node000012"><a xlink:title=" ">
<polygon fill="#e0e0e0" stroke="#999999" points="1931.5,-19 1836.5,-19 1836.5,0 1931.5,0 1931.5,-19"/>
<text text-anchor="middle" x="1884" y="-7" font-family="Helvetica,sans-Serif" font-size="10.00">boost/regex.hpp</text>
</a>
</g>
</g>
<!-- Node7&#45;&gt;Node12 -->
<g id="edge15_Node000007_Node000012" class="edge">
<title>Node7&#45;&gt;Node12</title>
<g id="a_edge15_Node000007_Node000012"><a xlink:title=" ">
<path fill="none" stroke="#63b8ff" d="M1616.58,-124.48C1707.26,-123.69 1868.39,-116.19 1905,-74 1916.36,-60.91 1907.33,-41.49 1897.82,-27.57"/>
<polygon fill="#63b8ff" stroke="#63b8ff" points="1900.49,-25.29 1891.72,-19.35 1894.87,-29.47 1900.49,-25.29"/>
</a>
</g>
</g>
<!-- Node13 -->
<g id="Node000013" class="node">
<title>Node13</title>
<g id="a_Node000013"><a xlink:href="ematch__src_2utils_2gdb_2gdbUtils_8hh.html" target="_top" xlink:title=" ">
<polygon fill="white" stroke="#666666" points="1742.5,-74 1625.5,-74 1625.5,-55 1742.5,-55 1742.5,-74"/>
<text text-anchor="middle" x="1684" y="-62" font-family="Helvetica,sans-Serif" font-size="10.00">utils/gdb/gdbUtils.hh</text>
</a>
</g>
</g>
<!-- Node7&#45;&gt;Node13 -->
<g id="edge16_Node000007_Node000013" class="edge">
<title>Node7&#45;&gt;Node13</title>
<g id="a_edge16_Node000007_Node000013"><a xlink:title=" ">
<path fill="none" stroke="#63b8ff" d="M1572.9,-115.49C1594.66,-105.7 1630.62,-89.52 1655.71,-78.23"/>
<polygon fill="#63b8ff" stroke="#63b8ff" points="1657.39,-81.31 1665.07,-74.02 1654.52,-74.93 1657.39,-81.31"/>
</a>
</g>
</g>
<!-- Node18 -->
<g id="Node000018" class="node">
<title>Node18</title>
<g id="a_Node000018"><a xlink:href="ematch__src_2utils_2boost_2boostUtils_8hh.html" target="_top" xlink:title=" ">
<polygon fill="white" stroke="#666666" points="1895.5,-74 1760.5,-74 1760.5,-55 1895.5,-55 1895.5,-74"/>
<text text-anchor="middle" x="1828" y="-62" font-family="Helvetica,sans-Serif" font-size="10.00">utils/boost/boostUtils.hh</text>
</a>
</g>
</g>
<!-- Node7&#45;&gt;Node18 -->
<g id="edge23_Node000007_Node000018" class="edge">
<title>Node7&#45;&gt;Node18</title>
<g id="a_edge23_Node000007_Node000018"><a xlink:title=" ">
<path fill="none" stroke="#63b8ff" d="M1593.84,-115.49C1642.65,-105.07 1725.34,-87.42 1778.26,-76.12"/>
<polygon fill="#63b8ff" stroke="#63b8ff" points="1779.06,-79.53 1788.11,-74.02 1777.6,-72.68 1779.06,-79.53"/>
</a>
</g>
</g>
<!-- Node13&#45;&gt;Node3 -->
<g id="edge18_Node000013_Node000003" class="edge">
<title>Node13&#45;&gt;Node3</title>
<g id="a_edge18_Node000013_Node000003"><a xlink:title=" ">
<path fill="none" stroke="#63b8ff" d="M1625.42,-58.58C1610,-57.35 1593.38,-56.07 1578,-55 1306.98,-36.1 980.51,-18.5 868.21,-12.59"/>
<polygon fill="#63b8ff" stroke="#63b8ff" points="868.19,-9.09 858.02,-12.06 867.83,-16.08 868.19,-9.09"/>
</a>
</g>
</g>
<!-- Node14 -->
<g id="Node000014" class="node">
<title>Node14</title>
<g id="a_Node000014"><a xlink:title=" ">
<polygon fill="#e0e0e0" stroke="#999999" points="1730.5,-19 1677.5,-19 1677.5,0 1730.5,0 1730.5,-19"/>
<text text-anchor="middle" x="1704" y="-7" font-family="Helvetica,sans-Serif" font-size="10.00">cstdarg</text>
</a>
</g>
</g>
<!-- Node13&#45;&gt;Node14 -->
<g id="edge17_Node000013_Node000014" class="edge">
<title>Node13&#45;&gt;Node14</title>
<g id="a_edge17_Node000013_Node000014"><a xlink:title=" ">
<path fill="none" stroke="#63b8ff" d="M1687.3,-54.75C1689.98,-47.65 1693.85,-37.4 1697.19,-28.56"/>
<polygon fill="#63b8ff" stroke="#63b8ff" points="1700.5,-29.68 1700.76,-19.09 1693.95,-27.21 1700.5,-29.68"/>
</a>
</g>
</g>
<!-- Node15 -->
<g id="Node000015" class="node">
<title>Node15</title>
<g id="a_Node000015"><a xlink:title=" ">
<polygon fill="#e0e0e0" stroke="#999999" points="1797.5,-19 1748.5,-19 1748.5,0 1797.5,0 1797.5,-19"/>
<text text-anchor="middle" x="1773" y="-7" font-family="Helvetica,sans-Serif" font-size="10.00">cstdlib</text>
</a>
</g>
</g>
<!-- Node13&#45;&gt;Node15 -->
<g id="edge19_Node000013_Node000015" class="edge">
<title>Node13&#45;&gt;Node15</title>
<g id="a_edge19_Node000013_Node000015"><a xlink:title=" ">
<path fill="none" stroke="#63b8ff" d="M1698.3,-54.98C1712.1,-46.77 1733.24,-34.18 1749.51,-24.49"/>
<polygon fill="#63b8ff" stroke="#63b8ff" points="1751.64,-27.29 1758.44,-19.17 1748.06,-21.28 1751.64,-27.29"/>
</a>
</g>
</g>
<!-- Node16 -->
<g id="Node000016" class="node">
<title>Node16</title>
<g id="a_Node000016"><a xlink:title=" ">
<polygon fill="#e0e0e0" stroke="#999999" points="1589,-19 1543,-19 1543,0 1589,0 1589,-19"/>
<text text-anchor="middle" x="1566" y="-7" font-family="Helvetica,sans-Serif" font-size="10.00">cstdio</text>
</a>
</g>
</g>
<!-- Node13&#45;&gt;Node16 -->
<g id="edge20_Node000013_Node000016" class="edge">
<title>Node13&#45;&gt;Node16</title>
<g id="a_edge20_Node000013_Node000016"><a xlink:title=" ">
<path fill="none" stroke="#63b8ff" d="M1665.04,-54.98C1645.97,-46.42 1616.34,-33.11 1594.45,-23.28"/>
<polygon fill="#63b8ff" stroke="#63b8ff" points="1595.86,-20.07 1585.3,-19.17 1592.99,-26.46 1595.86,-20.07"/>
</a>
</g>
</g>
<!-- Node17 -->
<g id="Node000017" class="node">
<title>Node17</title>
<g id="a_Node000017"><a xlink:title=" ">
<polygon fill="#e0e0e0" stroke="#999999" points="1659,-19 1607,-19 1607,0 1659,0 1659,-19"/>
<text text-anchor="middle" x="1633" y="-7" font-family="Helvetica,sans-Serif" font-size="10.00">cassert</text>
</a>
</g>
</g>
<!-- Node13&#45;&gt;Node17 -->
<g id="edge21_Node000013_Node000017" class="edge">
<title>Node13&#45;&gt;Node17</title>
<g id="a_edge21_Node000013_Node000017"><a xlink:title=" ">
<path fill="none" stroke="#63b8ff" d="M1675.58,-54.75C1668.23,-47.11 1657.37,-35.82 1648.46,-26.56"/>
<polygon fill="#63b8ff" stroke="#63b8ff" points="1650.72,-23.87 1641.26,-19.09 1645.68,-28.72 1650.72,-23.87"/>
</a>
</g>
</g>
<!-- Node18&#45;&gt;Node3 -->
<g id="edge24_Node000018_Node000003" class="edge">
<title>Node18&#45;&gt;Node3</title>
<g id="a_edge24_Node000018_Node000003"><a xlink:title=" ">
<path fill="none" stroke="#63b8ff" d="M1760.48,-55.72C1757.61,-55.46 1754.78,-55.22 1752,-55 1410.99,-27.75 997.74,-15.04 868.57,-11.54"/>
<polygon fill="#63b8ff" stroke="#63b8ff" points="868.44,-8.03 858.35,-11.26 868.26,-15.03 868.44,-8.03"/>
</a>
</g>
</g>
<!-- Node18&#45;&gt;Node12 -->
<g id="edge25_Node000018_Node000012" class="edge">
<title>Node18&#45;&gt;Node12</title>
<g id="a_edge25_Node000018_Node000012"><a xlink:title=" ">
<path fill="none" stroke="#63b8ff" d="M1837,-54.98C1845.19,-47.23 1857.51,-35.58 1867.47,-26.14"/>
<polygon fill="#63b8ff" stroke="#63b8ff" points="1869.98,-28.59 1874.84,-19.17 1865.17,-23.5 1869.98,-28.59"/>
</a>
</g>
</g>
<!-- Node19&#45;&gt;Node3 -->
<g id="edge27_Node000019_Node000003" class="edge">
<title>Node19&#45;&gt;Node3</title>
<g id="a_edge27_Node000019_Node000003"><a xlink:title=" ">
<path fill="none" stroke="#63b8ff" d="M956.64,-296.97C937.36,-275.17 904,-231.02 904,-186.5 904,-186.5 904,-186.5 904,-124 904,-91.53 898.3,-81.82 880,-55 872.05,-43.35 860.28,-32.93 849.95,-25.11"/>
<polygon fill="#63b8ff" stroke="#63b8ff" points="851.89,-22.19 841.73,-19.18 847.8,-27.87 851.89,-22.19"/>
</a>
</g>
</g>
<!-- Node20&#45;&gt;Node3 -->
<g id="edge29_Node000020_Node000003" class="edge">
<title>Node20&#45;&gt;Node3</title>
<g id="a_edge29_Node000020_Node000003"><a xlink:title=" ">
<path fill="none" stroke="#63b8ff" d="M866,-362.96C866,-339.12 866,-289.2 866,-247 866,-247 866,-247 866,-124 866,-88.48 849.06,-49.79 837.8,-28"/>
<polygon fill="#63b8ff" stroke="#63b8ff" points="840.78,-26.16 832.97,-19 834.61,-29.47 840.78,-26.16"/>
</a>
</g>
</g>
<!-- Node20&#45;&gt;Node19 -->
<g id="edge69_Node000020_Node000019" class="edge">
<title>Node20&#45;&gt;Node19</title>
<g id="a_edge69_Node000020_Node000019"><a xlink:title=" ">
<path fill="none" stroke="#63b8ff" d="M888.82,-362.95C903.45,-353.95 922.64,-342.14 938.69,-332.27"/>
<polygon fill="#63b8ff" stroke="#63b8ff" points="940.55,-335.23 947.23,-327.01 936.88,-329.27 940.55,-335.23"/>
</a>
</g>
</g>
<!-- Node21 -->
<g id="Node000021" class="node">
<title>Node21</title>
<g id="a_Node000021"><a xlink:href="TagSet_8hh.html" target="_top" xlink:title=" ">
<polygon fill="white" stroke="#666666" points="510,-321.5 446,-321.5 446,-302.5 510,-302.5 510,-321.5"/>
<text text-anchor="middle" x="478" y="-309.5" font-family="Helvetica,sans-Serif" font-size="10.00">TagSet.hh</text>
</a>
</g>
</g>
<!-- Node20&#45;&gt;Node21 -->
<g id="edge30_Node000020_Node000021" class="edge">
<title>Node20&#45;&gt;Node21</title>
<g id="a_edge30_Node000020_Node000021"><a xlink:title=" ">
<path fill="none" stroke="#63b8ff" d="M789.81,-364.43C709.32,-351.16 585.29,-330.7 520.59,-320.03"/>
<polygon fill="#63b8ff" stroke="#63b8ff" points="520.79,-316.51 510.35,-318.34 519.65,-323.42 520.79,-316.51"/>
</a>
</g>
</g>
<!-- Node35 -->
<g id="Node000035" class="node">
<title>Node35</title>
<g id="a_Node000035"><a xlink:href="RecountNeighborList_8hh.html" target="_top" xlink:title=" ">
<polygon fill="white" stroke="#666666" points="798.5,-195 665.5,-195 665.5,-176 798.5,-176 798.5,-195"/>
<text text-anchor="middle" x="732" y="-183" font-family="Helvetica,sans-Serif" font-size="10.00">RecountNeighborList.hh</text>
</a>
</g>
</g>
<!-- Node20&#45;&gt;Node35 -->
<g id="edge60_Node000020_Node000035" class="edge">
<title>Node20&#45;&gt;Node35</title>
<g id="a_edge60_Node000020_Node000035"><a xlink:title=" ">
<path fill="none" stroke="#63b8ff" d="M856.15,-362.99C832.08,-328.77 770.34,-241.01 744.1,-203.7"/>
<polygon fill="#63b8ff" stroke="#63b8ff" points="746.85,-201.53 738.23,-195.36 741.12,-205.55 746.85,-201.53"/>
</a>
</g>
</g>
<!-- Node21&#45;&gt;Node3 -->
<g id="edge31_Node000021_Node000003" class="edge">
<title>Node21&#45;&gt;Node3</title>
<g id="a_edge31_Node000021_Node000003"><a xlink:title=" ">
<path fill="none" stroke="#63b8ff" d="M445.83,-311.73C404.35,-310.84 332.73,-302.78 292,-261 268.22,-236.61 274,-220.56 274,-186.5 274,-186.5 274,-186.5 274,-124 274,-19.08 660.19,-10.24 787.7,-10.18"/>
<polygon fill="#63b8ff" stroke="#63b8ff" points="787.82,-13.68 797.82,-10.19 787.83,-6.68 787.82,-13.68"/>
</a>
</g>
</g>
<!-- Node22 -->
<g id="Node000022" class="node">
<title>Node22</title>
<g id="a_Node000022"><a xlink:title=" ">
<polygon fill="#e0e0e0" stroke="#999999" points="444,-134.5 340,-134.5 340,-115.5 444,-115.5 444,-134.5"/>
<text text-anchor="middle" x="392" y="-122.5" font-family="Helvetica,sans-Serif" font-size="10.00">boost/foreach.hpp</text>
</a>
</g>
</g>
<!-- Node21&#45;&gt;Node22 -->
<g id="edge32_Node000021_Node000022" class="edge">
<title>Node21&#45;&gt;Node22</title>
<g id="a_edge32_Node000021_Node000022"><a xlink:title=" ">
<path fill="none" stroke="#63b8ff" d="M476.91,-302.3C474.81,-287.27 469.47,-255.71 459,-231 444.81,-197.5 420.34,-162.68 405.22,-142.75"/>
<polygon fill="#63b8ff" stroke="#63b8ff" points="407.89,-140.47 399.01,-134.7 402.35,-144.75 407.89,-140.47"/>
</a>
</g>
</g>
<!-- Node23 -->
<g id="Node000023" class="node">
<title>Node23</title>
<g id="a_Node000023"><a xlink:href="universalTypedefs_8hh.html" target="_top" xlink:title=" ">
<polygon fill="white" stroke="#666666" points="144,-19 0,-19 0,0 144,0 144,-19"/>
<text text-anchor="middle" x="72" y="-7" font-family="Helvetica,sans-Serif" font-size="10.00">utils/universalTypedefs.hh</text>
</a>
</g>
</g>
<!-- Node21&#45;&gt;Node23 -->
<g id="edge33_Node000021_Node000023" class="edge">
<title>Node21&#45;&gt;Node23</title>
<g id="a_edge33_Node000021_Node000023"><a xlink:title=" ">
<path fill="none" stroke="#63b8ff" d="M445.83,-308.62C346.29,-300.37 50,-268.92 50,-186.5 50,-186.5 50,-186.5 50,-124 50,-90 59.63,-51.31 66.15,-29.01"/>
<polygon fill="#63b8ff" stroke="#63b8ff" points="69.57,-29.8 69.12,-19.22 62.87,-27.77 69.57,-29.8"/>
</a>
</g>
</g>
<!-- Node24 -->
<g id="Node000024" class="node">
<title>Node24</title>
<g id="a_Node000024"><a xlink:href="sortingUtils_8hh.html" target="_top" xlink:title=" ">
<polygon fill="white" stroke="#666666" points="450.5,-255.5 301.5,-255.5 301.5,-236.5 450.5,-236.5 450.5,-255.5"/>
<text text-anchor="middle" x="376" y="-243.5" font-family="Helvetica,sans-Serif" font-size="10.00">utils/sorting/sortingUtils.hh</text>
</a>
</g>
</g>
<!-- Node21&#45;&gt;Node24 -->
<g id="edge34_Node000021_Node000024" class="edge">
<title>Node21&#45;&gt;Node24</title>
<g id="a_edge34_Node000021_Node000024"><a xlink:title=" ">
<path fill="none" stroke="#63b8ff" d="M464.24,-302.37C447.36,-291.78 418.51,-273.67 398.41,-261.06"/>
<polygon fill="#63b8ff" stroke="#63b8ff" points="400.19,-258.05 389.86,-255.7 396.47,-263.98 400.19,-258.05"/>
</a>
</g>
</g>
<!-- Node25 -->
<g id="Node000025" class="node">
<title>Node25</title>
<g id="a_Node000025"><a xlink:href="ResidueIndexMap_8hh.html" target="_top" xlink:title=" ">
<polygon fill="white" stroke="#666666" points="1349,-261 1193,-261 1193,-231 1349,-231 1349,-261"/>
<text text-anchor="start" x="1201" y="-249" font-family="Helvetica,sans-Serif" font-size="10.00">utils/sequence/ResidueIndex</text>
<text text-anchor="middle" x="1271" y="-238" font-family="Helvetica,sans-Serif" font-size="10.00">Map/ResidueIndexMap.hh</text>
</a>
</g>
</g>
<!-- Node21&#45;&gt;Node25 -->
<g id="edge36_Node000021_Node000025" class="edge">
<title>Node21&#45;&gt;Node25</title>
<g id="a_edge36_Node000021_Node000025"><a xlink:title=" ">
<path fill="none" stroke="#63b8ff" d="M510.07,-308.41C623.35,-299.27 1007.32,-268.28 1182.52,-254.14"/>
<polygon fill="#63b8ff" stroke="#63b8ff" points="1183.06,-257.61 1192.74,-253.32 1182.49,-250.63 1183.06,-257.61"/>
</a>
</g>
</g>
<!-- Node30 -->
<g id="Node000030" class="node">
<title>Node30</title>
<g id="a_Node000030"><a xlink:href="sigma4bitPackingUtils_8hh.html" target="_top" xlink:title=" ">
<polygon fill="white" stroke="#666666" points="646,-140 500,-140 500,-110 646,-110 646,-140"/>
<text text-anchor="start" x="508" y="-128" font-family="Helvetica,sans-Serif" font-size="10.00">utils/sequence/packedDNA</text>
<text text-anchor="middle" x="573" y="-117" font-family="Helvetica,sans-Serif" font-size="10.00">/sigma4bitPackingUtils.hh</text>
</a>
</g>
</g>
<!-- Node21&#45;&gt;Node30 -->
<g id="edge49_Node000021_Node000030" class="edge">
<title>Node21&#45;&gt;Node30</title>
<g id="a_edge49_Node000021_Node000030"><a xlink:title=" ">
<path fill="none" stroke="#63b8ff" d="M482.58,-302.08C496.72,-274.55 539.97,-190.32 561.12,-149.14"/>
<polygon fill="#63b8ff" stroke="#63b8ff" points="564.29,-150.62 565.75,-140.12 558.07,-147.42 564.29,-150.62"/>
</a>
</g>
</g>
<!-- Node24&#45;&gt;Node3 -->
<g id="edge35_Node000024_Node000003" class="edge">
<title>Node24&#45;&gt;Node3</title>
<g id="a_edge35_Node000024_Node000003"><a xlink:title=" ">
<path fill="none" stroke="#63b8ff" d="M368.12,-236.29C348.53,-213.55 301.28,-151.31 331,-110 384.4,-35.77 678.66,-16.49 787.5,-11.86"/>
<polygon fill="#63b8ff" stroke="#63b8ff" points="787.89,-15.35 797.74,-11.44 787.61,-8.35 787.89,-15.35"/>
</a>
</g>
</g>
<!-- Node25&#45;&gt;Node4 -->
<g id="edge37_Node000025_Node000004" class="edge">
<title>Node25&#45;&gt;Node4</title>
<g id="a_edge37_Node000025_Node000004"><a xlink:title=" ">
<path fill="none" stroke="#63b8ff" d="M1349.2,-245.08C1488.93,-242.85 1788.75,-227.24 2023,-140 2073.6,-121.15 2099.2,-121.43 2125,-74 2134.15,-57.18 2119.69,-38.59 2105.86,-25.9"/>
<polygon fill="#63b8ff" stroke="#63b8ff" points="2107.85,-23 2097.98,-19.16 2103.31,-28.32 2107.85,-23"/>
</a>
</g>
</g>
<!-- Node25&#45;&gt;Node6 -->
<g id="edge38_Node000025_Node000006" class="edge">
<title>Node25&#45;&gt;Node6</title>
<g id="a_edge38_Node000025_Node000006"><a xlink:title=" ">
<path fill="none" stroke="#63b8ff" d="M1282.1,-230.6C1288.72,-221.08 1296.51,-207.99 1300,-195 1311.04,-153.98 1327.81,-134.36 1282,-55 1274.75,-42.44 1262.46,-32.08 1251.24,-24.52"/>
<polygon fill="#63b8ff" stroke="#63b8ff" points="1252.91,-21.44 1242.59,-19.08 1249.19,-27.37 1252.91,-21.44"/>
</a>
</g>
</g>
<!-- Node25&#45;&gt;Node8 -->
<g id="edge39_Node000025_Node000008" class="edge">
<title>Node25&#45;&gt;Node8</title>
<g id="a_edge39_Node000025_Node000008"><a xlink:title=" ">
<path fill="none" stroke="#63b8ff" d="M1296.63,-230.92C1309.89,-222.3 1325.11,-210.02 1334,-195 1354.73,-159.95 1357.24,-110.79 1356.87,-84.25"/>
<polygon fill="#63b8ff" stroke="#63b8ff" points="1360.36,-83.97 1356.56,-74.08 1353.37,-84.18 1360.36,-83.97"/>
</a>
</g>
</g>
<!-- Node26 -->
<g id="Node000026" class="node">
<title>Node26</title>
<g id="a_Node000026"><a xlink:title=" ">
<polygon fill="#e0e0e0" stroke="#999999" points="1134.5,-195 1069.5,-195 1069.5,-176 1134.5,-176 1134.5,-195"/>
<text text-anchor="middle" x="1102" y="-183" font-family="Helvetica,sans-Serif" font-size="10.00">stdexcept</text>
</a>
</g>
</g>
<!-- Node25&#45;&gt;Node26 -->
<g id="edge40_Node000025_Node000026" class="edge">
<title>Node25&#45;&gt;Node26</title>
<g id="a_edge40_Node000025_Node000026"><a xlink:title=" ">
<path fill="none" stroke="#63b8ff" d="M1230.52,-230.99C1201.82,-221.05 1163.72,-207.86 1136.47,-198.43"/>
<polygon fill="#63b8ff" stroke="#63b8ff" points="1137.55,-195.1 1126.96,-195.14 1135.26,-201.72 1137.55,-195.1"/>
</a>
</g>
</g>
<!-- Node27 -->
<g id="Node000027" class="node">
<title>Node27</title>
<g id="a_Node000027"><a xlink:href="ematch__src_2utils_2FLArray_2FLEArray_8hh.html" target="_top" xlink:title=" ">
<polygon fill="white" stroke="#666666" points="1291.5,-195 1152.5,-195 1152.5,-176 1291.5,-176 1291.5,-195"/>
<text text-anchor="middle" x="1222" y="-183" font-family="Helvetica,sans-Serif" font-size="10.00">utils/FLArray/FLEArray.hh</text>
</a>
</g>
</g>
<!-- Node25&#45;&gt;Node27 -->
<g id="edge41_Node000025_Node000027" class="edge">
<title>Node25&#45;&gt;Node27</title>
<g id="a_edge41_Node000025_Node000027"><a xlink:title=" ">
<path fill="none" stroke="#63b8ff" d="M1259.14,-230.84C1252.1,-222.43 1243.14,-211.74 1235.79,-202.96"/>
<polygon fill="#63b8ff" stroke="#63b8ff" points="1238.45,-200.68 1229.34,-195.27 1233.08,-205.18 1238.45,-200.68"/>
</a>
</g>
</g>
<!-- Node27&#45;&gt;Node3 -->
<g id="edge44_Node000027_Node000003" class="edge">
<title>Node27&#45;&gt;Node3</title>
<g id="a_edge44_Node000027_Node000003"><a xlink:title=" ">
<path fill="none" stroke="#63b8ff" d="M1152.95,-175.98C1080.9,-166.58 976.3,-151.29 961,-140 926.93,-114.86 948.07,-84.8 918,-55 903.37,-40.51 883.08,-29.91 865.47,-22.71"/>
<polygon fill="#63b8ff" stroke="#63b8ff" points="866.6,-19.39 856.01,-19.05 864.08,-25.92 866.6,-19.39"/>
</a>
</g>
</g>
<!-- Node27&#45;&gt;Node6 -->
<g id="edge43_Node000027_Node000006" class="edge">
<title>Node27&#45;&gt;Node6</title>
<g id="a_edge43_Node000027_Node000006"><a xlink:title=" ">
<path fill="none" stroke="#63b8ff" d="M1219.32,-175.94C1213.17,-155.09 1199.23,-100.06 1208,-55 1209.79,-45.8 1213.48,-36.09 1217.06,-28.1"/>
<polygon fill="#63b8ff" stroke="#63b8ff" points="1220.23,-29.59 1221.38,-19.06 1213.91,-26.57 1220.23,-29.59"/>
</a>
</g>
</g>
<!-- Node27&#45;&gt;Node7 -->
<g id="edge48_Node000027_Node000007" class="edge">
<title>Node27&#45;&gt;Node7</title>
<g id="a_edge48_Node000027_Node000007"><a xlink:title=" ">
<path fill="none" stroke="#63b8ff" d="M1270.28,-175.99C1330.02,-165.47 1431.69,-147.55 1495.72,-136.27"/>
<polygon fill="#63b8ff" stroke="#63b8ff" points="1496.43,-139.7 1505.67,-134.52 1495.21,-132.81 1496.43,-139.7"/>
</a>
</g>
</g>
<!-- Node27&#45;&gt;Node11 -->
<g id="edge42_Node000027_Node000011" class="edge">
<title>Node27&#45;&gt;Node11</title>
<g id="a_edge42_Node000027_Node000011"><a xlink:title=" ">
<path fill="none" stroke="#63b8ff" d="M1223.65,-175.94C1227.35,-156.82 1236.35,-110.27 1241.4,-84.12"/>
<polygon fill="#63b8ff" stroke="#63b8ff" points="1244.84,-84.78 1243.3,-74.3 1237.96,-83.46 1244.84,-84.78"/>
</a>
</g>
</g>
<!-- Node27&#45;&gt;Node13 -->
<g id="edge47_Node000027_Node000013" class="edge">
<title>Node27&#45;&gt;Node13</title>
<g id="a_edge47_Node000027_Node000013"><a xlink:title=" ">
<path fill="none" stroke="#63b8ff" d="M1291.77,-183.29C1391.87,-180.47 1570.33,-171.1 1626,-140 1648.97,-127.17 1665.93,-101.14 1675.4,-83.51"/>
<polygon fill="#63b8ff" stroke="#63b8ff" points="1678.69,-84.76 1680.09,-74.26 1672.44,-81.6 1678.69,-84.76"/>
</a>
</g>
</g>
<!-- Node28 -->
<g id="Node000028" class="node">
<title>Node28</title>
<g id="a_Node000028"><a xlink:title=" ">
<polygon fill="#e0e0e0" stroke="#999999" points="1034,-134.5 970,-134.5 970,-115.5 1034,-115.5 1034,-134.5"/>
<text text-anchor="middle" x="1002" y="-122.5" font-family="Helvetica,sans-Serif" font-size="10.00">algorithm</text>
</a>
</g>
</g>
<!-- Node27&#45;&gt;Node28 -->
<g id="edge45_Node000027_Node000028" class="edge">
<title>Node27&#45;&gt;Node28</title>
<g id="a_edge45_Node000027_Node000028"><a xlink:title=" ">
<path fill="none" stroke="#63b8ff" d="M1183.68,-175.97C1147.27,-167.63 1091.07,-154.16 1043,-140 1040.69,-139.32 1038.31,-138.59 1035.92,-137.83"/>
<polygon fill="#63b8ff" stroke="#63b8ff" points="1036.76,-134.43 1026.17,-134.64 1034.58,-141.08 1036.76,-134.43"/>
</a>
</g>
</g>
<!-- Node29 -->
<g id="Node000029" class="node">
<title>Node29</title>
<g id="a_Node000029"><a xlink:title=" ">
<polygon fill="#e0e0e0" stroke="#999999" points="1177.5,-134.5 1052.5,-134.5 1052.5,-115.5 1177.5,-115.5 1177.5,-134.5"/>
<text text-anchor="middle" x="1115" y="-122.5" font-family="Helvetica,sans-Serif" font-size="10.00">boost/lexical_cast.hpp</text>
</a>
</g>
</g>
<!-- Node27&#45;&gt;Node29 -->
<g id="edge46_Node000027_Node000029" class="edge">
<title>Node27&#45;&gt;Node29</title>
<g id="a_edge46_Node000027_Node000029"><a xlink:title=" ">
<path fill="none" stroke="#63b8ff" d="M1206.21,-175.87C1188.67,-166.28 1160.12,-150.67 1139.63,-139.47"/>
<polygon fill="#63b8ff" stroke="#63b8ff" points="1141.31,-136.39 1130.85,-134.67 1137.95,-142.54 1141.31,-136.39"/>
</a>
</g>
</g>
<!-- Node30&#45;&gt;Node3 -->
<g id="edge51_Node000030_Node000003" class="edge">
<title>Node30&#45;&gt;Node3</title>
<g id="a_edge51_Node000030_Node000003"><a xlink:title=" ">
<path fill="none" stroke="#63b8ff" d="M551.02,-109.99C531.21,-95.66 507.42,-73.02 523,-55 556.74,-15.99 712.61,-10.49 787.55,-10.16"/>
<polygon fill="#63b8ff" stroke="#63b8ff" points="788,-13.66 797.99,-10.15 787.99,-6.66 788,-13.66"/>
</a>
</g>
</g>
<!-- Node30&#45;&gt;Node6 -->
<g id="edge52_Node000030_Node000006" class="edge">
<title>Node30&#45;&gt;Node6</title>
<g id="a_edge52_Node000030_Node000006"><a xlink:title=" ">
<path fill="none" stroke="#63b8ff" d="M598.71,-109.87C629.59,-93.62 683.45,-67.58 733,-55 901.6,-12.2 1111.79,-9.26 1192.4,-9.91"/>
<polygon fill="#63b8ff" stroke="#63b8ff" points="1192.42,-13.41 1202.46,-10.01 1192.5,-6.41 1192.42,-13.41"/>
</a>
</g>
</g>
<!-- Node30&#45;&gt;Node13 -->
<g id="edge55_Node000030_Node000013" class="edge">
<title>Node30&#45;&gt;Node13</title>
<g id="a_edge55_Node000030_Node000013"><a xlink:title=" ">
<path fill="none" stroke="#63b8ff" d="M646.25,-111.01C649.2,-110.64 652.13,-110.3 655,-110 1063.31,-67.36 1168.19,-98.41 1578,-74 1590.02,-73.28 1602.8,-72.38 1615.17,-71.43"/>
<polygon fill="#63b8ff" stroke="#63b8ff" points="1615.74,-74.9 1625.44,-70.63 1615.19,-67.92 1615.74,-74.9"/>
</a>
</g>
</g>
<!-- Node30&#45;&gt;Node23 -->
<g id="edge54_Node000030_Node000023" class="edge">
<title>Node30&#45;&gt;Node23</title>
<g id="a_edge54_Node000030_Node000023"><a xlink:title=" ">
<path fill="none" stroke="#63b8ff" d="M499.72,-115.3C484.29,-113.51 468.11,-111.67 453,-110 376.16,-101.52 171.43,-116.71 107,-74 91.3,-63.59 81.99,-43.65 76.97,-28.88"/>
<polygon fill="#63b8ff" stroke="#63b8ff" points="80.3,-27.79 74.04,-19.25 73.6,-29.83 80.3,-27.79"/>
</a>
</g>
</g>
<!-- Node31 -->
<g id="Node000031" class="node">
<title>Node31</title>
<g id="a_Node000031"><a xlink:title=" ">
<polygon fill="#e0e0e0" stroke="#999999" points="579.5,-74 532.5,-74 532.5,-55 579.5,-55 579.5,-74"/>
<text text-anchor="middle" x="556" y="-62" font-family="Helvetica,sans-Serif" font-size="10.00">cmath</text>
</a>
</g>
</g>
<!-- Node30&#45;&gt;Node31 -->
<g id="edge50_Node000030_Node000031" class="edge">
<title>Node30&#45;&gt;Node31</title>
<g id="a_edge50_Node000030_Node000031"><a xlink:title=" ">
<path fill="none" stroke="#63b8ff" d="M568.88,-109.84C566.62,-102.04 563.78,-92.27 561.34,-83.89"/>
<polygon fill="#63b8ff" stroke="#63b8ff" points="564.7,-82.89 558.55,-74.27 557.98,-84.85 564.7,-82.89"/>
</a>
</g>
</g>
<!-- Node32 -->
<g id="Node000032" class="node">
<title>Node32</title>
<g id="a_Node000032"><a xlink:title=" ">
<polygon fill="#e0e0e0" stroke="#999999" points="648,-74 598,-74 598,-55 648,-55 648,-74"/>
<text text-anchor="middle" x="623" y="-62" font-family="Helvetica,sans-Serif" font-size="10.00">cstring</text>
</a>
</g>
</g>
<!-- Node30&#45;&gt;Node32 -->
<g id="edge53_Node000030_Node000032" class="edge">
<title>Node30&#45;&gt;Node32</title>
<g id="a_edge53_Node000030_Node000032"><a xlink:title=" ">
<path fill="none" stroke="#63b8ff" d="M585.1,-109.84C592.29,-101.43 601.43,-90.74 608.93,-81.96"/>
<polygon fill="#63b8ff" stroke="#63b8ff" points="611.67,-84.14 615.51,-74.27 606.35,-79.59 611.67,-84.14"/>
</a>
</g>
</g>
<!-- Node33 -->
<g id="Node000033" class="node">
<title>Node33</title>
<g id="a_Node000033"><a xlink:href="Sigma4bitPackedIdx_8hh.html" target="_top" xlink:title=" ">
<polygon fill="white" stroke="#666666" points="246,-74 116,-74 116,-55 246,-55 246,-74"/>
<text text-anchor="middle" x="181" y="-62" font-family="Helvetica,sans-Serif" font-size="10.00">Sigma4bitPackedIdx.hh</text>
</a>
</g>
</g>
<!-- Node30&#45;&gt;Node33 -->
<g id="edge56_Node000030_Node000033" class="edge">
<title>Node30&#45;&gt;Node33</title>
<g id="a_edge56_Node000030_Node000033"><a xlink:title=" ">
<path fill="none" stroke="#63b8ff" d="M499.73,-113.07C427.49,-102.29 318.05,-85.95 248.05,-75.51"/>
<polygon fill="#63b8ff" stroke="#63b8ff" points="248.42,-72.02 238.01,-74.01 247.39,-78.95 248.42,-72.02"/>
</a>
</g>
</g>
<!-- Node33&#45;&gt;Node3 -->
<g id="edge57_Node000033_Node000003" class="edge">
<title>Node33&#45;&gt;Node3</title>
<g id="a_edge57_Node000033_Node000003"><a xlink:title=" ">
<path fill="none" stroke="#63b8ff" d="M246.08,-56.35C250.79,-55.88 255.47,-55.42 260,-55 457.73,-36.62 694.66,-19.7 787.7,-13.25"/>
<polygon fill="#63b8ff" stroke="#63b8ff" points="788.07,-16.74 797.8,-12.56 787.58,-9.75 788.07,-16.74"/>
</a>
</g>
</g>
<!-- Node33&#45;&gt;Node23 -->
<g id="edge58_Node000033_Node000023" class="edge">
<title>Node33&#45;&gt;Node23</title>
<g id="a_edge58_Node000033_Node000023"><a xlink:title=" ">
<path fill="none" stroke="#63b8ff" d="M163.49,-54.98C146.03,-46.5 118.99,-33.35 98.83,-23.54"/>
<polygon fill="#63b8ff" stroke="#63b8ff" points="100.36,-20.4 89.83,-19.17 97.29,-26.69 100.36,-20.4"/>
</a>
</g>
</g>
<!-- Node34 -->
<g id="Node000034" class="node">
<title>Node34</title>
<g id="a_Node000034"><a xlink:href="sigma4_8hh.html" target="_top" xlink:title=" ">
<polygon fill="white" stroke="#666666" points="230,-19 162,-19 162,0 230,0 230,-19"/>
<text text-anchor="middle" x="196" y="-7" font-family="Helvetica,sans-Serif" font-size="10.00">sigma4.hh</text>
</a>
</g>
</g>
<!-- Node33&#45;&gt;Node34 -->
<g id="edge59_Node000033_Node000034" class="edge">
<title>Node33&#45;&gt;Node34</title>
<g id="a_edge59_Node000033_Node000034"><a xlink:title=" ">
<path fill="none" stroke="#63b8ff" d="M183.48,-54.75C185.46,-47.72 188.32,-37.62 190.81,-28.84"/>
<polygon fill="#63b8ff" stroke="#63b8ff" points="194.21,-29.66 193.57,-19.09 187.48,-27.76 194.21,-29.66"/>
</a>
</g>
</g>
<!-- Node35&#45;&gt;Node3 -->
<g id="edge61_Node000035_Node000003" class="edge">
<title>Node35&#45;&gt;Node3</title>
<g id="a_edge61_Node000035_Node000003"><a xlink:title=" ">
<path fill="none" stroke="#63b8ff" d="M665.23,-181.48C601.75,-177.04 512.81,-166.2 491,-140 482.47,-129.75 488.38,-123.07 491,-110 496.21,-84.02 493.03,-71.2 514,-55 555.94,-22.6 712.4,-13.76 787.4,-11.37"/>
<polygon fill="#63b8ff" stroke="#63b8ff" points="787.96,-14.86 797.85,-11.07 787.76,-7.86 787.96,-14.86"/>
</a>
</g>
</g>
<!-- Node35&#45;&gt;Node22 -->
<g id="edge62_Node000035_Node000022" class="edge">
<title>Node35&#45;&gt;Node22</title>
<g id="a_edge62_Node000035_Node000022"><a xlink:title=" ">
<path fill="none" stroke="#63b8ff" d="M674.39,-175.97C618.85,-167.55 532.49,-153.94 458,-140 452.32,-138.94 446.38,-137.76 440.49,-136.56"/>
<polygon fill="#63b8ff" stroke="#63b8ff" points="441.18,-133.13 430.68,-134.53 439.76,-139.99 441.18,-133.13"/>
</a>
</g>
</g>
<!-- Node36 -->
<g id="Node000036" class="node">
<title>Node36</title>
<g id="a_Node000036"><a xlink:href="recountTypes_8hh.html" target="_top" xlink:title=" ">
<polygon fill="white" stroke="#666666" points="838,-74 742,-74 742,-55 838,-55 838,-74"/>
<text text-anchor="middle" x="790" y="-62" font-family="Helvetica,sans-Serif" font-size="10.00">recountTypes.hh</text>
</a>
</g>
</g>
<!-- Node35&#45;&gt;Node36 -->
<g id="edge63_Node000035_Node000036" class="edge">
<title>Node35&#45;&gt;Node36</title>
<g id="a_edge63_Node000035_Node000036"><a xlink:title=" ">
<path fill="none" stroke="#63b8ff" d="M761.14,-175.87C778.35,-169.1 798.74,-157.79 809,-140 819.28,-122.19 810.31,-98.84 801.53,-83.07"/>
<polygon fill="#63b8ff" stroke="#63b8ff" points="804.43,-81.1 796.27,-74.34 798.44,-84.71 804.43,-81.1"/>
</a>
</g>
</g>
<!-- Node37 -->
<g id="Node000037" class="node">
<title>Node37</title>
<g id="a_Node000037"><a xlink:href="RecountTagIdProbPair_8hh.html" target="_top" xlink:title=" ">
<polygon fill="white" stroke="#666666" points="800,-134.5 664,-134.5 664,-115.5 800,-115.5 800,-134.5"/>
<text text-anchor="middle" x="732" y="-122.5" font-family="Helvetica,sans-Serif" font-size="10.00">RecountTagIdProbPair.hh</text>
</a>
</g>
</g>
<!-- Node35&#45;&gt;Node37 -->
<g id="edge66_Node000035_Node000037" class="edge">
<title>Node35&#45;&gt;Node37</title>
<g id="a_edge66_Node000035_Node000037"><a xlink:title=" ">
<path fill="none" stroke="#63b8ff" d="M732,-175.87C732,-167.75 732,-155.31 732,-144.89"/>
<polygon fill="#63b8ff" stroke="#63b8ff" points="735.5,-144.67 732,-134.67 728.5,-144.67 735.5,-144.67"/>
</a>
</g>
</g>
<!-- Node36&#45;&gt;Node3 -->
<g id="edge64_Node000036_Node000003" class="edge">
<title>Node36&#45;&gt;Node3</title>
<g id="a_edge64_Node000036_Node000003"><a xlink:title=" ">
<path fill="none" stroke="#63b8ff" d="M796.27,-54.75C801.59,-47.34 809.36,-36.5 815.88,-27.41"/>
<polygon fill="#63b8ff" stroke="#63b8ff" points="818.86,-29.26 821.84,-19.09 813.17,-25.18 818.86,-29.26"/>
</a>
</g>
</g>
<!-- Node36&#45;&gt;Node6 -->
<g id="edge65_Node000036_Node000006" class="edge">
<title>Node36&#45;&gt;Node6</title>
<g id="a_edge65_Node000036_Node000006"><a xlink:title=" ">
<path fill="none" stroke="#63b8ff" d="M838.33,-57.63C927.47,-46.79 1115.7,-23.91 1192.4,-14.58"/>
<polygon fill="#63b8ff" stroke="#63b8ff" points="1192.96,-18.04 1202.46,-13.36 1192.11,-11.09 1192.96,-18.04"/>
</a>
</g>
</g>
<!-- Node37&#45;&gt;Node3 -->
<g id="edge67_Node000037_Node000003" class="edge">
<title>Node37&#45;&gt;Node3</title>
<g id="a_edge67_Node000037_Node000003"><a xlink:title=" ">
<path fill="none" stroke="#63b8ff" d="M729.35,-115.09C725.75,-101.06 721.04,-73.52 733,-55 745.32,-35.94 768.15,-24.89 788.35,-18.57"/>
<polygon fill="#63b8ff" stroke="#63b8ff" points="789.33,-21.93 797.99,-15.83 787.41,-15.2 789.33,-21.93"/>
</a>
</g>
</g>
<!-- Node37&#45;&gt;Node36 -->
<g id="edge68_Node000037_Node000036" class="edge">
<title>Node37&#45;&gt;Node36</title>
<g id="a_edge68_Node000037_Node000036"><a xlink:title=" ">
<path fill="none" stroke="#63b8ff" d="M740.56,-115.37C749.38,-106.47 763.34,-92.39 774.18,-81.45"/>
<polygon fill="#63b8ff" stroke="#63b8ff" points="776.85,-83.73 781.41,-74.17 771.88,-78.8 776.85,-83.73"/>
</a>
</g>
</g>
</g>
</svg>

<g id="navigator" transform="translate(0 0)" fill="#404254">
  <rect fill="#f2f5e9" fill-opacity="0.5" stroke="#606060" stroke-width=".5" x="0" y="0" width="60" height="60"/>
  <use id="zoomplus" xlink:href="#zoomPlus" x="17" y="9" onmousedown="handleZoom(evt,'in')"/>
  <use id="zoomminus" xlink:href="#zoomMin" x="42" y="9" onmousedown="handleZoom(evt,'out')"/>
  <use id="reset" xlink:href="#resetDef" x="30" y="36" onmousedown="handleReset()"/>
   <use id="arrowup" xlink:href="#arrowUp" x="0" y="0" onmousedown="handlePan(0,-1)"/>
  <use id="arrowright" xlink:href="#arrowRight" x="0" y="0" onmousedown="handlePan(1,0)"/>
  <use id="arrowdown" xlink:href="#arrowDown" x="0" y="0" onmousedown="handlePan(0,1)"/>
  <use id="arrowleft" xlink:href="#arrowLeft" x="0" y="0" onmousedown="handlePan(-1,0)"/>
</g>
<svg viewBox="0 0 15 15" width="100%" height="30px" preserveAspectRatio="xMaxYMin meet">
 <g id="arrow_out" transform="scale(0.3 0.3)">
  <a xlink:href="RecountNeighborProbGraphOnDisk__SortedTagSet_8cc__incl_org.svg" target="_base">
   <rect id="button" ry="5" rx="5" y="6" x="6" height="38" width="38"
        fill="#f2f5e9" fill-opacity="0.5" stroke="#606060" stroke-width="1.0"/>
   <path id="arrow"
     d="M 11.500037,31.436501 C 11.940474,20.09759 22.043105,11.32322 32.158766,21.979434 L 37.068811,17.246167 C 37.068811,17.246167 37.088388,32 37.088388,32 L 22.160133,31.978069 C 22.160133,31.978069 26.997745,27.140456 26.997745,27.140456 C 18.528582,18.264221 13.291696,25.230495 11.500037,31.436501 z"
     style="fill:#404040;"/>
  </a>
 </g>
</svg>

<style type='text/css'>
<![CDATA[
[data-mouse-over-selected='false'] { opacity: 0.7; }
[data-mouse-over-selected='true']  { opacity: 1.0; }
]]>
</style>
<script type="application/ecmascript"><![CDATA[
document.addEventListener('DOMContentLoaded', (event) => {
  highlightEdges();
  highlightAdjacentNodes();
});
]]></script>
</svg>
