<?xml version="1.0" encoding="UTF-8" standalone="no"?>
<!DOCTYPE svg PUBLIC "-//W3C//DTD SVG 1.1//EN"
 "http://www.w3.org/Graphics/SVG/1.1/DTD/svg11.dtd">
<!-- Generated by graphviz version 2.43.0 (0)
 -->
<!-- Title: ematch_src/RecountTagCounts.hh Pages: 1 -->
<!--zoomable 225 -->

<svg id="main" version="1.1" xmlns="http://www.w3.org/2000/svg" xmlns:xlink="http://www.w3.org/1999/xlink" xml:space="preserve" onload="init(evt)">
<style type="text/css"><![CDATA[
.node, .edge {opacity: 0.7;}
.node.selected, .edge.selected {opacity: 1;}
.edge:hover path { stroke: red; }
.edge:hover polygon { stroke: red; fill: red; }
]]></style>

<defs>
  <circle id="rim" cx="0" cy="0" r="7"/>
  <circle id="rim2" cx="0" cy="0" r="3.5"/>
  <g id="zoomPlus">
    <use xlink:href="#rim" fill="#404040"><set attributeName="fill" to="#808080" begin="zoomplus.mouseover" end="zoomplus.mouseout"/></use>
    <path d="M-4,0h8M0,-4v8" fill="none" stroke="white" stroke-width="1.5" pointer-events="none"/>
  </g>
  <g id="zoomMin">
    <use xlink:href="#rim" fill="#404040"><set attributeName="fill" to="#808080" begin="zoomminus.mouseover" end="zoomminus.mouseout"/></use>
    <path d="M-4,0h8" fill="none" stroke="white" stroke-width="1.5" pointer-events="none"/>
  </g>
  <g id="arrowUp" transform="translate(30 24)">
    <use xlink:href="#rim"/>
    <path pointer-events="none" fill="none" stroke="white" stroke-width="1.5" d="M0,-3.0v7 M-2.5,-0.5L0,-3.0L2.5,-0.5"/>
  </g>
  <g id="arrowRight" transform="rotate(90) translate(36 -43)">
    <use xlink:href="#rim"/>
    <path pointer-events="none" fill="none" stroke="white" stroke-width="1.5" d="M0,-3.0v7 M-2.5,-0.5L0,-3.0L2.5,-0.5"/>
  </g>
  <g id="arrowDown" transform="rotate(180) translate(-30 -48)">
    <use xlink:href="#rim"/>
    <path pointer-events="none" fill="none" stroke="white" stroke-width="1.5" d="M0,-3.0v7 M-2.5,-0.5L0,-3.0L2.5,-0.5"/>
  </g>
  <g id="arrowLeft" transform="rotate(270) translate(-36 17)">
    <use xlink:href="#rim"/>
    <path pointer-events="none" fill="none" stroke="white" stroke-width="1.5" d="M0,-3.0v7 M-2.5,-0.5L0,-3.0L2.5,-0.5"/>
  </g>
  <g id="resetDef">
    <use xlink:href="#rim2" fill="#404040"><set attributeName="fill" to="#808080" begin="reset.mouseover" end="reset.mouseout"/></use>
  </g>
</defs>
<script type="application/ecmascript">
var viewWidth = 565;
var viewHeight = 225;
var sectionId = 'dynsection-1';
</script>
<script type="application/ecmascript" xlink:href="svg.min.js"/>
<svg id="graph" class="graph">
<g id="viewport">
<title>ematch_src/RecountTagCounts.hh</title>
<!-- Node1 -->
<g id="Node000001" class="node">
<title>Node1</title>
<g id="a_Node000001"><a xlink:title=" ">
<polygon fill="#999999" stroke="#666666" points="456,-217 275,-217 275,-198 456,-198 456,-217"/>
<text text-anchor="middle" x="365.5" y="-205" font-family="Helvetica,sans-Serif" font-size="10.00">ematch_src/RecountTagCounts.hh</text>
</a>
</g>
</g>
<!-- Node2 -->
<g id="Node000002" class="node">
<title>Node2</title>
<g id="a_Node000002"><a xlink:href="RecountComputerForGraphOnDisk_8hh.html" target="_top" xlink:title=" ">
<polygon fill="white" stroke="#666666" points="352.5,-162 188.5,-162 188.5,-132 352.5,-132 352.5,-162"/>
<text text-anchor="start" x="196.5" y="-150" font-family="Helvetica,sans-Serif" font-size="10.00">ematch_src/RecountComputer</text>
<text text-anchor="middle" x="270.5" y="-139" font-family="Helvetica,sans-Serif" font-size="10.00">ForGraphOnDisk.hh</text>
</a>
</g>
</g>
<!-- Node1&#45;&gt;Node2 -->
<g id="edge1_Node000001_Node000002" class="edge">
<title>Node1&#45;&gt;Node2</title>
<g id="a_edge1_Node000001_Node000002"><a xlink:title=" ">
<path fill="none" stroke="#63b8ff" d="M342.85,-192.55C327.92,-183.36 308.41,-171.35 293.42,-162.11"/>
<polygon fill="#63b8ff" stroke="#63b8ff" points="341.13,-195.6 351.48,-197.87 344.8,-189.64 341.13,-195.6"/>
</a>
</g>
</g>
<!-- Node9 -->
<g id="Node000009" class="node">
<title>Node9</title>
<g id="a_Node000009"><a xlink:href="RecountTagCounts_8cc.html" target="_top" xlink:title=" ">
<polygon fill="white" stroke="#666666" points="550,-156.5 371,-156.5 371,-137.5 550,-137.5 550,-156.5"/>
<text text-anchor="middle" x="460.5" y="-144.5" font-family="Helvetica,sans-Serif" font-size="10.00">ematch_src/RecountTagCounts.cc</text>
</a>
</g>
</g>
<!-- Node1&#45;&gt;Node9 -->
<g id="edge8_Node000001_Node000009" class="edge">
<title>Node1&#45;&gt;Node9</title>
<g id="a_edge8_Node000001_Node000009"><a xlink:title=" ">
<path fill="none" stroke="#63b8ff" d="M388.29,-192.47C406.38,-181.32 431.11,-166.1 446.42,-156.67"/>
<polygon fill="#63b8ff" stroke="#63b8ff" points="386.2,-189.64 379.52,-197.87 389.87,-195.6 386.2,-189.64"/>
</a>
</g>
</g>
<!-- Node3 -->
<g id="Node000003" class="node">
<title>Node3</title>
<g id="a_Node000003"><a xlink:href="RecountComputerForGraphOnDisk_8cc.html" target="_top" xlink:title=" ">
<polygon fill="white" stroke="#666666" points="165.5,-96 1.5,-96 1.5,-66 165.5,-66 165.5,-96"/>
<text text-anchor="start" x="9.5" y="-84" font-family="Helvetica,sans-Serif" font-size="10.00">ematch_src/RecountComputer</text>
<text text-anchor="middle" x="83.5" y="-73" font-family="Helvetica,sans-Serif" font-size="10.00">ForGraphOnDisk.cc</text>
</a>
</g>
</g>
<!-- Node2&#45;&gt;Node3 -->
<g id="edge2_Node000002_Node000003" class="edge">
<title>Node2&#45;&gt;Node3</title>
<g id="a_edge2_Node000002_Node000003"><a xlink:title=" ">
<path fill="none" stroke="#63b8ff" d="M219.63,-128.59C189.73,-118.36 152.43,-105.59 124.44,-96.01"/>
<polygon fill="#63b8ff" stroke="#63b8ff" points="218.87,-132.03 229.46,-131.95 221.13,-125.41 218.87,-132.03"/>
</a>
</g>
</g>
<!-- Node4 -->
<g id="Node000004" class="node">
<title>Node4</title>
<g id="a_Node000004"><a xlink:href="RecountExpectationMatchingTagCorrector_8hh.html" target="_top" xlink:title=" ">
<polygon fill="white" stroke="#666666" points="357,-96 184,-96 184,-66 357,-66 357,-96"/>
<text text-anchor="start" x="192" y="-84" font-family="Helvetica,sans-Serif" font-size="10.00">ematch_src/RecountExpectation</text>
<text text-anchor="middle" x="270.5" y="-73" font-family="Helvetica,sans-Serif" font-size="10.00">MatchingTagCorrector.hh</text>
</a>
</g>
</g>
<!-- Node2&#45;&gt;Node4 -->
<g id="edge3_Node000002_Node000004" class="edge">
<title>Node2&#45;&gt;Node4</title>
<g id="a_edge3_Node000002_Node000004"><a xlink:title=" ">
<path fill="none" stroke="#63b8ff" d="M270.5,-121.54C270.5,-112.96 270.5,-103.61 270.5,-96.16"/>
<polygon fill="#63b8ff" stroke="#63b8ff" points="267,-121.8 270.5,-131.8 274,-121.8 267,-121.8"/>
</a>
</g>
</g>
<!-- Node8 -->
<g id="Node000008" class="node">
<title>Node8</title>
<g id="a_Node000008"><a xlink:href="RecountGradientSearchTagCorrector_8hh.html" target="_top" xlink:title=" ">
<polygon fill="white" stroke="#666666" points="533.5,-96 375.5,-96 375.5,-66 533.5,-66 533.5,-96"/>
<text text-anchor="start" x="383.5" y="-84" font-family="Helvetica,sans-Serif" font-size="10.00">ematch_src/RecountGradient</text>
<text text-anchor="middle" x="454.5" y="-73" font-family="Helvetica,sans-Serif" font-size="10.00">SearchTagCorrector.hh</text>
</a>
</g>
</g>
<!-- Node2&#45;&gt;Node8 -->
<g id="edge7_Node000002_Node000008" class="edge">
<title>Node2&#45;&gt;Node8</title>
<g id="a_edge7_Node000002_Node000008"><a xlink:title=" ">
<path fill="none" stroke="#63b8ff" d="M320.55,-128.59C349.97,-118.36 386.67,-105.59 414.21,-96.01"/>
<polygon fill="#63b8ff" stroke="#63b8ff" points="319.17,-125.36 310.88,-131.95 321.47,-131.98 319.17,-125.36"/>
</a>
</g>
</g>
<!-- Node5 -->
<g id="Node000005" class="node">
<title>Node5</title>
<g id="a_Node000005"><a xlink:href="RecountExpectationMatchingTagCorrector_8cc.html" target="_top" xlink:title=" ">
<polygon fill="white" stroke="#666666" points="173,-30 0,-30 0,0 173,0 173,-30"/>
<text text-anchor="start" x="8" y="-18" font-family="Helvetica,sans-Serif" font-size="10.00">ematch_src/RecountExpectation</text>
<text text-anchor="middle" x="86.5" y="-7" font-family="Helvetica,sans-Serif" font-size="10.00">MatchingTagCorrector.cc</text>
</a>
</g>
</g>
<!-- Node4&#45;&gt;Node5 -->
<g id="edge4_Node000004_Node000005" class="edge">
<title>Node4&#45;&gt;Node5</title>
<g id="a_edge4_Node000004_Node000005"><a xlink:title=" ">
<path fill="none" stroke="#63b8ff" d="M220.45,-62.59C191.03,-52.36 154.33,-39.59 126.79,-30.01"/>
<polygon fill="#63b8ff" stroke="#63b8ff" points="219.53,-65.98 230.12,-65.95 221.83,-59.36 219.53,-65.98"/>
</a>
</g>
</g>
<!-- Node6 -->
<g id="Node000006" class="node">
<title>Node6</title>
<g id="a_Node000006"><a xlink:href="RecountGradientSearchTagCorrector_8cc.html" target="_top" xlink:title=" ">
<polygon fill="white" stroke="#666666" points="349.5,-30 191.5,-30 191.5,0 349.5,0 349.5,-30"/>
<text text-anchor="start" x="199.5" y="-18" font-family="Helvetica,sans-Serif" font-size="10.00">ematch_src/RecountGradient</text>
<text text-anchor="middle" x="270.5" y="-7" font-family="Helvetica,sans-Serif" font-size="10.00">SearchTagCorrector.cc</text>
</a>
</g>
</g>
<!-- Node4&#45;&gt;Node6 -->
<g id="edge5_Node000004_Node000006" class="edge">
<title>Node4&#45;&gt;Node6</title>
<g id="a_edge5_Node000004_Node000006"><a xlink:title=" ">
<path fill="none" stroke="#63b8ff" d="M270.5,-55.54C270.5,-46.96 270.5,-37.61 270.5,-30.16"/>
<polygon fill="#63b8ff" stroke="#63b8ff" points="267,-55.8 270.5,-65.8 274,-55.8 267,-55.8"/>
</a>
</g>
</g>
<!-- Node7 -->
<g id="Node000007" class="node">
<title>Node7</title>
<g id="a_Node000007"><a xlink:href="runRecountExpectationMatchingTagCorrector_8cc.html" target="_top" xlink:title=" ">
<polygon fill="white" stroke="#666666" points="557,-30 368,-30 368,0 557,0 557,-30"/>
<text text-anchor="start" x="376" y="-18" font-family="Helvetica,sans-Serif" font-size="10.00">ematch_src/runRecountExpectation</text>
<text text-anchor="middle" x="462.5" y="-7" font-family="Helvetica,sans-Serif" font-size="10.00">MatchingTagCorrector.cc</text>
</a>
</g>
</g>
<!-- Node4&#45;&gt;Node7 -->
<g id="edge6_Node000004_Node000007" class="edge">
<title>Node4&#45;&gt;Node7</title>
<g id="a_edge6_Node000004_Node000007"><a xlink:title=" ">
<path fill="none" stroke="#63b8ff" d="M322.33,-62.72C353.09,-52.47 391.6,-39.63 420.46,-30.01"/>
<polygon fill="#63b8ff" stroke="#63b8ff" points="321.02,-59.47 312.64,-65.95 323.23,-66.11 321.02,-59.47"/>
</a>
</g>
</g>
</g>
</svg>

<g id="navigator" transform="translate(0 0)" fill="#404254">
  <rect fill="#f2f5e9" fill-opacity="0.5" stroke="#606060" stroke-width=".5" x="0" y="0" width="60" height="60"/>
  <use id="zoomplus" xlink:href="#zoomPlus" x="17" y="9" onmousedown="handleZoom(evt,'in')"/>
  <use id="zoomminus" xlink:href="#zoomMin" x="42" y="9" onmousedown="handleZoom(evt,'out')"/>
  <use id="reset" xlink:href="#resetDef" x="30" y="36" onmousedown="handleReset()"/>
   <use id="arrowup" xlink:href="#arrowUp" x="0" y="0" onmousedown="handlePan(0,-1)"/>
  <use id="arrowright" xlink:href="#arrowRight" x="0" y="0" onmousedown="handlePan(1,0)"/>
  <use id="arrowdown" xlink:href="#arrowDown" x="0" y="0" onmousedown="handlePan(0,1)"/>
  <use id="arrowleft" xlink:href="#arrowLeft" x="0" y="0" onmousedown="handlePan(-1,0)"/>
</g>
<svg viewBox="0 0 15 15" width="100%" height="30px" preserveAspectRatio="xMaxYMin meet">
 <g id="arrow_out" transform="scale(0.3 0.3)">
  <a xlink:href="RecountTagCounts_8hh__dep__incl_org.svg" target="_base">
   <rect id="button" ry="5" rx="5" y="6" x="6" height="38" width="38"
        fill="#f2f5e9" fill-opacity="0.5" stroke="#606060" stroke-width="1.0"/>
   <path id="arrow"
     d="M 11.500037,31.436501 C 11.940474,20.09759 22.043105,11.32322 32.158766,21.979434 L 37.068811,17.246167 C 37.068811,17.246167 37.088388,32 37.088388,32 L 22.160133,31.978069 C 22.160133,31.978069 26.997745,27.140456 26.997745,27.140456 C 18.528582,18.264221 13.291696,25.230495 11.500037,31.436501 z"
     style="fill:#404040;"/>
  </a>
 </g>
</svg>

<style type='text/css'>
<![CDATA[
[data-mouse-over-selected='false'] { opacity: 0.7; }
[data-mouse-over-selected='true']  { opacity: 1.0; }
]]>
</style>
<script type="application/ecmascript"><![CDATA[
document.addEventListener('DOMContentLoaded', (event) => {
  highlightEdges();
  highlightAdjacentNodes();
});
]]></script>
</svg>
