<?xml version="1.0" encoding="UTF-8" standalone="no"?>
<!DOCTYPE svg PUBLIC "-//W3C//DTD SVG 1.1//EN"
 "http://www.w3.org/Graphics/SVG/1.1/DTD/svg11.dtd">
<!-- Generated by graphviz version 2.43.0 (0)
 -->
<!-- Title: ematch_src/RecountComputerForGraphOnDisk.cc Pages: 1 -->
<svg width="1812pt" height="533pt"
 viewBox="0.00 0.00 1812.38 533.00" xmlns="http://www.w3.org/2000/svg" xmlns:xlink="http://www.w3.org/1999/xlink">
<g id="graph0" class="graph" transform="scale(1 1) rotate(0) translate(4 529)">
<title>ematch_src/RecountComputerForGraphOnDisk.cc</title>
<!-- Node1 -->
<g id="Node000001" class="node">
<title>Node1</title>
<g id="a_Node000001"><a xlink:title=" ">
<polygon fill="#999999" stroke="#666666" points="1179.38,-525 1015.38,-525 1015.38,-495 1179.38,-495 1179.38,-525"/>
<text text-anchor="start" x="1023.38" y="-513" font-family="Helvetica,sans-Serif" font-size="10.00">ematch_src/RecountComputer</text>
<text text-anchor="middle" x="1097.38" y="-502" font-family="Helvetica,sans-Serif" font-size="10.00">ForGraphOnDisk.cc</text>
</a>
</g>
</g>
<!-- Node2 -->
<g id="Node000002" class="node">
<title>Node2</title>
<g id="a_Node000002"><a xlink:title=" ">
<polygon fill="#e0e0e0" stroke="#999999" points="772.38,-255.5 668.38,-255.5 668.38,-236.5 772.38,-236.5 772.38,-255.5"/>
<text text-anchor="middle" x="720.38" y="-243.5" font-family="Helvetica,sans-Serif" font-size="10.00">boost/foreach.hpp</text>
</a>
</g>
</g>
<!-- Node1&#45;&gt;Node2 -->
<g id="edge1_Node000001_Node000002" class="edge">
<title>Node1&#45;&gt;Node2</title>
<g id="a_edge1_Node000001_Node000002"><a xlink:title=" ">
<path fill="none" stroke="#63b8ff" d="M1077.11,-494.91C1011.82,-449.54 807.39,-307.47 741.25,-261.5"/>
<polygon fill="#63b8ff" stroke="#63b8ff" points="743.08,-258.51 732.87,-255.68 739.08,-264.26 743.08,-258.51"/>
</a>
</g>
</g>
<!-- Node3 -->
<g id="Node000003" class="node">
<title>Node3</title>
<g id="a_Node000003"><a xlink:href="RecountComputerForGraphOnDisk_8hh.html" target="_top" xlink:title=" ">
<polygon fill="white" stroke="#666666" points="1388.38,-459 1226.38,-459 1226.38,-429 1388.38,-429 1388.38,-459"/>
<text text-anchor="start" x="1234.38" y="-447" font-family="Helvetica,sans-Serif" font-size="10.00">RecountComputerForGraphOn</text>
<text text-anchor="middle" x="1307.38" y="-436" font-family="Helvetica,sans-Serif" font-size="10.00">Disk.hh</text>
</a>
</g>
</g>
<!-- Node1&#45;&gt;Node3 -->
<g id="edge2_Node000001_Node000003" class="edge">
<title>Node1&#45;&gt;Node3</title>
<g id="a_edge2_Node000001_Node000003"><a xlink:title=" ">
<path fill="none" stroke="#63b8ff" d="M1143.47,-494.95C1175.34,-485.24 1217.91,-472.27 1251.68,-461.98"/>
<polygon fill="#63b8ff" stroke="#63b8ff" points="1252.86,-465.28 1261.4,-459.01 1250.82,-458.58 1252.86,-465.28"/>
</a>
</g>
</g>
<!-- Node4 -->
<g id="Node000004" class="node">
<title>Node4</title>
<g id="a_Node000004"><a xlink:title=" ">
<polygon fill="#e0e0e0" stroke="#999999" points="1514.38,-19 1454.38,-19 1454.38,0 1514.38,0 1514.38,-19"/>
<text text-anchor="middle" x="1484.38" y="-7" font-family="Helvetica,sans-Serif" font-size="10.00">iostream</text>
</a>
</g>
</g>
<!-- Node3&#45;&gt;Node4 -->
<g id="edge3_Node000003_Node000004" class="edge">
<title>Node3&#45;&gt;Node4</title>
<g id="a_edge3_Node000003_Node000004"><a xlink:title=" ">
<path fill="none" stroke="#63b8ff" d="M1388.62,-438.49C1529.53,-428.42 1804.38,-397.9 1804.38,-313 1804.38,-313 1804.38,-313 1804.38,-124 1804.38,-72.53 1758.46,-75.8 1711.38,-55 1649.74,-27.77 1571.37,-17.12 1524.69,-13.01"/>
<polygon fill="#63b8ff" stroke="#63b8ff" points="1524.92,-9.52 1514.67,-12.19 1524.35,-16.49 1524.92,-9.52"/>
</a>
</g>
</g>
<!-- Node5 -->
<g id="Node000005" class="node">
<title>Node5</title>
<g id="a_Node000005"><a xlink:href="RecountNeighborProbGraphOnDisk_8hh.html" target="_top" xlink:title=" ">
<polygon fill="white" stroke="#666666" points="1539.38,-393 1387.38,-393 1387.38,-363 1539.38,-363 1539.38,-393"/>
<text text-anchor="start" x="1395.38" y="-381" font-family="Helvetica,sans-Serif" font-size="10.00">RecountNeighborProbGraph</text>
<text text-anchor="middle" x="1463.38" y="-370" font-family="Helvetica,sans-Serif" font-size="10.00">OnDisk.hh</text>
</a>
</g>
</g>
<!-- Node3&#45;&gt;Node5 -->
<g id="edge4_Node000003_Node000005" class="edge">
<title>Node3&#45;&gt;Node5</title>
<g id="a_edge4_Node000003_Node000005"><a xlink:title=" ">
<path fill="none" stroke="#63b8ff" d="M1341.62,-428.95C1364.58,-419.53 1395.02,-407.04 1419.73,-396.91"/>
<polygon fill="#63b8ff" stroke="#63b8ff" points="1421.3,-400.05 1429.23,-393.01 1418.65,-393.57 1421.3,-400.05"/>
</a>
</g>
</g>
<!-- Node38 -->
<g id="Node000038" class="node">
<title>Node38</title>
<g id="a_Node000038"><a xlink:href="RecountTagCounts_8hh.html" target="_top" xlink:title=" ">
<polygon fill="white" stroke="#666666" points="1289.38,-387.5 1167.38,-387.5 1167.38,-368.5 1289.38,-368.5 1289.38,-387.5"/>
<text text-anchor="middle" x="1228.38" y="-375.5" font-family="Helvetica,sans-Serif" font-size="10.00">RecountTagCounts.hh</text>
</a>
</g>
</g>
<!-- Node3&#45;&gt;Node38 -->
<g id="edge67_Node000003_Node000038" class="edge">
<title>Node3&#45;&gt;Node38</title>
<g id="a_edge67_Node000003_Node000038"><a xlink:title=" ">
<path fill="none" stroke="#63b8ff" d="M1289.85,-428.8C1277.17,-418.53 1260.07,-404.67 1247.12,-394.18"/>
<polygon fill="#63b8ff" stroke="#63b8ff" points="1249.27,-391.42 1239.3,-387.84 1244.87,-396.86 1249.27,-391.42"/>
</a>
</g>
</g>
<!-- Node5&#45;&gt;Node4 -->
<g id="edge5_Node000005_Node000004" class="edge">
<title>Node5&#45;&gt;Node4</title>
<g id="a_edge5_Node000005_Node000004"><a xlink:title=" ">
<path fill="none" stroke="#63b8ff" d="M1539.57,-372.88C1613.29,-367.29 1718.06,-354.65 1747.38,-327 1773.97,-301.93 1766.38,-283.54 1766.38,-247 1766.38,-247 1766.38,-247 1766.38,-124 1766.38,-71.82 1718.8,-76.8 1671.38,-55 1623.57,-33.02 1563.72,-21.24 1524.79,-15.42"/>
<polygon fill="#63b8ff" stroke="#63b8ff" points="1524.79,-11.89 1514.39,-13.94 1523.8,-18.82 1524.79,-11.89"/>
</a>
</g>
</g>
<!-- Node6 -->
<g id="Node000006" class="node">
<title>Node6</title>
<g id="a_Node000006"><a xlink:href="TagSet_8hh.html" target="_top" xlink:title=" ">
<polygon fill="white" stroke="#666666" points="1181.38,-321.5 1117.38,-321.5 1117.38,-302.5 1181.38,-302.5 1181.38,-321.5"/>
<text text-anchor="middle" x="1149.38" y="-309.5" font-family="Helvetica,sans-Serif" font-size="10.00">TagSet.hh</text>
</a>
</g>
</g>
<!-- Node5&#45;&gt;Node6 -->
<g id="edge6_Node000005_Node000006" class="edge">
<title>Node5&#45;&gt;Node6</title>
<g id="a_edge6_Node000005_Node000006"><a xlink:title=" ">
<path fill="none" stroke="#63b8ff" d="M1394.47,-362.95C1332.53,-350.33 1243.54,-332.19 1191.57,-321.6"/>
<polygon fill="#63b8ff" stroke="#63b8ff" points="1192.18,-318.15 1181.69,-319.58 1190.79,-325.01 1192.18,-318.15"/>
</a>
</g>
</g>
<!-- Node34 -->
<g id="Node000034" class="node">
<title>Node34</title>
<g id="a_Node000034"><a xlink:href="RecountNeighborList_8hh.html" target="_top" xlink:title=" ">
<polygon fill="white" stroke="#666666" points="1529.88,-321.5 1396.88,-321.5 1396.88,-302.5 1529.88,-302.5 1529.88,-321.5"/>
<text text-anchor="middle" x="1463.38" y="-309.5" font-family="Helvetica,sans-Serif" font-size="10.00">RecountNeighborList.hh</text>
</a>
</g>
</g>
<!-- Node5&#45;&gt;Node34 -->
<g id="edge56_Node000005_Node000034" class="edge">
<title>Node5&#45;&gt;Node34</title>
<g id="a_edge56_Node000005_Node000034"><a xlink:title=" ">
<path fill="none" stroke="#63b8ff" d="M1463.38,-362.8C1463.38,-353.7 1463.38,-341.79 1463.38,-331.9"/>
<polygon fill="#63b8ff" stroke="#63b8ff" points="1466.88,-331.84 1463.38,-321.84 1459.88,-331.84 1466.88,-331.84"/>
</a>
</g>
</g>
<!-- Node37 -->
<g id="Node000037" class="node">
<title>Node37</title>
<g id="a_Node000037"><a xlink:href="RecountNeighborProbGraphFormat_8hh.html" target="_top" xlink:title=" ">
<polygon fill="white" stroke="#666666" points="1738.38,-327 1586.38,-327 1586.38,-297 1738.38,-297 1738.38,-327"/>
<text text-anchor="start" x="1594.38" y="-315" font-family="Helvetica,sans-Serif" font-size="10.00">RecountNeighborProbGraph</text>
<text text-anchor="middle" x="1662.38" y="-304" font-family="Helvetica,sans-Serif" font-size="10.00">Format.hh</text>
</a>
</g>
</g>
<!-- Node5&#45;&gt;Node37 -->
<g id="edge65_Node000005_Node000037" class="edge">
<title>Node5&#45;&gt;Node37</title>
<g id="a_edge65_Node000005_Node000037"><a xlink:title=" ">
<path fill="none" stroke="#63b8ff" d="M1507.05,-362.95C1537.12,-353.28 1577.25,-340.38 1609.19,-330.11"/>
<polygon fill="#63b8ff" stroke="#63b8ff" points="1610.37,-333.41 1618.81,-327.01 1608.22,-326.74 1610.37,-333.41"/>
</a>
</g>
</g>
<!-- Node6&#45;&gt;Node2 -->
<g id="edge8_Node000006_Node000002" class="edge">
<title>Node6&#45;&gt;Node2</title>
<g id="a_edge8_Node000006_Node000002"><a xlink:title=" ">
<path fill="none" stroke="#63b8ff" d="M1122.62,-302.49C1115.46,-300.45 1107.67,-298.44 1100.38,-297 960.42,-269.31 922.03,-285 781.38,-261 775.89,-260.06 770.16,-258.94 764.49,-257.74"/>
<polygon fill="#63b8ff" stroke="#63b8ff" points="764.96,-254.26 754.44,-255.53 763.46,-261.1 764.96,-254.26"/>
</a>
</g>
</g>
<!-- Node6&#45;&gt;Node4 -->
<g id="edge7_Node000006_Node000004" class="edge">
<title>Node6&#45;&gt;Node4</title>
<g id="a_edge7_Node000006_Node000004"><a xlink:title=" ">
<path fill="none" stroke="#63b8ff" d="M1160.08,-302.41C1189.09,-279.44 1272.25,-215.63 1349.38,-176 1390.29,-154.99 1413.97,-172.62 1446.38,-140 1476.43,-109.76 1482.96,-57.09 1484.23,-29.15"/>
<polygon fill="#63b8ff" stroke="#63b8ff" points="1487.72,-29.23 1484.5,-19.14 1480.73,-29.04 1487.72,-29.23"/>
</a>
</g>
</g>
<!-- Node7 -->
<g id="Node000007" class="node">
<title>Node7</title>
<g id="a_Node000007"><a xlink:href="universalTypedefs_8hh.html" target="_top" xlink:title=" ">
<polygon fill="white" stroke="#666666" points="1113.38,-19 969.38,-19 969.38,0 1113.38,0 1113.38,-19"/>
<text text-anchor="middle" x="1041.38" y="-7" font-family="Helvetica,sans-Serif" font-size="10.00">utils/universalTypedefs.hh</text>
</a>
</g>
</g>
<!-- Node6&#45;&gt;Node7 -->
<g id="edge9_Node000006_Node000007" class="edge">
<title>Node6&#45;&gt;Node7</title>
<g id="a_edge9_Node000006_Node000007"><a xlink:title=" ">
<path fill="none" stroke="#63b8ff" d="M1130.65,-302.38C1085.51,-281.01 974.38,-224.53 974.38,-186.5 974.38,-186.5 974.38,-186.5 974.38,-124 974.38,-84.61 1004.68,-46.87 1024.53,-26.38"/>
<polygon fill="#63b8ff" stroke="#63b8ff" points="1027.16,-28.69 1031.78,-19.16 1022.22,-23.73 1027.16,-28.69"/>
</a>
</g>
</g>
<!-- Node8 -->
<g id="Node000008" class="node">
<title>Node8</title>
<g id="a_Node000008"><a xlink:href="sortingUtils_8hh.html" target="_top" xlink:title=" ">
<polygon fill="white" stroke="#666666" points="1297.88,-195 1148.88,-195 1148.88,-176 1297.88,-176 1297.88,-195"/>
<text text-anchor="middle" x="1223.38" y="-183" font-family="Helvetica,sans-Serif" font-size="10.00">utils/sorting/sortingUtils.hh</text>
</a>
</g>
</g>
<!-- Node6&#45;&gt;Node8 -->
<g id="edge10_Node000006_Node000008" class="edge">
<title>Node6&#45;&gt;Node8</title>
<g id="a_edge10_Node000006_Node000008"><a xlink:title=" ">
<path fill="none" stroke="#63b8ff" d="M1154.47,-302.44C1166.51,-282.19 1196.95,-230.97 1213.04,-203.9"/>
<polygon fill="#63b8ff" stroke="#63b8ff" points="1216.16,-205.5 1218.26,-195.12 1210.14,-201.93 1216.16,-205.5"/>
</a>
</g>
</g>
<!-- Node9 -->
<g id="Node000009" class="node">
<title>Node9</title>
<g id="a_Node000009"><a xlink:href="ResidueIndexMap_8hh.html" target="_top" xlink:title=" ">
<polygon fill="white" stroke="#666666" points="946.38,-261 790.38,-261 790.38,-231 946.38,-231 946.38,-261"/>
<text text-anchor="start" x="798.38" y="-249" font-family="Helvetica,sans-Serif" font-size="10.00">utils/sequence/ResidueIndex</text>
<text text-anchor="middle" x="868.38" y="-238" font-family="Helvetica,sans-Serif" font-size="10.00">Map/ResidueIndexMap.hh</text>
</a>
</g>
</g>
<!-- Node6&#45;&gt;Node9 -->
<g id="edge12_Node000006_Node000009" class="edge">
<title>Node6&#45;&gt;Node9</title>
<g id="a_edge12_Node000006_Node000009"><a xlink:title=" ">
<path fill="none" stroke="#63b8ff" d="M1120.71,-302.46C1114.06,-300.58 1106.99,-298.65 1100.38,-297 1050.4,-284.49 993.9,-272.27 949.17,-263.04"/>
<polygon fill="#63b8ff" stroke="#63b8ff" points="949.73,-259.59 939.23,-261 948.32,-266.44 949.73,-259.59"/>
</a>
</g>
</g>
<!-- Node29 -->
<g id="Node000029" class="node">
<title>Node29</title>
<g id="a_Node000029"><a xlink:href="sigma4bitPackingUtils_8hh.html" target="_top" xlink:title=" ">
<polygon fill="white" stroke="#666666" points="1181.38,-140 1035.38,-140 1035.38,-110 1181.38,-110 1181.38,-140"/>
<text text-anchor="start" x="1043.38" y="-128" font-family="Helvetica,sans-Serif" font-size="10.00">utils/sequence/packedDNA</text>
<text text-anchor="middle" x="1108.38" y="-117" font-family="Helvetica,sans-Serif" font-size="10.00">/sigma4bitPackingUtils.hh</text>
</a>
</g>
</g>
<!-- Node6&#45;&gt;Node29 -->
<g id="edge45_Node000006_Node000029" class="edge">
<title>Node6&#45;&gt;Node29</title>
<g id="a_edge45_Node000006_Node000029"><a xlink:title=" ">
<path fill="none" stroke="#63b8ff" d="M1147.41,-302.08C1141.34,-274.72 1122.87,-191.38 1113.69,-149.93"/>
<polygon fill="#63b8ff" stroke="#63b8ff" points="1117.09,-149.13 1111.51,-140.12 1110.26,-150.64 1117.09,-149.13"/>
</a>
</g>
</g>
<!-- Node8&#45;&gt;Node4 -->
<g id="edge11_Node000008_Node000004" class="edge">
<title>Node8&#45;&gt;Node4</title>
<g id="a_edge11_Node000008_Node000004"><a xlink:title=" ">
<path fill="none" stroke="#63b8ff" d="M1289.82,-175.98C1339.43,-168.47 1402.02,-156.2 1422.38,-140 1440.96,-125.22 1466.21,-60.75 1477.93,-28.71"/>
<polygon fill="#63b8ff" stroke="#63b8ff" points="1481.25,-29.8 1481.35,-19.2 1474.67,-27.43 1481.25,-29.8"/>
</a>
</g>
</g>
<!-- Node10 -->
<g id="Node000010" class="node">
<title>Node10</title>
<g id="a_Node000010"><a xlink:title=" ">
<polygon fill="#e0e0e0" stroke="#999999" points="336.38,-19 292.38,-19 292.38,0 336.38,0 336.38,-19"/>
<text text-anchor="middle" x="314.38" y="-7" font-family="Helvetica,sans-Serif" font-size="10.00">string</text>
</a>
</g>
</g>
<!-- Node9&#45;&gt;Node10 -->
<g id="edge13_Node000009_Node000010" class="edge">
<title>Node9&#45;&gt;Node10</title>
<g id="a_edge13_Node000009_Node000010"><a xlink:title=" ">
<path fill="none" stroke="#63b8ff" d="M839.06,-230.82C818.44,-220.84 790.2,-207.14 765.38,-195 638.97,-133.16 613.13,-104.47 481.38,-55 435.56,-37.79 380.33,-24.45 346.28,-17.03"/>
<polygon fill="#63b8ff" stroke="#63b8ff" points="346.94,-13.59 336.43,-14.92 345.48,-20.43 346.94,-13.59"/>
</a>
</g>
</g>
<!-- Node11 -->
<g id="Node000011" class="node">
<title>Node11</title>
<g id="a_Node000011"><a xlink:title=" ">
<polygon fill="#e0e0e0" stroke="#999999" points="115.88,-19 68.88,-19 68.88,0 115.88,0 115.88,-19"/>
<text text-anchor="middle" x="92.38" y="-7" font-family="Helvetica,sans-Serif" font-size="10.00">vector</text>
</a>
</g>
</g>
<!-- Node9&#45;&gt;Node11 -->
<g id="edge14_Node000009_Node000011" class="edge">
<title>Node9&#45;&gt;Node11</title>
<g id="a_edge14_Node000009_Node000011"><a xlink:title=" ">
<path fill="none" stroke="#63b8ff" d="M790.17,-232.11C787.21,-231.72 784.27,-231.35 781.38,-231 613.15,-210.89 144.07,-259.93 24.38,-140 -2.57,-112.99 -6.96,-87.89 12.38,-55 22.48,-37.82 41.88,-26.8 59.05,-20.02"/>
<polygon fill="#63b8ff" stroke="#63b8ff" points="60.59,-23.18 68.81,-16.5 58.21,-16.6 60.59,-23.18"/>
</a>
</g>
</g>
<!-- Node12 -->
<g id="Node000012" class="node">
<title>Node12</title>
<g id="a_Node000012"><a xlink:title=" ">
<polygon fill="#e0e0e0" stroke="#999999" points="810.88,-74 757.88,-74 757.88,-55 810.88,-55 810.88,-74"/>
<text text-anchor="middle" x="784.38" y="-62" font-family="Helvetica,sans-Serif" font-size="10.00">ctype.h</text>
</a>
</g>
</g>
<!-- Node9&#45;&gt;Node12 -->
<g id="edge15_Node000009_Node000012" class="edge">
<title>Node9&#45;&gt;Node12</title>
<g id="a_edge15_Node000009_Node000012"><a xlink:title=" ">
<path fill="none" stroke="#63b8ff" d="M865.36,-230.91C862.07,-216.72 856.22,-194.35 848.38,-176 833.51,-141.17 809.99,-103.62 795.98,-82.49"/>
<polygon fill="#63b8ff" stroke="#63b8ff" points="798.76,-80.35 790.28,-74 792.95,-84.25 798.76,-80.35"/>
</a>
</g>
</g>
<!-- Node13 -->
<g id="Node000013" class="node">
<title>Node13</title>
<g id="a_Node000013"><a xlink:title=" ">
<polygon fill="#e0e0e0" stroke="#999999" points="839.88,-195 774.88,-195 774.88,-176 839.88,-176 839.88,-195"/>
<text text-anchor="middle" x="807.38" y="-183" font-family="Helvetica,sans-Serif" font-size="10.00">stdexcept</text>
</a>
</g>
</g>
<!-- Node9&#45;&gt;Node13 -->
<g id="edge16_Node000009_Node000013" class="edge">
<title>Node9&#45;&gt;Node13</title>
<g id="a_edge16_Node000009_Node000013"><a xlink:title=" ">
<path fill="none" stroke="#63b8ff" d="M853.62,-230.84C844.67,-222.26 833.24,-211.3 823.98,-202.42"/>
<polygon fill="#63b8ff" stroke="#63b8ff" points="826.16,-199.66 816.52,-195.27 821.32,-204.71 826.16,-199.66"/>
</a>
</g>
</g>
<!-- Node14 -->
<g id="Node000014" class="node">
<title>Node14</title>
<g id="a_Node000014"><a xlink:href="ematch__src_2utils_2FLArray_2FLEArray_8hh.html" target="_top" xlink:title=" ">
<polygon fill="white" stroke="#666666" points="471.88,-195 332.88,-195 332.88,-176 471.88,-176 471.88,-195"/>
<text text-anchor="middle" x="402.38" y="-183" font-family="Helvetica,sans-Serif" font-size="10.00">utils/FLArray/FLEArray.hh</text>
</a>
</g>
</g>
<!-- Node9&#45;&gt;Node14 -->
<g id="edge17_Node000009_Node000014" class="edge">
<title>Node9&#45;&gt;Node14</title>
<g id="a_edge17_Node000009_Node000014"><a xlink:title=" ">
<path fill="none" stroke="#63b8ff" d="M790.15,-232.25C787.19,-231.82 784.26,-231.4 781.38,-231 678.24,-216.65 558.86,-203.15 482.08,-194.86"/>
<polygon fill="#63b8ff" stroke="#63b8ff" points="482.32,-191.36 472,-193.77 481.57,-198.32 482.32,-191.36"/>
</a>
</g>
</g>
<!-- Node14&#45;&gt;Node4 -->
<g id="edge20_Node000014_Node000004" class="edge">
<title>Node14&#45;&gt;Node4</title>
<g id="a_edge20_Node000014_Node000004"><a xlink:title=" ">
<path fill="none" stroke="#63b8ff" d="M472.17,-182.98C638.36,-178.98 1053.86,-166.56 1190.38,-140 1279.78,-122.61 1302.25,-113.36 1384.38,-74 1413.82,-59.9 1445.19,-38.88 1464.78,-24.94"/>
<polygon fill="#63b8ff" stroke="#63b8ff" points="1466.84,-27.77 1472.91,-19.08 1462.75,-22.09 1466.84,-27.77"/>
</a>
</g>
</g>
<!-- Node14&#45;&gt;Node11 -->
<g id="edge19_Node000014_Node000011" class="edge">
<title>Node14&#45;&gt;Node11</title>
<g id="a_edge19_Node000014_Node000011"><a xlink:title=" ">
<path fill="none" stroke="#63b8ff" d="M332.57,-182.29C246.58,-178.4 106.6,-167.87 63.38,-140 28.13,-117.27 2.19,-91.76 22.38,-55 30.33,-40.54 45.18,-30.11 59.16,-23"/>
<polygon fill="#63b8ff" stroke="#63b8ff" points="61.03,-25.99 68.61,-18.6 58.07,-19.65 61.03,-25.99"/>
</a>
</g>
</g>
<!-- Node15 -->
<g id="Node000015" class="node">
<title>Node15</title>
<g id="a_Node000015"><a xlink:title=" ">
<polygon fill="#e0e0e0" stroke="#999999" points="120.38,-74 64.38,-74 64.38,-55 120.38,-55 120.38,-74"/>
<text text-anchor="middle" x="92.38" y="-62" font-family="Helvetica,sans-Serif" font-size="10.00">assert.h</text>
</a>
</g>
</g>
<!-- Node14&#45;&gt;Node15 -->
<g id="edge18_Node000014_Node000015" class="edge">
<title>Node14&#45;&gt;Node15</title>
<g id="a_edge18_Node000014_Node000015"><a xlink:title=" ">
<path fill="none" stroke="#63b8ff" d="M332.52,-185.35C246.11,-184.73 106.33,-177.71 73.38,-140 59.58,-124.2 69.88,-99.73 79.9,-83.18"/>
<polygon fill="#63b8ff" stroke="#63b8ff" points="83.04,-84.76 85.58,-74.48 77.18,-80.94 83.04,-84.76"/>
</a>
</g>
</g>
<!-- Node16 -->
<g id="Node000016" class="node">
<title>Node16</title>
<g id="a_Node000016"><a xlink:title=" ">
<polygon fill="#e0e0e0" stroke="#999999" points="146.38,-134.5 82.38,-134.5 82.38,-115.5 146.38,-115.5 146.38,-134.5"/>
<text text-anchor="middle" x="114.38" y="-122.5" font-family="Helvetica,sans-Serif" font-size="10.00">algorithm</text>
</a>
</g>
</g>
<!-- Node14&#45;&gt;Node16 -->
<g id="edge21_Node000014_Node000016" class="edge">
<title>Node14&#45;&gt;Node16</title>
<g id="a_edge21_Node000014_Node000016"><a xlink:title=" ">
<path fill="none" stroke="#63b8ff" d="M340.41,-175.99C290.12,-168.44 217.6,-156.13 155.38,-140 152.74,-139.32 150.03,-138.54 147.32,-137.72"/>
<polygon fill="#63b8ff" stroke="#63b8ff" points="148.21,-134.33 137.61,-134.61 146.07,-141 148.21,-134.33"/>
</a>
</g>
</g>
<!-- Node17 -->
<g id="Node000017" class="node">
<title>Node17</title>
<g id="a_Node000017"><a xlink:title=" ">
<polygon fill="#e0e0e0" stroke="#999999" points="289.88,-134.5 164.88,-134.5 164.88,-115.5 289.88,-115.5 289.88,-134.5"/>
<text text-anchor="middle" x="227.38" y="-122.5" font-family="Helvetica,sans-Serif" font-size="10.00">boost/lexical_cast.hpp</text>
</a>
</g>
</g>
<!-- Node14&#45;&gt;Node17 -->
<g id="edge22_Node000014_Node000017" class="edge">
<title>Node14&#45;&gt;Node17</title>
<g id="a_edge22_Node000014_Node000017"><a xlink:title=" ">
<path fill="none" stroke="#63b8ff" d="M376.94,-175.99C346.74,-165.9 296.22,-149.01 262.36,-137.69"/>
<polygon fill="#63b8ff" stroke="#63b8ff" points="263.45,-134.37 252.86,-134.52 261.23,-141.01 263.45,-134.37"/>
</a>
</g>
</g>
<!-- Node18 -->
<g id="Node000018" class="node">
<title>Node18</title>
<g id="a_Node000018"><a xlink:href="ematch__src_2utils_2gdb_2gdbUtils_8hh.html" target="_top" xlink:title=" ">
<polygon fill="white" stroke="#666666" points="945.88,-74 828.88,-74 828.88,-55 945.88,-55 945.88,-74"/>
<text text-anchor="middle" x="887.38" y="-62" font-family="Helvetica,sans-Serif" font-size="10.00">utils/gdb/gdbUtils.hh</text>
</a>
</g>
</g>
<!-- Node14&#45;&gt;Node18 -->
<g id="edge23_Node000014_Node000018" class="edge">
<title>Node14&#45;&gt;Node18</title>
<g id="a_edge23_Node000014_Node000018"><a xlink:title=" ">
<path fill="none" stroke="#63b8ff" d="M437.26,-175.94C523.5,-154.78 746.66,-100.03 842.53,-76.5"/>
<polygon fill="#63b8ff" stroke="#63b8ff" points="843.62,-79.84 852.49,-74.06 841.95,-73.04 843.62,-79.84"/>
</a>
</g>
</g>
<!-- Node23 -->
<g id="Node000023" class="node">
<title>Node23</title>
<g id="a_Node000023"><a xlink:href="ematch__src_2utils_2perlish_2perlish_8hh.html" target="_top" xlink:title=" ">
<polygon fill="white" stroke="#666666" points="471.88,-134.5 346.88,-134.5 346.88,-115.5 471.88,-115.5 471.88,-134.5"/>
<text text-anchor="middle" x="409.38" y="-122.5" font-family="Helvetica,sans-Serif" font-size="10.00">utils/perlish/perlish.hh</text>
</a>
</g>
</g>
<!-- Node14&#45;&gt;Node23 -->
<g id="edge29_Node000014_Node000023" class="edge">
<title>Node14&#45;&gt;Node23</title>
<g id="a_edge29_Node000014_Node000023"><a xlink:title=" ">
<path fill="none" stroke="#63b8ff" d="M403.42,-175.87C404.39,-167.75 405.88,-155.31 407.12,-144.89"/>
<polygon fill="#63b8ff" stroke="#63b8ff" points="410.63,-145.01 408.35,-134.67 403.68,-144.18 410.63,-145.01"/>
</a>
</g>
</g>
<!-- Node18&#45;&gt;Node4 -->
<g id="edge25_Node000018_Node000004" class="edge">
<title>Node18&#45;&gt;Node4</title>
<g id="a_edge25_Node000018_Node000004"><a xlink:title=" ">
<path fill="none" stroke="#63b8ff" d="M945.99,-58.3C1066.84,-47.57 1341.05,-23.22 1444.17,-14.07"/>
<polygon fill="#63b8ff" stroke="#63b8ff" points="1444.53,-17.55 1454.18,-13.18 1443.91,-10.58 1444.53,-17.55"/>
</a>
</g>
</g>
<!-- Node19 -->
<g id="Node000019" class="node">
<title>Node19</title>
<g id="a_Node000019"><a xlink:title=" ">
<polygon fill="#e0e0e0" stroke="#999999" points="749.88,-19 696.88,-19 696.88,0 749.88,0 749.88,-19"/>
<text text-anchor="middle" x="723.38" y="-7" font-family="Helvetica,sans-Serif" font-size="10.00">cstdarg</text>
</a>
</g>
</g>
<!-- Node18&#45;&gt;Node19 -->
<g id="edge24_Node000018_Node000019" class="edge">
<title>Node18&#45;&gt;Node19</title>
<g id="a_edge24_Node000018_Node000019"><a xlink:title=" ">
<path fill="none" stroke="#63b8ff" d="M861.03,-54.98C833.62,-46.13 790.49,-32.19 759.82,-22.28"/>
<polygon fill="#63b8ff" stroke="#63b8ff" points="760.53,-18.83 749.94,-19.08 758.38,-25.49 760.53,-18.83"/>
</a>
</g>
</g>
<!-- Node20 -->
<g id="Node000020" class="node">
<title>Node20</title>
<g id="a_Node000020"><a xlink:title=" ">
<polygon fill="#e0e0e0" stroke="#999999" points="816.88,-19 767.88,-19 767.88,0 816.88,0 816.88,-19"/>
<text text-anchor="middle" x="792.38" y="-7" font-family="Helvetica,sans-Serif" font-size="10.00">cstdlib</text>
</a>
</g>
</g>
<!-- Node18&#45;&gt;Node20 -->
<g id="edge26_Node000018_Node000020" class="edge">
<title>Node18&#45;&gt;Node20</title>
<g id="a_edge26_Node000018_Node000020"><a xlink:title=" ">
<path fill="none" stroke="#63b8ff" d="M872.12,-54.98C857.25,-46.69 834.4,-33.94 816.97,-24.22"/>
<polygon fill="#63b8ff" stroke="#63b8ff" points="818.36,-20.99 807.92,-19.17 814.95,-27.1 818.36,-20.99"/>
</a>
</g>
</g>
<!-- Node21 -->
<g id="Node000021" class="node">
<title>Node21</title>
<g id="a_Node000021"><a xlink:title=" ">
<polygon fill="#e0e0e0" stroke="#999999" points="881.38,-19 835.38,-19 835.38,0 881.38,0 881.38,-19"/>
<text text-anchor="middle" x="858.38" y="-7" font-family="Helvetica,sans-Serif" font-size="10.00">cstdio</text>
</a>
</g>
</g>
<!-- Node18&#45;&gt;Node21 -->
<g id="edge27_Node000018_Node000021" class="edge">
<title>Node18&#45;&gt;Node21</title>
<g id="a_edge27_Node000018_Node000021"><a xlink:title=" ">
<path fill="none" stroke="#63b8ff" d="M882.59,-54.75C878.62,-47.49 872.86,-36.95 867.95,-27.98"/>
<polygon fill="#63b8ff" stroke="#63b8ff" points="870.95,-26.18 863.08,-19.09 864.81,-29.54 870.95,-26.18"/>
</a>
</g>
</g>
<!-- Node22 -->
<g id="Node000022" class="node">
<title>Node22</title>
<g id="a_Node000022"><a xlink:title=" ">
<polygon fill="#e0e0e0" stroke="#999999" points="951.38,-19 899.38,-19 899.38,0 951.38,0 951.38,-19"/>
<text text-anchor="middle" x="925.38" y="-7" font-family="Helvetica,sans-Serif" font-size="10.00">cassert</text>
</a>
</g>
</g>
<!-- Node18&#45;&gt;Node22 -->
<g id="edge28_Node000018_Node000022" class="edge">
<title>Node18&#45;&gt;Node22</title>
<g id="a_edge28_Node000018_Node000022"><a xlink:title=" ">
<path fill="none" stroke="#63b8ff" d="M893.66,-54.75C898.97,-47.34 906.74,-36.5 913.26,-27.41"/>
<polygon fill="#63b8ff" stroke="#63b8ff" points="916.24,-29.26 919.22,-19.09 910.55,-25.18 916.24,-29.26"/>
</a>
</g>
</g>
<!-- Node23&#45;&gt;Node4 -->
<g id="edge31_Node000023_Node000004" class="edge">
<title>Node23&#45;&gt;Node4</title>
<g id="a_edge31_Node000023_Node000004"><a xlink:title=" ">
<path fill="none" stroke="#63b8ff" d="M471.94,-123.13C630.79,-120.4 1046.51,-109.95 1179.38,-74 1197.61,-69.07 1199.43,-60.84 1217.38,-55 1295.31,-29.66 1390.96,-18.19 1444.03,-13.46"/>
<polygon fill="#63b8ff" stroke="#63b8ff" points="1444.39,-16.94 1454.06,-12.6 1443.79,-9.97 1444.39,-16.94"/>
</a>
</g>
</g>
<!-- Node23&#45;&gt;Node10 -->
<g id="edge34_Node000023_Node000010" class="edge">
<title>Node23&#45;&gt;Node10</title>
<g id="a_edge34_Node000023_Node000010"><a xlink:title=" ">
<path fill="none" stroke="#63b8ff" d="M389.04,-115.48C371.82,-107.27 347.72,-93.26 333.38,-74 323.61,-60.87 318.84,-42.74 316.52,-29.21"/>
<polygon fill="#63b8ff" stroke="#63b8ff" points="319.96,-28.55 315.09,-19.14 313.03,-29.53 319.96,-28.55"/>
</a>
</g>
</g>
<!-- Node23&#45;&gt;Node11 -->
<g id="edge35_Node000023_Node000011" class="edge">
<title>Node23&#45;&gt;Node11</title>
<g id="a_edge35_Node000023_Node000011"><a xlink:title=" ">
<path fill="none" stroke="#63b8ff" d="M365.38,-115.49C298.05,-102.39 176.28,-78.33 167.38,-74 143.31,-62.28 120.57,-41.06 106.57,-26.4"/>
<polygon fill="#63b8ff" stroke="#63b8ff" points="109.1,-23.99 99.74,-19.03 103.97,-28.74 109.1,-23.99"/>
</a>
</g>
</g>
<!-- Node23&#45;&gt;Node12 -->
<g id="edge30_Node000023_Node000012" class="edge">
<title>Node23&#45;&gt;Node12</title>
<g id="a_edge30_Node000023_Node000012"><a xlink:title=" ">
<path fill="none" stroke="#63b8ff" d="M472.13,-116.38C538.25,-107.98 645.59,-93.3 747.82,-73.95"/>
<polygon fill="#63b8ff" stroke="#63b8ff" points="748.54,-77.38 757.7,-72.07 747.22,-70.51 748.54,-77.38"/>
</a>
</g>
</g>
<!-- Node23&#45;&gt;Node15 -->
<g id="edge36_Node000023_Node000015" class="edge">
<title>Node23&#45;&gt;Node15</title>
<g id="a_edge36_Node000023_Node000015"><a xlink:title=" ">
<path fill="none" stroke="#63b8ff" d="M362.4,-115.46C284.22,-101.25 135.79,-74.27 134.38,-74 133.29,-73.79 132.18,-73.57 131.05,-73.36"/>
<polygon fill="#63b8ff" stroke="#63b8ff" points="131.32,-69.84 120.83,-71.34 129.97,-76.71 131.32,-69.84"/>
</a>
</g>
</g>
<!-- Node23&#45;&gt;Node18 -->
<g id="edge38_Node000023_Node000018" class="edge">
<title>Node23&#45;&gt;Node18</title>
<g id="a_edge38_Node000023_Node000018"><a xlink:title=" ">
<path fill="none" stroke="#63b8ff" d="M471.91,-116.43C550.27,-106.94 688.99,-90.09 818.66,-74.09"/>
<polygon fill="#63b8ff" stroke="#63b8ff" points="819.28,-77.54 828.78,-72.84 818.43,-70.59 819.28,-77.54"/>
</a>
</g>
</g>
<!-- Node24 -->
<g id="Node000024" class="node">
<title>Node24</title>
<g id="a_Node000024"><a xlink:title=" ">
<polygon fill="#e0e0e0" stroke="#999999" points="397.88,-74 342.88,-74 342.88,-55 397.88,-55 397.88,-74"/>
<text text-anchor="middle" x="370.38" y="-62" font-family="Helvetica,sans-Serif" font-size="10.00">fstream</text>
</a>
</g>
</g>
<!-- Node23&#45;&gt;Node24 -->
<g id="edge32_Node000023_Node000024" class="edge">
<title>Node23&#45;&gt;Node24</title>
<g id="a_edge32_Node000023_Node000024"><a xlink:title=" ">
<path fill="none" stroke="#63b8ff" d="M403.63,-115.37C397.93,-106.81 389.03,-93.47 381.88,-82.74"/>
<polygon fill="#63b8ff" stroke="#63b8ff" points="384.62,-80.55 376.16,-74.17 378.8,-84.43 384.62,-80.55"/>
</a>
</g>
</g>
<!-- Node25 -->
<g id="Node000025" class="node">
<title>Node25</title>
<g id="a_Node000025"><a xlink:title=" ">
<polygon fill="#e0e0e0" stroke="#999999" points="472.38,-74 416.38,-74 416.38,-55 472.38,-55 472.38,-74"/>
<text text-anchor="middle" x="444.38" y="-62" font-family="Helvetica,sans-Serif" font-size="10.00">sstream</text>
</a>
</g>
</g>
<!-- Node23&#45;&gt;Node25 -->
<g id="edge33_Node000023_Node000025" class="edge">
<title>Node23&#45;&gt;Node25</title>
<g id="a_edge33_Node000023_Node000025"><a xlink:title=" ">
<path fill="none" stroke="#63b8ff" d="M414.55,-115.37C419.61,-106.9 427.49,-93.74 433.87,-83.07"/>
<polygon fill="#63b8ff" stroke="#63b8ff" points="437.07,-84.55 439.2,-74.17 431.06,-80.95 437.07,-84.55"/>
</a>
</g>
</g>
<!-- Node26 -->
<g id="Node000026" class="node">
<title>Node26</title>
<g id="a_Node000026"><a xlink:title=" ">
<polygon fill="#e0e0e0" stroke="#999999" points="631.88,-19 536.88,-19 536.88,0 631.88,0 631.88,-19"/>
<text text-anchor="middle" x="584.38" y="-7" font-family="Helvetica,sans-Serif" font-size="10.00">boost/regex.hpp</text>
</a>
</g>
</g>
<!-- Node23&#45;&gt;Node26 -->
<g id="edge37_Node000023_Node000026" class="edge">
<title>Node23&#45;&gt;Node26</title>
<g id="a_edge37_Node000023_Node000026"><a xlink:title=" ">
<path fill="none" stroke="#63b8ff" d="M422.54,-115.47C452.43,-96.08 525.75,-48.53 562.55,-24.66"/>
<polygon fill="#63b8ff" stroke="#63b8ff" points="564.59,-27.51 571.08,-19.13 560.78,-21.63 564.59,-27.51"/>
</a>
</g>
</g>
<!-- Node27 -->
<g id="Node000027" class="node">
<title>Node27</title>
<g id="a_Node000027"><a xlink:href="ematch__src_2utils_2stl_2stlTypes_8hh.html" target="_top" xlink:title=" ">
<polygon fill="white" stroke="#666666" points="286.38,-74 176.38,-74 176.38,-55 286.38,-55 286.38,-74"/>
<text text-anchor="middle" x="231.38" y="-62" font-family="Helvetica,sans-Serif" font-size="10.00">utils/stl/stlTypes.hh</text>
</a>
</g>
</g>
<!-- Node23&#45;&gt;Node27 -->
<g id="edge39_Node000023_Node000027" class="edge">
<title>Node23&#45;&gt;Node27</title>
<g id="a_edge39_Node000023_Node000027"><a xlink:title=" ">
<path fill="none" stroke="#63b8ff" d="M383.5,-115.49C352.78,-105.4 301.4,-88.51 266.96,-77.19"/>
<polygon fill="#63b8ff" stroke="#63b8ff" points="267.89,-73.81 257.3,-74.02 265.7,-80.46 267.89,-73.81"/>
</a>
</g>
</g>
<!-- Node28 -->
<g id="Node000028" class="node">
<title>Node28</title>
<g id="a_Node000028"><a xlink:href="ematch__src_2utils_2boost_2boostUtils_8hh.html" target="_top" xlink:title=" ">
<polygon fill="white" stroke="#666666" points="739.88,-74 604.88,-74 604.88,-55 739.88,-55 739.88,-74"/>
<text text-anchor="middle" x="672.38" y="-62" font-family="Helvetica,sans-Serif" font-size="10.00">utils/boost/boostUtils.hh</text>
</a>
</g>
</g>
<!-- Node23&#45;&gt;Node28 -->
<g id="edge42_Node000023_Node000028" class="edge">
<title>Node23&#45;&gt;Node28</title>
<g id="a_edge42_Node000023_Node000028"><a xlink:title=" ">
<path fill="none" stroke="#63b8ff" d="M447.63,-115.49C494.37,-105.1 573.51,-87.49 624.33,-76.19"/>
<polygon fill="#63b8ff" stroke="#63b8ff" points="625.09,-79.6 634.09,-74.02 623.57,-72.77 625.09,-79.6"/>
</a>
</g>
</g>
<!-- Node27&#45;&gt;Node10 -->
<g id="edge40_Node000027_Node000010" class="edge">
<title>Node27&#45;&gt;Node10</title>
<g id="a_edge40_Node000027_Node000010"><a xlink:title=" ">
<path fill="none" stroke="#63b8ff" d="M244.72,-54.98C257.47,-46.84 276.94,-34.41 292.05,-24.76"/>
<polygon fill="#63b8ff" stroke="#63b8ff" points="294.26,-27.5 300.8,-19.17 290.49,-21.6 294.26,-27.5"/>
</a>
</g>
</g>
<!-- Node27&#45;&gt;Node11 -->
<g id="edge41_Node000027_Node000011" class="edge">
<title>Node27&#45;&gt;Node11</title>
<g id="a_edge41_Node000027_Node000011"><a xlink:title=" ">
<path fill="none" stroke="#63b8ff" d="M209.05,-54.98C186.19,-46.27 150.43,-32.63 124.52,-22.75"/>
<polygon fill="#63b8ff" stroke="#63b8ff" points="125.71,-19.46 115.12,-19.17 123.22,-26 125.71,-19.46"/>
</a>
</g>
</g>
<!-- Node28&#45;&gt;Node4 -->
<g id="edge43_Node000028_Node000004" class="edge">
<title>Node28&#45;&gt;Node4</title>
<g id="a_edge43_Node000028_Node000004"><a xlink:title=" ">
<path fill="none" stroke="#63b8ff" d="M739.91,-55.77C742.77,-55.5 745.61,-55.24 748.38,-55 1013.41,-32.18 1333.11,-17.09 1444.12,-12.21"/>
<polygon fill="#63b8ff" stroke="#63b8ff" points="1444.36,-15.7 1454.2,-11.77 1444.05,-8.71 1444.36,-15.7"/>
</a>
</g>
</g>
<!-- Node28&#45;&gt;Node26 -->
<g id="edge44_Node000028_Node000026" class="edge">
<title>Node28&#45;&gt;Node26</title>
<g id="a_edge44_Node000028_Node000026"><a xlink:title=" ">
<path fill="none" stroke="#63b8ff" d="M658.24,-54.98C644.6,-46.77 623.7,-34.18 607.61,-24.49"/>
<polygon fill="#63b8ff" stroke="#63b8ff" points="609.15,-21.33 598.78,-19.17 605.54,-27.33 609.15,-21.33"/>
</a>
</g>
</g>
<!-- Node29&#45;&gt;Node4 -->
<g id="edge47_Node000029_Node000004" class="edge">
<title>Node29&#45;&gt;Node4</title>
<g id="a_edge47_Node000029_Node000004"><a xlink:title=" ">
<path fill="none" stroke="#63b8ff" d="M1181.64,-113.68C1230.51,-105.65 1295.76,-92.69 1351.38,-74 1362.16,-70.38 1422.12,-41.16 1457.74,-23.65"/>
<polygon fill="#63b8ff" stroke="#63b8ff" points="1459.66,-26.6 1467.09,-19.05 1456.57,-20.32 1459.66,-26.6"/>
</a>
</g>
</g>
<!-- Node29&#45;&gt;Node7 -->
<g id="edge50_Node000029_Node000007" class="edge">
<title>Node29&#45;&gt;Node7</title>
<g id="a_edge50_Node000029_Node000007"><a xlink:title=" ">
<path fill="none" stroke="#63b8ff" d="M1072,-109.86C1056.56,-101.83 1040.13,-90.11 1031.38,-74 1023.82,-60.07 1027.73,-42.05 1032.7,-28.77"/>
<polygon fill="#63b8ff" stroke="#63b8ff" points="1036.04,-29.87 1036.73,-19.3 1029.6,-27.13 1036.04,-29.87"/>
</a>
</g>
</g>
<!-- Node29&#45;&gt;Node11 -->
<g id="edge48_Node000029_Node000011" class="edge">
<title>Node29&#45;&gt;Node11</title>
<g id="a_edge48_Node000029_Node000011"><a xlink:title=" ">
<path fill="none" stroke="#63b8ff" d="M1035.15,-118.44C935.44,-110.51 751.52,-94.6 595.38,-74 544.46,-67.28 532.25,-62.14 481.38,-55 350.4,-36.6 193.78,-20.46 126.18,-13.78"/>
<polygon fill="#63b8ff" stroke="#63b8ff" points="126.41,-10.28 116.12,-12.79 125.73,-17.25 126.41,-10.28"/>
</a>
</g>
</g>
<!-- Node29&#45;&gt;Node18 -->
<g id="edge51_Node000029_Node000018" class="edge">
<title>Node29&#45;&gt;Node18</title>
<g id="a_edge51_Node000029_Node000018"><a xlink:title=" ">
<path fill="none" stroke="#63b8ff" d="M1055.45,-109.99C1016.98,-99.8 965.59,-86.2 929.81,-76.73"/>
<polygon fill="#63b8ff" stroke="#63b8ff" points="930.26,-73.23 919.7,-74.05 928.47,-80 930.26,-73.23"/>
</a>
</g>
</g>
<!-- Node30 -->
<g id="Node000030" class="node">
<title>Node30</title>
<g id="a_Node000030"><a xlink:title=" ">
<polygon fill="#e0e0e0" stroke="#999999" points="1273.88,-74 1226.88,-74 1226.88,-55 1273.88,-55 1273.88,-74"/>
<text text-anchor="middle" x="1250.38" y="-62" font-family="Helvetica,sans-Serif" font-size="10.00">cmath</text>
</a>
</g>
</g>
<!-- Node29&#45;&gt;Node30 -->
<g id="edge46_Node000029_Node000030" class="edge">
<title>Node29&#45;&gt;Node30</title>
<g id="a_edge46_Node000029_Node000030"><a xlink:title=" ">
<path fill="none" stroke="#63b8ff" d="M1142.4,-109.99C1165.98,-100.27 1197.12,-87.44 1219.9,-78.06"/>
<polygon fill="#63b8ff" stroke="#63b8ff" points="1221.5,-81.18 1229.41,-74.14 1218.83,-74.71 1221.5,-81.18"/>
</a>
</g>
</g>
<!-- Node31 -->
<g id="Node000031" class="node">
<title>Node31</title>
<g id="a_Node000031"><a xlink:title=" ">
<polygon fill="#e0e0e0" stroke="#999999" points="1342.38,-74 1292.38,-74 1292.38,-55 1342.38,-55 1342.38,-74"/>
<text text-anchor="middle" x="1317.38" y="-62" font-family="Helvetica,sans-Serif" font-size="10.00">cstring</text>
</a>
</g>
</g>
<!-- Node29&#45;&gt;Node31 -->
<g id="edge49_Node000029_Node000031" class="edge">
<title>Node29&#45;&gt;Node31</title>
<g id="a_edge49_Node000029_Node000031"><a xlink:title=" ">
<path fill="none" stroke="#63b8ff" d="M1158.44,-109.99C1196.64,-99.3 1248.3,-84.84 1282.21,-75.35"/>
<polygon fill="#63b8ff" stroke="#63b8ff" points="1283.44,-78.63 1292.13,-72.57 1281.55,-71.89 1283.44,-78.63"/>
</a>
</g>
</g>
<!-- Node32 -->
<g id="Node000032" class="node">
<title>Node32</title>
<g id="a_Node000032"><a xlink:href="Sigma4bitPackedIdx_8hh.html" target="_top" xlink:title=" ">
<polygon fill="white" stroke="#666666" points="1170.38,-74 1040.38,-74 1040.38,-55 1170.38,-55 1170.38,-74"/>
<text text-anchor="middle" x="1105.38" y="-62" font-family="Helvetica,sans-Serif" font-size="10.00">Sigma4bitPackedIdx.hh</text>
</a>
</g>
</g>
<!-- Node29&#45;&gt;Node32 -->
<g id="edge52_Node000029_Node000032" class="edge">
<title>Node29&#45;&gt;Node32</title>
<g id="a_edge52_Node000029_Node000032"><a xlink:title=" ">
<path fill="none" stroke="#63b8ff" d="M1107.66,-109.84C1107.27,-102.21 1106.78,-92.7 1106.35,-84.45"/>
<polygon fill="#63b8ff" stroke="#63b8ff" points="1109.84,-84.07 1105.83,-74.27 1102.85,-84.43 1109.84,-84.07"/>
</a>
</g>
</g>
<!-- Node32&#45;&gt;Node4 -->
<g id="edge53_Node000032_Node000004" class="edge">
<title>Node32&#45;&gt;Node4</title>
<g id="a_edge53_Node000032_Node000004"><a xlink:title=" ">
<path fill="none" stroke="#63b8ff" d="M1166.28,-54.98C1244.33,-44.07 1377.52,-25.44 1444.06,-16.14"/>
<polygon fill="#63b8ff" stroke="#63b8ff" points="1444.73,-19.58 1454.15,-14.73 1443.76,-12.65 1444.73,-19.58"/>
</a>
</g>
</g>
<!-- Node32&#45;&gt;Node7 -->
<g id="edge54_Node000032_Node000007" class="edge">
<title>Node32&#45;&gt;Node7</title>
<g id="a_edge54_Node000032_Node000007"><a xlink:title=" ">
<path fill="none" stroke="#63b8ff" d="M1095.1,-54.98C1085.55,-47.07 1071.1,-35.11 1059.6,-25.58"/>
<polygon fill="#63b8ff" stroke="#63b8ff" points="1061.79,-22.85 1051.85,-19.17 1057.32,-28.24 1061.79,-22.85"/>
</a>
</g>
</g>
<!-- Node33 -->
<g id="Node000033" class="node">
<title>Node33</title>
<g id="a_Node000033"><a xlink:href="sigma4_8hh.html" target="_top" xlink:title=" ">
<polygon fill="white" stroke="#666666" points="1199.38,-19 1131.38,-19 1131.38,0 1199.38,0 1199.38,-19"/>
<text text-anchor="middle" x="1165.38" y="-7" font-family="Helvetica,sans-Serif" font-size="10.00">sigma4.hh</text>
</a>
</g>
</g>
<!-- Node32&#45;&gt;Node33 -->
<g id="edge55_Node000032_Node000033" class="edge">
<title>Node32&#45;&gt;Node33</title>
<g id="a_edge55_Node000032_Node000033"><a xlink:title=" ">
<path fill="none" stroke="#63b8ff" d="M1115.02,-54.98C1123.89,-47.15 1137.26,-35.34 1147.99,-25.86"/>
<polygon fill="#63b8ff" stroke="#63b8ff" points="1150.39,-28.41 1155.57,-19.17 1145.76,-23.17 1150.39,-28.41"/>
</a>
</g>
</g>
<!-- Node34&#45;&gt;Node2 -->
<g id="edge58_Node000034_Node000002" class="edge">
<title>Node34&#45;&gt;Node2</title>
<g id="a_edge58_Node000034_Node000002"><a xlink:title=" ">
<path fill="none" stroke="#63b8ff" d="M1396.61,-307.41C1249,-299.25 898.78,-278.67 781.38,-261 775.53,-260.12 769.41,-258.98 763.4,-257.73"/>
<polygon fill="#63b8ff" stroke="#63b8ff" points="763.97,-254.27 753.45,-255.55 762.47,-261.11 763.97,-254.27"/>
</a>
</g>
</g>
<!-- Node34&#45;&gt;Node4 -->
<g id="edge57_Node000034_Node000004" class="edge">
<title>Node34&#45;&gt;Node4</title>
<g id="a_edge57_Node000034_Node000004"><a xlink:title=" ">
<path fill="none" stroke="#63b8ff" d="M1506.28,-302.42C1531.02,-295.33 1560.8,-282.76 1579.38,-261 1601.57,-235.01 1598.38,-220.67 1598.38,-186.5 1598.38,-186.5 1598.38,-186.5 1598.38,-124 1598.38,-75.88 1546.74,-41.12 1512.97,-23.53"/>
<polygon fill="#63b8ff" stroke="#63b8ff" points="1514.49,-20.38 1503.98,-19.03 1511.36,-26.64 1514.49,-20.38"/>
</a>
</g>
</g>
<!-- Node35 -->
<g id="Node000035" class="node">
<title>Node35</title>
<g id="a_Node000035"><a xlink:href="recountTypes_8hh.html" target="_top" xlink:title=" ">
<polygon fill="white" stroke="#666666" points="1454.38,-195 1358.38,-195 1358.38,-176 1454.38,-176 1454.38,-195"/>
<text text-anchor="middle" x="1406.38" y="-183" font-family="Helvetica,sans-Serif" font-size="10.00">recountTypes.hh</text>
</a>
</g>
</g>
<!-- Node34&#45;&gt;Node35 -->
<g id="edge59_Node000034_Node000035" class="edge">
<title>Node34&#45;&gt;Node35</title>
<g id="a_edge59_Node000034_Node000035"><a xlink:title=" ">
<path fill="none" stroke="#63b8ff" d="M1454.88,-302.16C1446.24,-292.7 1433.06,-276.91 1425.38,-261 1416.7,-243.01 1411.67,-220.59 1409,-205.07"/>
<polygon fill="#63b8ff" stroke="#63b8ff" points="1412.45,-204.49 1407.45,-195.15 1405.53,-205.57 1412.45,-204.49"/>
</a>
</g>
</g>
<!-- Node36 -->
<g id="Node000036" class="node">
<title>Node36</title>
<g id="a_Node000036"><a xlink:href="RecountTagIdProbPair_8hh.html" target="_top" xlink:title=" ">
<polygon fill="white" stroke="#666666" points="1570.38,-255.5 1434.38,-255.5 1434.38,-236.5 1570.38,-236.5 1570.38,-255.5"/>
<text text-anchor="middle" x="1502.38" y="-243.5" font-family="Helvetica,sans-Serif" font-size="10.00">RecountTagIdProbPair.hh</text>
</a>
</g>
</g>
<!-- Node34&#45;&gt;Node36 -->
<g id="edge62_Node000034_Node000036" class="edge">
<title>Node34&#45;&gt;Node36</title>
<g id="a_edge62_Node000034_Node000036"><a xlink:title=" ">
<path fill="none" stroke="#63b8ff" d="M1468.64,-302.37C1474.48,-292.78 1484.07,-277.05 1491.54,-264.8"/>
<polygon fill="#63b8ff" stroke="#63b8ff" points="1494.74,-266.27 1496.96,-255.91 1488.76,-262.62 1494.74,-266.27"/>
</a>
</g>
</g>
<!-- Node35&#45;&gt;Node4 -->
<g id="edge60_Node000035_Node000004" class="edge">
<title>Node35&#45;&gt;Node4</title>
<g id="a_edge60_Node000035_Node000004"><a xlink:title=" ">
<path fill="none" stroke="#63b8ff" d="M1445.69,-175.92C1465.1,-169.48 1486.79,-158.49 1498.38,-140 1520.13,-105.33 1504.13,-54.96 1492.89,-28.41"/>
<polygon fill="#63b8ff" stroke="#63b8ff" points="1496.04,-26.89 1488.76,-19.19 1489.65,-29.75 1496.04,-26.89"/>
</a>
</g>
</g>
<!-- Node35&#45;&gt;Node11 -->
<g id="edge61_Node000035_Node000011" class="edge">
<title>Node35&#45;&gt;Node11</title>
<g id="a_edge61_Node000035_Node000011"><a xlink:title=" ">
<path fill="none" stroke="#63b8ff" d="M1358.35,-179.95C1341.89,-178.51 1323.34,-177.04 1306.38,-176 1198.84,-169.44 438.72,-176.58 337.38,-140 316.81,-132.58 318.51,-118.54 298.38,-110 248.13,-88.67 91.04,-115.33 55.38,-74 42.65,-59.25 58.28,-39.5 72.96,-25.96"/>
<polygon fill="#63b8ff" stroke="#63b8ff" points="75.56,-28.34 80.83,-19.15 70.98,-23.05 75.56,-28.34"/>
</a>
</g>
</g>
<!-- Node36&#45;&gt;Node4 -->
<g id="edge63_Node000036_Node000004" class="edge">
<title>Node36&#45;&gt;Node4</title>
<g id="a_edge63_Node000036_Node000004"><a xlink:title=" ">
<path fill="none" stroke="#63b8ff" d="M1505.5,-236.37C1514.9,-208.97 1540.98,-121.79 1518.38,-55 1514.82,-44.47 1507.66,-34.48 1500.83,-26.63"/>
<polygon fill="#63b8ff" stroke="#63b8ff" points="1503.37,-24.23 1493.99,-19.31 1498.26,-29.01 1503.37,-24.23"/>
</a>
</g>
</g>
<!-- Node36&#45;&gt;Node35 -->
<g id="edge64_Node000036_Node000035" class="edge">
<title>Node36&#45;&gt;Node35</title>
<g id="a_edge64_Node000036_Node000035"><a xlink:title=" ">
<path fill="none" stroke="#63b8ff" d="M1488.22,-236.37C1472.69,-226.91 1447.55,-211.59 1429.23,-200.42"/>
<polygon fill="#63b8ff" stroke="#63b8ff" points="1430.97,-197.38 1420.61,-195.17 1427.32,-203.36 1430.97,-197.38"/>
</a>
</g>
</g>
<!-- Node37&#45;&gt;Node4 -->
<g id="edge66_Node000037_Node000004" class="edge">
<title>Node37&#45;&gt;Node4</title>
<g id="a_edge66_Node000037_Node000004"><a xlink:title=" ">
<path fill="none" stroke="#63b8ff" d="M1664.64,-296.85C1668.12,-273.8 1674.38,-226.67 1674.38,-186.5 1674.38,-186.5 1674.38,-186.5 1674.38,-124 1674.38,-91.53 1674.16,-77.11 1650.38,-55 1616.27,-23.29 1562.04,-13.7 1524.91,-11.05"/>
<polygon fill="#63b8ff" stroke="#63b8ff" points="1524.64,-7.53 1514.45,-10.46 1524.24,-14.52 1524.64,-7.53"/>
</a>
</g>
</g>
<!-- Node38&#45;&gt;Node2 -->
<g id="edge69_Node000038_Node000002" class="edge">
<title>Node38&#45;&gt;Node2</title>
<g id="a_edge69_Node000038_Node000002"><a xlink:title=" ">
<path fill="none" stroke="#63b8ff" d="M1204.96,-368.34C1180.46,-359.02 1141.09,-343.34 1108.38,-327 1084.86,-315.25 1082.26,-305.54 1057.38,-297 940.38,-256.83 903.14,-282.86 781.38,-261 775.97,-260.03 770.31,-258.89 764.72,-257.7"/>
<polygon fill="#63b8ff" stroke="#63b8ff" points="765.3,-254.24 754.78,-255.5 763.79,-261.08 765.3,-254.24"/>
</a>
</g>
</g>
<!-- Node38&#45;&gt;Node4 -->
<g id="edge68_Node000038_Node000004" class="edge">
<title>Node38&#45;&gt;Node4</title>
<g id="a_edge68_Node000038_Node000004"><a xlink:title=" ">
<path fill="none" stroke="#63b8ff" d="M1289.39,-371.89C1367.31,-364.56 1497.12,-349.44 1539.38,-327 1572.89,-309.21 1636.38,-224.44 1636.38,-186.5 1636.38,-186.5 1636.38,-186.5 1636.38,-124 1636.38,-67.97 1569.25,-36.28 1524.21,-21.33"/>
<polygon fill="#63b8ff" stroke="#63b8ff" points="1525,-17.91 1514.41,-18.22 1522.89,-24.58 1525,-17.91"/>
</a>
</g>
</g>
<!-- Node38&#45;&gt;Node6 -->
<g id="edge71_Node000038_Node000006" class="edge">
<title>Node38&#45;&gt;Node6</title>
<g id="a_edge71_Node000038_Node000006"><a xlink:title=" ">
<path fill="none" stroke="#63b8ff" d="M1217.73,-368.37C1205.01,-358.06 1183.51,-340.65 1168.02,-328.09"/>
<polygon fill="#63b8ff" stroke="#63b8ff" points="1170.09,-325.27 1160.12,-321.7 1165.69,-330.71 1170.09,-325.27"/>
</a>
</g>
</g>
<!-- Node38&#45;&gt;Node14 -->
<g id="edge70_Node000038_Node000014" class="edge">
<title>Node38&#45;&gt;Node14</title>
<g id="a_edge70_Node000038_Node000014"><a xlink:title=" ">
<path fill="none" stroke="#63b8ff" d="M1179.75,-368.46C1081.08,-350.83 850.51,-308.1 659.38,-261 580.05,-241.45 488.42,-213.6 438.83,-198.08"/>
<polygon fill="#63b8ff" stroke="#63b8ff" points="439.79,-194.71 429.2,-195.05 437.69,-201.39 439.79,-194.71"/>
</a>
</g>
</g>
<!-- Node38&#45;&gt;Node35 -->
<g id="edge72_Node000038_Node000035" class="edge">
<title>Node38&#45;&gt;Node35</title>
<g id="a_edge72_Node000038_Node000035"><a xlink:title=" ">
<path fill="none" stroke="#63b8ff" d="M1237.69,-368.25C1257.77,-349.27 1306.37,-302.65 1344.38,-261 1361.83,-241.88 1380.69,-218.84 1392.97,-203.5"/>
<polygon fill="#63b8ff" stroke="#63b8ff" points="1395.9,-205.44 1399.38,-195.44 1390.42,-201.09 1395.9,-205.44"/>
</a>
</g>
</g>
</g>
</svg>
