<?xml version="1.0" encoding="UTF-8" standalone="no"?>
<!DOCTYPE svg PUBLIC "-//W3C//DTD SVG 1.1//EN"
 "http://www.w3.org/Graphics/SVG/1.1/DTD/svg11.dtd">
<!-- Generated by graphviz version 2.43.0 (0)
 -->
<!-- Title: ematch_src/RecountTagCounts_SortedTagSet.cc Pages: 1 -->
<!--zoomable 456 -->

<svg id="main" version="1.1" xmlns="http://www.w3.org/2000/svg" xmlns:xlink="http://www.w3.org/1999/xlink" xml:space="preserve" onload="init(evt)">
<style type="text/css"><![CDATA[
.node, .edge {opacity: 0.7;}
.node.selected, .edge.selected {opacity: 1;}
.edge:hover path { stroke: red; }
.edge:hover polygon { stroke: red; fill: red; }
]]></style>

<defs>
  <circle id="rim" cx="0" cy="0" r="7"/>
  <circle id="rim2" cx="0" cy="0" r="3.5"/>
  <g id="zoomPlus">
    <use xlink:href="#rim" fill="#404040"><set attributeName="fill" to="#808080" begin="zoomplus.mouseover" end="zoomplus.mouseout"/></use>
    <path d="M-4,0h8M0,-4v8" fill="none" stroke="white" stroke-width="1.5" pointer-events="none"/>
  </g>
  <g id="zoomMin">
    <use xlink:href="#rim" fill="#404040"><set attributeName="fill" to="#808080" begin="zoomminus.mouseover" end="zoomminus.mouseout"/></use>
    <path d="M-4,0h8" fill="none" stroke="white" stroke-width="1.5" pointer-events="none"/>
  </g>
  <g id="arrowUp" transform="translate(30 24)">
    <use xlink:href="#rim"/>
    <path pointer-events="none" fill="none" stroke="white" stroke-width="1.5" d="M0,-3.0v7 M-2.5,-0.5L0,-3.0L2.5,-0.5"/>
  </g>
  <g id="arrowRight" transform="rotate(90) translate(36 -43)">
    <use xlink:href="#rim"/>
    <path pointer-events="none" fill="none" stroke="white" stroke-width="1.5" d="M0,-3.0v7 M-2.5,-0.5L0,-3.0L2.5,-0.5"/>
  </g>
  <g id="arrowDown" transform="rotate(180) translate(-30 -48)">
    <use xlink:href="#rim"/>
    <path pointer-events="none" fill="none" stroke="white" stroke-width="1.5" d="M0,-3.0v7 M-2.5,-0.5L0,-3.0L2.5,-0.5"/>
  </g>
  <g id="arrowLeft" transform="rotate(270) translate(-36 17)">
    <use xlink:href="#rim"/>
    <path pointer-events="none" fill="none" stroke="white" stroke-width="1.5" d="M0,-3.0v7 M-2.5,-0.5L0,-3.0L2.5,-0.5"/>
  </g>
  <g id="resetDef">
    <use xlink:href="#rim2" fill="#404040"><set attributeName="fill" to="#808080" begin="reset.mouseover" end="reset.mouseout"/></use>
  </g>
</defs>
<script type="application/ecmascript">
var viewWidth = 1384;
var viewHeight = 456;
var sectionId = 'dynsection-0';
</script>
<script type="application/ecmascript" xlink:href="svg.min.js"/>
<svg id="graph" class="graph">
<g id="viewport">
<title>ematch_src/RecountTagCounts_SortedTagSet.cc</title>
<!-- Node1 -->
<g id="Node000001" class="node">
<title>Node1</title>
<g id="a_Node000001"><a xlink:title=" ">
<polygon fill="#999999" stroke="#666666" points="734,-448 568,-448 568,-418 734,-418 734,-448"/>
<text text-anchor="start" x="576" y="-436" font-family="Helvetica,sans-Serif" font-size="10.00">ematch_src/RecountTagCounts</text>
<text text-anchor="middle" x="651" y="-425" font-family="Helvetica,sans-Serif" font-size="10.00">_SortedTagSet.cc</text>
</a>
</g>
</g>
<!-- Node2 -->
<g id="Node000002" class="node">
<title>Node2</title>
<g id="a_Node000002"><a xlink:title=" ">
<polygon fill="#e0e0e0" stroke="#999999" points="523.5,-140 398.5,-140 398.5,-121 523.5,-121 523.5,-140"/>
<text text-anchor="middle" x="461" y="-128" font-family="Helvetica,sans-Serif" font-size="10.00">boost/lexical_cast.hpp</text>
</a>
</g>
</g>
<!-- Node1&#45;&gt;Node2 -->
<g id="edge1_Node000001_Node000002" class="edge">
<title>Node1&#45;&gt;Node2</title>
<g id="a_edge1_Node000001_Node000002"><a xlink:title=" ">
<path fill="none" stroke="#63b8ff" d="M615.36,-417.95C574.77,-399.33 514,-362.3 514,-307.5 514,-307.5 514,-307.5 514,-245 514,-207.7 490.21,-169.44 474.51,-148.24"/>
<polygon fill="#63b8ff" stroke="#63b8ff" points="477.24,-146.05 468.37,-140.26 471.69,-150.32 477.24,-146.05"/>
</a>
</g>
</g>
<!-- Node3 -->
<g id="Node000003" class="node">
<title>Node3</title>
<g id="a_Node000003"><a xlink:href="stlConstants_8hh.html" target="_top" xlink:title=" ">
<polygon fill="white" stroke="#666666" points="763.5,-316 632.5,-316 632.5,-297 763.5,-297 763.5,-316"/>
<text text-anchor="middle" x="698" y="-304" font-family="Helvetica,sans-Serif" font-size="10.00">utils/stl/stlConstants.hh</text>
</a>
</g>
</g>
<!-- Node1&#45;&gt;Node3 -->
<g id="edge2_Node000001_Node000003" class="edge">
<title>Node1&#45;&gt;Node3</title>
<g id="a_edge2_Node000001_Node000003"><a xlink:title=" ">
<path fill="none" stroke="#63b8ff" d="M656.39,-417.72C664.96,-395.02 681.68,-350.72 691.11,-325.75"/>
<polygon fill="#63b8ff" stroke="#63b8ff" points="694.51,-326.66 694.76,-316.07 687.96,-324.19 694.51,-326.66"/>
</a>
</g>
</g>
<!-- Node5 -->
<g id="Node000005" class="node">
<title>Node5</title>
<g id="a_Node000005"><a xlink:href="ematch__src_2utils_2perlish_2perlish_8hh.html" target="_top" xlink:title=" ">
<polygon fill="white" stroke="#666666" points="666.5,-140 541.5,-140 541.5,-121 666.5,-121 666.5,-140"/>
<text text-anchor="middle" x="604" y="-128" font-family="Helvetica,sans-Serif" font-size="10.00">utils/perlish/perlish.hh</text>
</a>
</g>
</g>
<!-- Node1&#45;&gt;Node5 -->
<g id="edge4_Node000001_Node000005" class="edge">
<title>Node1&#45;&gt;Node5</title>
<g id="a_edge4_Node000001_Node000005"><a xlink:title=" ">
<path fill="none" stroke="#63b8ff" d="M641.71,-417.72C628.02,-395.23 604,-349.78 604,-307.5 604,-307.5 604,-307.5 604,-245 604,-211.61 604,-172.69 604,-150.19"/>
<polygon fill="#63b8ff" stroke="#63b8ff" points="607.5,-150.04 604,-140.04 600.5,-150.04 607.5,-150.04"/>
</a>
</g>
</g>
<!-- Node20 -->
<g id="Node000020" class="node">
<title>Node20</title>
<g id="a_Node000020"><a xlink:href="RecountTagCounts__SortedTagSet_8hh.html" target="_top" xlink:title=" ">
<polygon fill="white" stroke="#666666" points="1096,-382 936,-382 936,-352 1096,-352 1096,-382"/>
<text text-anchor="start" x="944" y="-370" font-family="Helvetica,sans-Serif" font-size="10.00">RecountTagCounts_SortedTag</text>
<text text-anchor="middle" x="1016" y="-359" font-family="Helvetica,sans-Serif" font-size="10.00">Set.hh</text>
</a>
</g>
</g>
<!-- Node1&#45;&gt;Node20 -->
<g id="edge25_Node000001_Node000020" class="edge">
<title>Node1&#45;&gt;Node20</title>
<g id="a_edge25_Node000001_Node000020"><a xlink:title=" ">
<path fill="none" stroke="#63b8ff" d="M731.1,-417.95C788.63,-407.87 866.23,-394.26 925.91,-383.8"/>
<polygon fill="#63b8ff" stroke="#63b8ff" points="926.84,-387.19 936.09,-382.01 925.63,-380.29 926.84,-387.19"/>
</a>
</g>
</g>
<!-- Node4 -->
<g id="Node000004" class="node">
<title>Node4</title>
<g id="a_Node000004"><a xlink:title=" ">
<polygon fill="#e0e0e0" stroke="#999999" points="953,-19 893,-19 893,0 953,0 953,-19"/>
<text text-anchor="middle" x="923" y="-7" font-family="Helvetica,sans-Serif" font-size="10.00">iostream</text>
</a>
</g>
</g>
<!-- Node3&#45;&gt;Node4 -->
<g id="edge3_Node000003_Node000004" class="edge">
<title>Node3&#45;&gt;Node4</title>
<g id="a_edge3_Node000003_Node000004"><a xlink:title=" ">
<path fill="none" stroke="#63b8ff" d="M697.18,-296.88C695.53,-274.93 693.8,-215.86 718,-176 739.45,-140.67 757.66,-142.45 793,-121 823.93,-102.23 838.05,-107.97 866,-85 885.77,-68.75 902.75,-44.37 912.91,-27.97"/>
<polygon fill="#63b8ff" stroke="#63b8ff" points="915.94,-29.74 918.08,-19.36 909.93,-26.14 915.94,-29.74"/>
</a>
</g>
</g>
<!-- Node5&#45;&gt;Node4 -->
<g id="edge6_Node000005_Node000004" class="edge">
<title>Node5&#45;&gt;Node4</title>
<g id="a_edge6_Node000005_Node000004"><a xlink:title=" ">
<path fill="none" stroke="#63b8ff" d="M610.72,-120.95C623.65,-105.14 653.67,-71.47 687,-55 750.56,-23.6 833.79,-14.28 882.53,-11.56"/>
<polygon fill="#63b8ff" stroke="#63b8ff" points="882.86,-15.05 892.68,-11.06 882.52,-8.06 882.86,-15.05"/>
</a>
</g>
</g>
<!-- Node6 -->
<g id="Node000006" class="node">
<title>Node6</title>
<g id="a_Node000006"><a xlink:title=" ">
<polygon fill="#e0e0e0" stroke="#999999" points="856.5,-79.5 803.5,-79.5 803.5,-60.5 856.5,-60.5 856.5,-79.5"/>
<text text-anchor="middle" x="830" y="-67.5" font-family="Helvetica,sans-Serif" font-size="10.00">ctype.h</text>
</a>
</g>
</g>
<!-- Node5&#45;&gt;Node6 -->
<g id="edge5_Node000005_Node000006" class="edge">
<title>Node5&#45;&gt;Node6</title>
<g id="a_edge5_Node000005_Node000006"><a xlink:title=" ">
<path fill="none" stroke="#63b8ff" d="M648.24,-120.98C687.05,-113.07 744.81,-100.24 794,-85 795.92,-84.4 797.89,-83.76 799.86,-83.08"/>
<polygon fill="#63b8ff" stroke="#63b8ff" points="801.43,-86.23 809.62,-79.5 799.02,-79.66 801.43,-86.23"/>
</a>
</g>
</g>
<!-- Node7 -->
<g id="Node000007" class="node">
<title>Node7</title>
<g id="a_Node000007"><a xlink:title=" ">
<polygon fill="#e0e0e0" stroke="#999999" points="143.5,-79.5 88.5,-79.5 88.5,-60.5 143.5,-60.5 143.5,-79.5"/>
<text text-anchor="middle" x="116" y="-67.5" font-family="Helvetica,sans-Serif" font-size="10.00">fstream</text>
</a>
</g>
</g>
<!-- Node5&#45;&gt;Node7 -->
<g id="edge7_Node000005_Node000007" class="edge">
<title>Node5&#45;&gt;Node7</title>
<g id="a_edge7_Node000005_Node000007"><a xlink:title=" ">
<path fill="none" stroke="#63b8ff" d="M541.18,-122C538.08,-121.65 535,-121.32 532,-121 363.75,-103.08 317.82,-123.28 153,-85 150.48,-84.42 147.91,-83.7 145.34,-82.91"/>
<polygon fill="#63b8ff" stroke="#63b8ff" points="146.26,-79.52 135.67,-79.55 143.97,-86.13 146.26,-79.52"/>
</a>
</g>
</g>
<!-- Node8 -->
<g id="Node000008" class="node">
<title>Node8</title>
<g id="a_Node000008"><a xlink:title=" ">
<polygon fill="#e0e0e0" stroke="#999999" points="218,-79.5 162,-79.5 162,-60.5 218,-60.5 218,-79.5"/>
<text text-anchor="middle" x="190" y="-67.5" font-family="Helvetica,sans-Serif" font-size="10.00">sstream</text>
</a>
</g>
</g>
<!-- Node5&#45;&gt;Node8 -->
<g id="edge8_Node000005_Node000008" class="edge">
<title>Node5&#45;&gt;Node8</title>
<g id="a_edge8_Node000005_Node000008"><a xlink:title=" ">
<path fill="none" stroke="#63b8ff" d="M541.17,-122.08C538.07,-121.72 535,-121.35 532,-121 396.44,-105 359.6,-117.39 227,-85 224.55,-84.4 222.04,-83.69 219.54,-82.9"/>
<polygon fill="#63b8ff" stroke="#63b8ff" points="220.67,-79.59 210.07,-79.61 218.37,-86.2 220.67,-79.59"/>
</a>
</g>
</g>
<!-- Node9 -->
<g id="Node000009" class="node">
<title>Node9</title>
<g id="a_Node000009"><a xlink:title=" ">
<polygon fill="#e0e0e0" stroke="#999999" points="44,-19 0,-19 0,0 44,0 44,-19"/>
<text text-anchor="middle" x="22" y="-7" font-family="Helvetica,sans-Serif" font-size="10.00">string</text>
</a>
</g>
</g>
<!-- Node5&#45;&gt;Node9 -->
<g id="edge9_Node000005_Node000009" class="edge">
<title>Node5&#45;&gt;Node9</title>
<g id="a_edge9_Node000005_Node000009"><a xlink:title=" ">
<path fill="none" stroke="#63b8ff" d="M541.19,-121.93C538.08,-121.61 535.01,-121.29 532,-121 428.85,-110.92 155.23,-139.38 67,-85 46.55,-72.39 34.14,-46.71 27.68,-29.05"/>
<polygon fill="#63b8ff" stroke="#63b8ff" points="30.9,-27.65 24.4,-19.29 24.26,-29.88 30.9,-27.65"/>
</a>
</g>
</g>
<!-- Node10 -->
<g id="Node000010" class="node">
<title>Node10</title>
<g id="a_Node000010"><a xlink:title=" ">
<polygon fill="#e0e0e0" stroke="#999999" points="1098.5,-19 1051.5,-19 1051.5,0 1098.5,0 1098.5,-19"/>
<text text-anchor="middle" x="1075" y="-7" font-family="Helvetica,sans-Serif" font-size="10.00">vector</text>
</a>
</g>
</g>
<!-- Node5&#45;&gt;Node10 -->
<g id="edge10_Node000005_Node000010" class="edge">
<title>Node5&#45;&gt;Node10</title>
<g id="a_edge10_Node000005_Node000010"><a xlink:title=" ">
<path fill="none" stroke="#63b8ff" d="M619.49,-120.89C634.84,-112.22 658.91,-98.26 679,-85 697.84,-72.56 699.02,-63.34 720,-55 749.52,-43.27 958.48,-21.88 1041.3,-13.75"/>
<polygon fill="#63b8ff" stroke="#63b8ff" points="1041.83,-17.22 1051.44,-12.76 1041.15,-10.25 1041.83,-17.22"/>
</a>
</g>
</g>
<!-- Node11 -->
<g id="Node000011" class="node">
<title>Node11</title>
<g id="a_Node000011"><a xlink:title=" ">
<polygon fill="#e0e0e0" stroke="#999999" points="785,-79.5 729,-79.5 729,-60.5 785,-60.5 785,-79.5"/>
<text text-anchor="middle" x="757" y="-67.5" font-family="Helvetica,sans-Serif" font-size="10.00">assert.h</text>
</a>
</g>
</g>
<!-- Node5&#45;&gt;Node11 -->
<g id="edge11_Node000005_Node000011" class="edge">
<title>Node5&#45;&gt;Node11</title>
<g id="a_edge11_Node000005_Node000011"><a xlink:title=" ">
<path fill="none" stroke="#63b8ff" d="M626.25,-120.99C652.31,-111.03 695.68,-94.45 725.27,-83.13"/>
<polygon fill="#63b8ff" stroke="#63b8ff" points="726.64,-86.36 734.73,-79.52 724.14,-79.82 726.64,-86.36"/>
</a>
</g>
</g>
<!-- Node12 -->
<g id="Node000012" class="node">
<title>Node12</title>
<g id="a_Node000012"><a xlink:title=" ">
<polygon fill="#e0e0e0" stroke="#999999" points="279.5,-19 184.5,-19 184.5,0 279.5,0 279.5,-19"/>
<text text-anchor="middle" x="232" y="-7" font-family="Helvetica,sans-Serif" font-size="10.00">boost/regex.hpp</text>
</a>
</g>
</g>
<!-- Node5&#45;&gt;Node12 -->
<g id="edge12_Node000005_Node000012" class="edge">
<title>Node5&#45;&gt;Node12</title>
<g id="a_edge12_Node000005_Node000012"><a xlink:title=" ">
<path fill="none" stroke="#63b8ff" d="M541.19,-121.94C538.08,-121.61 535.01,-121.3 532,-121 481.75,-116.04 113.26,-122.09 79,-85 46.1,-49.38 118.29,-28.81 174.33,-18.63"/>
<polygon fill="#63b8ff" stroke="#63b8ff" points="174.97,-22.07 184.23,-16.91 173.77,-15.18 174.97,-22.07"/>
</a>
</g>
</g>
<!-- Node13 -->
<g id="Node000013" class="node">
<title>Node13</title>
<g id="a_Node000013"><a xlink:href="ematch__src_2utils_2gdb_2gdbUtils_8hh.html" target="_top" xlink:title=" ">
<polygon fill="white" stroke="#666666" points="634.5,-79.5 517.5,-79.5 517.5,-60.5 634.5,-60.5 634.5,-79.5"/>
<text text-anchor="middle" x="576" y="-67.5" font-family="Helvetica,sans-Serif" font-size="10.00">utils/gdb/gdbUtils.hh</text>
</a>
</g>
</g>
<!-- Node5&#45;&gt;Node13 -->
<g id="edge13_Node000005_Node000013" class="edge">
<title>Node5&#45;&gt;Node13</title>
<g id="a_edge13_Node000005_Node000013"><a xlink:title=" ">
<path fill="none" stroke="#63b8ff" d="M599.87,-120.87C595.86,-112.49 589.65,-99.51 584.56,-88.89"/>
<polygon fill="#63b8ff" stroke="#63b8ff" points="587.62,-87.18 580.15,-79.67 581.31,-90.2 587.62,-87.18"/>
</a>
</g>
</g>
<!-- Node18 -->
<g id="Node000018" class="node">
<title>Node18</title>
<g id="a_Node000018"><a xlink:href="ematch__src_2utils_2stl_2stlTypes_8hh.html" target="_top" xlink:title=" ">
<polygon fill="white" stroke="#666666" points="346,-79.5 236,-79.5 236,-60.5 346,-60.5 346,-79.5"/>
<text text-anchor="middle" x="291" y="-67.5" font-family="Helvetica,sans-Serif" font-size="10.00">utils/stl/stlTypes.hh</text>
</a>
</g>
</g>
<!-- Node5&#45;&gt;Node18 -->
<g id="edge19_Node000005_Node000018" class="edge">
<title>Node5&#45;&gt;Node18</title>
<g id="a_edge19_Node000005_Node000018"><a xlink:title=" ">
<path fill="none" stroke="#63b8ff" d="M552.87,-120.95C502.45,-112.39 423.27,-98.56 355,-85 349.7,-83.95 344.17,-82.8 338.66,-81.64"/>
<polygon fill="#63b8ff" stroke="#63b8ff" points="339.36,-78.21 328.85,-79.53 337.9,-85.05 339.36,-78.21"/>
</a>
</g>
</g>
<!-- Node19 -->
<g id="Node000019" class="node">
<title>Node19</title>
<g id="a_Node000019"><a xlink:href="ematch__src_2utils_2boost_2boostUtils_8hh.html" target="_top" xlink:title=" ">
<polygon fill="white" stroke="#666666" points="499.5,-79.5 364.5,-79.5 364.5,-60.5 499.5,-60.5 499.5,-79.5"/>
<text text-anchor="middle" x="432" y="-67.5" font-family="Helvetica,sans-Serif" font-size="10.00">utils/boost/boostUtils.hh</text>
</a>
</g>
</g>
<!-- Node5&#45;&gt;Node19 -->
<g id="edge22_Node000005_Node000019" class="edge">
<title>Node5&#45;&gt;Node19</title>
<g id="a_edge22_Node000005_Node000019"><a xlink:title=" ">
<path fill="none" stroke="#63b8ff" d="M578.99,-120.99C549.44,-110.94 500.09,-94.16 466.81,-82.84"/>
<polygon fill="#63b8ff" stroke="#63b8ff" points="467.63,-79.42 457.04,-79.52 465.38,-86.05 467.63,-79.42"/>
</a>
</g>
</g>
<!-- Node13&#45;&gt;Node4 -->
<g id="edge15_Node000013_Node000004" class="edge">
<title>Node13&#45;&gt;Node4</title>
<g id="a_edge15_Node000013_Node000004"><a xlink:title=" ">
<path fill="none" stroke="#63b8ff" d="M619.58,-60.43C629.26,-58.59 639.47,-56.69 649,-55 731.97,-40.31 829.42,-24.93 882.86,-16.65"/>
<polygon fill="#63b8ff" stroke="#63b8ff" points="883.6,-20.08 892.95,-15.09 882.53,-13.16 883.6,-20.08"/>
</a>
</g>
</g>
<!-- Node14 -->
<g id="Node000014" class="node">
<title>Node14</title>
<g id="a_Node000014"><a xlink:title=" ">
<polygon fill="#e0e0e0" stroke="#999999" points="707.5,-19 654.5,-19 654.5,0 707.5,0 707.5,-19"/>
<text text-anchor="middle" x="681" y="-7" font-family="Helvetica,sans-Serif" font-size="10.00">cstdarg</text>
</a>
</g>
</g>
<!-- Node13&#45;&gt;Node14 -->
<g id="edge14_Node000013_Node000014" class="edge">
<title>Node13&#45;&gt;Node14</title>
<g id="a_edge14_Node000013_Node000014"><a xlink:title=" ">
<path fill="none" stroke="#63b8ff" d="M591.49,-60.37C608.63,-50.82 636.47,-35.31 656.56,-24.12"/>
<polygon fill="#63b8ff" stroke="#63b8ff" points="658.41,-27.09 665.44,-19.17 655,-20.98 658.41,-27.09"/>
</a>
</g>
</g>
<!-- Node15 -->
<g id="Node000015" class="node">
<title>Node15</title>
<g id="a_Node000015"><a xlink:title=" ">
<polygon fill="#e0e0e0" stroke="#999999" points="501.5,-19 452.5,-19 452.5,0 501.5,0 501.5,-19"/>
<text text-anchor="middle" x="477" y="-7" font-family="Helvetica,sans-Serif" font-size="10.00">cstdlib</text>
</a>
</g>
</g>
<!-- Node13&#45;&gt;Node15 -->
<g id="edge16_Node000013_Node000015" class="edge">
<title>Node13&#45;&gt;Node15</title>
<g id="a_edge16_Node000013_Node000015"><a xlink:title=" ">
<path fill="none" stroke="#63b8ff" d="M561.39,-60.37C545.31,-50.86 519.22,-35.45 500.3,-24.27"/>
<polygon fill="#63b8ff" stroke="#63b8ff" points="502.06,-21.24 491.67,-19.17 498.5,-27.27 502.06,-21.24"/>
</a>
</g>
</g>
<!-- Node16 -->
<g id="Node000016" class="node">
<title>Node16</title>
<g id="a_Node000016"><a xlink:title=" ">
<polygon fill="#e0e0e0" stroke="#999999" points="566,-19 520,-19 520,0 566,0 566,-19"/>
<text text-anchor="middle" x="543" y="-7" font-family="Helvetica,sans-Serif" font-size="10.00">cstdio</text>
</a>
</g>
</g>
<!-- Node13&#45;&gt;Node16 -->
<g id="edge17_Node000013_Node000016" class="edge">
<title>Node13&#45;&gt;Node16</title>
<g id="a_edge17_Node000013_Node000016"><a xlink:title=" ">
<path fill="none" stroke="#63b8ff" d="M571.13,-60.37C566.35,-51.9 558.93,-38.74 552.91,-28.07"/>
<polygon fill="#63b8ff" stroke="#63b8ff" points="555.85,-26.16 547.89,-19.17 549.75,-29.6 555.85,-26.16"/>
</a>
</g>
</g>
<!-- Node17 -->
<g id="Node000017" class="node">
<title>Node17</title>
<g id="a_Node000017"><a xlink:title=" ">
<polygon fill="#e0e0e0" stroke="#999999" points="636,-19 584,-19 584,0 636,0 636,-19"/>
<text text-anchor="middle" x="610" y="-7" font-family="Helvetica,sans-Serif" font-size="10.00">cassert</text>
</a>
</g>
</g>
<!-- Node13&#45;&gt;Node17 -->
<g id="edge18_Node000013_Node000017" class="edge">
<title>Node13&#45;&gt;Node17</title>
<g id="a_edge18_Node000013_Node000017"><a xlink:title=" ">
<path fill="none" stroke="#63b8ff" d="M581.02,-60.37C585.94,-51.9 593.59,-38.74 599.79,-28.07"/>
<polygon fill="#63b8ff" stroke="#63b8ff" points="602.96,-29.57 604.96,-19.17 596.91,-26.05 602.96,-29.57"/>
</a>
</g>
</g>
<!-- Node18&#45;&gt;Node9 -->
<g id="edge20_Node000018_Node000009" class="edge">
<title>Node18&#45;&gt;Node9</title>
<g id="a_edge20_Node000018_Node000009"><a xlink:title=" ">
<path fill="none" stroke="#63b8ff" d="M252.08,-60.48C243.8,-58.67 235.11,-56.77 227,-55 165.79,-41.66 94.27,-26.15 53.94,-17.42"/>
<polygon fill="#63b8ff" stroke="#63b8ff" points="54.66,-13.99 44.15,-15.3 53.18,-20.83 54.66,-13.99"/>
</a>
</g>
</g>
<!-- Node18&#45;&gt;Node10 -->
<g id="edge21_Node000018_Node000010" class="edge">
<title>Node18&#45;&gt;Node10</title>
<g id="a_edge21_Node000018_Node000010"><a xlink:title=" ">
<path fill="none" stroke="#63b8ff" d="M325.37,-60.45C334.91,-58.36 345.31,-56.34 355,-55 622.71,-18.01 692.36,-37.14 962,-19 988.6,-17.21 1018.71,-14.93 1041.16,-13.19"/>
<polygon fill="#63b8ff" stroke="#63b8ff" points="1041.5,-16.67 1051.2,-12.4 1040.96,-9.69 1041.5,-16.67"/>
</a>
</g>
</g>
<!-- Node19&#45;&gt;Node4 -->
<g id="edge23_Node000019_Node000004" class="edge">
<title>Node19&#45;&gt;Node4</title>
<g id="a_edge23_Node000019_Node000004"><a xlink:title=" ">
<path fill="none" stroke="#63b8ff" d="M475.31,-60.44C485.97,-58.49 497.38,-56.55 508,-55 644.86,-35.09 808.33,-20.13 882.65,-13.81"/>
<polygon fill="#63b8ff" stroke="#63b8ff" points="883.29,-17.27 892.96,-12.94 882.7,-10.29 883.29,-17.27"/>
</a>
</g>
</g>
<!-- Node19&#45;&gt;Node12 -->
<g id="edge24_Node000019_Node000012" class="edge">
<title>Node19&#45;&gt;Node12</title>
<g id="a_edge24_Node000019_Node000012"><a xlink:title=" ">
<path fill="none" stroke="#63b8ff" d="M402.92,-60.49C368.11,-50.31 309.68,-33.22 270.99,-21.9"/>
<polygon fill="#63b8ff" stroke="#63b8ff" points="271.7,-18.46 261.12,-19.02 269.73,-25.18 271.7,-18.46"/>
</a>
</g>
</g>
<!-- Node20&#45;&gt;Node4 -->
<g id="edge26_Node000020_Node000004" class="edge">
<title>Node20&#45;&gt;Node4</title>
<g id="a_edge26_Node000020_Node000004"><a xlink:title=" ">
<path fill="none" stroke="#63b8ff" d="M1016.12,-351.9C1016.06,-320 1014.05,-240.07 997,-176 981.94,-119.41 949.68,-57.65 933.18,-28.14"/>
<polygon fill="#63b8ff" stroke="#63b8ff" points="936.03,-26.07 928.05,-19.1 929.94,-29.53 936.03,-26.07"/>
</a>
</g>
</g>
<!-- Node21 -->
<g id="Node000021" class="node">
<title>Node21</title>
<g id="a_Node000021"><a xlink:href="ematch__src_2utils_2FLArray_2FLEArray_8hh.html" target="_top" xlink:title=" ">
<polygon fill="white" stroke="#666666" points="865.5,-195 726.5,-195 726.5,-176 865.5,-176 865.5,-195"/>
<text text-anchor="middle" x="796" y="-183" font-family="Helvetica,sans-Serif" font-size="10.00">utils/FLArray/FLEArray.hh</text>
</a>
</g>
</g>
<!-- Node20&#45;&gt;Node21 -->
<g id="edge27_Node000020_Node000021" class="edge">
<title>Node20&#45;&gt;Node21</title>
<g id="a_edge27_Node000020_Node000021"><a xlink:title=" ">
<path fill="none" stroke="#63b8ff" d="M968.94,-351.89C924.84,-336.38 860.03,-307.31 821,-261 807.57,-245.07 801.27,-221.62 798.37,-205.3"/>
<polygon fill="#63b8ff" stroke="#63b8ff" points="801.81,-204.69 796.86,-195.33 794.89,-205.74 801.81,-204.69"/>
</a>
</g>
</g>
<!-- Node23 -->
<g id="Node000023" class="node">
<title>Node23</title>
<g id="a_Node000023"><a xlink:href="SortedTagSet_8hh.html" target="_top" xlink:title=" ">
<polygon fill="white" stroke="#666666" points="1139.5,-316 1044.5,-316 1044.5,-297 1139.5,-297 1139.5,-316"/>
<text text-anchor="middle" x="1092" y="-304" font-family="Helvetica,sans-Serif" font-size="10.00">SortedTagSet.hh</text>
</a>
</g>
</g>
<!-- Node20&#45;&gt;Node23 -->
<g id="edge35_Node000020_Node000023" class="edge">
<title>Node20&#45;&gt;Node23</title>
<g id="a_edge35_Node000020_Node000023"><a xlink:title=" ">
<path fill="none" stroke="#63b8ff" d="M1034.4,-351.84C1045.88,-343 1060.65,-331.63 1072.36,-322.62"/>
<polygon fill="#63b8ff" stroke="#63b8ff" points="1074.82,-325.14 1080.61,-316.27 1070.55,-319.59 1074.82,-325.14"/>
</a>
</g>
</g>
<!-- Node31 -->
<g id="Node000031" class="node">
<title>Node31</title>
<g id="a_Node000031"><a xlink:href="recountTypes_8hh.html" target="_top" xlink:title=" ">
<polygon fill="white" stroke="#666666" points="1161,-79.5 1065,-79.5 1065,-60.5 1161,-60.5 1161,-79.5"/>
<text text-anchor="middle" x="1113" y="-67.5" font-family="Helvetica,sans-Serif" font-size="10.00">recountTypes.hh</text>
</a>
</g>
</g>
<!-- Node20&#45;&gt;Node31 -->
<g id="edge50_Node000020_Node000031" class="edge">
<title>Node20&#45;&gt;Node31</title>
<g id="a_edge50_Node000020_Node000031"><a xlink:title=" ">
<path fill="none" stroke="#63b8ff" d="M1096.23,-358.43C1164.64,-347.02 1252,-318.47 1252,-247 1252,-247 1252,-247 1252,-184.5 1252,-131.72 1191.12,-99.09 1149.94,-83.05"/>
<polygon fill="#63b8ff" stroke="#63b8ff" points="1151.05,-79.73 1140.46,-79.52 1148.61,-86.29 1151.05,-79.73"/>
</a>
</g>
</g>
<!-- Node21&#45;&gt;Node2 -->
<g id="edge32_Node000021_Node000002" class="edge">
<title>Node21&#45;&gt;Node2</title>
<g id="a_edge32_Node000021_Node000002"><a xlink:title=" ">
<path fill="none" stroke="#63b8ff" d="M742.18,-175.98C683.05,-166.63 588.13,-151.61 525.17,-141.65"/>
<polygon fill="#63b8ff" stroke="#63b8ff" points="525.39,-138.14 514.97,-140.04 524.3,-145.06 525.39,-138.14"/>
</a>
</g>
</g>
<!-- Node21&#45;&gt;Node4 -->
<g id="edge30_Node000021_Node000004" class="edge">
<title>Node21&#45;&gt;Node4</title>
<g id="a_edge30_Node000021_Node000004"><a xlink:title=" ">
<path fill="none" stroke="#63b8ff" d="M819.77,-175.91C837.03,-168.63 859.91,-156.7 875,-140 903.97,-107.93 915.94,-56.82 920.49,-29.38"/>
<polygon fill="#63b8ff" stroke="#63b8ff" points="923.99,-29.6 922.01,-19.2 917.07,-28.57 923.99,-29.6"/>
</a>
</g>
</g>
<!-- Node21&#45;&gt;Node5 -->
<g id="edge34_Node000021_Node000005" class="edge">
<title>Node21&#45;&gt;Node5</title>
<g id="a_edge34_Node000021_Node000005"><a xlink:title=" ">
<path fill="none" stroke="#63b8ff" d="M765.15,-175.98C732.5,-166.97 680.8,-152.7 644.8,-142.76"/>
<polygon fill="#63b8ff" stroke="#63b8ff" points="645.66,-139.37 635.09,-140.08 643.8,-146.12 645.66,-139.37"/>
</a>
</g>
</g>
<!-- Node21&#45;&gt;Node10 -->
<g id="edge29_Node000021_Node000010" class="edge">
<title>Node21&#45;&gt;Node10</title>
<g id="a_edge29_Node000021_Node000010"><a xlink:title=" ">
<path fill="none" stroke="#63b8ff" d="M818.25,-176C838.74,-167.83 869.7,-154.59 895,-140 957.49,-103.97 1024.94,-51.3 1056.61,-25.66"/>
<polygon fill="#63b8ff" stroke="#63b8ff" points="1059.02,-28.21 1064.55,-19.18 1054.59,-22.78 1059.02,-28.21"/>
</a>
</g>
</g>
<!-- Node21&#45;&gt;Node11 -->
<g id="edge28_Node000021_Node000011" class="edge">
<title>Node21&#45;&gt;Node11</title>
<g id="a_edge28_Node000021_Node000011"><a xlink:title=" ">
<path fill="none" stroke="#63b8ff" d="M793.07,-175.97C786.77,-157.65 771.84,-114.18 763.29,-89.31"/>
<polygon fill="#63b8ff" stroke="#63b8ff" points="766.53,-87.95 759.97,-79.63 759.91,-90.22 766.53,-87.95"/>
</a>
</g>
</g>
<!-- Node21&#45;&gt;Node13 -->
<g id="edge33_Node000021_Node000013" class="edge">
<title>Node21&#45;&gt;Node13</title>
<g id="a_edge33_Node000021_Node000013"><a xlink:title=" ">
<path fill="none" stroke="#63b8ff" d="M780.14,-175.96C757.24,-163.66 713.52,-140.3 676,-121 651.23,-108.26 622.8,-94.09 602.61,-84.1"/>
<polygon fill="#63b8ff" stroke="#63b8ff" points="603.92,-80.84 593.4,-79.55 600.82,-87.12 603.92,-80.84"/>
</a>
</g>
</g>
<!-- Node22 -->
<g id="Node000022" class="node">
<title>Node22</title>
<g id="a_Node000022"><a xlink:title=" ">
<polygon fill="#e0e0e0" stroke="#999999" points="866,-140 802,-140 802,-121 866,-121 866,-140"/>
<text text-anchor="middle" x="834" y="-128" font-family="Helvetica,sans-Serif" font-size="10.00">algorithm</text>
</a>
</g>
</g>
<!-- Node21&#45;&gt;Node22 -->
<g id="edge31_Node000021_Node000022" class="edge">
<title>Node21&#45;&gt;Node22</title>
<g id="a_edge31_Node000021_Node000022"><a xlink:title=" ">
<path fill="none" stroke="#63b8ff" d="M802.27,-175.75C807.59,-168.34 815.36,-157.5 821.88,-148.41"/>
<polygon fill="#63b8ff" stroke="#63b8ff" points="824.86,-150.26 827.84,-140.09 819.17,-146.18 824.86,-150.26"/>
</a>
</g>
</g>
<!-- Node23&#45;&gt;Node4 -->
<g id="edge36_Node000023_Node000004" class="edge">
<title>Node23&#45;&gt;Node4</title>
<g id="a_edge36_Node000023_Node000004"><a xlink:title=" ">
<path fill="none" stroke="#63b8ff" d="M1089.36,-296.56C1079.01,-262.51 1038.61,-138.69 975,-55 966.35,-43.62 954.34,-33.11 944.05,-25.16"/>
<polygon fill="#63b8ff" stroke="#63b8ff" points="946.03,-22.27 935.91,-19.13 941.86,-27.89 946.03,-22.27"/>
</a>
</g>
</g>
<!-- Node24 -->
<g id="Node000024" class="node">
<title>Node24</title>
<g id="a_Node000024"><a xlink:title=" ">
<polygon fill="#e0e0e0" stroke="#999999" points="1224,-255.5 1120,-255.5 1120,-236.5 1224,-236.5 1224,-255.5"/>
<text text-anchor="middle" x="1172" y="-243.5" font-family="Helvetica,sans-Serif" font-size="10.00">boost/foreach.hpp</text>
</a>
</g>
</g>
<!-- Node23&#45;&gt;Node24 -->
<g id="edge37_Node000023_Node000024" class="edge">
<title>Node23&#45;&gt;Node24</title>
<g id="a_edge37_Node000023_Node000024"><a xlink:title=" ">
<path fill="none" stroke="#63b8ff" d="M1103.8,-296.87C1116.45,-287.62 1136.74,-272.78 1151.91,-261.69"/>
<polygon fill="#63b8ff" stroke="#63b8ff" points="1154.14,-264.4 1160.15,-255.67 1150.01,-258.74 1154.14,-264.4"/>
</a>
</g>
</g>
<!-- Node25 -->
<g id="Node000025" class="node">
<title>Node25</title>
<g id="a_Node000025"><a xlink:href="ResidueIndexMap_8hh.html" target="_top" xlink:title=" ">
<polygon fill="white" stroke="#666666" points="986,-261 830,-261 830,-231 986,-231 986,-261"/>
<text text-anchor="start" x="838" y="-249" font-family="Helvetica,sans-Serif" font-size="10.00">utils/sequence/ResidueIndex</text>
<text text-anchor="middle" x="908" y="-238" font-family="Helvetica,sans-Serif" font-size="10.00">Map/ResidueIndexMap.hh</text>
</a>
</g>
</g>
<!-- Node23&#45;&gt;Node25 -->
<g id="edge38_Node000023_Node000025" class="edge">
<title>Node23&#45;&gt;Node25</title>
<g id="a_edge38_Node000023_Node000025"><a xlink:title=" ">
<path fill="none" stroke="#63b8ff" d="M1065.24,-296.99C1038.3,-288.43 995.98,-274.97 962.02,-264.18"/>
<polygon fill="#63b8ff" stroke="#63b8ff" points="962.83,-260.76 952.24,-261.06 960.71,-267.43 962.83,-260.76"/>
</a>
</g>
</g>
<!-- Node27 -->
<g id="Node000027" class="node">
<title>Node27</title>
<g id="a_Node000027"><a xlink:href="Sigma4FLArray_8hh.html" target="_top" xlink:title=" ">
<polygon fill="white" stroke="#666666" points="1363,-85 1217,-85 1217,-55 1363,-55 1363,-85"/>
<text text-anchor="start" x="1225" y="-73" font-family="Helvetica,sans-Serif" font-size="10.00">utils/sequence/packedDNA</text>
<text text-anchor="middle" x="1290" y="-62" font-family="Helvetica,sans-Serif" font-size="10.00">/Sigma4FLArray.hh</text>
</a>
</g>
</g>
<!-- Node23&#45;&gt;Node27 -->
<g id="edge44_Node000023_Node000027" class="edge">
<title>Node23&#45;&gt;Node27</title>
<g id="a_edge44_Node000023_Node000027"><a xlink:title=" ">
<path fill="none" stroke="#63b8ff" d="M1139.74,-301.72C1170.23,-296.87 1208.49,-285.86 1233,-261 1278.08,-215.27 1287.73,-135.35 1289.65,-95.31"/>
<polygon fill="#63b8ff" stroke="#63b8ff" points="1293.15,-95.26 1290.01,-85.14 1286.16,-95.01 1293.15,-95.26"/>
</a>
</g>
</g>
<!-- Node25&#45;&gt;Node6 -->
<g id="edge41_Node000025_Node000006" class="edge">
<title>Node25&#45;&gt;Node6</title>
<g id="a_edge41_Node000025_Node000006"><a xlink:title=" ">
<path fill="none" stroke="#63b8ff" d="M906.42,-230.81C903.3,-206.91 894.84,-157.63 875,-121 867.96,-108 856.88,-95.64 847.48,-86.45"/>
<polygon fill="#63b8ff" stroke="#63b8ff" points="849.79,-83.82 840.1,-79.54 845.01,-88.93 849.79,-83.82"/>
</a>
</g>
</g>
<!-- Node25&#45;&gt;Node9 -->
<g id="edge39_Node000025_Node000009" class="edge">
<title>Node25&#45;&gt;Node9</title>
<g id="a_edge39_Node000025_Node000009"><a xlink:title=" ">
<path fill="none" stroke="#63b8ff" d="M829.69,-241.54C637.31,-231.4 149.03,-195.14 37,-85 22.48,-70.72 20.01,-46.57 20.35,-29.65"/>
<polygon fill="#63b8ff" stroke="#63b8ff" points="23.86,-29.47 20.91,-19.3 16.87,-29.09 23.86,-29.47"/>
</a>
</g>
</g>
<!-- Node25&#45;&gt;Node10 -->
<g id="edge40_Node000025_Node000010" class="edge">
<title>Node25&#45;&gt;Node10</title>
<g id="a_edge40_Node000025_Node000010"><a xlink:title=" ">
<path fill="none" stroke="#63b8ff" d="M958.77,-230.94C1021.57,-210.47 1125.62,-165.82 1170,-85 1176.42,-73.31 1177.15,-66.25 1170,-55 1156.59,-33.9 1130.25,-22.64 1108.7,-16.72"/>
<polygon fill="#63b8ff" stroke="#63b8ff" points="1109.44,-13.3 1098.89,-14.3 1107.76,-20.1 1109.44,-13.3"/>
</a>
</g>
</g>
<!-- Node25&#45;&gt;Node21 -->
<g id="edge43_Node000025_Node000021" class="edge">
<title>Node25&#45;&gt;Node21</title>
<g id="a_edge43_Node000025_Node000021"><a xlink:title=" ">
<path fill="none" stroke="#63b8ff" d="M881.17,-230.99C863.15,-221.58 839.54,-209.24 821.75,-199.95"/>
<polygon fill="#63b8ff" stroke="#63b8ff" points="823.02,-196.67 812.54,-195.14 819.78,-202.87 823.02,-196.67"/>
</a>
</g>
</g>
<!-- Node26 -->
<g id="Node000026" class="node">
<title>Node26</title>
<g id="a_Node000026"><a xlink:title=" ">
<polygon fill="#e0e0e0" stroke="#999999" points="987.5,-195 922.5,-195 922.5,-176 987.5,-176 987.5,-195"/>
<text text-anchor="middle" x="955" y="-183" font-family="Helvetica,sans-Serif" font-size="10.00">stdexcept</text>
</a>
</g>
</g>
<!-- Node25&#45;&gt;Node26 -->
<g id="edge42_Node000025_Node000026" class="edge">
<title>Node25&#45;&gt;Node26</title>
<g id="a_edge42_Node000025_Node000026"><a xlink:title=" ">
<path fill="none" stroke="#63b8ff" d="M919.38,-230.84C926.06,-222.52 934.55,-211.96 941.56,-203.23"/>
<polygon fill="#63b8ff" stroke="#63b8ff" points="944.42,-205.25 947.96,-195.27 938.97,-200.87 944.42,-205.25"/>
</a>
</g>
</g>
<!-- Node27&#45;&gt;Node4 -->
<g id="edge47_Node000027_Node000004" class="edge">
<title>Node27&#45;&gt;Node4</title>
<g id="a_edge47_Node000027_Node000004"><a xlink:title=" ">
<path fill="none" stroke="#63b8ff" d="M1216.61,-57.3C1140.48,-45.17 1024.23,-26.64 963.36,-16.93"/>
<polygon fill="#63b8ff" stroke="#63b8ff" points="963.79,-13.46 953.37,-15.34 962.69,-20.37 963.79,-13.46"/>
</a>
</g>
</g>
<!-- Node27&#45;&gt;Node10 -->
<g id="edge49_Node000027_Node000010" class="edge">
<title>Node27&#45;&gt;Node10</title>
<g id="a_edge49_Node000027_Node000010"><a xlink:title=" ">
<path fill="none" stroke="#63b8ff" d="M1238.5,-54.99C1198.14,-44 1143.16,-29.04 1108.37,-19.58"/>
<polygon fill="#63b8ff" stroke="#63b8ff" points="1109.26,-16.19 1098.69,-16.95 1107.42,-22.95 1109.26,-16.19"/>
</a>
</g>
</g>
<!-- Node28 -->
<g id="Node000028" class="node">
<title>Node28</title>
<g id="a_Node000028"><a xlink:title=" ">
<polygon fill="#e0e0e0" stroke="#999999" points="1313.5,-19 1266.5,-19 1266.5,0 1313.5,0 1313.5,-19"/>
<text text-anchor="middle" x="1290" y="-7" font-family="Helvetica,sans-Serif" font-size="10.00">cmath</text>
</a>
</g>
</g>
<!-- Node27&#45;&gt;Node28 -->
<g id="edge45_Node000027_Node000028" class="edge">
<title>Node27&#45;&gt;Node28</title>
<g id="a_edge45_Node000027_Node000028"><a xlink:title=" ">
<path fill="none" stroke="#63b8ff" d="M1290,-54.84C1290,-47.21 1290,-37.7 1290,-29.45"/>
<polygon fill="#63b8ff" stroke="#63b8ff" points="1293.5,-29.27 1290,-19.27 1286.5,-29.27 1293.5,-29.27"/>
</a>
</g>
</g>
<!-- Node29 -->
<g id="Node000029" class="node">
<title>Node29</title>
<g id="a_Node000029"><a xlink:title=" ">
<polygon fill="#e0e0e0" stroke="#999999" points="1376,-19 1332,-19 1332,0 1376,0 1376,-19"/>
<text text-anchor="middle" x="1354" y="-7" font-family="Helvetica,sans-Serif" font-size="10.00">limits</text>
</a>
</g>
</g>
<!-- Node27&#45;&gt;Node29 -->
<g id="edge46_Node000027_Node000029" class="edge">
<title>Node27&#45;&gt;Node29</title>
<g id="a_edge46_Node000027_Node000029"><a xlink:title=" ">
<path fill="none" stroke="#63b8ff" d="M1305.49,-54.84C1314.97,-46.17 1327.11,-35.08 1336.88,-26.15"/>
<polygon fill="#63b8ff" stroke="#63b8ff" points="1339.39,-28.6 1344.41,-19.27 1334.67,-23.43 1339.39,-28.6"/>
</a>
</g>
</g>
<!-- Node30 -->
<g id="Node000030" class="node">
<title>Node30</title>
<g id="a_Node000030"><a xlink:title=" ">
<polygon fill="#e0e0e0" stroke="#999999" points="1248.5,-19 1203.5,-19 1203.5,0 1248.5,0 1248.5,-19"/>
<text text-anchor="middle" x="1226" y="-7" font-family="Helvetica,sans-Serif" font-size="10.00">utility</text>
</a>
</g>
</g>
<!-- Node27&#45;&gt;Node30 -->
<g id="edge48_Node000027_Node000030" class="edge">
<title>Node27&#45;&gt;Node30</title>
<g id="a_edge48_Node000027_Node000030"><a xlink:title=" ">
<path fill="none" stroke="#63b8ff" d="M1274.51,-54.84C1265.03,-46.17 1252.89,-35.08 1243.12,-26.15"/>
<polygon fill="#63b8ff" stroke="#63b8ff" points="1245.33,-23.43 1235.59,-19.27 1240.61,-28.6 1245.33,-23.43"/>
</a>
</g>
</g>
<!-- Node31&#45;&gt;Node4 -->
<g id="edge51_Node000031_Node000004" class="edge">
<title>Node31&#45;&gt;Node4</title>
<g id="a_edge51_Node000031_Node000004"><a xlink:title=" ">
<path fill="none" stroke="#63b8ff" d="M1085.37,-60.49C1052.45,-50.36 997.27,-33.37 960.51,-22.05"/>
<polygon fill="#63b8ff" stroke="#63b8ff" points="961.25,-18.61 950.66,-19.02 959.19,-25.3 961.25,-18.61"/>
</a>
</g>
</g>
<!-- Node31&#45;&gt;Node10 -->
<g id="edge52_Node000031_Node000010" class="edge">
<title>Node31&#45;&gt;Node10</title>
<g id="a_edge52_Node000031_Node000010"><a xlink:title=" ">
<path fill="none" stroke="#63b8ff" d="M1107.39,-60.37C1101.84,-51.81 1093.17,-38.47 1086.2,-27.74"/>
<polygon fill="#63b8ff" stroke="#63b8ff" points="1089.01,-25.65 1080.63,-19.17 1083.14,-29.46 1089.01,-25.65"/>
</a>
</g>
</g>
</g>
</svg>

<g id="navigator" transform="translate(0 0)" fill="#404254">
  <rect fill="#f2f5e9" fill-opacity="0.5" stroke="#606060" stroke-width=".5" x="0" y="0" width="60" height="60"/>
  <use id="zoomplus" xlink:href="#zoomPlus" x="17" y="9" onmousedown="handleZoom(evt,'in')"/>
  <use id="zoomminus" xlink:href="#zoomMin" x="42" y="9" onmousedown="handleZoom(evt,'out')"/>
  <use id="reset" xlink:href="#resetDef" x="30" y="36" onmousedown="handleReset()"/>
   <use id="arrowup" xlink:href="#arrowUp" x="0" y="0" onmousedown="handlePan(0,-1)"/>
  <use id="arrowright" xlink:href="#arrowRight" x="0" y="0" onmousedown="handlePan(1,0)"/>
  <use id="arrowdown" xlink:href="#arrowDown" x="0" y="0" onmousedown="handlePan(0,1)"/>
  <use id="arrowleft" xlink:href="#arrowLeft" x="0" y="0" onmousedown="handlePan(-1,0)"/>
</g>
<svg viewBox="0 0 15 15" width="100%" height="30px" preserveAspectRatio="xMaxYMin meet">
 <g id="arrow_out" transform="scale(0.3 0.3)">
  <a xlink:href="RecountTagCounts__SortedTagSet_8cc__incl_org.svg" target="_base">
   <rect id="button" ry="5" rx="5" y="6" x="6" height="38" width="38"
        fill="#f2f5e9" fill-opacity="0.5" stroke="#606060" stroke-width="1.0"/>
   <path id="arrow"
     d="M 11.500037,31.436501 C 11.940474,20.09759 22.043105,11.32322 32.158766,21.979434 L 37.068811,17.246167 C 37.068811,17.246167 37.088388,32 37.088388,32 L 22.160133,31.978069 C 22.160133,31.978069 26.997745,27.140456 26.997745,27.140456 C 18.528582,18.264221 13.291696,25.230495 11.500037,31.436501 z"
     style="fill:#404040;"/>
  </a>
 </g>
</svg>

<style type='text/css'>
<![CDATA[
[data-mouse-over-selected='false'] { opacity: 0.7; }
[data-mouse-over-selected='true']  { opacity: 1.0; }
]]>
</style>
<script type="application/ecmascript"><![CDATA[
document.addEventListener('DOMContentLoaded', (event) => {
  highlightEdges();
  highlightAdjacentNodes();
});
]]></script>
</svg>
