<?xml version="1.0" encoding="UTF-8" standalone="no"?>
<!DOCTYPE svg PUBLIC "-//W3C//DTD SVG 1.1//EN"
 "http://www.w3.org/Graphics/SVG/1.1/DTD/svg11.dtd">
<!-- Generated by graphviz version 2.43.0 (0)
 -->
<!-- Title: ematch_src/RecountComputerForGraphOnDisk.hh Pages: 1 -->
<svg width="565pt" height="170pt"
 viewBox="0.00 0.00 565.00 170.00" xmlns="http://www.w3.org/2000/svg" xmlns:xlink="http://www.w3.org/1999/xlink">
<g id="graph0" class="graph" transform="scale(1 1) rotate(0) translate(4 166)">
<title>ematch_src/RecountComputerForGraphOnDisk.hh</title>
<!-- Node1 -->
<g id="Node000001" class="node">
<title>Node1</title>
<g id="a_Node000001"><a xlink:title=" ">
<polygon fill="#999999" stroke="#666666" points="352.5,-162 188.5,-162 188.5,-132 352.5,-132 352.5,-162"/>
<text text-anchor="start" x="196.5" y="-150" font-family="Helvetica,sans-Serif" font-size="10.00">ematch_src/RecountComputer</text>
<text text-anchor="middle" x="270.5" y="-139" font-family="Helvetica,sans-Serif" font-size="10.00">ForGraphOnDisk.hh</text>
</a>
</g>
</g>
<!-- Node2 -->
<g id="Node000002" class="node">
<title>Node2</title>
<g id="a_Node000002"><a xlink:href="RecountComputerForGraphOnDisk_8cc.html" target="_top" xlink:title=" ">
<polygon fill="white" stroke="#666666" points="165.5,-96 1.5,-96 1.5,-66 165.5,-66 165.5,-96"/>
<text text-anchor="start" x="9.5" y="-84" font-family="Helvetica,sans-Serif" font-size="10.00">ematch_src/RecountComputer</text>
<text text-anchor="middle" x="83.5" y="-73" font-family="Helvetica,sans-Serif" font-size="10.00">ForGraphOnDisk.cc</text>
</a>
</g>
</g>
<!-- Node1&#45;&gt;Node2 -->
<g id="edge1_Node000001_Node000002" class="edge">
<title>Node1&#45;&gt;Node2</title>
<g id="a_edge1_Node000001_Node000002"><a xlink:title=" ">
<path fill="none" stroke="#63b8ff" d="M219.63,-128.59C189.73,-118.36 152.43,-105.59 124.44,-96.01"/>
<polygon fill="#63b8ff" stroke="#63b8ff" points="218.87,-132.03 229.46,-131.95 221.13,-125.41 218.87,-132.03"/>
</a>
</g>
</g>
<!-- Node3 -->
<g id="Node000003" class="node">
<title>Node3</title>
<g id="a_Node000003"><a xlink:href="RecountExpectationMatchingTagCorrector_8hh.html" target="_top" xlink:title=" ">
<polygon fill="white" stroke="#666666" points="357,-96 184,-96 184,-66 357,-66 357,-96"/>
<text text-anchor="start" x="192" y="-84" font-family="Helvetica,sans-Serif" font-size="10.00">ematch_src/RecountExpectation</text>
<text text-anchor="middle" x="270.5" y="-73" font-family="Helvetica,sans-Serif" font-size="10.00">MatchingTagCorrector.hh</text>
</a>
</g>
</g>
<!-- Node1&#45;&gt;Node3 -->
<g id="edge2_Node000001_Node000003" class="edge">
<title>Node1&#45;&gt;Node3</title>
<g id="a_edge2_Node000001_Node000003"><a xlink:title=" ">
<path fill="none" stroke="#63b8ff" d="M270.5,-121.54C270.5,-112.96 270.5,-103.61 270.5,-96.16"/>
<polygon fill="#63b8ff" stroke="#63b8ff" points="267,-121.8 270.5,-131.8 274,-121.8 267,-121.8"/>
</a>
</g>
</g>
<!-- Node7 -->
<g id="Node000007" class="node">
<title>Node7</title>
<g id="a_Node000007"><a xlink:href="RecountGradientSearchTagCorrector_8hh.html" target="_top" xlink:title=" ">
<polygon fill="white" stroke="#666666" points="533.5,-96 375.5,-96 375.5,-66 533.5,-66 533.5,-96"/>
<text text-anchor="start" x="383.5" y="-84" font-family="Helvetica,sans-Serif" font-size="10.00">ematch_src/RecountGradient</text>
<text text-anchor="middle" x="454.5" y="-73" font-family="Helvetica,sans-Serif" font-size="10.00">SearchTagCorrector.hh</text>
</a>
</g>
</g>
<!-- Node1&#45;&gt;Node7 -->
<g id="edge6_Node000001_Node000007" class="edge">
<title>Node1&#45;&gt;Node7</title>
<g id="a_edge6_Node000001_Node000007"><a xlink:title=" ">
<path fill="none" stroke="#63b8ff" d="M320.55,-128.59C349.97,-118.36 386.67,-105.59 414.21,-96.01"/>
<polygon fill="#63b8ff" stroke="#63b8ff" points="319.17,-125.36 310.88,-131.95 321.47,-131.98 319.17,-125.36"/>
</a>
</g>
</g>
<!-- Node4 -->
<g id="Node000004" class="node">
<title>Node4</title>
<g id="a_Node000004"><a xlink:href="RecountExpectationMatchingTagCorrector_8cc.html" target="_top" xlink:title=" ">
<polygon fill="white" stroke="#666666" points="173,-30 0,-30 0,0 173,0 173,-30"/>
<text text-anchor="start" x="8" y="-18" font-family="Helvetica,sans-Serif" font-size="10.00">ematch_src/RecountExpectation</text>
<text text-anchor="middle" x="86.5" y="-7" font-family="Helvetica,sans-Serif" font-size="10.00">MatchingTagCorrector.cc</text>
</a>
</g>
</g>
<!-- Node3&#45;&gt;Node4 -->
<g id="edge3_Node000003_Node000004" class="edge">
<title>Node3&#45;&gt;Node4</title>
<g id="a_edge3_Node000003_Node000004"><a xlink:title=" ">
<path fill="none" stroke="#63b8ff" d="M220.45,-62.59C191.03,-52.36 154.33,-39.59 126.79,-30.01"/>
<polygon fill="#63b8ff" stroke="#63b8ff" points="219.53,-65.98 230.12,-65.95 221.83,-59.36 219.53,-65.98"/>
</a>
</g>
</g>
<!-- Node5 -->
<g id="Node000005" class="node">
<title>Node5</title>
<g id="a_Node000005"><a xlink:href="RecountGradientSearchTagCorrector_8cc.html" target="_top" xlink:title=" ">
<polygon fill="white" stroke="#666666" points="349.5,-30 191.5,-30 191.5,0 349.5,0 349.5,-30"/>
<text text-anchor="start" x="199.5" y="-18" font-family="Helvetica,sans-Serif" font-size="10.00">ematch_src/RecountGradient</text>
<text text-anchor="middle" x="270.5" y="-7" font-family="Helvetica,sans-Serif" font-size="10.00">SearchTagCorrector.cc</text>
</a>
</g>
</g>
<!-- Node3&#45;&gt;Node5 -->
<g id="edge4_Node000003_Node000005" class="edge">
<title>Node3&#45;&gt;Node5</title>
<g id="a_edge4_Node000003_Node000005"><a xlink:title=" ">
<path fill="none" stroke="#63b8ff" d="M270.5,-55.54C270.5,-46.96 270.5,-37.61 270.5,-30.16"/>
<polygon fill="#63b8ff" stroke="#63b8ff" points="267,-55.8 270.5,-65.8 274,-55.8 267,-55.8"/>
</a>
</g>
</g>
<!-- Node6 -->
<g id="Node000006" class="node">
<title>Node6</title>
<g id="a_Node000006"><a xlink:href="runRecountExpectationMatchingTagCorrector_8cc.html" target="_top" xlink:title=" ">
<polygon fill="white" stroke="#666666" points="557,-30 368,-30 368,0 557,0 557,-30"/>
<text text-anchor="start" x="376" y="-18" font-family="Helvetica,sans-Serif" font-size="10.00">ematch_src/runRecountExpectation</text>
<text text-anchor="middle" x="462.5" y="-7" font-family="Helvetica,sans-Serif" font-size="10.00">MatchingTagCorrector.cc</text>
</a>
</g>
</g>
<!-- Node3&#45;&gt;Node6 -->
<g id="edge5_Node000003_Node000006" class="edge">
<title>Node3&#45;&gt;Node6</title>
<g id="a_edge5_Node000003_Node000006"><a xlink:title=" ">
<path fill="none" stroke="#63b8ff" d="M322.33,-62.72C353.09,-52.47 391.6,-39.63 420.46,-30.01"/>
<polygon fill="#63b8ff" stroke="#63b8ff" points="321.02,-59.47 312.64,-65.95 323.23,-66.11 321.02,-59.47"/>
</a>
</g>
</g>
</g>
</svg>
