<?xml version="1.0" encoding="UTF-8" standalone="no"?>
<!DOCTYPE svg PUBLIC "-//W3C//DTD SVG 1.1//EN"
 "http://www.w3.org/Graphics/SVG/1.1/DTD/svg11.dtd">
<!-- Generated by graphviz version 2.43.0 (0)
 -->
<!-- Title: ematch_src/RecountComputerForGraphOnDisk_SortedTagSet.hh Pages: 1 -->
<!--zoomable 456 -->

<svg id="main" version="1.1" xmlns="http://www.w3.org/2000/svg" xmlns:xlink="http://www.w3.org/1999/xlink" xml:space="preserve" onload="init(evt)">
<style type="text/css"><![CDATA[
.node, .edge {opacity: 0.7;}
.node.selected, .edge.selected {opacity: 1;}
.edge:hover path { stroke: red; }
.edge:hover polygon { stroke: red; fill: red; }
]]></style>

<defs>
  <circle id="rim" cx="0" cy="0" r="7"/>
  <circle id="rim2" cx="0" cy="0" r="3.5"/>
  <g id="zoomPlus">
    <use xlink:href="#rim" fill="#404040"><set attributeName="fill" to="#808080" begin="zoomplus.mouseover" end="zoomplus.mouseout"/></use>
    <path d="M-4,0h8M0,-4v8" fill="none" stroke="white" stroke-width="1.5" pointer-events="none"/>
  </g>
  <g id="zoomMin">
    <use xlink:href="#rim" fill="#404040"><set attributeName="fill" to="#808080" begin="zoomminus.mouseover" end="zoomminus.mouseout"/></use>
    <path d="M-4,0h8" fill="none" stroke="white" stroke-width="1.5" pointer-events="none"/>
  </g>
  <g id="arrowUp" transform="translate(30 24)">
    <use xlink:href="#rim"/>
    <path pointer-events="none" fill="none" stroke="white" stroke-width="1.5" d="M0,-3.0v7 M-2.5,-0.5L0,-3.0L2.5,-0.5"/>
  </g>
  <g id="arrowRight" transform="rotate(90) translate(36 -43)">
    <use xlink:href="#rim"/>
    <path pointer-events="none" fill="none" stroke="white" stroke-width="1.5" d="M0,-3.0v7 M-2.5,-0.5L0,-3.0L2.5,-0.5"/>
  </g>
  <g id="arrowDown" transform="rotate(180) translate(-30 -48)">
    <use xlink:href="#rim"/>
    <path pointer-events="none" fill="none" stroke="white" stroke-width="1.5" d="M0,-3.0v7 M-2.5,-0.5L0,-3.0L2.5,-0.5"/>
  </g>
  <g id="arrowLeft" transform="rotate(270) translate(-36 17)">
    <use xlink:href="#rim"/>
    <path pointer-events="none" fill="none" stroke="white" stroke-width="1.5" d="M0,-3.0v7 M-2.5,-0.5L0,-3.0L2.5,-0.5"/>
  </g>
  <g id="resetDef">
    <use xlink:href="#rim2" fill="#404040"><set attributeName="fill" to="#808080" begin="reset.mouseover" end="reset.mouseout"/></use>
  </g>
</defs>
<script type="application/ecmascript">
var viewWidth = 1785;
var viewHeight = 456;
var sectionId = 'dynsection-0';
</script>
<script type="application/ecmascript" xlink:href="svg.min.js"/>
<svg id="graph" class="graph">
<g id="viewport">
<title>ematch_src/RecountComputerForGraphOnDisk_SortedTagSet.hh</title>
<!-- Node1 -->
<g id="Node000001" class="node">
<title>Node1</title>
<g id="a_Node000001"><a xlink:title=" ">
<polygon fill="#999999" stroke="#666666" points="355,-448 175,-448 175,-418 355,-418 355,-448"/>
<text text-anchor="start" x="183" y="-436" font-family="Helvetica,sans-Serif" font-size="10.00">ematch_src/RecountComputer</text>
<text text-anchor="middle" x="265" y="-425" font-family="Helvetica,sans-Serif" font-size="10.00">ForGraphOnDisk_SortedTagSet.hh</text>
</a>
</g>
</g>
<!-- Node2 -->
<g id="Node000002" class="node">
<title>Node2</title>
<g id="a_Node000002"><a xlink:title=" ">
<polygon fill="#e0e0e0" stroke="#999999" points="434,-19 374,-19 374,0 434,0 434,-19"/>
<text text-anchor="middle" x="404" y="-7" font-family="Helvetica,sans-Serif" font-size="10.00">iostream</text>
</a>
</g>
</g>
<!-- Node1&#45;&gt;Node2 -->
<g id="edge1_Node000001_Node000002" class="edge">
<title>Node1&#45;&gt;Node2</title>
<g id="a_edge1_Node000001_Node000002"><a xlink:title=" ">
<path fill="none" stroke="#63b8ff" d="M174.91,-426.1C98.09,-415.59 0,-386.67 0,-307.5 0,-307.5 0,-307.5 0,-129.5 0,-54.2 261.5,-23.04 363.73,-13.73"/>
<polygon fill="#63b8ff" stroke="#63b8ff" points="364.31,-17.19 373.96,-12.82 363.69,-10.22 364.31,-17.19"/>
</a>
</g>
</g>
<!-- Node3 -->
<g id="Node000003" class="node">
<title>Node3</title>
<g id="a_Node000003"><a xlink:href="RecountNeighborProbGraphOnDisk__SortedTagSet_8hh.html" target="_top" xlink:title=" ">
<polygon fill="white" stroke="#666666" points="341,-382 189,-382 189,-352 341,-352 341,-382"/>
<text text-anchor="start" x="197" y="-370" font-family="Helvetica,sans-Serif" font-size="10.00">RecountNeighborProbGraph</text>
<text text-anchor="middle" x="265" y="-359" font-family="Helvetica,sans-Serif" font-size="10.00">OnDisk_SortedTagSet.hh</text>
</a>
</g>
</g>
<!-- Node1&#45;&gt;Node3 -->
<g id="edge2_Node000001_Node000003" class="edge">
<title>Node1&#45;&gt;Node3</title>
<g id="a_edge2_Node000001_Node000003"><a xlink:title=" ">
<path fill="none" stroke="#63b8ff" d="M265,-417.8C265,-410.34 265,-400.99 265,-392.41"/>
<polygon fill="#63b8ff" stroke="#63b8ff" points="268.5,-392.16 265,-382.16 261.5,-392.16 268.5,-392.16"/>
</a>
</g>
</g>
<!-- Node34 -->
<g id="Node000034" class="node">
<title>Node34</title>
<g id="a_Node000034"><a xlink:href="RecountTagCounts__SortedTagSet_8hh.html" target="_top" xlink:title=" ">
<polygon fill="white" stroke="#666666" points="674,-382 514,-382 514,-352 674,-352 674,-382"/>
<text text-anchor="start" x="522" y="-370" font-family="Helvetica,sans-Serif" font-size="10.00">RecountTagCounts_SortedTag</text>
<text text-anchor="middle" x="594" y="-359" font-family="Helvetica,sans-Serif" font-size="10.00">Set.hh</text>
</a>
</g>
</g>
<!-- Node1&#45;&gt;Node34 -->
<g id="edge57_Node000001_Node000034" class="edge">
<title>Node1&#45;&gt;Node34</title>
<g id="a_edge57_Node000001_Node000034"><a xlink:title=" ">
<path fill="none" stroke="#63b8ff" d="M337.2,-417.95C388.84,-407.91 458.42,-394.37 512.13,-383.93"/>
<polygon fill="#63b8ff" stroke="#63b8ff" points="512.82,-387.36 521.97,-382.01 511.48,-380.49 512.82,-387.36"/>
</a>
</g>
</g>
<!-- Node3&#45;&gt;Node2 -->
<g id="edge3_Node000003_Node000002" class="edge">
<title>Node3&#45;&gt;Node2</title>
<g id="a_edge3_Node000003_Node000002"><a xlink:title=" ">
<path fill="none" stroke="#63b8ff" d="M252.91,-351.67C236.18,-330.31 208,-288.23 208,-247 208,-247 208,-247 208,-129.5 208,-92.33 217.26,-78.57 246,-55 279.55,-27.49 329.08,-16.96 363.71,-12.95"/>
<polygon fill="#63b8ff" stroke="#63b8ff" points="364.36,-16.4 373.95,-11.9 363.64,-9.44 364.36,-16.4"/>
</a>
</g>
</g>
<!-- Node4 -->
<g id="Node000004" class="node">
<title>Node4</title>
<g id="a_Node000004"><a xlink:href="SortedTagSet_8hh.html" target="_top" xlink:title=" ">
<polygon fill="white" stroke="#666666" points="641.5,-316 546.5,-316 546.5,-297 641.5,-297 641.5,-316"/>
<text text-anchor="middle" x="594" y="-304" font-family="Helvetica,sans-Serif" font-size="10.00">SortedTagSet.hh</text>
</a>
</g>
</g>
<!-- Node3&#45;&gt;Node4 -->
<g id="edge4_Node000003_Node000004" class="edge">
<title>Node3&#45;&gt;Node4</title>
<g id="a_edge4_Node000003_Node000004"><a xlink:title=" ">
<path fill="none" stroke="#63b8ff" d="M341.31,-352.43C400.69,-341.87 481.85,-327.44 536,-317.81"/>
<polygon fill="#63b8ff" stroke="#63b8ff" points="536.88,-321.21 546.12,-316.01 535.66,-314.32 536.88,-321.21"/>
</a>
</g>
</g>
<!-- Node30 -->
<g id="Node000030" class="node">
<title>Node30</title>
<g id="a_Node000030"><a xlink:href="RecountNeighborList_8hh.html" target="_top" xlink:title=" ">
<polygon fill="white" stroke="#666666" points="484.5,-195 351.5,-195 351.5,-176 484.5,-176 484.5,-195"/>
<text text-anchor="middle" x="418" y="-183" font-family="Helvetica,sans-Serif" font-size="10.00">RecountNeighborList.hh</text>
</a>
</g>
</g>
<!-- Node3&#45;&gt;Node30 -->
<g id="edge46_Node000003_Node000030" class="edge">
<title>Node3&#45;&gt;Node30</title>
<g id="a_edge46_Node000003_Node000030"><a xlink:title=" ">
<path fill="none" stroke="#63b8ff" d="M277.01,-351.91C304.93,-319.15 374.13,-237.97 403.96,-202.98"/>
<polygon fill="#63b8ff" stroke="#63b8ff" points="406.82,-205.02 410.64,-195.13 401.49,-200.48 406.82,-205.02"/>
</a>
</g>
</g>
<!-- Node33 -->
<g id="Node000033" class="node">
<title>Node33</title>
<g id="a_Node000033"><a xlink:href="RecountNeighborProbGraphFormat_8hh.html" target="_top" xlink:title=" ">
<polygon fill="white" stroke="#666666" points="180,-261 28,-261 28,-231 180,-231 180,-261"/>
<text text-anchor="start" x="36" y="-249" font-family="Helvetica,sans-Serif" font-size="10.00">RecountNeighborProbGraph</text>
<text text-anchor="middle" x="104" y="-238" font-family="Helvetica,sans-Serif" font-size="10.00">Format.hh</text>
</a>
</g>
</g>
<!-- Node3&#45;&gt;Node33 -->
<g id="edge55_Node000003_Node000033" class="edge">
<title>Node3&#45;&gt;Node33</title>
<g id="a_edge55_Node000003_Node000033"><a xlink:title=" ">
<path fill="none" stroke="#63b8ff" d="M244.65,-351.99C230.37,-342.08 210.89,-328.41 194,-316 172.32,-300.07 148.15,-281.49 130.31,-267.62"/>
<polygon fill="#63b8ff" stroke="#63b8ff" points="132.15,-264.61 122.11,-261.23 127.84,-270.13 132.15,-264.61"/>
</a>
</g>
</g>
<!-- Node4&#45;&gt;Node2 -->
<g id="edge5_Node000004_Node000002" class="edge">
<title>Node4&#45;&gt;Node2</title>
<g id="a_edge5_Node000004_Node000002"><a xlink:title=" ">
<path fill="none" stroke="#63b8ff" d="M546.34,-299.37C451.03,-285.77 246,-249.23 246,-186.5 246,-186.5 246,-186.5 246,-129.5 246,-94.71 245.51,-79.71 270,-55 294.85,-29.92 334.15,-18.98 363.78,-14.2"/>
<polygon fill="#63b8ff" stroke="#63b8ff" points="364.41,-17.65 373.81,-12.76 363.42,-10.72 364.41,-17.65"/>
</a>
</g>
</g>
<!-- Node5 -->
<g id="Node000005" class="node">
<title>Node5</title>
<g id="a_Node000005"><a xlink:title=" ">
<polygon fill="#e0e0e0" stroke="#999999" points="646,-140 542,-140 542,-121 646,-121 646,-140"/>
<text text-anchor="middle" x="594" y="-128" font-family="Helvetica,sans-Serif" font-size="10.00">boost/foreach.hpp</text>
</a>
</g>
</g>
<!-- Node4&#45;&gt;Node5 -->
<g id="edge6_Node000004_Node000005" class="edge">
<title>Node4&#45;&gt;Node5</title>
<g id="a_edge6_Node000004_Node000005"><a xlink:title=" ">
<path fill="none" stroke="#63b8ff" d="M594,-296.63C594,-269.64 594,-188.03 594,-150.61"/>
<polygon fill="#63b8ff" stroke="#63b8ff" points="597.5,-150.14 594,-140.14 590.5,-150.14 597.5,-150.14"/>
</a>
</g>
</g>
<!-- Node6 -->
<g id="Node000006" class="node">
<title>Node6</title>
<g id="a_Node000006"><a xlink:href="ResidueIndexMap_8hh.html" target="_top" xlink:title=" ">
<polygon fill="white" stroke="#666666" points="893,-261 737,-261 737,-231 893,-231 893,-261"/>
<text text-anchor="start" x="745" y="-249" font-family="Helvetica,sans-Serif" font-size="10.00">utils/sequence/ResidueIndex</text>
<text text-anchor="middle" x="815" y="-238" font-family="Helvetica,sans-Serif" font-size="10.00">Map/ResidueIndexMap.hh</text>
</a>
</g>
</g>
<!-- Node4&#45;&gt;Node6 -->
<g id="edge7_Node000004_Node000006" class="edge">
<title>Node4&#45;&gt;Node6</title>
<g id="a_edge7_Node000004_Node000006"><a xlink:title=" ">
<path fill="none" stroke="#63b8ff" d="M626.14,-296.99C658.98,-288.3 710.86,-274.57 751.94,-263.69"/>
<polygon fill="#63b8ff" stroke="#63b8ff" points="753.1,-267.01 761.87,-261.06 751.31,-260.24 753.1,-267.01"/>
</a>
</g>
</g>
<!-- Node26 -->
<g id="Node000026" class="node">
<title>Node26</title>
<g id="a_Node000026"><a xlink:href="Sigma4FLArray_8hh.html" target="_top" xlink:title=" ">
<polygon fill="white" stroke="#666666" points="768,-85 622,-85 622,-55 768,-55 768,-85"/>
<text text-anchor="start" x="630" y="-73" font-family="Helvetica,sans-Serif" font-size="10.00">utils/sequence/packedDNA</text>
<text text-anchor="middle" x="695" y="-62" font-family="Helvetica,sans-Serif" font-size="10.00">/Sigma4FLArray.hh</text>
</a>
</g>
</g>
<!-- Node4&#45;&gt;Node26 -->
<g id="edge40_Node000004_Node000026" class="edge">
<title>Node4&#45;&gt;Node26</title>
<g id="a_edge40_Node000004_Node000026"><a xlink:title=" ">
<path fill="none" stroke="#63b8ff" d="M597.71,-296.88C611.89,-263.95 662.92,-145.48 684.86,-94.55"/>
<polygon fill="#63b8ff" stroke="#63b8ff" points="688.1,-95.88 688.84,-85.31 681.67,-93.11 688.1,-95.88"/>
</a>
</g>
</g>
<!-- Node7 -->
<g id="Node000007" class="node">
<title>Node7</title>
<g id="a_Node000007"><a xlink:title=" ">
<polygon fill="#e0e0e0" stroke="#999999" points="1470,-19 1426,-19 1426,0 1470,0 1470,-19"/>
<text text-anchor="middle" x="1448" y="-7" font-family="Helvetica,sans-Serif" font-size="10.00">string</text>
</a>
</g>
</g>
<!-- Node6&#45;&gt;Node7 -->
<g id="edge8_Node000006_Node000007" class="edge">
<title>Node6&#45;&gt;Node7</title>
<g id="a_edge8_Node000006_Node000007"><a xlink:title=" ">
<path fill="none" stroke="#63b8ff" d="M893.29,-240.48C1065.17,-228.68 1466.23,-190.2 1541,-85 1548.72,-74.13 1548.11,-66.28 1541,-55 1527.72,-33.92 1501.38,-22.6 1480.11,-16.67"/>
<polygon fill="#63b8ff" stroke="#63b8ff" points="1480.71,-13.21 1470.16,-14.17 1479,-20 1480.71,-13.21"/>
</a>
</g>
</g>
<!-- Node8 -->
<g id="Node000008" class="node">
<title>Node8</title>
<g id="a_Node000008"><a xlink:title=" ">
<polygon fill="#e0e0e0" stroke="#999999" points="852.5,-19 805.5,-19 805.5,0 852.5,0 852.5,-19"/>
<text text-anchor="middle" x="829" y="-7" font-family="Helvetica,sans-Serif" font-size="10.00">vector</text>
</a>
</g>
</g>
<!-- Node6&#45;&gt;Node8 -->
<g id="edge9_Node000006_Node000008" class="edge">
<title>Node6&#45;&gt;Node8</title>
<g id="a_edge9_Node000006_Node000008"><a xlink:title=" ">
<path fill="none" stroke="#63b8ff" d="M815.85,-230.68C818.27,-190.25 825.14,-75.17 827.87,-29.51"/>
<polygon fill="#63b8ff" stroke="#63b8ff" points="831.37,-29.45 828.48,-19.26 824.39,-29.03 831.37,-29.45"/>
</a>
</g>
</g>
<!-- Node9 -->
<g id="Node000009" class="node">
<title>Node9</title>
<g id="a_Node000009"><a xlink:title=" ">
<polygon fill="#e0e0e0" stroke="#999999" points="915.5,-79.5 862.5,-79.5 862.5,-60.5 915.5,-60.5 915.5,-79.5"/>
<text text-anchor="middle" x="889" y="-67.5" font-family="Helvetica,sans-Serif" font-size="10.00">ctype.h</text>
</a>
</g>
</g>
<!-- Node6&#45;&gt;Node9 -->
<g id="edge10_Node000006_Node000009" class="edge">
<title>Node6&#45;&gt;Node9</title>
<g id="a_edge10_Node000006_Node000009"><a xlink:title=" ">
<path fill="none" stroke="#63b8ff" d="M817.99,-230.7C823.27,-207.05 835.45,-158.65 854,-121 859.82,-109.19 868.24,-97.06 875.36,-87.71"/>
<polygon fill="#63b8ff" stroke="#63b8ff" points="878.23,-89.72 881.66,-79.69 872.73,-85.39 878.23,-89.72"/>
</a>
</g>
</g>
<!-- Node10 -->
<g id="Node000010" class="node">
<title>Node10</title>
<g id="a_Node000010"><a xlink:title=" ">
<polygon fill="#e0e0e0" stroke="#999999" points="767.5,-195 702.5,-195 702.5,-176 767.5,-176 767.5,-195"/>
<text text-anchor="middle" x="735" y="-183" font-family="Helvetica,sans-Serif" font-size="10.00">stdexcept</text>
</a>
</g>
</g>
<!-- Node6&#45;&gt;Node10 -->
<g id="edge11_Node000006_Node000010" class="edge">
<title>Node6&#45;&gt;Node10</title>
<g id="a_edge11_Node000006_Node000010"><a xlink:title=" ">
<path fill="none" stroke="#63b8ff" d="M795.63,-230.84C783.43,-221.91 767.69,-210.41 755.31,-201.35"/>
<polygon fill="#63b8ff" stroke="#63b8ff" points="757.13,-198.34 746.99,-195.27 752.99,-203.99 757.13,-198.34"/>
</a>
</g>
</g>
<!-- Node11 -->
<g id="Node000011" class="node">
<title>Node11</title>
<g id="a_Node000011"><a xlink:href="ematch__src_2utils_2FLArray_2FLEArray_8hh.html" target="_top" xlink:title=" ">
<polygon fill="white" stroke="#666666" points="1085.5,-195 946.5,-195 946.5,-176 1085.5,-176 1085.5,-195"/>
<text text-anchor="middle" x="1016" y="-183" font-family="Helvetica,sans-Serif" font-size="10.00">utils/FLArray/FLEArray.hh</text>
</a>
</g>
</g>
<!-- Node6&#45;&gt;Node11 -->
<g id="edge12_Node000006_Node000011" class="edge">
<title>Node6&#45;&gt;Node11</title>
<g id="a_edge12_Node000006_Node000011"><a xlink:title=" ">
<path fill="none" stroke="#63b8ff" d="M863.14,-230.99C897.98,-220.85 944.47,-207.32 976.99,-197.85"/>
<polygon fill="#63b8ff" stroke="#63b8ff" points="977.99,-201.21 986.61,-195.05 976.03,-194.49 977.99,-201.21"/>
</a>
</g>
</g>
<!-- Node11&#45;&gt;Node2 -->
<g id="edge15_Node000011_Node000002" class="edge">
<title>Node11&#45;&gt;Node2</title>
<g id="a_edge15_Node000011_Node000002"><a xlink:title=" ">
<path fill="none" stroke="#63b8ff" d="M971.55,-175.93C865.88,-155.37 605.78,-103.57 570,-85 552.41,-75.87 554.1,-65.03 537,-55 507.95,-37.96 471.46,-26.35 444.05,-19.26"/>
<polygon fill="#63b8ff" stroke="#63b8ff" points="444.58,-15.79 434.03,-16.77 442.89,-22.58 444.58,-15.79"/>
</a>
</g>
</g>
<!-- Node11&#45;&gt;Node8 -->
<g id="edge14_Node000011_Node000008" class="edge">
<title>Node11&#45;&gt;Node8</title>
<g id="a_edge14_Node000011_Node000008"><a xlink:title=" ">
<path fill="none" stroke="#63b8ff" d="M1015.97,-175.73C1015.42,-162.04 1012.3,-135.64 997,-121 949.65,-75.69 902.1,-129.52 854,-85 838.54,-70.69 832.64,-46.55 830.38,-29.64"/>
<polygon fill="#63b8ff" stroke="#63b8ff" points="833.83,-28.89 829.34,-19.29 826.86,-29.59 833.83,-28.89"/>
</a>
</g>
</g>
<!-- Node12 -->
<g id="Node000012" class="node">
<title>Node12</title>
<g id="a_Node000012"><a xlink:title=" ">
<polygon fill="#e0e0e0" stroke="#999999" points="1532,-79.5 1476,-79.5 1476,-60.5 1532,-60.5 1532,-79.5"/>
<text text-anchor="middle" x="1504" y="-67.5" font-family="Helvetica,sans-Serif" font-size="10.00">assert.h</text>
</a>
</g>
</g>
<!-- Node11&#45;&gt;Node12 -->
<g id="edge13_Node000011_Node000012" class="edge">
<title>Node11&#45;&gt;Node12</title>
<g id="a_edge13_Node000011_Node000012"><a xlink:title=" ">
<path fill="none" stroke="#63b8ff" d="M1085.77,-180.38C1152.52,-175.18 1255.55,-163.85 1342,-140 1392.26,-126.14 1447.45,-100.12 1478.7,-84.3"/>
<polygon fill="#63b8ff" stroke="#63b8ff" points="1480.66,-87.22 1487.96,-79.55 1477.47,-81 1480.66,-87.22"/>
</a>
</g>
</g>
<!-- Node13 -->
<g id="Node000013" class="node">
<title>Node13</title>
<g id="a_Node000013"><a xlink:title=" ">
<polygon fill="#e0e0e0" stroke="#999999" points="1333,-140 1269,-140 1269,-121 1333,-121 1333,-140"/>
<text text-anchor="middle" x="1301" y="-128" font-family="Helvetica,sans-Serif" font-size="10.00">algorithm</text>
</a>
</g>
</g>
<!-- Node11&#45;&gt;Node13 -->
<g id="edge16_Node000011_Node000013" class="edge">
<title>Node11&#45;&gt;Node13</title>
<g id="a_edge16_Node000011_Node000013"><a xlink:title=" ">
<path fill="none" stroke="#63b8ff" d="M1064.67,-175.98C1111.85,-167.64 1185.69,-154.38 1258.93,-140.17"/>
<polygon fill="#63b8ff" stroke="#63b8ff" points="1259.64,-143.6 1268.79,-138.25 1258.3,-136.73 1259.64,-143.6"/>
</a>
</g>
</g>
<!-- Node14 -->
<g id="Node000014" class="node">
<title>Node14</title>
<g id="a_Node000014"><a xlink:title=" ">
<polygon fill="#e0e0e0" stroke="#999999" points="987.5,-140 862.5,-140 862.5,-121 987.5,-121 987.5,-140"/>
<text text-anchor="middle" x="925" y="-128" font-family="Helvetica,sans-Serif" font-size="10.00">boost/lexical_cast.hpp</text>
</a>
</g>
</g>
<!-- Node11&#45;&gt;Node14 -->
<g id="edge17_Node000011_Node000014" class="edge">
<title>Node11&#45;&gt;Node14</title>
<g id="a_edge17_Node000011_Node000014"><a xlink:title=" ">
<path fill="none" stroke="#63b8ff" d="M1001.38,-175.98C987.14,-167.69 965.25,-154.94 948.55,-145.22"/>
<polygon fill="#63b8ff" stroke="#63b8ff" points="950.29,-142.18 939.89,-140.17 946.77,-148.23 950.29,-142.18"/>
</a>
</g>
</g>
<!-- Node15 -->
<g id="Node000015" class="node">
<title>Node15</title>
<g id="a_Node000015"><a xlink:href="ematch__src_2utils_2gdb_2gdbUtils_8hh.html" target="_top" xlink:title=" ">
<polygon fill="white" stroke="#666666" points="1705.5,-79.5 1588.5,-79.5 1588.5,-60.5 1705.5,-60.5 1705.5,-79.5"/>
<text text-anchor="middle" x="1647" y="-67.5" font-family="Helvetica,sans-Serif" font-size="10.00">utils/gdb/gdbUtils.hh</text>
</a>
</g>
</g>
<!-- Node11&#45;&gt;Node15 -->
<g id="edge18_Node000011_Node000015" class="edge">
<title>Node11&#45;&gt;Node15</title>
<g id="a_edge18_Node000011_Node000015"><a xlink:title=" ">
<path fill="none" stroke="#63b8ff" d="M1085.76,-178.87C1159.92,-172.22 1280.39,-159.54 1383,-140 1464.8,-124.42 1558.74,-97.71 1609.58,-82.49"/>
<polygon fill="#63b8ff" stroke="#63b8ff" points="1610.59,-85.84 1619.15,-79.61 1608.57,-79.14 1610.59,-85.84"/>
</a>
</g>
</g>
<!-- Node20 -->
<g id="Node000020" class="node">
<title>Node20</title>
<g id="a_Node000020"><a xlink:href="ematch__src_2utils_2perlish_2perlish_8hh.html" target="_top" xlink:title=" ">
<polygon fill="white" stroke="#666666" points="1250.5,-140 1125.5,-140 1125.5,-121 1250.5,-121 1250.5,-140"/>
<text text-anchor="middle" x="1188" y="-128" font-family="Helvetica,sans-Serif" font-size="10.00">utils/perlish/perlish.hh</text>
</a>
</g>
</g>
<!-- Node11&#45;&gt;Node20 -->
<g id="edge24_Node000011_Node000020" class="edge">
<title>Node11&#45;&gt;Node20</title>
<g id="a_edge24_Node000011_Node000020"><a xlink:title=" ">
<path fill="none" stroke="#63b8ff" d="M1043.63,-175.98C1072.51,-167.09 1118.01,-153.07 1150.2,-143.15"/>
<polygon fill="#63b8ff" stroke="#63b8ff" points="1151.62,-146.37 1160.15,-140.08 1149.56,-139.68 1151.62,-146.37"/>
</a>
</g>
</g>
<!-- Node15&#45;&gt;Node2 -->
<g id="edge20_Node000015_Node000002" class="edge">
<title>Node15&#45;&gt;Node2</title>
<g id="a_edge20_Node000015_Node000002"><a xlink:title=" ">
<path fill="none" stroke="#63b8ff" d="M1589.89,-60.47C1574.09,-58.38 1556.91,-56.35 1541,-55 1124.42,-19.59 1018.74,-36.01 601,-19 546.68,-16.79 483.94,-14.05 444.14,-12.29"/>
<polygon fill="#63b8ff" stroke="#63b8ff" points="444.18,-8.79 434.04,-11.84 443.87,-15.78 444.18,-8.79"/>
</a>
</g>
</g>
<!-- Node16 -->
<g id="Node000016" class="node">
<title>Node16</title>
<g id="a_Node000016"><a xlink:title=" ">
<polygon fill="#e0e0e0" stroke="#999999" points="1709.5,-19 1656.5,-19 1656.5,0 1709.5,0 1709.5,-19"/>
<text text-anchor="middle" x="1683" y="-7" font-family="Helvetica,sans-Serif" font-size="10.00">cstdarg</text>
</a>
</g>
</g>
<!-- Node15&#45;&gt;Node16 -->
<g id="edge19_Node000015_Node000016" class="edge">
<title>Node15&#45;&gt;Node16</title>
<g id="a_edge19_Node000015_Node000016"><a xlink:title=" ">
<path fill="none" stroke="#63b8ff" d="M1652.31,-60.37C1657.58,-51.81 1665.79,-38.47 1672.39,-27.74"/>
<polygon fill="#63b8ff" stroke="#63b8ff" points="1675.41,-29.52 1677.67,-19.17 1669.44,-25.85 1675.41,-29.52"/>
</a>
</g>
</g>
<!-- Node17 -->
<g id="Node000017" class="node">
<title>Node17</title>
<g id="a_Node000017"><a xlink:title=" ">
<polygon fill="#e0e0e0" stroke="#999999" points="1776.5,-19 1727.5,-19 1727.5,0 1776.5,0 1776.5,-19"/>
<text text-anchor="middle" x="1752" y="-7" font-family="Helvetica,sans-Serif" font-size="10.00">cstdlib</text>
</a>
</g>
</g>
<!-- Node15&#45;&gt;Node17 -->
<g id="edge21_Node000015_Node000017" class="edge">
<title>Node15&#45;&gt;Node17</title>
<g id="a_edge21_Node000015_Node000017"><a xlink:title=" ">
<path fill="none" stroke="#63b8ff" d="M1662.49,-60.37C1679.63,-50.82 1707.47,-35.31 1727.56,-24.12"/>
<polygon fill="#63b8ff" stroke="#63b8ff" points="1729.41,-27.09 1736.44,-19.17 1726,-20.98 1729.41,-27.09"/>
</a>
</g>
</g>
<!-- Node18 -->
<g id="Node000018" class="node">
<title>Node18</title>
<g id="a_Node000018"><a xlink:title=" ">
<polygon fill="#e0e0e0" stroke="#999999" points="1568,-19 1522,-19 1522,0 1568,0 1568,-19"/>
<text text-anchor="middle" x="1545" y="-7" font-family="Helvetica,sans-Serif" font-size="10.00">cstdio</text>
</a>
</g>
</g>
<!-- Node15&#45;&gt;Node18 -->
<g id="edge22_Node000015_Node000018" class="edge">
<title>Node15&#45;&gt;Node18</title>
<g id="a_edge22_Node000015_Node000018"><a xlink:title=" ">
<path fill="none" stroke="#63b8ff" d="M1631.95,-60.37C1615.38,-50.86 1588.5,-35.45 1569.01,-24.27"/>
<polygon fill="#63b8ff" stroke="#63b8ff" points="1570.53,-21.11 1560.11,-19.17 1567.05,-27.18 1570.53,-21.11"/>
</a>
</g>
</g>
<!-- Node19 -->
<g id="Node000019" class="node">
<title>Node19</title>
<g id="a_Node000019"><a xlink:title=" ">
<polygon fill="#e0e0e0" stroke="#999999" points="1638,-19 1586,-19 1586,0 1638,0 1638,-19"/>
<text text-anchor="middle" x="1612" y="-7" font-family="Helvetica,sans-Serif" font-size="10.00">cassert</text>
</a>
</g>
</g>
<!-- Node15&#45;&gt;Node19 -->
<g id="edge23_Node000015_Node000019" class="edge">
<title>Node15&#45;&gt;Node19</title>
<g id="a_edge23_Node000015_Node000019"><a xlink:title=" ">
<path fill="none" stroke="#63b8ff" d="M1641.84,-60.37C1636.77,-51.9 1628.9,-38.74 1622.51,-28.07"/>
<polygon fill="#63b8ff" stroke="#63b8ff" points="1625.32,-25.95 1617.19,-19.17 1619.32,-29.55 1625.32,-25.95"/>
</a>
</g>
</g>
<!-- Node20&#45;&gt;Node2 -->
<g id="edge26_Node000020_Node000002" class="edge">
<title>Node20&#45;&gt;Node2</title>
<g id="a_edge26_Node000020_Node000002"><a xlink:title=" ">
<path fill="none" stroke="#63b8ff" d="M1125.31,-126.51C986.2,-119.62 660.26,-101.89 613,-85 591.06,-77.16 591.13,-64.83 570,-55 529.18,-36.01 478.81,-23.94 444.33,-17.24"/>
<polygon fill="#63b8ff" stroke="#63b8ff" points="444.64,-13.74 434.17,-15.33 443.35,-20.62 444.64,-13.74"/>
</a>
</g>
</g>
<!-- Node20&#45;&gt;Node7 -->
<g id="edge29_Node000020_Node000007" class="edge">
<title>Node20&#45;&gt;Node7</title>
<g id="a_edge29_Node000020_Node000007"><a xlink:title=" ">
<path fill="none" stroke="#63b8ff" d="M1242.38,-120.98C1303.14,-111.07 1394.78,-94.82 1408,-85 1426.47,-71.29 1437.31,-46.45 1442.95,-29.25"/>
<polygon fill="#63b8ff" stroke="#63b8ff" points="1446.43,-29.82 1445.93,-19.24 1439.72,-27.82 1446.43,-29.82"/>
</a>
</g>
</g>
<!-- Node20&#45;&gt;Node8 -->
<g id="edge30_Node000020_Node000008" class="edge">
<title>Node20&#45;&gt;Node8</title>
<g id="a_edge30_Node000020_Node000008"><a xlink:title=" ">
<path fill="none" stroke="#63b8ff" d="M1198.27,-120.81C1214.66,-105.93 1243.09,-75.24 1225,-55 1200.99,-28.15 953.98,-15.53 862.68,-11.76"/>
<polygon fill="#63b8ff" stroke="#63b8ff" points="862.72,-8.26 852.59,-11.36 862.44,-15.26 862.72,-8.26"/>
</a>
</g>
</g>
<!-- Node20&#45;&gt;Node9 -->
<g id="edge25_Node000020_Node000009" class="edge">
<title>Node20&#45;&gt;Node9</title>
<g id="a_edge25_Node000020_Node000009"><a xlink:title=" ">
<path fill="none" stroke="#63b8ff" d="M1125.31,-122.54C1071.53,-115.7 992.3,-103.57 925,-85 922.85,-84.41 920.64,-83.73 918.44,-83"/>
<polygon fill="#63b8ff" stroke="#63b8ff" points="919.53,-79.67 908.94,-79.58 917.16,-86.26 919.53,-79.67"/>
</a>
</g>
</g>
<!-- Node20&#45;&gt;Node12 -->
<g id="edge31_Node000020_Node000012" class="edge">
<title>Node20&#45;&gt;Node12</title>
<g id="a_edge31_Node000020_Node000012"><a xlink:title=" ">
<path fill="none" stroke="#63b8ff" d="M1247.42,-120.99C1315.4,-111.06 1422.4,-94.75 1462,-85 1464.96,-84.27 1468.02,-83.43 1471.07,-82.53"/>
<polygon fill="#63b8ff" stroke="#63b8ff" points="1472.16,-85.86 1480.65,-79.52 1470.06,-79.18 1472.16,-85.86"/>
</a>
</g>
</g>
<!-- Node20&#45;&gt;Node15 -->
<g id="edge33_Node000020_Node000015" class="edge">
<title>Node20&#45;&gt;Node15</title>
<g id="a_edge33_Node000020_Node000015"><a xlink:title=" ">
<path fill="none" stroke="#63b8ff" d="M1250.5,-121.73C1321.07,-112.94 1439.31,-98.13 1541,-85 1553.01,-83.45 1565.78,-81.78 1578.15,-80.15"/>
<polygon fill="#63b8ff" stroke="#63b8ff" points="1578.96,-83.58 1588.41,-78.8 1578.04,-76.64 1578.96,-83.58"/>
</a>
</g>
</g>
<!-- Node21 -->
<g id="Node000021" class="node">
<title>Node21</title>
<g id="a_Node000021"><a xlink:title=" ">
<polygon fill="#e0e0e0" stroke="#999999" points="1141.5,-79.5 1086.5,-79.5 1086.5,-60.5 1141.5,-60.5 1141.5,-79.5"/>
<text text-anchor="middle" x="1114" y="-67.5" font-family="Helvetica,sans-Serif" font-size="10.00">fstream</text>
</a>
</g>
</g>
<!-- Node20&#45;&gt;Node21 -->
<g id="edge27_Node000020_Node000021" class="edge">
<title>Node20&#45;&gt;Node21</title>
<g id="a_edge27_Node000020_Node000021"><a xlink:title=" ">
<path fill="none" stroke="#63b8ff" d="M1177.08,-120.87C1165.49,-111.71 1146.97,-97.06 1132.98,-86.01"/>
<polygon fill="#63b8ff" stroke="#63b8ff" points="1134.98,-83.12 1124.96,-79.67 1130.64,-88.61 1134.98,-83.12"/>
</a>
</g>
</g>
<!-- Node22 -->
<g id="Node000022" class="node">
<title>Node22</title>
<g id="a_Node000022"><a xlink:title=" ">
<polygon fill="#e0e0e0" stroke="#999999" points="1216,-79.5 1160,-79.5 1160,-60.5 1216,-60.5 1216,-79.5"/>
<text text-anchor="middle" x="1188" y="-67.5" font-family="Helvetica,sans-Serif" font-size="10.00">sstream</text>
</a>
</g>
</g>
<!-- Node20&#45;&gt;Node22 -->
<g id="edge28_Node000020_Node000022" class="edge">
<title>Node20&#45;&gt;Node22</title>
<g id="a_edge28_Node000020_Node000022"><a xlink:title=" ">
<path fill="none" stroke="#63b8ff" d="M1188,-120.87C1188,-112.75 1188,-100.31 1188,-89.89"/>
<polygon fill="#63b8ff" stroke="#63b8ff" points="1191.5,-89.67 1188,-79.67 1184.5,-89.67 1191.5,-89.67"/>
</a>
</g>
</g>
<!-- Node23 -->
<g id="Node000023" class="node">
<title>Node23</title>
<g id="a_Node000023"><a xlink:title=" ">
<polygon fill="#e0e0e0" stroke="#999999" points="1227.5,-19 1132.5,-19 1132.5,0 1227.5,0 1227.5,-19"/>
<text text-anchor="middle" x="1180" y="-7" font-family="Helvetica,sans-Serif" font-size="10.00">boost/regex.hpp</text>
</a>
</g>
</g>
<!-- Node20&#45;&gt;Node23 -->
<g id="edge32_Node000020_Node000023" class="edge">
<title>Node20&#45;&gt;Node23</title>
<g id="a_edge32_Node000020_Node000023"><a xlink:title=" ">
<path fill="none" stroke="#63b8ff" d="M1243.44,-120.98C1300.28,-111.68 1381.68,-96.58 1391,-85 1399.36,-74.61 1399.4,-65.36 1391,-55 1372.02,-31.6 1293.47,-20.03 1237.78,-14.67"/>
<polygon fill="#63b8ff" stroke="#63b8ff" points="1237.95,-11.17 1227.67,-13.74 1237.31,-18.14 1237.95,-11.17"/>
</a>
</g>
</g>
<!-- Node24 -->
<g id="Node000024" class="node">
<title>Node24</title>
<g id="a_Node000024"><a xlink:href="ematch__src_2utils_2stl_2stlTypes_8hh.html" target="_top" xlink:title=" ">
<polygon fill="white" stroke="#666666" points="1382,-79.5 1272,-79.5 1272,-60.5 1382,-60.5 1382,-79.5"/>
<text text-anchor="middle" x="1327" y="-67.5" font-family="Helvetica,sans-Serif" font-size="10.00">utils/stl/stlTypes.hh</text>
</a>
</g>
</g>
<!-- Node20&#45;&gt;Node24 -->
<g id="edge34_Node000020_Node000024" class="edge">
<title>Node20&#45;&gt;Node24</title>
<g id="a_edge34_Node000020_Node000024"><a xlink:title=" ">
<path fill="none" stroke="#63b8ff" d="M1208.21,-120.99C1231.68,-111.12 1270.61,-94.73 1297.46,-83.43"/>
<polygon fill="#63b8ff" stroke="#63b8ff" points="1298.9,-86.62 1306.76,-79.52 1296.19,-80.17 1298.9,-86.62"/>
</a>
</g>
</g>
<!-- Node25 -->
<g id="Node000025" class="node">
<title>Node25</title>
<g id="a_Node000025"><a xlink:href="ematch__src_2utils_2boost_2boostUtils_8hh.html" target="_top" xlink:title=" ">
<polygon fill="white" stroke="#666666" points="1068.5,-79.5 933.5,-79.5 933.5,-60.5 1068.5,-60.5 1068.5,-79.5"/>
<text text-anchor="middle" x="1001" y="-67.5" font-family="Helvetica,sans-Serif" font-size="10.00">utils/boost/boostUtils.hh</text>
</a>
</g>
</g>
<!-- Node20&#45;&gt;Node25 -->
<g id="edge37_Node000020_Node000025" class="edge">
<title>Node20&#45;&gt;Node25</title>
<g id="a_edge37_Node000020_Node000025"><a xlink:title=" ">
<path fill="none" stroke="#63b8ff" d="M1160.81,-120.99C1128.4,-110.86 1074.1,-93.87 1037.92,-82.55"/>
<polygon fill="#63b8ff" stroke="#63b8ff" points="1038.81,-79.16 1028.22,-79.52 1036.72,-85.84 1038.81,-79.16"/>
</a>
</g>
</g>
<!-- Node24&#45;&gt;Node7 -->
<g id="edge35_Node000024_Node000007" class="edge">
<title>Node24&#45;&gt;Node7</title>
<g id="a_edge35_Node000024_Node000007"><a xlink:title=" ">
<path fill="none" stroke="#63b8ff" d="M1344.59,-60.49C1364.76,-50.75 1398.02,-34.66 1421.36,-23.38"/>
<polygon fill="#63b8ff" stroke="#63b8ff" points="1422.9,-26.52 1430.38,-19.02 1419.86,-20.22 1422.9,-26.52"/>
</a>
</g>
</g>
<!-- Node24&#45;&gt;Node8 -->
<g id="edge36_Node000024_Node000008" class="edge">
<title>Node24&#45;&gt;Node8</title>
<g id="a_edge36_Node000024_Node000008"><a xlink:title=" ">
<path fill="none" stroke="#63b8ff" d="M1288.43,-60.49C1278.55,-58.5 1267.91,-56.52 1258,-55 1111.91,-32.66 936.09,-18.31 863.21,-12.92"/>
<polygon fill="#63b8ff" stroke="#63b8ff" points="863.05,-9.4 852.82,-12.16 862.54,-16.38 863.05,-9.4"/>
</a>
</g>
</g>
<!-- Node25&#45;&gt;Node2 -->
<g id="edge38_Node000025_Node000002" class="edge">
<title>Node25&#45;&gt;Node2</title>
<g id="a_edge38_Node000025_Node000002"><a xlink:title=" ">
<path fill="none" stroke="#63b8ff" d="M958.91,-60.49C947.91,-58.48 936.04,-56.48 925,-55 746.47,-30.99 531.68,-17.46 444.1,-12.6"/>
<polygon fill="#63b8ff" stroke="#63b8ff" points="444.24,-9.1 434.07,-12.05 443.86,-16.09 444.24,-9.1"/>
</a>
</g>
</g>
<!-- Node25&#45;&gt;Node23 -->
<g id="edge39_Node000025_Node000023" class="edge">
<title>Node25&#45;&gt;Node23</title>
<g id="a_edge39_Node000025_Node000023"><a xlink:title=" ">
<path fill="none" stroke="#63b8ff" d="M1027.03,-60.49C1057.92,-50.4 1109.58,-33.51 1144.22,-22.19"/>
<polygon fill="#63b8ff" stroke="#63b8ff" points="1145.52,-25.45 1153.94,-19.02 1143.35,-18.8 1145.52,-25.45"/>
</a>
</g>
</g>
<!-- Node26&#45;&gt;Node2 -->
<g id="edge43_Node000026_Node000002" class="edge">
<title>Node26&#45;&gt;Node2</title>
<g id="a_edge43_Node000026_Node000002"><a xlink:title=" ">
<path fill="none" stroke="#63b8ff" d="M625.3,-54.99C568.71,-43.61 490.9,-27.97 444.22,-18.58"/>
<polygon fill="#63b8ff" stroke="#63b8ff" points="444.67,-15.11 434.18,-16.57 443.29,-21.97 444.67,-15.11"/>
</a>
</g>
</g>
<!-- Node26&#45;&gt;Node8 -->
<g id="edge45_Node000026_Node000008" class="edge">
<title>Node26&#45;&gt;Node8</title>
<g id="a_edge45_Node000026_Node000008"><a xlink:title=" ">
<path fill="none" stroke="#63b8ff" d="M727.1,-54.99C749.25,-45.31 778.48,-32.56 799.95,-23.18"/>
<polygon fill="#63b8ff" stroke="#63b8ff" points="801.45,-26.35 809.21,-19.14 798.65,-19.93 801.45,-26.35"/>
</a>
</g>
</g>
<!-- Node27 -->
<g id="Node000027" class="node">
<title>Node27</title>
<g id="a_Node000027"><a xlink:title=" ">
<polygon fill="#e0e0e0" stroke="#999999" points="782.5,-19 735.5,-19 735.5,0 782.5,0 782.5,-19"/>
<text text-anchor="middle" x="759" y="-7" font-family="Helvetica,sans-Serif" font-size="10.00">cmath</text>
</a>
</g>
</g>
<!-- Node26&#45;&gt;Node27 -->
<g id="edge41_Node000026_Node000027" class="edge">
<title>Node26&#45;&gt;Node27</title>
<g id="a_edge41_Node000026_Node000027"><a xlink:title=" ">
<path fill="none" stroke="#63b8ff" d="M710.49,-54.84C719.97,-46.17 732.11,-35.08 741.88,-26.15"/>
<polygon fill="#63b8ff" stroke="#63b8ff" points="744.39,-28.6 749.41,-19.27 739.67,-23.43 744.39,-28.6"/>
</a>
</g>
</g>
<!-- Node28 -->
<g id="Node000028" class="node">
<title>Node28</title>
<g id="a_Node000028"><a xlink:title=" ">
<polygon fill="#e0e0e0" stroke="#999999" points="654,-19 610,-19 610,0 654,0 654,-19"/>
<text text-anchor="middle" x="632" y="-7" font-family="Helvetica,sans-Serif" font-size="10.00">limits</text>
</a>
</g>
</g>
<!-- Node26&#45;&gt;Node28 -->
<g id="edge42_Node000026_Node000028" class="edge">
<title>Node26&#45;&gt;Node28</title>
<g id="a_edge42_Node000026_Node000028"><a xlink:title=" ">
<path fill="none" stroke="#63b8ff" d="M679.75,-54.84C670.42,-46.17 658.47,-35.08 648.85,-26.15"/>
<polygon fill="#63b8ff" stroke="#63b8ff" points="651.15,-23.51 641.44,-19.27 646.39,-28.64 651.15,-23.51"/>
</a>
</g>
</g>
<!-- Node29 -->
<g id="Node000029" class="node">
<title>Node29</title>
<g id="a_Node000029"><a xlink:title=" ">
<polygon fill="#e0e0e0" stroke="#999999" points="717.5,-19 672.5,-19 672.5,0 717.5,0 717.5,-19"/>
<text text-anchor="middle" x="695" y="-7" font-family="Helvetica,sans-Serif" font-size="10.00">utility</text>
</a>
</g>
</g>
<!-- Node26&#45;&gt;Node29 -->
<g id="edge44_Node000026_Node000029" class="edge">
<title>Node26&#45;&gt;Node29</title>
<g id="a_edge44_Node000026_Node000029"><a xlink:title=" ">
<path fill="none" stroke="#63b8ff" d="M695,-54.84C695,-47.21 695,-37.7 695,-29.45"/>
<polygon fill="#63b8ff" stroke="#63b8ff" points="698.5,-29.27 695,-19.27 691.5,-29.27 698.5,-29.27"/>
</a>
</g>
</g>
<!-- Node30&#45;&gt;Node2 -->
<g id="edge47_Node000030_Node000002" class="edge">
<title>Node30&#45;&gt;Node2</title>
<g id="a_edge47_Node000030_Node000002"><a xlink:title=" ">
<path fill="none" stroke="#63b8ff" d="M388.86,-175.87C371.65,-169.1 351.26,-157.79 341,-140 318.01,-100.16 360.6,-50.7 386.38,-26.03"/>
<polygon fill="#63b8ff" stroke="#63b8ff" points="388.8,-28.56 393.76,-19.2 384.04,-23.43 388.8,-28.56"/>
</a>
</g>
</g>
<!-- Node30&#45;&gt;Node5 -->
<g id="edge48_Node000030_Node000005" class="edge">
<title>Node30&#45;&gt;Node5</title>
<g id="a_edge48_Node000030_Node000005"><a xlink:title=" ">
<path fill="none" stroke="#63b8ff" d="M446.28,-175.98C475.95,-167.05 522.79,-152.94 555.75,-143.02"/>
<polygon fill="#63b8ff" stroke="#63b8ff" points="556.93,-146.32 565.5,-140.08 554.92,-139.61 556.93,-146.32"/>
</a>
</g>
</g>
<!-- Node31 -->
<g id="Node000031" class="node">
<title>Node31</title>
<g id="a_Node000031"><a xlink:href="recountTypes_8hh.html" target="_top" xlink:title=" ">
<polygon fill="white" stroke="#666666" points="528,-79.5 432,-79.5 432,-60.5 528,-60.5 528,-79.5"/>
<text text-anchor="middle" x="480" y="-67.5" font-family="Helvetica,sans-Serif" font-size="10.00">recountTypes.hh</text>
</a>
</g>
</g>
<!-- Node30&#45;&gt;Node31 -->
<g id="edge49_Node000030_Node000031" class="edge">
<title>Node30&#45;&gt;Node31</title>
<g id="a_edge49_Node000030_Node000031"><a xlink:title=" ">
<path fill="none" stroke="#63b8ff" d="M447.14,-175.87C464.35,-169.1 484.74,-157.79 495,-140 504.16,-124.13 497.51,-103.26 490.38,-88.65"/>
<polygon fill="#63b8ff" stroke="#63b8ff" points="493.38,-86.83 485.57,-79.67 487.21,-90.13 493.38,-86.83"/>
</a>
</g>
</g>
<!-- Node32 -->
<g id="Node000032" class="node">
<title>Node32</title>
<g id="a_Node000032"><a xlink:href="RecountTagIdProbPair_8hh.html" target="_top" xlink:title=" ">
<polygon fill="white" stroke="#666666" points="486,-140 350,-140 350,-121 486,-121 486,-140"/>
<text text-anchor="middle" x="418" y="-128" font-family="Helvetica,sans-Serif" font-size="10.00">RecountTagIdProbPair.hh</text>
</a>
</g>
</g>
<!-- Node30&#45;&gt;Node32 -->
<g id="edge52_Node000030_Node000032" class="edge">
<title>Node30&#45;&gt;Node32</title>
<g id="a_edge52_Node000030_Node000032"><a xlink:title=" ">
<path fill="none" stroke="#63b8ff" d="M418,-175.75C418,-168.8 418,-158.85 418,-150.13"/>
<polygon fill="#63b8ff" stroke="#63b8ff" points="421.5,-150.09 418,-140.09 414.5,-150.09 421.5,-150.09"/>
</a>
</g>
</g>
<!-- Node31&#45;&gt;Node2 -->
<g id="edge50_Node000031_Node000002" class="edge">
<title>Node31&#45;&gt;Node2</title>
<g id="a_edge50_Node000031_Node000002"><a xlink:title=" ">
<path fill="none" stroke="#63b8ff" d="M468.79,-60.37C456.89,-51.21 437.86,-36.56 423.49,-25.51"/>
<polygon fill="#63b8ff" stroke="#63b8ff" points="425.32,-22.49 415.26,-19.17 421.05,-28.04 425.32,-22.49"/>
</a>
</g>
</g>
<!-- Node31&#45;&gt;Node8 -->
<g id="edge51_Node000031_Node000008" class="edge">
<title>Node31&#45;&gt;Node8</title>
<g id="a_edge51_Node000031_Node000008"><a xlink:title=" ">
<path fill="none" stroke="#63b8ff" d="M528.01,-62.32C589.43,-53.55 698.98,-37.12 792,-19 793.07,-18.79 794.15,-18.58 795.24,-18.35"/>
<polygon fill="#63b8ff" stroke="#63b8ff" points="796.12,-21.74 805.17,-16.22 794.65,-14.9 796.12,-21.74"/>
</a>
</g>
</g>
<!-- Node32&#45;&gt;Node2 -->
<g id="edge53_Node000032_Node000002" class="edge">
<title>Node32&#45;&gt;Node2</title>
<g id="a_edge53_Node000032_Node000002"><a xlink:title=" ">
<path fill="none" stroke="#63b8ff" d="M416.99,-120.94C414.75,-101.91 409.32,-55.69 406.23,-29.47"/>
<polygon fill="#63b8ff" stroke="#63b8ff" points="409.68,-28.82 405.04,-19.3 402.73,-29.64 409.68,-28.82"/>
</a>
</g>
</g>
<!-- Node32&#45;&gt;Node31 -->
<g id="edge54_Node000032_Node000031" class="edge">
<title>Node32&#45;&gt;Node31</title>
<g id="a_edge54_Node000032_Node000031"><a xlink:title=" ">
<path fill="none" stroke="#63b8ff" d="M427.15,-120.87C436.67,-111.88 451.8,-97.61 463.43,-86.64"/>
<polygon fill="#63b8ff" stroke="#63b8ff" points="465.94,-89.08 470.81,-79.67 461.14,-83.98 465.94,-89.08"/>
</a>
</g>
</g>
<!-- Node33&#45;&gt;Node2 -->
<g id="edge56_Node000033_Node000002" class="edge">
<title>Node33&#45;&gt;Node2</title>
<g id="a_edge56_Node000033_Node000002"><a xlink:title=" ">
<path fill="none" stroke="#63b8ff" d="M106.3,-230.9C112.89,-195.32 135.29,-101.38 194,-55 219.84,-34.59 310.07,-21.15 363.49,-14.79"/>
<polygon fill="#63b8ff" stroke="#63b8ff" points="364.12,-18.24 373.65,-13.61 363.31,-11.28 364.12,-18.24"/>
</a>
</g>
</g>
<!-- Node34&#45;&gt;Node2 -->
<g id="edge58_Node000034_Node000002" class="edge">
<title>Node34&#45;&gt;Node2</title>
<g id="a_edge58_Node000034_Node000002"><a xlink:title=" ">
<path fill="none" stroke="#63b8ff" d="M513.76,-354.87C421.91,-337.08 284,-292.69 284,-186.5 284,-186.5 284,-186.5 284,-129.5 284,-78.33 339.7,-41.65 375.2,-23.46"/>
<polygon fill="#63b8ff" stroke="#63b8ff" points="376.76,-26.6 384.18,-19.03 373.67,-20.32 376.76,-26.6"/>
</a>
</g>
</g>
<!-- Node34&#45;&gt;Node4 -->
<g id="edge60_Node000034_Node000004" class="edge">
<title>Node34&#45;&gt;Node4</title>
<g id="a_edge60_Node000034_Node000004"><a xlink:title=" ">
<path fill="none" stroke="#63b8ff" d="M594,-351.84C594,-344.21 594,-334.7 594,-326.45"/>
<polygon fill="#63b8ff" stroke="#63b8ff" points="597.5,-326.27 594,-316.27 590.5,-326.27 597.5,-326.27"/>
</a>
</g>
</g>
<!-- Node34&#45;&gt;Node11 -->
<g id="edge59_Node000034_Node000011" class="edge">
<title>Node34&#45;&gt;Node11</title>
<g id="a_edge59_Node000034_Node000011"><a xlink:title=" ">
<path fill="none" stroke="#63b8ff" d="M648.2,-351.98C711.02,-334.72 816.82,-302.54 902,-261 937.3,-243.79 974.79,-217.54 996.76,-201.24"/>
<polygon fill="#63b8ff" stroke="#63b8ff" points="999.02,-203.92 1004.91,-195.11 994.82,-198.32 999.02,-203.92"/>
</a>
</g>
</g>
<!-- Node34&#45;&gt;Node31 -->
<g id="edge61_Node000034_Node000031" class="edge">
<title>Node34&#45;&gt;Node31</title>
<g id="a_edge61_Node000034_Node000031"><a xlink:title=" ">
<path fill="none" stroke="#63b8ff" d="M614.95,-351.95C626.98,-342.93 641.53,-330.26 651,-316 668.88,-289.07 674,-279.33 674,-247 674,-247 674,-247 674,-184.5 674,-155.04 675.96,-141.7 655,-121 652.55,-118.58 572.24,-96.26 521.28,-82.27"/>
<polygon fill="#63b8ff" stroke="#63b8ff" points="522.08,-78.86 511.51,-79.59 520.23,-85.61 522.08,-78.86"/>
</a>
</g>
</g>
</g>
</svg>

<g id="navigator" transform="translate(0 0)" fill="#404254">
  <rect fill="#f2f5e9" fill-opacity="0.5" stroke="#606060" stroke-width=".5" x="0" y="0" width="60" height="60"/>
  <use id="zoomplus" xlink:href="#zoomPlus" x="17" y="9" onmousedown="handleZoom(evt,'in')"/>
  <use id="zoomminus" xlink:href="#zoomMin" x="42" y="9" onmousedown="handleZoom(evt,'out')"/>
  <use id="reset" xlink:href="#resetDef" x="30" y="36" onmousedown="handleReset()"/>
   <use id="arrowup" xlink:href="#arrowUp" x="0" y="0" onmousedown="handlePan(0,-1)"/>
  <use id="arrowright" xlink:href="#arrowRight" x="0" y="0" onmousedown="handlePan(1,0)"/>
  <use id="arrowdown" xlink:href="#arrowDown" x="0" y="0" onmousedown="handlePan(0,1)"/>
  <use id="arrowleft" xlink:href="#arrowLeft" x="0" y="0" onmousedown="handlePan(-1,0)"/>
</g>
<svg viewBox="0 0 15 15" width="100%" height="30px" preserveAspectRatio="xMaxYMin meet">
 <g id="arrow_out" transform="scale(0.3 0.3)">
  <a xlink:href="RecountComputerForGraphOnDisk__SortedTagSet_8hh__incl_org.svg" target="_base">
   <rect id="button" ry="5" rx="5" y="6" x="6" height="38" width="38"
        fill="#f2f5e9" fill-opacity="0.5" stroke="#606060" stroke-width="1.0"/>
   <path id="arrow"
     d="M 11.500037,31.436501 C 11.940474,20.09759 22.043105,11.32322 32.158766,21.979434 L 37.068811,17.246167 C 37.068811,17.246167 37.088388,32 37.088388,32 L 22.160133,31.978069 C 22.160133,31.978069 26.997745,27.140456 26.997745,27.140456 C 18.528582,18.264221 13.291696,25.230495 11.500037,31.436501 z"
     style="fill:#404040;"/>
  </a>
 </g>
</svg>

<style type='text/css'>
<![CDATA[
[data-mouse-over-selected='false'] { opacity: 0.7; }
[data-mouse-over-selected='true']  { opacity: 1.0; }
]]>
</style>
<script type="application/ecmascript"><![CDATA[
document.addEventListener('DOMContentLoaded', (event) => {
  highlightEdges();
  highlightAdjacentNodes();
});
]]></script>
</svg>
