<?xml version="1.0" encoding="UTF-8" standalone="no"?>
<!DOCTYPE svg PUBLIC "-//W3C//DTD SVG 1.1//EN"
 "http://www.w3.org/Graphics/SVG/1.1/DTD/svg11.dtd">
<!-- Generated by graphviz version 2.43.0 (0)
 -->
<!-- Title: ematch_src/RecountNeighborList.cc Pages: 1 -->
<svg width="653pt" height="258pt"
 viewBox="0.00 0.00 653.00 258.00" xmlns="http://www.w3.org/2000/svg" xmlns:xlink="http://www.w3.org/1999/xlink">
<g id="graph0" class="graph" transform="scale(1 1) rotate(0) translate(4 254)">
<title>ematch_src/RecountNeighborList.cc</title>
<!-- Node1 -->
<g id="Node000001" class="node">
<title>Node1</title>
<g id="a_Node000001"><a xlink:title=" ">
<polygon fill="#999999" stroke="#666666" points="402,-250 242,-250 242,-220 402,-220 402,-250"/>
<text text-anchor="start" x="250" y="-238" font-family="Helvetica,sans-Serif" font-size="10.00">ematch_src/RecountNeighbor</text>
<text text-anchor="middle" x="322" y="-227" font-family="Helvetica,sans-Serif" font-size="10.00">List.cc</text>
</a>
</g>
</g>
<!-- Node2 -->
<g id="Node000002" class="node">
<title>Node2</title>
<g id="a_Node000002"><a xlink:href="ematch__src_2utils_2gdb_2gdbUtils_8hh.html" target="_top" xlink:title=" ">
<polygon fill="white" stroke="#666666" points="509.5,-184 392.5,-184 392.5,-165 509.5,-165 509.5,-184"/>
<text text-anchor="middle" x="451" y="-172" font-family="Helvetica,sans-Serif" font-size="10.00">utils/gdb/gdbUtils.hh</text>
</a>
</g>
</g>
<!-- Node1&#45;&gt;Node2 -->
<g id="edge1_Node000001_Node000002" class="edge">
<title>Node1&#45;&gt;Node2</title>
<g id="a_edge1_Node000001_Node000002"><a xlink:title=" ">
<path fill="none" stroke="#63b8ff" d="M352.9,-219.99C374.13,-210.36 402.11,-197.67 422.75,-188.31"/>
<polygon fill="#63b8ff" stroke="#63b8ff" points="424.29,-191.46 431.95,-184.14 421.4,-185.08 424.29,-191.46"/>
</a>
</g>
</g>
<!-- Node8 -->
<g id="Node000008" class="node">
<title>Node8</title>
<g id="a_Node000008"><a xlink:href="RecountNeighborList_8hh.html" target="_top" xlink:title=" ">
<polygon fill="white" stroke="#666666" points="294.5,-184 161.5,-184 161.5,-165 294.5,-165 294.5,-184"/>
<text text-anchor="middle" x="228" y="-172" font-family="Helvetica,sans-Serif" font-size="10.00">RecountNeighborList.hh</text>
</a>
</g>
</g>
<!-- Node1&#45;&gt;Node8 -->
<g id="edge7_Node000001_Node000008" class="edge">
<title>Node1&#45;&gt;Node8</title>
<g id="a_edge7_Node000001_Node000008"><a xlink:title=" ">
<path fill="none" stroke="#63b8ff" d="M299.25,-219.84C284.4,-210.6 265.1,-198.59 250.34,-189.4"/>
<polygon fill="#63b8ff" stroke="#63b8ff" points="252.15,-186.41 241.81,-184.09 248.45,-192.35 252.15,-186.41"/>
</a>
</g>
</g>
<!-- Node3 -->
<g id="Node000003" class="node">
<title>Node3</title>
<g id="a_Node000003"><a xlink:title=" ">
<polygon fill="#e0e0e0" stroke="#999999" points="513.5,-129 460.5,-129 460.5,-110 513.5,-110 513.5,-129"/>
<text text-anchor="middle" x="487" y="-117" font-family="Helvetica,sans-Serif" font-size="10.00">cstdarg</text>
</a>
</g>
</g>
<!-- Node2&#45;&gt;Node3 -->
<g id="edge2_Node000002_Node000003" class="edge">
<title>Node2&#45;&gt;Node3</title>
<g id="a_edge2_Node000002_Node000003"><a xlink:title=" ">
<path fill="none" stroke="#63b8ff" d="M456.94,-164.75C461.98,-157.34 469.34,-146.5 475.51,-137.41"/>
<polygon fill="#63b8ff" stroke="#63b8ff" points="478.44,-139.33 481.17,-129.09 472.65,-135.39 478.44,-139.33"/>
</a>
</g>
</g>
<!-- Node4 -->
<g id="Node000004" class="node">
<title>Node4</title>
<g id="a_Node000004"><a xlink:title=" ">
<polygon fill="#e0e0e0" stroke="#999999" points="335,-19 275,-19 275,0 335,0 335,-19"/>
<text text-anchor="middle" x="305" y="-7" font-family="Helvetica,sans-Serif" font-size="10.00">iostream</text>
</a>
</g>
</g>
<!-- Node2&#45;&gt;Node4 -->
<g id="edge3_Node000002_Node000004" class="edge">
<title>Node2&#45;&gt;Node4</title>
<g id="a_edge3_Node000002_Node000004"><a xlink:title=" ">
<path fill="none" stroke="#63b8ff" d="M433.11,-164.93C417.99,-157.07 396.41,-144.35 381,-129 364.81,-112.88 331.73,-57.1 315.07,-28.19"/>
<polygon fill="#63b8ff" stroke="#63b8ff" points="317.92,-26.13 309.91,-19.19 311.85,-29.61 317.92,-26.13"/>
</a>
</g>
</g>
<!-- Node5 -->
<g id="Node000005" class="node">
<title>Node5</title>
<g id="a_Node000005"><a xlink:title=" ">
<polygon fill="#e0e0e0" stroke="#999999" points="580.5,-129 531.5,-129 531.5,-110 580.5,-110 580.5,-129"/>
<text text-anchor="middle" x="556" y="-117" font-family="Helvetica,sans-Serif" font-size="10.00">cstdlib</text>
</a>
</g>
</g>
<!-- Node2&#45;&gt;Node5 -->
<g id="edge4_Node000002_Node000005" class="edge">
<title>Node2&#45;&gt;Node5</title>
<g id="a_edge4_Node000002_Node000005"><a xlink:title=" ">
<path fill="none" stroke="#63b8ff" d="M467.87,-164.98C484.61,-156.54 510.5,-143.47 529.89,-133.68"/>
<polygon fill="#63b8ff" stroke="#63b8ff" points="531.47,-136.8 538.82,-129.17 528.32,-130.55 531.47,-136.8"/>
</a>
</g>
</g>
<!-- Node6 -->
<g id="Node000006" class="node">
<title>Node6</title>
<g id="a_Node000006"><a xlink:title=" ">
<polygon fill="#e0e0e0" stroke="#999999" points="645,-129 599,-129 599,-110 645,-110 645,-129"/>
<text text-anchor="middle" x="622" y="-117" font-family="Helvetica,sans-Serif" font-size="10.00">cstdio</text>
</a>
</g>
</g>
<!-- Node2&#45;&gt;Node6 -->
<g id="edge5_Node000002_Node000006" class="edge">
<title>Node2&#45;&gt;Node6</title>
<g id="a_edge5_Node000002_Node000006"><a xlink:title=" ">
<path fill="none" stroke="#63b8ff" d="M478.47,-164.98C508.63,-155.64 557.02,-140.64 589.16,-130.68"/>
<polygon fill="#63b8ff" stroke="#63b8ff" points="590.46,-133.94 598.98,-127.63 588.39,-127.25 590.46,-133.94"/>
</a>
</g>
</g>
<!-- Node7 -->
<g id="Node000007" class="node">
<title>Node7</title>
<g id="a_Node000007"><a xlink:title=" ">
<polygon fill="#e0e0e0" stroke="#999999" points="442,-129 390,-129 390,-110 442,-110 442,-129"/>
<text text-anchor="middle" x="416" y="-117" font-family="Helvetica,sans-Serif" font-size="10.00">cassert</text>
</a>
</g>
</g>
<!-- Node2&#45;&gt;Node7 -->
<g id="edge6_Node000002_Node000007" class="edge">
<title>Node2&#45;&gt;Node7</title>
<g id="a_edge6_Node000002_Node000007"><a xlink:title=" ">
<path fill="none" stroke="#63b8ff" d="M445.22,-164.75C440.38,-157.42 433.32,-146.73 427.36,-137.7"/>
<polygon fill="#63b8ff" stroke="#63b8ff" points="430.1,-135.5 421.67,-129.09 424.26,-139.36 430.1,-135.5"/>
</a>
</g>
</g>
<!-- Node8&#45;&gt;Node4 -->
<g id="edge8_Node000008_Node000004" class="edge">
<title>Node8&#45;&gt;Node4</title>
<g id="a_edge8_Node000008_Node000004"><a xlink:title=" ">
<path fill="none" stroke="#63b8ff" d="M257.14,-164.87C274.35,-158.1 294.74,-146.79 305,-129 323.01,-97.79 316.37,-53.81 310.39,-29.14"/>
<polygon fill="#63b8ff" stroke="#63b8ff" points="313.72,-28.06 307.77,-19.29 306.95,-29.85 313.72,-28.06"/>
</a>
</g>
</g>
<!-- Node9 -->
<g id="Node000009" class="node">
<title>Node9</title>
<g id="a_Node000009"><a xlink:title=" ">
<polygon fill="#e0e0e0" stroke="#999999" points="104,-129 0,-129 0,-110 104,-110 104,-129"/>
<text text-anchor="middle" x="52" y="-117" font-family="Helvetica,sans-Serif" font-size="10.00">boost/foreach.hpp</text>
</a>
</g>
</g>
<!-- Node8&#45;&gt;Node9 -->
<g id="edge9_Node000008_Node000009" class="edge">
<title>Node8&#45;&gt;Node9</title>
<g id="a_edge9_Node000008_Node000009"><a xlink:title=" ">
<path fill="none" stroke="#63b8ff" d="M199.72,-164.98C170.05,-156.05 123.21,-141.94 90.25,-132.02"/>
<polygon fill="#63b8ff" stroke="#63b8ff" points="91.08,-128.61 80.5,-129.08 89.07,-135.32 91.08,-128.61"/>
</a>
</g>
</g>
<!-- Node10 -->
<g id="Node000010" class="node">
<title>Node10</title>
<g id="a_Node000010"><a xlink:href="recountTypes_8hh.html" target="_top" xlink:title=" ">
<polygon fill="white" stroke="#666666" points="258,-74 162,-74 162,-55 258,-55 258,-74"/>
<text text-anchor="middle" x="210" y="-62" font-family="Helvetica,sans-Serif" font-size="10.00">recountTypes.hh</text>
</a>
</g>
</g>
<!-- Node8&#45;&gt;Node10 -->
<g id="edge10_Node000008_Node000010" class="edge">
<title>Node8&#45;&gt;Node10</title>
<g id="a_edge10_Node000008_Node000010"><a xlink:title=" ">
<path fill="none" stroke="#63b8ff" d="M198.86,-164.87C181.65,-158.1 161.26,-146.79 151,-129 139.67,-109.36 162.12,-90.84 182.51,-78.92"/>
<polygon fill="#63b8ff" stroke="#63b8ff" points="184.23,-81.97 191.31,-74.09 180.86,-75.84 184.23,-81.97"/>
</a>
</g>
</g>
<!-- Node12 -->
<g id="Node000012" class="node">
<title>Node12</title>
<g id="a_Node000012"><a xlink:href="RecountTagIdProbPair_8hh.html" target="_top" xlink:title=" ">
<polygon fill="white" stroke="#666666" points="296,-129 160,-129 160,-110 296,-110 296,-129"/>
<text text-anchor="middle" x="228" y="-117" font-family="Helvetica,sans-Serif" font-size="10.00">RecountTagIdProbPair.hh</text>
</a>
</g>
</g>
<!-- Node8&#45;&gt;Node12 -->
<g id="edge13_Node000008_Node000012" class="edge">
<title>Node8&#45;&gt;Node12</title>
<g id="a_edge13_Node000008_Node000012"><a xlink:title=" ">
<path fill="none" stroke="#63b8ff" d="M228,-164.75C228,-157.8 228,-147.85 228,-139.13"/>
<polygon fill="#63b8ff" stroke="#63b8ff" points="231.5,-139.09 228,-129.09 224.5,-139.09 231.5,-139.09"/>
</a>
</g>
</g>
<!-- Node10&#45;&gt;Node4 -->
<g id="edge11_Node000010_Node000004" class="edge">
<title>Node10&#45;&gt;Node4</title>
<g id="a_edge11_Node000010_Node000004"><a xlink:title=" ">
<path fill="none" stroke="#63b8ff" d="M225.26,-54.98C240.13,-46.69 262.98,-33.94 280.42,-24.22"/>
<polygon fill="#63b8ff" stroke="#63b8ff" points="282.43,-27.1 289.46,-19.17 279.02,-20.99 282.43,-27.1"/>
</a>
</g>
</g>
<!-- Node11 -->
<g id="Node000011" class="node">
<title>Node11</title>
<g id="a_Node000011"><a xlink:title=" ">
<polygon fill="#e0e0e0" stroke="#999999" points="233.5,-19 186.5,-19 186.5,0 233.5,0 233.5,-19"/>
<text text-anchor="middle" x="210" y="-7" font-family="Helvetica,sans-Serif" font-size="10.00">vector</text>
</a>
</g>
</g>
<!-- Node10&#45;&gt;Node11 -->
<g id="edge12_Node000010_Node000011" class="edge">
<title>Node10&#45;&gt;Node11</title>
<g id="a_edge12_Node000010_Node000011"><a xlink:title=" ">
<path fill="none" stroke="#63b8ff" d="M210,-54.75C210,-47.8 210,-37.85 210,-29.13"/>
<polygon fill="#63b8ff" stroke="#63b8ff" points="213.5,-29.09 210,-19.09 206.5,-29.09 213.5,-29.09"/>
</a>
</g>
</g>
<!-- Node12&#45;&gt;Node4 -->
<g id="edge14_Node000012_Node000004" class="edge">
<title>Node12&#45;&gt;Node4</title>
<g id="a_edge14_Node000012_Node000004"><a xlink:title=" ">
<path fill="none" stroke="#63b8ff" d="M236.57,-109.7C244.83,-101 257.44,-87.12 267,-74 277.85,-59.1 288.47,-40.96 295.71,-27.89"/>
<polygon fill="#63b8ff" stroke="#63b8ff" points="298.83,-29.48 300.54,-19.02 292.69,-26.13 298.83,-29.48"/>
</a>
</g>
</g>
<!-- Node12&#45;&gt;Node10 -->
<g id="edge15_Node000012_Node000010" class="edge">
<title>Node12&#45;&gt;Node10</title>
<g id="a_edge15_Node000012_Node000010"><a xlink:title=" ">
<path fill="none" stroke="#63b8ff" d="M225.03,-109.75C222.64,-102.72 219.21,-92.62 216.23,-83.84"/>
<polygon fill="#63b8ff" stroke="#63b8ff" points="219.45,-82.43 212.92,-74.09 212.82,-84.68 219.45,-82.43"/>
</a>
</g>
</g>
</g>
</svg>
