<?xml version="1.0" encoding="UTF-8" standalone="no"?>
<!DOCTYPE svg PUBLIC "-//W3C//DTD SVG 1.1//EN"
 "http://www.w3.org/Graphics/SVG/1.1/DTD/svg11.dtd">
<!-- Generated by graphviz version 2.43.0 (0)
 -->
<!-- Title: ematch_src/RecountNeighborProbGraphWriter_SortedTagSet.hh Pages: 1 -->
<!--zoomable 390 -->

<svg id="main" version="1.1" xmlns="http://www.w3.org/2000/svg" xmlns:xlink="http://www.w3.org/1999/xlink" xml:space="preserve" onload="init(evt)">
<style type="text/css"><![CDATA[
.node, .edge {opacity: 0.7;}
.node.selected, .edge.selected {opacity: 1;}
.edge:hover path { stroke: red; }
.edge:hover polygon { stroke: red; fill: red; }
]]></style>

<defs>
  <circle id="rim" cx="0" cy="0" r="7"/>
  <circle id="rim2" cx="0" cy="0" r="3.5"/>
  <g id="zoomPlus">
    <use xlink:href="#rim" fill="#404040"><set attributeName="fill" to="#808080" begin="zoomplus.mouseover" end="zoomplus.mouseout"/></use>
    <path d="M-4,0h8M0,-4v8" fill="none" stroke="white" stroke-width="1.5" pointer-events="none"/>
  </g>
  <g id="zoomMin">
    <use xlink:href="#rim" fill="#404040"><set attributeName="fill" to="#808080" begin="zoomminus.mouseover" end="zoomminus.mouseout"/></use>
    <path d="M-4,0h8" fill="none" stroke="white" stroke-width="1.5" pointer-events="none"/>
  </g>
  <g id="arrowUp" transform="translate(30 24)">
    <use xlink:href="#rim"/>
    <path pointer-events="none" fill="none" stroke="white" stroke-width="1.5" d="M0,-3.0v7 M-2.5,-0.5L0,-3.0L2.5,-0.5"/>
  </g>
  <g id="arrowRight" transform="rotate(90) translate(36 -43)">
    <use xlink:href="#rim"/>
    <path pointer-events="none" fill="none" stroke="white" stroke-width="1.5" d="M0,-3.0v7 M-2.5,-0.5L0,-3.0L2.5,-0.5"/>
  </g>
  <g id="arrowDown" transform="rotate(180) translate(-30 -48)">
    <use xlink:href="#rim"/>
    <path pointer-events="none" fill="none" stroke="white" stroke-width="1.5" d="M0,-3.0v7 M-2.5,-0.5L0,-3.0L2.5,-0.5"/>
  </g>
  <g id="arrowLeft" transform="rotate(270) translate(-36 17)">
    <use xlink:href="#rim"/>
    <path pointer-events="none" fill="none" stroke="white" stroke-width="1.5" d="M0,-3.0v7 M-2.5,-0.5L0,-3.0L2.5,-0.5"/>
  </g>
  <g id="resetDef">
    <use xlink:href="#rim2" fill="#404040"><set attributeName="fill" to="#808080" begin="reset.mouseover" end="reset.mouseout"/></use>
  </g>
</defs>
<script type="application/ecmascript">
var viewWidth = 1568;
var viewHeight = 390;
var sectionId = 'dynsection-0';
</script>
<script type="application/ecmascript" xlink:href="svg.min.js"/>
<svg id="graph" class="graph">
<g id="viewport">
<title>ematch_src/RecountNeighborProbGraphWriter_SortedTagSet.hh</title>
<!-- Node1 -->
<g id="Node000001" class="node">
<title>Node1</title>
<g id="a_Node000001"><a xlink:title=" ">
<polygon fill="#999999" stroke="#666666" points="360.5,-382 178.5,-382 178.5,-352 360.5,-352 360.5,-382"/>
<text text-anchor="start" x="186.5" y="-370" font-family="Helvetica,sans-Serif" font-size="10.00">ematch_src/RecountNeighbor</text>
<text text-anchor="middle" x="269.5" y="-359" font-family="Helvetica,sans-Serif" font-size="10.00">ProbGraphWriter_SortedTagSet.hh</text>
</a>
</g>
</g>
<!-- Node2 -->
<g id="Node000002" class="node">
<title>Node2</title>
<g id="a_Node000002"><a xlink:title=" ">
<polygon fill="#e0e0e0" stroke="#999999" points="513.5,-19 453.5,-19 453.5,0 513.5,0 513.5,-19"/>
<text text-anchor="middle" x="483.5" y="-7" font-family="Helvetica,sans-Serif" font-size="10.00">iostream</text>
</a>
</g>
</g>
<!-- Node1&#45;&gt;Node2 -->
<g id="edge1_Node000001_Node000002" class="edge">
<title>Node1&#45;&gt;Node2</title>
<g id="a_edge1_Node000001_Node000002"><a xlink:title=" ">
<path fill="none" stroke="#63b8ff" d="M245.8,-351.98C216.23,-332.49 169.5,-294.23 169.5,-247 169.5,-247 169.5,-247 169.5,-184.5 169.5,-114.66 200.16,-93.39 258.5,-55 314.78,-17.97 394.96,-10.45 442.85,-9.61"/>
<polygon fill="#63b8ff" stroke="#63b8ff" points="443.17,-13.1 453.14,-9.52 443.11,-6.1 443.17,-13.1"/>
</a>
</g>
</g>
<!-- Node3 -->
<g id="Node000003" class="node">
<title>Node3</title>
<g id="a_Node000003"><a xlink:href="SortedTagSet_8hh.html" target="_top" xlink:title=" ">
<polygon fill="white" stroke="#666666" points="317,-316 222,-316 222,-297 317,-297 317,-316"/>
<text text-anchor="middle" x="269.5" y="-304" font-family="Helvetica,sans-Serif" font-size="10.00">SortedTagSet.hh</text>
</a>
</g>
</g>
<!-- Node1&#45;&gt;Node3 -->
<g id="edge2_Node000001_Node000003" class="edge">
<title>Node1&#45;&gt;Node3</title>
<g id="a_edge2_Node000001_Node000003"><a xlink:title=" ">
<path fill="none" stroke="#63b8ff" d="M269.5,-351.84C269.5,-344.21 269.5,-334.7 269.5,-326.45"/>
<polygon fill="#63b8ff" stroke="#63b8ff" points="273,-326.27 269.5,-316.27 266,-326.27 273,-326.27"/>
</a>
</g>
</g>
<!-- Node29 -->
<g id="Node000029" class="node">
<title>Node29</title>
<g id="a_Node000029"><a xlink:href="RecountNeighborList_8hh.html" target="_top" xlink:title=" ">
<polygon fill="white" stroke="#666666" points="472,-195 339,-195 339,-176 472,-176 472,-195"/>
<text text-anchor="middle" x="405.5" y="-183" font-family="Helvetica,sans-Serif" font-size="10.00">RecountNeighborList.hh</text>
</a>
</g>
</g>
<!-- Node1&#45;&gt;Node29 -->
<g id="edge44_Node000001_Node000029" class="edge">
<title>Node1&#45;&gt;Node29</title>
<g id="a_edge44_Node000001_Node000029"><a xlink:title=" ">
<path fill="none" stroke="#63b8ff" d="M287.89,-351.88C299.46,-342.46 314.28,-329.38 325.5,-316 356.07,-279.53 383.22,-230.28 396.63,-204.28"/>
<polygon fill="#63b8ff" stroke="#63b8ff" points="399.82,-205.75 401.23,-195.24 393.58,-202.58 399.82,-205.75"/>
</a>
</g>
</g>
<!-- Node3&#45;&gt;Node2 -->
<g id="edge3_Node000003_Node000002" class="edge">
<title>Node3&#45;&gt;Node2</title>
<g id="a_edge3_Node000003_Node000002"><a xlink:title=" ">
<path fill="none" stroke="#63b8ff" d="M266.56,-296.96C260.15,-277.57 245.5,-228.65 245.5,-186.5 245.5,-186.5 245.5,-186.5 245.5,-129.5 245.5,-42.24 375.08,-18.96 443.01,-12.76"/>
<polygon fill="#63b8ff" stroke="#63b8ff" points="443.68,-16.21 453.36,-11.9 443.1,-9.24 443.68,-16.21"/>
</a>
</g>
</g>
<!-- Node4 -->
<g id="Node000004" class="node">
<title>Node4</title>
<g id="a_Node000004"><a xlink:title=" ">
<polygon fill="#e0e0e0" stroke="#999999" points="377.5,-140 273.5,-140 273.5,-121 377.5,-121 377.5,-140"/>
<text text-anchor="middle" x="325.5" y="-128" font-family="Helvetica,sans-Serif" font-size="10.00">boost/foreach.hpp</text>
</a>
</g>
</g>
<!-- Node3&#45;&gt;Node4 -->
<g id="edge4_Node000003_Node000004" class="edge">
<title>Node3&#45;&gt;Node4</title>
<g id="a_edge4_Node000003_Node000004"><a xlink:title=" ">
<path fill="none" stroke="#63b8ff" d="M272.35,-296.63C281.08,-269.52 307.54,-187.32 319.5,-150.13"/>
<polygon fill="#63b8ff" stroke="#63b8ff" points="322.99,-150.73 322.72,-140.14 316.32,-148.59 322.99,-150.73"/>
</a>
</g>
</g>
<!-- Node5 -->
<g id="Node000005" class="node">
<title>Node5</title>
<g id="a_Node000005"><a xlink:href="ResidueIndexMap_8hh.html" target="_top" xlink:title=" ">
<polygon fill="white" stroke="#666666" points="842.5,-261 686.5,-261 686.5,-231 842.5,-231 842.5,-261"/>
<text text-anchor="start" x="694.5" y="-249" font-family="Helvetica,sans-Serif" font-size="10.00">utils/sequence/ResidueIndex</text>
<text text-anchor="middle" x="764.5" y="-238" font-family="Helvetica,sans-Serif" font-size="10.00">Map/ResidueIndexMap.hh</text>
</a>
</g>
</g>
<!-- Node3&#45;&gt;Node5 -->
<g id="edge5_Node000003_Node000005" class="edge">
<title>Node3&#45;&gt;Node5</title>
<g id="a_edge5_Node000003_Node000005"><a xlink:title=" ">
<path fill="none" stroke="#63b8ff" d="M317.41,-299.84C400.27,-290.05 571.48,-269.81 676.33,-257.42"/>
<polygon fill="#63b8ff" stroke="#63b8ff" points="676.75,-260.9 686.27,-256.25 675.93,-253.94 676.75,-260.9"/>
</a>
</g>
</g>
<!-- Node25 -->
<g id="Node000025" class="node">
<title>Node25</title>
<g id="a_Node000025"><a xlink:href="Sigma4FLArray_8hh.html" target="_top" xlink:title=" ">
<polygon fill="white" stroke="#666666" points="160.5,-85 14.5,-85 14.5,-55 160.5,-55 160.5,-85"/>
<text text-anchor="start" x="22.5" y="-73" font-family="Helvetica,sans-Serif" font-size="10.00">utils/sequence/packedDNA</text>
<text text-anchor="middle" x="87.5" y="-62" font-family="Helvetica,sans-Serif" font-size="10.00">/Sigma4FLArray.hh</text>
</a>
</g>
</g>
<!-- Node3&#45;&gt;Node25 -->
<g id="edge38_Node000003_Node000025" class="edge">
<title>Node3&#45;&gt;Node25</title>
<g id="a_edge38_Node000003_Node000025"><a xlink:title=" ">
<path fill="none" stroke="#63b8ff" d="M261.78,-296.76C253.99,-287.88 241.69,-273.66 231.5,-261 183.66,-201.55 130.03,-129.18 103.77,-93.34"/>
<polygon fill="#63b8ff" stroke="#63b8ff" points="106.43,-91.05 97.71,-85.04 100.78,-95.18 106.43,-91.05"/>
</a>
</g>
</g>
<!-- Node6 -->
<g id="Node000006" class="node">
<title>Node6</title>
<g id="a_Node000006"><a xlink:title=" ">
<polygon fill="#e0e0e0" stroke="#999999" points="1559.5,-19 1515.5,-19 1515.5,0 1559.5,0 1559.5,-19"/>
<text text-anchor="middle" x="1537.5" y="-7" font-family="Helvetica,sans-Serif" font-size="10.00">string</text>
</a>
</g>
</g>
<!-- Node5&#45;&gt;Node6 -->
<g id="edge6_Node000005_Node000006" class="edge">
<title>Node5&#45;&gt;Node6</title>
<g id="a_edge6_Node000005_Node000006"><a xlink:title=" ">
<path fill="none" stroke="#63b8ff" d="M842.8,-240.96C1021.93,-229.92 1452.9,-192.5 1540.5,-85 1553.24,-69.36 1549.36,-45.15 1544.37,-28.6"/>
<polygon fill="#63b8ff" stroke="#63b8ff" points="1547.63,-27.33 1541.09,-19 1541.01,-29.59 1547.63,-27.33"/>
</a>
</g>
</g>
<!-- Node7 -->
<g id="Node000007" class="node">
<title>Node7</title>
<g id="a_Node000007"><a xlink:title=" ">
<polygon fill="#e0e0e0" stroke="#999999" points="678,-19 631,-19 631,0 678,0 678,-19"/>
<text text-anchor="middle" x="654.5" y="-7" font-family="Helvetica,sans-Serif" font-size="10.00">vector</text>
</a>
</g>
</g>
<!-- Node5&#45;&gt;Node7 -->
<g id="edge7_Node000005_Node000007" class="edge">
<title>Node5&#45;&gt;Node7</title>
<g id="a_edge7_Node000005_Node000007"><a xlink:title=" ">
<path fill="none" stroke="#63b8ff" d="M771.73,-230.84C778.05,-216.39 784.98,-193.64 776.5,-176 765.4,-152.92 751.34,-156.2 731.5,-140 701.92,-115.85 684.18,-118.3 665.5,-85 655.92,-67.93 653.79,-45.36 653.66,-29.55"/>
<polygon fill="#63b8ff" stroke="#63b8ff" points="657.16,-29.47 653.85,-19.41 650.16,-29.34 657.16,-29.47"/>
</a>
</g>
</g>
<!-- Node8 -->
<g id="Node000008" class="node">
<title>Node8</title>
<g id="a_Node000008"><a xlink:title=" ">
<polygon fill="#e0e0e0" stroke="#999999" points="755,-79.5 702,-79.5 702,-60.5 755,-60.5 755,-79.5"/>
<text text-anchor="middle" x="728.5" y="-67.5" font-family="Helvetica,sans-Serif" font-size="10.00">ctype.h</text>
</a>
</g>
</g>
<!-- Node5&#45;&gt;Node8 -->
<g id="edge8_Node000005_Node000008" class="edge">
<title>Node5&#45;&gt;Node8</title>
<g id="a_edge8_Node000005_Node000008"><a xlink:title=" ">
<path fill="none" stroke="#63b8ff" d="M731.99,-230.84C717.42,-222.65 701.69,-210.79 693.5,-195 674.96,-159.26 699.79,-112.47 716.18,-87.85"/>
<polygon fill="#63b8ff" stroke="#63b8ff" points="719.1,-89.77 721.93,-79.56 713.35,-85.78 719.1,-89.77"/>
</a>
</g>
</g>
<!-- Node9 -->
<g id="Node000009" class="node">
<title>Node9</title>
<g id="a_Node000009"><a xlink:title=" ">
<polygon fill="#e0e0e0" stroke="#999999" points="767,-195 702,-195 702,-176 767,-176 767,-195"/>
<text text-anchor="middle" x="734.5" y="-183" font-family="Helvetica,sans-Serif" font-size="10.00">stdexcept</text>
</a>
</g>
</g>
<!-- Node5&#45;&gt;Node9 -->
<g id="edge9_Node000005_Node000009" class="edge">
<title>Node5&#45;&gt;Node9</title>
<g id="a_edge9_Node000005_Node000009"><a xlink:title=" ">
<path fill="none" stroke="#63b8ff" d="M757.24,-230.84C753.15,-222.87 748.01,-212.84 743.64,-204.33"/>
<polygon fill="#63b8ff" stroke="#63b8ff" points="746.67,-202.57 739,-195.27 740.44,-205.76 746.67,-202.57"/>
</a>
</g>
</g>
<!-- Node10 -->
<g id="Node000010" class="node">
<title>Node10</title>
<g id="a_Node000010"><a xlink:href="ematch__src_2utils_2FLArray_2FLEArray_8hh.html" target="_top" xlink:title=" ">
<polygon fill="white" stroke="#666666" points="982,-195 843,-195 843,-176 982,-176 982,-195"/>
<text text-anchor="middle" x="912.5" y="-183" font-family="Helvetica,sans-Serif" font-size="10.00">utils/FLArray/FLEArray.hh</text>
</a>
</g>
</g>
<!-- Node5&#45;&gt;Node10 -->
<g id="edge10_Node000005_Node000010" class="edge">
<title>Node5&#45;&gt;Node10</title>
<g id="a_edge10_Node000005_Node000010"><a xlink:title=" ">
<path fill="none" stroke="#63b8ff" d="M799.95,-230.99C824.64,-221.23 857.28,-208.33 881.05,-198.93"/>
<polygon fill="#63b8ff" stroke="#63b8ff" points="882.63,-202.07 890.64,-195.14 880.06,-195.56 882.63,-202.07"/>
</a>
</g>
</g>
<!-- Node10&#45;&gt;Node2 -->
<g id="edge13_Node000010_Node000002" class="edge">
<title>Node10&#45;&gt;Node2</title>
<g id="a_edge13_Node000010_Node000002"><a xlink:title=" ">
<path fill="none" stroke="#63b8ff" d="M862.62,-175.95C825.64,-168.73 774.42,-156.85 731.5,-140 659.09,-111.57 647.76,-90.41 578.5,-55 556.54,-43.78 531.24,-31.98 512.27,-23.35"/>
<polygon fill="#63b8ff" stroke="#63b8ff" points="513.53,-20.08 502.98,-19.15 510.65,-26.46 513.53,-20.08"/>
</a>
</g>
</g>
<!-- Node10&#45;&gt;Node7 -->
<g id="edge12_Node000010_Node000007" class="edge">
<title>Node10&#45;&gt;Node7</title>
<g id="a_edge12_Node000010_Node000007"><a xlink:title=" ">
<path fill="none" stroke="#63b8ff" d="M909.91,-175.94C905.24,-162.05 894.03,-134.77 874.5,-121 807.46,-73.75 759.17,-134.14 693.5,-85 675.19,-71.3 664.68,-46.46 659.29,-29.25"/>
<polygon fill="#63b8ff" stroke="#63b8ff" points="662.54,-27.91 656.45,-19.24 655.81,-29.81 662.54,-27.91"/>
</a>
</g>
</g>
<!-- Node11 -->
<g id="Node000011" class="node">
<title>Node11</title>
<g id="a_Node000011"><a xlink:title=" ">
<polygon fill="#e0e0e0" stroke="#999999" points="829.5,-79.5 773.5,-79.5 773.5,-60.5 829.5,-60.5 829.5,-79.5"/>
<text text-anchor="middle" x="801.5" y="-67.5" font-family="Helvetica,sans-Serif" font-size="10.00">assert.h</text>
</a>
</g>
</g>
<!-- Node10&#45;&gt;Node11 -->
<g id="edge11_Node000010_Node000011" class="edge">
<title>Node10&#45;&gt;Node11</title>
<g id="a_edge11_Node000010_Node000011"><a xlink:title=" ">
<path fill="none" stroke="#63b8ff" d="M914.35,-175.8C916.64,-162.67 918.94,-137.56 907.5,-121 898.85,-108.47 864.1,-93.51 836.72,-83.24"/>
<polygon fill="#63b8ff" stroke="#63b8ff" points="837.62,-79.84 827.02,-79.68 835.2,-86.41 837.62,-79.84"/>
</a>
</g>
</g>
<!-- Node12 -->
<g id="Node000012" class="node">
<title>Node12</title>
<g id="a_Node000012"><a xlink:title=" ">
<polygon fill="#e0e0e0" stroke="#999999" points="1205.5,-140 1141.5,-140 1141.5,-121 1205.5,-121 1205.5,-140"/>
<text text-anchor="middle" x="1173.5" y="-128" font-family="Helvetica,sans-Serif" font-size="10.00">algorithm</text>
</a>
</g>
</g>
<!-- Node10&#45;&gt;Node12 -->
<g id="edge14_Node000010_Node000012" class="edge">
<title>Node10&#45;&gt;Node12</title>
<g id="a_edge14_Node000010_Node000012"><a xlink:title=" ">
<path fill="none" stroke="#63b8ff" d="M954.43,-175.98C1003,-166.12 1082.55,-149.97 1131.25,-140.08"/>
<polygon fill="#63b8ff" stroke="#63b8ff" points="1132.05,-143.49 1141.15,-138.07 1130.65,-136.63 1132.05,-143.49"/>
</a>
</g>
</g>
<!-- Node13 -->
<g id="Node000013" class="node">
<title>Node13</title>
<g id="a_Node000013"><a xlink:title=" ">
<polygon fill="#e0e0e0" stroke="#999999" points="865,-140 740,-140 740,-121 865,-121 865,-140"/>
<text text-anchor="middle" x="802.5" y="-128" font-family="Helvetica,sans-Serif" font-size="10.00">boost/lexical_cast.hpp</text>
</a>
</g>
</g>
<!-- Node10&#45;&gt;Node13 -->
<g id="edge15_Node000010_Node000013" class="edge">
<title>Node10&#45;&gt;Node13</title>
<g id="a_edge15_Node000010_Node000013"><a xlink:title=" ">
<path fill="none" stroke="#63b8ff" d="M894.83,-175.98C877.21,-167.5 849.92,-154.35 829.57,-144.54"/>
<polygon fill="#63b8ff" stroke="#63b8ff" points="831.02,-141.36 820.49,-140.17 827.98,-147.66 831.02,-141.36"/>
</a>
</g>
</g>
<!-- Node14 -->
<g id="Node000014" class="node">
<title>Node14</title>
<g id="a_Node000014"><a xlink:href="ematch__src_2utils_2gdb_2gdbUtils_8hh.html" target="_top" xlink:title=" ">
<polygon fill="white" stroke="#666666" points="1307,-79.5 1190,-79.5 1190,-60.5 1307,-60.5 1307,-79.5"/>
<text text-anchor="middle" x="1248.5" y="-67.5" font-family="Helvetica,sans-Serif" font-size="10.00">utils/gdb/gdbUtils.hh</text>
</a>
</g>
</g>
<!-- Node10&#45;&gt;Node14 -->
<g id="edge16_Node000010_Node000014" class="edge">
<title>Node10&#45;&gt;Node14</title>
<g id="a_edge16_Node000010_Node000014"><a xlink:title=" ">
<path fill="none" stroke="#63b8ff" d="M959.74,-175.97C996.99,-168.53 1049.92,-156.36 1094.5,-140 1112.23,-133.49 1115.38,-128.96 1132.5,-121 1161.38,-107.57 1194.83,-93.28 1218.37,-83.44"/>
<polygon fill="#63b8ff" stroke="#63b8ff" points="1219.92,-86.58 1227.81,-79.5 1217.23,-80.12 1219.92,-86.58"/>
</a>
</g>
</g>
<!-- Node19 -->
<g id="Node000019" class="node">
<title>Node19</title>
<g id="a_Node000019"><a xlink:href="ematch__src_2utils_2perlish_2perlish_8hh.html" target="_top" xlink:title=" ">
<polygon fill="white" stroke="#666666" points="1085,-140 960,-140 960,-121 1085,-121 1085,-140"/>
<text text-anchor="middle" x="1022.5" y="-128" font-family="Helvetica,sans-Serif" font-size="10.00">utils/perlish/perlish.hh</text>
</a>
</g>
</g>
<!-- Node10&#45;&gt;Node19 -->
<g id="edge22_Node000010_Node000019" class="edge">
<title>Node10&#45;&gt;Node19</title>
<g id="a_edge22_Node000010_Node000019"><a xlink:title=" ">
<path fill="none" stroke="#63b8ff" d="M930.17,-175.98C947.79,-167.5 975.08,-154.35 995.43,-144.54"/>
<polygon fill="#63b8ff" stroke="#63b8ff" points="997.02,-147.66 1004.51,-140.17 993.98,-141.36 997.02,-147.66"/>
</a>
</g>
</g>
<!-- Node14&#45;&gt;Node2 -->
<g id="edge18_Node000014_Node000002" class="edge">
<title>Node14&#45;&gt;Node2</title>
<g id="a_edge18_Node000014_Node000002"><a xlink:title=" ">
<path fill="none" stroke="#63b8ff" d="M1189.98,-60.59C1174.56,-58.56 1157.92,-56.54 1142.5,-55 1081.12,-48.88 657.36,-21.61 523.75,-13.07"/>
<polygon fill="#63b8ff" stroke="#63b8ff" points="523.75,-9.56 513.55,-12.42 523.31,-16.55 523.75,-9.56"/>
</a>
</g>
</g>
<!-- Node15 -->
<g id="Node000015" class="node">
<title>Node15</title>
<g id="a_Node000015"><a xlink:title=" ">
<polygon fill="#e0e0e0" stroke="#999999" points="1270,-19 1217,-19 1217,0 1270,0 1270,-19"/>
<text text-anchor="middle" x="1243.5" y="-7" font-family="Helvetica,sans-Serif" font-size="10.00">cstdarg</text>
</a>
</g>
</g>
<!-- Node14&#45;&gt;Node15 -->
<g id="edge17_Node000014_Node000015" class="edge">
<title>Node14&#45;&gt;Node15</title>
<g id="a_edge17_Node000014_Node000015"><a xlink:title=" ">
<path fill="none" stroke="#63b8ff" d="M1247.76,-60.37C1247.07,-52.25 1246,-39.81 1245.11,-29.39"/>
<polygon fill="#63b8ff" stroke="#63b8ff" points="1248.58,-28.83 1244.24,-19.17 1241.61,-29.43 1248.58,-28.83"/>
</a>
</g>
</g>
<!-- Node16 -->
<g id="Node000016" class="node">
<title>Node16</title>
<g id="a_Node000016"><a xlink:title=" ">
<polygon fill="#e0e0e0" stroke="#999999" points="1337,-19 1288,-19 1288,0 1337,0 1337,-19"/>
<text text-anchor="middle" x="1312.5" y="-7" font-family="Helvetica,sans-Serif" font-size="10.00">cstdlib</text>
</a>
</g>
</g>
<!-- Node14&#45;&gt;Node16 -->
<g id="edge19_Node000014_Node000016" class="edge">
<title>Node14&#45;&gt;Node16</title>
<g id="a_edge19_Node000014_Node000016"><a xlink:title=" ">
<path fill="none" stroke="#63b8ff" d="M1257.94,-60.37C1267.77,-51.38 1283.39,-37.11 1295.39,-26.14"/>
<polygon fill="#63b8ff" stroke="#63b8ff" points="1298,-28.5 1303.02,-19.17 1293.28,-23.33 1298,-28.5"/>
</a>
</g>
</g>
<!-- Node17 -->
<g id="Node000017" class="node">
<title>Node17</title>
<g id="a_Node000017"><a xlink:title=" ">
<polygon fill="#e0e0e0" stroke="#999999" points="1401.5,-19 1355.5,-19 1355.5,0 1401.5,0 1401.5,-19"/>
<text text-anchor="middle" x="1378.5" y="-7" font-family="Helvetica,sans-Serif" font-size="10.00">cstdio</text>
</a>
</g>
</g>
<!-- Node14&#45;&gt;Node17 -->
<g id="edge20_Node000014_Node000017" class="edge">
<title>Node14&#45;&gt;Node17</title>
<g id="a_edge20_Node000014_Node000017"><a xlink:title=" ">
<path fill="none" stroke="#63b8ff" d="M1267.4,-60.49C1289.16,-50.7 1325.12,-34.52 1350.21,-23.23"/>
<polygon fill="#63b8ff" stroke="#63b8ff" points="1351.89,-26.31 1359.57,-19.02 1349.02,-19.93 1351.89,-26.31"/>
</a>
</g>
</g>
<!-- Node18 -->
<g id="Node000018" class="node">
<title>Node18</title>
<g id="a_Node000018"><a xlink:title=" ">
<polygon fill="#e0e0e0" stroke="#999999" points="1198.5,-19 1146.5,-19 1146.5,0 1198.5,0 1198.5,-19"/>
<text text-anchor="middle" x="1172.5" y="-7" font-family="Helvetica,sans-Serif" font-size="10.00">cassert</text>
</a>
</g>
</g>
<!-- Node14&#45;&gt;Node18 -->
<g id="edge21_Node000014_Node000018" class="edge">
<title>Node14&#45;&gt;Node18</title>
<g id="a_edge21_Node000014_Node000018"><a xlink:title=" ">
<path fill="none" stroke="#63b8ff" d="M1237.29,-60.37C1225.39,-51.21 1206.36,-36.56 1191.99,-25.51"/>
<polygon fill="#63b8ff" stroke="#63b8ff" points="1193.82,-22.49 1183.76,-19.17 1189.55,-28.04 1193.82,-22.49"/>
</a>
</g>
</g>
<!-- Node19&#45;&gt;Node2 -->
<g id="edge24_Node000019_Node000002" class="edge">
<title>Node19&#45;&gt;Node2</title>
<g id="a_edge24_Node000019_Node000002"><a xlink:title=" ">
<path fill="none" stroke="#63b8ff" d="M973.71,-120.97C943,-114.21 903.3,-102.88 871.5,-85 854.22,-75.29 856.51,-63.29 838.5,-55 783.21,-29.56 604.57,-16.99 523.81,-12.5"/>
<polygon fill="#63b8ff" stroke="#63b8ff" points="523.72,-8.99 513.54,-11.94 523.34,-15.98 523.72,-8.99"/>
</a>
</g>
</g>
<!-- Node19&#45;&gt;Node6 -->
<g id="edge27_Node000019_Node000006" class="edge">
<title>Node19&#45;&gt;Node6</title>
<g id="a_edge27_Node000019_Node000006"><a xlink:title=" ">
<path fill="none" stroke="#63b8ff" d="M1085.21,-124.34C1217.71,-113.38 1514.41,-88.48 1518.5,-85 1534.51,-71.37 1538.01,-46.31 1538.34,-29.05"/>
<polygon fill="#63b8ff" stroke="#63b8ff" points="1541.83,-28.97 1538.19,-19.03 1534.84,-29.08 1541.83,-28.97"/>
</a>
</g>
</g>
<!-- Node19&#45;&gt;Node7 -->
<g id="edge28_Node000019_Node000007" class="edge">
<title>Node19&#45;&gt;Node7</title>
<g id="a_edge28_Node000019_Node000007"><a xlink:title=" ">
<path fill="none" stroke="#63b8ff" d="M997.34,-120.91C974.99,-112.87 941.73,-99.88 914.5,-85 894.05,-73.83 892.91,-64.2 871.5,-55 810.13,-28.64 732.15,-17.56 688.35,-13.17"/>
<polygon fill="#63b8ff" stroke="#63b8ff" points="688.52,-9.67 678.24,-12.21 687.86,-16.64 688.52,-9.67"/>
</a>
</g>
</g>
<!-- Node19&#45;&gt;Node8 -->
<g id="edge23_Node000019_Node000008" class="edge">
<title>Node19&#45;&gt;Node8</title>
<g id="a_edge23_Node000019_Node000008"><a xlink:title=" ">
<path fill="none" stroke="#63b8ff" d="M959.96,-122.28C907.22,-115.34 830.08,-103.21 764.5,-85 762.35,-84.4 760.15,-83.72 757.94,-82.99"/>
<polygon fill="#63b8ff" stroke="#63b8ff" points="759.04,-79.67 748.44,-79.57 756.66,-86.25 759.04,-79.67"/>
</a>
</g>
</g>
<!-- Node19&#45;&gt;Node11 -->
<g id="edge29_Node000019_Node000011" class="edge">
<title>Node19&#45;&gt;Node11</title>
<g id="a_edge29_Node000019_Node000011"><a xlink:title=" ">
<path fill="none" stroke="#63b8ff" d="M984.56,-120.97C948.17,-112.58 891.78,-99.02 843.5,-85 841.05,-84.29 838.52,-83.52 835.98,-82.73"/>
<polygon fill="#63b8ff" stroke="#63b8ff" points="836.86,-79.34 826.27,-79.61 834.72,-86 836.86,-79.34"/>
</a>
</g>
</g>
<!-- Node19&#45;&gt;Node14 -->
<g id="edge31_Node000019_Node000014" class="edge">
<title>Node19&#45;&gt;Node14</title>
<g id="a_edge31_Node000019_Node000014"><a xlink:title=" ">
<path fill="none" stroke="#63b8ff" d="M1055.36,-120.99C1095.11,-110.7 1162.13,-93.36 1205.83,-82.04"/>
<polygon fill="#63b8ff" stroke="#63b8ff" points="1206.79,-85.41 1215.6,-79.52 1205.04,-78.63 1206.79,-85.41"/>
</a>
</g>
</g>
<!-- Node20 -->
<g id="Node000020" class="node">
<title>Node20</title>
<g id="a_Node000020"><a xlink:title=" ">
<polygon fill="#e0e0e0" stroke="#999999" points="1509,-79.5 1454,-79.5 1454,-60.5 1509,-60.5 1509,-79.5"/>
<text text-anchor="middle" x="1481.5" y="-67.5" font-family="Helvetica,sans-Serif" font-size="10.00">fstream</text>
</a>
</g>
</g>
<!-- Node19&#45;&gt;Node20 -->
<g id="edge25_Node000019_Node000020" class="edge">
<title>Node19&#45;&gt;Node20</title>
<g id="a_edge25_Node000019_Node000020"><a xlink:title=" ">
<path fill="none" stroke="#63b8ff" d="M1085.4,-123.77C1194.49,-113.69 1410.46,-93.09 1444.5,-85 1447.01,-84.4 1449.59,-83.68 1452.15,-82.88"/>
<polygon fill="#63b8ff" stroke="#63b8ff" points="1453.53,-86.1 1461.82,-79.51 1451.23,-79.49 1453.53,-86.1"/>
</a>
</g>
</g>
<!-- Node21 -->
<g id="Node000021" class="node">
<title>Node21</title>
<g id="a_Node000021"><a xlink:title=" ">
<polygon fill="#e0e0e0" stroke="#999999" points="979.5,-79.5 923.5,-79.5 923.5,-60.5 979.5,-60.5 979.5,-79.5"/>
<text text-anchor="middle" x="951.5" y="-67.5" font-family="Helvetica,sans-Serif" font-size="10.00">sstream</text>
</a>
</g>
</g>
<!-- Node19&#45;&gt;Node21 -->
<g id="edge26_Node000019_Node000021" class="edge">
<title>Node19&#45;&gt;Node21</title>
<g id="a_edge26_Node000019_Node000021"><a xlink:title=" ">
<path fill="none" stroke="#63b8ff" d="M1012.02,-120.87C1001.01,-111.8 983.46,-97.34 970.09,-86.32"/>
<polygon fill="#63b8ff" stroke="#63b8ff" points="971.96,-83.33 962.02,-79.67 967.51,-88.73 971.96,-83.33"/>
</a>
</g>
</g>
<!-- Node22 -->
<g id="Node000022" class="node">
<title>Node22</title>
<g id="a_Node000022"><a xlink:title=" ">
<polygon fill="#e0e0e0" stroke="#999999" points="1118,-19 1023,-19 1023,0 1118,0 1118,-19"/>
<text text-anchor="middle" x="1070.5" y="-7" font-family="Helvetica,sans-Serif" font-size="10.00">boost/regex.hpp</text>
</a>
</g>
</g>
<!-- Node19&#45;&gt;Node22 -->
<g id="edge30_Node000019_Node000022" class="edge">
<title>Node19&#45;&gt;Node22</title>
<g id="a_edge30_Node000019_Node000022"><a xlink:title=" ">
<path fill="none" stroke="#63b8ff" d="M1085.22,-121.13C1107.02,-114.87 1129.3,-103.97 1142.5,-85 1150.11,-74.05 1148.99,-66.65 1142.5,-55 1134.46,-40.58 1119.6,-30.24 1105.46,-23.18"/>
<polygon fill="#63b8ff" stroke="#63b8ff" points="1106.9,-19.99 1096.35,-19.01 1103.99,-26.36 1106.9,-19.99"/>
</a>
</g>
</g>
<!-- Node23 -->
<g id="Node000023" class="node">
<title>Node23</title>
<g id="a_Node000023"><a xlink:href="ematch__src_2utils_2stl_2stlTypes_8hh.html" target="_top" xlink:title=" ">
<polygon fill="white" stroke="#666666" points="1435.5,-79.5 1325.5,-79.5 1325.5,-60.5 1435.5,-60.5 1435.5,-79.5"/>
<text text-anchor="middle" x="1380.5" y="-67.5" font-family="Helvetica,sans-Serif" font-size="10.00">utils/stl/stlTypes.hh</text>
</a>
</g>
</g>
<!-- Node19&#45;&gt;Node23 -->
<g id="edge32_Node000019_Node000023" class="edge">
<title>Node19&#45;&gt;Node23</title>
<g id="a_edge32_Node000019_Node000023"><a xlink:title=" ">
<path fill="none" stroke="#63b8ff" d="M1085.21,-121.21C1144.87,-113.05 1237.06,-99.69 1316.5,-85 1321.95,-83.99 1327.65,-82.86 1333.3,-81.69"/>
<polygon fill="#63b8ff" stroke="#63b8ff" points="1334.3,-85.05 1343.36,-79.55 1332.85,-78.21 1334.3,-85.05"/>
</a>
</g>
</g>
<!-- Node24 -->
<g id="Node000024" class="node">
<title>Node24</title>
<g id="a_Node000024"><a xlink:href="ematch__src_2utils_2boost_2boostUtils_8hh.html" target="_top" xlink:title=" ">
<polygon fill="white" stroke="#666666" points="1133,-79.5 998,-79.5 998,-60.5 1133,-60.5 1133,-79.5"/>
<text text-anchor="middle" x="1065.5" y="-67.5" font-family="Helvetica,sans-Serif" font-size="10.00">utils/boost/boostUtils.hh</text>
</a>
</g>
</g>
<!-- Node19&#45;&gt;Node24 -->
<g id="edge35_Node000019_Node000024" class="edge">
<title>Node19&#45;&gt;Node24</title>
<g id="a_edge35_Node000019_Node000024"><a xlink:title=" ">
<path fill="none" stroke="#63b8ff" d="M1028.84,-120.87C1035.2,-112.23 1045.14,-98.7 1053.07,-87.92"/>
<polygon fill="#63b8ff" stroke="#63b8ff" points="1056.03,-89.8 1059.13,-79.67 1050.39,-85.65 1056.03,-89.8"/>
</a>
</g>
</g>
<!-- Node23&#45;&gt;Node6 -->
<g id="edge33_Node000023_Node000006" class="edge">
<title>Node23&#45;&gt;Node6</title>
<g id="a_edge33_Node000023_Node000006"><a xlink:title=" ">
<path fill="none" stroke="#63b8ff" d="M1403.33,-60.49C1430.22,-50.47 1475.08,-33.76 1505.45,-22.44"/>
<polygon fill="#63b8ff" stroke="#63b8ff" points="1507,-25.6 1515.15,-18.83 1504.56,-19.04 1507,-25.6"/>
</a>
</g>
</g>
<!-- Node23&#45;&gt;Node7 -->
<g id="edge34_Node000023_Node000007" class="edge">
<title>Node23&#45;&gt;Node7</title>
<g id="a_edge34_Node000023_Node000007"><a xlink:title=" ">
<path fill="none" stroke="#63b8ff" d="M1346.13,-60.5C1336.58,-58.41 1326.18,-56.38 1316.5,-55 1077.42,-21.01 785.96,-12.85 688.24,-11.01"/>
<polygon fill="#63b8ff" stroke="#63b8ff" points="688.15,-7.5 678.08,-10.82 688.02,-14.5 688.15,-7.5"/>
</a>
</g>
</g>
<!-- Node24&#45;&gt;Node2 -->
<g id="edge36_Node000024_Node000002" class="edge">
<title>Node24&#45;&gt;Node2</title>
<g id="a_edge36_Node000024_Node000002"><a xlink:title=" ">
<path fill="none" stroke="#63b8ff" d="M1022.44,-60.45C1011.41,-58.46 999.54,-56.49 988.5,-55 816.43,-31.83 609.67,-17.94 523.87,-12.79"/>
<polygon fill="#63b8ff" stroke="#63b8ff" points="523.97,-9.29 513.78,-12.19 523.55,-16.28 523.97,-9.29"/>
</a>
</g>
</g>
<!-- Node24&#45;&gt;Node22 -->
<g id="edge37_Node000024_Node000022" class="edge">
<title>Node24&#45;&gt;Node22</title>
<g id="a_edge37_Node000024_Node000022"><a xlink:title=" ">
<path fill="none" stroke="#63b8ff" d="M1066.24,-60.37C1066.93,-52.25 1068,-39.81 1068.89,-29.39"/>
<polygon fill="#63b8ff" stroke="#63b8ff" points="1072.39,-29.43 1069.76,-19.17 1065.42,-28.83 1072.39,-29.43"/>
</a>
</g>
</g>
<!-- Node25&#45;&gt;Node2 -->
<g id="edge41_Node000025_Node000002" class="edge">
<title>Node25&#45;&gt;Node2</title>
<g id="a_edge41_Node000025_Node000002"><a xlink:title=" ">
<path fill="none" stroke="#63b8ff" d="M160.59,-57.15C165.29,-56.41 169.96,-55.69 174.5,-55 270.79,-40.32 384.16,-24.32 443.18,-16.09"/>
<polygon fill="#63b8ff" stroke="#63b8ff" points="443.79,-19.54 453.21,-14.69 442.82,-12.61 443.79,-19.54"/>
</a>
</g>
</g>
<!-- Node25&#45;&gt;Node7 -->
<g id="edge43_Node000025_Node000007" class="edge">
<title>Node25&#45;&gt;Node7</title>
<g id="a_edge43_Node000025_Node000007"><a xlink:title=" ">
<path fill="none" stroke="#63b8ff" d="M160.75,-61.44C284.6,-48.66 530.65,-23.28 620.57,-14"/>
<polygon fill="#63b8ff" stroke="#63b8ff" points="621.16,-17.46 630.75,-12.95 620.44,-10.5 621.16,-17.46"/>
</a>
</g>
</g>
<!-- Node26 -->
<g id="Node000026" class="node">
<title>Node26</title>
<g id="a_Node000026"><a xlink:title=" ">
<polygon fill="#e0e0e0" stroke="#999999" points="47,-19 0,-19 0,0 47,0 47,-19"/>
<text text-anchor="middle" x="23.5" y="-7" font-family="Helvetica,sans-Serif" font-size="10.00">cmath</text>
</a>
</g>
</g>
<!-- Node25&#45;&gt;Node26 -->
<g id="edge39_Node000025_Node000026" class="edge">
<title>Node25&#45;&gt;Node26</title>
<g id="a_edge39_Node000025_Node000026"><a xlink:title=" ">
<path fill="none" stroke="#63b8ff" d="M72.01,-54.84C62.53,-46.17 50.39,-35.08 40.62,-26.15"/>
<polygon fill="#63b8ff" stroke="#63b8ff" points="42.83,-23.43 33.09,-19.27 38.11,-28.6 42.83,-23.43"/>
</a>
</g>
</g>
<!-- Node27 -->
<g id="Node000027" class="node">
<title>Node27</title>
<g id="a_Node000027"><a xlink:title=" ">
<polygon fill="#e0e0e0" stroke="#999999" points="109.5,-19 65.5,-19 65.5,0 109.5,0 109.5,-19"/>
<text text-anchor="middle" x="87.5" y="-7" font-family="Helvetica,sans-Serif" font-size="10.00">limits</text>
</a>
</g>
</g>
<!-- Node25&#45;&gt;Node27 -->
<g id="edge40_Node000025_Node000027" class="edge">
<title>Node25&#45;&gt;Node27</title>
<g id="a_edge40_Node000025_Node000027"><a xlink:title=" ">
<path fill="none" stroke="#63b8ff" d="M87.5,-54.84C87.5,-47.21 87.5,-37.7 87.5,-29.45"/>
<polygon fill="#63b8ff" stroke="#63b8ff" points="91,-29.27 87.5,-19.27 84,-29.27 91,-29.27"/>
</a>
</g>
</g>
<!-- Node28 -->
<g id="Node000028" class="node">
<title>Node28</title>
<g id="a_Node000028"><a xlink:title=" ">
<polygon fill="#e0e0e0" stroke="#999999" points="173,-19 128,-19 128,0 173,0 173,-19"/>
<text text-anchor="middle" x="150.5" y="-7" font-family="Helvetica,sans-Serif" font-size="10.00">utility</text>
</a>
</g>
</g>
<!-- Node25&#45;&gt;Node28 -->
<g id="edge42_Node000025_Node000028" class="edge">
<title>Node25&#45;&gt;Node28</title>
<g id="a_edge42_Node000025_Node000028"><a xlink:title=" ">
<path fill="none" stroke="#63b8ff" d="M102.75,-54.84C112.08,-46.17 124.03,-35.08 133.65,-26.15"/>
<polygon fill="#63b8ff" stroke="#63b8ff" points="136.11,-28.64 141.06,-19.27 131.35,-23.51 136.11,-28.64"/>
</a>
</g>
</g>
<!-- Node29&#45;&gt;Node2 -->
<g id="edge45_Node000029_Node000002" class="edge">
<title>Node29&#45;&gt;Node2</title>
<g id="a_edge45_Node000029_Node000002"><a xlink:title=" ">
<path fill="none" stroke="#63b8ff" d="M407.62,-175.71C410.72,-163.3 416.96,-140.04 424.5,-121 436.58,-90.51 441.89,-83.84 457.5,-55 462.4,-45.95 468.14,-36.05 472.98,-27.89"/>
<polygon fill="#63b8ff" stroke="#63b8ff" points="476.01,-29.65 478.15,-19.27 470.01,-26.05 476.01,-29.65"/>
</a>
</g>
</g>
<!-- Node29&#45;&gt;Node4 -->
<g id="edge46_Node000029_Node000004" class="edge">
<title>Node29&#45;&gt;Node4</title>
<g id="a_edge46_Node000029_Node000004"><a xlink:title=" ">
<path fill="none" stroke="#63b8ff" d="M392.65,-175.98C380.36,-167.84 361.59,-155.41 347.02,-145.76"/>
<polygon fill="#63b8ff" stroke="#63b8ff" points="348.86,-142.78 338.59,-140.17 344.99,-148.61 348.86,-142.78"/>
</a>
</g>
</g>
<!-- Node30 -->
<g id="Node000030" class="node">
<title>Node30</title>
<g id="a_Node000030"><a xlink:href="recountTypes_8hh.html" target="_top" xlink:title=" ">
<polygon fill="white" stroke="#666666" points="569.5,-79.5 473.5,-79.5 473.5,-60.5 569.5,-60.5 569.5,-79.5"/>
<text text-anchor="middle" x="521.5" y="-67.5" font-family="Helvetica,sans-Serif" font-size="10.00">recountTypes.hh</text>
</a>
</g>
</g>
<!-- Node29&#45;&gt;Node30 -->
<g id="edge47_Node000029_Node000030" class="edge">
<title>Node29&#45;&gt;Node30</title>
<g id="a_edge47_Node000029_Node000030"><a xlink:title=" ">
<path fill="none" stroke="#63b8ff" d="M471.68,-175.94C514.71,-168.86 565.2,-157.16 578.5,-140 593.65,-120.47 567.96,-98.56 546.34,-84.78"/>
<polygon fill="#63b8ff" stroke="#63b8ff" points="548.11,-81.77 537.75,-79.57 544.48,-87.75 548.11,-81.77"/>
</a>
</g>
</g>
<!-- Node31 -->
<g id="Node000031" class="node">
<title>Node31</title>
<g id="a_Node000031"><a xlink:href="RecountTagIdProbPair_8hh.html" target="_top" xlink:title=" ">
<polygon fill="white" stroke="#666666" points="569.5,-140 433.5,-140 433.5,-121 569.5,-121 569.5,-140"/>
<text text-anchor="middle" x="501.5" y="-128" font-family="Helvetica,sans-Serif" font-size="10.00">RecountTagIdProbPair.hh</text>
</a>
</g>
</g>
<!-- Node29&#45;&gt;Node31 -->
<g id="edge50_Node000029_Node000031" class="edge">
<title>Node29&#45;&gt;Node31</title>
<g id="a_edge50_Node000029_Node000031"><a xlink:title=" ">
<path fill="none" stroke="#63b8ff" d="M420.92,-175.98C435.95,-167.69 459.04,-154.94 476.66,-145.22"/>
<polygon fill="#63b8ff" stroke="#63b8ff" points="478.73,-148.07 485.8,-140.17 475.35,-141.94 478.73,-148.07"/>
</a>
</g>
</g>
<!-- Node30&#45;&gt;Node2 -->
<g id="edge48_Node000030_Node000002" class="edge">
<title>Node30&#45;&gt;Node2</title>
<g id="a_edge48_Node000030_Node000002"><a xlink:title=" ">
<path fill="none" stroke="#63b8ff" d="M515.89,-60.37C510.34,-51.81 501.67,-38.47 494.7,-27.74"/>
<polygon fill="#63b8ff" stroke="#63b8ff" points="497.51,-25.65 489.13,-19.17 491.64,-29.46 497.51,-25.65"/>
</a>
</g>
</g>
<!-- Node30&#45;&gt;Node7 -->
<g id="edge49_Node000030_Node000007" class="edge">
<title>Node30&#45;&gt;Node7</title>
<g id="a_edge49_Node000030_Node000007"><a xlink:title=" ">
<path fill="none" stroke="#63b8ff" d="M540.84,-60.49C563.2,-50.66 600.21,-34.38 625.9,-23.08"/>
<polygon fill="#63b8ff" stroke="#63b8ff" points="627.39,-26.25 635.14,-19.02 624.57,-19.84 627.39,-26.25"/>
</a>
</g>
</g>
<!-- Node31&#45;&gt;Node2 -->
<g id="edge51_Node000031_Node000002" class="edge">
<title>Node31&#45;&gt;Node2</title>
<g id="a_edge51_Node000031_Node000002"><a xlink:title=" ">
<path fill="none" stroke="#63b8ff" d="M491.06,-120.87C482.08,-112.7 469.76,-99.55 464.5,-85 457.65,-66.05 465.48,-43.55 473.07,-28.27"/>
<polygon fill="#63b8ff" stroke="#63b8ff" points="476.19,-29.85 477.86,-19.38 470.03,-26.53 476.19,-29.85"/>
</a>
</g>
</g>
<!-- Node31&#45;&gt;Node30 -->
<g id="edge52_Node000031_Node000030" class="edge">
<title>Node31&#45;&gt;Node30</title>
<g id="a_edge52_Node000031_Node000030"><a xlink:title=" ">
<path fill="none" stroke="#63b8ff" d="M504.45,-120.87C507.29,-112.57 511.66,-99.78 515.27,-89.22"/>
<polygon fill="#63b8ff" stroke="#63b8ff" points="518.61,-90.26 518.54,-79.67 511.99,-88 518.61,-90.26"/>
</a>
</g>
</g>
</g>
</svg>

<g id="navigator" transform="translate(0 0)" fill="#404254">
  <rect fill="#f2f5e9" fill-opacity="0.5" stroke="#606060" stroke-width=".5" x="0" y="0" width="60" height="60"/>
  <use id="zoomplus" xlink:href="#zoomPlus" x="17" y="9" onmousedown="handleZoom(evt,'in')"/>
  <use id="zoomminus" xlink:href="#zoomMin" x="42" y="9" onmousedown="handleZoom(evt,'out')"/>
  <use id="reset" xlink:href="#resetDef" x="30" y="36" onmousedown="handleReset()"/>
   <use id="arrowup" xlink:href="#arrowUp" x="0" y="0" onmousedown="handlePan(0,-1)"/>
  <use id="arrowright" xlink:href="#arrowRight" x="0" y="0" onmousedown="handlePan(1,0)"/>
  <use id="arrowdown" xlink:href="#arrowDown" x="0" y="0" onmousedown="handlePan(0,1)"/>
  <use id="arrowleft" xlink:href="#arrowLeft" x="0" y="0" onmousedown="handlePan(-1,0)"/>
</g>
<svg viewBox="0 0 15 15" width="100%" height="30px" preserveAspectRatio="xMaxYMin meet">
 <g id="arrow_out" transform="scale(0.3 0.3)">
  <a xlink:href="RecountNeighborProbGraphWriter__SortedTagSet_8hh__incl_org.svg" target="_base">
   <rect id="button" ry="5" rx="5" y="6" x="6" height="38" width="38"
        fill="#f2f5e9" fill-opacity="0.5" stroke="#606060" stroke-width="1.0"/>
   <path id="arrow"
     d="M 11.500037,31.436501 C 11.940474,20.09759 22.043105,11.32322 32.158766,21.979434 L 37.068811,17.246167 C 37.068811,17.246167 37.088388,32 37.088388,32 L 22.160133,31.978069 C 22.160133,31.978069 26.997745,27.140456 26.997745,27.140456 C 18.528582,18.264221 13.291696,25.230495 11.500037,31.436501 z"
     style="fill:#404040;"/>
  </a>
 </g>
</svg>

<style type='text/css'>
<![CDATA[
[data-mouse-over-selected='false'] { opacity: 0.7; }
[data-mouse-over-selected='true']  { opacity: 1.0; }
]]>
</style>
<script type="application/ecmascript"><![CDATA[
document.addEventListener('DOMContentLoaded', (event) => {
  highlightEdges();
  highlightAdjacentNodes();
});
]]></script>
</svg>
