<?xml version="1.0" encoding="UTF-8" standalone="no"?>
<!DOCTYPE svg PUBLIC "-//W3C//DTD SVG 1.1//EN"
 "http://www.w3.org/Graphics/SVG/1.1/DTD/svg11.dtd">
<!-- Generated by graphviz version 2.43.0 (0)
 -->
<!-- Title: ematch_src/utils/sequence/ResidueIndexMap/ResiduesIndexMap.cc Pages: 1 -->
<!--zoomable 511 -->

<svg id="main" version="1.1" xmlns="http://www.w3.org/2000/svg" xmlns:xlink="http://www.w3.org/1999/xlink" xml:space="preserve" onload="init(evt)">
<style type="text/css"><![CDATA[
.node, .edge {opacity: 0.7;}
.node.selected, .edge.selected {opacity: 1;}
.edge:hover path { stroke: red; }
.edge:hover polygon { stroke: red; fill: red; }
]]></style>

<defs>
  <circle id="rim" cx="0" cy="0" r="7"/>
  <circle id="rim2" cx="0" cy="0" r="3.5"/>
  <g id="zoomPlus">
    <use xlink:href="#rim" fill="#404040"><set attributeName="fill" to="#808080" begin="zoomplus.mouseover" end="zoomplus.mouseout"/></use>
    <path d="M-4,0h8M0,-4v8" fill="none" stroke="white" stroke-width="1.5" pointer-events="none"/>
  </g>
  <g id="zoomMin">
    <use xlink:href="#rim" fill="#404040"><set attributeName="fill" to="#808080" begin="zoomminus.mouseover" end="zoomminus.mouseout"/></use>
    <path d="M-4,0h8" fill="none" stroke="white" stroke-width="1.5" pointer-events="none"/>
  </g>
  <g id="arrowUp" transform="translate(30 24)">
    <use xlink:href="#rim"/>
    <path pointer-events="none" fill="none" stroke="white" stroke-width="1.5" d="M0,-3.0v7 M-2.5,-0.5L0,-3.0L2.5,-0.5"/>
  </g>
  <g id="arrowRight" transform="rotate(90) translate(36 -43)">
    <use xlink:href="#rim"/>
    <path pointer-events="none" fill="none" stroke="white" stroke-width="1.5" d="M0,-3.0v7 M-2.5,-0.5L0,-3.0L2.5,-0.5"/>
  </g>
  <g id="arrowDown" transform="rotate(180) translate(-30 -48)">
    <use xlink:href="#rim"/>
    <path pointer-events="none" fill="none" stroke="white" stroke-width="1.5" d="M0,-3.0v7 M-2.5,-0.5L0,-3.0L2.5,-0.5"/>
  </g>
  <g id="arrowLeft" transform="rotate(270) translate(-36 17)">
    <use xlink:href="#rim"/>
    <path pointer-events="none" fill="none" stroke="white" stroke-width="1.5" d="M0,-3.0v7 M-2.5,-0.5L0,-3.0L2.5,-0.5"/>
  </g>
  <g id="resetDef">
    <use xlink:href="#rim2" fill="#404040"><set attributeName="fill" to="#808080" begin="reset.mouseover" end="reset.mouseout"/></use>
  </g>
</defs>
<script type="application/ecmascript">
var viewWidth = 1174;
var viewHeight = 511;
var sectionId = 'dynsection-0';
</script>
<script type="application/ecmascript" xlink:href="svg.min.js"/>
<svg id="graph" class="graph">
<g id="viewport">
<title>ematch_src/utils/sequence/ResidueIndexMap/ResiduesIndexMap.cc</title>
<!-- Node1 -->
<g id="Node000001" class="node">
<title>Node1</title>
<g id="a_Node000001"><a xlink:title=" ">
<polygon fill="#999999" stroke="#666666" points="563.75,-503 382.75,-503 382.75,-462 563.75,-462 563.75,-503"/>
<text text-anchor="start" x="390.75" y="-491" font-family="Helvetica,sans-Serif" font-size="10.00">ematch_src/utils/sequence</text>
<text text-anchor="start" x="390.75" y="-480" font-family="Helvetica,sans-Serif" font-size="10.00">/ResidueIndexMap/ResiduesIndex</text>
<text text-anchor="middle" x="473.25" y="-469" font-family="Helvetica,sans-Serif" font-size="10.00">Map.cc</text>
</a>
</g>
</g>
<!-- Node2 -->
<g id="Node000002" class="node">
<title>Node2</title>
<g id="a_Node000002"><a xlink:href="ResiduesIndexMap_8hh.html" target="_top" xlink:title=" ">
<polygon fill="white" stroke="#666666" points="535.25,-426 411.25,-426 411.25,-407 535.25,-407 535.25,-426"/>
<text text-anchor="middle" x="473.25" y="-414" font-family="Helvetica,sans-Serif" font-size="10.00">ResiduesIndexMap.hh</text>
</a>
</g>
</g>
<!-- Node1&#45;&gt;Node2 -->
<g id="edge1_Node000001_Node000002" class="edge">
<title>Node1&#45;&gt;Node2</title>
<g id="a_edge1_Node000001_Node000002"><a xlink:title=" ">
<path fill="none" stroke="#63b8ff" d="M473.25,-461.95C473.25,-453.85 473.25,-444.5 473.25,-436.47"/>
<polygon fill="#63b8ff" stroke="#63b8ff" points="476.75,-436.26 473.25,-426.26 469.75,-436.26 476.75,-436.26"/>
</a>
</g>
</g>
<!-- Node3 -->
<g id="Node000003" class="node">
<title>Node3</title>
<g id="a_Node000003"><a xlink:href="ResidueIndexMapPredefined_8hh.html" target="_top" xlink:title=" ">
<polygon fill="white" stroke="#666666" points="1029.25,-299.5 859.25,-299.5 859.25,-280.5 1029.25,-280.5 1029.25,-299.5"/>
<text text-anchor="middle" x="944.25" y="-287.5" font-family="Helvetica,sans-Serif" font-size="10.00">ResidueIndexMapPredefined.hh</text>
</a>
</g>
</g>
<!-- Node2&#45;&gt;Node3 -->
<g id="edge2_Node000002_Node000003" class="edge">
<title>Node2&#45;&gt;Node3</title>
<g id="a_edge2_Node000002_Node000003"><a xlink:title=" ">
<path fill="none" stroke="#63b8ff" d="M505.62,-406.94C588.66,-384.99 809.18,-326.7 902.06,-302.15"/>
<polygon fill="#63b8ff" stroke="#63b8ff" points="903.18,-305.47 911.96,-299.53 901.4,-298.71 903.18,-305.47"/>
</a>
</g>
</g>
<!-- Node25 -->
<g id="Node000025" class="node">
<title>Node25</title>
<g id="a_Node000025"><a xlink:href="ResidueIndexWindow_8hh.html" target="_top" xlink:title=" ">
<polygon fill="white" stroke="#666666" points="493.75,-371 354.75,-371 354.75,-341 493.75,-341 493.75,-371"/>
<text text-anchor="start" x="362.75" y="-359" font-family="Helvetica,sans-Serif" font-size="10.00">ResidueIndexWindow</text>
<text text-anchor="middle" x="424.25" y="-348" font-family="Helvetica,sans-Serif" font-size="10.00">/ResidueIndexWindow.hh</text>
</a>
</g>
</g>
<!-- Node2&#45;&gt;Node25 -->
<g id="edge37_Node000002_Node000025" class="edge">
<title>Node2&#45;&gt;Node25</title>
<g id="a_edge37_Node000002_Node000025"><a xlink:title=" ">
<path fill="none" stroke="#63b8ff" d="M466.02,-406.87C459.86,-399.52 450.74,-388.63 442.6,-378.91"/>
<polygon fill="#63b8ff" stroke="#63b8ff" points="445.17,-376.53 436.07,-371.11 439.81,-381.03 445.17,-376.53"/>
</a>
</g>
</g>
<!-- Node4 -->
<g id="Node000004" class="node">
<title>Node4</title>
<g id="a_Node000004"><a xlink:href="ResidueIndexMap_8hh.html" target="_top" xlink:title=" ">
<polygon fill="white" stroke="#666666" points="332.75,-239 213.75,-239 213.75,-220 332.75,-220 332.75,-239"/>
<text text-anchor="middle" x="273.25" y="-227" font-family="Helvetica,sans-Serif" font-size="10.00">ResidueIndexMap.hh</text>
</a>
</g>
</g>
<!-- Node3&#45;&gt;Node4 -->
<g id="edge3_Node000003_Node000004" class="edge">
<title>Node3&#45;&gt;Node4</title>
<g id="a_edge3_Node000003_Node000004"><a xlink:title=" ">
<path fill="none" stroke="#63b8ff" d="M858.92,-281.56C724.68,-269.86 466.73,-247.37 342.91,-236.57"/>
<polygon fill="#63b8ff" stroke="#63b8ff" points="343.06,-233.07 332.79,-235.69 342.45,-240.05 343.06,-233.07"/>
</a>
</g>
</g>
<!-- Node11 -->
<g id="Node000011" class="node">
<title>Node11</title>
<g id="a_Node000011"><a xlink:title=" ">
<polygon fill="#e0e0e0" stroke="#999999" points="884.25,-19 824.25,-19 824.25,0 884.25,0 884.25,-19"/>
<text text-anchor="middle" x="854.25" y="-7" font-family="Helvetica,sans-Serif" font-size="10.00">iostream</text>
</a>
</g>
</g>
<!-- Node3&#45;&gt;Node11 -->
<g id="edge36_Node000003_Node000011" class="edge">
<title>Node3&#45;&gt;Node11</title>
<g id="a_edge36_Node000003_Node000011"><a xlink:title=" ">
<path fill="none" stroke="#63b8ff" d="M941.76,-280.25C936.61,-261.32 925.25,-215.06 925.25,-175.5 925.25,-175.5 925.25,-175.5 925.25,-118.5 925.25,-80.27 893.8,-45.09 872.76,-25.83"/>
<polygon fill="#63b8ff" stroke="#63b8ff" points="874.85,-23.01 865.03,-19.03 870.23,-28.27 874.85,-23.01"/>
</a>
</g>
</g>
<!-- Node5 -->
<g id="Node000005" class="node">
<title>Node5</title>
<g id="a_Node000005"><a xlink:title=" ">
<polygon fill="#e0e0e0" stroke="#999999" points="410.25,-19 366.25,-19 366.25,0 410.25,0 410.25,-19"/>
<text text-anchor="middle" x="388.25" y="-7" font-family="Helvetica,sans-Serif" font-size="10.00">string</text>
</a>
</g>
</g>
<!-- Node4&#45;&gt;Node5 -->
<g id="edge4_Node000004_Node000005" class="edge">
<title>Node4&#45;&gt;Node5</title>
<g id="a_edge4_Node000004_Node000005"><a xlink:title=" ">
<path fill="none" stroke="#63b8ff" d="M213.53,-222.3C139.29,-211.44 25.18,-182.75 50.25,-110 60.35,-80.66 66.45,-70.65 93.25,-55 137.4,-29.22 288.92,-16.74 355.93,-12.37"/>
<polygon fill="#63b8ff" stroke="#63b8ff" points="356.17,-15.87 365.93,-11.74 355.73,-8.88 356.17,-15.87"/>
</a>
</g>
</g>
<!-- Node6 -->
<g id="Node000006" class="node">
<title>Node6</title>
<g id="a_Node000006"><a xlink:title=" ">
<polygon fill="#e0e0e0" stroke="#999999" points="218.75,-19 171.75,-19 171.75,0 218.75,0 218.75,-19"/>
<text text-anchor="middle" x="195.25" y="-7" font-family="Helvetica,sans-Serif" font-size="10.00">vector</text>
</a>
</g>
</g>
<!-- Node4&#45;&gt;Node6 -->
<g id="edge5_Node000004_Node000006" class="edge">
<title>Node4&#45;&gt;Node6</title>
<g id="a_edge5_Node000004_Node000006"><a xlink:title=" ">
<path fill="none" stroke="#63b8ff" d="M213.74,-226.71C146.1,-223.28 41.86,-213.26 17.25,-184 -21.84,-137.53 12.27,-89.48 62.25,-55 92.41,-34.19 133.08,-22.46 161.48,-16.34"/>
<polygon fill="#63b8ff" stroke="#63b8ff" points="162.24,-19.75 171.34,-14.33 160.84,-12.9 162.24,-19.75"/>
</a>
</g>
</g>
<!-- Node7 -->
<g id="Node000007" class="node">
<title>Node7</title>
<g id="a_Node000007"><a xlink:title=" ">
<polygon fill="#e0e0e0" stroke="#999999" points="276.75,-74 223.75,-74 223.75,-55 276.75,-55 276.75,-74"/>
<text text-anchor="middle" x="250.25" y="-62" font-family="Helvetica,sans-Serif" font-size="10.00">ctype.h</text>
</a>
</g>
</g>
<!-- Node4&#45;&gt;Node7 -->
<g id="edge6_Node000004_Node000007" class="edge">
<title>Node4&#45;&gt;Node7</title>
<g id="a_edge6_Node000004_Node000007"><a xlink:title=" ">
<path fill="none" stroke="#63b8ff" d="M264.23,-219.96C256.18,-211.66 244.95,-198.25 240.25,-184 229.01,-149.98 237.6,-107.64 244.3,-83.88"/>
<polygon fill="#63b8ff" stroke="#63b8ff" points="247.71,-84.69 247.26,-74.1 241.01,-82.66 247.71,-84.69"/>
</a>
</g>
</g>
<!-- Node8 -->
<g id="Node000008" class="node">
<title>Node8</title>
<g id="a_Node000008"><a xlink:title=" ">
<polygon fill="#e0e0e0" stroke="#999999" points="314.75,-184 249.75,-184 249.75,-165 314.75,-165 314.75,-184"/>
<text text-anchor="middle" x="282.25" y="-172" font-family="Helvetica,sans-Serif" font-size="10.00">stdexcept</text>
</a>
</g>
</g>
<!-- Node4&#45;&gt;Node8 -->
<g id="edge7_Node000004_Node000008" class="edge">
<title>Node4&#45;&gt;Node8</title>
<g id="a_edge7_Node000004_Node000008"><a xlink:title=" ">
<path fill="none" stroke="#63b8ff" d="M274.73,-219.75C275.91,-212.8 277.6,-202.85 279.08,-194.13"/>
<polygon fill="#63b8ff" stroke="#63b8ff" points="282.56,-194.53 280.79,-184.09 275.66,-193.36 282.56,-194.53"/>
</a>
</g>
</g>
<!-- Node9 -->
<g id="Node000009" class="node">
<title>Node9</title>
<g id="a_Node000009"><a xlink:href="ematch__src_2utils_2FLArray_2FLEArray_8hh.html" target="_top" xlink:title=" ">
<polygon fill="white" stroke="#666666" points="539.75,-184 400.75,-184 400.75,-165 539.75,-165 539.75,-184"/>
<text text-anchor="middle" x="470.25" y="-172" font-family="Helvetica,sans-Serif" font-size="10.00">utils/FLArray/FLEArray.hh</text>
</a>
</g>
</g>
<!-- Node4&#45;&gt;Node9 -->
<g id="edge8_Node000004_Node000009" class="edge">
<title>Node4&#45;&gt;Node9</title>
<g id="a_edge8_Node000004_Node000009"><a xlink:title=" ">
<path fill="none" stroke="#63b8ff" d="M304.9,-219.98C338.4,-210.97 391.44,-196.7 428.38,-186.76"/>
<polygon fill="#63b8ff" stroke="#63b8ff" points="429.6,-190.06 438.35,-184.08 427.78,-183.3 429.6,-190.06"/>
</a>
</g>
</g>
<!-- Node9&#45;&gt;Node6 -->
<g id="edge10_Node000009_Node000006" class="edge">
<title>Node9&#45;&gt;Node6</title>
<g id="a_edge10_Node000009_Node000006"><a xlink:title=" ">
<path fill="none" stroke="#63b8ff" d="M432.46,-164.97C400.81,-157.27 354.76,-144.74 316.25,-129 304.33,-124.13 222.38,-83.98 214.25,-74 203.91,-61.31 199.2,-43.13 197.05,-29.47"/>
<polygon fill="#63b8ff" stroke="#63b8ff" points="200.49,-28.77 195.78,-19.28 193.54,-29.64 200.49,-28.77"/>
</a>
</g>
</g>
<!-- Node10 -->
<g id="Node000010" class="node">
<title>Node10</title>
<g id="a_Node000010"><a xlink:title=" ">
<polygon fill="#e0e0e0" stroke="#999999" points="167.25,-74 111.25,-74 111.25,-55 167.25,-55 167.25,-74"/>
<text text-anchor="middle" x="139.25" y="-62" font-family="Helvetica,sans-Serif" font-size="10.00">assert.h</text>
</a>
</g>
</g>
<!-- Node9&#45;&gt;Node10 -->
<g id="edge9_Node000009_Node000010" class="edge">
<title>Node9&#45;&gt;Node10</title>
<g id="a_edge9_Node000009_Node000010"><a xlink:title=" ">
<path fill="none" stroke="#63b8ff" d="M424.25,-164.98C385.99,-157.33 330.38,-144.85 283.25,-129 240.85,-114.74 193.8,-92.75 165.37,-78.75"/>
<polygon fill="#63b8ff" stroke="#63b8ff" points="166.65,-75.48 156.14,-74.16 163.53,-81.74 166.65,-75.48"/>
</a>
</g>
</g>
<!-- Node9&#45;&gt;Node11 -->
<g id="edge11_Node000009_Node000011" class="edge">
<title>Node9&#45;&gt;Node11</title>
<g id="a_edge11_Node000009_Node000011"><a xlink:title=" ">
<path fill="none" stroke="#63b8ff" d="M540.11,-165.37C639.19,-152.23 812.71,-122.77 850.25,-74 859.83,-61.55 860,-43.34 858.26,-29.61"/>
<polygon fill="#63b8ff" stroke="#63b8ff" points="861.64,-28.63 856.51,-19.36 854.74,-29.8 861.64,-28.63"/>
</a>
</g>
</g>
<!-- Node12 -->
<g id="Node000012" class="node">
<title>Node12</title>
<g id="a_Node000012"><a xlink:title=" ">
<polygon fill="#e0e0e0" stroke="#999999" points="389.25,-129 325.25,-129 325.25,-110 389.25,-110 389.25,-129"/>
<text text-anchor="middle" x="357.25" y="-117" font-family="Helvetica,sans-Serif" font-size="10.00">algorithm</text>
</a>
</g>
</g>
<!-- Node9&#45;&gt;Node12 -->
<g id="edge12_Node000009_Node000012" class="edge">
<title>Node9&#45;&gt;Node12</title>
<g id="a_edge12_Node000009_Node000012"><a xlink:title=" ">
<path fill="none" stroke="#63b8ff" d="M452.09,-164.98C433.99,-156.5 405.96,-143.35 385.06,-133.54"/>
<polygon fill="#63b8ff" stroke="#63b8ff" points="386.27,-130.25 375.73,-129.17 383.3,-136.59 386.27,-130.25"/>
</a>
</g>
</g>
<!-- Node13 -->
<g id="Node000013" class="node">
<title>Node13</title>
<g id="a_Node000013"><a xlink:title=" ">
<polygon fill="#e0e0e0" stroke="#999999" points="532.75,-129 407.75,-129 407.75,-110 532.75,-110 532.75,-129"/>
<text text-anchor="middle" x="470.25" y="-117" font-family="Helvetica,sans-Serif" font-size="10.00">boost/lexical_cast.hpp</text>
</a>
</g>
</g>
<!-- Node9&#45;&gt;Node13 -->
<g id="edge13_Node000009_Node000013" class="edge">
<title>Node9&#45;&gt;Node13</title>
<g id="a_edge13_Node000009_Node000013"><a xlink:title=" ">
<path fill="none" stroke="#63b8ff" d="M470.25,-164.75C470.25,-157.8 470.25,-147.85 470.25,-139.13"/>
<polygon fill="#63b8ff" stroke="#63b8ff" points="473.75,-139.09 470.25,-129.09 466.75,-139.09 473.75,-139.09"/>
</a>
</g>
</g>
<!-- Node14 -->
<g id="Node000014" class="node">
<title>Node14</title>
<g id="a_Node000014"><a xlink:href="ematch__src_2utils_2gdb_2gdbUtils_8hh.html" target="_top" xlink:title=" ">
<polygon fill="white" stroke="#666666" points="1070.75,-74 953.75,-74 953.75,-55 1070.75,-55 1070.75,-74"/>
<text text-anchor="middle" x="1012.25" y="-62" font-family="Helvetica,sans-Serif" font-size="10.00">utils/gdb/gdbUtils.hh</text>
</a>
</g>
</g>
<!-- Node9&#45;&gt;Node14 -->
<g id="edge14_Node000009_Node000014" class="edge">
<title>Node9&#45;&gt;Node14</title>
<g id="a_edge14_Node000009_Node000014"><a xlink:title=" ">
<path fill="none" stroke="#63b8ff" d="M539.84,-169.83C644.16,-163.72 835.81,-150.05 901.25,-129 935.83,-117.87 971.55,-95.03 992.83,-79.99"/>
<polygon fill="#63b8ff" stroke="#63b8ff" points="994.95,-82.77 1001.01,-74.08 990.86,-77.1 994.95,-82.77"/>
</a>
</g>
</g>
<!-- Node19 -->
<g id="Node000019" class="node">
<title>Node19</title>
<g id="a_Node000019"><a xlink:href="ematch__src_2utils_2perlish_2perlish_8hh.html" target="_top" xlink:title=" ">
<polygon fill="white" stroke="#666666" points="675.75,-129 550.75,-129 550.75,-110 675.75,-110 675.75,-129"/>
<text text-anchor="middle" x="613.25" y="-117" font-family="Helvetica,sans-Serif" font-size="10.00">utils/perlish/perlish.hh</text>
</a>
</g>
</g>
<!-- Node9&#45;&gt;Node19 -->
<g id="edge20_Node000009_Node000019" class="edge">
<title>Node9&#45;&gt;Node19</title>
<g id="a_edge20_Node000009_Node000019"><a xlink:title=" ">
<path fill="none" stroke="#63b8ff" d="M493.22,-164.98C516.74,-156.27 553.53,-142.63 580.18,-132.75"/>
<polygon fill="#63b8ff" stroke="#63b8ff" points="581.69,-135.93 589.85,-129.17 579.26,-129.36 581.69,-135.93"/>
</a>
</g>
</g>
<!-- Node14&#45;&gt;Node11 -->
<g id="edge16_Node000014_Node000011" class="edge">
<title>Node14&#45;&gt;Node11</title>
<g id="a_edge16_Node000014_Node000011"><a xlink:title=" ">
<path fill="none" stroke="#63b8ff" d="M986.86,-54.98C960.45,-46.13 918.9,-32.19 889.35,-22.28"/>
<polygon fill="#63b8ff" stroke="#63b8ff" points="890.42,-18.94 879.83,-19.08 888.2,-25.58 890.42,-18.94"/>
</a>
</g>
</g>
<!-- Node15 -->
<g id="Node000015" class="node">
<title>Node15</title>
<g id="a_Node000015"><a xlink:title=" ">
<polygon fill="#e0e0e0" stroke="#999999" points="964.75,-19 911.75,-19 911.75,0 964.75,0 964.75,-19"/>
<text text-anchor="middle" x="938.25" y="-7" font-family="Helvetica,sans-Serif" font-size="10.00">cstdarg</text>
</a>
</g>
</g>
<!-- Node14&#45;&gt;Node15 -->
<g id="edge15_Node000014_Node000015" class="edge">
<title>Node14&#45;&gt;Node15</title>
<g id="a_edge15_Node000014_Node000015"><a xlink:title=" ">
<path fill="none" stroke="#63b8ff" d="M1000.36,-54.98C989.1,-46.92 971.96,-34.65 958.54,-25.03"/>
<polygon fill="#63b8ff" stroke="#63b8ff" points="960.52,-22.15 950.35,-19.17 956.44,-27.84 960.52,-22.15"/>
</a>
</g>
</g>
<!-- Node16 -->
<g id="Node000016" class="node">
<title>Node16</title>
<g id="a_Node000016"><a xlink:title=" ">
<polygon fill="#e0e0e0" stroke="#999999" points="1031.75,-19 982.75,-19 982.75,0 1031.75,0 1031.75,-19"/>
<text text-anchor="middle" x="1007.25" y="-7" font-family="Helvetica,sans-Serif" font-size="10.00">cstdlib</text>
</a>
</g>
</g>
<!-- Node14&#45;&gt;Node16 -->
<g id="edge17_Node000014_Node000016" class="edge">
<title>Node14&#45;&gt;Node16</title>
<g id="a_edge17_Node000014_Node000016"><a xlink:title=" ">
<path fill="none" stroke="#63b8ff" d="M1011.42,-54.75C1010.77,-47.8 1009.83,-37.85 1009,-29.13"/>
<polygon fill="#63b8ff" stroke="#63b8ff" points="1012.48,-28.72 1008.06,-19.09 1005.51,-29.37 1012.48,-28.72"/>
</a>
</g>
</g>
<!-- Node17 -->
<g id="Node000017" class="node">
<title>Node17</title>
<g id="a_Node000017"><a xlink:title=" ">
<polygon fill="#e0e0e0" stroke="#999999" points="1096.25,-19 1050.25,-19 1050.25,0 1096.25,0 1096.25,-19"/>
<text text-anchor="middle" x="1073.25" y="-7" font-family="Helvetica,sans-Serif" font-size="10.00">cstdio</text>
</a>
</g>
</g>
<!-- Node14&#45;&gt;Node17 -->
<g id="edge18_Node000014_Node000017" class="edge">
<title>Node14&#45;&gt;Node17</title>
<g id="a_edge18_Node000014_Node000017"><a xlink:title=" ">
<path fill="none" stroke="#63b8ff" d="M1022.05,-54.98C1031.06,-47.15 1044.65,-35.34 1055.56,-25.86"/>
<polygon fill="#63b8ff" stroke="#63b8ff" points="1058.01,-28.37 1063.27,-19.17 1053.42,-23.09 1058.01,-28.37"/>
</a>
</g>
</g>
<!-- Node18 -->
<g id="Node000018" class="node">
<title>Node18</title>
<g id="a_Node000018"><a xlink:title=" ">
<polygon fill="#e0e0e0" stroke="#999999" points="1166.25,-19 1114.25,-19 1114.25,0 1166.25,0 1166.25,-19"/>
<text text-anchor="middle" x="1140.25" y="-7" font-family="Helvetica,sans-Serif" font-size="10.00">cassert</text>
</a>
</g>
</g>
<!-- Node14&#45;&gt;Node18 -->
<g id="edge19_Node000014_Node000018" class="edge">
<title>Node14&#45;&gt;Node18</title>
<g id="a_edge19_Node000014_Node000018"><a xlink:title=" ">
<path fill="none" stroke="#63b8ff" d="M1032.81,-54.98C1053.68,-46.34 1086.22,-32.87 1110.02,-23.02"/>
<polygon fill="#63b8ff" stroke="#63b8ff" points="1111.41,-26.23 1119.31,-19.17 1108.73,-19.76 1111.41,-26.23"/>
</a>
</g>
</g>
<!-- Node19&#45;&gt;Node5 -->
<g id="edge25_Node000019_Node000005" class="edge">
<title>Node19&#45;&gt;Node5</title>
<g id="a_edge25_Node000019_Node000005"><a xlink:title=" ">
<path fill="none" stroke="#63b8ff" d="M584.97,-109.99C559.8,-102 522.29,-89.04 491.25,-74 461.41,-59.55 429.21,-38.78 408.91,-24.98"/>
<polygon fill="#63b8ff" stroke="#63b8ff" points="410.69,-21.95 400.46,-19.17 406.72,-27.72 410.69,-21.95"/>
</a>
</g>
</g>
<!-- Node19&#45;&gt;Node6 -->
<g id="edge26_Node000019_Node000006" class="edge">
<title>Node19&#45;&gt;Node6</title>
<g id="a_edge26_Node000019_Node000006"><a xlink:title=" ">
<path fill="none" stroke="#63b8ff" d="M551.12,-109.96C472.7,-99.02 345.43,-80.67 324.25,-74 322.9,-73.58 259.41,-42.22 222.01,-23.74"/>
<polygon fill="#63b8ff" stroke="#63b8ff" points="223.19,-20.42 212.68,-19.12 220.09,-26.69 223.19,-20.42"/>
</a>
</g>
</g>
<!-- Node19&#45;&gt;Node7 -->
<g id="edge21_Node000019_Node000007" class="edge">
<title>Node19&#45;&gt;Node7</title>
<g id="a_edge21_Node000019_Node000007"><a xlink:title=" ">
<path fill="none" stroke="#63b8ff" d="M550.53,-110.34C471.37,-99.96 339.7,-82.36 291.25,-74 289.96,-73.78 288.65,-73.54 287.32,-73.3"/>
<polygon fill="#63b8ff" stroke="#63b8ff" points="287.58,-69.79 277.1,-71.34 286.26,-76.66 287.58,-69.79"/>
</a>
</g>
</g>
<!-- Node19&#45;&gt;Node10 -->
<g id="edge27_Node000019_Node000010" class="edge">
<title>Node19&#45;&gt;Node10</title>
<g id="a_edge27_Node000019_Node000010"><a xlink:title=" ">
<path fill="none" stroke="#63b8ff" d="M550.53,-110.96C547.73,-110.63 544.96,-110.31 542.25,-110 396.55,-93.28 360,-90.26 214.25,-74 202.26,-72.66 189.2,-71.19 177.38,-69.85"/>
<polygon fill="#63b8ff" stroke="#63b8ff" points="177.71,-66.36 167.38,-68.71 176.92,-73.32 177.71,-66.36"/>
</a>
</g>
</g>
<!-- Node19&#45;&gt;Node11 -->
<g id="edge22_Node000019_Node000011" class="edge">
<title>Node19&#45;&gt;Node11</title>
<g id="a_edge22_Node000019_Node000011"><a xlink:title=" ">
<path fill="none" stroke="#63b8ff" d="M675.99,-112.37C731.59,-105.77 807.38,-93.49 830.25,-74 843.27,-62.9 849.24,-43.97 851.97,-29.65"/>
<polygon fill="#63b8ff" stroke="#63b8ff" points="855.48,-29.82 853.54,-19.41 848.56,-28.76 855.48,-29.82"/>
</a>
</g>
</g>
<!-- Node19&#45;&gt;Node14 -->
<g id="edge29_Node000019_Node000014" class="edge">
<title>Node19&#45;&gt;Node14</title>
<g id="a_edge29_Node000019_Node000014"><a xlink:title=" ">
<path fill="none" stroke="#63b8ff" d="M676.03,-110.16C748.76,-100.5 868.2,-84.63 943.42,-74.64"/>
<polygon fill="#63b8ff" stroke="#63b8ff" points="944.27,-78.06 953.72,-73.27 943.35,-71.12 944.27,-78.06"/>
</a>
</g>
</g>
<!-- Node20 -->
<g id="Node000020" class="node">
<title>Node20</title>
<g id="a_Node000020"><a xlink:title=" ">
<polygon fill="#e0e0e0" stroke="#999999" points="554.75,-74 499.75,-74 499.75,-55 554.75,-55 554.75,-74"/>
<text text-anchor="middle" x="527.25" y="-62" font-family="Helvetica,sans-Serif" font-size="10.00">fstream</text>
</a>
</g>
</g>
<!-- Node19&#45;&gt;Node20 -->
<g id="edge23_Node000019_Node000020" class="edge">
<title>Node19&#45;&gt;Node20</title>
<g id="a_edge23_Node000019_Node000020"><a xlink:title=" ">
<path fill="none" stroke="#63b8ff" d="M599.43,-109.98C586.09,-101.77 565.67,-89.18 549.94,-79.49"/>
<polygon fill="#63b8ff" stroke="#63b8ff" points="551.66,-76.44 541.31,-74.17 547.99,-82.4 551.66,-76.44"/>
</a>
</g>
</g>
<!-- Node21 -->
<g id="Node000021" class="node">
<title>Node21</title>
<g id="a_Node000021"><a xlink:title=" ">
<polygon fill="#e0e0e0" stroke="#999999" points="629.25,-74 573.25,-74 573.25,-55 629.25,-55 629.25,-74"/>
<text text-anchor="middle" x="601.25" y="-62" font-family="Helvetica,sans-Serif" font-size="10.00">sstream</text>
</a>
</g>
</g>
<!-- Node19&#45;&gt;Node21 -->
<g id="edge24_Node000019_Node000021" class="edge">
<title>Node19&#45;&gt;Node21</title>
<g id="a_edge24_Node000019_Node000021"><a xlink:title=" ">
<path fill="none" stroke="#63b8ff" d="M611.26,-109.75C609.67,-102.72 607.39,-92.62 605.4,-83.84"/>
<polygon fill="#63b8ff" stroke="#63b8ff" points="608.81,-83.07 603.19,-74.09 601.99,-84.62 608.81,-83.07"/>
</a>
</g>
</g>
<!-- Node22 -->
<g id="Node000022" class="node">
<title>Node22</title>
<g id="a_Node000022"><a xlink:title=" ">
<polygon fill="#e0e0e0" stroke="#999999" points="752.75,-19 657.75,-19 657.75,0 752.75,0 752.75,-19"/>
<text text-anchor="middle" x="705.25" y="-7" font-family="Helvetica,sans-Serif" font-size="10.00">boost/regex.hpp</text>
</a>
</g>
</g>
<!-- Node19&#45;&gt;Node22 -->
<g id="edge28_Node000019_Node000022" class="edge">
<title>Node19&#45;&gt;Node22</title>
<g id="a_edge28_Node000019_Node000022"><a xlink:title=" ">
<path fill="none" stroke="#63b8ff" d="M620.77,-109.66C636.15,-91.61 671.36,-50.28 691.13,-27.08"/>
<polygon fill="#63b8ff" stroke="#63b8ff" points="694.05,-29.04 697.87,-19.16 688.72,-24.5 694.05,-29.04"/>
</a>
</g>
</g>
<!-- Node23 -->
<g id="Node000023" class="node">
<title>Node23</title>
<g id="a_Node000023"><a xlink:href="ematch__src_2utils_2stl_2stlTypes_8hh.html" target="_top" xlink:title=" ">
<polygon fill="white" stroke="#666666" points="443.25,-74 333.25,-74 333.25,-55 443.25,-55 443.25,-74"/>
<text text-anchor="middle" x="388.25" y="-62" font-family="Helvetica,sans-Serif" font-size="10.00">utils/stl/stlTypes.hh</text>
</a>
</g>
</g>
<!-- Node19&#45;&gt;Node23 -->
<g id="edge30_Node000019_Node000023" class="edge">
<title>Node19&#45;&gt;Node23</title>
<g id="a_edge30_Node000019_Node000023"><a xlink:title=" ">
<path fill="none" stroke="#63b8ff" d="M577.1,-109.98C538.34,-100.86 476.69,-86.33 434.44,-76.38"/>
<polygon fill="#63b8ff" stroke="#63b8ff" points="435.22,-72.97 424.68,-74.08 433.61,-79.78 435.22,-72.97"/>
</a>
</g>
</g>
<!-- Node24 -->
<g id="Node000024" class="node">
<title>Node24</title>
<g id="a_Node000024"><a xlink:href="ematch__src_2utils_2boost_2boostUtils_8hh.html" target="_top" xlink:title=" ">
<polygon fill="white" stroke="#666666" points="820.75,-74 685.75,-74 685.75,-55 820.75,-55 820.75,-74"/>
<text text-anchor="middle" x="753.25" y="-62" font-family="Helvetica,sans-Serif" font-size="10.00">utils/boost/boostUtils.hh</text>
</a>
</g>
</g>
<!-- Node19&#45;&gt;Node24 -->
<g id="edge33_Node000019_Node000024" class="edge">
<title>Node19&#45;&gt;Node24</title>
<g id="a_edge33_Node000019_Node000024"><a xlink:title=" ">
<path fill="none" stroke="#63b8ff" d="M635.74,-109.98C658.77,-101.27 694.79,-87.63 720.88,-77.75"/>
<polygon fill="#63b8ff" stroke="#63b8ff" points="722.23,-80.98 730.34,-74.17 719.75,-74.44 722.23,-80.98"/>
</a>
</g>
</g>
<!-- Node23&#45;&gt;Node5 -->
<g id="edge31_Node000023_Node000005" class="edge">
<title>Node23&#45;&gt;Node5</title>
<g id="a_edge31_Node000023_Node000005"><a xlink:title=" ">
<path fill="none" stroke="#63b8ff" d="M388.25,-54.75C388.25,-47.8 388.25,-37.85 388.25,-29.13"/>
<polygon fill="#63b8ff" stroke="#63b8ff" points="391.75,-29.09 388.25,-19.09 384.75,-29.09 391.75,-29.09"/>
</a>
</g>
</g>
<!-- Node23&#45;&gt;Node6 -->
<g id="edge32_Node000023_Node000006" class="edge">
<title>Node23&#45;&gt;Node6</title>
<g id="a_edge32_Node000023_Node000006"><a xlink:title=" ">
<path fill="none" stroke="#63b8ff" d="M357.24,-54.98C322.13,-45.34 265.13,-29.69 228.94,-19.75"/>
<polygon fill="#63b8ff" stroke="#63b8ff" points="229.45,-16.26 218.88,-16.99 227.59,-23.01 229.45,-16.26"/>
</a>
</g>
</g>
<!-- Node24&#45;&gt;Node11 -->
<g id="edge34_Node000024_Node000011" class="edge">
<title>Node24&#45;&gt;Node11</title>
<g id="a_edge34_Node000024_Node000011"><a xlink:title=" ">
<path fill="none" stroke="#63b8ff" d="M769.47,-54.98C785.43,-46.61 810.03,-33.7 828.62,-23.95"/>
<polygon fill="#63b8ff" stroke="#63b8ff" points="830.49,-26.92 837.72,-19.17 827.24,-20.72 830.49,-26.92"/>
</a>
</g>
</g>
<!-- Node24&#45;&gt;Node22 -->
<g id="edge35_Node000024_Node000022" class="edge">
<title>Node24&#45;&gt;Node22</title>
<g id="a_edge35_Node000024_Node000022"><a xlink:title=" ">
<path fill="none" stroke="#63b8ff" d="M745.32,-54.75C738.4,-47.11 728.18,-35.82 719.79,-26.56"/>
<polygon fill="#63b8ff" stroke="#63b8ff" points="722.33,-24.15 713.02,-19.09 717.14,-28.85 722.33,-24.15"/>
</a>
</g>
</g>
<!-- Node25&#45;&gt;Node4 -->
<g id="edge44_Node000025_Node000004" class="edge">
<title>Node25&#45;&gt;Node4</title>
<g id="a_edge44_Node000025_Node000004"><a xlink:title=" ">
<path fill="none" stroke="#63b8ff" d="M354.71,-345.93C328.52,-338.97 300.84,-326.68 283.25,-305 270.69,-289.52 269.55,-265.99 270.68,-249.53"/>
<polygon fill="#63b8ff" stroke="#63b8ff" points="274.18,-249.75 271.72,-239.44 267.22,-249.04 274.18,-249.75"/>
</a>
</g>
</g>
<!-- Node25&#45;&gt;Node9 -->
<g id="edge43_Node000025_Node000009" class="edge">
<title>Node25&#45;&gt;Node9</title>
<g id="a_edge43_Node000025_Node000009"><a xlink:title=" ">
<path fill="none" stroke="#63b8ff" d="M437.22,-340.85C445.04,-331.42 454.41,-318.35 459.25,-305 472.85,-267.47 472.9,-219.97 471.64,-194.2"/>
<polygon fill="#63b8ff" stroke="#63b8ff" points="475.12,-193.77 471.01,-184 468.13,-194.2 475.12,-193.77"/>
</a>
</g>
</g>
<!-- Node25&#45;&gt;Node14 -->
<g id="edge38_Node000025_Node000014" class="edge">
<title>Node25&#45;&gt;Node14</title>
<g id="a_edge38_Node000025_Node000014"><a xlink:title=" ">
<path fill="none" stroke="#63b8ff" d="M465.88,-340.99C555.5,-309.91 771.81,-229.88 935.25,-129 957.89,-115.02 981.07,-94.97 996,-81.15"/>
<polygon fill="#63b8ff" stroke="#63b8ff" points="998.51,-83.6 1003.39,-74.2 993.71,-78.5 998.51,-83.6"/>
</a>
</g>
</g>
<!-- Node26 -->
<g id="Node000026" class="node">
<title>Node26</title>
<g id="a_Node000026"><a xlink:href="FLArray_8hh.html" target="_top" xlink:title=" ">
<polygon fill="white" stroke="#666666" points="193.25,-129 59.25,-129 59.25,-110 193.25,-110 193.25,-129"/>
<text text-anchor="middle" x="126.25" y="-117" font-family="Helvetica,sans-Serif" font-size="10.00">utils/FLArray/FLArray.hh</text>
</a>
</g>
</g>
<!-- Node25&#45;&gt;Node26 -->
<g id="edge39_Node000025_Node000026" class="edge">
<title>Node25&#45;&gt;Node26</title>
<g id="a_edge39_Node000025_Node000026"><a xlink:title=" ">
<path fill="none" stroke="#63b8ff" d="M356.23,-340.97C327.66,-333.15 294.95,-321.57 268.25,-305 200.44,-262.92 152.76,-176 134.49,-138.44"/>
<polygon fill="#63b8ff" stroke="#63b8ff" points="137.58,-136.77 130.13,-129.23 131.25,-139.77 137.58,-136.77"/>
</a>
</g>
</g>
<!-- Node27 -->
<g id="Node000027" class="node">
<title>Node27</title>
<g id="a_Node000027"><a xlink:href="ConstResidueIndexSequenceBoundaries_8hh.html" target="_top" xlink:title=" ">
<polygon fill="white" stroke="#666666" points="450.25,-305 292.25,-305 292.25,-275 450.25,-275 450.25,-305"/>
<text text-anchor="start" x="300.25" y="-293" font-family="Helvetica,sans-Serif" font-size="10.00">ConstResidueIndexSequence</text>
<text text-anchor="middle" x="371.25" y="-282" font-family="Helvetica,sans-Serif" font-size="10.00">Boundaries.hh</text>
</a>
</g>
</g>
<!-- Node25&#45;&gt;Node27 -->
<g id="edge45_Node000025_Node000027" class="edge">
<title>Node25&#45;&gt;Node27</title>
<g id="a_edge45_Node000025_Node000027"><a xlink:title=" ">
<path fill="none" stroke="#63b8ff" d="M412.48,-340.8C405.69,-332.59 397,-322.1 389.36,-312.87"/>
<polygon fill="#63b8ff" stroke="#63b8ff" points="392.05,-310.63 382.98,-305.16 386.66,-315.1 392.05,-310.63"/>
</a>
</g>
</g>
<!-- Node26&#45;&gt;Node6 -->
<g id="edge41_Node000026_Node000006" class="edge">
<title>Node26&#45;&gt;Node6</title>
<g id="a_edge41_Node000026_Node000006"><a xlink:title=" ">
<path fill="none" stroke="#63b8ff" d="M108.24,-109.81C86.41,-98.07 54.27,-76.17 69.25,-55 90.04,-25.61 131.93,-15.5 161.7,-12.09"/>
<polygon fill="#63b8ff" stroke="#63b8ff" points="162.04,-15.58 171.67,-11.15 161.38,-8.61 162.04,-15.58"/>
</a>
</g>
</g>
<!-- Node26&#45;&gt;Node10 -->
<g id="edge40_Node000026_Node000010" class="edge">
<title>Node26&#45;&gt;Node10</title>
<g id="a_edge40_Node000026_Node000010"><a xlink:title=" ">
<path fill="none" stroke="#63b8ff" d="M128.39,-109.75C130.12,-102.72 132.59,-92.62 134.75,-83.84"/>
<polygon fill="#63b8ff" stroke="#63b8ff" points="138.16,-84.63 137.14,-74.09 131.36,-82.97 138.16,-84.63"/>
</a>
</g>
</g>
<!-- Node26&#45;&gt;Node11 -->
<g id="edge42_Node000026_Node000011" class="edge">
<title>Node26&#45;&gt;Node11</title>
<g id="a_edge42_Node000026_Node000011"><a xlink:title=" ">
<path fill="none" stroke="#63b8ff" d="M118.08,-109.99C106.26,-96.66 87.34,-70.75 102.25,-55 127.49,-28.34 725.62,-21.69 762.25,-19 779.17,-17.76 797.83,-16.09 813.89,-14.56"/>
<polygon fill="#63b8ff" stroke="#63b8ff" points="814.4,-18.03 824.02,-13.58 813.73,-11.06 814.4,-18.03"/>
</a>
</g>
</g>
<!-- Node27&#45;&gt;Node4 -->
<g id="edge46_Node000027_Node000004" class="edge">
<title>Node27&#45;&gt;Node4</title>
<g id="a_edge46_Node000027_Node000004"><a xlink:title=" ">
<path fill="none" stroke="#63b8ff" d="M347.52,-274.84C332.04,-265.6 311.93,-253.59 296.53,-244.4"/>
<polygon fill="#63b8ff" stroke="#63b8ff" points="298.02,-241.21 287.64,-239.09 294.44,-247.23 298.02,-241.21"/>
</a>
</g>
</g>
</g>
</svg>

<g id="navigator" transform="translate(0 0)" fill="#404254">
  <rect fill="#f2f5e9" fill-opacity="0.5" stroke="#606060" stroke-width=".5" x="0" y="0" width="60" height="60"/>
  <use id="zoomplus" xlink:href="#zoomPlus" x="17" y="9" onmousedown="handleZoom(evt,'in')"/>
  <use id="zoomminus" xlink:href="#zoomMin" x="42" y="9" onmousedown="handleZoom(evt,'out')"/>
  <use id="reset" xlink:href="#resetDef" x="30" y="36" onmousedown="handleReset()"/>
   <use id="arrowup" xlink:href="#arrowUp" x="0" y="0" onmousedown="handlePan(0,-1)"/>
  <use id="arrowright" xlink:href="#arrowRight" x="0" y="0" onmousedown="handlePan(1,0)"/>
  <use id="arrowdown" xlink:href="#arrowDown" x="0" y="0" onmousedown="handlePan(0,1)"/>
  <use id="arrowleft" xlink:href="#arrowLeft" x="0" y="0" onmousedown="handlePan(-1,0)"/>
</g>
<svg viewBox="0 0 15 15" width="100%" height="30px" preserveAspectRatio="xMaxYMin meet">
 <g id="arrow_out" transform="scale(0.3 0.3)">
  <a xlink:href="ResiduesIndexMap_8cc__incl_org.svg" target="_base">
   <rect id="button" ry="5" rx="5" y="6" x="6" height="38" width="38"
        fill="#f2f5e9" fill-opacity="0.5" stroke="#606060" stroke-width="1.0"/>
   <path id="arrow"
     d="M 11.500037,31.436501 C 11.940474,20.09759 22.043105,11.32322 32.158766,21.979434 L 37.068811,17.246167 C 37.068811,17.246167 37.088388,32 37.088388,32 L 22.160133,31.978069 C 22.160133,31.978069 26.997745,27.140456 26.997745,27.140456 C 18.528582,18.264221 13.291696,25.230495 11.500037,31.436501 z"
     style="fill:#404040;"/>
  </a>
 </g>
</svg>

<style type='text/css'>
<![CDATA[
[data-mouse-over-selected='false'] { opacity: 0.7; }
[data-mouse-over-selected='true']  { opacity: 1.0; }
]]>
</style>
<script type="application/ecmascript"><![CDATA[
document.addEventListener('DOMContentLoaded', (event) => {
  highlightEdges();
  highlightAdjacentNodes();
});
]]></script>
</svg>
