<?xml version="1.0" encoding="UTF-8" standalone="no"?>
<!DOCTYPE svg PUBLIC "-//W3C//DTD SVG 1.1//EN"
 "http://www.w3.org/Graphics/SVG/1.1/DTD/svg11.dtd">
<!-- Generated by graphviz version 2.43.0 (0)
 -->
<!-- Title: ematch_src/utils/sequence/ResidueIndexedSequence.cc Pages: 1 -->
<svg width="1141pt" height="379pt"
 viewBox="0.00 0.00 1141.00 379.00" xmlns="http://www.w3.org/2000/svg" xmlns:xlink="http://www.w3.org/1999/xlink">
<g id="graph0" class="graph" transform="scale(1 1) rotate(0) translate(4 375)">
<title>ematch_src/utils/sequence/ResidueIndexedSequence.cc</title>
<!-- Node1 -->
<g id="Node000001" class="node">
<title>Node1</title>
<g id="a_Node000001"><a xlink:title=" ">
<polygon fill="#999999" stroke="#666666" points="749,-371 591,-371 591,-341 749,-341 749,-371"/>
<text text-anchor="start" x="599" y="-359" font-family="Helvetica,sans-Serif" font-size="10.00">ematch_src/utils/sequence</text>
<text text-anchor="middle" x="670" y="-348" font-family="Helvetica,sans-Serif" font-size="10.00">/ResidueIndexedSequence.cc</text>
</a>
</g>
</g>
<!-- Node2 -->
<g id="Node000002" class="node">
<title>Node2</title>
<g id="a_Node000002"><a xlink:href="ResidueIndexedSequence_8hh.html" target="_top" xlink:title=" ">
<polygon fill="white" stroke="#666666" points="691,-305 535,-305 535,-286 691,-286 691,-305"/>
<text text-anchor="middle" x="613" y="-293" font-family="Helvetica,sans-Serif" font-size="10.00">ResidueIndexedSequence.hh</text>
</a>
</g>
</g>
<!-- Node1&#45;&gt;Node2 -->
<g id="edge1_Node000001_Node000002" class="edge">
<title>Node1&#45;&gt;Node2</title>
<g id="a_edge1_Node000001_Node000002"><a xlink:title=" ">
<path fill="none" stroke="#63b8ff" d="M656.2,-340.84C647.93,-332.35 637.38,-321.52 628.77,-312.69"/>
<polygon fill="#63b8ff" stroke="#63b8ff" points="631.03,-309.99 621.54,-305.27 626.01,-314.87 631.03,-309.99"/>
</a>
</g>
</g>
<!-- Node24 -->
<g id="Node000024" class="node">
<title>Node24</title>
<g id="a_Node000024"><a xlink:href="stringBinaryIO_8hh.html" target="_top" xlink:title=" ">
<polygon fill="white" stroke="#666666" points="804,-184 664,-184 664,-165 804,-165 804,-184"/>
<text text-anchor="middle" x="734" y="-172" font-family="Helvetica,sans-Serif" font-size="10.00">utils/stl/stringBinaryIO.hh</text>
</a>
</g>
</g>
<!-- Node1&#45;&gt;Node24 -->
<g id="edge36_Node000001_Node000024" class="edge">
<title>Node1&#45;&gt;Node24</title>
<g id="a_edge36_Node000001_Node000024"><a xlink:title=" ">
<path fill="none" stroke="#63b8ff" d="M680.07,-340.7C686.52,-331.01 694.66,-317.69 700,-305 715.95,-267.12 726.09,-219.78 730.83,-194.13"/>
<polygon fill="#63b8ff" stroke="#63b8ff" points="734.28,-194.72 732.59,-184.26 727.39,-193.49 734.28,-194.72"/>
</a>
</g>
</g>
<!-- Node3 -->
<g id="Node000003" class="node">
<title>Node3</title>
<g id="a_Node000003"><a xlink:title=" ">
<polygon fill="#e0e0e0" stroke="#999999" points="363,-19 303,-19 303,0 363,0 363,-19"/>
<text text-anchor="middle" x="333" y="-7" font-family="Helvetica,sans-Serif" font-size="10.00">iostream</text>
</a>
</g>
</g>
<!-- Node2&#45;&gt;Node3 -->
<g id="edge2_Node000002_Node000003" class="edge">
<title>Node2&#45;&gt;Node3</title>
<g id="a_edge2_Node000002_Node000003"><a xlink:title=" ">
<path fill="none" stroke="#63b8ff" d="M534.73,-287.3C418.03,-274.38 212,-242.13 212,-175.5 212,-175.5 212,-175.5 212,-118.5 212,-71.14 264.23,-39.4 300.06,-23.19"/>
<polygon fill="#63b8ff" stroke="#63b8ff" points="301.88,-26.21 309.67,-19.03 299.1,-19.79 301.88,-26.21"/>
</a>
</g>
</g>
<!-- Node4 -->
<g id="Node000004" class="node">
<title>Node4</title>
<g id="a_Node000004"><a xlink:href="ResidueIndexMap_8hh.html" target="_top" xlink:title=" ">
<polygon fill="white" stroke="#666666" points="699.5,-250 526.5,-250 526.5,-220 699.5,-220 699.5,-250"/>
<text text-anchor="start" x="534.5" y="-238" font-family="Helvetica,sans-Serif" font-size="10.00">ResidueIndexMap/ResidueIndex</text>
<text text-anchor="middle" x="613" y="-227" font-family="Helvetica,sans-Serif" font-size="10.00">Map.hh</text>
</a>
</g>
</g>
<!-- Node2&#45;&gt;Node4 -->
<g id="edge3_Node000002_Node000004" class="edge">
<title>Node2&#45;&gt;Node4</title>
<g id="a_edge3_Node000002_Node000004"><a xlink:title=" ">
<path fill="none" stroke="#63b8ff" d="M613,-285.87C613,-279.11 613,-269.35 613,-260.26"/>
<polygon fill="#63b8ff" stroke="#63b8ff" points="616.5,-260.11 613,-250.11 609.5,-260.11 616.5,-260.11"/>
</a>
</g>
</g>
<!-- Node5 -->
<g id="Node000005" class="node">
<title>Node5</title>
<g id="a_Node000005"><a xlink:title=" ">
<polygon fill="#e0e0e0" stroke="#999999" points="1133,-19 1089,-19 1089,0 1133,0 1133,-19"/>
<text text-anchor="middle" x="1111" y="-7" font-family="Helvetica,sans-Serif" font-size="10.00">string</text>
</a>
</g>
</g>
<!-- Node4&#45;&gt;Node5 -->
<g id="edge4_Node000004_Node000005" class="edge">
<title>Node4&#45;&gt;Node5</title>
<g id="a_edge4_Node000004_Node000005"><a xlink:title=" ">
<path fill="none" stroke="#63b8ff" d="M699.79,-230.36C764.81,-225.25 854.93,-213.06 929,-184 1008.31,-152.88 1033.99,-141.49 1086,-74 1096.28,-60.66 1102.86,-42.55 1106.67,-29.08"/>
<polygon fill="#63b8ff" stroke="#63b8ff" points="1110.14,-29.63 1109.24,-19.07 1103.36,-27.88 1110.14,-29.63"/>
</a>
</g>
</g>
<!-- Node6 -->
<g id="Node000006" class="node">
<title>Node6</title>
<g id="a_Node000006"><a xlink:title=" ">
<polygon fill="#e0e0e0" stroke="#999999" points="952.5,-19 905.5,-19 905.5,0 952.5,0 952.5,-19"/>
<text text-anchor="middle" x="929" y="-7" font-family="Helvetica,sans-Serif" font-size="10.00">vector</text>
</a>
</g>
</g>
<!-- Node4&#45;&gt;Node6 -->
<g id="edge5_Node000004_Node000006" class="edge">
<title>Node4&#45;&gt;Node6</title>
<g id="a_edge5_Node000004_Node000006"><a xlink:title=" ">
<path fill="none" stroke="#63b8ff" d="M699.65,-230.32C801.24,-220.7 964.66,-187.35 1035,-74 1054.33,-42.84 1000.59,-24.98 962.74,-16.55"/>
<polygon fill="#63b8ff" stroke="#63b8ff" points="963.07,-13.05 952.56,-14.42 961.63,-19.9 963.07,-13.05"/>
</a>
</g>
</g>
<!-- Node7 -->
<g id="Node000007" class="node">
<title>Node7</title>
<g id="a_Node000007"><a xlink:title=" ">
<polygon fill="#e0e0e0" stroke="#999999" points="443.5,-74 390.5,-74 390.5,-55 443.5,-55 443.5,-74"/>
<text text-anchor="middle" x="417" y="-62" font-family="Helvetica,sans-Serif" font-size="10.00">ctype.h</text>
</a>
</g>
</g>
<!-- Node4&#45;&gt;Node7 -->
<g id="edge6_Node000004_Node000007" class="edge">
<title>Node4&#45;&gt;Node7</title>
<g id="a_edge6_Node000004_Node000007"><a xlink:title=" ">
<path fill="none" stroke="#63b8ff" d="M599.64,-219.78C590.92,-210.11 579.6,-196.8 571,-184 550.26,-153.15 559.77,-134.72 532,-110 519.99,-99.3 482.45,-85.83 453.49,-76.53"/>
<polygon fill="#63b8ff" stroke="#63b8ff" points="454.25,-73.1 443.66,-73.42 452.14,-79.77 454.25,-73.1"/>
</a>
</g>
</g>
<!-- Node8 -->
<g id="Node000008" class="node">
<title>Node8</title>
<g id="a_Node000008"><a xlink:title=" ">
<polygon fill="#e0e0e0" stroke="#999999" points="645.5,-184 580.5,-184 580.5,-165 645.5,-165 645.5,-184"/>
<text text-anchor="middle" x="613" y="-172" font-family="Helvetica,sans-Serif" font-size="10.00">stdexcept</text>
</a>
</g>
</g>
<!-- Node4&#45;&gt;Node8 -->
<g id="edge7_Node000004_Node000008" class="edge">
<title>Node4&#45;&gt;Node8</title>
<g id="a_edge7_Node000004_Node000008"><a xlink:title=" ">
<path fill="none" stroke="#63b8ff" d="M613,-219.84C613,-212.21 613,-202.7 613,-194.45"/>
<polygon fill="#63b8ff" stroke="#63b8ff" points="616.5,-194.27 613,-184.27 609.5,-194.27 616.5,-194.27"/>
</a>
</g>
</g>
<!-- Node9 -->
<g id="Node000009" class="node">
<title>Node9</title>
<g id="a_Node000009"><a xlink:href="ematch__src_2utils_2FLArray_2FLEArray_8hh.html" target="_top" xlink:title=" ">
<polygon fill="white" stroke="#666666" points="470.5,-184 331.5,-184 331.5,-165 470.5,-165 470.5,-184"/>
<text text-anchor="middle" x="401" y="-172" font-family="Helvetica,sans-Serif" font-size="10.00">utils/FLArray/FLEArray.hh</text>
</a>
</g>
</g>
<!-- Node4&#45;&gt;Node9 -->
<g id="edge8_Node000004_Node000009" class="edge">
<title>Node4&#45;&gt;Node9</title>
<g id="a_edge8_Node000004_Node000009"><a xlink:title=" ">
<path fill="none" stroke="#63b8ff" d="M562.22,-219.99C525.32,-209.8 476.02,-196.2 441.7,-186.73"/>
<polygon fill="#63b8ff" stroke="#63b8ff" points="442.57,-183.34 432,-184.05 440.71,-190.09 442.57,-183.34"/>
</a>
</g>
</g>
<!-- Node9&#45;&gt;Node3 -->
<g id="edge11_Node000009_Node000003" class="edge">
<title>Node9&#45;&gt;Node3</title>
<g id="a_edge11_Node000009_Node000003"><a xlink:title=" ">
<path fill="none" stroke="#63b8ff" d="M365.26,-164.91C343.4,-158.16 316.07,-146.84 297,-129 276.97,-110.26 275.4,-100.67 269,-74 267.03,-65.79 265.09,-62.48 269,-55 276.11,-41.39 289.49,-31.1 302.19,-23.87"/>
<polygon fill="#63b8ff" stroke="#63b8ff" points="303.98,-26.88 311.21,-19.13 300.73,-20.68 303.98,-26.88"/>
</a>
</g>
</g>
<!-- Node9&#45;&gt;Node6 -->
<g id="edge10_Node000009_Node000006" class="edge">
<title>Node9&#45;&gt;Node6</title>
<g id="a_edge10_Node000009_Node000006"><a xlink:title=" ">
<path fill="none" stroke="#63b8ff" d="M427.22,-164.98C453.76,-156.28 495.9,-142.19 532,-129 616.73,-98.04 634.61,-80.97 721,-55 781.35,-36.86 853.66,-23.13 895.18,-15.99"/>
<polygon fill="#63b8ff" stroke="#63b8ff" points="896.02,-19.4 905.29,-14.28 894.85,-12.5 896.02,-19.4"/>
</a>
</g>
</g>
<!-- Node10 -->
<g id="Node000010" class="node">
<title>Node10</title>
<g id="a_Node000010"><a xlink:title=" ">
<polygon fill="#e0e0e0" stroke="#999999" points="334,-74 278,-74 278,-55 334,-55 334,-74"/>
<text text-anchor="middle" x="306" y="-62" font-family="Helvetica,sans-Serif" font-size="10.00">assert.h</text>
</a>
</g>
</g>
<!-- Node9&#45;&gt;Node10 -->
<g id="edge9_Node000009_Node000010" class="edge">
<title>Node9&#45;&gt;Node10</title>
<g id="a_edge9_Node000009_Node000010"><a xlink:title=" ">
<path fill="none" stroke="#63b8ff" d="M360.5,-164.91C340.84,-158.49 318.93,-147.52 307,-129 298.51,-115.82 299.14,-97.69 301.38,-84.18"/>
<polygon fill="#63b8ff" stroke="#63b8ff" points="304.87,-84.62 303.48,-74.12 298.01,-83.2 304.87,-84.62"/>
</a>
</g>
</g>
<!-- Node11 -->
<g id="Node000011" class="node">
<title>Node11</title>
<g id="a_Node000011"><a xlink:title=" ">
<polygon fill="#e0e0e0" stroke="#999999" points="380,-129 316,-129 316,-110 380,-110 380,-129"/>
<text text-anchor="middle" x="348" y="-117" font-family="Helvetica,sans-Serif" font-size="10.00">algorithm</text>
</a>
</g>
</g>
<!-- Node9&#45;&gt;Node11 -->
<g id="edge12_Node000009_Node000011" class="edge">
<title>Node9&#45;&gt;Node11</title>
<g id="a_edge12_Node000009_Node000011"><a xlink:title=" ">
<path fill="none" stroke="#63b8ff" d="M392.25,-164.75C384.53,-157.03 373.1,-145.6 363.78,-136.28"/>
<polygon fill="#63b8ff" stroke="#63b8ff" points="366.14,-133.69 356.59,-129.09 361.19,-138.64 366.14,-133.69"/>
</a>
</g>
</g>
<!-- Node12 -->
<g id="Node000012" class="node">
<title>Node12</title>
<g id="a_Node000012"><a xlink:title=" ">
<polygon fill="#e0e0e0" stroke="#999999" points="523.5,-129 398.5,-129 398.5,-110 523.5,-110 523.5,-129"/>
<text text-anchor="middle" x="461" y="-117" font-family="Helvetica,sans-Serif" font-size="10.00">boost/lexical_cast.hpp</text>
</a>
</g>
</g>
<!-- Node9&#45;&gt;Node12 -->
<g id="edge13_Node000009_Node000012" class="edge">
<title>Node9&#45;&gt;Node12</title>
<g id="a_edge13_Node000009_Node000012"><a xlink:title=" ">
<path fill="none" stroke="#63b8ff" d="M410.64,-164.98C419.51,-157.15 432.87,-145.34 443.61,-135.86"/>
<polygon fill="#63b8ff" stroke="#63b8ff" points="446.01,-138.41 451.18,-129.17 441.37,-133.17 446.01,-138.41"/>
</a>
</g>
</g>
<!-- Node13 -->
<g id="Node000013" class="node">
<title>Node13</title>
<g id="a_Node000013"><a xlink:href="ematch__src_2utils_2gdb_2gdbUtils_8hh.html" target="_top" xlink:title=" ">
<polygon fill="white" stroke="#666666" points="183.5,-74 66.5,-74 66.5,-55 183.5,-55 183.5,-74"/>
<text text-anchor="middle" x="125" y="-62" font-family="Helvetica,sans-Serif" font-size="10.00">utils/gdb/gdbUtils.hh</text>
</a>
</g>
</g>
<!-- Node9&#45;&gt;Node13 -->
<g id="edge14_Node000009_Node000013" class="edge">
<title>Node9&#45;&gt;Node13</title>
<g id="a_edge14_Node000009_Node000013"><a xlink:title=" ">
<path fill="none" stroke="#63b8ff" d="M357.62,-164.99C323.75,-157.6 275.9,-145.47 236,-129 202.96,-115.36 167.58,-93.76 145.86,-79.61"/>
<polygon fill="#63b8ff" stroke="#63b8ff" points="147.71,-76.64 137.44,-74.04 143.86,-82.48 147.71,-76.64"/>
</a>
</g>
</g>
<!-- Node18 -->
<g id="Node000018" class="node">
<title>Node18</title>
<g id="a_Node000018"><a xlink:href="ematch__src_2utils_2perlish_2perlish_8hh.html" target="_top" xlink:title=" ">
<polygon fill="white" stroke="#666666" points="781.5,-129 656.5,-129 656.5,-110 781.5,-110 781.5,-129"/>
<text text-anchor="middle" x="719" y="-117" font-family="Helvetica,sans-Serif" font-size="10.00">utils/perlish/perlish.hh</text>
</a>
</g>
</g>
<!-- Node9&#45;&gt;Node18 -->
<g id="edge20_Node000009_Node000018" class="edge">
<title>Node9&#45;&gt;Node18</title>
<g id="a_edge20_Node000009_Node000018"><a xlink:title=" ">
<path fill="none" stroke="#63b8ff" d="M452.09,-164.98C508.11,-155.65 597.95,-140.67 657.71,-130.71"/>
<polygon fill="#63b8ff" stroke="#63b8ff" points="658.48,-134.13 667.77,-129.04 657.33,-127.23 658.48,-134.13"/>
</a>
</g>
</g>
<!-- Node13&#45;&gt;Node3 -->
<g id="edge16_Node000013_Node000003" class="edge">
<title>Node13&#45;&gt;Node3</title>
<g id="a_edge16_Node000013_Node000003"><a xlink:title=" ">
<path fill="none" stroke="#63b8ff" d="M158.42,-54.98C195.08,-45.64 253.89,-30.66 292.98,-20.7"/>
<polygon fill="#63b8ff" stroke="#63b8ff" points="293.88,-24.08 302.71,-18.22 292.15,-17.3 293.88,-24.08"/>
</a>
</g>
</g>
<!-- Node14 -->
<g id="Node000014" class="node">
<title>Node14</title>
<g id="a_Node000014"><a xlink:title=" ">
<polygon fill="#e0e0e0" stroke="#999999" points="187.5,-19 134.5,-19 134.5,0 187.5,0 187.5,-19"/>
<text text-anchor="middle" x="161" y="-7" font-family="Helvetica,sans-Serif" font-size="10.00">cstdarg</text>
</a>
</g>
</g>
<!-- Node13&#45;&gt;Node14 -->
<g id="edge15_Node000013_Node000014" class="edge">
<title>Node13&#45;&gt;Node14</title>
<g id="a_edge15_Node000013_Node000014"><a xlink:title=" ">
<path fill="none" stroke="#63b8ff" d="M130.94,-54.75C135.98,-47.34 143.34,-36.5 149.51,-27.41"/>
<polygon fill="#63b8ff" stroke="#63b8ff" points="152.44,-29.33 155.17,-19.09 146.65,-25.39 152.44,-29.33"/>
</a>
</g>
</g>
<!-- Node15 -->
<g id="Node000015" class="node">
<title>Node15</title>
<g id="a_Node000015"><a xlink:title=" ">
<polygon fill="#e0e0e0" stroke="#999999" points="254.5,-19 205.5,-19 205.5,0 254.5,0 254.5,-19"/>
<text text-anchor="middle" x="230" y="-7" font-family="Helvetica,sans-Serif" font-size="10.00">cstdlib</text>
</a>
</g>
</g>
<!-- Node13&#45;&gt;Node15 -->
<g id="edge17_Node000013_Node000015" class="edge">
<title>Node13&#45;&gt;Node15</title>
<g id="a_edge17_Node000013_Node000015"><a xlink:title=" ">
<path fill="none" stroke="#63b8ff" d="M141.87,-54.98C158.61,-46.54 184.5,-33.47 203.89,-23.68"/>
<polygon fill="#63b8ff" stroke="#63b8ff" points="205.47,-26.8 212.82,-19.17 202.32,-20.55 205.47,-26.8"/>
</a>
</g>
</g>
<!-- Node16 -->
<g id="Node000016" class="node">
<title>Node16</title>
<g id="a_Node000016"><a xlink:title=" ">
<polygon fill="#e0e0e0" stroke="#999999" points="46,-19 0,-19 0,0 46,0 46,-19"/>
<text text-anchor="middle" x="23" y="-7" font-family="Helvetica,sans-Serif" font-size="10.00">cstdio</text>
</a>
</g>
</g>
<!-- Node13&#45;&gt;Node16 -->
<g id="edge18_Node000013_Node000016" class="edge">
<title>Node13&#45;&gt;Node16</title>
<g id="a_edge18_Node000013_Node000016"><a xlink:title=" ">
<path fill="none" stroke="#63b8ff" d="M108.61,-54.98C92.43,-46.57 67.43,-33.59 48.62,-23.81"/>
<polygon fill="#63b8ff" stroke="#63b8ff" points="50.17,-20.68 39.69,-19.17 46.95,-26.89 50.17,-20.68"/>
</a>
</g>
</g>
<!-- Node17 -->
<g id="Node000017" class="node">
<title>Node17</title>
<g id="a_Node000017"><a xlink:title=" ">
<polygon fill="#e0e0e0" stroke="#999999" points="116,-19 64,-19 64,0 116,0 116,-19"/>
<text text-anchor="middle" x="90" y="-7" font-family="Helvetica,sans-Serif" font-size="10.00">cassert</text>
</a>
</g>
</g>
<!-- Node13&#45;&gt;Node17 -->
<g id="edge19_Node000013_Node000017" class="edge">
<title>Node13&#45;&gt;Node17</title>
<g id="a_edge19_Node000013_Node000017"><a xlink:title=" ">
<path fill="none" stroke="#63b8ff" d="M119.22,-54.75C114.38,-47.42 107.32,-36.73 101.36,-27.7"/>
<polygon fill="#63b8ff" stroke="#63b8ff" points="104.1,-25.5 95.67,-19.09 98.26,-29.36 104.1,-25.5"/>
</a>
</g>
</g>
<!-- Node18&#45;&gt;Node3 -->
<g id="edge22_Node000018_Node000003" class="edge">
<title>Node18&#45;&gt;Node3</title>
<g id="a_edge22_Node000018_Node000003"><a xlink:title=" ">
<path fill="none" stroke="#63b8ff" d="M656.43,-110.77C609.97,-103.97 545.5,-92.24 491,-74 472.72,-67.88 469.72,-62.61 452,-55 423.98,-42.97 391.52,-30.95 367.58,-22.45"/>
<polygon fill="#63b8ff" stroke="#63b8ff" points="368.48,-19.05 357.89,-19.03 366.15,-25.65 368.48,-19.05"/>
</a>
</g>
</g>
<!-- Node18&#45;&gt;Node5 -->
<g id="edge25_Node000018_Node000005" class="edge">
<title>Node18&#45;&gt;Node5</title>
<g id="a_edge25_Node000018_Node000005"><a xlink:title=" ">
<path fill="none" stroke="#63b8ff" d="M781.6,-113.78C860.42,-107.13 990.89,-93.59 1035,-74 1059.66,-63.05 1082.65,-41.66 1096.74,-26.75"/>
<polygon fill="#63b8ff" stroke="#63b8ff" points="1099.45,-28.98 1103.62,-19.24 1094.28,-24.25 1099.45,-28.98"/>
</a>
</g>
</g>
<!-- Node18&#45;&gt;Node6 -->
<g id="edge26_Node000018_Node000006" class="edge">
<title>Node18&#45;&gt;Node6</title>
<g id="a_edge26_Node000018_Node000006"><a xlink:title=" ">
<path fill="none" stroke="#63b8ff" d="M771.43,-109.98C801.58,-103.42 839.26,-92.28 869,-74 888.69,-61.9 906.2,-41.71 917.14,-27.34"/>
<polygon fill="#63b8ff" stroke="#63b8ff" points="919.97,-29.41 923.07,-19.28 914.33,-25.26 919.97,-29.41"/>
</a>
</g>
</g>
<!-- Node18&#45;&gt;Node7 -->
<g id="edge21_Node000018_Node000007" class="edge">
<title>Node18&#45;&gt;Node7</title>
<g id="a_edge21_Node000018_Node000007"><a xlink:title=" ">
<path fill="none" stroke="#63b8ff" d="M665.41,-109.94C612.58,-101.36 529.59,-87.52 458,-74 456.71,-73.76 455.41,-73.51 454.09,-73.25"/>
<polygon fill="#63b8ff" stroke="#63b8ff" points="454.37,-69.74 443.88,-71.22 453,-76.6 454.37,-69.74"/>
</a>
</g>
</g>
<!-- Node18&#45;&gt;Node10 -->
<g id="edge27_Node000018_Node000010" class="edge">
<title>Node18&#45;&gt;Node10</title>
<g id="a_edge27_Node000018_Node000010"><a xlink:title=" ">
<path fill="none" stroke="#63b8ff" d="M656.27,-110.45C569.56,-99.32 415.7,-79.58 344.33,-70.42"/>
<polygon fill="#63b8ff" stroke="#63b8ff" points="344.38,-66.9 334.01,-69.09 343.49,-73.84 344.38,-66.9"/>
</a>
</g>
</g>
<!-- Node18&#45;&gt;Node13 -->
<g id="edge29_Node000018_Node000013" class="edge">
<title>Node18&#45;&gt;Node13</title>
<g id="a_edge29_Node000018_Node000013"><a xlink:title=" ">
<path fill="none" stroke="#63b8ff" d="M656.27,-112.9C544.24,-102.91 310.6,-82.06 194.12,-71.67"/>
<polygon fill="#63b8ff" stroke="#63b8ff" points="194.17,-68.16 183.9,-70.76 193.55,-75.13 194.17,-68.16"/>
</a>
</g>
</g>
<!-- Node19 -->
<g id="Node000019" class="node">
<title>Node19</title>
<g id="a_Node000019"><a xlink:title=" ">
<polygon fill="#e0e0e0" stroke="#999999" points="785.5,-74 730.5,-74 730.5,-55 785.5,-55 785.5,-74"/>
<text text-anchor="middle" x="758" y="-62" font-family="Helvetica,sans-Serif" font-size="10.00">fstream</text>
</a>
</g>
</g>
<!-- Node18&#45;&gt;Node19 -->
<g id="edge23_Node000018_Node000019" class="edge">
<title>Node18&#45;&gt;Node19</title>
<g id="a_edge23_Node000018_Node000019"><a xlink:title=" ">
<path fill="none" stroke="#63b8ff" d="M725.44,-109.75C730.89,-102.34 738.86,-91.5 745.56,-82.41"/>
<polygon fill="#63b8ff" stroke="#63b8ff" points="748.57,-84.22 751.68,-74.09 742.93,-80.07 748.57,-84.22"/>
</a>
</g>
</g>
<!-- Node20 -->
<g id="Node000020" class="node">
<title>Node20</title>
<g id="a_Node000020"><a xlink:title=" ">
<polygon fill="#e0e0e0" stroke="#999999" points="860,-74 804,-74 804,-55 860,-55 860,-74"/>
<text text-anchor="middle" x="832" y="-62" font-family="Helvetica,sans-Serif" font-size="10.00">sstream</text>
</a>
</g>
</g>
<!-- Node18&#45;&gt;Node20 -->
<g id="edge24_Node000018_Node000020" class="edge">
<title>Node18&#45;&gt;Node20</title>
<g id="a_edge24_Node000018_Node000020"><a xlink:title=" ">
<path fill="none" stroke="#63b8ff" d="M737.16,-109.98C755.25,-101.5 783.28,-88.35 804.19,-78.54"/>
<polygon fill="#63b8ff" stroke="#63b8ff" points="805.95,-81.59 813.51,-74.17 802.97,-75.25 805.95,-81.59"/>
</a>
</g>
</g>
<!-- Node21 -->
<g id="Node000021" class="node">
<title>Node21</title>
<g id="a_Node000021"><a xlink:title=" ">
<polygon fill="#e0e0e0" stroke="#999999" points="663.5,-19 568.5,-19 568.5,0 663.5,0 663.5,-19"/>
<text text-anchor="middle" x="616" y="-7" font-family="Helvetica,sans-Serif" font-size="10.00">boost/regex.hpp</text>
</a>
</g>
</g>
<!-- Node18&#45;&gt;Node21 -->
<g id="edge28_Node000018_Node000021" class="edge">
<title>Node18&#45;&gt;Node21</title>
<g id="a_edge28_Node000018_Node000021"><a xlink:title=" ">
<path fill="none" stroke="#63b8ff" d="M710.57,-109.66C693.21,-91.46 653.24,-49.55 631.23,-26.47"/>
<polygon fill="#63b8ff" stroke="#63b8ff" points="633.69,-23.98 624.26,-19.16 628.63,-28.81 633.69,-23.98"/>
</a>
</g>
</g>
<!-- Node22 -->
<g id="Node000022" class="node">
<title>Node22</title>
<g id="a_Node000022"><a xlink:href="ematch__src_2utils_2stl_2stlTypes_8hh.html" target="_top" xlink:title=" ">
<polygon fill="white" stroke="#666666" points="1026,-74 916,-74 916,-55 1026,-55 1026,-74"/>
<text text-anchor="middle" x="971" y="-62" font-family="Helvetica,sans-Serif" font-size="10.00">utils/stl/stlTypes.hh</text>
</a>
</g>
</g>
<!-- Node18&#45;&gt;Node22 -->
<g id="edge30_Node000018_Node000022" class="edge">
<title>Node18&#45;&gt;Node22</title>
<g id="a_edge30_Node000018_Node000022"><a xlink:title=" ">
<path fill="none" stroke="#63b8ff" d="M759.49,-109.98C803.17,-100.8 872.81,-86.15 920.15,-76.19"/>
<polygon fill="#63b8ff" stroke="#63b8ff" points="921.13,-79.57 930.19,-74.08 919.69,-72.72 921.13,-79.57"/>
</a>
</g>
</g>
<!-- Node23 -->
<g id="Node000023" class="node">
<title>Node23</title>
<g id="a_Node000023"><a xlink:href="ematch__src_2utils_2boost_2boostUtils_8hh.html" target="_top" xlink:title=" ">
<polygon fill="white" stroke="#666666" points="635.5,-74 500.5,-74 500.5,-55 635.5,-55 635.5,-74"/>
<text text-anchor="middle" x="568" y="-62" font-family="Helvetica,sans-Serif" font-size="10.00">utils/boost/boostUtils.hh</text>
</a>
</g>
</g>
<!-- Node18&#45;&gt;Node23 -->
<g id="edge33_Node000018_Node000023" class="edge">
<title>Node18&#45;&gt;Node23</title>
<g id="a_edge33_Node000018_Node000023"><a xlink:title=" ">
<path fill="none" stroke="#63b8ff" d="M694.74,-109.98C669.68,-101.19 630.37,-87.39 602.17,-77.49"/>
<polygon fill="#63b8ff" stroke="#63b8ff" points="603.3,-74.18 592.7,-74.17 600.98,-80.78 603.3,-74.18"/>
</a>
</g>
</g>
<!-- Node22&#45;&gt;Node5 -->
<g id="edge31_Node000022_Node000005" class="edge">
<title>Node22&#45;&gt;Node5</title>
<g id="a_edge31_Node000022_Node000005"><a xlink:title=" ">
<path fill="none" stroke="#63b8ff" d="M993.49,-54.98C1016.66,-46.21 1052.97,-32.47 1079.1,-22.58"/>
<polygon fill="#63b8ff" stroke="#63b8ff" points="1080.45,-25.81 1088.56,-18.99 1077.97,-19.26 1080.45,-25.81"/>
</a>
</g>
</g>
<!-- Node22&#45;&gt;Node6 -->
<g id="edge32_Node000022_Node000006" class="edge">
<title>Node22&#45;&gt;Node6</title>
<g id="a_edge32_Node000022_Node000006"><a xlink:title=" ">
<path fill="none" stroke="#63b8ff" d="M964.06,-54.75C958.13,-47.26 949.43,-36.28 942.18,-27.13"/>
<polygon fill="#63b8ff" stroke="#63b8ff" points="944.76,-24.75 935.81,-19.09 939.27,-29.1 944.76,-24.75"/>
</a>
</g>
</g>
<!-- Node23&#45;&gt;Node3 -->
<g id="edge34_Node000023_Node000003" class="edge">
<title>Node23&#45;&gt;Node3</title>
<g id="a_edge34_Node000023_Node000003"><a xlink:title=" ">
<path fill="none" stroke="#63b8ff" d="M530.24,-54.98C487.15,-45.27 416.97,-29.44 372.97,-19.51"/>
<polygon fill="#63b8ff" stroke="#63b8ff" points="373.72,-16.1 363.19,-17.31 372.18,-22.92 373.72,-16.1"/>
</a>
</g>
</g>
<!-- Node23&#45;&gt;Node21 -->
<g id="edge35_Node000023_Node000021" class="edge">
<title>Node23&#45;&gt;Node21</title>
<g id="a_edge35_Node000023_Node000021"><a xlink:title=" ">
<path fill="none" stroke="#63b8ff" d="M575.93,-54.75C582.85,-47.11 593.07,-35.82 601.45,-26.56"/>
<polygon fill="#63b8ff" stroke="#63b8ff" points="604.1,-28.85 608.22,-19.09 598.91,-24.15 604.1,-28.85"/>
</a>
</g>
</g>
<!-- Node24&#45;&gt;Node3 -->
<g id="edge37_Node000024_Node000003" class="edge">
<title>Node24&#45;&gt;Node3</title>
<g id="a_edge37_Node000024_Node000003"><a xlink:title=" ">
<path fill="none" stroke="#63b8ff" d="M708.66,-164.9C670.56,-152.12 596.14,-127.7 532,-110 465.49,-91.64 438.76,-111.74 381,-74 363.7,-62.7 350.24,-42.94 342.03,-28.46"/>
<polygon fill="#63b8ff" stroke="#63b8ff" points="345.01,-26.61 337.2,-19.44 338.84,-29.91 345.01,-26.61"/>
</a>
</g>
</g>
<!-- Node24&#45;&gt;Node5 -->
<g id="edge38_Node000024_Node000005" class="edge">
<title>Node24&#45;&gt;Node5</title>
<g id="a_edge38_Node000024_Node000005"><a xlink:title=" ">
<path fill="none" stroke="#63b8ff" d="M804.06,-165.2C874.71,-154.04 984.3,-128.84 1063,-74 1079.95,-62.19 1093.47,-42.52 1101.79,-28.19"/>
<polygon fill="#63b8ff" stroke="#63b8ff" points="1104.93,-29.74 1106.7,-19.29 1098.8,-26.36 1104.93,-29.74"/>
</a>
</g>
</g>
<!-- Node24&#45;&gt;Node18 -->
<g id="edge39_Node000024_Node000018" class="edge">
<title>Node24&#45;&gt;Node18</title>
<g id="a_edge39_Node000024_Node000018"><a xlink:title=" ">
<path fill="none" stroke="#63b8ff" d="M731.52,-164.75C729.54,-157.72 726.68,-147.62 724.19,-138.84"/>
<polygon fill="#63b8ff" stroke="#63b8ff" points="727.52,-137.76 721.43,-129.09 720.79,-139.66 727.52,-137.76"/>
</a>
</g>
</g>
</g>
</svg>
