<?xml version="1.0" encoding="UTF-8" standalone="no"?>
<!DOCTYPE svg PUBLIC "-//W3C//DTD SVG 1.1//EN"
 "http://www.w3.org/Graphics/SVG/1.1/DTD/svg11.dtd">
<!-- Generated by graphviz version 2.43.0 (0)
 -->
<!-- Title: ematch_src/utils/sequence/align/ResidueSimilarityAffineEdit.hh Pages: 1 -->
<!--zoomable 511 -->

<svg id="main" version="1.1" xmlns="http://www.w3.org/2000/svg" xmlns:xlink="http://www.w3.org/1999/xlink" xml:space="preserve" onload="init(evt)">
<style type="text/css"><![CDATA[
.node, .edge {opacity: 0.7;}
.node.selected, .edge.selected {opacity: 1;}
.edge:hover path { stroke: red; }
.edge:hover polygon { stroke: red; fill: red; }
]]></style>

<defs>
  <circle id="rim" cx="0" cy="0" r="7"/>
  <circle id="rim2" cx="0" cy="0" r="3.5"/>
  <g id="zoomPlus">
    <use xlink:href="#rim" fill="#404040"><set attributeName="fill" to="#808080" begin="zoomplus.mouseover" end="zoomplus.mouseout"/></use>
    <path d="M-4,0h8M0,-4v8" fill="none" stroke="white" stroke-width="1.5" pointer-events="none"/>
  </g>
  <g id="zoomMin">
    <use xlink:href="#rim" fill="#404040"><set attributeName="fill" to="#808080" begin="zoomminus.mouseover" end="zoomminus.mouseout"/></use>
    <path d="M-4,0h8" fill="none" stroke="white" stroke-width="1.5" pointer-events="none"/>
  </g>
  <g id="arrowUp" transform="translate(30 24)">
    <use xlink:href="#rim"/>
    <path pointer-events="none" fill="none" stroke="white" stroke-width="1.5" d="M0,-3.0v7 M-2.5,-0.5L0,-3.0L2.5,-0.5"/>
  </g>
  <g id="arrowRight" transform="rotate(90) translate(36 -43)">
    <use xlink:href="#rim"/>
    <path pointer-events="none" fill="none" stroke="white" stroke-width="1.5" d="M0,-3.0v7 M-2.5,-0.5L0,-3.0L2.5,-0.5"/>
  </g>
  <g id="arrowDown" transform="rotate(180) translate(-30 -48)">
    <use xlink:href="#rim"/>
    <path pointer-events="none" fill="none" stroke="white" stroke-width="1.5" d="M0,-3.0v7 M-2.5,-0.5L0,-3.0L2.5,-0.5"/>
  </g>
  <g id="arrowLeft" transform="rotate(270) translate(-36 17)">
    <use xlink:href="#rim"/>
    <path pointer-events="none" fill="none" stroke="white" stroke-width="1.5" d="M0,-3.0v7 M-2.5,-0.5L0,-3.0L2.5,-0.5"/>
  </g>
  <g id="resetDef">
    <use xlink:href="#rim2" fill="#404040"><set attributeName="fill" to="#808080" begin="reset.mouseover" end="reset.mouseout"/></use>
  </g>
</defs>
<script type="application/ecmascript">
var viewWidth = 1143;
var viewHeight = 511;
var sectionId = 'dynsection-0';
</script>
<script type="application/ecmascript" xlink:href="svg.min.js"/>
<svg id="graph" class="graph">
<g id="viewport">
<title>ematch_src/utils/sequence/align/ResidueSimilarityAffineEdit.hh</title>
<!-- Node1 -->
<g id="Node000001" class="node">
<title>Node1</title>
<g id="a_Node000001"><a xlink:title=" ">
<polygon fill="#999999" stroke="#666666" points="982.18,-503 821.18,-503 821.18,-462 982.18,-462 982.18,-503"/>
<text text-anchor="start" x="829.18" y="-491" font-family="Helvetica,sans-Serif" font-size="10.00">ematch_src/utils/sequence</text>
<text text-anchor="start" x="829.18" y="-480" font-family="Helvetica,sans-Serif" font-size="10.00">/align/ResidueSimilarityAffine</text>
<text text-anchor="middle" x="901.68" y="-469" font-family="Helvetica,sans-Serif" font-size="10.00">Edit.hh</text>
</a>
</g>
</g>
<!-- Node2 -->
<g id="Node000002" class="node">
<title>Node2</title>
<g id="a_Node000002"><a xlink:href="ResidueIndexMapPredefined_8hh.html" target="_top" xlink:title=" ">
<polygon fill="white" stroke="#666666" points="1134.68,-305 940.68,-305 940.68,-275 1134.68,-275 1134.68,-305"/>
<text text-anchor="start" x="948.68" y="-293" font-family="Helvetica,sans-Serif" font-size="10.00">utils/sequence/ResidueIndex</text>
<text text-anchor="middle" x="1037.68" y="-282" font-family="Helvetica,sans-Serif" font-size="10.00">Map/ResidueIndexMapPredefined.hh</text>
</a>
</g>
</g>
<!-- Node1&#45;&gt;Node2 -->
<g id="edge1_Node000001_Node000002" class="edge">
<title>Node1&#45;&gt;Node2</title>
<g id="a_edge1_Node000001_Node000002"><a xlink:title=" ">
<path fill="none" stroke="#63b8ff" d="M915.72,-461.83C941.1,-426.28 994.48,-351.51 1021.41,-313.79"/>
<polygon fill="#63b8ff" stroke="#63b8ff" points="1024.39,-315.64 1027.35,-305.47 1018.69,-311.58 1024.39,-315.64"/>
</a>
</g>
</g>
<!-- Node24 -->
<g id="Node000024" class="node">
<title>Node24</title>
<g id="a_Node000024"><a xlink:href="Alignment_8hh.html" target="_top" xlink:title=" ">
<polygon fill="white" stroke="#666666" points="837.68,-426 755.68,-426 755.68,-407 837.68,-407 837.68,-426"/>
<text text-anchor="middle" x="796.68" y="-414" font-family="Helvetica,sans-Serif" font-size="10.00">Alignment.hh</text>
</a>
</g>
</g>
<!-- Node1&#45;&gt;Node24 -->
<g id="edge36_Node000001_Node000024" class="edge">
<title>Node1&#45;&gt;Node24</title>
<g id="a_edge36_Node000001_Node000024"><a xlink:title=" ">
<path fill="none" stroke="#63b8ff" d="M869.6,-461.95C853.48,-452.12 834.3,-440.43 819.66,-431.51"/>
<polygon fill="#63b8ff" stroke="#63b8ff" points="821.13,-428.31 810.77,-426.09 817.49,-434.29 821.13,-428.31"/>
</a>
</g>
</g>
<!-- Node3 -->
<g id="Node000003" class="node">
<title>Node3</title>
<g id="a_Node000003"><a xlink:href="ResidueIndexMap_8hh.html" target="_top" xlink:title=" ">
<polygon fill="white" stroke="#666666" points="340.18,-239 221.18,-239 221.18,-220 340.18,-220 340.18,-239"/>
<text text-anchor="middle" x="280.68" y="-227" font-family="Helvetica,sans-Serif" font-size="10.00">ResidueIndexMap.hh</text>
</a>
</g>
</g>
<!-- Node2&#45;&gt;Node3 -->
<g id="edge2_Node000002_Node000003" class="edge">
<title>Node2&#45;&gt;Node3</title>
<g id="a_edge2_Node000002_Node000003"><a xlink:title=" ">
<path fill="none" stroke="#63b8ff" d="M940.65,-281.5C785.9,-269.54 486.82,-246.43 350.93,-235.93"/>
<polygon fill="#63b8ff" stroke="#63b8ff" points="350.89,-232.42 340.65,-235.13 350.35,-239.39 350.89,-232.42"/>
</a>
</g>
</g>
<!-- Node10 -->
<g id="Node000010" class="node">
<title>Node10</title>
<g id="a_Node000010"><a xlink:title=" ">
<polygon fill="#e0e0e0" stroke="#999999" points="953.68,-19 893.68,-19 893.68,0 953.68,0 953.68,-19"/>
<text text-anchor="middle" x="923.68" y="-7" font-family="Helvetica,sans-Serif" font-size="10.00">iostream</text>
</a>
</g>
</g>
<!-- Node2&#45;&gt;Node10 -->
<g id="edge35_Node000002_Node000010" class="edge">
<title>Node2&#45;&gt;Node10</title>
<g id="a_edge35_Node000002_Node000010"><a xlink:title=" ">
<path fill="none" stroke="#63b8ff" d="M1033.12,-274.84C1026.68,-253.52 1015.68,-211.83 1015.68,-175.5 1015.68,-175.5 1015.68,-175.5 1015.68,-118.5 1015.68,-88.33 1010.56,-78.53 991.68,-55 981.13,-41.86 965.62,-31.29 952.08,-23.76"/>
<polygon fill="#63b8ff" stroke="#63b8ff" points="953.58,-20.6 943.1,-19.04 950.32,-26.79 953.58,-20.6"/>
</a>
</g>
</g>
<!-- Node4 -->
<g id="Node000004" class="node">
<title>Node4</title>
<g id="a_Node000004"><a xlink:title=" ">
<polygon fill="#e0e0e0" stroke="#999999" points="256.68,-19 212.68,-19 212.68,0 256.68,0 256.68,-19"/>
<text text-anchor="middle" x="234.68" y="-7" font-family="Helvetica,sans-Serif" font-size="10.00">string</text>
</a>
</g>
</g>
<!-- Node3&#45;&gt;Node4 -->
<g id="edge3_Node000003_Node000004" class="edge">
<title>Node3&#45;&gt;Node4</title>
<g id="a_edge3_Node000003_Node000004"><a xlink:title=" ">
<path fill="none" stroke="#63b8ff" d="M280.58,-219.97C280.06,-194.37 276.9,-116.16 257.68,-55 254.75,-45.68 249.96,-35.97 245.51,-28.01"/>
<polygon fill="#63b8ff" stroke="#63b8ff" points="248.48,-26.16 240.4,-19.31 242.45,-29.7 248.48,-26.16"/>
</a>
</g>
</g>
<!-- Node5 -->
<g id="Node000005" class="node">
<title>Node5</title>
<g id="a_Node000005"><a xlink:title=" ">
<polygon fill="#e0e0e0" stroke="#999999" points="60.18,-19 13.18,-19 13.18,0 60.18,0 60.18,-19"/>
<text text-anchor="middle" x="36.68" y="-7" font-family="Helvetica,sans-Serif" font-size="10.00">vector</text>
</a>
</g>
</g>
<!-- Node3&#45;&gt;Node5 -->
<g id="edge4_Node000003_Node000005" class="edge">
<title>Node3&#45;&gt;Node5</title>
<g id="a_edge4_Node000003_Node000005"><a xlink:title=" ">
<path fill="none" stroke="#63b8ff" d="M221.07,-222.97C160.5,-213.98 68.81,-190.46 19.68,-129 -1.01,-103.12 2.02,-86.98 10.68,-55 13.33,-45.19 18.75,-35.33 23.95,-27.39"/>
<polygon fill="#63b8ff" stroke="#63b8ff" points="26.91,-29.27 29.79,-19.07 21.18,-25.25 26.91,-29.27"/>
</a>
</g>
</g>
<!-- Node6 -->
<g id="Node000006" class="node">
<title>Node6</title>
<g id="a_Node000006"><a xlink:title=" ">
<polygon fill="#e0e0e0" stroke="#999999" points="82.18,-74 29.18,-74 29.18,-55 82.18,-55 82.18,-74"/>
<text text-anchor="middle" x="55.68" y="-62" font-family="Helvetica,sans-Serif" font-size="10.00">ctype.h</text>
</a>
</g>
</g>
<!-- Node3&#45;&gt;Node6 -->
<g id="edge5_Node000003_Node000006" class="edge">
<title>Node3&#45;&gt;Node6</title>
<g id="a_edge5_Node000003_Node000006"><a xlink:title=" ">
<path fill="none" stroke="#63b8ff" d="M254.23,-219.9C232.83,-212.28 202.45,-199.89 178.68,-184 177.17,-182.99 105.61,-113.81 72.35,-81.63"/>
<polygon fill="#63b8ff" stroke="#63b8ff" points="74.4,-78.75 64.78,-74.31 69.54,-83.78 74.4,-78.75"/>
</a>
</g>
</g>
<!-- Node7 -->
<g id="Node000007" class="node">
<title>Node7</title>
<g id="a_Node000007"><a xlink:title=" ">
<polygon fill="#e0e0e0" stroke="#999999" points="252.18,-184 187.18,-184 187.18,-165 252.18,-165 252.18,-184"/>
<text text-anchor="middle" x="219.68" y="-172" font-family="Helvetica,sans-Serif" font-size="10.00">stdexcept</text>
</a>
</g>
</g>
<!-- Node3&#45;&gt;Node7 -->
<g id="edge6_Node000003_Node000007" class="edge">
<title>Node3&#45;&gt;Node7</title>
<g id="a_edge6_Node000003_Node000007"><a xlink:title=" ">
<path fill="none" stroke="#63b8ff" d="M270.88,-219.98C261.86,-212.15 248.27,-200.34 237.36,-190.86"/>
<polygon fill="#63b8ff" stroke="#63b8ff" points="239.5,-188.09 229.66,-184.17 234.91,-193.37 239.5,-188.09"/>
</a>
</g>
</g>
<!-- Node8 -->
<g id="Node000008" class="node">
<title>Node8</title>
<g id="a_Node000008"><a xlink:href="ematch__src_2utils_2FLArray_2FLEArray_8hh.html" target="_top" xlink:title=" ">
<polygon fill="white" stroke="#666666" points="590.18,-184 451.18,-184 451.18,-165 590.18,-165 590.18,-184"/>
<text text-anchor="middle" x="520.68" y="-172" font-family="Helvetica,sans-Serif" font-size="10.00">utils/FLArray/FLEArray.hh</text>
</a>
</g>
</g>
<!-- Node3&#45;&gt;Node8 -->
<g id="edge7_Node000003_Node000008" class="edge">
<title>Node3&#45;&gt;Node8</title>
<g id="a_edge7_Node000003_Node000008"><a xlink:title=" ">
<path fill="none" stroke="#63b8ff" d="M319.24,-219.98C360.75,-210.82 426.89,-196.21 471.97,-186.26"/>
<polygon fill="#63b8ff" stroke="#63b8ff" points="472.81,-189.66 481.82,-184.08 471.3,-182.82 472.81,-189.66"/>
</a>
</g>
</g>
<!-- Node8&#45;&gt;Node5 -->
<g id="edge9_Node000008_Node000005" class="edge">
<title>Node8&#45;&gt;Node5</title>
<g id="a_edge9_Node000008_Node000005"><a xlink:title=" ">
<path fill="none" stroke="#63b8ff" d="M453.57,-164.94C323.44,-147.66 47.11,-107.41 19.68,-74 8.97,-60.96 16.31,-41.79 24.41,-27.93"/>
<polygon fill="#63b8ff" stroke="#63b8ff" points="27.48,-29.63 29.93,-19.33 21.59,-25.85 27.48,-29.63"/>
</a>
</g>
</g>
<!-- Node9 -->
<g id="Node000009" class="node">
<title>Node9</title>
<g id="a_Node000009"><a xlink:title=" ">
<polygon fill="#e0e0e0" stroke="#999999" points="911.68,-74 855.68,-74 855.68,-55 911.68,-55 911.68,-74"/>
<text text-anchor="middle" x="883.68" y="-62" font-family="Helvetica,sans-Serif" font-size="10.00">assert.h</text>
</a>
</g>
</g>
<!-- Node8&#45;&gt;Node9 -->
<g id="edge8_Node000008_Node000009" class="edge">
<title>Node8&#45;&gt;Node9</title>
<g id="a_edge8_Node000008_Node000009"><a xlink:title=" ">
<path fill="none" stroke="#63b8ff" d="M556.02,-164.93C590.53,-156.4 644.45,-142.64 690.68,-129 746.89,-112.41 811.44,-90.61 849.82,-77.35"/>
<polygon fill="#63b8ff" stroke="#63b8ff" points="851.15,-80.59 859.46,-74 848.86,-73.97 851.15,-80.59"/>
</a>
</g>
</g>
<!-- Node8&#45;&gt;Node10 -->
<g id="edge10_Node000008_Node000010" class="edge">
<title>Node8&#45;&gt;Node10</title>
<g id="a_edge10_Node000008_Node000010"><a xlink:title=" ">
<path fill="none" stroke="#63b8ff" d="M590.26,-166.35C693.72,-154.13 880.28,-125.42 920.68,-74 930.47,-61.54 930.22,-43.07 928.11,-29.26"/>
<polygon fill="#63b8ff" stroke="#63b8ff" points="931.54,-28.53 926.18,-19.39 924.67,-29.88 931.54,-28.53"/>
</a>
</g>
</g>
<!-- Node11 -->
<g id="Node000011" class="node">
<title>Node11</title>
<g id="a_Node000011"><a xlink:title=" ">
<polygon fill="#e0e0e0" stroke="#999999" points="92.68,-129 28.68,-129 28.68,-110 92.68,-110 92.68,-129"/>
<text text-anchor="middle" x="60.68" y="-117" font-family="Helvetica,sans-Serif" font-size="10.00">algorithm</text>
</a>
</g>
</g>
<!-- Node8&#45;&gt;Node11 -->
<g id="edge11_Node000008_Node000011" class="edge">
<title>Node8&#45;&gt;Node11</title>
<g id="a_edge11_Node000008_Node000011"><a xlink:title=" ">
<path fill="none" stroke="#63b8ff" d="M450.89,-167.62C368.43,-160.3 227.21,-146.59 106.68,-129 105.41,-128.82 104.13,-128.62 102.83,-128.42"/>
<polygon fill="#63b8ff" stroke="#63b8ff" points="103.24,-124.94 92.8,-126.76 102.09,-131.84 103.24,-124.94"/>
</a>
</g>
</g>
<!-- Node12 -->
<g id="Node000012" class="node">
<title>Node12</title>
<g id="a_Node000012"><a xlink:title=" ">
<polygon fill="#e0e0e0" stroke="#999999" points="654.18,-129 529.18,-129 529.18,-110 654.18,-110 654.18,-129"/>
<text text-anchor="middle" x="591.68" y="-117" font-family="Helvetica,sans-Serif" font-size="10.00">boost/lexical_cast.hpp</text>
</a>
</g>
</g>
<!-- Node8&#45;&gt;Node12 -->
<g id="edge12_Node000008_Node000012" class="edge">
<title>Node8&#45;&gt;Node12</title>
<g id="a_edge12_Node000008_Node000012"><a xlink:title=" ">
<path fill="none" stroke="#63b8ff" d="M532.09,-164.98C542.79,-157 559.02,-144.88 571.84,-135.31"/>
<polygon fill="#63b8ff" stroke="#63b8ff" points="574.14,-137.96 580.06,-129.17 569.96,-132.35 574.14,-137.96"/>
</a>
</g>
</g>
<!-- Node13 -->
<g id="Node000013" class="node">
<title>Node13</title>
<g id="a_Node000013"><a xlink:href="ematch__src_2utils_2gdb_2gdbUtils_8hh.html" target="_top" xlink:title=" ">
<polygon fill="white" stroke="#666666" points="799.18,-74 682.18,-74 682.18,-55 799.18,-55 799.18,-74"/>
<text text-anchor="middle" x="740.68" y="-62" font-family="Helvetica,sans-Serif" font-size="10.00">utils/gdb/gdbUtils.hh</text>
</a>
</g>
</g>
<!-- Node8&#45;&gt;Node13 -->
<g id="edge13_Node000008_Node000013" class="edge">
<title>Node8&#45;&gt;Node13</title>
<g id="a_edge13_Node000008_Node000013"><a xlink:title=" ">
<path fill="none" stroke="#63b8ff" d="M562.75,-164.96C592.18,-157.91 631.77,-146.25 663.68,-129 687.34,-116.21 710.62,-95.58 725.28,-81.32"/>
<polygon fill="#63b8ff" stroke="#63b8ff" points="727.87,-83.68 732.49,-74.15 722.93,-78.72 727.87,-83.68"/>
</a>
</g>
</g>
<!-- Node18 -->
<g id="Node000018" class="node">
<title>Node18</title>
<g id="a_Node000018"><a xlink:href="ematch__src_2utils_2perlish_2perlish_8hh.html" target="_top" xlink:title=" ">
<polygon fill="white" stroke="#666666" points="511.18,-129 386.18,-129 386.18,-110 511.18,-110 511.18,-129"/>
<text text-anchor="middle" x="448.68" y="-117" font-family="Helvetica,sans-Serif" font-size="10.00">utils/perlish/perlish.hh</text>
</a>
</g>
</g>
<!-- Node8&#45;&gt;Node18 -->
<g id="edge19_Node000008_Node000018" class="edge">
<title>Node8&#45;&gt;Node18</title>
<g id="a_edge19_Node000008_Node000018"><a xlink:title=" ">
<path fill="none" stroke="#63b8ff" d="M509.11,-164.98C498.26,-157 481.8,-144.88 468.79,-135.31"/>
<polygon fill="#63b8ff" stroke="#63b8ff" points="470.59,-132.28 460.46,-129.17 466.44,-137.92 470.59,-132.28"/>
</a>
</g>
</g>
<!-- Node13&#45;&gt;Node10 -->
<g id="edge15_Node000013_Node000010" class="edge">
<title>Node13&#45;&gt;Node10</title>
<g id="a_edge15_Node000013_Node000010"><a xlink:title=" ">
<path fill="none" stroke="#63b8ff" d="M770.08,-54.98C801.07,-46.01 850.05,-31.82 884.35,-21.89"/>
<polygon fill="#63b8ff" stroke="#63b8ff" points="885.41,-25.23 894.05,-19.08 883.47,-18.5 885.41,-25.23"/>
</a>
</g>
</g>
<!-- Node14 -->
<g id="Node000014" class="node">
<title>Node14</title>
<g id="a_Node000014"><a xlink:title=" ">
<polygon fill="#e0e0e0" stroke="#999999" points="713.18,-19 660.18,-19 660.18,0 713.18,0 713.18,-19"/>
<text text-anchor="middle" x="686.68" y="-7" font-family="Helvetica,sans-Serif" font-size="10.00">cstdarg</text>
</a>
</g>
</g>
<!-- Node13&#45;&gt;Node14 -->
<g id="edge14_Node000013_Node000014" class="edge">
<title>Node13&#45;&gt;Node14</title>
<g id="a_edge14_Node000013_Node000014"><a xlink:title=" ">
<path fill="none" stroke="#63b8ff" d="M731.76,-54.75C723.9,-47.03 712.25,-35.6 702.76,-26.28"/>
<polygon fill="#63b8ff" stroke="#63b8ff" points="705.02,-23.6 695.43,-19.09 700.11,-28.59 705.02,-23.6"/>
</a>
</g>
</g>
<!-- Node15 -->
<g id="Node000015" class="node">
<title>Node15</title>
<g id="a_Node000015"><a xlink:title=" ">
<polygon fill="#e0e0e0" stroke="#999999" points="780.18,-19 731.18,-19 731.18,0 780.18,0 780.18,-19"/>
<text text-anchor="middle" x="755.68" y="-7" font-family="Helvetica,sans-Serif" font-size="10.00">cstdlib</text>
</a>
</g>
</g>
<!-- Node13&#45;&gt;Node15 -->
<g id="edge16_Node000013_Node000015" class="edge">
<title>Node13&#45;&gt;Node15</title>
<g id="a_edge16_Node000013_Node000015"><a xlink:title=" ">
<path fill="none" stroke="#63b8ff" d="M743.16,-54.75C745.14,-47.72 748,-37.62 750.49,-28.84"/>
<polygon fill="#63b8ff" stroke="#63b8ff" points="753.89,-29.66 753.25,-19.09 747.16,-27.76 753.89,-29.66"/>
</a>
</g>
</g>
<!-- Node16 -->
<g id="Node000016" class="node">
<title>Node16</title>
<g id="a_Node000016"><a xlink:title=" ">
<polygon fill="#e0e0e0" stroke="#999999" points="844.68,-19 798.68,-19 798.68,0 844.68,0 844.68,-19"/>
<text text-anchor="middle" x="821.68" y="-7" font-family="Helvetica,sans-Serif" font-size="10.00">cstdio</text>
</a>
</g>
</g>
<!-- Node13&#45;&gt;Node16 -->
<g id="edge17_Node000013_Node000016" class="edge">
<title>Node13&#45;&gt;Node16</title>
<g id="a_edge17_Node000013_Node000016"><a xlink:title=" ">
<path fill="none" stroke="#63b8ff" d="M753.69,-54.98C766.14,-46.84 785.13,-34.41 799.89,-24.76"/>
<polygon fill="#63b8ff" stroke="#63b8ff" points="801.98,-27.57 808.43,-19.17 798.14,-21.72 801.98,-27.57"/>
</a>
</g>
</g>
<!-- Node17 -->
<g id="Node000017" class="node">
<title>Node17</title>
<g id="a_Node000017"><a xlink:title=" ">
<polygon fill="#e0e0e0" stroke="#999999" points="641.68,-19 589.68,-19 589.68,0 641.68,0 641.68,-19"/>
<text text-anchor="middle" x="615.68" y="-7" font-family="Helvetica,sans-Serif" font-size="10.00">cassert</text>
</a>
</g>
</g>
<!-- Node13&#45;&gt;Node17 -->
<g id="edge18_Node000013_Node000017" class="edge">
<title>Node13&#45;&gt;Node17</title>
<g id="a_edge18_Node000013_Node000017"><a xlink:title=" ">
<path fill="none" stroke="#63b8ff" d="M720.59,-54.98C700.31,-46.38 668.72,-32.99 645.51,-23.15"/>
<polygon fill="#63b8ff" stroke="#63b8ff" points="646.7,-19.85 636.13,-19.17 643.97,-26.3 646.7,-19.85"/>
</a>
</g>
</g>
<!-- Node18&#45;&gt;Node4 -->
<g id="edge24_Node000018_Node000004" class="edge">
<title>Node18&#45;&gt;Node4</title>
<g id="a_edge24_Node000018_Node000004"><a xlink:title=" ">
<path fill="none" stroke="#63b8ff" d="M431.53,-109.84C394.1,-90.96 304.93,-45.96 260.61,-23.59"/>
<polygon fill="#63b8ff" stroke="#63b8ff" points="262.12,-20.43 251.61,-19.05 258.96,-26.68 262.12,-20.43"/>
</a>
</g>
</g>
<!-- Node18&#45;&gt;Node5 -->
<g id="edge25_Node000018_Node000005" class="edge">
<title>Node18&#45;&gt;Node5</title>
<g id="a_edge25_Node000018_Node000005"><a xlink:title=" ">
<path fill="none" stroke="#63b8ff" d="M386.02,-118.14C320.12,-115.86 214.43,-106.76 129.68,-74 100.53,-62.73 71.52,-40.78 53.85,-25.88"/>
<polygon fill="#63b8ff" stroke="#63b8ff" points="55.98,-23.1 46.13,-19.21 51.4,-28.39 55.98,-23.1"/>
</a>
</g>
</g>
<!-- Node18&#45;&gt;Node6 -->
<g id="edge20_Node000018_Node000006" class="edge">
<title>Node18&#45;&gt;Node6</title>
<g id="a_edge20_Node000018_Node000006"><a xlink:title=" ">
<path fill="none" stroke="#63b8ff" d="M386.15,-112.1C315.6,-104.53 197.54,-90.8 96.68,-74 95.39,-73.78 94.08,-73.56 92.75,-73.32"/>
<polygon fill="#63b8ff" stroke="#63b8ff" points="93.01,-69.81 82.53,-71.38 91.7,-76.69 93.01,-69.81"/>
</a>
</g>
</g>
<!-- Node18&#45;&gt;Node9 -->
<g id="edge26_Node000018_Node000009" class="edge">
<title>Node18&#45;&gt;Node9</title>
<g id="a_edge26_Node000018_Node000009"><a xlink:title=" ">
<path fill="none" stroke="#63b8ff" d="M511.5,-111.06C514.61,-110.7 517.68,-110.35 520.68,-110 663.3,-93.58 699.85,-96.26 841.68,-74 842.78,-73.83 843.9,-73.65 845.02,-73.46"/>
<polygon fill="#63b8ff" stroke="#63b8ff" points="846.06,-76.83 855.27,-71.6 844.81,-69.94 846.06,-76.83"/>
</a>
</g>
</g>
<!-- Node18&#45;&gt;Node10 -->
<g id="edge21_Node000018_Node000010" class="edge">
<title>Node18&#45;&gt;Node10</title>
<g id="a_edge21_Node000018_Node000010"><a xlink:title=" ">
<path fill="none" stroke="#63b8ff" d="M511.51,-111.04C612.81,-98.97 801.68,-76.27 808.68,-74 818.26,-70.89 869.41,-41.81 900.18,-24.1"/>
<polygon fill="#63b8ff" stroke="#63b8ff" points="902.09,-27.04 909,-19.01 898.59,-20.98 902.09,-27.04"/>
</a>
</g>
</g>
<!-- Node18&#45;&gt;Node13 -->
<g id="edge28_Node000018_Node000013" class="edge">
<title>Node18&#45;&gt;Node13</title>
<g id="a_edge28_Node000018_Node000013"><a xlink:title=" ">
<path fill="none" stroke="#63b8ff" d="M495.59,-109.98C546.74,-100.7 628.6,-85.84 683.48,-75.88"/>
<polygon fill="#63b8ff" stroke="#63b8ff" points="684.18,-79.31 693.4,-74.08 682.93,-72.42 684.18,-79.31"/>
</a>
</g>
</g>
<!-- Node19 -->
<g id="Node000019" class="node">
<title>Node19</title>
<g id="a_Node000019"><a xlink:title=" ">
<polygon fill="#e0e0e0" stroke="#999999" points="589.18,-74 534.18,-74 534.18,-55 589.18,-55 589.18,-74"/>
<text text-anchor="middle" x="561.68" y="-62" font-family="Helvetica,sans-Serif" font-size="10.00">fstream</text>
</a>
</g>
</g>
<!-- Node18&#45;&gt;Node19 -->
<g id="edge22_Node000018_Node000019" class="edge">
<title>Node18&#45;&gt;Node19</title>
<g id="a_edge22_Node000018_Node000019"><a xlink:title=" ">
<path fill="none" stroke="#63b8ff" d="M466.83,-109.98C484.93,-101.5 512.96,-88.35 533.87,-78.54"/>
<polygon fill="#63b8ff" stroke="#63b8ff" points="535.63,-81.59 543.19,-74.17 532.65,-75.25 535.63,-81.59"/>
</a>
</g>
</g>
<!-- Node20 -->
<g id="Node000020" class="node">
<title>Node20</title>
<g id="a_Node000020"><a xlink:title=" ">
<polygon fill="#e0e0e0" stroke="#999999" points="663.68,-74 607.68,-74 607.68,-55 663.68,-55 663.68,-74"/>
<text text-anchor="middle" x="635.68" y="-62" font-family="Helvetica,sans-Serif" font-size="10.00">sstream</text>
</a>
</g>
</g>
<!-- Node18&#45;&gt;Node20 -->
<g id="edge23_Node000018_Node000020" class="edge">
<title>Node18&#45;&gt;Node20</title>
<g id="a_edge23_Node000018_Node000020"><a xlink:title=" ">
<path fill="none" stroke="#63b8ff" d="M478.72,-109.98C511.05,-100.82 562.53,-86.23 597.65,-76.28"/>
<polygon fill="#63b8ff" stroke="#63b8ff" points="598.88,-79.57 607.54,-73.47 596.97,-72.83 598.88,-79.57"/>
</a>
</g>
</g>
<!-- Node21 -->
<g id="Node000021" class="node">
<title>Node21</title>
<g id="a_Node000021"><a xlink:title=" ">
<polygon fill="#e0e0e0" stroke="#999999" points="448.18,-19 353.18,-19 353.18,0 448.18,0 448.18,-19"/>
<text text-anchor="middle" x="400.68" y="-7" font-family="Helvetica,sans-Serif" font-size="10.00">boost/regex.hpp</text>
</a>
</g>
</g>
<!-- Node18&#45;&gt;Node21 -->
<g id="edge27_Node000018_Node000021" class="edge">
<title>Node18&#45;&gt;Node21</title>
<g id="a_edge27_Node000018_Node000021"><a xlink:title=" ">
<path fill="none" stroke="#63b8ff" d="M420.29,-109.92C403.21,-103.13 382.87,-91.77 372.68,-74 363.93,-58.74 374.27,-40.23 384.77,-27.14"/>
<polygon fill="#63b8ff" stroke="#63b8ff" points="387.57,-29.25 391.49,-19.41 382.29,-24.66 387.57,-29.25"/>
</a>
</g>
</g>
<!-- Node22 -->
<g id="Node000022" class="node">
<title>Node22</title>
<g id="a_Node000022"><a xlink:href="ematch__src_2utils_2stl_2stlTypes_8hh.html" target="_top" xlink:title=" ">
<polygon fill="white" stroke="#666666" points="248.68,-74 138.68,-74 138.68,-55 248.68,-55 248.68,-74"/>
<text text-anchor="middle" x="193.68" y="-62" font-family="Helvetica,sans-Serif" font-size="10.00">utils/stl/stlTypes.hh</text>
</a>
</g>
</g>
<!-- Node18&#45;&gt;Node22 -->
<g id="edge29_Node000018_Node000022" class="edge">
<title>Node18&#45;&gt;Node22</title>
<g id="a_edge29_Node000018_Node000022"><a xlink:title=" ">
<path fill="none" stroke="#63b8ff" d="M407.71,-109.98C363.41,-100.78 292.74,-86.09 244.83,-76.13"/>
<polygon fill="#63b8ff" stroke="#63b8ff" points="245.47,-72.69 234.97,-74.08 244.05,-79.54 245.47,-72.69"/>
</a>
</g>
</g>
<!-- Node23 -->
<g id="Node000023" class="node">
<title>Node23</title>
<g id="a_Node000023"><a xlink:href="ematch__src_2utils_2boost_2boostUtils_8hh.html" target="_top" xlink:title=" ">
<polygon fill="white" stroke="#666666" points="516.18,-74 381.18,-74 381.18,-55 516.18,-55 516.18,-74"/>
<text text-anchor="middle" x="448.68" y="-62" font-family="Helvetica,sans-Serif" font-size="10.00">utils/boost/boostUtils.hh</text>
</a>
</g>
</g>
<!-- Node18&#45;&gt;Node23 -->
<g id="edge32_Node000018_Node000023" class="edge">
<title>Node18&#45;&gt;Node23</title>
<g id="a_edge32_Node000018_Node000023"><a xlink:title=" ">
<path fill="none" stroke="#63b8ff" d="M448.68,-109.75C448.68,-102.8 448.68,-92.85 448.68,-84.13"/>
<polygon fill="#63b8ff" stroke="#63b8ff" points="452.18,-84.09 448.68,-74.09 445.18,-84.09 452.18,-84.09"/>
</a>
</g>
</g>
<!-- Node22&#45;&gt;Node4 -->
<g id="edge30_Node000022_Node000004" class="edge">
<title>Node22&#45;&gt;Node4</title>
<g id="a_edge30_Node000022_Node000004"><a xlink:title=" ">
<path fill="none" stroke="#63b8ff" d="M200.45,-54.75C206.24,-47.26 214.74,-36.28 221.82,-27.13"/>
<polygon fill="#63b8ff" stroke="#63b8ff" points="224.68,-29.14 228.03,-19.09 219.15,-24.86 224.68,-29.14"/>
</a>
</g>
</g>
<!-- Node22&#45;&gt;Node5 -->
<g id="edge31_Node000022_Node000005" class="edge">
<title>Node22&#45;&gt;Node5</title>
<g id="a_edge31_Node000022_Node000005"><a xlink:title=" ">
<path fill="none" stroke="#63b8ff" d="M168.45,-54.98C141.78,-45.98 99.57,-31.73 70.13,-21.79"/>
<polygon fill="#63b8ff" stroke="#63b8ff" points="70.89,-18.36 60.3,-18.47 68.65,-24.99 70.89,-18.36"/>
</a>
</g>
</g>
<!-- Node23&#45;&gt;Node10 -->
<g id="edge33_Node000023_Node000010" class="edge">
<title>Node23&#45;&gt;Node10</title>
<g id="a_edge33_Node000023_Node000010"><a xlink:title=" ">
<path fill="none" stroke="#63b8ff" d="M516.28,-56.03C519.46,-55.68 522.6,-55.34 525.68,-55 671.45,-38.95 707.99,-35.84 853.68,-19 863.23,-17.9 873.52,-16.67 883.18,-15.5"/>
<polygon fill="#63b8ff" stroke="#63b8ff" points="883.86,-18.94 893.37,-14.26 883.02,-11.99 883.86,-18.94"/>
</a>
</g>
</g>
<!-- Node23&#45;&gt;Node21 -->
<g id="edge34_Node000023_Node000021" class="edge">
<title>Node23&#45;&gt;Node21</title>
<g id="a_edge34_Node000023_Node000021"><a xlink:title=" ">
<path fill="none" stroke="#63b8ff" d="M440.75,-54.75C433.83,-47.11 423.61,-35.82 415.23,-26.56"/>
<polygon fill="#63b8ff" stroke="#63b8ff" points="417.76,-24.15 408.46,-19.09 412.58,-28.85 417.76,-24.15"/>
</a>
</g>
</g>
<!-- Node24&#45;&gt;Node3 -->
<g id="edge40_Node000024_Node000003" class="edge">
<title>Node24&#45;&gt;Node3</title>
<g id="a_edge40_Node000024_Node000003"><a xlink:title=" ">
<path fill="none" stroke="#63b8ff" d="M772.83,-406.95C689.46,-377.06 410.92,-277.2 314.15,-242.5"/>
<polygon fill="#63b8ff" stroke="#63b8ff" points="315.17,-239.15 304.57,-239.07 312.81,-245.74 315.17,-239.15"/>
</a>
</g>
</g>
<!-- Node24&#45;&gt;Node4 -->
<g id="edge37_Node000024_Node000004" class="edge">
<title>Node24&#45;&gt;Node4</title>
<g id="a_edge37_Node000024_Node000004"><a xlink:title=" ">
<path fill="none" stroke="#63b8ff" d="M755.3,-414.24C636.62,-410.35 296.68,-397.17 188.68,-371 100.43,-349.62 0.68,-381.81 0.68,-291 0.68,-291 0.68,-291 0.68,-118.5 0.68,-89.04 -2.03,-74.91 19.68,-55 45.96,-30.9 148.68,-18.26 202.06,-13.2"/>
<polygon fill="#63b8ff" stroke="#63b8ff" points="202.71,-16.65 212.35,-12.26 202.07,-9.68 202.71,-16.65"/>
</a>
</g>
</g>
<!-- Node24&#45;&gt;Node9 -->
<g id="edge39_Node000024_Node000009" class="edge">
<title>Node24&#45;&gt;Node9</title>
<g id="a_edge39_Node000024_Node000009"><a xlink:title=" ">
<path fill="none" stroke="#63b8ff" d="M798.93,-406.81C803.97,-386.63 815.68,-334.95 815.68,-291 815.68,-291 815.68,-291 815.68,-173.5 815.68,-135.75 845.8,-100.41 865.95,-80.99"/>
<polygon fill="#63b8ff" stroke="#63b8ff" points="868.39,-83.5 873.35,-74.13 863.64,-78.36 868.39,-83.5"/>
</a>
</g>
</g>
<!-- Node24&#45;&gt;Node11 -->
<g id="edge38_Node000024_Node000011" class="edge">
<title>Node24&#45;&gt;Node11</title>
<g id="a_edge38_Node000024_Node000011"><a xlink:title=" ">
<path fill="none" stroke="#63b8ff" d="M755.67,-412.64C604.99,-401.61 90.68,-358.99 90.68,-291 90.68,-291 90.68,-291 90.68,-228.5 90.68,-195.87 77.81,-159.65 68.93,-138.55"/>
<polygon fill="#63b8ff" stroke="#63b8ff" points="72.07,-136.99 64.85,-129.23 65.65,-139.8 72.07,-136.99"/>
</a>
</g>
</g>
<!-- Node25 -->
<g id="Node000025" class="node">
<title>Node25</title>
<g id="a_Node000025"><a xlink:href="AminoScore_8hh.html" target="_top" xlink:title=" ">
<polygon fill="white" stroke="#666666" points="969.68,-371 855.68,-371 855.68,-341 969.68,-341 969.68,-371"/>
<text text-anchor="start" x="863.68" y="-359" font-family="Helvetica,sans-Serif" font-size="10.00">utils/sequence/align</text>
<text text-anchor="middle" x="912.68" y="-348" font-family="Helvetica,sans-Serif" font-size="10.00">/AminoScore.hh</text>
</a>
</g>
</g>
<!-- Node24&#45;&gt;Node25 -->
<g id="edge41_Node000024_Node000025" class="edge">
<title>Node24&#45;&gt;Node25</title>
<g id="a_edge41_Node000024_Node000025"><a xlink:title=" ">
<path fill="none" stroke="#63b8ff" d="M813.79,-406.87C829.97,-398.71 854.78,-386.2 875.5,-375.75"/>
<polygon fill="#63b8ff" stroke="#63b8ff" points="877.34,-378.74 884.69,-371.11 874.19,-372.49 877.34,-378.74"/>
</a>
</g>
</g>
<!-- Node25&#45;&gt;Node2 -->
<g id="edge43_Node000025_Node000002" class="edge">
<title>Node25&#45;&gt;Node2</title>
<g id="a_edge43_Node000025_Node000002"><a xlink:title=" ">
<path fill="none" stroke="#63b8ff" d="M940.11,-340.95C958.1,-331.74 981.83,-319.6 1001.38,-309.59"/>
<polygon fill="#63b8ff" stroke="#63b8ff" points="1003,-312.69 1010.31,-305.01 999.81,-306.45 1003,-312.69"/>
</a>
</g>
</g>
<!-- Node25&#45;&gt;Node10 -->
<g id="edge42_Node000025_Node000010" class="edge">
<title>Node25&#45;&gt;Node10</title>
<g id="a_edge42_Node000025_Node000010"><a xlink:title=" ">
<path fill="none" stroke="#63b8ff" d="M914.37,-340.99C919.22,-300.01 933.12,-176.75 937.68,-74 938.05,-65.56 938.96,-63.35 937.68,-55 936.33,-46.19 933.55,-36.74 930.83,-28.82"/>
<polygon fill="#63b8ff" stroke="#63b8ff" points="934.02,-27.35 927.28,-19.18 927.45,-29.77 934.02,-27.35"/>
</a>
</g>
</g>
</g>
</svg>

<g id="navigator" transform="translate(0 0)" fill="#404254">
  <rect fill="#f2f5e9" fill-opacity="0.5" stroke="#606060" stroke-width=".5" x="0" y="0" width="60" height="60"/>
  <use id="zoomplus" xlink:href="#zoomPlus" x="17" y="9" onmousedown="handleZoom(evt,'in')"/>
  <use id="zoomminus" xlink:href="#zoomMin" x="42" y="9" onmousedown="handleZoom(evt,'out')"/>
  <use id="reset" xlink:href="#resetDef" x="30" y="36" onmousedown="handleReset()"/>
   <use id="arrowup" xlink:href="#arrowUp" x="0" y="0" onmousedown="handlePan(0,-1)"/>
  <use id="arrowright" xlink:href="#arrowRight" x="0" y="0" onmousedown="handlePan(1,0)"/>
  <use id="arrowdown" xlink:href="#arrowDown" x="0" y="0" onmousedown="handlePan(0,1)"/>
  <use id="arrowleft" xlink:href="#arrowLeft" x="0" y="0" onmousedown="handlePan(-1,0)"/>
</g>
<svg viewBox="0 0 15 15" width="100%" height="30px" preserveAspectRatio="xMaxYMin meet">
 <g id="arrow_out" transform="scale(0.3 0.3)">
  <a xlink:href="ResidueSimilarityAffineEdit_8hh__incl_org.svg" target="_base">
   <rect id="button" ry="5" rx="5" y="6" x="6" height="38" width="38"
        fill="#f2f5e9" fill-opacity="0.5" stroke="#606060" stroke-width="1.0"/>
   <path id="arrow"
     d="M 11.500037,31.436501 C 11.940474,20.09759 22.043105,11.32322 32.158766,21.979434 L 37.068811,17.246167 C 37.068811,17.246167 37.088388,32 37.088388,32 L 22.160133,31.978069 C 22.160133,31.978069 26.997745,27.140456 26.997745,27.140456 C 18.528582,18.264221 13.291696,25.230495 11.500037,31.436501 z"
     style="fill:#404040;"/>
  </a>
 </g>
</svg>

<style type='text/css'>
<![CDATA[
[data-mouse-over-selected='false'] { opacity: 0.7; }
[data-mouse-over-selected='true']  { opacity: 1.0; }
]]>
</style>
<script type="application/ecmascript"><![CDATA[
document.addEventListener('DOMContentLoaded', (event) => {
  highlightEdges();
  highlightAdjacentNodes();
});
]]></script>
</svg>
