<?xml version="1.0" encoding="UTF-8" standalone="no"?>
<!DOCTYPE svg PUBLIC "-//W3C//DTD SVG 1.1//EN"
 "http://www.w3.org/Graphics/SVG/1.1/DTD/svg11.dtd">
<!-- Generated by graphviz version 2.43.0 (0)
 -->
<!-- Title: ematch_src/utils/sequence/align/ResidueSimilarityAffineEdit.hh Pages: 1 -->
<svg width="598pt" height="192pt"
 viewBox="0.00 0.00 597.50 192.00" xmlns="http://www.w3.org/2000/svg" xmlns:xlink="http://www.w3.org/1999/xlink">
<g id="graph0" class="graph" transform="scale(1 1) rotate(0) translate(4 188)">
<title>ematch_src/utils/sequence/align/ResidueSimilarityAffineEdit.hh</title>
<!-- Node1 -->
<g id="Node000001" class="node">
<title>Node1</title>
<g id="a_Node000001"><a xlink:title=" ">
<polygon fill="#999999" stroke="#666666" points="387,-184 226,-184 226,-143 387,-143 387,-184"/>
<text text-anchor="start" x="234" y="-172" font-family="Helvetica,sans-Serif" font-size="10.00">ematch_src/utils/sequence</text>
<text text-anchor="start" x="234" y="-161" font-family="Helvetica,sans-Serif" font-size="10.00">/align/ResidueSimilarityAffine</text>
<text text-anchor="middle" x="306.5" y="-150" font-family="Helvetica,sans-Serif" font-size="10.00">Edit.hh</text>
</a>
</g>
</g>
<!-- Node2 -->
<g id="Node000002" class="node">
<title>Node2</title>
<g id="a_Node000002"><a xlink:href="GlobalAffineIdentityAligner_8hh.html" target="_top" xlink:title=" ">
<polygon fill="white" stroke="#666666" points="403,-107 210,-107 210,-77 403,-77 403,-107"/>
<text text-anchor="start" x="218" y="-95" font-family="Helvetica,sans-Serif" font-size="10.00">ematch_src/utils/sequence</text>
<text text-anchor="middle" x="306.5" y="-84" font-family="Helvetica,sans-Serif" font-size="10.00">/align/GlobalAffineIdentityAligner.hh</text>
</a>
</g>
</g>
<!-- Node1&#45;&gt;Node2 -->
<g id="edge1_Node000001_Node000002" class="edge">
<title>Node1&#45;&gt;Node2</title>
<g id="a_edge1_Node000001_Node000002"><a xlink:title=" ">
<path fill="none" stroke="#63b8ff" d="M306.5,-132.66C306.5,-123.76 306.5,-114.42 306.5,-107.04"/>
<polygon fill="#63b8ff" stroke="#63b8ff" points="303,-132.77 306.5,-142.77 310,-132.77 303,-132.77"/>
</a>
</g>
</g>
<!-- Node3 -->
<g id="Node000003" class="node">
<title>Node3</title>
<g id="a_Node000003"><a xlink:href="GlobalAffineIdentityAligner_8cc.html" target="_top" xlink:title=" ">
<polygon fill="white" stroke="#666666" points="191,-35.5 0,-35.5 0,-5.5 191,-5.5 191,-35.5"/>
<text text-anchor="start" x="8" y="-23.5" font-family="Helvetica,sans-Serif" font-size="10.00">ematch_src/utils/sequence</text>
<text text-anchor="middle" x="95.5" y="-12.5" font-family="Helvetica,sans-Serif" font-size="10.00">/align/GlobalAffineIdentityAligner.cc</text>
</a>
</g>
</g>
<!-- Node2&#45;&gt;Node3 -->
<g id="edge2_Node000002_Node000003" class="edge">
<title>Node2&#45;&gt;Node3</title>
<g id="a_edge2_Node000002_Node000003"><a xlink:title=" ">
<path fill="none" stroke="#63b8ff" d="M254.03,-73.72C218.29,-61.95 171.58,-46.56 138.14,-35.54"/>
<polygon fill="#63b8ff" stroke="#63b8ff" points="253.21,-77.13 263.8,-76.94 255.4,-70.48 253.21,-77.13"/>
</a>
</g>
</g>
<!-- Node4 -->
<g id="Node000004" class="node">
<title>Node4</title>
<g id="a_Node000004"><a xlink:href="computeAllPairsIdentity_8cc.html" target="_top" xlink:title=" ">
<polygon fill="white" stroke="#666666" points="403.5,-35.5 209.5,-35.5 209.5,-5.5 403.5,-5.5 403.5,-35.5"/>
<text text-anchor="start" x="217.5" y="-23.5" font-family="Helvetica,sans-Serif" font-size="10.00">ematch_src/utils/sequence</text>
<text text-anchor="middle" x="306.5" y="-12.5" font-family="Helvetica,sans-Serif" font-size="10.00">/align/run/computeAllPairsIdentity.cc</text>
</a>
</g>
</g>
<!-- Node2&#45;&gt;Node4 -->
<g id="edge3_Node000002_Node000004" class="edge">
<title>Node2&#45;&gt;Node4</title>
<g id="a_edge3_Node000002_Node000004"><a xlink:title=" ">
<path fill="none" stroke="#63b8ff" d="M306.5,-66.75C306.5,-56.31 306.5,-44.49 306.5,-35.54"/>
<polygon fill="#63b8ff" stroke="#63b8ff" points="303,-66.94 306.5,-76.94 310,-66.94 303,-66.94"/>
</a>
</g>
</g>
<!-- Node5 -->
<g id="Node000005" class="node">
<title>Node5</title>
<g id="a_Node000005"><a xlink:href="computeGlobalAffineIdentity_8cc.html" target="_top" xlink:title=" ">
<polygon fill="white" stroke="#666666" points="589.5,-41 421.5,-41 421.5,0 589.5,0 589.5,-41"/>
<text text-anchor="start" x="429.5" y="-29" font-family="Helvetica,sans-Serif" font-size="10.00">ematch_src/utils/sequence</text>
<text text-anchor="start" x="429.5" y="-18" font-family="Helvetica,sans-Serif" font-size="10.00">/align/run/computeGlobalAffine</text>
<text text-anchor="middle" x="505.5" y="-7" font-family="Helvetica,sans-Serif" font-size="10.00">Identity.cc</text>
</a>
</g>
</g>
<!-- Node2&#45;&gt;Node5 -->
<g id="edge4_Node000002_Node000005" class="edge">
<title>Node2&#45;&gt;Node5</title>
<g id="a_edge4_Node000002_Node000005"><a xlink:title=" ">
<path fill="none" stroke="#63b8ff" d="M356.46,-73.55C384.75,-63.67 420.22,-51.28 449.45,-41.07"/>
<polygon fill="#63b8ff" stroke="#63b8ff" points="355.06,-70.33 346.77,-76.94 357.37,-76.94 355.06,-70.33"/>
</a>
</g>
</g>
</g>
</svg>
