<?xml version="1.0" encoding="UTF-8" standalone="no"?>
<!DOCTYPE svg PUBLIC "-//W3C//DTD SVG 1.1//EN"
 "http://www.w3.org/Graphics/SVG/1.1/DTD/svg11.dtd">
<!-- Generated by graphviz version 2.43.0 (0)
 -->
<!-- Title: ematch_src/utils/sequence/readers/run/runDumpBlastNNUtility.cc Pages: 1 -->
<svg width="1746pt" height="357pt"
 viewBox="0.00 0.00 1745.50 357.00" xmlns="http://www.w3.org/2000/svg" xmlns:xlink="http://www.w3.org/1999/xlink">
<g id="graph0" class="graph" transform="scale(1 1) rotate(0) translate(4 353)">
<title>ematch_src/utils/sequence/readers/run/runDumpBlastNNUtility.cc</title>
<!-- Node1 -->
<g id="Node000001" class="node">
<title>Node1</title>
<g id="a_Node000001"><a xlink:title=" ">
<polygon fill="#999999" stroke="#666666" points="955.5,-349 750.5,-349 750.5,-319 955.5,-319 955.5,-349"/>
<text text-anchor="start" x="758.5" y="-337" font-family="Helvetica,sans-Serif" font-size="10.00">ematch_src/utils/sequence</text>
<text text-anchor="middle" x="853" y="-326" font-family="Helvetica,sans-Serif" font-size="10.00">/readers/run/runDumpBlastNNUtility.cc</text>
</a>
</g>
</g>
<!-- Node2 -->
<g id="Node000002" class="node">
<title>Node2</title>
<g id="a_Node000002"><a xlink:title=" ">
<polygon fill="#e0e0e0" stroke="#999999" points="431,-19 371,-19 371,0 431,0 431,-19"/>
<text text-anchor="middle" x="401" y="-7" font-family="Helvetica,sans-Serif" font-size="10.00">iostream</text>
</a>
</g>
</g>
<!-- Node1&#45;&gt;Node2 -->
<g id="edge1_Node000001_Node000002" class="edge">
<title>Node1&#45;&gt;Node2</title>
<g id="a_edge1_Node000001_Node000002"><a xlink:title=" ">
<path fill="none" stroke="#63b8ff" d="M750.11,-327.91C523.24,-315.3 0,-278.09 0,-203 0,-203 0,-203 0,-135 0,-86.26 31.7,-77.36 75,-55 124.08,-29.66 285.07,-17.21 360.86,-12.63"/>
<polygon fill="#63b8ff" stroke="#63b8ff" points="361.19,-16.12 370.97,-12.04 360.78,-9.13 361.19,-16.12"/>
</a>
</g>
</g>
<!-- Node3 -->
<g id="Node000003" class="node">
<title>Node3</title>
<g id="a_Node000003"><a xlink:title=" ">
<polygon fill="#e0e0e0" stroke="#999999" points="1602.5,-79.5 1547.5,-79.5 1547.5,-60.5 1602.5,-60.5 1602.5,-79.5"/>
<text text-anchor="middle" x="1575" y="-67.5" font-family="Helvetica,sans-Serif" font-size="10.00">fstream</text>
</a>
</g>
</g>
<!-- Node1&#45;&gt;Node3 -->
<g id="edge2_Node000001_Node000003" class="edge">
<title>Node1&#45;&gt;Node3</title>
<g id="a_edge2_Node000001_Node000003"><a xlink:title=" ">
<path fill="none" stroke="#63b8ff" d="M955.53,-323.81C1018.37,-316.47 1099.91,-303.86 1170,-283 1307.28,-242.15 1339.93,-222.57 1464,-151 1498.36,-131.18 1535.13,-103.18 1556.54,-86.1"/>
<polygon fill="#63b8ff" stroke="#63b8ff" points="1558.87,-88.71 1564.47,-79.71 1554.48,-83.26 1558.87,-88.71"/>
</a>
</g>
</g>
<!-- Node4 -->
<g id="Node000004" class="node">
<title>Node4</title>
<g id="a_Node000004"><a xlink:title=" ">
<polygon fill="#e0e0e0" stroke="#999999" points="326,-145.5 262,-145.5 262,-126.5 326,-126.5 326,-145.5"/>
<text text-anchor="middle" x="294" y="-133.5" font-family="Helvetica,sans-Serif" font-size="10.00">algorithm</text>
</a>
</g>
</g>
<!-- Node1&#45;&gt;Node4 -->
<g id="edge3_Node000001_Node000004" class="edge">
<title>Node1&#45;&gt;Node4</title>
<g id="a_edge3_Node000001_Node000004"><a xlink:title=" ">
<path fill="none" stroke="#63b8ff" d="M750.19,-320.59C699.85,-312.8 638.86,-300.77 586,-283 479.98,-247.35 363.9,-179.9 316.27,-150.87"/>
<polygon fill="#63b8ff" stroke="#63b8ff" points="318.03,-147.84 307.68,-145.59 314.37,-153.81 318.03,-147.84"/>
</a>
</g>
</g>
<!-- Node5 -->
<g id="Node000005" class="node">
<title>Node5</title>
<g id="a_Node000005"><a xlink:title=" ">
<polygon fill="#e0e0e0" stroke="#999999" points="1574.5,-277.5 1527.5,-277.5 1527.5,-258.5 1574.5,-258.5 1574.5,-277.5"/>
<text text-anchor="middle" x="1551" y="-265.5" font-family="Helvetica,sans-Serif" font-size="10.00">cmath</text>
</a>
</g>
</g>
<!-- Node1&#45;&gt;Node5 -->
<g id="edge4_Node000001_Node000005" class="edge">
<title>Node1&#45;&gt;Node5</title>
<g id="a_edge4_Node000001_Node000005"><a xlink:title=" ">
<path fill="none" stroke="#63b8ff" d="M955.74,-328.69C1113.94,-321.48 1409.7,-305.48 1513,-283 1515.68,-282.42 1518.42,-281.69 1521.15,-280.87"/>
<polygon fill="#63b8ff" stroke="#63b8ff" points="1522.44,-284.13 1530.8,-277.62 1520.21,-277.49 1522.44,-284.13"/>
</a>
</g>
</g>
<!-- Node6 -->
<g id="Node000006" class="node">
<title>Node6</title>
<g id="a_Node000006"><a xlink:href="stlUtils_8hh.html" target="_top" xlink:title=" ">
<polygon fill="white" stroke="#666666" points="598.5,-211.5 493.5,-211.5 493.5,-192.5 598.5,-192.5 598.5,-211.5"/>
<text text-anchor="middle" x="546" y="-199.5" font-family="Helvetica,sans-Serif" font-size="10.00">utils/stl/stlUtils.hh</text>
</a>
</g>
</g>
<!-- Node1&#45;&gt;Node6 -->
<g id="edge5_Node000001_Node000006" class="edge">
<title>Node1&#45;&gt;Node6</title>
<g id="a_edge5_Node000001_Node000006"><a xlink:title=" ">
<path fill="none" stroke="#63b8ff" d="M750.26,-322.69C710.02,-315.55 664.59,-303.46 627,-283 598.06,-267.25 572.46,-238.08 558.12,-219.66"/>
<polygon fill="#63b8ff" stroke="#63b8ff" points="560.84,-217.45 552.03,-211.58 555.26,-221.67 560.84,-217.45"/>
</a>
</g>
</g>
<!-- Node8 -->
<g id="Node000008" class="node">
<title>Node8</title>
<g id="a_Node000008"><a xlink:title=" ">
<polygon fill="#e0e0e0" stroke="#999999" points="785,-211.5 617,-211.5 617,-192.5 785,-192.5 785,-211.5"/>
<text text-anchor="middle" x="701" y="-199.5" font-family="Helvetica,sans-Serif" font-size="10.00">classifiers/LabeledInstances.hh</text>
</a>
</g>
</g>
<!-- Node1&#45;&gt;Node8 -->
<g id="edge9_Node000001_Node000008" class="edge">
<title>Node1&#45;&gt;Node8</title>
<g id="a_edge9_Node000001_Node000008"><a xlink:title=" ">
<path fill="none" stroke="#63b8ff" d="M842.53,-318.86C829.55,-301.93 806.17,-273.31 782,-253 765.08,-238.78 743.73,-225.77 727.2,-216.59"/>
<polygon fill="#63b8ff" stroke="#63b8ff" points="728.55,-213.34 718.09,-211.64 725.21,-219.49 728.55,-213.34"/>
</a>
</g>
</g>
<!-- Node9 -->
<g id="Node000009" class="node">
<title>Node9</title>
<g id="a_Node000009"><a xlink:title=" ">
<polygon fill="#e0e0e0" stroke="#999999" points="1737.5,-277.5 1592.5,-277.5 1592.5,-258.5 1737.5,-258.5 1737.5,-277.5"/>
<text text-anchor="middle" x="1665" y="-265.5" font-family="Helvetica,sans-Serif" font-size="10.00">classifiers/UtilityMatrix.hh</text>
</a>
</g>
</g>
<!-- Node1&#45;&gt;Node9 -->
<g id="edge10_Node000001_Node000009" class="edge">
<title>Node1&#45;&gt;Node9</title>
<g id="a_edge10_Node000001_Node000009"><a xlink:title=" ">
<path fill="none" stroke="#63b8ff" d="M955.61,-329.31C1097.33,-323.46 1360.77,-309.85 1584,-283 1592.65,-281.96 1601.78,-280.62 1610.66,-279.18"/>
<polygon fill="#63b8ff" stroke="#63b8ff" points="1611.27,-282.63 1620.56,-277.53 1610.12,-275.72 1611.27,-282.63"/>
</a>
</g>
</g>
<!-- Node10 -->
<g id="Node000010" class="node">
<title>Node10</title>
<g id="a_Node000010"><a xlink:href="FLArrayByIndexSortingPredicate_8hh.html" target="_top" xlink:title=" ">
<polygon fill="white" stroke="#666666" points="1161,-283 1001,-283 1001,-253 1161,-253 1161,-283"/>
<text text-anchor="start" x="1009" y="-271" font-family="Helvetica,sans-Serif" font-size="10.00">utils/FLArray/FLArrayByIndex</text>
<text text-anchor="middle" x="1081" y="-260" font-family="Helvetica,sans-Serif" font-size="10.00">SortingPredicate.hh</text>
</a>
</g>
</g>
<!-- Node1&#45;&gt;Node10 -->
<g id="edge11_Node000001_Node000010" class="edge">
<title>Node1&#45;&gt;Node10</title>
<g id="a_edge11_Node000001_Node000010"><a xlink:title=" ">
<path fill="none" stroke="#63b8ff" d="M903.04,-318.95C937.78,-309.2 984.25,-296.16 1020.99,-285.84"/>
<polygon fill="#63b8ff" stroke="#63b8ff" points="1022.4,-289.08 1031.08,-283.01 1020.51,-282.35 1022.4,-289.08"/>
</a>
</g>
</g>
<!-- Node28 -->
<g id="Node000028" class="node">
<title>Node28</title>
<g id="a_Node000028"><a xlink:href="Blast8ResultReader_8hh.html" target="_top" xlink:title=" ">
<polygon fill="white" stroke="#666666" points="933,-217 803,-217 803,-187 933,-187 933,-217"/>
<text text-anchor="start" x="811" y="-205" font-family="Helvetica,sans-Serif" font-size="10.00">utils/sequence/readers</text>
<text text-anchor="middle" x="868" y="-194" font-family="Helvetica,sans-Serif" font-size="10.00">/Blast8ResultReader.hh</text>
</a>
</g>
</g>
<!-- Node1&#45;&gt;Node28 -->
<g id="edge45_Node000001_Node000028" class="edge">
<title>Node1&#45;&gt;Node28</title>
<g id="a_edge45_Node000001_Node000028"><a xlink:title=" ">
<path fill="none" stroke="#63b8ff" d="M854.63,-318.84C857.17,-296.86 862.08,-254.27 865.2,-227.3"/>
<polygon fill="#63b8ff" stroke="#63b8ff" points="868.7,-227.48 866.37,-217.14 861.74,-226.68 868.7,-227.48"/>
</a>
</g>
</g>
<!-- Node33 -->
<g id="Node000033" class="node">
<title>Node33</title>
<g id="a_Node000033"><a xlink:href="BlastEValuesByClass_8hh.html" target="_top" xlink:title=" ">
<polygon fill="white" stroke="#666666" points="773.5,-283 636.5,-283 636.5,-253 773.5,-253 773.5,-283"/>
<text text-anchor="start" x="644.5" y="-271" font-family="Helvetica,sans-Serif" font-size="10.00">utils/sequence/readers</text>
<text text-anchor="middle" x="705" y="-260" font-family="Helvetica,sans-Serif" font-size="10.00">/BlastEValuesByClass.hh</text>
</a>
</g>
</g>
<!-- Node1&#45;&gt;Node33 -->
<g id="edge57_Node000001_Node000033" class="edge">
<title>Node1&#45;&gt;Node33</title>
<g id="a_edge57_Node000001_Node000033"><a xlink:title=" ">
<path fill="none" stroke="#63b8ff" d="M820.52,-318.95C798.83,-309.58 770.11,-297.16 746.73,-287.05"/>
<polygon fill="#63b8ff" stroke="#63b8ff" points="747.97,-283.77 737.4,-283.01 745.19,-290.19 747.97,-283.77"/>
</a>
</g>
</g>
<!-- Node6&#45;&gt;Node2 -->
<g id="edge7_Node000006_Node000002" class="edge">
<title>Node6&#45;&gt;Node2</title>
<g id="a_edge7_Node000006_Node000002"><a xlink:title=" ">
<path fill="none" stroke="#63b8ff" d="M493.24,-196.27C382.26,-185.07 131.07,-152.6 85,-85 77.49,-73.98 76.25,-65.06 85,-55 120.27,-14.41 283.75,-9.79 360.72,-9.93"/>
<polygon fill="#63b8ff" stroke="#63b8ff" points="360.97,-13.43 370.98,-9.98 361,-6.43 360.97,-13.43"/>
</a>
</g>
</g>
<!-- Node6&#45;&gt;Node4 -->
<g id="edge6_Node000006_Node000004" class="edge">
<title>Node6&#45;&gt;Node4</title>
<g id="a_edge6_Node000006_Node000004"><a xlink:title=" ">
<path fill="none" stroke="#63b8ff" d="M504.85,-192.48C462.1,-183.34 393.42,-167.85 335,-151 332.53,-150.29 330,-149.52 327.45,-148.72"/>
<polygon fill="#63b8ff" stroke="#63b8ff" points="328.32,-145.32 317.73,-145.53 326.14,-151.97 328.32,-145.32"/>
</a>
</g>
</g>
<!-- Node7 -->
<g id="Node000007" class="node">
<title>Node7</title>
<g id="a_Node000007"><a xlink:title=" ">
<polygon fill="#e0e0e0" stroke="#999999" points="1153.5,-19 1106.5,-19 1106.5,0 1153.5,0 1153.5,-19"/>
<text text-anchor="middle" x="1130" y="-7" font-family="Helvetica,sans-Serif" font-size="10.00">vector</text>
</a>
</g>
</g>
<!-- Node6&#45;&gt;Node7 -->
<g id="edge8_Node000006_Node000007" class="edge">
<title>Node6&#45;&gt;Node7</title>
<g id="a_edge8_Node000006_Node000007"><a xlink:title=" ">
<path fill="none" stroke="#63b8ff" d="M575.31,-192.4C638.66,-173.69 792.97,-127.6 921,-85 983.81,-64.1 1056.46,-37.69 1097.45,-22.59"/>
<polygon fill="#63b8ff" stroke="#63b8ff" points="1098.75,-25.84 1106.92,-19.09 1096.32,-19.27 1098.75,-25.84"/>
</a>
</g>
</g>
<!-- Node11 -->
<g id="Node000011" class="node">
<title>Node11</title>
<g id="a_Node000011"><a xlink:title=" ">
<polygon fill="#e0e0e0" stroke="#999999" points="1173.5,-211.5 1108.5,-211.5 1108.5,-192.5 1173.5,-192.5 1173.5,-211.5"/>
<text text-anchor="middle" x="1141" y="-199.5" font-family="Helvetica,sans-Serif" font-size="10.00">functional</text>
</a>
</g>
</g>
<!-- Node10&#45;&gt;Node11 -->
<g id="edge12_Node000010_Node000011" class="edge">
<title>Node10&#45;&gt;Node11</title>
<g id="a_edge12_Node000010_Node000011"><a xlink:title=" ">
<path fill="none" stroke="#63b8ff" d="M1094.32,-252.8C1103.58,-242.92 1115.95,-229.72 1125.63,-219.39"/>
<polygon fill="#63b8ff" stroke="#63b8ff" points="1128.42,-221.53 1132.71,-211.84 1123.32,-216.75 1128.42,-221.53"/>
</a>
</g>
</g>
<!-- Node12 -->
<g id="Node000012" class="node">
<title>Node12</title>
<g id="a_Node000012"><a xlink:href="ematch__src_2utils_2FLArray_2FLEArray_8hh.html" target="_top" xlink:title=" ">
<polygon fill="white" stroke="#666666" points="1090.5,-211.5 951.5,-211.5 951.5,-192.5 1090.5,-192.5 1090.5,-211.5"/>
<text text-anchor="middle" x="1021" y="-199.5" font-family="Helvetica,sans-Serif" font-size="10.00">utils/FLArray/FLEArray.hh</text>
</a>
</g>
</g>
<!-- Node10&#45;&gt;Node12 -->
<g id="edge13_Node000010_Node000012" class="edge">
<title>Node10&#45;&gt;Node12</title>
<g id="a_edge13_Node000010_Node000012"><a xlink:title=" ">
<path fill="none" stroke="#63b8ff" d="M1067.68,-252.8C1058.42,-242.92 1046.05,-229.72 1036.37,-219.39"/>
<polygon fill="#63b8ff" stroke="#63b8ff" points="1038.68,-216.75 1029.29,-211.84 1033.58,-221.53 1038.68,-216.75"/>
</a>
</g>
</g>
<!-- Node27 -->
<g id="Node000027" class="node">
<title>Node27</title>
<g id="a_Node000027"><a xlink:href="FLArray_8hh.html" target="_top" xlink:title=" ">
<polygon fill="white" stroke="#666666" points="1105,-145.5 971,-145.5 971,-126.5 1105,-126.5 1105,-145.5"/>
<text text-anchor="middle" x="1038" y="-133.5" font-family="Helvetica,sans-Serif" font-size="10.00">utils/FLArray/FLArray.hh</text>
</a>
</g>
</g>
<!-- Node10&#45;&gt;Node27 -->
<g id="edge41_Node000010_Node000027" class="edge">
<title>Node10&#45;&gt;Node27</title>
<g id="a_edge41_Node000010_Node000027"><a xlink:title=" ">
<path fill="none" stroke="#63b8ff" d="M1136.04,-252.91C1154.18,-245.36 1172.41,-233.99 1183,-217 1190.05,-205.69 1190.74,-197.86 1183,-187 1171.65,-171.08 1125.59,-156.97 1088.39,-147.83"/>
<polygon fill="#63b8ff" stroke="#63b8ff" points="1089.2,-144.43 1078.66,-145.5 1087.57,-151.23 1089.2,-144.43"/>
</a>
</g>
</g>
<!-- Node12&#45;&gt;Node2 -->
<g id="edge16_Node000012_Node000002" class="edge">
<title>Node12&#45;&gt;Node2</title>
<g id="a_edge16_Node000012_Node000002"><a xlink:title=" ">
<path fill="none" stroke="#63b8ff" d="M978.36,-192.5C864.18,-169.56 557.4,-106.65 516,-85 498.44,-75.82 499.16,-66.48 483,-55 465.89,-42.85 445.09,-31.6 428.73,-23.45"/>
<polygon fill="#63b8ff" stroke="#63b8ff" points="430.18,-20.27 419.66,-19.03 427.11,-26.56 430.18,-20.27"/>
</a>
</g>
</g>
<!-- Node12&#45;&gt;Node4 -->
<g id="edge17_Node000012_Node000004" class="edge">
<title>Node12&#45;&gt;Node4</title>
<g id="a_edge17_Node000012_Node000004"><a xlink:title=" ">
<path fill="none" stroke="#63b8ff" d="M978.08,-192.46C966.42,-190.39 953.76,-188.39 942,-187 673.61,-155.37 600.17,-203.14 335,-151 331.75,-150.36 328.41,-149.53 325.1,-148.59"/>
<polygon fill="#63b8ff" stroke="#63b8ff" points="326,-145.2 315.41,-145.52 323.89,-151.87 326,-145.2"/>
</a>
</g>
</g>
<!-- Node12&#45;&gt;Node7 -->
<g id="edge15_Node000012_Node000007" class="edge">
<title>Node12&#45;&gt;Node7</title>
<g id="a_edge15_Node000012_Node000007"><a xlink:title=" ">
<path fill="none" stroke="#63b8ff" d="M1066.43,-192.49C1130.26,-180.36 1240.7,-158.72 1258,-151 1278.62,-141.8 1278.24,-129.89 1299,-121 1382.43,-85.29 1441.76,-154.6 1500,-85 1508.56,-74.77 1508.85,-64.98 1500,-55 1477.85,-30.02 1250.92,-16.4 1163.8,-12.05"/>
<polygon fill="#63b8ff" stroke="#63b8ff" points="1163.81,-8.55 1153.66,-11.56 1163.47,-15.54 1163.81,-8.55"/>
</a>
</g>
</g>
<!-- Node13 -->
<g id="Node000013" class="node">
<title>Node13</title>
<g id="a_Node000013"><a xlink:title=" ">
<polygon fill="#e0e0e0" stroke="#999999" points="1491,-79.5 1435,-79.5 1435,-60.5 1491,-60.5 1491,-79.5"/>
<text text-anchor="middle" x="1463" y="-67.5" font-family="Helvetica,sans-Serif" font-size="10.00">assert.h</text>
</a>
</g>
</g>
<!-- Node12&#45;&gt;Node13 -->
<g id="edge14_Node000012_Node000013" class="edge">
<title>Node12&#45;&gt;Node13</title>
<g id="a_edge14_Node000012_Node000013"><a xlink:title=" ">
<path fill="none" stroke="#63b8ff" d="M1066.03,-192.45C1077.11,-190.51 1088.97,-188.56 1100,-187 1175.67,-176.33 1384.02,-200.78 1442,-151 1459.5,-135.97 1463.31,-108.3 1463.71,-89.77"/>
<polygon fill="#63b8ff" stroke="#63b8ff" points="1467.21,-89.58 1463.62,-79.61 1460.21,-89.64 1467.21,-89.58"/>
</a>
</g>
</g>
<!-- Node14 -->
<g id="Node000014" class="node">
<title>Node14</title>
<g id="a_Node000014"><a xlink:title=" ">
<polygon fill="#e0e0e0" stroke="#999999" points="1432.5,-145.5 1307.5,-145.5 1307.5,-126.5 1432.5,-126.5 1432.5,-145.5"/>
<text text-anchor="middle" x="1370" y="-133.5" font-family="Helvetica,sans-Serif" font-size="10.00">boost/lexical_cast.hpp</text>
</a>
</g>
</g>
<!-- Node12&#45;&gt;Node14 -->
<g id="edge18_Node000012_Node000014" class="edge">
<title>Node12&#45;&gt;Node14</title>
<g id="a_edge18_Node000012_Node000014"><a xlink:title=" ">
<path fill="none" stroke="#63b8ff" d="M1067.71,-192.44C1131.31,-180.77 1245.05,-159.91 1313.41,-147.38"/>
<polygon fill="#63b8ff" stroke="#63b8ff" points="1314.37,-150.76 1323.57,-145.51 1313.1,-143.88 1314.37,-150.76"/>
</a>
</g>
</g>
<!-- Node15 -->
<g id="Node000015" class="node">
<title>Node15</title>
<g id="a_Node000015"><a xlink:href="ematch__src_2utils_2gdb_2gdbUtils_8hh.html" target="_top" xlink:title=" ">
<polygon fill="white" stroke="#666666" points="723.5,-79.5 606.5,-79.5 606.5,-60.5 723.5,-60.5 723.5,-79.5"/>
<text text-anchor="middle" x="665" y="-67.5" font-family="Helvetica,sans-Serif" font-size="10.00">utils/gdb/gdbUtils.hh</text>
</a>
</g>
</g>
<!-- Node12&#45;&gt;Node15 -->
<g id="edge19_Node000012_Node000015" class="edge">
<title>Node12&#45;&gt;Node15</title>
<g id="a_edge19_Node000012_Node000015"><a xlink:title=" ">
<path fill="none" stroke="#63b8ff" d="M997.64,-192.47C936.16,-170.02 769.68,-109.23 698.27,-83.15"/>
<polygon fill="#63b8ff" stroke="#63b8ff" points="699.04,-79.7 688.44,-79.56 696.64,-86.28 699.04,-79.7"/>
</a>
</g>
</g>
<!-- Node20 -->
<g id="Node000020" class="node">
<title>Node20</title>
<g id="a_Node000020"><a xlink:href="ematch__src_2utils_2perlish_2perlish_8hh.html" target="_top" xlink:title=" ">
<polygon fill="white" stroke="#666666" points="1248.5,-145.5 1123.5,-145.5 1123.5,-126.5 1248.5,-126.5 1248.5,-145.5"/>
<text text-anchor="middle" x="1186" y="-133.5" font-family="Helvetica,sans-Serif" font-size="10.00">utils/perlish/perlish.hh</text>
</a>
</g>
</g>
<!-- Node12&#45;&gt;Node20 -->
<g id="edge25_Node000012_Node000020" class="edge">
<title>Node12&#45;&gt;Node20</title>
<g id="a_edge25_Node000012_Node000020"><a xlink:title=" ">
<path fill="none" stroke="#63b8ff" d="M1043.25,-192.37C1071.87,-181.27 1121.76,-161.92 1154.33,-149.28"/>
<polygon fill="#63b8ff" stroke="#63b8ff" points="1155.78,-152.48 1163.84,-145.6 1153.25,-145.95 1155.78,-152.48"/>
</a>
</g>
</g>
<!-- Node15&#45;&gt;Node2 -->
<g id="edge21_Node000015_Node000002" class="edge">
<title>Node15&#45;&gt;Node2</title>
<g id="a_edge21_Node000015_Node000002"><a xlink:title=" ">
<path fill="none" stroke="#63b8ff" d="M626.61,-60.49C577.11,-49.52 491.42,-30.54 441.1,-19.39"/>
<polygon fill="#63b8ff" stroke="#63b8ff" points="441.75,-15.94 431.23,-17.2 440.23,-22.78 441.75,-15.94"/>
</a>
</g>
</g>
<!-- Node16 -->
<g id="Node000016" class="node">
<title>Node16</title>
<g id="a_Node000016"><a xlink:title=" ">
<polygon fill="#e0e0e0" stroke="#999999" points="589.5,-19 536.5,-19 536.5,0 589.5,0 589.5,-19"/>
<text text-anchor="middle" x="563" y="-7" font-family="Helvetica,sans-Serif" font-size="10.00">cstdarg</text>
</a>
</g>
</g>
<!-- Node15&#45;&gt;Node16 -->
<g id="edge20_Node000015_Node000016" class="edge">
<title>Node15&#45;&gt;Node16</title>
<g id="a_edge20_Node000015_Node000016"><a xlink:title=" ">
<path fill="none" stroke="#63b8ff" d="M649.95,-60.37C633.38,-50.86 606.5,-35.45 587.01,-24.27"/>
<polygon fill="#63b8ff" stroke="#63b8ff" points="588.53,-21.11 578.11,-19.17 585.05,-27.18 588.53,-21.11"/>
</a>
</g>
</g>
<!-- Node17 -->
<g id="Node000017" class="node">
<title>Node17</title>
<g id="a_Node000017"><a xlink:title=" ">
<polygon fill="#e0e0e0" stroke="#999999" points="656.5,-19 607.5,-19 607.5,0 656.5,0 656.5,-19"/>
<text text-anchor="middle" x="632" y="-7" font-family="Helvetica,sans-Serif" font-size="10.00">cstdlib</text>
</a>
</g>
</g>
<!-- Node15&#45;&gt;Node17 -->
<g id="edge22_Node000015_Node000017" class="edge">
<title>Node15&#45;&gt;Node17</title>
<g id="a_edge22_Node000015_Node000017"><a xlink:title=" ">
<path fill="none" stroke="#63b8ff" d="M660.13,-60.37C655.35,-51.9 647.93,-38.74 641.91,-28.07"/>
<polygon fill="#63b8ff" stroke="#63b8ff" points="644.85,-26.16 636.89,-19.17 638.75,-29.6 644.85,-26.16"/>
</a>
</g>
</g>
<!-- Node18 -->
<g id="Node000018" class="node">
<title>Node18</title>
<g id="a_Node000018"><a xlink:title=" ">
<polygon fill="#e0e0e0" stroke="#999999" points="721,-19 675,-19 675,0 721,0 721,-19"/>
<text text-anchor="middle" x="698" y="-7" font-family="Helvetica,sans-Serif" font-size="10.00">cstdio</text>
</a>
</g>
</g>
<!-- Node15&#45;&gt;Node18 -->
<g id="edge23_Node000015_Node000018" class="edge">
<title>Node15&#45;&gt;Node18</title>
<g id="a_edge23_Node000015_Node000018"><a xlink:title=" ">
<path fill="none" stroke="#63b8ff" d="M669.87,-60.37C674.65,-51.9 682.07,-38.74 688.09,-28.07"/>
<polygon fill="#63b8ff" stroke="#63b8ff" points="691.25,-29.6 693.11,-19.17 685.15,-26.16 691.25,-29.6"/>
</a>
</g>
</g>
<!-- Node19 -->
<g id="Node000019" class="node">
<title>Node19</title>
<g id="a_Node000019"><a xlink:title=" ">
<polygon fill="#e0e0e0" stroke="#999999" points="791,-19 739,-19 739,0 791,0 791,-19"/>
<text text-anchor="middle" x="765" y="-7" font-family="Helvetica,sans-Serif" font-size="10.00">cassert</text>
</a>
</g>
</g>
<!-- Node15&#45;&gt;Node19 -->
<g id="edge24_Node000015_Node000019" class="edge">
<title>Node15&#45;&gt;Node19</title>
<g id="a_edge24_Node000015_Node000019"><a xlink:title=" ">
<path fill="none" stroke="#63b8ff" d="M679.76,-60.37C696,-50.86 722.35,-35.45 741.46,-24.27"/>
<polygon fill="#63b8ff" stroke="#63b8ff" points="743.32,-27.24 750.18,-19.17 739.79,-21.2 743.32,-27.24"/>
</a>
</g>
</g>
<!-- Node20&#45;&gt;Node2 -->
<g id="edge27_Node000020_Node000002" class="edge">
<title>Node20&#45;&gt;Node2</title>
<g id="a_edge27_Node000020_Node000002"><a xlink:title=" ">
<path fill="none" stroke="#63b8ff" d="M1146.91,-126.49C1136.27,-124.43 1124.73,-122.41 1114,-121 999.82,-105.98 705.6,-123.34 597,-85 575.03,-77.24 575.02,-65.05 554,-55 517.41,-37.5 472.54,-25.45 440.88,-18.34"/>
<polygon fill="#63b8ff" stroke="#63b8ff" points="441.61,-14.92 431.09,-16.21 440.12,-21.76 441.61,-14.92"/>
</a>
</g>
</g>
<!-- Node20&#45;&gt;Node3 -->
<g id="edge28_Node000020_Node000003" class="edge">
<title>Node20&#45;&gt;Node3</title>
<g id="a_edge28_Node000020_Node000003"><a xlink:title=" ">
<path fill="none" stroke="#63b8ff" d="M1242.51,-126.46C1305.44,-116.85 1410.11,-100.54 1500,-85 1512.11,-82.91 1525.3,-80.49 1537.19,-78.26"/>
<polygon fill="#63b8ff" stroke="#63b8ff" points="1538.07,-81.66 1547.25,-76.36 1536.77,-74.78 1538.07,-81.66"/>
</a>
</g>
</g>
<!-- Node20&#45;&gt;Node7 -->
<g id="edge31_Node000020_Node000007" class="edge">
<title>Node20&#45;&gt;Node7</title>
<g id="a_edge31_Node000020_Node000007"><a xlink:title=" ">
<path fill="none" stroke="#63b8ff" d="M1194.49,-126.12C1208.04,-110.83 1231.61,-78.89 1217,-55 1205.31,-35.9 1182.55,-24.66 1163.24,-18.26"/>
<polygon fill="#63b8ff" stroke="#63b8ff" points="1164.12,-14.87 1153.53,-15.34 1162.1,-21.57 1164.12,-14.87"/>
</a>
</g>
</g>
<!-- Node20&#45;&gt;Node13 -->
<g id="edge32_Node000020_Node000013" class="edge">
<title>Node20&#45;&gt;Node13</title>
<g id="a_edge32_Node000020_Node000013"><a xlink:title=" ">
<path fill="none" stroke="#63b8ff" d="M1233.64,-126.49C1281.38,-117.58 1356.8,-102.47 1421,-85 1423.62,-84.29 1426.32,-83.5 1429.02,-82.68"/>
<polygon fill="#63b8ff" stroke="#63b8ff" points="1430.24,-85.97 1438.71,-79.61 1428.12,-79.3 1430.24,-85.97"/>
</a>
</g>
</g>
<!-- Node20&#45;&gt;Node15 -->
<g id="edge34_Node000020_Node000015" class="edge">
<title>Node20&#45;&gt;Node15</title>
<g id="a_edge34_Node000020_Node000015"><a xlink:title=" ">
<path fill="none" stroke="#63b8ff" d="M1145.75,-126.45C1135.44,-124.46 1124.34,-122.49 1114,-121 945.21,-96.7 900.62,-110.48 732,-85 725.6,-84.03 718.89,-82.84 712.29,-81.57"/>
<polygon fill="#63b8ff" stroke="#63b8ff" points="712.57,-78.06 702.08,-79.52 711.19,-84.92 712.57,-78.06"/>
</a>
</g>
</g>
<!-- Node21 -->
<g id="Node000021" class="node">
<title>Node21</title>
<g id="a_Node000021"><a xlink:title=" ">
<polygon fill="#e0e0e0" stroke="#999999" points="1100.5,-79.5 1047.5,-79.5 1047.5,-60.5 1100.5,-60.5 1100.5,-79.5"/>
<text text-anchor="middle" x="1074" y="-67.5" font-family="Helvetica,sans-Serif" font-size="10.00">ctype.h</text>
</a>
</g>
</g>
<!-- Node20&#45;&gt;Node21 -->
<g id="edge26_Node000020_Node000021" class="edge">
<title>Node20&#45;&gt;Node21</title>
<g id="a_edge26_Node000020_Node000021"><a xlink:title=" ">
<path fill="none" stroke="#63b8ff" d="M1170.9,-126.37C1152.19,-115.68 1120.1,-97.35 1098.01,-84.72"/>
<polygon fill="#63b8ff" stroke="#63b8ff" points="1099.64,-81.62 1089.22,-79.7 1096.17,-87.7 1099.64,-81.62"/>
</a>
</g>
</g>
<!-- Node22 -->
<g id="Node000022" class="node">
<title>Node22</title>
<g id="a_Node000022"><a xlink:title=" ">
<polygon fill="#e0e0e0" stroke="#999999" points="1175,-79.5 1119,-79.5 1119,-60.5 1175,-60.5 1175,-79.5"/>
<text text-anchor="middle" x="1147" y="-67.5" font-family="Helvetica,sans-Serif" font-size="10.00">sstream</text>
</a>
</g>
</g>
<!-- Node20&#45;&gt;Node22 -->
<g id="edge29_Node000020_Node000022" class="edge">
<title>Node20&#45;&gt;Node22</title>
<g id="a_edge29_Node000020_Node000022"><a xlink:title=" ">
<path fill="none" stroke="#63b8ff" d="M1180.74,-126.37C1174.9,-116.78 1165.31,-101.05 1157.85,-88.8"/>
<polygon fill="#63b8ff" stroke="#63b8ff" points="1160.62,-86.62 1152.43,-79.91 1154.64,-90.27 1160.62,-86.62"/>
</a>
</g>
</g>
<!-- Node23 -->
<g id="Node000023" class="node">
<title>Node23</title>
<g id="a_Node000023"><a xlink:title=" ">
<polygon fill="#e0e0e0" stroke="#999999" points="1346,-19 1302,-19 1302,0 1346,0 1346,-19"/>
<text text-anchor="middle" x="1324" y="-7" font-family="Helvetica,sans-Serif" font-size="10.00">string</text>
</a>
</g>
</g>
<!-- Node20&#45;&gt;Node23 -->
<g id="edge30_Node000020_Node000023" class="edge">
<title>Node20&#45;&gt;Node23</title>
<g id="a_edge30_Node000020_Node000023"><a xlink:title=" ">
<path fill="none" stroke="#63b8ff" d="M1248.74,-127.91C1301.46,-120.51 1370.88,-106.87 1388,-85 1396.22,-74.5 1394.18,-66.82 1388,-55 1380.89,-41.39 1367.51,-31.1 1354.81,-23.87"/>
<polygon fill="#63b8ff" stroke="#63b8ff" points="1356.27,-20.68 1345.79,-19.13 1353.02,-26.88 1356.27,-20.68"/>
</a>
</g>
</g>
<!-- Node24 -->
<g id="Node000024" class="node">
<title>Node24</title>
<g id="a_Node000024"><a xlink:title=" ">
<polygon fill="#e0e0e0" stroke="#999999" points="1035.5,-19 940.5,-19 940.5,0 1035.5,0 1035.5,-19"/>
<text text-anchor="middle" x="988" y="-7" font-family="Helvetica,sans-Serif" font-size="10.00">boost/regex.hpp</text>
</a>
</g>
</g>
<!-- Node20&#45;&gt;Node24 -->
<g id="edge33_Node000020_Node000024" class="edge">
<title>Node20&#45;&gt;Node24</title>
<g id="a_edge33_Node000020_Node000024"><a xlink:title=" ">
<path fill="none" stroke="#63b8ff" d="M1188.86,-126.37C1193.58,-110.32 1200.9,-75.64 1184,-55 1166.69,-33.87 1097.25,-21.94 1045.91,-15.86"/>
<polygon fill="#63b8ff" stroke="#63b8ff" points="1046.23,-12.38 1035.9,-14.72 1045.44,-19.33 1046.23,-12.38"/>
</a>
</g>
</g>
<!-- Node25 -->
<g id="Node000025" class="node">
<title>Node25</title>
<g id="a_Node000025"><a xlink:href="ematch__src_2utils_2stl_2stlTypes_8hh.html" target="_top" xlink:title=" ">
<polygon fill="white" stroke="#666666" points="1379,-79.5 1269,-79.5 1269,-60.5 1379,-60.5 1379,-79.5"/>
<text text-anchor="middle" x="1324" y="-67.5" font-family="Helvetica,sans-Serif" font-size="10.00">utils/stl/stlTypes.hh</text>
</a>
</g>
</g>
<!-- Node20&#45;&gt;Node25 -->
<g id="edge35_Node000020_Node000025" class="edge">
<title>Node20&#45;&gt;Node25</title>
<g id="a_edge35_Node000020_Node000025"><a xlink:title=" ">
<path fill="none" stroke="#63b8ff" d="M1204.61,-126.37C1228.07,-115.49 1268.61,-96.69 1295.86,-84.05"/>
<polygon fill="#63b8ff" stroke="#63b8ff" points="1297.64,-87.08 1305.24,-79.7 1294.7,-80.73 1297.64,-87.08"/>
</a>
</g>
</g>
<!-- Node26 -->
<g id="Node000026" class="node">
<title>Node26</title>
<g id="a_Node000026"><a xlink:href="ematch__src_2utils_2boost_2boostUtils_8hh.html" target="_top" xlink:title=" ">
<polygon fill="white" stroke="#666666" points="876.5,-79.5 741.5,-79.5 741.5,-60.5 876.5,-60.5 876.5,-79.5"/>
<text text-anchor="middle" x="809" y="-67.5" font-family="Helvetica,sans-Serif" font-size="10.00">utils/boost/boostUtils.hh</text>
</a>
</g>
</g>
<!-- Node20&#45;&gt;Node26 -->
<g id="edge38_Node000020_Node000026" class="edge">
<title>Node20&#45;&gt;Node26</title>
<g id="a_edge38_Node000020_Node000026"><a xlink:title=" ">
<path fill="none" stroke="#63b8ff" d="M1143.02,-126.43C1133.47,-124.58 1123.4,-122.68 1114,-121 1031.32,-106.19 935.72,-90.8 873.91,-81.07"/>
<polygon fill="#63b8ff" stroke="#63b8ff" points="874.33,-77.59 863.91,-79.5 873.24,-84.51 874.33,-77.59"/>
</a>
</g>
</g>
<!-- Node25&#45;&gt;Node7 -->
<g id="edge37_Node000025_Node000007" class="edge">
<title>Node25&#45;&gt;Node7</title>
<g id="a_edge37_Node000025_Node000007"><a xlink:title=" ">
<path fill="none" stroke="#63b8ff" d="M1295.79,-60.49C1260.73,-49.92 1200.96,-31.9 1163.58,-20.63"/>
<polygon fill="#63b8ff" stroke="#63b8ff" points="1164.25,-17.17 1153.67,-17.64 1162.23,-23.87 1164.25,-17.17"/>
</a>
</g>
</g>
<!-- Node25&#45;&gt;Node23 -->
<g id="edge36_Node000025_Node000023" class="edge">
<title>Node25&#45;&gt;Node23</title>
<g id="a_edge36_Node000025_Node000023"><a xlink:title=" ">
<path fill="none" stroke="#63b8ff" d="M1324,-60.37C1324,-52.25 1324,-39.81 1324,-29.39"/>
<polygon fill="#63b8ff" stroke="#63b8ff" points="1327.5,-29.17 1324,-19.17 1320.5,-29.17 1327.5,-29.17"/>
</a>
</g>
</g>
<!-- Node26&#45;&gt;Node2 -->
<g id="edge39_Node000026_Node000002" class="edge">
<title>Node26&#45;&gt;Node2</title>
<g id="a_edge39_Node000026_Node000002"><a xlink:title=" ">
<path fill="none" stroke="#63b8ff" d="M763.86,-60.43C753.42,-58.55 742.33,-56.63 732,-55 627.51,-38.49 503.84,-22.91 441.4,-15.32"/>
<polygon fill="#63b8ff" stroke="#63b8ff" points="441.54,-11.81 431.19,-14.08 440.7,-18.76 441.54,-11.81"/>
</a>
</g>
</g>
<!-- Node26&#45;&gt;Node24 -->
<g id="edge40_Node000026_Node000024" class="edge">
<title>Node26&#45;&gt;Node24</title>
<g id="a_edge40_Node000026_Node000024"><a xlink:title=" ">
<path fill="none" stroke="#63b8ff" d="M835.03,-60.49C865.92,-50.4 917.58,-33.51 952.22,-22.19"/>
<polygon fill="#63b8ff" stroke="#63b8ff" points="953.52,-25.45 961.94,-19.02 951.35,-18.8 953.52,-25.45"/>
</a>
</g>
</g>
<!-- Node27&#45;&gt;Node2 -->
<g id="edge44_Node000027_Node000002" class="edge">
<title>Node27&#45;&gt;Node2</title>
<g id="a_edge44_Node000027_Node000002"><a xlink:title=" ">
<path fill="none" stroke="#63b8ff" d="M970.55,-131.63C858.11,-125.39 637.44,-110.31 564,-85 540.22,-76.8 538.5,-66.26 516,-55 490.32,-42.15 459.97,-30.55 436.9,-22.41"/>
<polygon fill="#63b8ff" stroke="#63b8ff" points="437.77,-19.01 427.18,-19.04 435.48,-25.62 437.77,-19.01"/>
</a>
</g>
</g>
<!-- Node27&#45;&gt;Node7 -->
<g id="edge43_Node000027_Node000007" class="edge">
<title>Node27&#45;&gt;Node7</title>
<g id="a_edge43_Node000027_Node000007"><a xlink:title=" ">
<path fill="none" stroke="#63b8ff" d="M1035.42,-126.48C1031.24,-110.92 1024.81,-77.42 1039,-55 1051.63,-35.04 1076.06,-23.78 1096.42,-17.58"/>
<polygon fill="#63b8ff" stroke="#63b8ff" points="1097.61,-20.88 1106.32,-14.85 1095.75,-14.13 1097.61,-20.88"/>
</a>
</g>
</g>
<!-- Node27&#45;&gt;Node13 -->
<g id="edge42_Node000027_Node000013" class="edge">
<title>Node27&#45;&gt;Node13</title>
<g id="a_edge42_Node000027_Node000013"><a xlink:title=" ">
<path fill="none" stroke="#63b8ff" d="M1082.73,-126.49C1093.29,-124.58 1104.53,-122.64 1115,-121 1235.91,-102.05 1267.14,-104.24 1388,-85 1400.04,-83.08 1413.12,-80.74 1424.93,-78.51"/>
<polygon fill="#63b8ff" stroke="#63b8ff" points="1425.76,-81.92 1434.93,-76.61 1424.45,-75.04 1425.76,-81.92"/>
</a>
</g>
</g>
<!-- Node28&#45;&gt;Node20 -->
<g id="edge46_Node000028_Node000020" class="edge">
<title>Node28&#45;&gt;Node20</title>
<g id="a_edge46_Node000028_Node000020"><a xlink:title=" ">
<path fill="none" stroke="#63b8ff" d="M933.12,-187.89C992.31,-175.98 1078.53,-158.63 1133.44,-147.58"/>
<polygon fill="#63b8ff" stroke="#63b8ff" points="1134.2,-150.99 1143.32,-145.59 1132.82,-144.13 1134.2,-150.99"/>
</a>
</g>
</g>
<!-- Node29 -->
<g id="Node000029" class="node">
<title>Node29</title>
<g id="a_Node000029"><a xlink:href="StringKeyHashtable_8hh.html" target="_top" xlink:title=" ">
<polygon fill="white" stroke="#666666" points="475.5,-151 344.5,-151 344.5,-121 475.5,-121 475.5,-151"/>
<text text-anchor="start" x="352.5" y="-139" font-family="Helvetica,sans-Serif" font-size="10.00">utils/ChainHashtable</text>
<text text-anchor="middle" x="410" y="-128" font-family="Helvetica,sans-Serif" font-size="10.00">/StringKeyHashtable.hh</text>
</a>
</g>
</g>
<!-- Node28&#45;&gt;Node29 -->
<g id="edge47_Node000028_Node000029" class="edge">
<title>Node28&#45;&gt;Node29</title>
<g id="a_edge47_Node000028_Node000029"><a xlink:title=" ">
<path fill="none" stroke="#63b8ff" d="M802.67,-188.39C799.74,-187.9 796.84,-187.44 794,-187 659.52,-166.34 624.62,-170.73 490,-151 488.71,-150.81 487.4,-150.62 486.08,-150.42"/>
<polygon fill="#63b8ff" stroke="#63b8ff" points="486.29,-146.91 475.87,-148.83 485.22,-153.82 486.29,-146.91"/>
</a>
</g>
</g>
<!-- Node29&#45;&gt;Node2 -->
<g id="edge50_Node000029_Node000002" class="edge">
<title>Node29&#45;&gt;Node2</title>
<g id="a_edge50_Node000029_Node000002"><a xlink:title=" ">
<path fill="none" stroke="#63b8ff" d="M344.17,-122.58C341.07,-122.03 338,-121.51 335,-121 281.82,-112.05 130.19,-125.86 95,-85 86.3,-74.9 86.28,-65.08 95,-55 128.92,-15.79 285.87,-10.41 360.88,-10.14"/>
<polygon fill="#63b8ff" stroke="#63b8ff" points="360.9,-13.64 370.89,-10.13 360.89,-6.64 360.9,-13.64"/>
</a>
</g>
</g>
<!-- Node29&#45;&gt;Node7 -->
<g id="edge49_Node000029_Node000007" class="edge">
<title>Node29&#45;&gt;Node7</title>
<g id="a_edge49_Node000029_Node000007"><a xlink:title=" ">
<path fill="none" stroke="#63b8ff" d="M475.63,-132.16C588.04,-126.61 812.43,-112.43 886,-85 907.83,-76.86 907.66,-64.36 929,-55 984.85,-30.49 1055.55,-18.88 1096.49,-13.87"/>
<polygon fill="#63b8ff" stroke="#63b8ff" points="1096.95,-17.34 1106.48,-12.7 1096.14,-10.39 1096.95,-17.34"/>
</a>
</g>
</g>
<!-- Node29&#45;&gt;Node15 -->
<g id="edge51_Node000029_Node000015" class="edge">
<title>Node29&#45;&gt;Node15</title>
<g id="a_edge51_Node000029_Node000015"><a xlink:title=" ">
<path fill="none" stroke="#63b8ff" d="M465.96,-120.95C512.65,-109.24 578.27,-92.77 621.2,-81.99"/>
<polygon fill="#63b8ff" stroke="#63b8ff" points="622.22,-85.35 631.06,-79.52 620.51,-78.56 622.22,-85.35"/>
</a>
</g>
</g>
<!-- Node29&#45;&gt;Node23 -->
<g id="edge48_Node000029_Node000023" class="edge">
<title>Node29&#45;&gt;Node23</title>
<g id="a_edge48_Node000029_Node000023"><a xlink:title=" ">
<path fill="none" stroke="#63b8ff" d="M475.77,-131.76C573.48,-126.22 762.51,-112.74 921,-85 974.3,-75.67 985.99,-65.85 1039,-55 1129.88,-36.4 1238.46,-21.42 1291.54,-14.56"/>
<polygon fill="#63b8ff" stroke="#63b8ff" points="1292.23,-18 1301.7,-13.26 1291.34,-11.05 1292.23,-18"/>
</a>
</g>
</g>
<!-- Node30 -->
<g id="Node000030" class="node">
<title>Node30</title>
<g id="a_Node000030"><a xlink:href="bitLeftRotate_8hh.html" target="_top" xlink:title=" ">
<polygon fill="white" stroke="#666666" points="222,-85 104,-85 104,-55 222,-55 222,-85"/>
<text text-anchor="start" x="112" y="-73" font-family="Helvetica,sans-Serif" font-size="10.00">utils/ChainHashtable</text>
<text text-anchor="middle" x="163" y="-62" font-family="Helvetica,sans-Serif" font-size="10.00">/bitLeftRotate.hh</text>
</a>
</g>
</g>
<!-- Node29&#45;&gt;Node30 -->
<g id="edge52_Node000029_Node000030" class="edge">
<title>Node29&#45;&gt;Node30</title>
<g id="a_edge52_Node000029_Node000030"><a xlink:title=" ">
<path fill="none" stroke="#63b8ff" d="M355.79,-120.95C317.83,-111.12 266.95,-97.93 226.99,-87.58"/>
<polygon fill="#63b8ff" stroke="#63b8ff" points="227.64,-84.13 217.08,-85.01 225.88,-90.91 227.64,-84.13"/>
</a>
</g>
</g>
<!-- Node31 -->
<g id="Node000031" class="node">
<title>Node31</title>
<g id="a_Node000031"><a xlink:href="nextPrime_8hh.html" target="_top" xlink:title=" ">
<polygon fill="white" stroke="#666666" points="322,-79.5 240,-79.5 240,-60.5 322,-60.5 322,-79.5"/>
<text text-anchor="middle" x="281" y="-67.5" font-family="Helvetica,sans-Serif" font-size="10.00">nextPrime.hh</text>
</a>
</g>
</g>
<!-- Node29&#45;&gt;Node31 -->
<g id="edge54_Node000029_Node000031" class="edge">
<title>Node29&#45;&gt;Node31</title>
<g id="a_edge54_Node000029_Node000031"><a xlink:title=" ">
<path fill="none" stroke="#63b8ff" d="M381.69,-120.95C359.57,-109.98 329.04,-94.83 307.42,-84.11"/>
<polygon fill="#63b8ff" stroke="#63b8ff" points="308.68,-80.83 298.17,-79.52 305.57,-87.1 308.68,-80.83"/>
</a>
</g>
</g>
<!-- Node32 -->
<g id="Node000032" class="node">
<title>Node32</title>
<g id="a_Node000032"><a xlink:href="genericHashFunction_8hh.html" target="_top" xlink:title=" ">
<polygon fill="white" stroke="#666666" points="474,-79.5 340,-79.5 340,-60.5 474,-60.5 474,-79.5"/>
<text text-anchor="middle" x="407" y="-67.5" font-family="Helvetica,sans-Serif" font-size="10.00">genericHashFunction.hh</text>
</a>
</g>
</g>
<!-- Node29&#45;&gt;Node32 -->
<g id="edge56_Node000029_Node000032" class="edge">
<title>Node29&#45;&gt;Node32</title>
<g id="a_edge56_Node000029_Node000032"><a xlink:title=" ">
<path fill="none" stroke="#63b8ff" d="M409.33,-120.8C408.91,-111.7 408.35,-99.79 407.89,-89.9"/>
<polygon fill="#63b8ff" stroke="#63b8ff" points="411.38,-89.67 407.41,-79.84 404.39,-90 411.38,-89.67"/>
</a>
</g>
</g>
<!-- Node30&#45;&gt;Node2 -->
<g id="edge53_Node000030_Node000002" class="edge">
<title>Node30&#45;&gt;Node2</title>
<g id="a_edge53_Node000030_Node000002"><a xlink:title=" ">
<path fill="none" stroke="#63b8ff" d="M220.01,-54.99C263.56,-44.28 322.48,-29.8 361.1,-20.31"/>
<polygon fill="#63b8ff" stroke="#63b8ff" points="362.06,-23.68 370.94,-17.89 360.39,-16.88 362.06,-23.68"/>
</a>
</g>
</g>
<!-- Node31&#45;&gt;Node2 -->
<g id="edge55_Node000031_Node000002" class="edge">
<title>Node31&#45;&gt;Node2</title>
<g id="a_edge55_Node000031_Node000002"><a xlink:title=" ">
<path fill="none" stroke="#63b8ff" d="M298.45,-60.49C318.36,-50.79 351.14,-34.81 374.27,-23.53"/>
<polygon fill="#63b8ff" stroke="#63b8ff" points="376.07,-26.54 383.53,-19.02 373.01,-20.25 376.07,-26.54"/>
</a>
</g>
</g>
<!-- Node33&#45;&gt;Node6 -->
<g id="edge60_Node000033_Node000006" class="edge">
<title>Node33&#45;&gt;Node6</title>
<g id="a_edge60_Node000033_Node000006"><a xlink:title=" ">
<path fill="none" stroke="#63b8ff" d="M670.11,-252.95C642.22,-241.73 603.51,-226.15 576.77,-215.39"/>
<polygon fill="#63b8ff" stroke="#63b8ff" points="577.74,-212 567.16,-211.52 575.13,-218.5 577.74,-212"/>
</a>
</g>
</g>
<!-- Node33&#45;&gt;Node8 -->
<g id="edge58_Node000033_Node000008" class="edge">
<title>Node33&#45;&gt;Node8</title>
<g id="a_edge58_Node000033_Node000008"><a xlink:title=" ">
<path fill="none" stroke="#63b8ff" d="M704.11,-252.8C703.54,-243.7 702.8,-231.79 702.18,-221.9"/>
<polygon fill="#63b8ff" stroke="#63b8ff" points="705.67,-221.61 701.55,-211.84 698.68,-222.04 705.67,-221.61"/>
</a>
</g>
</g>
<!-- Node33&#45;&gt;Node28 -->
<g id="edge59_Node000033_Node000028" class="edge">
<title>Node33&#45;&gt;Node28</title>
<g id="a_edge59_Node000033_Node000028"><a xlink:title=" ">
<path fill="none" stroke="#63b8ff" d="M740.77,-252.95C764.87,-243.49 796.85,-230.93 822.73,-220.78"/>
<polygon fill="#63b8ff" stroke="#63b8ff" points="824.28,-223.93 832.31,-217.01 821.73,-217.41 824.28,-223.93"/>
</a>
</g>
</g>
</g>
</svg>
