<?xml version="1.0" encoding="UTF-8" standalone="no"?>
<!DOCTYPE svg PUBLIC "-//W3C//DTD SVG 1.1//EN"
 "http://www.w3.org/Graphics/SVG/1.1/DTD/svg11.dtd">
<!-- Generated by graphviz version 2.43.0 (0)
 -->
<!-- Title: main Pages: 1 -->
<svg width="416pt" height="64pt"
 viewBox="0.00 0.00 416.00 64.00" xmlns="http://www.w3.org/2000/svg" xmlns:xlink="http://www.w3.org/1999/xlink">
<g id="graph0" class="graph" transform="scale(1 1) rotate(0) translate(4 60)">
<title>main</title>
<!-- Node1 -->
<g id="Node000001" class="node">
<title>Node1</title>
<g id="a_Node000001"><a xlink:title=" ">
<polygon fill="#999999" stroke="#666666" points="41,-37 0,-37 0,-18 41,-18 41,-37"/>
<text text-anchor="middle" x="20.5" y="-25" font-family="Helvetica,sans-Serif" font-size="10.00">main</text>
</a>
</g>
</g>
<!-- Node2 -->
<g id="Node000002" class="node">
<title>Node2</title>
<g id="a_Node000002"><a xlink:href="namespacecbrc.html#a06b2f88627854094d5be79a680c7d74c" target="_top" xlink:title=" ">
<polygon fill="white" stroke="#666666" points="238,-37 77,-37 77,-18 238,-18 238,-37"/>
<text text-anchor="middle" x="157.5" y="-25" font-family="Helvetica,sans-Serif" font-size="10.00">cbrc::runGlobalAffineSearcher</text>
</a>
</g>
</g>
<!-- Node1&#45;&gt;Node2 -->
<g id="edge1_Node000001_Node000002" class="edge">
<title>Node1&#45;&gt;Node2</title>
<g id="a_edge1_Node000001_Node000002"><a xlink:title=" ">
<path fill="none" stroke="#63b8ff" d="M41.13,-27.5C48.4,-27.5 57.2,-27.5 66.66,-27.5"/>
<polygon fill="#63b8ff" stroke="#63b8ff" points="66.72,-31 76.72,-27.5 66.72,-24 66.72,-31"/>
</a>
</g>
</g>
<!-- Node3 -->
<g id="Node000003" class="node">
<title>Node3</title>
<g id="a_Node000003"><a xlink:href="namespacecbrc_1_1perlish.html#a80277a81ef7203ee71ba91432a451e4b" target="_top" xlink:title=" ">
<polygon fill="white" stroke="#666666" points="408,-56 274,-56 274,-37 408,-37 408,-56"/>
<text text-anchor="middle" x="341" y="-44" font-family="Helvetica,sans-Serif" font-size="10.00">cbrc::perlish::openOrDie</text>
</a>
</g>
</g>
<!-- Node2&#45;&gt;Node3 -->
<g id="edge2_Node000002_Node000003" class="edge">
<title>Node2&#45;&gt;Node3</title>
<g id="a_edge2_Node000002_Node000003"><a xlink:title=" ">
<path fill="none" stroke="#63b8ff" d="M238.11,-35.83C246.57,-36.72 255.17,-37.62 263.59,-38.5"/>
<polygon fill="#63b8ff" stroke="#63b8ff" points="263.46,-42.01 273.77,-39.57 264.19,-35.04 263.46,-42.01"/>
</a>
</g>
</g>
<!-- Node4 -->
<g id="Node000004" class="node">
<title>Node4</title>
<g id="a_Node000004"><a xlink:href="classcbrc_1_1FLEArray.html#ad71311380d762114c9e0f3b0dda38b7c" target="_top" xlink:title=" ">
<polygon fill="white" stroke="#666666" points="396.5,-19 285.5,-19 285.5,0 396.5,0 396.5,-19"/>
<text text-anchor="middle" x="341" y="-7" font-family="Helvetica,sans-Serif" font-size="10.00">cbrc::FLEArray::size</text>
</a>
</g>
</g>
<!-- Node2&#45;&gt;Node4 -->
<g id="edge3_Node000002_Node000004" class="edge">
<title>Node2&#45;&gt;Node4</title>
<g id="a_edge3_Node000002_Node000004"><a xlink:title=" ">
<path fill="none" stroke="#63b8ff" d="M238.11,-19.6C250.61,-18.37 263.4,-17.1 275.5,-15.9"/>
<polygon fill="#63b8ff" stroke="#63b8ff" points="275.88,-19.38 285.49,-14.91 275.19,-12.41 275.88,-19.38"/>
</a>
</g>
</g>
</g>
</svg>
