<?xml version="1.0" encoding="UTF-8" standalone="no"?>
<!DOCTYPE svg PUBLIC "-//W3C//DTD SVG 1.1//EN"
 "http://www.w3.org/Graphics/SVG/1.1/DTD/svg11.dtd">
<!-- Generated by graphviz version 2.43.0 (0)
 -->
<!-- Title: main Pages: 1 -->
<svg width="991pt" height="367pt"
 viewBox="0.00 0.00 991.00 366.89" xmlns="http://www.w3.org/2000/svg" xmlns:xlink="http://www.w3.org/1999/xlink">
<g id="graph0" class="graph" transform="scale(1 1) rotate(0) translate(4 362.89)">
<title>main</title>
<!-- Node1 -->
<g id="Node000001" class="node">
<title>Node1</title>
<g id="a_Node000001"><a xlink:title=" ">
<polygon fill="#999999" stroke="#666666" points="41,-142 0,-142 0,-123 41,-123 41,-142"/>
<text text-anchor="middle" x="20.5" y="-130" font-family="Helvetica,sans-Serif" font-size="10.00">main</text>
</a>
</g>
</g>
<!-- Node2 -->
<g id="Node000002" class="node">
<title>Node2</title>
<g id="a_Node000002"><a xlink:href="classcbrc_1_1ArgvParser.html#a74359749acfafee36c21d20b237d1cc2" target="_top" xlink:title=" ">
<polygon fill="white" stroke="#666666" points="259,-282 77,-282 77,-263 259,-263 259,-282"/>
<text text-anchor="middle" x="168" y="-270" font-family="Helvetica,sans-Serif" font-size="10.00">cbrc::ArgvParser::dieIfUnusedArgs</text>
</a>
</g>
</g>
<!-- Node1&#45;&gt;Node2 -->
<g id="edge1_Node000001_Node000002" class="edge">
<title>Node1&#45;&gt;Node2</title>
<g id="a_edge1_Node000001_Node000002"><a xlink:title=" ">
<path fill="none" stroke="#63b8ff" d="M23.97,-142.27C29.71,-163.09 45.9,-212.12 77,-239.5 86.95,-248.26 99.43,-254.77 111.9,-259.57"/>
<polygon fill="#63b8ff" stroke="#63b8ff" points="110.79,-262.89 121.39,-262.92 113.12,-256.29 110.79,-262.89"/>
</a>
</g>
</g>
<!-- Node7 -->
<g id="Node000007" class="node">
<title>Node7</title>
<g id="a_Node000007"><a xlink:href="classcbrc_1_1ArgvParser.html#a8e03423da9e8217c5c6e65f0ff403a1a" target="_top" xlink:title=" ">
<polygon fill="white" stroke="#666666" points="445.5,-255 302.5,-255 302.5,-236 445.5,-236 445.5,-255"/>
<text text-anchor="middle" x="374" y="-243" font-family="Helvetica,sans-Serif" font-size="10.00">cbrc::ArgvParser::printDoc</text>
</a>
</g>
</g>
<!-- Node1&#45;&gt;Node7 -->
<g id="edge16_Node000001_Node000007" class="edge">
<title>Node1&#45;&gt;Node7</title>
<g id="a_edge16_Node000001_Node000007"><a xlink:title=" ">
<path fill="none" stroke="#63b8ff" d="M28.15,-142.17C37.48,-154.94 55.74,-177.16 77,-188.5 144.03,-224.26 230.22,-237.79 292.29,-242.81"/>
<polygon fill="#63b8ff" stroke="#63b8ff" points="292.19,-246.31 302.42,-243.57 292.71,-239.33 292.19,-246.31"/>
</a>
</g>
</g>
<!-- Node12 -->
<g id="Node000012" class="node">
<title>Node12</title>
<g id="a_Node000012"><a xlink:href="classcbrc_1_1ArgvParser.html#af7ae17027937b2aaf2f6a0ff9a12c265" target="_top" xlink:title=" ">
<polygon fill="white" stroke="#666666" points="238,-105 98,-105 98,-86 238,-86 238,-105"/>
<text text-anchor="middle" x="168" y="-93" font-family="Helvetica,sans-Serif" font-size="10.00">cbrc::ArgvParser::hasFlag</text>
</a>
</g>
</g>
<!-- Node1&#45;&gt;Node12 -->
<g id="edge15_Node000001_Node000012" class="edge">
<title>Node1&#45;&gt;Node12</title>
<g id="a_edge15_Node000001_Node000012"><a xlink:title=" ">
<path fill="none" stroke="#63b8ff" d="M41.13,-125.57C51.68,-121.99 64.96,-117.71 77,-114.5 86.72,-111.91 97.11,-109.44 107.24,-107.19"/>
<polygon fill="#63b8ff" stroke="#63b8ff" points="108.23,-110.56 117.26,-105.02 106.75,-103.72 108.23,-110.56"/>
</a>
</g>
</g>
<!-- Node13 -->
<g id="Node000013" class="node">
<title>Node13</title>
<g id="a_Node000013"><a xlink:href="namespacecbrc.html#a82f2101be71dc230b882ec72579d85b7" target="_top" xlink:title=" ">
<polygon fill="white" stroke="#666666" points="246.5,-67.5 89.5,-67.5 89.5,-37.5 246.5,-37.5 246.5,-67.5"/>
<text text-anchor="start" x="97.5" y="-55.5" font-family="Helvetica,sans-Serif" font-size="10.00">cbrc::runGlobalAffineNearest</text>
<text text-anchor="middle" x="168" y="-44.5" font-family="Helvetica,sans-Serif" font-size="10.00">Class</text>
</a>
</g>
</g>
<!-- Node1&#45;&gt;Node13 -->
<g id="edge17_Node000001_Node000013" class="edge">
<title>Node1&#45;&gt;Node13</title>
<g id="a_edge17_Node000001_Node000013"><a xlink:title=" ">
<path fill="none" stroke="#63b8ff" d="M28.65,-122.83C38.28,-110.5 56.59,-89.35 77,-77.5 80.71,-75.35 84.61,-73.37 88.63,-71.56"/>
<polygon fill="#63b8ff" stroke="#63b8ff" points="90.26,-74.68 98.17,-67.63 87.59,-68.21 90.26,-74.68"/>
</a>
</g>
</g>
<!-- Node15 -->
<g id="Node000015" class="node">
<title>Node15</title>
<g id="a_Node000015"><a xlink:href="classcbrc_1_1ArgvParser.html#af2a832f8094ea123b64c182612023d7f" target="_top" xlink:title=" ">
<polygon fill="white" stroke="#666666" points="226,-142 110,-142 110,-123 226,-123 226,-142"/>
<text text-anchor="middle" x="168" y="-130" font-family="Helvetica,sans-Serif" font-size="10.00">cbrc::ArgvParser::set</text>
</a>
</g>
</g>
<!-- Node1&#45;&gt;Node15 -->
<g id="edge19_Node000001_Node000015" class="edge">
<title>Node1&#45;&gt;Node15</title>
<g id="a_edge19_Node000001_Node000015"><a xlink:title=" ">
<path fill="none" stroke="#63b8ff" d="M41.12,-132.5C56.32,-132.5 78.33,-132.5 99.7,-132.5"/>
<polygon fill="#63b8ff" stroke="#63b8ff" points="99.78,-136 109.78,-132.5 99.78,-129 99.78,-136"/>
</a>
</g>
</g>
<!-- Node19 -->
<g id="Node000019" class="node">
<title>Node19</title>
<g id="a_Node000019"><a xlink:href="classcbrc_1_1ArgvParser.html#a436fd5f0fd31d5e4d0fae8670897ffe4" target="_top" xlink:title=" ">
<polygon fill="white" stroke="#666666" points="235.5,-19 100.5,-19 100.5,0 235.5,0 235.5,-19"/>
<text text-anchor="middle" x="168" y="-7" font-family="Helvetica,sans-Serif" font-size="10.00">cbrc::ArgvParser::setDoc</text>
</a>
</g>
</g>
<!-- Node1&#45;&gt;Node19 -->
<g id="edge25_Node000001_Node000019" class="edge">
<title>Node1&#45;&gt;Node19</title>
<g id="a_edge25_Node000001_Node000019"><a xlink:title=" ">
<path fill="none" stroke="#63b8ff" d="M23.69,-122.97C28.96,-102.24 44.44,-52.96 77,-28.5 81.2,-25.34 85.81,-22.68 90.65,-20.45"/>
<polygon fill="#63b8ff" stroke="#63b8ff" points="92.21,-23.6 100.2,-16.65 89.62,-17.09 92.21,-23.6"/>
</a>
</g>
</g>
<!-- Node20 -->
<g id="Node000020" class="node">
<title>Node20</title>
<g id="a_Node000020"><a xlink:href="classcbrc_1_1ArgvParser.html#a4c8336b8cd01c009285d5f0ba688254c" target="_top" xlink:title=" ">
<polygon fill="white" stroke="#666666" points="240,-179 96,-179 96,-160 240,-160 240,-179"/>
<text text-anchor="middle" x="168" y="-167" font-family="Helvetica,sans-Serif" font-size="10.00">cbrc::ArgvParser::setOrDie</text>
</a>
</g>
</g>
<!-- Node1&#45;&gt;Node20 -->
<g id="edge26_Node000001_Node000020" class="edge">
<title>Node1&#45;&gt;Node20</title>
<g id="a_edge26_Node000001_Node000020"><a xlink:title=" ">
<path fill="none" stroke="#63b8ff" d="M41.08,-139.91C51.62,-143.72 64.91,-148.24 77,-151.5 85.49,-153.79 94.51,-155.93 103.43,-157.88"/>
<polygon fill="#63b8ff" stroke="#63b8ff" points="102.92,-161.35 113.43,-160 104.37,-154.5 102.92,-161.35"/>
</a>
</g>
</g>
<!-- Node3 -->
<g id="Node000003" class="node">
<title>Node3</title>
<g id="a_Node000003"><a xlink:href="classcbrc_1_1ArgvParser.html#aad8dc9d595217cf4ad2a7f557371d3ab" target="_top" xlink:title=" ">
<polygon fill="white" stroke="#666666" points="432,-218 316,-218 316,-199 432,-199 432,-218"/>
<text text-anchor="middle" x="374" y="-206" font-family="Helvetica,sans-Serif" font-size="10.00">cbrc::ArgvParser::die</text>
</a>
</g>
</g>
<!-- Node2&#45;&gt;Node3 -->
<g id="edge2_Node000002_Node000003" class="edge">
<title>Node2&#45;&gt;Node3</title>
<g id="a_edge2_Node000002_Node000003"><a xlink:title=" ">
<path fill="none" stroke="#63b8ff" d="M193.38,-262.94C218.57,-253.26 259.17,-238.23 295,-227.5 303.16,-225.06 311.86,-222.7 320.39,-220.52"/>
<polygon fill="#63b8ff" stroke="#63b8ff" points="321.42,-223.87 330.28,-218.06 319.73,-217.08 321.42,-223.87"/>
</a>
</g>
</g>
<!-- Node4 -->
<g id="Node000004" class="node">
<title>Node4</title>
<g id="a_Node000004"><a xlink:href="classcbrc_1_1FLEArray.html#ad71311380d762114c9e0f3b0dda38b7c" target="_top" xlink:title=" ">
<polygon fill="white" stroke="#666666" points="983,-292 872,-292 872,-273 983,-273 983,-292"/>
<text text-anchor="middle" x="927.5" y="-280" font-family="Helvetica,sans-Serif" font-size="10.00">cbrc::FLEArray::size</text>
</a>
</g>
</g>
<!-- Node2&#45;&gt;Node4 -->
<g id="edge13_Node000002_Node000004" class="edge">
<title>Node2&#45;&gt;Node4</title>
<g id="a_edge13_Node000002_Node000004"><a xlink:title=" ">
<path fill="none" stroke="#63b8ff" d="M182.11,-282.14C204.09,-297.66 250.4,-327.53 295,-338.5 513.54,-392.27 785.86,-324.42 886.61,-294.93"/>
<polygon fill="#63b8ff" stroke="#63b8ff" points="887.79,-298.23 896.38,-292.03 885.8,-291.52 887.79,-298.23"/>
</a>
</g>
</g>
<!-- Node6 -->
<g id="Node000006" class="node">
<title>Node6</title>
<g id="a_Node000006"><a xlink:href="classcbrc_1_1FLEArray.html#a877e10058250ecb9733399c211afee1a" target="_top" xlink:title=" ">
<polygon fill="white" stroke="#666666" points="435.5,-329 312.5,-329 312.5,-310 435.5,-310 435.5,-329"/>
<text text-anchor="middle" x="374" y="-317" font-family="Helvetica,sans-Serif" font-size="10.00">cbrc::FLEArray::empty</text>
</a>
</g>
</g>
<!-- Node2&#45;&gt;Node6 -->
<g id="edge5_Node000002_Node000006" class="edge">
<title>Node2&#45;&gt;Node6</title>
<g id="a_edge5_Node000002_Node000006"><a xlink:title=" ">
<path fill="none" stroke="#63b8ff" d="M210.28,-282.01C242.39,-289.41 287.12,-299.71 321.55,-307.65"/>
<polygon fill="#63b8ff" stroke="#63b8ff" points="320.9,-311.09 331.43,-309.92 322.47,-304.27 320.9,-311.09"/>
</a>
</g>
</g>
<!-- Node2&#45;&gt;Node7 -->
<g id="edge6_Node000002_Node000007" class="edge">
<title>Node2&#45;&gt;Node7</title>
<g id="a_edge6_Node000002_Node000007"><a xlink:title=" ">
<path fill="none" stroke="#63b8ff" d="M240.92,-262.98C257.45,-260.79 275.14,-258.45 292.02,-256.22"/>
<polygon fill="#63b8ff" stroke="#63b8ff" points="292.96,-259.62 302.41,-254.84 292.04,-252.68 292.96,-259.62"/>
</a>
</g>
</g>
<!-- Node11 -->
<g id="Node000011" class="node">
<title>Node11</title>
<g id="a_Node000011"><a xlink:href="classcbrc_1_1ArgvParser.html#a40870d9c52a7a88958432ef2126ab9f1" target="_top" xlink:title=" ">
<polygon fill="white" stroke="#666666" points="453,-292 295,-292 295,-273 453,-273 453,-292"/>
<text text-anchor="middle" x="374" y="-280" font-family="Helvetica,sans-Serif" font-size="10.00">cbrc::ArgvParser::unusedArgs</text>
</a>
</g>
</g>
<!-- Node2&#45;&gt;Node11 -->
<g id="edge14_Node000002_Node000011" class="edge">
<title>Node2&#45;&gt;Node11</title>
<g id="a_edge14_Node000002_Node000011"><a xlink:title=" ">
<path fill="none" stroke="#63b8ff" d="M259.07,-276.92C267.57,-277.33 276.18,-277.75 284.66,-278.17"/>
<polygon fill="#63b8ff" stroke="#63b8ff" points="284.77,-281.68 294.93,-278.67 285.11,-274.69 284.77,-281.68"/>
</a>
</g>
</g>
<!-- Node3&#45;&gt;Node4 -->
<g id="edge3_Node000003_Node000004" class="edge">
<title>Node3&#45;&gt;Node4</title>
<g id="a_edge3_Node000003_Node000004"><a xlink:title=" ">
<path fill="none" stroke="#63b8ff" d="M432.26,-204.61C520.63,-200.23 694.79,-198.11 836,-236.5 860.25,-243.09 885.56,-256.61 903.23,-267.3"/>
<polygon fill="#63b8ff" stroke="#63b8ff" points="901.87,-270.57 912.21,-272.88 905.56,-264.63 901.87,-270.57"/>
</a>
</g>
</g>
<!-- Node5 -->
<g id="Node000005" class="node">
<title>Node5</title>
<g id="a_Node000005"><a xlink:href="classcbrc_1_1ArgvParser.html#a1b7d257748fcfaa9a9a3cf46bc36a7e5" target="_top" xlink:title=" ">
<polygon fill="white" stroke="#666666" points="642,-180 511,-180 511,-161 642,-161 642,-180"/>
<text text-anchor="middle" x="576.5" y="-168" font-family="Helvetica,sans-Serif" font-size="10.00">cbrc::ArgvParser::usage</text>
</a>
</g>
</g>
<!-- Node3&#45;&gt;Node5 -->
<g id="edge4_Node000003_Node000005" class="edge">
<title>Node3&#45;&gt;Node5</title>
<g id="a_edge4_Node000003_Node000005"><a xlink:title=" ">
<path fill="none" stroke="#63b8ff" d="M425.34,-198.96C452.63,-193.79 486.54,-187.36 515.23,-181.92"/>
<polygon fill="#63b8ff" stroke="#63b8ff" points="515.97,-185.34 525.14,-180.04 514.67,-178.47 515.97,-185.34"/>
</a>
</g>
</g>
<!-- Node8 -->
<g id="Node000008" class="node">
<title>Node8</title>
<g id="a_Node000008"><a xlink:href="classcbrc_1_1ArgvParser.html#a4279902497c688168b45f0f70d118060" target="_top" xlink:title=" ">
<polygon fill="white" stroke="#666666" points="649,-256 504,-256 504,-237 649,-237 649,-256"/>
<text text-anchor="middle" x="576.5" y="-244" font-family="Helvetica,sans-Serif" font-size="10.00">cbrc::ArgvParser::numArgs</text>
</a>
</g>
</g>
<!-- Node7&#45;&gt;Node8 -->
<g id="edge7_Node000007_Node000008" class="edge">
<title>Node7&#45;&gt;Node8</title>
<g id="a_edge7_Node000007_Node000008"><a xlink:title=" ">
<path fill="none" stroke="#63b8ff" d="M445.69,-245.85C461.13,-245.93 477.61,-246.01 493.45,-246.09"/>
<polygon fill="#63b8ff" stroke="#63b8ff" points="493.74,-249.59 503.76,-246.14 493.78,-242.59 493.74,-249.59"/>
</a>
</g>
</g>
<!-- Node9 -->
<g id="Node000009" class="node">
<title>Node9</title>
<g id="a_Node000009"><a xlink:href="classcbrc_1_1ArgvParser.html#a96db1f87dc329ff812829f18748c2ce6" target="_top" xlink:title=" ">
<polygon fill="white" stroke="#666666" points="664,-293 489,-293 489,-274 664,-274 664,-293"/>
<text text-anchor="middle" x="576.5" y="-281" font-family="Helvetica,sans-Serif" font-size="10.00">cbrc::ArgvParser::printOptionDoc</text>
</a>
</g>
</g>
<!-- Node7&#45;&gt;Node9 -->
<g id="edge8_Node000007_Node000009" class="edge">
<title>Node7&#45;&gt;Node9</title>
<g id="a_edge8_Node000007_Node000009"><a xlink:title=" ">
<path fill="none" stroke="#63b8ff" d="M425.34,-255.04C452.63,-260.21 486.54,-266.64 515.23,-272.08"/>
<polygon fill="#63b8ff" stroke="#63b8ff" points="514.67,-275.53 525.14,-273.96 515.97,-268.66 514.67,-275.53"/>
</a>
</g>
</g>
<!-- Node9&#45;&gt;Node4 -->
<g id="edge12_Node000009_Node000004" class="edge">
<title>Node9&#45;&gt;Node4</title>
<g id="a_edge12_Node000009_Node000004"><a xlink:title=" ">
<path fill="none" stroke="#63b8ff" d="M664.13,-289.86C676.17,-290.54 688.39,-291.12 700,-291.5 760.41,-293.47 775.63,-294.49 836,-291.5 844.27,-291.09 852.96,-290.47 861.54,-289.74"/>
<polygon fill="#63b8ff" stroke="#63b8ff" points="861.88,-293.23 871.53,-288.85 861.26,-286.25 861.88,-293.23"/>
</a>
</g>
</g>
<!-- Node10 -->
<g id="Node000010" class="node">
<title>Node10</title>
<g id="a_Node000010"><a xlink:href="classcbrc_1_1ArgvParser.html#af4e3bd7a5c422f82280a37b17299876f" target="_top" xlink:title=" ">
<polygon fill="white" stroke="#666666" points="836,-264 700,-264 700,-245 836,-245 836,-264"/>
<text text-anchor="middle" x="768" y="-252" font-family="Helvetica,sans-Serif" font-size="10.00">cbrc::ArgvParser::getDoc</text>
</a>
</g>
</g>
<!-- Node9&#45;&gt;Node10 -->
<g id="edge9_Node000009_Node000010" class="edge">
<title>Node9&#45;&gt;Node10</title>
<g id="a_edge9_Node000009_Node000010"><a xlink:title=" ">
<path fill="none" stroke="#63b8ff" d="M639.81,-273.96C657.38,-271.28 676.64,-268.33 694.73,-265.56"/>
<polygon fill="#63b8ff" stroke="#63b8ff" points="695.3,-269.01 704.65,-264.04 694.24,-262.09 695.3,-269.01"/>
</a>
</g>
</g>
<!-- Node10&#45;&gt;Node4 -->
<g id="edge11_Node000010_Node000004" class="edge">
<title>Node10&#45;&gt;Node4</title>
<g id="a_edge11_Node000010_Node000004"><a xlink:title=" ">
<path fill="none" stroke="#63b8ff" d="M822.76,-264.06C835.69,-266.36 849.61,-268.83 862.94,-271.2"/>
<polygon fill="#63b8ff" stroke="#63b8ff" points="862.52,-274.68 872.98,-272.99 863.75,-267.79 862.52,-274.68"/>
</a>
</g>
</g>
<!-- Node10&#45;&gt;Node10 -->
<g id="edge10_Node000010_Node000010" class="edge">
<title>Node10&#45;&gt;Node10</title>
<g id="a_edge10_Node000010_Node000010"><a xlink:title=" ">
<path fill="none" stroke="#63b8ff" d="M743.65,-264.08C731.8,-272.73 739.92,-282 768,-282 786.43,-282 796.26,-278.01 797.49,-272.82"/>
<polygon fill="#63b8ff" stroke="#63b8ff" points="800.44,-270.93 792.35,-264.08 794.41,-274.48 800.44,-270.93"/>
</a>
</g>
</g>
<!-- Node14 -->
<g id="Node000014" class="node">
<title>Node14</title>
<g id="a_Node000014"><a xlink:href="namespacecbrc_1_1perlish.html#a80277a81ef7203ee71ba91432a451e4b" target="_top" xlink:title=" ">
<polygon fill="white" stroke="#666666" points="441,-29 307,-29 307,-10 441,-10 441,-29"/>
<text text-anchor="middle" x="374" y="-17" font-family="Helvetica,sans-Serif" font-size="10.00">cbrc::perlish::openOrDie</text>
</a>
</g>
</g>
<!-- Node13&#45;&gt;Node14 -->
<g id="edge18_Node000013_Node000014" class="edge">
<title>Node13&#45;&gt;Node14</title>
<g id="a_edge18_Node000013_Node000014"><a xlink:title=" ">
<path fill="none" stroke="#63b8ff" d="M246.71,-39.93C265.61,-36.87 285.7,-33.62 304.16,-30.64"/>
<polygon fill="#63b8ff" stroke="#63b8ff" points="304.92,-34.06 314.23,-29.01 303.8,-27.15 304.92,-34.06"/>
</a>
</g>
</g>
<!-- Node15&#45;&gt;Node3 -->
<g id="edge21_Node000015_Node000003" class="edge">
<title>Node15&#45;&gt;Node3</title>
<g id="a_edge21_Node000015_Node000003"><a xlink:title=" ">
<path fill="none" stroke="#63b8ff" d="M225.3,-142.07C236.61,-144.64 248.3,-147.76 259,-151.5 290.99,-162.67 325.5,-180.87 348.07,-193.69"/>
<polygon fill="#63b8ff" stroke="#63b8ff" points="346.55,-196.86 356.96,-198.82 350.05,-190.8 346.55,-196.86"/>
</a>
</g>
</g>
<!-- Node16 -->
<g id="Node000016" class="node">
<title>Node16</title>
<g id="a_Node000016"><a xlink:href="namespacecbrc.html#a94ca1678e0481b17626977da7cfb798b" target="_top" xlink:title=" ">
<polygon fill="white" stroke="#666666" points="650.5,-105 502.5,-105 502.5,-86 650.5,-86 650.5,-105"/>
<text text-anchor="middle" x="576.5" y="-93" font-family="Helvetica,sans-Serif" font-size="10.00">cbrc::_argvParserNullString</text>
</a>
</g>
</g>
<!-- Node15&#45;&gt;Node16 -->
<g id="edge20_Node000015_Node000016" class="edge">
<title>Node15&#45;&gt;Node16</title>
<g id="a_edge20_Node000015_Node000016"><a xlink:title=" ">
<path fill="none" stroke="#63b8ff" d="M226.03,-126.47C237.39,-123.81 248.92,-119.98 259,-114.5 279.15,-103.54 273.86,-86.43 295,-77.5 376.47,-43.1 483.16,-66.42 538.53,-82.98"/>
<polygon fill="#63b8ff" stroke="#63b8ff" points="537.67,-86.38 548.26,-85.98 539.73,-79.69 537.67,-86.38"/>
</a>
</g>
</g>
<!-- Node17 -->
<g id="Node000017" class="node">
<title>Node17</title>
<g id="a_Node000017"><a xlink:href="classcbrc_1_1ArgvParser.html#a273ad44f1f402d2a9c31d5cb04c2a63f" target="_top" xlink:title=" ">
<polygon fill="white" stroke="#666666" points="441,-105 307,-105 307,-86 441,-86 441,-105"/>
<text text-anchor="middle" x="374" y="-93" font-family="Helvetica,sans-Serif" font-size="10.00">cbrc::ArgvParser::getArg</text>
</a>
</g>
</g>
<!-- Node15&#45;&gt;Node17 -->
<g id="edge22_Node000015_Node000017" class="edge">
<title>Node15&#45;&gt;Node17</title>
<g id="a_edge22_Node000015_Node000017"><a xlink:title=" ">
<path fill="none" stroke="#63b8ff" d="M221.54,-122.97C248.68,-118.05 281.98,-112.01 310.44,-106.85"/>
<polygon fill="#63b8ff" stroke="#63b8ff" points="311.07,-110.29 320.29,-105.06 309.82,-103.4 311.07,-110.29"/>
</a>
</g>
</g>
<!-- Node18 -->
<g id="Node000018" class="node">
<title>Node18</title>
<g id="a_Node000018"><a xlink:href="classcbrc_1_1ArgvParser.html#acfc1ef9228adb3bfe47ba9c9e68e68cd" target="_top" xlink:title=" ">
<polygon fill="white" stroke="#666666" points="441.5,-142 306.5,-142 306.5,-123 441.5,-123 441.5,-142"/>
<text text-anchor="middle" x="374" y="-130" font-family="Helvetica,sans-Serif" font-size="10.00">cbrc::ArgvParser::hasArg</text>
</a>
</g>
</g>
<!-- Node15&#45;&gt;Node18 -->
<g id="edge24_Node000015_Node000018" class="edge">
<title>Node15&#45;&gt;Node18</title>
<g id="a_edge24_Node000015_Node000018"><a xlink:title=" ">
<path fill="none" stroke="#63b8ff" d="M226.1,-132.5C247.76,-132.5 272.8,-132.5 296.01,-132.5"/>
<polygon fill="#63b8ff" stroke="#63b8ff" points="296.17,-136 306.17,-132.5 296.17,-129 296.17,-136"/>
</a>
</g>
</g>
<!-- Node17&#45;&gt;Node16 -->
<g id="edge23_Node000017_Node000016" class="edge">
<title>Node17&#45;&gt;Node16</title>
<g id="a_edge23_Node000017_Node000016"><a xlink:title=" ">
<path fill="none" stroke="#63b8ff" d="M441.21,-95.5C457.45,-95.5 475.05,-95.5 492,-95.5"/>
<polygon fill="#63b8ff" stroke="#63b8ff" points="492.45,-99 502.45,-95.5 492.45,-92 492.45,-99"/>
</a>
</g>
</g>
<!-- Node20&#45;&gt;Node3 -->
<g id="edge28_Node000020_Node000003" class="edge">
<title>Node20&#45;&gt;Node3</title>
<g id="a_edge28_Node000020_Node000003"><a xlink:title=" ">
<path fill="none" stroke="#63b8ff" d="M218.9,-179.04C247.41,-184.49 283.34,-191.36 313.33,-197.09"/>
<polygon fill="#63b8ff" stroke="#63b8ff" points="312.78,-200.55 323.26,-198.99 314.09,-193.67 312.78,-200.55"/>
</a>
</g>
</g>
<!-- Node20&#45;&gt;Node16 -->
<g id="edge27_Node000020_Node000016" class="edge">
<title>Node20&#45;&gt;Node16</title>
<g id="a_edge27_Node000020_Node000016"><a xlink:title=" ">
<path fill="none" stroke="#63b8ff" d="M240.12,-172.1C298.24,-172.54 382.08,-169.31 453,-151.5 488.64,-142.55 526.68,-123.49 550.75,-110.1"/>
<polygon fill="#63b8ff" stroke="#63b8ff" points="552.58,-113.08 559.56,-105.1 549.13,-106.99 552.58,-113.08"/>
</a>
</g>
</g>
<!-- Node20&#45;&gt;Node17 -->
<g id="edge29_Node000020_Node000017" class="edge">
<title>Node20&#45;&gt;Node17</title>
<g id="a_edge29_Node000020_Node000017"><a xlink:title=" ">
<path fill="none" stroke="#63b8ff" d="M238.8,-159.96C245.84,-157.7 252.7,-154.93 259,-151.5 279.15,-140.54 275.08,-125.88 295,-114.5 298.92,-112.26 303.09,-110.29 307.4,-108.54"/>
<polygon fill="#63b8ff" stroke="#63b8ff" points="308.76,-111.77 316.97,-105.08 306.38,-105.19 308.76,-111.77"/>
</a>
</g>
</g>
<!-- Node20&#45;&gt;Node18 -->
<g id="edge30_Node000020_Node000018" class="edge">
<title>Node20&#45;&gt;Node18</title>
<g id="a_edge30_Node000020_Node000018"><a xlink:title=" ">
<path fill="none" stroke="#63b8ff" d="M221.54,-159.97C248.68,-155.05 281.98,-149.01 310.44,-143.85"/>
<polygon fill="#63b8ff" stroke="#63b8ff" points="311.07,-147.29 320.29,-142.06 309.82,-140.4 311.07,-147.29"/>
</a>
</g>
</g>
</g>
</svg>
