<?xml version="1.0" encoding="UTF-8" standalone="no"?>
<!DOCTYPE svg PUBLIC "-//W3C//DTD SVG 1.1//EN"
 "http://www.w3.org/Graphics/SVG/1.1/DTD/svg11.dtd">
<!-- Generated by graphviz version 2.43.0 (0)
 -->
<!-- Title: ematch_src/utils/sequence/packedDNA/sigma4bitPackingUtils.cc Pages: 1 -->
<svg width="685pt" height="203pt"
 viewBox="0.00 0.00 685.00 203.00" xmlns="http://www.w3.org/2000/svg" xmlns:xlink="http://www.w3.org/1999/xlink">
<g id="graph0" class="graph" transform="scale(1 1) rotate(0) translate(4 199)">
<title>ematch_src/utils/sequence/packedDNA/sigma4bitPackingUtils.cc</title>
<!-- Node1 -->
<g id="Node000001" class="node">
<title>Node1</title>
<g id="a_Node000001"><a xlink:title=" ">
<polygon fill="#999999" stroke="#666666" points="459,-195 258,-195 258,-165 459,-165 459,-195"/>
<text text-anchor="start" x="266" y="-183" font-family="Helvetica,sans-Serif" font-size="10.00">ematch_src/utils/sequence</text>
<text text-anchor="middle" x="358.5" y="-172" font-family="Helvetica,sans-Serif" font-size="10.00">/packedDNA/sigma4bitPackingUtils.cc</text>
</a>
</g>
</g>
<!-- Node2 -->
<g id="Node000002" class="node">
<title>Node2</title>
<g id="a_Node000002"><a xlink:title=" ">
<polygon fill="#e0e0e0" stroke="#999999" points="395.5,-19 335.5,-19 335.5,0 395.5,0 395.5,-19"/>
<text text-anchor="middle" x="365.5" y="-7" font-family="Helvetica,sans-Serif" font-size="10.00">iostream</text>
</a>
</g>
</g>
<!-- Node1&#45;&gt;Node2 -->
<g id="edge1_Node000001_Node000002" class="edge">
<title>Node1&#45;&gt;Node2</title>
<g id="a_edge1_Node000001_Node000002"><a xlink:title=" ">
<path fill="none" stroke="#63b8ff" d="M368.72,-164.95C382.1,-145.61 404.85,-109.17 413.5,-74 415.52,-65.8 416.88,-62.74 413.5,-55 408.23,-42.92 397.87,-32.65 388.13,-25.03"/>
<polygon fill="#63b8ff" stroke="#63b8ff" points="390.02,-22.07 379.87,-19.04 385.91,-27.74 390.02,-22.07"/>
</a>
</g>
</g>
<!-- Node3 -->
<g id="Node000003" class="node">
<title>Node3</title>
<g id="a_Node000003"><a xlink:href="sigma4bitPackingUtils_8hh.html" target="_top" xlink:title=" ">
<polygon fill="white" stroke="#666666" points="353.5,-129 213.5,-129 213.5,-110 353.5,-110 353.5,-129"/>
<text text-anchor="middle" x="283.5" y="-117" font-family="Helvetica,sans-Serif" font-size="10.00">sigma4bitPackingUtils.hh</text>
</a>
</g>
</g>
<!-- Node1&#45;&gt;Node3 -->
<g id="edge2_Node000001_Node000003" class="edge">
<title>Node1&#45;&gt;Node3</title>
<g id="a_edge2_Node000001_Node000003"><a xlink:title=" ">
<path fill="none" stroke="#63b8ff" d="M340.34,-164.84C329.01,-156 314.44,-144.63 302.88,-135.62"/>
<polygon fill="#63b8ff" stroke="#63b8ff" points="304.78,-132.66 294.74,-129.27 300.47,-138.18 304.78,-132.66"/>
</a>
</g>
</g>
<!-- Node3&#45;&gt;Node2 -->
<g id="edge4_Node000003_Node000002" class="edge">
<title>Node3&#45;&gt;Node2</title>
<g id="a_edge4_Node000003_Node000002"><a xlink:title=" ">
<path fill="none" stroke="#63b8ff" d="M290.21,-109.66C303.85,-91.69 335.02,-50.64 352.68,-27.38"/>
<polygon fill="#63b8ff" stroke="#63b8ff" points="355.67,-29.24 358.93,-19.16 350.09,-25.01 355.67,-29.24"/>
</a>
</g>
</g>
<!-- Node4 -->
<g id="Node000004" class="node">
<title>Node4</title>
<g id="a_Node000004"><a xlink:title=" ">
<polygon fill="#e0e0e0" stroke="#999999" points="405,-74 358,-74 358,-55 405,-55 405,-74"/>
<text text-anchor="middle" x="381.5" y="-62" font-family="Helvetica,sans-Serif" font-size="10.00">cmath</text>
</a>
</g>
</g>
<!-- Node3&#45;&gt;Node4 -->
<g id="edge3_Node000003_Node000004" class="edge">
<title>Node3&#45;&gt;Node4</title>
<g id="a_edge3_Node000003_Node000004"><a xlink:title=" ">
<path fill="none" stroke="#63b8ff" d="M299.25,-109.98C314.73,-101.61 338.59,-88.7 356.64,-78.95"/>
<polygon fill="#63b8ff" stroke="#63b8ff" points="358.34,-82.01 365.47,-74.17 355.01,-75.85 358.34,-82.01"/>
</a>
</g>
</g>
<!-- Node5 -->
<g id="Node000005" class="node">
<title>Node5</title>
<g id="a_Node000005"><a xlink:title=" ">
<polygon fill="#e0e0e0" stroke="#999999" points="47,-74 0,-74 0,-55 47,-55 47,-74"/>
<text text-anchor="middle" x="23.5" y="-62" font-family="Helvetica,sans-Serif" font-size="10.00">vector</text>
</a>
</g>
</g>
<!-- Node3&#45;&gt;Node5 -->
<g id="edge5_Node000003_Node000005" class="edge">
<title>Node3&#45;&gt;Node5</title>
<g id="a_edge5_Node000003_Node000005"><a xlink:title=" ">
<path fill="none" stroke="#63b8ff" d="M235.5,-109.93C191.6,-101.91 124.63,-89.2 57.2,-74.05"/>
<polygon fill="#63b8ff" stroke="#63b8ff" points="57.78,-70.59 47.25,-71.8 56.23,-77.42 57.78,-70.59"/>
</a>
</g>
</g>
<!-- Node6 -->
<g id="Node000006" class="node">
<title>Node6</title>
<g id="a_Node000006"><a xlink:title=" ">
<polygon fill="#e0e0e0" stroke="#999999" points="115.5,-74 65.5,-74 65.5,-55 115.5,-55 115.5,-74"/>
<text text-anchor="middle" x="90.5" y="-62" font-family="Helvetica,sans-Serif" font-size="10.00">cstring</text>
</a>
</g>
</g>
<!-- Node3&#45;&gt;Node6 -->
<g id="edge6_Node000003_Node000006" class="edge">
<title>Node3&#45;&gt;Node6</title>
<g id="a_edge6_Node000003_Node000006"><a xlink:title=" ">
<path fill="none" stroke="#63b8ff" d="M252.49,-109.98C217.72,-100.44 161.47,-84.99 125.24,-75.04"/>
<polygon fill="#63b8ff" stroke="#63b8ff" points="126.16,-71.66 115.59,-72.39 124.31,-78.41 126.16,-71.66"/>
</a>
</g>
</g>
<!-- Node7 -->
<g id="Node000007" class="node">
<title>Node7</title>
<g id="a_Node000007"><a xlink:href="universalTypedefs_8hh.html" target="_top" xlink:title=" ">
<polygon fill="white" stroke="#666666" points="215.5,-19 71.5,-19 71.5,0 215.5,0 215.5,-19"/>
<text text-anchor="middle" x="143.5" y="-7" font-family="Helvetica,sans-Serif" font-size="10.00">utils/universalTypedefs.hh</text>
</a>
</g>
</g>
<!-- Node3&#45;&gt;Node7 -->
<g id="edge7_Node000003_Node000007" class="edge">
<title>Node3&#45;&gt;Node7</title>
<g id="a_edge7_Node000003_Node000007"><a xlink:title=" ">
<path fill="none" stroke="#63b8ff" d="M229.86,-109.94C206.34,-103.64 180.13,-92.75 162.5,-74 151.06,-61.83 146.48,-43.04 144.67,-29.05"/>
<polygon fill="#63b8ff" stroke="#63b8ff" points="148.15,-28.71 143.72,-19.08 141.18,-29.37 148.15,-28.71"/>
</a>
</g>
</g>
<!-- Node8 -->
<g id="Node000008" class="node">
<title>Node8</title>
<g id="a_Node000008"><a xlink:href="ematch__src_2utils_2gdb_2gdbUtils_8hh.html" target="_top" xlink:title=" ">
<polygon fill="white" stroke="#666666" points="579,-74 462,-74 462,-55 579,-55 579,-74"/>
<text text-anchor="middle" x="520.5" y="-62" font-family="Helvetica,sans-Serif" font-size="10.00">utils/gdb/gdbUtils.hh</text>
</a>
</g>
</g>
<!-- Node3&#45;&gt;Node8 -->
<g id="edge8_Node000003_Node000008" class="edge">
<title>Node3&#45;&gt;Node8</title>
<g id="a_edge8_Node000003_Node000008"><a xlink:title=" ">
<path fill="none" stroke="#63b8ff" d="M321.58,-109.98C362.49,-100.84 427.61,-86.27 472.12,-76.32"/>
<polygon fill="#63b8ff" stroke="#63b8ff" points="473.13,-79.68 482.12,-74.08 471.6,-72.85 473.13,-79.68"/>
</a>
</g>
</g>
<!-- Node13 -->
<g id="Node000013" class="node">
<title>Node13</title>
<g id="a_Node000013"><a xlink:href="Sigma4bitPackedIdx_8hh.html" target="_top" xlink:title=" ">
<polygon fill="white" stroke="#666666" points="301.5,-74 171.5,-74 171.5,-55 301.5,-55 301.5,-74"/>
<text text-anchor="middle" x="236.5" y="-62" font-family="Helvetica,sans-Serif" font-size="10.00">Sigma4bitPackedIdx.hh</text>
</a>
</g>
</g>
<!-- Node3&#45;&gt;Node13 -->
<g id="edge14_Node000003_Node000013" class="edge">
<title>Node3&#45;&gt;Node13</title>
<g id="a_edge14_Node000003_Node000013"><a xlink:title=" ">
<path fill="none" stroke="#63b8ff" d="M275.74,-109.75C269.03,-102.18 259.16,-91.05 250.99,-81.84"/>
<polygon fill="#63b8ff" stroke="#63b8ff" points="253.37,-79.25 244.12,-74.09 248.13,-83.89 253.37,-79.25"/>
</a>
</g>
</g>
<!-- Node8&#45;&gt;Node2 -->
<g id="edge10_Node000008_Node000002" class="edge">
<title>Node8&#45;&gt;Node2</title>
<g id="a_edge10_Node000008_Node000002"><a xlink:title=" ">
<path fill="none" stroke="#63b8ff" d="M495.6,-54.98C469.8,-46.16 429.28,-32.31 400.32,-22.41"/>
<polygon fill="#63b8ff" stroke="#63b8ff" points="401.19,-19.01 390.6,-19.08 398.93,-25.63 401.19,-19.01"/>
</a>
</g>
</g>
<!-- Node9 -->
<g id="Node000009" class="node">
<title>Node9</title>
<g id="a_Node000009"><a xlink:title=" ">
<polygon fill="#e0e0e0" stroke="#999999" points="677,-19 624,-19 624,0 677,0 677,-19"/>
<text text-anchor="middle" x="650.5" y="-7" font-family="Helvetica,sans-Serif" font-size="10.00">cstdarg</text>
</a>
</g>
</g>
<!-- Node8&#45;&gt;Node9 -->
<g id="edge9_Node000008_Node000009" class="edge">
<title>Node8&#45;&gt;Node9</title>
<g id="a_edge9_Node000008_Node000009"><a xlink:title=" ">
<path fill="none" stroke="#63b8ff" d="M541.39,-54.98C562.58,-46.34 595.63,-32.87 619.8,-23.02"/>
<polygon fill="#63b8ff" stroke="#63b8ff" points="621.29,-26.19 629.23,-19.17 618.65,-19.7 621.29,-26.19"/>
</a>
</g>
</g>
<!-- Node10 -->
<g id="Node000010" class="node">
<title>Node10</title>
<g id="a_Node000010"><a xlink:title=" ">
<polygon fill="#e0e0e0" stroke="#999999" points="471,-19 422,-19 422,0 471,0 471,-19"/>
<text text-anchor="middle" x="446.5" y="-7" font-family="Helvetica,sans-Serif" font-size="10.00">cstdlib</text>
</a>
</g>
</g>
<!-- Node8&#45;&gt;Node10 -->
<g id="edge11_Node000008_Node000010" class="edge">
<title>Node8&#45;&gt;Node10</title>
<g id="a_edge11_Node000008_Node000010"><a xlink:title=" ">
<path fill="none" stroke="#63b8ff" d="M508.61,-54.98C497.35,-46.92 480.21,-34.65 466.79,-25.03"/>
<polygon fill="#63b8ff" stroke="#63b8ff" points="468.77,-22.15 458.61,-19.17 464.7,-27.84 468.77,-22.15"/>
</a>
</g>
</g>
<!-- Node11 -->
<g id="Node000011" class="node">
<title>Node11</title>
<g id="a_Node000011"><a xlink:title=" ">
<polygon fill="#e0e0e0" stroke="#999999" points="535.5,-19 489.5,-19 489.5,0 535.5,0 535.5,-19"/>
<text text-anchor="middle" x="512.5" y="-7" font-family="Helvetica,sans-Serif" font-size="10.00">cstdio</text>
</a>
</g>
</g>
<!-- Node8&#45;&gt;Node11 -->
<g id="edge12_Node000008_Node000011" class="edge">
<title>Node8&#45;&gt;Node11</title>
<g id="a_edge12_Node000008_Node000011"><a xlink:title=" ">
<path fill="none" stroke="#63b8ff" d="M519.18,-54.75C518.13,-47.8 516.63,-37.85 515.31,-29.13"/>
<polygon fill="#63b8ff" stroke="#63b8ff" points="518.75,-28.45 513.8,-19.09 511.83,-29.5 518.75,-28.45"/>
</a>
</g>
</g>
<!-- Node12 -->
<g id="Node000012" class="node">
<title>Node12</title>
<g id="a_Node000012"><a xlink:title=" ">
<polygon fill="#e0e0e0" stroke="#999999" points="605.5,-19 553.5,-19 553.5,0 605.5,0 605.5,-19"/>
<text text-anchor="middle" x="579.5" y="-7" font-family="Helvetica,sans-Serif" font-size="10.00">cassert</text>
</a>
</g>
</g>
<!-- Node8&#45;&gt;Node12 -->
<g id="edge13_Node000008_Node000012" class="edge">
<title>Node8&#45;&gt;Node12</title>
<g id="a_edge13_Node000008_Node000012"><a xlink:title=" ">
<path fill="none" stroke="#63b8ff" d="M529.98,-54.98C538.7,-47.15 551.84,-35.34 562.4,-25.86"/>
<polygon fill="#63b8ff" stroke="#63b8ff" points="564.75,-28.46 569.85,-19.17 560.07,-23.25 564.75,-28.46"/>
</a>
</g>
</g>
<!-- Node13&#45;&gt;Node2 -->
<g id="edge15_Node000013_Node000002" class="edge">
<title>Node13&#45;&gt;Node2</title>
<g id="a_edge15_Node000013_Node000002"><a xlink:title=" ">
<path fill="none" stroke="#63b8ff" d="M257.23,-54.98C278.26,-46.34 311.05,-32.87 335.04,-23.02"/>
<polygon fill="#63b8ff" stroke="#63b8ff" points="336.48,-26.21 344.4,-19.17 333.82,-19.73 336.48,-26.21"/>
</a>
</g>
</g>
<!-- Node13&#45;&gt;Node7 -->
<g id="edge16_Node000013_Node000007" class="edge">
<title>Node13&#45;&gt;Node7</title>
<g id="a_edge16_Node000013_Node000007"><a xlink:title=" ">
<path fill="none" stroke="#63b8ff" d="M221.56,-54.98C207,-46.69 184.63,-33.94 167.57,-24.22"/>
<polygon fill="#63b8ff" stroke="#63b8ff" points="169.14,-21.08 158.71,-19.17 165.67,-27.16 169.14,-21.08"/>
</a>
</g>
</g>
<!-- Node14 -->
<g id="Node000014" class="node">
<title>Node14</title>
<g id="a_Node000014"><a xlink:href="sigma4_8hh.html" target="_top" xlink:title=" ">
<polygon fill="white" stroke="#666666" points="301.5,-19 233.5,-19 233.5,0 301.5,0 301.5,-19"/>
<text text-anchor="middle" x="267.5" y="-7" font-family="Helvetica,sans-Serif" font-size="10.00">sigma4.hh</text>
</a>
</g>
</g>
<!-- Node13&#45;&gt;Node14 -->
<g id="edge17_Node000013_Node000014" class="edge">
<title>Node13&#45;&gt;Node14</title>
<g id="a_edge17_Node000013_Node000014"><a xlink:title=" ">
<path fill="none" stroke="#63b8ff" d="M241.62,-54.75C245.86,-47.49 252.03,-36.95 257.28,-27.98"/>
<polygon fill="#63b8ff" stroke="#63b8ff" points="260.45,-29.49 262.48,-19.09 254.41,-25.95 260.45,-29.49"/>
</a>
</g>
</g>
</g>
</svg>
