<?xml version="1.0" encoding="UTF-8" standalone="no"?>
<!DOCTYPE svg PUBLIC "-//W3C//DTD SVG 1.1//EN"
 "http://www.w3.org/Graphics/SVG/1.1/DTD/svg11.dtd">
<!-- Generated by graphviz version 2.43.0 (0)
 -->
<!-- Title: ematch_src/utils/sequence/align/SimilaritySearchableSequences.hh Pages: 1 -->
<svg width="1241pt" height="115pt"
 viewBox="0.00 0.00 1241.00 115.00" xmlns="http://www.w3.org/2000/svg" xmlns:xlink="http://www.w3.org/1999/xlink">
<g id="graph0" class="graph" transform="scale(1 1) rotate(0) translate(4 111)">
<title>ematch_src/utils/sequence/align/SimilaritySearchableSequences.hh</title>
<!-- Node1 -->
<g id="Node000001" class="node">
<title>Node1</title>
<g id="a_Node000001"><a xlink:title=" ">
<polygon fill="#999999" stroke="#666666" points="751.5,-107 536.5,-107 536.5,-77 751.5,-77 751.5,-107"/>
<text text-anchor="start" x="544.5" y="-95" font-family="Helvetica,sans-Serif" font-size="10.00">ematch_src/utils/sequence</text>
<text text-anchor="middle" x="644" y="-84" font-family="Helvetica,sans-Serif" font-size="10.00">/align/SimilaritySearchableSequences.hh</text>
</a>
</g>
</g>
<!-- Node2 -->
<g id="Node000002" class="node">
<title>Node2</title>
<g id="a_Node000002"><a xlink:href="SimilaritySearchableSequences_8cc.html" target="_top" xlink:title=" ">
<polygon fill="white" stroke="#666666" points="214,-35.5 0,-35.5 0,-5.5 214,-5.5 214,-35.5"/>
<text text-anchor="start" x="8" y="-23.5" font-family="Helvetica,sans-Serif" font-size="10.00">ematch_src/utils/sequence</text>
<text text-anchor="middle" x="107" y="-12.5" font-family="Helvetica,sans-Serif" font-size="10.00">/align/SimilaritySearchableSequences.cc</text>
</a>
</g>
</g>
<!-- Node1&#45;&gt;Node2 -->
<g id="edge1_Node000001_Node000002" class="edge">
<title>Node1&#45;&gt;Node2</title>
<g id="a_edge1_Node000001_Node000002"><a xlink:title=" ">
<path fill="none" stroke="#63b8ff" d="M525.95,-78.52C441.44,-69.22 325.04,-55.63 223,-41 211.48,-39.35 199.34,-37.47 187.42,-35.54"/>
<polygon fill="#63b8ff" stroke="#63b8ff" points="525.77,-82.02 536.09,-79.64 526.53,-75.07 525.77,-82.02"/>
</a>
</g>
</g>
<!-- Node3 -->
<g id="Node000003" class="node">
<title>Node3</title>
<g id="a_Node000003"><a xlink:href="runAddAlignmentToHtml_8cc.html" target="_top" xlink:title=" ">
<polygon fill="white" stroke="#666666" points="430,-35.5 232,-35.5 232,-5.5 430,-5.5 430,-35.5"/>
<text text-anchor="start" x="240" y="-23.5" font-family="Helvetica,sans-Serif" font-size="10.00">ematch_src/utils/sequence</text>
<text text-anchor="middle" x="331" y="-12.5" font-family="Helvetica,sans-Serif" font-size="10.00">/align/run/runAddAlignmentToHtml.cc</text>
</a>
</g>
</g>
<!-- Node1&#45;&gt;Node3 -->
<g id="edge2_Node000001_Node000003" class="edge">
<title>Node1&#45;&gt;Node3</title>
<g id="a_edge2_Node000001_Node000003"><a xlink:title=" ">
<path fill="none" stroke="#63b8ff" d="M570.88,-74.76C517.32,-62.87 445.34,-46.89 394.25,-35.54"/>
<polygon fill="#63b8ff" stroke="#63b8ff" points="570.14,-78.18 580.66,-76.94 571.66,-71.35 570.14,-78.18"/>
</a>
</g>
</g>
<!-- Node4 -->
<g id="Node000004" class="node">
<title>Node4</title>
<g id="a_Node000004"><a xlink:href="runAddIdenticalToHtml_8cc.html" target="_top" xlink:title=" ">
<polygon fill="white" stroke="#666666" points="638,-35.5 448,-35.5 448,-5.5 638,-5.5 638,-35.5"/>
<text text-anchor="start" x="456" y="-23.5" font-family="Helvetica,sans-Serif" font-size="10.00">ematch_src/utils/sequence</text>
<text text-anchor="middle" x="543" y="-12.5" font-family="Helvetica,sans-Serif" font-size="10.00">/align/run/runAddIdenticalToHtml.cc</text>
</a>
</g>
</g>
<!-- Node1&#45;&gt;Node4 -->
<g id="edge3_Node000001_Node000004" class="edge">
<title>Node1&#45;&gt;Node4</title>
<g id="a_edge3_Node000001_Node000004"><a xlink:title=" ">
<path fill="none" stroke="#63b8ff" d="M615.31,-71.25C598.75,-59.86 578.32,-45.81 563.41,-35.54"/>
<polygon fill="#63b8ff" stroke="#63b8ff" points="613.34,-74.15 623.56,-76.94 617.31,-68.38 613.34,-74.15"/>
</a>
</g>
</g>
<!-- Node5 -->
<g id="Node000005" class="node">
<title>Node5</title>
<g id="a_Node000005"><a xlink:href="runGlobalAffineNearestClass_8cc.html" target="_top" xlink:title=" ">
<polygon fill="white" stroke="#666666" points="835.5,-41 656.5,-41 656.5,0 835.5,0 835.5,-41"/>
<text text-anchor="start" x="664.5" y="-29" font-family="Helvetica,sans-Serif" font-size="10.00">ematch_src/utils/sequence</text>
<text text-anchor="start" x="664.5" y="-18" font-family="Helvetica,sans-Serif" font-size="10.00">/align/run/runGlobalAffineNearest</text>
<text text-anchor="middle" x="746" y="-7" font-family="Helvetica,sans-Serif" font-size="10.00">Class.cc</text>
</a>
</g>
</g>
<!-- Node1&#45;&gt;Node5 -->
<g id="edge4_Node000001_Node000005" class="edge">
<title>Node1&#45;&gt;Node5</title>
<g id="a_edge4_Node000001_Node000005"><a xlink:title=" ">
<path fill="none" stroke="#63b8ff" d="M673.29,-71.04C687.1,-61.63 703.53,-50.44 717.27,-41.07"/>
<polygon fill="#63b8ff" stroke="#63b8ff" points="670.93,-68.41 664.64,-76.94 674.88,-74.2 670.93,-68.41"/>
</a>
</g>
</g>
<!-- Node6 -->
<g id="Node000006" class="node">
<title>Node6</title>
<g id="a_Node000006"><a xlink:href="runGlobalAffineNearestClassDiff_8cc.html" target="_top" xlink:title=" ">
<polygon fill="white" stroke="#666666" points="1032.5,-41 853.5,-41 853.5,0 1032.5,0 1032.5,-41"/>
<text text-anchor="start" x="861.5" y="-29" font-family="Helvetica,sans-Serif" font-size="10.00">ematch_src/utils/sequence</text>
<text text-anchor="start" x="861.5" y="-18" font-family="Helvetica,sans-Serif" font-size="10.00">/align/run/runGlobalAffineNearest</text>
<text text-anchor="middle" x="943" y="-7" font-family="Helvetica,sans-Serif" font-size="10.00">ClassDiff.cc</text>
</a>
</g>
</g>
<!-- Node1&#45;&gt;Node6 -->
<g id="edge5_Node000001_Node000006" class="edge">
<title>Node1&#45;&gt;Node6</title>
<g id="a_edge5_Node000001_Node000006"><a xlink:title=" ">
<path fill="none" stroke="#63b8ff" d="M714.39,-74.64C757.71,-64.57 813.47,-51.61 859.07,-41.01"/>
<polygon fill="#63b8ff" stroke="#63b8ff" points="713.45,-71.26 704.51,-76.94 715.04,-78.08 713.45,-71.26"/>
</a>
</g>
</g>
<!-- Node7 -->
<g id="Node000007" class="node">
<title>Node7</title>
<g id="a_Node000007"><a xlink:href="runSimilaritySearchableSequences_8cc.html" target="_top" xlink:title=" ">
<polygon fill="white" stroke="#666666" points="1233,-41 1051,-41 1051,0 1233,0 1233,-41"/>
<text text-anchor="start" x="1059" y="-29" font-family="Helvetica,sans-Serif" font-size="10.00">ematch_src/utils/sequence</text>
<text text-anchor="start" x="1059" y="-18" font-family="Helvetica,sans-Serif" font-size="10.00">/align/run/runSimilaritySearchable</text>
<text text-anchor="middle" x="1142" y="-7" font-family="Helvetica,sans-Serif" font-size="10.00">Sequences.cc</text>
</a>
</g>
</g>
<!-- Node1&#45;&gt;Node7 -->
<g id="edge6_Node000001_Node000007" class="edge">
<title>Node1&#45;&gt;Node7</title>
<g id="a_edge6_Node000001_Node000007"><a xlink:title=" ">
<path fill="none" stroke="#63b8ff" d="M761.58,-78.34C840.97,-69.28 948.03,-56.05 1042,-41 1044.88,-40.54 1047.81,-40.06 1050.76,-39.56"/>
<polygon fill="#63b8ff" stroke="#63b8ff" points="761.09,-74.88 751.55,-79.48 761.88,-81.83 761.09,-74.88"/>
</a>
</g>
</g>
</g>
</svg>
