<?xml version="1.0" encoding="UTF-8" standalone="no"?>
<!DOCTYPE svg PUBLIC "-//W3C//DTD SVG 1.1//EN"
 "http://www.w3.org/Graphics/SVG/1.1/DTD/svg11.dtd">
<!-- Generated by graphviz version 2.43.0 (0)
 -->
<!-- Title: main Pages: 1 -->
<svg width="805pt" height="399pt"
 viewBox="0.00 0.00 805.00 398.50" xmlns="http://www.w3.org/2000/svg" xmlns:xlink="http://www.w3.org/1999/xlink">
<g id="graph0" class="graph" transform="scale(1 1) rotate(0) translate(4 394.5)">
<title>main</title>
<!-- Node1 -->
<g id="Node000001" class="node">
<title>Node1</title>
<g id="a_Node000001"><a xlink:title=" ">
<polygon fill="#999999" stroke="#666666" points="41,-106.5 0,-106.5 0,-87.5 41,-87.5 41,-106.5"/>
<text text-anchor="middle" x="20.5" y="-94.5" font-family="Helvetica,sans-Serif" font-size="10.00">main</text>
</a>
</g>
</g>
<!-- Node2 -->
<g id="Node000002" class="node">
<title>Node2</title>
<g id="a_Node000002"><a xlink:href="namespacecbrc.html#a21b3d568b029c61ac627788f2c9f16e8" target="_top" xlink:title=" ">
<polygon fill="white" stroke="#666666" points="205,-173.5 77,-173.5 77,-154.5 205,-154.5 205,-173.5"/>
<text text-anchor="middle" x="141" y="-161.5" font-family="Helvetica,sans-Serif" font-size="10.00">cbrc::smoothMinPoints</text>
</a>
</g>
</g>
<!-- Node1&#45;&gt;Node2 -->
<g id="edge1_Node000001_Node000002" class="edge">
<title>Node1&#45;&gt;Node2</title>
<g id="a_edge1_Node000001_Node000002"><a xlink:title=" ">
<path fill="none" stroke="#63b8ff" d="M38.48,-106.6C58.28,-117.79 91.22,-136.42 114.19,-149.41"/>
<polygon fill="#63b8ff" stroke="#63b8ff" points="112.63,-152.54 123.05,-154.42 116.07,-146.45 112.63,-152.54"/>
</a>
</g>
</g>
<!-- Node14 -->
<g id="Node000014" class="node">
<title>Node14</title>
<g id="a_Node000014"><a xlink:href="namespacecbrc_1_1perlish.html#a808f5d7e67fdbcd98444453a3aac97f6" target="_top" xlink:title=" ">
<polygon fill="white" stroke="#666666" points="412,-38.5 262,-38.5 262,-19.5 412,-19.5 412,-38.5"/>
<text text-anchor="middle" x="337" y="-26.5" font-family="Helvetica,sans-Serif" font-size="10.00">cbrc::perlish::toUnsignedInt</text>
</a>
</g>
</g>
<!-- Node1&#45;&gt;Node14 -->
<g id="edge19_Node000001_Node000014" class="edge">
<title>Node1&#45;&gt;Node14</title>
<g id="a_edge19_Node000001_Node000014"><a xlink:title=" ">
<path fill="none" stroke="#63b8ff" d="M41.12,-92.28C79.45,-83.11 166.97,-62.44 241,-47 251.57,-44.8 262.82,-42.56 273.75,-40.46"/>
<polygon fill="#63b8ff" stroke="#63b8ff" points="274.5,-43.88 283.67,-38.56 273.19,-37 274.5,-43.88"/>
</a>
</g>
</g>
<!-- Node3 -->
<g id="Node000003" class="node">
<title>Node3</title>
<g id="a_Node000003"><a xlink:href="namespacecbrc_1_1smoothing.html#aff57ef2038f4bff5e44f4060dbc89cf0" target="_top" xlink:title=" ">
<polygon fill="white" stroke="#666666" points="433,-352.5 241,-352.5 241,-311.5 433,-311.5 433,-352.5"/>
<text text-anchor="start" x="249" y="-340.5" font-family="Helvetica,sans-Serif" font-size="10.00">cbrc::smoothing::average</text>
<text text-anchor="start" x="249" y="-329.5" font-family="Helvetica,sans-Serif" font-size="10.00">YCoordinatesWithNeighboringPoints</text>
<text text-anchor="middle" x="337" y="-318.5" font-family="Helvetica,sans-Serif" font-size="10.00">UntilMinSampleSizeAttained</text>
</a>
</g>
</g>
<!-- Node2&#45;&gt;Node3 -->
<g id="edge2_Node000002_Node000003" class="edge">
<title>Node2&#45;&gt;Node3</title>
<g id="a_edge2_Node000002_Node000003"><a xlink:title=" ">
<path fill="none" stroke="#63b8ff" d="M146.59,-173.53C158.69,-197.64 193.74,-261.67 241,-297 245.78,-300.57 250.96,-303.81 256.36,-306.75"/>
<polygon fill="#63b8ff" stroke="#63b8ff" points="255.1,-310.03 265.6,-311.4 258.24,-303.78 255.1,-310.03"/>
</a>
</g>
</g>
<!-- Node5 -->
<g id="Node000005" class="node">
<title>Node5</title>
<g id="a_Node000005"><a xlink:href="classcbrc_1_1FLEArray.html#ad71311380d762114c9e0f3b0dda38b7c" target="_top" xlink:title=" ">
<polygon fill="white" stroke="#666666" points="797,-311.5 686,-311.5 686,-292.5 797,-292.5 797,-311.5"/>
<text text-anchor="middle" x="741.5" y="-299.5" font-family="Helvetica,sans-Serif" font-size="10.00">cbrc::FLEArray::size</text>
</a>
</g>
</g>
<!-- Node2&#45;&gt;Node5 -->
<g id="edge8_Node000002_Node000005" class="edge">
<title>Node2&#45;&gt;Node5</title>
<g id="a_edge8_Node000002_Node000005"><a xlink:title=" ">
<path fill="none" stroke="#63b8ff" d="M149.45,-173.71C164.44,-192.44 200.31,-233.25 241,-251 317.39,-284.33 558.37,-296.32 675.42,-300.26"/>
<polygon fill="#63b8ff" stroke="#63b8ff" points="675.57,-303.76 685.68,-300.59 675.8,-296.77 675.57,-303.76"/>
</a>
</g>
</g>
<!-- Node6 -->
<g id="Node000006" class="node">
<title>Node6</title>
<g id="a_Node000006"><a xlink:href="namespacecbrc_1_1smoothing.html#aaf7cb873e7438e138f83af89d4efd678" target="_top" xlink:title=" ">
<polygon fill="white" stroke="#666666" points="646.5,-255 472.5,-255 472.5,-225 646.5,-225 646.5,-255"/>
<text text-anchor="start" x="480.5" y="-243" font-family="Helvetica,sans-Serif" font-size="10.00">cbrc::smoothing::mergeIdentical</text>
<text text-anchor="middle" x="559.5" y="-232" font-family="Helvetica,sans-Serif" font-size="10.00">AdjacentX</text>
</a>
</g>
</g>
<!-- Node2&#45;&gt;Node6 -->
<g id="edge6_Node000002_Node000006" class="edge">
<title>Node2&#45;&gt;Node6</title>
<g id="a_edge6_Node000002_Node000006"><a xlink:title=" ">
<path fill="none" stroke="#63b8ff" d="M152.92,-173.56C170.2,-188.03 205.57,-214.97 241,-226 312.76,-248.34 398.04,-250.87 462.14,-248.35"/>
<polygon fill="#63b8ff" stroke="#63b8ff" points="462.41,-251.84 472.24,-247.9 462.1,-244.84 462.41,-251.84"/>
</a>
</g>
</g>
<!-- Node7 -->
<g id="Node000007" class="node">
<title>Node7</title>
<g id="a_Node000007"><a xlink:href="namespacecbrc_1_1perlish.html#a1b9b10d59aa7b6d3e846aed1a3d84a09" target="_top" xlink:title=" ">
<polygon fill="white" stroke="#666666" points="402.5,-216.5 271.5,-216.5 271.5,-197.5 402.5,-197.5 402.5,-216.5"/>
<text text-anchor="middle" x="337" y="-204.5" font-family="Helvetica,sans-Serif" font-size="10.00">cbrc::perlish::slurpLines</text>
</a>
</g>
</g>
<!-- Node2&#45;&gt;Node7 -->
<g id="edge9_Node000002_Node000007" class="edge">
<title>Node2&#45;&gt;Node7</title>
<g id="a_edge9_Node000002_Node000007"><a xlink:title=" ">
<path fill="none" stroke="#63b8ff" d="M180,-173.59C198.38,-178.14 220.8,-183.53 241,-188 252.3,-190.5 264.4,-193.03 276.04,-195.39"/>
<polygon fill="#63b8ff" stroke="#63b8ff" points="275.63,-198.88 286.12,-197.42 277.01,-192.02 275.63,-198.88"/>
</a>
</g>
</g>
<!-- Node8 -->
<g id="Node000008" class="node">
<title>Node8</title>
<g id="a_Node000008"><a xlink:href="namespacecbrc_1_1smoothing.html#ab16a6b2dbe0cbebcff46591498dc53a7" target="_top" xlink:title=" ">
<polygon fill="white" stroke="#666666" points="414.5,-179 259.5,-179 259.5,-149 414.5,-149 414.5,-179"/>
<text text-anchor="start" x="267.5" y="-167" font-family="Helvetica,sans-Serif" font-size="10.00">cbrc::smoothing::sortInPlace</text>
<text text-anchor="middle" x="337" y="-156" font-family="Helvetica,sans-Serif" font-size="10.00">AscendingValue</text>
</a>
</g>
</g>
<!-- Node2&#45;&gt;Node8 -->
<g id="edge10_Node000002_Node000008" class="edge">
<title>Node2&#45;&gt;Node8</title>
<g id="a_edge10_Node000002_Node000008"><a xlink:title=" ">
<path fill="none" stroke="#63b8ff" d="M205.25,-164C219.27,-164 234.36,-164 249.13,-164"/>
<polygon fill="#63b8ff" stroke="#63b8ff" points="249.29,-167.5 259.29,-164 249.29,-160.5 249.29,-167.5"/>
</a>
</g>
</g>
<!-- Node9 -->
<g id="Node000009" class="node">
<title>Node9</title>
<g id="a_Node000009"><a xlink:href="namespacecbrc_1_1perlish.html#a101a4746d50e52a00273c6fe533970ec" target="_top" xlink:title=" ">
<polygon fill="white" stroke="#666666" points="388.5,-112.5 285.5,-112.5 285.5,-93.5 388.5,-93.5 388.5,-112.5"/>
<text text-anchor="middle" x="337" y="-100.5" font-family="Helvetica,sans-Serif" font-size="10.00">cbrc::perlish::split</text>
</a>
</g>
</g>
<!-- Node2&#45;&gt;Node9 -->
<g id="edge11_Node000002_Node000009" class="edge">
<title>Node2&#45;&gt;Node9</title>
<g id="a_edge11_Node000002_Node000009"><a xlink:title=" ">
<path fill="none" stroke="#63b8ff" d="M172.31,-154.47C205.53,-144.02 258.97,-127.22 295.7,-115.67"/>
<polygon fill="#63b8ff" stroke="#63b8ff" points="297.09,-118.9 305.58,-112.56 294.99,-112.23 297.09,-118.9"/>
</a>
</g>
</g>
<!-- Node12 -->
<g id="Node000012" class="node">
<title>Node12</title>
<g id="a_Node000012"><a xlink:href="namespacecbrc_1_1perlish.html#a0e108ed71261c0e210de8d812835028c" target="_top" xlink:title=" ">
<polygon fill="white" stroke="#666666" points="400,-75.5 274,-75.5 274,-56.5 400,-56.5 400,-75.5"/>
<text text-anchor="middle" x="337" y="-63.5" font-family="Helvetica,sans-Serif" font-size="10.00">cbrc::perlish::toDouble</text>
</a>
</g>
</g>
<!-- Node2&#45;&gt;Node12 -->
<g id="edge15_Node000002_Node000012" class="edge">
<title>Node2&#45;&gt;Node12</title>
<g id="a_edge15_Node000002_Node000012"><a xlink:title=" ">
<path fill="none" stroke="#63b8ff" d="M150.79,-154.47C166.93,-137.6 203.12,-102.62 241,-85 248.26,-81.62 256.11,-78.84 264.08,-76.55"/>
<polygon fill="#63b8ff" stroke="#63b8ff" points="265.04,-79.92 273.82,-74 263.26,-73.15 265.04,-79.92"/>
</a>
</g>
</g>
<!-- Node2&#45;&gt;Node14 -->
<g id="edge17_Node000002_Node000014" class="edge">
<title>Node2&#45;&gt;Node14</title>
<g id="a_edge17_Node000002_Node000014"><a xlink:title=" ">
<path fill="none" stroke="#63b8ff" d="M150.7,-154.34C162.98,-140.63 186.03,-114.67 205,-92 221.44,-72.36 219.05,-60.2 241,-47 244.64,-44.81 248.49,-42.88 252.47,-41.17"/>
<polygon fill="#63b8ff" stroke="#63b8ff" points="253.84,-44.39 261.97,-37.59 251.37,-37.84 253.84,-44.39"/>
</a>
</g>
</g>
<!-- Node4 -->
<g id="Node000004" class="node">
<title>Node4</title>
<g id="a_Node000004"><a xlink:href="namespacecbrc_1_1smoothing.html#ac1ab7e34716884166d35b735e16b93d6" target="_top" xlink:title=" ">
<polygon fill="white" stroke="#666666" points="650,-390.5 469,-390.5 469,-349.5 650,-349.5 650,-390.5"/>
<text text-anchor="start" x="477" y="-378.5" font-family="Helvetica,sans-Serif" font-size="10.00">cbrc::smoothing::average</text>
<text text-anchor="start" x="477" y="-367.5" font-family="Helvetica,sans-Serif" font-size="10.00">YCoordinateOfPointIWithNeighbor</text>
<text text-anchor="middle" x="559.5" y="-356.5" font-family="Helvetica,sans-Serif" font-size="10.00">PointUntilMinSampleSizeAttained</text>
</a>
</g>
</g>
<!-- Node3&#45;&gt;Node4 -->
<g id="edge3_Node000003_Node000004" class="edge">
<title>Node3&#45;&gt;Node4</title>
<g id="a_edge3_Node000003_Node000004"><a xlink:title=" ">
<path fill="none" stroke="#63b8ff" d="M433.11,-348.39C441.66,-349.86 450.33,-351.36 458.91,-352.84"/>
<polygon fill="#63b8ff" stroke="#63b8ff" points="458.48,-356.31 468.93,-354.56 459.67,-349.42 458.48,-356.31"/>
</a>
</g>
</g>
<!-- Node3&#45;&gt;Node5 -->
<g id="edge5_Node000003_Node000005" class="edge">
<title>Node3&#45;&gt;Node5</title>
<g id="a_edge5_Node000003_Node000005"><a xlink:title=" ">
<path fill="none" stroke="#63b8ff" d="M433.13,-324.91C507.93,-319.33 610.12,-311.72 675.72,-306.83"/>
<polygon fill="#63b8ff" stroke="#63b8ff" points="676.22,-310.3 685.93,-306.07 675.69,-303.32 676.22,-310.3"/>
</a>
</g>
</g>
<!-- Node4&#45;&gt;Node5 -->
<g id="edge4_Node000004_Node000005" class="edge">
<title>Node4&#45;&gt;Node5</title>
<g id="a_edge4_Node000004_Node000005"><a xlink:title=" ">
<path fill="none" stroke="#63b8ff" d="M614.99,-349.41C644.41,-338.3 679.85,-324.91 705.56,-315.2"/>
<polygon fill="#63b8ff" stroke="#63b8ff" points="707.12,-318.35 715.24,-311.54 704.65,-311.8 707.12,-318.35"/>
</a>
</g>
</g>
<!-- Node6&#45;&gt;Node5 -->
<g id="edge7_Node000006_Node000005" class="edge">
<title>Node6&#45;&gt;Node5</title>
<g id="a_edge7_Node000006_Node000005"><a xlink:title=" ">
<path fill="none" stroke="#63b8ff" d="M607.98,-255.03C621.59,-259.43 636.41,-264.32 650,-269 668.37,-275.32 688.71,-282.71 705.45,-288.88"/>
<polygon fill="#63b8ff" stroke="#63b8ff" points="704.25,-292.17 714.84,-292.36 706.68,-285.61 704.25,-292.17"/>
</a>
</g>
</g>
<!-- Node9&#45;&gt;Node9 -->
<g id="edge14_Node000009_Node000009" class="edge">
<title>Node9&#45;&gt;Node9</title>
<g id="a_edge14_Node000009_Node000009"><a xlink:title=" ">
<path fill="none" stroke="#63b8ff" d="M306.79,-112.58C292.09,-121.23 302.16,-130.5 337,-130.5 361.49,-130.5 373.74,-125.92 373.75,-120.19"/>
<polygon fill="#63b8ff" stroke="#63b8ff" points="376.38,-117.88 367.21,-112.58 371.07,-122.45 376.38,-117.88"/>
</a>
</g>
</g>
<!-- Node10 -->
<g id="Node000010" class="node">
<title>Node10</title>
<g id="a_Node000010"><a xlink:href="classcbrc_1_1FLEArray.html#a7e5d0d3bc5c41546620ccff95b55b3fa" target="_top" xlink:title=" ">
<polygon fill="white" stroke="#666666" points="619,-152.5 500,-152.5 500,-133.5 619,-133.5 619,-152.5"/>
<text text-anchor="middle" x="559.5" y="-140.5" font-family="Helvetica,sans-Serif" font-size="10.00">cbrc::FLEArray::begin</text>
</a>
</g>
</g>
<!-- Node9&#45;&gt;Node10 -->
<g id="edge12_Node000009_Node000010" class="edge">
<title>Node9&#45;&gt;Node10</title>
<g id="a_edge12_Node000009_Node000010"><a xlink:title=" ">
<path fill="none" stroke="#63b8ff" d="M388.59,-112.18C420.39,-117.95 461.67,-125.43 495.58,-131.59"/>
<polygon fill="#63b8ff" stroke="#63b8ff" points="495.38,-135.11 505.85,-133.45 496.63,-128.22 495.38,-135.11"/>
</a>
</g>
</g>
<!-- Node11 -->
<g id="Node000011" class="node">
<title>Node11</title>
<g id="a_Node000011"><a xlink:href="classcbrc_1_1FLEArray.html#a8c53878dc57e8f666976e041d146a523" target="_top" xlink:title=" ">
<polygon fill="white" stroke="#666666" points="614.5,-115.5 504.5,-115.5 504.5,-96.5 614.5,-96.5 614.5,-115.5"/>
<text text-anchor="middle" x="559.5" y="-103.5" font-family="Helvetica,sans-Serif" font-size="10.00">cbrc::FLEArray::end</text>
</a>
</g>
</g>
<!-- Node9&#45;&gt;Node11 -->
<g id="edge13_Node000009_Node000011" class="edge">
<title>Node9&#45;&gt;Node11</title>
<g id="a_edge13_Node000009_Node000011"><a xlink:title=" ">
<path fill="none" stroke="#63b8ff" d="M388.59,-103.69C419.93,-104.11 460.48,-104.67 494.1,-105.12"/>
<polygon fill="#63b8ff" stroke="#63b8ff" points="494.25,-108.63 504.29,-105.26 494.34,-101.63 494.25,-108.63"/>
</a>
</g>
</g>
<!-- Node13 -->
<g id="Node000013" class="node">
<title>Node13</title>
<g id="a_Node000013"><a xlink:href="namespacecbrc_1_1perlish.html#a2e0de63b4246722762d5e7c734dae391" target="_top" xlink:title=" ">
<polygon fill="white" stroke="#666666" points="623.5,-78 495.5,-78 495.5,-48 623.5,-48 623.5,-78"/>
<text text-anchor="start" x="503.5" y="-66" font-family="Helvetica,sans-Serif" font-size="10.00">cbrc::perlish::looksLike</text>
<text text-anchor="middle" x="559.5" y="-55" font-family="Helvetica,sans-Serif" font-size="10.00">RealCstring</text>
</a>
</g>
</g>
<!-- Node12&#45;&gt;Node13 -->
<g id="edge16_Node000012_Node000013" class="edge">
<title>Node12&#45;&gt;Node13</title>
<g id="a_edge16_Node000012_Node000013"><a xlink:title=" ">
<path fill="none" stroke="#63b8ff" d="M400.01,-65.16C426.56,-64.8 457.75,-64.37 485.41,-63.99"/>
<polygon fill="#63b8ff" stroke="#63b8ff" points="485.48,-67.49 495.43,-63.86 485.38,-60.49 485.48,-67.49"/>
</a>
</g>
</g>
<!-- Node15 -->
<g id="Node000015" class="node">
<title>Node15</title>
<g id="a_Node000015"><a xlink:href="namespacecbrc_1_1perlish.html#a09c31c84f1c49e9e4eef979b815fda72" target="_top" xlink:title=" ">
<polygon fill="white" stroke="#666666" points="623.5,-30 495.5,-30 495.5,0 623.5,0 623.5,-30"/>
<text text-anchor="start" x="503.5" y="-18" font-family="Helvetica,sans-Serif" font-size="10.00">cbrc::perlish::looksLike</text>
<text text-anchor="middle" x="559.5" y="-7" font-family="Helvetica,sans-Serif" font-size="10.00">UnsignedIntCstring</text>
</a>
</g>
</g>
<!-- Node14&#45;&gt;Node15 -->
<g id="edge18_Node000014_Node000015" class="edge">
<title>Node14&#45;&gt;Node15</title>
<g id="a_edge18_Node000014_Node000015"><a xlink:title=" ">
<path fill="none" stroke="#63b8ff" d="M412.04,-24.3C435.58,-22.8 461.6,-21.15 485.09,-19.66"/>
<polygon fill="#63b8ff" stroke="#63b8ff" points="485.58,-23.14 495.34,-19.01 485.14,-16.15 485.58,-23.14"/>
</a>
</g>
</g>
</g>
</svg>
