<?xml version="1.0" encoding="UTF-8" standalone="no"?>
<!DOCTYPE svg PUBLIC "-//W3C//DTD SVG 1.1//EN"
 "http://www.w3.org/Graphics/SVG/1.1/DTD/svg11.dtd">
<!-- Generated by graphviz version 2.43.0 (0)
 -->
<!-- Title: main Pages: 1 -->
<!--zoomable 400 -->

<svg id="main" version="1.1" xmlns="http://www.w3.org/2000/svg" xmlns:xlink="http://www.w3.org/1999/xlink" xml:space="preserve" onload="init(evt)">
<style type="text/css"><![CDATA[
.node, .edge {opacity: 0.7;}
.node.selected, .edge.selected {opacity: 1;}
.edge:hover path { stroke: red; }
.edge:hover polygon { stroke: red; fill: red; }
]]></style>

<defs>
  <circle id="rim" cx="0" cy="0" r="7"/>
  <circle id="rim2" cx="0" cy="0" r="3.5"/>
  <g id="zoomPlus">
    <use xlink:href="#rim" fill="#404040"><set attributeName="fill" to="#808080" begin="zoomplus.mouseover" end="zoomplus.mouseout"/></use>
    <path d="M-4,0h8M0,-4v8" fill="none" stroke="white" stroke-width="1.5" pointer-events="none"/>
  </g>
  <g id="zoomMin">
    <use xlink:href="#rim" fill="#404040"><set attributeName="fill" to="#808080" begin="zoomminus.mouseover" end="zoomminus.mouseout"/></use>
    <path d="M-4,0h8" fill="none" stroke="white" stroke-width="1.5" pointer-events="none"/>
  </g>
  <g id="arrowUp" transform="translate(30 24)">
    <use xlink:href="#rim"/>
    <path pointer-events="none" fill="none" stroke="white" stroke-width="1.5" d="M0,-3.0v7 M-2.5,-0.5L0,-3.0L2.5,-0.5"/>
  </g>
  <g id="arrowRight" transform="rotate(90) translate(36 -43)">
    <use xlink:href="#rim"/>
    <path pointer-events="none" fill="none" stroke="white" stroke-width="1.5" d="M0,-3.0v7 M-2.5,-0.5L0,-3.0L2.5,-0.5"/>
  </g>
  <g id="arrowDown" transform="rotate(180) translate(-30 -48)">
    <use xlink:href="#rim"/>
    <path pointer-events="none" fill="none" stroke="white" stroke-width="1.5" d="M0,-3.0v7 M-2.5,-0.5L0,-3.0L2.5,-0.5"/>
  </g>
  <g id="arrowLeft" transform="rotate(270) translate(-36 17)">
    <use xlink:href="#rim"/>
    <path pointer-events="none" fill="none" stroke="white" stroke-width="1.5" d="M0,-3.0v7 M-2.5,-0.5L0,-3.0L2.5,-0.5"/>
  </g>
  <g id="resetDef">
    <use xlink:href="#rim2" fill="#404040"><set attributeName="fill" to="#808080" begin="reset.mouseover" end="reset.mouseout"/></use>
  </g>
</defs>
<script type="application/ecmascript">
var viewWidth = 805;
var viewHeight = 400;
var sectionId = 'dynsection-1';
</script>
<script type="application/ecmascript" xlink:href="svg.min.js"/>
<svg id="graph" class="graph">
<g id="viewport">
<title>main</title>
<!-- Node1 -->
<g id="Node000001" class="node">
<title>Node1</title>
<g id="a_Node000001"><a xlink:title=" ">
<polygon fill="#999999" stroke="#666666" points="41,-195.5 0,-195.5 0,-176.5 41,-176.5 41,-195.5"/>
<text text-anchor="middle" x="20.5" y="-183.5" font-family="Helvetica,sans-Serif" font-size="10.00">main</text>
</a>
</g>
</g>
<!-- Node2 -->
<g id="Node000002" class="node">
<title>Node2</title>
<g id="a_Node000002"><a xlink:href="namespacecbrc.html#a21b3d568b029c61ac627788f2c9f16e8" target="_top" xlink:title=" ">
<polygon fill="white" stroke="#666666" points="205,-195.5 77,-195.5 77,-176.5 205,-176.5 205,-195.5"/>
<text text-anchor="middle" x="141" y="-183.5" font-family="Helvetica,sans-Serif" font-size="10.00">cbrc::smoothMinPoints</text>
</a>
</g>
</g>
<!-- Node1&#45;&gt;Node2 -->
<g id="edge1_Node000001_Node000002" class="edge">
<title>Node1&#45;&gt;Node2</title>
<g id="a_edge1_Node000001_Node000002"><a xlink:title=" ">
<path fill="none" stroke="#63b8ff" d="M41.07,-186C48.41,-186 57.25,-186 66.59,-186"/>
<polygon fill="#63b8ff" stroke="#63b8ff" points="66.87,-189.5 76.87,-186 66.87,-182.5 66.87,-189.5"/>
</a>
</g>
</g>
<!-- Node3 -->
<g id="Node000003" class="node">
<title>Node3</title>
<g id="a_Node000003"><a xlink:href="namespacecbrc_1_1smoothing.html#aff57ef2038f4bff5e44f4060dbc89cf0" target="_top" xlink:title=" ">
<polygon fill="white" stroke="#666666" points="433,-353.5 241,-353.5 241,-312.5 433,-312.5 433,-353.5"/>
<text text-anchor="start" x="249" y="-341.5" font-family="Helvetica,sans-Serif" font-size="10.00">cbrc::smoothing::average</text>
<text text-anchor="start" x="249" y="-330.5" font-family="Helvetica,sans-Serif" font-size="10.00">YCoordinatesWithNeighboringPoints</text>
<text text-anchor="middle" x="337" y="-319.5" font-family="Helvetica,sans-Serif" font-size="10.00">UntilMinSampleSizeAttained</text>
</a>
</g>
</g>
<!-- Node2&#45;&gt;Node3 -->
<g id="edge2_Node000002_Node000003" class="edge">
<title>Node2&#45;&gt;Node3</title>
<g id="a_edge2_Node000002_Node000003"><a xlink:title=" ">
<path fill="none" stroke="#63b8ff" d="M147.99,-195.53C161.83,-216.82 198.16,-268.69 241,-298 246.46,-301.73 252.36,-305.13 258.47,-308.2"/>
<polygon fill="#63b8ff" stroke="#63b8ff" points="256.99,-311.37 267.52,-312.47 259.97,-305.04 256.99,-311.37"/>
</a>
</g>
</g>
<!-- Node5 -->
<g id="Node000005" class="node">
<title>Node5</title>
<g id="a_Node000005"><a xlink:href="classcbrc_1_1FLEArray.html#ad71311380d762114c9e0f3b0dda38b7c" target="_top" xlink:title=" ">
<polygon fill="white" stroke="#666666" points="797,-312.5 686,-312.5 686,-293.5 797,-293.5 797,-312.5"/>
<text text-anchor="middle" x="741.5" y="-300.5" font-family="Helvetica,sans-Serif" font-size="10.00">cbrc::FLEArray::size</text>
</a>
</g>
</g>
<!-- Node2&#45;&gt;Node5 -->
<g id="edge8_Node000002_Node000005" class="edge">
<title>Node2&#45;&gt;Node5</title>
<g id="a_edge8_Node000002_Node000005"><a xlink:title=" ">
<path fill="none" stroke="#63b8ff" d="M152.95,-195.6C170.27,-210.18 205.69,-237.52 241,-250 389.94,-302.65 578.2,-307.33 675.56,-305.56"/>
<polygon fill="#63b8ff" stroke="#63b8ff" points="675.91,-309.05 685.84,-305.34 675.77,-302.06 675.91,-309.05"/>
</a>
</g>
</g>
<!-- Node6 -->
<g id="Node000006" class="node">
<title>Node6</title>
<g id="a_Node000006"><a xlink:href="namespacecbrc_1_1smoothing.html#aaf7cb873e7438e138f83af89d4efd678" target="_top" xlink:title=" ">
<polygon fill="white" stroke="#666666" points="646.5,-256 472.5,-256 472.5,-226 646.5,-226 646.5,-256"/>
<text text-anchor="start" x="480.5" y="-244" font-family="Helvetica,sans-Serif" font-size="10.00">cbrc::smoothing::mergeIdentical</text>
<text text-anchor="middle" x="559.5" y="-233" font-family="Helvetica,sans-Serif" font-size="10.00">AdjacentX</text>
</a>
</g>
</g>
<!-- Node2&#45;&gt;Node6 -->
<g id="edge6_Node000002_Node000006" class="edge">
<title>Node2&#45;&gt;Node6</title>
<g id="a_edge6_Node000002_Node000006"><a xlink:title=" ">
<path fill="none" stroke="#63b8ff" d="M159.63,-195.52C178.96,-205.42 211.22,-220.39 241,-227 313.99,-243.2 398.66,-246.17 462.2,-245.38"/>
<polygon fill="#63b8ff" stroke="#63b8ff" points="462.27,-248.88 472.21,-245.22 462.16,-241.88 462.27,-248.88"/>
</a>
</g>
</g>
<!-- Node7 -->
<g id="Node000007" class="node">
<title>Node7</title>
<g id="a_Node000007"><a xlink:href="namespacecbrc_1_1perlish.html#a1b9b10d59aa7b6d3e846aed1a3d84a09" target="_top" xlink:title=" ">
<polygon fill="white" stroke="#666666" points="402.5,-217.5 271.5,-217.5 271.5,-198.5 402.5,-198.5 402.5,-217.5"/>
<text text-anchor="middle" x="337" y="-205.5" font-family="Helvetica,sans-Serif" font-size="10.00">cbrc::perlish::slurpLines</text>
</a>
</g>
</g>
<!-- Node2&#45;&gt;Node7 -->
<g id="edge9_Node000002_Node000007" class="edge">
<title>Node2&#45;&gt;Node7</title>
<g id="a_edge9_Node000002_Node000007"><a xlink:title=" ">
<path fill="none" stroke="#63b8ff" d="M205.25,-193.17C223.07,-195.19 242.63,-197.41 261.06,-199.5"/>
<polygon fill="#63b8ff" stroke="#63b8ff" points="260.84,-203 271.17,-200.65 261.63,-196.04 260.84,-203"/>
</a>
</g>
</g>
<!-- Node8 -->
<g id="Node000008" class="node">
<title>Node8</title>
<g id="a_Node000008"><a xlink:href="namespacecbrc_1_1smoothing.html#ab16a6b2dbe0cbebcff46591498dc53a7" target="_top" xlink:title=" ">
<polygon fill="white" stroke="#666666" points="414.5,-180 259.5,-180 259.5,-150 414.5,-150 414.5,-180"/>
<text text-anchor="start" x="267.5" y="-168" font-family="Helvetica,sans-Serif" font-size="10.00">cbrc::smoothing::sortInPlace</text>
<text text-anchor="middle" x="337" y="-157" font-family="Helvetica,sans-Serif" font-size="10.00">AscendingValue</text>
</a>
</g>
</g>
<!-- Node2&#45;&gt;Node8 -->
<g id="edge10_Node000002_Node000008" class="edge">
<title>Node2&#45;&gt;Node8</title>
<g id="a_edge10_Node000002_Node000008"><a xlink:title=" ">
<path fill="none" stroke="#63b8ff" d="M205.25,-179.15C219.27,-177.64 234.36,-176 249.13,-174.4"/>
<polygon fill="#63b8ff" stroke="#63b8ff" points="249.72,-177.86 259.29,-173.3 248.97,-170.9 249.72,-177.86"/>
</a>
</g>
</g>
<!-- Node9 -->
<g id="Node000009" class="node">
<title>Node9</title>
<g id="a_Node000009"><a xlink:href="namespacecbrc_1_1perlish.html#a101a4746d50e52a00273c6fe533970ec" target="_top" xlink:title=" ">
<polygon fill="white" stroke="#666666" points="388.5,-113.5 285.5,-113.5 285.5,-94.5 388.5,-94.5 388.5,-113.5"/>
<text text-anchor="middle" x="337" y="-101.5" font-family="Helvetica,sans-Serif" font-size="10.00">cbrc::perlish::split</text>
</a>
</g>
</g>
<!-- Node2&#45;&gt;Node9 -->
<g id="edge11_Node000002_Node000009" class="edge">
<title>Node2&#45;&gt;Node9</title>
<g id="a_edge11_Node000002_Node000009"><a xlink:title=" ">
<path fill="none" stroke="#63b8ff" d="M162.33,-176.36C182.24,-167.01 213.51,-152.59 241,-141 260.68,-132.7 282.91,-124.01 300.92,-117.13"/>
<polygon fill="#63b8ff" stroke="#63b8ff" points="302.34,-120.34 310.44,-113.52 299.85,-113.79 302.34,-120.34"/>
</a>
</g>
</g>
<!-- Node12 -->
<g id="Node000012" class="node">
<title>Node12</title>
<g id="a_Node000012"><a xlink:href="namespacecbrc_1_1perlish.html#a0e108ed71261c0e210de8d812835028c" target="_top" xlink:title=" ">
<polygon fill="white" stroke="#666666" points="400,-73.5 274,-73.5 274,-54.5 400,-54.5 400,-73.5"/>
<text text-anchor="middle" x="337" y="-61.5" font-family="Helvetica,sans-Serif" font-size="10.00">cbrc::perlish::toDouble</text>
</a>
</g>
</g>
<!-- Node2&#45;&gt;Node12 -->
<g id="edge15_Node000002_Node000012" class="edge">
<title>Node2&#45;&gt;Node12</title>
<g id="a_edge15_Node000002_Node000012"><a xlink:title=" ">
<path fill="none" stroke="#63b8ff" d="M148.65,-176.25C163,-156.03 198.97,-109.45 241,-86 248.15,-82.01 255.98,-78.75 263.99,-76.07"/>
<polygon fill="#63b8ff" stroke="#63b8ff" points="265.26,-79.34 273.81,-73.09 263.23,-72.64 265.26,-79.34"/>
</a>
</g>
</g>
<!-- Node14 -->
<g id="Node000014" class="node">
<title>Node14</title>
<g id="a_Node000014"><a xlink:href="namespacecbrc_1_1perlish.html#a808f5d7e67fdbcd98444453a3aac97f6" target="_top" xlink:title=" ">
<polygon fill="white" stroke="#666666" points="412,-31.5 262,-31.5 262,-12.5 412,-12.5 412,-31.5"/>
<text text-anchor="middle" x="337" y="-19.5" font-family="Helvetica,sans-Serif" font-size="10.00">cbrc::perlish::toUnsignedInt</text>
</a>
</g>
</g>
<!-- Node2&#45;&gt;Node14 -->
<g id="edge17_Node000002_Node000014" class="edge">
<title>Node2&#45;&gt;Node14</title>
<g id="a_edge17_Node000002_Node000014"><a xlink:title=" ">
<path fill="none" stroke="#63b8ff" d="M145.87,-176.31C156.68,-150.53 189.83,-79.86 241,-45 246.75,-41.08 253.09,-37.83 259.69,-35.13"/>
<polygon fill="#63b8ff" stroke="#63b8ff" points="261.3,-38.27 269.5,-31.56 258.91,-31.69 261.3,-38.27"/>
</a>
</g>
</g>
<!-- Node4 -->
<g id="Node000004" class="node">
<title>Node4</title>
<g id="a_Node000004"><a xlink:href="namespacecbrc_1_1smoothing.html#ac1ab7e34716884166d35b735e16b93d6" target="_top" xlink:title=" ">
<polygon fill="white" stroke="#666666" points="650,-391.5 469,-391.5 469,-350.5 650,-350.5 650,-391.5"/>
<text text-anchor="start" x="477" y="-379.5" font-family="Helvetica,sans-Serif" font-size="10.00">cbrc::smoothing::average</text>
<text text-anchor="start" x="477" y="-368.5" font-family="Helvetica,sans-Serif" font-size="10.00">YCoordinateOfPointIWithNeighbor</text>
<text text-anchor="middle" x="559.5" y="-357.5" font-family="Helvetica,sans-Serif" font-size="10.00">PointUntilMinSampleSizeAttained</text>
</a>
</g>
</g>
<!-- Node3&#45;&gt;Node4 -->
<g id="edge3_Node000003_Node000004" class="edge">
<title>Node3&#45;&gt;Node4</title>
<g id="a_edge3_Node000003_Node000004"><a xlink:title=" ">
<path fill="none" stroke="#63b8ff" d="M433.11,-349.39C441.66,-350.86 450.33,-352.36 458.91,-353.84"/>
<polygon fill="#63b8ff" stroke="#63b8ff" points="458.48,-357.31 468.93,-355.56 459.67,-350.42 458.48,-357.31"/>
</a>
</g>
</g>
<!-- Node3&#45;&gt;Node5 -->
<g id="edge5_Node000003_Node000005" class="edge">
<title>Node3&#45;&gt;Node5</title>
<g id="a_edge5_Node000003_Node000005"><a xlink:title=" ">
<path fill="none" stroke="#63b8ff" d="M433.13,-325.91C507.93,-320.33 610.12,-312.72 675.72,-307.83"/>
<polygon fill="#63b8ff" stroke="#63b8ff" points="676.22,-311.3 685.93,-307.07 675.69,-304.32 676.22,-311.3"/>
</a>
</g>
</g>
<!-- Node4&#45;&gt;Node5 -->
<g id="edge4_Node000004_Node000005" class="edge">
<title>Node4&#45;&gt;Node5</title>
<g id="a_edge4_Node000004_Node000005"><a xlink:title=" ">
<path fill="none" stroke="#63b8ff" d="M614.99,-350.41C644.41,-339.3 679.85,-325.91 705.56,-316.2"/>
<polygon fill="#63b8ff" stroke="#63b8ff" points="707.12,-319.35 715.24,-312.54 704.65,-312.8 707.12,-319.35"/>
</a>
</g>
</g>
<!-- Node6&#45;&gt;Node5 -->
<g id="edge7_Node000006_Node000005" class="edge">
<title>Node6&#45;&gt;Node5</title>
<g id="a_edge7_Node000006_Node000005"><a xlink:title=" ">
<path fill="none" stroke="#63b8ff" d="M607.98,-256.03C621.59,-260.43 636.41,-265.32 650,-270 668.37,-276.32 688.71,-283.71 705.45,-289.88"/>
<polygon fill="#63b8ff" stroke="#63b8ff" points="704.25,-293.17 714.84,-293.36 706.68,-286.61 704.25,-293.17"/>
</a>
</g>
</g>
<!-- Node9&#45;&gt;Node9 -->
<g id="edge14_Node000009_Node000009" class="edge">
<title>Node9&#45;&gt;Node9</title>
<g id="a_edge14_Node000009_Node000009"><a xlink:title=" ">
<path fill="none" stroke="#63b8ff" d="M306.79,-113.58C292.09,-122.23 302.16,-131.5 337,-131.5 361.49,-131.5 373.74,-126.92 373.75,-121.19"/>
<polygon fill="#63b8ff" stroke="#63b8ff" points="376.38,-118.88 367.21,-113.58 371.07,-123.45 376.38,-118.88"/>
</a>
</g>
</g>
<!-- Node10 -->
<g id="Node000010" class="node">
<title>Node10</title>
<g id="a_Node000010"><a xlink:href="classcbrc_1_1FLEArray.html#a7e5d0d3bc5c41546620ccff95b55b3fa" target="_top" xlink:title=" ">
<polygon fill="white" stroke="#666666" points="619,-152.5 500,-152.5 500,-133.5 619,-133.5 619,-152.5"/>
<text text-anchor="middle" x="559.5" y="-140.5" font-family="Helvetica,sans-Serif" font-size="10.00">cbrc::FLEArray::begin</text>
</a>
</g>
</g>
<!-- Node9&#45;&gt;Node10 -->
<g id="edge12_Node000009_Node000010" class="edge">
<title>Node9&#45;&gt;Node10</title>
<g id="a_edge12_Node000009_Node000010"><a xlink:title=" ">
<path fill="none" stroke="#63b8ff" d="M388.59,-112.95C420.04,-118.51 460.77,-125.72 494.47,-131.68"/>
<polygon fill="#63b8ff" stroke="#63b8ff" points="494.23,-135.19 504.68,-133.48 495.45,-128.29 494.23,-135.19"/>
</a>
</g>
</g>
<!-- Node11 -->
<g id="Node000011" class="node">
<title>Node11</title>
<g id="a_Node000011"><a xlink:href="classcbrc_1_1FLEArray.html#a8c53878dc57e8f666976e041d146a523" target="_top" xlink:title=" ">
<polygon fill="white" stroke="#666666" points="614.5,-115.5 504.5,-115.5 504.5,-96.5 614.5,-96.5 614.5,-115.5"/>
<text text-anchor="middle" x="559.5" y="-103.5" font-family="Helvetica,sans-Serif" font-size="10.00">cbrc::FLEArray::end</text>
</a>
</g>
</g>
<!-- Node9&#45;&gt;Node11 -->
<g id="edge13_Node000009_Node000011" class="edge">
<title>Node9&#45;&gt;Node11</title>
<g id="a_edge13_Node000009_Node000011"><a xlink:title=" ">
<path fill="none" stroke="#63b8ff" d="M388.59,-104.46C419.93,-104.74 460.48,-105.11 494.1,-105.42"/>
<polygon fill="#63b8ff" stroke="#63b8ff" points="494.26,-108.92 504.29,-105.51 494.33,-101.92 494.26,-108.92"/>
</a>
</g>
</g>
<!-- Node13 -->
<g id="Node000013" class="node">
<title>Node13</title>
<g id="a_Node000013"><a xlink:href="namespacecbrc_1_1perlish.html#a2e0de63b4246722762d5e7c734dae391" target="_top" xlink:title=" ">
<polygon fill="white" stroke="#666666" points="623.5,-78 495.5,-78 495.5,-48 623.5,-48 623.5,-78"/>
<text text-anchor="start" x="503.5" y="-66" font-family="Helvetica,sans-Serif" font-size="10.00">cbrc::perlish::looksLike</text>
<text text-anchor="middle" x="559.5" y="-55" font-family="Helvetica,sans-Serif" font-size="10.00">RealCstring</text>
</a>
</g>
</g>
<!-- Node12&#45;&gt;Node13 -->
<g id="edge16_Node000012_Node000013" class="edge">
<title>Node12&#45;&gt;Node13</title>
<g id="a_edge16_Node000012_Node000013"><a xlink:title=" ">
<path fill="none" stroke="#63b8ff" d="M400.01,-63.72C426.56,-63.6 457.75,-63.46 485.41,-63.33"/>
<polygon fill="#63b8ff" stroke="#63b8ff" points="485.44,-66.83 495.43,-63.29 485.41,-59.83 485.44,-66.83"/>
</a>
</g>
</g>
<!-- Node15 -->
<g id="Node000015" class="node">
<title>Node15</title>
<g id="a_Node000015"><a xlink:href="namespacecbrc_1_1perlish.html#a09c31c84f1c49e9e4eef979b815fda72" target="_top" xlink:title=" ">
<polygon fill="white" stroke="#666666" points="623.5,-30 495.5,-30 495.5,0 623.5,0 623.5,-30"/>
<text text-anchor="start" x="503.5" y="-18" font-family="Helvetica,sans-Serif" font-size="10.00">cbrc::perlish::looksLike</text>
<text text-anchor="middle" x="559.5" y="-7" font-family="Helvetica,sans-Serif" font-size="10.00">UnsignedIntCstring</text>
</a>
</g>
</g>
<!-- Node14&#45;&gt;Node15 -->
<g id="edge18_Node000014_Node000015" class="edge">
<title>Node14&#45;&gt;Node15</title>
<g id="a_edge18_Node000014_Node000015"><a xlink:title=" ">
<path fill="none" stroke="#63b8ff" d="M412.04,-19.65C435.58,-18.9 461.6,-18.08 485.09,-17.33"/>
<polygon fill="#63b8ff" stroke="#63b8ff" points="485.46,-20.82 495.34,-17.01 485.24,-13.82 485.46,-20.82"/>
</a>
</g>
</g>
</g>
</svg>

<g id="navigator" transform="translate(0 0)" fill="#404254">
  <rect fill="#f2f5e9" fill-opacity="0.5" stroke="#606060" stroke-width=".5" x="0" y="0" width="60" height="60"/>
  <use id="zoomplus" xlink:href="#zoomPlus" x="17" y="9" onmousedown="handleZoom(evt,'in')"/>
  <use id="zoomminus" xlink:href="#zoomMin" x="42" y="9" onmousedown="handleZoom(evt,'out')"/>
  <use id="reset" xlink:href="#resetDef" x="30" y="36" onmousedown="handleReset()"/>
   <use id="arrowup" xlink:href="#arrowUp" x="0" y="0" onmousedown="handlePan(0,-1)"/>
  <use id="arrowright" xlink:href="#arrowRight" x="0" y="0" onmousedown="handlePan(1,0)"/>
  <use id="arrowdown" xlink:href="#arrowDown" x="0" y="0" onmousedown="handlePan(0,1)"/>
  <use id="arrowleft" xlink:href="#arrowLeft" x="0" y="0" onmousedown="handlePan(-1,0)"/>
</g>
<svg viewBox="0 0 15 15" width="100%" height="30px" preserveAspectRatio="xMaxYMin meet">
 <g id="arrow_out" transform="scale(0.3 0.3)">
  <a xlink:href="smoothMonotonically_8cc_ac0f2228420376f4db7e1274f2b41667c_cgraph_org.svg" target="_base">
   <rect id="button" ry="5" rx="5" y="6" x="6" height="38" width="38"
        fill="#f2f5e9" fill-opacity="0.5" stroke="#606060" stroke-width="1.0"/>
   <path id="arrow"
     d="M 11.500037,31.436501 C 11.940474,20.09759 22.043105,11.32322 32.158766,21.979434 L 37.068811,17.246167 C 37.068811,17.246167 37.088388,32 37.088388,32 L 22.160133,31.978069 C 22.160133,31.978069 26.997745,27.140456 26.997745,27.140456 C 18.528582,18.264221 13.291696,25.230495 11.500037,31.436501 z"
     style="fill:#404040;"/>
  </a>
 </g>
</svg>

<style type='text/css'>
<![CDATA[
[data-mouse-over-selected='false'] { opacity: 0.7; }
[data-mouse-over-selected='true']  { opacity: 1.0; }
]]>
</style>
<script type="application/ecmascript"><![CDATA[
document.addEventListener('DOMContentLoaded', (event) => {
  highlightEdges();
  highlightAdjacentNodes();
});
]]></script>
</svg>
