<?xml version="1.0" encoding="UTF-8" standalone="no"?>
<!DOCTYPE svg PUBLIC "-//W3C//DTD SVG 1.1//EN"
 "http://www.w3.org/Graphics/SVG/1.1/DTD/svg11.dtd">
<!-- Generated by graphviz version 2.43.0 (0)
 -->
<!-- Title: main Pages: 1 -->
<!--zoomable 346 -->

<svg id="main" version="1.1" xmlns="http://www.w3.org/2000/svg" xmlns:xlink="http://www.w3.org/1999/xlink" xml:space="preserve" onload="init(evt)">
<style type="text/css"><![CDATA[
.node, .edge {opacity: 0.7;}
.node.selected, .edge.selected {opacity: 1;}
.edge:hover path { stroke: red; }
.edge:hover polygon { stroke: red; fill: red; }
]]></style>

<defs>
  <circle id="rim" cx="0" cy="0" r="7"/>
  <circle id="rim2" cx="0" cy="0" r="3.5"/>
  <g id="zoomPlus">
    <use xlink:href="#rim" fill="#404040"><set attributeName="fill" to="#808080" begin="zoomplus.mouseover" end="zoomplus.mouseout"/></use>
    <path d="M-4,0h8M0,-4v8" fill="none" stroke="white" stroke-width="1.5" pointer-events="none"/>
  </g>
  <g id="zoomMin">
    <use xlink:href="#rim" fill="#404040"><set attributeName="fill" to="#808080" begin="zoomminus.mouseover" end="zoomminus.mouseout"/></use>
    <path d="M-4,0h8" fill="none" stroke="white" stroke-width="1.5" pointer-events="none"/>
  </g>
  <g id="arrowUp" transform="translate(30 24)">
    <use xlink:href="#rim"/>
    <path pointer-events="none" fill="none" stroke="white" stroke-width="1.5" d="M0,-3.0v7 M-2.5,-0.5L0,-3.0L2.5,-0.5"/>
  </g>
  <g id="arrowRight" transform="rotate(90) translate(36 -43)">
    <use xlink:href="#rim"/>
    <path pointer-events="none" fill="none" stroke="white" stroke-width="1.5" d="M0,-3.0v7 M-2.5,-0.5L0,-3.0L2.5,-0.5"/>
  </g>
  <g id="arrowDown" transform="rotate(180) translate(-30 -48)">
    <use xlink:href="#rim"/>
    <path pointer-events="none" fill="none" stroke="white" stroke-width="1.5" d="M0,-3.0v7 M-2.5,-0.5L0,-3.0L2.5,-0.5"/>
  </g>
  <g id="arrowLeft" transform="rotate(270) translate(-36 17)">
    <use xlink:href="#rim"/>
    <path pointer-events="none" fill="none" stroke="white" stroke-width="1.5" d="M0,-3.0v7 M-2.5,-0.5L0,-3.0L2.5,-0.5"/>
  </g>
  <g id="resetDef">
    <use xlink:href="#rim2" fill="#404040"><set attributeName="fill" to="#808080" begin="reset.mouseover" end="reset.mouseout"/></use>
  </g>
</defs>
<script type="application/ecmascript">
var viewWidth = 1003;
var viewHeight = 346;
var sectionId = 'dynsection-1';
</script>
<script type="application/ecmascript" xlink:href="svg.min.js"/>
<svg id="graph" class="graph">
<g id="viewport">
<title>main</title>
<!-- Node1 -->
<g id="Node000001" class="node">
<title>Node1</title>
<g id="a_Node000001"><a xlink:title=" ">
<polygon fill="#999999" stroke="#666666" points="41,-149 0,-149 0,-130 41,-130 41,-149"/>
<text text-anchor="middle" x="20.5" y="-137" font-family="Helvetica,sans-Serif" font-size="10.00">main</text>
</a>
</g>
</g>
<!-- Node2 -->
<g id="Node000002" class="node">
<title>Node2</title>
<g id="a_Node000002"><a xlink:href="classcbrc_1_1ArgvParser.html#a74359749acfafee36c21d20b237d1cc2" target="_top" xlink:title=" ">
<polygon fill="white" stroke="#666666" points="259,-243 77,-243 77,-224 259,-224 259,-243"/>
<text text-anchor="middle" x="168" y="-231" font-family="Helvetica,sans-Serif" font-size="10.00">cbrc::ArgvParser::dieIfUnusedArgs</text>
</a>
</g>
</g>
<!-- Node1&#45;&gt;Node2 -->
<g id="edge1_Node000001_Node000002" class="edge">
<title>Node1&#45;&gt;Node2</title>
<g id="a_edge1_Node000001_Node000002"><a xlink:title=" ">
<path fill="none" stroke="#63b8ff" d="M35.07,-149.04C46.24,-156.83 62.53,-168.05 77,-177.5 98.91,-191.81 124.25,-207.5 142.45,-218.62"/>
<polygon fill="#63b8ff" stroke="#63b8ff" points="140.9,-221.78 151.26,-223.99 144.54,-215.8 140.9,-221.78"/>
</a>
</g>
</g>
<!-- Node12 -->
<g id="Node000012" class="node">
<title>Node12</title>
<g id="a_Node000012"><a xlink:href="classcbrc_1_1ArgvParser.html#a398291b90ac102914876b8b3be39b3a8" target="_top" xlink:title=" ">
<polygon fill="white" stroke="#666666" points="252,-168 84,-168 84,-149 252,-149 252,-168"/>
<text text-anchor="middle" x="168" y="-156" font-family="Helvetica,sans-Serif" font-size="10.00">cbrc::ArgvParser::getIstreamPtr</text>
</a>
</g>
</g>
<!-- Node1&#45;&gt;Node12 -->
<g id="edge15_Node000001_Node000012" class="edge">
<title>Node1&#45;&gt;Node12</title>
<g id="a_edge15_Node000001_Node000012"><a xlink:title=" ">
<path fill="none" stroke="#63b8ff" d="M41.12,-142.06C52.62,-143.56 68.01,-145.57 84.08,-147.67"/>
<polygon fill="#63b8ff" stroke="#63b8ff" points="83.77,-151.16 94.14,-148.99 84.68,-144.22 83.77,-151.16"/>
</a>
</g>
</g>
<!-- Node13 -->
<g id="Node000013" class="node">
<title>Node13</title>
<g id="a_Node000013"><a xlink:href="classcbrc_1_1ArgvParser.html#a4c8336b8cd01c009285d5f0ba688254c" target="_top" xlink:title=" ">
<polygon fill="white" stroke="#666666" points="240,-131 96,-131 96,-112 240,-112 240,-131"/>
<text text-anchor="middle" x="168" y="-119" font-family="Helvetica,sans-Serif" font-size="10.00">cbrc::ArgvParser::setOrDie</text>
</a>
</g>
</g>
<!-- Node1&#45;&gt;Node13 -->
<g id="edge16_Node000001_Node000013" class="edge">
<title>Node1&#45;&gt;Node13</title>
<g id="a_edge16_Node000001_Node000013"><a xlink:title=" ">
<path fill="none" stroke="#63b8ff" d="M41.12,-137.07C52.94,-135.61 68.88,-133.64 85.43,-131.59"/>
<polygon fill="#63b8ff" stroke="#63b8ff" points="86.29,-135.01 95.78,-130.31 85.43,-128.06 86.29,-135.01"/>
</a>
</g>
</g>
<!-- Node17 -->
<g id="Node000017" class="node">
<title>Node17</title>
<g id="a_Node000017"><a xlink:href="namespacecbrc.html#a0973b25ce7d45f61f0d241da952d8102" target="_top" xlink:title=" ">
<polygon fill="white" stroke="#666666" points="220.5,-76 115.5,-76 115.5,-57 220.5,-57 220.5,-76"/>
<text text-anchor="middle" x="168" y="-64" font-family="Helvetica,sans-Serif" font-size="10.00">cbrc::sprotGrepOC</text>
</a>
</g>
</g>
<!-- Node1&#45;&gt;Node17 -->
<g id="edge22_Node000001_Node000017" class="edge">
<title>Node1&#45;&gt;Node17</title>
<g id="a_edge22_Node000001_Node000017"><a xlink:title=" ">
<path fill="none" stroke="#63b8ff" d="M34.76,-129.9C45.75,-122.19 61.94,-111.39 77,-103.5 94.14,-94.52 113.95,-86.17 130.62,-79.68"/>
<polygon fill="#63b8ff" stroke="#63b8ff" points="131.94,-82.93 140.03,-76.09 129.44,-76.39 131.94,-82.93"/>
</a>
</g>
</g>
<!-- Node3 -->
<g id="Node000003" class="node">
<title>Node3</title>
<g id="a_Node000003"><a xlink:href="classcbrc_1_1ArgvParser.html#aad8dc9d595217cf4ad2a7f557371d3ab" target="_top" xlink:title=" ">
<polygon fill="white" stroke="#666666" points="432,-188 316,-188 316,-169 432,-169 432,-188"/>
<text text-anchor="middle" x="374" y="-176" font-family="Helvetica,sans-Serif" font-size="10.00">cbrc::ArgvParser::die</text>
</a>
</g>
</g>
<!-- Node2&#45;&gt;Node3 -->
<g id="edge2_Node000002_Node000003" class="edge">
<title>Node2&#45;&gt;Node3</title>
<g id="a_edge2_Node000002_Node000003"><a xlink:title=" ">
<path fill="none" stroke="#63b8ff" d="M201.01,-223.98C226.42,-216.51 262.89,-205.99 295,-197.5 303.91,-195.14 313.41,-192.74 322.62,-190.47"/>
<polygon fill="#63b8ff" stroke="#63b8ff" points="323.56,-193.84 332.44,-188.06 321.89,-187.04 323.56,-193.84"/>
</a>
</g>
</g>
<!-- Node4 -->
<g id="Node000004" class="node">
<title>Node4</title>
<g id="a_Node000004"><a xlink:href="classcbrc_1_1FLEArray.html#ad71311380d762114c9e0f3b0dda38b7c" target="_top" xlink:title=" ">
<polygon fill="white" stroke="#666666" points="995,-225 884,-225 884,-206 995,-206 995,-225"/>
<text text-anchor="middle" x="939.5" y="-213" font-family="Helvetica,sans-Serif" font-size="10.00">cbrc::FLEArray::size</text>
</a>
</g>
</g>
<!-- Node2&#45;&gt;Node4 -->
<g id="edge13_Node000002_Node000004" class="edge">
<title>Node2&#45;&gt;Node4</title>
<g id="a_edge13_Node000002_Node000004"><a xlink:title=" ">
<path fill="none" stroke="#63b8ff" d="M193.14,-243.1C218.15,-252.49 258.61,-266.13 295,-271.5 538.55,-307.43 607.52,-292.19 848,-239.5 863.48,-236.11 880.3,-231.82 895.19,-227.81"/>
<polygon fill="#63b8ff" stroke="#63b8ff" points="896.42,-231.1 905.15,-225.09 894.58,-224.35 896.42,-231.1"/>
</a>
</g>
</g>
<!-- Node6 -->
<g id="Node000006" class="node">
<title>Node6</title>
<g id="a_Node000006"><a xlink:href="classcbrc_1_1FLEArray.html#a877e10058250ecb9733399c211afee1a" target="_top" xlink:title=" ">
<polygon fill="white" stroke="#666666" points="435.5,-262 312.5,-262 312.5,-243 435.5,-243 435.5,-262"/>
<text text-anchor="middle" x="374" y="-250" font-family="Helvetica,sans-Serif" font-size="10.00">cbrc::FLEArray::empty</text>
</a>
</g>
</g>
<!-- Node2&#45;&gt;Node6 -->
<g id="edge5_Node000002_Node000006" class="edge">
<title>Node2&#45;&gt;Node6</title>
<g id="a_edge5_Node000002_Node000006"><a xlink:title=" ">
<path fill="none" stroke="#63b8ff" d="M259.07,-241.89C273.59,-243.24 288.43,-244.62 302.4,-245.92"/>
<polygon fill="#63b8ff" stroke="#63b8ff" points="302.12,-249.41 312.4,-246.86 302.77,-242.44 302.12,-249.41"/>
</a>
</g>
</g>
<!-- Node7 -->
<g id="Node000007" class="node">
<title>Node7</title>
<g id="a_Node000007"><a xlink:href="classcbrc_1_1ArgvParser.html#a8e03423da9e8217c5c6e65f0ff403a1a" target="_top" xlink:title=" ">
<polygon fill="white" stroke="#666666" points="445.5,-225 302.5,-225 302.5,-206 445.5,-206 445.5,-225"/>
<text text-anchor="middle" x="374" y="-213" font-family="Helvetica,sans-Serif" font-size="10.00">cbrc::ArgvParser::printDoc</text>
</a>
</g>
</g>
<!-- Node2&#45;&gt;Node7 -->
<g id="edge6_Node000002_Node000007" class="edge">
<title>Node2&#45;&gt;Node7</title>
<g id="a_edge6_Node000002_Node000007"><a xlink:title=" ">
<path fill="none" stroke="#63b8ff" d="M259.07,-225.55C270.07,-224.58 281.26,-223.59 292.11,-222.64"/>
<polygon fill="#63b8ff" stroke="#63b8ff" points="292.75,-226.09 302.4,-221.73 292.13,-219.12 292.75,-226.09"/>
</a>
</g>
</g>
<!-- Node11 -->
<g id="Node000011" class="node">
<title>Node11</title>
<g id="a_Node000011"><a xlink:href="classcbrc_1_1ArgvParser.html#a40870d9c52a7a88958432ef2126ab9f1" target="_top" xlink:title=" ">
<polygon fill="white" stroke="#666666" points="453,-338 295,-338 295,-319 453,-319 453,-338"/>
<text text-anchor="middle" x="374" y="-326" font-family="Helvetica,sans-Serif" font-size="10.00">cbrc::ArgvParser::unusedArgs</text>
</a>
</g>
</g>
<!-- Node2&#45;&gt;Node11 -->
<g id="edge14_Node000002_Node000011" class="edge">
<title>Node2&#45;&gt;Node11</title>
<g id="a_edge14_Node000002_Node000011"><a xlink:title=" ">
<path fill="none" stroke="#63b8ff" d="M183.59,-243.1C206.54,-257.87 252.78,-286.36 295,-304.5 304.96,-308.78 315.94,-312.65 326.44,-315.96"/>
<polygon fill="#63b8ff" stroke="#63b8ff" points="325.72,-319.4 336.3,-318.97 327.76,-312.71 325.72,-319.4"/>
</a>
</g>
</g>
<!-- Node3&#45;&gt;Node4 -->
<g id="edge3_Node000003_Node000004" class="edge">
<title>Node3&#45;&gt;Node4</title>
<g id="a_edge3_Node000003_Node000004"><a xlink:title=" ">
<path fill="none" stroke="#63b8ff" d="M423.37,-168.97C510.18,-153.74 697.37,-129.5 848,-169.5 872.52,-176.01 898.07,-189.74 915.74,-200.51"/>
<polygon fill="#63b8ff" stroke="#63b8ff" points="913.89,-203.48 924.22,-205.82 917.61,-197.55 913.89,-203.48"/>
</a>
</g>
</g>
<!-- Node5 -->
<g id="Node000005" class="node">
<title>Node5</title>
<g id="a_Node000005"><a xlink:href="classcbrc_1_1ArgvParser.html#a1b7d257748fcfaa9a9a3cf46bc36a7e5" target="_top" xlink:title=" ">
<polygon fill="white" stroke="#666666" points="642,-188 511,-188 511,-169 642,-169 642,-188"/>
<text text-anchor="middle" x="576.5" y="-176" font-family="Helvetica,sans-Serif" font-size="10.00">cbrc::ArgvParser::usage</text>
</a>
</g>
</g>
<!-- Node3&#45;&gt;Node5 -->
<g id="edge4_Node000003_Node000005" class="edge">
<title>Node3&#45;&gt;Node5</title>
<g id="a_edge4_Node000003_Node000005"><a xlink:title=" ">
<path fill="none" stroke="#63b8ff" d="M432.19,-178.5C453.47,-178.5 477.94,-178.5 500.57,-178.5"/>
<polygon fill="#63b8ff" stroke="#63b8ff" points="500.83,-182 510.83,-178.5 500.83,-175 500.83,-182"/>
</a>
</g>
</g>
<!-- Node8 -->
<g id="Node000008" class="node">
<title>Node8</title>
<g id="a_Node000008"><a xlink:href="classcbrc_1_1ArgvParser.html#a4279902497c688168b45f0f70d118060" target="_top" xlink:title=" ">
<polygon fill="white" stroke="#666666" points="649,-262 504,-262 504,-243 649,-243 649,-262"/>
<text text-anchor="middle" x="576.5" y="-250" font-family="Helvetica,sans-Serif" font-size="10.00">cbrc::ArgvParser::numArgs</text>
</a>
</g>
</g>
<!-- Node7&#45;&gt;Node8 -->
<g id="edge7_Node000007_Node000008" class="edge">
<title>Node7&#45;&gt;Node8</title>
<g id="a_edge7_Node000007_Node000008"><a xlink:title=" ">
<path fill="none" stroke="#63b8ff" d="M426.63,-225.03C453.19,-229.93 485.76,-235.94 513.65,-241.09"/>
<polygon fill="#63b8ff" stroke="#63b8ff" points="513.22,-244.57 523.69,-242.94 514.49,-237.68 513.22,-244.57"/>
</a>
</g>
</g>
<!-- Node9 -->
<g id="Node000009" class="node">
<title>Node9</title>
<g id="a_Node000009"><a xlink:href="classcbrc_1_1ArgvParser.html#a96db1f87dc329ff812829f18748c2ce6" target="_top" xlink:title=" ">
<polygon fill="white" stroke="#666666" points="664,-225 489,-225 489,-206 664,-206 664,-225"/>
<text text-anchor="middle" x="576.5" y="-213" font-family="Helvetica,sans-Serif" font-size="10.00">cbrc::ArgvParser::printOptionDoc</text>
</a>
</g>
</g>
<!-- Node7&#45;&gt;Node9 -->
<g id="edge8_Node000007_Node000009" class="edge">
<title>Node7&#45;&gt;Node9</title>
<g id="a_edge8_Node000007_Node000009"><a xlink:title=" ">
<path fill="none" stroke="#63b8ff" d="M445.69,-215.5C456.39,-215.5 467.59,-215.5 478.73,-215.5"/>
<polygon fill="#63b8ff" stroke="#63b8ff" points="478.93,-219 488.93,-215.5 478.93,-212 478.93,-219"/>
</a>
</g>
</g>
<!-- Node9&#45;&gt;Node4 -->
<g id="edge12_Node000009_Node000004" class="edge">
<title>Node9&#45;&gt;Node4</title>
<g id="a_edge12_Node000009_Node000004"><a xlink:title=" ">
<path fill="none" stroke="#63b8ff" d="M664.12,-222.66C676.16,-223.42 688.39,-224.07 700,-224.5 765.73,-226.91 782.3,-227.76 848,-224.5 856.27,-224.09 864.96,-223.47 873.54,-222.74"/>
<polygon fill="#63b8ff" stroke="#63b8ff" points="873.88,-226.23 883.53,-221.85 873.26,-219.25 873.88,-226.23"/>
</a>
</g>
</g>
<!-- Node10 -->
<g id="Node000010" class="node">
<title>Node10</title>
<g id="a_Node000010"><a xlink:href="classcbrc_1_1ArgvParser.html#af4e3bd7a5c422f82280a37b17299876f" target="_top" xlink:title=" ">
<polygon fill="white" stroke="#666666" points="842,-197 706,-197 706,-178 842,-178 842,-197"/>
<text text-anchor="middle" x="774" y="-185" font-family="Helvetica,sans-Serif" font-size="10.00">cbrc::ArgvParser::getDoc</text>
</a>
</g>
</g>
<!-- Node9&#45;&gt;Node10 -->
<g id="edge9_Node000009_Node000010" class="edge">
<title>Node9&#45;&gt;Node10</title>
<g id="a_edge9_Node000009_Node000010"><a xlink:title=" ">
<path fill="none" stroke="#63b8ff" d="M643.96,-205.98C660.8,-203.57 679.03,-200.96 696.33,-198.48"/>
<polygon fill="#63b8ff" stroke="#63b8ff" points="696.99,-201.92 706.39,-197.04 696,-194.99 696.99,-201.92"/>
</a>
</g>
</g>
<!-- Node10&#45;&gt;Node4 -->
<g id="edge11_Node000010_Node000004" class="edge">
<title>Node10&#45;&gt;Node4</title>
<g id="a_edge11_Node000010_Node000004"><a xlink:title=" ">
<path fill="none" stroke="#63b8ff" d="M830.81,-197.06C844.58,-199.42 859.45,-201.96 873.61,-204.39"/>
<polygon fill="#63b8ff" stroke="#63b8ff" points="873.32,-207.89 883.77,-206.13 874.51,-200.99 873.32,-207.89"/>
</a>
</g>
</g>
<!-- Node10&#45;&gt;Node10 -->
<g id="edge10_Node000010_Node000010" class="edge">
<title>Node10&#45;&gt;Node10</title>
<g id="a_edge10_Node000010_Node000010"><a xlink:title=" ">
<path fill="none" stroke="#63b8ff" d="M748.72,-197.08C736.43,-205.73 744.85,-215 774,-215 793.13,-215 803.33,-211.01 804.61,-205.82"/>
<polygon fill="#63b8ff" stroke="#63b8ff" points="807.48,-203.79 799.28,-197.08 801.5,-207.44 807.48,-203.79"/>
</a>
</g>
</g>
<!-- Node13&#45;&gt;Node3 -->
<g id="edge18_Node000013_Node000003" class="edge">
<title>Node13&#45;&gt;Node3</title>
<g id="a_edge18_Node000013_Node000003"><a xlink:title=" ">
<path fill="none" stroke="#63b8ff" d="M221.24,-131.02C233.71,-133.71 246.91,-136.9 259,-140.5 275.45,-145.4 278.79,-148.86 295,-154.5 306.39,-158.46 318.82,-162.44 330.34,-165.99"/>
<polygon fill="#63b8ff" stroke="#63b8ff" points="329.61,-169.42 340.19,-168.98 331.64,-162.72 329.61,-169.42"/>
</a>
</g>
</g>
<!-- Node14 -->
<g id="Node000014" class="node">
<title>Node14</title>
<g id="a_Node000014"><a xlink:href="namespacecbrc.html#a94ca1678e0481b17626977da7cfb798b" target="_top" xlink:title=" ">
<polygon fill="white" stroke="#666666" points="650.5,-112 502.5,-112 502.5,-93 650.5,-93 650.5,-112"/>
<text text-anchor="middle" x="576.5" y="-100" font-family="Helvetica,sans-Serif" font-size="10.00">cbrc::_argvParserNullString</text>
</a>
</g>
</g>
<!-- Node13&#45;&gt;Node14 -->
<g id="edge17_Node000013_Node000014" class="edge">
<title>Node13&#45;&gt;Node14</title>
<g id="a_edge17_Node000013_Node000014"><a xlink:title=" ">
<path fill="none" stroke="#63b8ff" d="M240.02,-124.52C297.54,-126.24 380.61,-127.08 453,-121.5 473.47,-119.92 495.68,-116.88 515.51,-113.69"/>
<polygon fill="#63b8ff" stroke="#63b8ff" points="516.34,-117.1 525.64,-112.01 515.2,-110.19 516.34,-117.1"/>
</a>
</g>
</g>
<!-- Node15 -->
<g id="Node000015" class="node">
<title>Node15</title>
<g id="a_Node000015"><a xlink:href="classcbrc_1_1ArgvParser.html#a273ad44f1f402d2a9c31d5cb04c2a63f" target="_top" xlink:title=" ">
<polygon fill="white" stroke="#666666" points="441,-112 307,-112 307,-93 441,-93 441,-112"/>
<text text-anchor="middle" x="374" y="-100" font-family="Helvetica,sans-Serif" font-size="10.00">cbrc::ArgvParser::getArg</text>
</a>
</g>
</g>
<!-- Node13&#45;&gt;Node15 -->
<g id="edge19_Node000013_Node000015" class="edge">
<title>Node13&#45;&gt;Node15</title>
<g id="a_edge19_Node000013_Node000015"><a xlink:title=" ">
<path fill="none" stroke="#63b8ff" d="M240.06,-114.88C258.4,-113.17 278.21,-111.33 296.8,-109.6"/>
<polygon fill="#63b8ff" stroke="#63b8ff" points="297.35,-113.06 306.98,-108.65 296.7,-106.09 297.35,-113.06"/>
</a>
</g>
</g>
<!-- Node16 -->
<g id="Node000016" class="node">
<title>Node16</title>
<g id="a_Node000016"><a xlink:href="classcbrc_1_1ArgvParser.html#acfc1ef9228adb3bfe47ba9c9e68e68cd" target="_top" xlink:title=" ">
<polygon fill="white" stroke="#666666" points="441.5,-75 306.5,-75 306.5,-56 441.5,-56 441.5,-75"/>
<text text-anchor="middle" x="374" y="-63" font-family="Helvetica,sans-Serif" font-size="10.00">cbrc::ArgvParser::hasArg</text>
</a>
</g>
</g>
<!-- Node13&#45;&gt;Node16 -->
<g id="edge21_Node000013_Node000016" class="edge">
<title>Node13&#45;&gt;Node16</title>
<g id="a_edge21_Node000013_Node000016"><a xlink:title=" ">
<path fill="none" stroke="#63b8ff" d="M199.95,-111.97C225.39,-104.25 262.41,-93.25 295,-84.5 303.9,-82.11 313.4,-79.69 322.6,-77.41"/>
<polygon fill="#63b8ff" stroke="#63b8ff" points="323.55,-80.78 332.42,-75 321.88,-73.98 323.55,-80.78"/>
</a>
</g>
</g>
<!-- Node15&#45;&gt;Node14 -->
<g id="edge20_Node000015_Node000014" class="edge">
<title>Node15&#45;&gt;Node14</title>
<g id="a_edge20_Node000015_Node000014"><a xlink:title=" ">
<path fill="none" stroke="#63b8ff" d="M441.21,-102.5C457.45,-102.5 475.05,-102.5 492,-102.5"/>
<polygon fill="#63b8ff" stroke="#63b8ff" points="492.45,-106 502.45,-102.5 492.45,-99 492.45,-106"/>
</a>
</g>
</g>
<!-- Node18 -->
<g id="Node000018" class="node">
<title>Node18</title>
<g id="a_Node000018"><a xlink:href="classcbrc_1_1FLEArray.html#a3eba8d1c247ebc9ed3219dd2a3614252" target="_top" xlink:title=" ">
<polygon fill="white" stroke="#666666" points="429,-38 319,-38 319,-19 429,-19 429,-38"/>
<text text-anchor="middle" x="374" y="-26" font-family="Helvetica,sans-Serif" font-size="10.00">cbrc::FLEArray::find</text>
</a>
</g>
</g>
<!-- Node17&#45;&gt;Node18 -->
<g id="edge23_Node000017_Node000018" class="edge">
<title>Node17&#45;&gt;Node18</title>
<g id="a_edge23_Node000017_Node000018"><a xlink:title=" ">
<path fill="none" stroke="#63b8ff" d="M220.21,-56.96C247.98,-51.79 282.49,-45.36 311.68,-39.92"/>
<polygon fill="#63b8ff" stroke="#63b8ff" points="312.57,-43.32 321.76,-38.04 311.29,-36.43 312.57,-43.32"/>
</a>
</g>
</g>
<!-- Node19 -->
<g id="Node000019" class="node">
<title>Node19</title>
<g id="a_Node000019"><a xlink:href="classcbrc_1_1FLEArray.html#a985e9e85d6fc6adf9d3c52a0306361a4" target="_top" xlink:title=" ">
<polygon fill="white" stroke="#666666" points="652.5,-57 500.5,-57 500.5,-38 652.5,-38 652.5,-57"/>
<text text-anchor="middle" x="576.5" y="-45" font-family="Helvetica,sans-Serif" font-size="10.00">cbrc::FLEArray::_validRange</text>
</a>
</g>
</g>
<!-- Node18&#45;&gt;Node19 -->
<g id="edge24_Node000018_Node000019" class="edge">
<title>Node18&#45;&gt;Node19</title>
<g id="a_edge24_Node000018_Node000019"><a xlink:title=" ">
<path fill="none" stroke="#63b8ff" d="M429.26,-33.64C448.09,-35.43 469.7,-37.47 490.42,-39.44"/>
<polygon fill="#63b8ff" stroke="#63b8ff" points="490.21,-42.93 500.5,-40.39 490.87,-35.96 490.21,-42.93"/>
</a>
</g>
</g>
<!-- Node21 -->
<g id="Node000021" class="node">
<title>Node21</title>
<g id="a_Node000021"><a xlink:href="classcbrc_1_1FLEArray.html#a5368c7c0434bd5c119d2cbb39f4b399e" target="_top" xlink:title=" ">
<polygon fill="white" stroke="#666666" points="841.5,-19 706.5,-19 706.5,0 841.5,0 841.5,-19"/>
<text text-anchor="middle" x="774" y="-7" font-family="Helvetica,sans-Serif" font-size="10.00">cbrc::FLEArray::FLEArray</text>
</a>
</g>
</g>
<!-- Node18&#45;&gt;Node21 -->
<g id="edge28_Node000018_Node000021" class="edge">
<title>Node18&#45;&gt;Node21</title>
<g id="a_edge28_Node000018_Node000021"><a xlink:title=" ">
<path fill="none" stroke="#63b8ff" d="M429.09,-25.92C498.05,-22.63 617.7,-16.91 696.12,-13.17"/>
<polygon fill="#63b8ff" stroke="#63b8ff" points="696.6,-16.65 706.42,-12.68 696.26,-9.66 696.6,-16.65"/>
</a>
</g>
</g>
<!-- Node20 -->
<g id="Node000020" class="node">
<title>Node20</title>
<g id="a_Node000020"><a xlink:href="classcbrc_1_1FLEArray.html#a0a06120b85cf875ccff4081918fe0f33" target="_top" xlink:title=" ">
<polygon fill="white" stroke="#666666" points="848,-74 700,-74 700,-55 848,-55 848,-74"/>
<text text-anchor="middle" x="774" y="-62" font-family="Helvetica,sans-Serif" font-size="10.00">cbrc::FLEArray::_validIndex</text>
</a>
</g>
</g>
<!-- Node19&#45;&gt;Node20 -->
<g id="edge25_Node000019_Node000020" class="edge">
<title>Node19&#45;&gt;Node20</title>
<g id="a_edge25_Node000019_Node000020"><a xlink:title=" ">
<path fill="none" stroke="#63b8ff" d="M652.53,-54.02C664.64,-55.08 677.25,-56.17 689.55,-57.24"/>
<polygon fill="#63b8ff" stroke="#63b8ff" points="689.52,-60.75 699.79,-58.13 690.13,-53.78 689.52,-60.75"/>
</a>
</g>
</g>
<!-- Node19&#45;&gt;Node21 -->
<g id="edge26_Node000019_Node000021" class="edge">
<title>Node19&#45;&gt;Node21</title>
<g id="a_edge26_Node000019_Node000021"><a xlink:title=" ">
<path fill="none" stroke="#63b8ff" d="M626.58,-37.96C653.07,-32.81 685.97,-26.42 713.87,-20.99"/>
<polygon fill="#63b8ff" stroke="#63b8ff" points="714.75,-24.39 723.9,-19.04 713.42,-17.52 714.75,-24.39"/>
</a>
</g>
</g>
<!-- Node21&#45;&gt;Node21 -->
<g id="edge27_Node000021_Node000021" class="edge">
<title>Node21&#45;&gt;Node21</title>
<g id="a_edge27_Node000021_Node000021"><a xlink:title=" ">
<path fill="none" stroke="#63b8ff" d="M748.72,-19.08C736.43,-27.73 744.85,-37 774,-37 793.13,-37 803.33,-33.01 804.61,-27.82"/>
<polygon fill="#63b8ff" stroke="#63b8ff" points="807.48,-25.79 799.28,-19.08 801.5,-29.44 807.48,-25.79"/>
</a>
</g>
</g>
</g>
</svg>

<g id="navigator" transform="translate(0 0)" fill="#404254">
  <rect fill="#f2f5e9" fill-opacity="0.5" stroke="#606060" stroke-width=".5" x="0" y="0" width="60" height="60"/>
  <use id="zoomplus" xlink:href="#zoomPlus" x="17" y="9" onmousedown="handleZoom(evt,'in')"/>
  <use id="zoomminus" xlink:href="#zoomMin" x="42" y="9" onmousedown="handleZoom(evt,'out')"/>
  <use id="reset" xlink:href="#resetDef" x="30" y="36" onmousedown="handleReset()"/>
   <use id="arrowup" xlink:href="#arrowUp" x="0" y="0" onmousedown="handlePan(0,-1)"/>
  <use id="arrowright" xlink:href="#arrowRight" x="0" y="0" onmousedown="handlePan(1,0)"/>
  <use id="arrowdown" xlink:href="#arrowDown" x="0" y="0" onmousedown="handlePan(0,1)"/>
  <use id="arrowleft" xlink:href="#arrowLeft" x="0" y="0" onmousedown="handlePan(-1,0)"/>
</g>
<svg viewBox="0 0 15 15" width="100%" height="30px" preserveAspectRatio="xMaxYMin meet">
 <g id="arrow_out" transform="scale(0.3 0.3)">
  <a xlink:href="sprotGrepOC_8cc_ac0f2228420376f4db7e1274f2b41667c_cgraph_org.svg" target="_base">
   <rect id="button" ry="5" rx="5" y="6" x="6" height="38" width="38"
        fill="#f2f5e9" fill-opacity="0.5" stroke="#606060" stroke-width="1.0"/>
   <path id="arrow"
     d="M 11.500037,31.436501 C 11.940474,20.09759 22.043105,11.32322 32.158766,21.979434 L 37.068811,17.246167 C 37.068811,17.246167 37.088388,32 37.088388,32 L 22.160133,31.978069 C 22.160133,31.978069 26.997745,27.140456 26.997745,27.140456 C 18.528582,18.264221 13.291696,25.230495 11.500037,31.436501 z"
     style="fill:#404040;"/>
  </a>
 </g>
</svg>

<style type='text/css'>
<![CDATA[
[data-mouse-over-selected='false'] { opacity: 0.7; }
[data-mouse-over-selected='true']  { opacity: 1.0; }
]]>
</style>
<script type="application/ecmascript"><![CDATA[
document.addEventListener('DOMContentLoaded', (event) => {
  highlightEdges();
  highlightAdjacentNodes();
});
]]></script>
</svg>
