<?xml version="1.0" encoding="UTF-8" standalone="no"?>
<!DOCTYPE svg PUBLIC "-//W3C//DTD SVG 1.1//EN"
 "http://www.w3.org/Graphics/SVG/1.1/DTD/svg11.dtd">
<!-- Generated by graphviz version 2.43.0 (0)
 -->
<!-- Title: ematch_src/utils/stl/stlUtils.hh Pages: 1 -->
<!--zoomable 181 -->

<svg id="main" version="1.1" xmlns="http://www.w3.org/2000/svg" xmlns:xlink="http://www.w3.org/1999/xlink" xml:space="preserve" onload="init(evt)">
<style type="text/css"><![CDATA[
.node, .edge {opacity: 0.7;}
.node.selected, .edge.selected {opacity: 1;}
.edge:hover path { stroke: red; }
.edge:hover polygon { stroke: red; fill: red; }
]]></style>

<defs>
  <circle id="rim" cx="0" cy="0" r="7"/>
  <circle id="rim2" cx="0" cy="0" r="3.5"/>
  <g id="zoomPlus">
    <use xlink:href="#rim" fill="#404040"><set attributeName="fill" to="#808080" begin="zoomplus.mouseover" end="zoomplus.mouseout"/></use>
    <path d="M-4,0h8M0,-4v8" fill="none" stroke="white" stroke-width="1.5" pointer-events="none"/>
  </g>
  <g id="zoomMin">
    <use xlink:href="#rim" fill="#404040"><set attributeName="fill" to="#808080" begin="zoomminus.mouseover" end="zoomminus.mouseout"/></use>
    <path d="M-4,0h8" fill="none" stroke="white" stroke-width="1.5" pointer-events="none"/>
  </g>
  <g id="arrowUp" transform="translate(30 24)">
    <use xlink:href="#rim"/>
    <path pointer-events="none" fill="none" stroke="white" stroke-width="1.5" d="M0,-3.0v7 M-2.5,-0.5L0,-3.0L2.5,-0.5"/>
  </g>
  <g id="arrowRight" transform="rotate(90) translate(36 -43)">
    <use xlink:href="#rim"/>
    <path pointer-events="none" fill="none" stroke="white" stroke-width="1.5" d="M0,-3.0v7 M-2.5,-0.5L0,-3.0L2.5,-0.5"/>
  </g>
  <g id="arrowDown" transform="rotate(180) translate(-30 -48)">
    <use xlink:href="#rim"/>
    <path pointer-events="none" fill="none" stroke="white" stroke-width="1.5" d="M0,-3.0v7 M-2.5,-0.5L0,-3.0L2.5,-0.5"/>
  </g>
  <g id="arrowLeft" transform="rotate(270) translate(-36 17)">
    <use xlink:href="#rim"/>
    <path pointer-events="none" fill="none" stroke="white" stroke-width="1.5" d="M0,-3.0v7 M-2.5,-0.5L0,-3.0L2.5,-0.5"/>
  </g>
  <g id="resetDef">
    <use xlink:href="#rim2" fill="#404040"><set attributeName="fill" to="#808080" begin="reset.mouseover" end="reset.mouseout"/></use>
  </g>
</defs>
<script type="application/ecmascript">
var viewWidth = 944;
var viewHeight = 181;
var sectionId = 'dynsection-1';
</script>
<script type="application/ecmascript" xlink:href="svg.min.js"/>
<svg id="graph" class="graph">
<g id="viewport">
<title>ematch_src/utils/stl/stlUtils.hh</title>
<!-- Node1 -->
<g id="Node000001" class="node">
<title>Node1</title>
<g id="a_Node000001"><a xlink:title=" ">
<polygon fill="#999999" stroke="#666666" points="515,-173 403,-173 403,-143 515,-143 515,-173"/>
<text text-anchor="start" x="411" y="-161" font-family="Helvetica,sans-Serif" font-size="10.00">ematch_src/utils/stl</text>
<text text-anchor="middle" x="459" y="-150" font-family="Helvetica,sans-Serif" font-size="10.00">/stlUtils.hh</text>
</a>
</g>
</g>
<!-- Node2 -->
<g id="Node000002" class="node">
<title>Node2</title>
<g id="a_Node000002"><a xlink:href="RecountNeighborProbGraphWriter_8cc.html" target="_top" xlink:title=" ">
<polygon fill="white" stroke="#666666" points="160,-107 0,-107 0,-77 160,-77 160,-107"/>
<text text-anchor="start" x="8" y="-95" font-family="Helvetica,sans-Serif" font-size="10.00">ematch_src/RecountNeighbor</text>
<text text-anchor="middle" x="80" y="-84" font-family="Helvetica,sans-Serif" font-size="10.00">ProbGraphWriter.cc</text>
</a>
</g>
</g>
<!-- Node1&#45;&gt;Node2 -->
<g id="edge1_Node000001_Node000002" class="edge">
<title>Node1&#45;&gt;Node2</title>
<g id="a_edge1_Node000001_Node000002"><a xlink:title=" ">
<path fill="none" stroke="#63b8ff" d="M392.57,-145.78C327.8,-134.85 229.23,-118.2 160.14,-106.53"/>
<polygon fill="#63b8ff" stroke="#63b8ff" points="392.23,-149.27 402.67,-147.49 393.39,-142.37 392.23,-149.27"/>
</a>
</g>
</g>
<!-- Node3 -->
<g id="Node000003" class="node">
<title>Node3</title>
<g id="a_Node000003"><a xlink:href="RecountNeighborProbGraphWriter__SortedTagSet_8cc.html" target="_top" xlink:title=" ">
<polygon fill="white" stroke="#666666" points="358,-107 178,-107 178,-77 358,-77 358,-107"/>
<text text-anchor="start" x="186" y="-95" font-family="Helvetica,sans-Serif" font-size="10.00">ematch_src/RecountNeighbor</text>
<text text-anchor="middle" x="268" y="-84" font-family="Helvetica,sans-Serif" font-size="10.00">ProbGraphWriter_SortedTagSet.cc</text>
</a>
</g>
</g>
<!-- Node1&#45;&gt;Node3 -->
<g id="edge2_Node000001_Node000003" class="edge">
<title>Node1&#45;&gt;Node3</title>
<g id="a_edge2_Node000001_Node000003"><a xlink:title=" ">
<path fill="none" stroke="#63b8ff" d="M407.44,-139.72C376.84,-129.47 338.53,-116.63 309.82,-107.01"/>
<polygon fill="#63b8ff" stroke="#63b8ff" points="406.49,-143.1 417.08,-142.95 408.71,-136.46 406.49,-143.1"/>
</a>
</g>
</g>
<!-- Node4 -->
<g id="Node000004" class="node">
<title>Node4</title>
<g id="a_Node000004"><a xlink:href="Sigma4FLArray_8cc.html" target="_top" xlink:title=" ">
<polygon fill="white" stroke="#666666" points="542,-107 376,-107 376,-77 542,-77 542,-107"/>
<text text-anchor="start" x="384" y="-95" font-family="Helvetica,sans-Serif" font-size="10.00">ematch_src/utils/sequence</text>
<text text-anchor="middle" x="459" y="-84" font-family="Helvetica,sans-Serif" font-size="10.00">/packedDNA/Sigma4FLArray.cc</text>
</a>
</g>
</g>
<!-- Node1&#45;&gt;Node4 -->
<g id="edge3_Node000001_Node000004" class="edge">
<title>Node1&#45;&gt;Node4</title>
<g id="a_edge3_Node000001_Node000004"><a xlink:title=" ">
<path fill="none" stroke="#63b8ff" d="M459,-132.54C459,-123.96 459,-114.61 459,-107.16"/>
<polygon fill="#63b8ff" stroke="#63b8ff" points="455.5,-132.8 459,-142.8 462.5,-132.8 455.5,-132.8"/>
</a>
</g>
</g>
<!-- Node5 -->
<g id="Node000005" class="node">
<title>Node5</title>
<g id="a_Node000005"><a xlink:href="BlastEValuesByClass_8hh.html" target="_top" xlink:title=" ">
<polygon fill="white" stroke="#666666" points="736,-107 560,-107 560,-77 736,-77 736,-107"/>
<text text-anchor="start" x="568" y="-95" font-family="Helvetica,sans-Serif" font-size="10.00">ematch_src/utils/sequence</text>
<text text-anchor="middle" x="648" y="-84" font-family="Helvetica,sans-Serif" font-size="10.00">/readers/BlastEValuesByClass.hh</text>
</a>
</g>
</g>
<!-- Node1&#45;&gt;Node5 -->
<g id="edge4_Node000001_Node000005" class="edge">
<title>Node1&#45;&gt;Node5</title>
<g id="a_edge4_Node000001_Node000005"><a xlink:title=" ">
<path fill="none" stroke="#63b8ff" d="M510.02,-139.72C540.3,-129.47 578.21,-116.63 606.62,-107.01"/>
<polygon fill="#63b8ff" stroke="#63b8ff" points="508.83,-136.43 500.48,-142.95 511.07,-143.06 508.83,-136.43"/>
</a>
</g>
</g>
<!-- Node8 -->
<g id="Node000008" class="node">
<title>Node8</title>
<g id="a_Node000008"><a xlink:href="runDumpBlastNNUtility_8cc.html" target="_top" xlink:title=" ">
<polygon fill="white" stroke="#666666" points="935.5,-35.5 730.5,-35.5 730.5,-5.5 935.5,-5.5 935.5,-35.5"/>
<text text-anchor="start" x="738.5" y="-23.5" font-family="Helvetica,sans-Serif" font-size="10.00">ematch_src/utils/sequence</text>
<text text-anchor="middle" x="833" y="-12.5" font-family="Helvetica,sans-Serif" font-size="10.00">/readers/run/runDumpBlastNNUtility.cc</text>
</a>
</g>
</g>
<!-- Node1&#45;&gt;Node8 -->
<g id="edge8_Node000001_Node000008" class="edge">
<title>Node1&#45;&gt;Node8</title>
<g id="a_edge8_Node000001_Node000008"><a xlink:title=" ">
<path fill="none" stroke="#63b8ff" d="M525.17,-156.37C585.49,-153.33 675.51,-142.48 745,-107 778.77,-89.76 808.12,-55.16 822.88,-35.67"/>
<polygon fill="#63b8ff" stroke="#63b8ff" points="524.85,-152.88 515.01,-156.82 525.16,-159.87 524.85,-152.88"/>
</a>
</g>
</g>
<!-- Node6 -->
<g id="Node000006" class="node">
<title>Node6</title>
<g id="a_Node000006"><a xlink:href="BlastEValuesByClass_8cc.html" target="_top" xlink:title=" ">
<polygon fill="white" stroke="#666666" points="519.5,-35.5 344.5,-35.5 344.5,-5.5 519.5,-5.5 519.5,-35.5"/>
<text text-anchor="start" x="352.5" y="-23.5" font-family="Helvetica,sans-Serif" font-size="10.00">ematch_src/utils/sequence</text>
<text text-anchor="middle" x="432" y="-12.5" font-family="Helvetica,sans-Serif" font-size="10.00">/readers/BlastEValuesByClass.cc</text>
</a>
</g>
</g>
<!-- Node5&#45;&gt;Node6 -->
<g id="edge5_Node000005_Node000006" class="edge">
<title>Node5&#45;&gt;Node6</title>
<g id="a_edge5_Node000005_Node000006"><a xlink:title=" ">
<path fill="none" stroke="#63b8ff" d="M594.76,-73.87C558.11,-62.08 510.03,-46.61 475.65,-35.54"/>
<polygon fill="#63b8ff" stroke="#63b8ff" points="593.7,-77.2 604.29,-76.94 595.84,-70.54 593.7,-77.2"/>
</a>
</g>
</g>
<!-- Node7 -->
<g id="Node000007" class="node">
<title>Node7</title>
<g id="a_Node000007"><a xlink:href="labeledBlastToOddsRatio_8cc.html" target="_top" xlink:title=" ">
<polygon fill="white" stroke="#666666" points="712,-41 538,-41 538,0 712,0 712,-41"/>
<text text-anchor="start" x="546" y="-29" font-family="Helvetica,sans-Serif" font-size="10.00">ematch_src/utils/sequence</text>
<text text-anchor="start" x="546" y="-18" font-family="Helvetica,sans-Serif" font-size="10.00">/readers/run/labeledBlastToOdds</text>
<text text-anchor="middle" x="625" y="-7" font-family="Helvetica,sans-Serif" font-size="10.00">Ratio.cc</text>
</a>
</g>
</g>
<!-- Node5&#45;&gt;Node7 -->
<g id="edge6_Node000005_Node000007" class="edge">
<title>Node5&#45;&gt;Node7</title>
<g id="a_edge6_Node000005_Node000007"><a xlink:title=" ">
<path fill="none" stroke="#63b8ff" d="M640.12,-67.19C637.3,-58.68 634.16,-49.19 631.48,-41.07"/>
<polygon fill="#63b8ff" stroke="#63b8ff" points="636.88,-68.54 643.35,-76.94 643.53,-66.34 636.88,-68.54"/>
</a>
</g>
</g>
<!-- Node5&#45;&gt;Node8 -->
<g id="edge7_Node000005_Node000008" class="edge">
<title>Node5&#45;&gt;Node8</title>
<g id="a_edge7_Node000005_Node000008"><a xlink:title=" ">
<path fill="none" stroke="#63b8ff" d="M694.81,-73.42C726.04,-61.68 766.55,-46.47 795.62,-35.54"/>
<polygon fill="#63b8ff" stroke="#63b8ff" points="693.57,-70.14 685.44,-76.94 696.03,-76.7 693.57,-70.14"/>
</a>
</g>
</g>
</g>
</svg>

<g id="navigator" transform="translate(0 0)" fill="#404254">
  <rect fill="#f2f5e9" fill-opacity="0.5" stroke="#606060" stroke-width=".5" x="0" y="0" width="60" height="60"/>
  <use id="zoomplus" xlink:href="#zoomPlus" x="17" y="9" onmousedown="handleZoom(evt,'in')"/>
  <use id="zoomminus" xlink:href="#zoomMin" x="42" y="9" onmousedown="handleZoom(evt,'out')"/>
  <use id="reset" xlink:href="#resetDef" x="30" y="36" onmousedown="handleReset()"/>
   <use id="arrowup" xlink:href="#arrowUp" x="0" y="0" onmousedown="handlePan(0,-1)"/>
  <use id="arrowright" xlink:href="#arrowRight" x="0" y="0" onmousedown="handlePan(1,0)"/>
  <use id="arrowdown" xlink:href="#arrowDown" x="0" y="0" onmousedown="handlePan(0,1)"/>
  <use id="arrowleft" xlink:href="#arrowLeft" x="0" y="0" onmousedown="handlePan(-1,0)"/>
</g>
<svg viewBox="0 0 15 15" width="100%" height="30px" preserveAspectRatio="xMaxYMin meet">
 <g id="arrow_out" transform="scale(0.3 0.3)">
  <a xlink:href="stlUtils_8hh__dep__incl_org.svg" target="_base">
   <rect id="button" ry="5" rx="5" y="6" x="6" height="38" width="38"
        fill="#f2f5e9" fill-opacity="0.5" stroke="#606060" stroke-width="1.0"/>
   <path id="arrow"
     d="M 11.500037,31.436501 C 11.940474,20.09759 22.043105,11.32322 32.158766,21.979434 L 37.068811,17.246167 C 37.068811,17.246167 37.088388,32 37.088388,32 L 22.160133,31.978069 C 22.160133,31.978069 26.997745,27.140456 26.997745,27.140456 C 18.528582,18.264221 13.291696,25.230495 11.500037,31.436501 z"
     style="fill:#404040;"/>
  </a>
 </g>
</svg>

<style type='text/css'>
<![CDATA[
[data-mouse-over-selected='false'] { opacity: 0.7; }
[data-mouse-over-selected='true']  { opacity: 1.0; }
]]>
</style>
<script type="application/ecmascript"><![CDATA[
document.addEventListener('DOMContentLoaded', (event) => {
  highlightEdges();
  highlightAdjacentNodes();
});
]]></script>
</svg>
