<?xml version="1.0" encoding="UTF-8" standalone="no"?>
<!DOCTYPE svg PUBLIC "-//W3C//DTD SVG 1.1//EN"
 "http://www.w3.org/Graphics/SVG/1.1/DTD/svg11.dtd">
<!-- Generated by graphviz version 2.43.0 (0)
 -->
<!-- Title: ematch_src/utils/stl/stringUtils.hh Pages: 1 -->
<!--zoomable 324 -->

<svg id="main" version="1.1" xmlns="http://www.w3.org/2000/svg" xmlns:xlink="http://www.w3.org/1999/xlink" xml:space="preserve" onload="init(evt)">
<style type="text/css"><![CDATA[
.node, .edge {opacity: 0.7;}
.node.selected, .edge.selected {opacity: 1;}
.edge:hover path { stroke: red; }
.edge:hover polygon { stroke: red; fill: red; }
]]></style>

<defs>
  <circle id="rim" cx="0" cy="0" r="7"/>
  <circle id="rim2" cx="0" cy="0" r="3.5"/>
  <g id="zoomPlus">
    <use xlink:href="#rim" fill="#404040"><set attributeName="fill" to="#808080" begin="zoomplus.mouseover" end="zoomplus.mouseout"/></use>
    <path d="M-4,0h8M0,-4v8" fill="none" stroke="white" stroke-width="1.5" pointer-events="none"/>
  </g>
  <g id="zoomMin">
    <use xlink:href="#rim" fill="#404040"><set attributeName="fill" to="#808080" begin="zoomminus.mouseover" end="zoomminus.mouseout"/></use>
    <path d="M-4,0h8" fill="none" stroke="white" stroke-width="1.5" pointer-events="none"/>
  </g>
  <g id="arrowUp" transform="translate(30 24)">
    <use xlink:href="#rim"/>
    <path pointer-events="none" fill="none" stroke="white" stroke-width="1.5" d="M0,-3.0v7 M-2.5,-0.5L0,-3.0L2.5,-0.5"/>
  </g>
  <g id="arrowRight" transform="rotate(90) translate(36 -43)">
    <use xlink:href="#rim"/>
    <path pointer-events="none" fill="none" stroke="white" stroke-width="1.5" d="M0,-3.0v7 M-2.5,-0.5L0,-3.0L2.5,-0.5"/>
  </g>
  <g id="arrowDown" transform="rotate(180) translate(-30 -48)">
    <use xlink:href="#rim"/>
    <path pointer-events="none" fill="none" stroke="white" stroke-width="1.5" d="M0,-3.0v7 M-2.5,-0.5L0,-3.0L2.5,-0.5"/>
  </g>
  <g id="arrowLeft" transform="rotate(270) translate(-36 17)">
    <use xlink:href="#rim"/>
    <path pointer-events="none" fill="none" stroke="white" stroke-width="1.5" d="M0,-3.0v7 M-2.5,-0.5L0,-3.0L2.5,-0.5"/>
  </g>
  <g id="resetDef">
    <use xlink:href="#rim2" fill="#404040"><set attributeName="fill" to="#808080" begin="reset.mouseover" end="reset.mouseout"/></use>
  </g>
</defs>
<script type="application/ecmascript">
var viewWidth = 3567;
var viewHeight = 324;
var sectionId = 'dynsection-1';
</script>
<script type="application/ecmascript" xlink:href="svg.min.js"/>
<svg id="graph" class="graph">
<g id="viewport">
<title>ematch_src/utils/stl/stringUtils.hh</title>
<!-- Node1 -->
<g id="Node000001" class="node">
<title>Node1</title>
<g id="a_Node000001"><a xlink:title=" ">
<polygon fill="#999999" stroke="#666666" points="2316.5,-316 2204.5,-316 2204.5,-286 2316.5,-286 2316.5,-316"/>
<text text-anchor="start" x="2212.5" y="-304" font-family="Helvetica,sans-Serif" font-size="10.00">ematch_src/utils/stl</text>
<text text-anchor="middle" x="2260.5" y="-293" font-family="Helvetica,sans-Serif" font-size="10.00">/stringUtils.hh</text>
</a>
</g>
</g>
<!-- Node2 -->
<g id="Node000002" class="node">
<title>Node2</title>
<g id="a_Node000002"><a xlink:href="LabeledAsciiSeq_8hh.html" target="_top" xlink:title=" ">
<polygon fill="white" stroke="#666666" points="745.5,-184 599.5,-184 599.5,-154 745.5,-154 745.5,-184"/>
<text text-anchor="start" x="607.5" y="-172" font-family="Helvetica,sans-Serif" font-size="10.00">ematch_src/utils/sequence</text>
<text text-anchor="middle" x="672.5" y="-161" font-family="Helvetica,sans-Serif" font-size="10.00">/LabeledAsciiSeq.hh</text>
</a>
</g>
</g>
<!-- Node1&#45;&gt;Node2 -->
<g id="edge1_Node000001_Node000002" class="edge">
<title>Node1&#45;&gt;Node2</title>
<g id="a_edge1_Node000001_Node000002"><a xlink:title=" ">
<path fill="none" stroke="#63b8ff" d="M2194.18,-294.57C1937.88,-273.59 1013.14,-197.89 745.53,-175.98"/>
<polygon fill="#63b8ff" stroke="#63b8ff" points="2194.2,-298.08 2204.45,-295.41 2194.77,-291.11 2194.2,-298.08"/>
</a>
</g>
</g>
<!-- Node24 -->
<g id="Node000024" class="node">
<title>Node24</title>
<g id="a_Node000024"><a xlink:href="FastaInputOptions_8hh.html" target="_top" xlink:title=" ">
<polygon fill="white" stroke="#666666" points="2478.5,-250 2288.5,-250 2288.5,-220 2478.5,-220 2478.5,-250"/>
<text text-anchor="start" x="2296.5" y="-238" font-family="Helvetica,sans-Serif" font-size="10.00">ematch_src/utils/sequence</text>
<text text-anchor="middle" x="2383.5" y="-227" font-family="Helvetica,sans-Serif" font-size="10.00">/readers/fasta/FastaInputOptions.hh</text>
</a>
</g>
</g>
<!-- Node1&#45;&gt;Node24 -->
<g id="edge25_Node000001_Node000024" class="edge">
<title>Node1&#45;&gt;Node24</title>
<g id="a_edge25_Node000001_Node000024"><a xlink:title=" ">
<path fill="none" stroke="#63b8ff" d="M2296.55,-281.24C2315.75,-271.25 2338.96,-259.18 2356.57,-250.01"/>
<polygon fill="#63b8ff" stroke="#63b8ff" points="2294.75,-278.23 2287.49,-285.95 2297.98,-284.44 2294.75,-278.23"/>
</a>
</g>
</g>
<!-- Node27 -->
<g id="Node000027" class="node">
<title>Node27</title>
<g id="a_Node000027"><a xlink:href="FastaRecordReader_8hh.html" target="_top" xlink:title=" ">
<polygon fill="white" stroke="#666666" points="2420,-184 2225,-184 2225,-154 2420,-154 2420,-184"/>
<text text-anchor="start" x="2233" y="-172" font-family="Helvetica,sans-Serif" font-size="10.00">ematch_src/utils/sequence</text>
<text text-anchor="middle" x="2322.5" y="-161" font-family="Helvetica,sans-Serif" font-size="10.00">/readers/fasta/FastaRecordReader.hh</text>
</a>
</g>
</g>
<!-- Node1&#45;&gt;Node27 -->
<g id="edge39_Node000001_Node000027" class="edge">
<title>Node1&#45;&gt;Node27</title>
<g id="a_edge39_Node000001_Node000027"><a xlink:title=" ">
<path fill="none" stroke="#63b8ff" d="M2263.19,-275.8C2265.74,-259.36 2270.56,-237.52 2279.5,-220 2286.37,-206.54 2297.59,-193.66 2306.84,-184.35"/>
<polygon fill="#63b8ff" stroke="#63b8ff" points="2259.72,-275.33 2261.83,-285.71 2266.66,-276.28 2259.72,-275.33"/>
</a>
</g>
</g>
<!-- Node3 -->
<g id="Node000003" class="node">
<title>Node3</title>
<g id="a_Node000003"><a xlink:href="adjacentCloseHamming_8cc.html" target="_top" xlink:title=" ">
<polygon fill="white" stroke="#666666" points="1263.5,-112.5 1067.5,-112.5 1067.5,-82.5 1263.5,-82.5 1263.5,-112.5"/>
<text text-anchor="start" x="1075.5" y="-100.5" font-family="Helvetica,sans-Serif" font-size="10.00">ematch_src/utils/sequence</text>
<text text-anchor="middle" x="1165.5" y="-89.5" font-family="Helvetica,sans-Serif" font-size="10.00">/align/run/adjacentCloseHamming.cc</text>
</a>
</g>
</g>
<!-- Node2&#45;&gt;Node3 -->
<g id="edge2_Node000002_Node000003" class="edge">
<title>Node2&#45;&gt;Node3</title>
<g id="a_edge2_Node000002_Node000003"><a xlink:title=" ">
<path fill="none" stroke="#63b8ff" d="M755.5,-156.3C841.6,-144.16 976.18,-125.19 1067.46,-112.32"/>
<polygon fill="#63b8ff" stroke="#63b8ff" points="754.92,-152.85 745.51,-157.71 755.9,-159.78 754.92,-152.85"/>
</a>
</g>
</g>
<!-- Node4 -->
<g id="Node000004" class="node">
<title>Node4</title>
<g id="a_Node000004"><a xlink:href="FastaSeqSlurper_8hh.html" target="_top" xlink:title=" ">
<polygon fill="white" stroke="#666666" points="1708,-112.5 1529,-112.5 1529,-82.5 1708,-82.5 1708,-112.5"/>
<text text-anchor="start" x="1537" y="-100.5" font-family="Helvetica,sans-Serif" font-size="10.00">ematch_src/utils/sequence</text>
<text text-anchor="middle" x="1618.5" y="-89.5" font-family="Helvetica,sans-Serif" font-size="10.00">/readers/fasta/FastaSeqSlurper.hh</text>
</a>
</g>
</g>
<!-- Node2&#45;&gt;Node4 -->
<g id="edge3_Node000002_Node000004" class="edge">
<title>Node2&#45;&gt;Node4</title>
<g id="a_edge3_Node000002_Node000004"><a xlink:title=" ">
<path fill="none" stroke="#63b8ff" d="M755.59,-161.9C932.65,-148.89 1345.83,-118.53 1528.69,-105.1"/>
<polygon fill="#63b8ff" stroke="#63b8ff" points="755.27,-158.41 745.55,-162.63 755.78,-165.39 755.27,-158.41"/>
</a>
</g>
</g>
<!-- Node20 -->
<g id="Node000020" class="node">
<title>Node20</title>
<g id="a_Node000020"><a xlink:href="sortFastaByLength_8cc.html" target="_top" xlink:title=" ">
<polygon fill="white" stroke="#666666" points="507,-41 344,-41 344,0 507,0 507,-41"/>
<text text-anchor="start" x="352" y="-29" font-family="Helvetica,sans-Serif" font-size="10.00">ematch_src/utils/sequence</text>
<text text-anchor="start" x="352" y="-18" font-family="Helvetica,sans-Serif" font-size="10.00">/readers/fasta/run/sortFastaBy</text>
<text text-anchor="middle" x="425.5" y="-7" font-family="Helvetica,sans-Serif" font-size="10.00">Length.cc</text>
</a>
</g>
</g>
<!-- Node2&#45;&gt;Node20 -->
<g id="edge23_Node000002_Node000020" class="edge">
<title>Node2&#45;&gt;Node20</title>
<g id="a_edge23_Node000002_Node000020"><a xlink:title=" ">
<path fill="none" stroke="#63b8ff" d="M639.93,-148.68C592.74,-120.69 505.82,-69.14 458.43,-41.03"/>
<polygon fill="#63b8ff" stroke="#63b8ff" points="638.43,-151.86 648.82,-153.95 642,-145.84 638.43,-151.86"/>
</a>
</g>
</g>
<!-- Node21 -->
<g id="Node000021" class="node">
<title>Node21</title>
<g id="a_Node000021"><a xlink:href="FastaWriter_8hh.html" target="_top" xlink:title=" ">
<polygon fill="white" stroke="#666666" points="328,-112.5 171,-112.5 171,-82.5 328,-82.5 328,-112.5"/>
<text text-anchor="start" x="179" y="-100.5" font-family="Helvetica,sans-Serif" font-size="10.00">ematch_src/utils/sequence</text>
<text text-anchor="middle" x="249.5" y="-89.5" font-family="Helvetica,sans-Serif" font-size="10.00">/readers/fasta/FastaWriter.hh</text>
</a>
</g>
</g>
<!-- Node2&#45;&gt;Node21 -->
<g id="edge20_Node000002_Node000021" class="edge">
<title>Node2&#45;&gt;Node21</title>
<g id="a_edge20_Node000002_Node000021"><a xlink:title=" ">
<path fill="none" stroke="#63b8ff" d="M589.26,-155.28C525.71,-145.45 436.01,-131.32 357.5,-118 347.36,-116.28 336.69,-114.42 326.16,-112.55"/>
<polygon fill="#63b8ff" stroke="#63b8ff" points="588.81,-158.75 599.23,-156.82 589.88,-151.83 588.81,-158.75"/>
</a>
</g>
</g>
<!-- Node23 -->
<g id="Node000023" class="node">
<title>Node23</title>
<g id="a_Node000023"><a xlink:href="sprotToFasta_8cc.html" target="_top" xlink:title=" ">
<polygon fill="white" stroke="#666666" points="325.5,-35.5 173.5,-35.5 173.5,-5.5 325.5,-5.5 325.5,-35.5"/>
<text text-anchor="start" x="181.5" y="-23.5" font-family="Helvetica,sans-Serif" font-size="10.00">ematch_src/utils/sequence</text>
<text text-anchor="middle" x="249.5" y="-12.5" font-family="Helvetica,sans-Serif" font-size="10.00">/readers/run/sprotToFasta.cc</text>
</a>
</g>
</g>
<!-- Node2&#45;&gt;Node23 -->
<g id="edge24_Node000002_Node000023" class="edge">
<title>Node2&#45;&gt;Node23</title>
<g id="a_edge24_Node000002_Node000023"><a xlink:title=" ">
<path fill="none" stroke="#63b8ff" d="M616.76,-150.84C586.68,-141.43 548.95,-129.39 515.5,-118 433.42,-90.05 338.08,-54.77 286.78,-35.55"/>
<polygon fill="#63b8ff" stroke="#63b8ff" points="616.07,-154.29 626.66,-153.93 618.15,-147.61 616.07,-154.29"/>
</a>
</g>
</g>
<!-- Node5 -->
<g id="Node000005" class="node">
<title>Node5</title>
<g id="a_Node000005"><a xlink:href="allPairsHammingNeighbors_8cc.html" target="_top" xlink:title=" ">
<polygon fill="white" stroke="#666666" points="1948.5,-35.5 1736.5,-35.5 1736.5,-5.5 1948.5,-5.5 1948.5,-35.5"/>
<text text-anchor="start" x="1744.5" y="-23.5" font-family="Helvetica,sans-Serif" font-size="10.00">ematch_src/utils/sequence</text>
<text text-anchor="middle" x="1842.5" y="-12.5" font-family="Helvetica,sans-Serif" font-size="10.00">/align/run/allPairsHammingNeighbors.cc</text>
</a>
</g>
</g>
<!-- Node4&#45;&gt;Node5 -->
<g id="edge4_Node000004_Node000005" class="edge">
<title>Node4&#45;&gt;Node5</title>
<g id="a_edge4_Node000004_Node000005"><a xlink:title=" ">
<path fill="none" stroke="#63b8ff" d="M1670.1,-79.22C1709.64,-65.99 1763.51,-47.95 1800.46,-35.58"/>
<polygon fill="#63b8ff" stroke="#63b8ff" points="1668.74,-75.99 1660.37,-82.48 1670.96,-82.62 1668.74,-75.99"/>
</a>
</g>
</g>
<!-- Node6 -->
<g id="Node000006" class="node">
<title>Node6</title>
<g id="a_Node000006"><a xlink:href="allPairsNearestGlobalAffineScore_8cc.html" target="_top" xlink:title=" ">
<polygon fill="white" stroke="#666666" points="2136.5,-41 1966.5,-41 1966.5,0 2136.5,0 2136.5,-41"/>
<text text-anchor="start" x="1974.5" y="-29" font-family="Helvetica,sans-Serif" font-size="10.00">ematch_src/utils/sequence</text>
<text text-anchor="start" x="1974.5" y="-18" font-family="Helvetica,sans-Serif" font-size="10.00">/align/run/allPairsNearestGlobal</text>
<text text-anchor="middle" x="2051.5" y="-7" font-family="Helvetica,sans-Serif" font-size="10.00">AffineScore.cc</text>
</a>
</g>
</g>
<!-- Node4&#45;&gt;Node6 -->
<g id="edge5_Node000004_Node000006" class="edge">
<title>Node4&#45;&gt;Node6</title>
<g id="a_edge5_Node000004_Node000006"><a xlink:title=" ">
<path fill="none" stroke="#63b8ff" d="M1697.54,-80.6C1704.28,-79.34 1711.01,-78.13 1717.5,-77 1823.77,-58.57 1851.32,-59.96 1957.5,-41 1960.45,-40.47 1963.46,-39.92 1966.49,-39.36"/>
<polygon fill="#63b8ff" stroke="#63b8ff" points="1696.84,-77.17 1687.66,-82.46 1698.14,-84.05 1696.84,-77.17"/>
</a>
</g>
</g>
<!-- Node7 -->
<g id="Node000007" class="node">
<title>Node7</title>
<g id="a_Node000007"><a xlink:href="clusterByIdentity_8cc.html" target="_top" xlink:title=" ">
<polygon fill="white" stroke="#666666" points="2316,-35.5 2155,-35.5 2155,-5.5 2316,-5.5 2316,-35.5"/>
<text text-anchor="start" x="2163" y="-23.5" font-family="Helvetica,sans-Serif" font-size="10.00">ematch_src/utils/sequence</text>
<text text-anchor="middle" x="2235.5" y="-12.5" font-family="Helvetica,sans-Serif" font-size="10.00">/align/run/clusterByIdentity.cc</text>
</a>
</g>
</g>
<!-- Node4&#45;&gt;Node7 -->
<g id="edge6_Node000004_Node000007" class="edge">
<title>Node4&#45;&gt;Node7</title>
<g id="a_edge6_Node000004_Node000007"><a xlink:title=" ">
<path fill="none" stroke="#63b8ff" d="M1694.25,-80.69C1702.08,-79.32 1709.94,-78.06 1717.5,-77 1906.55,-50.51 1956.71,-69.27 2145.5,-41 2155.3,-39.53 2165.64,-37.63 2175.67,-35.59"/>
<polygon fill="#63b8ff" stroke="#63b8ff" points="1693.58,-77.26 1684.36,-82.47 1694.82,-84.14 1693.58,-77.26"/>
</a>
</g>
</g>
<!-- Node8 -->
<g id="Node000008" class="node">
<title>Node8</title>
<g id="a_Node000008"><a xlink:href="computeAllPairsIdentity_8cc.html" target="_top" xlink:title=" ">
<polygon fill="white" stroke="#666666" points="2528.5,-35.5 2334.5,-35.5 2334.5,-5.5 2528.5,-5.5 2528.5,-35.5"/>
<text text-anchor="start" x="2342.5" y="-23.5" font-family="Helvetica,sans-Serif" font-size="10.00">ematch_src/utils/sequence</text>
<text text-anchor="middle" x="2431.5" y="-12.5" font-family="Helvetica,sans-Serif" font-size="10.00">/align/run/computeAllPairsIdentity.cc</text>
</a>
</g>
</g>
<!-- Node4&#45;&gt;Node8 -->
<g id="edge7_Node000004_Node000008" class="edge">
<title>Node4&#45;&gt;Node8</title>
<g id="a_edge7_Node000004_Node000008"><a xlink:title=" ">
<path fill="none" stroke="#63b8ff" d="M1693,-80.71C1701.24,-79.29 1709.53,-78.02 1717.5,-77 1986.02,-42.76 2056.77,-73.55 2325.5,-41 2337.39,-39.56 2349.96,-37.62 2362.12,-35.52"/>
<polygon fill="#63b8ff" stroke="#63b8ff" points="1692.23,-77.29 1683,-82.49 1693.46,-84.18 1692.23,-77.29"/>
</a>
</g>
</g>
<!-- Node9 -->
<g id="Node000009" class="node">
<title>Node9</title>
<g id="a_Node000009"><a xlink:href="computeGlobalAffineIdentity_8cc.html" target="_top" xlink:title=" ">
<polygon fill="white" stroke="#666666" points="2714.5,-41 2546.5,-41 2546.5,0 2714.5,0 2714.5,-41"/>
<text text-anchor="start" x="2554.5" y="-29" font-family="Helvetica,sans-Serif" font-size="10.00">ematch_src/utils/sequence</text>
<text text-anchor="start" x="2554.5" y="-18" font-family="Helvetica,sans-Serif" font-size="10.00">/align/run/computeGlobalAffine</text>
<text text-anchor="middle" x="2630.5" y="-7" font-family="Helvetica,sans-Serif" font-size="10.00">Identity.cc</text>
</a>
</g>
</g>
<!-- Node4&#45;&gt;Node9 -->
<g id="edge8_Node000004_Node000009" class="edge">
<title>Node4&#45;&gt;Node9</title>
<g id="a_edge8_Node000004_Node000009"><a xlink:title=" ">
<path fill="none" stroke="#63b8ff" d="M1692.13,-80.73C1700.66,-79.28 1709.25,-77.99 1717.5,-77 2079.71,-33.63 2175.56,-86.58 2537.5,-41 2540.45,-40.63 2543.44,-40.21 2546.45,-39.76"/>
<polygon fill="#63b8ff" stroke="#63b8ff" points="1691.42,-77.3 1682.18,-82.49 1692.64,-84.19 1691.42,-77.3"/>
</a>
</g>
</g>
<!-- Node10 -->
<g id="Node000010" class="node">
<title>Node10</title>
<g id="a_Node000010"><a xlink:href="hasHighIdentityToDataset_8cc.html" target="_top" xlink:title=" ">
<polygon fill="white" stroke="#666666" points="2937,-35.5 2732,-35.5 2732,-5.5 2937,-5.5 2937,-35.5"/>
<text text-anchor="start" x="2740" y="-23.5" font-family="Helvetica,sans-Serif" font-size="10.00">ematch_src/utils/sequence</text>
<text text-anchor="middle" x="2834.5" y="-12.5" font-family="Helvetica,sans-Serif" font-size="10.00">/align/run/hasHighIdentityToDataset.cc</text>
</a>
</g>
</g>
<!-- Node4&#45;&gt;Node10 -->
<g id="edge9_Node000004_Node000010" class="edge">
<title>Node4&#45;&gt;Node10</title>
<g id="a_edge9_Node000004_Node000010"><a xlink:title=" ">
<path fill="none" stroke="#63b8ff" d="M1691.93,-80.69C1700.52,-79.24 1709.18,-77.96 1717.5,-77 2161.94,-25.61 2278.56,-87.82 2723.5,-41 2736.34,-39.65 2749.94,-37.7 2763.05,-35.55"/>
<polygon fill="#63b8ff" stroke="#63b8ff" points="1691.15,-77.28 1681.91,-82.46 1692.36,-84.17 1691.15,-77.28"/>
</a>
</g>
</g>
<!-- Node11 -->
<g id="Node000011" class="node">
<title>Node11</title>
<g id="a_Node000011"><a xlink:href="runAddAlignmentToHtml_8cc.html" target="_top" xlink:title=" ">
<polygon fill="white" stroke="#666666" points="3153.5,-35.5 2955.5,-35.5 2955.5,-5.5 3153.5,-5.5 3153.5,-35.5"/>
<text text-anchor="start" x="2963.5" y="-23.5" font-family="Helvetica,sans-Serif" font-size="10.00">ematch_src/utils/sequence</text>
<text text-anchor="middle" x="3054.5" y="-12.5" font-family="Helvetica,sans-Serif" font-size="10.00">/align/run/runAddAlignmentToHtml.cc</text>
</a>
</g>
</g>
<!-- Node4&#45;&gt;Node11 -->
<g id="edge10_Node000004_Node000011" class="edge">
<title>Node4&#45;&gt;Node11</title>
<g id="a_edge10_Node000004_Node000011"><a xlink:title=" ">
<path fill="none" stroke="#63b8ff" d="M1691.25,-80.75C1700.06,-79.27 1708.96,-77.96 1717.5,-77 2260.54,-15.99 2402.99,-97.71 2946.5,-41 2959.2,-39.68 2972.65,-37.71 2985.58,-35.53"/>
<polygon fill="#63b8ff" stroke="#63b8ff" points="1690.61,-77.31 1681.37,-82.5 1691.83,-84.21 1690.61,-77.31"/>
</a>
</g>
</g>
<!-- Node12 -->
<g id="Node000012" class="node">
<title>Node12</title>
<g id="a_Node000012"><a xlink:href="runAddIdenticalToHtml_8cc.html" target="_top" xlink:title=" ">
<polygon fill="white" stroke="#666666" points="3361.5,-35.5 3171.5,-35.5 3171.5,-5.5 3361.5,-5.5 3361.5,-35.5"/>
<text text-anchor="start" x="3179.5" y="-23.5" font-family="Helvetica,sans-Serif" font-size="10.00">ematch_src/utils/sequence</text>
<text text-anchor="middle" x="3266.5" y="-12.5" font-family="Helvetica,sans-Serif" font-size="10.00">/align/run/runAddIdenticalToHtml.cc</text>
</a>
</g>
</g>
<!-- Node4&#45;&gt;Node12 -->
<g id="edge11_Node000004_Node000012" class="edge">
<title>Node4&#45;&gt;Node12</title>
<g id="a_edge11_Node000004_Node000012"><a xlink:title=" ">
<path fill="none" stroke="#63b8ff" d="M1691.25,-80.72C1700.06,-79.24 1708.96,-77.94 1717.5,-77 2356.06,-6.67 2523.63,-108.41 3162.5,-41 3174.83,-39.7 3187.89,-37.73 3200.44,-35.53"/>
<polygon fill="#63b8ff" stroke="#63b8ff" points="1690.61,-77.28 1681.36,-82.46 1691.82,-84.17 1690.61,-77.28"/>
</a>
</g>
</g>
<!-- Node13 -->
<g id="Node000013" class="node">
<title>Node13</title>
<g id="a_Node000013"><a xlink:href="runGlobalAffineNearestClass_8cc.html" target="_top" xlink:title=" ">
<polygon fill="white" stroke="#666666" points="3559,-41 3380,-41 3380,0 3559,0 3559,-41"/>
<text text-anchor="start" x="3388" y="-29" font-family="Helvetica,sans-Serif" font-size="10.00">ematch_src/utils/sequence</text>
<text text-anchor="start" x="3388" y="-18" font-family="Helvetica,sans-Serif" font-size="10.00">/align/run/runGlobalAffineNearest</text>
<text text-anchor="middle" x="3469.5" y="-7" font-family="Helvetica,sans-Serif" font-size="10.00">Class.cc</text>
</a>
</g>
</g>
<!-- Node4&#45;&gt;Node13 -->
<g id="edge12_Node000004_Node000013" class="edge">
<title>Node4&#45;&gt;Node13</title>
<g id="a_edge12_Node000004_Node000013"><a xlink:title=" ">
<path fill="none" stroke="#63b8ff" d="M1691.05,-80.72C1699.93,-79.23 1708.9,-77.93 1717.5,-77 2448.05,2.3 2639.95,-120.3 3370.5,-41 3373.55,-40.67 3376.64,-40.29 3379.76,-39.88"/>
<polygon fill="#63b8ff" stroke="#63b8ff" points="1690.34,-77.3 1681.1,-82.48 1691.55,-84.19 1690.34,-77.3"/>
</a>
</g>
</g>
<!-- Node14 -->
<g id="Node000014" class="node">
<title>Node14</title>
<g id="a_Node000014"><a xlink:href="runGlobalAffineNearestClassDiff_8cc.html" target="_top" xlink:title=" ">
<polygon fill="white" stroke="#666666" points="704,-41 525,-41 525,0 704,0 704,-41"/>
<text text-anchor="start" x="533" y="-29" font-family="Helvetica,sans-Serif" font-size="10.00">ematch_src/utils/sequence</text>
<text text-anchor="start" x="533" y="-18" font-family="Helvetica,sans-Serif" font-size="10.00">/align/run/runGlobalAffineNearest</text>
<text text-anchor="middle" x="614.5" y="-7" font-family="Helvetica,sans-Serif" font-size="10.00">ClassDiff.cc</text>
</a>
</g>
</g>
<!-- Node4&#45;&gt;Node14 -->
<g id="edge13_Node000004_Node000014" class="edge">
<title>Node4&#45;&gt;Node14</title>
<g id="a_edge13_Node000004_Node000014"><a xlink:title=" ">
<path fill="none" stroke="#63b8ff" d="M1518.35,-90.72C1291.08,-77.55 752.83,-46.06 713.5,-41 710.46,-40.61 707.37,-40.18 704.26,-39.72"/>
<polygon fill="#63b8ff" stroke="#63b8ff" points="1518.42,-94.23 1528.61,-91.31 1518.83,-87.24 1518.42,-94.23"/>
</a>
</g>
</g>
<!-- Node15 -->
<g id="Node000015" class="node">
<title>Node15</title>
<g id="a_Node000015"><a xlink:href="runSimilaritySearchableSequences_8cc.html" target="_top" xlink:title=" ">
<polygon fill="white" stroke="#666666" points="904.5,-41 722.5,-41 722.5,0 904.5,0 904.5,-41"/>
<text text-anchor="start" x="730.5" y="-29" font-family="Helvetica,sans-Serif" font-size="10.00">ematch_src/utils/sequence</text>
<text text-anchor="start" x="730.5" y="-18" font-family="Helvetica,sans-Serif" font-size="10.00">/align/run/runSimilaritySearchable</text>
<text text-anchor="middle" x="813.5" y="-7" font-family="Helvetica,sans-Serif" font-size="10.00">Sequences.cc</text>
</a>
</g>
</g>
<!-- Node4&#45;&gt;Node15 -->
<g id="edge14_Node000004_Node000015" class="edge">
<title>Node4&#45;&gt;Node15</title>
<g id="a_edge14_Node000004_Node000015"><a xlink:title=" ">
<path fill="none" stroke="#63b8ff" d="M1518.77,-90.06C1352.98,-79.12 1027.59,-56.56 913.5,-41 910.61,-40.61 907.67,-40.18 904.71,-39.73"/>
<polygon fill="#63b8ff" stroke="#63b8ff" points="1518.76,-93.57 1528.97,-90.73 1519.22,-86.58 1518.76,-93.57"/>
</a>
</g>
</g>
<!-- Node16 -->
<g id="Node000016" class="node">
<title>Node16</title>
<g id="a_Node000016"><a xlink:href="allPairsGlobalAffineScore_8cc.html" target="_top" xlink:title=" ">
<polygon fill="white" stroke="#666666" points="1086.5,-41 922.5,-41 922.5,0 1086.5,0 1086.5,-41"/>
<text text-anchor="start" x="930.5" y="-29" font-family="Helvetica,sans-Serif" font-size="10.00">ematch_src/utils/sequence</text>
<text text-anchor="start" x="930.5" y="-18" font-family="Helvetica,sans-Serif" font-size="10.00">/align/test/allPairsGlobalAffine</text>
<text text-anchor="middle" x="1004.5" y="-7" font-family="Helvetica,sans-Serif" font-size="10.00">Score.cc</text>
</a>
</g>
</g>
<!-- Node4&#45;&gt;Node16 -->
<g id="edge15_Node000004_Node000016" class="edge">
<title>Node4&#45;&gt;Node16</title>
<g id="a_edge15_Node000004_Node000016"><a xlink:title=" ">
<path fill="none" stroke="#63b8ff" d="M1518.81,-89.07C1413.27,-80.46 1242.03,-64.41 1095.5,-41 1092.63,-40.54 1089.71,-40.05 1086.77,-39.53"/>
<polygon fill="#63b8ff" stroke="#63b8ff" points="1518.57,-92.56 1528.82,-89.87 1519.13,-85.58 1518.57,-92.56"/>
</a>
</g>
</g>
<!-- Node17 -->
<g id="Node000017" class="node">
<title>Node17</title>
<g id="a_Node000017"><a xlink:href="FastaSeqSlurper_8cc.html" target="_top" xlink:title=" ">
<polygon fill="white" stroke="#666666" points="1282.5,-35.5 1104.5,-35.5 1104.5,-5.5 1282.5,-5.5 1282.5,-35.5"/>
<text text-anchor="start" x="1112.5" y="-23.5" font-family="Helvetica,sans-Serif" font-size="10.00">ematch_src/utils/sequence</text>
<text text-anchor="middle" x="1193.5" y="-12.5" font-family="Helvetica,sans-Serif" font-size="10.00">/readers/fasta/FastaSeqSlurper.cc</text>
</a>
</g>
</g>
<!-- Node4&#45;&gt;Node17 -->
<g id="edge16_Node000004_Node000017" class="edge">
<title>Node4&#45;&gt;Node17</title>
<g id="a_edge16_Node000004_Node000017"><a xlink:title=" ">
<path fill="none" stroke="#63b8ff" d="M1521.38,-80.76C1456.26,-70.02 1368.64,-55.22 1291.5,-41 1282.2,-39.29 1272.42,-37.42 1262.79,-35.54"/>
<polygon fill="#63b8ff" stroke="#63b8ff" points="1521.2,-84.27 1531.63,-82.44 1522.33,-77.37 1521.2,-84.27"/>
</a>
</g>
</g>
<!-- Node18 -->
<g id="Node000018" class="node">
<title>Node18</title>
<g id="a_Node000018"><a xlink:href="fastaPrintDuplicateSeqs_8cc.html" target="_top" xlink:title=" ">
<polygon fill="white" stroke="#666666" points="1500.5,-41 1300.5,-41 1300.5,0 1500.5,0 1500.5,-41"/>
<text text-anchor="start" x="1308.5" y="-29" font-family="Helvetica,sans-Serif" font-size="10.00">ematch_src/utils/sequence</text>
<text text-anchor="start" x="1308.5" y="-18" font-family="Helvetica,sans-Serif" font-size="10.00">/readers/fasta/run/fastaPrintDuplicate</text>
<text text-anchor="middle" x="1400.5" y="-7" font-family="Helvetica,sans-Serif" font-size="10.00">Seqs.cc</text>
</a>
</g>
</g>
<!-- Node4&#45;&gt;Node18 -->
<g id="edge17_Node000004_Node000018" class="edge">
<title>Node4&#45;&gt;Node18</title>
<g id="a_edge17_Node000004_Node000018"><a xlink:title=" ">
<path fill="none" stroke="#63b8ff" d="M1568.28,-79.22C1535.21,-67.85 1491.85,-52.93 1457.49,-41.11"/>
<polygon fill="#63b8ff" stroke="#63b8ff" points="1567.16,-82.54 1577.75,-82.48 1569.43,-75.92 1567.16,-82.54"/>
</a>
</g>
</g>
<!-- Node19 -->
<g id="Node000019" class="node">
<title>Node19</title>
<g id="a_Node000019"><a xlink:href="fastaPrintDuplicateSeqs2Streams_8cc.html" target="_top" xlink:title=" ">
<polygon fill="white" stroke="#666666" points="1718.5,-41 1518.5,-41 1518.5,0 1718.5,0 1718.5,-41"/>
<text text-anchor="start" x="1526.5" y="-29" font-family="Helvetica,sans-Serif" font-size="10.00">ematch_src/utils/sequence</text>
<text text-anchor="start" x="1526.5" y="-18" font-family="Helvetica,sans-Serif" font-size="10.00">/readers/fasta/run/fastaPrintDuplicate</text>
<text text-anchor="middle" x="1618.5" y="-7" font-family="Helvetica,sans-Serif" font-size="10.00">Seqs2Streams.cc</text>
</a>
</g>
</g>
<!-- Node4&#45;&gt;Node19 -->
<g id="edge18_Node000004_Node000019" class="edge">
<title>Node4&#45;&gt;Node19</title>
<g id="a_edge18_Node000004_Node000019"><a xlink:title=" ">
<path fill="none" stroke="#63b8ff" d="M1618.5,-72.23C1618.5,-62.2 1618.5,-50.71 1618.5,-41.2"/>
<polygon fill="#63b8ff" stroke="#63b8ff" points="1615,-72.39 1618.5,-82.39 1622,-72.39 1615,-72.39"/>
</a>
</g>
</g>
<!-- Node4&#45;&gt;Node20 -->
<g id="edge19_Node000004_Node000020" class="edge">
<title>Node4&#45;&gt;Node20</title>
<g id="a_edge19_Node000004_Node000020"><a xlink:title=" ">
<path fill="none" stroke="#63b8ff" d="M1518.89,-90.66C1449.76,-86.66 1355.54,-81.32 1272.5,-77 936.57,-59.54 850.07,-84.39 516.5,-41 513.46,-40.6 510.36,-40.16 507.24,-39.68"/>
<polygon fill="#63b8ff" stroke="#63b8ff" points="1518.71,-94.15 1528.9,-91.24 1519.12,-87.16 1518.71,-94.15"/>
</a>
</g>
</g>
<!-- Node22 -->
<g id="Node000022" class="node">
<title>Node22</title>
<g id="a_Node000022"><a xlink:href="FastaWriter_8cc.html" target="_top" xlink:title=" ">
<polygon fill="white" stroke="#666666" points="155,-35.5 0,-35.5 0,-5.5 155,-5.5 155,-35.5"/>
<text text-anchor="start" x="8" y="-23.5" font-family="Helvetica,sans-Serif" font-size="10.00">ematch_src/utils/sequence</text>
<text text-anchor="middle" x="77.5" y="-12.5" font-family="Helvetica,sans-Serif" font-size="10.00">/readers/fasta/FastaWriter.cc</text>
</a>
</g>
</g>
<!-- Node21&#45;&gt;Node22 -->
<g id="edge21_Node000021_Node000022" class="edge">
<title>Node21&#45;&gt;Node22</title>
<g id="a_edge21_Node000021_Node000022"><a xlink:title=" ">
<path fill="none" stroke="#63b8ff" d="M207.73,-78.29C177.56,-65.13 137.41,-47.62 109.71,-35.54"/>
<polygon fill="#63b8ff" stroke="#63b8ff" points="206.58,-81.6 217.15,-82.39 209.38,-75.19 206.58,-81.6"/>
</a>
</g>
</g>
<!-- Node21&#45;&gt;Node23 -->
<g id="edge22_Node000021_Node000023" class="edge">
<title>Node21&#45;&gt;Node23</title>
<g id="a_edge22_Node000021_Node000023"><a xlink:title=" ">
<path fill="none" stroke="#63b8ff" d="M249.5,-72.04C249.5,-59.95 249.5,-45.79 249.5,-35.54"/>
<polygon fill="#63b8ff" stroke="#63b8ff" points="246,-72.39 249.5,-82.39 253,-72.39 246,-72.39"/>
</a>
</g>
</g>
<!-- Node25 -->
<g id="Node000025" class="node">
<title>Node25</title>
<g id="a_Node000025"><a xlink:href="FastaReader_8hh.html" target="_top" xlink:title=" ">
<polygon fill="white" stroke="#666666" points="3097,-184 2936,-184 2936,-154 3097,-154 3097,-184"/>
<text text-anchor="start" x="2944" y="-172" font-family="Helvetica,sans-Serif" font-size="10.00">ematch_src/utils/sequence</text>
<text text-anchor="middle" x="3016.5" y="-161" font-family="Helvetica,sans-Serif" font-size="10.00">/readers/fasta/FastaReader.hh</text>
</a>
</g>
</g>
<!-- Node24&#45;&gt;Node25 -->
<g id="edge26_Node000024_Node000025" class="edge">
<title>Node24&#45;&gt;Node25</title>
<g id="a_edge26_Node000024_Node000025"><a xlink:title=" ">
<path fill="none" stroke="#63b8ff" d="M2488.64,-223.37C2614.35,-210.66 2821.99,-189.67 2935.77,-178.16"/>
<polygon fill="#63b8ff" stroke="#63b8ff" points="2488.21,-219.9 2478.61,-224.38 2488.91,-226.86 2488.21,-219.9"/>
</a>
</g>
</g>
<!-- Node24&#45;&gt;Node27 -->
<g id="edge28_Node000024_Node000027" class="edge">
<title>Node24&#45;&gt;Node27</title>
<g id="a_edge28_Node000024_Node000027"><a xlink:title=" ">
<path fill="none" stroke="#63b8ff" d="M2362.88,-212.37C2354.01,-203.06 2343.89,-192.44 2336,-184.16"/>
<polygon fill="#63b8ff" stroke="#63b8ff" points="2360.53,-214.97 2369.96,-219.8 2365.6,-210.14 2360.53,-214.97"/>
</a>
</g>
</g>
<!-- Node26 -->
<g id="Node000026" class="node">
<title>Node26</title>
<g id="a_Node000026"><a xlink:href="FastaReader_8cc.html" target="_top" xlink:title=" ">
<polygon fill="white" stroke="#666666" points="3493.5,-112.5 3333.5,-112.5 3333.5,-82.5 3493.5,-82.5 3493.5,-112.5"/>
<text text-anchor="start" x="3341.5" y="-100.5" font-family="Helvetica,sans-Serif" font-size="10.00">ematch_src/utils/sequence</text>
<text text-anchor="middle" x="3413.5" y="-89.5" font-family="Helvetica,sans-Serif" font-size="10.00">/readers/fasta/FastaReader.cc</text>
</a>
</g>
</g>
<!-- Node25&#45;&gt;Node26 -->
<g id="edge27_Node000025_Node000026" class="edge">
<title>Node25&#45;&gt;Node26</title>
<g id="a_edge27_Node000025_Node000026"><a xlink:title=" ">
<path fill="none" stroke="#63b8ff" d="M3107.19,-154.61C3168.66,-145.21 3251.66,-131.88 3324.5,-118 3333.2,-116.34 3342.35,-114.48 3351.35,-112.57"/>
<polygon fill="#63b8ff" stroke="#63b8ff" points="3106.49,-151.18 3097.13,-156.15 3107.54,-158.1 3106.49,-151.18"/>
</a>
</g>
</g>
<!-- Node27&#45;&gt;Node3 -->
<g id="edge29_Node000027_Node000003" class="edge">
<title>Node27&#45;&gt;Node3</title>
<g id="a_edge29_Node000027_Node000003"><a xlink:title=" ">
<path fill="none" stroke="#63b8ff" d="M2214.74,-161.53C1990.99,-148.09 1478.97,-117.33 1263.7,-104.4"/>
<polygon fill="#63b8ff" stroke="#63b8ff" points="2214.66,-165.03 2224.85,-162.13 2215.08,-158.04 2214.66,-165.03"/>
</a>
</g>
</g>
<!-- Node27&#45;&gt;Node4 -->
<g id="edge33_Node000027_Node000004" class="edge">
<title>Node27&#45;&gt;Node4</title>
<g id="a_edge33_Node000027_Node000004"><a xlink:title=" ">
<path fill="none" stroke="#63b8ff" d="M2214.91,-162.75C2093.62,-156 1890.74,-142.14 1717.5,-118 1706.74,-116.5 1695.39,-114.58 1684.36,-112.54"/>
<polygon fill="#63b8ff" stroke="#63b8ff" points="2214.77,-166.25 2224.94,-163.31 2215.15,-159.26 2214.77,-166.25"/>
</a>
</g>
</g>
<!-- Node28 -->
<g id="Node000028" class="node">
<title>Node28</title>
<g id="a_Node000028"><a xlink:href="runGlobalAffineAlignment_8cc.html" target="_top" xlink:title=" ">
<polygon fill="white" stroke="#666666" points="3132,-112.5 2927,-112.5 2927,-82.5 3132,-82.5 3132,-112.5"/>
<text text-anchor="start" x="2935" y="-100.5" font-family="Helvetica,sans-Serif" font-size="10.00">ematch_src/utils/sequence</text>
<text text-anchor="middle" x="3029.5" y="-89.5" font-family="Helvetica,sans-Serif" font-size="10.00">/align/run/runGlobalAffineAlignment.cc</text>
</a>
</g>
</g>
<!-- Node27&#45;&gt;Node28 -->
<g id="edge30_Node000027_Node000028" class="edge">
<title>Node27&#45;&gt;Node28</title>
<g id="a_edge30_Node000027_Node000028"><a xlink:title=" ">
<path fill="none" stroke="#63b8ff" d="M2430.34,-161.89C2549.96,-154.43 2748.52,-140.01 2918.5,-118 2930.34,-116.47 2942.83,-114.56 2955.01,-112.54"/>
<polygon fill="#63b8ff" stroke="#63b8ff" points="2429.85,-158.41 2420.08,-162.52 2430.28,-165.4 2429.85,-158.41"/>
</a>
</g>
</g>
<!-- Node29 -->
<g id="Node000029" class="node">
<title>Node29</title>
<g id="a_Node000029"><a xlink:href="testSeqGlobalAffineAligner_8cc.html" target="_top" xlink:title=" ">
<polygon fill="white" stroke="#666666" points="3315,-118 3150,-118 3150,-77 3315,-77 3315,-118"/>
<text text-anchor="start" x="3158" y="-106" font-family="Helvetica,sans-Serif" font-size="10.00">ematch_src/utils/sequence</text>
<text text-anchor="start" x="3158" y="-95" font-family="Helvetica,sans-Serif" font-size="10.00">/align/test/testSeqGlobalAffine</text>
<text text-anchor="middle" x="3232.5" y="-84" font-family="Helvetica,sans-Serif" font-size="10.00">Aligner.cc</text>
</a>
</g>
</g>
<!-- Node27&#45;&gt;Node29 -->
<g id="edge31_Node000027_Node000029" class="edge">
<title>Node27&#45;&gt;Node29</title>
<g id="a_edge31_Node000027_Node000029"><a xlink:title=" ">
<path fill="none" stroke="#63b8ff" d="M2430.18,-166.57C2587.24,-163.31 2888.08,-152.69 3141.5,-118 3144.22,-117.63 3146.98,-117.22 3149.77,-116.78"/>
<polygon fill="#63b8ff" stroke="#63b8ff" points="2429.97,-163.07 2420.04,-166.77 2430.11,-170.07 2429.97,-163.07"/>
</a>
</g>
</g>
<!-- Node30 -->
<g id="Node000030" class="node">
<title>Node30</title>
<g id="a_Node000030"><a xlink:href="FastaRecordReader_8cc.html" target="_top" xlink:title=" ">
<polygon fill="white" stroke="#666666" points="1920.5,-112.5 1726.5,-112.5 1726.5,-82.5 1920.5,-82.5 1920.5,-112.5"/>
<text text-anchor="start" x="1734.5" y="-100.5" font-family="Helvetica,sans-Serif" font-size="10.00">ematch_src/utils/sequence</text>
<text text-anchor="middle" x="1823.5" y="-89.5" font-family="Helvetica,sans-Serif" font-size="10.00">/readers/fasta/FastaRecordReader.cc</text>
</a>
</g>
</g>
<!-- Node27&#45;&gt;Node30 -->
<g id="edge32_Node000027_Node000030" class="edge">
<title>Node27&#45;&gt;Node30</title>
<g id="a_edge32_Node000027_Node000030"><a xlink:title=" ">
<path fill="none" stroke="#63b8ff" d="M2215,-155.95C2135.89,-146.69 2025.8,-132.97 1929.5,-118 1918.87,-116.35 1907.67,-114.45 1896.68,-112.51"/>
<polygon fill="#63b8ff" stroke="#63b8ff" points="2214.64,-159.43 2224.98,-157.11 2215.45,-152.48 2214.64,-159.43"/>
</a>
</g>
</g>
<!-- Node31 -->
<g id="Node000031" class="node">
<title>Node31</title>
<g id="a_Node000031"><a xlink:href="fastaAppendToRecordHeads_8cc.html" target="_top" xlink:title=" ">
<polygon fill="white" stroke="#666666" points="2105,-118 1938,-118 1938,-77 2105,-77 2105,-118"/>
<text text-anchor="start" x="1946" y="-106" font-family="Helvetica,sans-Serif" font-size="10.00">ematch_src/utils/sequence</text>
<text text-anchor="start" x="1946" y="-95" font-family="Helvetica,sans-Serif" font-size="10.00">/readers/fasta/run/fastaAppend</text>
<text text-anchor="middle" x="2021.5" y="-84" font-family="Helvetica,sans-Serif" font-size="10.00">ToRecordHeads.cc</text>
</a>
</g>
</g>
<!-- Node27&#45;&gt;Node31 -->
<g id="edge34_Node000027_Node000031" class="edge">
<title>Node27&#45;&gt;Node31</title>
<g id="a_edge34_Node000027_Node000031"><a xlink:title=" ">
<path fill="none" stroke="#63b8ff" d="M2251.58,-151.62C2207.71,-141.5 2151.18,-128.44 2105.13,-117.81"/>
<polygon fill="#63b8ff" stroke="#63b8ff" points="2251.06,-155.1 2261.59,-153.94 2252.63,-148.28 2251.06,-155.1"/>
</a>
</g>
</g>
<!-- Node32 -->
<g id="Node000032" class="node">
<title>Node32</title>
<g id="a_Node000032"><a xlink:href="fastaGrepName_8cc.html" target="_top" xlink:title=" ">
<polygon fill="white" stroke="#666666" points="2320,-112.5 2123,-112.5 2123,-82.5 2320,-82.5 2320,-112.5"/>
<text text-anchor="start" x="2131" y="-100.5" font-family="Helvetica,sans-Serif" font-size="10.00">ematch_src/utils/sequence</text>
<text text-anchor="middle" x="2221.5" y="-89.5" font-family="Helvetica,sans-Serif" font-size="10.00">/readers/fasta/run/fastaGrepName.cc</text>
</a>
</g>
</g>
<!-- Node27&#45;&gt;Node32 -->
<g id="edge35_Node000027_Node000032" class="edge">
<title>Node27&#45;&gt;Node32</title>
<g id="a_edge35_Node000027_Node000032"><a xlink:title=" ">
<path fill="none" stroke="#63b8ff" d="M2293.81,-148.25C2277.25,-136.86 2256.82,-122.81 2241.91,-112.54"/>
<polygon fill="#63b8ff" stroke="#63b8ff" points="2291.84,-151.15 2302.06,-153.94 2295.81,-145.38 2291.84,-151.15"/>
</a>
</g>
</g>
<!-- Node33 -->
<g id="Node000033" class="node">
<title>Node33</title>
<g id="a_Node000033"><a xlink:href="fastaHead_8cc.html" target="_top" xlink:title=" ">
<polygon fill="white" stroke="#666666" points="2508.5,-112.5 2338.5,-112.5 2338.5,-82.5 2508.5,-82.5 2508.5,-112.5"/>
<text text-anchor="start" x="2346.5" y="-100.5" font-family="Helvetica,sans-Serif" font-size="10.00">ematch_src/utils/sequence</text>
<text text-anchor="middle" x="2423.5" y="-89.5" font-family="Helvetica,sans-Serif" font-size="10.00">/readers/fasta/run/fastaHead.cc</text>
</a>
</g>
</g>
<!-- Node27&#45;&gt;Node33 -->
<g id="edge36_Node000027_Node000033" class="edge">
<title>Node27&#45;&gt;Node33</title>
<g id="a_edge36_Node000027_Node000033"><a xlink:title=" ">
<path fill="none" stroke="#63b8ff" d="M2351.19,-148.25C2367.75,-136.86 2388.18,-122.81 2403.09,-112.54"/>
<polygon fill="#63b8ff" stroke="#63b8ff" points="2349.19,-145.38 2342.94,-153.94 2353.16,-151.15 2349.19,-145.38"/>
</a>
</g>
</g>
<!-- Node34 -->
<g id="Node000034" class="node">
<title>Node34</title>
<g id="a_Node000034"><a xlink:href="fastaTail_8cc.html" target="_top" xlink:title=" ">
<polygon fill="white" stroke="#666666" points="2688,-112.5 2527,-112.5 2527,-82.5 2688,-82.5 2688,-112.5"/>
<text text-anchor="start" x="2535" y="-100.5" font-family="Helvetica,sans-Serif" font-size="10.00">ematch_src/utils/sequence</text>
<text text-anchor="middle" x="2607.5" y="-89.5" font-family="Helvetica,sans-Serif" font-size="10.00">/readers/fasta/run/fastaTail.cc</text>
</a>
</g>
</g>
<!-- Node27&#45;&gt;Node34 -->
<g id="edge37_Node000027_Node000034" class="edge">
<title>Node27&#45;&gt;Node34</title>
<g id="a_edge37_Node000027_Node000034"><a xlink:title=" ">
<path fill="none" stroke="#63b8ff" d="M2389.99,-151.54C2438.67,-139.67 2503.68,-123.82 2549.91,-112.54"/>
<polygon fill="#63b8ff" stroke="#63b8ff" points="2389.06,-148.17 2380.17,-153.94 2390.72,-154.97 2389.06,-148.17"/>
</a>
</g>
</g>
<!-- Node35 -->
<g id="Node000035" class="node">
<title>Node35</title>
<g id="a_Node000035"><a xlink:href="fasta__dumpAminoAcidContentWPformat_8cc.html" target="_top" xlink:title=" ">
<polygon fill="white" stroke="#666666" points="2909,-118 2706,-118 2706,-77 2909,-77 2909,-118"/>
<text text-anchor="start" x="2714" y="-106" font-family="Helvetica,sans-Serif" font-size="10.00">ematch_src/utils/sequence</text>
<text text-anchor="start" x="2714" y="-95" font-family="Helvetica,sans-Serif" font-size="10.00">/readers/fasta/run/fasta</text>
<text text-anchor="middle" x="2807.5" y="-84" font-family="Helvetica,sans-Serif" font-size="10.00">_dumpAminoAcidContentWPformat.cc</text>
</a>
</g>
</g>
<!-- Node27&#45;&gt;Node35 -->
<g id="edge38_Node000027_Node000035" class="edge">
<title>Node27&#45;&gt;Node35</title>
<g id="a_edge38_Node000027_Node000035"><a xlink:title=" ">
<path fill="none" stroke="#63b8ff" d="M2430.12,-154.89C2505.18,-145.45 2607.59,-131.96 2697.5,-118 2700.28,-117.57 2703.1,-117.12 2705.94,-116.67"/>
<polygon fill="#63b8ff" stroke="#63b8ff" points="2429.67,-151.42 2420.18,-156.14 2430.54,-158.37 2429.67,-151.42"/>
</a>
</g>
</g>
</g>
</svg>

<g id="navigator" transform="translate(0 0)" fill="#404254">
  <rect fill="#f2f5e9" fill-opacity="0.5" stroke="#606060" stroke-width=".5" x="0" y="0" width="60" height="60"/>
  <use id="zoomplus" xlink:href="#zoomPlus" x="17" y="9" onmousedown="handleZoom(evt,'in')"/>
  <use id="zoomminus" xlink:href="#zoomMin" x="42" y="9" onmousedown="handleZoom(evt,'out')"/>
  <use id="reset" xlink:href="#resetDef" x="30" y="36" onmousedown="handleReset()"/>
   <use id="arrowup" xlink:href="#arrowUp" x="0" y="0" onmousedown="handlePan(0,-1)"/>
  <use id="arrowright" xlink:href="#arrowRight" x="0" y="0" onmousedown="handlePan(1,0)"/>
  <use id="arrowdown" xlink:href="#arrowDown" x="0" y="0" onmousedown="handlePan(0,1)"/>
  <use id="arrowleft" xlink:href="#arrowLeft" x="0" y="0" onmousedown="handlePan(-1,0)"/>
</g>
<svg viewBox="0 0 15 15" width="100%" height="30px" preserveAspectRatio="xMaxYMin meet">
 <g id="arrow_out" transform="scale(0.3 0.3)">
  <a xlink:href="stringUtils_8hh__dep__incl_org.svg" target="_base">
   <rect id="button" ry="5" rx="5" y="6" x="6" height="38" width="38"
        fill="#f2f5e9" fill-opacity="0.5" stroke="#606060" stroke-width="1.0"/>
   <path id="arrow"
     d="M 11.500037,31.436501 C 11.940474,20.09759 22.043105,11.32322 32.158766,21.979434 L 37.068811,17.246167 C 37.068811,17.246167 37.088388,32 37.088388,32 L 22.160133,31.978069 C 22.160133,31.978069 26.997745,27.140456 26.997745,27.140456 C 18.528582,18.264221 13.291696,25.230495 11.500037,31.436501 z"
     style="fill:#404040;"/>
  </a>
 </g>
</svg>

<style type='text/css'>
<![CDATA[
[data-mouse-over-selected='false'] { opacity: 0.7; }
[data-mouse-over-selected='true']  { opacity: 1.0; }
]]>
</style>
<script type="application/ecmascript"><![CDATA[
document.addEventListener('DOMContentLoaded', (event) => {
  highlightEdges();
  highlightAdjacentNodes();
});
]]></script>
</svg>
