<?xml version="1.0" encoding="UTF-8" standalone="no"?>
<!DOCTYPE svg PUBLIC "-//W3C//DTD SVG 1.1//EN"
 "http://www.w3.org/Graphics/SVG/1.1/DTD/svg11.dtd">
<!-- Generated by graphviz version 2.43.0 (0)
 -->
<!-- Title: ematch_src/utils/stl/stringBinaryIO.hh Pages: 1 -->
<svg width="2690pt" height="269pt"
 viewBox="0.00 0.00 2690.00 269.00" xmlns="http://www.w3.org/2000/svg" xmlns:xlink="http://www.w3.org/1999/xlink">
<g id="graph0" class="graph" transform="scale(1 1) rotate(0) translate(4 265)">
<title>ematch_src/utils/stl/stringBinaryIO.hh</title>
<!-- Node1 -->
<g id="Node000001" class="node">
<title>Node1</title>
<g id="a_Node000001"><a xlink:title=" ">
<polygon fill="#999999" stroke="#666666" points="1368.5,-261 1256.5,-261 1256.5,-231 1368.5,-231 1368.5,-261"/>
<text text-anchor="start" x="1264.5" y="-249" font-family="Helvetica,sans-Serif" font-size="10.00">ematch_src/utils/stl</text>
<text text-anchor="middle" x="1312.5" y="-238" font-family="Helvetica,sans-Serif" font-size="10.00">/stringBinaryIO.hh</text>
</a>
</g>
</g>
<!-- Node2 -->
<g id="Node000002" class="node">
<title>Node2</title>
<g id="a_Node000002"><a xlink:href="ResidueIndexMap_8cc.html" target="_top" xlink:title=" ">
<polygon fill="white" stroke="#666666" points="1215.5,-189.5 1005.5,-189.5 1005.5,-159.5 1215.5,-159.5 1215.5,-189.5"/>
<text text-anchor="start" x="1013.5" y="-177.5" font-family="Helvetica,sans-Serif" font-size="10.00">ematch_src/utils/sequence</text>
<text text-anchor="middle" x="1110.5" y="-166.5" font-family="Helvetica,sans-Serif" font-size="10.00">/ResidueIndexMap/ResidueIndexMap.cc</text>
</a>
</g>
</g>
<!-- Node1&#45;&gt;Node2 -->
<g id="edge1_Node000001_Node000002" class="edge">
<title>Node1&#45;&gt;Node2</title>
<g id="a_edge1_Node000001_Node000002"><a xlink:title=" ">
<path fill="none" stroke="#63b8ff" d="M1261.83,-227.57C1227.67,-215.81 1183.2,-200.51 1151.32,-189.54"/>
<polygon fill="#63b8ff" stroke="#63b8ff" points="1261.03,-230.99 1271.62,-230.94 1263.31,-224.37 1261.03,-230.99"/>
</a>
</g>
</g>
<!-- Node3 -->
<g id="Node000003" class="node">
<title>Node3</title>
<g id="a_Node000003"><a xlink:href="ResidueIndexedSequence_8cc.html" target="_top" xlink:title=" ">
<polygon fill="white" stroke="#666666" points="1391.5,-189.5 1233.5,-189.5 1233.5,-159.5 1391.5,-159.5 1391.5,-189.5"/>
<text text-anchor="start" x="1241.5" y="-177.5" font-family="Helvetica,sans-Serif" font-size="10.00">ematch_src/utils/sequence</text>
<text text-anchor="middle" x="1312.5" y="-166.5" font-family="Helvetica,sans-Serif" font-size="10.00">/ResidueIndexedSequence.cc</text>
</a>
</g>
</g>
<!-- Node1&#45;&gt;Node3 -->
<g id="edge2_Node000001_Node000003" class="edge">
<title>Node1&#45;&gt;Node3</title>
<g id="a_edge2_Node000001_Node000003"><a xlink:title=" ">
<path fill="none" stroke="#63b8ff" d="M1312.5,-220.75C1312.5,-210.31 1312.5,-198.49 1312.5,-189.54"/>
<polygon fill="#63b8ff" stroke="#63b8ff" points="1309,-220.94 1312.5,-230.94 1316,-220.94 1309,-220.94"/>
</a>
</g>
</g>
<!-- Node4 -->
<g id="Node000004" class="node">
<title>Node4</title>
<g id="a_Node000004"><a xlink:href="SerialNumbersForStrings_8hh.html" target="_top" xlink:title=" ">
<polygon fill="white" stroke="#666666" points="1625,-195 1410,-195 1410,-154 1625,-154 1625,-195"/>
<text text-anchor="start" x="1418" y="-183" font-family="Helvetica,sans-Serif" font-size="10.00">ematch_src/utils/serialNumbers</text>
<text text-anchor="start" x="1418" y="-172" font-family="Helvetica,sans-Serif" font-size="10.00">/SerialNumbersForStrings/SerialNumbers</text>
<text text-anchor="middle" x="1517.5" y="-161" font-family="Helvetica,sans-Serif" font-size="10.00">ForStrings.hh</text>
</a>
</g>
</g>
<!-- Node1&#45;&gt;Node4 -->
<g id="edge3_Node000001_Node000004" class="edge">
<title>Node1&#45;&gt;Node4</title>
<g id="a_edge3_Node000001_Node000004"><a xlink:title=" ">
<path fill="none" stroke="#63b8ff" d="M1363.58,-227.68C1392.79,-217.78 1429.51,-205.33 1459.77,-195.07"/>
<polygon fill="#63b8ff" stroke="#63b8ff" points="1362.33,-224.41 1353.98,-230.94 1364.58,-231.04 1362.33,-224.41"/>
</a>
</g>
</g>
<!-- Node5 -->
<g id="Node000005" class="node">
<title>Node5</title>
<g id="a_Node000005"><a xlink:href="graph_2MatrixGraph_8hh.html" target="_top" xlink:title=" ">
<polygon fill="white" stroke="#666666" points="472.5,-107 290.5,-107 290.5,-88 472.5,-88 472.5,-107"/>
<text text-anchor="middle" x="381.5" y="-95" font-family="Helvetica,sans-Serif" font-size="10.00">ematch_src/graph/MatrixGraph.hh</text>
</a>
</g>
</g>
<!-- Node4&#45;&gt;Node5 -->
<g id="edge4_Node000004_Node000005" class="edge">
<title>Node4&#45;&gt;Node5</title>
<g id="a_edge4_Node000004_Node000005"><a xlink:title=" ">
<path fill="none" stroke="#63b8ff" d="M1399.79,-154.01C1024.91,-115.58 926.99,-146.69 555.5,-118 519.89,-115.25 480.31,-110.92 447.91,-107.03"/>
<polygon fill="#63b8ff" stroke="#63b8ff" points="1399.52,-157.5 1409.83,-155.04 1400.24,-150.53 1399.52,-157.5"/>
</a>
</g>
</g>
<!-- Node9 -->
<g id="Node000009" class="node">
<title>Node9</title>
<g id="a_Node000009"><a xlink:href="graph_2NeighborListGraph_8hh.html" target="_top" xlink:title=" ">
<polygon fill="white" stroke="#666666" points="716,-112.5 565,-112.5 565,-82.5 716,-82.5 716,-112.5"/>
<text text-anchor="start" x="573" y="-100.5" font-family="Helvetica,sans-Serif" font-size="10.00">ematch_src/graph/Neighbor</text>
<text text-anchor="middle" x="640.5" y="-89.5" font-family="Helvetica,sans-Serif" font-size="10.00">ListGraph.hh</text>
</a>
</g>
</g>
<!-- Node4&#45;&gt;Node9 -->
<g id="edge8_Node000004_Node000009" class="edge">
<title>Node4&#45;&gt;Node9</title>
<g id="a_edge8_Node000004_Node000009"><a xlink:title=" ">
<path fill="none" stroke="#63b8ff" d="M1399.52,-153.97C1099.62,-122.08 1019.05,-159.71 724.5,-118 714.86,-116.64 704.71,-114.71 694.91,-112.59"/>
<polygon fill="#63b8ff" stroke="#63b8ff" points="1399.5,-157.49 1409.82,-155.09 1400.26,-150.53 1399.5,-157.49"/>
</a>
</g>
</g>
<!-- Node12 -->
<g id="Node000012" class="node">
<title>Node12</title>
<g id="a_Node000012"><a xlink:href="graph_2run_2listConnectedComponents_8cc.html" target="_top" xlink:title=" ">
<polygon fill="white" stroke="#666666" points="895,-112.5 734,-112.5 734,-82.5 895,-82.5 895,-112.5"/>
<text text-anchor="start" x="742" y="-100.5" font-family="Helvetica,sans-Serif" font-size="10.00">ematch_src/graph/run</text>
<text text-anchor="middle" x="814.5" y="-89.5" font-family="Helvetica,sans-Serif" font-size="10.00">/listConnectedComponents.cc</text>
</a>
</g>
</g>
<!-- Node4&#45;&gt;Node12 -->
<g id="edge11_Node000004_Node000012" class="edge">
<title>Node4&#45;&gt;Node12</title>
<g id="a_edge11_Node000004_Node000012"><a xlink:title=" ">
<path fill="none" stroke="#63b8ff" d="M1399.87,-154C1179.31,-128.43 1120.07,-149.02 904.5,-118 894.53,-116.57 884.02,-114.66 873.83,-112.59"/>
<polygon fill="#63b8ff" stroke="#63b8ff" points="1399.47,-157.47 1409.81,-155.17 1400.29,-150.52 1399.47,-157.47"/>
</a>
</g>
</g>
<!-- Node13 -->
<g id="Node000013" class="node">
<title>Node13</title>
<g id="a_Node000013"><a xlink:href="graph_2run_2printRandomRepresentativeFromEachConnectedComponent_8cc.html" target="_top" xlink:title=" ">
<polygon fill="white" stroke="#666666" points="1095.5,-118 913.5,-118 913.5,-77 1095.5,-77 1095.5,-118"/>
<text text-anchor="start" x="921.5" y="-106" font-family="Helvetica,sans-Serif" font-size="10.00">ematch_src/graph/run</text>
<text text-anchor="start" x="921.5" y="-95" font-family="Helvetica,sans-Serif" font-size="10.00">/printRandomRepresentativeFrom</text>
<text text-anchor="middle" x="1004.5" y="-84" font-family="Helvetica,sans-Serif" font-size="10.00">EachConnectedComponent.cc</text>
</a>
</g>
</g>
<!-- Node4&#45;&gt;Node13 -->
<g id="edge12_Node000004_Node000013" class="edge">
<title>Node4&#45;&gt;Node13</title>
<g id="a_edge12_Node000004_Node000013"><a xlink:title=" ">
<path fill="none" stroke="#63b8ff" d="M1399.69,-153.92C1267.61,-135.26 1232.2,-138.19 1104.5,-118 1101.62,-117.54 1098.69,-117.07 1095.74,-116.57"/>
<polygon fill="#63b8ff" stroke="#63b8ff" points="1399.39,-157.42 1409.79,-155.36 1400.38,-150.49 1399.39,-157.42"/>
</a>
</g>
</g>
<!-- Node14 -->
<g id="Node000014" class="node">
<title>Node14</title>
<g id="a_Node000014"><a xlink:href="ConstantLabeledSquareDoubleFLENumMatrix_8hh.html" target="_top" xlink:title=" ">
<polygon fill="white" stroke="#666666" points="1323.5,-118 1113.5,-118 1113.5,-77 1323.5,-77 1323.5,-118"/>
<text text-anchor="start" x="1121.5" y="-106" font-family="Helvetica,sans-Serif" font-size="10.00">ematch_src/utils/FLArray</text>
<text text-anchor="start" x="1121.5" y="-95" font-family="Helvetica,sans-Serif" font-size="10.00">/ConstantLabeledSquareDoubleFLENum</text>
<text text-anchor="middle" x="1218.5" y="-84" font-family="Helvetica,sans-Serif" font-size="10.00">Matrix.hh</text>
</a>
</g>
</g>
<!-- Node4&#45;&gt;Node14 -->
<g id="edge13_Node000004_Node000014" class="edge">
<title>Node4&#45;&gt;Node14</title>
<g id="a_edge13_Node000004_Node000014"><a xlink:title=" ">
<path fill="none" stroke="#63b8ff" d="M1429.99,-151.55C1387.7,-140.94 1337.36,-128.31 1296.41,-118.04"/>
<polygon fill="#63b8ff" stroke="#63b8ff" points="1429.17,-154.95 1439.72,-153.99 1430.87,-148.16 1429.17,-154.95"/>
</a>
</g>
</g>
<!-- Node17 -->
<g id="Node000017" class="node">
<title>Node17</title>
<g id="a_Node000017"><a xlink:href="LabeledSquareFLENumMatrix_8hh.html" target="_top" xlink:title=" ">
<polygon fill="white" stroke="#666666" points="1521,-112.5 1342,-112.5 1342,-82.5 1521,-82.5 1521,-112.5"/>
<text text-anchor="start" x="1350" y="-100.5" font-family="Helvetica,sans-Serif" font-size="10.00">ematch_src/utils/FLArray</text>
<text text-anchor="middle" x="1431.5" y="-89.5" font-family="Helvetica,sans-Serif" font-size="10.00">/LabeledSquareFLENumMatrix.hh</text>
</a>
</g>
</g>
<!-- Node4&#45;&gt;Node17 -->
<g id="edge16_Node000004_Node000017" class="edge">
<title>Node4&#45;&gt;Node17</title>
<g id="a_edge16_Node000004_Node000017"><a xlink:title=" ">
<path fill="none" stroke="#63b8ff" d="M1487.31,-147.17C1473.98,-135.55 1458.84,-122.34 1447.7,-112.63"/>
<polygon fill="#63b8ff" stroke="#63b8ff" points="1485.07,-149.86 1494.9,-153.79 1489.67,-144.58 1485.07,-149.86"/>
</a>
</g>
</g>
<!-- Node18 -->
<g id="Node000018" class="node">
<title>Node18</title>
<g id="a_Node000018"><a xlink:href="utils_2graph_2MatrixGraph_8hh.html" target="_top" xlink:title=" ">
<polygon fill="white" stroke="#666666" points="1667.5,-112.5 1539.5,-112.5 1539.5,-82.5 1667.5,-82.5 1667.5,-112.5"/>
<text text-anchor="start" x="1547.5" y="-100.5" font-family="Helvetica,sans-Serif" font-size="10.00">ematch_src/utils/graph</text>
<text text-anchor="middle" x="1603.5" y="-89.5" font-family="Helvetica,sans-Serif" font-size="10.00">/MatrixGraph.hh</text>
</a>
</g>
</g>
<!-- Node4&#45;&gt;Node18 -->
<g id="edge17_Node000004_Node000018" class="edge">
<title>Node4&#45;&gt;Node18</title>
<g id="a_edge17_Node000004_Node000018"><a xlink:title=" ">
<path fill="none" stroke="#63b8ff" d="M1547.69,-147.17C1561.02,-135.55 1576.16,-122.34 1587.3,-112.63"/>
<polygon fill="#63b8ff" stroke="#63b8ff" points="1545.33,-144.58 1540.1,-153.79 1549.93,-149.86 1545.33,-144.58"/>
</a>
</g>
</g>
<!-- Node22 -->
<g id="Node000022" class="node">
<title>Node22</title>
<g id="a_Node000022"><a xlink:href="utils_2graph_2NeighborListGraph_8hh.html" target="_top" xlink:title=" ">
<polygon fill="white" stroke="#666666" points="1813.5,-112.5 1685.5,-112.5 1685.5,-82.5 1813.5,-82.5 1813.5,-112.5"/>
<text text-anchor="start" x="1693.5" y="-100.5" font-family="Helvetica,sans-Serif" font-size="10.00">ematch_src/utils/graph</text>
<text text-anchor="middle" x="1749.5" y="-89.5" font-family="Helvetica,sans-Serif" font-size="10.00">/NeighborListGraph.hh</text>
</a>
</g>
</g>
<!-- Node4&#45;&gt;Node22 -->
<g id="edge21_Node000004_Node000022" class="edge">
<title>Node4&#45;&gt;Node22</title>
<g id="a_edge21_Node000004_Node000022"><a xlink:title=" ">
<path fill="none" stroke="#63b8ff" d="M1587.46,-150.88C1625.99,-138.43 1672.61,-123.36 1705.94,-112.58"/>
<polygon fill="#63b8ff" stroke="#63b8ff" points="1586.29,-147.58 1577.85,-153.99 1588.44,-154.24 1586.29,-147.58"/>
</a>
</g>
</g>
<!-- Node25 -->
<g id="Node000025" class="node">
<title>Node25</title>
<g id="a_Node000025"><a xlink:href="utils_2graph_2run_2listConnectedComponents_8cc.html" target="_top" xlink:title=" ">
<polygon fill="white" stroke="#666666" points="2011.5,-112.5 1831.5,-112.5 1831.5,-82.5 2011.5,-82.5 2011.5,-112.5"/>
<text text-anchor="start" x="1839.5" y="-100.5" font-family="Helvetica,sans-Serif" font-size="10.00">ematch_src/utils/graph</text>
<text text-anchor="middle" x="1921.5" y="-89.5" font-family="Helvetica,sans-Serif" font-size="10.00">/run/listConnectedComponents.cc</text>
</a>
</g>
</g>
<!-- Node4&#45;&gt;Node25 -->
<g id="edge24_Node000004_Node000025" class="edge">
<title>Node4&#45;&gt;Node25</title>
<g id="a_edge24_Node000004_Node000025"><a xlink:title=" ">
<path fill="none" stroke="#63b8ff" d="M1635.27,-152.48C1691.91,-142.27 1760.77,-129.7 1822.5,-118 1831.71,-116.26 1841.39,-114.39 1850.95,-112.53"/>
<polygon fill="#63b8ff" stroke="#63b8ff" points="1634.42,-149.08 1625.2,-154.29 1635.66,-155.97 1634.42,-149.08"/>
</a>
</g>
</g>
<!-- Node26 -->
<g id="Node000026" class="node">
<title>Node26</title>
<g id="a_Node000026"><a xlink:href="utils_2graph_2run_2printRandomRepresentativeFromEachConnectedComponent_8cc.html" target="_top" xlink:title=" ">
<polygon fill="white" stroke="#666666" points="2215.5,-118 2029.5,-118 2029.5,-77 2215.5,-77 2215.5,-118"/>
<text text-anchor="start" x="2037.5" y="-106" font-family="Helvetica,sans-Serif" font-size="10.00">ematch_src/utils/graph</text>
<text text-anchor="start" x="2037.5" y="-95" font-family="Helvetica,sans-Serif" font-size="10.00">/run/printRandomRepresentative</text>
<text text-anchor="middle" x="2122.5" y="-84" font-family="Helvetica,sans-Serif" font-size="10.00">FromEachConnectedComponent.cc</text>
</a>
</g>
</g>
<!-- Node4&#45;&gt;Node26 -->
<g id="edge25_Node000004_Node000026" class="edge">
<title>Node4&#45;&gt;Node26</title>
<g id="a_edge25_Node000004_Node000026"><a xlink:title=" ">
<path fill="none" stroke="#63b8ff" d="M1635.3,-163.16C1737.45,-153.55 1889.13,-137.77 2020.5,-118 2023.44,-117.56 2026.43,-117.09 2029.44,-116.6"/>
<polygon fill="#63b8ff" stroke="#63b8ff" points="1634.89,-159.68 1625.26,-164.09 1635.54,-166.65 1634.89,-159.68"/>
</a>
</g>
</g>
<!-- Node27 -->
<g id="Node000027" class="node">
<title>Node27</title>
<g id="a_Node000027"><a xlink:href="SerialNumbersForStrings_8cc.html" target="_top" xlink:title=" ">
<polygon fill="white" stroke="#666666" points="2449,-118 2234,-118 2234,-77 2449,-77 2449,-118"/>
<text text-anchor="start" x="2242" y="-106" font-family="Helvetica,sans-Serif" font-size="10.00">ematch_src/utils/serialNumbers</text>
<text text-anchor="start" x="2242" y="-95" font-family="Helvetica,sans-Serif" font-size="10.00">/SerialNumbersForStrings/SerialNumbers</text>
<text text-anchor="middle" x="2341.5" y="-84" font-family="Helvetica,sans-Serif" font-size="10.00">ForStrings.cc</text>
</a>
</g>
</g>
<!-- Node4&#45;&gt;Node27 -->
<g id="edge26_Node000004_Node000027" class="edge">
<title>Node4&#45;&gt;Node27</title>
<g id="a_edge26_Node000004_Node000027"><a xlink:title=" ">
<path fill="none" stroke="#63b8ff" d="M1635.66,-167.37C1776.3,-159.34 2018.09,-143.25 2224.5,-118 2227.57,-117.62 2230.67,-117.23 2233.81,-116.81"/>
<polygon fill="#63b8ff" stroke="#63b8ff" points="1635.08,-163.9 1625.29,-167.96 1635.47,-170.88 1635.08,-163.9"/>
</a>
</g>
</g>
<!-- Node28 -->
<g id="Node000028" class="node">
<title>Node28</title>
<g id="a_Node000028"><a xlink:href="SerialNumbersForStrings__accessCounting_8hh.html" target="_top" xlink:title=" ">
<polygon fill="white" stroke="#666666" points="2682,-118 2467,-118 2467,-77 2682,-77 2682,-118"/>
<text text-anchor="start" x="2475" y="-106" font-family="Helvetica,sans-Serif" font-size="10.00">ematch_src/utils/serialNumbers</text>
<text text-anchor="start" x="2475" y="-95" font-family="Helvetica,sans-Serif" font-size="10.00">/SerialNumbersForStrings/SerialNumbers</text>
<text text-anchor="middle" x="2574.5" y="-84" font-family="Helvetica,sans-Serif" font-size="10.00">ForStrings_accessCounting.hh</text>
</a>
</g>
</g>
<!-- Node4&#45;&gt;Node28 -->
<g id="edge27_Node000004_Node000028" class="edge">
<title>Node4&#45;&gt;Node28</title>
<g id="a_edge27_Node000004_Node000028"><a xlink:title=" ">
<path fill="none" stroke="#63b8ff" d="M1635.28,-170.62C1813.8,-165.34 2163.39,-151.41 2458.5,-118 2461.24,-117.69 2464.01,-117.36 2466.81,-117.01"/>
<polygon fill="#63b8ff" stroke="#63b8ff" points="1634.97,-167.13 1625.07,-170.92 1635.17,-174.13 1634.97,-167.13"/>
</a>
</g>
</g>
<!-- Node6 -->
<g id="Node000006" class="node">
<title>Node6</title>
<g id="a_Node000006"><a xlink:href="graph_2MatrixGraph_8cc.html" target="_top" xlink:title=" ">
<polygon fill="white" stroke="#666666" points="181,-30 0,-30 0,-11 181,-11 181,-30"/>
<text text-anchor="middle" x="90.5" y="-18" font-family="Helvetica,sans-Serif" font-size="10.00">ematch_src/graph/MatrixGraph.cc</text>
</a>
</g>
</g>
<!-- Node5&#45;&gt;Node6 -->
<g id="edge5_Node000005_Node000006" class="edge">
<title>Node5&#45;&gt;Node6</title>
<g id="a_edge5_Node000005_Node000006"><a xlink:title=" ">
<path fill="none" stroke="#63b8ff" d="M338.36,-85.38C279.79,-70.29 176.39,-43.64 123.57,-30.02"/>
<polygon fill="#63b8ff" stroke="#63b8ff" points="337.84,-88.86 348.4,-87.97 339.59,-82.08 337.84,-88.86"/>
</a>
</g>
</g>
<!-- Node7 -->
<g id="Node000007" class="node">
<title>Node7</title>
<g id="a_Node000007"><a xlink:href="graph_2test_2testConnectedComponentOnlineComputer_8cc.html" target="_top" xlink:title=" ">
<polygon fill="white" stroke="#666666" points="377.5,-41 199.5,-41 199.5,0 377.5,0 377.5,-41"/>
<text text-anchor="start" x="207.5" y="-29" font-family="Helvetica,sans-Serif" font-size="10.00">ematch_src/graph/test</text>
<text text-anchor="start" x="207.5" y="-18" font-family="Helvetica,sans-Serif" font-size="10.00">/testConnectedComponentOnline</text>
<text text-anchor="middle" x="288.5" y="-7" font-family="Helvetica,sans-Serif" font-size="10.00">Computer.cc</text>
</a>
</g>
</g>
<!-- Node5&#45;&gt;Node7 -->
<g id="edge6_Node000005_Node000007" class="edge">
<title>Node5&#45;&gt;Node7</title>
<g id="a_edge6_Node000005_Node000007"><a xlink:title=" ">
<path fill="none" stroke="#63b8ff" d="M362.71,-81.35C348.37,-69.79 328.51,-53.76 312.94,-41.21"/>
<polygon fill="#63b8ff" stroke="#63b8ff" points="360.85,-84.34 370.83,-87.9 365.24,-78.89 360.85,-84.34"/>
</a>
</g>
</g>
<!-- Node8 -->
<g id="Node000008" class="node">
<title>Node8</title>
<g id="a_Node000008"><a xlink:href="graph_2test_2testMatrixGraph_8cc.html" target="_top" xlink:title=" ">
<polygon fill="white" stroke="#666666" points="520,-35.5 395,-35.5 395,-5.5 520,-5.5 520,-35.5"/>
<text text-anchor="start" x="403" y="-23.5" font-family="Helvetica,sans-Serif" font-size="10.00">ematch_src/graph/test</text>
<text text-anchor="middle" x="457.5" y="-12.5" font-family="Helvetica,sans-Serif" font-size="10.00">/testMatrixGraph.cc</text>
</a>
</g>
</g>
<!-- Node5&#45;&gt;Node8 -->
<g id="edge7_Node000005_Node000008" class="edge">
<title>Node5&#45;&gt;Node8</title>
<g id="a_edge7_Node000005_Node000008"><a xlink:title=" ">
<path fill="none" stroke="#63b8ff" d="M397.43,-80.78C410.95,-67.44 430.17,-48.47 443.2,-35.61"/>
<polygon fill="#63b8ff" stroke="#63b8ff" points="394.88,-78.38 390.22,-87.9 399.79,-83.36 394.88,-78.38"/>
</a>
</g>
</g>
<!-- Node10 -->
<g id="Node000010" class="node">
<title>Node10</title>
<g id="a_Node000010"><a xlink:href="graph_2NeighborListGraph_8cc.html" target="_top" xlink:title=" ">
<polygon fill="white" stroke="#666666" points="689,-35.5 538,-35.5 538,-5.5 689,-5.5 689,-35.5"/>
<text text-anchor="start" x="546" y="-23.5" font-family="Helvetica,sans-Serif" font-size="10.00">ematch_src/graph/Neighbor</text>
<text text-anchor="middle" x="613.5" y="-12.5" font-family="Helvetica,sans-Serif" font-size="10.00">ListGraph.cc</text>
</a>
</g>
</g>
<!-- Node9&#45;&gt;Node10 -->
<g id="edge9_Node000009_Node000010" class="edge">
<title>Node9&#45;&gt;Node10</title>
<g id="a_edge9_Node000009_Node000010"><a xlink:title=" ">
<path fill="none" stroke="#63b8ff" d="M631.96,-72.78C627.55,-60.53 622.32,-46 618.56,-35.54"/>
<polygon fill="#63b8ff" stroke="#63b8ff" points="628.74,-74.17 635.42,-82.39 635.33,-71.8 628.74,-74.17"/>
</a>
</g>
</g>
<!-- Node11 -->
<g id="Node000011" class="node">
<title>Node11</title>
<g id="a_Node000011"><a xlink:href="graph_2run_2runAllShortestEdgeLengthPaths_8cc.html" target="_top" xlink:title=" ">
<polygon fill="white" stroke="#666666" points="892,-35.5 707,-35.5 707,-5.5 892,-5.5 892,-35.5"/>
<text text-anchor="start" x="715" y="-23.5" font-family="Helvetica,sans-Serif" font-size="10.00">ematch_src/graph/run</text>
<text text-anchor="middle" x="799.5" y="-12.5" font-family="Helvetica,sans-Serif" font-size="10.00">/runAllShortestEdgeLengthPaths.cc</text>
</a>
</g>
</g>
<!-- Node9&#45;&gt;Node11 -->
<g id="edge10_Node000009_Node000011" class="edge">
<title>Node9&#45;&gt;Node11</title>
<g id="a_edge10_Node000009_Node000011"><a xlink:title=" ">
<path fill="none" stroke="#63b8ff" d="M679.47,-78.12C707.32,-64.98 744.23,-47.57 769.73,-35.54"/>
<polygon fill="#63b8ff" stroke="#63b8ff" points="677.96,-74.96 670.41,-82.39 680.94,-81.29 677.96,-74.96"/>
</a>
</g>
</g>
<!-- Node15 -->
<g id="Node000015" class="node">
<title>Node15</title>
<g id="a_Node000015"><a xlink:href="ConstantLabeledSquareDoubleFLENumMatrix_8cc.html" target="_top" xlink:title=" ">
<polygon fill="white" stroke="#666666" points="1120.5,-41 910.5,-41 910.5,0 1120.5,0 1120.5,-41"/>
<text text-anchor="start" x="918.5" y="-29" font-family="Helvetica,sans-Serif" font-size="10.00">ematch_src/utils/FLArray</text>
<text text-anchor="start" x="918.5" y="-18" font-family="Helvetica,sans-Serif" font-size="10.00">/ConstantLabeledSquareDoubleFLENum</text>
<text text-anchor="middle" x="1015.5" y="-7" font-family="Helvetica,sans-Serif" font-size="10.00">Matrix.cc</text>
</a>
</g>
</g>
<!-- Node14&#45;&gt;Node15 -->
<g id="edge14_Node000014_Node000015" class="edge">
<title>Node14&#45;&gt;Node15</title>
<g id="a_edge14_Node000014_Node000015"><a xlink:title=" ">
<path fill="none" stroke="#63b8ff" d="M1155.99,-73.4C1127.94,-63.04 1095.2,-50.95 1068.39,-41.04"/>
<polygon fill="#63b8ff" stroke="#63b8ff" points="1155.1,-76.81 1165.69,-76.99 1157.53,-70.24 1155.1,-76.81"/>
</a>
</g>
</g>
<!-- Node16 -->
<g id="Node000016" class="node">
<title>Node16</title>
<g id="a_Node000016"><a xlink:href="isConstantLabeledSquareDoubleFLENumMatrixSymmetric_8cc.html" target="_top" xlink:title=" ">
<polygon fill="white" stroke="#666666" points="1336,-41 1139,-41 1139,0 1336,0 1336,-41"/>
<text text-anchor="start" x="1147" y="-29" font-family="Helvetica,sans-Serif" font-size="10.00">ematch_src/utils/FLArray</text>
<text text-anchor="start" x="1147" y="-18" font-family="Helvetica,sans-Serif" font-size="10.00">/run/isConstantLabeledSquareDouble</text>
<text text-anchor="middle" x="1237.5" y="-7" font-family="Helvetica,sans-Serif" font-size="10.00">FLENumMatrixSymmetric.cc</text>
</a>
</g>
</g>
<!-- Node14&#45;&gt;Node16 -->
<g id="edge15_Node000014_Node000016" class="edge">
<title>Node14&#45;&gt;Node16</title>
<g id="a_edge15_Node000014_Node000016"><a xlink:title=" ">
<path fill="none" stroke="#63b8ff" d="M1225.98,-66.98C1228.18,-58.28 1230.54,-48.98 1232.54,-41.07"/>
<polygon fill="#63b8ff" stroke="#63b8ff" points="1222.56,-66.24 1223.49,-76.79 1229.34,-67.96 1222.56,-66.24"/>
</a>
</g>
</g>
<!-- Node19 -->
<g id="Node000019" class="node">
<title>Node19</title>
<g id="a_Node000019"><a xlink:href="utils_2graph_2MatrixGraph_8cc.html" target="_top" xlink:title=" ">
<polygon fill="white" stroke="#666666" points="1482.5,-35.5 1354.5,-35.5 1354.5,-5.5 1482.5,-5.5 1482.5,-35.5"/>
<text text-anchor="start" x="1362.5" y="-23.5" font-family="Helvetica,sans-Serif" font-size="10.00">ematch_src/utils/graph</text>
<text text-anchor="middle" x="1418.5" y="-12.5" font-family="Helvetica,sans-Serif" font-size="10.00">/MatrixGraph.cc</text>
</a>
</g>
</g>
<!-- Node18&#45;&gt;Node19 -->
<g id="edge18_Node000018_Node000019" class="edge">
<title>Node18&#45;&gt;Node19</title>
<g id="a_edge18_Node000018_Node000019"><a xlink:title=" ">
<path fill="none" stroke="#63b8ff" d="M1559.42,-78.63C1526.87,-65.43 1483.2,-47.73 1453.14,-35.54"/>
<polygon fill="#63b8ff" stroke="#63b8ff" points="1558.12,-81.88 1568.7,-82.39 1560.75,-75.39 1558.12,-81.88"/>
</a>
</g>
</g>
<!-- Node20 -->
<g id="Node000020" class="node">
<title>Node20</title>
<g id="a_Node000020"><a xlink:href="utils_2graph_2test_2testConnectedComponentOnlineComputer_8cc.html" target="_top" xlink:title=" ">
<polygon fill="white" stroke="#666666" points="1668.5,-41 1500.5,-41 1500.5,0 1668.5,0 1668.5,-41"/>
<text text-anchor="start" x="1508.5" y="-29" font-family="Helvetica,sans-Serif" font-size="10.00">ematch_src/utils/graph</text>
<text text-anchor="start" x="1508.5" y="-18" font-family="Helvetica,sans-Serif" font-size="10.00">/test/testConnectedComponent</text>
<text text-anchor="middle" x="1584.5" y="-7" font-family="Helvetica,sans-Serif" font-size="10.00">OnlineComputer.cc</text>
</a>
</g>
</g>
<!-- Node18&#45;&gt;Node20 -->
<g id="edge19_Node000018_Node000020" class="edge">
<title>Node18&#45;&gt;Node20</title>
<g id="a_edge19_Node000018_Node000020"><a xlink:title=" ">
<path fill="none" stroke="#63b8ff" d="M1597.43,-72.55C1594.87,-62.44 1591.92,-50.81 1589.49,-41.2"/>
<polygon fill="#63b8ff" stroke="#63b8ff" points="1594.08,-73.56 1599.93,-82.39 1600.86,-71.84 1594.08,-73.56"/>
</a>
</g>
</g>
<!-- Node21 -->
<g id="Node000021" class="node">
<title>Node21</title>
<g id="a_Node000021"><a xlink:href="utils_2graph_2test_2testMatrixGraph_8cc.html" target="_top" xlink:title=" ">
<polygon fill="white" stroke="#666666" points="1820.5,-35.5 1686.5,-35.5 1686.5,-5.5 1820.5,-5.5 1820.5,-35.5"/>
<text text-anchor="start" x="1694.5" y="-23.5" font-family="Helvetica,sans-Serif" font-size="10.00">ematch_src/utils/graph</text>
<text text-anchor="middle" x="1753.5" y="-12.5" font-family="Helvetica,sans-Serif" font-size="10.00">/test/testMatrixGraph.cc</text>
</a>
</g>
</g>
<!-- Node18&#45;&gt;Node21 -->
<g id="edge20_Node000018_Node000021" class="edge">
<title>Node18&#45;&gt;Node21</title>
<g id="a_edge20_Node000018_Node000021"><a xlink:title=" ">
<path fill="none" stroke="#63b8ff" d="M1640.96,-77.77C1667.15,-64.68 1701.57,-47.47 1725.41,-35.54"/>
<polygon fill="#63b8ff" stroke="#63b8ff" points="1639.09,-74.79 1631.71,-82.39 1642.22,-81.05 1639.09,-74.79"/>
</a>
</g>
</g>
<!-- Node23 -->
<g id="Node000023" class="node">
<title>Node23</title>
<g id="a_Node000023"><a xlink:href="utils_2graph_2NeighborListGraph_8cc.html" target="_top" xlink:title=" ">
<polygon fill="white" stroke="#666666" points="1966.5,-35.5 1838.5,-35.5 1838.5,-5.5 1966.5,-5.5 1966.5,-35.5"/>
<text text-anchor="start" x="1846.5" y="-23.5" font-family="Helvetica,sans-Serif" font-size="10.00">ematch_src/utils/graph</text>
<text text-anchor="middle" x="1902.5" y="-12.5" font-family="Helvetica,sans-Serif" font-size="10.00">/NeighborListGraph.cc</text>
</a>
</g>
</g>
<!-- Node22&#45;&gt;Node23 -->
<g id="edge22_Node000022_Node000023" class="edge">
<title>Node22&#45;&gt;Node23</title>
<g id="a_edge22_Node000022_Node000023"><a xlink:title=" ">
<path fill="none" stroke="#63b8ff" d="M1787.35,-77.94C1814.11,-64.83 1849.42,-47.52 1873.85,-35.54"/>
<polygon fill="#63b8ff" stroke="#63b8ff" points="1785.72,-74.85 1778.28,-82.39 1788.8,-81.13 1785.72,-74.85"/>
</a>
</g>
</g>
<!-- Node24 -->
<g id="Node000024" class="node">
<title>Node24</title>
<g id="a_Node000024"><a xlink:href="utils_2graph_2run_2runAllShortestEdgeLengthPaths_8cc.html" target="_top" xlink:title=" ">
<polygon fill="white" stroke="#666666" points="2148.5,-41 1984.5,-41 1984.5,0 2148.5,0 2148.5,-41"/>
<text text-anchor="start" x="1992.5" y="-29" font-family="Helvetica,sans-Serif" font-size="10.00">ematch_src/utils/graph</text>
<text text-anchor="start" x="1992.5" y="-18" font-family="Helvetica,sans-Serif" font-size="10.00">/run/runAllShortestEdgeLength</text>
<text text-anchor="middle" x="2066.5" y="-7" font-family="Helvetica,sans-Serif" font-size="10.00">Paths.cc</text>
</a>
</g>
</g>
<!-- Node22&#45;&gt;Node24 -->
<g id="edge23_Node000022_Node000024" class="edge">
<title>Node22&#45;&gt;Node24</title>
<g id="a_edge23_Node000022_Node000024"><a xlink:title=" ">
<path fill="none" stroke="#63b8ff" d="M1810.98,-79.9C1814.87,-78.9 1818.74,-77.93 1822.5,-77 1876.27,-63.71 1937.01,-49.89 1984.43,-39.37"/>
<polygon fill="#63b8ff" stroke="#63b8ff" points="1810.08,-76.52 1801.28,-82.41 1811.84,-83.29 1810.08,-76.52"/>
</a>
</g>
</g>
</g>
</svg>
