<?xml version="1.0" encoding="UTF-8" standalone="no"?>
<!DOCTYPE svg PUBLIC "-//W3C//DTD SVG 1.1//EN"
 "http://www.w3.org/Graphics/SVG/1.1/DTD/svg11.dtd">
<!-- Generated by graphviz version 2.43.0 (0)
 -->
<!-- Title: ematch_src/utils/ChainHashtable/StringKeyHashtable.hh Pages: 1 -->
<svg width="1451pt" height="258pt"
 viewBox="0.00 0.00 1451.00 258.00" xmlns="http://www.w3.org/2000/svg" xmlns:xlink="http://www.w3.org/1999/xlink">
<g id="graph0" class="graph" transform="scale(1 1) rotate(0) translate(4 254)">
<title>ematch_src/utils/ChainHashtable/StringKeyHashtable.hh</title>
<!-- Node1 -->
<g id="Node000001" class="node">
<title>Node1</title>
<g id="a_Node000001"><a xlink:title=" ">
<polygon fill="#999999" stroke="#666666" points="379.5,-250 202.5,-250 202.5,-220 379.5,-220 379.5,-250"/>
<text text-anchor="start" x="210.5" y="-238" font-family="Helvetica,sans-Serif" font-size="10.00">ematch_src/utils/ChainHashtable</text>
<text text-anchor="middle" x="291" y="-227" font-family="Helvetica,sans-Serif" font-size="10.00">/StringKeyHashtable.hh</text>
</a>
</g>
</g>
<!-- Node2 -->
<g id="Node000002" class="node">
<title>Node2</title>
<g id="a_Node000002"><a xlink:href="testStringKeyHashtableSpeed_8cc.html" target="_top" xlink:title=" ">
<polygon fill="white" stroke="#666666" points="200,-184 0,-184 0,-154 200,-154 200,-184"/>
<text text-anchor="start" x="8" y="-172" font-family="Helvetica,sans-Serif" font-size="10.00">ematch_src/utils/ChainHashtable</text>
<text text-anchor="middle" x="100" y="-161" font-family="Helvetica,sans-Serif" font-size="10.00">/test/testStringKeyHashtableSpeed.cc</text>
</a>
</g>
</g>
<!-- Node1&#45;&gt;Node2 -->
<g id="edge1_Node000001_Node000002" class="edge">
<title>Node1&#45;&gt;Node2</title>
<g id="a_edge1_Node000001_Node000002"><a xlink:title=" ">
<path fill="none" stroke="#63b8ff" d="M239.44,-216.72C208.84,-206.47 170.53,-193.63 141.82,-184.01"/>
<polygon fill="#63b8ff" stroke="#63b8ff" points="238.49,-220.1 249.08,-219.95 240.71,-213.46 238.49,-220.1"/>
</a>
</g>
</g>
<!-- Node3 -->
<g id="Node000003" class="node">
<title>Node3</title>
<g id="a_Node000003"><a xlink:href="LabeledSequences_8hh.html" target="_top" xlink:title=" ">
<polygon fill="white" stroke="#666666" points="364,-184 218,-184 218,-154 364,-154 364,-184"/>
<text text-anchor="start" x="226" y="-172" font-family="Helvetica,sans-Serif" font-size="10.00">ematch_src/utils/sequence</text>
<text text-anchor="middle" x="291" y="-161" font-family="Helvetica,sans-Serif" font-size="10.00">/LabeledSequences.hh</text>
</a>
</g>
</g>
<!-- Node1&#45;&gt;Node3 -->
<g id="edge2_Node000001_Node000003" class="edge">
<title>Node1&#45;&gt;Node3</title>
<g id="a_edge2_Node000001_Node000003"><a xlink:title=" ">
<path fill="none" stroke="#63b8ff" d="M291,-209.54C291,-200.96 291,-191.61 291,-184.16"/>
<polygon fill="#63b8ff" stroke="#63b8ff" points="287.5,-209.8 291,-219.8 294.5,-209.8 287.5,-209.8"/>
</a>
</g>
</g>
<!-- Node5 -->
<g id="Node000005" class="node">
<title>Node5</title>
<g id="a_Node000005"><a xlink:href="Blast8ResultReader_8hh.html" target="_top" xlink:title=" ">
<polygon fill="white" stroke="#666666" points="685,-184 515,-184 515,-154 685,-154 685,-184"/>
<text text-anchor="start" x="523" y="-172" font-family="Helvetica,sans-Serif" font-size="10.00">ematch_src/utils/sequence</text>
<text text-anchor="middle" x="600" y="-161" font-family="Helvetica,sans-Serif" font-size="10.00">/readers/Blast8ResultReader.hh</text>
</a>
</g>
</g>
<!-- Node1&#45;&gt;Node5 -->
<g id="edge4_Node000001_Node000005" class="edge">
<title>Node1&#45;&gt;Node5</title>
<g id="a_edge4_Node000001_Node000005"><a xlink:title=" ">
<path fill="none" stroke="#63b8ff" d="M368.68,-217.91C419.07,-207.47 484.08,-194.01 532.35,-184.01"/>
<polygon fill="#63b8ff" stroke="#63b8ff" points="367.89,-214.5 358.81,-219.95 369.31,-221.35 367.89,-214.5"/>
</a>
</g>
</g>
<!-- Node4 -->
<g id="Node000004" class="node">
<title>Node4</title>
<g id="a_Node000004"><a xlink:href="LabeledSequences_8cc.html" target="_top" xlink:title=" ">
<polygon fill="white" stroke="#666666" points="231,-112.5 85,-112.5 85,-82.5 231,-82.5 231,-112.5"/>
<text text-anchor="start" x="93" y="-100.5" font-family="Helvetica,sans-Serif" font-size="10.00">ematch_src/utils/sequence</text>
<text text-anchor="middle" x="158" y="-89.5" font-family="Helvetica,sans-Serif" font-size="10.00">/LabeledSequences.cc</text>
</a>
</g>
</g>
<!-- Node3&#45;&gt;Node4 -->
<g id="edge3_Node000003_Node000004" class="edge">
<title>Node3&#45;&gt;Node4</title>
<g id="a_edge3_Node000003_Node000004"><a xlink:title=" ">
<path fill="none" stroke="#63b8ff" d="M255,-149.19C232.9,-137.64 205.05,-123.09 184.87,-112.54"/>
<polygon fill="#63b8ff" stroke="#63b8ff" points="253.6,-152.41 264.09,-153.94 256.84,-146.2 253.6,-152.41"/>
</a>
</g>
</g>
<!-- Node6 -->
<g id="Node000006" class="node">
<title>Node6</title>
<g id="a_Node000006"><a xlink:href="Blast8ResultReader_8cc.html" target="_top" xlink:title=" ">
<polygon fill="white" stroke="#666666" points="1443,-112.5 1275,-112.5 1275,-82.5 1443,-82.5 1443,-112.5"/>
<text text-anchor="start" x="1283" y="-100.5" font-family="Helvetica,sans-Serif" font-size="10.00">ematch_src/utils/sequence</text>
<text text-anchor="middle" x="1359" y="-89.5" font-family="Helvetica,sans-Serif" font-size="10.00">/readers/Blast8ResultReader.cc</text>
</a>
</g>
</g>
<!-- Node5&#45;&gt;Node6 -->
<g id="edge5_Node000005_Node000006" class="edge">
<title>Node5&#45;&gt;Node6</title>
<g id="a_edge5_Node000005_Node000006"><a xlink:title=" ">
<path fill="none" stroke="#63b8ff" d="M695.31,-164.79C824.97,-159.53 1063.97,-146.64 1266,-118 1276.37,-116.53 1287.32,-114.59 1297.92,-112.5"/>
<polygon fill="#63b8ff" stroke="#63b8ff" points="694.87,-161.31 685.02,-165.2 695.15,-168.3 694.87,-161.31"/>
</a>
</g>
</g>
<!-- Node7 -->
<g id="Node000007" class="node">
<title>Node7</title>
<g id="a_Node000007"><a xlink:href="BlastEValuesByClass_8hh.html" target="_top" xlink:title=" ">
<polygon fill="white" stroke="#666666" points="463,-112.5 287,-112.5 287,-82.5 463,-82.5 463,-112.5"/>
<text text-anchor="start" x="295" y="-100.5" font-family="Helvetica,sans-Serif" font-size="10.00">ematch_src/utils/sequence</text>
<text text-anchor="middle" x="375" y="-89.5" font-family="Helvetica,sans-Serif" font-size="10.00">/readers/BlastEValuesByClass.hh</text>
</a>
</g>
</g>
<!-- Node5&#45;&gt;Node7 -->
<g id="edge6_Node000005_Node000007" class="edge">
<title>Node5&#45;&gt;Node7</title>
<g id="a_edge6_Node000005_Node000007"><a xlink:title=" ">
<path fill="none" stroke="#63b8ff" d="M544.54,-150.87C506.37,-139.08 456.28,-123.61 420.46,-112.54"/>
<polygon fill="#63b8ff" stroke="#63b8ff" points="543.88,-154.33 554.47,-153.94 545.95,-147.64 543.88,-154.33"/>
</a>
</g>
</g>
<!-- Node9 -->
<g id="Node000009" class="node">
<title>Node9</title>
<g id="a_Node000009"><a xlink:href="labeledBlastToOddsRatio_8cc.html" target="_top" xlink:title=" ">
<polygon fill="white" stroke="#666666" points="269,-41 95,-41 95,0 269,0 269,-41"/>
<text text-anchor="start" x="103" y="-29" font-family="Helvetica,sans-Serif" font-size="10.00">ematch_src/utils/sequence</text>
<text text-anchor="start" x="103" y="-18" font-family="Helvetica,sans-Serif" font-size="10.00">/readers/run/labeledBlastToOdds</text>
<text text-anchor="middle" x="182" y="-7" font-family="Helvetica,sans-Serif" font-size="10.00">Ratio.cc</text>
</a>
</g>
</g>
<!-- Node5&#45;&gt;Node9 -->
<g id="edge12_Node000005_Node000009" class="edge">
<title>Node5&#45;&gt;Node9</title>
<g id="a_edge12_Node000005_Node000009"><a xlink:title=" ">
<path fill="none" stroke="#63b8ff" d="M504.81,-160.17C424.38,-152.29 316.32,-138.38 278,-118 256.06,-106.34 257.43,-94.71 240,-77 228.07,-64.88 214.34,-51.71 203.23,-41.24"/>
<polygon fill="#63b8ff" stroke="#63b8ff" points="504.69,-163.67 514.98,-161.14 505.36,-156.7 504.69,-163.67"/>
</a>
</g>
</g>
<!-- Node10 -->
<g id="Node000010" class="node">
<title>Node10</title>
<g id="a_Node000010"><a xlink:href="runDumpBlastNNUtility_8cc.html" target="_top" xlink:title=" ">
<polygon fill="white" stroke="#666666" points="685.5,-35.5 480.5,-35.5 480.5,-5.5 685.5,-5.5 685.5,-35.5"/>
<text text-anchor="start" x="488.5" y="-23.5" font-family="Helvetica,sans-Serif" font-size="10.00">ematch_src/utils/sequence</text>
<text text-anchor="middle" x="583" y="-12.5" font-family="Helvetica,sans-Serif" font-size="10.00">/readers/run/runDumpBlastNNUtility.cc</text>
</a>
</g>
</g>
<!-- Node5&#45;&gt;Node10 -->
<g id="edge15_Node000005_Node000010" class="edge">
<title>Node5&#45;&gt;Node10</title>
<g id="a_edge15_Node000005_Node000010"><a xlink:title=" ">
<path fill="none" stroke="#63b8ff" d="M545.18,-149.33C531.28,-141.84 518.03,-131.65 510,-118 500.76,-102.29 501.9,-93.33 510,-77 519.05,-58.74 537.3,-44.87 553.29,-35.56"/>
<polygon fill="#63b8ff" stroke="#63b8ff" points="543.84,-152.57 554.35,-153.87 546.95,-146.3 543.84,-152.57"/>
</a>
</g>
</g>
<!-- Node11 -->
<g id="Node000011" class="node">
<title>Node11</title>
<g id="a_Node000011"><a xlink:href="filterBlast8ResultEValueThreshold_8cc.html" target="_top" xlink:title=" ">
<polygon fill="white" stroke="#666666" points="681,-118 519,-118 519,-77 681,-77 681,-118"/>
<text text-anchor="start" x="527" y="-106" font-family="Helvetica,sans-Serif" font-size="10.00">ematch_src/utils/sequence</text>
<text text-anchor="start" x="527" y="-95" font-family="Helvetica,sans-Serif" font-size="10.00">/readers/run/filterBlast8Result</text>
<text text-anchor="middle" x="600" y="-84" font-family="Helvetica,sans-Serif" font-size="10.00">EValueThreshold.cc</text>
</a>
</g>
</g>
<!-- Node5&#45;&gt;Node11 -->
<g id="edge10_Node000005_Node000011" class="edge">
<title>Node5&#45;&gt;Node11</title>
<g id="a_edge10_Node000005_Node000011"><a xlink:title=" ">
<path fill="none" stroke="#63b8ff" d="M600,-143.91C600,-135.47 600,-126.1 600,-118.07"/>
<polygon fill="#63b8ff" stroke="#63b8ff" points="596.5,-143.94 600,-153.94 603.5,-143.94 596.5,-143.94"/>
</a>
</g>
</g>
<!-- Node12 -->
<g id="Node000012" class="node">
<title>Node12</title>
<g id="a_Node000012"><a xlink:href="filterSameClassHighBlast_8cc.html" target="_top" xlink:title=" ">
<polygon fill="white" stroke="#666666" points="876.5,-118 699.5,-118 699.5,-77 876.5,-77 876.5,-118"/>
<text text-anchor="start" x="707.5" y="-106" font-family="Helvetica,sans-Serif" font-size="10.00">ematch_src/utils/sequence</text>
<text text-anchor="start" x="707.5" y="-95" font-family="Helvetica,sans-Serif" font-size="10.00">/readers/run/filterSameClassHigh</text>
<text text-anchor="middle" x="788" y="-84" font-family="Helvetica,sans-Serif" font-size="10.00">Blast.cc</text>
</a>
</g>
</g>
<!-- Node5&#45;&gt;Node12 -->
<g id="edge11_Node000005_Node000012" class="edge">
<title>Node5&#45;&gt;Node12</title>
<g id="a_edge11_Node000005_Node000012"><a xlink:title=" ">
<path fill="none" stroke="#63b8ff" d="M647.55,-150.42C674.22,-140.56 707.55,-128.24 735.05,-118.07"/>
<polygon fill="#63b8ff" stroke="#63b8ff" points="646.21,-147.19 638.04,-153.94 648.64,-153.75 646.21,-147.19"/>
</a>
</g>
</g>
<!-- Node13 -->
<g id="Node000013" class="node">
<title>Node13</title>
<g id="a_Node000013"><a xlink:href="printBlast8ResultNegLgEValues_8cc.html" target="_top" xlink:title=" ">
<polygon fill="white" stroke="#666666" points="1057,-118 895,-118 895,-77 1057,-77 1057,-118"/>
<text text-anchor="start" x="903" y="-106" font-family="Helvetica,sans-Serif" font-size="10.00">ematch_src/utils/sequence</text>
<text text-anchor="start" x="903" y="-95" font-family="Helvetica,sans-Serif" font-size="10.00">/readers/run/printBlast8Result</text>
<text text-anchor="middle" x="976" y="-84" font-family="Helvetica,sans-Serif" font-size="10.00">NegLgEValues.cc</text>
</a>
</g>
</g>
<!-- Node5&#45;&gt;Node13 -->
<g id="edge13_Node000005_Node000013" class="edge">
<title>Node5&#45;&gt;Node13</title>
<g id="a_edge13_Node000005_Node000013"><a xlink:title=" ">
<path fill="none" stroke="#63b8ff" d="M695.47,-152.3C751.15,-142.9 822.67,-130.39 886,-118 888.82,-117.45 891.7,-116.88 894.6,-116.29"/>
<polygon fill="#63b8ff" stroke="#63b8ff" points="694.54,-148.91 685.26,-154.02 695.71,-155.81 694.54,-148.91"/>
</a>
</g>
</g>
<!-- Node14 -->
<g id="Node000014" class="node">
<title>Node14</title>
<g id="a_Node000014"><a xlink:href="printNormalizedBlastSimilarity_8cc.html" target="_top" xlink:title=" ">
<polygon fill="white" stroke="#666666" points="1257,-118 1075,-118 1075,-77 1257,-77 1257,-118"/>
<text text-anchor="start" x="1083" y="-106" font-family="Helvetica,sans-Serif" font-size="10.00">ematch_src/utils/sequence</text>
<text text-anchor="start" x="1083" y="-95" font-family="Helvetica,sans-Serif" font-size="10.00">/readers/run/printNormalizedBlast</text>
<text text-anchor="middle" x="1166" y="-84" font-family="Helvetica,sans-Serif" font-size="10.00">Similarity.cc</text>
</a>
</g>
</g>
<!-- Node5&#45;&gt;Node14 -->
<g id="edge14_Node000005_Node000014" class="edge">
<title>Node5&#45;&gt;Node14</title>
<g id="a_edge14_Node000005_Node000014"><a xlink:title=" ">
<path fill="none" stroke="#63b8ff" d="M695.42,-160.17C789.82,-151.86 938.3,-137.27 1066,-118 1068.89,-117.56 1071.82,-117.1 1074.77,-116.62"/>
<polygon fill="#63b8ff" stroke="#63b8ff" points="694.97,-156.7 685.32,-161.06 695.58,-163.67 694.97,-156.7"/>
</a>
</g>
</g>
<!-- Node8 -->
<g id="Node000008" class="node">
<title>Node8</title>
<g id="a_Node000008"><a xlink:href="BlastEValuesByClass_8cc.html" target="_top" xlink:title=" ">
<polygon fill="white" stroke="#666666" points="462.5,-35.5 287.5,-35.5 287.5,-5.5 462.5,-5.5 462.5,-35.5"/>
<text text-anchor="start" x="295.5" y="-23.5" font-family="Helvetica,sans-Serif" font-size="10.00">ematch_src/utils/sequence</text>
<text text-anchor="middle" x="375" y="-12.5" font-family="Helvetica,sans-Serif" font-size="10.00">/readers/BlastEValuesByClass.cc</text>
</a>
</g>
</g>
<!-- Node7&#45;&gt;Node8 -->
<g id="edge7_Node000007_Node000008" class="edge">
<title>Node7&#45;&gt;Node8</title>
<g id="a_edge7_Node000007_Node000008"><a xlink:title=" ">
<path fill="none" stroke="#63b8ff" d="M375,-72.04C375,-59.95 375,-45.79 375,-35.54"/>
<polygon fill="#63b8ff" stroke="#63b8ff" points="371.5,-72.39 375,-82.39 378.5,-72.39 371.5,-72.39"/>
</a>
</g>
</g>
<!-- Node7&#45;&gt;Node9 -->
<g id="edge8_Node000007_Node000009" class="edge">
<title>Node7&#45;&gt;Node9</title>
<g id="a_edge8_Node000007_Node000009"><a xlink:title=" ">
<path fill="none" stroke="#63b8ff" d="M329.17,-78.69C300.04,-67.37 262.31,-52.71 232.34,-41.06"/>
<polygon fill="#63b8ff" stroke="#63b8ff" points="328.11,-82.03 338.7,-82.39 330.64,-75.51 328.11,-82.03"/>
</a>
</g>
</g>
<!-- Node7&#45;&gt;Node10 -->
<g id="edge9_Node000007_Node000010" class="edge">
<title>Node7&#45;&gt;Node10</title>
<g id="a_edge9_Node000007_Node000010"><a xlink:title=" ">
<path fill="none" stroke="#63b8ff" d="M423.63,-78.97C460.31,-65.74 509.97,-47.83 544.05,-35.54"/>
<polygon fill="#63b8ff" stroke="#63b8ff" points="422.34,-75.71 414.12,-82.39 424.72,-82.29 422.34,-75.71"/>
</a>
</g>
</g>
</g>
</svg>
