<?xml version="1.0" encoding="UTF-8" standalone="no"?>
<!DOCTYPE svg PUBLIC "-//W3C//DTD SVG 1.1//EN"
 "http://www.w3.org/Graphics/SVG/1.1/DTD/svg11.dtd">
<!-- Generated by graphviz version 2.43.0 (0)
 -->
<!-- Title: argT Pages: 1 -->
<svg width="241pt" height="360pt"
 viewBox="0.00 0.00 241.00 360.00" xmlns="http://www.w3.org/2000/svg" xmlns:xlink="http://www.w3.org/1999/xlink">
<g id="graph0" class="graph" transform="scale(1 1) rotate(0) translate(4 356)">
<title>argT</title>
<!-- Node1 -->
<g id="Node000001" class="node">
<title>Node1</title>
<g id="a_Node000001"><a xlink:title=" ">
<polygon fill="#999999" stroke="#666666" points="77,-19 39,-19 39,0 77,0 77,-19"/>
<text text-anchor="middle" x="58" y="-7" font-family="Helvetica,sans-Serif" font-size="10.00">argT</text>
</a>
</g>
</g>
<!-- Node2 -->
<g id="Node000002" class="node">
<title>Node2</title>
<g id="a_Node000002"><a xlink:title=" ">
<polygon fill="white" stroke="#666666" points="81.5,-125 6.5,-125 6.5,-106 81.5,-106 81.5,-125"/>
<text text-anchor="middle" x="44" y="-113" font-family="Helvetica,sans-Serif" font-size="10.00">std::istream</text>
</a>
</g>
</g>
<!-- Node2&#45;&gt;Node1 -->
<g id="edge1_Node000001_Node000002" class="edge">
<title>Node2&#45;&gt;Node1</title>
<g id="a_edge1_Node000001_Node000002"><a xlink:title=" ">
<path fill="none" stroke="#9a32cd" stroke-dasharray="5,2" d="M46.5,-95.93C49.55,-73.27 54.58,-35.91 56.84,-19.13"/>
<polygon fill="#9a32cd" stroke="#9a32cd" points="43.01,-95.61 45.15,-105.99 49.95,-96.55 43.01,-95.61"/>
</a>
</g>
<text text-anchor="middle" x="90.5" y="-80" font-family="Helvetica,sans-Serif" font-size="10.00" fill="grey"> fastaIstreamPtr</text>
<text text-anchor="middle" x="90.5" y="-69" font-family="Helvetica,sans-Serif" font-size="10.00" fill="grey">istreamPtr</text>
</g>
<!-- Node3 -->
<g id="Node000003" class="node">
<title>Node3</title>
<g id="a_Node000003"><a xlink:title=" ">
<polygon fill="white" stroke="#666666" points="106,-240 0,-240 0,-210 106,-210 106,-240"/>
<text text-anchor="start" x="8" y="-228" font-family="Helvetica,sans-Serif" font-size="10.00">std::basic_istream</text>
<text text-anchor="middle" x="53" y="-217" font-family="Helvetica,sans-Serif" font-size="10.00">&lt; Char &gt;</text>
</a>
</g>
</g>
<!-- Node3&#45;&gt;Node2 -->
<g id="edge2_Node000002_Node000003" class="edge">
<title>Node3&#45;&gt;Node2</title>
<g id="a_edge2_Node000002_Node000003"><a xlink:title=" ">
<path fill="none" stroke="#63b8ff" d="M50.99,-199.96C49,-176.28 46.08,-141.37 44.73,-125.25"/>
<polygon fill="#63b8ff" stroke="#63b8ff" points="47.5,-200.27 51.82,-209.95 54.48,-199.69 47.5,-200.27"/>
</a>
</g>
</g>
<!-- Node4 -->
<g id="Node000004" class="node">
<title>Node4</title>
<g id="a_Node000004"><a xlink:title=" ">
<polygon fill="white" stroke="#666666" points="178,-296 50,-296 50,-277 178,-277 178,-296"/>
<text text-anchor="middle" x="114" y="-284" font-family="Helvetica,sans-Serif" font-size="10.00">std::basic_ios&lt; Char &gt;</text>
</a>
</g>
</g>
<!-- Node4&#45;&gt;Node3 -->
<g id="edge3_Node000003_Node000004" class="edge">
<title>Node4&#45;&gt;Node3</title>
<g id="a_edge3_Node000003_Node000004"><a xlink:title=" ">
<path fill="none" stroke="#63b8ff" d="M97.97,-269.87C88.49,-260.61 76.56,-248.98 67.38,-240.02"/>
<polygon fill="#63b8ff" stroke="#63b8ff" points="95.66,-272.5 105.26,-276.98 100.55,-267.49 95.66,-272.5"/>
</a>
</g>
</g>
<!-- Node8 -->
<g id="Node000008" class="node">
<title>Node8</title>
<g id="a_Node000008"><a xlink:title=" ">
<polygon fill="white" stroke="#666666" points="230,-240 124,-240 124,-210 230,-210 230,-240"/>
<text text-anchor="start" x="132" y="-228" font-family="Helvetica,sans-Serif" font-size="10.00">std::basic_istream</text>
<text text-anchor="middle" x="177" y="-217" font-family="Helvetica,sans-Serif" font-size="10.00">&lt; Char &gt;</text>
</a>
</g>
</g>
<!-- Node4&#45;&gt;Node8 -->
<g id="edge8_Node000008_Node000004" class="edge">
<title>Node4&#45;&gt;Node8</title>
<g id="a_edge8_Node000008_Node000004"><a xlink:title=" ">
<path fill="none" stroke="#63b8ff" d="M130.55,-269.87C140.35,-260.61 152.67,-248.98 162.15,-240.02"/>
<polygon fill="#63b8ff" stroke="#63b8ff" points="127.89,-267.56 123.03,-276.98 132.7,-272.65 127.89,-267.56"/>
</a>
</g>
</g>
<!-- Node5 -->
<g id="Node000005" class="node">
<title>Node5</title>
<g id="a_Node000005"><a xlink:title=" ">
<polygon fill="white" stroke="#666666" points="154,-352 74,-352 74,-333 154,-333 154,-352"/>
<text text-anchor="middle" x="114" y="-340" font-family="Helvetica,sans-Serif" font-size="10.00">std::ios_base</text>
</a>
</g>
</g>
<!-- Node5&#45;&gt;Node4 -->
<g id="edge4_Node000004_Node000005" class="edge">
<title>Node5&#45;&gt;Node4</title>
<g id="a_edge4_Node000004_Node000005"><a xlink:title=" ">
<path fill="none" stroke="#63b8ff" d="M114,-322.3C114,-313.41 114,-303.28 114,-296.25"/>
<polygon fill="#63b8ff" stroke="#63b8ff" points="110.5,-322.58 114,-332.58 117.5,-322.58 110.5,-322.58"/>
</a>
</g>
</g>
<!-- Node6 -->
<g id="Node000006" class="node">
<title>Node6</title>
<g id="a_Node000006"><a xlink:title=" ">
<polygon fill="white" stroke="#666666" points="218.5,-86.5 139.5,-86.5 139.5,-67.5 218.5,-67.5 218.5,-86.5"/>
<text text-anchor="middle" x="179" y="-74.5" font-family="Helvetica,sans-Serif" font-size="10.00">std::ifstream</text>
</a>
</g>
</g>
<!-- Node6&#45;&gt;Node1 -->
<g id="edge5_Node000001_Node000006" class="edge">
<title>Node6&#45;&gt;Node1</title>
<g id="a_edge5_Node000001_Node000006"><a xlink:title=" ">
<path fill="none" stroke="#9a32cd" stroke-dasharray="5,2" d="M154.28,-62.62C130.19,-49.58 94.3,-30.15 73.82,-19.07"/>
<polygon fill="#9a32cd" stroke="#9a32cd" points="152.72,-65.75 163.18,-67.44 156.05,-59.6 152.72,-65.75"/>
</a>
</g>
<text text-anchor="middle" x="148.5" y="-40" font-family="Helvetica,sans-Serif" font-size="10.00" fill="grey"> ifstream</text>
</g>
<!-- Node7 -->
<g id="Node000007" class="node">
<title>Node7</title>
<g id="a_Node000007"><a xlink:title=" ">
<polygon fill="white" stroke="#666666" points="233,-173 123,-173 123,-143 233,-143 233,-173"/>
<text text-anchor="start" x="131" y="-161" font-family="Helvetica,sans-Serif" font-size="10.00">std::basic_ifstream</text>
<text text-anchor="middle" x="178" y="-150" font-family="Helvetica,sans-Serif" font-size="10.00">&lt; Char &gt;</text>
</a>
</g>
</g>
<!-- Node7&#45;&gt;Node6 -->
<g id="edge6_Node000006_Node000007" class="edge">
<title>Node7&#45;&gt;Node6</title>
<g id="a_edge6_Node000006_Node000007"><a xlink:title=" ">
<path fill="none" stroke="#63b8ff" d="M178.31,-132.78C178.5,-117.11 178.75,-97.64 178.89,-86.63"/>
<polygon fill="#63b8ff" stroke="#63b8ff" points="174.81,-132.83 178.18,-142.88 181.81,-132.92 174.81,-132.83"/>
</a>
</g>
</g>
<!-- Node8&#45;&gt;Node7 -->
<g id="edge7_Node000007_Node000008" class="edge">
<title>Node8&#45;&gt;Node7</title>
<g id="a_edge7_Node000007_Node000008"><a xlink:title=" ">
<path fill="none" stroke="#63b8ff" d="M177.38,-199.61C177.51,-190.65 177.66,-180.82 177.78,-173.08"/>
<polygon fill="#63b8ff" stroke="#63b8ff" points="173.87,-199.84 177.22,-209.9 180.87,-199.95 173.87,-199.84"/>
</a>
</g>
</g>
</g>
</svg>
