<?xml version="1.0" encoding="UTF-8" standalone="no"?>
<!DOCTYPE svg PUBLIC "-//W3C//DTD SVG 1.1//EN"
 "http://www.w3.org/Graphics/SVG/1.1/DTD/svg11.dtd">
<!-- Generated by graphviz version 2.43.0 (0)
 -->
<!-- Title: ematch_src/TagSet.cc Pages: 1 -->
<!--zoomable 379 -->

<svg id="main" version="1.1" xmlns="http://www.w3.org/2000/svg" xmlns:xlink="http://www.w3.org/1999/xlink" xml:space="preserve" onload="init(evt)">
<style type="text/css"><![CDATA[
.node, .edge {opacity: 0.7;}
.node.selected, .edge.selected {opacity: 1;}
.edge:hover path { stroke: red; }
.edge:hover polygon { stroke: red; fill: red; }
]]></style>

<defs>
  <circle id="rim" cx="0" cy="0" r="7"/>
  <circle id="rim2" cx="0" cy="0" r="3.5"/>
  <g id="zoomPlus">
    <use xlink:href="#rim" fill="#404040"><set attributeName="fill" to="#808080" begin="zoomplus.mouseover" end="zoomplus.mouseout"/></use>
    <path d="M-4,0h8M0,-4v8" fill="none" stroke="white" stroke-width="1.5" pointer-events="none"/>
  </g>
  <g id="zoomMin">
    <use xlink:href="#rim" fill="#404040"><set attributeName="fill" to="#808080" begin="zoomminus.mouseover" end="zoomminus.mouseout"/></use>
    <path d="M-4,0h8" fill="none" stroke="white" stroke-width="1.5" pointer-events="none"/>
  </g>
  <g id="arrowUp" transform="translate(30 24)">
    <use xlink:href="#rim"/>
    <path pointer-events="none" fill="none" stroke="white" stroke-width="1.5" d="M0,-3.0v7 M-2.5,-0.5L0,-3.0L2.5,-0.5"/>
  </g>
  <g id="arrowRight" transform="rotate(90) translate(36 -43)">
    <use xlink:href="#rim"/>
    <path pointer-events="none" fill="none" stroke="white" stroke-width="1.5" d="M0,-3.0v7 M-2.5,-0.5L0,-3.0L2.5,-0.5"/>
  </g>
  <g id="arrowDown" transform="rotate(180) translate(-30 -48)">
    <use xlink:href="#rim"/>
    <path pointer-events="none" fill="none" stroke="white" stroke-width="1.5" d="M0,-3.0v7 M-2.5,-0.5L0,-3.0L2.5,-0.5"/>
  </g>
  <g id="arrowLeft" transform="rotate(270) translate(-36 17)">
    <use xlink:href="#rim"/>
    <path pointer-events="none" fill="none" stroke="white" stroke-width="1.5" d="M0,-3.0v7 M-2.5,-0.5L0,-3.0L2.5,-0.5"/>
  </g>
  <g id="resetDef">
    <use xlink:href="#rim2" fill="#404040"><set attributeName="fill" to="#808080" begin="reset.mouseover" end="reset.mouseout"/></use>
  </g>
</defs>
<script type="application/ecmascript">
var viewWidth = 1533;
var viewHeight = 379;
var sectionId = 'dynsection-0';
</script>
<script type="application/ecmascript" xlink:href="svg.min.js"/>
<svg id="graph" class="graph">
<g id="viewport">
<title>ematch_src/TagSet.cc</title>
<!-- Node1 -->
<g id="Node000001" class="node">
<title>Node1</title>
<g id="a_Node000001"><a xlink:title=" ">
<polygon fill="#999999" stroke="#666666" points="514,-371 392,-371 392,-352 514,-352 514,-371"/>
<text text-anchor="middle" x="453" y="-359" font-family="Helvetica,sans-Serif" font-size="10.00">ematch_src/TagSet.cc</text>
</a>
</g>
</g>
<!-- Node2 -->
<g id="Node000002" class="node">
<title>Node2</title>
<g id="a_Node000002"><a xlink:href="TagSet_8hh.html" target="_top" xlink:title=" ">
<polygon fill="white" stroke="#666666" points="485,-316 421,-316 421,-297 485,-297 485,-316"/>
<text text-anchor="middle" x="453" y="-304" font-family="Helvetica,sans-Serif" font-size="10.00">TagSet.hh</text>
</a>
</g>
</g>
<!-- Node1&#45;&gt;Node2 -->
<g id="edge1_Node000001_Node000002" class="edge">
<title>Node1&#45;&gt;Node2</title>
<g id="a_edge1_Node000001_Node000002"><a xlink:title=" ">
<path fill="none" stroke="#63b8ff" d="M453,-351.75C453,-344.8 453,-334.85 453,-326.13"/>
<polygon fill="#63b8ff" stroke="#63b8ff" points="456.5,-326.09 453,-316.09 449.5,-326.09 456.5,-326.09"/>
</a>
</g>
</g>
<!-- Node3 -->
<g id="Node000003" class="node">
<title>Node3</title>
<g id="a_Node000003"><a xlink:title=" ">
<polygon fill="#e0e0e0" stroke="#999999" points="533,-19 473,-19 473,0 533,0 533,-19"/>
<text text-anchor="middle" x="503" y="-7" font-family="Helvetica,sans-Serif" font-size="10.00">iostream</text>
</a>
</g>
</g>
<!-- Node2&#45;&gt;Node3 -->
<g id="edge2_Node000002_Node000003" class="edge">
<title>Node2&#45;&gt;Node3</title>
<g id="a_edge2_Node000002_Node000003"><a xlink:title=" ">
<path fill="none" stroke="#63b8ff" d="M447.77,-296.73C435.99,-275.87 409.2,-221.61 420,-176 433.77,-117.83 471.34,-56.83 490.86,-27.82"/>
<polygon fill="#63b8ff" stroke="#63b8ff" points="493.96,-29.48 496.73,-19.25 488.19,-25.52 493.96,-29.48"/>
</a>
</g>
</g>
<!-- Node4 -->
<g id="Node000004" class="node">
<title>Node4</title>
<g id="a_Node000004"><a xlink:title=" ">
<polygon fill="#e0e0e0" stroke="#999999" points="970,-255.5 866,-255.5 866,-236.5 970,-236.5 970,-255.5"/>
<text text-anchor="middle" x="918" y="-243.5" font-family="Helvetica,sans-Serif" font-size="10.00">boost/foreach.hpp</text>
</a>
</g>
</g>
<!-- Node2&#45;&gt;Node4 -->
<g id="edge3_Node000002_Node000004" class="edge">
<title>Node2&#45;&gt;Node4</title>
<g id="a_edge3_Node000002_Node000004"><a xlink:title=" ">
<path fill="none" stroke="#63b8ff" d="M485.12,-303.23C553.74,-298.11 719.59,-284.26 857,-261 862.49,-260.07 868.23,-258.95 873.89,-257.76"/>
<polygon fill="#63b8ff" stroke="#63b8ff" points="874.93,-261.11 883.94,-255.55 873.42,-254.28 874.93,-261.11"/>
</a>
</g>
</g>
<!-- Node5 -->
<g id="Node000005" class="node">
<title>Node5</title>
<g id="a_Node000005"><a xlink:href="universalTypedefs_8hh.html" target="_top" xlink:title=" ">
<polygon fill="white" stroke="#666666" points="144,-19 0,-19 0,0 144,0 144,-19"/>
<text text-anchor="middle" x="72" y="-7" font-family="Helvetica,sans-Serif" font-size="10.00">utils/universalTypedefs.hh</text>
</a>
</g>
</g>
<!-- Node2&#45;&gt;Node5 -->
<g id="edge4_Node000002_Node000005" class="edge">
<title>Node2&#45;&gt;Node5</title>
<g id="a_edge4_Node000002_Node000005"><a xlink:title=" ">
<path fill="none" stroke="#63b8ff" d="M420.7,-302.96C325.07,-294.55 50,-263.65 50,-186.5 50,-186.5 50,-186.5 50,-124 50,-90 59.63,-51.31 66.15,-29.01"/>
<polygon fill="#63b8ff" stroke="#63b8ff" points="69.57,-29.8 69.12,-19.22 62.87,-27.77 69.57,-29.8"/>
</a>
</g>
</g>
<!-- Node6 -->
<g id="Node000006" class="node">
<title>Node6</title>
<g id="a_Node000006"><a xlink:href="sortingUtils_8hh.html" target="_top" xlink:title=" ">
<polygon fill="white" stroke="#666666" points="578.5,-195 429.5,-195 429.5,-176 578.5,-176 578.5,-195"/>
<text text-anchor="middle" x="504" y="-183" font-family="Helvetica,sans-Serif" font-size="10.00">utils/sorting/sortingUtils.hh</text>
</a>
</g>
</g>
<!-- Node2&#45;&gt;Node6 -->
<g id="edge5_Node000002_Node000006" class="edge">
<title>Node2&#45;&gt;Node6</title>
<g id="a_edge5_Node000002_Node000006"><a xlink:title=" ">
<path fill="none" stroke="#63b8ff" d="M456.67,-296.94C464.9,-277.74 484.99,-230.86 496.17,-204.77"/>
<polygon fill="#63b8ff" stroke="#63b8ff" points="499.51,-205.87 500.23,-195.3 493.07,-203.11 499.51,-205.87"/>
</a>
</g>
</g>
<!-- Node7 -->
<g id="Node000007" class="node">
<title>Node7</title>
<g id="a_Node000007"><a xlink:href="ResidueIndexMap_8hh.html" target="_top" xlink:title=" ">
<polygon fill="white" stroke="#666666" points="848,-261 692,-261 692,-231 848,-231 848,-261"/>
<text text-anchor="start" x="700" y="-249" font-family="Helvetica,sans-Serif" font-size="10.00">utils/sequence/ResidueIndex</text>
<text text-anchor="middle" x="770" y="-238" font-family="Helvetica,sans-Serif" font-size="10.00">Map/ResidueIndexMap.hh</text>
</a>
</g>
</g>
<!-- Node2&#45;&gt;Node7 -->
<g id="edge7_Node000002_Node000007" class="edge">
<title>Node2&#45;&gt;Node7</title>
<g id="a_edge7_Node000002_Node000007"><a xlink:title=" ">
<path fill="none" stroke="#63b8ff" d="M485.14,-299.57C531.4,-291.03 618.42,-274.97 684.16,-262.84"/>
<polygon fill="#63b8ff" stroke="#63b8ff" points="684.91,-266.26 694.11,-261.01 683.64,-259.38 684.91,-266.26"/>
</a>
</g>
</g>
<!-- Node27 -->
<g id="Node000027" class="node">
<title>Node27</title>
<g id="a_Node000027"><a xlink:href="sigma4bitPackingUtils_8hh.html" target="_top" xlink:title=" ">
<polygon fill="white" stroke="#666666" points="404,-140 258,-140 258,-110 404,-110 404,-140"/>
<text text-anchor="start" x="266" y="-128" font-family="Helvetica,sans-Serif" font-size="10.00">utils/sequence/packedDNA</text>
<text text-anchor="middle" x="331" y="-117" font-family="Helvetica,sans-Serif" font-size="10.00">/sigma4bitPackingUtils.hh</text>
</a>
</g>
</g>
<!-- Node2&#45;&gt;Node27 -->
<g id="edge40_Node000002_Node000027" class="edge">
<title>Node2&#45;&gt;Node27</title>
<g id="a_edge40_Node000002_Node000027"><a xlink:title=" ">
<path fill="none" stroke="#63b8ff" d="M435.18,-296.95C420.8,-289.27 400.89,-276.78 388,-261 360.6,-227.46 344.43,-178.82 336.68,-150"/>
<polygon fill="#63b8ff" stroke="#63b8ff" points="339.99,-148.82 334.11,-140 333.21,-150.56 339.99,-148.82"/>
</a>
</g>
</g>
<!-- Node6&#45;&gt;Node3 -->
<g id="edge6_Node000006_Node000003" class="edge">
<title>Node6&#45;&gt;Node3</title>
<g id="a_edge6_Node000006_Node000003"><a xlink:title=" ">
<path fill="none" stroke="#63b8ff" d="M503.95,-175.63C503.79,-148.64 503.32,-67.03 503.11,-29.61"/>
<polygon fill="#63b8ff" stroke="#63b8ff" points="506.61,-29.12 503.05,-19.14 499.61,-29.16 506.61,-29.12"/>
</a>
</g>
</g>
<!-- Node8 -->
<g id="Node000008" class="node">
<title>Node8</title>
<g id="a_Node000008"><a xlink:title=" ">
<polygon fill="#e0e0e0" stroke="#999999" points="1375,-19 1331,-19 1331,0 1375,0 1375,-19"/>
<text text-anchor="middle" x="1353" y="-7" font-family="Helvetica,sans-Serif" font-size="10.00">string</text>
</a>
</g>
</g>
<!-- Node7&#45;&gt;Node8 -->
<g id="edge8_Node000007_Node000008" class="edge">
<title>Node7&#45;&gt;Node8</title>
<g id="a_edge8_Node000007_Node000008"><a xlink:title=" ">
<path fill="none" stroke="#63b8ff" d="M848.25,-232.37C851.2,-231.9 854.13,-231.45 857,-231 1155.38,-184.71 1342.99,-320.06 1518,-74 1552.17,-25.96 1442.21,-14.26 1385.14,-11.42"/>
<polygon fill="#63b8ff" stroke="#63b8ff" points="1385.29,-7.92 1375.15,-10.98 1384.99,-14.91 1385.29,-7.92"/>
</a>
</g>
</g>
<!-- Node9 -->
<g id="Node000009" class="node">
<title>Node9</title>
<g id="a_Node000009"><a xlink:title=" ">
<polygon fill="#e0e0e0" stroke="#999999" points="659.5,-19 612.5,-19 612.5,0 659.5,0 659.5,-19"/>
<text text-anchor="middle" x="636" y="-7" font-family="Helvetica,sans-Serif" font-size="10.00">vector</text>
</a>
</g>
</g>
<!-- Node7&#45;&gt;Node9 -->
<g id="edge9_Node000007_Node000009" class="edge">
<title>Node7&#45;&gt;Node9</title>
<g id="a_edge9_Node000007_Node000009"><a xlink:title=" ">
<path fill="none" stroke="#63b8ff" d="M736.76,-230.81C720.85,-222.48 702.76,-210.53 691,-195 652.2,-143.77 640.66,-65.42 637.32,-29.59"/>
<polygon fill="#63b8ff" stroke="#63b8ff" points="640.77,-28.85 636.47,-19.16 633.79,-29.41 640.77,-28.85"/>
</a>
</g>
</g>
<!-- Node10 -->
<g id="Node000010" class="node">
<title>Node10</title>
<g id="a_Node000010"><a xlink:title=" ">
<polygon fill="#e0e0e0" stroke="#999999" points="1508.5,-74 1455.5,-74 1455.5,-55 1508.5,-55 1508.5,-74"/>
<text text-anchor="middle" x="1482" y="-62" font-family="Helvetica,sans-Serif" font-size="10.00">ctype.h</text>
</a>
</g>
</g>
<!-- Node7&#45;&gt;Node10 -->
<g id="edge10_Node000007_Node000010" class="edge">
<title>Node7&#45;&gt;Node10</title>
<g id="a_edge10_Node000007_Node000010"><a xlink:title=" ">
<path fill="none" stroke="#63b8ff" d="M848.37,-231.66C947.11,-214.14 1121.59,-180.74 1268,-140 1334.17,-121.59 1409.63,-93.63 1450.92,-77.72"/>
<polygon fill="#63b8ff" stroke="#63b8ff" points="1452.36,-80.92 1460.42,-74.04 1449.83,-74.39 1452.36,-80.92"/>
</a>
</g>
</g>
<!-- Node11 -->
<g id="Node000011" class="node">
<title>Node11</title>
<g id="a_Node000011"><a xlink:title=" ">
<polygon fill="#e0e0e0" stroke="#999999" points="922.5,-195 857.5,-195 857.5,-176 922.5,-176 922.5,-195"/>
<text text-anchor="middle" x="890" y="-183" font-family="Helvetica,sans-Serif" font-size="10.00">stdexcept</text>
</a>
</g>
</g>
<!-- Node7&#45;&gt;Node11 -->
<g id="edge11_Node000007_Node000011" class="edge">
<title>Node7&#45;&gt;Node11</title>
<g id="a_edge11_Node000007_Node000011"><a xlink:title=" ">
<path fill="none" stroke="#63b8ff" d="M798.74,-230.99C818.32,-221.45 844.05,-208.9 863.2,-199.57"/>
<polygon fill="#63b8ff" stroke="#63b8ff" points="864.82,-202.67 872.28,-195.14 861.76,-196.38 864.82,-202.67"/>
</a>
</g>
</g>
<!-- Node12 -->
<g id="Node000012" class="node">
<title>Node12</title>
<g id="a_Node000012"><a xlink:href="ematch__src_2utils_2FLArray_2FLEArray_8hh.html" target="_top" xlink:title=" ">
<polygon fill="white" stroke="#666666" points="839.5,-195 700.5,-195 700.5,-176 839.5,-176 839.5,-195"/>
<text text-anchor="middle" x="770" y="-183" font-family="Helvetica,sans-Serif" font-size="10.00">utils/FLArray/FLEArray.hh</text>
</a>
</g>
</g>
<!-- Node7&#45;&gt;Node12 -->
<g id="edge12_Node000007_Node000012" class="edge">
<title>Node7&#45;&gt;Node12</title>
<g id="a_edge12_Node000007_Node000012"><a xlink:title=" ">
<path fill="none" stroke="#63b8ff" d="M770,-230.84C770,-223.21 770,-213.7 770,-205.45"/>
<polygon fill="#63b8ff" stroke="#63b8ff" points="773.5,-205.27 770,-195.27 766.5,-205.27 773.5,-205.27"/>
</a>
</g>
</g>
<!-- Node12&#45;&gt;Node3 -->
<g id="edge15_Node000012_Node000003" class="edge">
<title>Node12&#45;&gt;Node3</title>
<g id="a_edge15_Node000012_Node000003"><a xlink:title=" ">
<path fill="none" stroke="#63b8ff" d="M756.76,-175.87C713.88,-147.93 578.49,-59.7 525.03,-24.85"/>
<polygon fill="#63b8ff" stroke="#63b8ff" points="526.61,-21.71 516.32,-19.18 522.79,-27.57 526.61,-21.71"/>
</a>
</g>
</g>
<!-- Node12&#45;&gt;Node9 -->
<g id="edge14_Node000012_Node000009" class="edge">
<title>Node12&#45;&gt;Node9</title>
<g id="a_edge14_Node000012_Node000009"><a xlink:title=" ">
<path fill="none" stroke="#63b8ff" d="M763.17,-175.63C741.93,-148.05 676.79,-63.47 648.9,-27.25"/>
<polygon fill="#63b8ff" stroke="#63b8ff" points="651.53,-24.93 642.66,-19.14 645.99,-29.2 651.53,-24.93"/>
</a>
</g>
</g>
<!-- Node13 -->
<g id="Node000013" class="node">
<title>Node13</title>
<g id="a_Node000013"><a xlink:title=" ">
<polygon fill="#e0e0e0" stroke="#999999" points="1437,-74 1381,-74 1381,-55 1437,-55 1437,-74"/>
<text text-anchor="middle" x="1409" y="-62" font-family="Helvetica,sans-Serif" font-size="10.00">assert.h</text>
</a>
</g>
</g>
<!-- Node12&#45;&gt;Node13 -->
<g id="edge13_Node000012_Node000013" class="edge">
<title>Node12&#45;&gt;Node13</title>
<g id="a_edge13_Node000012_Node000013"><a xlink:title=" ">
<path fill="none" stroke="#63b8ff" d="M839.74,-176.87C842.53,-176.58 845.29,-176.28 848,-176 1007.04,-159.34 1050.15,-175.83 1206,-140 1270.48,-125.17 1342.4,-95.45 1380.95,-78.37"/>
<polygon fill="#63b8ff" stroke="#63b8ff" points="1382.76,-81.39 1390.45,-74.11 1379.9,-75.01 1382.76,-81.39"/>
</a>
</g>
</g>
<!-- Node14 -->
<g id="Node000014" class="node">
<title>Node14</title>
<g id="a_Node000014"><a xlink:title=" ">
<polygon fill="#e0e0e0" stroke="#999999" points="832,-134.5 768,-134.5 768,-115.5 832,-115.5 832,-134.5"/>
<text text-anchor="middle" x="800" y="-122.5" font-family="Helvetica,sans-Serif" font-size="10.00">algorithm</text>
</a>
</g>
</g>
<!-- Node12&#45;&gt;Node14 -->
<g id="edge16_Node000012_Node000014" class="edge">
<title>Node12&#45;&gt;Node14</title>
<g id="a_edge16_Node000012_Node000014"><a xlink:title=" ">
<path fill="none" stroke="#63b8ff" d="M774.43,-175.87C778.77,-167.4 785.52,-154.24 790.99,-143.57"/>
<polygon fill="#63b8ff" stroke="#63b8ff" points="794.11,-145.16 795.56,-134.67 787.88,-141.97 794.11,-145.16"/>
</a>
</g>
</g>
<!-- Node15 -->
<g id="Node000015" class="node">
<title>Node15</title>
<g id="a_Node000015"><a xlink:title=" ">
<polygon fill="#e0e0e0" stroke="#999999" points="975.5,-134.5 850.5,-134.5 850.5,-115.5 975.5,-115.5 975.5,-134.5"/>
<text text-anchor="middle" x="913" y="-122.5" font-family="Helvetica,sans-Serif" font-size="10.00">boost/lexical_cast.hpp</text>
</a>
</g>
</g>
<!-- Node12&#45;&gt;Node15 -->
<g id="edge17_Node000012_Node000015" class="edge">
<title>Node12&#45;&gt;Node15</title>
<g id="a_edge17_Node000012_Node000015"><a xlink:title=" ">
<path fill="none" stroke="#63b8ff" d="M790.79,-175.99C814.94,-166.12 854.98,-149.73 882.62,-138.43"/>
<polygon fill="#63b8ff" stroke="#63b8ff" points="884.25,-141.54 892.18,-134.52 881.6,-135.06 884.25,-141.54"/>
</a>
</g>
</g>
<!-- Node16 -->
<g id="Node000016" class="node">
<title>Node16</title>
<g id="a_Node000016"><a xlink:href="ematch__src_2utils_2gdb_2gdbUtils_8hh.html" target="_top" xlink:title=" ">
<polygon fill="white" stroke="#666666" points="857.5,-74 740.5,-74 740.5,-55 857.5,-55 857.5,-74"/>
<text text-anchor="middle" x="799" y="-62" font-family="Helvetica,sans-Serif" font-size="10.00">utils/gdb/gdbUtils.hh</text>
</a>
</g>
</g>
<!-- Node12&#45;&gt;Node16 -->
<g id="edge18_Node000012_Node000016" class="edge">
<title>Node12&#45;&gt;Node16</title>
<g id="a_edge18_Node000012_Node000016"><a xlink:title=" ">
<path fill="none" stroke="#63b8ff" d="M766.03,-175.93C760.05,-161.75 750.29,-132.71 759,-110 763.24,-98.94 771.64,-88.91 779.64,-81.18"/>
<polygon fill="#63b8ff" stroke="#63b8ff" points="782.25,-83.55 787.36,-74.27 777.58,-78.33 782.25,-83.55"/>
</a>
</g>
</g>
<!-- Node21 -->
<g id="Node000021" class="node">
<title>Node21</title>
<g id="a_Node000021"><a xlink:href="ematch__src_2utils_2perlish_2perlish_8hh.html" target="_top" xlink:title=" ">
<polygon fill="white" stroke="#666666" points="1196.5,-134.5 1071.5,-134.5 1071.5,-115.5 1196.5,-115.5 1196.5,-134.5"/>
<text text-anchor="middle" x="1134" y="-122.5" font-family="Helvetica,sans-Serif" font-size="10.00">utils/perlish/perlish.hh</text>
</a>
</g>
</g>
<!-- Node12&#45;&gt;Node21 -->
<g id="edge24_Node000012_Node000021" class="edge">
<title>Node12&#45;&gt;Node21</title>
<g id="a_edge24_Node000012_Node000021"><a xlink:title=" ">
<path fill="none" stroke="#63b8ff" d="M822.93,-175.99C888.71,-165.42 1000.82,-147.4 1070.97,-136.13"/>
<polygon fill="#63b8ff" stroke="#63b8ff" points="1071.69,-139.56 1081.01,-134.52 1070.58,-132.65 1071.69,-139.56"/>
</a>
</g>
</g>
<!-- Node16&#45;&gt;Node3 -->
<g id="edge20_Node000016_Node000003" class="edge">
<title>Node16&#45;&gt;Node3</title>
<g id="a_edge20_Node000016_Node000003"><a xlink:title=" ">
<path fill="none" stroke="#63b8ff" d="M751.44,-54.98C693.72,-44.65 597.39,-27.4 543.2,-17.7"/>
<polygon fill="#63b8ff" stroke="#63b8ff" points="543.73,-14.24 533.27,-15.92 542.5,-21.13 543.73,-14.24"/>
</a>
</g>
</g>
<!-- Node17 -->
<g id="Node000017" class="node">
<title>Node17</title>
<g id="a_Node000017"><a xlink:title=" ">
<polygon fill="#e0e0e0" stroke="#999999" points="881.5,-19 828.5,-19 828.5,0 881.5,0 881.5,-19"/>
<text text-anchor="middle" x="855" y="-7" font-family="Helvetica,sans-Serif" font-size="10.00">cstdarg</text>
</a>
</g>
</g>
<!-- Node16&#45;&gt;Node17 -->
<g id="edge19_Node000016_Node000017" class="edge">
<title>Node16&#45;&gt;Node17</title>
<g id="a_edge19_Node000016_Node000017"><a xlink:title=" ">
<path fill="none" stroke="#63b8ff" d="M808,-54.98C816.19,-47.23 828.51,-35.58 838.47,-26.14"/>
<polygon fill="#63b8ff" stroke="#63b8ff" points="840.98,-28.59 845.84,-19.17 836.17,-23.5 840.98,-28.59"/>
</a>
</g>
</g>
<!-- Node18 -->
<g id="Node000018" class="node">
<title>Node18</title>
<g id="a_Node000018"><a xlink:title=" ">
<polygon fill="#e0e0e0" stroke="#999999" points="948.5,-19 899.5,-19 899.5,0 948.5,0 948.5,-19"/>
<text text-anchor="middle" x="924" y="-7" font-family="Helvetica,sans-Serif" font-size="10.00">cstdlib</text>
</a>
</g>
</g>
<!-- Node16&#45;&gt;Node18 -->
<g id="edge21_Node000016_Node000018" class="edge">
<title>Node16&#45;&gt;Node18</title>
<g id="a_edge21_Node000016_Node000018"><a xlink:title=" ">
<path fill="none" stroke="#63b8ff" d="M819.08,-54.98C839.37,-46.38 870.96,-32.99 894.17,-23.15"/>
<polygon fill="#63b8ff" stroke="#63b8ff" points="895.71,-26.3 903.55,-19.17 892.98,-19.85 895.71,-26.3"/>
</a>
</g>
</g>
<!-- Node19 -->
<g id="Node000019" class="node">
<title>Node19</title>
<g id="a_Node000019"><a xlink:title=" ">
<polygon fill="#e0e0e0" stroke="#999999" points="740,-19 694,-19 694,0 740,0 740,-19"/>
<text text-anchor="middle" x="717" y="-7" font-family="Helvetica,sans-Serif" font-size="10.00">cstdio</text>
</a>
</g>
</g>
<!-- Node16&#45;&gt;Node19 -->
<g id="edge22_Node000016_Node000019" class="edge">
<title>Node16&#45;&gt;Node19</title>
<g id="a_edge22_Node000016_Node000019"><a xlink:title=" ">
<path fill="none" stroke="#63b8ff" d="M785.83,-54.98C773.23,-46.84 754,-34.41 739.06,-24.76"/>
<polygon fill="#63b8ff" stroke="#63b8ff" points="740.71,-21.66 730.41,-19.17 736.91,-27.54 740.71,-21.66"/>
</a>
</g>
</g>
<!-- Node20 -->
<g id="Node000020" class="node">
<title>Node20</title>
<g id="a_Node000020"><a xlink:title=" ">
<polygon fill="#e0e0e0" stroke="#999999" points="810,-19 758,-19 758,0 810,0 810,-19"/>
<text text-anchor="middle" x="784" y="-7" font-family="Helvetica,sans-Serif" font-size="10.00">cassert</text>
</a>
</g>
</g>
<!-- Node16&#45;&gt;Node20 -->
<g id="edge23_Node000016_Node000020" class="edge">
<title>Node16&#45;&gt;Node20</title>
<g id="a_edge23_Node000016_Node000020"><a xlink:title=" ">
<path fill="none" stroke="#63b8ff" d="M796.52,-54.75C794.54,-47.72 791.68,-37.62 789.19,-28.84"/>
<polygon fill="#63b8ff" stroke="#63b8ff" points="792.52,-27.76 786.43,-19.09 785.79,-29.66 792.52,-27.76"/>
</a>
</g>
</g>
<!-- Node21&#45;&gt;Node3 -->
<g id="edge26_Node000021_Node000003" class="edge">
<title>Node21&#45;&gt;Node3</title>
<g id="a_edge26_Node000021_Node000003"><a xlink:title=" ">
<path fill="none" stroke="#63b8ff" d="M1071.14,-117.66C957.72,-106.1 727.22,-82.06 691,-74 633.83,-61.27 569.68,-37.44 533.03,-22.87"/>
<polygon fill="#63b8ff" stroke="#63b8ff" points="534.04,-19.5 523.45,-19.02 531.43,-26 534.04,-19.5"/>
</a>
</g>
</g>
<!-- Node21&#45;&gt;Node8 -->
<g id="edge29_Node000021_Node000008" class="edge">
<title>Node21&#45;&gt;Node8</title>
<g id="a_edge29_Node000021_Node000008"><a xlink:title=" ">
<path fill="none" stroke="#63b8ff" d="M1196.54,-117.88C1233.38,-111.67 1279.24,-99.16 1313,-74 1328.47,-62.47 1339.42,-43.04 1345.91,-28.7"/>
<polygon fill="#63b8ff" stroke="#63b8ff" points="1349.2,-29.92 1349.85,-19.34 1342.74,-27.2 1349.2,-29.92"/>
</a>
</g>
</g>
<!-- Node21&#45;&gt;Node9 -->
<g id="edge30_Node000021_Node000009" class="edge">
<title>Node21&#45;&gt;Node9</title>
<g id="a_edge30_Node000021_Node000009"><a xlink:title=" ">
<path fill="none" stroke="#63b8ff" d="M1071.22,-117.82C965.92,-107.22 762.14,-85.59 731,-74 701.12,-62.88 671.32,-40.7 653.27,-25.72"/>
<polygon fill="#63b8ff" stroke="#63b8ff" points="655.29,-22.85 645.41,-19.03 650.76,-28.18 655.29,-22.85"/>
</a>
</g>
</g>
<!-- Node21&#45;&gt;Node10 -->
<g id="edge25_Node000021_Node000010" class="edge">
<title>Node21&#45;&gt;Node10</title>
<g id="a_edge25_Node000021_Node000010"><a xlink:title=" ">
<path fill="none" stroke="#63b8ff" d="M1195.51,-115.5C1256.45,-106.76 1352.64,-92.16 1445.47,-73.97"/>
<polygon fill="#63b8ff" stroke="#63b8ff" points="1446.18,-77.4 1455.31,-72.03 1444.82,-70.53 1446.18,-77.4"/>
</a>
</g>
</g>
<!-- Node21&#45;&gt;Node13 -->
<g id="edge31_Node000021_Node000013" class="edge">
<title>Node21&#45;&gt;Node13</title>
<g id="a_edge31_Node000021_Node000013"><a xlink:title=" ">
<path fill="none" stroke="#63b8ff" d="M1173.99,-115.49C1226.78,-104.26 1319.08,-84.63 1370.9,-73.6"/>
<polygon fill="#63b8ff" stroke="#63b8ff" points="1371.65,-77.02 1380.7,-71.52 1370.19,-70.18 1371.65,-77.02"/>
</a>
</g>
</g>
<!-- Node21&#45;&gt;Node16 -->
<g id="edge33_Node000021_Node000016" class="edge">
<title>Node21&#45;&gt;Node16</title>
<g id="a_edge33_Node000021_Node000016"><a xlink:title=" ">
<path fill="none" stroke="#63b8ff" d="M1085.29,-115.49C1025,-104.97 922.41,-87.05 857.8,-75.77"/>
<polygon fill="#63b8ff" stroke="#63b8ff" points="858.22,-72.29 847.77,-74.02 857.02,-79.18 858.22,-72.29"/>
</a>
</g>
</g>
<!-- Node22 -->
<g id="Node000022" class="node">
<title>Node22</title>
<g id="a_Node000022"><a xlink:title=" ">
<polygon fill="#e0e0e0" stroke="#999999" points="1212.5,-74 1157.5,-74 1157.5,-55 1212.5,-55 1212.5,-74"/>
<text text-anchor="middle" x="1185" y="-62" font-family="Helvetica,sans-Serif" font-size="10.00">fstream</text>
</a>
</g>
</g>
<!-- Node21&#45;&gt;Node22 -->
<g id="edge27_Node000021_Node000022" class="edge">
<title>Node21&#45;&gt;Node22</title>
<g id="a_edge27_Node000021_Node000022"><a xlink:title=" ">
<path fill="none" stroke="#63b8ff" d="M1141.53,-115.37C1149.21,-106.55 1161.32,-92.66 1170.81,-81.77"/>
<polygon fill="#63b8ff" stroke="#63b8ff" points="1173.51,-84.01 1177.44,-74.17 1168.23,-79.41 1173.51,-84.01"/>
</a>
</g>
</g>
<!-- Node23 -->
<g id="Node000023" class="node">
<title>Node23</title>
<g id="a_Node000023"><a xlink:title=" ">
<polygon fill="#e0e0e0" stroke="#999999" points="1287,-74 1231,-74 1231,-55 1287,-55 1287,-74"/>
<text text-anchor="middle" x="1259" y="-62" font-family="Helvetica,sans-Serif" font-size="10.00">sstream</text>
</a>
</g>
</g>
<!-- Node21&#45;&gt;Node23 -->
<g id="edge28_Node000021_Node000023" class="edge">
<title>Node21&#45;&gt;Node23</title>
<g id="a_edge28_Node000021_Node000023"><a xlink:title=" ">
<path fill="none" stroke="#63b8ff" d="M1152.18,-115.49C1173.01,-105.75 1207.37,-89.66 1231.48,-78.38"/>
<polygon fill="#63b8ff" stroke="#63b8ff" points="1233.23,-81.43 1240.8,-74.02 1230.26,-75.09 1233.23,-81.43"/>
</a>
</g>
</g>
<!-- Node24 -->
<g id="Node000024" class="node">
<title>Node24</title>
<g id="a_Node000024"><a xlink:title=" ">
<polygon fill="#e0e0e0" stroke="#999999" points="1187.5,-19 1092.5,-19 1092.5,0 1187.5,0 1187.5,-19"/>
<text text-anchor="middle" x="1140" y="-7" font-family="Helvetica,sans-Serif" font-size="10.00">boost/regex.hpp</text>
</a>
</g>
</g>
<!-- Node21&#45;&gt;Node24 -->
<g id="edge32_Node000021_Node000024" class="edge">
<title>Node21&#45;&gt;Node24</title>
<g id="a_edge32_Node000021_Node000024"><a xlink:title=" ">
<path fill="none" stroke="#63b8ff" d="M1196.59,-121.96C1231.86,-117.2 1273.28,-104.79 1296,-74 1324.36,-35.57 1253.03,-20.33 1197.67,-14.33"/>
<polygon fill="#63b8ff" stroke="#63b8ff" points="1197.85,-10.83 1187.55,-13.31 1197.15,-17.8 1197.85,-10.83"/>
</a>
</g>
</g>
<!-- Node25 -->
<g id="Node000025" class="node">
<title>Node25</title>
<g id="a_Node000025"><a xlink:href="ematch__src_2utils_2stl_2stlTypes_8hh.html" target="_top" xlink:title=" ">
<polygon fill="white" stroke="#666666" points="1139,-74 1029,-74 1029,-55 1139,-55 1139,-74"/>
<text text-anchor="middle" x="1084" y="-62" font-family="Helvetica,sans-Serif" font-size="10.00">utils/stl/stlTypes.hh</text>
</a>
</g>
</g>
<!-- Node21&#45;&gt;Node25 -->
<g id="edge34_Node000021_Node000025" class="edge">
<title>Node21&#45;&gt;Node25</title>
<g id="a_edge34_Node000021_Node000025"><a xlink:title=" ">
<path fill="none" stroke="#63b8ff" d="M1126.62,-115.37C1119.09,-106.55 1107.21,-92.66 1097.91,-81.77"/>
<polygon fill="#63b8ff" stroke="#63b8ff" points="1100.57,-79.5 1091.41,-74.17 1095.24,-84.04 1100.57,-79.5"/>
</a>
</g>
</g>
<!-- Node26 -->
<g id="Node000026" class="node">
<title>Node26</title>
<g id="a_Node000026"><a xlink:href="ematch__src_2utils_2boost_2boostUtils_8hh.html" target="_top" xlink:title=" ">
<polygon fill="white" stroke="#666666" points="1010.5,-74 875.5,-74 875.5,-55 1010.5,-55 1010.5,-74"/>
<text text-anchor="middle" x="943" y="-62" font-family="Helvetica,sans-Serif" font-size="10.00">utils/boost/boostUtils.hh</text>
</a>
</g>
</g>
<!-- Node21&#45;&gt;Node26 -->
<g id="edge37_Node000021_Node000026" class="edge">
<title>Node21&#45;&gt;Node26</title>
<g id="a_edge37_Node000021_Node000026"><a xlink:title=" ">
<path fill="none" stroke="#63b8ff" d="M1106.23,-115.49C1073.13,-105.36 1017.66,-88.37 980.71,-77.05"/>
<polygon fill="#63b8ff" stroke="#63b8ff" points="981.39,-73.6 970.81,-74.02 979.34,-80.29 981.39,-73.6"/>
</a>
</g>
</g>
<!-- Node25&#45;&gt;Node8 -->
<g id="edge35_Node000025_Node000008" class="edge">
<title>Node25&#45;&gt;Node8</title>
<g id="a_edge35_Node000025_Node000008"><a xlink:title=" ">
<path fill="none" stroke="#63b8ff" d="M1127.22,-54.98C1181.32,-44.33 1272.73,-26.32 1320.97,-16.81"/>
<polygon fill="#63b8ff" stroke="#63b8ff" points="1321.73,-20.23 1330.86,-14.86 1320.37,-13.36 1321.73,-20.23"/>
</a>
</g>
</g>
<!-- Node25&#45;&gt;Node9 -->
<g id="edge36_Node000025_Node000009" class="edge">
<title>Node25&#45;&gt;Node9</title>
<g id="a_edge36_Node000025_Node000009"><a xlink:title=" ">
<path fill="none" stroke="#63b8ff" d="M1028.69,-56.18C1025.41,-55.77 1022.16,-55.38 1019,-55 870.75,-37.32 832.85,-39.77 685,-19 680.13,-18.32 674.99,-17.51 669.96,-16.68"/>
<polygon fill="#63b8ff" stroke="#63b8ff" points="670.32,-13.19 659.88,-14.96 669.14,-20.09 670.32,-13.19"/>
</a>
</g>
</g>
<!-- Node26&#45;&gt;Node3 -->
<g id="edge38_Node000026_Node000003" class="edge">
<title>Node26&#45;&gt;Node3</title>
<g id="a_edge38_Node000026_Node000003"><a xlink:title=" ">
<path fill="none" stroke="#63b8ff" d="M875.21,-55.33C782.43,-44.16 618.8,-24.45 543.27,-15.35"/>
<polygon fill="#63b8ff" stroke="#63b8ff" points="543.56,-11.86 533.22,-14.14 542.73,-18.81 543.56,-11.86"/>
</a>
</g>
</g>
<!-- Node26&#45;&gt;Node24 -->
<g id="edge39_Node000026_Node000024" class="edge">
<title>Node26&#45;&gt;Node24</title>
<g id="a_edge39_Node000026_Node000024"><a xlink:title=" ">
<path fill="none" stroke="#63b8ff" d="M974.65,-54.98C1008.16,-45.97 1061.2,-31.7 1098.14,-21.76"/>
<polygon fill="#63b8ff" stroke="#63b8ff" points="1099.35,-25.06 1108.1,-19.08 1097.53,-18.3 1099.35,-25.06"/>
</a>
</g>
</g>
<!-- Node27&#45;&gt;Node3 -->
<g id="edge42_Node000027_Node000003" class="edge">
<title>Node27&#45;&gt;Node3</title>
<g id="a_edge42_Node000027_Node000003"><a xlink:title=" ">
<path fill="none" stroke="#63b8ff" d="M313.75,-109.89C297.97,-95.27 279.05,-72.21 293,-55 313.94,-29.16 407.77,-17.72 462.67,-13.16"/>
<polygon fill="#63b8ff" stroke="#63b8ff" points="463.07,-16.64 472.77,-12.36 462.52,-9.66 463.07,-16.64"/>
</a>
</g>
</g>
<!-- Node27&#45;&gt;Node5 -->
<g id="edge45_Node000027_Node000005" class="edge">
<title>Node27&#45;&gt;Node5</title>
<g id="a_edge45_Node000027_Node000005"><a xlink:title=" ">
<path fill="none" stroke="#63b8ff" d="M257.81,-122.75C210.64,-118.54 150.28,-106.45 107,-74 92.23,-62.93 82.9,-43.71 77.62,-29.31"/>
<polygon fill="#63b8ff" stroke="#63b8ff" points="80.82,-27.84 74.35,-19.45 74.18,-30.04 80.82,-27.84"/>
</a>
</g>
</g>
<!-- Node27&#45;&gt;Node9 -->
<g id="edge43_Node000027_Node000009" class="edge">
<title>Node27&#45;&gt;Node9</title>
<g id="a_edge43_Node000027_Node000009"><a xlink:title=" ">
<path fill="none" stroke="#63b8ff" d="M368.7,-109.97C429,-87.53 546.11,-43.95 603.17,-22.72"/>
<polygon fill="#63b8ff" stroke="#63b8ff" points="604.62,-25.91 612.77,-19.14 602.18,-19.35 604.62,-25.91"/>
</a>
</g>
</g>
<!-- Node27&#45;&gt;Node16 -->
<g id="edge46_Node000027_Node000016" class="edge">
<title>Node27&#45;&gt;Node16</title>
<g id="a_edge46_Node000027_Node000016"><a xlink:title=" ">
<path fill="none" stroke="#63b8ff" d="M404.12,-114.86C493.4,-103.7 643.21,-84.97 730.39,-74.08"/>
<polygon fill="#63b8ff" stroke="#63b8ff" points="730.95,-77.53 740.44,-72.82 730.08,-70.59 730.95,-77.53"/>
</a>
</g>
</g>
<!-- Node28 -->
<g id="Node000028" class="node">
<title>Node28</title>
<g id="a_Node000028"><a xlink:title=" ">
<polygon fill="#e0e0e0" stroke="#999999" points="349.5,-74 302.5,-74 302.5,-55 349.5,-55 349.5,-74"/>
<text text-anchor="middle" x="326" y="-62" font-family="Helvetica,sans-Serif" font-size="10.00">cmath</text>
</a>
</g>
</g>
<!-- Node27&#45;&gt;Node28 -->
<g id="edge41_Node000027_Node000028" class="edge">
<title>Node27&#45;&gt;Node28</title>
<g id="a_edge41_Node000027_Node000028"><a xlink:title=" ">
<path fill="none" stroke="#63b8ff" d="M329.79,-109.84C329.14,-102.21 328.33,-92.7 327.62,-84.45"/>
<polygon fill="#63b8ff" stroke="#63b8ff" points="331.09,-83.93 326.75,-74.27 324.11,-84.53 331.09,-83.93"/>
</a>
</g>
</g>
<!-- Node29 -->
<g id="Node000029" class="node">
<title>Node29</title>
<g id="a_Node000029"><a xlink:title=" ">
<polygon fill="#e0e0e0" stroke="#999999" points="418,-74 368,-74 368,-55 418,-55 418,-74"/>
<text text-anchor="middle" x="393" y="-62" font-family="Helvetica,sans-Serif" font-size="10.00">cstring</text>
</a>
</g>
</g>
<!-- Node27&#45;&gt;Node29 -->
<g id="edge44_Node000027_Node000029" class="edge">
<title>Node27&#45;&gt;Node29</title>
<g id="a_edge44_Node000027_Node000029"><a xlink:title=" ">
<path fill="none" stroke="#63b8ff" d="M346.01,-109.84C355.19,-101.17 366.95,-90.08 376.41,-81.15"/>
<polygon fill="#63b8ff" stroke="#63b8ff" points="378.84,-83.67 383.71,-74.27 374.03,-78.58 378.84,-83.67"/>
</a>
</g>
</g>
<!-- Node30 -->
<g id="Node000030" class="node">
<title>Node30</title>
<g id="a_Node000030"><a xlink:href="Sigma4bitPackedIdx_8hh.html" target="_top" xlink:title=" ">
<polygon fill="white" stroke="#666666" points="246,-74 116,-74 116,-55 246,-55 246,-74"/>
<text text-anchor="middle" x="181" y="-62" font-family="Helvetica,sans-Serif" font-size="10.00">Sigma4bitPackedIdx.hh</text>
</a>
</g>
</g>
<!-- Node27&#45;&gt;Node30 -->
<g id="edge47_Node000027_Node000030" class="edge">
<title>Node27&#45;&gt;Node30</title>
<g id="a_edge47_Node000027_Node000030"><a xlink:title=" ">
<path fill="none" stroke="#63b8ff" d="M295.07,-109.99C269.93,-100.18 236.67,-87.21 212.55,-77.81"/>
<polygon fill="#63b8ff" stroke="#63b8ff" points="213.74,-74.51 203.15,-74.14 211.2,-81.03 213.74,-74.51"/>
</a>
</g>
</g>
<!-- Node30&#45;&gt;Node3 -->
<g id="edge48_Node000030_Node000003" class="edge">
<title>Node30&#45;&gt;Node3</title>
<g id="a_edge48_Node000030_Node000003"><a xlink:title=" ">
<path fill="none" stroke="#63b8ff" d="M232.73,-54.98C296.8,-44.44 404.57,-26.7 462.78,-17.12"/>
<polygon fill="#63b8ff" stroke="#63b8ff" points="463.41,-20.56 472.71,-15.49 462.28,-13.66 463.41,-20.56"/>
</a>
</g>
</g>
<!-- Node30&#45;&gt;Node5 -->
<g id="edge49_Node000030_Node000005" class="edge">
<title>Node30&#45;&gt;Node5</title>
<g id="a_edge49_Node000030_Node000005"><a xlink:title=" ">
<path fill="none" stroke="#63b8ff" d="M163.49,-54.98C146.03,-46.5 118.99,-33.35 98.83,-23.54"/>
<polygon fill="#63b8ff" stroke="#63b8ff" points="100.36,-20.4 89.83,-19.17 97.29,-26.69 100.36,-20.4"/>
</a>
</g>
</g>
<!-- Node31 -->
<g id="Node000031" class="node">
<title>Node31</title>
<g id="a_Node000031"><a xlink:href="sigma4_8hh.html" target="_top" xlink:title=" ">
<polygon fill="white" stroke="#666666" points="230,-19 162,-19 162,0 230,0 230,-19"/>
<text text-anchor="middle" x="196" y="-7" font-family="Helvetica,sans-Serif" font-size="10.00">sigma4.hh</text>
</a>
</g>
</g>
<!-- Node30&#45;&gt;Node31 -->
<g id="edge50_Node000030_Node000031" class="edge">
<title>Node30&#45;&gt;Node31</title>
<g id="a_edge50_Node000030_Node000031"><a xlink:title=" ">
<path fill="none" stroke="#63b8ff" d="M183.48,-54.75C185.46,-47.72 188.32,-37.62 190.81,-28.84"/>
<polygon fill="#63b8ff" stroke="#63b8ff" points="194.21,-29.66 193.57,-19.09 187.48,-27.76 194.21,-29.66"/>
</a>
</g>
</g>
</g>
</svg>

<g id="navigator" transform="translate(0 0)" fill="#404254">
  <rect fill="#f2f5e9" fill-opacity="0.5" stroke="#606060" stroke-width=".5" x="0" y="0" width="60" height="60"/>
  <use id="zoomplus" xlink:href="#zoomPlus" x="17" y="9" onmousedown="handleZoom(evt,'in')"/>
  <use id="zoomminus" xlink:href="#zoomMin" x="42" y="9" onmousedown="handleZoom(evt,'out')"/>
  <use id="reset" xlink:href="#resetDef" x="30" y="36" onmousedown="handleReset()"/>
   <use id="arrowup" xlink:href="#arrowUp" x="0" y="0" onmousedown="handlePan(0,-1)"/>
  <use id="arrowright" xlink:href="#arrowRight" x="0" y="0" onmousedown="handlePan(1,0)"/>
  <use id="arrowdown" xlink:href="#arrowDown" x="0" y="0" onmousedown="handlePan(0,1)"/>
  <use id="arrowleft" xlink:href="#arrowLeft" x="0" y="0" onmousedown="handlePan(-1,0)"/>
</g>
<svg viewBox="0 0 15 15" width="100%" height="30px" preserveAspectRatio="xMaxYMin meet">
 <g id="arrow_out" transform="scale(0.3 0.3)">
  <a xlink:href="TagSet_8cc__incl_org.svg" target="_base">
   <rect id="button" ry="5" rx="5" y="6" x="6" height="38" width="38"
        fill="#f2f5e9" fill-opacity="0.5" stroke="#606060" stroke-width="1.0"/>
   <path id="arrow"
     d="M 11.500037,31.436501 C 11.940474,20.09759 22.043105,11.32322 32.158766,21.979434 L 37.068811,17.246167 C 37.068811,17.246167 37.088388,32 37.088388,32 L 22.160133,31.978069 C 22.160133,31.978069 26.997745,27.140456 26.997745,27.140456 C 18.528582,18.264221 13.291696,25.230495 11.500037,31.436501 z"
     style="fill:#404040;"/>
  </a>
 </g>
</svg>

<style type='text/css'>
<![CDATA[
[data-mouse-over-selected='false'] { opacity: 0.7; }
[data-mouse-over-selected='true']  { opacity: 1.0; }
]]>
</style>
<script type="application/ecmascript"><![CDATA[
document.addEventListener('DOMContentLoaded', (event) => {
  highlightEdges();
  highlightAdjacentNodes();
});
]]></script>
</svg>
