<?xml version="1.0" encoding="UTF-8" standalone="no"?>
<!DOCTYPE svg PUBLIC "-//W3C//DTD SVG 1.1//EN"
 "http://www.w3.org/Graphics/SVG/1.1/DTD/svg11.dtd">
<!-- Generated by graphviz version 2.43.0 (0)
 -->
<!-- Title: testDNAArrayBit16 Pages: 1 -->
<!--zoomable 172 -->

<svg id="main" version="1.1" xmlns="http://www.w3.org/2000/svg" xmlns:xlink="http://www.w3.org/1999/xlink" xml:space="preserve" onload="init(evt)">
<style type="text/css"><![CDATA[
.node, .edge {opacity: 0.7;}
.node.selected, .edge.selected {opacity: 1;}
.edge:hover path { stroke: red; }
.edge:hover polygon { stroke: red; fill: red; }
]]></style>

<defs>
  <circle id="rim" cx="0" cy="0" r="7"/>
  <circle id="rim2" cx="0" cy="0" r="3.5"/>
  <g id="zoomPlus">
    <use xlink:href="#rim" fill="#404040"><set attributeName="fill" to="#808080" begin="zoomplus.mouseover" end="zoomplus.mouseout"/></use>
    <path d="M-4,0h8M0,-4v8" fill="none" stroke="white" stroke-width="1.5" pointer-events="none"/>
  </g>
  <g id="zoomMin">
    <use xlink:href="#rim" fill="#404040"><set attributeName="fill" to="#808080" begin="zoomminus.mouseover" end="zoomminus.mouseout"/></use>
    <path d="M-4,0h8" fill="none" stroke="white" stroke-width="1.5" pointer-events="none"/>
  </g>
  <g id="arrowUp" transform="translate(30 24)">
    <use xlink:href="#rim"/>
    <path pointer-events="none" fill="none" stroke="white" stroke-width="1.5" d="M0,-3.0v7 M-2.5,-0.5L0,-3.0L2.5,-0.5"/>
  </g>
  <g id="arrowRight" transform="rotate(90) translate(36 -43)">
    <use xlink:href="#rim"/>
    <path pointer-events="none" fill="none" stroke="white" stroke-width="1.5" d="M0,-3.0v7 M-2.5,-0.5L0,-3.0L2.5,-0.5"/>
  </g>
  <g id="arrowDown" transform="rotate(180) translate(-30 -48)">
    <use xlink:href="#rim"/>
    <path pointer-events="none" fill="none" stroke="white" stroke-width="1.5" d="M0,-3.0v7 M-2.5,-0.5L0,-3.0L2.5,-0.5"/>
  </g>
  <g id="arrowLeft" transform="rotate(270) translate(-36 17)">
    <use xlink:href="#rim"/>
    <path pointer-events="none" fill="none" stroke="white" stroke-width="1.5" d="M0,-3.0v7 M-2.5,-0.5L0,-3.0L2.5,-0.5"/>
  </g>
  <g id="resetDef">
    <use xlink:href="#rim2" fill="#404040"><set attributeName="fill" to="#808080" begin="reset.mouseover" end="reset.mouseout"/></use>
  </g>
</defs>
<script type="application/ecmascript">
var viewWidth = 783;
var viewHeight = 172;
var sectionId = 'dynsection-2';
</script>
<script type="application/ecmascript" xlink:href="svg.min.js"/>
<svg id="graph" class="graph">
<g id="viewport">
<title>testDNAArrayBit16</title>
<!-- Node1 -->
<g id="Node000001" class="node">
<title>Node1</title>
<g id="a_Node000001"><a xlink:title=" ">
<polygon fill="#999999" stroke="#666666" points="109,-93.5 0,-93.5 0,-74.5 109,-74.5 109,-93.5"/>
<text text-anchor="middle" x="54.5" y="-81.5" font-family="Helvetica,sans-Serif" font-size="10.00">testDNAArrayBit16</text>
</a>
</g>
</g>
<!-- Node2 -->
<g id="Node000002" class="node">
<title>Node2</title>
<g id="a_Node000002"><a xlink:href="classcbrc_1_1ResidueIndexMap.html#a2dc335fd63573e8077fe9a5500905e7a" target="_top" xlink:title=" ">
<polygon fill="white" stroke="#666666" points="275,-164 145,-164 145,-134 275,-134 275,-164"/>
<text text-anchor="start" x="153" y="-152" font-family="Helvetica,sans-Serif" font-size="10.00">cbrc::ResidueIndexMap</text>
<text text-anchor="middle" x="210" y="-141" font-family="Helvetica,sans-Serif" font-size="10.00">::toResidue</text>
</a>
</g>
</g>
<!-- Node1&#45;&gt;Node2 -->
<g id="edge1_Node000001_Node000002" class="edge">
<title>Node1&#45;&gt;Node2</title>
<g id="a_edge1_Node000001_Node000002"><a xlink:title=" ">
<path fill="none" stroke="#63b8ff" d="M78.15,-93.59C100.7,-103.14 135.94,-118.06 164.16,-130.01"/>
<polygon fill="#63b8ff" stroke="#63b8ff" points="162.86,-133.26 173.44,-133.94 165.59,-126.82 162.86,-133.26"/>
</a>
</g>
</g>
<!-- Node3 -->
<g id="Node000003" class="node">
<title>Node3</title>
<g id="a_Node000003"><a xlink:href="classcbrc_1_1ResidueIndexMap.html#a9b65567497de5045f807b43fb263d345" target="_top" xlink:title=" ">
<polygon fill="white" stroke="#666666" points="441,-119 311,-119 311,-89 441,-89 441,-119"/>
<text text-anchor="start" x="319" y="-107" font-family="Helvetica,sans-Serif" font-size="10.00">cbrc::ResidueIndexMap</text>
<text text-anchor="middle" x="376" y="-96" font-family="Helvetica,sans-Serif" font-size="10.00">::toResidueIndex</text>
</a>
</g>
</g>
<!-- Node1&#45;&gt;Node3 -->
<g id="edge2_Node000001_Node000003" class="edge">
<title>Node1&#45;&gt;Node3</title>
<g id="a_edge2_Node000001_Node000003"><a xlink:title=" ">
<path fill="none" stroke="#63b8ff" d="M109.34,-87.37C161.77,-90.65 241.89,-95.67 300.44,-99.33"/>
<polygon fill="#63b8ff" stroke="#63b8ff" points="300.54,-102.85 310.74,-99.98 300.98,-95.86 300.54,-102.85"/>
</a>
</g>
</g>
<!-- Node5 -->
<g id="Node000005" class="node">
<title>Node5</title>
<g id="a_Node000005"><a xlink:href="classcbrc_1_1ResidueIndexMap.html#a7df71b4dc789fdb3af6955248ad3af2d" target="_top" xlink:title=" ">
<polygon fill="white" stroke="#666666" points="275,-78 145,-78 145,-48 275,-48 275,-78"/>
<text text-anchor="start" x="153" y="-66" font-family="Helvetica,sans-Serif" font-size="10.00">cbrc::ResidueIndexMap</text>
<text text-anchor="middle" x="210" y="-55" font-family="Helvetica,sans-Serif" font-size="10.00">::toResidueIndices</text>
</a>
</g>
</g>
<!-- Node1&#45;&gt;Node5 -->
<g id="edge4_Node000001_Node000005" class="edge">
<title>Node1&#45;&gt;Node5</title>
<g id="a_edge4_Node000001_Node000005"><a xlink:title=" ">
<path fill="none" stroke="#63b8ff" d="M109.19,-76.66C117.45,-75.52 126.11,-74.34 134.73,-73.16"/>
<polygon fill="#63b8ff" stroke="#63b8ff" points="135.36,-76.61 144.8,-71.78 134.41,-69.67 135.36,-76.61"/>
</a>
</g>
</g>
<!-- Node6 -->
<g id="Node000006" class="node">
<title>Node6</title>
<g id="a_Node000006"><a xlink:href="classcbrc_1_1ResidueIndexMap.html#a09e7978f236f2b1462bac13bda38fee6" target="_top" xlink:title=" ">
<polygon fill="white" stroke="#666666" points="275,-30 145,-30 145,0 275,0 275,-30"/>
<text text-anchor="start" x="153" y="-18" font-family="Helvetica,sans-Serif" font-size="10.00">cbrc::ResidueIndexMap</text>
<text text-anchor="middle" x="210" y="-7" font-family="Helvetica,sans-Serif" font-size="10.00">::toResidues</text>
</a>
</g>
</g>
<!-- Node1&#45;&gt;Node6 -->
<g id="edge5_Node000001_Node000006" class="edge">
<title>Node1&#45;&gt;Node6</title>
<g id="a_edge5_Node000001_Node000006"><a xlink:title=" ">
<path fill="none" stroke="#63b8ff" d="M73.06,-74.47C90.92,-64.94 119.51,-50.15 145,-39 148.91,-37.29 152.99,-35.58 157.11,-33.92"/>
<polygon fill="#63b8ff" stroke="#63b8ff" points="158.73,-37.04 166.74,-30.11 156.16,-30.53 158.73,-37.04"/>
</a>
</g>
</g>
<!-- Node4 -->
<g id="Node000004" class="node">
<title>Node4</title>
<g id="a_Node000004"><a xlink:href="classcbrc_1_1FLEArray.html#ad71311380d762114c9e0f3b0dda38b7c" target="_top" xlink:title=" ">
<polygon fill="white" stroke="#666666" points="763,-101.5 652,-101.5 652,-82.5 763,-82.5 763,-101.5"/>
<text text-anchor="middle" x="707.5" y="-89.5" font-family="Helvetica,sans-Serif" font-size="10.00">cbrc::FLEArray::size</text>
</a>
</g>
</g>
<!-- Node3&#45;&gt;Node4 -->
<g id="edge3_Node000003_Node000004" class="edge">
<title>Node3&#45;&gt;Node4</title>
<g id="a_edge3_Node000003_Node000004"><a xlink:title=" ">
<path fill="none" stroke="#63b8ff" d="M441.31,-101.66C499.18,-99.55 583.77,-96.47 641.76,-94.36"/>
<polygon fill="#63b8ff" stroke="#63b8ff" points="642.04,-97.85 651.91,-93.99 641.78,-90.85 642.04,-97.85"/>
</a>
</g>
</g>
<!-- Node7 -->
<g id="Node000007" class="node">
<title>Node7</title>
<g id="a_Node000007"><a xlink:href="classcbrc_1_1FLEArray.html#ad003950bdededca7ee3b3dd6cd6ea644" target="_top" xlink:title=" ">
<polygon fill="white" stroke="#666666" points="436.5,-31.5 315.5,-31.5 315.5,-12.5 436.5,-12.5 436.5,-31.5"/>
<text text-anchor="middle" x="376" y="-19.5" font-family="Helvetica,sans-Serif" font-size="10.00">cbrc::FLEArray::resize</text>
</a>
</g>
</g>
<!-- Node6&#45;&gt;Node7 -->
<g id="edge6_Node000006_Node000007" class="edge">
<title>Node6&#45;&gt;Node7</title>
<g id="a_edge6_Node000006_Node000007"><a xlink:title=" ">
<path fill="none" stroke="#63b8ff" d="M275.35,-17.75C285.14,-18.16 295.28,-18.6 305.18,-19.02"/>
<polygon fill="#63b8ff" stroke="#63b8ff" points="305.25,-22.53 315.39,-19.46 305.54,-15.53 305.25,-22.53"/>
</a>
</g>
</g>
<!-- Node8 -->
<g id="Node000008" class="node">
<title>Node8</title>
<g id="a_Node000008"><a xlink:href="classcbrc_1_1FLEArray.html#a5368c7c0434bd5c119d2cbb39f4b399e" target="_top" xlink:title=" ">
<polygon fill="white" stroke="#666666" points="775,-41.5 640,-41.5 640,-22.5 775,-22.5 775,-41.5"/>
<text text-anchor="middle" x="707.5" y="-29.5" font-family="Helvetica,sans-Serif" font-size="10.00">cbrc::FLEArray::FLEArray</text>
</a>
</g>
</g>
<!-- Node7&#45;&gt;Node8 -->
<g id="edge7_Node000007_Node000008" class="edge">
<title>Node7&#45;&gt;Node8</title>
<g id="a_edge7_Node000007_Node000008"><a xlink:title=" ">
<path fill="none" stroke="#63b8ff" d="M436.67,-23.81C490.84,-25.45 571.03,-27.89 629.91,-29.68"/>
<polygon fill="#63b8ff" stroke="#63b8ff" points="629.81,-33.17 639.91,-29.98 630.02,-26.18 629.81,-33.17"/>
</a>
</g>
</g>
<!-- Node9 -->
<g id="Node000009" class="node">
<title>Node9</title>
<g id="a_Node000009"><a xlink:href="classcbrc_1_1FLEArray.html#a5f10f892188c41f2821ef33ee9bcc743" target="_top" xlink:title=" ">
<polygon fill="white" stroke="#666666" points="604,-69.5 477,-69.5 477,-50.5 604,-50.5 604,-69.5"/>
<text text-anchor="middle" x="540.5" y="-57.5" font-family="Helvetica,sans-Serif" font-size="10.00">cbrc::FLEArray::setSize</text>
</a>
</g>
</g>
<!-- Node7&#45;&gt;Node9 -->
<g id="edge9_Node000007_Node000009" class="edge">
<title>Node7&#45;&gt;Node9</title>
<g id="a_edge9_Node000007_Node000009"><a xlink:title=" ">
<path fill="none" stroke="#63b8ff" d="M418.01,-31.59C439.55,-36.63 466.13,-42.84 488.94,-48.18"/>
<polygon fill="#63b8ff" stroke="#63b8ff" points="488.25,-51.61 498.79,-50.48 489.85,-44.79 488.25,-51.61"/>
</a>
</g>
</g>
<!-- Node8&#45;&gt;Node8 -->
<g id="edge8_Node000008_Node000008" class="edge">
<title>Node8&#45;&gt;Node8</title>
<g id="a_edge8_Node000008_Node000008"><a xlink:title=" ">
<path fill="none" stroke="#63b8ff" d="M681.91,-41.58C669.47,-50.23 678,-59.5 707.5,-59.5 726.86,-59.5 737.19,-55.51 738.49,-50.32"/>
<polygon fill="#63b8ff" stroke="#63b8ff" points="741.32,-48.25 733.09,-41.58 735.37,-51.93 741.32,-48.25"/>
</a>
</g>
</g>
<!-- Node9&#45;&gt;Node4 -->
<g id="edge11_Node000009_Node000004" class="edge">
<title>Node9&#45;&gt;Node4</title>
<g id="a_edge11_Node000009_Node000004"><a xlink:title=" ">
<path fill="none" stroke="#63b8ff" d="M590.56,-69.51C608.43,-72.98 628.83,-76.94 647.48,-80.55"/>
<polygon fill="#63b8ff" stroke="#63b8ff" points="646.86,-84 657.35,-82.47 648.19,-77.13 646.86,-84"/>
</a>
</g>
</g>
<!-- Node9&#45;&gt;Node8 -->
<g id="edge10_Node000009_Node000008" class="edge">
<title>Node9&#45;&gt;Node8</title>
<g id="a_edge10_Node000009_Node000008"><a xlink:title=" ">
<path fill="none" stroke="#63b8ff" d="M597.82,-50.44C611.49,-48.12 626.24,-45.62 640.32,-43.23"/>
<polygon fill="#63b8ff" stroke="#63b8ff" points="641.16,-46.64 650.43,-41.51 639.99,-39.74 641.16,-46.64"/>
</a>
</g>
</g>
</g>
</svg>

<g id="navigator" transform="translate(0 0)" fill="#404254">
  <rect fill="#f2f5e9" fill-opacity="0.5" stroke="#606060" stroke-width=".5" x="0" y="0" width="60" height="60"/>
  <use id="zoomplus" xlink:href="#zoomPlus" x="17" y="9" onmousedown="handleZoom(evt,'in')"/>
  <use id="zoomminus" xlink:href="#zoomMin" x="42" y="9" onmousedown="handleZoom(evt,'out')"/>
  <use id="reset" xlink:href="#resetDef" x="30" y="36" onmousedown="handleReset()"/>
   <use id="arrowup" xlink:href="#arrowUp" x="0" y="0" onmousedown="handlePan(0,-1)"/>
  <use id="arrowright" xlink:href="#arrowRight" x="0" y="0" onmousedown="handlePan(1,0)"/>
  <use id="arrowdown" xlink:href="#arrowDown" x="0" y="0" onmousedown="handlePan(0,1)"/>
  <use id="arrowleft" xlink:href="#arrowLeft" x="0" y="0" onmousedown="handlePan(-1,0)"/>
</g>
<svg viewBox="0 0 15 15" width="100%" height="30px" preserveAspectRatio="xMaxYMin meet">
 <g id="arrow_out" transform="scale(0.3 0.3)">
  <a xlink:href="testDNAArrayBit16_8cc_aa95154492c8f4b8a97d6b1be376b4777_cgraph_org.svg" target="_base">
   <rect id="button" ry="5" rx="5" y="6" x="6" height="38" width="38"
        fill="#f2f5e9" fill-opacity="0.5" stroke="#606060" stroke-width="1.0"/>
   <path id="arrow"
     d="M 11.500037,31.436501 C 11.940474,20.09759 22.043105,11.32322 32.158766,21.979434 L 37.068811,17.246167 C 37.068811,17.246167 37.088388,32 37.088388,32 L 22.160133,31.978069 C 22.160133,31.978069 26.997745,27.140456 26.997745,27.140456 C 18.528582,18.264221 13.291696,25.230495 11.500037,31.436501 z"
     style="fill:#404040;"/>
  </a>
 </g>
</svg>

<style type='text/css'>
<![CDATA[
[data-mouse-over-selected='false'] { opacity: 0.7; }
[data-mouse-over-selected='true']  { opacity: 1.0; }
]]>
</style>
<script type="application/ecmascript"><![CDATA[
document.addEventListener('DOMContentLoaded', (event) => {
  highlightEdges();
  highlightAdjacentNodes();
});
]]></script>
</svg>
