<?xml version="1.0" encoding="UTF-8" standalone="no"?>
<!DOCTYPE svg PUBLIC "-//W3C//DTD SVG 1.1//EN"
 "http://www.w3.org/Graphics/SVG/1.1/DTD/svg11.dtd">
<!-- Generated by graphviz version 2.43.0 (0)
 -->
<!-- Title: testLogFactorial Pages: 1 -->
<svg width="397pt" height="46pt"
 viewBox="0.00 0.00 397.00 46.00" xmlns="http://www.w3.org/2000/svg" xmlns:xlink="http://www.w3.org/1999/xlink">

<svg id="main" version="1.1" xmlns="http://www.w3.org/2000/svg" xmlns:xlink="http://www.w3.org/1999/xlink" xml:space="preserve" onload="init(evt)">
<style type="text/css"><![CDATA[
.node, .edge {opacity: 0.7;}
.node.selected, .edge.selected {opacity: 1;}
.edge:hover path { stroke: red; }
.edge:hover polygon { stroke: red; fill: red; }
]]></style>
<script type="application/ecmascript" xlink:href="svg.min.js"/>
<svg id="graph" class="graph">
<g id="graph0" class="graph" transform="scale(1 1) rotate(0) translate(4 42)">
<title>testLogFactorial</title>
<!-- Node1 -->
<g id="Node000001" class="node">
<title>Node1</title>
<g id="a_Node000001"><a xlink:title=" ">
<polygon fill="#999999" stroke="#666666" points="94,-19 0,-19 0,0 94,0 94,-19"/>
<text text-anchor="middle" x="47" y="-7" font-family="Helvetica,sans-Serif" font-size="10.00">testLogFactorial</text>
</a>
</g>
</g>
<!-- Node2 -->
<g id="Node000002" class="node">
<title>Node2</title>
<g id="a_Node000002"><a xlink:href="EstimateTrueCount__EntropyFast_8cc.html#a790922e5ce9415fe72d37406abf168c5" target="_top" xlink:title=" ">
<polygon fill="white" stroke="#666666" points="159,-19 130,-19 130,0 159,0 159,-19"/>
<text text-anchor="middle" x="144.5" y="-7" font-family="Helvetica,sans-Serif" font-size="10.00">f</text>
</a>
</g>
</g>
<!-- Node1&#45;&gt;Node2 -->
<g id="edge1_Node000001_Node000002" class="edge">
<title>Node1&#45;&gt;Node2</title>
<g id="a_edge1_Node000001_Node000002"><a xlink:title=" ">
<path fill="none" stroke="#63b8ff" d="M94.07,-9.5C102.89,-9.5 111.78,-9.5 119.55,-9.5"/>
<polygon fill="#63b8ff" stroke="#63b8ff" points="119.65,-13 129.65,-9.5 119.65,-6 119.65,-13"/>
</a>
</g>
</g>
<!-- Node3 -->
<g id="Node000003" class="node">
<title>Node3</title>
<g id="a_Node000003"><a xlink:href="EstimateTrueCount__EntropyFast_8cc.html#a9dbdc9b883fafd106ea6e9f4f2d18b10" target="_top" xlink:title=" ">
<polygon fill="white" stroke="#666666" points="324,-38 195,-38 195,-19 324,-19 324,-38"/>
<text text-anchor="middle" x="259.5" y="-26" font-family="Helvetica,sans-Serif" font-size="10.00">compute_sum_hx_vect</text>
</a>
</g>
</g>
<!-- Node2&#45;&gt;Node3 -->
<g id="edge2_Node000002_Node000003" class="edge">
<title>Node2&#45;&gt;Node3</title>
<g id="a_edge2_Node000002_Node000003"><a xlink:title=" ">
<path fill="none" stroke="#63b8ff" d="M159.36,-11.83C167.91,-13.27 179.59,-15.23 191.93,-17.31"/>
<polygon fill="#63b8ff" stroke="#63b8ff" points="191.48,-20.78 201.92,-18.99 192.64,-13.88 191.48,-20.78"/>
</a>
</g>
</g>
<!-- Node4 -->
<g id="Node000004" class="node">
<title>Node4</title>
<g id="a_Node000004"><a xlink:href="EstimateTrueCount__EntropyFast_8cc.html#a4bc05b3e60ec6578aae305cf37c63377" target="_top" xlink:title=" ">
<polygon fill="white" stroke="#666666" points="389,-19 360,-19 360,0 389,0 389,-19"/>
<text text-anchor="middle" x="374.5" y="-7" font-family="Helvetica,sans-Serif" font-size="10.00">h</text>
</a>
</g>
</g>
<!-- Node2&#45;&gt;Node4 -->
<g id="edge4_Node000002_Node000004" class="edge">
<title>Node2&#45;&gt;Node4</title>
<g id="a_edge4_Node000002_Node000004"><a xlink:title=" ">
<path fill="none" stroke="#63b8ff" d="M159.08,-9.5C196.62,-9.5 302.17,-9.5 349.74,-9.5"/>
<polygon fill="#63b8ff" stroke="#63b8ff" points="349.99,-13 359.99,-9.5 349.99,-6 349.99,-13"/>
</a>
</g>
</g>
<!-- Node3&#45;&gt;Node4 -->
<g id="edge3_Node000003_Node000004" class="edge">
<title>Node3&#45;&gt;Node4</title>
<g id="a_edge3_Node000003_Node000004"><a xlink:title=" ">
<path fill="none" stroke="#63b8ff" d="M317.33,-18.94C328.83,-17.01 340.31,-15.08 349.87,-13.47"/>
<polygon fill="#63b8ff" stroke="#63b8ff" points="350.46,-16.92 359.74,-11.81 349.3,-10.02 350.46,-16.92"/>
</a>
</g>
</g>
</g>
</svg>
</svg>

<style type='text/css'>
<![CDATA[
[data-mouse-over-selected='false'] { opacity: 0.7; }
[data-mouse-over-selected='true']  { opacity: 1.0; }
]]>
</style>
<script type="application/ecmascript"><![CDATA[
document.addEventListener('DOMContentLoaded', (event) => {
  highlightEdges();
  highlightAdjacentNodes();
});
]]></script>
</svg>
