<?xml version="1.0" encoding="UTF-8" standalone="no"?>
<!DOCTYPE svg PUBLIC "-//W3C//DTD SVG 1.1//EN"
 "http://www.w3.org/Graphics/SVG/1.1/DTD/svg11.dtd">
<!-- Generated by graphviz version 2.43.0 (0)
 -->
<!-- Title: ematch_src/utils/math/test/testLogChoose.cc Pages: 1 -->
<svg width="262pt" height="258pt"
 viewBox="0.00 0.00 262.00 258.00" xmlns="http://www.w3.org/2000/svg" xmlns:xlink="http://www.w3.org/1999/xlink">
<g id="graph0" class="graph" transform="scale(1 1) rotate(0) translate(4 254)">
<title>ematch_src/utils/math/test/testLogChoose.cc</title>
<!-- Node1 -->
<g id="Node000001" class="node">
<title>Node1</title>
<g id="a_Node000001"><a xlink:title=" ">
<polygon fill="#999999" stroke="#666666" points="127,-250 0,-250 0,-220 127,-220 127,-250"/>
<text text-anchor="start" x="8" y="-238" font-family="Helvetica,sans-Serif" font-size="10.00">ematch_src/utils/math</text>
<text text-anchor="middle" x="63.5" y="-227" font-family="Helvetica,sans-Serif" font-size="10.00">/test/testLogChoose.cc</text>
</a>
</g>
</g>
<!-- Node2 -->
<g id="Node000002" class="node">
<title>Node2</title>
<g id="a_Node000002"><a xlink:title=" ">
<polygon fill="#e0e0e0" stroke="#999999" points="65.5,-19 5.5,-19 5.5,0 65.5,0 65.5,-19"/>
<text text-anchor="middle" x="35.5" y="-7" font-family="Helvetica,sans-Serif" font-size="10.00">iostream</text>
</a>
</g>
</g>
<!-- Node1&#45;&gt;Node2 -->
<g id="edge1_Node000001_Node000002" class="edge">
<title>Node1&#45;&gt;Node2</title>
<g id="a_edge1_Node000001_Node000002"><a xlink:title=" ">
<path fill="none" stroke="#63b8ff" d="M57.18,-219.87C53.08,-210.03 48.05,-196.47 45.5,-184 34.2,-128.71 34.08,-61.6 34.83,-29.45"/>
<polygon fill="#63b8ff" stroke="#63b8ff" points="38.33,-29.38 35.12,-19.28 31.33,-29.17 38.33,-29.38"/>
</a>
</g>
</g>
<!-- Node3 -->
<g id="Node000003" class="node">
<title>Node3</title>
<g id="a_Node000003"><a xlink:href="LogChoose_8hh.html" target="_top" xlink:title=" ">
<polygon fill="white" stroke="#666666" points="148.5,-184 54.5,-184 54.5,-165 148.5,-165 148.5,-184"/>
<text text-anchor="middle" x="101.5" y="-172" font-family="Helvetica,sans-Serif" font-size="10.00">../LogChoose.hh</text>
</a>
</g>
</g>
<!-- Node1&#45;&gt;Node3 -->
<g id="edge2_Node000001_Node000003" class="edge">
<title>Node1&#45;&gt;Node3</title>
<g id="a_edge2_Node000001_Node000003"><a xlink:title=" ">
<path fill="none" stroke="#63b8ff" d="M72.7,-219.84C77.99,-211.69 84.68,-201.4 90.28,-192.78"/>
<polygon fill="#63b8ff" stroke="#63b8ff" points="93.29,-194.56 95.81,-184.27 87.42,-190.75 93.29,-194.56"/>
</a>
</g>
</g>
<!-- Node4 -->
<g id="Node000004" class="node">
<title>Node4</title>
<g id="a_Node000004"><a xlink:href="FLArray_8hh.html" target="_top" xlink:title=" ">
<polygon fill="white" stroke="#666666" points="188.5,-74 54.5,-74 54.5,-55 188.5,-55 188.5,-74"/>
<text text-anchor="middle" x="121.5" y="-62" font-family="Helvetica,sans-Serif" font-size="10.00">utils/FLArray/FLArray.hh</text>
</a>
</g>
</g>
<!-- Node3&#45;&gt;Node4 -->
<g id="edge3_Node000003_Node000004" class="edge">
<title>Node3&#45;&gt;Node4</title>
<g id="a_edge3_Node000003_Node000004"><a xlink:title=" ">
<path fill="none" stroke="#63b8ff" d="M100.58,-164.75C99.53,-152.4 98.42,-129.2 102.5,-110 104.47,-100.76 108.37,-91.04 112.14,-83.06"/>
<polygon fill="#63b8ff" stroke="#63b8ff" points="115.31,-84.54 116.67,-74.03 109.05,-81.4 115.31,-84.54"/>
</a>
</g>
</g>
<!-- Node7 -->
<g id="Node000007" class="node">
<title>Node7</title>
<g id="a_Node000007"><a xlink:href="LogFactorial_8hh.html" target="_top" xlink:title=" ">
<polygon fill="white" stroke="#666666" points="254,-129 111,-129 111,-110 254,-110 254,-129"/>
<text text-anchor="middle" x="182.5" y="-117" font-family="Helvetica,sans-Serif" font-size="10.00">utils/math/LogFactorial.hh</text>
</a>
</g>
</g>
<!-- Node3&#45;&gt;Node7 -->
<g id="edge7_Node000003_Node000007" class="edge">
<title>Node3&#45;&gt;Node7</title>
<g id="a_edge7_Node000003_Node000007"><a xlink:title=" ">
<path fill="none" stroke="#63b8ff" d="M114.51,-164.98C126.96,-156.84 145.96,-144.41 160.71,-134.76"/>
<polygon fill="#63b8ff" stroke="#63b8ff" points="162.8,-137.57 169.25,-129.17 158.96,-131.72 162.8,-137.57"/>
</a>
</g>
</g>
<!-- Node4&#45;&gt;Node2 -->
<g id="edge6_Node000004_Node000002" class="edge">
<title>Node4&#45;&gt;Node2</title>
<g id="a_edge6_Node000004_Node000002"><a xlink:title=" ">
<path fill="none" stroke="#63b8ff" d="M107.68,-54.98C94.35,-46.77 73.92,-34.18 58.19,-24.49"/>
<polygon fill="#63b8ff" stroke="#63b8ff" points="59.92,-21.44 49.57,-19.17 56.25,-27.4 59.92,-21.44"/>
</a>
</g>
</g>
<!-- Node5 -->
<g id="Node000005" class="node">
<title>Node5</title>
<g id="a_Node000005"><a xlink:title=" ">
<polygon fill="#e0e0e0" stroke="#999999" points="144.5,-19 88.5,-19 88.5,0 144.5,0 144.5,-19"/>
<text text-anchor="middle" x="116.5" y="-7" font-family="Helvetica,sans-Serif" font-size="10.00">assert.h</text>
</a>
</g>
</g>
<!-- Node4&#45;&gt;Node5 -->
<g id="edge4_Node000004_Node000005" class="edge">
<title>Node4&#45;&gt;Node5</title>
<g id="a_edge4_Node000004_Node000005"><a xlink:title=" ">
<path fill="none" stroke="#63b8ff" d="M120.67,-54.75C120.02,-47.8 119.08,-37.85 118.26,-29.13"/>
<polygon fill="#63b8ff" stroke="#63b8ff" points="121.73,-28.72 117.31,-19.09 114.77,-29.37 121.73,-28.72"/>
</a>
</g>
</g>
<!-- Node6 -->
<g id="Node000006" class="node">
<title>Node6</title>
<g id="a_Node000006"><a xlink:title=" ">
<polygon fill="#e0e0e0" stroke="#999999" points="210,-19 163,-19 163,0 210,0 210,-19"/>
<text text-anchor="middle" x="186.5" y="-7" font-family="Helvetica,sans-Serif" font-size="10.00">vector</text>
</a>
</g>
</g>
<!-- Node4&#45;&gt;Node6 -->
<g id="edge5_Node000004_Node000006" class="edge">
<title>Node4&#45;&gt;Node6</title>
<g id="a_edge5_Node000004_Node000006"><a xlink:title=" ">
<path fill="none" stroke="#63b8ff" d="M131.94,-54.98C141.65,-47.07 156.32,-35.11 168,-25.58"/>
<polygon fill="#63b8ff" stroke="#63b8ff" points="170.33,-28.2 175.87,-19.17 165.9,-22.78 170.33,-28.2"/>
</a>
</g>
</g>
<!-- Node7&#45;&gt;Node4 -->
<g id="edge8_Node000007_Node000004" class="edge">
<title>Node7&#45;&gt;Node4</title>
<g id="a_edge8_Node000007_Node000004"><a xlink:title=" ">
<path fill="none" stroke="#63b8ff" d="M172.7,-109.98C163.68,-102.15 150.09,-90.34 139.18,-80.86"/>
<polygon fill="#63b8ff" stroke="#63b8ff" points="141.32,-78.09 131.48,-74.17 136.73,-83.37 141.32,-78.09"/>
</a>
</g>
</g>
</g>
</svg>
