<?xml version="1.0" encoding="UTF-8" standalone="no"?>
<!DOCTYPE svg PUBLIC "-//W3C//DTD SVG 1.1//EN"
 "http://www.w3.org/Graphics/SVG/1.1/DTD/svg11.dtd">
<!-- Generated by graphviz version 2.43.0 (0)
 -->
<!-- Title: ematch_src/utils/perlish/test/testNumberStringFunctions.cc Pages: 1 -->
<svg width="981pt" height="203pt"
 viewBox="0.00 0.00 981.15 203.00" xmlns="http://www.w3.org/2000/svg" xmlns:xlink="http://www.w3.org/1999/xlink">
<g id="graph0" class="graph" transform="scale(1 1) rotate(0) translate(4 199)">
<title>ematch_src/utils/perlish/test/testNumberStringFunctions.cc</title>
<!-- Node1 -->
<g id="Node000001" class="node">
<title>Node1</title>
<g id="a_Node000001"><a xlink:title=" ">
<polygon fill="#999999" stroke="#666666" points="472.5,-195 284.5,-195 284.5,-165 472.5,-165 472.5,-195"/>
<text text-anchor="start" x="292.5" y="-183" font-family="Helvetica,sans-Serif" font-size="10.00">ematch_src/utils/perlish</text>
<text text-anchor="middle" x="378.5" y="-172" font-family="Helvetica,sans-Serif" font-size="10.00">/test/testNumberStringFunctions.cc</text>
</a>
</g>
</g>
<!-- Node2 -->
<g id="Node000002" class="node">
<title>Node2</title>
<g id="a_Node000002"><a xlink:title=" ">
<polygon fill="#e0e0e0" stroke="#999999" points="333.5,-19 273.5,-19 273.5,0 333.5,0 333.5,-19"/>
<text text-anchor="middle" x="303.5" y="-7" font-family="Helvetica,sans-Serif" font-size="10.00">iostream</text>
</a>
</g>
</g>
<!-- Node1&#45;&gt;Node2 -->
<g id="edge1_Node000001_Node000002" class="edge">
<title>Node1&#45;&gt;Node2</title>
<g id="a_edge1_Node000001_Node000002"><a xlink:title=" ">
<path fill="none" stroke="#63b8ff" d="M363.5,-164.72C344.99,-145.97 314.5,-111.04 302.5,-74 297.82,-59.56 298.46,-42.29 300.06,-29.4"/>
<polygon fill="#63b8ff" stroke="#63b8ff" points="303.54,-29.81 301.59,-19.39 296.62,-28.75 303.54,-29.81"/>
</a>
</g>
</g>
<!-- Node3 -->
<g id="Node000003" class="node">
<title>Node3</title>
<g id="a_Node000003"><a xlink:href="ematch__src_2utils_2perlish_2perlish_8hh.html" target="_top" xlink:title=" ">
<polygon fill="white" stroke="#666666" points="592.5,-129 518.5,-129 518.5,-110 592.5,-110 592.5,-129"/>
<text text-anchor="middle" x="555.5" y="-117" font-family="Helvetica,sans-Serif" font-size="10.00">../perlish.hh</text>
</a>
</g>
</g>
<!-- Node1&#45;&gt;Node3 -->
<g id="edge2_Node000001_Node000003" class="edge">
<title>Node1&#45;&gt;Node3</title>
<g id="a_edge2_Node000001_Node000003"><a xlink:title=" ">
<path fill="none" stroke="#63b8ff" d="M420.9,-164.99C451.18,-154.98 491.45,-141.67 520.03,-132.22"/>
<polygon fill="#63b8ff" stroke="#63b8ff" points="521.22,-135.52 529.62,-129.05 519.03,-128.87 521.22,-135.52"/>
</a>
</g>
</g>
<!-- Node3&#45;&gt;Node2 -->
<g id="edge4_Node000003_Node000002" class="edge">
<title>Node3&#45;&gt;Node2</title>
<g id="a_edge4_Node000003_Node000002"><a xlink:title=" ">
<path fill="none" stroke="#63b8ff" d="M518.43,-116.54C458.59,-112.59 344.58,-101.58 316.5,-74 304.84,-62.55 302.23,-43.66 302.15,-29.46"/>
<polygon fill="#63b8ff" stroke="#63b8ff" points="305.65,-29.42 302.5,-19.3 298.65,-29.17 305.65,-29.42"/>
</a>
</g>
</g>
<!-- Node4 -->
<g id="Node000004" class="node">
<title>Node4</title>
<g id="a_Node000004"><a xlink:title=" ">
<polygon fill="#e0e0e0" stroke="#999999" points="379,-74 326,-74 326,-55 379,-55 379,-74"/>
<text text-anchor="middle" x="352.5" y="-62" font-family="Helvetica,sans-Serif" font-size="10.00">ctype.h</text>
</a>
</g>
</g>
<!-- Node3&#45;&gt;Node4 -->
<g id="edge3_Node000003_Node000004" class="edge">
<title>Node3&#45;&gt;Node4</title>
<g id="a_edge3_Node000003_Node000004"><a xlink:title=" ">
<path fill="none" stroke="#63b8ff" d="M522.88,-109.98C486.41,-100.46 427.48,-85.08 389.36,-75.12"/>
<polygon fill="#63b8ff" stroke="#63b8ff" points="389.76,-71.61 379.2,-72.47 387.99,-78.38 389.76,-71.61"/>
</a>
</g>
</g>
<!-- Node5 -->
<g id="Node000005" class="node">
<title>Node5</title>
<g id="a_Node000005"><a xlink:title=" ">
<polygon fill="#e0e0e0" stroke="#999999" points="452,-74 397,-74 397,-55 452,-55 452,-74"/>
<text text-anchor="middle" x="424.5" y="-62" font-family="Helvetica,sans-Serif" font-size="10.00">fstream</text>
</a>
</g>
</g>
<!-- Node3&#45;&gt;Node5 -->
<g id="edge5_Node000003_Node000005" class="edge">
<title>Node3&#45;&gt;Node5</title>
<g id="a_edge5_Node000003_Node000005"><a xlink:title=" ">
<path fill="none" stroke="#63b8ff" d="M534.45,-109.98C513.09,-101.34 479.8,-87.87 455.44,-78.02"/>
<polygon fill="#63b8ff" stroke="#63b8ff" points="456.51,-74.68 445.93,-74.17 453.89,-81.17 456.51,-74.68"/>
</a>
</g>
</g>
<!-- Node6 -->
<g id="Node000006" class="node">
<title>Node6</title>
<g id="a_Node000006"><a xlink:title=" ">
<polygon fill="#e0e0e0" stroke="#999999" points="526.5,-74 470.5,-74 470.5,-55 526.5,-55 526.5,-74"/>
<text text-anchor="middle" x="498.5" y="-62" font-family="Helvetica,sans-Serif" font-size="10.00">sstream</text>
</a>
</g>
</g>
<!-- Node3&#45;&gt;Node6 -->
<g id="edge6_Node000003_Node000006" class="edge">
<title>Node3&#45;&gt;Node6</title>
<g id="a_edge6_Node000003_Node000006"><a xlink:title=" ">
<path fill="none" stroke="#63b8ff" d="M546.34,-109.98C538,-102.23 525.47,-90.58 515.32,-81.14"/>
<polygon fill="#63b8ff" stroke="#63b8ff" points="517.53,-78.42 507.82,-74.17 512.76,-83.54 517.53,-78.42"/>
</a>
</g>
</g>
<!-- Node7 -->
<g id="Node000007" class="node">
<title>Node7</title>
<g id="a_Node000007"><a xlink:title=" ">
<polygon fill="#e0e0e0" stroke="#999999" points="814.5,-19 770.5,-19 770.5,0 814.5,0 814.5,-19"/>
<text text-anchor="middle" x="792.5" y="-7" font-family="Helvetica,sans-Serif" font-size="10.00">string</text>
</a>
</g>
</g>
<!-- Node3&#45;&gt;Node7 -->
<g id="edge7_Node000003_Node000007" class="edge">
<title>Node3&#45;&gt;Node7</title>
<g id="a_edge7_Node000003_Node000007"><a xlink:title=" ">
<path fill="none" stroke="#63b8ff" d="M592.57,-111.22C623.76,-104.24 668.98,-92.07 705.5,-74 731.76,-61.01 758.47,-40.13 775.24,-25.89"/>
<polygon fill="#63b8ff" stroke="#63b8ff" points="777.78,-28.32 783.04,-19.12 773.19,-23.03 777.78,-28.32"/>
</a>
</g>
</g>
<!-- Node8 -->
<g id="Node000008" class="node">
<title>Node8</title>
<g id="a_Node000008"><a xlink:title=" ">
<polygon fill="#e0e0e0" stroke="#999999" points="968,-19 921,-19 921,0 968,0 968,-19"/>
<text text-anchor="middle" x="944.5" y="-7" font-family="Helvetica,sans-Serif" font-size="10.00">vector</text>
</a>
</g>
</g>
<!-- Node3&#45;&gt;Node8 -->
<g id="edge8_Node000003_Node000008" class="edge">
<title>Node3&#45;&gt;Node8</title>
<g id="a_edge8_Node000003_Node000008"><a xlink:title=" ">
<path fill="none" stroke="#63b8ff" d="M592.62,-117.27C689.22,-113.67 942.66,-101.67 967.5,-74 979.31,-60.85 969.24,-41.17 958.96,-27.21"/>
<polygon fill="#63b8ff" stroke="#63b8ff" points="961.69,-25.02 952.73,-19.37 956.21,-29.38 961.69,-25.02"/>
</a>
</g>
</g>
<!-- Node9 -->
<g id="Node000009" class="node">
<title>Node9</title>
<g id="a_Node000009"><a xlink:title=" ">
<polygon fill="#e0e0e0" stroke="#999999" points="830.5,-74 774.5,-74 774.5,-55 830.5,-55 830.5,-74"/>
<text text-anchor="middle" x="802.5" y="-62" font-family="Helvetica,sans-Serif" font-size="10.00">assert.h</text>
</a>
</g>
</g>
<!-- Node3&#45;&gt;Node9 -->
<g id="edge9_Node000003_Node000009" class="edge">
<title>Node3&#45;&gt;Node9</title>
<g id="a_edge9_Node000003_Node000009"><a xlink:title=" ">
<path fill="none" stroke="#63b8ff" d="M592.75,-110.51C638.98,-100.59 717.42,-83.76 764.16,-73.73"/>
<polygon fill="#63b8ff" stroke="#63b8ff" points="765.15,-77.09 774.19,-71.57 763.68,-70.25 765.15,-77.09"/>
</a>
</g>
</g>
<!-- Node10 -->
<g id="Node000010" class="node">
<title>Node10</title>
<g id="a_Node000010"><a xlink:title=" ">
<polygon fill="#e0e0e0" stroke="#999999" points="706,-19 611,-19 611,0 706,0 706,-19"/>
<text text-anchor="middle" x="658.5" y="-7" font-family="Helvetica,sans-Serif" font-size="10.00">boost/regex.hpp</text>
</a>
</g>
</g>
<!-- Node3&#45;&gt;Node10 -->
<g id="edge10_Node000003_Node000010" class="edge">
<title>Node3&#45;&gt;Node10</title>
<g id="a_edge10_Node000003_Node000010"><a xlink:title=" ">
<path fill="none" stroke="#63b8ff" d="M592.77,-117.43C624.26,-114.3 667.63,-104.31 689.5,-74 700.2,-59.17 687.93,-40.08 675.81,-26.72"/>
<polygon fill="#63b8ff" stroke="#63b8ff" points="677.98,-23.94 668.49,-19.23 672.98,-28.83 677.98,-23.94"/>
</a>
</g>
</g>
<!-- Node11 -->
<g id="Node000011" class="node">
<title>Node11</title>
<g id="a_Node000011"><a xlink:href="ematch__src_2utils_2gdb_2gdbUtils_8hh.html" target="_top" xlink:title=" ">
<polygon fill="white" stroke="#666666" points="226,-74 109,-74 109,-55 226,-55 226,-74"/>
<text text-anchor="middle" x="167.5" y="-62" font-family="Helvetica,sans-Serif" font-size="10.00">utils/gdb/gdbUtils.hh</text>
</a>
</g>
</g>
<!-- Node3&#45;&gt;Node11 -->
<g id="edge11_Node000003_Node000011" class="edge">
<title>Node3&#45;&gt;Node11</title>
<g id="a_edge11_Node000003_Node000011"><a xlink:title=" ">
<path fill="none" stroke="#63b8ff" d="M518.3,-113.42C453.39,-104.55 318.52,-86.13 236.22,-74.89"/>
<polygon fill="#63b8ff" stroke="#63b8ff" points="236.59,-71.4 226.21,-73.52 235.64,-78.34 236.59,-71.4"/>
</a>
</g>
</g>
<!-- Node16 -->
<g id="Node000016" class="node">
<title>Node16</title>
<g id="a_Node000016"><a xlink:href="ematch__src_2utils_2stl_2stlTypes_8hh.html" target="_top" xlink:title=" ">
<polygon fill="white" stroke="#666666" points="958.5,-74 848.5,-74 848.5,-55 958.5,-55 958.5,-74"/>
<text text-anchor="middle" x="903.5" y="-62" font-family="Helvetica,sans-Serif" font-size="10.00">utils/stl/stlTypes.hh</text>
</a>
</g>
</g>
<!-- Node3&#45;&gt;Node16 -->
<g id="edge17_Node000003_Node000016" class="edge">
<title>Node3&#45;&gt;Node16</title>
<g id="a_edge17_Node000003_Node000016"><a xlink:title=" ">
<path fill="none" stroke="#63b8ff" d="M592.74,-112.83C651.35,-103.9 765.9,-86.46 838.35,-75.42"/>
<polygon fill="#63b8ff" stroke="#63b8ff" points="838.93,-78.87 848.29,-73.91 837.87,-71.95 838.93,-78.87"/>
</a>
</g>
</g>
<!-- Node17 -->
<g id="Node000017" class="node">
<title>Node17</title>
<g id="a_Node000017"><a xlink:href="ematch__src_2utils_2boost_2boostUtils_8hh.html" target="_top" xlink:title=" ">
<polygon fill="white" stroke="#666666" points="680,-74 545,-74 545,-55 680,-55 680,-74"/>
<text text-anchor="middle" x="612.5" y="-62" font-family="Helvetica,sans-Serif" font-size="10.00">utils/boost/boostUtils.hh</text>
</a>
</g>
</g>
<!-- Node3&#45;&gt;Node17 -->
<g id="edge20_Node000003_Node000017" class="edge">
<title>Node3&#45;&gt;Node17</title>
<g id="a_edge20_Node000003_Node000017"><a xlink:title=" ">
<path fill="none" stroke="#63b8ff" d="M564.66,-109.98C573,-102.23 585.53,-90.58 595.68,-81.14"/>
<polygon fill="#63b8ff" stroke="#63b8ff" points="598.24,-83.54 603.18,-74.17 593.47,-78.42 598.24,-83.54"/>
</a>
</g>
</g>
<!-- Node11&#45;&gt;Node2 -->
<g id="edge13_Node000011_Node000002" class="edge">
<title>Node11&#45;&gt;Node2</title>
<g id="a_edge13_Node000011_Node000002"><a xlink:title=" ">
<path fill="none" stroke="#63b8ff" d="M189.35,-54.98C211.62,-46.3 246.4,-32.75 271.72,-22.88"/>
<polygon fill="#63b8ff" stroke="#63b8ff" points="273.21,-26.06 281.25,-19.17 270.66,-19.54 273.21,-26.06"/>
</a>
</g>
</g>
<!-- Node12 -->
<g id="Node000012" class="node">
<title>Node12</title>
<g id="a_Node000012"><a xlink:title=" ">
<polygon fill="#e0e0e0" stroke="#999999" points="255,-19 202,-19 202,0 255,0 255,-19"/>
<text text-anchor="middle" x="228.5" y="-7" font-family="Helvetica,sans-Serif" font-size="10.00">cstdarg</text>
</a>
</g>
</g>
<!-- Node11&#45;&gt;Node12 -->
<g id="edge12_Node000011_Node000012" class="edge">
<title>Node11&#45;&gt;Node12</title>
<g id="a_edge12_Node000011_Node000012"><a xlink:title=" ">
<path fill="none" stroke="#63b8ff" d="M177.3,-54.98C186.32,-47.15 199.91,-35.34 210.82,-25.86"/>
<polygon fill="#63b8ff" stroke="#63b8ff" points="213.27,-28.37 218.52,-19.17 208.68,-23.09 213.27,-28.37"/>
</a>
</g>
</g>
<!-- Node13 -->
<g id="Node000013" class="node">
<title>Node13</title>
<g id="a_Node000013"><a xlink:title=" ">
<polygon fill="#e0e0e0" stroke="#999999" points="49,-19 0,-19 0,0 49,0 49,-19"/>
<text text-anchor="middle" x="24.5" y="-7" font-family="Helvetica,sans-Serif" font-size="10.00">cstdlib</text>
</a>
</g>
</g>
<!-- Node11&#45;&gt;Node13 -->
<g id="edge14_Node000011_Node000013" class="edge">
<title>Node11&#45;&gt;Node13</title>
<g id="a_edge14_Node000011_Node000013"><a xlink:title=" ">
<path fill="none" stroke="#63b8ff" d="M144.52,-54.98C121,-46.27 84.21,-32.63 57.56,-22.75"/>
<polygon fill="#63b8ff" stroke="#63b8ff" points="58.49,-19.36 47.89,-19.17 56.05,-25.93 58.49,-19.36"/>
</a>
</g>
</g>
<!-- Node14 -->
<g id="Node000014" class="node">
<title>Node14</title>
<g id="a_Node000014"><a xlink:title=" ">
<polygon fill="#e0e0e0" stroke="#999999" points="113.5,-19 67.5,-19 67.5,0 113.5,0 113.5,-19"/>
<text text-anchor="middle" x="90.5" y="-7" font-family="Helvetica,sans-Serif" font-size="10.00">cstdio</text>
</a>
</g>
</g>
<!-- Node11&#45;&gt;Node14 -->
<g id="edge15_Node000011_Node000014" class="edge">
<title>Node11&#45;&gt;Node14</title>
<g id="a_edge15_Node000011_Node000014"><a xlink:title=" ">
<path fill="none" stroke="#63b8ff" d="M155.13,-54.98C143.41,-46.92 125.58,-34.65 111.61,-25.03"/>
<polygon fill="#63b8ff" stroke="#63b8ff" points="113.32,-21.96 103.1,-19.17 109.35,-27.72 113.32,-21.96"/>
</a>
</g>
</g>
<!-- Node15 -->
<g id="Node000015" class="node">
<title>Node15</title>
<g id="a_Node000015"><a xlink:title=" ">
<polygon fill="#e0e0e0" stroke="#999999" points="183.5,-19 131.5,-19 131.5,0 183.5,0 183.5,-19"/>
<text text-anchor="middle" x="157.5" y="-7" font-family="Helvetica,sans-Serif" font-size="10.00">cassert</text>
</a>
</g>
</g>
<!-- Node11&#45;&gt;Node15 -->
<g id="edge16_Node000011_Node000015" class="edge">
<title>Node11&#45;&gt;Node15</title>
<g id="a_edge16_Node000011_Node000015"><a xlink:title=" ">
<path fill="none" stroke="#63b8ff" d="M165.85,-54.75C164.54,-47.8 162.66,-37.85 161.02,-29.13"/>
<polygon fill="#63b8ff" stroke="#63b8ff" points="164.41,-28.27 159.12,-19.09 157.54,-29.56 164.41,-28.27"/>
</a>
</g>
</g>
<!-- Node16&#45;&gt;Node7 -->
<g id="edge18_Node000016_Node000007" class="edge">
<title>Node16&#45;&gt;Node7</title>
<g id="a_edge18_Node000016_Node000007"><a xlink:title=" ">
<path fill="none" stroke="#63b8ff" d="M885.67,-54.98C867.89,-46.5 840.35,-33.35 819.82,-23.54"/>
<polygon fill="#63b8ff" stroke="#63b8ff" points="821.19,-20.32 810.66,-19.17 818.17,-26.64 821.19,-20.32"/>
</a>
</g>
</g>
<!-- Node16&#45;&gt;Node8 -->
<g id="edge19_Node000016_Node000008" class="edge">
<title>Node16&#45;&gt;Node8</title>
<g id="a_edge19_Node000016_Node000008"><a xlink:title=" ">
<path fill="none" stroke="#63b8ff" d="M910.27,-54.75C916.06,-47.26 924.56,-36.28 931.64,-27.13"/>
<polygon fill="#63b8ff" stroke="#63b8ff" points="934.51,-29.14 937.86,-19.09 928.97,-24.86 934.51,-29.14"/>
</a>
</g>
</g>
<!-- Node17&#45;&gt;Node2 -->
<g id="edge21_Node000017_Node000002" class="edge">
<title>Node17&#45;&gt;Node2</title>
<g id="a_edge21_Node000017_Node000002"><a xlink:title=" ">
<path fill="none" stroke="#63b8ff" d="M562.85,-54.98C501.98,-44.54 400,-27.05 343.77,-17.41"/>
<polygon fill="#63b8ff" stroke="#63b8ff" points="344.27,-13.94 333.82,-15.7 343.09,-20.84 344.27,-13.94"/>
</a>
</g>
</g>
<!-- Node17&#45;&gt;Node10 -->
<g id="edge22_Node000017_Node000010" class="edge">
<title>Node17&#45;&gt;Node10</title>
<g id="a_edge22_Node000017_Node000010"><a xlink:title=" ">
<path fill="none" stroke="#63b8ff" d="M620.1,-54.75C626.66,-47.18 636.32,-36.05 644.31,-26.84"/>
<polygon fill="#63b8ff" stroke="#63b8ff" points="647.13,-28.94 651.05,-19.09 641.85,-24.35 647.13,-28.94"/>
</a>
</g>
</g>
</g>
</svg>
