<?xml version="1.0" encoding="UTF-8" standalone="no"?>
<!DOCTYPE svg PUBLIC "-//W3C//DTD SVG 1.1//EN"
 "http://www.w3.org/Graphics/SVG/1.1/DTD/svg11.dtd">
<!-- Generated by graphviz version 2.43.0 (0)
 -->
<!-- Title: testFLDiagonalMatrix Pages: 1 -->
<svg width="566pt" height="45pt"
 viewBox="0.00 0.00 566.00 45.00" xmlns="http://www.w3.org/2000/svg" xmlns:xlink="http://www.w3.org/1999/xlink">
<g id="graph0" class="graph" transform="scale(1 1) rotate(0) translate(4 41)">
<title>testFLDiagonalMatrix</title>
<!-- Node1 -->
<g id="Node000001" class="node">
<title>Node1</title>
<g id="a_Node000001"><a xlink:title=" ">
<polygon fill="#999999" stroke="#666666" points="122,-19 0,-19 0,0 122,0 122,-19"/>
<text text-anchor="middle" x="61" y="-7" font-family="Helvetica,sans-Serif" font-size="10.00">testFLDiagonalMatrix</text>
</a>
</g>
</g>
<!-- Node2 -->
<g id="Node000002" class="node">
<title>Node2</title>
<g id="a_Node000002"><a xlink:href="classcbrc_1_1FLEArray.html#a31b7db1817b5eec4d9cbb10bfe07d58a" target="_top" xlink:title=" ">
<polygon fill="white" stroke="#666666" points="271,-19 158,-19 158,0 271,0 271,-19"/>
<text text-anchor="middle" x="214.5" y="-7" font-family="Helvetica,sans-Serif" font-size="10.00">cbrc::FLEArray::zero</text>
</a>
</g>
</g>
<!-- Node1&#45;&gt;Node2 -->
<g id="edge1_Node000001_Node000002" class="edge">
<title>Node1&#45;&gt;Node2</title>
<g id="a_edge1_Node000001_Node000002"><a xlink:title=" ">
<path fill="none" stroke="#63b8ff" d="M122.31,-9.5C130.64,-9.5 139.23,-9.5 147.66,-9.5"/>
<polygon fill="#63b8ff" stroke="#63b8ff" points="147.82,-13 157.82,-9.5 147.82,-6 147.82,-13"/>
</a>
</g>
</g>
<!-- Node3 -->
<g id="Node000003" class="node">
<title>Node3</title>
<g id="a_Node000003"><a xlink:href="classcbrc_1_1FLEArray.html#ab3482d140dd947c2d956fa5620da84ab" target="_top" xlink:title=" ">
<polygon fill="white" stroke="#666666" points="411,-19 307,-19 307,0 411,0 411,-19"/>
<text text-anchor="middle" x="359" y="-7" font-family="Helvetica,sans-Serif" font-size="10.00">cbrc::FLEArray::fill</text>
</a>
</g>
</g>
<!-- Node2&#45;&gt;Node3 -->
<g id="edge2_Node000002_Node000003" class="edge">
<title>Node2&#45;&gt;Node3</title>
<g id="a_edge2_Node000002_Node000003"><a xlink:title=" ">
<path fill="none" stroke="#63b8ff" d="M271,-9.5C279.34,-9.5 287.97,-9.5 296.42,-9.5"/>
<polygon fill="#63b8ff" stroke="#63b8ff" points="296.61,-13 306.61,-9.5 296.61,-6 296.61,-13"/>
</a>
</g>
</g>
<!-- Node3&#45;&gt;Node3 -->
<g id="edge3_Node000003_Node000003" class="edge">
<title>Node3&#45;&gt;Node3</title>
<g id="a_edge3_Node000003_Node000003"><a xlink:title=" ">
<path fill="none" stroke="#63b8ff" d="M337.11,-19.08C326.47,-27.73 333.76,-37 359,-37 375.17,-37 383.97,-33.2 385.41,-28.19"/>
<polygon fill="#63b8ff" stroke="#63b8ff" points="388.47,-26.48 380.89,-19.08 382.2,-29.6 388.47,-26.48"/>
</a>
</g>
</g>
<!-- Node4 -->
<g id="Node000004" class="node">
<title>Node4</title>
<g id="a_Node000004"><a xlink:href="classcbrc_1_1FLEArray.html#ad71311380d762114c9e0f3b0dda38b7c" target="_top" xlink:title=" ">
<polygon fill="white" stroke="#666666" points="558,-19 447,-19 447,0 558,0 558,-19"/>
<text text-anchor="middle" x="502.5" y="-7" font-family="Helvetica,sans-Serif" font-size="10.00">cbrc::FLEArray::size</text>
</a>
</g>
</g>
<!-- Node3&#45;&gt;Node4 -->
<g id="edge4_Node000003_Node000004" class="edge">
<title>Node3&#45;&gt;Node4</title>
<g id="a_edge4_Node000003_Node000004"><a xlink:title=" ">
<path fill="none" stroke="#63b8ff" d="M411.08,-9.5C419.3,-9.5 427.9,-9.5 436.39,-9.5"/>
<polygon fill="#63b8ff" stroke="#63b8ff" points="436.67,-13 446.67,-9.5 436.67,-6 436.67,-13"/>
</a>
</g>
</g>
</g>
</svg>
