<?xml version="1.0" encoding="UTF-8" standalone="no"?>
<!DOCTYPE svg PUBLIC "-//W3C//DTD SVG 1.1//EN"
 "http://www.w3.org/Graphics/SVG/1.1/DTD/svg11.dtd">
<!-- Generated by graphviz version 2.43.0 (0)
 -->
<!-- Title: ematch_src/utils/FLArray/test/testFLMatrixFunctions.cc Pages: 1 -->
<svg width="306pt" height="258pt"
 viewBox="0.00 0.00 306.00 258.00" xmlns="http://www.w3.org/2000/svg" xmlns:xlink="http://www.w3.org/1999/xlink">

<svg id="main" version="1.1" xmlns="http://www.w3.org/2000/svg" xmlns:xlink="http://www.w3.org/1999/xlink" xml:space="preserve" onload="init(evt)">
<style type="text/css"><![CDATA[
.node, .edge {opacity: 0.7;}
.node.selected, .edge.selected {opacity: 1;}
.edge:hover path { stroke: red; }
.edge:hover polygon { stroke: red; fill: red; }
]]></style>
<script type="application/ecmascript" xlink:href="svg.min.js"/>
<svg id="graph" class="graph">
<g id="graph0" class="graph" transform="scale(1 1) rotate(0) translate(4 254)">
<title>ematch_src/utils/FLArray/test/testFLMatrixFunctions.cc</title>
<!-- Node1 -->
<g id="Node000001" class="node">
<title>Node1</title>
<g id="a_Node000001"><a xlink:title=" ">
<polygon fill="#999999" stroke="#666666" points="163,-250 0,-250 0,-220 163,-220 163,-250"/>
<text text-anchor="start" x="8" y="-238" font-family="Helvetica,sans-Serif" font-size="10.00">ematch_src/utils/FLArray</text>
<text text-anchor="middle" x="81.5" y="-227" font-family="Helvetica,sans-Serif" font-size="10.00">/test/testFLMatrixFunctions.cc</text>
</a>
</g>
</g>
<!-- Node2 -->
<g id="Node000002" class="node">
<title>Node2</title>
<g id="a_Node000002"><a xlink:title=" ">
<polygon fill="#e0e0e0" stroke="#999999" points="103.5,-19 43.5,-19 43.5,0 103.5,0 103.5,-19"/>
<text text-anchor="middle" x="73.5" y="-7" font-family="Helvetica,sans-Serif" font-size="10.00">iostream</text>
</a>
</g>
</g>
<!-- Node1&#45;&gt;Node2 -->
<g id="edge1_Node000001_Node000002" class="edge">
<title>Node1&#45;&gt;Node2</title>
<g id="a_edge1_Node000001_Node000002"><a xlink:title=" ">
<path fill="none" stroke="#63b8ff" d="M71.43,-219.92C65.2,-210.31 57.79,-197.01 54.5,-184 40.55,-128.81 57.3,-61.2 67.21,-29.11"/>
<polygon fill="#63b8ff" stroke="#63b8ff" points="70.63,-29.91 70.37,-19.32 63.97,-27.76 70.63,-29.91"/>
</a>
</g>
</g>
<!-- Node3 -->
<g id="Node000003" class="node">
<title>Node3</title>
<g id="a_Node000003"><a xlink:href="FLMatrixFunctions_8hh.html" target="_top" xlink:title=" ">
<polygon fill="white" stroke="#666666" points="193.5,-184 63.5,-184 63.5,-165 193.5,-165 193.5,-184"/>
<text text-anchor="middle" x="128.5" y="-172" font-family="Helvetica,sans-Serif" font-size="10.00">../FLMatrixFunctions.hh</text>
</a>
</g>
</g>
<!-- Node1&#45;&gt;Node3 -->
<g id="edge2_Node000001_Node000003" class="edge">
<title>Node1&#45;&gt;Node3</title>
<g id="a_edge2_Node000001_Node000003"><a xlink:title=" ">
<path fill="none" stroke="#63b8ff" d="M92.88,-219.84C99.56,-211.52 108.05,-200.96 115.06,-192.23"/>
<polygon fill="#63b8ff" stroke="#63b8ff" points="117.92,-194.25 121.46,-184.27 112.47,-189.87 117.92,-194.25"/>
</a>
</g>
</g>
<!-- Node4 -->
<g id="Node000004" class="node">
<title>Node4</title>
<g id="a_Node000004"><a xlink:href="FLMatrix_8hh.html" target="_top" xlink:title=" ">
<polygon fill="white" stroke="#666666" points="165.5,-129 91.5,-129 91.5,-110 165.5,-110 165.5,-129"/>
<text text-anchor="middle" x="128.5" y="-117" font-family="Helvetica,sans-Serif" font-size="10.00">FLMatrix.hh</text>
</a>
</g>
</g>
<!-- Node3&#45;&gt;Node4 -->
<g id="edge3_Node000003_Node000004" class="edge">
<title>Node3&#45;&gt;Node4</title>
<g id="a_edge3_Node000003_Node000004"><a xlink:title=" ">
<path fill="none" stroke="#63b8ff" d="M128.5,-164.75C128.5,-157.8 128.5,-147.85 128.5,-139.13"/>
<polygon fill="#63b8ff" stroke="#63b8ff" points="132,-139.09 128.5,-129.09 125,-139.09 132,-139.09"/>
</a>
</g>
</g>
<!-- Node4&#45;&gt;Node2 -->
<g id="edge6_Node000004_Node000002" class="edge">
<title>Node4&#45;&gt;Node2</title>
<g id="a_edge6_Node000004_Node000002"><a xlink:title=" ">
<path fill="none" stroke="#63b8ff" d="M124,-109.66C114.97,-91.93 94.5,-51.73 82.57,-28.32"/>
<polygon fill="#63b8ff" stroke="#63b8ff" points="85.57,-26.48 77.91,-19.16 79.33,-29.66 85.57,-26.48"/>
</a>
</g>
</g>
<!-- Node5 -->
<g id="Node000005" class="node">
<title>Node5</title>
<g id="a_Node000005"><a xlink:title=" ">
<polygon fill="#e0e0e0" stroke="#999999" points="205.5,-19 149.5,-19 149.5,0 205.5,0 205.5,-19"/>
<text text-anchor="middle" x="177.5" y="-7" font-family="Helvetica,sans-Serif" font-size="10.00">assert.h</text>
</a>
</g>
</g>
<!-- Node4&#45;&gt;Node5 -->
<g id="edge4_Node000004_Node000005" class="edge">
<title>Node4&#45;&gt;Node5</title>
<g id="a_edge4_Node000004_Node000005"><a xlink:title=" ">
<path fill="none" stroke="#63b8ff" d="M126.77,-109.82C124.68,-97.15 122.37,-73.11 130.5,-55 135.84,-43.11 145.99,-32.85 155.5,-25.2"/>
<polygon fill="#63b8ff" stroke="#63b8ff" points="157.65,-27.96 163.55,-19.16 153.45,-22.36 157.65,-27.96"/>
</a>
</g>
</g>
<!-- Node6 -->
<g id="Node000006" class="node">
<title>Node6</title>
<g id="a_Node000006"><a xlink:title=" ">
<polygon fill="#e0e0e0" stroke="#999999" points="298,-19 251,-19 251,0 298,0 298,-19"/>
<text text-anchor="middle" x="274.5" y="-7" font-family="Helvetica,sans-Serif" font-size="10.00">vector</text>
</a>
</g>
</g>
<!-- Node4&#45;&gt;Node6 -->
<g id="edge5_Node000004_Node000006" class="edge">
<title>Node4&#45;&gt;Node6</title>
<g id="a_edge5_Node000004_Node000006"><a xlink:title=" ">
<path fill="none" stroke="#63b8ff" d="M165.6,-112.96C206.52,-106.01 268.45,-92.68 282.5,-74 292.19,-61.12 288.33,-42.45 283.17,-28.69"/>
<polygon fill="#63b8ff" stroke="#63b8ff" points="286.3,-27.13 279.17,-19.3 279.86,-29.87 286.3,-27.13"/>
</a>
</g>
</g>
<!-- Node7 -->
<g id="Node000007" class="node">
<title>Node7</title>
<g id="a_Node000007"><a xlink:href="FLArray_8hh.html" target="_top" xlink:title=" ">
<polygon fill="white" stroke="#666666" points="273.5,-74 139.5,-74 139.5,-55 273.5,-55 273.5,-74"/>
<text text-anchor="middle" x="206.5" y="-62" font-family="Helvetica,sans-Serif" font-size="10.00">utils/FLArray/FLArray.hh</text>
</a>
</g>
</g>
<!-- Node4&#45;&gt;Node7 -->
<g id="edge7_Node000004_Node000007" class="edge">
<title>Node4&#45;&gt;Node7</title>
<g id="a_edge7_Node000004_Node000007"><a xlink:title=" ">
<path fill="none" stroke="#63b8ff" d="M141.03,-109.98C152.9,-101.92 170.96,-89.65 185.11,-80.03"/>
<polygon fill="#63b8ff" stroke="#63b8ff" points="187.44,-82.69 193.74,-74.17 183.5,-76.9 187.44,-82.69"/>
</a>
</g>
</g>
<!-- Node7&#45;&gt;Node2 -->
<g id="edge10_Node000007_Node000002" class="edge">
<title>Node7&#45;&gt;Node2</title>
<g id="a_edge10_Node000007_Node000002"><a xlink:title=" ">
<path fill="none" stroke="#63b8ff" d="M185.13,-54.98C163.35,-46.3 129.34,-32.75 104.58,-22.88"/>
<polygon fill="#63b8ff" stroke="#63b8ff" points="105.84,-19.62 95.26,-19.17 103.25,-26.12 105.84,-19.62"/>
</a>
</g>
</g>
<!-- Node7&#45;&gt;Node5 -->
<g id="edge8_Node000007_Node000005" class="edge">
<title>Node7&#45;&gt;Node5</title>
<g id="a_edge8_Node000007_Node000005"><a xlink:title=" ">
<path fill="none" stroke="#63b8ff" d="M201.71,-54.75C197.74,-47.49 191.97,-36.95 187.07,-27.98"/>
<polygon fill="#63b8ff" stroke="#63b8ff" points="190.07,-26.18 182.2,-19.09 183.93,-29.54 190.07,-26.18"/>
</a>
</g>
</g>
<!-- Node7&#45;&gt;Node6 -->
<g id="edge9_Node000007_Node000006" class="edge">
<title>Node7&#45;&gt;Node6</title>
<g id="a_edge9_Node000007_Node000006"><a xlink:title=" ">
<path fill="none" stroke="#63b8ff" d="M217.43,-54.98C227.58,-47.07 242.92,-35.11 255.15,-25.58"/>
<polygon fill="#63b8ff" stroke="#63b8ff" points="257.64,-28.08 263.38,-19.17 253.34,-22.56 257.64,-28.08"/>
</a>
</g>
</g>
</g>
</svg>
</svg>

<style type='text/css'>
<![CDATA[
[data-mouse-over-selected='false'] { opacity: 0.7; }
[data-mouse-over-selected='true']  { opacity: 1.0; }
]]>
</style>
<script type="application/ecmascript"><![CDATA[
document.addEventListener('DOMContentLoaded', (event) => {
  highlightEdges();
  highlightAdjacentNodes();
});
]]></script>
</svg>
