<?xml version="1.0" encoding="UTF-8" standalone="no"?>
<!DOCTYPE svg PUBLIC "-//W3C//DTD SVG 1.1//EN"
 "http://www.w3.org/Graphics/SVG/1.1/DTD/svg11.dtd">
<!-- Generated by graphviz version 2.43.0 (0)
 -->
<!-- Title: main Pages: 1 -->
<svg width="1054pt" height="293pt"
 viewBox="0.00 0.00 1054.00 293.18" xmlns="http://www.w3.org/2000/svg" xmlns:xlink="http://www.w3.org/1999/xlink">
<g id="graph0" class="graph" transform="scale(1 1) rotate(0) translate(4 289.18)">
<title>main</title>
<!-- Node1 -->
<g id="Node000001" class="node">
<title>Node1</title>
<g id="a_Node000001"><a xlink:title=" ">
<polygon fill="#999999" stroke="#666666" points="41,-113.5 0,-113.5 0,-94.5 41,-94.5 41,-113.5"/>
<text text-anchor="middle" x="20.5" y="-101.5" font-family="Helvetica,sans-Serif" font-size="10.00">main</text>
</a>
</g>
</g>
<!-- Node2 -->
<g id="Node000002" class="node">
<title>Node2</title>
<g id="a_Node000002"><a xlink:href="classcbrc_1_1ArgvParser.html#a74359749acfafee36c21d20b237d1cc2" target="_top" xlink:title=" ">
<polygon fill="white" stroke="#666666" points="259,-179.5 77,-179.5 77,-160.5 259,-160.5 259,-179.5"/>
<text text-anchor="middle" x="168" y="-167.5" font-family="Helvetica,sans-Serif" font-size="10.00">cbrc::ArgvParser::dieIfUnusedArgs</text>
</a>
</g>
</g>
<!-- Node1&#45;&gt;Node2 -->
<g id="edge1_Node000001_Node000002" class="edge">
<title>Node1&#45;&gt;Node2</title>
<g id="a_edge1_Node000001_Node000002"><a xlink:title=" ">
<path fill="none" stroke="#63b8ff" d="M36.16,-113.74C47.12,-120.76 62.62,-130.16 77,-137 92.93,-144.58 111.1,-151.54 126.92,-157.09"/>
<polygon fill="#63b8ff" stroke="#63b8ff" points="125.83,-160.42 136.43,-160.36 128.11,-153.8 125.83,-160.42"/>
</a>
</g>
</g>
<!-- Node7 -->
<g id="Node000007" class="node">
<title>Node7</title>
<g id="a_Node000007"><a xlink:href="classcbrc_1_1ArgvParser.html#a8e03423da9e8217c5c6e65f0ff403a1a" target="_top" xlink:title=" ">
<polygon fill="white" stroke="#666666" points="445.5,-114.5 302.5,-114.5 302.5,-95.5 445.5,-95.5 445.5,-114.5"/>
<text text-anchor="middle" x="374" y="-102.5" font-family="Helvetica,sans-Serif" font-size="10.00">cbrc::ArgvParser::printDoc</text>
</a>
</g>
</g>
<!-- Node1&#45;&gt;Node7 -->
<g id="edge16_Node000001_Node000007" class="edge">
<title>Node1&#45;&gt;Node7</title>
<g id="a_edge16_Node000001_Node000007"><a xlink:title=" ">
<path fill="none" stroke="#63b8ff" d="M41.15,-104.06C88.34,-104.19 210.22,-104.54 292.39,-104.77"/>
<polygon fill="#63b8ff" stroke="#63b8ff" points="292.44,-108.27 302.45,-104.8 292.46,-101.27 292.44,-108.27"/>
</a>
</g>
</g>
<!-- Node12 -->
<g id="Node000012" class="node">
<title>Node12</title>
<g id="a_Node000012"><a xlink:href="classcbrc_1_1ArgvParser.html#a398291b90ac102914876b8b3be39b3a8" target="_top" xlink:title=" ">
<polygon fill="white" stroke="#666666" points="252,-94.5 84,-94.5 84,-75.5 252,-75.5 252,-94.5"/>
<text text-anchor="middle" x="168" y="-82.5" font-family="Helvetica,sans-Serif" font-size="10.00">cbrc::ArgvParser::getIstreamPtr</text>
</a>
</g>
</g>
<!-- Node1&#45;&gt;Node12 -->
<g id="edge15_Node000001_Node000012" class="edge">
<title>Node1&#45;&gt;Node12</title>
<g id="a_edge15_Node000001_Node000012"><a xlink:title=" ">
<path fill="none" stroke="#63b8ff" d="M41.12,-101.44C52.62,-99.94 68.01,-97.93 84.08,-95.83"/>
<polygon fill="#63b8ff" stroke="#63b8ff" points="84.68,-99.28 94.14,-94.51 83.77,-92.34 84.68,-99.28"/>
</a>
</g>
</g>
<!-- Node13 -->
<g id="Node000013" class="node">
<title>Node13</title>
<g id="a_Node000013"><a xlink:href="namespacecbrc.html#a8646436858e225c5d9a19adafbbbd610" target="_top" xlink:title=" ">
<polygon fill="white" stroke="#666666" points="646.5,-62 506.5,-62 506.5,-32 646.5,-32 646.5,-62"/>
<text text-anchor="start" x="514.5" y="-50" font-family="Helvetica,sans-Serif" font-size="10.00">cbrc::testSeqGlobalAffine</text>
<text text-anchor="middle" x="576.5" y="-39" font-family="Helvetica,sans-Serif" font-size="10.00">Aligner</text>
</a>
</g>
</g>
<!-- Node1&#45;&gt;Node13 -->
<g id="edge17_Node000001_Node000013" class="edge">
<title>Node1&#45;&gt;Node13</title>
<g id="a_edge17_Node000001_Node000013"><a xlink:title=" ">
<path fill="none" stroke="#63b8ff" d="M31.58,-94.45C42.02,-85.24 59.26,-71.86 77,-66 218.91,-19.09 396.03,-26.79 496.39,-36.79"/>
<polygon fill="#63b8ff" stroke="#63b8ff" points="496.15,-40.29 506.46,-37.83 496.87,-33.32 496.15,-40.29"/>
</a>
</g>
</g>
<!-- Node3 -->
<g id="Node000003" class="node">
<title>Node3</title>
<g id="a_Node000003"><a xlink:href="classcbrc_1_1ArgvParser.html#aad8dc9d595217cf4ad2a7f557371d3ab" target="_top" xlink:title=" ">
<polygon fill="white" stroke="#666666" points="432,-264.5 316,-264.5 316,-245.5 432,-245.5 432,-264.5"/>
<text text-anchor="middle" x="374" y="-252.5" font-family="Helvetica,sans-Serif" font-size="10.00">cbrc::ArgvParser::die</text>
</a>
</g>
</g>
<!-- Node2&#45;&gt;Node3 -->
<g id="edge2_Node000002_Node000003" class="edge">
<title>Node2&#45;&gt;Node3</title>
<g id="a_edge2_Node000002_Node000003"><a xlink:title=" ">
<path fill="none" stroke="#63b8ff" d="M186.56,-179.56C210.57,-192.38 255.19,-215.35 295,-231 305.6,-235.17 317.23,-239.09 328.21,-242.5"/>
<polygon fill="#63b8ff" stroke="#63b8ff" points="327.47,-245.93 338.05,-245.48 329.5,-239.23 327.47,-245.93"/>
</a>
</g>
</g>
<!-- Node4 -->
<g id="Node000004" class="node">
<title>Node4</title>
<g id="a_Node000004"><a xlink:href="classcbrc_1_1FLEArray.html#ad71311380d762114c9e0f3b0dda38b7c" target="_top" xlink:title=" ">
<polygon fill="white" stroke="#666666" points="1024,-151.5 913,-151.5 913,-132.5 1024,-132.5 1024,-151.5"/>
<text text-anchor="middle" x="968.5" y="-139.5" font-family="Helvetica,sans-Serif" font-size="10.00">cbrc::FLEArray::size</text>
</a>
</g>
</g>
<!-- Node2&#45;&gt;Node4 -->
<g id="edge13_Node000002_Node000004" class="edge">
<title>Node2&#45;&gt;Node4</title>
<g id="a_edge13_Node000002_Node000004"><a xlink:title=" ">
<path fill="none" stroke="#63b8ff" d="M202.36,-179.51C227.56,-186.18 263.15,-194.5 295,-198 444.37,-214.4 848.13,-172.11 855,-171 879.24,-167.1 905.86,-160.35 927.12,-154.34"/>
<polygon fill="#63b8ff" stroke="#63b8ff" points="928.15,-157.69 936.79,-151.56 926.21,-150.96 928.15,-157.69"/>
</a>
</g>
</g>
<!-- Node6 -->
<g id="Node000006" class="node">
<title>Node6</title>
<g id="a_Node000006"><a xlink:href="classcbrc_1_1FLEArray.html#a877e10058250ecb9733399c211afee1a" target="_top" xlink:title=" ">
<polygon fill="white" stroke="#666666" points="435.5,-188.5 312.5,-188.5 312.5,-169.5 435.5,-169.5 435.5,-188.5"/>
<text text-anchor="middle" x="374" y="-176.5" font-family="Helvetica,sans-Serif" font-size="10.00">cbrc::FLEArray::empty</text>
</a>
</g>
</g>
<!-- Node2&#45;&gt;Node6 -->
<g id="edge5_Node000002_Node000006" class="edge">
<title>Node2&#45;&gt;Node6</title>
<g id="a_edge5_Node000002_Node000006"><a xlink:title=" ">
<path fill="none" stroke="#63b8ff" d="M259.07,-173.97C273.59,-174.61 288.43,-175.27 302.4,-175.89"/>
<polygon fill="#63b8ff" stroke="#63b8ff" points="302.26,-179.38 312.4,-176.33 302.57,-172.39 302.26,-179.38"/>
</a>
</g>
</g>
<!-- Node2&#45;&gt;Node7 -->
<g id="edge6_Node000002_Node000007" class="edge">
<title>Node2&#45;&gt;Node7</title>
<g id="a_edge6_Node000002_Node000007"><a xlink:title=" ">
<path fill="none" stroke="#63b8ff" d="M195.06,-160.45C231.22,-147.19 292.49,-124.76 295,-124 303.15,-121.53 311.85,-119.15 320.38,-116.97"/>
<polygon fill="#63b8ff" stroke="#63b8ff" points="321.41,-120.32 330.26,-114.5 319.71,-113.53 321.41,-120.32"/>
</a>
</g>
</g>
<!-- Node11 -->
<g id="Node000011" class="node">
<title>Node11</title>
<g id="a_Node000011"><a xlink:href="classcbrc_1_1ArgvParser.html#a40870d9c52a7a88958432ef2126ab9f1" target="_top" xlink:title=" ">
<polygon fill="white" stroke="#666666" points="453,-151.5 295,-151.5 295,-132.5 453,-132.5 453,-151.5"/>
<text text-anchor="middle" x="374" y="-139.5" font-family="Helvetica,sans-Serif" font-size="10.00">cbrc::ArgvParser::unusedArgs</text>
</a>
</g>
</g>
<!-- Node2&#45;&gt;Node11 -->
<g id="edge14_Node000002_Node000011" class="edge">
<title>Node2&#45;&gt;Node11</title>
<g id="a_edge14_Node000002_Node000011"><a xlink:title=" ">
<path fill="none" stroke="#63b8ff" d="M238.35,-160.48C256.09,-158.05 275.3,-155.41 293.5,-152.91"/>
<polygon fill="#63b8ff" stroke="#63b8ff" points="294.06,-156.37 303.5,-151.54 293.11,-149.43 294.06,-156.37"/>
</a>
</g>
</g>
<!-- Node3&#45;&gt;Node4 -->
<g id="edge3_Node000003_Node000004" class="edge">
<title>Node3&#45;&gt;Node4</title>
<g id="a_edge3_Node000003_Node000004"><a xlink:title=" ">
<path fill="none" stroke="#63b8ff" d="M421.37,-264.51C441.98,-268.28 466.6,-272.15 489,-274 652.23,-287.51 707.19,-301.56 855,-231 893.29,-212.72 930.45,-179.35 951.02,-159.07"/>
<polygon fill="#63b8ff" stroke="#63b8ff" points="953.72,-161.31 958.29,-151.76 948.76,-156.38 953.72,-161.31"/>
</a>
</g>
</g>
<!-- Node5 -->
<g id="Node000005" class="node">
<title>Node5</title>
<g id="a_Node000005"><a xlink:href="classcbrc_1_1ArgvParser.html#a1b7d257748fcfaa9a9a3cf46bc36a7e5" target="_top" xlink:title=" ">
<polygon fill="white" stroke="#666666" points="642,-264.5 511,-264.5 511,-245.5 642,-245.5 642,-264.5"/>
<text text-anchor="middle" x="576.5" y="-252.5" font-family="Helvetica,sans-Serif" font-size="10.00">cbrc::ArgvParser::usage</text>
</a>
</g>
</g>
<!-- Node3&#45;&gt;Node5 -->
<g id="edge4_Node000003_Node000005" class="edge">
<title>Node3&#45;&gt;Node5</title>
<g id="a_edge4_Node000003_Node000005"><a xlink:title=" ">
<path fill="none" stroke="#63b8ff" d="M432.19,-255C453.47,-255 477.94,-255 500.57,-255"/>
<polygon fill="#63b8ff" stroke="#63b8ff" points="500.83,-258.5 510.83,-255 500.83,-251.5 500.83,-258.5"/>
</a>
</g>
</g>
<!-- Node8 -->
<g id="Node000008" class="node">
<title>Node8</title>
<g id="a_Node000008"><a xlink:href="classcbrc_1_1ArgvParser.html#a4279902497c688168b45f0f70d118060" target="_top" xlink:title=" ">
<polygon fill="white" stroke="#666666" points="649,-156.5 504,-156.5 504,-137.5 649,-137.5 649,-156.5"/>
<text text-anchor="middle" x="576.5" y="-144.5" font-family="Helvetica,sans-Serif" font-size="10.00">cbrc::ArgvParser::numArgs</text>
</a>
</g>
</g>
<!-- Node7&#45;&gt;Node8 -->
<g id="edge7_Node000007_Node000008" class="edge">
<title>Node7&#45;&gt;Node8</title>
<g id="a_edge7_Node000007_Node000008"><a xlink:title=" ">
<path fill="none" stroke="#63b8ff" d="M420.21,-114.54C441.14,-118.95 466.33,-124.26 489,-129 498.91,-131.07 509.46,-133.28 519.66,-135.4"/>
<polygon fill="#63b8ff" stroke="#63b8ff" points="519.2,-138.88 529.71,-137.49 520.63,-132.03 519.2,-138.88"/>
</a>
</g>
</g>
<!-- Node9 -->
<g id="Node000009" class="node">
<title>Node9</title>
<g id="a_Node000009"><a xlink:href="classcbrc_1_1ArgvParser.html#a96db1f87dc329ff812829f18748c2ce6" target="_top" xlink:title=" ">
<polygon fill="white" stroke="#666666" points="664,-119.5 489,-119.5 489,-100.5 664,-100.5 664,-119.5"/>
<text text-anchor="middle" x="576.5" y="-107.5" font-family="Helvetica,sans-Serif" font-size="10.00">cbrc::ArgvParser::printOptionDoc</text>
</a>
</g>
</g>
<!-- Node7&#45;&gt;Node9 -->
<g id="edge8_Node000007_Node000009" class="edge">
<title>Node7&#45;&gt;Node9</title>
<g id="a_edge8_Node000007_Node000009"><a xlink:title=" ">
<path fill="none" stroke="#63b8ff" d="M445.69,-106.76C456.39,-107.03 467.59,-107.31 478.73,-107.59"/>
<polygon fill="#63b8ff" stroke="#63b8ff" points="478.84,-111.09 488.93,-107.84 479.02,-104.09 478.84,-111.09"/>
</a>
</g>
</g>
<!-- Node9&#45;&gt;Node4 -->
<g id="edge12_Node000009_Node000004" class="edge">
<title>Node9&#45;&gt;Node4</title>
<g id="a_edge12_Node000009_Node000004"><a xlink:title=" ">
<path fill="none" stroke="#63b8ff" d="M634.16,-119.61C644.28,-122.12 654.59,-125.21 664,-129 681.4,-136 681.95,-145.92 700,-151 771.8,-171.2 858.72,-162.53 913.58,-153.25"/>
<polygon fill="#63b8ff" stroke="#63b8ff" points="914.19,-156.7 923.44,-151.52 912.98,-149.81 914.19,-156.7"/>
</a>
</g>
</g>
<!-- Node10 -->
<g id="Node000010" class="node">
<title>Node10</title>
<g id="a_Node000010"><a xlink:href="classcbrc_1_1ArgvParser.html#af4e3bd7a5c422f82280a37b17299876f" target="_top" xlink:title=" ">
<polygon fill="white" stroke="#666666" points="845.5,-123.5 709.5,-123.5 709.5,-104.5 845.5,-104.5 845.5,-123.5"/>
<text text-anchor="middle" x="777.5" y="-111.5" font-family="Helvetica,sans-Serif" font-size="10.00">cbrc::ArgvParser::getDoc</text>
</a>
</g>
</g>
<!-- Node9&#45;&gt;Node10 -->
<g id="edge9_Node000009_Node000010" class="edge">
<title>Node9&#45;&gt;Node10</title>
<g id="a_edge9_Node000009_Node000010"><a xlink:title=" ">
<path fill="none" stroke="#63b8ff" d="M664.21,-111.74C675.75,-111.97 687.53,-112.21 698.91,-112.44"/>
<polygon fill="#63b8ff" stroke="#63b8ff" points="699.16,-115.95 709.23,-112.65 699.3,-108.95 699.16,-115.95"/>
</a>
</g>
</g>
<!-- Node10&#45;&gt;Node4 -->
<g id="edge11_Node000010_Node000004" class="edge">
<title>Node10&#45;&gt;Node4</title>
<g id="a_edge11_Node000010_Node000004"><a xlink:title=" ">
<path fill="none" stroke="#63b8ff" d="M842.75,-123.52C862.16,-126.39 883.48,-129.55 902.91,-132.43"/>
<polygon fill="#63b8ff" stroke="#63b8ff" points="902.47,-135.9 912.88,-133.91 903.5,-128.98 902.47,-135.9"/>
</a>
</g>
</g>
<!-- Node10&#45;&gt;Node10 -->
<g id="edge10_Node000010_Node000010" class="edge">
<title>Node10&#45;&gt;Node10</title>
<g id="a_edge10_Node000010_Node000010"><a xlink:title=" ">
<path fill="none" stroke="#63b8ff" d="M748.22,-123.58C733.97,-132.23 743.73,-141.5 777.5,-141.5 800.72,-141.5 812.59,-137.12 813.11,-131.57"/>
<polygon fill="#63b8ff" stroke="#63b8ff" points="815.73,-129.25 806.78,-123.58 810.25,-133.6 815.73,-129.25"/>
</a>
</g>
</g>
<!-- Node13&#45;&gt;Node4 -->
<g id="edge22_Node000013_Node000004" class="edge">
<title>Node13&#45;&gt;Node4</title>
<g id="a_edge22_Node000013_Node000004"><a xlink:title=" ">
<path fill="none" stroke="#63b8ff" d="M646.57,-55.03C703.29,-62.61 785.33,-75.85 855,-96 884.14,-104.42 916.02,-117.89 938.38,-128.08"/>
<polygon fill="#63b8ff" stroke="#63b8ff" points="937.09,-131.34 947.64,-132.36 940.03,-124.99 937.09,-131.34"/>
</a>
</g>
</g>
<!-- Node14 -->
<g id="Node000014" class="node">
<title>Node14</title>
<g id="a_Node000014"><a xlink:href="classcbrc_1_1SeqGlobalAffineAligner.html#ae580a1caa6408968a25a6df33815d9bb" target="_top" xlink:title=" ">
<polygon fill="white" stroke="#666666" points="855,-30 700,-30 700,0 855,0 855,-30"/>
<text text-anchor="start" x="708" y="-18" font-family="Helvetica,sans-Serif" font-size="10.00">cbrc::SeqGlobalAffineAligner</text>
<text text-anchor="middle" x="777.5" y="-7" font-family="Helvetica,sans-Serif" font-size="10.00">::bestPossibleSuffixScore</text>
</a>
</g>
</g>
<!-- Node13&#45;&gt;Node14 -->
<g id="edge18_Node000013_Node000014" class="edge">
<title>Node13&#45;&gt;Node14</title>
<g id="a_edge18_Node000013_Node000014"><a xlink:title=" ">
<path fill="none" stroke="#63b8ff" d="M646.54,-35.9C660.5,-33.65 675.34,-31.27 689.81,-28.94"/>
<polygon fill="#63b8ff" stroke="#63b8ff" points="690.44,-32.38 699.75,-27.34 689.32,-25.47 690.44,-32.38"/>
</a>
</g>
</g>
<!-- Node14&#45;&gt;Node4 -->
<g id="edge21_Node000014_Node000004" class="edge">
<title>Node14&#45;&gt;Node4</title>
<g id="a_edge21_Node000014_Node000004"><a xlink:title=" ">
<path fill="none" stroke="#63b8ff" d="M803.92,-30.03C818.94,-39.06 838.23,-50.9 855,-62 887.47,-83.48 924.03,-109.91 946.41,-126.36"/>
<polygon fill="#63b8ff" stroke="#63b8ff" points="944.41,-129.23 954.54,-132.35 948.56,-123.6 944.41,-129.23"/>
</a>
</g>
</g>
<!-- Node14&#45;&gt;Node14 -->
<g id="edge19_Node000014_Node000014" class="edge">
<title>Node14&#45;&gt;Node14</title>
<g id="a_edge19_Node000014_Node000014"><a xlink:title=" ">
<path fill="none" stroke="#63b8ff" d="M744.1,-30.28C736.68,-39.41 747.81,-48 777.5,-48 795.13,-48 806.21,-44.97 810.76,-40.6"/>
<polygon fill="#63b8ff" stroke="#63b8ff" points="814.26,-40.32 810.9,-30.28 807.26,-40.23 814.26,-40.32"/>
</a>
</g>
</g>
<!-- Node15 -->
<g id="Node000015" class="node">
<title>Node15</title>
<g id="a_Node000015"><a xlink:href="classcbrc_1_1SeqGlobalAffineAligner.html#abfd1556484b4c230c84fe4d1af47003e" target="_top" xlink:title=" ">
<polygon fill="white" stroke="#666666" points="1046,-30 891,-30 891,0 1046,0 1046,-30"/>
<text text-anchor="start" x="899" y="-18" font-family="Helvetica,sans-Serif" font-size="10.00">cbrc::SeqGlobalAffineAligner</text>
<text text-anchor="middle" x="968.5" y="-7" font-family="Helvetica,sans-Serif" font-size="10.00">::resSubScore</text>
</a>
</g>
</g>
<!-- Node14&#45;&gt;Node15 -->
<g id="edge20_Node000014_Node000015" class="edge">
<title>Node14&#45;&gt;Node15</title>
<g id="a_edge20_Node000014_Node000015"><a xlink:title=" ">
<path fill="none" stroke="#63b8ff" d="M855.1,-15C863.56,-15 872.22,-15 880.79,-15"/>
<polygon fill="#63b8ff" stroke="#63b8ff" points="880.79,-18.5 890.79,-15 880.79,-11.5 880.79,-18.5"/>
</a>
</g>
</g>
</g>
</svg>
