<?xml version="1.0" encoding="UTF-8" standalone="no"?>
<!DOCTYPE svg PUBLIC "-//W3C//DTD SVG 1.1//EN"
 "http://www.w3.org/Graphics/SVG/1.1/DTD/svg11.dtd">
<!-- Generated by graphviz version 2.43.0 (0)
 -->
<!-- Title: ematch_src/utils/sequence/packedDNA/test/testDNAArrayBit8.cc Pages: 1 -->
<svg width="1259pt" height="434pt"
 viewBox="0.00 0.00 1259.00 434.00" xmlns="http://www.w3.org/2000/svg" xmlns:xlink="http://www.w3.org/1999/xlink">
<g id="graph0" class="graph" transform="scale(1 1) rotate(0) translate(4 430)">
<title>ematch_src/utils/sequence/packedDNA/test/testDNAArrayBit8.cc</title>
<!-- Node1 -->
<g id="Node000001" class="node">
<title>Node1</title>
<g id="a_Node000001"><a xlink:title=" ">
<polygon fill="#999999" stroke="#666666" points="763.5,-426 563.5,-426 563.5,-396 763.5,-396 763.5,-426"/>
<text text-anchor="start" x="571.5" y="-414" font-family="Helvetica,sans-Serif" font-size="10.00">ematch_src/utils/sequence</text>
<text text-anchor="middle" x="663.5" y="-403" font-family="Helvetica,sans-Serif" font-size="10.00">/packedDNA/test/testDNAArrayBit8.cc</text>
</a>
</g>
</g>
<!-- Node2 -->
<g id="Node000002" class="node">
<title>Node2</title>
<g id="a_Node000002"><a xlink:title=" ">
<polygon fill="#e0e0e0" stroke="#999999" points="341.5,-19 281.5,-19 281.5,0 341.5,0 341.5,-19"/>
<text text-anchor="middle" x="311.5" y="-7" font-family="Helvetica,sans-Serif" font-size="10.00">iostream</text>
</a>
</g>
</g>
<!-- Node1&#45;&gt;Node2 -->
<g id="edge1_Node000001_Node000002" class="edge">
<title>Node1&#45;&gt;Node2</title>
<g id="a_edge1_Node000001_Node000002"><a xlink:title=" ">
<path fill="none" stroke="#63b8ff" d="M563.29,-401.92C437.92,-388.99 239.5,-357.95 239.5,-291 239.5,-291 239.5,-291 239.5,-118.5 239.5,-80.1 271.39,-44.98 292.73,-25.78"/>
<polygon fill="#63b8ff" stroke="#63b8ff" points="295.29,-28.19 300.56,-19 290.71,-22.89 295.29,-28.19"/>
</a>
</g>
</g>
<!-- Node3 -->
<g id="Node000003" class="node">
<title>Node3</title>
<g id="a_Node000003"><a xlink:href="DNAArrayBit8_8hh.html" target="_top" xlink:title=" ">
<polygon fill="white" stroke="#666666" points="799.5,-360 691.5,-360 691.5,-341 799.5,-341 799.5,-360"/>
<text text-anchor="middle" x="745.5" y="-348" font-family="Helvetica,sans-Serif" font-size="10.00">../DNAArrayBit8.hh</text>
</a>
</g>
</g>
<!-- Node1&#45;&gt;Node3 -->
<g id="edge2_Node000001_Node000003" class="edge">
<title>Node1&#45;&gt;Node3</title>
<g id="a_edge2_Node000001_Node000003"><a xlink:title=" ">
<path fill="none" stroke="#63b8ff" d="M683.35,-395.84C695.98,-386.83 712.3,-375.18 725.05,-366.09"/>
<polygon fill="#63b8ff" stroke="#63b8ff" points="727.1,-368.92 733.21,-360.27 723.04,-363.22 727.1,-368.92"/>
</a>
</g>
</g>
<!-- Node4 -->
<g id="Node000004" class="node">
<title>Node4</title>
<g id="a_Node000004"><a xlink:href="ResidueIndexMapPredefined_8hh.html" target="_top" xlink:title=" ">
<polygon fill="white" stroke="#666666" points="801.5,-305 607.5,-305 607.5,-275 801.5,-275 801.5,-305"/>
<text text-anchor="start" x="615.5" y="-293" font-family="Helvetica,sans-Serif" font-size="10.00">utils/sequence/ResidueIndex</text>
<text text-anchor="middle" x="704.5" y="-282" font-family="Helvetica,sans-Serif" font-size="10.00">Map/ResidueIndexMapPredefined.hh</text>
</a>
</g>
</g>
<!-- Node1&#45;&gt;Node4 -->
<g id="edge39_Node000001_Node000004" class="edge">
<title>Node1&#45;&gt;Node4</title>
<g id="a_edge39_Node000001_Node000004"><a xlink:title=" ">
<path fill="none" stroke="#63b8ff" d="M666.77,-395.81C670.16,-381.72 675.88,-359.61 682.5,-341 685.65,-332.14 689.66,-322.64 693.4,-314.32"/>
<polygon fill="#63b8ff" stroke="#63b8ff" points="696.58,-315.76 697.58,-305.22 690.22,-312.84 696.58,-315.76"/>
</a>
</g>
</g>
<!-- Node3&#45;&gt;Node4 -->
<g id="edge3_Node000003_Node000004" class="edge">
<title>Node3&#45;&gt;Node4</title>
<g id="a_edge3_Node000003_Node000004"><a xlink:title=" ">
<path fill="none" stroke="#63b8ff" d="M739.45,-340.87C734.4,-333.67 726.98,-323.07 720.26,-313.49"/>
<polygon fill="#63b8ff" stroke="#63b8ff" points="723,-311.29 714.39,-305.11 717.27,-315.31 723,-311.29"/>
</a>
</g>
</g>
<!-- Node9 -->
<g id="Node000009" class="node">
<title>Node9</title>
<g id="a_Node000009"><a xlink:title=" ">
<polygon fill="#e0e0e0" stroke="#999999" points="1251,-184 1186,-184 1186,-165 1251,-165 1251,-184"/>
<text text-anchor="middle" x="1218.5" y="-172" font-family="Helvetica,sans-Serif" font-size="10.00">stdexcept</text>
</a>
</g>
</g>
<!-- Node3&#45;&gt;Node9 -->
<g id="edge38_Node000003_Node000009" class="edge">
<title>Node3&#45;&gt;Node9</title>
<g id="a_edge38_Node000003_Node000009"><a xlink:title=" ">
<path fill="none" stroke="#63b8ff" d="M799.79,-345.21C883.37,-336.49 1046.07,-310.95 1162.5,-239 1181.37,-227.34 1197.46,-207.35 1207.48,-192.91"/>
<polygon fill="#63b8ff" stroke="#63b8ff" points="1210.54,-194.63 1213.16,-184.37 1204.71,-190.76 1210.54,-194.63"/>
</a>
</g>
</g>
<!-- Node4&#45;&gt;Node2 -->
<g id="edge37_Node000004_Node000002" class="edge">
<title>Node4&#45;&gt;Node2</title>
<g id="a_edge37_Node000004_Node000002"><a xlink:title=" ">
<path fill="none" stroke="#63b8ff" d="M607.34,-282.62C481.34,-271.62 277.5,-243.34 277.5,-175.5 277.5,-175.5 277.5,-175.5 277.5,-118.5 277.5,-85.39 292.22,-49.1 302.29,-28.14"/>
<polygon fill="#63b8ff" stroke="#63b8ff" points="305.43,-29.68 306.77,-19.17 299.17,-26.55 305.43,-29.68"/>
</a>
</g>
</g>
<!-- Node5 -->
<g id="Node000005" class="node">
<title>Node5</title>
<g id="a_Node000005"><a xlink:href="ResidueIndexMap_8hh.html" target="_top" xlink:title=" ">
<polygon fill="white" stroke="#666666" points="1153,-239 1034,-239 1034,-220 1153,-220 1153,-239"/>
<text text-anchor="middle" x="1093.5" y="-227" font-family="Helvetica,sans-Serif" font-size="10.00">ResidueIndexMap.hh</text>
</a>
</g>
</g>
<!-- Node4&#45;&gt;Node5 -->
<g id="edge4_Node000004_Node000005" class="edge">
<title>Node4&#45;&gt;Node5</title>
<g id="a_edge4_Node000004_Node000005"><a xlink:title=" ">
<path fill="none" stroke="#63b8ff" d="M797.68,-274.99C868.26,-264.37 963.54,-250.04 1026.67,-240.55"/>
<polygon fill="#63b8ff" stroke="#63b8ff" points="1027.54,-243.96 1036.91,-239.01 1026.5,-237.04 1027.54,-243.96"/>
</a>
</g>
</g>
<!-- Node6 -->
<g id="Node000006" class="node">
<title>Node6</title>
<g id="a_Node000006"><a xlink:title=" ">
<polygon fill="#e0e0e0" stroke="#999999" points="910.5,-19 866.5,-19 866.5,0 910.5,0 910.5,-19"/>
<text text-anchor="middle" x="888.5" y="-7" font-family="Helvetica,sans-Serif" font-size="10.00">string</text>
</a>
</g>
</g>
<!-- Node5&#45;&gt;Node6 -->
<g id="edge5_Node000005_Node000006" class="edge">
<title>Node5&#45;&gt;Node6</title>
<g id="a_edge5_Node000005_Node000006"><a xlink:title=" ">
<path fill="none" stroke="#63b8ff" d="M1097.45,-219.68C1109.25,-191.86 1140.97,-104.85 1100.5,-55 1089.23,-41.11 977.64,-23.29 921.05,-15.05"/>
<polygon fill="#63b8ff" stroke="#63b8ff" points="921.23,-11.54 910.83,-13.58 920.23,-18.47 921.23,-11.54"/>
</a>
</g>
</g>
<!-- Node7 -->
<g id="Node000007" class="node">
<title>Node7</title>
<g id="a_Node000007"><a xlink:title=" ">
<polygon fill="#e0e0e0" stroke="#999999" points="1014,-19 967,-19 967,0 1014,0 1014,-19"/>
<text text-anchor="middle" x="990.5" y="-7" font-family="Helvetica,sans-Serif" font-size="10.00">vector</text>
</a>
</g>
</g>
<!-- Node5&#45;&gt;Node7 -->
<g id="edge6_Node000005_Node000007" class="edge">
<title>Node5&#45;&gt;Node7</title>
<g id="a_edge6_Node000005_Node000007"><a xlink:title=" ">
<path fill="none" stroke="#63b8ff" d="M1099.81,-219.95C1118.92,-192.92 1172.53,-108.02 1133.5,-55 1108.6,-21.18 1058.2,-12.32 1024.38,-10.39"/>
<polygon fill="#63b8ff" stroke="#63b8ff" points="1024.17,-6.88 1014.04,-9.98 1023.9,-13.87 1024.17,-6.88"/>
</a>
</g>
</g>
<!-- Node8 -->
<g id="Node000008" class="node">
<title>Node8</title>
<g id="a_Node000008"><a xlink:title=" ">
<polygon fill="#e0e0e0" stroke="#999999" points="1091,-74 1038,-74 1038,-55 1091,-55 1091,-74"/>
<text text-anchor="middle" x="1064.5" y="-62" font-family="Helvetica,sans-Serif" font-size="10.00">ctype.h</text>
</a>
</g>
</g>
<!-- Node5&#45;&gt;Node8 -->
<g id="edge7_Node000005_Node000008" class="edge">
<title>Node5&#45;&gt;Node8</title>
<g id="a_edge7_Node000005_Node000008"><a xlink:title=" ">
<path fill="none" stroke="#63b8ff" d="M1091.94,-219.74C1087.4,-194.2 1074.1,-119.43 1067.83,-84.23"/>
<polygon fill="#63b8ff" stroke="#63b8ff" points="1071.26,-83.54 1066.07,-74.31 1064.37,-84.77 1071.26,-83.54"/>
</a>
</g>
</g>
<!-- Node5&#45;&gt;Node9 -->
<g id="edge8_Node000005_Node000009" class="edge">
<title>Node5&#45;&gt;Node9</title>
<g id="a_edge8_Node000005_Node000009"><a xlink:title=" ">
<path fill="none" stroke="#63b8ff" d="M1113.58,-219.98C1133.87,-211.38 1165.46,-197.99 1188.67,-188.15"/>
<polygon fill="#63b8ff" stroke="#63b8ff" points="1190.21,-191.3 1198.05,-184.17 1187.48,-184.85 1190.21,-191.3"/>
</a>
</g>
</g>
<!-- Node10 -->
<g id="Node000010" class="node">
<title>Node10</title>
<g id="a_Node000010"><a xlink:href="ematch__src_2utils_2FLArray_2FLEArray_8hh.html" target="_top" xlink:title=" ">
<polygon fill="white" stroke="#666666" points="642,-184 503,-184 503,-165 642,-165 642,-184"/>
<text text-anchor="middle" x="572.5" y="-172" font-family="Helvetica,sans-Serif" font-size="10.00">utils/FLArray/FLEArray.hh</text>
</a>
</g>
</g>
<!-- Node5&#45;&gt;Node10 -->
<g id="edge9_Node000005_Node000010" class="edge">
<title>Node5&#45;&gt;Node10</title>
<g id="a_edge9_Node000005_Node000010"><a xlink:title=" ">
<path fill="none" stroke="#63b8ff" d="M1033.99,-222.45C940.19,-212.9 757.85,-194.36 652.63,-183.65"/>
<polygon fill="#63b8ff" stroke="#63b8ff" points="652.68,-180.14 642.38,-182.61 651.97,-187.1 652.68,-180.14"/>
</a>
</g>
</g>
<!-- Node10&#45;&gt;Node2 -->
<g id="edge12_Node000010_Node000002" class="edge">
<title>Node10&#45;&gt;Node2</title>
<g id="a_edge12_Node000010_Node000002"><a xlink:title=" ">
<path fill="none" stroke="#63b8ff" d="M502.72,-170.54C461.83,-165.9 410.86,-154.83 372.5,-129 337.9,-105.71 321.78,-56.47 315.27,-29.37"/>
<polygon fill="#63b8ff" stroke="#63b8ff" points="318.62,-28.26 313.05,-19.25 311.78,-29.77 318.62,-28.26"/>
</a>
</g>
</g>
<!-- Node10&#45;&gt;Node7 -->
<g id="edge11_Node000010_Node000007" class="edge">
<title>Node10&#45;&gt;Node7</title>
<g id="a_edge11_Node000010_Node000007"><a xlink:title=" ">
<path fill="none" stroke="#63b8ff" d="M642.42,-165.12C744.95,-151.41 928.89,-120.91 974.5,-74 986.01,-62.17 989.61,-43.33 990.57,-29.24"/>
<polygon fill="#63b8ff" stroke="#63b8ff" points="994.07,-29.29 990.88,-19.18 987.07,-29.07 994.07,-29.29"/>
</a>
</g>
</g>
<!-- Node11 -->
<g id="Node000011" class="node">
<title>Node11</title>
<g id="a_Node000011"><a xlink:title=" ">
<polygon fill="#e0e0e0" stroke="#999999" points="399.5,-74 343.5,-74 343.5,-55 399.5,-55 399.5,-74"/>
<text text-anchor="middle" x="371.5" y="-62" font-family="Helvetica,sans-Serif" font-size="10.00">assert.h</text>
</a>
</g>
</g>
<!-- Node10&#45;&gt;Node11 -->
<g id="edge10_Node000010_Node000011" class="edge">
<title>Node10&#45;&gt;Node11</title>
<g id="a_edge10_Node000010_Node000011"><a xlink:title=" ">
<path fill="none" stroke="#63b8ff" d="M580.99,-164.82C592.79,-151.72 611.21,-126.65 597.5,-110 571.02,-77.83 454.36,-82.13 413.5,-74 412.23,-73.75 410.93,-73.49 409.63,-73.23"/>
<polygon fill="#63b8ff" stroke="#63b8ff" points="410,-69.73 399.51,-71.19 408.62,-76.6 410,-69.73"/>
</a>
</g>
</g>
<!-- Node12 -->
<g id="Node000012" class="node">
<title>Node12</title>
<g id="a_Node000012"><a xlink:title=" ">
<polygon fill="#e0e0e0" stroke="#999999" points="445.5,-129 381.5,-129 381.5,-110 445.5,-110 445.5,-129"/>
<text text-anchor="middle" x="413.5" y="-117" font-family="Helvetica,sans-Serif" font-size="10.00">algorithm</text>
</a>
</g>
</g>
<!-- Node10&#45;&gt;Node12 -->
<g id="edge13_Node000010_Node000012" class="edge">
<title>Node10&#45;&gt;Node12</title>
<g id="a_edge13_Node000010_Node000012"><a xlink:title=" ">
<path fill="none" stroke="#63b8ff" d="M546.95,-164.98C520.38,-156.13 478.56,-142.19 448.83,-132.28"/>
<polygon fill="#63b8ff" stroke="#63b8ff" points="449.84,-128.92 439.25,-129.08 447.63,-135.56 449.84,-128.92"/>
</a>
</g>
</g>
<!-- Node13 -->
<g id="Node000013" class="node">
<title>Node13</title>
<g id="a_Node000013"><a xlink:title=" ">
<polygon fill="#e0e0e0" stroke="#999999" points="589,-129 464,-129 464,-110 589,-110 589,-129"/>
<text text-anchor="middle" x="526.5" y="-117" font-family="Helvetica,sans-Serif" font-size="10.00">boost/lexical_cast.hpp</text>
</a>
</g>
</g>
<!-- Node10&#45;&gt;Node13 -->
<g id="edge14_Node000010_Node000013" class="edge">
<title>Node10&#45;&gt;Node13</title>
<g id="a_edge14_Node000010_Node000013"><a xlink:title=" ">
<path fill="none" stroke="#63b8ff" d="M564.9,-164.75C558.34,-157.18 548.68,-146.05 540.69,-136.84"/>
<polygon fill="#63b8ff" stroke="#63b8ff" points="543.15,-134.35 533.95,-129.09 537.87,-138.94 543.15,-134.35"/>
</a>
</g>
</g>
<!-- Node14 -->
<g id="Node000014" class="node">
<title>Node14</title>
<g id="a_Node000014"><a xlink:href="ematch__src_2utils_2gdb_2gdbUtils_8hh.html" target="_top" xlink:title=" ">
<polygon fill="white" stroke="#666666" points="211,-74 94,-74 94,-55 211,-55 211,-74"/>
<text text-anchor="middle" x="152.5" y="-62" font-family="Helvetica,sans-Serif" font-size="10.00">utils/gdb/gdbUtils.hh</text>
</a>
</g>
</g>
<!-- Node10&#45;&gt;Node14 -->
<g id="edge15_Node000010_Node000014" class="edge">
<title>Node10&#45;&gt;Node14</title>
<g id="a_edge15_Node000010_Node000014"><a xlink:title=" ">
<path fill="none" stroke="#63b8ff" d="M515.98,-164.96C468.49,-157.25 399.03,-144.71 339.5,-129 283.9,-114.33 220.88,-91.62 184.03,-77.71"/>
<polygon fill="#63b8ff" stroke="#63b8ff" points="184.95,-74.31 174.36,-74.03 182.47,-80.86 184.95,-74.31"/>
</a>
</g>
</g>
<!-- Node19 -->
<g id="Node000019" class="node">
<title>Node19</title>
<g id="a_Node000019"><a xlink:href="ematch__src_2utils_2perlish_2perlish_8hh.html" target="_top" xlink:title=" ">
<polygon fill="white" stroke="#666666" points="771,-129 646,-129 646,-110 771,-110 771,-129"/>
<text text-anchor="middle" x="708.5" y="-117" font-family="Helvetica,sans-Serif" font-size="10.00">utils/perlish/perlish.hh</text>
</a>
</g>
</g>
<!-- Node10&#45;&gt;Node19 -->
<g id="edge21_Node000010_Node000019" class="edge">
<title>Node10&#45;&gt;Node19</title>
<g id="a_edge21_Node000010_Node000019"><a xlink:title=" ">
<path fill="none" stroke="#63b8ff" d="M594.35,-164.98C616.62,-156.3 651.4,-142.75 676.72,-132.88"/>
<polygon fill="#63b8ff" stroke="#63b8ff" points="678.21,-136.06 686.25,-129.17 675.66,-129.54 678.21,-136.06"/>
</a>
</g>
</g>
<!-- Node14&#45;&gt;Node2 -->
<g id="edge17_Node000014_Node000002" class="edge">
<title>Node14&#45;&gt;Node2</title>
<g id="a_edge17_Node000014_Node000002"><a xlink:title=" ">
<path fill="none" stroke="#63b8ff" d="M178.05,-54.98C204.62,-46.13 246.44,-32.19 276.17,-22.28"/>
<polygon fill="#63b8ff" stroke="#63b8ff" points="277.37,-25.56 285.75,-19.08 275.16,-18.92 277.37,-25.56"/>
</a>
</g>
</g>
<!-- Node15 -->
<g id="Node000015" class="node">
<title>Node15</title>
<g id="a_Node000015"><a xlink:title=" ">
<polygon fill="#e0e0e0" stroke="#999999" points="255,-19 202,-19 202,0 255,0 255,-19"/>
<text text-anchor="middle" x="228.5" y="-7" font-family="Helvetica,sans-Serif" font-size="10.00">cstdarg</text>
</a>
</g>
</g>
<!-- Node14&#45;&gt;Node15 -->
<g id="edge16_Node000014_Node000015" class="edge">
<title>Node14&#45;&gt;Node15</title>
<g id="a_edge16_Node000014_Node000015"><a xlink:title=" ">
<path fill="none" stroke="#63b8ff" d="M164.71,-54.98C176.28,-46.92 193.88,-34.65 207.66,-25.03"/>
<polygon fill="#63b8ff" stroke="#63b8ff" points="209.87,-27.76 216.07,-19.17 205.86,-22.02 209.87,-27.76"/>
</a>
</g>
</g>
<!-- Node16 -->
<g id="Node000016" class="node">
<title>Node16</title>
<g id="a_Node000016"><a xlink:title=" ">
<polygon fill="#e0e0e0" stroke="#999999" points="49,-19 0,-19 0,0 49,0 49,-19"/>
<text text-anchor="middle" x="24.5" y="-7" font-family="Helvetica,sans-Serif" font-size="10.00">cstdlib</text>
</a>
</g>
</g>
<!-- Node14&#45;&gt;Node16 -->
<g id="edge18_Node000014_Node000016" class="edge">
<title>Node14&#45;&gt;Node16</title>
<g id="a_edge18_Node000014_Node000016"><a xlink:title=" ">
<path fill="none" stroke="#63b8ff" d="M131.93,-54.98C111.07,-46.34 78.53,-32.87 54.73,-23.02"/>
<polygon fill="#63b8ff" stroke="#63b8ff" points="56.02,-19.76 45.44,-19.17 53.34,-26.23 56.02,-19.76"/>
</a>
</g>
</g>
<!-- Node17 -->
<g id="Node000017" class="node">
<title>Node17</title>
<g id="a_Node000017"><a xlink:title=" ">
<polygon fill="#e0e0e0" stroke="#999999" points="113.5,-19 67.5,-19 67.5,0 113.5,0 113.5,-19"/>
<text text-anchor="middle" x="90.5" y="-7" font-family="Helvetica,sans-Serif" font-size="10.00">cstdio</text>
</a>
</g>
</g>
<!-- Node14&#45;&gt;Node17 -->
<g id="edge19_Node000014_Node000017" class="edge">
<title>Node14&#45;&gt;Node17</title>
<g id="a_edge19_Node000014_Node000017"><a xlink:title=" ">
<path fill="none" stroke="#63b8ff" d="M142.54,-54.98C133.37,-47.15 119.56,-35.34 108.47,-25.86"/>
<polygon fill="#63b8ff" stroke="#63b8ff" points="110.52,-23.01 100.64,-19.17 105.97,-28.33 110.52,-23.01"/>
</a>
</g>
</g>
<!-- Node18 -->
<g id="Node000018" class="node">
<title>Node18</title>
<g id="a_Node000018"><a xlink:title=" ">
<polygon fill="#e0e0e0" stroke="#999999" points="183.5,-19 131.5,-19 131.5,0 183.5,0 183.5,-19"/>
<text text-anchor="middle" x="157.5" y="-7" font-family="Helvetica,sans-Serif" font-size="10.00">cassert</text>
</a>
</g>
</g>
<!-- Node14&#45;&gt;Node18 -->
<g id="edge20_Node000014_Node000018" class="edge">
<title>Node14&#45;&gt;Node18</title>
<g id="a_edge20_Node000014_Node000018"><a xlink:title=" ">
<path fill="none" stroke="#63b8ff" d="M153.33,-54.75C153.98,-47.8 154.92,-37.85 155.74,-29.13"/>
<polygon fill="#63b8ff" stroke="#63b8ff" points="159.23,-29.37 156.69,-19.09 152.27,-28.72 159.23,-29.37"/>
</a>
</g>
</g>
<!-- Node19&#45;&gt;Node2 -->
<g id="edge23_Node000019_Node000002" class="edge">
<title>Node19&#45;&gt;Node2</title>
<g id="a_edge23_Node000019_Node000002"><a xlink:title=" ">
<path fill="none" stroke="#63b8ff" d="M645.85,-113.11C591.97,-107.24 512.72,-95.65 446.5,-74 428.55,-68.13 425.53,-63.16 408.5,-55 385.49,-43.97 359.16,-31.93 339.75,-23.16"/>
<polygon fill="#63b8ff" stroke="#63b8ff" points="341.1,-19.93 330.55,-19.01 338.22,-26.31 341.1,-19.93"/>
</a>
</g>
</g>
<!-- Node19&#45;&gt;Node6 -->
<g id="edge26_Node000019_Node000006" class="edge">
<title>Node19&#45;&gt;Node6</title>
<g id="a_edge26_Node000019_Node000006"><a xlink:title=" ">
<path fill="none" stroke="#63b8ff" d="M712.14,-109.75C718.27,-96.09 731.92,-69.72 751.5,-55 782.47,-31.71 826.15,-20.31 855.8,-14.94"/>
<polygon fill="#63b8ff" stroke="#63b8ff" points="856.76,-18.33 866.04,-13.22 855.6,-11.42 856.76,-18.33"/>
</a>
</g>
</g>
<!-- Node19&#45;&gt;Node7 -->
<g id="edge27_Node000019_Node000007" class="edge">
<title>Node19&#45;&gt;Node7</title>
<g id="a_edge27_Node000019_Node000007"><a xlink:title=" ">
<path fill="none" stroke="#63b8ff" d="M771.15,-112.97C833.46,-106.45 923.79,-93.9 952.5,-74 968.31,-63.05 978.62,-43.2 984.46,-28.6"/>
<polygon fill="#63b8ff" stroke="#63b8ff" points="987.79,-29.69 987.94,-19.09 981.21,-27.28 987.79,-29.69"/>
</a>
</g>
</g>
<!-- Node19&#45;&gt;Node8 -->
<g id="edge22_Node000019_Node000008" class="edge">
<title>Node19&#45;&gt;Node8</title>
<g id="a_edge22_Node000019_Node000008"><a xlink:title=" ">
<path fill="none" stroke="#63b8ff" d="M765.7,-109.98C839.46,-99 965.63,-80.22 1027.74,-70.97"/>
<polygon fill="#63b8ff" stroke="#63b8ff" points="1028.48,-74.4 1037.86,-69.47 1027.45,-67.48 1028.48,-74.4"/>
</a>
</g>
</g>
<!-- Node19&#45;&gt;Node11 -->
<g id="edge28_Node000019_Node000011" class="edge">
<title>Node19&#45;&gt;Node11</title>
<g id="a_edge28_Node000019_Node000011"><a xlink:title=" ">
<path fill="none" stroke="#63b8ff" d="M645.91,-109.98C586.09,-101.63 493.45,-88.11 413.5,-74 412.4,-73.81 411.29,-73.61 410.16,-73.4"/>
<polygon fill="#63b8ff" stroke="#63b8ff" points="410.41,-69.88 399.93,-71.45 409.1,-76.76 410.41,-69.88"/>
</a>
</g>
</g>
<!-- Node19&#45;&gt;Node14 -->
<g id="edge30_Node000019_Node000014" class="edge">
<title>Node19&#45;&gt;Node14</title>
<g id="a_edge30_Node000019_Node000014"><a xlink:title=" ">
<path fill="none" stroke="#63b8ff" d="M645.8,-112.52C540.84,-102.52 330.38,-82.46 221.41,-72.07"/>
<polygon fill="#63b8ff" stroke="#63b8ff" points="221.48,-68.56 211.19,-71.09 220.81,-75.53 221.48,-68.56"/>
</a>
</g>
</g>
<!-- Node20 -->
<g id="Node000020" class="node">
<title>Node20</title>
<g id="a_Node000020"><a xlink:title=" ">
<polygon fill="#e0e0e0" stroke="#999999" points="815,-74 760,-74 760,-55 815,-55 815,-74"/>
<text text-anchor="middle" x="787.5" y="-62" font-family="Helvetica,sans-Serif" font-size="10.00">fstream</text>
</a>
</g>
</g>
<!-- Node19&#45;&gt;Node20 -->
<g id="edge24_Node000019_Node000020" class="edge">
<title>Node19&#45;&gt;Node20</title>
<g id="a_edge24_Node000019_Node000020"><a xlink:title=" ">
<path fill="none" stroke="#63b8ff" d="M721.19,-109.98C733.33,-101.84 751.86,-89.41 766.25,-79.76"/>
<polygon fill="#63b8ff" stroke="#63b8ff" points="768.22,-82.65 774.58,-74.17 764.32,-76.84 768.22,-82.65"/>
</a>
</g>
</g>
<!-- Node21 -->
<g id="Node000021" class="node">
<title>Node21</title>
<g id="a_Node000021"><a xlink:title=" ">
<polygon fill="#e0e0e0" stroke="#999999" points="511.5,-74 455.5,-74 455.5,-55 511.5,-55 511.5,-74"/>
<text text-anchor="middle" x="483.5" y="-62" font-family="Helvetica,sans-Serif" font-size="10.00">sstream</text>
</a>
</g>
</g>
<!-- Node19&#45;&gt;Node21 -->
<g id="edge25_Node000019_Node000021" class="edge">
<title>Node19&#45;&gt;Node21</title>
<g id="a_edge25_Node000019_Node000021"><a xlink:title=" ">
<path fill="none" stroke="#63b8ff" d="M672.35,-109.98C631.04,-100.25 563.71,-84.39 521.6,-74.47"/>
<polygon fill="#63b8ff" stroke="#63b8ff" points="522.26,-71.03 511.73,-72.15 520.66,-77.85 522.26,-71.03"/>
</a>
</g>
</g>
<!-- Node22 -->
<g id="Node000022" class="node">
<title>Node22</title>
<g id="a_Node000022"><a xlink:title=" ">
<polygon fill="#e0e0e0" stroke="#999999" points="693,-19 598,-19 598,0 693,0 693,-19"/>
<text text-anchor="middle" x="645.5" y="-7" font-family="Helvetica,sans-Serif" font-size="10.00">boost/regex.hpp</text>
</a>
</g>
</g>
<!-- Node19&#45;&gt;Node22 -->
<g id="edge29_Node000019_Node000022" class="edge">
<title>Node19&#45;&gt;Node22</title>
<g id="a_edge29_Node000019_Node000022"><a xlink:title=" ">
<path fill="none" stroke="#63b8ff" d="M703.9,-109.78C697.36,-97.46 684.88,-74.3 673.5,-55 668.17,-45.96 661.98,-36.06 656.77,-27.9"/>
<polygon fill="#63b8ff" stroke="#63b8ff" points="659.58,-25.79 651.23,-19.27 653.69,-29.58 659.58,-25.79"/>
</a>
</g>
</g>
<!-- Node23 -->
<g id="Node000023" class="node">
<title>Node23</title>
<g id="a_Node000023"><a xlink:href="ematch__src_2utils_2stl_2stlTypes_8hh.html" target="_top" xlink:title=" ">
<polygon fill="white" stroke="#666666" points="943.5,-74 833.5,-74 833.5,-55 943.5,-55 943.5,-74"/>
<text text-anchor="middle" x="888.5" y="-62" font-family="Helvetica,sans-Serif" font-size="10.00">utils/stl/stlTypes.hh</text>
</a>
</g>
</g>
<!-- Node19&#45;&gt;Node23 -->
<g id="edge31_Node000019_Node000023" class="edge">
<title>Node19&#45;&gt;Node23</title>
<g id="a_edge31_Node000019_Node000023"><a xlink:title=" ">
<path fill="none" stroke="#63b8ff" d="M737.42,-109.98C767.77,-101.05 815.67,-86.94 849.38,-77.02"/>
<polygon fill="#63b8ff" stroke="#63b8ff" points="850.75,-80.26 859.35,-74.08 848.77,-73.55 850.75,-80.26"/>
</a>
</g>
</g>
<!-- Node24 -->
<g id="Node000024" class="node">
<title>Node24</title>
<g id="a_Node000024"><a xlink:href="ematch__src_2utils_2boost_2boostUtils_8hh.html" target="_top" xlink:title=" ">
<polygon fill="white" stroke="#666666" points="665,-74 530,-74 530,-55 665,-55 665,-74"/>
<text text-anchor="middle" x="597.5" y="-62" font-family="Helvetica,sans-Serif" font-size="10.00">utils/boost/boostUtils.hh</text>
</a>
</g>
</g>
<!-- Node19&#45;&gt;Node24 -->
<g id="edge34_Node000019_Node000024" class="edge">
<title>Node19&#45;&gt;Node24</title>
<g id="a_edge34_Node000019_Node000024"><a xlink:title=" ">
<path fill="none" stroke="#63b8ff" d="M690.67,-109.98C672.89,-101.5 645.35,-88.35 624.82,-78.54"/>
<polygon fill="#63b8ff" stroke="#63b8ff" points="626.19,-75.32 615.66,-74.17 623.17,-81.64 626.19,-75.32"/>
</a>
</g>
</g>
<!-- Node23&#45;&gt;Node6 -->
<g id="edge32_Node000023_Node000006" class="edge">
<title>Node23&#45;&gt;Node6</title>
<g id="a_edge32_Node000023_Node000006"><a xlink:title=" ">
<path fill="none" stroke="#63b8ff" d="M888.5,-54.75C888.5,-47.8 888.5,-37.85 888.5,-29.13"/>
<polygon fill="#63b8ff" stroke="#63b8ff" points="892,-29.09 888.5,-19.09 885,-29.09 892,-29.09"/>
</a>
</g>
</g>
<!-- Node23&#45;&gt;Node7 -->
<g id="edge33_Node000023_Node000007" class="edge">
<title>Node23&#45;&gt;Node7</title>
<g id="a_edge33_Node000023_Node000007"><a xlink:title=" ">
<path fill="none" stroke="#63b8ff" d="M904.89,-54.98C921.07,-46.57 946.07,-33.59 964.88,-23.81"/>
<polygon fill="#63b8ff" stroke="#63b8ff" points="966.55,-26.89 973.81,-19.17 963.33,-20.68 966.55,-26.89"/>
</a>
</g>
</g>
<!-- Node24&#45;&gt;Node2 -->
<g id="edge35_Node000024_Node000002" class="edge">
<title>Node24&#45;&gt;Node2</title>
<g id="a_edge35_Node000024_Node000002"><a xlink:title=" ">
<path fill="none" stroke="#63b8ff" d="M551.55,-54.98C496.18,-44.72 404.07,-27.66 351.51,-17.91"/>
<polygon fill="#63b8ff" stroke="#63b8ff" points="352.02,-14.45 341.55,-16.07 350.74,-21.33 352.02,-14.45"/>
</a>
</g>
</g>
<!-- Node24&#45;&gt;Node22 -->
<g id="edge36_Node000024_Node000022" class="edge">
<title>Node24&#45;&gt;Node22</title>
<g id="a_edge36_Node000024_Node000022"><a xlink:title=" ">
<path fill="none" stroke="#63b8ff" d="M605.43,-54.75C612.35,-47.11 622.57,-35.82 630.95,-26.56"/>
<polygon fill="#63b8ff" stroke="#63b8ff" points="633.6,-28.85 637.72,-19.09 628.41,-24.15 633.6,-28.85"/>
</a>
</g>
</g>
</g>
</svg>
