<?xml version="1.0" encoding="UTF-8" standalone="no"?>
<!DOCTYPE svg PUBLIC "-//W3C//DTD SVG 1.1//EN"
 "http://www.w3.org/Graphics/SVG/1.1/DTD/svg11.dtd">
<!-- Generated by graphviz version 2.43.0 (0)
 -->
<!-- Title: ematch_src/utils/sequence/readers/transfac/TransfacReader.cc Pages: 1 -->
<!--zoomable 313 -->

<svg id="main" version="1.1" xmlns="http://www.w3.org/2000/svg" xmlns:xlink="http://www.w3.org/1999/xlink" xml:space="preserve" onload="init(evt)">
<style type="text/css"><![CDATA[
.node, .edge {opacity: 0.7;}
.node.selected, .edge.selected {opacity: 1;}
.edge:hover path { stroke: red; }
.edge:hover polygon { stroke: red; fill: red; }
]]></style>

<defs>
  <circle id="rim" cx="0" cy="0" r="7"/>
  <circle id="rim2" cx="0" cy="0" r="3.5"/>
  <g id="zoomPlus">
    <use xlink:href="#rim" fill="#404040"><set attributeName="fill" to="#808080" begin="zoomplus.mouseover" end="zoomplus.mouseout"/></use>
    <path d="M-4,0h8M0,-4v8" fill="none" stroke="white" stroke-width="1.5" pointer-events="none"/>
  </g>
  <g id="zoomMin">
    <use xlink:href="#rim" fill="#404040"><set attributeName="fill" to="#808080" begin="zoomminus.mouseover" end="zoomminus.mouseout"/></use>
    <path d="M-4,0h8" fill="none" stroke="white" stroke-width="1.5" pointer-events="none"/>
  </g>
  <g id="arrowUp" transform="translate(30 24)">
    <use xlink:href="#rim"/>
    <path pointer-events="none" fill="none" stroke="white" stroke-width="1.5" d="M0,-3.0v7 M-2.5,-0.5L0,-3.0L2.5,-0.5"/>
  </g>
  <g id="arrowRight" transform="rotate(90) translate(36 -43)">
    <use xlink:href="#rim"/>
    <path pointer-events="none" fill="none" stroke="white" stroke-width="1.5" d="M0,-3.0v7 M-2.5,-0.5L0,-3.0L2.5,-0.5"/>
  </g>
  <g id="arrowDown" transform="rotate(180) translate(-30 -48)">
    <use xlink:href="#rim"/>
    <path pointer-events="none" fill="none" stroke="white" stroke-width="1.5" d="M0,-3.0v7 M-2.5,-0.5L0,-3.0L2.5,-0.5"/>
  </g>
  <g id="arrowLeft" transform="rotate(270) translate(-36 17)">
    <use xlink:href="#rim"/>
    <path pointer-events="none" fill="none" stroke="white" stroke-width="1.5" d="M0,-3.0v7 M-2.5,-0.5L0,-3.0L2.5,-0.5"/>
  </g>
  <g id="resetDef">
    <use xlink:href="#rim2" fill="#404040"><set attributeName="fill" to="#808080" begin="reset.mouseover" end="reset.mouseout"/></use>
  </g>
</defs>
<script type="application/ecmascript">
var viewWidth = 1060;
var viewHeight = 313;
var sectionId = 'dynsection-0';
</script>
<script type="application/ecmascript" xlink:href="svg.min.js"/>
<svg id="graph" class="graph">
<g id="viewport">
<title>ematch_src/utils/sequence/readers/transfac/TransfacReader.cc</title>
<!-- Node1 -->
<g id="Node000001" class="node">
<title>Node1</title>
<g id="a_Node000001"><a xlink:title=" ">
<polygon fill="#999999" stroke="#666666" points="768.49,-305 578.49,-305 578.49,-275 768.49,-275 768.49,-305"/>
<text text-anchor="start" x="586.49" y="-293" font-family="Helvetica,sans-Serif" font-size="10.00">ematch_src/utils/sequence</text>
<text text-anchor="middle" x="673.49" y="-282" font-family="Helvetica,sans-Serif" font-size="10.00">/readers/transfac/TransfacReader.cc</text>
</a>
</g>
</g>
<!-- Node2 -->
<g id="Node000002" class="node">
<title>Node2</title>
<g id="a_Node000002"><a xlink:href="ematch__src_2utils_2perlish_2perlish_8hh.html" target="_top" xlink:title=" ">
<polygon fill="white" stroke="#666666" points="534.99,-129 409.99,-129 409.99,-110 534.99,-110 534.99,-129"/>
<text text-anchor="middle" x="472.49" y="-117" font-family="Helvetica,sans-Serif" font-size="10.00">utils/perlish/perlish.hh</text>
</a>
</g>
</g>
<!-- Node1&#45;&gt;Node2 -->
<g id="edge1_Node000001_Node000002" class="edge">
<title>Node1&#45;&gt;Node2</title>
<g id="a_edge1_Node000001_Node000002"><a xlink:title=" ">
<path fill="none" stroke="#63b8ff" d="M656.7,-274.92C619.33,-243.6 529.55,-168.34 490.81,-135.85"/>
<polygon fill="#63b8ff" stroke="#63b8ff" points="492.85,-133 482.93,-129.25 488.35,-138.36 492.85,-133"/>
</a>
</g>
</g>
<!-- Node18 -->
<g id="Node000018" class="node">
<title>Node18</title>
<g id="a_Node000018"><a xlink:href="TransfacReader_8hh.html" target="_top" xlink:title=" ">
<polygon fill="white" stroke="#666666" points="926.49,-239 820.49,-239 820.49,-220 926.49,-220 926.49,-239"/>
<text text-anchor="middle" x="873.49" y="-227" font-family="Helvetica,sans-Serif" font-size="10.00">TransfacReader.hh</text>
</a>
</g>
</g>
<!-- Node1&#45;&gt;Node18 -->
<g id="edge22_Node000001_Node000018" class="edge">
<title>Node1&#45;&gt;Node18</title>
<g id="a_edge22_Node000001_Node000018"><a xlink:title=" ">
<path fill="none" stroke="#63b8ff" d="M721.4,-274.99C755.91,-264.89 801.92,-251.44 834.26,-241.98"/>
<polygon fill="#63b8ff" stroke="#63b8ff" points="835.63,-245.22 844.25,-239.05 833.67,-238.5 835.63,-245.22"/>
</a>
</g>
</g>
<!-- Node3 -->
<g id="Node000003" class="node">
<title>Node3</title>
<g id="a_Node000003"><a xlink:title=" ">
<polygon fill="#e0e0e0" stroke="#999999" points="498.99,-74 445.99,-74 445.99,-55 498.99,-55 498.99,-74"/>
<text text-anchor="middle" x="472.49" y="-62" font-family="Helvetica,sans-Serif" font-size="10.00">ctype.h</text>
</a>
</g>
</g>
<!-- Node2&#45;&gt;Node3 -->
<g id="edge2_Node000002_Node000003" class="edge">
<title>Node2&#45;&gt;Node3</title>
<g id="a_edge2_Node000002_Node000003"><a xlink:title=" ">
<path fill="none" stroke="#63b8ff" d="M472.49,-109.75C472.49,-102.8 472.49,-92.85 472.49,-84.13"/>
<polygon fill="#63b8ff" stroke="#63b8ff" points="475.99,-84.09 472.49,-74.09 468.99,-84.09 475.99,-84.09"/>
</a>
</g>
</g>
<!-- Node4 -->
<g id="Node000004" class="node">
<title>Node4</title>
<g id="a_Node000004"><a xlink:title=" ">
<polygon fill="#e0e0e0" stroke="#999999" points="877.49,-19 817.49,-19 817.49,0 877.49,0 877.49,-19"/>
<text text-anchor="middle" x="847.49" y="-7" font-family="Helvetica,sans-Serif" font-size="10.00">iostream</text>
</a>
</g>
</g>
<!-- Node2&#45;&gt;Node4 -->
<g id="edge3_Node000002_Node000004" class="edge">
<title>Node2&#45;&gt;Node4</title>
<g id="a_edge3_Node000002_Node000004"><a xlink:title=" ">
<path fill="none" stroke="#63b8ff" d="M535.26,-114.81C615.02,-109.26 747.5,-96.89 790.49,-74 810.44,-63.38 826.86,-42.86 836.87,-28.02"/>
<polygon fill="#63b8ff" stroke="#63b8ff" points="840.04,-29.55 842.49,-19.24 834.15,-25.77 840.04,-29.55"/>
</a>
</g>
</g>
<!-- Node5 -->
<g id="Node000005" class="node">
<title>Node5</title>
<g id="a_Node000005"><a xlink:title=" ">
<polygon fill="#e0e0e0" stroke="#999999" points="706.99,-74 651.99,-74 651.99,-55 706.99,-55 706.99,-74"/>
<text text-anchor="middle" x="679.49" y="-62" font-family="Helvetica,sans-Serif" font-size="10.00">fstream</text>
</a>
</g>
</g>
<!-- Node2&#45;&gt;Node5 -->
<g id="edge4_Node000002_Node000005" class="edge">
<title>Node2&#45;&gt;Node5</title>
<g id="a_edge4_Node000002_Node000005"><a xlink:title=" ">
<path fill="none" stroke="#63b8ff" d="M505.75,-109.98C542.99,-100.45 603.21,-85.03 642.07,-75.08"/>
<polygon fill="#63b8ff" stroke="#63b8ff" points="643.13,-78.42 651.94,-72.55 641.39,-71.64 643.13,-78.42"/>
</a>
</g>
</g>
<!-- Node6 -->
<g id="Node000006" class="node">
<title>Node6</title>
<g id="a_Node000006"><a xlink:title=" ">
<polygon fill="#e0e0e0" stroke="#999999" points="781.49,-74 725.49,-74 725.49,-55 781.49,-55 781.49,-74"/>
<text text-anchor="middle" x="753.49" y="-62" font-family="Helvetica,sans-Serif" font-size="10.00">sstream</text>
</a>
</g>
</g>
<!-- Node2&#45;&gt;Node6 -->
<g id="edge5_Node000002_Node000006" class="edge">
<title>Node2&#45;&gt;Node6</title>
<g id="a_edge5_Node000002_Node000006"><a xlink:title=" ">
<path fill="none" stroke="#63b8ff" d="M523.09,-109.96C570.31,-101.84 642.96,-88.95 715.07,-74.22"/>
<polygon fill="#63b8ff" stroke="#63b8ff" points="716.15,-77.57 725.24,-72.13 714.74,-70.71 716.15,-77.57"/>
</a>
</g>
</g>
<!-- Node7 -->
<g id="Node000007" class="node">
<title>Node7</title>
<g id="a_Node000007"><a xlink:title=" ">
<polygon fill="#e0e0e0" stroke="#999999" points="54.49,-19 10.49,-19 10.49,0 54.49,0 54.49,-19"/>
<text text-anchor="middle" x="32.49" y="-7" font-family="Helvetica,sans-Serif" font-size="10.00">string</text>
</a>
</g>
</g>
<!-- Node2&#45;&gt;Node7 -->
<g id="edge6_Node000002_Node000007" class="edge">
<title>Node2&#45;&gt;Node7</title>
<g id="a_edge6_Node000002_Node000007"><a xlink:title=" ">
<path fill="none" stroke="#63b8ff" d="M409.67,-117.12C288.52,-113.79 32.17,-103.34 5.49,-74 -6.66,-60.64 4.86,-41 16.38,-27.11"/>
<polygon fill="#63b8ff" stroke="#63b8ff" points="19.3,-29.1 23.35,-19.31 14.08,-24.43 19.3,-29.1"/>
</a>
</g>
</g>
<!-- Node8 -->
<g id="Node000008" class="node">
<title>Node8</title>
<g id="a_Node000008"><a xlink:title=" ">
<polygon fill="#e0e0e0" stroke="#999999" points="128.99,-19 81.99,-19 81.99,0 128.99,0 128.99,-19"/>
<text text-anchor="middle" x="105.49" y="-7" font-family="Helvetica,sans-Serif" font-size="10.00">vector</text>
</a>
</g>
</g>
<!-- Node2&#45;&gt;Node8 -->
<g id="edge7_Node000002_Node000008" class="edge">
<title>Node2&#45;&gt;Node8</title>
<g id="a_edge7_Node000002_Node000008"><a xlink:title=" ">
<path fill="none" stroke="#63b8ff" d="M426.66,-109.98C386.44,-102.06 326.56,-89.23 275.49,-74 225.42,-59.07 168.88,-36.83 135.26,-23.02"/>
<polygon fill="#63b8ff" stroke="#63b8ff" points="136.18,-19.61 125.6,-19.03 133.5,-26.08 136.18,-19.61"/>
</a>
</g>
</g>
<!-- Node9 -->
<g id="Node000009" class="node">
<title>Node9</title>
<g id="a_Node000009"><a xlink:title=" ">
<polygon fill="#e0e0e0" stroke="#999999" points="198.49,-74 142.49,-74 142.49,-55 198.49,-55 198.49,-74"/>
<text text-anchor="middle" x="170.49" y="-62" font-family="Helvetica,sans-Serif" font-size="10.00">assert.h</text>
</a>
</g>
</g>
<!-- Node2&#45;&gt;Node9 -->
<g id="edge8_Node000002_Node000009" class="edge">
<title>Node2&#45;&gt;Node9</title>
<g id="a_edge8_Node000002_Node000009"><a xlink:title=" ">
<path fill="none" stroke="#63b8ff" d="M419.62,-109.93C367.03,-101.29 284.07,-87.37 212.49,-74 211.39,-73.8 210.28,-73.59 209.16,-73.37"/>
<polygon fill="#63b8ff" stroke="#63b8ff" points="209.42,-69.86 198.94,-71.38 208.08,-76.73 209.42,-69.86"/>
</a>
</g>
</g>
<!-- Node10 -->
<g id="Node000010" class="node">
<title>Node10</title>
<g id="a_Node000010"><a xlink:title=" ">
<polygon fill="#e0e0e0" stroke="#999999" points="359.99,-19 264.99,-19 264.99,0 359.99,0 359.99,-19"/>
<text text-anchor="middle" x="312.49" y="-7" font-family="Helvetica,sans-Serif" font-size="10.00">boost/regex.hpp</text>
</a>
</g>
</g>
<!-- Node2&#45;&gt;Node10 -->
<g id="edge9_Node000002_Node000010" class="edge">
<title>Node2&#45;&gt;Node10</title>
<g id="a_edge9_Node000002_Node000010"><a xlink:title=" ">
<path fill="none" stroke="#63b8ff" d="M409.54,-111.95C361.14,-105.46 299.99,-93.6 284.49,-74 273.23,-59.76 284.93,-40.27 296.46,-26.66"/>
<polygon fill="#63b8ff" stroke="#63b8ff" points="299.26,-28.79 303.42,-19.04 294.09,-24.07 299.26,-28.79"/>
</a>
</g>
</g>
<!-- Node11 -->
<g id="Node000011" class="node">
<title>Node11</title>
<g id="a_Node000011"><a xlink:href="ematch__src_2utils_2gdb_2gdbUtils_8hh.html" target="_top" xlink:title=" ">
<polygon fill="white" stroke="#666666" points="633.99,-74 516.99,-74 516.99,-55 633.99,-55 633.99,-74"/>
<text text-anchor="middle" x="575.49" y="-62" font-family="Helvetica,sans-Serif" font-size="10.00">utils/gdb/gdbUtils.hh</text>
</a>
</g>
</g>
<!-- Node2&#45;&gt;Node11 -->
<g id="edge10_Node000002_Node000011" class="edge">
<title>Node2&#45;&gt;Node11</title>
<g id="a_edge10_Node000002_Node000011"><a xlink:title=" ">
<path fill="none" stroke="#63b8ff" d="M489.04,-109.98C505.39,-101.57 530.63,-88.59 549.62,-78.81"/>
<polygon fill="#63b8ff" stroke="#63b8ff" points="551.35,-81.86 558.64,-74.17 548.15,-75.63 551.35,-81.86"/>
</a>
</g>
</g>
<!-- Node16 -->
<g id="Node000016" class="node">
<title>Node16</title>
<g id="a_Node000016"><a xlink:href="ematch__src_2utils_2stl_2stlTypes_8hh.html" target="_top" xlink:title=" ">
<polygon fill="white" stroke="#666666" points="124.49,-74 14.49,-74 14.49,-55 124.49,-55 124.49,-74"/>
<text text-anchor="middle" x="69.49" y="-62" font-family="Helvetica,sans-Serif" font-size="10.00">utils/stl/stlTypes.hh</text>
</a>
</g>
</g>
<!-- Node2&#45;&gt;Node16 -->
<g id="edge16_Node000002_Node000016" class="edge">
<title>Node2&#45;&gt;Node16</title>
<g id="a_edge16_Node000002_Node000016"><a xlink:title=" ">
<path fill="none" stroke="#63b8ff" d="M409.7,-110.29C343.84,-101.66 237.02,-87.66 134.84,-74.18"/>
<polygon fill="#63b8ff" stroke="#63b8ff" points="135.02,-70.67 124.65,-72.83 134.1,-77.61 135.02,-70.67"/>
</a>
</g>
</g>
<!-- Node17 -->
<g id="Node000017" class="node">
<title>Node17</title>
<g id="a_Node000017"><a xlink:href="ematch__src_2utils_2boost_2boostUtils_8hh.html" target="_top" xlink:title=" ">
<polygon fill="white" stroke="#666666" points="427.99,-74 292.99,-74 292.99,-55 427.99,-55 427.99,-74"/>
<text text-anchor="middle" x="360.49" y="-62" font-family="Helvetica,sans-Serif" font-size="10.00">utils/boost/boostUtils.hh</text>
</a>
</g>
</g>
<!-- Node2&#45;&gt;Node17 -->
<g id="edge19_Node000002_Node000017" class="edge">
<title>Node2&#45;&gt;Node17</title>
<g id="a_edge19_Node000002_Node000017"><a xlink:title=" ">
<path fill="none" stroke="#63b8ff" d="M454.5,-109.98C436.56,-101.5 408.78,-88.35 388.06,-78.54"/>
<polygon fill="#63b8ff" stroke="#63b8ff" points="389.35,-75.28 378.81,-74.17 386.36,-81.61 389.35,-75.28"/>
</a>
</g>
</g>
<!-- Node11&#45;&gt;Node4 -->
<g id="edge12_Node000011_Node000004" class="edge">
<title>Node11&#45;&gt;Node4</title>
<g id="a_edge12_Node000011_Node000004"><a xlink:title=" ">
<path fill="none" stroke="#63b8ff" d="M619.19,-54.98C671.18,-44.86 757.22,-28.09 807.51,-18.29"/>
<polygon fill="#63b8ff" stroke="#63b8ff" points="808.23,-21.72 817.37,-16.37 806.89,-14.85 808.23,-21.72"/>
</a>
</g>
</g>
<!-- Node12 -->
<g id="Node000012" class="node">
<title>Node12</title>
<g id="a_Node000012"><a xlink:title=" ">
<polygon fill="#e0e0e0" stroke="#999999" points="566.99,-19 513.99,-19 513.99,0 566.99,0 566.99,-19"/>
<text text-anchor="middle" x="540.49" y="-7" font-family="Helvetica,sans-Serif" font-size="10.00">cstdarg</text>
</a>
</g>
</g>
<!-- Node11&#45;&gt;Node12 -->
<g id="edge11_Node000011_Node000012" class="edge">
<title>Node11&#45;&gt;Node12</title>
<g id="a_edge11_Node000011_Node000012"><a xlink:title=" ">
<path fill="none" stroke="#63b8ff" d="M569.71,-54.75C564.87,-47.42 557.81,-36.73 551.85,-27.7"/>
<polygon fill="#63b8ff" stroke="#63b8ff" points="554.59,-25.5 546.16,-19.09 548.75,-29.36 554.59,-25.5"/>
</a>
</g>
</g>
<!-- Node13 -->
<g id="Node000013" class="node">
<title>Node13</title>
<g id="a_Node000013"><a xlink:title=" ">
<polygon fill="#e0e0e0" stroke="#999999" points="633.99,-19 584.99,-19 584.99,0 633.99,0 633.99,-19"/>
<text text-anchor="middle" x="609.49" y="-7" font-family="Helvetica,sans-Serif" font-size="10.00">cstdlib</text>
</a>
</g>
</g>
<!-- Node11&#45;&gt;Node13 -->
<g id="edge13_Node000011_Node000013" class="edge">
<title>Node11&#45;&gt;Node13</title>
<g id="a_edge13_Node000011_Node000013"><a xlink:title=" ">
<path fill="none" stroke="#63b8ff" d="M581.11,-54.75C585.81,-47.42 592.66,-36.73 598.46,-27.7"/>
<polygon fill="#63b8ff" stroke="#63b8ff" points="601.53,-29.4 603.98,-19.09 595.64,-25.62 601.53,-29.4"/>
</a>
</g>
</g>
<!-- Node14 -->
<g id="Node000014" class="node">
<title>Node14</title>
<g id="a_Node000014"><a xlink:title=" ">
<polygon fill="#e0e0e0" stroke="#999999" points="698.49,-19 652.49,-19 652.49,0 698.49,0 698.49,-19"/>
<text text-anchor="middle" x="675.49" y="-7" font-family="Helvetica,sans-Serif" font-size="10.00">cstdio</text>
</a>
</g>
</g>
<!-- Node11&#45;&gt;Node14 -->
<g id="edge14_Node000011_Node000014" class="edge">
<title>Node11&#45;&gt;Node14</title>
<g id="a_edge14_Node000011_Node000014"><a xlink:title=" ">
<path fill="none" stroke="#63b8ff" d="M591.56,-54.98C607.36,-46.61 631.71,-33.7 650.12,-23.95"/>
<polygon fill="#63b8ff" stroke="#63b8ff" points="651.94,-26.95 659.13,-19.17 648.66,-20.76 651.94,-26.95"/>
</a>
</g>
</g>
<!-- Node15 -->
<g id="Node000015" class="node">
<title>Node15</title>
<g id="a_Node000015"><a xlink:title=" ">
<polygon fill="#e0e0e0" stroke="#999999" points="495.49,-19 443.49,-19 443.49,0 495.49,0 495.49,-19"/>
<text text-anchor="middle" x="469.49" y="-7" font-family="Helvetica,sans-Serif" font-size="10.00">cassert</text>
</a>
</g>
</g>
<!-- Node11&#45;&gt;Node15 -->
<g id="edge15_Node000011_Node000015" class="edge">
<title>Node11&#45;&gt;Node15</title>
<g id="a_edge15_Node000011_Node000015"><a xlink:title=" ">
<path fill="none" stroke="#63b8ff" d="M558.46,-54.98C541.56,-46.54 515.43,-33.47 495.85,-23.68"/>
<polygon fill="#63b8ff" stroke="#63b8ff" points="497.34,-20.51 486.83,-19.17 494.21,-26.77 497.34,-20.51"/>
</a>
</g>
</g>
<!-- Node16&#45;&gt;Node7 -->
<g id="edge17_Node000016_Node000007" class="edge">
<title>Node16&#45;&gt;Node7</title>
<g id="a_edge17_Node000016_Node000007"><a xlink:title=" ">
<path fill="none" stroke="#63b8ff" d="M63.38,-54.75C58.21,-47.34 50.65,-36.5 44.3,-27.41"/>
<polygon fill="#63b8ff" stroke="#63b8ff" points="47.08,-25.29 38.49,-19.09 41.34,-29.29 47.08,-25.29"/>
</a>
</g>
</g>
<!-- Node16&#45;&gt;Node8 -->
<g id="edge18_Node000016_Node000008" class="edge">
<title>Node16&#45;&gt;Node8</title>
<g id="a_edge18_Node000016_Node000008"><a xlink:title=" ">
<path fill="none" stroke="#63b8ff" d="M75.44,-54.75C80.47,-47.34 87.83,-36.5 94,-27.41"/>
<polygon fill="#63b8ff" stroke="#63b8ff" points="96.93,-29.33 99.66,-19.09 91.14,-25.39 96.93,-29.33"/>
</a>
</g>
</g>
<!-- Node17&#45;&gt;Node4 -->
<g id="edge20_Node000017_Node000004" class="edge">
<title>Node17&#45;&gt;Node4</title>
<g id="a_edge20_Node000017_Node000004"><a xlink:title=" ">
<path fill="none" stroke="#63b8ff" d="M428.1,-56.03C431.27,-55.68 434.42,-55.34 437.49,-55 573,-40.17 733.72,-22.78 807.2,-14.85"/>
<polygon fill="#63b8ff" stroke="#63b8ff" points="807.83,-18.3 817.4,-13.75 807.08,-11.34 807.83,-18.3"/>
</a>
</g>
</g>
<!-- Node17&#45;&gt;Node10 -->
<g id="edge21_Node000017_Node000010" class="edge">
<title>Node17&#45;&gt;Node10</title>
<g id="a_edge21_Node000017_Node000010"><a xlink:title=" ">
<path fill="none" stroke="#63b8ff" d="M352.57,-54.75C345.65,-47.11 335.43,-35.82 327.04,-26.56"/>
<polygon fill="#63b8ff" stroke="#63b8ff" points="329.58,-24.15 320.27,-19.09 324.39,-28.85 329.58,-24.15"/>
</a>
</g>
</g>
<!-- Node18&#45;&gt;Node4 -->
<g id="edge23_Node000018_Node000004" class="edge">
<title>Node18&#45;&gt;Node4</title>
<g id="a_edge23_Node000018_Node000004"><a xlink:title=" ">
<path fill="none" stroke="#63b8ff" d="M926.73,-228.84C986.01,-226.8 1070.75,-215.32 1048.49,-165 1015.92,-91.38 927.29,-44.09 879.33,-23.09"/>
<polygon fill="#63b8ff" stroke="#63b8ff" points="880.6,-19.83 870.03,-19.12 877.86,-26.27 880.6,-19.83"/>
</a>
</g>
</g>
<!-- Node19 -->
<g id="Node000019" class="node">
<title>Node19</title>
<g id="a_Node000019"><a xlink:href="TransfacTextLine_8hh.html" target="_top" xlink:title=" ">
<polygon fill="white" stroke="#666666" points="941.99,-129 828.99,-129 828.99,-110 941.99,-110 941.99,-129"/>
<text text-anchor="middle" x="885.49" y="-117" font-family="Helvetica,sans-Serif" font-size="10.00">TransfacTextLine.hh</text>
</a>
</g>
</g>
<!-- Node18&#45;&gt;Node19 -->
<g id="edge24_Node000018_Node000019" class="edge">
<title>Node18&#45;&gt;Node19</title>
<g id="a_edge24_Node000018_Node000019"><a xlink:title=" ">
<path fill="none" stroke="#63b8ff" d="M874.47,-219.66C876.42,-202.17 880.79,-162.8 883.41,-139.27"/>
<polygon fill="#63b8ff" stroke="#63b8ff" points="886.9,-139.48 884.53,-129.16 879.95,-138.71 886.9,-139.48"/>
</a>
</g>
</g>
<!-- Node20 -->
<g id="Node000020" class="node">
<title>Node20</title>
<g id="a_Node000020"><a xlink:href="TransfacTextLabelInfo_8hh.html" target="_top" xlink:title=" ">
<polygon fill="white" stroke="#666666" points="844.99,-184 707.99,-184 707.99,-165 844.99,-165 844.99,-184"/>
<text text-anchor="middle" x="776.49" y="-172" font-family="Helvetica,sans-Serif" font-size="10.00">TransfacTextLabelInfo.hh</text>
</a>
</g>
</g>
<!-- Node18&#45;&gt;Node20 -->
<g id="edge26_Node000018_Node000020" class="edge">
<title>Node18&#45;&gt;Node20</title>
<g id="a_edge26_Node000018_Node000020"><a xlink:title=" ">
<path fill="none" stroke="#63b8ff" d="M857.91,-219.98C842.72,-211.69 819.39,-198.94 801.59,-189.22"/>
<polygon fill="#63b8ff" stroke="#63b8ff" points="802.81,-185.89 792.36,-184.17 799.46,-192.04 802.81,-185.89"/>
</a>
</g>
</g>
<!-- Node21 -->
<g id="Node000021" class="node">
<title>Node21</title>
<g id="a_Node000021"><a xlink:href="TransfacBindingFactor_8hh.html" target="_top" xlink:title=" ">
<polygon fill="white" stroke="#666666" points="1038.99,-184 901.99,-184 901.99,-165 1038.99,-165 1038.99,-184"/>
<text text-anchor="middle" x="970.49" y="-172" font-family="Helvetica,sans-Serif" font-size="10.00">TransfacBindingFactor.hh</text>
</a>
</g>
</g>
<!-- Node18&#45;&gt;Node21 -->
<g id="edge30_Node000018_Node000021" class="edge">
<title>Node18&#45;&gt;Node21</title>
<g id="a_edge30_Node000018_Node000021"><a xlink:title=" ">
<path fill="none" stroke="#63b8ff" d="M889.08,-219.98C904.26,-211.69 927.59,-198.94 945.39,-189.22"/>
<polygon fill="#63b8ff" stroke="#63b8ff" points="947.53,-192.04 954.62,-184.17 944.17,-185.89 947.53,-192.04"/>
</a>
</g>
</g>
<!-- Node19&#45;&gt;Node4 -->
<g id="edge25_Node000019_Node000004" class="edge">
<title>Node19&#45;&gt;Node4</title>
<g id="a_edge25_Node000019_Node000004"><a xlink:title=" ">
<path fill="none" stroke="#63b8ff" d="M882.38,-109.66C876.17,-92.01 862.12,-52.09 853.87,-28.64"/>
<polygon fill="#63b8ff" stroke="#63b8ff" points="857.16,-27.43 850.54,-19.16 850.56,-29.75 857.16,-27.43"/>
</a>
</g>
</g>
<!-- Node20&#45;&gt;Node2 -->
<g id="edge27_Node000020_Node000002" class="edge">
<title>Node20&#45;&gt;Node2</title>
<g id="a_edge27_Node000020_Node000002"><a xlink:title=" ">
<path fill="none" stroke="#63b8ff" d="M727.65,-164.98C674.21,-155.67 588.57,-140.74 531.43,-130.78"/>
<polygon fill="#63b8ff" stroke="#63b8ff" points="531.92,-127.31 521.46,-129.04 530.72,-134.2 531.92,-127.31"/>
</a>
</g>
</g>
<!-- Node20&#45;&gt;Node4 -->
<g id="edge29_Node000020_Node000004" class="edge">
<title>Node20&#45;&gt;Node4</title>
<g id="a_edge29_Node000020_Node000004"><a xlink:title=" ">
<path fill="none" stroke="#63b8ff" d="M780.31,-164.74C791.48,-139.09 824.28,-63.78 839.53,-28.78"/>
<polygon fill="#63b8ff" stroke="#63b8ff" points="842.87,-29.87 843.66,-19.31 836.45,-27.08 842.87,-29.87"/>
</a>
</g>
</g>
<!-- Node20&#45;&gt;Node19 -->
<g id="edge28_Node000020_Node000019" class="edge">
<title>Node20&#45;&gt;Node19</title>
<g id="a_edge28_Node000020_Node000019"><a xlink:title=" ">
<path fill="none" stroke="#63b8ff" d="M794,-164.98C811.46,-156.5 838.5,-143.35 858.66,-133.54"/>
<polygon fill="#63b8ff" stroke="#63b8ff" points="860.2,-136.69 867.66,-129.17 857.14,-130.4 860.2,-136.69"/>
</a>
</g>
</g>
<!-- Node21&#45;&gt;Node4 -->
<g id="edge31_Node000021_Node000004" class="edge">
<title>Node21&#45;&gt;Node4</title>
<g id="a_edge31_Node000021_Node000004"><a xlink:title=" ">
<path fill="none" stroke="#63b8ff" d="M969.32,-164.7C967.3,-151.88 962.3,-127.67 951.49,-110 929.63,-74.28 891.82,-42.69 868.31,-25.12"/>
<polygon fill="#63b8ff" stroke="#63b8ff" points="870.21,-22.17 860.07,-19.1 866.08,-27.83 870.21,-22.17"/>
</a>
</g>
</g>
</g>
</svg>

<g id="navigator" transform="translate(0 0)" fill="#404254">
  <rect fill="#f2f5e9" fill-opacity="0.5" stroke="#606060" stroke-width=".5" x="0" y="0" width="60" height="60"/>
  <use id="zoomplus" xlink:href="#zoomPlus" x="17" y="9" onmousedown="handleZoom(evt,'in')"/>
  <use id="zoomminus" xlink:href="#zoomMin" x="42" y="9" onmousedown="handleZoom(evt,'out')"/>
  <use id="reset" xlink:href="#resetDef" x="30" y="36" onmousedown="handleReset()"/>
   <use id="arrowup" xlink:href="#arrowUp" x="0" y="0" onmousedown="handlePan(0,-1)"/>
  <use id="arrowright" xlink:href="#arrowRight" x="0" y="0" onmousedown="handlePan(1,0)"/>
  <use id="arrowdown" xlink:href="#arrowDown" x="0" y="0" onmousedown="handlePan(0,1)"/>
  <use id="arrowleft" xlink:href="#arrowLeft" x="0" y="0" onmousedown="handlePan(-1,0)"/>
</g>
<svg viewBox="0 0 15 15" width="100%" height="30px" preserveAspectRatio="xMaxYMin meet">
 <g id="arrow_out" transform="scale(0.3 0.3)">
  <a xlink:href="TransfacReader_8cc__incl_org.svg" target="_base">
   <rect id="button" ry="5" rx="5" y="6" x="6" height="38" width="38"
        fill="#f2f5e9" fill-opacity="0.5" stroke="#606060" stroke-width="1.0"/>
   <path id="arrow"
     d="M 11.500037,31.436501 C 11.940474,20.09759 22.043105,11.32322 32.158766,21.979434 L 37.068811,17.246167 C 37.068811,17.246167 37.088388,32 37.088388,32 L 22.160133,31.978069 C 22.160133,31.978069 26.997745,27.140456 26.997745,27.140456 C 18.528582,18.264221 13.291696,25.230495 11.500037,31.436501 z"
     style="fill:#404040;"/>
  </a>
 </g>
</svg>

<style type='text/css'>
<![CDATA[
[data-mouse-over-selected='false'] { opacity: 0.7; }
[data-mouse-over-selected='true']  { opacity: 1.0; }
]]>
</style>
<script type="application/ecmascript"><![CDATA[
document.addEventListener('DOMContentLoaded', (event) => {
  highlightEdges();
  highlightAdjacentNodes();
});
]]></script>
</svg>
