<?xml version="1.0" encoding="UTF-8" standalone="no"?>
<!DOCTYPE svg PUBLIC "-//W3C//DTD SVG 1.1//EN"
 "http://www.w3.org/Graphics/SVG/1.1/DTD/svg11.dtd">
<!-- Generated by graphviz version 2.43.0 (0)
 -->
<!-- Title: ematch_src/utils/sequence/readers/transfac/TransfacReader.hh Pages: 1 -->
<svg width="1105pt" height="258pt"
 viewBox="0.00 0.00 1104.95 258.00" xmlns="http://www.w3.org/2000/svg" xmlns:xlink="http://www.w3.org/1999/xlink">
<g id="graph0" class="graph" transform="scale(1 1) rotate(0) translate(4 254)">
<title>ematch_src/utils/sequence/readers/transfac/TransfacReader.hh</title>
<!-- Node1 -->
<g id="Node000001" class="node">
<title>Node1</title>
<g id="a_Node000001"><a xlink:title=" ">
<polygon fill="#999999" stroke="#666666" points="1061.9,-250 870.9,-250 870.9,-220 1061.9,-220 1061.9,-250"/>
<text text-anchor="start" x="878.9" y="-238" font-family="Helvetica,sans-Serif" font-size="10.00">ematch_src/utils/sequence</text>
<text text-anchor="middle" x="966.4" y="-227" font-family="Helvetica,sans-Serif" font-size="10.00">/readers/transfac/TransfacReader.hh</text>
</a>
</g>
</g>
<!-- Node2 -->
<g id="Node000002" class="node">
<title>Node2</title>
<g id="a_Node000002"><a xlink:title=" ">
<polygon fill="#e0e0e0" stroke="#999999" points="894.4,-19 834.4,-19 834.4,0 894.4,0 894.4,-19"/>
<text text-anchor="middle" x="864.4" y="-7" font-family="Helvetica,sans-Serif" font-size="10.00">iostream</text>
</a>
</g>
</g>
<!-- Node1&#45;&gt;Node2 -->
<g id="edge1_Node000001_Node000002" class="edge">
<title>Node1&#45;&gt;Node2</title>
<g id="a_edge1_Node000001_Node000002"><a xlink:title=" ">
<path fill="none" stroke="#63b8ff" d="M1044.47,-220C1078,-209.82 1106.8,-192.81 1093.4,-165 1055.78,-86.9 957.13,-42.07 902.38,-22.46"/>
<polygon fill="#63b8ff" stroke="#63b8ff" points="903.29,-19.07 892.69,-19.09 900.98,-25.68 903.29,-19.07"/>
</a>
</g>
</g>
<!-- Node3 -->
<g id="Node000003" class="node">
<title>Node3</title>
<g id="a_Node000003"><a xlink:href="TransfacTextLine_8hh.html" target="_top" xlink:title=" ">
<polygon fill="white" stroke="#666666" points="977.9,-129 864.9,-129 864.9,-110 977.9,-110 977.9,-129"/>
<text text-anchor="middle" x="921.4" y="-117" font-family="Helvetica,sans-Serif" font-size="10.00">TransfacTextLine.hh</text>
</a>
</g>
</g>
<!-- Node1&#45;&gt;Node3 -->
<g id="edge2_Node000001_Node000003" class="edge">
<title>Node1&#45;&gt;Node3</title>
<g id="a_edge2_Node000001_Node000003"><a xlink:title=" ">
<path fill="none" stroke="#63b8ff" d="M956.65,-219.67C950.41,-209.96 942.54,-196.64 937.4,-184 931.51,-169.5 927.32,-152.23 924.72,-139.37"/>
<polygon fill="#63b8ff" stroke="#63b8ff" points="928.13,-138.55 922.83,-129.37 921.25,-139.85 928.13,-138.55"/>
</a>
</g>
</g>
<!-- Node4 -->
<g id="Node000004" class="node">
<title>Node4</title>
<g id="a_Node000004"><a xlink:href="TransfacTextLabelInfo_8hh.html" target="_top" xlink:title=" ">
<polygon fill="white" stroke="#666666" points="889.9,-184 752.9,-184 752.9,-165 889.9,-165 889.9,-184"/>
<text text-anchor="middle" x="821.4" y="-172" font-family="Helvetica,sans-Serif" font-size="10.00">TransfacTextLabelInfo.hh</text>
</a>
</g>
</g>
<!-- Node1&#45;&gt;Node4 -->
<g id="edge4_Node000001_Node000004" class="edge">
<title>Node1&#45;&gt;Node4</title>
<g id="a_edge4_Node000001_Node000004"><a xlink:title=" ">
<path fill="none" stroke="#63b8ff" d="M931.67,-219.99C907.48,-210.23 875.5,-197.33 852.22,-187.93"/>
<polygon fill="#63b8ff" stroke="#63b8ff" points="853.4,-184.63 842.82,-184.14 850.78,-191.13 853.4,-184.63"/>
</a>
</g>
</g>
<!-- Node20 -->
<g id="Node000020" class="node">
<title>Node20</title>
<g id="a_Node000020"><a xlink:href="TransfacBindingFactor_8hh.html" target="_top" xlink:title=" ">
<polygon fill="white" stroke="#666666" points="1083.9,-184 946.9,-184 946.9,-165 1083.9,-165 1083.9,-184"/>
<text text-anchor="middle" x="1015.4" y="-172" font-family="Helvetica,sans-Serif" font-size="10.00">TransfacBindingFactor.hh</text>
</a>
</g>
</g>
<!-- Node1&#45;&gt;Node20 -->
<g id="edge28_Node000001_Node000020" class="edge">
<title>Node1&#45;&gt;Node20</title>
<g id="a_edge28_Node000001_Node000020"><a xlink:title=" ">
<path fill="none" stroke="#63b8ff" d="M978.26,-219.84C985.3,-211.43 994.26,-200.74 1001.62,-191.96"/>
<polygon fill="#63b8ff" stroke="#63b8ff" points="1004.32,-194.18 1008.06,-184.27 998.96,-189.68 1004.32,-194.18"/>
</a>
</g>
</g>
<!-- Node3&#45;&gt;Node2 -->
<g id="edge3_Node000003_Node000002" class="edge">
<title>Node3&#45;&gt;Node2</title>
<g id="a_edge3_Node000003_Node000002"><a xlink:title=" ">
<path fill="none" stroke="#63b8ff" d="M916.74,-109.66C907.34,-91.85 885.97,-51.37 873.64,-28.01"/>
<polygon fill="#63b8ff" stroke="#63b8ff" points="876.73,-26.37 868.97,-19.16 870.54,-29.64 876.73,-26.37"/>
</a>
</g>
</g>
<!-- Node4&#45;&gt;Node2 -->
<g id="edge27_Node000004_Node000002" class="edge">
<title>Node4&#45;&gt;Node2</title>
<g id="a_edge27_Node000004_Node000002"><a xlink:title=" ">
<path fill="none" stroke="#63b8ff" d="M823.71,-164.74C830.45,-139.2 850.17,-64.43 859.46,-29.23"/>
<polygon fill="#63b8ff" stroke="#63b8ff" points="862.91,-29.87 862.08,-19.31 856.14,-28.08 862.91,-29.87"/>
</a>
</g>
</g>
<!-- Node4&#45;&gt;Node3 -->
<g id="edge26_Node000004_Node000003" class="edge">
<title>Node4&#45;&gt;Node3</title>
<g id="a_edge26_Node000004_Node000003"><a xlink:title=" ">
<path fill="none" stroke="#63b8ff" d="M837.47,-164.98C853.27,-156.61 877.62,-143.7 896.03,-133.95"/>
<polygon fill="#63b8ff" stroke="#63b8ff" points="897.85,-136.95 905.04,-129.17 894.57,-130.76 897.85,-136.95"/>
</a>
</g>
</g>
<!-- Node5 -->
<g id="Node000005" class="node">
<title>Node5</title>
<g id="a_Node000005"><a xlink:href="ematch__src_2utils_2perlish_2perlish_8hh.html" target="_top" xlink:title=" ">
<polygon fill="white" stroke="#666666" points="452.9,-129 327.9,-129 327.9,-110 452.9,-110 452.9,-129"/>
<text text-anchor="middle" x="390.4" y="-117" font-family="Helvetica,sans-Serif" font-size="10.00">utils/perlish/perlish.hh</text>
</a>
</g>
</g>
<!-- Node4&#45;&gt;Node5 -->
<g id="edge5_Node000004_Node000005" class="edge">
<title>Node4&#45;&gt;Node5</title>
<g id="a_edge5_Node000004_Node000005"><a xlink:title=" ">
<path fill="none" stroke="#63b8ff" d="M752.63,-165.04C673.43,-155.3 543.88,-139.37 463.07,-129.44"/>
<polygon fill="#63b8ff" stroke="#63b8ff" points="463.33,-125.94 452.97,-128.19 462.47,-132.89 463.33,-125.94"/>
</a>
</g>
</g>
<!-- Node5&#45;&gt;Node2 -->
<g id="edge7_Node000005_Node000002" class="edge">
<title>Node5&#45;&gt;Node2</title>
<g id="a_edge7_Node000005_Node000002"><a xlink:title=" ">
<path fill="none" stroke="#63b8ff" d="M453.14,-116.02C550.11,-111.43 731.37,-99.66 790.4,-74 814.77,-63.41 837.07,-41.94 850.68,-26.91"/>
<polygon fill="#63b8ff" stroke="#63b8ff" points="853.36,-29.16 857.31,-19.33 848.09,-24.56 853.36,-29.16"/>
</a>
</g>
</g>
<!-- Node6 -->
<g id="Node000006" class="node">
<title>Node6</title>
<g id="a_Node000006"><a xlink:title=" ">
<polygon fill="#e0e0e0" stroke="#999999" points="233.9,-74 180.9,-74 180.9,-55 233.9,-55 233.9,-74"/>
<text text-anchor="middle" x="207.4" y="-62" font-family="Helvetica,sans-Serif" font-size="10.00">ctype.h</text>
</a>
</g>
</g>
<!-- Node5&#45;&gt;Node6 -->
<g id="edge6_Node000005_Node000006" class="edge">
<title>Node5&#45;&gt;Node6</title>
<g id="a_edge6_Node000005_Node000006"><a xlink:title=" ">
<path fill="none" stroke="#63b8ff" d="M361,-109.98C329.09,-100.74 278.1,-85.98 243.72,-76.02"/>
<polygon fill="#63b8ff" stroke="#63b8ff" points="244.63,-72.64 234.05,-73.22 242.68,-79.36 244.63,-72.64"/>
</a>
</g>
</g>
<!-- Node7 -->
<g id="Node000007" class="node">
<title>Node7</title>
<g id="a_Node000007"><a xlink:title=" ">
<polygon fill="#e0e0e0" stroke="#999999" points="306.9,-74 251.9,-74 251.9,-55 306.9,-55 306.9,-74"/>
<text text-anchor="middle" x="279.4" y="-62" font-family="Helvetica,sans-Serif" font-size="10.00">fstream</text>
</a>
</g>
</g>
<!-- Node5&#45;&gt;Node7 -->
<g id="edge8_Node000005_Node000007" class="edge">
<title>Node5&#45;&gt;Node7</title>
<g id="a_edge8_Node000005_Node000007"><a xlink:title=" ">
<path fill="none" stroke="#63b8ff" d="M372.57,-109.98C354.79,-101.5 327.26,-88.35 306.72,-78.54"/>
<polygon fill="#63b8ff" stroke="#63b8ff" points="308.09,-75.32 297.56,-74.17 305.08,-81.64 308.09,-75.32"/>
</a>
</g>
</g>
<!-- Node8 -->
<g id="Node000008" class="node">
<title>Node8</title>
<g id="a_Node000008"><a xlink:title=" ">
<polygon fill="#e0e0e0" stroke="#999999" points="381.4,-74 325.4,-74 325.4,-55 381.4,-55 381.4,-74"/>
<text text-anchor="middle" x="353.4" y="-62" font-family="Helvetica,sans-Serif" font-size="10.00">sstream</text>
</a>
</g>
</g>
<!-- Node5&#45;&gt;Node8 -->
<g id="edge9_Node000005_Node000008" class="edge">
<title>Node5&#45;&gt;Node8</title>
<g id="a_edge9_Node000005_Node000008"><a xlink:title=" ">
<path fill="none" stroke="#63b8ff" d="M384.29,-109.75C379.12,-102.34 371.56,-91.5 365.21,-82.41"/>
<polygon fill="#63b8ff" stroke="#63b8ff" points="367.99,-80.29 359.4,-74.09 362.25,-84.29 367.99,-80.29"/>
</a>
</g>
</g>
<!-- Node9 -->
<g id="Node000009" class="node">
<title>Node9</title>
<g id="a_Node000009"><a xlink:title=" ">
<polygon fill="#e0e0e0" stroke="#999999" points="54.4,-19 10.4,-19 10.4,0 54.4,0 54.4,-19"/>
<text text-anchor="middle" x="32.4" y="-7" font-family="Helvetica,sans-Serif" font-size="10.00">string</text>
</a>
</g>
</g>
<!-- Node5&#45;&gt;Node9 -->
<g id="edge10_Node000005_Node000009" class="edge">
<title>Node5&#45;&gt;Node9</title>
<g id="a_edge10_Node000005_Node000009"><a xlink:title=" ">
<path fill="none" stroke="#63b8ff" d="M327.79,-115.75C224.21,-110.54 26.44,-97.61 5.4,-74 -6.61,-60.52 4.88,-40.9 16.36,-27.05"/>
<polygon fill="#63b8ff" stroke="#63b8ff" points="19.26,-29.06 23.3,-19.27 14.03,-24.4 19.26,-29.06"/>
</a>
</g>
</g>
<!-- Node10 -->
<g id="Node000010" class="node">
<title>Node10</title>
<g id="a_Node000010"><a xlink:title=" ">
<polygon fill="#e0e0e0" stroke="#999999" points="128.9,-19 81.9,-19 81.9,0 128.9,0 128.9,-19"/>
<text text-anchor="middle" x="105.4" y="-7" font-family="Helvetica,sans-Serif" font-size="10.00">vector</text>
</a>
</g>
</g>
<!-- Node5&#45;&gt;Node10 -->
<g id="edge11_Node000005_Node000010" class="edge">
<title>Node5&#45;&gt;Node10</title>
<g id="a_edge11_Node000005_Node000010"><a xlink:title=" ">
<path fill="none" stroke="#63b8ff" d="M327.82,-115.12C282.23,-110.49 220.19,-99.6 171.4,-74 149.71,-62.62 130.23,-41.94 118.15,-27.28"/>
<polygon fill="#63b8ff" stroke="#63b8ff" points="120.59,-24.72 111.63,-19.06 115.11,-29.07 120.59,-24.72"/>
</a>
</g>
</g>
<!-- Node11 -->
<g id="Node000011" class="node">
<title>Node11</title>
<g id="a_Node000011"><a xlink:title=" ">
<polygon fill="#e0e0e0" stroke="#999999" points="455.4,-74 399.4,-74 399.4,-55 455.4,-55 455.4,-74"/>
<text text-anchor="middle" x="427.4" y="-62" font-family="Helvetica,sans-Serif" font-size="10.00">assert.h</text>
</a>
</g>
</g>
<!-- Node5&#45;&gt;Node11 -->
<g id="edge12_Node000005_Node000011" class="edge">
<title>Node5&#45;&gt;Node11</title>
<g id="a_edge12_Node000005_Node000011"><a xlink:title=" ">
<path fill="none" stroke="#63b8ff" d="M396.51,-109.75C401.68,-102.34 409.25,-91.5 415.6,-82.41"/>
<polygon fill="#63b8ff" stroke="#63b8ff" points="418.55,-84.29 421.41,-74.09 412.81,-80.29 418.55,-84.29"/>
</a>
</g>
</g>
<!-- Node12 -->
<g id="Node000012" class="node">
<title>Node12</title>
<g id="a_Node000012"><a xlink:title=" ">
<polygon fill="#e0e0e0" stroke="#999999" points="536.9,-19 441.9,-19 441.9,0 536.9,0 536.9,-19"/>
<text text-anchor="middle" x="489.4" y="-7" font-family="Helvetica,sans-Serif" font-size="10.00">boost/regex.hpp</text>
</a>
</g>
</g>
<!-- Node5&#45;&gt;Node12 -->
<g id="edge13_Node000005_Node000012" class="edge">
<title>Node5&#45;&gt;Node12</title>
<g id="a_edge13_Node000005_Node000012"><a xlink:title=" ">
<path fill="none" stroke="#63b8ff" d="M412.49,-109.86C428.79,-102.5 450.46,-90.48 464.4,-74 475.39,-61.01 481.92,-42.61 485.53,-28.96"/>
<polygon fill="#63b8ff" stroke="#63b8ff" points="488.94,-29.76 487.83,-19.22 482.13,-28.15 488.94,-29.76"/>
</a>
</g>
</g>
<!-- Node13 -->
<g id="Node000013" class="node">
<title>Node13</title>
<g id="a_Node000013"><a xlink:href="ematch__src_2utils_2gdb_2gdbUtils_8hh.html" target="_top" xlink:title=" ">
<polygon fill="white" stroke="#666666" points="781.9,-74 664.9,-74 664.9,-55 781.9,-55 781.9,-74"/>
<text text-anchor="middle" x="723.4" y="-62" font-family="Helvetica,sans-Serif" font-size="10.00">utils/gdb/gdbUtils.hh</text>
</a>
</g>
</g>
<!-- Node5&#45;&gt;Node13 -->
<g id="edge14_Node000005_Node000013" class="edge">
<title>Node5&#45;&gt;Node13</title>
<g id="a_edge14_Node000005_Node000013"><a xlink:title=" ">
<path fill="none" stroke="#63b8ff" d="M443.9,-109.98C502.68,-100.63 597.03,-85.61 659.61,-75.65"/>
<polygon fill="#63b8ff" stroke="#63b8ff" points="660.43,-79.07 669.76,-74.04 659.33,-72.15 660.43,-79.07"/>
</a>
</g>
</g>
<!-- Node18 -->
<g id="Node000018" class="node">
<title>Node18</title>
<g id="a_Node000018"><a xlink:href="ematch__src_2utils_2stl_2stlTypes_8hh.html" target="_top" xlink:title=" ">
<polygon fill="white" stroke="#666666" points="124.4,-74 14.4,-74 14.4,-55 124.4,-55 124.4,-74"/>
<text text-anchor="middle" x="69.4" y="-62" font-family="Helvetica,sans-Serif" font-size="10.00">utils/stl/stlTypes.hh</text>
</a>
</g>
</g>
<!-- Node5&#45;&gt;Node18 -->
<g id="edge20_Node000005_Node000018" class="edge">
<title>Node5&#45;&gt;Node18</title>
<g id="a_edge20_Node000005_Node000018"><a xlink:title=" ">
<path fill="none" stroke="#63b8ff" d="M338.83,-109.98C282.29,-100.65 191.59,-85.67 131.27,-75.71"/>
<polygon fill="#63b8ff" stroke="#63b8ff" points="131.55,-72.21 121.11,-74.04 130.41,-79.12 131.55,-72.21"/>
</a>
</g>
</g>
<!-- Node19 -->
<g id="Node000019" class="node">
<title>Node19</title>
<g id="a_Node000019"><a xlink:href="ematch__src_2utils_2boost_2boostUtils_8hh.html" target="_top" xlink:title=" ">
<polygon fill="white" stroke="#666666" points="646.9,-74 511.9,-74 511.9,-55 646.9,-55 646.9,-74"/>
<text text-anchor="middle" x="579.4" y="-62" font-family="Helvetica,sans-Serif" font-size="10.00">utils/boost/boostUtils.hh</text>
</a>
</g>
</g>
<!-- Node5&#45;&gt;Node19 -->
<g id="edge23_Node000005_Node000019" class="edge">
<title>Node5&#45;&gt;Node19</title>
<g id="a_edge23_Node000005_Node000019"><a xlink:title=" ">
<path fill="none" stroke="#63b8ff" d="M420.77,-109.98C452.77,-101.01 503.36,-86.82 538.78,-76.89"/>
<polygon fill="#63b8ff" stroke="#63b8ff" points="540.11,-80.15 548.8,-74.08 538.22,-73.41 540.11,-80.15"/>
</a>
</g>
</g>
<!-- Node13&#45;&gt;Node2 -->
<g id="edge16_Node000013_Node000002" class="edge">
<title>Node13&#45;&gt;Node2</title>
<g id="a_edge16_Node000013_Node000002"><a xlink:title=" ">
<path fill="none" stroke="#63b8ff" d="M746.06,-54.98C769.25,-46.27 805.52,-32.63 831.8,-22.75"/>
<polygon fill="#63b8ff" stroke="#63b8ff" points="833.21,-25.97 841.34,-19.17 830.74,-19.41 833.21,-25.97"/>
</a>
</g>
</g>
<!-- Node14 -->
<g id="Node000014" class="node">
<title>Node14</title>
<g id="a_Node000014"><a xlink:title=" ">
<polygon fill="#e0e0e0" stroke="#999999" points="614.9,-19 561.9,-19 561.9,0 614.9,0 614.9,-19"/>
<text text-anchor="middle" x="588.4" y="-7" font-family="Helvetica,sans-Serif" font-size="10.00">cstdarg</text>
</a>
</g>
</g>
<!-- Node13&#45;&gt;Node14 -->
<g id="edge15_Node000013_Node000014" class="edge">
<title>Node13&#45;&gt;Node14</title>
<g id="a_edge15_Node000013_Node000014"><a xlink:title=" ">
<path fill="none" stroke="#63b8ff" d="M701.71,-54.98C679.6,-46.3 645.08,-32.75 619.95,-22.88"/>
<polygon fill="#63b8ff" stroke="#63b8ff" points="621.07,-19.57 610.49,-19.17 618.52,-26.08 621.07,-19.57"/>
</a>
</g>
</g>
<!-- Node15 -->
<g id="Node000015" class="node">
<title>Node15</title>
<g id="a_Node000015"><a xlink:title=" ">
<polygon fill="#e0e0e0" stroke="#999999" points="681.9,-19 632.9,-19 632.9,0 681.9,0 681.9,-19"/>
<text text-anchor="middle" x="657.4" y="-7" font-family="Helvetica,sans-Serif" font-size="10.00">cstdlib</text>
</a>
</g>
</g>
<!-- Node13&#45;&gt;Node15 -->
<g id="edge17_Node000013_Node000015" class="edge">
<title>Node13&#45;&gt;Node15</title>
<g id="a_edge17_Node000013_Node000015"><a xlink:title=" ">
<path fill="none" stroke="#63b8ff" d="M712.8,-54.98C702.95,-47.07 688.05,-35.11 676.19,-25.58"/>
<polygon fill="#63b8ff" stroke="#63b8ff" points="678.19,-22.7 668.2,-19.17 673.8,-28.16 678.19,-22.7"/>
</a>
</g>
</g>
<!-- Node16 -->
<g id="Node000016" class="node">
<title>Node16</title>
<g id="a_Node000016"><a xlink:title=" ">
<polygon fill="#e0e0e0" stroke="#999999" points="746.4,-19 700.4,-19 700.4,0 746.4,0 746.4,-19"/>
<text text-anchor="middle" x="723.4" y="-7" font-family="Helvetica,sans-Serif" font-size="10.00">cstdio</text>
</a>
</g>
</g>
<!-- Node13&#45;&gt;Node16 -->
<g id="edge18_Node000013_Node000016" class="edge">
<title>Node13&#45;&gt;Node16</title>
<g id="a_edge18_Node000013_Node000016"><a xlink:title=" ">
<path fill="none" stroke="#63b8ff" d="M723.4,-54.75C723.4,-47.8 723.4,-37.85 723.4,-29.13"/>
<polygon fill="#63b8ff" stroke="#63b8ff" points="726.9,-29.09 723.4,-19.09 719.9,-29.09 726.9,-29.09"/>
</a>
</g>
</g>
<!-- Node17 -->
<g id="Node000017" class="node">
<title>Node17</title>
<g id="a_Node000017"><a xlink:title=" ">
<polygon fill="#e0e0e0" stroke="#999999" points="816.4,-19 764.4,-19 764.4,0 816.4,0 816.4,-19"/>
<text text-anchor="middle" x="790.4" y="-7" font-family="Helvetica,sans-Serif" font-size="10.00">cassert</text>
</a>
</g>
</g>
<!-- Node13&#45;&gt;Node17 -->
<g id="edge19_Node000013_Node000017" class="edge">
<title>Node13&#45;&gt;Node17</title>
<g id="a_edge19_Node000013_Node000017"><a xlink:title=" ">
<path fill="none" stroke="#63b8ff" d="M734.17,-54.98C744.17,-47.07 759.29,-35.11 771.33,-25.58"/>
<polygon fill="#63b8ff" stroke="#63b8ff" points="773.77,-28.12 779.44,-19.17 769.43,-22.63 773.77,-28.12"/>
</a>
</g>
</g>
<!-- Node18&#45;&gt;Node9 -->
<g id="edge21_Node000018_Node000009" class="edge">
<title>Node18&#45;&gt;Node9</title>
<g id="a_edge21_Node000018_Node000009"><a xlink:title=" ">
<path fill="none" stroke="#63b8ff" d="M63.29,-54.75C58.12,-47.34 50.56,-36.5 44.21,-27.41"/>
<polygon fill="#63b8ff" stroke="#63b8ff" points="46.99,-25.29 38.4,-19.09 41.25,-29.29 46.99,-25.29"/>
</a>
</g>
</g>
<!-- Node18&#45;&gt;Node10 -->
<g id="edge22_Node000018_Node000010" class="edge">
<title>Node18&#45;&gt;Node10</title>
<g id="a_edge22_Node000018_Node000010"><a xlink:title=" ">
<path fill="none" stroke="#63b8ff" d="M75.35,-54.75C80.38,-47.34 87.74,-36.5 93.92,-27.41"/>
<polygon fill="#63b8ff" stroke="#63b8ff" points="96.84,-29.33 99.57,-19.09 91.05,-25.39 96.84,-29.33"/>
</a>
</g>
</g>
<!-- Node19&#45;&gt;Node2 -->
<g id="edge24_Node000019_Node000002" class="edge">
<title>Node19&#45;&gt;Node2</title>
<g id="a_edge24_Node000019_Node000002"><a xlink:title=" ">
<path fill="none" stroke="#63b8ff" d="M629.44,-54.99C677.08,-46.76 751.03,-33.68 824.32,-19.16"/>
<polygon fill="#63b8ff" stroke="#63b8ff" points="825.07,-22.58 834.19,-17.2 823.7,-15.72 825.07,-22.58"/>
</a>
</g>
</g>
<!-- Node19&#45;&gt;Node12 -->
<g id="edge25_Node000019_Node000012" class="edge">
<title>Node19&#45;&gt;Node12</title>
<g id="a_edge25_Node000019_Node000012"><a xlink:title=" ">
<path fill="none" stroke="#63b8ff" d="M564.94,-54.98C550.99,-46.77 529.61,-34.18 513.15,-24.49"/>
<polygon fill="#63b8ff" stroke="#63b8ff" points="514.52,-21.23 504.13,-19.17 510.97,-27.26 514.52,-21.23"/>
</a>
</g>
</g>
<!-- Node20&#45;&gt;Node2 -->
<g id="edge29_Node000020_Node000002" class="edge">
<title>Node20&#45;&gt;Node2</title>
<g id="a_edge29_Node000020_Node000002"><a xlink:title=" ">
<path fill="none" stroke="#63b8ff" d="M1012.78,-164.6C1008.66,-151.65 999.73,-127.27 986.4,-110 958.31,-73.62 914.48,-42.1 887.71,-24.75"/>
<polygon fill="#63b8ff" stroke="#63b8ff" points="889.32,-21.63 879.01,-19.22 885.57,-27.54 889.32,-21.63"/>
</a>
</g>
</g>
</g>
</svg>
