<?xml version="1.0" encoding="UTF-8" standalone="no"?>
<!DOCTYPE svg PUBLIC "-//W3C//DTD SVG 1.1//EN"
 "http://www.w3.org/Graphics/SVG/1.1/DTD/svg11.dtd">
<!-- Generated by graphviz version 2.43.0 (0)
 -->
<!-- Title: isnan Pages: 1 -->
<svg width="229pt" height="101pt"
 viewBox="0.00 0.00 229.00 101.00" xmlns="http://www.w3.org/2000/svg" xmlns:xlink="http://www.w3.org/1999/xlink">
<g id="graph0" class="graph" transform="scale(1 1) rotate(0) translate(4 97)">
<title>isnan</title>
<!-- Node1 -->
<g id="Node000001" class="node">
<title>Node1</title>
<g id="a_Node000001"><a xlink:title=" ">
<polygon fill="#999999" stroke="#666666" points="221,-56 178,-56 178,-37 221,-37 221,-56"/>
<text text-anchor="middle" x="199.5" y="-44" font-family="Helvetica,sans-Serif" font-size="10.00">isnan</text>
</a>
</g>
</g>
<!-- Node2 -->
<g id="Node000002" class="node">
<title>Node2</title>
<g id="a_Node000002"><a xlink:href="EstimateTrueCount_8cc.html#a517c5941a291f7638e647c2598e62590" target="_top" xlink:title=" ">
<polygon fill="white" stroke="#666666" points="130,-93 89,-93 89,-74 130,-74 130,-93"/>
<text text-anchor="middle" x="109.5" y="-81" font-family="Helvetica,sans-Serif" font-size="10.00">main</text>
</a>
</g>
</g>
<!-- Node1&#45;&gt;Node2 -->
<g id="edge1_Node000001_Node000002" class="edge">
<title>Node1&#45;&gt;Node2</title>
<g id="a_edge1_Node000001_Node000002"><a xlink:title=" ">
<path fill="none" stroke="#63b8ff" d="M168.42,-59.15C155.83,-64.44 141.53,-70.45 130.3,-75.18"/>
<polygon fill="#63b8ff" stroke="#63b8ff" points="169.78,-62.37 177.65,-55.27 167.07,-55.92 169.78,-62.37"/>
</a>
</g>
</g>
<!-- Node3 -->
<g id="Node000003" class="node">
<title>Node3</title>
<g id="a_Node000003"><a xlink:href="namespacecbrc.html#a019bde704dc9ba93b64688ceb9e9bb37" target="_top" xlink:title=" ">
<polygon fill="white" stroke="#666666" points="142,-56 77,-56 77,-37 142,-37 142,-56"/>
<text text-anchor="middle" x="109.5" y="-44" font-family="Helvetica,sans-Serif" font-size="10.00">cbrc::TtoP</text>
</a>
</g>
</g>
<!-- Node1&#45;&gt;Node3 -->
<g id="edge2_Node000001_Node000003" class="edge">
<title>Node1&#45;&gt;Node3</title>
<g id="a_edge2_Node000001_Node000003"><a xlink:title=" ">
<path fill="none" stroke="#63b8ff" d="M167.39,-46.5C159.23,-46.5 150.42,-46.5 142.22,-46.5"/>
<polygon fill="#63b8ff" stroke="#63b8ff" points="167.65,-50 177.65,-46.5 167.65,-43 167.65,-50"/>
</a>
</g>
</g>
<!-- Node5 -->
<g id="Node000005" class="node">
<title>Node5</title>
<g id="a_Node000005"><a xlink:href="namespacecbrc.html#a4f2f63efecc215fb8d55100a45541075" target="_top" xlink:title=" ">
<polygon fill="white" stroke="#666666" points="142,-19 77,-19 77,0 142,0 142,-19"/>
<text text-anchor="middle" x="109.5" y="-7" font-family="Helvetica,sans-Serif" font-size="10.00">cbrc::TtoP</text>
</a>
</g>
</g>
<!-- Node1&#45;&gt;Node5 -->
<g id="edge4_Node000001_Node000005" class="edge">
<title>Node1&#45;&gt;Node5</title>
<g id="a_edge4_Node000001_Node000005"><a xlink:title=" ">
<path fill="none" stroke="#63b8ff" d="M168.42,-33.85C156.94,-29.03 144.06,-23.61 133.37,-19.11"/>
<polygon fill="#63b8ff" stroke="#63b8ff" points="167.07,-37.08 177.65,-37.73 169.78,-30.63 167.07,-37.08"/>
</a>
</g>
</g>
<!-- Node4 -->
<g id="Node000004" class="node">
<title>Node4</title>
<g id="a_Node000004"><a xlink:href="testTtable-gmp_8cc.html#a3c04138a5bfe5d72780bb7e82a18e627" target="_top" xlink:title=" ">
<polygon fill="white" stroke="#666666" points="41,-56 0,-56 0,-37 41,-37 41,-56"/>
<text text-anchor="middle" x="20.5" y="-44" font-family="Helvetica,sans-Serif" font-size="10.00">main</text>
</a>
</g>
</g>
<!-- Node3&#45;&gt;Node4 -->
<g id="edge3_Node000003_Node000004" class="edge">
<title>Node3&#45;&gt;Node4</title>
<g id="a_edge3_Node000003_Node000004"><a xlink:title=" ">
<path fill="none" stroke="#63b8ff" d="M66.32,-46.5C57.47,-46.5 48.54,-46.5 41,-46.5"/>
<polygon fill="#63b8ff" stroke="#63b8ff" points="66.6,-50 76.6,-46.5 66.6,-43 66.6,-50"/>
</a>
</g>
</g>
</g>
</svg>
