<?xml version="1.0" encoding="UTF-8" standalone="no"?>
<!DOCTYPE svg PUBLIC "-//W3C//DTD SVG 1.1//EN"
 "http://www.w3.org/Graphics/SVG/1.1/DTD/svg11.dtd">
<!-- Generated by graphviz version 2.43.0 (0)
 -->
<!-- Title: ematch_src/utils/graph/MatrixGraph.cc Pages: 1 -->
<svg width="1410pt" height="401pt"
 viewBox="0.00 0.00 1410.00 401.00" xmlns="http://www.w3.org/2000/svg" xmlns:xlink="http://www.w3.org/1999/xlink">
<g id="graph0" class="graph" transform="scale(1 1) rotate(0) translate(4 397)">
<title>ematch_src/utils/graph/MatrixGraph.cc</title>
<!-- Node1 -->
<g id="Node000001" class="node">
<title>Node1</title>
<g id="a_Node000001"><a xlink:title=" ">
<polygon fill="#999999" stroke="#666666" points="1211,-393 1083,-393 1083,-363 1211,-363 1211,-393"/>
<text text-anchor="start" x="1091" y="-381" font-family="Helvetica,sans-Serif" font-size="10.00">ematch_src/utils/graph</text>
<text text-anchor="middle" x="1147" y="-370" font-family="Helvetica,sans-Serif" font-size="10.00">/MatrixGraph.cc</text>
</a>
</g>
</g>
<!-- Node2 -->
<g id="Node000002" class="node">
<title>Node2</title>
<g id="a_Node000002"><a xlink:title=" ">
<polygon fill="#e0e0e0" stroke="#999999" points="98,-19 54,-19 54,0 98,0 98,-19"/>
<text text-anchor="middle" x="76" y="-7" font-family="Helvetica,sans-Serif" font-size="10.00">string</text>
</a>
</g>
</g>
<!-- Node1&#45;&gt;Node2 -->
<g id="edge1_Node000001_Node000002" class="edge">
<title>Node1&#45;&gt;Node2</title>
<g id="a_edge1_Node000001_Node000002"><a xlink:title=" ">
<path fill="none" stroke="#63b8ff" d="M1082.87,-376.83C841.32,-375.34 0,-362.29 0,-252.5 0,-252.5 0,-252.5 0,-124 0,-83.03 34.62,-45.66 57.13,-25.69"/>
<polygon fill="#63b8ff" stroke="#63b8ff" points="59.46,-28.31 64.79,-19.15 54.91,-22.99 59.46,-28.31"/>
</a>
</g>
</g>
<!-- Node3 -->
<g id="Node000003" class="node">
<title>Node3</title>
<g id="a_Node000003"><a xlink:title=" ">
<polygon fill="#e0e0e0" stroke="#999999" points="1299.5,-19 1252.5,-19 1252.5,0 1299.5,0 1299.5,-19"/>
<text text-anchor="middle" x="1276" y="-7" font-family="Helvetica,sans-Serif" font-size="10.00">vector</text>
</a>
</g>
</g>
<!-- Node1&#45;&gt;Node3 -->
<g id="edge2_Node000001_Node000003" class="edge">
<title>Node1&#45;&gt;Node3</title>
<g id="a_edge2_Node000001_Node000003"><a xlink:title=" ">
<path fill="none" stroke="#63b8ff" d="M1211.02,-372.99C1286.55,-364.39 1402,-337.36 1402,-252.5 1402,-252.5 1402,-252.5 1402,-124 1402,-73.73 1345.95,-40.03 1308.62,-23.15"/>
<polygon fill="#63b8ff" stroke="#63b8ff" points="1309.68,-19.8 1299.11,-19.03 1306.89,-26.22 1309.68,-19.8"/>
</a>
</g>
</g>
<!-- Node4 -->
<g id="Node000004" class="node">
<title>Node4</title>
<g id="a_Node000004"><a xlink:title=" ">
<polygon fill="#e0e0e0" stroke="#999999" points="1006,-19 946,-19 946,0 1006,0 1006,-19"/>
<text text-anchor="middle" x="976" y="-7" font-family="Helvetica,sans-Serif" font-size="10.00">iostream</text>
</a>
</g>
</g>
<!-- Node1&#45;&gt;Node4 -->
<g id="edge3_Node000001_Node000004" class="edge">
<title>Node1&#45;&gt;Node4</title>
<g id="a_edge3_Node000001_Node000004"><a xlink:title=" ">
<path fill="none" stroke="#63b8ff" d="M1142.78,-362.8C1128.64,-316.39 1080.06,-165.87 1013,-55 1006.9,-44.92 998.63,-34.74 991.45,-26.66"/>
<polygon fill="#63b8ff" stroke="#63b8ff" points="993.85,-24.1 984.5,-19.1 988.69,-28.83 993.85,-24.1"/>
</a>
</g>
</g>
<!-- Node5 -->
<g id="Node000005" class="node">
<title>Node5</title>
<g id="a_Node000005"><a xlink:title=" ">
<polygon fill="#e0e0e0" stroke="#999999" points="1300.5,-327 1175.5,-327 1175.5,-308 1300.5,-308 1300.5,-327"/>
<text text-anchor="middle" x="1238" y="-315" font-family="Helvetica,sans-Serif" font-size="10.00">boost/lexical_cast.hpp</text>
</a>
</g>
</g>
<!-- Node1&#45;&gt;Node5 -->
<g id="edge4_Node000001_Node000005" class="edge">
<title>Node1&#45;&gt;Node5</title>
<g id="a_edge4_Node000001_Node000005"><a xlink:title=" ">
<path fill="none" stroke="#63b8ff" d="M1169.03,-362.84C1183.27,-353.68 1201.73,-341.82 1215.97,-332.66"/>
<polygon fill="#63b8ff" stroke="#63b8ff" points="1218.11,-335.45 1224.63,-327.09 1214.33,-329.56 1218.11,-335.45"/>
</a>
</g>
</g>
<!-- Node6 -->
<g id="Node000006" class="node">
<title>Node6</title>
<g id="a_Node000006"><a xlink:href="utils_2graph_2MatrixGraph_8hh.html" target="_top" xlink:title=" ">
<polygon fill="white" stroke="#666666" points="1079,-327 987,-327 987,-308 1079,-308 1079,-327"/>
<text text-anchor="middle" x="1033" y="-315" font-family="Helvetica,sans-Serif" font-size="10.00">MatrixGraph.hh</text>
</a>
</g>
</g>
<!-- Node1&#45;&gt;Node6 -->
<g id="edge5_Node000001_Node000006" class="edge">
<title>Node1&#45;&gt;Node6</title>
<g id="a_edge5_Node000001_Node000006"><a xlink:title=" ">
<path fill="none" stroke="#63b8ff" d="M1119.69,-362.99C1101.35,-353.58 1077.32,-341.24 1059.21,-331.95"/>
<polygon fill="#63b8ff" stroke="#63b8ff" points="1060.33,-328.59 1049.84,-327.14 1057.13,-334.82 1060.33,-328.59"/>
</a>
</g>
</g>
<!-- Node7 -->
<g id="Node000007" class="node">
<title>Node7</title>
<g id="a_Node000007"><a xlink:href="utils_2graph_2Graph_8hh.html" target="_top" xlink:title=" ">
<polygon fill="white" stroke="#666666" points="1260,-134.5 1144,-134.5 1144,-115.5 1260,-115.5 1260,-134.5"/>
<text text-anchor="middle" x="1202" y="-122.5" font-family="Helvetica,sans-Serif" font-size="10.00">utils/graph/Graph.hh</text>
</a>
</g>
</g>
<!-- Node6&#45;&gt;Node7 -->
<g id="edge6_Node000006_Node000007" class="edge">
<title>Node6&#45;&gt;Node7</title>
<g id="a_edge6_Node000006_Node000007"><a xlink:title=" ">
<path fill="none" stroke="#63b8ff" d="M1040.7,-307.82C1066.87,-278.32 1152.7,-181.57 1187.33,-142.54"/>
<polygon fill="#63b8ff" stroke="#63b8ff" points="1190.24,-144.53 1194.25,-134.73 1185,-139.89 1190.24,-144.53"/>
</a>
</g>
</g>
<!-- Node9 -->
<g id="Node000009" class="node">
<title>Node9</title>
<g id="a_Node000009"><a xlink:href="SymmetricBitMatrix_8hh.html" target="_top" xlink:title=" ">
<polygon fill="white" stroke="#666666" points="953,-140 811,-140 811,-110 953,-110 953,-140"/>
<text text-anchor="start" x="819" y="-128" font-family="Helvetica,sans-Serif" font-size="10.00">utils/BitMatrix/Symmetric</text>
<text text-anchor="middle" x="882" y="-117" font-family="Helvetica,sans-Serif" font-size="10.00">BitMatrix.hh</text>
</a>
</g>
</g>
<!-- Node6&#45;&gt;Node9 -->
<g id="edge12_Node000006_Node000009" class="edge">
<title>Node6&#45;&gt;Node9</title>
<g id="a_edge12_Node000006_Node000009"><a xlink:title=" ">
<path fill="none" stroke="#63b8ff" d="M1026.12,-307.82C1003.77,-279.63 932.76,-190.04 899.5,-148.08"/>
<polygon fill="#63b8ff" stroke="#63b8ff" points="902.15,-145.78 893.19,-140.12 896.66,-150.13 902.15,-145.78"/>
</a>
</g>
</g>
<!-- Node11 -->
<g id="Node000011" class="node">
<title>Node11</title>
<g id="a_Node000011"><a xlink:href="ematch__src_2utils_2perlish_2perlish_8hh.html" target="_top" xlink:title=" ">
<polygon fill="white" stroke="#666666" points="649.5,-134.5 524.5,-134.5 524.5,-115.5 649.5,-115.5 649.5,-134.5"/>
<text text-anchor="middle" x="587" y="-122.5" font-family="Helvetica,sans-Serif" font-size="10.00">utils/perlish/perlish.hh</text>
</a>
</g>
</g>
<!-- Node6&#45;&gt;Node11 -->
<g id="edge15_Node000006_Node000011" class="edge">
<title>Node6&#45;&gt;Node11</title>
<g id="a_edge15_Node000006_Node000011"><a xlink:title=" ">
<path fill="none" stroke="#63b8ff" d="M986.79,-312.58C933.38,-307.17 843.28,-295.32 769,-272 692.56,-248 657.56,-256.33 606,-195 594.15,-180.9 589.65,-160 587.97,-144.9"/>
<polygon fill="#63b8ff" stroke="#63b8ff" points="591.44,-144.38 587.15,-134.69 584.46,-144.94 591.44,-144.38"/>
</a>
</g>
</g>
<!-- Node23 -->
<g id="Node000023" class="node">
<title>Node23</title>
<g id="a_Node000023"><a xlink:href="SerialNumbersForStrings_8hh.html" target="_top" xlink:title=" ">
<polygon fill="white" stroke="#666666" points="932.5,-272 777.5,-272 777.5,-231 932.5,-231 932.5,-272"/>
<text text-anchor="start" x="785.5" y="-260" font-family="Helvetica,sans-Serif" font-size="10.00">utils/serialNumbers</text>
<text text-anchor="start" x="785.5" y="-249" font-family="Helvetica,sans-Serif" font-size="10.00">/SerialNumbersForStrings</text>
<text text-anchor="middle" x="855" y="-238" font-family="Helvetica,sans-Serif" font-size="10.00">/SerialNumbersForStrings.hh</text>
</a>
</g>
</g>
<!-- Node6&#45;&gt;Node23 -->
<g id="edge36_Node000006_Node000023" class="edge">
<title>Node6&#45;&gt;Node23</title>
<g id="a_edge36_Node000006_Node000023"><a xlink:title=" ">
<path fill="none" stroke="#63b8ff" d="M1008.99,-307.87C985.95,-299.58 950.11,-286.7 918.81,-275.44"/>
<polygon fill="#63b8ff" stroke="#63b8ff" points="919.85,-272.1 909.26,-272.01 917.49,-278.69 919.85,-272.1"/>
</a>
</g>
</g>
<!-- Node7&#45;&gt;Node3 -->
<g id="edge8_Node000007_Node000003" class="edge">
<title>Node7&#45;&gt;Node3</title>
<g id="a_edge8_Node000007_Node000003"><a xlink:title=" ">
<path fill="none" stroke="#63b8ff" d="M1243.88,-115.47C1266.75,-108.45 1293.15,-95.94 1307,-74 1316.76,-58.54 1304.65,-39.55 1292.82,-26.39"/>
<polygon fill="#63b8ff" stroke="#63b8ff" points="1295.16,-23.78 1285.69,-19.03 1290.13,-28.65 1295.16,-23.78"/>
</a>
</g>
</g>
<!-- Node7&#45;&gt;Node4 -->
<g id="edge7_Node000007_Node000004" class="edge">
<title>Node7&#45;&gt;Node4</title>
<g id="a_edge7_Node000007_Node000004"><a xlink:title=" ">
<path fill="none" stroke="#63b8ff" d="M1191.75,-115.31C1174.57,-101.09 1138.44,-72.67 1104,-55 1075.82,-40.54 1041.88,-28.98 1016.03,-21.27"/>
<polygon fill="#63b8ff" stroke="#63b8ff" points="1016.78,-17.85 1006.2,-18.41 1014.82,-24.57 1016.78,-17.85"/>
</a>
</g>
</g>
<!-- Node8 -->
<g id="Node000008" class="node">
<title>Node8</title>
<g id="a_Node000008"><a xlink:href="utils_2graph_2graphTypes_8hh.html" target="_top" xlink:title=" ">
<polygon fill="white" stroke="#666666" points="1298,-74 1156,-74 1156,-55 1298,-55 1298,-74"/>
<text text-anchor="middle" x="1227" y="-62" font-family="Helvetica,sans-Serif" font-size="10.00">utils/graph/graphTypes.hh</text>
</a>
</g>
</g>
<!-- Node7&#45;&gt;Node8 -->
<g id="edge9_Node000007_Node000008" class="edge">
<title>Node7&#45;&gt;Node8</title>
<g id="a_edge9_Node000007_Node000008"><a xlink:title=" ">
<path fill="none" stroke="#63b8ff" d="M1205.69,-115.37C1209.27,-106.99 1214.82,-94.01 1219.35,-83.39"/>
<polygon fill="#63b8ff" stroke="#63b8ff" points="1222.58,-84.74 1223.3,-74.17 1216.15,-81.99 1222.58,-84.74"/>
</a>
</g>
</g>
<!-- Node8&#45;&gt;Node3 -->
<g id="edge11_Node000008_Node000003" class="edge">
<title>Node8&#45;&gt;Node3</title>
<g id="a_edge11_Node000008_Node000003"><a xlink:title=" ">
<path fill="none" stroke="#63b8ff" d="M1235.09,-54.75C1242.16,-47.11 1252.59,-35.82 1261.15,-26.56"/>
<polygon fill="#63b8ff" stroke="#63b8ff" points="1263.84,-28.81 1268.06,-19.09 1258.7,-24.06 1263.84,-28.81"/>
</a>
</g>
</g>
<!-- Node8&#45;&gt;Node4 -->
<g id="edge10_Node000008_Node000004" class="edge">
<title>Node8&#45;&gt;Node4</title>
<g id="a_edge10_Node000008_Node000004"><a xlink:title=" ">
<path fill="none" stroke="#63b8ff" d="M1186.67,-54.98C1139.81,-45.09 1062.94,-28.86 1016.15,-18.98"/>
<polygon fill="#63b8ff" stroke="#63b8ff" points="1016.87,-15.55 1006.36,-16.91 1015.42,-22.4 1016.87,-15.55"/>
</a>
</g>
</g>
<!-- Node9&#45;&gt;Node4 -->
<g id="edge14_Node000009_Node000004" class="edge">
<title>Node9&#45;&gt;Node4</title>
<g id="a_edge14_Node000009_Node000004"><a xlink:title=" ">
<path fill="none" stroke="#63b8ff" d="M893.91,-109.63C911.35,-88.56 943.78,-49.4 962.23,-27.13"/>
<polygon fill="#63b8ff" stroke="#63b8ff" points="965.09,-29.16 968.77,-19.23 959.7,-24.7 965.09,-29.16"/>
</a>
</g>
</g>
<!-- Node10 -->
<g id="Node000010" class="node">
<title>Node10</title>
<g id="a_Node000010"><a xlink:title=" ">
<polygon fill="#e0e0e0" stroke="#999999" points="910,-74 854,-74 854,-55 910,-55 910,-74"/>
<text text-anchor="middle" x="882" y="-62" font-family="Helvetica,sans-Serif" font-size="10.00">assert.h</text>
</a>
</g>
</g>
<!-- Node9&#45;&gt;Node10 -->
<g id="edge13_Node000009_Node000010" class="edge">
<title>Node9&#45;&gt;Node10</title>
<g id="a_edge13_Node000009_Node000010"><a xlink:title=" ">
<path fill="none" stroke="#63b8ff" d="M882,-109.84C882,-102.21 882,-92.7 882,-84.45"/>
<polygon fill="#63b8ff" stroke="#63b8ff" points="885.5,-84.27 882,-74.27 878.5,-84.27 885.5,-84.27"/>
</a>
</g>
</g>
<!-- Node11&#45;&gt;Node2 -->
<g id="edge20_Node000011_Node000002" class="edge">
<title>Node11&#45;&gt;Node2</title>
<g id="a_edge20_Node000011_Node000002"><a xlink:title=" ">
<path fill="none" stroke="#63b8ff" d="M524.12,-120.63C422.12,-114.49 225.51,-99.71 161,-74 133.9,-63.2 107.79,-41.46 91.83,-26.44"/>
<polygon fill="#63b8ff" stroke="#63b8ff" points="94.07,-23.74 84.45,-19.3 89.2,-28.77 94.07,-23.74"/>
</a>
</g>
</g>
<!-- Node11&#45;&gt;Node3 -->
<g id="edge21_Node000011_Node000003" class="edge">
<title>Node11&#45;&gt;Node3</title>
<g id="a_edge21_Node000011_Node000003"><a xlink:title=" ">
<path fill="none" stroke="#63b8ff" d="M646.75,-115.49C713.27,-105.9 823.95,-89.61 919,-74 1037.91,-54.47 1178.6,-28.64 1242.01,-16.86"/>
<polygon fill="#63b8ff" stroke="#63b8ff" points="1243.03,-20.23 1252.22,-14.95 1241.75,-13.34 1243.03,-20.23"/>
</a>
</g>
</g>
<!-- Node11&#45;&gt;Node4 -->
<g id="edge17_Node000011_Node000004" class="edge">
<title>Node11&#45;&gt;Node4</title>
<g id="a_edge17_Node000011_Node000004"><a xlink:title=" ">
<path fill="none" stroke="#63b8ff" d="M640.92,-115.48C686.1,-107.46 751.87,-93.72 807,-74 824.78,-67.64 827.58,-62.28 845,-55 875.56,-42.24 911.21,-30.31 937.59,-22.03"/>
<polygon fill="#63b8ff" stroke="#63b8ff" points="938.71,-25.35 947.22,-19.04 936.63,-18.66 938.71,-25.35"/>
</a>
</g>
</g>
<!-- Node11&#45;&gt;Node10 -->
<g id="edge22_Node000011_Node000010" class="edge">
<title>Node11&#45;&gt;Node10</title>
<g id="a_edge22_Node000011_Node000010"><a xlink:title=" ">
<path fill="none" stroke="#63b8ff" d="M630.44,-115.48C680.84,-105.57 766.46,-88.71 840,-74 841.27,-73.75 842.57,-73.49 843.87,-73.22"/>
<polygon fill="#63b8ff" stroke="#63b8ff" points="844.88,-76.59 853.99,-71.19 843.5,-69.73 844.88,-76.59"/>
</a>
</g>
</g>
<!-- Node12 -->
<g id="Node000012" class="node">
<title>Node12</title>
<g id="a_Node000012"><a xlink:title=" ">
<polygon fill="#e0e0e0" stroke="#999999" points="514.5,-74 461.5,-74 461.5,-55 514.5,-55 514.5,-74"/>
<text text-anchor="middle" x="488" y="-62" font-family="Helvetica,sans-Serif" font-size="10.00">ctype.h</text>
</a>
</g>
</g>
<!-- Node11&#45;&gt;Node12 -->
<g id="edge16_Node000011_Node000012" class="edge">
<title>Node11&#45;&gt;Node12</title>
<g id="a_edge16_Node000011_Node000012"><a xlink:title=" ">
<path fill="none" stroke="#63b8ff" d="M572.39,-115.37C556.31,-105.86 530.22,-90.45 511.3,-79.27"/>
<polygon fill="#63b8ff" stroke="#63b8ff" points="513.06,-76.24 502.67,-74.17 509.5,-82.27 513.06,-76.24"/>
</a>
</g>
</g>
<!-- Node13 -->
<g id="Node000013" class="node">
<title>Node13</title>
<g id="a_Node000013"><a xlink:title=" ">
<polygon fill="#e0e0e0" stroke="#999999" points="587.5,-74 532.5,-74 532.5,-55 587.5,-55 587.5,-74"/>
<text text-anchor="middle" x="560" y="-62" font-family="Helvetica,sans-Serif" font-size="10.00">fstream</text>
</a>
</g>
</g>
<!-- Node11&#45;&gt;Node13 -->
<g id="edge18_Node000011_Node000013" class="edge">
<title>Node11&#45;&gt;Node13</title>
<g id="a_edge18_Node000011_Node000013"><a xlink:title=" ">
<path fill="none" stroke="#63b8ff" d="M583.02,-115.37C579.15,-106.99 573.16,-94.01 568.26,-83.39"/>
<polygon fill="#63b8ff" stroke="#63b8ff" points="571.37,-81.78 564,-74.17 565.01,-84.71 571.37,-81.78"/>
</a>
</g>
</g>
<!-- Node14 -->
<g id="Node000014" class="node">
<title>Node14</title>
<g id="a_Node000014"><a xlink:title=" ">
<polygon fill="#e0e0e0" stroke="#999999" points="662,-74 606,-74 606,-55 662,-55 662,-74"/>
<text text-anchor="middle" x="634" y="-62" font-family="Helvetica,sans-Serif" font-size="10.00">sstream</text>
</a>
</g>
</g>
<!-- Node11&#45;&gt;Node14 -->
<g id="edge19_Node000011_Node000014" class="edge">
<title>Node11&#45;&gt;Node14</title>
<g id="a_edge19_Node000011_Node000014"><a xlink:title=" ">
<path fill="none" stroke="#63b8ff" d="M593.94,-115.37C600.95,-106.64 611.96,-92.93 620.67,-82.09"/>
<polygon fill="#63b8ff" stroke="#63b8ff" points="623.5,-84.16 627.04,-74.17 618.04,-79.77 623.5,-84.16"/>
</a>
</g>
</g>
<!-- Node15 -->
<g id="Node000015" class="node">
<title>Node15</title>
<g id="a_Node000015"><a xlink:title=" ">
<polygon fill="#e0e0e0" stroke="#999999" points="317.5,-19 222.5,-19 222.5,0 317.5,0 317.5,-19"/>
<text text-anchor="middle" x="270" y="-7" font-family="Helvetica,sans-Serif" font-size="10.00">boost/regex.hpp</text>
</a>
</g>
</g>
<!-- Node11&#45;&gt;Node15 -->
<g id="edge23_Node000011_Node000015" class="edge">
<title>Node11&#45;&gt;Node15</title>
<g id="a_edge23_Node000011_Node000015"><a xlink:title=" ">
<path fill="none" stroke="#63b8ff" d="M524.19,-120.97C413.7,-114.99 194.02,-99.95 171,-74 150.38,-50.75 189.27,-32.7 224.19,-21.89"/>
<polygon fill="#63b8ff" stroke="#63b8ff" points="225.28,-25.22 233.89,-19.03 223.31,-18.5 225.28,-25.22"/>
</a>
</g>
</g>
<!-- Node16 -->
<g id="Node000016" class="node">
<title>Node16</title>
<g id="a_Node000016"><a xlink:href="ematch__src_2utils_2gdb_2gdbUtils_8hh.html" target="_top" xlink:title=" ">
<polygon fill="white" stroke="#666666" points="797.5,-74 680.5,-74 680.5,-55 797.5,-55 797.5,-74"/>
<text text-anchor="middle" x="739" y="-62" font-family="Helvetica,sans-Serif" font-size="10.00">utils/gdb/gdbUtils.hh</text>
</a>
</g>
</g>
<!-- Node11&#45;&gt;Node16 -->
<g id="edge24_Node000011_Node000016" class="edge">
<title>Node11&#45;&gt;Node16</title>
<g id="a_edge24_Node000011_Node000016"><a xlink:title=" ">
<path fill="none" stroke="#63b8ff" d="M609.1,-115.49C634.99,-105.53 678.08,-88.95 707.47,-77.63"/>
<polygon fill="#63b8ff" stroke="#63b8ff" points="708.8,-80.88 716.87,-74.02 706.28,-74.34 708.8,-80.88"/>
</a>
</g>
</g>
<!-- Node21 -->
<g id="Node000021" class="node">
<title>Node21</title>
<g id="a_Node000021"><a xlink:href="ematch__src_2utils_2stl_2stlTypes_8hh.html" target="_top" xlink:title=" ">
<polygon fill="white" stroke="#666666" points="290,-74 180,-74 180,-55 290,-55 290,-74"/>
<text text-anchor="middle" x="235" y="-62" font-family="Helvetica,sans-Serif" font-size="10.00">utils/stl/stlTypes.hh</text>
</a>
</g>
</g>
<!-- Node11&#45;&gt;Node21 -->
<g id="edge30_Node000011_Node000021" class="edge">
<title>Node11&#45;&gt;Node21</title>
<g id="a_edge30_Node000011_Node000021"><a xlink:title=" ">
<path fill="none" stroke="#63b8ff" d="M535.82,-115.49C472.34,-104.94 364.23,-86.98 296.37,-75.7"/>
<polygon fill="#63b8ff" stroke="#63b8ff" points="296.68,-72.2 286.25,-74.02 295.54,-79.11 296.68,-72.2"/>
</a>
</g>
</g>
<!-- Node22 -->
<g id="Node000022" class="node">
<title>Node22</title>
<g id="a_Node000022"><a xlink:href="ematch__src_2utils_2boost_2boostUtils_8hh.html" target="_top" xlink:title=" ">
<polygon fill="white" stroke="#666666" points="443.5,-74 308.5,-74 308.5,-55 443.5,-55 443.5,-74"/>
<text text-anchor="middle" x="376" y="-62" font-family="Helvetica,sans-Serif" font-size="10.00">utils/boost/boostUtils.hh</text>
</a>
</g>
</g>
<!-- Node11&#45;&gt;Node22 -->
<g id="edge33_Node000011_Node000022" class="edge">
<title>Node11&#45;&gt;Node22</title>
<g id="a_edge33_Node000011_Node000022"><a xlink:title=" ">
<path fill="none" stroke="#63b8ff" d="M556.32,-115.49C519.44,-105.27 457.43,-88.08 416.61,-76.76"/>
<polygon fill="#63b8ff" stroke="#63b8ff" points="417.29,-73.32 406.72,-74.02 415.42,-80.06 417.29,-73.32"/>
</a>
</g>
</g>
<!-- Node16&#45;&gt;Node4 -->
<g id="edge26_Node000016_Node000004" class="edge">
<title>Node16&#45;&gt;Node4</title>
<g id="a_edge26_Node000016_Node000004"><a xlink:title=" ">
<path fill="none" stroke="#63b8ff" d="M777.08,-54.98C820.66,-45.24 891.71,-29.35 936.06,-19.43"/>
<polygon fill="#63b8ff" stroke="#63b8ff" points="936.92,-22.83 945.91,-17.23 935.39,-16 936.92,-22.83"/>
</a>
</g>
</g>
<!-- Node17 -->
<g id="Node000017" class="node">
<title>Node17</title>
<g id="a_Node000017"><a xlink:title=" ">
<polygon fill="#e0e0e0" stroke="#999999" points="663.5,-19 610.5,-19 610.5,0 663.5,0 663.5,-19"/>
<text text-anchor="middle" x="637" y="-7" font-family="Helvetica,sans-Serif" font-size="10.00">cstdarg</text>
</a>
</g>
</g>
<!-- Node16&#45;&gt;Node17 -->
<g id="edge25_Node000016_Node000017" class="edge">
<title>Node16&#45;&gt;Node17</title>
<g id="a_edge25_Node000016_Node000017"><a xlink:title=" ">
<path fill="none" stroke="#63b8ff" d="M722.61,-54.98C706.43,-46.57 681.43,-33.59 662.62,-23.81"/>
<polygon fill="#63b8ff" stroke="#63b8ff" points="664.17,-20.68 653.69,-19.17 660.95,-26.89 664.17,-20.68"/>
</a>
</g>
</g>
<!-- Node18 -->
<g id="Node000018" class="node">
<title>Node18</title>
<g id="a_Node000018"><a xlink:title=" ">
<polygon fill="#e0e0e0" stroke="#999999" points="730.5,-19 681.5,-19 681.5,0 730.5,0 730.5,-19"/>
<text text-anchor="middle" x="706" y="-7" font-family="Helvetica,sans-Serif" font-size="10.00">cstdlib</text>
</a>
</g>
</g>
<!-- Node16&#45;&gt;Node18 -->
<g id="edge27_Node000016_Node000018" class="edge">
<title>Node16&#45;&gt;Node18</title>
<g id="a_edge27_Node000016_Node000018"><a xlink:title=" ">
<path fill="none" stroke="#63b8ff" d="M733.55,-54.75C728.99,-47.42 722.33,-36.73 716.71,-27.7"/>
<polygon fill="#63b8ff" stroke="#63b8ff" points="719.6,-25.73 711.35,-19.09 713.66,-29.43 719.6,-25.73"/>
</a>
</g>
</g>
<!-- Node19 -->
<g id="Node000019" class="node">
<title>Node19</title>
<g id="a_Node000019"><a xlink:title=" ">
<polygon fill="#e0e0e0" stroke="#999999" points="795,-19 749,-19 749,0 795,0 795,-19"/>
<text text-anchor="middle" x="772" y="-7" font-family="Helvetica,sans-Serif" font-size="10.00">cstdio</text>
</a>
</g>
</g>
<!-- Node16&#45;&gt;Node19 -->
<g id="edge28_Node000016_Node000019" class="edge">
<title>Node16&#45;&gt;Node19</title>
<g id="a_edge28_Node000016_Node000019"><a xlink:title=" ">
<path fill="none" stroke="#63b8ff" d="M744.45,-54.75C749.01,-47.42 755.67,-36.73 761.29,-27.7"/>
<polygon fill="#63b8ff" stroke="#63b8ff" points="764.34,-29.43 766.65,-19.09 758.4,-25.73 764.34,-29.43"/>
</a>
</g>
</g>
<!-- Node20 -->
<g id="Node000020" class="node">
<title>Node20</title>
<g id="a_Node000020"><a xlink:title=" ">
<polygon fill="#e0e0e0" stroke="#999999" points="865,-19 813,-19 813,0 865,0 865,-19"/>
<text text-anchor="middle" x="839" y="-7" font-family="Helvetica,sans-Serif" font-size="10.00">cassert</text>
</a>
</g>
</g>
<!-- Node16&#45;&gt;Node20 -->
<g id="edge29_Node000016_Node000020" class="edge">
<title>Node16&#45;&gt;Node20</title>
<g id="a_edge29_Node000016_Node000020"><a xlink:title=" ">
<path fill="none" stroke="#63b8ff" d="M755.07,-54.98C770.86,-46.61 795.22,-33.7 813.63,-23.95"/>
<polygon fill="#63b8ff" stroke="#63b8ff" points="815.44,-26.95 822.64,-19.17 812.17,-20.76 815.44,-26.95"/>
</a>
</g>
</g>
<!-- Node21&#45;&gt;Node2 -->
<g id="edge31_Node000021_Node000002" class="edge">
<title>Node21&#45;&gt;Node2</title>
<g id="a_edge31_Node000021_Node000002"><a xlink:title=" ">
<path fill="none" stroke="#63b8ff" d="M209.45,-54.98C181.77,-45.76 137.56,-31.02 107.69,-21.06"/>
<polygon fill="#63b8ff" stroke="#63b8ff" points="108.74,-17.72 98.15,-17.88 106.53,-24.37 108.74,-17.72"/>
</a>
</g>
</g>
<!-- Node21&#45;&gt;Node3 -->
<g id="edge32_Node000021_Node000003" class="edge">
<title>Node21&#45;&gt;Node3</title>
<g id="a_edge32_Node000021_Node000003"><a xlink:title=" ">
<path fill="none" stroke="#63b8ff" d="M290.28,-55.95C293.57,-55.6 296.83,-55.28 300,-55 488.74,-38.39 1091.37,-16.88 1241.75,-11.67"/>
<polygon fill="#63b8ff" stroke="#63b8ff" points="1242.3,-15.16 1252.18,-11.31 1242.06,-8.16 1242.3,-15.16"/>
</a>
</g>
</g>
<!-- Node22&#45;&gt;Node4 -->
<g id="edge34_Node000022_Node000004" class="edge">
<title>Node22&#45;&gt;Node4</title>
<g id="a_edge34_Node000022_Node000004"><a xlink:title=" ">
<path fill="none" stroke="#63b8ff" d="M443.6,-55.94C446.77,-55.62 449.92,-55.3 453,-55 500.6,-50.35 821.88,-23.4 935.93,-13.85"/>
<polygon fill="#63b8ff" stroke="#63b8ff" points="936.32,-17.33 945.99,-13.01 935.74,-10.35 936.32,-17.33"/>
</a>
</g>
</g>
<!-- Node22&#45;&gt;Node15 -->
<g id="edge35_Node000022_Node000015" class="edge">
<title>Node22&#45;&gt;Node15</title>
<g id="a_edge35_Node000022_Node000015"><a xlink:title=" ">
<path fill="none" stroke="#63b8ff" d="M358.97,-54.98C342.07,-46.54 315.94,-33.47 296.36,-23.68"/>
<polygon fill="#63b8ff" stroke="#63b8ff" points="297.85,-20.51 287.34,-19.17 294.72,-26.77 297.85,-20.51"/>
</a>
</g>
</g>
<!-- Node23&#45;&gt;Node2 -->
<g id="edge39_Node000023_Node000002" class="edge">
<title>Node23&#45;&gt;Node2</title>
<g id="a_edge39_Node000023_Node000002"><a xlink:title=" ">
<path fill="none" stroke="#63b8ff" d="M777.06,-245.27C655.03,-235.26 412.79,-207.99 219,-140 161.56,-119.85 138.57,-120.25 99,-74 88.16,-61.33 82.27,-43.15 79.17,-29.48"/>
<polygon fill="#63b8ff" stroke="#63b8ff" points="82.53,-28.43 77.18,-19.29 75.66,-29.77 82.53,-28.43"/>
</a>
</g>
</g>
<!-- Node23&#45;&gt;Node3 -->
<g id="edge37_Node000023_Node000003" class="edge">
<title>Node23&#45;&gt;Node3</title>
<g id="a_edge37_Node000023_Node000003"><a xlink:title=" ">
<path fill="none" stroke="#63b8ff" d="M932.58,-244.31C1020.45,-234.18 1164.91,-207.82 1269,-140 1306.3,-115.69 1339.38,-95.99 1322,-55 1317.02,-43.25 1307.25,-33.09 1297.99,-25.45"/>
<polygon fill="#63b8ff" stroke="#63b8ff" points="1299.85,-22.47 1289.78,-19.18 1295.6,-28.03 1299.85,-22.47"/>
</a>
</g>
</g>
<!-- Node23&#45;&gt;Node4 -->
<g id="edge38_Node000023_Node000004" class="edge">
<title>Node23&#45;&gt;Node4</title>
<g id="a_edge38_Node000023_Node000004"><a xlink:title=" ">
<path fill="none" stroke="#63b8ff" d="M888.5,-230.83C918.3,-211.52 960.67,-179.3 984,-140 1003.55,-107.08 1006.71,-92.28 998,-55 995.8,-45.57 991.29,-35.85 986.93,-27.91"/>
<polygon fill="#63b8ff" stroke="#63b8ff" points="989.92,-26.09 981.84,-19.24 983.88,-29.64 989.92,-26.09"/>
</a>
</g>
</g>
<!-- Node23&#45;&gt;Node10 -->
<g id="edge40_Node000023_Node000010" class="edge">
<title>Node23&#45;&gt;Node10</title>
<g id="a_edge40_Node000023_Node000010"><a xlink:title=" ">
<path fill="none" stroke="#63b8ff" d="M837.08,-230.93C813.68,-202.89 778.35,-150.23 802,-110 811.21,-94.34 828.14,-83.8 844.06,-76.92"/>
<polygon fill="#63b8ff" stroke="#63b8ff" points="845.74,-80.02 853.76,-73.1 843.18,-73.5 845.74,-80.02"/>
</a>
</g>
</g>
<!-- Node24 -->
<g id="Node000024" class="node">
<title>Node24</title>
<g id="a_Node000024"><a xlink:href="stringBinaryIO_8hh.html" target="_top" xlink:title=" ">
<polygon fill="white" stroke="#666666" points="755,-195 615,-195 615,-176 755,-176 755,-195"/>
<text text-anchor="middle" x="685" y="-183" font-family="Helvetica,sans-Serif" font-size="10.00">utils/stl/stringBinaryIO.hh</text>
</a>
</g>
</g>
<!-- Node23&#45;&gt;Node24 -->
<g id="edge41_Node000023_Node000024" class="edge">
<title>Node23&#45;&gt;Node24</title>
<g id="a_edge41_Node000023_Node000024"><a xlink:title=" ">
<path fill="none" stroke="#63b8ff" d="M803.07,-230.95C775.09,-220.42 741.45,-207.75 717.25,-198.64"/>
<polygon fill="#63b8ff" stroke="#63b8ff" points="718.41,-195.34 707.82,-195.09 715.95,-201.89 718.41,-195.34"/>
</a>
</g>
</g>
<!-- Node24&#45;&gt;Node2 -->
<g id="edge43_Node000024_Node000002" class="edge">
<title>Node24&#45;&gt;Node2</title>
<g id="a_edge43_Node000024_Node000002"><a xlink:title=" ">
<path fill="none" stroke="#63b8ff" d="M614.81,-176.98C483.19,-161.86 205.26,-124.84 124,-74 106.29,-62.92 92.77,-42.8 84.65,-28.16"/>
<polygon fill="#63b8ff" stroke="#63b8ff" points="87.65,-26.33 79.92,-19.09 81.44,-29.57 87.65,-26.33"/>
</a>
</g>
</g>
<!-- Node24&#45;&gt;Node4 -->
<g id="edge42_Node000024_Node000004" class="edge">
<title>Node24&#45;&gt;Node4</title>
<g id="a_edge42_Node000024_Node000004"><a xlink:title=" ">
<path fill="none" stroke="#63b8ff" d="M755.29,-182.64C827.9,-179.14 934.41,-169.05 962,-140 990.33,-110.17 985.46,-57.33 980.28,-29.26"/>
<polygon fill="#63b8ff" stroke="#63b8ff" points="983.65,-28.27 978.2,-19.19 976.79,-29.69 983.65,-28.27"/>
</a>
</g>
</g>
<!-- Node24&#45;&gt;Node11 -->
<g id="edge44_Node000024_Node000011" class="edge">
<title>Node24&#45;&gt;Node11</title>
<g id="a_edge44_Node000024_Node000011"><a xlink:title=" ">
<path fill="none" stroke="#63b8ff" d="M670.54,-175.87C654.69,-166.41 629.03,-151.09 610.32,-139.92"/>
<polygon fill="#63b8ff" stroke="#63b8ff" points="611.9,-136.79 601.52,-134.67 608.31,-142.8 611.9,-136.79"/>
</a>
</g>
</g>
</g>
</svg>
