<?xml version="1.0" encoding="UTF-8" standalone="no"?>
<!DOCTYPE svg PUBLIC "-//W3C//DTD SVG 1.1//EN"
 "http://www.w3.org/Graphics/SVG/1.1/DTD/svg11.dtd">
<!-- Generated by graphviz version 2.43.0 (0)
 -->
<!-- Title: ematch_src/utils/graph/graphTypes.hh Pages: 1 -->
<!--zoomable 258 -->

<svg id="main" version="1.1" xmlns="http://www.w3.org/2000/svg" xmlns:xlink="http://www.w3.org/1999/xlink" xml:space="preserve" onload="init(evt)">
<style type="text/css"><![CDATA[
.node, .edge {opacity: 0.7;}
.node.selected, .edge.selected {opacity: 1;}
.edge:hover path { stroke: red; }
.edge:hover polygon { stroke: red; fill: red; }
]]></style>

<defs>
  <circle id="rim" cx="0" cy="0" r="7"/>
  <circle id="rim2" cx="0" cy="0" r="3.5"/>
  <g id="zoomPlus">
    <use xlink:href="#rim" fill="#404040"><set attributeName="fill" to="#808080" begin="zoomplus.mouseover" end="zoomplus.mouseout"/></use>
    <path d="M-4,0h8M0,-4v8" fill="none" stroke="white" stroke-width="1.5" pointer-events="none"/>
  </g>
  <g id="zoomMin">
    <use xlink:href="#rim" fill="#404040"><set attributeName="fill" to="#808080" begin="zoomminus.mouseover" end="zoomminus.mouseout"/></use>
    <path d="M-4,0h8" fill="none" stroke="white" stroke-width="1.5" pointer-events="none"/>
  </g>
  <g id="arrowUp" transform="translate(30 24)">
    <use xlink:href="#rim"/>
    <path pointer-events="none" fill="none" stroke="white" stroke-width="1.5" d="M0,-3.0v7 M-2.5,-0.5L0,-3.0L2.5,-0.5"/>
  </g>
  <g id="arrowRight" transform="rotate(90) translate(36 -43)">
    <use xlink:href="#rim"/>
    <path pointer-events="none" fill="none" stroke="white" stroke-width="1.5" d="M0,-3.0v7 M-2.5,-0.5L0,-3.0L2.5,-0.5"/>
  </g>
  <g id="arrowDown" transform="rotate(180) translate(-30 -48)">
    <use xlink:href="#rim"/>
    <path pointer-events="none" fill="none" stroke="white" stroke-width="1.5" d="M0,-3.0v7 M-2.5,-0.5L0,-3.0L2.5,-0.5"/>
  </g>
  <g id="arrowLeft" transform="rotate(270) translate(-36 17)">
    <use xlink:href="#rim"/>
    <path pointer-events="none" fill="none" stroke="white" stroke-width="1.5" d="M0,-3.0v7 M-2.5,-0.5L0,-3.0L2.5,-0.5"/>
  </g>
  <g id="resetDef">
    <use xlink:href="#rim2" fill="#404040"><set attributeName="fill" to="#808080" begin="reset.mouseover" end="reset.mouseout"/></use>
  </g>
</defs>
<script type="application/ecmascript">
var viewWidth = 3689;
var viewHeight = 258;
var sectionId = 'dynsection-1';
</script>
<script type="application/ecmascript" xlink:href="svg.min.js"/>
<svg id="graph" class="graph">
<g id="viewport">
<title>ematch_src/utils/graph/graphTypes.hh</title>
<!-- Node1 -->
<g id="Node000001" class="node">
<title>Node1</title>
<g id="a_Node000001"><a xlink:title=" ">
<polygon fill="#999999" stroke="#666666" points="1103.5,-250 975.5,-250 975.5,-220 1103.5,-220 1103.5,-250"/>
<text text-anchor="start" x="983.5" y="-238" font-family="Helvetica,sans-Serif" font-size="10.00">ematch_src/utils/graph</text>
<text text-anchor="middle" x="1039.5" y="-227" font-family="Helvetica,sans-Serif" font-size="10.00">/graphTypes.hh</text>
</a>
</g>
</g>
<!-- Node2 -->
<g id="Node000002" class="node">
<title>Node2</title>
<g id="a_Node000002"><a xlink:href="graph_2Graph_8hh.html" target="_top" xlink:title=" ">
<polygon fill="white" stroke="#666666" points="360,-178.5 209,-178.5 209,-159.5 360,-159.5 360,-178.5"/>
<text text-anchor="middle" x="284.5" y="-166.5" font-family="Helvetica,sans-Serif" font-size="10.00">ematch_src/graph/Graph.hh</text>
</a>
</g>
</g>
<!-- Node1&#45;&gt;Node2 -->
<g id="edge1_Node000001_Node000002" class="edge">
<title>Node1&#45;&gt;Node2</title>
<g id="a_edge1_Node000001_Node000002"><a xlink:title=" ">
<path fill="none" stroke="#63b8ff" d="M964.97,-230.6C841.06,-224.47 584.95,-209.73 369.5,-184 357.17,-182.53 343.91,-180.54 331.6,-178.52"/>
<polygon fill="#63b8ff" stroke="#63b8ff" points="964.95,-234.1 975.11,-231.1 965.29,-227.11 964.95,-234.1"/>
</a>
</g>
</g>
<!-- Node3 -->
<g id="Node000003" class="node">
<title>Node3</title>
<g id="a_Node000003"><a xlink:href="graph_2OneEdgePerLineFormat_8hh.html" target="_top" xlink:title=" ">
<polygon fill="white" stroke="#666666" points="528.5,-184 378.5,-184 378.5,-154 528.5,-154 528.5,-184"/>
<text text-anchor="start" x="386.5" y="-172" font-family="Helvetica,sans-Serif" font-size="10.00">ematch_src/graph/OneEdge</text>
<text text-anchor="middle" x="453.5" y="-161" font-family="Helvetica,sans-Serif" font-size="10.00">PerLineFormat.hh</text>
</a>
</g>
</g>
<!-- Node1&#45;&gt;Node3 -->
<g id="edge2_Node000001_Node000003" class="edge">
<title>Node1&#45;&gt;Node3</title>
<g id="a_edge2_Node000001_Node000003"><a xlink:title=" ">
<path fill="none" stroke="#63b8ff" d="M965.18,-225.88C852.95,-213.63 641.39,-190.52 528.67,-178.21"/>
<polygon fill="#63b8ff" stroke="#63b8ff" points="965.07,-229.39 975.39,-227 965.83,-222.43 965.07,-229.39"/>
</a>
</g>
</g>
<!-- Node7 -->
<g id="Node000007" class="node">
<title>Node7</title>
<g id="a_Node000007"><a xlink:href="utils_2graph_2Graph_8hh.html" target="_top" xlink:title=" ">
<polygon fill="white" stroke="#666666" points="1689.5,-184 1561.5,-184 1561.5,-154 1689.5,-154 1689.5,-184"/>
<text text-anchor="start" x="1569.5" y="-172" font-family="Helvetica,sans-Serif" font-size="10.00">ematch_src/utils/graph</text>
<text text-anchor="middle" x="1625.5" y="-161" font-family="Helvetica,sans-Serif" font-size="10.00">/Graph.hh</text>
</a>
</g>
</g>
<!-- Node1&#45;&gt;Node7 -->
<g id="edge6_Node000001_Node000007" class="edge">
<title>Node1&#45;&gt;Node7</title>
<g id="a_edge6_Node000001_Node000007"><a xlink:title=" ">
<path fill="none" stroke="#63b8ff" d="M1113.82,-225.88C1229.82,-213.21 1451.97,-188.95 1561.38,-177"/>
<polygon fill="#63b8ff" stroke="#63b8ff" points="1113.17,-222.43 1103.61,-227 1113.93,-229.39 1113.17,-222.43"/>
</a>
</g>
</g>
<!-- Node31 -->
<g id="Node000031" class="node">
<title>Node31</title>
<g id="a_Node000031"><a xlink:href="utils_2graph_2OneEdgePerLineFormat_8hh.html" target="_top" xlink:title=" ">
<polygon fill="white" stroke="#666666" points="2893,-112.5 2744,-112.5 2744,-82.5 2893,-82.5 2893,-112.5"/>
<text text-anchor="start" x="2752" y="-100.5" font-family="Helvetica,sans-Serif" font-size="10.00">ematch_src/utils/graph</text>
<text text-anchor="middle" x="2818.5" y="-89.5" font-family="Helvetica,sans-Serif" font-size="10.00">/OneEdgePerLineFormat.hh</text>
</a>
</g>
</g>
<!-- Node1&#45;&gt;Node31 -->
<g id="edge33_Node000001_Node000031" class="edge">
<title>Node1&#45;&gt;Node31</title>
<g id="a_edge33_Node000001_Node000031"><a xlink:title=" ">
<path fill="none" stroke="#63b8ff" d="M1113.8,-228.86C1338.1,-213.27 2028.01,-164.69 2599.5,-118 2647.53,-114.08 2701.45,-109.28 2743.77,-105.43"/>
<polygon fill="#63b8ff" stroke="#63b8ff" points="1113.53,-225.37 1103.79,-229.56 1114.01,-232.36 1113.53,-225.37"/>
</a>
</g>
</g>
<!-- Node4 -->
<g id="Node000004" class="node">
<title>Node4</title>
<g id="a_Node000004"><a xlink:href="graph_2NeighborListGraph_8cc.html" target="_top" xlink:title=" ">
<polygon fill="white" stroke="#666666" points="151,-35.5 0,-35.5 0,-5.5 151,-5.5 151,-35.5"/>
<text text-anchor="start" x="8" y="-23.5" font-family="Helvetica,sans-Serif" font-size="10.00">ematch_src/graph/Neighbor</text>
<text text-anchor="middle" x="75.5" y="-12.5" font-family="Helvetica,sans-Serif" font-size="10.00">ListGraph.cc</text>
</a>
</g>
</g>
<!-- Node3&#45;&gt;Node4 -->
<g id="edge3_Node000003_Node000004" class="edge">
<title>Node3&#45;&gt;Node4</title>
<g id="a_edge3_Node000003_Node000004"><a xlink:title=" ">
<path fill="none" stroke="#63b8ff" d="M455.54,-143.93C455.87,-123.12 452.64,-93.82 434.5,-77 389.3,-35.1 220.15,-51.98 159.5,-41 150.81,-39.43 141.66,-37.54 132.73,-35.57"/>
<polygon fill="#63b8ff" stroke="#63b8ff" points="452.04,-143.78 455.1,-153.92 459.04,-144.09 452.04,-143.78"/>
</a>
</g>
</g>
<!-- Node5 -->
<g id="Node000005" class="node">
<title>Node5</title>
<g id="a_Node000005"><a xlink:href="graph_2OneEdgePerLineFormat_8cc.html" target="_top" xlink:title=" ">
<polygon fill="white" stroke="#666666" points="251.5,-112.5 101.5,-112.5 101.5,-82.5 251.5,-82.5 251.5,-112.5"/>
<text text-anchor="start" x="109.5" y="-100.5" font-family="Helvetica,sans-Serif" font-size="10.00">ematch_src/graph/OneEdge</text>
<text text-anchor="middle" x="176.5" y="-89.5" font-family="Helvetica,sans-Serif" font-size="10.00">PerLineFormat.cc</text>
</a>
</g>
</g>
<!-- Node3&#45;&gt;Node5 -->
<g id="edge4_Node000003_Node000005" class="edge">
<title>Node3&#45;&gt;Node5</title>
<g id="a_edge4_Node000003_Node000005"><a xlink:title=" ">
<path fill="none" stroke="#63b8ff" d="M387.61,-151.47C340.33,-139.61 277.32,-123.8 232.47,-112.54"/>
<polygon fill="#63b8ff" stroke="#63b8ff" points="386.89,-154.9 397.44,-153.94 388.6,-148.11 386.89,-154.9"/>
</a>
</g>
</g>
<!-- Node6 -->
<g id="Node000006" class="node">
<title>Node6</title>
<g id="a_Node000006"><a xlink:href="graph_2run_2convertMultipleEdgePerLineToOneEdgePerLineFormat_8cc.html" target="_top" xlink:title=" ">
<polygon fill="white" stroke="#666666" points="425.5,-118 269.5,-118 269.5,-77 425.5,-77 425.5,-118"/>
<text text-anchor="start" x="277.5" y="-106" font-family="Helvetica,sans-Serif" font-size="10.00">ematch_src/graph/run</text>
<text text-anchor="start" x="277.5" y="-95" font-family="Helvetica,sans-Serif" font-size="10.00">/convertMultipleEdgePerLine</text>
<text text-anchor="middle" x="347.5" y="-84" font-family="Helvetica,sans-Serif" font-size="10.00">ToOneEdgePerLineFormat.cc</text>
</a>
</g>
</g>
<!-- Node3&#45;&gt;Node6 -->
<g id="edge5_Node000003_Node000006" class="edge">
<title>Node3&#45;&gt;Node6</title>
<g id="a_edge5_Node000003_Node000006"><a xlink:title=" ">
<path fill="none" stroke="#63b8ff" d="M423.47,-148.31C409.03,-138.84 391.77,-127.53 377.35,-118.07"/>
<polygon fill="#63b8ff" stroke="#63b8ff" points="421.77,-151.38 432.05,-153.94 425.61,-145.53 421.77,-151.38"/>
</a>
</g>
</g>
<!-- Node8 -->
<g id="Node000008" class="node">
<title>Node8</title>
<g id="a_Node000008"><a xlink:href="graph_2ConnectedComponentOnlineComputer_8hh.html" target="_top" xlink:title=" ">
<polygon fill="white" stroke="#666666" points="2590,-112.5 2423,-112.5 2423,-82.5 2590,-82.5 2590,-112.5"/>
<text text-anchor="start" x="2431" y="-100.5" font-family="Helvetica,sans-Serif" font-size="10.00">ematch_src/graph/Connected</text>
<text text-anchor="middle" x="2506.5" y="-89.5" font-family="Helvetica,sans-Serif" font-size="10.00">ComponentOnlineComputer.hh</text>
</a>
</g>
</g>
<!-- Node7&#45;&gt;Node8 -->
<g id="edge7_Node000007_Node000008" class="edge">
<title>Node7&#45;&gt;Node8</title>
<g id="a_edge7_Node000007_Node000008"><a xlink:title=" ">
<path fill="none" stroke="#63b8ff" d="M1699.99,-162.12C1863.23,-149.25 2251.55,-118.61 2422.85,-105.1"/>
<polygon fill="#63b8ff" stroke="#63b8ff" points="1699.26,-158.67 1689.57,-162.95 1699.81,-165.65 1699.26,-158.67"/>
</a>
</g>
</g>
<!-- Node13 -->
<g id="Node000013" class="node">
<title>Node13</title>
<g id="a_Node000013"><a xlink:href="graph_2MatrixGraph_8hh.html" target="_top" xlink:title=" ">
<polygon fill="white" stroke="#666666" points="2098.5,-107 1916.5,-107 1916.5,-88 2098.5,-88 2098.5,-107"/>
<text text-anchor="middle" x="2007.5" y="-95" font-family="Helvetica,sans-Serif" font-size="10.00">ematch_src/graph/MatrixGraph.hh</text>
</a>
</g>
</g>
<!-- Node7&#45;&gt;Node13 -->
<g id="edge12_Node000007_Node000013" class="edge">
<title>Node7&#45;&gt;Node13</title>
<g id="a_edge12_Node000007_Node000013"><a xlink:title=" ">
<path fill="none" stroke="#63b8ff" d="M1700.02,-154.44C1777.26,-140.39 1895.62,-118.85 1960.66,-107.02"/>
<polygon fill="#63b8ff" stroke="#63b8ff" points="1699.08,-151.06 1689.87,-156.29 1700.33,-157.94 1699.08,-151.06"/>
</a>
</g>
</g>
<!-- Node16 -->
<g id="Node000016" class="node">
<title>Node16</title>
<g id="a_Node000016"><a xlink:href="graph_2NeighborListGraph_8hh.html" target="_top" xlink:title=" ">
<polygon fill="white" stroke="#666666" points="633,-112.5 482,-112.5 482,-82.5 633,-82.5 633,-112.5"/>
<text text-anchor="start" x="490" y="-100.5" font-family="Helvetica,sans-Serif" font-size="10.00">ematch_src/graph/Neighbor</text>
<text text-anchor="middle" x="557.5" y="-89.5" font-family="Helvetica,sans-Serif" font-size="10.00">ListGraph.hh</text>
</a>
</g>
</g>
<!-- Node7&#45;&gt;Node16 -->
<g id="edge16_Node000007_Node000016" class="edge">
<title>Node7&#45;&gt;Node16</title>
<g id="a_edge16_Node000007_Node000016"><a xlink:title=" ">
<path fill="none" stroke="#63b8ff" d="M1551.34,-163.17C1356.25,-150.48 830.21,-116.25 633.29,-103.43"/>
<polygon fill="#63b8ff" stroke="#63b8ff" points="1551.29,-166.68 1561.49,-163.83 1551.74,-159.69 1551.29,-166.68"/>
</a>
</g>
</g>
<!-- Node18 -->
<g id="Node000018" class="node">
<title>Node18</title>
<g id="a_Node000018"><a xlink:href="utils_2graph_2ConnectedComponentOnlineComputer_8hh.html" target="_top" xlink:title=" ">
<polygon fill="white" stroke="#666666" points="1168,-112.5 947,-112.5 947,-82.5 1168,-82.5 1168,-112.5"/>
<text text-anchor="start" x="955" y="-100.5" font-family="Helvetica,sans-Serif" font-size="10.00">ematch_src/utils/graph</text>
<text text-anchor="middle" x="1057.5" y="-89.5" font-family="Helvetica,sans-Serif" font-size="10.00">/ConnectedComponentOnlineComputer.hh</text>
</a>
</g>
</g>
<!-- Node7&#45;&gt;Node18 -->
<g id="edge19_Node000007_Node000018" class="edge">
<title>Node7&#45;&gt;Node18</title>
<g id="a_edge19_Node000007_Node000018"><a xlink:title=" ">
<path fill="none" stroke="#63b8ff" d="M1551.37,-158.93C1453.71,-146.98 1281.13,-125.86 1168.03,-112.02"/>
<polygon fill="#63b8ff" stroke="#63b8ff" points="1551.1,-162.42 1561.45,-160.16 1551.95,-155.47 1551.1,-162.42"/>
</a>
</g>
</g>
<!-- Node25 -->
<g id="Node000025" class="node">
<title>Node25</title>
<g id="a_Node000025"><a xlink:href="utils_2graph_2MatrixGraph_8hh.html" target="_top" xlink:title=" ">
<polygon fill="white" stroke="#666666" points="1689.5,-112.5 1561.5,-112.5 1561.5,-82.5 1689.5,-82.5 1689.5,-112.5"/>
<text text-anchor="start" x="1569.5" y="-100.5" font-family="Helvetica,sans-Serif" font-size="10.00">ematch_src/utils/graph</text>
<text text-anchor="middle" x="1625.5" y="-89.5" font-family="Helvetica,sans-Serif" font-size="10.00">/MatrixGraph.hh</text>
</a>
</g>
</g>
<!-- Node7&#45;&gt;Node25 -->
<g id="edge26_Node000007_Node000025" class="edge">
<title>Node7&#45;&gt;Node25</title>
<g id="a_edge26_Node000007_Node000025"><a xlink:title=" ">
<path fill="none" stroke="#63b8ff" d="M1625.5,-143.75C1625.5,-133.31 1625.5,-121.49 1625.5,-112.54"/>
<polygon fill="#63b8ff" stroke="#63b8ff" points="1622,-143.94 1625.5,-153.94 1629,-143.94 1622,-143.94"/>
</a>
</g>
</g>
<!-- Node28 -->
<g id="Node000028" class="node">
<title>Node28</title>
<g id="a_Node000028"><a xlink:href="utils_2graph_2NeighborListGraph_8hh.html" target="_top" xlink:title=" ">
<polygon fill="white" stroke="#666666" points="3498.5,-112.5 3370.5,-112.5 3370.5,-82.5 3498.5,-82.5 3498.5,-112.5"/>
<text text-anchor="start" x="3378.5" y="-100.5" font-family="Helvetica,sans-Serif" font-size="10.00">ematch_src/utils/graph</text>
<text text-anchor="middle" x="3434.5" y="-89.5" font-family="Helvetica,sans-Serif" font-size="10.00">/NeighborListGraph.hh</text>
</a>
</g>
</g>
<!-- Node7&#45;&gt;Node28 -->
<g id="edge30_Node000007_Node000028" class="edge">
<title>Node7&#45;&gt;Node28</title>
<g id="a_edge30_Node000007_Node000028"><a xlink:title=" ">
<path fill="none" stroke="#63b8ff" d="M1699.83,-165.14C1996.47,-153.75 3092.94,-111.62 3370.38,-100.96"/>
<polygon fill="#63b8ff" stroke="#63b8ff" points="1699.48,-161.66 1689.62,-165.54 1699.74,-168.65 1699.48,-161.66"/>
</a>
</g>
</g>
<!-- Node9 -->
<g id="Node000009" class="node">
<title>Node9</title>
<g id="a_Node000009"><a xlink:href="dumpRecountNeighborProbGraphOnDisk__ConnectedComponentSize_8cc.html" target="_top" xlink:title=" ">
<polygon fill="white" stroke="#666666" points="2614.5,-41 2398.5,-41 2398.5,0 2614.5,0 2614.5,-41"/>
<text text-anchor="start" x="2406.5" y="-29" font-family="Helvetica,sans-Serif" font-size="10.00">ematch_src/dumpRecountNeighbor</text>
<text text-anchor="start" x="2406.5" y="-18" font-family="Helvetica,sans-Serif" font-size="10.00">ProbGraphOnDisk_ConnectedComponent</text>
<text text-anchor="middle" x="2506.5" y="-7" font-family="Helvetica,sans-Serif" font-size="10.00">Size.cc</text>
</a>
</g>
</g>
<!-- Node8&#45;&gt;Node9 -->
<g id="edge8_Node000008_Node000009" class="edge">
<title>Node8&#45;&gt;Node9</title>
<g id="a_edge8_Node000008_Node000009"><a xlink:title=" ">
<path fill="none" stroke="#63b8ff" d="M2506.5,-72.23C2506.5,-62.2 2506.5,-50.71 2506.5,-41.2"/>
<polygon fill="#63b8ff" stroke="#63b8ff" points="2503,-72.39 2506.5,-82.39 2510,-72.39 2503,-72.39"/>
</a>
</g>
</g>
<!-- Node10 -->
<g id="Node000010" class="node">
<title>Node10</title>
<g id="a_Node000010"><a xlink:href="graph_2run_2listConnectedComponents_8cc.html" target="_top" xlink:title=" ">
<polygon fill="white" stroke="#666666" points="2994,-35.5 2833,-35.5 2833,-5.5 2994,-5.5 2994,-35.5"/>
<text text-anchor="start" x="2841" y="-23.5" font-family="Helvetica,sans-Serif" font-size="10.00">ematch_src/graph/run</text>
<text text-anchor="middle" x="2913.5" y="-12.5" font-family="Helvetica,sans-Serif" font-size="10.00">/listConnectedComponents.cc</text>
</a>
</g>
</g>
<!-- Node8&#45;&gt;Node10 -->
<g id="edge9_Node000008_Node000010" class="edge">
<title>Node8&#45;&gt;Node10</title>
<g id="a_edge9_Node000008_Node000010"><a xlink:title=" ">
<path fill="none" stroke="#63b8ff" d="M2600.05,-81.13C2663.27,-70.5 2748.55,-55.67 2823.5,-41 2832.13,-39.31 2841.2,-37.45 2850.14,-35.56"/>
<polygon fill="#63b8ff" stroke="#63b8ff" points="2599.38,-77.7 2590.1,-82.8 2600.54,-84.6 2599.38,-77.7"/>
</a>
</g>
</g>
<!-- Node11 -->
<g id="Node000011" class="node">
<title>Node11</title>
<g id="a_Node000011"><a xlink:href="graph_2run_2printRandomRepresentativeFromEachConnectedComponent_8cc.html" target="_top" xlink:title=" ">
<polygon fill="white" stroke="#666666" points="2814.5,-41 2632.5,-41 2632.5,0 2814.5,0 2814.5,-41"/>
<text text-anchor="start" x="2640.5" y="-29" font-family="Helvetica,sans-Serif" font-size="10.00">ematch_src/graph/run</text>
<text text-anchor="start" x="2640.5" y="-18" font-family="Helvetica,sans-Serif" font-size="10.00">/printRandomRepresentativeFrom</text>
<text text-anchor="middle" x="2723.5" y="-7" font-family="Helvetica,sans-Serif" font-size="10.00">EachConnectedComponent.cc</text>
</a>
</g>
</g>
<!-- Node8&#45;&gt;Node11 -->
<g id="edge10_Node000008_Node000011" class="edge">
<title>Node8&#45;&gt;Node11</title>
<g id="a_edge10_Node000008_Node000011"><a xlink:title=" ">
<path fill="none" stroke="#63b8ff" d="M2556.91,-79.08C2589.78,-67.72 2632.72,-52.88 2666.77,-41.11"/>
<polygon fill="#63b8ff" stroke="#63b8ff" points="2555.37,-75.91 2547.06,-82.48 2557.66,-82.52 2555.37,-75.91"/>
</a>
</g>
</g>
<!-- Node12 -->
<g id="Node000012" class="node">
<title>Node12</title>
<g id="a_Node000012"><a xlink:href="graph_2test_2testConnectedComponentOnlineComputer_8cc.html" target="_top" xlink:title=" ">
<polygon fill="white" stroke="#666666" points="2380.5,-41 2202.5,-41 2202.5,0 2380.5,0 2380.5,-41"/>
<text text-anchor="start" x="2210.5" y="-29" font-family="Helvetica,sans-Serif" font-size="10.00">ematch_src/graph/test</text>
<text text-anchor="start" x="2210.5" y="-18" font-family="Helvetica,sans-Serif" font-size="10.00">/testConnectedComponentOnline</text>
<text text-anchor="middle" x="2291.5" y="-7" font-family="Helvetica,sans-Serif" font-size="10.00">Computer.cc</text>
</a>
</g>
</g>
<!-- Node8&#45;&gt;Node12 -->
<g id="edge11_Node000008_Node000012" class="edge">
<title>Node8&#45;&gt;Node12</title>
<g id="a_edge11_Node000008_Node000012"><a xlink:title=" ">
<path fill="none" stroke="#63b8ff" d="M2456.55,-79.08C2423.99,-67.72 2381.45,-52.88 2347.71,-41.11"/>
<polygon fill="#63b8ff" stroke="#63b8ff" points="2455.72,-82.49 2466.31,-82.48 2458.02,-75.88 2455.72,-82.49"/>
</a>
</g>
</g>
<!-- Node13&#45;&gt;Node12 -->
<g id="edge14_Node000013_Node000012" class="edge">
<title>Node13&#45;&gt;Node12</title>
<g id="a_edge14_Node000013_Node000012"><a xlink:title=" ">
<path fill="none" stroke="#63b8ff" d="M2049.63,-85.37C2093.82,-73.7 2164.14,-55.13 2217.59,-41.02"/>
<polygon fill="#63b8ff" stroke="#63b8ff" points="2048.58,-82.03 2039.8,-87.97 2050.36,-88.8 2048.58,-82.03"/>
</a>
</g>
</g>
<!-- Node14 -->
<g id="Node000014" class="node">
<title>Node14</title>
<g id="a_Node000014"><a xlink:href="graph_2MatrixGraph_8cc.html" target="_top" xlink:title=" ">
<polygon fill="white" stroke="#666666" points="2184,-30 2003,-30 2003,-11 2184,-11 2184,-30"/>
<text text-anchor="middle" x="2093.5" y="-18" font-family="Helvetica,sans-Serif" font-size="10.00">ematch_src/graph/MatrixGraph.cc</text>
</a>
</g>
</g>
<!-- Node13&#45;&gt;Node14 -->
<g id="edge13_Node000013_Node000014" class="edge">
<title>Node13&#45;&gt;Node14</title>
<g id="a_edge13_Node000013_Node000014"><a xlink:title=" ">
<path fill="none" stroke="#63b8ff" d="M2025.26,-81.01C2042.98,-65.55 2069.56,-42.38 2083.75,-30"/>
<polygon fill="#63b8ff" stroke="#63b8ff" points="2022.6,-78.69 2017.37,-87.9 2027.2,-83.96 2022.6,-78.69"/>
</a>
</g>
</g>
<!-- Node15 -->
<g id="Node000015" class="node">
<title>Node15</title>
<g id="a_Node000015"><a xlink:href="graph_2test_2testMatrixGraph_8cc.html" target="_top" xlink:title=" ">
<polygon fill="white" stroke="#666666" points="1985,-35.5 1860,-35.5 1860,-5.5 1985,-5.5 1985,-35.5"/>
<text text-anchor="start" x="1868" y="-23.5" font-family="Helvetica,sans-Serif" font-size="10.00">ematch_src/graph/test</text>
<text text-anchor="middle" x="1922.5" y="-12.5" font-family="Helvetica,sans-Serif" font-size="10.00">/testMatrixGraph.cc</text>
</a>
</g>
</g>
<!-- Node13&#45;&gt;Node15 -->
<g id="edge15_Node000013_Node000015" class="edge">
<title>Node13&#45;&gt;Node15</title>
<g id="a_edge15_Node000013_Node000015"><a xlink:title=" ">
<path fill="none" stroke="#63b8ff" d="M1990.11,-81.15C1974.97,-67.8 1953.21,-48.59 1938.49,-35.61"/>
<polygon fill="#63b8ff" stroke="#63b8ff" points="1987.94,-83.9 1997.75,-87.9 1992.57,-78.66 1987.94,-83.9"/>
</a>
</g>
</g>
<!-- Node16&#45;&gt;Node4 -->
<g id="edge17_Node000016_Node000004" class="edge">
<title>Node16&#45;&gt;Node4</title>
<g id="a_edge17_Node000016_Node000004"><a xlink:title=" ">
<path fill="none" stroke="#63b8ff" d="M486.57,-80.46C480.14,-79.21 473.71,-78.03 467.5,-77 331.55,-54.38 295.28,-64.62 159.5,-41 150.65,-39.46 141.33,-37.57 132.26,-35.58"/>
<polygon fill="#63b8ff" stroke="#63b8ff" points="486.16,-83.95 496.65,-82.48 487.54,-77.08 486.16,-83.95"/>
</a>
</g>
</g>
<!-- Node17 -->
<g id="Node000017" class="node">
<title>Node17</title>
<g id="a_Node000017"><a xlink:href="graph_2run_2runAllShortestEdgeLengthPaths_8cc.html" target="_top" xlink:title=" ">
<polygon fill="white" stroke="#666666" points="354,-35.5 169,-35.5 169,-5.5 354,-5.5 354,-35.5"/>
<text text-anchor="start" x="177" y="-23.5" font-family="Helvetica,sans-Serif" font-size="10.00">ematch_src/graph/run</text>
<text text-anchor="middle" x="261.5" y="-12.5" font-family="Helvetica,sans-Serif" font-size="10.00">/runAllShortestEdgeLengthPaths.cc</text>
</a>
</g>
</g>
<!-- Node16&#45;&gt;Node17 -->
<g id="edge18_Node000016_Node000017" class="edge">
<title>Node16&#45;&gt;Node17</title>
<g id="a_edge18_Node000016_Node000017"><a xlink:title=" ">
<path fill="none" stroke="#63b8ff" d="M492.27,-79.97C439.69,-66.65 366.55,-48.12 316.81,-35.51"/>
<polygon fill="#63b8ff" stroke="#63b8ff" points="491.62,-83.42 502.17,-82.48 493.34,-76.63 491.62,-83.42"/>
</a>
</g>
</g>
<!-- Node19 -->
<g id="Node000019" class="node">
<title>Node19</title>
<g id="a_Node000019"><a xlink:href="graph_2ConnectedComponentOnlineComputer_8cc.html" target="_top" xlink:title=" ">
<polygon fill="white" stroke="#666666" points="537,-35.5 372,-35.5 372,-5.5 537,-5.5 537,-35.5"/>
<text text-anchor="start" x="380" y="-23.5" font-family="Helvetica,sans-Serif" font-size="10.00">ematch_src/graph/Connected</text>
<text text-anchor="middle" x="454.5" y="-12.5" font-family="Helvetica,sans-Serif" font-size="10.00">ComponentOnlineComputer.cc</text>
</a>
</g>
</g>
<!-- Node18&#45;&gt;Node19 -->
<g id="edge20_Node000018_Node000019" class="edge">
<title>Node18&#45;&gt;Node19</title>
<g id="a_edge20_Node000018_Node000019"><a xlink:title=" ">
<path fill="none" stroke="#63b8ff" d="M936.72,-86.84C832.89,-77.7 679.32,-62.23 546.5,-41 536.83,-39.45 526.63,-37.56 516.7,-35.57"/>
<polygon fill="#63b8ff" stroke="#63b8ff" points="936.66,-90.34 946.93,-87.73 937.27,-83.37 936.66,-90.34"/>
</a>
</g>
</g>
<!-- Node20 -->
<g id="Node000020" class="node">
<title>Node20</title>
<g id="a_Node000020"><a xlink:href="utils_2graph_2ConnectedComponentOnlineComputer_8cc.html" target="_top" xlink:title=" ">
<polygon fill="white" stroke="#666666" points="775.5,-35.5 555.5,-35.5 555.5,-5.5 775.5,-5.5 775.5,-35.5"/>
<text text-anchor="start" x="563.5" y="-23.5" font-family="Helvetica,sans-Serif" font-size="10.00">ematch_src/utils/graph</text>
<text text-anchor="middle" x="665.5" y="-12.5" font-family="Helvetica,sans-Serif" font-size="10.00">/ConnectedComponentOnlineComputer.cc</text>
</a>
</g>
</g>
<!-- Node18&#45;&gt;Node20 -->
<g id="edge21_Node000018_Node000020" class="edge">
<title>Node18&#45;&gt;Node20</title>
<g id="a_edge21_Node000018_Node000020"><a xlink:title=" ">
<path fill="none" stroke="#63b8ff" d="M974.14,-80.55C904.3,-67.19 805.58,-48.3 738.74,-35.51"/>
<polygon fill="#63b8ff" stroke="#63b8ff" points="973.75,-84.04 984.23,-82.48 975.06,-77.16 973.75,-84.04"/>
</a>
</g>
</g>
<!-- Node21 -->
<g id="Node000021" class="node">
<title>Node21</title>
<g id="a_Node000021"><a xlink:href="utils_2graph_2run_2listConnectedComponents_8cc.html" target="_top" xlink:title=" ">
<polygon fill="white" stroke="#666666" points="1543.5,-35.5 1363.5,-35.5 1363.5,-5.5 1543.5,-5.5 1543.5,-35.5"/>
<text text-anchor="start" x="1371.5" y="-23.5" font-family="Helvetica,sans-Serif" font-size="10.00">ematch_src/utils/graph</text>
<text text-anchor="middle" x="1453.5" y="-12.5" font-family="Helvetica,sans-Serif" font-size="10.00">/run/listConnectedComponents.cc</text>
</a>
</g>
</g>
<!-- Node18&#45;&gt;Node21 -->
<g id="edge22_Node000018_Node000021" class="edge">
<title>Node18&#45;&gt;Node21</title>
<g id="a_edge22_Node000018_Node000021"><a xlink:title=" ">
<path fill="none" stroke="#63b8ff" d="M1143.91,-80.58C1203.19,-69.61 1283.64,-54.6 1354.5,-41 1363.62,-39.25 1373.2,-37.39 1382.67,-35.54"/>
<polygon fill="#63b8ff" stroke="#63b8ff" points="1143.04,-77.18 1133.84,-82.45 1144.31,-84.07 1143.04,-77.18"/>
</a>
</g>
</g>
<!-- Node22 -->
<g id="Node000022" class="node">
<title>Node22</title>
<g id="a_Node000022"><a xlink:href="utils_2graph_2run_2printRandomRepresentativeFromEachConnectedComponent_8cc.html" target="_top" xlink:title=" ">
<polygon fill="white" stroke="#666666" points="1345.5,-41 1159.5,-41 1159.5,0 1345.5,0 1345.5,-41"/>
<text text-anchor="start" x="1167.5" y="-29" font-family="Helvetica,sans-Serif" font-size="10.00">ematch_src/utils/graph</text>
<text text-anchor="start" x="1167.5" y="-18" font-family="Helvetica,sans-Serif" font-size="10.00">/run/printRandomRepresentative</text>
<text text-anchor="middle" x="1252.5" y="-7" font-family="Helvetica,sans-Serif" font-size="10.00">FromEachConnectedComponent.cc</text>
</a>
</g>
</g>
<!-- Node18&#45;&gt;Node22 -->
<g id="edge23_Node000018_Node000022" class="edge">
<title>Node18&#45;&gt;Node22</title>
<g id="a_edge23_Node000018_Node000022"><a xlink:title=" ">
<path fill="none" stroke="#63b8ff" d="M1103.8,-78.69C1133.24,-67.37 1171.36,-52.71 1201.64,-41.06"/>
<polygon fill="#63b8ff" stroke="#63b8ff" points="1102.26,-75.54 1094.18,-82.39 1104.77,-82.07 1102.26,-75.54"/>
</a>
</g>
</g>
<!-- Node23 -->
<g id="Node000023" class="node">
<title>Node23</title>
<g id="a_Node000023"><a xlink:href="utils_2graph_2test_2testConnectedComponentOnlineComputer_8cc.html" target="_top" xlink:title=" ">
<polygon fill="white" stroke="#666666" points="1141.5,-41 973.5,-41 973.5,0 1141.5,0 1141.5,-41"/>
<text text-anchor="start" x="981.5" y="-29" font-family="Helvetica,sans-Serif" font-size="10.00">ematch_src/utils/graph</text>
<text text-anchor="start" x="981.5" y="-18" font-family="Helvetica,sans-Serif" font-size="10.00">/test/testConnectedComponent</text>
<text text-anchor="middle" x="1057.5" y="-7" font-family="Helvetica,sans-Serif" font-size="10.00">OnlineComputer.cc</text>
</a>
</g>
</g>
<!-- Node18&#45;&gt;Node23 -->
<g id="edge24_Node000018_Node000023" class="edge">
<title>Node18&#45;&gt;Node23</title>
<g id="a_edge24_Node000018_Node000023"><a xlink:title=" ">
<path fill="none" stroke="#63b8ff" d="M1057.5,-72.23C1057.5,-62.2 1057.5,-50.71 1057.5,-41.2"/>
<polygon fill="#63b8ff" stroke="#63b8ff" points="1054,-72.39 1057.5,-82.39 1061,-72.39 1054,-72.39"/>
</a>
</g>
</g>
<!-- Node24 -->
<g id="Node000024" class="node">
<title>Node24</title>
<g id="a_Node000024"><a xlink:href="clusterByIdentity_8cc.html" target="_top" xlink:title=" ">
<polygon fill="white" stroke="#666666" points="955,-35.5 794,-35.5 794,-5.5 955,-5.5 955,-35.5"/>
<text text-anchor="start" x="802" y="-23.5" font-family="Helvetica,sans-Serif" font-size="10.00">ematch_src/utils/sequence</text>
<text text-anchor="middle" x="874.5" y="-12.5" font-family="Helvetica,sans-Serif" font-size="10.00">/align/run/clusterByIdentity.cc</text>
</a>
</g>
</g>
<!-- Node18&#45;&gt;Node24 -->
<g id="edge25_Node000018_Node000024" class="edge">
<title>Node18&#45;&gt;Node24</title>
<g id="a_edge25_Node000018_Node000024"><a xlink:title=" ">
<path fill="none" stroke="#63b8ff" d="M1013.48,-78.46C981.33,-65.28 938.37,-47.68 908.77,-35.54"/>
<polygon fill="#63b8ff" stroke="#63b8ff" points="1012.5,-81.84 1023.08,-82.39 1015.15,-75.36 1012.5,-81.84"/>
</a>
</g>
</g>
<!-- Node25&#45;&gt;Node23 -->
<g id="edge28_Node000025_Node000023" class="edge">
<title>Node25&#45;&gt;Node23</title>
<g id="a_edge28_Node000025_Node000023"><a xlink:title=" ">
<path fill="none" stroke="#63b8ff" d="M1551.25,-89.92C1457.52,-81.13 1291.49,-63.97 1150.5,-41 1147.57,-40.52 1144.59,-40.02 1141.59,-39.49"/>
<polygon fill="#63b8ff" stroke="#63b8ff" points="1551.19,-93.43 1561.48,-90.87 1551.84,-86.46 1551.19,-93.43"/>
</a>
</g>
</g>
<!-- Node26 -->
<g id="Node000026" class="node">
<title>Node26</title>
<g id="a_Node000026"><a xlink:href="utils_2graph_2MatrixGraph_8cc.html" target="_top" xlink:title=" ">
<polygon fill="white" stroke="#666666" points="1689.5,-35.5 1561.5,-35.5 1561.5,-5.5 1689.5,-5.5 1689.5,-35.5"/>
<text text-anchor="start" x="1569.5" y="-23.5" font-family="Helvetica,sans-Serif" font-size="10.00">ematch_src/utils/graph</text>
<text text-anchor="middle" x="1625.5" y="-12.5" font-family="Helvetica,sans-Serif" font-size="10.00">/MatrixGraph.cc</text>
</a>
</g>
</g>
<!-- Node25&#45;&gt;Node26 -->
<g id="edge27_Node000025_Node000026" class="edge">
<title>Node25&#45;&gt;Node26</title>
<g id="a_edge27_Node000025_Node000026"><a xlink:title=" ">
<path fill="none" stroke="#63b8ff" d="M1625.5,-72.04C1625.5,-59.95 1625.5,-45.79 1625.5,-35.54"/>
<polygon fill="#63b8ff" stroke="#63b8ff" points="1622,-72.39 1625.5,-82.39 1629,-72.39 1622,-72.39"/>
</a>
</g>
</g>
<!-- Node27 -->
<g id="Node000027" class="node">
<title>Node27</title>
<g id="a_Node000027"><a xlink:href="utils_2graph_2test_2testMatrixGraph_8cc.html" target="_top" xlink:title=" ">
<polygon fill="white" stroke="#666666" points="1841.5,-35.5 1707.5,-35.5 1707.5,-5.5 1841.5,-5.5 1841.5,-35.5"/>
<text text-anchor="start" x="1715.5" y="-23.5" font-family="Helvetica,sans-Serif" font-size="10.00">ematch_src/utils/graph</text>
<text text-anchor="middle" x="1774.5" y="-12.5" font-family="Helvetica,sans-Serif" font-size="10.00">/test/testMatrixGraph.cc</text>
</a>
</g>
</g>
<!-- Node25&#45;&gt;Node27 -->
<g id="edge29_Node000025_Node000027" class="edge">
<title>Node25&#45;&gt;Node27</title>
<g id="a_edge29_Node000025_Node000027"><a xlink:title=" ">
<path fill="none" stroke="#63b8ff" d="M1662.71,-77.77C1688.72,-64.68 1722.91,-47.47 1746.6,-35.54"/>
<polygon fill="#63b8ff" stroke="#63b8ff" points="1660.88,-74.77 1653.53,-82.39 1664.03,-81.02 1660.88,-74.77"/>
</a>
</g>
</g>
<!-- Node29 -->
<g id="Node000029" class="node">
<title>Node29</title>
<g id="a_Node000029"><a xlink:href="utils_2graph_2NeighborListGraph_8cc.html" target="_top" xlink:title=" ">
<polygon fill="white" stroke="#666666" points="3498.5,-35.5 3370.5,-35.5 3370.5,-5.5 3498.5,-5.5 3498.5,-35.5"/>
<text text-anchor="start" x="3378.5" y="-23.5" font-family="Helvetica,sans-Serif" font-size="10.00">ematch_src/utils/graph</text>
<text text-anchor="middle" x="3434.5" y="-12.5" font-family="Helvetica,sans-Serif" font-size="10.00">/NeighborListGraph.cc</text>
</a>
</g>
</g>
<!-- Node28&#45;&gt;Node29 -->
<g id="edge31_Node000028_Node000029" class="edge">
<title>Node28&#45;&gt;Node29</title>
<g id="a_edge31_Node000028_Node000029"><a xlink:title=" ">
<path fill="none" stroke="#63b8ff" d="M3434.5,-72.04C3434.5,-59.95 3434.5,-45.79 3434.5,-35.54"/>
<polygon fill="#63b8ff" stroke="#63b8ff" points="3431,-72.39 3434.5,-82.39 3438,-72.39 3431,-72.39"/>
</a>
</g>
</g>
<!-- Node30 -->
<g id="Node000030" class="node">
<title>Node30</title>
<g id="a_Node000030"><a xlink:href="utils_2graph_2run_2runAllShortestEdgeLengthPaths_8cc.html" target="_top" xlink:title=" ">
<polygon fill="white" stroke="#666666" points="3680.5,-41 3516.5,-41 3516.5,0 3680.5,0 3680.5,-41"/>
<text text-anchor="start" x="3524.5" y="-29" font-family="Helvetica,sans-Serif" font-size="10.00">ematch_src/utils/graph</text>
<text text-anchor="start" x="3524.5" y="-18" font-family="Helvetica,sans-Serif" font-size="10.00">/run/runAllShortestEdgeLength</text>
<text text-anchor="middle" x="3598.5" y="-7" font-family="Helvetica,sans-Serif" font-size="10.00">Paths.cc</text>
</a>
</g>
</g>
<!-- Node28&#45;&gt;Node30 -->
<g id="edge32_Node000028_Node000030" class="edge">
<title>Node28&#45;&gt;Node30</title>
<g id="a_edge32_Node000028_Node000030"><a xlink:title=" ">
<path fill="none" stroke="#63b8ff" d="M3474.74,-78.1C3499.31,-66.86 3530.7,-52.5 3555.72,-41.06"/>
<polygon fill="#63b8ff" stroke="#63b8ff" points="3472.99,-75.05 3465.35,-82.39 3475.9,-81.42 3472.99,-75.05"/>
</a>
</g>
</g>
<!-- Node31&#45;&gt;Node10 -->
<g id="edge34_Node000031_Node000010" class="edge">
<title>Node31&#45;&gt;Node10</title>
<g id="a_edge34_Node000031_Node000010"><a xlink:title=" ">
<path fill="none" stroke="#63b8ff" d="M2844.43,-76.03C2860.71,-63.18 2881.27,-46.94 2895.71,-35.54"/>
<polygon fill="#63b8ff" stroke="#63b8ff" points="2842.05,-73.45 2836.37,-82.39 2846.39,-78.94 2842.05,-73.45"/>
</a>
</g>
</g>
<!-- Node31&#45;&gt;Node11 -->
<g id="edge35_Node000031_Node000011" class="edge">
<title>Node31&#45;&gt;Node11</title>
<g id="a_edge35_Node000031_Node000011"><a xlink:title=" ">
<path fill="none" stroke="#63b8ff" d="M2792.53,-76C2778.8,-65.16 2762.03,-51.92 2748.46,-41.2"/>
<polygon fill="#63b8ff" stroke="#63b8ff" points="2790.61,-78.94 2800.63,-82.39 2794.95,-73.45 2790.61,-78.94"/>
</a>
</g>
</g>
<!-- Node31&#45;&gt;Node21 -->
<g id="edge39_Node000031_Node000021" class="edge">
<title>Node31&#45;&gt;Node21</title>
<g id="a_edge39_Node000031_Node000021"><a xlink:title=" ">
<path fill="none" stroke="#63b8ff" d="M2733.7,-87.87C2693.13,-84.01 2643.84,-79.73 2599.5,-77 2134.77,-48.34 2015.06,-94.16 1552.5,-41 1540.84,-39.66 1528.5,-37.69 1516.64,-35.5"/>
<polygon fill="#63b8ff" stroke="#63b8ff" points="2733.53,-91.37 2743.82,-88.84 2734.2,-84.4 2733.53,-91.37"/>
</a>
</g>
</g>
<!-- Node31&#45;&gt;Node22 -->
<g id="edge40_Node000031_Node000022" class="edge">
<title>Node31&#45;&gt;Node22</title>
<g id="a_edge40_Node000031_Node000022"><a xlink:title=" ">
<path fill="none" stroke="#63b8ff" d="M2733.71,-87.76C2693.14,-83.88 2643.85,-79.61 2599.5,-77 2046.89,-44.44 1904.79,-101.17 1354.5,-41 1351.54,-40.68 1348.54,-40.31 1345.52,-39.92"/>
<polygon fill="#63b8ff" stroke="#63b8ff" points="2733.54,-91.26 2743.83,-88.73 2734.21,-84.29 2733.54,-91.26"/>
</a>
</g>
</g>
<!-- Node31&#45;&gt;Node29 -->
<g id="edge36_Node000031_Node000029" class="edge">
<title>Node31&#45;&gt;Node29</title>
<g id="a_edge36_Node000031_Node000029"><a xlink:title=" ">
<path fill="none" stroke="#63b8ff" d="M2903.37,-92.02C3010.74,-85.39 3201,-70.44 3361.5,-41 3369.5,-39.53 3377.91,-37.63 3386.05,-35.59"/>
<polygon fill="#63b8ff" stroke="#63b8ff" points="2903.02,-88.53 2893.25,-92.63 2903.44,-95.52 2903.02,-88.53"/>
</a>
</g>
</g>
<!-- Node32 -->
<g id="Node000032" class="node">
<title>Node32</title>
<g id="a_Node000032"><a xlink:href="utils_2graph_2OneEdgePerLineFormat_8cc.html" target="_top" xlink:title=" ">
<polygon fill="white" stroke="#666666" points="3159,-35.5 3012,-35.5 3012,-5.5 3159,-5.5 3159,-35.5"/>
<text text-anchor="start" x="3020" y="-23.5" font-family="Helvetica,sans-Serif" font-size="10.00">ematch_src/utils/graph</text>
<text text-anchor="middle" x="3085.5" y="-12.5" font-family="Helvetica,sans-Serif" font-size="10.00">/OneEdgePerLineFormat.cc</text>
</a>
</g>
</g>
<!-- Node31&#45;&gt;Node32 -->
<g id="edge37_Node000031_Node000032" class="edge">
<title>Node31&#45;&gt;Node32</title>
<g id="a_edge37_Node000031_Node000032"><a xlink:title=" ">
<path fill="none" stroke="#63b8ff" d="M2878.21,-79.73C2925.5,-66.44 2990.79,-48.1 3035.38,-35.58"/>
<polygon fill="#63b8ff" stroke="#63b8ff" points="2877.09,-76.41 2868.41,-82.48 2878.98,-83.15 2877.09,-76.41"/>
</a>
</g>
</g>
<!-- Node33 -->
<g id="Node000033" class="node">
<title>Node33</title>
<g id="a_Node000033"><a xlink:href="utils_2graph_2run_2convertMultipleEdgePerLineToOneEdgePerLineFormat_8cc.html" target="_top" xlink:title=" ">
<polygon fill="white" stroke="#666666" points="3352,-41 3177,-41 3177,0 3352,0 3352,-41"/>
<text text-anchor="start" x="3185" y="-29" font-family="Helvetica,sans-Serif" font-size="10.00">ematch_src/utils/graph</text>
<text text-anchor="start" x="3185" y="-18" font-family="Helvetica,sans-Serif" font-size="10.00">/run/convertMultipleEdgePerLine</text>
<text text-anchor="middle" x="3264.5" y="-7" font-family="Helvetica,sans-Serif" font-size="10.00">ToOneEdgePerLineFormat.cc</text>
</a>
</g>
</g>
<!-- Node31&#45;&gt;Node33 -->
<g id="edge38_Node000031_Node000033" class="edge">
<title>Node31&#45;&gt;Node33</title>
<g id="a_edge38_Node000031_Node000033"><a xlink:title=" ">
<path fill="none" stroke="#63b8ff" d="M2903.31,-84.1C2974.3,-73.47 3078.19,-57.32 3168.5,-41 3171.26,-40.5 3174.07,-39.99 3176.9,-39.46"/>
<polygon fill="#63b8ff" stroke="#63b8ff" points="2902.45,-80.69 2893.08,-85.63 2903.49,-87.61 2902.45,-80.69"/>
</a>
</g>
</g>
</g>
</svg>

<g id="navigator" transform="translate(0 0)" fill="#404254">
  <rect fill="#f2f5e9" fill-opacity="0.5" stroke="#606060" stroke-width=".5" x="0" y="0" width="60" height="60"/>
  <use id="zoomplus" xlink:href="#zoomPlus" x="17" y="9" onmousedown="handleZoom(evt,'in')"/>
  <use id="zoomminus" xlink:href="#zoomMin" x="42" y="9" onmousedown="handleZoom(evt,'out')"/>
  <use id="reset" xlink:href="#resetDef" x="30" y="36" onmousedown="handleReset()"/>
   <use id="arrowup" xlink:href="#arrowUp" x="0" y="0" onmousedown="handlePan(0,-1)"/>
  <use id="arrowright" xlink:href="#arrowRight" x="0" y="0" onmousedown="handlePan(1,0)"/>
  <use id="arrowdown" xlink:href="#arrowDown" x="0" y="0" onmousedown="handlePan(0,1)"/>
  <use id="arrowleft" xlink:href="#arrowLeft" x="0" y="0" onmousedown="handlePan(-1,0)"/>
</g>
<svg viewBox="0 0 15 15" width="100%" height="30px" preserveAspectRatio="xMaxYMin meet">
 <g id="arrow_out" transform="scale(0.3 0.3)">
  <a xlink:href="utils_2graph_2graphTypes_8hh__dep__incl_org.svg" target="_base">
   <rect id="button" ry="5" rx="5" y="6" x="6" height="38" width="38"
        fill="#f2f5e9" fill-opacity="0.5" stroke="#606060" stroke-width="1.0"/>
   <path id="arrow"
     d="M 11.500037,31.436501 C 11.940474,20.09759 22.043105,11.32322 32.158766,21.979434 L 37.068811,17.246167 C 37.068811,17.246167 37.088388,32 37.088388,32 L 22.160133,31.978069 C 22.160133,31.978069 26.997745,27.140456 26.997745,27.140456 C 18.528582,18.264221 13.291696,25.230495 11.500037,31.436501 z"
     style="fill:#404040;"/>
  </a>
 </g>
</svg>

<style type='text/css'>
<![CDATA[
[data-mouse-over-selected='false'] { opacity: 0.7; }
[data-mouse-over-selected='true']  { opacity: 1.0; }
]]>
</style>
<script type="application/ecmascript"><![CDATA[
document.addEventListener('DOMContentLoaded', (event) => {
  highlightEdges();
  highlightAdjacentNodes();
});
]]></script>
</svg>
