<?xml version="1.0" encoding="UTF-8" standalone="no"?>
<!DOCTYPE svg PUBLIC "-//W3C//DTD SVG 1.1//EN"
 "http://www.w3.org/Graphics/SVG/1.1/DTD/svg11.dtd">
<!-- Generated by graphviz version 2.43.0 (0)
 -->
<!-- Title: main Pages: 1 -->
<svg width="1010pt" height="518pt"
 viewBox="0.00 0.00 1010.00 517.92" xmlns="http://www.w3.org/2000/svg" xmlns:xlink="http://www.w3.org/1999/xlink">
<g id="graph0" class="graph" transform="scale(1 1) rotate(0) translate(4 513.92)">
<title>main</title>
<!-- Node1 -->
<g id="Node000001" class="node">
<title>Node1</title>
<g id="a_Node000001"><a xlink:title=" ">
<polygon fill="#999999" stroke="#666666" points="41,-321.92 0,-321.92 0,-302.92 41,-302.92 41,-321.92"/>
<text text-anchor="middle" x="20.5" y="-309.92" font-family="Helvetica,sans-Serif" font-size="10.00">main</text>
</a>
</g>
</g>
<!-- Node2 -->
<g id="Node000002" class="node">
<title>Node2</title>
<g id="a_Node000002"><a xlink:href="classcbrc_1_1ArgvParser.html#a74359749acfafee36c21d20b237d1cc2" target="_top" xlink:title=" ">
<polygon fill="white" stroke="#666666" points="259,-378.92 77,-378.92 77,-359.92 259,-359.92 259,-378.92"/>
<text text-anchor="middle" x="168" y="-366.92" font-family="Helvetica,sans-Serif" font-size="10.00">cbrc::ArgvParser::dieIfUnusedArgs</text>
</a>
</g>
</g>
<!-- Node1&#45;&gt;Node2 -->
<g id="edge1_Node000001_Node000002" class="edge">
<title>Node1&#45;&gt;Node2</title>
<g id="a_edge1_Node000001_Node000002"><a xlink:title=" ">
<path fill="none" stroke="#63b8ff" d="M35.08,-321.94C45.99,-329.22 61.92,-339.06 77,-345.42 87.84,-349.98 99.78,-353.88 111.32,-357.14"/>
<polygon fill="#63b8ff" stroke="#63b8ff" points="110.76,-360.61 121.32,-359.83 112.58,-353.85 110.76,-360.61"/>
</a>
</g>
</g>
<!-- Node7 -->
<g id="Node000007" class="node">
<title>Node7</title>
<g id="a_Node000007"><a xlink:href="classcbrc_1_1ArgvParser.html#a8e03423da9e8217c5c6e65f0ff403a1a" target="_top" xlink:title=" ">
<polygon fill="white" stroke="#666666" points="455,-341.92 312,-341.92 312,-322.92 455,-322.92 455,-341.92"/>
<text text-anchor="middle" x="383.5" y="-329.92" font-family="Helvetica,sans-Serif" font-size="10.00">cbrc::ArgvParser::printDoc</text>
</a>
</g>
</g>
<!-- Node1&#45;&gt;Node7 -->
<g id="edge15_Node000001_Node000007" class="edge">
<title>Node1&#45;&gt;Node7</title>
<g id="a_edge15_Node000001_Node000007"><a xlink:title=" ">
<path fill="none" stroke="#63b8ff" d="M41.17,-313.51C89.66,-316.19 217.17,-323.26 301.87,-327.95"/>
<polygon fill="#63b8ff" stroke="#63b8ff" points="301.8,-331.45 311.98,-328.51 302.19,-324.46 301.8,-331.45"/>
</a>
</g>
</g>
<!-- Node12 -->
<g id="Node000012" class="node">
<title>Node12</title>
<g id="a_Node000012"><a xlink:href="classcbrc_1_1ArgvParser.html#a429485e0298628a2f8f61364e9cc2df1" target="_top" xlink:title=" ">
<polygon fill="white" stroke="#666666" points="252,-195.42 84,-195.42 84,-165.42 252,-165.42 252,-195.42"/>
<text text-anchor="start" x="92" y="-183.42" font-family="Helvetica,sans-Serif" font-size="10.00">cbrc::ArgvParser::setCautiously</text>
<text text-anchor="middle" x="168" y="-172.42" font-family="Helvetica,sans-Serif" font-size="10.00">OrDie</text>
</a>
</g>
</g>
<!-- Node1&#45;&gt;Node12 -->
<g id="edge16_Node000001_Node000012" class="edge">
<title>Node1&#45;&gt;Node12</title>
<g id="a_edge16_Node000001_Node000012"><a xlink:title=" ">
<path fill="none" stroke="#63b8ff" d="M32.44,-302.49C55.71,-281.38 110.63,-231.56 142.65,-202.51"/>
<polygon fill="#63b8ff" stroke="#63b8ff" points="145.21,-204.91 150.26,-195.6 140.5,-199.73 145.21,-204.91"/>
</a>
</g>
</g>
<!-- Node18 -->
<g id="Node000018" class="node">
<title>Node18</title>
<g id="a_Node000018"><a xlink:href="classcbrc_1_1ArgvParser.html#a436fd5f0fd31d5e4d0fae8670897ffe4" target="_top" xlink:title=" ">
<polygon fill="white" stroke="#666666" points="235.5,-302.92 100.5,-302.92 100.5,-283.92 235.5,-283.92 235.5,-302.92"/>
<text text-anchor="middle" x="168" y="-290.92" font-family="Helvetica,sans-Serif" font-size="10.00">cbrc::ArgvParser::setDoc</text>
</a>
</g>
</g>
<!-- Node1&#45;&gt;Node18 -->
<g id="edge26_Node000001_Node000018" class="edge">
<title>Node1&#45;&gt;Node18</title>
<g id="a_edge26_Node000001_Node000018"><a xlink:title=" ">
<path fill="none" stroke="#63b8ff" d="M41.12,-309.85C54.08,-308.16 71.99,-305.82 90.23,-303.44"/>
<polygon fill="#63b8ff" stroke="#63b8ff" points="90.91,-306.88 100.37,-302.12 90,-299.94 90.91,-306.88"/>
</a>
</g>
</g>
<!-- Node19 -->
<g id="Node000019" class="node">
<title>Node19</title>
<g id="a_Node000019"><a xlink:href="classcbrc_1_1ArgvParser.html#a4c8336b8cd01c009285d5f0ba688254c" target="_top" xlink:title=" ">
<polygon fill="white" stroke="#666666" points="240,-76.92 96,-76.92 96,-57.92 240,-57.92 240,-76.92"/>
<text text-anchor="middle" x="168" y="-64.92" font-family="Helvetica,sans-Serif" font-size="10.00">cbrc::ArgvParser::setOrDie</text>
</a>
</g>
</g>
<!-- Node1&#45;&gt;Node19 -->
<g id="edge27_Node000001_Node000019" class="edge">
<title>Node1&#45;&gt;Node19</title>
<g id="a_edge27_Node000001_Node000019"><a xlink:title=" ">
<path fill="none" stroke="#63b8ff" d="M23.39,-302.61C28.65,-276.95 45.22,-206.39 77,-156.42 95.78,-126.89 126.02,-99.65 146.2,-83.29"/>
<polygon fill="#63b8ff" stroke="#63b8ff" points="148.51,-85.92 154.17,-76.97 144.16,-80.44 148.51,-85.92"/>
</a>
</g>
</g>
<!-- Node20 -->
<g id="Node000020" class="node">
<title>Node20</title>
<g id="a_Node000020"><a xlink:href="namespacecbrc.html#a4a68795015792fe51b4e704d84459b2d" target="_top" xlink:title=" ">
<polygon fill="white" stroke="#666666" points="244,-462.42 92,-462.42 92,-432.42 244,-432.42 244,-462.42"/>
<text text-anchor="start" x="100" y="-450.42" font-family="Helvetica,sans-Serif" font-size="10.00">cbrc::writeRecountNeighbor</text>
<text text-anchor="middle" x="168" y="-439.42" font-family="Helvetica,sans-Serif" font-size="10.00">ProbGraph</text>
</a>
</g>
</g>
<!-- Node1&#45;&gt;Node20 -->
<g id="edge32_Node000001_Node000020" class="edge">
<title>Node1&#45;&gt;Node20</title>
<g id="a_edge32_Node000001_Node000020"><a xlink:title=" ">
<path fill="none" stroke="#63b8ff" d="M27.03,-322.15C36.07,-337.5 55.21,-367.7 77,-388.42 92.68,-403.32 112.59,-416.82 129.7,-427.13"/>
<polygon fill="#63b8ff" stroke="#63b8ff" points="127.96,-430.16 138.35,-432.22 131.51,-424.13 127.96,-430.16"/>
</a>
</g>
</g>
<!-- Node3 -->
<g id="Node000003" class="node">
<title>Node3</title>
<g id="a_Node000003"><a xlink:href="classcbrc_1_1ArgvParser.html#aad8dc9d595217cf4ad2a7f557371d3ab" target="_top" xlink:title=" ">
<polygon fill="white" stroke="#666666" points="653.5,-265.92 537.5,-265.92 537.5,-246.92 653.5,-246.92 653.5,-265.92"/>
<text text-anchor="middle" x="595.5" y="-253.92" font-family="Helvetica,sans-Serif" font-size="10.00">cbrc::ArgvParser::die</text>
</a>
</g>
</g>
<!-- Node2&#45;&gt;Node3 -->
<g id="edge2_Node000002_Node000003" class="edge">
<title>Node2&#45;&gt;Node3</title>
<g id="a_edge2_Node000002_Node000003"><a xlink:title=" ">
<path fill="none" stroke="#63b8ff" d="M187.29,-359.9C211.39,-347.72 255.34,-326.75 295,-314.42 373.09,-290.14 465.93,-274.05 527.33,-265.1"/>
<polygon fill="#63b8ff" stroke="#63b8ff" points="527.88,-268.56 537.28,-263.67 526.88,-261.63 527.88,-268.56"/>
</a>
</g>
</g>
<!-- Node4 -->
<g id="Node000004" class="node">
<title>Node4</title>
<g id="a_Node000004"><a xlink:href="classcbrc_1_1FLEArray.html#ad71311380d762114c9e0f3b0dda38b7c" target="_top" xlink:title=" ">
<polygon fill="white" stroke="#666666" points="1002,-397.92 891,-397.92 891,-378.92 1002,-378.92 1002,-397.92"/>
<text text-anchor="middle" x="946.5" y="-385.92" font-family="Helvetica,sans-Serif" font-size="10.00">cbrc::FLEArray::size</text>
</a>
</g>
</g>
<!-- Node2&#45;&gt;Node4 -->
<g id="edge13_Node000002_Node000004" class="edge">
<title>Node2&#45;&gt;Node4</title>
<g id="a_edge13_Node000002_Node000004"><a xlink:title=" ">
<path fill="none" stroke="#63b8ff" d="M184.58,-378.93C207.68,-392.42 252.85,-416.47 295,-425.42 514.97,-472.1 785.57,-423.97 895.52,-400.13"/>
<polygon fill="#63b8ff" stroke="#63b8ff" points="896.33,-403.53 905.34,-397.97 894.83,-396.7 896.33,-403.53"/>
</a>
</g>
</g>
<!-- Node6 -->
<g id="Node000006" class="node">
<title>Node6</title>
<g id="a_Node000006"><a xlink:href="classcbrc_1_1FLEArray.html#a877e10058250ecb9733399c211afee1a" target="_top" xlink:title=" ">
<polygon fill="white" stroke="#666666" points="445,-415.92 322,-415.92 322,-396.92 445,-396.92 445,-415.92"/>
<text text-anchor="middle" x="383.5" y="-403.92" font-family="Helvetica,sans-Serif" font-size="10.00">cbrc::FLEArray::empty</text>
</a>
</g>
</g>
<!-- Node2&#45;&gt;Node6 -->
<g id="edge5_Node000002_Node000006" class="edge">
<title>Node2&#45;&gt;Node6</title>
<g id="a_edge5_Node000002_Node000006"><a xlink:title=" ">
<path fill="none" stroke="#63b8ff" d="M223.98,-378.94C252.51,-383.89 287.55,-389.96 317.42,-395.14"/>
<polygon fill="#63b8ff" stroke="#63b8ff" points="316.88,-398.6 327.33,-396.86 318.08,-391.7 316.88,-398.6"/>
</a>
</g>
</g>
<!-- Node2&#45;&gt;Node7 -->
<g id="edge6_Node000002_Node000007" class="edge">
<title>Node2&#45;&gt;Node7</title>
<g id="a_edge6_Node000002_Node000007"><a xlink:title=" ">
<path fill="none" stroke="#63b8ff" d="M223.98,-359.89C252.51,-354.94 287.55,-348.87 317.42,-343.69"/>
<polygon fill="#63b8ff" stroke="#63b8ff" points="318.08,-347.13 327.33,-341.98 316.88,-340.23 318.08,-347.13"/>
</a>
</g>
</g>
<!-- Node11 -->
<g id="Node000011" class="node">
<title>Node11</title>
<g id="a_Node000011"><a xlink:href="classcbrc_1_1ArgvParser.html#a40870d9c52a7a88958432ef2126ab9f1" target="_top" xlink:title=" ">
<polygon fill="white" stroke="#666666" points="462.5,-378.92 304.5,-378.92 304.5,-359.92 462.5,-359.92 462.5,-378.92"/>
<text text-anchor="middle" x="383.5" y="-366.92" font-family="Helvetica,sans-Serif" font-size="10.00">cbrc::ArgvParser::unusedArgs</text>
</a>
</g>
</g>
<!-- Node2&#45;&gt;Node11 -->
<g id="edge14_Node000002_Node000011" class="edge">
<title>Node2&#45;&gt;Node11</title>
<g id="a_edge14_Node000002_Node000011"><a xlink:title=" ">
<path fill="none" stroke="#63b8ff" d="M259.23,-369.42C270.85,-369.42 282.74,-369.42 294.32,-369.42"/>
<polygon fill="#63b8ff" stroke="#63b8ff" points="294.41,-372.92 304.41,-369.42 294.41,-365.92 294.41,-372.92"/>
</a>
</g>
</g>
<!-- Node3&#45;&gt;Node4 -->
<g id="edge3_Node000003_Node000004" class="edge">
<title>Node3&#45;&gt;Node4</title>
<g id="a_edge3_Node000003_Node000004"><a xlink:title=" ">
<path fill="none" stroke="#63b8ff" d="M653.09,-265.96C717.99,-277.46 819.95,-297.35 855,-314.42 884.32,-328.69 912.5,-354.21 929.41,-371.22"/>
<polygon fill="#63b8ff" stroke="#63b8ff" points="927.28,-374.06 936.76,-378.81 932.31,-369.19 927.28,-374.06"/>
</a>
</g>
</g>
<!-- Node5 -->
<g id="Node000005" class="node">
<title>Node5</title>
<g id="a_Node000005"><a xlink:href="classcbrc_1_1ArgvParser.html#a1b7d257748fcfaa9a9a3cf46bc36a7e5" target="_top" xlink:title=" ">
<polygon fill="white" stroke="#666666" points="852.5,-265.92 721.5,-265.92 721.5,-246.92 852.5,-246.92 852.5,-265.92"/>
<text text-anchor="middle" x="787" y="-253.92" font-family="Helvetica,sans-Serif" font-size="10.00">cbrc::ArgvParser::usage</text>
</a>
</g>
</g>
<!-- Node3&#45;&gt;Node5 -->
<g id="edge4_Node000003_Node000005" class="edge">
<title>Node3&#45;&gt;Node5</title>
<g id="a_edge4_Node000003_Node000005"><a xlink:title=" ">
<path fill="none" stroke="#63b8ff" d="M653.61,-256.42C671.72,-256.42 692.01,-256.42 711.17,-256.42"/>
<polygon fill="#63b8ff" stroke="#63b8ff" points="711.37,-259.92 721.37,-256.42 711.37,-252.92 711.37,-259.92"/>
</a>
</g>
</g>
<!-- Node8 -->
<g id="Node000008" class="node">
<title>Node8</title>
<g id="a_Node000008"><a xlink:href="classcbrc_1_1ArgvParser.html#a4279902497c688168b45f0f70d118060" target="_top" xlink:title=" ">
<polygon fill="white" stroke="#666666" points="668,-378.92 523,-378.92 523,-359.92 668,-359.92 668,-378.92"/>
<text text-anchor="middle" x="595.5" y="-366.92" font-family="Helvetica,sans-Serif" font-size="10.00">cbrc::ArgvParser::numArgs</text>
</a>
</g>
</g>
<!-- Node7&#45;&gt;Node8 -->
<g id="edge7_Node000007_Node000008" class="edge">
<title>Node7&#45;&gt;Node8</title>
<g id="a_edge7_Node000007_Node000008"><a xlink:title=" ">
<path fill="none" stroke="#63b8ff" d="M438.58,-341.94C466.52,-346.87 500.8,-352.91 530.1,-358.07"/>
<polygon fill="#63b8ff" stroke="#63b8ff" points="529.78,-361.57 540.24,-359.86 531,-354.67 529.78,-361.57"/>
</a>
</g>
</g>
<!-- Node9 -->
<g id="Node000009" class="node">
<title>Node9</title>
<g id="a_Node000009"><a xlink:href="classcbrc_1_1ArgvParser.html#a96db1f87dc329ff812829f18748c2ce6" target="_top" xlink:title=" ">
<polygon fill="white" stroke="#666666" points="683,-341.92 508,-341.92 508,-322.92 683,-322.92 683,-341.92"/>
<text text-anchor="middle" x="595.5" y="-329.92" font-family="Helvetica,sans-Serif" font-size="10.00">cbrc::ArgvParser::printOptionDoc</text>
</a>
</g>
</g>
<!-- Node7&#45;&gt;Node9 -->
<g id="edge8_Node000007_Node000009" class="edge">
<title>Node7&#45;&gt;Node9</title>
<g id="a_edge8_Node000007_Node000009"><a xlink:title=" ">
<path fill="none" stroke="#63b8ff" d="M455.01,-332.42C468.63,-332.42 483.11,-332.42 497.4,-332.42"/>
<polygon fill="#63b8ff" stroke="#63b8ff" points="497.76,-335.92 507.76,-332.42 497.76,-328.92 497.76,-335.92"/>
</a>
</g>
</g>
<!-- Node9&#45;&gt;Node4 -->
<g id="edge12_Node000009_Node000004" class="edge">
<title>Node9&#45;&gt;Node4</title>
<g id="a_edge12_Node000009_Node000004"><a xlink:title=" ">
<path fill="none" stroke="#63b8ff" d="M649.69,-341.92C660.84,-344.52 672.42,-347.67 683,-351.42 699.86,-357.38 701.78,-364.58 719,-369.42 772.16,-384.34 834.87,-388.62 880.81,-389.44"/>
<polygon fill="#63b8ff" stroke="#63b8ff" points="880.89,-392.94 890.94,-389.57 880.98,-385.94 880.89,-392.94"/>
</a>
</g>
</g>
<!-- Node10 -->
<g id="Node000010" class="node">
<title>Node10</title>
<g id="a_Node000010"><a xlink:href="classcbrc_1_1ArgvParser.html#af4e3bd7a5c422f82280a37b17299876f" target="_top" xlink:title=" ">
<polygon fill="white" stroke="#666666" points="855,-341.92 719,-341.92 719,-322.92 855,-322.92 855,-341.92"/>
<text text-anchor="middle" x="787" y="-329.92" font-family="Helvetica,sans-Serif" font-size="10.00">cbrc::ArgvParser::getDoc</text>
</a>
</g>
</g>
<!-- Node9&#45;&gt;Node10 -->
<g id="edge9_Node000009_Node000010" class="edge">
<title>Node9&#45;&gt;Node10</title>
<g id="a_edge9_Node000009_Node000010"><a xlink:title=" ">
<path fill="none" stroke="#63b8ff" d="M683.21,-332.42C691.73,-332.42 700.34,-332.42 708.76,-332.42"/>
<polygon fill="#63b8ff" stroke="#63b8ff" points="708.91,-335.92 718.91,-332.42 708.91,-328.92 708.91,-335.92"/>
</a>
</g>
</g>
<!-- Node10&#45;&gt;Node4 -->
<g id="edge11_Node000010_Node000004" class="edge">
<title>Node10&#45;&gt;Node4</title>
<g id="a_edge11_Node000010_Node000004"><a xlink:title=" ">
<path fill="none" stroke="#63b8ff" d="M815.08,-342.04C841.04,-351.27 880.42,-365.28 909.11,-375.48"/>
<polygon fill="#63b8ff" stroke="#63b8ff" points="908.18,-378.86 918.78,-378.91 910.53,-372.27 908.18,-378.86"/>
</a>
</g>
</g>
<!-- Node10&#45;&gt;Node10 -->
<g id="edge10_Node000010_Node000010" class="edge">
<title>Node10&#45;&gt;Node10</title>
<g id="a_edge10_Node000010_Node000010"><a xlink:title=" ">
<path fill="none" stroke="#63b8ff" d="M762.65,-342C750.8,-350.65 758.92,-359.92 787,-359.92 805.43,-359.92 815.26,-355.92 816.49,-350.74"/>
<polygon fill="#63b8ff" stroke="#63b8ff" points="819.44,-348.84 811.35,-342 813.41,-352.39 819.44,-348.84"/>
</a>
</g>
</g>
<!-- Node12&#45;&gt;Node3 -->
<g id="edge18_Node000012_Node000003" class="edge">
<title>Node12&#45;&gt;Node3</title>
<g id="a_edge18_Node000012_Node000003"><a xlink:title=" ">
<path fill="none" stroke="#63b8ff" d="M195.02,-195.57C219.82,-209.18 258.66,-228.36 295,-237.42 372.9,-256.82 465.53,-259.75 526.93,-259"/>
<polygon fill="#63b8ff" stroke="#63b8ff" points="527.32,-262.5 537.27,-258.84 527.21,-255.5 527.32,-262.5"/>
</a>
</g>
</g>
<!-- Node13 -->
<g id="Node000013" class="node">
<title>Node13</title>
<g id="a_Node000013"><a xlink:href="namespacecbrc.html#a94ca1678e0481b17626977da7cfb798b" target="_top" xlink:title=" ">
<polygon fill="white" stroke="#666666" points="669.5,-113.92 521.5,-113.92 521.5,-94.92 669.5,-94.92 669.5,-113.92"/>
<text text-anchor="middle" x="595.5" y="-101.92" font-family="Helvetica,sans-Serif" font-size="10.00">cbrc::_argvParserNullString</text>
</a>
</g>
</g>
<!-- Node12&#45;&gt;Node13 -->
<g id="edge17_Node000012_Node000013" class="edge">
<title>Node12&#45;&gt;Node13</title>
<g id="a_edge17_Node000012_Node000013"><a xlink:title=" ">
<path fill="none" stroke="#63b8ff" d="M252.05,-165.58C333.82,-150.98 456.93,-128.99 531.12,-115.74"/>
<polygon fill="#63b8ff" stroke="#63b8ff" points="532.02,-119.13 541.25,-113.93 530.79,-112.24 532.02,-119.13"/>
</a>
</g>
</g>
<!-- Node14 -->
<g id="Node000014" class="node">
<title>Node14</title>
<g id="a_Node000014"><a xlink:href="classcbrc_1_1ArgvParser.html#a273ad44f1f402d2a9c31d5cb04c2a63f" target="_top" xlink:title=" ">
<polygon fill="white" stroke="#666666" points="450.5,-113.92 316.5,-113.92 316.5,-94.92 450.5,-94.92 450.5,-113.92"/>
<text text-anchor="middle" x="383.5" y="-101.92" font-family="Helvetica,sans-Serif" font-size="10.00">cbrc::ArgvParser::getArg</text>
</a>
</g>
</g>
<!-- Node12&#45;&gt;Node14 -->
<g id="edge19_Node000012_Node000014" class="edge">
<title>Node12&#45;&gt;Node14</title>
<g id="a_edge19_Node000012_Node000014"><a xlink:title=" ">
<path fill="none" stroke="#63b8ff" d="M202.26,-165.37C227.42,-154.31 262.98,-139.37 295,-128.42 307.35,-124.19 320.87,-120.19 333.51,-116.7"/>
<polygon fill="#63b8ff" stroke="#63b8ff" points="334.68,-120.01 343.42,-114.03 332.85,-113.26 334.68,-120.01"/>
</a>
</g>
</g>
<!-- Node15 -->
<g id="Node000015" class="node">
<title>Node15</title>
<g id="a_Node000015"><a xlink:href="classcbrc_1_1ArgvParser.html#acfc1ef9228adb3bfe47ba9c9e68e68cd" target="_top" xlink:title=" ">
<polygon fill="white" stroke="#666666" points="451,-76.92 316,-76.92 316,-57.92 451,-57.92 451,-76.92"/>
<text text-anchor="middle" x="383.5" y="-64.92" font-family="Helvetica,sans-Serif" font-size="10.00">cbrc::ArgvParser::hasArg</text>
</a>
</g>
</g>
<!-- Node12&#45;&gt;Node15 -->
<g id="edge21_Node000012_Node000015" class="edge">
<title>Node12&#45;&gt;Node15</title>
<g id="a_edge21_Node000012_Node000015"><a xlink:title=" ">
<path fill="none" stroke="#63b8ff" d="M184.21,-165.28C206.52,-144.01 250.31,-105.61 295,-85.42 299.45,-83.41 304.12,-81.62 308.91,-80.03"/>
<polygon fill="#63b8ff" stroke="#63b8ff" points="310.27,-83.27 318.83,-77.03 308.24,-76.57 310.27,-83.27"/>
</a>
</g>
</g>
<!-- Node16 -->
<g id="Node000016" class="node">
<title>Node16</title>
<g id="a_Node000016"><a xlink:href="classcbrc_1_1ArgvParser.html#ae862060477d073e6a4dcbaa09a86189d" target="_top" xlink:title=" ">
<polygon fill="white" stroke="#666666" points="472,-227.92 295,-227.92 295,-208.92 472,-208.92 472,-227.92"/>
<text text-anchor="middle" x="383.5" y="-215.92" font-family="Helvetica,sans-Serif" font-size="10.00">cbrc::ArgvParser::openCautiously</text>
</a>
</g>
</g>
<!-- Node12&#45;&gt;Node16 -->
<g id="edge22_Node000012_Node000016" class="edge">
<title>Node12&#45;&gt;Node16</title>
<g id="a_edge22_Node000012_Node000016"><a xlink:title=" ">
<path fill="none" stroke="#63b8ff" d="M252.16,-195.22C274.39,-199.17 298.07,-203.39 319.05,-207.12"/>
<polygon fill="#63b8ff" stroke="#63b8ff" points="318.66,-210.61 329.12,-208.92 319.89,-203.72 318.66,-210.61"/>
</a>
</g>
</g>
<!-- Node17 -->
<g id="Node000017" class="node">
<title>Node17</title>
<g id="a_Node000017"><a xlink:href="classcbrc_1_1ArgvParser.html#ae3c19f8214a3eed2fd50d1f62a8a41c0" target="_top" xlink:title=" ">
<polygon fill="white" stroke="#666666" points="671,-208.92 520,-208.92 520,-189.92 671,-189.92 671,-208.92"/>
<text text-anchor="middle" x="595.5" y="-196.92" font-family="Helvetica,sans-Serif" font-size="10.00">cbrc::ArgvParser::pathname</text>
</a>
</g>
</g>
<!-- Node12&#45;&gt;Node17 -->
<g id="edge25_Node000012_Node000017" class="edge">
<title>Node12&#45;&gt;Node17</title>
<g id="a_edge25_Node000012_Node000017"><a xlink:title=" ">
<path fill="none" stroke="#63b8ff" d="M252.05,-184.12C326.31,-187.44 434.67,-192.28 509.52,-195.62"/>
<polygon fill="#63b8ff" stroke="#63b8ff" points="509.7,-199.13 519.85,-196.08 510.01,-192.14 509.7,-199.13"/>
</a>
</g>
</g>
<!-- Node14&#45;&gt;Node13 -->
<g id="edge20_Node000014_Node000013" class="edge">
<title>Node14&#45;&gt;Node13</title>
<g id="a_edge20_Node000014_Node000013"><a xlink:title=" ">
<path fill="none" stroke="#63b8ff" d="M450.66,-104.42C469.89,-104.42 491.15,-104.42 511.28,-104.42"/>
<polygon fill="#63b8ff" stroke="#63b8ff" points="511.38,-107.92 521.38,-104.42 511.38,-100.92 511.38,-107.92"/>
</a>
</g>
</g>
<!-- Node16&#45;&gt;Node3 -->
<g id="edge23_Node000016_Node000003" class="edge">
<title>Node16&#45;&gt;Node3</title>
<g id="a_edge23_Node000016_Node000003"><a xlink:title=" ">
<path fill="none" stroke="#63b8ff" d="M437.22,-227.96C465.93,-233.15 501.64,-239.61 531.77,-245.06"/>
<polygon fill="#63b8ff" stroke="#63b8ff" points="531.29,-248.54 541.76,-246.87 532.54,-241.65 531.29,-248.54"/>
</a>
</g>
</g>
<!-- Node16&#45;&gt;Node17 -->
<g id="edge24_Node000016_Node000017" class="edge">
<title>Node16&#45;&gt;Node17</title>
<g id="a_edge24_Node000016_Node000017"><a xlink:title=" ">
<path fill="none" stroke="#63b8ff" d="M472.04,-210.5C484.44,-209.37 497.17,-208.22 509.51,-207.1"/>
<polygon fill="#63b8ff" stroke="#63b8ff" points="510.14,-210.56 519.78,-206.18 509.51,-203.59 510.14,-210.56"/>
</a>
</g>
</g>
<!-- Node19&#45;&gt;Node3 -->
<g id="edge29_Node000019_Node000003" class="edge">
<title>Node19&#45;&gt;Node3</title>
<g id="a_edge29_Node000019_Node000003"><a xlink:title=" ">
<path fill="none" stroke="#63b8ff" d="M211.86,-57.87C285.81,-42.49 433.2,-16.97 472,-48.42 532,-97.04 459.27,-158.5 508,-218.42 516.99,-229.47 529.85,-237.4 542.91,-243.06"/>
<polygon fill="#63b8ff" stroke="#63b8ff" points="541.82,-246.39 552.4,-246.78 544.37,-239.87 541.82,-246.39"/>
</a>
</g>
</g>
<!-- Node19&#45;&gt;Node13 -->
<g id="edge28_Node000019_Node000013" class="edge">
<title>Node19&#45;&gt;Node13</title>
<g id="a_edge28_Node000019_Node000013"><a xlink:title=" ">
<path fill="none" stroke="#63b8ff" d="M186.25,-57.73C209.91,-45.06 254.15,-23.51 295,-15.42 372.17,-0.12 397.18,8.89 472,-15.42 515.64,-29.6 556.73,-65.82 578.45,-87.43"/>
<polygon fill="#63b8ff" stroke="#63b8ff" points="576.04,-89.98 585.54,-94.66 581.04,-85.07 576.04,-89.98"/>
</a>
</g>
</g>
<!-- Node19&#45;&gt;Node14 -->
<g id="edge30_Node000019_Node000014" class="edge">
<title>Node19&#45;&gt;Node14</title>
<g id="a_edge30_Node000019_Node000014"><a xlink:title=" ">
<path fill="none" stroke="#63b8ff" d="M223.98,-76.94C252.51,-81.89 287.55,-87.96 317.42,-93.14"/>
<polygon fill="#63b8ff" stroke="#63b8ff" points="316.88,-96.6 327.33,-94.86 318.08,-89.7 316.88,-96.6"/>
</a>
</g>
</g>
<!-- Node19&#45;&gt;Node15 -->
<g id="edge31_Node000019_Node000015" class="edge">
<title>Node19&#45;&gt;Node15</title>
<g id="a_edge31_Node000019_Node000015"><a xlink:title=" ">
<path fill="none" stroke="#63b8ff" d="M240.09,-67.42C261.14,-67.42 284.28,-67.42 305.67,-67.42"/>
<polygon fill="#63b8ff" stroke="#63b8ff" points="305.69,-70.92 315.69,-67.42 305.69,-63.92 305.69,-70.92"/>
</a>
</g>
</g>
<!-- Node21 -->
<g id="Node000021" class="node">
<title>Node21</title>
<g id="a_Node000021"><a xlink:href="classcbrc_1_1FLEArray.html#a67f88b1303a55d4e8039da5a9a739203" target="_top" xlink:title=" ">
<polygon fill="white" stroke="#666666" points="441.5,-491.92 325.5,-491.92 325.5,-472.92 441.5,-472.92 441.5,-491.92"/>
<text text-anchor="middle" x="383.5" y="-479.92" font-family="Helvetica,sans-Serif" font-size="10.00">cbrc::FLEArray::write</text>
</a>
</g>
</g>
<!-- Node20&#45;&gt;Node21 -->
<g id="edge33_Node000020_Node000021" class="edge">
<title>Node20&#45;&gt;Node21</title>
<g id="a_edge33_Node000020_Node000021"><a xlink:title=" ">
<path fill="none" stroke="#63b8ff" d="M244.27,-459.76C267.38,-463.54 292.66,-467.69 315.2,-471.38"/>
<polygon fill="#63b8ff" stroke="#63b8ff" points="314.91,-474.88 325.35,-473.05 316.05,-467.97 314.91,-474.88"/>
</a>
</g>
</g>
<!-- Node21&#45;&gt;Node21 -->
<g id="edge36_Node000021_Node000021" class="edge">
<title>Node21&#45;&gt;Node21</title>
<g id="a_edge36_Node000021_Node000021"><a xlink:title=" ">
<path fill="none" stroke="#63b8ff" d="M350.82,-492C334.93,-500.65 345.82,-509.92 383.5,-509.92 410.58,-509.92 423.83,-505.13 423.23,-499.22"/>
<polygon fill="#63b8ff" stroke="#63b8ff" points="425.67,-496.71 416.18,-492 420.66,-501.6 425.67,-496.71"/>
</a>
</g>
</g>
<!-- Node22 -->
<g id="Node000022" class="node">
<title>Node22</title>
<g id="a_Node000022"><a xlink:href="classcbrc_1_1FLEArray.html#a8255bcefe055e10a4fccd3331b450fee" target="_top" xlink:title=" ">
<polygon fill="white" stroke="#666666" points="845.5,-491.92 728.5,-491.92 728.5,-472.92 845.5,-472.92 845.5,-491.92"/>
<text text-anchor="middle" x="787" y="-479.92" font-family="Helvetica,sans-Serif" font-size="10.00">cbrc::FLEArray::bsize</text>
</a>
</g>
</g>
<!-- Node21&#45;&gt;Node22 -->
<g id="edge34_Node000021_Node000022" class="edge">
<title>Node21&#45;&gt;Node22</title>
<g id="a_edge34_Node000021_Node000022"><a xlink:title=" ">
<path fill="none" stroke="#63b8ff" d="M441.6,-482.42C514.53,-482.42 640.59,-482.42 718.28,-482.42"/>
<polygon fill="#63b8ff" stroke="#63b8ff" points="718.45,-485.92 728.45,-482.42 718.45,-478.92 718.45,-485.92"/>
</a>
</g>
</g>
<!-- Node22&#45;&gt;Node4 -->
<g id="edge35_Node000022_Node000004" class="edge">
<title>Node22&#45;&gt;Node4</title>
<g id="a_edge35_Node000022_Node000004"><a xlink:title=" ">
<path fill="none" stroke="#63b8ff" d="M821.27,-472.81C832.32,-469.01 844.49,-464.17 855,-458.42 882.4,-443.41 910.29,-420.42 927.72,-404.92"/>
<polygon fill="#63b8ff" stroke="#63b8ff" points="930.33,-407.29 935.4,-397.99 925.63,-402.1 930.33,-407.29"/>
</a>
</g>
</g>
</g>
</svg>
